<svg xmlns="http://www.w3.org/2000/svg" id="vis" style="width: 100%; height: 100%; margin-left: auto; margin-right: auto; max-width: unset; max-height: unset; min-width: unset; min-height: unset;" viewBox="-15,-15,534,534">
  <g>
    <defs id="defs0" style="opacity: 1;">
      <clipPath id="clipPath0" style="opacity: 1;">
        <rect x="0.00" y="504.00" width="0.00" height="0.00" id="rect0" class="mark" style="opacity: 1;" opacity="1"></rect>
      </clipPath>
    </defs>
    <rect x="0.00" y="0.00" width="504.00" height="504.00" id="rect1" clip-path="url(#cl_id4475dae4f9a20190630210759_1)" fill="#FFFFFF" fill-opacity="1" stroke-width="0.75" stroke="#FFFFFF" stroke-opacity="1" stroke-linejoin="round" stroke-linecap="round" class="mark" style="opacity: 1;" opacity="1"></rect>
    <defs id="defs1" style="opacity: 1;">
      <clipPath id="clipPath1" style="opacity: 1;">
        <rect x="0.00" y="0.00" width="504.00" height="504.00" id="rect2" class="mark" style="opacity: 1;" opacity="1"></rect>
      </clipPath>
    </defs>
    <defs id="defs2" style="opacity: 1;">
      <clipPath id="clipPath2" style="opacity: 1;">
        <rect x="0.00" y="7.90" width="504.00" height="488.20" id="rect3" class="mark" style="opacity: 1;" opacity="1"></rect>
      </clipPath>
    </defs>
    <polygon points="260.16,246.96 259.92,243.03 259.18,239.15 257.96,235.40 256.28,231.83 254.16,228.50 251.65,225.46 248.78,222.76 245.58,220.44 242.13,218.54 238.46,217.09 234.64,216.11 230.73,215.62 226.78,215.62 222.87,216.11 219.05,217.09 215.38,218.54 211.93,220.44 208.74,222.76 205.86,225.46 203.35,228.50 201.23,231.83 199.55,235.40 198.33,239.15 197.60,243.03 197.35,246.96 197.60,250.90 198.33,254.77 199.55,258.52 201.23,262.09 203.35,265.42 205.86,268.46 208.74,271.16 211.93,273.48 215.38,275.38 219.05,276.83 222.87,277.81 226.78,278.31 230.73,278.31 234.64,277.81 238.46,276.83 242.13,275.38 245.58,273.48 248.78,271.16 251.65,268.46 254.16,265.42 256.28,262.09 257.96,258.52 259.18,254.77 259.92,250.90 260.16,246.96" id="polygon0" clip-path="url(#cl_id4475dae4f9a20190630210759_3)" fill="#440154" fill-opacity="0.6" stroke-width="1.06698" stroke="#000000" stroke-opacity="1" stroke-linejoin="round" stroke-linecap="round" title="name:  Group_tqy <br> value: 68 <br> You can add a story here!" data-id="1" class="mark" style="opacity: 1;" opacity="1"></polygon>
    <polygon points="309.53,246.96 309.34,243.87 308.75,240.82 307.80,237.88 306.48,235.07 304.82,232.45 302.84,230.07 300.58,227.94 298.07,226.12 295.36,224.63 292.47,223.49 289.47,222.72 286.40,222.33 283.30,222.33 280.22,222.72 277.22,223.49 274.34,224.63 271.62,226.12 269.11,227.94 266.85,230.07 264.88,232.45 263.22,235.07 261.90,237.88 260.94,240.82 260.36,243.87 260.16,246.96 260.36,250.06 260.94,253.10 261.90,256.05 263.22,258.85 264.88,261.47 266.85,263.86 269.11,265.98 271.62,267.80 274.34,269.30 277.22,270.44 280.22,271.21 283.30,271.60 286.40,271.60 289.47,271.21 292.47,270.44 295.36,269.30 298.07,267.80 300.58,265.98 302.84,263.86 304.82,261.47 306.48,258.85 307.80,256.05 308.75,253.10 309.34,250.06 309.53,246.96" id="polygon1" clip-path="url(#cl_id4475dae4f9a20190630210759_3)" fill="#46065A" fill-opacity="0.6" stroke-width="1.06698" stroke="#000000" stroke-opacity="1" stroke-linejoin="round" stroke-linecap="round" title="name:  Group_nkt <br> value: 42 <br> You can add a story here!" data-id="2" class="mark" style="opacity: 1;" opacity="1"></polygon>
    <polygon points="269.70,270.25 269.63,269.18 269.43,268.13 269.10,267.11 268.65,266.15 268.07,265.24 267.39,264.42 266.61,263.69 265.75,263.06 264.81,262.54 263.82,262.15 262.78,261.88 261.72,261.75 260.65,261.75 259.59,261.88 258.55,262.15 257.56,262.54 256.62,263.06 255.76,263.69 254.98,264.42 254.29,265.24 253.72,266.15 253.27,267.11 252.94,268.13 252.73,269.18 252.67,270.25 252.73,271.32 252.94,272.37 253.27,273.39 253.72,274.35 254.29,275.26 254.98,276.08 255.76,276.81 256.62,277.44 257.56,277.96 258.55,278.35 259.59,278.62 260.65,278.75 261.72,278.75 262.78,278.62 263.82,278.35 264.81,277.96 265.75,277.44 266.61,276.81 267.39,276.08 268.07,275.26 268.65,274.35 269.10,273.39 269.43,272.37 269.63,271.32 269.70,270.25" id="polygon2" clip-path="url(#cl_id4475dae4f9a20190630210759_3)" fill="#460C5F" fill-opacity="0.6" stroke-width="1.06698" stroke="#000000" stroke-opacity="1" stroke-linejoin="round" stroke-linecap="round" title="name:  Group_ipw <br> value: 5 <br> You can add a story here!" data-id="3" class="mark" style="opacity: 1;" opacity="1"></polygon>
    <polygon points="307.67,297.12 307.47,293.92 306.87,290.77 305.88,287.72 304.51,284.81 302.79,282.10 300.75,279.63 298.41,277.43 295.81,275.55 293.00,274.00 290.02,272.82 286.91,272.02 283.73,271.62 280.52,271.62 277.34,272.02 274.23,272.82 271.24,274.00 268.43,275.55 265.84,277.43 263.50,279.63 261.45,282.10 259.73,284.81 258.37,287.72 257.38,290.77 256.78,293.92 256.57,297.12 256.78,300.32 257.38,303.48 258.37,306.53 259.73,309.43 261.45,312.14 263.50,314.61 265.84,316.81 268.43,318.69 271.24,320.24 274.23,321.42 277.34,322.22 280.52,322.62 283.73,322.62 286.91,322.22 290.02,321.42 293.00,320.24 295.81,318.69 298.41,316.81 300.75,314.61 302.79,312.14 304.51,309.43 305.88,306.53 306.87,303.48 307.47,300.32 307.67,297.12" id="polygon3" clip-path="url(#cl_id4475dae4f9a20190630210759_3)" fill="#471164" fill-opacity="0.6" stroke-width="1.06698" stroke="#000000" stroke-opacity="1" stroke-linejoin="round" stroke-linecap="round" title="name:  Group_xkq <br> value: 45 <br> You can add a story here!" data-id="4" class="mark" style="opacity: 1;" opacity="1"></polygon>
    <polygon points="256.58,297.95 256.42,295.42 255.95,292.94 255.17,290.53 254.09,288.24 252.73,286.10 251.12,284.15 249.27,282.42 247.23,280.93 245.01,279.71 242.66,278.78 240.20,278.15 237.69,277.84 235.16,277.84 232.65,278.15 230.20,278.78 227.85,279.71 225.63,280.93 223.58,282.42 221.74,284.15 220.12,286.10 218.77,288.24 217.69,290.53 216.91,292.94 216.43,295.42 216.27,297.95 216.43,300.48 216.91,302.96 217.69,305.37 218.77,307.66 220.12,309.80 221.74,311.75 223.58,313.48 225.63,314.97 227.85,316.19 230.20,317.12 232.65,317.75 235.16,318.06 237.69,318.06 240.20,317.75 242.66,317.12 245.01,316.19 247.23,314.97 249.27,313.48 251.12,311.75 252.73,309.80 254.09,307.66 255.17,305.37 255.95,302.96 256.42,300.48 256.58,297.95" id="polygon4" clip-path="url(#cl_id4475dae4f9a20190630210759_3)" fill="#481769" fill-opacity="0.6" stroke-width="1.06698" stroke="#000000" stroke-opacity="1" stroke-linejoin="round" stroke-linecap="round" title="name:  Group_ssd <br> value: 28 <br> You can add a story here!" data-id="5" class="mark" style="opacity: 1;" opacity="1"></polygon>
    <polygon points="281.06,209.89 280.91,207.55 280.47,205.24 279.75,203.02 278.75,200.90 277.50,198.92 276.00,197.11 274.29,195.51 272.40,194.13 270.34,193.00 268.17,192.14 265.90,191.56 263.57,191.26 261.23,191.26 258.90,191.56 256.63,192.14 254.46,193.00 252.40,194.13 250.51,195.51 248.80,197.11 247.30,198.92 246.05,200.90 245.05,203.02 244.33,205.24 243.89,207.55 243.74,209.89 243.89,212.22 244.33,214.53 245.05,216.75 246.05,218.87 247.30,220.85 248.80,222.66 250.51,224.26 252.40,225.64 254.46,226.77 256.63,227.63 258.90,228.21 261.23,228.51 263.57,228.51 265.90,228.21 268.17,227.63 270.34,226.77 272.40,225.64 274.29,224.26 276.00,222.66 277.50,220.85 278.75,218.87 279.75,216.75 280.47,214.53 280.91,212.22 281.06,209.89" id="polygon5" clip-path="url(#cl_id4475dae4f9a20190630210759_3)" fill="#481B6D" fill-opacity="0.6" stroke-width="1.06698" stroke="#000000" stroke-opacity="1" stroke-linejoin="round" stroke-linecap="round" title="name:  Group_sym <br> value: 24 <br> You can add a story here!" data-id="6" class="mark" style="opacity: 1;" opacity="1"></polygon>
    <polygon points="332.37,200.90 332.17,197.63 331.55,194.41 330.54,191.29 329.14,188.32 327.38,185.55 325.29,183.03 322.90,180.78 320.25,178.85 317.38,177.28 314.33,176.07 311.15,175.25 307.90,174.84 304.62,174.84 301.37,175.25 298.19,176.07 295.14,177.28 292.27,178.85 289.62,180.78 287.23,183.03 285.14,185.55 283.38,188.32 281.98,191.29 280.97,194.41 280.35,197.63 280.15,200.90 280.35,204.17 280.97,207.39 281.98,210.51 283.38,213.48 285.14,216.25 287.23,218.78 289.62,221.02 292.27,222.95 295.14,224.53 298.19,225.73 301.37,226.55 304.62,226.96 307.90,226.96 311.15,226.55 314.33,225.73 317.38,224.53 320.25,222.95 322.90,221.02 325.29,218.78 327.38,216.25 329.14,213.48 330.54,210.51 331.55,207.39 332.17,204.17 332.37,200.90" id="polygon6" clip-path="url(#cl_id4475dae4f9a20190630210759_3)" fill="#482071" fill-opacity="0.6" stroke-width="1.06698" stroke="#000000" stroke-opacity="1" stroke-linejoin="round" stroke-linecap="round" title="name:  Group_pxl <br> value: 47 <br> You can add a story here!" data-id="7" class="mark" style="opacity: 1;" opacity="1"></polygon>
    <polygon points="347.13,240.43 346.98,238.05 346.53,235.70 345.79,233.42 344.77,231.26 343.49,229.24 341.97,227.40 340.22,225.76 338.29,224.35 336.19,223.20 333.97,222.32 331.65,221.73 329.28,221.43 326.89,221.43 324.52,221.73 322.20,222.32 319.98,223.20 317.88,224.35 315.94,225.76 314.20,227.40 312.68,229.24 311.40,231.26 310.38,233.42 309.64,235.70 309.19,238.05 309.04,240.43 309.19,242.82 309.64,245.17 310.38,247.44 311.40,249.61 312.68,251.63 314.20,253.47 315.94,255.11 317.88,256.51 319.98,257.66 322.20,258.54 324.52,259.14 326.89,259.44 329.28,259.44 331.65,259.14 333.97,258.54 336.19,257.66 338.29,256.51 340.22,255.11 341.97,253.47 343.49,251.63 344.77,249.61 345.79,247.44 346.53,245.17 346.98,242.82 347.13,240.43" id="polygon7" clip-path="url(#cl_id4475dae4f9a20190630210759_3)" fill="#482576" fill-opacity="0.6" stroke-width="1.06698" stroke="#000000" stroke-opacity="1" stroke-linejoin="round" stroke-linecap="round" title="name:  Group_rps <br> value: 25 <br> You can add a story here!" data-id="8" class="mark" style="opacity: 1;" opacity="1"></polygon>
    <polygon points="352.54,282.94 352.35,280.00 351.80,277.10 350.89,274.30 349.63,271.63 348.05,269.14 346.17,266.87 344.02,264.85 341.64,263.12 339.05,261.70 336.31,260.61 333.46,259.88 330.53,259.51 327.58,259.51 324.66,259.88 321.80,260.61 319.06,261.70 316.48,263.12 314.09,264.85 311.94,266.87 310.06,269.14 308.48,271.63 307.23,274.30 306.32,277.10 305.76,280.00 305.58,282.94 305.76,285.89 306.32,288.78 307.23,291.59 308.48,294.25 310.06,296.74 311.94,299.02 314.09,301.03 316.48,302.77 319.06,304.19 321.80,305.27 324.66,306.01 327.58,306.38 330.53,306.38 333.46,306.01 336.31,305.27 339.05,304.19 341.64,302.77 344.02,301.03 346.17,299.02 348.05,296.74 349.63,294.25 350.89,291.59 351.80,288.78 352.35,285.89 352.54,282.94" id="polygon8" clip-path="url(#cl_id4475dae4f9a20190630210759_3)" fill="#472A7A" fill-opacity="0.6" stroke-width="1.06698" stroke="#000000" stroke-opacity="1" stroke-linejoin="round" stroke-linecap="round" title="name:  Group_duq <br> value: 38 <br> You can add a story here!" data-id="9" class="mark" style="opacity: 1;" opacity="1"></polygon>
    <polygon points="223.35,280.95 223.32,280.47 223.23,280.00 223.08,279.55 222.88,279.12 222.62,278.71 222.31,278.34 221.97,278.02 221.58,277.73 221.16,277.50 220.72,277.33 220.25,277.21 219.78,277.15 219.30,277.15 218.82,277.21 218.36,277.33 217.92,277.50 217.50,277.73 217.11,278.02 216.76,278.34 216.46,278.71 216.20,279.12 216.00,279.55 215.85,280.00 215.76,280.47 215.73,280.95 215.76,281.43 215.85,281.90 216.00,282.35 216.20,282.79 216.46,283.19 216.76,283.56 217.11,283.89 217.50,284.17 217.92,284.40 218.36,284.57 218.82,284.69 219.30,284.75 219.78,284.75 220.25,284.69 220.72,284.57 221.16,284.40 221.58,284.17 221.97,283.89 222.31,283.56 222.62,283.19 222.88,282.79 223.08,282.35 223.23,281.90 223.32,281.43 223.35,280.95" id="polygon9" clip-path="url(#cl_id4475dae4f9a20190630210759_3)" fill="#472E7C" fill-opacity="0.6" stroke-width="1.06698" stroke="#000000" stroke-opacity="1" stroke-linejoin="round" stroke-linecap="round" title="name:  Group_zzy <br> value: 1 <br> You can add a story here!" data-id="10" class="mark" style="opacity: 1;" opacity="1"></polygon>
    <polygon points="216.61,292.12 216.36,288.22 215.63,284.37 214.42,280.65 212.75,277.10 210.65,273.80 208.16,270.78 205.30,268.10 202.13,265.80 198.70,263.91 195.06,262.47 191.27,261.50 187.39,261.01 183.47,261.01 179.59,261.50 175.80,262.47 172.16,263.91 168.72,265.80 165.56,268.10 162.70,270.78 160.21,273.80 158.11,277.10 156.44,280.65 155.23,284.37 154.50,288.22 154.25,292.12 154.50,296.03 155.23,299.88 156.44,303.60 158.11,307.14 160.21,310.45 162.70,313.46 165.56,316.14 168.72,318.45 172.16,320.33 175.80,321.77 179.59,322.75 183.47,323.24 187.39,323.24 191.27,322.75 195.06,321.77 198.70,320.33 202.13,318.45 205.30,316.14 208.16,313.46 210.65,310.45 212.75,307.14 214.42,303.60 215.63,299.88 216.36,296.03 216.61,292.12" id="polygon10" clip-path="url(#cl_id4475dae4f9a20190630210759_3)" fill="#46337F" fill-opacity="0.6" stroke-width="1.06698" stroke="#000000" stroke-opacity="1" stroke-linejoin="round" stroke-linecap="round" title="name:  Group_gzo <br> value: 67 <br> You can add a story here!" data-id="11" class=" mark" style="opacity: 1;" opacity="1"></polygon>
    <polygon points="198.71,234.22 198.49,230.62 197.81,227.07 196.69,223.64 195.16,220.37 193.22,217.32 190.92,214.54 188.29,212.07 185.36,209.94 182.20,208.20 178.84,206.88 175.34,205.98 171.76,205.52 168.15,205.52 164.57,205.98 161.07,206.88 157.71,208.20 154.55,209.94 151.63,212.07 149.00,214.54 146.69,217.32 144.76,220.37 143.22,223.64 142.10,227.07 141.43,230.62 141.20,234.22 141.43,237.83 142.10,241.37 143.22,244.81 144.76,248.08 146.69,251.13 149.00,253.91 151.63,256.38 154.55,258.50 157.71,260.24 161.07,261.57 164.57,262.47 168.15,262.92 171.76,262.92 175.34,262.47 178.84,261.57 182.20,260.24 185.36,258.50 188.29,256.38 190.92,253.91 193.22,251.13 195.16,248.08 196.69,244.81 197.81,241.37 198.49,237.83 198.71,234.22" id="polygon11" clip-path="url(#cl_id4475dae4f9a20190630210759_3)" fill="#453882" fill-opacity="0.6" stroke-width="1.06698" stroke="#000000" stroke-opacity="1" stroke-linejoin="round" stroke-linecap="round" title="name:  Group_uoc <br> value: 57 <br> You can add a story here!" data-id="12" class=" mark" style="opacity: 1;" opacity="1"></polygon>
    <polygon points="237.17,189.82 236.94,186.12 236.24,182.48 235.10,178.96 233.52,175.61 231.54,172.48 229.17,169.62 226.47,167.09 223.48,164.91 220.23,163.12 216.79,161.76 213.20,160.84 209.52,160.37 205.82,160.37 202.14,160.84 198.55,161.76 195.11,163.12 191.86,164.91 188.86,167.09 186.16,169.62 183.80,172.48 181.82,175.61 180.24,178.96 179.09,182.48 178.40,186.12 178.17,189.82 178.40,193.52 179.09,197.16 180.24,200.68 181.82,204.03 183.80,207.16 186.16,210.01 188.86,212.55 191.86,214.73 195.11,216.51 198.55,217.88 202.14,218.80 205.82,219.26 209.52,219.26 213.20,218.80 216.79,217.88 220.23,216.51 223.48,214.73 226.47,212.55 229.17,210.01 231.54,207.16 233.52,204.03 235.10,200.68 236.24,197.16 236.94,193.52 237.17,189.82" id="polygon12" clip-path="url(#cl_id4475dae4f9a20190630210759_3)" fill="#443C84" fill-opacity="0.6" stroke-width="1.06698" stroke="#000000" stroke-opacity="1" stroke-linejoin="round" stroke-linecap="round" title="name:  Group_nwz <br> value: 60 <br> You can add a story here!" data-id="13" class=" mark" style="opacity: 1;" opacity="1"></polygon>
    <polygon points="266.06,178.03 265.94,176.12 265.58,174.24 264.99,172.42 264.17,170.69 263.15,169.07 261.93,167.60 260.54,166.29 258.99,165.17 257.31,164.24 255.53,163.54 253.68,163.06 251.78,162.82 249.87,162.82 247.97,163.06 246.12,163.54 244.34,164.24 242.66,165.17 241.11,166.29 239.72,167.60 238.50,169.07 237.47,170.69 236.66,172.42 236.07,174.24 235.71,176.12 235.59,178.03 235.71,179.94 236.07,181.82 236.66,183.64 237.47,185.37 238.50,186.98 239.72,188.46 241.11,189.77 242.66,190.89 244.34,191.81 246.12,192.52 247.97,192.99 249.87,193.23 251.78,193.23 253.68,192.99 255.53,192.52 257.31,191.81 258.99,190.89 260.54,189.77 261.93,188.46 263.15,186.98 264.17,185.37 264.99,183.64 265.58,181.82 265.94,179.94 266.06,178.03" id="polygon13" clip-path="url(#cl_id4475dae4f9a20190630210759_3)" fill="#424086" fill-opacity="0.6" stroke-width="1.06698" stroke="#000000" stroke-opacity="1" stroke-linejoin="round" stroke-linecap="round" title="name:  Group_cpy <br> value: 16 <br> You can add a story here!" data-id="14" class="mark" style="opacity: 1;" opacity="1"></polygon>
    <polygon points="292.83,171.75 292.73,170.03 292.40,168.33 291.87,166.69 291.14,165.13 290.21,163.67 289.11,162.35 287.86,161.17 286.46,160.15 284.95,159.32 283.35,158.69 281.68,158.26 279.96,158.04 278.24,158.04 276.53,158.26 274.86,158.69 273.26,159.32 271.74,160.15 270.35,161.17 269.09,162.35 267.99,163.67 267.07,165.13 266.33,166.69 265.80,168.33 265.48,170.03 265.37,171.75 265.48,173.47 265.80,175.16 266.33,176.80 267.07,178.36 267.99,179.82 269.09,181.15 270.35,182.33 271.74,183.34 273.26,184.17 274.86,184.81 276.53,185.24 278.24,185.45 279.96,185.45 281.68,185.24 283.35,184.81 284.95,184.17 286.46,183.34 287.86,182.33 289.11,181.15 290.21,179.82 291.14,178.36 291.87,176.80 292.40,175.16 292.73,173.47 292.83,171.75" id="polygon14" clip-path="url(#cl_id4475dae4f9a20190630210759_3)" fill="#404588" fill-opacity="0.6" stroke-width="1.06698" stroke="#000000" stroke-opacity="1" stroke-linejoin="round" stroke-linecap="round" title="name:  Group_fvu <br> value: 13 <br> You can add a story here!" data-id="15" class="mark" style="opacity: 1;" opacity="1"></polygon>
    <polygon points="330.09,318.28 329.97,316.49 329.64,314.74 329.08,313.03 328.32,311.41 327.36,309.90 326.22,308.52 324.92,307.30 323.47,306.25 321.90,305.39 320.24,304.73 318.50,304.28 316.73,304.06 314.94,304.06 313.16,304.28 311.43,304.73 309.77,305.39 308.20,306.25 306.75,307.30 305.45,308.52 304.30,309.90 303.35,311.41 302.58,313.03 302.03,314.74 301.70,316.49 301.58,318.28 301.70,320.07 302.03,321.82 302.58,323.53 303.35,325.15 304.30,326.66 305.45,328.04 306.75,329.26 308.20,330.31 309.77,331.17 311.43,331.83 313.16,332.28 314.94,332.50 316.73,332.50 318.50,332.28 320.24,331.83 321.90,331.17 323.47,330.31 324.92,329.26 326.22,328.04 327.36,326.66 328.32,325.15 329.08,323.53 329.64,321.82 329.97,320.07 330.09,318.28" id="polygon15" clip-path="url(#cl_id4475dae4f9a20190630210759_3)" fill="#3F4889" fill-opacity="0.6" stroke-width="1.06698" stroke="#000000" stroke-opacity="1" stroke-linejoin="round" stroke-linecap="round" title="name:  Group_nxh <br> value: 14 <br> You can add a story here!" data-id="16" class="mark" style="opacity: 1;" opacity="1"></polygon>
    <polygon points="313.03,345.22 312.85,342.32 312.30,339.46 311.41,336.69 310.17,334.06 308.61,331.60 306.75,329.36 304.63,327.37 302.28,325.66 299.73,324.26 297.02,323.19 294.21,322.46 291.32,322.10 288.41,322.10 285.52,322.46 282.71,323.19 280.00,324.26 277.45,325.66 275.10,327.37 272.98,329.36 271.12,331.60 269.56,334.06 268.32,336.69 267.42,339.46 266.88,342.32 266.70,345.22 266.88,348.12 267.42,350.98 268.32,353.75 269.56,356.38 271.12,358.84 272.98,361.08 275.10,363.07 277.45,364.78 280.00,366.18 282.71,367.25 285.52,367.98 288.41,368.34 291.32,368.34 294.21,367.98 297.02,367.25 299.73,366.18 302.28,364.78 304.63,363.07 306.75,361.08 308.61,358.84 310.17,356.38 311.41,353.75 312.30,350.98 312.85,348.12 313.03,345.22" id="polygon16" clip-path="url(#cl_id4475dae4f9a20190630210759_3)" fill="#3D4D8A" fill-opacity="0.6" stroke-width="1.06698" stroke="#000000" stroke-opacity="1" stroke-linejoin="round" stroke-linecap="round" title="name:  Group_ulo <br> value: 37 <br> You can add a story here!" data-id="17" class="mark" style="opacity: 1;" opacity="1"></polygon>
    <polygon points="266.82,348.81 266.57,344.96 265.85,341.17 264.66,337.51 263.02,334.02 260.95,330.76 258.49,327.79 255.68,325.15 252.56,322.88 249.18,321.03 245.60,319.61 241.86,318.65 238.04,318.16 234.18,318.16 230.36,318.65 226.62,319.61 223.04,321.03 219.66,322.88 216.54,325.15 213.73,327.79 211.27,330.76 209.20,334.02 207.56,337.51 206.37,341.17 205.64,344.96 205.40,348.81 205.64,352.66 206.37,356.45 207.56,360.11 209.20,363.60 211.27,366.86 213.73,369.83 216.54,372.47 219.66,374.74 223.04,376.59 226.62,378.01 230.36,378.97 234.18,379.46 238.04,379.46 241.86,378.97 245.60,378.01 249.18,376.59 252.56,374.74 255.68,372.47 258.49,369.83 260.95,366.86 263.02,363.60 264.66,360.11 265.85,356.45 266.57,352.66 266.82,348.81" id="polygon17" clip-path="url(#cl_id4475dae4f9a20190630210759_3)" fill="#3B518B" fill-opacity="0.6" stroke-width="1.06698" stroke="#000000" stroke-opacity="1" stroke-linejoin="round" stroke-linecap="round" title="name:  Group_qpl <br> value: 65 <br> You can add a story here!" data-id="18" class="mark" style="opacity: 1;" opacity="1"></polygon>
    <polygon points="205.58,344.49 205.42,341.84 204.92,339.22 204.09,336.69 202.96,334.28 201.53,332.03 199.83,329.98 197.89,328.15 195.74,326.59 193.41,325.31 190.93,324.33 188.35,323.66 185.71,323.33 183.04,323.33 180.40,323.66 177.82,324.33 175.35,325.31 173.01,326.59 170.86,328.15 168.92,329.98 167.22,332.03 165.79,334.28 164.66,336.69 163.84,339.22 163.34,341.84 163.17,344.49 163.34,347.15 163.84,349.77 164.66,352.30 165.79,354.71 167.22,356.96 168.92,359.01 170.86,360.83 173.01,362.40 175.35,363.68 177.82,364.66 180.40,365.32 183.04,365.66 185.71,365.66 188.35,365.32 190.93,364.66 193.41,363.68 195.74,362.40 197.89,360.83 199.83,359.01 201.53,356.96 202.96,354.71 204.09,352.30 204.92,349.77 205.42,347.15 205.58,344.49" id="polygon18" clip-path="url(#cl_id4475dae4f9a20190630210759_3)" fill="#39558C" fill-opacity="0.6" stroke-width="1.06698" stroke="#000000" stroke-opacity="1" stroke-linejoin="round" stroke-linecap="round" title="name:  Group_bwt <br> value: 31 <br> You can add a story here!" data-id="19" class="mark" style="opacity: 1;" opacity="1"></polygon>
    <polygon points="339.60,147.95 339.39,144.54 338.75,141.18 337.69,137.93 336.24,134.84 334.41,131.96 332.23,129.33 329.74,126.99 326.98,124.98 323.98,123.33 320.81,122.08 317.50,121.23 314.11,120.80 310.70,120.80 307.31,121.23 304.00,122.08 300.82,123.33 297.83,124.98 295.07,126.99 292.58,129.33 290.40,131.96 288.57,134.84 287.11,137.93 286.06,141.18 285.42,144.54 285.20,147.95 285.42,151.35 286.06,154.71 287.11,157.96 288.57,161.05 290.40,163.93 292.58,166.56 295.07,168.90 297.83,170.91 300.82,172.56 304.00,173.81 307.31,174.66 310.70,175.09 314.11,175.09 317.50,174.66 320.81,173.81 323.98,172.56 326.98,170.91 329.74,168.90 332.23,166.56 334.41,163.93 336.24,161.05 337.69,157.96 338.75,154.71 339.39,151.35 339.60,147.95" id="polygon19" clip-path="url(#cl_id4475dae4f9a20190630210759_3)" fill="#38598C" fill-opacity="0.6" stroke-width="1.06698" stroke="#000000" stroke-opacity="1" stroke-linejoin="round" stroke-linecap="round" title="name:  Group_gjw <br> value: 51 <br> You can add a story here!" data-id="20" class="mark" style="opacity: 1;" opacity="1"></polygon>
    <polygon points="350.53,178.55 350.44,176.96 350.14,175.40 349.65,173.90 348.97,172.46 348.12,171.12 347.11,169.90 345.95,168.81 344.67,167.88 343.28,167.12 341.81,166.53 340.27,166.14 338.70,165.94 337.11,165.94 335.54,166.14 334.00,166.53 332.52,167.12 331.13,167.88 329.85,168.81 328.69,169.90 327.68,171.12 326.83,172.46 326.16,173.90 325.67,175.40 325.37,176.96 325.27,178.55 325.37,180.13 325.67,181.69 326.16,183.20 326.83,184.63 327.68,185.97 328.69,187.19 329.85,188.28 331.13,189.21 332.52,189.98 334.00,190.56 335.54,190.95 337.11,191.15 338.70,191.15 340.27,190.95 341.81,190.56 343.28,189.98 344.67,189.21 345.95,188.28 347.11,187.19 348.12,185.97 348.97,184.63 349.65,183.20 350.14,181.69 350.44,180.13 350.53,178.55" id="polygon20" clip-path="url(#cl_id4475dae4f9a20190630210759_3)" fill="#365D8D" fill-opacity="0.6" stroke-width="1.06698" stroke="#000000" stroke-opacity="1" stroke-linejoin="round" stroke-linecap="round" title="name:  Group_veb <br> value: 11 <br> You can add a story here!" data-id="21" class="mark" style="opacity: 1;" opacity="1"></polygon>
    <polygon points="342.84,196.56 342.80,195.88 342.67,195.22 342.46,194.58 342.18,193.96 341.81,193.39 341.38,192.87 340.89,192.41 340.34,192.01 339.75,191.68 339.12,191.44 338.47,191.27 337.79,191.18 337.12,191.18 336.45,191.27 335.79,191.44 335.16,191.68 334.57,192.01 334.02,192.41 333.53,192.87 333.10,193.39 332.74,193.96 332.45,194.58 332.24,195.22 332.11,195.88 332.07,196.56 332.11,197.23 332.24,197.90 332.45,198.54 332.74,199.15 333.10,199.72 333.53,200.25 334.02,200.71 334.57,201.11 335.16,201.43 335.79,201.68 336.45,201.85 337.12,201.93 337.79,201.93 338.47,201.85 339.12,201.68 339.75,201.43 340.34,201.11 340.89,200.71 341.38,200.25 341.81,199.72 342.18,199.15 342.46,198.54 342.67,197.90 342.80,197.23 342.84,196.56" id="polygon21" clip-path="url(#cl_id4475dae4f9a20190630210759_3)" fill="#34618D" fill-opacity="0.6" stroke-width="1.06698" stroke="#000000" stroke-opacity="1" stroke-linejoin="round" stroke-linecap="round" title="name:  Group_twk <br> value: 2 <br> You can add a story here!" data-id="22" class="mark" style="opacity: 1;" opacity="1"></polygon>
    <polygon points="402.30,212.94 402.05,208.97 401.30,205.07 400.08,201.29 398.38,197.70 396.26,194.34 393.72,191.28 390.83,188.56 387.61,186.23 384.13,184.31 380.44,182.85 376.59,181.86 372.65,181.36 368.67,181.36 364.73,181.86 360.88,182.85 357.19,184.31 353.71,186.23 350.49,188.56 347.60,191.28 345.06,194.34 342.94,197.70 341.24,201.29 340.02,205.07 339.27,208.97 339.02,212.94 339.27,216.90 340.02,220.81 341.24,224.59 342.94,228.18 345.06,231.54 347.60,234.60 350.49,237.32 353.71,239.65 357.19,241.57 360.88,243.03 364.73,244.02 368.67,244.51 372.65,244.51 376.59,244.02 380.44,243.03 384.13,241.57 387.61,239.65 390.83,237.32 393.72,234.60 396.26,231.54 398.38,228.18 400.08,224.59 401.30,220.81 402.05,216.90 402.30,212.94" id="polygon22" clip-path="url(#cl_id4475dae4f9a20190630210759_3)" fill="#32648E" fill-opacity="0.6" stroke-width="1.06698" stroke="#000000" stroke-opacity="1" stroke-linejoin="round" stroke-linecap="round" title="name:  Group_mql <br> value: 69 <br> You can add a story here!" data-id="23" class="mark" style="opacity: 1;" opacity="1"></polygon>
    <polygon points="393.19,266.45 393.02,263.71 392.50,261.01 391.65,258.40 390.48,255.91 389.01,253.59 387.26,251.48 385.26,249.59 383.03,247.98 380.63,246.66 378.07,245.64 375.41,244.96 372.69,244.62 369.94,244.62 367.21,244.96 364.55,245.64 362.00,246.66 359.59,247.98 357.36,249.59 355.36,251.48 353.61,253.59 352.14,255.91 350.97,258.40 350.12,261.01 349.60,263.71 349.43,266.45 349.60,269.19 350.12,271.89 350.97,274.51 352.14,276.99 353.61,279.31 355.36,281.43 357.36,283.31 359.59,284.93 362.00,286.25 364.55,287.26 367.21,287.94 369.94,288.29 372.69,288.29 375.41,287.94 378.07,287.26 380.63,286.25 383.03,284.93 385.26,283.31 387.26,281.43 389.01,279.31 390.48,276.99 391.65,274.51 392.50,271.89 393.02,269.19 393.19,266.45" id="polygon23" clip-path="url(#cl_id4475dae4f9a20190630210759_3)" fill="#31688E" fill-opacity="0.6" stroke-width="1.06698" stroke="#000000" stroke-opacity="1" stroke-linejoin="round" stroke-linecap="round" title="name:  Group_kio <br> value: 33 <br> You can add a story here!" data-id="24" class="mark" style="opacity: 1;" opacity="1"></polygon>
    <polygon points="264.02,135.72 263.77,131.90 263.06,128.14 261.88,124.50 260.25,121.04 258.20,117.81 255.76,114.86 252.97,112.24 249.87,109.99 246.52,108.15 242.96,106.74 239.25,105.79 235.46,105.31 231.63,105.31 227.84,105.79 224.13,106.74 220.57,108.15 217.22,109.99 214.12,112.24 211.33,114.86 208.89,117.81 206.84,121.04 205.22,124.50 204.03,128.14 203.32,131.90 203.08,135.72 203.32,139.54 204.03,143.29 205.22,146.93 206.84,150.40 208.89,153.63 211.33,156.57 214.12,159.19 217.22,161.44 220.57,163.29 224.13,164.70 227.84,165.65 231.63,166.13 235.46,166.13 239.25,165.65 242.96,164.70 246.52,163.29 249.87,161.44 252.97,159.19 255.76,156.57 258.20,153.63 260.25,150.40 261.88,146.93 263.06,143.29 263.77,139.54 264.02,135.72" id="polygon24" clip-path="url(#cl_id4475dae4f9a20190630210759_3)" fill="#2F6C8E" fill-opacity="0.6" stroke-width="1.06698" stroke="#000000" stroke-opacity="1" stroke-linejoin="round" stroke-linecap="round" title="name:  Group_ytq <br> value: 64 <br> You can add a story here!" data-id="25" class="mark" style="opacity: 1;" opacity="1"></polygon>
    <polygon points="311.05,100.51 310.82,96.84 310.13,93.23 308.99,89.74 307.43,86.42 305.46,83.31 303.12,80.48 300.44,77.97 297.47,75.81 294.25,74.04 290.83,72.69 287.27,71.77 283.63,71.31 279.95,71.31 276.31,71.77 272.75,72.69 269.33,74.04 266.12,75.81 263.14,77.97 260.46,80.48 258.12,83.31 256.15,86.42 254.59,89.74 253.45,93.23 252.77,96.84 252.54,100.51 252.77,104.18 253.45,107.79 254.59,111.28 256.15,114.60 258.12,117.71 260.46,120.54 263.14,123.05 266.12,125.21 269.33,126.98 272.75,128.33 276.31,129.25 279.95,129.71 283.63,129.71 287.27,129.25 290.83,128.33 294.25,126.98 297.47,125.21 300.44,123.05 303.12,120.54 305.46,117.71 307.43,114.60 308.99,111.28 310.13,107.79 310.82,104.18 311.05,100.51" id="polygon25" clip-path="url(#cl_id4475dae4f9a20190630210759_3)" fill="#2E6F8E" fill-opacity="0.6" stroke-width="1.06698" stroke="#000000" stroke-opacity="1" stroke-linejoin="round" stroke-linecap="round" title="name:  Group_wxq <br> value: 59 <br> You can add a story here!" data-id="26" class="mark" style="opacity: 1;" opacity="1"></polygon>
    <polygon points="178.19,188.28 178.05,186.00 177.62,183.74 176.91,181.56 175.93,179.49 174.70,177.55 173.24,175.78 171.57,174.21 169.71,172.86 167.70,171.76 165.57,170.91 163.35,170.34 161.07,170.05 158.78,170.05 156.50,170.34 154.28,170.91 152.15,171.76 150.14,172.86 148.28,174.21 146.61,175.78 145.15,177.55 143.92,179.49 142.94,181.56 142.23,183.74 141.80,186.00 141.66,188.28 141.80,190.57 142.23,192.83 142.94,195.01 143.92,197.08 145.15,199.02 146.61,200.79 148.28,202.36 150.14,203.71 152.15,204.81 154.28,205.66 156.50,206.23 158.78,206.51 161.07,206.51 163.35,206.23 165.57,205.66 167.70,204.81 169.71,203.71 171.57,202.36 173.24,200.79 174.70,199.02 175.93,197.08 176.91,195.01 177.62,192.83 178.05,190.57 178.19,188.28" id="polygon26" clip-path="url(#cl_id4475dae4f9a20190630210759_3)" fill="#2C728E" fill-opacity="0.6" stroke-width="1.06698" stroke="#000000" stroke-opacity="1" stroke-linejoin="round" stroke-linecap="round" title="name:  Group_nlh <br> value: 23 <br> You can add a story here!" data-id="27" class="mark" style="opacity: 1;" opacity="1"></polygon>
    <polygon points="196.91,149.67 196.73,146.81 196.20,143.99 195.31,141.26 194.09,138.66 192.55,136.24 190.72,134.03 188.63,132.07 186.31,130.38 183.79,129.00 181.12,127.94 178.34,127.23 175.50,126.87 172.63,126.87 169.78,127.23 167.00,127.94 164.33,129.00 161.82,130.38 159.50,132.07 157.40,134.03 155.57,136.24 154.04,138.66 152.81,141.26 151.93,143.99 151.39,146.81 151.21,149.67 151.39,152.54 151.93,155.36 152.81,158.09 154.04,160.68 155.57,163.11 157.40,165.32 159.50,167.28 161.82,168.97 164.33,170.35 167.00,171.41 169.78,172.12 172.63,172.48 175.50,172.48 178.34,172.12 181.12,171.41 183.79,170.35 186.31,168.97 188.63,167.28 190.72,165.32 192.55,163.11 194.09,160.68 195.31,158.09 196.20,155.36 196.73,152.54 196.91,149.67" id="polygon27" clip-path="url(#cl_id4475dae4f9a20190630210759_3)" fill="#2A768E" fill-opacity="0.6" stroke-width="1.06698" stroke="#000000" stroke-opacity="1" stroke-linejoin="round" stroke-linecap="round" title="name:  Group_lyr <br> value: 36 <br> You can add a story here!" data-id="28" class="mark" style="opacity: 1;" opacity="1"></polygon>
    <polygon points="214.09,102.00 213.88,98.66 213.25,95.37 212.22,92.18 210.79,89.15 209.00,86.33 206.86,83.75 204.42,81.45 201.71,79.49 198.78,77.87 195.66,76.64 192.42,75.81 189.10,75.39 185.75,75.39 182.43,75.81 179.19,76.64 176.07,77.87 173.14,79.49 170.43,81.45 167.99,83.75 165.86,86.33 164.06,89.15 162.64,92.18 161.60,95.37 160.98,98.66 160.77,102.00 160.98,105.34 161.60,108.63 162.64,111.81 164.06,114.84 165.86,117.67 167.99,120.25 170.43,122.54 173.14,124.51 176.07,126.12 179.19,127.35 182.43,128.19 185.75,128.61 189.10,128.61 192.42,128.19 195.66,127.35 198.78,126.12 201.71,124.51 204.42,122.54 206.86,120.25 209.00,117.67 210.79,114.84 212.22,111.81 213.25,108.63 213.88,105.34 214.09,102.00" id="polygon28" clip-path="url(#cl_id4475dae4f9a20190630210759_3)" fill="#29798E" fill-opacity="0.6" stroke-width="1.06698" stroke="#000000" stroke-opacity="1" stroke-linejoin="round" stroke-linecap="round" title="name:  Group_rzx <br> value: 49 <br> You can add a story here!" data-id="29" class=" mark" style="opacity: 1;" opacity="1"></polygon>
    <polygon points="370.99,297.16 370.91,295.81 370.65,294.48 370.23,293.20 369.66,291.97 368.93,290.83 368.07,289.79 367.08,288.86 365.99,288.07 364.80,287.42 363.55,286.92 362.24,286.58 360.89,286.41 359.54,286.41 358.20,286.58 356.89,286.92 355.63,287.42 354.45,288.07 353.35,288.86 352.36,289.79 351.50,290.83 350.78,291.97 350.20,293.20 349.78,294.48 349.53,295.81 349.44,297.16 349.53,298.51 349.78,299.84 350.20,301.13 350.78,302.35 351.50,303.49 352.36,304.54 353.35,305.46 354.45,306.26 355.63,306.91 356.89,307.41 358.20,307.74 359.54,307.91 360.89,307.91 362.24,307.74 363.55,307.41 364.80,306.91 365.99,306.26 367.08,305.46 368.07,304.54 368.93,303.49 369.66,302.35 370.23,301.13 370.65,299.84 370.91,298.51 370.99,297.16" id="polygon29" clip-path="url(#cl_id4475dae4f9a20190630210759_3)" fill="#287D8E" fill-opacity="0.6" stroke-width="1.06698" stroke="#000000" stroke-opacity="1" stroke-linejoin="round" stroke-linecap="round" title="name:  Group_cxn <br> value: 8 <br> You can add a story here!" data-id="30" class="mark" style="opacity: 1;" opacity="1"></polygon>
    <polygon points="370.70,327.04 370.53,324.43 370.04,321.86 369.23,319.36 368.12,316.99 366.71,314.78 365.04,312.76 363.13,310.97 361.01,309.43 358.72,308.17 356.28,307.20 353.74,306.55 351.14,306.22 348.53,306.22 345.93,306.55 343.39,307.20 340.95,308.17 338.66,309.43 336.54,310.97 334.63,312.76 332.96,314.78 331.55,316.99 330.44,319.36 329.63,321.86 329.14,324.43 328.97,327.04 329.14,329.66 329.63,332.23 330.44,334.72 331.55,337.09 332.96,339.31 334.63,341.32 336.54,343.12 338.66,344.66 340.95,345.92 343.39,346.88 345.93,347.54 348.53,347.86 351.14,347.86 353.74,347.54 356.28,346.88 358.72,345.92 361.01,344.66 363.13,343.12 365.04,341.32 366.71,339.31 368.12,337.09 369.23,334.72 370.04,332.23 370.53,329.66 370.70,327.04" id="polygon30" clip-path="url(#cl_id4475dae4f9a20190630210759_3)" fill="#26818E" fill-opacity="0.6" stroke-width="1.06698" stroke="#000000" stroke-opacity="1" stroke-linejoin="round" stroke-linecap="round" title="name:  Group_oyx <br> value: 30 <br> You can add a story here!" data-id="31" class="mark" style="opacity: 1;" opacity="1"></polygon>
    <polygon points="165.87,328.06 165.63,324.27 164.92,320.54 163.74,316.93 162.13,313.50 160.09,310.29 157.67,307.36 154.91,304.77 151.83,302.53 148.51,300.71 144.98,299.31 141.30,298.36 137.53,297.89 133.74,297.89 129.97,298.36 126.29,299.31 122.76,300.71 119.44,302.53 116.37,304.77 113.60,307.36 111.18,310.29 109.14,313.50 107.53,316.93 106.35,320.54 105.64,324.27 105.40,328.06 105.64,331.85 106.35,335.58 107.53,339.19 109.14,342.62 111.18,345.83 113.60,348.75 116.37,351.35 119.44,353.58 122.76,355.41 126.29,356.81 129.97,357.75 133.74,358.23 137.53,358.23 141.30,357.75 144.98,356.81 148.51,355.41 151.83,353.58 154.91,351.35 157.67,348.75 160.09,345.83 162.13,342.62 163.74,339.19 164.92,335.58 165.63,331.85 165.87,328.06" id="polygon31" clip-path="url(#cl_id4475dae4f9a20190630210759_3)" fill="#25848E" fill-opacity="0.6" stroke-width="1.06698" stroke="#000000" stroke-opacity="1" stroke-linejoin="round" stroke-linecap="round" title="name:  Group_dsl <br> value: 63 <br> You can add a story here!" data-id="32" class="mark" style="opacity: 1;" opacity="1"></polygon>
    <polygon points="154.55,287.08 154.46,285.65 154.19,284.24 153.75,282.87 153.14,281.58 152.37,280.36 151.46,279.26 150.41,278.28 149.25,277.43 147.99,276.74 146.66,276.21 145.27,275.86 143.84,275.68 142.41,275.68 140.99,275.86 139.60,276.21 138.26,276.74 137.00,277.43 135.84,278.28 134.80,279.26 133.88,280.36 133.11,281.58 132.50,282.87 132.06,284.24 131.79,285.65 131.70,287.08 131.79,288.51 132.06,289.92 132.50,291.29 133.11,292.59 133.88,293.80 134.80,294.90 135.84,295.89 137.00,296.73 138.26,297.42 139.60,297.95 140.99,298.30 142.41,298.48 143.84,298.48 145.27,298.30 146.66,297.95 147.99,297.42 149.25,296.73 150.41,295.89 151.46,294.90 152.37,293.80 153.14,292.59 153.75,291.29 154.19,289.92 154.46,288.51 154.55,287.08" id="polygon32" clip-path="url(#cl_id4475dae4f9a20190630210759_3)" fill="#24878E" fill-opacity="0.6" stroke-width="1.06698" stroke="#000000" stroke-opacity="1" stroke-linejoin="round" stroke-linecap="round" title="name:  Group_hta <br> value: 9 <br> You can add a story here!" data-id="33" class="mark" style="opacity: 1;" opacity="1"></polygon>
    <polygon points="150.39,261.30 150.27,259.33 149.90,257.39 149.29,255.51 148.45,253.73 147.40,252.07 146.14,250.55 144.70,249.20 143.11,248.04 141.38,247.09 139.54,246.36 137.63,245.87 135.68,245.62 133.70,245.62 131.75,245.87 129.84,246.36 128.00,247.09 126.28,248.04 124.68,249.20 123.24,250.55 121.99,252.07 120.93,253.73 120.09,255.51 119.48,257.39 119.11,259.33 118.99,261.30 119.11,263.26 119.48,265.20 120.09,267.08 120.93,268.86 121.99,270.53 123.24,272.05 124.68,273.40 126.28,274.56 128.00,275.51 129.84,276.23 131.75,276.72 133.70,276.97 135.68,276.97 137.63,276.72 139.54,276.23 141.38,275.51 143.11,274.56 144.70,273.40 146.14,272.05 147.40,270.53 148.45,268.86 149.29,267.08 149.90,265.20 150.27,263.26 150.39,261.30" id="polygon33" clip-path="url(#cl_id4475dae4f9a20190630210759_3)" fill="#228B8D" fill-opacity="0.6" stroke-width="1.06698" stroke="#000000" stroke-opacity="1" stroke-linejoin="round" stroke-linecap="round" title="name:  Group_dfe <br> value: 17 <br> You can add a story here!" data-id="34" class="mark" style="opacity: 1;" opacity="1"></polygon>
    <polygon points="338.94,351.12 338.83,349.46 338.52,347.83 338.01,346.26 337.31,344.76 336.42,343.36 335.36,342.08 334.16,340.95 332.81,339.98 331.36,339.18 329.82,338.57 328.22,338.16 326.57,337.95 324.92,337.95 323.27,338.16 321.67,338.57 320.13,339.18 318.68,339.98 317.33,340.95 316.13,342.08 315.07,343.36 314.18,344.76 313.48,346.26 312.97,347.83 312.66,349.46 312.55,351.12 312.66,352.77 312.97,354.40 313.48,355.97 314.18,357.47 315.07,358.87 316.13,360.15 317.33,361.28 318.68,362.26 320.13,363.05 321.67,363.66 323.27,364.08 324.92,364.28 326.57,364.28 328.22,364.08 329.82,363.66 331.36,363.05 332.81,362.26 334.16,361.28 335.36,360.15 336.42,358.87 337.31,357.47 338.01,355.97 338.52,354.40 338.83,352.77 338.94,351.12" id="polygon34" clip-path="url(#cl_id4475dae4f9a20190630210759_3)" fill="#218F8D" fill-opacity="0.6" stroke-width="1.06698" stroke="#000000" stroke-opacity="1" stroke-linejoin="round" stroke-linecap="round" title="name:  Group_kgz <br> value: 12 <br> You can add a story here!" data-id="35" class="mark" style="opacity: 1;" opacity="1"></polygon>
    <polygon points="141.82,226.30 141.64,223.48 141.11,220.70 140.23,218.01 139.03,215.45 137.51,213.06 135.71,210.88 133.65,208.94 131.36,207.28 128.88,205.91 126.25,204.87 123.51,204.17 120.70,203.81 117.87,203.81 115.06,204.17 112.32,204.87 109.69,205.91 107.21,207.28 104.92,208.94 102.86,210.88 101.05,213.06 99.54,215.45 98.33,218.01 97.46,220.70 96.93,223.48 96.75,226.30 96.93,229.12 97.46,231.90 98.33,234.60 99.54,237.16 101.05,239.54 102.86,241.73 104.92,243.66 107.21,245.33 109.69,246.69 112.32,247.73 115.06,248.43 117.87,248.79 120.70,248.79 123.51,248.43 126.25,247.73 128.88,246.69 131.36,245.33 133.65,243.66 135.71,241.73 137.51,239.54 139.03,237.16 140.23,234.60 141.11,231.90 141.64,229.12 141.82,226.30" id="polygon35" clip-path="url(#cl_id4475dae4f9a20190630210759_3)" fill="#20928C" fill-opacity="0.6" stroke-width="1.06698" stroke="#000000" stroke-opacity="1" stroke-linejoin="round" stroke-linecap="round" title="name:  Group_mck <br> value: 35 <br> You can add a story here!" data-id="36" class=" mark" style="opacity: 1;" opacity="1"></polygon>
    <polygon points="143.74,174.29 143.51,170.56 142.81,166.89 141.66,163.34 140.06,159.96 138.06,156.80 135.68,153.93 132.96,151.37 129.94,149.17 126.66,147.37 123.19,146.00 119.57,145.07 115.86,144.60 112.13,144.60 108.42,145.07 104.80,146.00 101.33,147.37 98.06,149.17 95.04,151.37 92.31,153.93 89.93,156.80 87.93,159.96 86.34,163.34 85.18,166.89 84.48,170.56 84.25,174.29 84.48,178.02 85.18,181.69 86.34,185.24 87.93,188.62 89.93,191.77 92.31,194.65 95.04,197.21 98.06,199.40 101.33,201.20 104.80,202.58 108.42,203.51 112.13,203.98 115.86,203.98 119.57,203.51 123.19,202.58 126.66,201.20 129.94,199.40 132.96,197.21 135.68,194.65 138.06,191.77 140.06,188.62 141.66,185.24 142.81,181.69 143.51,178.02 143.74,174.29" id="polygon36" clip-path="url(#cl_id4475dae4f9a20190630210759_3)" fill="#1F958B" fill-opacity="0.6" stroke-width="1.06698" stroke="#000000" stroke-opacity="1" stroke-linejoin="round" stroke-linecap="round" title="name:  Group_rrg <br> value: 61 <br> You can add a story here!" data-id="37" class=" mark" style="opacity: 1;" opacity="1"></polygon>
    <polygon points="392.38,156.98 392.19,153.92 391.61,150.91 390.67,148.00 389.36,145.23 387.72,142.64 385.77,140.28 383.54,138.19 381.06,136.39 378.37,134.91 375.53,133.78 372.56,133.02 369.52,132.64 366.46,132.64 363.42,133.02 360.45,133.78 357.61,134.91 354.92,136.39 352.45,138.19 350.21,140.28 348.26,142.64 346.62,145.23 345.32,148.00 344.37,150.91 343.80,153.92 343.60,156.98 343.80,160.03 344.37,163.04 345.32,165.96 346.62,168.73 348.26,171.31 350.21,173.67 352.45,175.77 354.92,177.57 357.61,179.04 360.45,180.17 363.42,180.93 366.46,181.32 369.52,181.32 372.56,180.93 375.53,180.17 378.37,179.04 381.06,177.57 383.54,175.77 385.77,173.67 387.72,171.31 389.36,168.73 390.67,165.96 391.61,163.04 392.19,160.03 392.38,156.98" id="polygon37" clip-path="url(#cl_id4475dae4f9a20190630210759_3)" fill="#1F998A" fill-opacity="0.6" stroke-width="1.06698" stroke="#000000" stroke-opacity="1" stroke-linejoin="round" stroke-linecap="round" title="name:  Group_pgb <br> value: 41 <br> You can add a story here!" data-id="38" class="mark" style="opacity: 1;" opacity="1"></polygon>
    <polygon points="338.68,387.54 338.48,384.38 337.88,381.26 336.90,378.24 335.55,375.37 333.85,372.69 331.83,370.25 329.52,368.08 326.95,366.21 324.17,364.68 321.22,363.51 318.15,362.73 315.00,362.33 311.83,362.33 308.68,362.73 305.60,363.51 302.65,364.68 299.87,366.21 297.31,368.08 294.99,370.25 292.97,372.69 291.27,375.37 289.92,378.24 288.94,381.26 288.35,384.38 288.15,387.54 288.35,390.71 288.94,393.83 289.92,396.84 291.27,399.71 292.97,402.39 294.99,404.84 297.31,407.01 299.87,408.87 302.65,410.40 305.60,411.57 308.68,412.36 311.83,412.76 315.00,412.76 318.15,412.36 321.22,411.57 324.17,410.40 326.95,408.87 329.52,407.01 331.83,404.84 333.85,402.39 335.55,399.71 336.90,396.84 337.88,393.83 338.48,390.71 338.68,387.54" id="polygon38" clip-path="url(#cl_id4475dae4f9a20190630210759_3)" fill="#1E9C89" fill-opacity="0.6" stroke-width="1.06698" stroke="#000000" stroke-opacity="1" stroke-linejoin="round" stroke-linecap="round" title="name:  Group_oos <br> value: 44 <br> You can add a story here!" data-id="39" class="mark" style="opacity: 1;" opacity="1"></polygon>
    <polygon points="290.19,402.21 289.96,398.64 289.29,395.12 288.19,391.72 286.66,388.48 284.74,385.46 282.46,382.70 279.85,380.25 276.96,378.15 273.82,376.42 270.49,375.10 267.03,374.21 263.47,373.76 259.89,373.76 256.34,374.21 252.88,375.10 249.55,376.42 246.41,378.15 243.52,380.25 240.91,382.70 238.63,385.46 236.71,388.48 235.18,391.72 234.08,395.12 233.41,398.64 233.18,402.21 233.41,405.78 234.08,409.30 235.18,412.70 236.71,415.94 238.63,418.96 240.91,421.72 243.52,424.17 246.41,426.28 249.55,428.00 252.88,429.32 256.34,430.21 259.89,430.66 263.47,430.66 267.03,430.21 270.49,429.32 273.82,428.00 276.96,426.28 279.85,424.17 282.46,421.72 284.74,418.96 286.66,415.94 288.19,412.70 289.29,409.30 289.96,405.78 290.19,402.21" id="polygon39" clip-path="url(#cl_id4475dae4f9a20190630210759_3)" fill="#1FA088" fill-opacity="0.6" stroke-width="1.06698" stroke="#000000" stroke-opacity="1" stroke-linejoin="round" stroke-linecap="round" title="name:  Group_wmq <br> value: 56 <br> You can add a story here!" data-id="40" class="mark" style="opacity: 1;" opacity="1"></polygon>
    <polygon points="364.51,120.99 364.38,118.86 363.97,116.76 363.31,114.72 362.40,112.79 361.26,110.98 359.89,109.33 358.33,107.87 356.60,106.61 354.73,105.58 352.74,104.79 350.67,104.26 348.55,103.99 346.41,103.99 344.29,104.26 342.21,104.79 340.22,105.58 338.35,106.61 336.62,107.87 335.06,109.33 333.70,110.98 332.55,112.79 331.64,114.72 330.98,116.76 330.58,118.86 330.44,120.99 330.58,123.13 330.98,125.23 331.64,127.26 332.55,129.20 333.70,131.01 335.06,132.65 336.62,134.12 338.35,135.37 340.22,136.41 342.21,137.19 344.29,137.72 346.41,137.99 348.55,137.99 350.67,137.72 352.74,137.19 354.73,136.41 356.60,135.37 358.33,134.12 359.89,132.65 361.26,131.01 362.40,129.20 363.31,127.26 363.97,125.23 364.38,123.13 364.51,120.99" id="polygon40" clip-path="url(#cl_id4475dae4f9a20190630210759_3)" fill="#20A386" fill-opacity="0.6" stroke-width="1.06698" stroke="#000000" stroke-opacity="1" stroke-linejoin="round" stroke-linecap="round" title="name:  Group_lex <br> value: 20 <br> You can add a story here!" data-id="41" class="mark" style="opacity: 1;" opacity="1"></polygon>
    <polygon points="233.61,395.60 233.44,392.82 232.92,390.08 232.06,387.43 230.87,384.91 229.37,382.55 227.60,380.40 225.56,378.49 223.31,376.85 220.86,375.51 218.27,374.48 215.57,373.79 212.80,373.44 210.01,373.44 207.24,373.79 204.54,374.48 201.95,375.51 199.51,376.85 197.25,378.49 195.22,380.40 193.44,382.55 191.94,384.91 190.76,387.43 189.90,390.08 189.37,392.82 189.20,395.60 189.37,398.39 189.90,401.13 190.76,403.78 191.94,406.30 193.44,408.66 195.22,410.81 197.25,412.72 199.51,414.36 201.95,415.70 204.54,416.73 207.24,417.42 210.01,417.77 212.80,417.77 215.57,417.42 218.27,416.73 220.86,415.70 223.31,414.36 225.56,412.72 227.60,410.81 229.37,408.66 230.87,406.30 232.06,403.78 232.92,401.13 233.44,398.39 233.61,395.60" id="polygon41" clip-path="url(#cl_id4475dae4f9a20190630210759_3)" fill="#22A785" fill-opacity="0.6" stroke-width="1.06698" stroke="#000000" stroke-opacity="1" stroke-linejoin="round" stroke-linecap="round" title="name:  Group_anm <br> value: 34 <br> You can add a story here!" data-id="42" class="mark" style="opacity: 1;" opacity="1"></polygon>
    <polygon points="189.98,386.96 189.78,383.72 189.17,380.54 188.17,377.45 186.79,374.52 185.05,371.78 182.98,369.28 180.62,367.06 177.99,365.15 175.15,363.59 172.13,362.39 168.99,361.59 165.77,361.18 162.53,361.18 159.31,361.59 156.17,362.39 153.15,363.59 150.31,365.15 147.68,367.06 145.32,369.28 143.25,371.78 141.51,374.52 140.13,377.45 139.13,380.54 138.52,383.72 138.32,386.96 138.52,390.20 139.13,393.39 140.13,396.47 141.51,399.41 143.25,402.15 145.32,404.64 147.68,406.87 150.31,408.77 153.15,410.34 156.17,411.53 159.31,412.34 162.53,412.74 165.77,412.74 168.99,412.34 172.13,411.53 175.15,410.34 177.99,408.77 180.62,406.87 182.98,404.64 185.05,402.15 186.79,399.41 188.17,396.47 189.17,393.39 189.78,390.20 189.98,386.96" id="polygon42" clip-path="url(#cl_id4475dae4f9a20190630210759_3)" fill="#24AA83" fill-opacity="0.6" stroke-width="1.06698" stroke="#000000" stroke-opacity="1" stroke-linejoin="round" stroke-linecap="round" title="name:  Group_wej <br> value: 46 <br> You can add a story here!" data-id="43" class="mark" style="opacity: 1;" opacity="1"></polygon>
    <polygon points="383.94,294.28 383.89,293.46 383.74,292.64 383.48,291.85 383.13,291.10 382.68,290.40 382.16,289.77 381.55,289.20 380.88,288.71 380.16,288.31 379.39,288.01 378.58,287.80 377.76,287.70 376.93,287.70 376.11,287.80 375.31,288.01 374.54,288.31 373.81,288.71 373.14,289.20 372.54,289.77 372.01,290.40 371.57,291.10 371.21,291.85 370.96,292.64 370.80,293.46 370.75,294.28 370.80,295.11 370.96,295.92 371.21,296.71 371.57,297.46 372.01,298.16 372.54,298.80 373.14,299.37 373.81,299.85 374.54,300.25 375.31,300.56 376.11,300.76 376.93,300.87 377.76,300.87 378.58,300.76 379.39,300.56 380.16,300.25 380.88,299.85 381.55,299.37 382.16,298.80 382.68,298.16 383.13,297.46 383.48,296.71 383.74,295.92 383.89,295.11 383.94,294.28" id="polygon43" clip-path="url(#cl_id4475dae4f9a20190630210759_3)" fill="#27AD81" fill-opacity="0.6" stroke-width="1.06698" stroke="#000000" stroke-opacity="1" stroke-linejoin="round" stroke-linecap="round" title="name:  Group_sij <br> value: 3 <br> You can add a story here!" data-id="44" class="mark" style="opacity: 1;" opacity="1"></polygon>
    <polygon points="398.02,314.79 397.91,312.94 397.56,311.12 396.99,309.36 396.20,307.68 395.21,306.12 394.03,304.69 392.68,303.43 391.18,302.34 389.55,301.44 387.83,300.76 386.04,300.30 384.20,300.07 382.35,300.07 380.51,300.30 378.71,300.76 376.99,301.44 375.37,302.34 373.87,303.43 372.52,304.69 371.34,306.12 370.35,307.68 369.56,309.36 368.99,311.12 368.64,312.94 368.52,314.79 368.64,316.64 368.99,318.46 369.56,320.22 370.35,321.90 371.34,323.46 372.52,324.89 373.87,326.16 375.37,327.25 376.99,328.14 378.71,328.82 380.51,329.28 382.35,329.51 384.20,329.51 386.04,329.28 387.83,328.82 389.55,328.14 391.18,327.25 392.68,326.16 394.03,324.89 395.21,323.46 396.20,321.90 396.99,320.22 397.56,318.46 397.91,316.64 398.02,314.79" id="polygon44" clip-path="url(#cl_id4475dae4f9a20190630210759_3)" fill="#2BB17E" fill-opacity="0.6" stroke-width="1.06698" stroke="#000000" stroke-opacity="1" stroke-linejoin="round" stroke-linecap="round" title="name:  Group_rcf <br> value: 15 <br> You can add a story here!" data-id="45" class="mark" style="opacity: 1;" opacity="1"></polygon>
    <polygon points="323.97,113.35 323.91,112.40 323.73,111.46 323.44,110.55 323.03,109.68 322.52,108.88 321.91,108.14 321.21,107.48 320.44,106.92 319.60,106.46 318.71,106.11 317.78,105.87 316.83,105.75 315.88,105.75 314.93,105.87 314.00,106.11 313.11,106.46 312.27,106.92 311.50,107.48 310.80,108.14 310.19,108.88 309.68,109.68 309.27,110.55 308.98,111.46 308.80,112.40 308.74,113.35 308.80,114.31 308.98,115.25 309.27,116.16 309.68,117.02 310.19,117.83 310.80,118.57 311.50,119.22 312.27,119.78 313.11,120.25 314.00,120.60 314.93,120.84 315.88,120.96 316.83,120.96 317.78,120.84 318.71,120.60 319.60,120.25 320.44,119.78 321.21,119.22 321.91,118.57 322.52,117.83 323.03,117.02 323.44,116.16 323.73,115.25 323.91,114.31 323.97,113.35" id="polygon45" clip-path="url(#cl_id4475dae4f9a20190630210759_3)" fill="#30B47C" fill-opacity="0.6" stroke-width="1.06698" stroke="#000000" stroke-opacity="1" stroke-linejoin="round" stroke-linecap="round" title="name:  Group_wag <br> value: 4 <br> You can add a story here!" data-id="46" class="mark" style="opacity: 1;" opacity="1"></polygon>
    <polygon points="338.39,102.13 338.31,100.96 338.09,99.81 337.73,98.70 337.23,97.64 336.60,96.65 335.86,95.75 335.00,94.95 334.06,94.26 333.03,93.69 331.94,93.26 330.80,92.97 329.64,92.82 328.47,92.82 327.31,92.97 326.17,93.26 325.08,93.69 324.06,94.26 323.11,94.95 322.26,95.75 321.51,96.65 320.88,97.64 320.38,98.70 320.02,99.81 319.80,100.96 319.73,102.13 319.80,103.30 320.02,104.45 320.38,105.57 320.88,106.63 321.51,107.62 322.26,108.52 323.11,109.32 324.06,110.01 325.08,110.58 326.17,111.01 327.31,111.30 328.47,111.44 329.64,111.44 330.80,111.30 331.94,111.01 333.03,110.58 334.06,110.01 335.00,109.32 335.86,108.52 336.60,107.62 337.23,106.63 337.73,105.57 338.09,104.45 338.31,103.30 338.39,102.13" id="polygon46" clip-path="url(#cl_id4475dae4f9a20190630210759_3)" fill="#35B779" fill-opacity="0.6" stroke-width="1.06698" stroke="#000000" stroke-opacity="1" stroke-linejoin="round" stroke-linecap="round" title="name:  Group_pqa <br> value: 6 <br> You can add a story here!" data-id="47" class="mark" style="opacity: 1;" opacity="1"></polygon>
    <polygon points="445.50,249.06 445.28,245.59 444.63,242.17 443.55,238.85 442.07,235.70 440.20,232.76 437.98,230.08 435.45,227.70 432.63,225.65 429.58,223.97 426.34,222.69 422.97,221.83 419.51,221.39 416.03,221.39 412.58,221.83 409.20,222.69 405.96,223.97 402.91,225.65 400.10,227.70 397.56,230.08 395.34,232.76 393.47,235.70 391.99,238.85 390.91,242.17 390.26,245.59 390.04,249.06 390.26,252.54 390.91,255.96 391.99,259.27 393.47,262.42 395.34,265.36 397.56,268.04 400.10,270.43 402.91,272.47 405.96,274.15 409.20,275.43 412.58,276.30 416.03,276.74 419.51,276.74 422.97,276.30 426.34,275.43 429.58,274.15 432.63,272.47 435.45,270.43 437.98,268.04 440.20,265.36 442.07,262.42 443.55,259.27 444.63,255.96 445.28,252.54 445.50,249.06" id="polygon47" clip-path="url(#cl_id4475dae4f9a20190630210759_3)" fill="#3BBB75" fill-opacity="0.6" stroke-width="1.06698" stroke="#000000" stroke-opacity="1" stroke-linejoin="round" stroke-linecap="round" title="name:  Group_zup <br> value: 53 <br> You can add a story here!" data-id="48" class="mark" style="opacity: 1;" opacity="1"></polygon>
    <polygon points="432.23,296.28 432.07,293.80 431.61,291.36 430.84,289.00 429.78,286.75 428.45,284.65 426.86,282.73 425.05,281.03 423.04,279.57 420.86,278.37 418.55,277.46 416.14,276.84 413.68,276.53 411.19,276.53 408.73,276.84 406.32,277.46 404.01,278.37 401.83,279.57 399.82,281.03 398.01,282.73 396.43,284.65 395.09,286.75 394.04,289.00 393.27,291.36 392.80,293.80 392.65,296.28 392.80,298.76 393.27,301.20 394.04,303.57 395.09,305.82 396.43,307.91 398.01,309.83 399.82,311.53 401.83,312.99 404.01,314.19 406.32,315.10 408.73,315.72 411.19,316.03 413.68,316.03 416.14,315.72 418.55,315.10 420.86,314.19 423.04,312.99 425.05,311.53 426.86,309.83 428.45,307.91 429.78,305.82 430.84,303.57 431.61,301.20 432.07,298.76 432.23,296.28" id="polygon48" clip-path="url(#cl_id4475dae4f9a20190630210759_3)" fill="#41BD72" fill-opacity="0.6" stroke-width="1.06698" stroke="#000000" stroke-opacity="1" stroke-linejoin="round" stroke-linecap="round" title="name:  Group_ymf <br> value: 27 <br> You can add a story here!" data-id="49" class="mark" style="opacity: 1;" opacity="1"></polygon>
    <polygon points="256.64,80.06 256.45,77.08 255.89,74.14 254.97,71.30 253.70,68.60 252.09,66.08 250.19,63.78 248.01,61.73 245.60,59.97 242.98,58.54 240.20,57.44 237.31,56.69 234.35,56.32 231.36,56.32 228.40,56.69 225.50,57.44 222.72,58.54 220.11,59.97 217.69,61.73 215.51,63.78 213.61,66.08 212.01,68.60 210.74,71.30 209.81,74.14 209.25,77.08 209.07,80.06 209.25,83.04 209.81,85.97 210.74,88.81 212.01,91.52 213.61,94.04 215.51,96.34 217.69,98.38 220.11,100.14 222.72,101.58 225.50,102.68 228.40,103.42 231.36,103.80 234.35,103.80 237.31,103.42 240.20,102.68 242.98,101.58 245.60,100.14 248.01,98.38 250.19,96.34 252.09,94.04 253.70,91.52 254.97,88.81 255.89,85.97 256.45,83.04 256.64,80.06" id="polygon49" clip-path="url(#cl_id4475dae4f9a20190630210759_3)" fill="#48C16E" fill-opacity="0.6" stroke-width="1.06698" stroke="#000000" stroke-opacity="1" stroke-linejoin="round" stroke-linecap="round" title="name:  Group_dxq <br> value: 39 <br> You can add a story here!" data-id="50" class="mark" style="opacity: 1;" opacity="1"></polygon>
    <polygon points="431.06,176.62 430.89,173.92 430.38,171.26 429.54,168.69 428.39,166.24 426.94,163.96 425.22,161.87 423.25,160.02 421.06,158.43 418.69,157.13 416.17,156.13 413.55,155.46 410.86,155.12 408.16,155.12 405.47,155.46 402.85,156.13 400.34,157.13 397.97,158.43 395.78,160.02 393.81,161.87 392.08,163.96 390.63,166.24 389.48,168.69 388.64,171.26 388.14,173.92 387.97,176.62 388.14,179.32 388.64,181.98 389.48,184.55 390.63,187.00 392.08,189.29 393.81,191.37 395.78,193.22 397.97,194.81 400.34,196.12 402.85,197.11 405.47,197.79 408.16,198.12 410.86,198.12 413.55,197.79 416.17,197.11 418.69,196.12 421.06,194.81 423.25,193.22 425.22,191.37 426.94,189.29 428.39,187.00 429.54,184.55 430.38,181.98 430.89,179.32 431.06,176.62" id="polygon50" clip-path="url(#cl_id4475dae4f9a20190630210759_3)" fill="#50C46A" fill-opacity="0.6" stroke-width="1.06698" stroke="#000000" stroke-opacity="1" stroke-linejoin="round" stroke-linecap="round" title="name:  Group_msa <br> value: 32 <br> You can add a story here!" data-id="51" class="mark" style="opacity: 1;" opacity="1"></polygon>
    <polygon points="481.09,203.88 480.86,200.25 480.18,196.67 479.05,193.20 477.50,189.91 475.55,186.83 473.23,184.02 470.57,181.53 467.63,179.39 464.43,177.63 461.05,176.29 457.52,175.39 453.91,174.93 450.26,174.93 446.65,175.39 443.12,176.29 439.73,177.63 436.54,179.39 433.60,181.53 430.94,184.02 428.62,186.83 426.67,189.91 425.11,193.20 423.99,196.67 423.31,200.25 423.08,203.88 423.31,207.52 423.99,211.09 425.11,214.56 426.67,217.85 428.62,220.93 430.94,223.74 433.60,226.23 436.54,228.37 439.73,230.13 443.12,231.47 446.65,232.37 450.26,232.83 453.91,232.83 457.52,232.37 461.05,231.47 464.43,230.13 467.63,228.37 470.57,226.23 473.23,223.74 475.55,220.93 477.50,217.85 479.05,214.56 480.18,211.09 480.86,207.52 481.09,203.88" id="polygon51" clip-path="url(#cl_id4475dae4f9a20190630210759_3)" fill="#57C666" fill-opacity="0.6" stroke-width="1.06698" stroke="#000000" stroke-opacity="1" stroke-linejoin="round" stroke-linecap="round" title="name:  Group_tmj <br> value: 58 <br> You can add a story here!" data-id="52" class="mark" style="opacity: 1;" opacity="1"></polygon>
    <polygon points="162.20,114.88 161.95,110.89 161.20,106.96 159.96,103.15 158.26,99.53 156.11,96.15 153.56,93.07 150.65,90.33 147.41,87.98 143.90,86.05 140.18,84.57 136.31,83.58 132.34,83.08 128.33,83.08 124.36,83.58 120.49,84.57 116.77,86.05 113.26,87.98 110.02,90.33 107.11,93.07 104.55,96.15 102.41,99.53 100.71,103.15 99.47,106.96 98.72,110.89 98.47,114.88 98.72,118.87 99.47,122.81 100.71,126.61 102.41,130.23 104.55,133.61 107.11,136.69 110.02,139.43 113.26,141.79 116.77,143.71 120.49,145.19 124.36,146.18 128.33,146.68 132.34,146.68 136.31,146.18 140.18,145.19 143.90,143.71 147.41,141.79 150.65,139.43 153.56,136.69 156.11,133.61 158.26,130.23 159.96,126.61 161.20,122.81 161.95,118.87 162.20,114.88" id="polygon52" clip-path="url(#cl_id4475dae4f9a20190630210759_3)" fill="#5EC962" fill-opacity="0.6" stroke-width="1.06698" stroke="#000000" stroke-opacity="1" stroke-linejoin="round" stroke-linecap="round" title="name:  Group_krd <br> value: 70 <br> You can add a story here!" data-id="53" class="mark" style="opacity: 1;" opacity="1"></polygon>
    <polygon points="416.22,357.24 416.00,353.73 415.34,350.28 414.26,346.94 412.76,343.76 410.88,340.79 408.64,338.08 406.07,335.68 403.23,333.61 400.15,331.92 396.88,330.62 393.48,329.75 389.99,329.31 386.48,329.31 382.99,329.75 379.58,330.62 376.32,331.92 373.24,333.61 370.39,335.68 367.83,338.08 365.59,340.79 363.71,343.76 362.21,346.94 361.12,350.28 360.47,353.73 360.24,357.24 360.47,360.75 361.12,364.20 362.21,367.55 363.71,370.73 365.59,373.69 367.83,376.40 370.39,378.81 373.24,380.87 376.32,382.57 379.58,383.86 382.99,384.73 386.48,385.18 389.99,385.18 393.48,384.73 396.88,383.86 400.15,382.57 403.23,380.87 406.07,378.81 408.64,376.40 410.88,373.69 412.76,370.73 414.26,367.55 415.34,364.20 416.00,360.75 416.22,357.24" id="polygon53" clip-path="url(#cl_id4475dae4f9a20190630210759_3)" fill="#67CC5C" fill-opacity="0.6" stroke-width="1.06698" stroke="#000000" stroke-opacity="1" stroke-linejoin="round" stroke-linecap="round" title="name:  Group_ksc <br> value: 54 <br> You can add a story here!" data-id="54" class="mark" style="opacity: 1;" opacity="1"></polygon>
    <polygon points="386.24,402.83 386.05,399.70 385.46,396.62 384.49,393.63 383.16,390.80 381.47,388.15 379.48,385.73 377.19,383.58 374.65,381.74 371.90,380.23 368.99,379.08 365.95,378.30 362.84,377.90 359.70,377.90 356.59,378.30 353.55,379.08 350.64,380.23 347.89,381.74 345.35,383.58 343.06,385.73 341.06,388.15 339.38,390.80 338.05,393.63 337.08,396.62 336.49,399.70 336.29,402.83 336.49,405.96 337.08,409.04 338.05,412.02 339.38,414.86 341.06,417.51 343.06,419.93 345.35,422.07 347.89,423.92 350.64,425.43 353.55,426.58 356.59,427.36 359.70,427.76 362.84,427.76 365.95,427.36 368.99,426.58 371.90,425.43 374.65,423.92 377.19,422.07 379.48,419.93 381.47,417.51 383.16,414.86 384.49,412.02 385.46,409.04 386.05,405.96 386.24,402.83" id="polygon54" clip-path="url(#cl_id4475dae4f9a20190630210759_3)" fill="#6FCF57" fill-opacity="0.6" stroke-width="1.06698" stroke="#000000" stroke-opacity="1" stroke-linejoin="round" stroke-linecap="round" title="name:  Group_lam <br> value: 43 <br> You can add a story here!" data-id="55" class="mark" style="opacity: 1;" opacity="1"></polygon>
    <polygon points="138.82,379.71 138.62,376.40 137.99,373.14 136.97,369.99 135.56,366.99 133.78,364.20 131.67,361.64 129.26,359.37 126.58,357.43 123.67,355.83 120.59,354.61 117.38,353.79 114.09,353.37 110.78,353.37 107.49,353.79 104.28,354.61 101.20,355.83 98.30,357.43 95.62,359.37 93.20,361.64 91.09,364.20 89.31,366.99 87.90,369.99 86.88,373.14 86.26,376.40 86.05,379.71 86.26,383.01 86.88,386.27 87.90,389.42 89.31,392.42 91.09,395.22 93.20,397.77 95.62,400.04 98.30,401.99 101.20,403.58 104.28,404.80 107.49,405.63 110.78,406.04 114.09,406.04 117.38,405.63 120.59,404.80 123.67,403.58 126.58,401.99 129.26,400.04 131.67,397.77 133.78,395.22 135.56,392.42 136.97,389.42 137.99,386.27 138.62,383.01 138.82,379.71" id="polygon55" clip-path="url(#cl_id4475dae4f9a20190630210759_3)" fill="#78D152" fill-opacity="0.6" stroke-width="1.06698" stroke="#000000" stroke-opacity="1" stroke-linejoin="round" stroke-linecap="round" title="name:  Group_fwh <br> value: 48 <br> You can add a story here!" data-id="56" class="mark" style="opacity: 1;" opacity="1"></polygon>
    <polygon points="126.74,284.90 126.55,281.88 125.99,278.91 125.05,276.03 123.76,273.29 122.14,270.74 120.21,268.41 118.01,266.34 115.56,264.56 112.91,263.10 110.10,261.99 107.17,261.24 104.17,260.86 101.14,260.86 98.14,261.24 95.21,261.99 92.40,263.10 89.75,264.56 87.30,266.34 85.09,268.41 83.17,270.74 81.55,273.29 80.26,276.03 79.32,278.91 78.76,281.88 78.57,284.90 78.76,287.92 79.32,290.89 80.26,293.77 81.55,296.50 83.17,299.06 85.09,301.39 87.30,303.46 89.75,305.24 92.40,306.69 95.21,307.81 98.14,308.56 101.14,308.94 104.17,308.94 107.17,308.56 110.10,307.81 112.91,306.69 115.56,305.24 118.01,303.46 120.21,301.39 122.14,299.06 123.76,296.50 125.05,293.77 125.99,290.89 126.55,287.92 126.74,284.90" id="polygon56" clip-path="url(#cl_id4475dae4f9a20190630210759_3)" fill="#81D34D" fill-opacity="0.6" stroke-width="1.06698" stroke="#000000" stroke-opacity="1" stroke-linejoin="round" stroke-linecap="round" title="name:  Group_htn <br> value: 40 <br> You can add a story here!" data-id="57" class=" mark" style="opacity: 1;" opacity="1"></polygon>
    <polygon points="99.72,243.26 99.50,239.82 98.85,236.43 97.79,233.15 96.32,230.03 94.47,227.12 92.27,224.46 89.76,222.10 86.97,220.07 83.95,218.41 80.74,217.14 77.40,216.28 73.98,215.85 70.53,215.85 67.11,216.28 63.76,217.14 60.56,218.41 57.54,220.07 54.74,222.10 52.23,224.46 50.03,227.12 48.18,230.03 46.72,233.15 45.65,236.43 45.00,239.82 44.79,243.26 45.00,246.71 45.65,250.09 46.72,253.37 48.18,256.49 50.03,259.41 52.23,262.06 54.74,264.43 57.54,266.45 60.56,268.11 63.76,269.38 67.11,270.24 70.53,270.67 73.98,270.67 77.40,270.24 80.74,269.38 83.95,268.11 86.97,266.45 89.76,264.43 92.27,262.06 94.47,259.41 96.32,256.49 97.79,253.37 98.85,250.09 99.50,246.71 99.72,243.26" id="polygon57" clip-path="url(#cl_id4475dae4f9a20190630210759_3)" fill="#8AD647" fill-opacity="0.6" stroke-width="1.06698" stroke="#000000" stroke-opacity="1" stroke-linejoin="round" stroke-linecap="round" title="name:  Group_phn <br> value: 52 <br> You can add a story here!" data-id="58" class="mark" style="opacity: 1;" opacity="1"></polygon>
    <polygon points="405.09,115.26 404.93,112.69 404.45,110.16 403.65,107.71 402.55,105.37 401.17,103.20 399.53,101.22 397.65,99.45 395.57,97.94 393.31,96.70 390.92,95.75 388.42,95.11 385.87,94.79 383.29,94.79 380.74,95.11 378.24,95.75 375.85,96.70 373.59,97.94 371.51,99.45 369.63,101.22 367.99,103.20 366.61,105.37 365.51,107.71 364.71,110.16 364.23,112.69 364.07,115.26 364.23,117.83 364.71,120.36 365.51,122.81 366.61,125.14 367.99,127.31 369.63,129.30 371.51,131.06 373.59,132.57 375.85,133.81 378.24,134.76 380.74,135.40 383.29,135.73 385.87,135.73 388.42,135.40 390.92,134.76 393.31,133.81 395.57,132.57 397.65,131.06 399.53,129.30 401.17,127.31 402.55,125.14 403.65,122.81 404.45,120.36 404.93,117.83 405.09,115.26" id="polygon58" clip-path="url(#cl_id4475dae4f9a20190630210759_3)" fill="#94D741" fill-opacity="0.6" stroke-width="1.06698" stroke="#000000" stroke-opacity="1" stroke-linejoin="round" stroke-linecap="round" title="name:  Group_omx <br> value: 29 <br> You can add a story here!" data-id="59" class="mark" style="opacity: 1;" opacity="1"></polygon>
    <polygon points="432.43,138.01 432.29,135.82 431.88,133.67 431.20,131.58 430.27,129.60 429.09,127.75 427.70,126.06 426.10,124.56 424.32,123.27 422.40,122.21 420.37,121.41 418.24,120.86 416.07,120.59 413.88,120.59 411.70,120.86 409.58,121.41 407.54,122.21 405.62,123.27 403.85,124.56 402.25,126.06 400.85,127.75 399.68,129.60 398.74,131.58 398.07,133.67 397.66,135.82 397.52,138.01 397.66,140.19 398.07,142.35 398.74,144.43 399.68,146.42 400.85,148.27 402.25,149.95 403.85,151.45 405.62,152.74 407.54,153.80 409.58,154.61 411.70,155.15 413.88,155.43 416.07,155.43 418.24,155.15 420.37,154.61 422.40,153.80 424.32,152.74 426.10,151.45 427.70,149.95 429.09,148.27 430.27,146.42 431.20,144.43 431.88,142.35 432.29,140.19 432.43,138.01" id="polygon59" clip-path="url(#cl_id4475dae4f9a20190630210759_3)" fill="#9DD93B" fill-opacity="0.6" stroke-width="1.06698" stroke="#000000" stroke-opacity="1" stroke-linejoin="round" stroke-linecap="round" title="name:  Group_xxx <br> value: 21 <br> You can add a story here!" data-id="60" class="mark" style="opacity: 1;" opacity="1"></polygon>
    <polygon points="440.70,330.75 440.57,328.67 440.18,326.62 439.54,324.64 438.65,322.76 437.53,320.99 436.20,319.39 434.68,317.96 433.00,316.74 431.17,315.73 429.23,314.96 427.21,314.45 425.14,314.18 423.06,314.18 420.99,314.45 418.97,314.96 417.03,315.73 415.21,316.74 413.52,317.96 412.00,319.39 410.67,320.99 409.55,322.76 408.67,324.64 408.02,326.62 407.63,328.67 407.50,330.75 407.63,332.83 408.02,334.88 408.67,336.86 409.55,338.75 410.67,340.51 412.00,342.12 413.52,343.55 415.21,344.77 417.03,345.77 418.97,346.54 420.99,347.06 423.06,347.32 425.14,347.32 427.21,347.06 429.23,346.54 431.17,345.77 433.00,344.77 434.68,343.55 436.20,342.12 437.53,340.51 438.65,338.75 439.54,336.86 440.18,334.88 440.57,332.83 440.70,330.75" id="polygon60" clip-path="url(#cl_id4475dae4f9a20190630210759_3)" fill="#A7DB35" fill-opacity="0.6" stroke-width="1.06698" stroke="#000000" stroke-opacity="1" stroke-linejoin="round" stroke-linecap="round" title="name:  Group_aoz <br> value: 19 <br> You can add a story here!" data-id="61" class="mark" style="opacity: 1;" opacity="1"></polygon>
    <polygon points="86.57,190.35 86.36,186.97 85.73,183.65 84.68,180.43 83.24,177.37 81.43,174.52 79.27,171.91 76.81,169.60 74.07,167.61 71.11,165.98 67.96,164.73 64.69,163.89 61.33,163.47 57.95,163.47 54.59,163.89 51.32,164.73 48.17,165.98 45.21,167.61 42.47,169.60 40.01,171.91 37.85,174.52 36.04,177.37 34.60,180.43 33.56,183.65 32.92,186.97 32.71,190.35 32.92,193.72 33.56,197.05 34.60,200.26 36.04,203.32 37.85,206.18 40.01,208.78 42.47,211.10 45.21,213.09 48.17,214.72 51.32,215.96 54.59,216.80 57.95,217.23 61.33,217.23 64.69,216.80 67.96,215.96 71.11,214.72 74.07,213.09 76.81,211.10 79.27,208.78 81.43,206.18 83.24,203.32 84.68,200.26 85.73,197.05 86.36,193.72 86.57,190.35" id="polygon61" clip-path="url(#cl_id4475dae4f9a20190630210759_3)" fill="#B1DD2E" fill-opacity="0.6" stroke-width="1.06698" stroke="#000000" stroke-opacity="1" stroke-linejoin="round" stroke-linecap="round" title="name:  Group_uhy <br> value: 50 <br> You can add a story here!" data-id="62" class=" mark" style="opacity: 1;" opacity="1"></polygon>
    <polygon points="354.97,64.63 354.75,61.09 354.08,57.61 352.99,54.23 351.48,51.02 349.58,48.03 347.32,45.29 344.73,42.87 341.86,40.78 338.75,39.07 335.45,37.77 332.02,36.88 328.50,36.44 324.95,36.44 321.43,36.88 318.00,37.77 314.70,39.07 311.59,40.78 308.72,42.87 306.13,45.29 303.87,48.03 301.97,51.02 300.46,54.23 299.37,57.61 298.70,61.09 298.48,64.63 298.70,68.17 299.37,71.65 300.46,75.03 301.97,78.24 303.87,81.23 306.13,83.97 308.72,86.39 311.59,88.48 314.70,90.19 318.00,91.49 321.43,92.38 324.95,92.82 328.50,92.82 332.02,92.38 335.45,91.49 338.75,90.19 341.86,88.48 344.73,86.39 347.32,83.97 349.58,81.23 351.48,78.24 352.99,75.03 354.08,71.65 354.75,68.17 354.97,64.63" id="polygon62" clip-path="url(#cl_id4475dae4f9a20190630210759_3)" fill="#BADE28" fill-opacity="0.6" stroke-width="1.06698" stroke="#000000" stroke-opacity="1" stroke-linejoin="round" stroke-linecap="round" title="name:  Group_qyc <br> value: 55 <br> You can add a story here!" data-id="63" class="mark" style="opacity: 1;" opacity="1"></polygon>
    <polygon points="284.61,55.86 284.47,53.62 284.05,51.41 283.36,49.28 282.40,47.25 281.20,45.36 279.77,43.63 278.14,42.09 276.32,40.77 274.36,39.69 272.27,38.87 270.10,38.31 267.87,38.03 265.63,38.03 263.40,38.31 261.23,38.87 259.14,39.69 257.18,40.77 255.36,42.09 253.73,43.63 252.30,45.36 251.09,47.25 250.14,49.28 249.45,51.41 249.03,53.62 248.88,55.86 249.03,58.09 249.45,60.30 250.14,62.43 251.09,64.46 252.30,66.36 253.73,68.08 255.36,69.62 257.18,70.94 259.14,72.02 261.23,72.85 263.40,73.40 265.63,73.69 267.87,73.69 270.10,73.40 272.27,72.85 274.36,72.02 276.32,70.94 278.14,69.62 279.77,68.08 281.20,66.36 282.40,64.46 283.36,62.43 284.05,60.30 284.47,58.09 284.61,55.86" id="polygon63" clip-path="url(#cl_id4475dae4f9a20190630210759_3)" fill="#C4E021" fill-opacity="0.6" stroke-width="1.06698" stroke="#000000" stroke-opacity="1" stroke-linejoin="round" stroke-linecap="round" title="name:  Group_wzl <br> value: 22 <br> You can add a story here!" data-id="64" class="mark" style="opacity: 1;" opacity="1"></polygon>
    <polygon points="305.36,42.11 305.26,40.60 304.98,39.12 304.51,37.68 303.87,36.31 303.06,35.03 302.09,33.87 300.99,32.83 299.77,31.94 298.44,31.22 297.04,30.66 295.57,30.28 294.07,30.09 292.56,30.09 291.06,30.28 289.59,30.66 288.19,31.22 286.86,31.94 285.64,32.83 284.53,33.87 283.57,35.03 282.76,36.31 282.12,37.68 281.65,39.12 281.36,40.60 281.27,42.11 281.36,43.62 281.65,45.11 282.12,46.55 282.76,47.92 283.57,49.19 284.53,50.36 285.64,51.39 286.86,52.28 288.19,53.01 289.59,53.57 291.06,53.94 292.56,54.13 294.07,54.13 295.57,53.94 297.04,53.57 298.44,53.01 299.77,52.28 300.99,51.39 302.09,50.36 303.06,49.19 303.87,47.92 304.51,46.55 304.98,45.11 305.26,43.62 305.36,42.11" id="polygon64" clip-path="url(#cl_id4475dae4f9a20190630210759_3)" fill="#CFE11C" fill-opacity="0.6" stroke-width="1.06698" stroke="#000000" stroke-opacity="1" stroke-linejoin="round" stroke-linecap="round" title="name:  Group_mie <br> value: 10 <br> You can add a story here!" data-id="65" class="mark" style="opacity: 1;" opacity="1"></polygon>
    <polygon points="107.16,341.13 107.00,338.69 106.55,336.30 105.79,333.98 104.75,331.77 103.45,329.71 101.89,327.83 100.11,326.16 98.14,324.73 96.00,323.56 93.74,322.66 91.37,322.05 88.95,321.75 86.52,321.75 84.10,322.05 81.73,322.66 79.47,323.56 77.33,324.73 75.36,326.16 73.58,327.83 72.02,329.71 70.72,331.77 69.68,333.98 68.92,336.30 68.47,338.69 68.31,341.13 68.47,343.56 68.92,345.96 69.68,348.28 70.72,350.48 72.02,352.54 73.58,354.42 75.36,356.09 77.33,357.53 79.47,358.70 81.73,359.60 84.10,360.21 86.52,360.51 88.95,360.51 91.37,360.21 93.74,359.60 96.00,358.70 98.14,357.53 100.11,356.09 101.89,354.42 103.45,352.54 104.75,350.48 105.79,348.28 106.55,345.96 107.00,343.56 107.16,341.13" id="polygon65" clip-path="url(#cl_id4475dae4f9a20190630210759_3)" fill="#D8E219" fill-opacity="0.6" stroke-width="1.06698" stroke="#000000" stroke-opacity="1" stroke-linejoin="round" stroke-linecap="round" title="name:  Group_qyk <br> value: 26 <br> You can add a story here!" data-id="66" class="mark" style="opacity: 1;" opacity="1"></polygon>
    <polygon points="82.89,306.09 82.65,302.33 81.95,298.63 80.78,295.05 79.18,291.64 77.16,288.46 74.76,285.56 72.02,282.98 68.97,280.77 65.67,278.95 62.17,277.56 58.52,276.63 54.78,276.16 51.02,276.16 47.28,276.63 43.63,277.56 40.13,278.95 36.83,280.77 33.78,282.98 31.04,285.56 28.64,288.46 26.62,291.64 25.02,295.05 23.85,298.63 23.15,302.33 22.91,306.09 23.15,309.85 23.85,313.55 25.02,317.13 26.62,320.53 28.64,323.71 31.04,326.62 33.78,329.19 36.83,331.41 40.13,333.22 43.63,334.61 47.28,335.55 51.02,336.02 54.78,336.02 58.52,335.55 62.17,334.61 65.67,333.22 68.97,331.41 72.02,329.19 74.76,326.62 77.16,323.71 79.18,320.53 80.78,317.13 81.95,313.55 82.65,309.85 82.89,306.09" id="polygon66" clip-path="url(#cl_id4475dae4f9a20190630210759_3)" fill="#E2E418" fill-opacity="0.6" stroke-width="1.06698" stroke="#000000" stroke-opacity="1" stroke-linejoin="round" stroke-linecap="round" title="name:  Group_vud <br> value: 62 <br> You can add a story here!" data-id="67" class="mark" style="opacity: 1;" opacity="1"></polygon>
    <polygon points="353.34,443.03 353.10,439.15 352.37,435.33 351.17,431.64 349.51,428.12 347.43,424.84 344.95,421.84 342.12,419.18 338.98,416.90 335.57,415.03 331.96,413.60 328.20,412.63 324.34,412.14 320.45,412.14 316.60,412.63 312.84,413.60 309.22,415.03 305.82,416.90 302.67,419.18 299.84,421.84 297.36,424.84 295.28,428.12 293.63,431.64 292.43,435.33 291.70,439.15 291.46,443.03 291.70,446.90 292.43,450.72 293.63,454.42 295.28,457.93 297.36,461.21 299.84,464.21 302.67,466.87 305.82,469.15 309.22,471.02 312.84,472.45 316.60,473.42 320.45,473.91 324.34,473.91 328.20,473.42 331.96,472.45 335.57,471.02 338.98,469.15 342.12,466.87 344.95,464.21 347.43,461.21 349.51,457.93 351.17,454.42 352.37,450.72 353.10,446.90 353.34,443.03" id="polygon67" clip-path="url(#cl_id4475dae4f9a20190630210759_3)" fill="#EBE51B" fill-opacity="0.6" stroke-width="1.06698" stroke="#000000" stroke-opacity="1" stroke-linejoin="round" stroke-linecap="round" title="name:  Group_ewt <br> value: 66 <br> You can add a story here!" data-id="68" class="mark" style="opacity: 1;" opacity="1"></polygon>
    <polygon points="291.49,444.74 291.36,442.71 290.98,440.72 290.35,438.79 289.49,436.95 288.40,435.24 287.11,433.67 285.63,432.29 283.99,431.09 282.21,430.12 280.32,429.37 278.36,428.86 276.34,428.61 274.31,428.61 272.30,428.86 270.33,429.37 268.45,430.12 266.67,431.09 265.03,432.29 263.55,433.67 262.25,435.24 261.17,436.95 260.30,438.79 259.68,440.72 259.30,442.71 259.17,444.74 259.30,446.76 259.68,448.76 260.30,450.69 261.17,452.52 262.25,454.23 263.55,455.80 265.03,457.19 266.67,458.38 268.45,459.36 270.33,460.10 272.30,460.61 274.31,460.86 276.34,460.86 278.36,460.61 280.32,460.10 282.21,459.36 283.99,458.38 285.63,457.19 287.11,455.80 288.40,454.23 289.49,452.52 290.35,450.69 290.98,448.76 291.36,446.76 291.49,444.74" id="polygon68" clip-path="url(#cl_id4475dae4f9a20190630210759_3)" fill="#F5E61F" fill-opacity="0.6" stroke-width="1.06698" stroke="#000000" stroke-opacity="1" stroke-linejoin="round" stroke-linecap="round" title="name:  Group_tdj <br> value: 18 <br> You can add a story here!" data-id="69" class="mark" style="opacity: 1;" opacity="1"></polygon>
    <polygon points="361.26,94.14 361.18,92.87 360.94,91.63 360.55,90.43 360.01,89.28 359.33,88.21 358.53,87.24 357.60,86.37 356.58,85.63 355.47,85.02 354.29,84.55 353.07,84.24 351.81,84.08 350.55,84.08 349.29,84.24 348.07,84.55 346.89,85.02 345.78,85.63 344.76,86.37 343.83,87.24 343.03,88.21 342.35,89.28 341.81,90.43 341.42,91.63 341.18,92.87 341.10,94.14 341.18,95.40 341.42,96.64 341.81,97.85 342.35,98.99 343.03,100.06 343.83,101.04 344.76,101.90 345.78,102.65 346.89,103.26 348.07,103.72 349.29,104.04 350.55,104.19 351.81,104.19 353.07,104.04 354.29,103.72 355.47,103.26 356.58,102.65 357.60,101.90 358.53,101.04 359.33,100.06 360.01,98.99 360.55,97.85 360.94,96.64 361.18,95.40 361.26,94.14" id="polygon69" clip-path="url(#cl_id4475dae4f9a20190630210759_3)" fill="#FDE725" fill-opacity="0.6" stroke-width="1.06698" stroke="#000000" stroke-opacity="1" stroke-linejoin="round" stroke-linecap="round" title="name:  Group_uax <br> value: 7 <br> You can add a story here!" data-id="70" class="mark" style="opacity: 1;" opacity="1"></polygon>
    <g clip-path="url(#cl_id4475dae4f9a20190630210759_3)">
      <text x="224.96" y="249.00" id="text0" font-size="4.27pt" font-family="Arial" style="pointer-events: auto; cursor: pointer; fill: rgb(255, 0, 0); opacity: 1;" pointer-events="auto" cursor="pointer" fill="rgb(255, 0, 0)" opacity="1">tqy</text>
    </g>
    <g clip-path="url(#cl_id4475dae4f9a20190630210759_3)">
      <text x="281.05" y="249.00" id="text1" font-size="4.27pt" font-family="Arial" style="pointer-events: auto; cursor: pointer; opacity: 1;" pointer-events="auto" cursor="pointer" opacity="1">nkt</text>
    </g>
    <g clip-path="url(#cl_id4475dae4f9a20190630210759_3)">
      <text x="256.91" y="272.29" id="text2" font-size="4.27pt" font-family="Arial" style="pointer-events: auto; cursor: pointer; opacity: 1;" pointer-events="auto" cursor="pointer" opacity="1">ipw</text>
    </g>
    <g clip-path="url(#cl_id4475dae4f9a20190630210759_3)">
      <text x="277.70" y="299.16" id="text3" font-size="4.27pt" font-family="Arial" style="pointer-events: auto; cursor: pointer; opacity: 1;" pointer-events="auto" cursor="pointer" opacity="1">xkq</text>
    </g>
    <g clip-path="url(#cl_id4475dae4f9a20190630210759_3)">
      <text x="232.00" y="299.99" id="text4" font-size="4.27pt" font-family="Arial" style="pointer-events: auto; cursor: pointer; opacity: 1;" pointer-events="auto" cursor="pointer" opacity="1">ssd</text>
    </g>
    <g clip-path="url(#cl_id4475dae4f9a20190630210759_3)">
      <text x="257.18" y="211.92" id="text5" font-size="4.27pt" font-family="Arial" style="pointer-events: auto; cursor: pointer; opacity: 1;" pointer-events="auto" cursor="pointer" opacity="1">sym</text>
    </g>
    <g clip-path="url(#cl_id4475dae4f9a20190630210759_3)">
      <text x="302.62" y="202.94" id="text6" font-size="4.27pt" font-family="Arial" style="pointer-events: auto; cursor: pointer; opacity: 1;" pointer-events="auto" cursor="pointer" opacity="1">pxl</text>
    </g>
    <g clip-path="url(#cl_id4475dae4f9a20190630210759_3)">
      <text x="324.13" y="242.47" id="text7" font-size="4.27pt" font-family="Arial" style="pointer-events: auto; cursor: pointer; opacity: 1;" pointer-events="auto" cursor="pointer" opacity="1">rps</text>
    </g>
    <g clip-path="url(#cl_id4475dae4f9a20190630210759_3)">
      <text x="324.31" y="284.98" id="text8" font-size="4.27pt" font-family="Arial" style="pointer-events: auto; cursor: pointer; opacity: 1;" pointer-events="auto" cursor="pointer" opacity="1">duq</text>
    </g>
    <g clip-path="url(#cl_id4475dae4f9a20190630210759_3)">
      <text x="215.27" y="282.99" id="text9" font-size="4.27pt" font-family="Arial" style="pointer-events: auto; cursor: pointer; opacity: 1;" pointer-events="auto" cursor="pointer" opacity="1">zzy</text>
    </g>
    <g clip-path="url(#cl_id4475dae4f9a20190630210759_3)">
      <text x="180.84" y="294.16" id="text10" font-size="4.27pt" font-family="Arial" style="pointer-events: auto; cursor: pointer; opacity: 1;" pointer-events="auto" cursor="pointer" opacity="1">gzo</text>
    </g>
    <g clip-path="url(#cl_id4475dae4f9a20190630210759_3)">
      <text x="165.37" y="236.26" id="text11" font-size="4.27pt" font-family="Arial" style="pointer-events: auto; cursor: pointer; opacity: 1;" pointer-events="auto" cursor="pointer" opacity="1">uoc</text>
    </g>
    <g clip-path="url(#cl_id4475dae4f9a20190630210759_3)">
      <text x="202.61" y="191.86" id="text12" font-size="4.27pt" font-family="Arial" style="pointer-events: auto; cursor: pointer; opacity: 1;" pointer-events="auto" cursor="pointer" opacity="1">nwz</text>
    </g>
    <g clip-path="url(#cl_id4475dae4f9a20190630210759_3)">
      <text x="246.40" y="180.07" id="text13" font-size="4.27pt" font-family="Arial" style="pointer-events: auto; cursor: pointer; opacity: 1;" pointer-events="auto" cursor="pointer" opacity="1">cpy</text>
    </g>
    <g clip-path="url(#cl_id4475dae4f9a20190630210759_3)">
      <text x="275.31" y="173.78" id="text14" font-size="4.27pt" font-family="Arial" style="pointer-events: auto; cursor: pointer; opacity: 1;" pointer-events="auto" cursor="pointer" opacity="1">fvu</text>
    </g>
    <g clip-path="url(#cl_id4475dae4f9a20190630210759_3)">
      <text x="311.25" y="320.32" id="text15" font-size="4.27pt" font-family="Arial" style="pointer-events: auto; cursor: pointer; opacity: 1;" pointer-events="auto" cursor="pointer" opacity="1">nxh</text>
    </g>
    <g clip-path="url(#cl_id4475dae4f9a20190630210759_3)">
      <text x="286.07" y="347.26" id="text16" font-size="4.27pt" font-family="Arial" style="pointer-events: auto; cursor: pointer; opacity: 1;" pointer-events="auto" cursor="pointer" opacity="1">ulo</text>
    </g>
    <g clip-path="url(#cl_id4475dae4f9a20190630210759_3)">
      <text x="232.31" y="350.85" id="text17" font-size="4.27pt" font-family="Arial" style="pointer-events: auto; cursor: pointer; opacity: 1;" pointer-events="auto" cursor="pointer" opacity="1">qpl</text>
    </g>
    <g clip-path="url(#cl_id4475dae4f9a20190630210759_3)">
      <text x="179.95" y="346.53" id="text18" font-size="4.27pt" font-family="Arial" style="pointer-events: auto; cursor: pointer; opacity: 1;" pointer-events="auto" cursor="pointer" opacity="1">bwt</text>
    </g>
    <g clip-path="url(#cl_id4475dae4f9a20190630210759_3)">
      <text x="308.13" y="149.98" id="text19" font-size="4.27pt" font-family="Arial" style="pointer-events: auto; cursor: pointer; opacity: 1;" pointer-events="auto" cursor="pointer" opacity="1">gjw</text>
    </g>
    <g clip-path="url(#cl_id4475dae4f9a20190630210759_3)">
      <text x="333.32" y="180.58" id="text20" font-size="4.27pt" font-family="Arial" style="pointer-events: auto; cursor: pointer; opacity: 1;" pointer-events="auto" cursor="pointer" opacity="1">veb</text>
    </g>
    <g clip-path="url(#cl_id4475dae4f9a20190630210759_3)">
      <text x="333.19" y="198.60" id="text21" font-size="4.27pt" font-family="Arial" style="pointer-events: auto; cursor: pointer; opacity: 1;" pointer-events="auto" cursor="pointer" opacity="1">twk</text>
    </g>
    <g clip-path="url(#cl_id4475dae4f9a20190630210759_3)">
      <text x="366.08" y="214.98" id="text22" font-size="4.27pt" font-family="Arial" style="pointer-events: auto; cursor: pointer; opacity: 1;" pointer-events="auto" cursor="pointer" opacity="1">mql</text>
    </g>
    <g clip-path="url(#cl_id4475dae4f9a20190630210759_3)">
      <text x="367.67" y="268.49" id="text23" font-size="4.27pt" font-family="Arial" style="pointer-events: auto; cursor: pointer; opacity: 1;" pointer-events="auto" cursor="pointer" opacity="1">kio</text>
    </g>
    <g clip-path="url(#cl_id4475dae4f9a20190630210759_3)">
      <text x="229.75" y="137.75" id="text24" font-size="4.27pt" font-family="Arial" style="pointer-events: auto; cursor: pointer; opacity: 1;" pointer-events="auto" cursor="pointer" opacity="1">ytq</text>
    </g>
    <g clip-path="url(#cl_id4475dae4f9a20190630210759_3)">
      <text x="276.73" y="102.55" id="text25" font-size="4.27pt" font-family="Arial" style="pointer-events: auto; cursor: pointer; opacity: 1;" pointer-events="auto" cursor="pointer" opacity="1">wxq</text>
    </g>
    <g clip-path="url(#cl_id4475dae4f9a20190630210759_3)">
      <text x="156.13" y="190.32" id="text26" font-size="4.27pt" font-family="Arial" style="pointer-events: auto; cursor: pointer; opacity: 1;" pointer-events="auto" cursor="pointer" opacity="1">nlh</text>
    </g>
    <g clip-path="url(#cl_id4475dae4f9a20190630210759_3)">
      <text x="171.06" y="151.71" id="text27" font-size="4.27pt" font-family="Arial" style="pointer-events: auto; cursor: pointer; opacity: 1;" pointer-events="auto" cursor="pointer" opacity="1">lyr</text>
    </g>
    <g clip-path="url(#cl_id4475dae4f9a20190630210759_3)">
      <text x="183.63" y="104.03" id="text28" font-size="4.27pt" font-family="Arial" style="pointer-events: auto; cursor: pointer; opacity: 1;" pointer-events="auto" cursor="pointer" opacity="1">rzx</text>
    </g>
    <g clip-path="url(#cl_id4475dae4f9a20190630210759_3)">
      <text x="355.79" y="299.20" id="text29" font-size="4.27pt" font-family="Arial" style="pointer-events: auto; cursor: pointer; opacity: 1;" pointer-events="auto" cursor="pointer" opacity="1">cxn</text>
    </g>
    <g clip-path="url(#cl_id4475dae4f9a20190630210759_3)">
      <text x="345.41" y="329.08" id="text30" font-size="4.27pt" font-family="Arial" style="pointer-events: auto; cursor: pointer; opacity: 1;" pointer-events="auto" cursor="pointer" opacity="1">oyx</text>
    </g>
    <g clip-path="url(#cl_id4475dae4f9a20190630210759_3)">
      <text x="132.00" y="330.10" id="text31" font-size="4.27pt" font-family="Arial" style="pointer-events: auto; cursor: pointer; opacity: 1;" pointer-events="auto" cursor="pointer" opacity="1">dsl</text>
    </g>
    <g clip-path="url(#cl_id4475dae4f9a20190630210759_3)">
      <text x="139.17" y="289.12" id="text32" font-size="4.27pt" font-family="Arial" style="pointer-events: auto; cursor: pointer; opacity: 1;" pointer-events="auto" cursor="pointer" opacity="1">hta</text>
    </g>
    <g clip-path="url(#cl_id4475dae4f9a20190630210759_3)">
      <text x="130.74" y="263.33" id="text33" font-size="4.27pt" font-family="Arial" style="pointer-events: auto; cursor: pointer; opacity: 1;" pointer-events="auto" cursor="pointer" opacity="1">dfe</text>
    </g>
    <g clip-path="url(#cl_id4475dae4f9a20190630210759_3)">
      <text x="321.32" y="353.15" id="text34" font-size="4.27pt" font-family="Arial" style="pointer-events: auto; cursor: pointer; opacity: 1;" pointer-events="auto" cursor="pointer" opacity="1">kgz</text>
    </g>
    <g clip-path="url(#cl_id4475dae4f9a20190630210759_3)">
      <text x="114.07" y="228.34" id="text35" font-size="4.27pt" font-family="Arial" style="pointer-events: auto; cursor: pointer; opacity: 1;" pointer-events="auto" cursor="pointer" opacity="1">mck</text>
    </g>
    <g clip-path="url(#cl_id4475dae4f9a20190630210759_3)">
      <text x="110.52" y="176.33" id="text36" font-size="4.27pt" font-family="Arial" style="pointer-events: auto; cursor: pointer; opacity: 1;" pointer-events="auto" cursor="pointer" opacity="1">rrg</text>
    </g>
    <g clip-path="url(#cl_id4475dae4f9a20190630210759_3)">
      <text x="363.24" y="159.01" id="text37" font-size="4.27pt" font-family="Arial" style="pointer-events: auto; cursor: pointer; opacity: 1;" pointer-events="auto" cursor="pointer" opacity="1">pgb</text>
    </g>
    <g clip-path="url(#cl_id4475dae4f9a20190630210759_3)">
      <text x="308.82" y="389.58" id="text38" font-size="4.27pt" font-family="Arial" style="pointer-events: auto; cursor: pointer; opacity: 1;" pointer-events="auto" cursor="pointer" opacity="1">oos</text>
    </g>
    <g clip-path="url(#cl_id4475dae4f9a20190630210759_3)">
      <text x="255.68" y="404.25" id="text39" font-size="4.27pt" font-family="Arial" style="pointer-events: auto; cursor: pointer; opacity: 1;" pointer-events="auto" cursor="pointer" opacity="1">wmq</text>
    </g>
    <g clip-path="url(#cl_id4475dae4f9a20190630210759_3)">
      <text x="343.84" y="123.03" id="text40" font-size="4.27pt" font-family="Arial" style="pointer-events: auto; cursor: pointer; opacity: 1;" pointer-events="auto" cursor="pointer" opacity="1">lex</text>
    </g>
    <g clip-path="url(#cl_id4475dae4f9a20190630210759_3)">
      <text x="205.87" y="397.64" id="text41" font-size="4.27pt" font-family="Arial" style="pointer-events: auto; cursor: pointer; opacity: 1;" pointer-events="auto" cursor="pointer" opacity="1">anm</text>
    </g>
    <g clip-path="url(#cl_id4475dae4f9a20190630210759_3)">
      <text x="159.88" y="389.00" id="text42" font-size="4.27pt" font-family="Arial" style="pointer-events: auto; cursor: pointer; opacity: 1;" pointer-events="auto" cursor="pointer" opacity="1">wej</text>
    </g>
    <g clip-path="url(#cl_id4475dae4f9a20190630210759_3)">
      <text x="374.66" y="296.32" id="text43" font-size="4.27pt" font-family="Arial" style="pointer-events: auto; cursor: pointer; opacity: 1;" pointer-events="auto" cursor="pointer" opacity="1">sij</text>
    </g>
    <g clip-path="url(#cl_id4475dae4f9a20190630210759_3)">
      <text x="380.11" y="316.83" id="text44" font-size="4.27pt" font-family="Arial" style="pointer-events: auto; cursor: pointer; opacity: 1;" pointer-events="auto" cursor="pointer" opacity="1">rcf</text>
    </g>
    <g clip-path="url(#cl_id4475dae4f9a20190630210759_3)">
      <text x="311.14" y="115.39" id="text45" font-size="4.27pt" font-family="Arial" style="pointer-events: auto; cursor: pointer; opacity: 1;" pointer-events="auto" cursor="pointer" opacity="1">wag</text>
    </g>
    <g clip-path="url(#cl_id4475dae4f9a20190630210759_3)">
      <text x="324.31" y="104.17" id="text46" font-size="4.27pt" font-family="Arial" style="pointer-events: auto; cursor: pointer; opacity: 1;" pointer-events="auto" cursor="pointer" opacity="1">pqa</text>
    </g>
    <g clip-path="url(#cl_id4475dae4f9a20190630210759_3)">
      <text x="413.18" y="251.10" id="text47" font-size="4.27pt" font-family="Arial" style="pointer-events: auto; cursor: pointer; opacity: 1;" pointer-events="auto" cursor="pointer" opacity="1">zup</text>
    </g>
    <g clip-path="url(#cl_id4475dae4f9a20190630210759_3)">
      <text x="407.85" y="298.32" id="text48" font-size="4.27pt" font-family="Arial" style="pointer-events: auto; cursor: pointer; opacity: 1;" pointer-events="auto" cursor="pointer" opacity="1">ymf</text>
    </g>
    <g clip-path="url(#cl_id4475dae4f9a20190630210759_3)">
      <text x="228.26" y="82.09" id="text49" font-size="4.27pt" font-family="Arial" style="pointer-events: auto; cursor: pointer; opacity: 1;" pointer-events="auto" cursor="pointer" opacity="1">dxq</text>
    </g>
    <g clip-path="url(#cl_id4475dae4f9a20190630210759_3)">
      <text x="404.14" y="178.66" id="text50" font-size="4.27pt" font-family="Arial" style="pointer-events: auto; cursor: pointer; opacity: 1;" pointer-events="auto" cursor="pointer" opacity="1">msa</text>
    </g>
    <g clip-path="url(#cl_id4475dae4f9a20190630210759_3)">
      <text x="448.29" y="205.92" id="text51" font-size="4.27pt" font-family="Arial" style="pointer-events: auto; cursor: pointer; opacity: 1;" pointer-events="auto" cursor="pointer" opacity="1">tmj</text>
    </g>
    <g clip-path="url(#cl_id4475dae4f9a20190630210759_3)">
      <text x="126.38" y="116.92" id="text52" font-size="4.27pt" font-family="Arial" style="pointer-events: auto; cursor: pointer; opacity: 1;" pointer-events="auto" cursor="pointer" opacity="1">krd</text>
    </g>
    <g clip-path="url(#cl_id4475dae4f9a20190630210759_3)">
      <text x="383.96" y="359.28" id="text53" font-size="4.27pt" font-family="Arial" style="pointer-events: auto; cursor: pointer; opacity: 1;" pointer-events="auto" cursor="pointer" opacity="1">ksc</text>
    </g>
    <g clip-path="url(#cl_id4475dae4f9a20190630210759_3)">
      <text x="356.68" y="404.87" id="text54" font-size="4.27pt" font-family="Arial" style="pointer-events: auto; cursor: pointer; opacity: 1;" pointer-events="auto" cursor="pointer" opacity="1">lam</text>
    </g>
    <g clip-path="url(#cl_id4475dae4f9a20190630210759_3)">
      <text x="108.01" y="381.74" id="text55" font-size="4.27pt" font-family="Arial" style="pointer-events: auto; cursor: pointer; opacity: 1;" pointer-events="auto" cursor="pointer" opacity="1">fwh</text>
    </g>
    <g clip-path="url(#cl_id4475dae4f9a20190630210759_3)">
      <text x="98.70" y="286.94" id="text56" font-size="4.27pt" font-family="Arial" style="pointer-events: auto; cursor: pointer; opacity: 1;" pointer-events="auto" cursor="pointer" opacity="1">htn</text>
    </g>
    <g clip-path="url(#cl_id4475dae4f9a20190630210759_3)">
      <text x="67.50" y="245.30" id="text57" font-size="4.27pt" font-family="Arial" style="pointer-events: auto; cursor: pointer; opacity: 1;" pointer-events="auto" cursor="pointer" opacity="1">phn</text>
    </g>
    <g clip-path="url(#cl_id4475dae4f9a20190630210759_3)">
      <text x="379.20" y="117.29" id="text58" font-size="4.27pt" font-family="Arial" style="pointer-events: auto; cursor: pointer; opacity: 1;" pointer-events="auto" cursor="pointer" opacity="1">omx</text>
    </g>
    <g clip-path="url(#cl_id4475dae4f9a20190630210759_3)">
      <text x="410.70" y="140.04" id="text59" font-size="4.27pt" font-family="Arial" style="pointer-events: auto; cursor: pointer; opacity: 1;" pointer-events="auto" cursor="pointer" opacity="1">xxx</text>
    </g>
    <g clip-path="url(#cl_id4475dae4f9a20190630210759_3)">
      <text x="419.51" y="332.79" id="text60" font-size="4.27pt" font-family="Arial" style="pointer-events: auto; cursor: pointer; opacity: 1;" pointer-events="auto" cursor="pointer" opacity="1">aoz</text>
    </g>
    <g clip-path="url(#cl_id4475dae4f9a20190630210759_3)">
      <text x="55.05" y="192.39" id="text61" font-size="4.27pt" font-family="Arial" style="pointer-events: auto; cursor: pointer; opacity: 1;" pointer-events="auto" cursor="pointer" opacity="1">uhy</text>
    </g>
    <g clip-path="url(#cl_id4475dae4f9a20190630210759_3)">
      <text x="322.30" y="66.67" id="text62" font-size="4.27pt" font-family="Arial" style="pointer-events: auto; cursor: pointer; opacity: 1;" pointer-events="auto" cursor="pointer" opacity="1">qyc</text>
    </g>
    <g clip-path="url(#cl_id4475dae4f9a20190630210759_3)">
      <text x="262.64" y="57.89" id="text63" font-size="4.27pt" font-family="Arial" style="pointer-events: auto; cursor: pointer; opacity: 1;" pointer-events="auto" cursor="pointer" opacity="1">wzl</text>
    </g>
    <g clip-path="url(#cl_id4475dae4f9a20190630210759_3)">
      <text x="288.73" y="44.15" id="text64" font-size="4.27pt" font-family="Arial" style="pointer-events: auto; cursor: pointer; opacity: 1;" pointer-events="auto" cursor="pointer" opacity="1">mie</text>
    </g>
    <g clip-path="url(#cl_id4475dae4f9a20190630210759_3)">
      <text x="83.31" y="343.16" id="text65" font-size="4.27pt" font-family="Arial" style="pointer-events: auto; cursor: pointer; opacity: 1;" pointer-events="auto" cursor="pointer" opacity="1">qyk</text>
    </g>
    <g clip-path="url(#cl_id4475dae4f9a20190630210759_3)">
      <text x="48.31" y="308.12" id="text66" font-size="4.27pt" font-family="Arial" style="pointer-events: auto; cursor: pointer; opacity: 1;" pointer-events="auto" cursor="pointer" opacity="1">vud</text>
    </g>
    <g clip-path="url(#cl_id4475dae4f9a20190630210759_3)">
      <text x="317.97" y="445.06" id="text67" font-size="4.27pt" font-family="Arial" style="pointer-events: auto; cursor: pointer; opacity: 1;" pointer-events="auto" cursor="pointer" opacity="1">ewt</text>
    </g>
    <g clip-path="url(#cl_id4475dae4f9a20190630210759_3)">
      <text x="272.32" y="446.77" id="text68" font-size="4.27pt" font-family="Arial" style="pointer-events: auto; cursor: pointer; opacity: 1;" pointer-events="auto" cursor="pointer" opacity="1">tdj</text>
    </g>
    <g clip-path="url(#cl_id4475dae4f9a20190630210759_3)">
      <text x="346.59" y="96.17" id="text69" font-size="4.27pt" font-family="Arial" style="pointer-events: auto; cursor: pointer; opacity: 1;" pointer-events="auto" cursor="pointer" opacity="1">uax</text>
    </g>
    <defs id="defs3" style="opacity: 1;">
      <clipPath id="clipPath3" style="opacity: 1;">
        <rect x="0.00" y="0.00" width="504.00" height="504.00" id="rect4" class="mark" style="opacity: 1;" opacity="1"></rect>
      </clipPath>
    </defs>
  </g>
</svg>