<svg height="500" width="960"><g transform="translate(40, 20)"><g transform="translate(0, 450)" class="x axis"><g transform="translate(37.5,0)" style="opacity: 1;" class="tick"><line x2="0" y2="6"></line><text x="0" y="9" style="text-anchor: middle;" dy=".71em">2000</text></g><g transform="translate(92.5,0)" style="opacity: 1;" class="tick"><line x2="0" y2="6"></line><text x="0" y="9" style="text-anchor: middle;" dy=".71em">2001</text></g><g transform="translate(147.5,0)" style="opacity: 1;" class="tick"><line x2="0" y2="6"></line><text x="0" y="9" style="text-anchor: middle;" dy=".71em">2002</text></g><g transform="translate(202.5,0)" style="opacity: 1;" class="tick"><line x2="0" y2="6"></line><text x="0" y="9" style="text-anchor: middle;" dy=".71em">2003</text></g><g transform="translate(257.5,0)" style="opacity: 1;" class="tick"><line x2="0" y2="6"></line><text x="0" y="9" style="text-anchor: middle;" dy=".71em">2004</text></g><g transform="translate(312.5,0)" style="opacity: 1;" class="tick"><line x2="0" y2="6"></line><text x="0" y="9" style="text-anchor: middle;" dy=".71em">2005</text></g><g transform="translate(367.5,0)" style="opacity: 1;" class="tick"><line x2="0" y2="6"></line><text x="0" y="9" style="text-anchor: middle;" dy=".71em">2006</text></g><g transform="translate(422.5,0)" style="opacity: 1;" class="tick"><line x2="0" y2="6"></line><text x="0" y="9" style="text-anchor: middle;" dy=".71em">2007</text></g><g transform="translate(477.5,0)" style="opacity: 1;" class="tick"><line x2="0" y2="6"></line><text x="0" y="9" style="text-anchor: middle;" dy=".71em">2008</text></g><g transform="translate(532.5,0)" style="opacity: 1;" class="tick"><line x2="0" y2="6"></line><text x="0" y="9" style="text-anchor: middle;" dy=".71em">2009</text></g><g transform="translate(587.5,0)" style="opacity: 1;" class="tick"><line x2="0" y2="6"></line><text x="0" y="9" style="text-anchor: middle;" dy=".71em">2010</text></g><g transform="translate(642.5,0)" style="opacity: 1;" class="tick"><line x2="0" y2="6"></line><text x="0" y="9" style="text-anchor: middle;" dy=".71em">2011</text></g><g transform="translate(697.5,0)" style="opacity: 1;" class="tick"><line x2="0" y2="6"></line><text x="0" y="9" style="text-anchor: middle;" dy=".71em">2012</text></g><g transform="translate(752.5,0)" style="opacity: 1;" class="tick"><line x2="0" y2="6"></line><text x="0" y="9" style="text-anchor: middle;" dy=".71em">2013</text></g><g transform="translate(807.5,0)" style="opacity: 1;" class="tick"><line x2="0" y2="6"></line><text x="0" y="9" style="text-anchor: middle;" dy=".71em">2014</text></g><g transform="translate(862.5,0)" style="opacity: 1;" class="tick"><line x2="0" y2="6"></line><text x="0" y="9" style="text-anchor: middle;" dy=".71em">2015</text></g><path d="M0,6V0H900V6" class="domain"></path></g><g class="y axis"><g transform="translate(0,450)" style="opacity: 1;" class="tick"><line y2="0" x2="-6"></line><text y="0" x="-9" style="text-anchor: end;" dy=".32em">0.0</text></g><g transform="translate(0,392)" style="opacity: 1;" class="tick"><line y2="0" x2="-6"></line><text y="0" x="-9" style="text-anchor: end;" dy=".32em">2.0k</text></g><g transform="translate(0,333)" style="opacity: 1;" class="tick"><line y2="0" x2="-6"></line><text y="0" x="-9" style="text-anchor: end;" dy=".32em">4.0k</text></g><g transform="translate(0,275)" style="opacity: 1;" class="tick"><line y2="0" x2="-6"></line><text y="0" x="-9" style="text-anchor: end;" dy=".32em">6.0k</text></g><g transform="translate(0,216)" style="opacity: 1;" class="tick"><line y2="0" x2="-6"></line><text y="0" x="-9" style="text-anchor: end;" dy=".32em">8.0k</text></g><g transform="translate(0,158)" style="opacity: 1;" class="tick"><line y2="0" x2="-6"></line><text y="0" x="-9" style="text-anchor: end;" dy=".32em">10k</text></g><g transform="translate(0,99)" style="opacity: 1;" class="tick"><line y2="0" x2="-6"></line><text y="0" x="-9" style="text-anchor: end;" dy=".32em">12k</text></g><g transform="translate(0,41)" style="opacity: 1;" class="tick"><line y2="0" x2="-6"></line><text y="0" x="-9" style="text-anchor: end;" dy=".32em">14k</text></g><path d="M-6,0H0V450H-6" class="domain"></path><text style="text-anchor: end;" dy=".71em" y="6" transform="rotate(-90)">#Articles</text></g><g transform="translate(17, 0)" class="g"><rect style="fill: rgb(242, 242, 242);" height="374" y="76" x="0" width="41"><title>12809</title></rect><rect style="fill: rgb(103, 169, 207);" height="222" y="228" x="5.125" width="13.666666666666666"><title>7595</title></rect><rect style="fill: rgb(239, 138, 98);" height="152" y="298" x="23.916666666666668" width="13.666666666666666"><title>5214</title></rect></g><g transform="translate(72, 0)" class="g"><rect style="fill: rgb(242, 242, 242);" height="387" y="63" x="0" width="41"><title>13245</title></rect><rect style="fill: rgb(103, 169, 207);" height="228" y="222" x="5.125" width="13.666666666666666"><title>7807</title></rect><rect style="fill: rgb(239, 138, 98);" height="159" y="291" x="23.916666666666668" width="13.666666666666666"><title>5438</title></rect></g><g transform="translate(127, 0)" class="g"><rect style="fill: rgb(242, 242, 242);" height="398" y="52" x="0" width="41"><title>13616</title></rect><rect style="fill: rgb(103, 169, 207);" height="238" y="212" x="5.125" width="13.666666666666666"><title>8142</title></rect><rect style="fill: rgb(239, 138, 98);" height="160" y="290" x="23.916666666666668" width="13.666666666666666"><title>5474</title></rect></g><g transform="translate(182, 0)" class="g"><rect style="fill: rgb(242, 242, 242);" height="390" y="60" x="0" width="41"><title>13340</title></rect><rect style="fill: rgb(103, 169, 207);" height="235" y="215" x="5.125" width="13.666666666666666"><title>8053</title></rect><rect style="fill: rgb(239, 138, 98);" height="154" y="296" x="23.916666666666668" width="13.666666666666666"><title>5287</title></rect></g><g transform="translate(237, 0)" class="g"><rect style="fill: rgb(242, 242, 242);" height="411" y="39" x="0" width="41"><title>14077</title></rect><rect style="fill: rgb(103, 169, 207);" height="258" y="192" x="5.125" width="13.666666666666666"><title>8828</title></rect><rect style="fill: rgb(239, 138, 98);" height="153" y="297" x="23.916666666666668" width="13.666666666666666"><title>5249</title></rect></g><g transform="translate(292, 0)" class="g"><rect style="fill: rgb(242, 242, 242);" height="421" y="29" x="0" width="41"><title>14396</title></rect><rect style="fill: rgb(103, 169, 207);" height="267" y="183" x="5.125" width="13.666666666666666"><title>9123</title></rect><rect style="fill: rgb(239, 138, 98);" height="154" y="296" x="23.916666666666668" width="13.666666666666666"><title>5273</title></rect></g><g transform="translate(347, 0)" class="g"><rect style="fill: rgb(242, 242, 242);" height="419" y="31" x="0" width="41"><title>14351</title></rect><rect style="fill: rgb(103, 169, 207);" height="251" y="199" x="5.125" width="13.666666666666666"><title>8594</title></rect><rect style="fill: rgb(239, 138, 98);" height="168" y="282" x="23.916666666666668" width="13.666666666666666"><title>5757</title></rect></g><g transform="translate(402, 0)" class="g"><rect style="fill: rgb(242, 242, 242);" height="450" y="0" x="0" width="41"><title>15396</title></rect><rect style="fill: rgb(103, 169, 207);" height="279" y="171" x="5.125" width="13.666666666666666"><title>9560</title></rect><rect style="fill: rgb(239, 138, 98);" height="170" y="280" x="23.916666666666668" width="13.666666666666666"><title>5836</title></rect></g><g transform="translate(457, 0)" class="g"><rect style="fill: rgb(242, 242, 242);" height="450" y="0" x="0" width="41"><title>15403</title></rect><rect style="fill: rgb(103, 169, 207);" height="279" y="171" x="5.125" width="13.666666666666666"><title>9541</title></rect><rect style="fill: rgb(239, 138, 98);" height="171" y="279" x="23.916666666666668" width="13.666666666666666"><title>5862</title></rect></g><g transform="translate(512, 0)" class="g"><rect style="fill: rgb(242, 242, 242);" height="421" y="29" x="0" width="41"><title>14420</title></rect><rect style="fill: rgb(103, 169, 207);" height="249" y="201" x="5.125" width="13.666666666666666"><title>8528</title></rect><rect style="fill: rgb(239, 138, 98);" height="172" y="278" x="23.916666666666668" width="13.666666666666666"><title>5892</title></rect></g><g transform="translate(567, 0)" class="g"><rect style="fill: rgb(242, 242, 242);" height="407" y="43" x="0" width="41"><title>13931</title></rect><rect style="fill: rgb(103, 169, 207);" height="240" y="210" x="5.125" width="13.666666666666666"><title>8230</title></rect><rect style="fill: rgb(239, 138, 98);" height="167" y="283" x="23.916666666666668" width="13.666666666666666"><title>5701</title></rect></g><g transform="translate(622, 0)" class="g"><rect style="fill: rgb(242, 242, 242);" height="398" y="52" x="0" width="41"><title>13611</title></rect><rect style="fill: rgb(103, 169, 207);" height="222" y="228" x="5.125" width="13.666666666666666"><title>7606</title></rect><rect style="fill: rgb(239, 138, 98);" height="175" y="275" x="23.916666666666668" width="13.666666666666666"><title>6005</title></rect></g><g transform="translate(677, 0)" class="g"><rect style="fill: rgb(242, 242, 242);" height="406" y="44" x="0" width="41"><title>13913</title></rect><rect style="fill: rgb(103, 169, 207);" height="213" y="237" x="5.125" width="13.666666666666666"><title>7278</title></rect><rect style="fill: rgb(239, 138, 98);" height="194" y="256" x="23.916666666666668" width="13.666666666666666"><title>6635</title></rect></g><g transform="translate(732, 0)" class="g"><rect style="fill: rgb(242, 242, 242);" height="374" y="76" x="0" width="41"><title>12817</title></rect><rect style="fill: rgb(103, 169, 207);" height="178" y="272" x="5.125" width="13.666666666666666"><title>6077</title></rect><rect style="fill: rgb(239, 138, 98);" height="197" y="253" x="23.916666666666668" width="13.666666666666666"><title>6740</title></rect></g><g transform="translate(787, 0)" class="g"><rect style="fill: rgb(242, 242, 242);" height="334" y="116" x="0" width="41"><title>11444</title></rect><rect style="fill: rgb(103, 169, 207);" height="146" y="304" x="5.125" width="13.666666666666666"><title>5000</title></rect><rect style="fill: rgb(239, 138, 98);" height="188" y="262" x="23.916666666666668" width="13.666666666666666"><title>6444</title></rect></g><g transform="translate(842, 0)" class="g"><rect style="fill: rgb(242, 242, 242);" height="158" y="292" x="0" width="41"><title>5407</title></rect><rect style="fill: rgb(103, 169, 207);" height="80" y="370" x="5.125" width="13.666666666666666"><title>2727</title></rect><rect style="fill: rgb(239, 138, 98);" height="78" y="372" x="23.916666666666668" width="13.666666666666666"><title>2680</title></rect></g><line stroke="#f2f2f2" y2="63" y1="63" x2="900" x1="0" class="mean"></line><line stroke="#67a9cf" y2="226" y1="226" x2="900" x1="0" class="mean"></line><line stroke="#ef8a62" y2="287" y1="287" x2="900" x1="0" class="mean"></line><g transform="translate(0,0)" class="legend"><rect style="fill: rgb(239, 138, 98);" height="18" width="18" x="882"></rect><text style="text-anchor: end;" dy=".35em" y="9" x="876">Journal Articles A-rated</text></g><g transform="translate(0,20)" class="legend"><rect style="fill: rgb(103, 169, 207);" height="18" width="18" x="882"></rect><text style="text-anchor: end;" dy=".35em" y="9" x="876">Journal Articles not A-rated</text></g><g transform="translate(0,40)" class="legend"><rect style="fill: rgb(242, 242, 242);" height="18" width="18" x="882"></rect><text style="text-anchor: end;" dy=".35em" y="9" x="876">Total</text></g></g></svg>