<svg version="1.1" class="highcharts-root" style="font-family: Helvetica, Arial, sans-serif; font-size: 1rem;" xmlns="http://www.w3.org/2000/svg" width="800" height="400" viewBox="0 0 800 400" aria-hidden="false" aria-label="Interactive chart"><desc aria-hidden="true">Created with Highcharts 11.4.0</desc><defs aria-hidden="true"><filter id="highcharts-drop-shadow-0"><feDropShadow dx="1" dy="1" flood-color="#000000" flood-opacity="0.75" stdDeviation="2.5"></feDropShadow></filter><clipPath id="highcharts-twfrwuf-9-"><rect x="0" y="0" width="727" height="263" fill="none"></rect></clipPath></defs><rect fill="#ffffff" class="highcharts-background" filter="none" x="0" y="0" width="800" height="400" rx="0" ry="0" aria-hidden="true"></rect><rect fill="none" class="highcharts-plot-background" x="63" y="61" width="727" height="263" filter="none" aria-hidden="true"></rect><g class="highcharts-grid highcharts-xaxis-grid" data-z-index="1" aria-hidden="true"><path fill="none" stroke="#e6e6e6" stroke-width="0" stroke-dasharray="none" data-z-index="1" class="highcharts-grid-line" d="M 207.5 61 L 207.5 324" opacity="1"></path><path fill="none" stroke="#e6e6e6" stroke-width="0" stroke-dasharray="none" data-z-index="1" class="highcharts-grid-line" d="M 353.5 61 L 353.5 324" opacity="1"></path><path fill="none" stroke="#e6e6e6" stroke-width="0" stroke-dasharray="none" data-z-index="1" class="highcharts-grid-line" d="M 498.5 61 L 498.5 324" opacity="1"></path><path fill="none" stroke="#e6e6e6" stroke-width="0" stroke-dasharray="none" data-z-index="1" class="highcharts-grid-line" d="M 644.5 61 L 644.5 324" opacity="1"></path><path fill="none" stroke="#e6e6e6" stroke-width="0" stroke-dasharray="none" data-z-index="1" class="highcharts-grid-line" d="M 789.5 61 L 789.5 324" opacity="1"></path><path fill="none" stroke="#e6e6e6" stroke-width="0" stroke-dasharray="none" data-z-index="1" class="highcharts-grid-line" d="M 62.5 61 L 62.5 324" opacity="1"></path></g><g class="highcharts-grid highcharts-yaxis-grid" data-z-index="1" aria-hidden="true"><path fill="none" stroke="#e6e6e6" stroke-width="1" stroke-dasharray="none" data-z-index="1" class="highcharts-grid-line" d="M 63 324.5 L 790 324.5" opacity="1"></path><path fill="none" stroke="#e6e6e6" stroke-width="1" stroke-dasharray="none" data-z-index="1" class="highcharts-grid-line" d="M 63 271.5 L 790 271.5" opacity="1"></path><path fill="none" stroke="#e6e6e6" stroke-width="1" stroke-dasharray="none" data-z-index="1" class="highcharts-grid-line" d="M 63 219.5 L 790 219.5" opacity="1"></path><path fill="none" stroke="#e6e6e6" stroke-width="1" stroke-dasharray="none" data-z-index="1" class="highcharts-grid-line" d="M 63 166.5 L 790 166.5" opacity="1"></path><path fill="none" stroke="#e6e6e6" stroke-width="1" stroke-dasharray="none" data-z-index="1" class="highcharts-grid-line" d="M 63 114.5 L 790 114.5" opacity="1"></path><path fill="none" stroke="#e6e6e6" stroke-width="1" stroke-dasharray="none" data-z-index="1" class="highcharts-grid-line" d="M 63 60.5 L 790 60.5" opacity="1"></path></g><rect fill="none" class="highcharts-plot-border" data-z-index="1" stroke="#cccccc" stroke-width="0" x="63" y="61" width="727" height="263" aria-hidden="true"></rect><g class="highcharts-axis highcharts-xaxis" data-z-index="2" aria-hidden="true"><path fill="none" class="highcharts-axis-line" stroke="#333333" stroke-width="1" data-z-index="7" d="M 63 324.5 L 790 324.5"></path></g><g class="highcharts-axis highcharts-yaxis" data-z-index="2" aria-hidden="true"><text x="23.681249618530273" data-z-index="7" text-anchor="middle" transform="translate(0,0) rotate(270 23.681249618530273 192.5)" class="highcharts-axis-title" style="color: rgb(102, 102, 102); font-size: 0.8em; fill: rgb(102, 102, 102);" y="192.5">Gold medals</text><path fill="none" class="highcharts-axis-line" stroke="#333333" stroke-width="0" data-z-index="7" d="M 63 61 L 63 324"></path></g><g class="highcharts-series-group" data-z-index="3" filter="none" aria-hidden="false"><g class="highcharts-series highcharts-series-0 highcharts-column-series highcharts-tracker" data-z-index="0.1" opacity="1" transform="translate(63,61) scale(1 1)" clip-path="url(#highcharts-twfrwuf-9-)" aria-hidden="false" role="region" tabindex="-1" aria-label="2016, bar series 1 of 2 with 8 bars." style="outline: none;"><path fill="rgba(158, 159, 163, 0.5)" d="M 1030 217 L 1094 217 A 3 3 0 0 1 1097 220 L 1097 264 A 0 0 0 0 1 1097 264 L 1027 264 A 0 0 0 0 1 1027 264 L 1027 220 A 3 3 0 0 1 1030 217 Z" stroke="#ffffff" stroke-width="0" opacity="1" filter="none" class="highcharts-point" tabindex="-1" role="img" aria-label="kr, 9. 2016." style="outline: none;"></path><path fill="rgba(158,159,163,0.5)" d="M 303 201 L 367 201 A 3 3 0 0 1 370 204 L 370 264 A 0 0 0 0 1 370 264 L 300 264 A 0 0 0 0 1 300 264 L 300 204 A 3 3 0 0 1 303 201 Z" stroke="#ffffff" stroke-width="0" opacity="1" filter="none" class="highcharts-point" tabindex="-1" role="img" aria-label="jp, 12. 2016." style="outline: none;"></path><path fill="rgba(158,159,163,0.5)" d="M 739 222 L 803 222 A 3 3 0 0 1 806 225 L 806 264 A 0 0 0 0 1 806 264 L 736 264 A 0 0 0 0 1 736 264 L 736 225 A 3 3 0 0 1 739 222 Z" stroke="#ffffff" stroke-width="0" opacity="1" filter="none" class="highcharts-point" tabindex="-1" role="img" aria-label="au, 8. 2016." style="outline: none;"></path><path fill="rgba(158, 159, 163, 0.5)" d="M 884 175 L 948 175 A 3 3 0 0 1 951 178 L 951 264 A 0 0 0 0 1 951 264 L 881 264 A 0 0 0 0 1 881 264 L 881 178 A 3 3 0 0 1 884 175 Z" stroke="#ffffff" stroke-width="0" opacity="1" filter="none" class="highcharts-point" tabindex="-1" role="img" aria-label="de, 17. 2016." style="outline: none;"></path><path fill="rgba(158,159,163,0.5)" d="M 593 164 L 657 164 A 3 3 0 0 1 660 167 L 660 264 A 0 0 0 0 1 660 264 L 590 264 A 0 0 0 0 1 590 264 L 590 167 A 3 3 0 0 1 593 164 Z" stroke="#ffffff" stroke-width="0" opacity="1" filter="none" class="highcharts-point" tabindex="-1" role="img" aria-label="ru, 19. 2016." style="outline: none;"></path><path fill="rgba(158,159,163,0.5)" d="M 157 127 L 221 127 A 3 3 0 0 1 224 130 L 224 264 A 0 0 0 0 1 224 264 L 154 264 A 0 0 0 0 1 154 264 L 154 130 A 3 3 0 0 1 157 127 Z" stroke="#ffffff" stroke-width="0" opacity="1" filter="none" class="highcharts-point" tabindex="-1" role="img" aria-label="cn, 26. 2016." style="outline: none;"></path><path fill="rgba(158,159,163,0.5)" d="M 448 122 L 512 122 A 3 3 0 0 1 515 125 L 515 264 A 0 0 0 0 1 515 264 L 445 264 A 0 0 0 0 1 445 264 L 445 125 A 3 3 0 0 1 448 122 Z" stroke="#ffffff" stroke-width="0" opacity="1" filter="none" class="highcharts-point" tabindex="-1" role="img" aria-label="gb, 27. 2016." style="outline: none;"></path><path fill="rgba(158,159,163,0.5)" d="M 12 22 L 76 22 A 3 3 0 0 1 79 25 L 79 264 A 0 0 0 0 1 79 264 L 9 264 A 0 0 0 0 1 9 264 L 9 25 A 3 3 0 0 1 12 22 Z" stroke="#ffffff" stroke-width="0" opacity="1" filter="none" class="highcharts-point" tabindex="-1" role="img" aria-label="us, 46. 2016." style="outline: none;"></path></g><g class="highcharts-markers highcharts-series-0 highcharts-column-series" data-z-index="0.1" opacity="1" transform="translate(63,61) scale(1 1)" clip-path="none" aria-hidden="true"></g><g class="highcharts-series highcharts-series-1 highcharts-column-series highcharts-color-0 highcharts-tracker" data-z-index="0.1" opacity="1" transform="translate(63,61) scale(1 1)" clip-path="url(#highcharts-twfrwuf-9-)" aria-hidden="false" role="region" tabindex="-1" aria-label="2020, bar series 2 of 2 with 8 bars." style="outline: none;"><path fill="#FE2371" d="M 1059 232 L 1123 232 A 3 3 0 0 1 1126 235 L 1126 264 A 0 0 0 0 1 1126 264 L 1056 264 A 0 0 0 0 1 1056 264 L 1056 235 A 3 3 0 0 1 1059 232 Z" stroke="#ffffff" stroke-width="0" opacity="1" filter="none" class="highcharts-point highcharts-color-0" tabindex="-1" role="img" aria-label="kr, 6. 2020." style="outline: none;"></path><path fill="rgb(84,79,197)" d="M 332 122 L 396 122 A 3 3 0 0 1 399 125 L 399 264 A 0 0 0 0 1 399 264 L 329 264 A 0 0 0 0 1 329 264 L 329 125 A 3 3 0 0 1 332 122 Z" stroke="#ffffff" stroke-width="0" opacity="1" filter="none" class="highcharts-point highcharts-color-0" tabindex="-1" role="img" aria-label="jp, 27. 2020." style="outline: none;"></path><path fill="rgb(44,175,254)" d="M 768 175 L 832 175 A 3 3 0 0 1 835 178 L 835 264 A 0 0 0 0 1 835 264 L 765 264 A 0 0 0 0 1 765 264 L 765 178 A 3 3 0 0 1 768 175 Z" stroke="#ffffff" stroke-width="0" opacity="1" filter="none" class="highcharts-point highcharts-color-0" tabindex="-1" role="img" aria-label="au, 17. 2020." style="outline: none;"></path><path fill="#FE6A35" d="M 913 211 L 977 211 A 3 3 0 0 1 980 214 L 980 264 A 0 0 0 0 1 980 264 L 910 264 A 0 0 0 0 1 910 264 L 910 214 A 3 3 0 0 1 913 211 Z" stroke="#ffffff" stroke-width="0" opacity="1" filter="none" class="highcharts-point highcharts-color-0" tabindex="-1" role="img" aria-label="de, 10. 2020." style="outline: none;"></path><path fill="rgb(107,138,188)" d="M 622 159 L 686 159 A 3 3 0 0 1 689 162 L 689 264 A 0 0 0 0 1 689 264 L 619 264 A 0 0 0 0 1 619 264 L 619 162 A 3 3 0 0 1 622 159 Z" stroke="#ffffff" stroke-width="0" opacity="1" filter="none" class="highcharts-point highcharts-color-0" tabindex="-1" role="img" aria-label="ru, 20. 2020." style="outline: none;"></path><path fill="rgb(28,116,189)" d="M 186 64 L 250 64 A 3 3 0 0 1 253 67 L 253 264 A 0 0 0 0 1 253 264 L 183 264 A 0 0 0 0 1 183 264 L 183 67 A 3 3 0 0 1 186 64 Z" stroke="#ffffff" stroke-width="0" opacity="1" filter="none" class="highcharts-point highcharts-color-0" tabindex="-1" role="img" aria-label="cn, 38. 2020." style="outline: none;"></path><path fill="rgb(0,166,166)" d="M 477 148 L 541 148 A 3 3 0 0 1 544 151 L 544 264 A 0 0 0 0 1 544 264 L 474 264 A 0 0 0 0 1 474 264 L 474 151 A 3 3 0 0 1 477 148 Z" stroke="#ffffff" stroke-width="0" opacity="1" filter="none" class="highcharts-point highcharts-color-0" tabindex="-1" role="img" aria-label="gb, 22. 2020." style="outline: none;"></path><path fill="rgb(213,104,251)" d="M 41 59 L 105 59 A 3 3 0 0 1 108 62 L 108 264 A 0 0 0 0 1 108 264 L 38 264 A 0 0 0 0 1 38 264 L 38 62 A 3 3 0 0 1 41 59 Z" stroke="#ffffff" stroke-width="0" opacity="1" filter="none" class="highcharts-point highcharts-color-0" tabindex="-1" role="img" aria-label="us, 39. 2020." style="outline: none;"></path></g><g class="highcharts-markers highcharts-series-1 highcharts-column-series highcharts-color-0" data-z-index="0.1" opacity="1" transform="translate(63,61) scale(1 1)" clip-path="none" aria-hidden="true"></g></g><g class="highcharts-exporting-group" data-z-index="3" aria-hidden="true"><g class="highcharts-no-tooltip highcharts-button highcharts-contextbutton highcharts-button-normal" stroke-linecap="round" style="cursor: pointer;" transform="translate(762,10)"><title>Chart context menu</title><rect fill="#ffffff" class="highcharts-button-box" x="0.5" y="0.5" width="28" height="28" rx="2" ry="2" stroke="none" stroke-width="1"></rect><path fill="#666666" d="M 8 9.5 L 22 9.5 M 8 14.5 L 22 14.5 M 8 19.5 L 22 19.5" class="highcharts-button-symbol" data-z-index="1" stroke="#666666" stroke-width="3"></path><text x="0" data-z-index="1" y="18.5" style="color: rgb(51, 51, 51); font-size: 0.8em; font-weight: normal; fill: rgb(51, 51, 51);"></text></g></g><text x="10" text-anchor="start" class="highcharts-title" data-z-index="4" style="font-size: 1.2em; color: rgb(51, 51, 51); font-weight: bold; fill: rgb(51, 51, 51);" y="25" aria-hidden="true">Summer Olympics 2020 - Top 5 countries by Gold medals</text><text x="10" text-anchor="start" class="highcharts-subtitle" data-z-index="4" style="color: rgb(102, 102, 102); font-size: 0.8em; fill: rgb(102, 102, 102);" y="46" aria-hidden="true">Comparing to results from Summer Olympics 2016 - Source: <a href="https://olympics.com/en/olympic-games/tokyo-2020/medals" target="_blank"><tspan>Olympics</tspan></a></text><text x="10" text-anchor="start" class="highcharts-caption" data-z-index="4" style="color: rgb(102, 102, 102); font-size: 0.8em; fill: rgb(102, 102, 102);" y="397" aria-hidden="true"></text><g class="highcharts-data-labels highcharts-series-1 highcharts-column-series highcharts-color-0 highcharts-tracker" data-z-index="6" opacity="1" transform="translate(63,61) scale(1 1)" aria-hidden="true"><g class="highcharts-label highcharts-data-label highcharts-data-label-color-0" data-z-index="1" filter="none" transform="translate(1082,234)" opacity="0" visibility="hidden"><text x="5" data-z-index="1" y="20" style="color: rgb(0, 0, 0); font-size: 16px; font-weight: bold; fill: rgb(0, 0, 0);"><tspan class="highcharts-text-outline" fill="#FFFFFF" stroke="#FFFFFF" stroke-width="2px" stroke-linejoin="round" style="">6<tspan x="5" dy="0">​</tspan></tspan>6</text></g><g class="highcharts-label highcharts-data-label highcharts-data-label-color-0" data-z-index="1" filter="none" transform="translate(350,179)"><text x="5" data-z-index="1" y="20" style="color: rgb(255, 255, 255); font-size: 16px; font-weight: bold; fill: rgb(255, 255, 255);"><tspan class="highcharts-text-outline" fill="#000000" stroke="#000000" stroke-width="2px" stroke-linejoin="round" style="">27<tspan x="5" dy="0">​</tspan></tspan>27</text></g><g class="highcharts-label highcharts-data-label highcharts-data-label-color-0" data-z-index="1" filter="none" transform="translate(786,205)" opacity="0" visibility="hidden"><text x="5" data-z-index="1" y="20" style="color: rgb(0, 0, 0); font-size: 16px; font-weight: bold; fill: rgb(0, 0, 0);"><tspan class="highcharts-text-outline" fill="#FFFFFF" stroke="#FFFFFF" stroke-width="2px" stroke-linejoin="round">17<tspan x="5" dy="0">​</tspan></tspan>17</text></g><g class="highcharts-label highcharts-data-label highcharts-data-label-color-0" data-z-index="1" filter="none" transform="translate(931,223)" opacity="0" visibility="hidden"><text x="5" data-z-index="1" y="20" style="color: rgb(0, 0, 0); font-size: 16px; font-weight: bold; fill: rgb(0, 0, 0);"><tspan class="highcharts-text-outline" fill="#FFFFFF" stroke="#FFFFFF" stroke-width="2px" stroke-linejoin="round">10<tspan x="5" dy="0">​</tspan></tspan>10</text></g><g class="highcharts-label highcharts-data-label highcharts-data-label-color-0" data-z-index="1" filter="none" transform="translate(640,197)"><text x="5" data-z-index="1" y="20" style="color: rgb(0, 0, 0); font-size: 16px; font-weight: bold; fill: rgb(0, 0, 0);"><tspan class="highcharts-text-outline" fill="#FFFFFF" stroke="#FFFFFF" stroke-width="2px" stroke-linejoin="round">20<tspan x="5" dy="0">​</tspan></tspan>20</text></g><g class="highcharts-label highcharts-data-label highcharts-data-label-color-0" data-z-index="1" filter="none" transform="translate(204,150)"><text x="5" data-z-index="1" y="20" style="color: rgb(255, 255, 255); font-size: 16px; font-weight: bold; fill: rgb(255, 255, 255);"><tspan class="highcharts-text-outline" fill="#000000" stroke="#000000" stroke-width="2px" stroke-linejoin="round">38<tspan x="5" dy="0">​</tspan></tspan>38</text></g><g class="highcharts-label highcharts-data-label highcharts-data-label-color-0" data-z-index="1" filter="none" transform="translate(495,192)"><text x="5" data-z-index="1" y="20" style="color: rgb(0, 0, 0); font-size: 16px; font-weight: bold; fill: rgb(0, 0, 0);"><tspan class="highcharts-text-outline" fill="#FFFFFF" stroke="#FFFFFF" stroke-width="2px" stroke-linejoin="round">22<tspan x="5" dy="0">​</tspan></tspan>22</text></g><g class="highcharts-label highcharts-data-label highcharts-data-label-color-0" data-z-index="1" filter="none" transform="translate(59,147)"><text x="5" data-z-index="1" y="20" style="color: rgb(0, 0, 0); font-size: 16px; font-weight: bold; fill: rgb(0, 0, 0);"><tspan class="highcharts-text-outline" fill="#FFFFFF" stroke="#FFFFFF" stroke-width="2px" stroke-linejoin="round">39<tspan x="5" dy="0">​</tspan></tspan>39</text></g></g><g class="highcharts-axis-labels highcharts-xaxis-labels" data-z-index="7" aria-hidden="true"></g><g class="highcharts-axis-labels highcharts-yaxis-labels" data-z-index="7" aria-hidden="true"><text x="0" text-anchor="end" transform="translate(0,0)" style="color: rgb(51, 51, 51); cursor: default; font-size: 0.8em; fill: rgb(51, 51, 51);" visibility="hidden">0</text><text x="48" text-anchor="end" transform="translate(0,0)" style="color: rgb(51, 51, 51); cursor: default; font-size: 0.8em; fill: rgb(51, 51, 51);" y="277" opacity="1">10</text><text x="48" text-anchor="end" transform="translate(0,0)" style="color: rgb(51, 51, 51); cursor: default; font-size: 0.8em; fill: rgb(51, 51, 51);" y="224" opacity="1">20</text><text x="48" text-anchor="end" transform="translate(0,0)" style="color: rgb(51, 51, 51); cursor: default; font-size: 0.8em; fill: rgb(51, 51, 51);" y="171" opacity="1">30</text><text x="48" text-anchor="end" transform="translate(0,0)" style="color: rgb(51, 51, 51); cursor: default; font-size: 0.8em; fill: rgb(51, 51, 51);" y="119" opacity="1">40</text><text x="48" text-anchor="end" transform="translate(0,0)" style="color: rgb(51, 51, 51); cursor: default; font-size: 0.8em; fill: rgb(51, 51, 51);" y="66" opacity="1">50</text></g><text x="790" class="highcharts-credits" text-anchor="end" data-z-index="8" y="395" style="cursor: pointer; color: rgb(153, 153, 153); font-size: 0.6em; fill: rgb(153, 153, 153);" aria-label="Chart credits: Highcharts.com" aria-hidden="false">Highcharts.com</text><g class="highcharts-label highcharts-tooltip highcharts-color-undefined" data-z-index="8" filter="url(#highcharts-drop-shadow-0)" style="cursor: default; pointer-events: none;" transform="translate(557,193)" opacity="0" aria-hidden="true" visibility="hidden"><path fill="#ffffff" class="highcharts-label-box highcharts-tooltip-box" d="M 3 0 L 122 0 A 3 3 0 0 1 125 3 L 125 59 A 3 3 0 0 1 122 62 L 3 62 A 3 3 0 0 1 0 59 L 0 3 A 3 3 0 0 1 3 0 Z" stroke-width="0" stroke="rgba(158, 159, 163, 0.5)"></path><text x="8" data-z-index="1" y="22" style="color: rgb(51, 51, 51); font-size: 0.8em; fill: rgb(51, 51, 51);"><tspan style="font-size: 15px;">Russia</tspan><tspan class="highcharts-br" dy="15" x="8">​</tspan><tspan style="color: rgba(158, 159, 163, 0.5); fill: rgba(158, 159, 163, 0.5);">●</tspan> 2016: <tspan style="font-weight: bold;">19 medals</tspan><tspan class="highcharts-br" dy="15" x="8">​</tspan><tspan style="color: rgb(107, 138, 188); fill: rgb(107, 138, 188);">●</tspan> 2020: <tspan style="font-weight: bold;">20 medals</tspan><tspan class="highcharts-br">​</tspan></text></g></svg>