<svg viewBox="0,0,928,125" xmlns="http://www.w3.org/2000/svg" xmlns:xlink="http://www.w3.org/1999/xlink"><g transform="translate(0, 100)" fill="none" font-size="10" font-family="sans-serif" text-anchor="middle"><path class="domain" stroke="currentColor" d="M50.5,0.5H953.5"/><g class="tick" opacity="1" transform="translate(60.37077471887645, 0)"><line stroke="currentColor" y2="6"/><text fill="currentColor" y="9" dy="0.71em">:15</text></g><g class="tick" opacity="1" transform="translate(136.2531241207319, 0)"><line stroke="currentColor" y2="6"/><text fill="currentColor" y="9" dy="0.71em">:20</text></g><g class="tick" opacity="1" transform="translate(212.13547885706004, 0)"><line stroke="currentColor" y2="6"/><text fill="currentColor" y="9" dy="0.71em">:25</text></g><g class="tick" opacity="1" transform="translate(288.0178290035444, 0)"><line stroke="currentColor" y2="6"/><text fill="currentColor" y="9" dy="0.71em">:30</text></g><g class="tick" opacity="1" transform="translate(363.90018373987255, 0)"><line stroke="currentColor" y2="6"/><text fill="currentColor" y="9" dy="0.71em">:35</text></g><g class="tick" opacity="1" transform="translate(439.78253847620067, 0)"><line stroke="currentColor" y2="6"/><text fill="currentColor" y="9" dy="0.71em">:40</text></g><g class="tick" opacity="1" transform="translate(515.6648718746382, 0)"><line stroke="currentColor" y2="6"/><text fill="currentColor" y="9" dy="0.71em">:45</text></g><g class="tick" opacity="1" transform="translate(591.5472571285444, 0)"><line stroke="currentColor" y2="6"/><text fill="currentColor" y="9" dy="0.71em">:50</text></g><g class="tick" opacity="1" transform="translate(667.4295813472944, 0)"><line stroke="currentColor" y2="6"/><text fill="currentColor" y="9" dy="0.71em">:55</text></g><g class="tick" opacity="1" transform="translate(743.3119666012007, 0)"><line stroke="currentColor" y2="6"/><text fill="currentColor" y="9" dy="0.71em">11:37</text></g><g class="tick" opacity="1" transform="translate(819.1942908199507, 0)"><line stroke="currentColor" y2="6"/><text fill="currentColor" y="9" dy="0.71em">:05</text></g><g class="tick" opacity="1" transform="translate(895.0766577144819, 0)"><line stroke="currentColor" y2="6"/><text fill="currentColor" y="9" dy="0.71em">:10</text></g></g><linearGradient id="O-2" gradientUnits="userSpaceOnUse" x1="0" y1="100%" x2="0" y2="40%"><stop offset="0" stop-opacity="0" stop-color="rgb(255, 255, 255)"/><stop offset="0.1" stop-opacity="0.1" stop-color="rgb(240, 243, 254)"/><stop offset="0.2" stop-opacity="0.2" stop-color="rgb(226, 230, 252)"/><stop offset="0.3" stop-opacity="0.3" stop-color="rgb(211, 218, 251)"/><stop offset="0.4" stop-opacity="0.4" stop-color="rgb(197, 205, 250)"/><stop offset="0.5" stop-opacity="0.5" stop-color="rgb(182, 193, 249)"/><stop offset="0.6" stop-opacity="0.6" stop-color="rgb(167, 181, 247)"/><stop offset="0.7" stop-opacity="0.7" stop-color="rgb(153, 168, 246)"/><stop offset="0.8" stop-opacity="0.8" stop-color="rgb(138, 156, 245)"/><stop offset="0.9" stop-opacity="0.9" stop-color="rgb(124, 143, 243)"/><stop offset="1" stop-opacity="1" stop-color="rgb(109, 131, 242)"/></linearGradient><path stroke="#6D83F2" transform="translate(-5.305694176844989, 0)" d="M50,54.38912077231252L57.58823529411765,54.833216651830085L65.17647058823529,58.9168669013079L72.76470588235294,58.734983258018985L80.35294117647058,50.145233438507546L87.94117647058823,44.62145112392016L95.52941176470588,47.49218713445191L103.11764705882352,43.77868176820108L110.70588235294117,51.65978686999618L118.29411764705881,45.70852743416042L125.88235294117648,54.23859823932207L133.47058823529412,49.80478288778755L141.05882352941177,51.26628650267827L148.6470588235294,59.304620043923L156.23529411764704,63.68444664910701L163.8235294117647,55.80157518915866L171.41176470588235,52.36767338456714L179,49.88981315115862L186.58823529411762,45.95870747802446L194.17647058823528,46.14075983704945L201.76470588235296,52.66805398306154L209.3529411764706,46.0876886280132L216.94117647058823,37.60639212955371L224.52941176470588,34.01226852335974L232.11764705882354,42.183019923110606L239.70588235294116,40.088047771059976L247.2941176470588,33.01539433082526L254.88235294117646,30.50521324522902L262.4705882352941,35.674216173857474L270.05882352941177,43.97683947253347L277.6470588235294,46.669888459548865L285.2352941176471,54.25114781781582L292.8235294117647,58.60760801139387L300.4117647058824,55.11465864867057L308,60.99724406518456L315.5882352941177,63.00696533253602L323.17647058823525,68.76779190608022L330.7647058823529,75.59057754399456L338.35294117647055,77.40815643600158L345.94117647058823,73.71894941949897L353.5294117647059,73.54037323545708L361.11764705882354,81.48815352760874L368.7058823529412,77.08449948744894L376.2941176470588,73.69118391840908L383.88235294117646,76.8205511455794L391.4705882352941,68.46048392528458L399.05882352941177,61.72052806830232L406.6470588235294,65.84757021264987L414.2352941176471,58.30074505099957L421.8235294117647,56.99795270550753L429.4117647058823,49.50318093906967L436.99999999999994,44.307602040369886L444.5882352941176,48.357937994570456L452.1764705882353,44.535271965914866L459.7647058823529,51.38329062462542L467.3529411764706,52.55596482493093L474.94117647058823,47.69777891668224L482.52941176470586,52.58507876054201L490.1176470588235,47.76537310722587L497.70588235294116,43.39999812463139L505.29411764705884,36.41672617979487L512.8823529411765,36.84049437821146L520.4705882352941,41.25275193274938L528.0588235294118,36.245985636025594L535.6470588235294,34.131316890760495L543.235294117647,40.200359249454145L550.8235294117648,39.737466381586L558.4117647058823,37.20589554882173L566,32.65649469492483L573.5882352941177,30.64918911482603L581.1764705882354,31.37990267138874L588.7647058823529,37.30411986115161L596.3529411764706,33.32996744379019L603.9411764705882,41.37547744084683L611.5294117647059,34.60805301895242L619.1176470588234,33.69964938741815L626.7058823529411,35.52126767655979L634.2941176470588,41.79700419274176L641.8823529411765,34.704504889713526L649.4705882352941,34.66901245622646L657.0588235294118,40.24550589815713L664.6470588235295,32.5058065285024L672.2352941176471,39.06502917245199L679.8235294117648,32.568539644401824L687.4117647058824,35.17713083189513L695.0000000000001,30.376293426716472L702.5882352941176,33.6491816955728L710.1764705882352,42.2482841781712L717.7647058823529,34.36465365944761L725.3529411764706,35.55221082958788L732.9411764705882,36.77614164455939L740.5294117647059,39.56920802825676L748.1176470588235,42.32384919686025L755.7058823529412,36.34011361118597L763.2941176470588,39.784057581741266L770.8823529411766,38.68858224329606L778.4705882352941,46.03378585208324L786.0588235294118,51.2440024902188L793.6470588235294,56.163894245410994L801.2352941176471,61.31554353104613L808.8235294117646,65.54364366792774L816.4117647058823,67.98389860358023L823.9999999999999,60.48928875111707L831.5882352941177,64.51853451634305L839.1764705882352,55.81125841024912L846.7647058823529,56.38679769156077L854.3529411764706,52.118569133633194L861.9411764705883,57.77823869478315L869.5294117647059,56.88337901451786L877.1176470588235,65.20812385241564L884.7058823529412,60.012212043714854L892.2941176470589,57.416822541342434L899.8823529411765,59.07798569548092L907.470588235294,66.09866779517415L915.0588235294117,69.57012324524015L922.6470588235294,77.03228236252633L930.235294117647,81.363620811412L937.8235294117646,77.13414538671618L945.4117647058823,73.81705865067559L953,65.95079676510531L953,100L945.4117647058823,100L937.8235294117646,100L930.235294117647,100L922.6470588235294,100L915.0588235294117,100L907.470588235294,100L899.8823529411765,100L892.2941176470589,100L884.7058823529412,100L877.1176470588235,100L869.5294117647059,100L861.9411764705883,100L854.3529411764706,100L846.7647058823529,100L839.1764705882352,100L831.5882352941177,100L823.9999999999999,100L816.4117647058823,100L808.8235294117646,100L801.2352941176471,100L793.6470588235294,100L786.0588235294118,100L778.4705882352941,100L770.8823529411766,100L763.2941176470588,100L755.7058823529412,100L748.1176470588235,100L740.5294117647059,100L732.9411764705882,100L725.3529411764706,100L717.7647058823529,100L710.1764705882352,100L702.5882352941176,100L695.0000000000001,100L687.4117647058824,100L679.8235294117648,100L672.2352941176471,100L664.6470588235295,100L657.0588235294118,100L649.4705882352941,100L641.8823529411765,100L634.2941176470588,100L626.7058823529411,100L619.1176470588234,100L611.5294117647059,100L603.9411764705882,100L596.3529411764706,100L588.7647058823529,100L581.1764705882354,100L573.5882352941177,100L566,100L558.4117647058823,100L550.8235294117648,100L543.235294117647,100L535.6470588235294,100L528.0588235294118,100L520.4705882352941,100L512.8823529411765,100L505.29411764705884,100L497.70588235294116,100L490.1176470588235,100L482.52941176470586,100L474.94117647058823,100L467.3529411764706,100L459.7647058823529,100L452.1764705882353,100L444.5882352941176,100L436.99999999999994,100L429.4117647058823,100L421.8235294117647,100L414.2352941176471,100L406.6470588235294,100L399.05882352941177,100L391.4705882352941,100L383.88235294117646,100L376.2941176470588,100L368.7058823529412,100L361.11764705882354,100L353.5294117647059,100L345.94117647058823,100L338.35294117647055,100L330.7647058823529,100L323.17647058823525,100L315.5882352941177,100L308,100L300.4117647058824,100L292.8235294117647,100L285.2352941176471,100L277.6470588235294,100L270.05882352941177,100L262.4705882352941,100L254.88235294117646,100L247.2941176470588,100L239.70588235294116,100L232.11764705882354,100L224.52941176470588,100L216.94117647058823,100L209.3529411764706,100L201.76470588235296,100L194.17647058823528,100L186.58823529411762,100L179,100L171.41176470588235,100L163.8235294117647,100L156.23529411764704,100L148.6470588235294,100L141.05882352941177,100L133.47058823529412,100L125.88235294117648,100L118.29411764705881,100L110.70588235294117,100L103.11764705882352,100L95.52941176470588,100L87.94117647058823,100L80.35294117647058,100L72.76470588235294,100L65.17647058823529,100L57.58823529411765,100L50,100Z" style="fill: url(&quot;#O-2&quot;);"/><g transform="translate(50)" fill="none" font-size="10" font-family="sans-serif" text-anchor="end" style="fill: white;"><path class="domain" stroke="currentColor" d="M-25,100.5H0.5V13H-25" style="stroke: white;"/><g class="tick" opacity="1" transform="translate(0,100.5)"><line stroke="currentColor" x2="-10" x1="-5"/><text fill="currentColor" x="-9" dy="0.32em" dx="-5">0.0</text></g><g class="tick" opacity="1" transform="translate(0,56.75)"><line stroke="currentColor" x2="-10" x1="-5"/><text fill="currentColor" x="-9" dy="0.32em" dx="-5">0.5</text></g><g class="tick" opacity="1" transform="translate(0,13)"><line stroke="currentColor" x2="-10" x1="-5"/><text fill="currentColor" x="-9" dy="0.32em" dx="-5">1.0</text></g></g></svg>