<svg viewBox="-400 -400 800 800" width="800" height="800" style="width: 90%; height: auto; font: 10px sans-serif;" xmlns="http://www.w3.org/2000/svg" xmlns:xlink="http://www.w3.org/1999/xlink"><g><g fill="#155577ff"><path d="M0.5499977083361984,-110.41462765852592A110.41599747523043,110.41599747523043,0,0,1,39.37350647754048,-103.15725610015599L39.2232289850711,-102.76934517639332A110,110,0,0,0,0.5499977083361929,-109.99862500286459Z"/><path d="M46.39789778989379,-118.24425995574863A127.02153333905275,127.02153333905275,0,0,1,85.16659825347641,-94.23969691024604L73.69914126062976,-81.66049581924996A110,110,0,0,0,40.24894416359017,-102.37198099927636Z"/><path d="M74.73633956086965,-81.16547016929344A110.33292345786943,110.33292345786943,0,0,1,98.519600700275,-49.67134260938036L98.22157612790086,-49.52294400528884A110,110,0,0,0,74.51204768245252,-80.91943369900658Z"/><path d="M107.36091954406247,-52.844975325432735A119.66185048916905,119.66185048916905,0,0,1,119.0993881618184,-11.588537525191029L109.478642874557,-10.697044187307563A110,110,0,0,0,98.71188627629014,-48.538268487624904Z"/><path d="M134.9465496717623,-11.952285387444574A135.47482568468703,135.47482568468703,0,0,1,130.45260154575084,36.54513844879919L105.95001225890204,29.573550722537664A110,110,0,0,0,109.58013764707052,-9.601741157158962Z"/><path d="M109.3524251114258,31.68527430338712A113.85038201706165,113.85038201706165,0,0,1,91.18495368941677,68.17047532539138L88.11224539839743,65.85007373460253A110,110,0,0,0,105.64898422410988,30.63155452166575Z"/><path d="M110.60461912038735,84.21393653725836A139.01571449971883,139.01571449971883,0,0,1,73.6493879751878,117.90308108250436L58.37443155003266,93.23317940095443A110,110,0,0,0,87.44935006045222,66.72788902703641Z"/><path d="M59.55092238813069,97.22280662238538A114.01134366724615,114.01134366724615,0,0,1,21.489918611048694,111.96771803918044L20.752827256944364,108.02462756632595A110,110,0,0,0,57.43919659755373,93.81225236730847Z"/><path d="M20.065954650213797,110.3365689874216A112.14633739868852,112.14633739868852,0,0,1,-20.06595465021378,110.3365689874216L-19.671561352579825,108.22675119373993A110,110,0,0,0,19.671561352579836,108.22675119373993Z"/><path d="M-20.768138424027406,108.10653507577817A110.08332525723421,110.08332525723421,0,0,1,-57.48306224084616,93.883097813744L-57.43919659755372,93.81225236730847A110,110,0,0,0,-20.75282725694435,108.02462756632595Z"/><path d="M-58.85514109752478,94.00955197734247A110.9131349146268,110.9131349146268,0,0,1,-88.17805648697457,67.27818257630126L-87.44935006045222,66.72788902703641A110,110,0,0,0,-58.37443155003265,93.23317940095443Z"/><path d="M-88.8409518249198,66.40036728386737A110.9131349146268,110.9131349146268,0,0,1,-106.52727168885895,30.881448850697367L-105.64898422410988,30.63155452166575A110,110,0,0,0,-88.11224539839742,65.85007373460255Z"/><path d="M-189.92269266284995,53.46583823517449A197.30490375684332,197.30490375684332,0,0,1,-196.5132199024867,-17.65727753800406L-109.58013764707052,-9.601741157158937A110,110,0,0,0,-105.95001225890202,29.57355072253769Z"/><path d="M-110.14066034230036,-10.758389139744544A110.66484535533472,110.66484535533472,0,0,1,-99.30703882751094,-48.8346192452791L-98.71188627629017,-48.538268487624855A110,110,0,0,0,-109.478642874557,-10.697044187307515Z"/><path d="M-110.1140083547798,-55.44467162547385A123.28506173747549,123.28506173747549,0,0,1,-83.46223572186845,-90.73732228758135L-74.51204768245249,-80.9194336990066A110,110,0,0,0,-98.22157612790086,-49.52294400528886Z"/><path d="M-73.8113719282633,-81.78360699704814A110.16658749085421,110.16658749085421,0,0,1,-40.30912325745189,-102.52732114707567L-40.24894416359015,-102.37198099927637A110,110,0,0,0,-73.69914126062974,-81.66049581924996Z"/><path d="M-42.98946058552335,-112.491109595195A120.42567608027964,120.42567608027964,0,0,1,-0.5499977083362572,-120.4244201228026L-0.5499977083362064,-109.99862500286459A110,110,0,0,0,-39.223228985071096,-102.76934517639333Z"/></g><g fill="#009acdff"><path d="M0.5499977083362021,-110.99441201610578A110.99577467759853,110.99577467759853,0,0,1,39.58294874490188,-103.69788891264227L39.37350647754048,-103.15725610015599A110.41599747523043,110.41599747523043,0,0,0,0.5499977083361984,-110.41462765852592Z"/><path d="M51.32291870743921,-130.95720440459692A140.65500833641792,140.65500833641792,0,0,1,94.35148872316977,-104.31504180049664L85.16659825347641,-94.23969691024604A127.02153333905275,127.02153333905275,0,0,0,46.39789778989379,-118.24425995574863Z"/><path d="M75.18290505527293,-81.65532918144436A110.99577467759853,110.99577467759853,0,0,1,99.11296810816249,-49.96680447127461L98.519600700275,-49.67134260938036A110.33292345786943,110.33292345786943,0,0,0,74.73633956086965,-81.16547016929344Z"/><path d="M115.04237653598149,-56.66988642557758A128.24283382136565,128.24283382136565,0,0,1,127.64385074698086,-12.380298583510783L119.0993881618184,-11.588537525191029A119.66185048916905,119.66185048916905,0,0,0,107.36091954406247,-52.844975325432735Z"/><path d="M156.07164499370543,-13.909813747186266A156.69027184073244,156.69027184073244,0,0,1,150.85830708326435,42.35106224752977L130.45260154575084,36.54513844879919A135.47482568468703,135.47482568468703,0,0,0,134.9465496717623,-11.952285387444574Z"/><path d="M111.27220026239533,32.23149742793112A115.8463291506526,115.8463291506526,0,0,1,92.77777215277617,69.37331599432804L91.18495368941677,68.17047532539138A113.85038201706165,113.85038201706165,0,0,0,109.3524251114258,31.68527430338712Z"/><path d="M129.6999077010783,98.63402910794238A162.9439712162885,162.9439712162885,0,0,1,86.24607602233733,138.2474308133206L73.6493879751878,117.90308108250436A139.01571449971883,139.01571449971883,0,0,0,110.60461912038735,84.21393653725836Z"/><path d="M61.18000619062398,99.85386730235763A117.10588359566583,117.10588359566583,0,0,1,22.058545272373465,115.00960200430347L21.489918611048694,111.96771803918044A114.01134366724615,114.01134366724615,0,0,0,59.55092238813069,97.22280662238538Z"/><path d="M20.482413083469318,112.56442483102346A114.41275708268289,114.41275708268289,0,0,1,-20.482413083469304,112.56442483102346L-20.06595465021378,110.3365689874216A112.14633739868852,112.14633739868852,0,0,0,20.065954650213797,110.3365689874216Z"/><path d="M-20.81400254417976,108.35188644804921A110.33292345786943,110.33292345786943,0,0,1,-57.61446039773482,94.09531312365095L-57.48306224084616,93.883097813744A110.08332525723421,110.08332525723421,0,0,0,-20.768138424027406,108.10653507577817Z"/><path d="M-59.6762656708957,95.33571369784374A112.47290780761631,112.47290780761631,0,0,1,-89.42279721807198,68.21816714333606L-88.17805648697457,67.27818257630126A110.9131349146268,110.9131349146268,0,0,0,-58.85514109752478,94.00955197734247Z"/><path d="M-89.43273348180723,66.84726004685912A111.6546908723515,111.6546908723515,0,0,1,-107.24052793608749,31.084387749955933L-106.52727168885895,30.881448850697367A110.9131349146268,110.9131349146268,0,0,0,-88.8409518249198,66.40036728386737Z"/><path d="M-253.7137345310862,71.61595450769138A263.627585866423,263.627585866423,0,0,1,-262.5531731731622,-23.776780405718117L-196.5132199024867,-17.65727753800406A197.30490375684332,197.30490375684332,0,0,0,-189.92269266284995,53.46583823517449Z"/><path d="M-110.7166799907012,-10.811765220672438A111.2433256215863,111.2433256215863,0,0,1,-99.82487948882707,-49.09247325600362L-99.30703882751094,-48.8346192452791A110.66484535533472,110.66484535533472,0,0,0,-110.14066034230036,-10.758389139744544Z"/><path d="M-120.72262095346491,-60.72713302941511A135.13599037949234,135.13599037949234,0,0,1,-91.44622720352237,-99.49534374074001L-83.46223572186845,-90.73732228758135A123.28506173747549,123.28506173747549,0,0,0,-110.1140083547798,-55.44467162547385Z"/><path d="M-73.97940043749418,-81.96792549137119A110.41599747523043,110.41599747523043,0,0,1,-40.39922165605957,-102.75989192303902L-40.30912325745189,-102.52732114707567A110.16658749085421,110.16658749085421,0,0,0,-73.8113719282633,-81.78360699704814Z"/><path d="M-46.885764421173384,-122.54862915658185A131.21143781513558,131.21143781513558,0,0,1,-0.5499977083361954,-131.21028510004854L-0.5499977083362572,-120.4244201228026A120.42567608027964,120.42567608027964,0,0,0,-42.98946058552335,-112.491109595195Z"/></g><g fill="#654569ff"><path d="M0.5499977083362044,-111.7354285623464A111.73678218693426,111.73678218693426,0,0,1,39.85063479673808,-104.38886626354075L39.58294874490188,-103.69788891264227A110.99577467759853,110.99577467759853,0,0,0,0.5499977083362021,-110.99441201610578Z"/><path d="M56.285034714145034,-143.76590231636771A154.39119081609513,154.39119081609513,0,0,1,103.60555947384177,-114.46627384397614L94.35148872316977,-104.31504180049664A140.65500833641792,140.65500833641792,0,0,0,51.32291870743921,-130.95720440459692Z"/><path d="M75.18290505527293,-81.65532918144436A110.99577467759853,110.99577467759853,0,0,1,99.11296810816249,-49.96680447127461A110.99577467759853,110.99577467759853,0,0,0,75.18290505527293,-81.65532918144436Z"/><path d="M122.84191965891418,-60.553597432271744A136.9557424406759,136.9557424406759,0,0,1,136.3196663462049,-13.184231291058364L127.64385074698086,-12.380298583510783A128.24283382136565,128.24283382136565,0,0,0,115.04237653598149,-56.66988642557758Z"/><path d="M175.07538140248096,-15.670769255045823A175.77531732945062,175.77531732945062,0,0,1,169.2148940411086,47.57396154332163L150.85830708326435,42.35106224752977A156.69027184073244,156.69027184073244,0,0,0,156.07164499370543,-13.909813747186266Z"/><path d="M113.9799594423107,33.00192133878294A118.66152690119071,118.66152690119071,0,0,1,95.02437317473543,71.06987033385266L92.77777215277617,69.37331599432804A115.8463291506526,115.8463291506526,0,0,0,111.27220026239533,32.23149742793112Z"/><path d="M147.5588170662536,112.12045143505472A185.3229616749974,185.3229616749974,0,0,1,98.02715538046299,157.27452728273298L86.24607602233733,138.2474308133206A162.9439712162885,162.9439712162885,0,0,0,129.6999077010783,98.63402910794238Z"/><path d="M63.406857050113416,103.45035492785485A121.33591989049516,121.33591989049516,0,0,1,22.835820675616507,119.1676581533083L22.058545272373465,115.00960200430347A117.10588359566583,117.10588359566583,0,0,0,61.18000619062398,99.85386730235763Z"/><path d="M20.77490233592354,114.12910413209339A116.00452136473551,116.00452136473551,0,0,1,-20.774902335923528,114.12910413209339L-20.482413083469304,112.56442483102346A114.41275708268289,114.41275708268289,0,0,0,20.482413083469318,112.56442483102346Z"/><path d="M-20.81400254417976,108.35188644804921A110.33292345786943,110.33292345786943,0,0,1,-57.61446039773482,94.09531312365095A110.33292345786943,110.33292345786943,0,0,0,-20.81400254417976,108.35188644804921Z"/><path d="M-60.146489947892846,96.09515198093389A113.36612583700106,113.36612583700106,0,0,1,-90.13560904871332,68.7564576509601L-89.42279721807198,68.21816714333606A112.47290780761631,112.47290780761631,0,0,0,-59.6762656708957,95.33571369784374Z"/><path d="M-89.95548131450177,67.2420208857292A112.30974130199267,112.30974130199267,0,0,1,-107.87057983623534,31.263652971380335L-107.24052793608749,31.084387749955933A111.6546908723515,111.6546908723515,0,0,0,-89.43273348180723,66.84726004685912Z"/><path d="M-302.59456190010775,85.52374899201894A314.4483749889129,314.4483749889129,0,0,1,-313.1572620975901,-28.465939800211487L-262.5531731731622,-23.776780405718117A263.627585866423,263.627585866423,0,0,0,-253.7137345310862,71.61595450769138Z"/><path d="M-111.45290434673387,-10.879986453954574A111.98269505847966,111.98269505847966,0,0,1,-100.48674390345842,-49.42204257455581L-99.82487948882707,-49.09247325600362A111.2433256215863,111.2433256215863,0,0,0,-110.7166799907012,-10.811765220672438Z"/><path d="M-129.9662349993772,-65.32990591571254A145.4620873178616,145.4620873178616,0,0,1,-98.40292725414048,-107.12648017500402L-91.44622720352237,-99.49534374074001A135.13599037949234,135.13599037949234,0,0,0,-120.72262095346491,-60.72713302941511Z"/><path d="M-74.03532565825802,-82.02927253618549A110.4990090369145,110.4990090369145,0,0,1,-40.42920926266077,-102.83729885861499L-40.39922165605957,-102.75989192303902A110.41599747523043,110.41599747523043,0,0,0,-73.97940043749418,-81.96792549137119Z"/><path d="M-50.43830398243668,-131.7187908372728A141.04560386009166,141.04560386009166,0,0,1,-0.5499977083362129,-141.04453151674733L-0.5499977083361954,-131.21028510004854A131.21143781513558,131.21143781513558,0,0,0,-46.885764421173384,-122.54862915658185Z"/></g><g fill="#8b728eff"><path d="M0.549997708336202,-112.39000842393138A112.39135416485799,112.39135416485799,0,0,1,40.087096316589594,-104.9992438063961L39.85063479673808,-104.38886626354075A111.73678218693426,111.73678218693426,0,0,0,0.5499977083362044,-111.7354285623464Z"/><path d="M60.30245263423636,-154.13605336770237A165.51226160461803,165.51226160461803,0,0,1,111.09782076263492,-122.68489297085017L103.60555947384177,-114.46627384397614A154.39119081609513,154.39119081609513,0,0,0,56.285034714145034,-143.76590231636771Z"/><path d="M75.18290505527293,-81.65532918144436A110.99577467759853,110.99577467759853,0,0,1,99.11296810816249,-49.96680447127461A110.99577467759853,110.99577467759853,0,0,0,75.18290505527293,-81.65532918144436Z"/><path d="M130.0043414378663,-64.12005970564691A144.95692756591194,144.95692756591194,0,0,1,144.28678052438636,-13.922493140835229L136.3196663462049,-13.184231291058364A136.9557424406759,136.9557424406759,0,0,0,122.84191965891418,-60.553597432271744Z"/><path d="M192.01948190217925,-17.240871389639263A192.79193208289456,192.79193208289456,0,0,1,185.58198352049828,52.23080000203832L169.2148940411086,47.57396154332163A175.77531732945062,175.77531732945062,0,0,0,175.07538140248096,-15.670769255045823Z"/><path d="M116.40682542222295,33.69242424362978A121.18468738373105,121.18468738373105,0,0,1,97.03791988563586,72.59043022714178L95.02437317473543,71.06987033385266A118.66152690119071,118.66152690119071,0,0,0,113.9799594423107,33.00192133878294Z"/><path d="M161.76216043193654,122.84631846140935A203.1211818278182,203.1211818278182,0,0,1,107.39674855775473,172.4069398439401L98.02715538046299,157.27452728273298A185.3229616749974,185.3229616749974,0,0,0,147.5588170662536,112.12045143505472Z"/><path d="M65.71241079699224,107.17395208086289A125.71546021625088,125.71546021625088,0,0,1,23.64056707821779,123.47267116898396L22.835820675616507,119.1676581533083A121.33591989049516,121.33591989049516,0,0,0,63.406857050113416,103.45035492785485Z"/><path d="M21.319853012705742,117.04433276668591A118.97021461391958,118.97021461391958,0,0,1,-21.319853012705728,117.04433276668591L-20.774902335923528,114.12910413209339A116.00452136473551,116.00452136473551,0,0,0,20.77490233592354,114.12910413209339Z"/><path d="M-20.844521067857663,108.5151461298917A110.4990090369145,110.4990090369145,0,0,1,-57.70189427303684,94.23652368080748L-57.61446039773482,94.09531312365095A110.33292345786943,110.33292345786943,0,0,0,-20.81400254417976,108.35188644804921Z"/><path d="M-60.52848069802794,96.71208822525439A114.09173933506725,114.09173933506725,0,0,1,-90.7146678919332,69.1937425910551L-90.13560904871332,68.7564576509601A113.36612583700106,113.36612583700106,0,0,0,-60.146489947892846,96.09515198093389Z"/><path d="M-90.41039718613303,67.585557405383A112.8797922090161,112.8797922090161,0,0,1,-108.41887595800262,31.41965666830073L-107.87057983623534,31.263652971380335A112.30974130199267,112.30974130199267,0,0,0,-89.95548131450177,67.2420208857292Z"/><path d="M-345.0011179795265,97.58945447380553A358.53796595565456,358.53796595565456,0,0,1,-357.05883353829057,-32.53401948566173L-313.1572620975901,-28.465939800211487A314.4483749889129,314.4483749889129,0,0,0,-302.59456190010775,85.52374899201894Z"/><path d="M-111.94103179647465,-10.925218123278391A112.47290780761631,112.47290780761631,0,0,1,-100.92556963116071,-49.64055182334588L-100.48674390345842,-49.42204257455581A111.98269505847966,111.98269505847966,0,0,0,-111.45290434673387,-10.879986453954574Z"/><path d="M-139.17670083085795,-69.91617295247356A155.75116466493063,155.75116466493063,0,0,1,-105.33468011593521,-114.73025084674023L-98.40292725414048,-107.12648017500402A145.4620873178616,145.4620873178616,0,0,0,-129.9662349993772,-65.32990591571254Z"/><path d="M-74.1470502454314,-82.15182857016403A110.66484535533472,110.66484535533472,0,0,1,-40.489116991625906,-102.99193853287052L-40.42920926266077,-102.83729885861499A110.4990090369145,110.4990090369145,0,0,0,-74.03532565825802,-82.02927253618549Z"/><path d="M-53.44925011872171,-139.4909387346959A149.38053530276412,149.38053530276412,0,0,1,-0.5499977083361838,-149.3795227929892L-0.5499977083362129,-141.04453151674733A141.04560386009166,141.04560386009166,0,0,0,-50.43830398243668,-131.7187908372728Z"/></g><g fill="#00ad81ff"><path d="M0.5499977083361993,-112.79719186212685A112.79853274515867,112.79853274515867,0,0,1,40.23418794024715,-105.37893105478676L40.087096316589594,-104.9992438063961A112.39135416485799,112.39135416485799,0,0,0,0.549997708336202,-112.39000842393138Z"/><path d="M64.16048969181031,-164.0947949884344A176.19213994894668,176.19213994894668,0,0,1,118.2928455950361,-130.5774592371063L111.09782076263492,-122.68489297085017A165.51226160461803,165.51226160461803,0,0,0,60.30245263423636,-154.13605336770237Z"/><path d="M75.40519068861383,-81.89916490571859A111.32572027631485,111.32572027631485,0,0,1,99.4083269115612,-50.1138756801395L99.11296810816249,-49.96680447127461A110.99577467759853,110.99577467759853,0,0,0,75.18290505527293,-81.65532918144436Z"/><path d="M136.89915655115632,-67.55326969276437A152.65917368635718,152.65917368635718,0,0,1,151.95622264052346,-14.63317161195868L144.28678052438636,-13.922493140835229A144.95692756591194,144.95692756591194,0,0,0,130.0043414378663,-64.12005970564691Z"/><path d="M207.97864097645945,-18.719705260418642A208.8194015589834,208.8194015589834,0,0,1,200.99767257340542,56.6169417005728L185.58198352049828,52.23080000203832A192.79193208289456,192.79193208289456,0,0,0,192.01948190217925,-17.240871389639263Z"/><path d="M118.71283895215161,34.348541661819226A123.58220117141957,123.58220117141957,0,0,1,98.95119651356387,74.03526966863348L97.03791988563586,72.59043022714178A121.18468738373105,121.18468738373105,0,0,0,116.40682542222295,33.69242424362978Z"/><path d="M176.44353174109054,133.93317543390162A221.51843123107724,221.51843123107724,0,0,1,117.08168490759297,188.04864911579827L107.39674855775473,172.4069398439401A203.1211818278182,203.1211818278182,0,0,0,161.76216043193654,122.84631846140935Z"/><path d="M67.67978631881392,110.3513726471239A129.45261264750403,129.45261264750403,0,0,1,24.327273417592938,127.14622561967931L23.64056707821779,123.47267116898396A125.71546021625088,125.71546021625088,0,0,0,65.71241079699224,107.17395208086289Z"/><path d="M21.629229127284077,118.6993488011705A120.65388082636419,120.65388082636419,0,0,1,-21.629229127284066,118.69934880117052L-21.319853012705728,117.04433276668591A118.97021461391958,118.97021461391958,0,0,0,21.319853012705742,117.04433276668591Z"/><path d="M-20.859763140601586,108.59668401727619A110.58195828357414,110.58195828357414,0,0,1,-57.74556196488524,94.30704942468368L-57.70189427303684,94.23652368080748A110.4990090369145,110.4990090369145,0,0,0,-20.844521067857663,108.5151461298917Z"/><path d="M-60.99208434209198,97.46083381901815A114.97238138392687,114.97238138392687,0,0,1,-91.4174435213151,69.72445411129654L-90.7146678919332,69.1937425910551A114.09173933506725,114.09173933506725,0,0,0,-60.52848069802794,96.71208822525439Z"/><path d="M-90.86302716107757,67.92736769598882A113.44697874769862,113.44697874769862,0,0,1,-108.96441695873277,31.574876465699976L-108.41887595800262,31.41965666830073A112.8797922090161,112.8797922090161,0,0,0,-90.41039718613303,67.585557405383Z"/><path d="M-381.7811948718791,108.05428860345015A396.7777842110082,396.7777842110082,0,0,1,-395.1355679531313,-36.0623485335302L-357.05883353829057,-32.53401948566173A358.53796595565456,358.53796595565456,0,0,0,-345.0011179795265,97.58945447380553Z"/><path d="M-112.2652715409711,-10.955263360260014A112.79853274515867,112.79853274515867,0,0,1,-101.21706059710459,-49.785697078003125L-100.92556963116071,-49.64055182334588A112.47290780761631,112.47290780761631,0,0,0,-111.94103179647465,-10.925218123278391Z"/><path d="M-147.26842793368675,-73.9453742937703A164.79049804374424,164.79049804374424,0,0,1,-111.42447552130817,-121.41043818513576L-105.33468011593521,-114.73025084674023A155.75116466493063,155.75116466493063,0,0,0,-139.17670083085795,-69.91617295247356Z"/><path d="M-74.2586076544192,-82.2742012184088A110.83043353204113,110.83043353204113,0,0,1,-40.54893507814362,-103.14634681329572L-40.489116991625906,-102.99193853287052A110.66484535533472,110.66484535533472,0,0,0,-74.1470502454314,-82.15182857016403Z"/><path d="M-56.80408135341424,-148.1507563955647A158.66742034514604,158.66742034514604,0,0,1,-0.549997708336262,-158.6664670984518L-0.5499977083361838,-149.3795227929892A149.38053530276412,149.38053530276412,0,0,0,-53.44925011872171,-139.4909387346959Z"/></g><g fill="#369176ff"><path d="M0.5499977083361993,-112.79719186212685A112.79853274515867,112.79853274515867,0,0,1,40.23418794024715,-105.37893105478676A112.79853274515867,112.79853274515867,0,0,0,0.5499977083361993,-112.79719186212685Z"/><path d="M64.31070874291704,-164.4825550576506A176.60797880421305,176.60797880421305,0,0,1,118.57299578200511,-130.88476935300747L118.2928455950361,-130.5774592371063A176.19213994894668,176.19213994894668,0,0,0,64.16048969181031,-164.0947949884344Z"/><path d="M75.40519068861383,-81.89916490571859A111.32572027631485,111.32572027631485,0,0,1,99.4083269115612,-50.1138756801395A111.32572027631485,111.32572027631485,0,0,0,75.40519068861383,-81.89916490571859Z"/><path d="M136.89915655115632,-67.55326969276437A152.65917368635718,152.65917368635718,0,0,1,151.95622264052346,-14.63317161195868A152.65917368635718,152.65917368635718,0,0,0,136.89915655115632,-67.55326969276437Z"/><path d="M209.41652141302424,-18.85294450453082A210.26343704320675,210.26343704320675,0,0,1,202.38658771625055,57.01212213025395L200.99767257340542,56.6169417005728A208.8194015589834,208.8194015589834,0,0,0,207.97864097645945,-18.719705260418642Z"/><path d="M118.71283895215161,34.348541661819226A123.58220117141957,123.58220117141957,0,0,1,98.95119651356387,74.03526966863348A123.58220117141957,123.58220117141957,0,0,0,118.71283895215161,34.348541661819226Z"/><path d="M177.3988841162444,134.6546240587353A222.7155851441206,222.7155851441206,0,0,1,117.71190716341609,189.06649300719405L117.08168490759297,188.04864911579827A221.51843123107724,221.51843123107724,0,0,0,176.44353174109054,133.93317543390162Z"/><path d="M67.67978631881392,110.3513726471239A129.45261264750403,129.45261264750403,0,0,1,24.327273417592938,127.14622561967931A129.45261264750403,129.45261264750403,0,0,0,67.67978631881392,110.3513726471239Z"/><path d="M21.629229127284077,118.6993488011705A120.65388082636419,120.65388082636419,0,0,1,-21.629229127284066,118.69934880117052A120.65388082636419,120.65388082636419,0,0,0,21.629229127284077,118.6993488011705Z"/><path d="M-20.859763140601586,108.59668401727619A110.58195828357414,110.58195828357414,0,0,1,-57.74556196488524,94.30704942468368A110.58195828357414,110.58195828357414,0,0,0,-20.859763140601586,108.59668401727619Z"/><path d="M-60.99208434209198,97.46083381901815A114.97238138392687,114.97238138392687,0,0,1,-91.4174435213151,69.72445411129654A114.97238138392687,114.97238138392687,0,0,0,-60.99208434209198,97.46083381901815Z"/><path d="M-90.86302716107757,67.92736769598882A113.44697874769862,113.44697874769862,0,0,1,-108.96441695873277,31.574876465699976A113.44697874769862,113.44697874769862,0,0,0,-90.86302716107757,67.92736769598882Z"/><path d="M-384.8804075990612,108.93609065126446A400,400,0,0,1,-398.3440413952448,-36.359657381547144L-395.1355679531313,-36.0623485335302A396.7777842110082,396.7777842110082,0,0,0,-381.7811948718791,108.05428860345015Z"/><path d="M-112.2652715409711,-10.955263360260014A112.79853274515867,112.79853274515867,0,0,1,-101.21706059710459,-49.785697078003125A112.79853274515867,112.79853274515867,0,0,0,-112.2652715409711,-10.955263360260014Z"/><path d="M-147.566978785548,-74.09403495390846A165.12401171133587,165.12401171133587,0,0,1,-111.64916347516896,-121.6569091294875L-111.42447552130817,-121.41043818513576A164.79049804374424,164.79049804374424,0,0,0,-147.26842793368675,-73.9453742937703Z"/><path d="M-74.2586076544192,-82.2742012184088A110.83043353204113,110.83043353204113,0,0,1,-40.54893507814362,-103.14634681329572A110.83043353204113,110.83043353204113,0,0,0,-74.2586076544192,-82.2742012184088Z"/><path d="M-56.866675060407125,-148.31232937833386A158.84069307974363,158.84069307974363,0,0,1,-0.5499977083362747,-158.83974087291298L-0.549997708336262,-158.6664670984518A158.66742034514604,158.66742034514604,0,0,0,-56.80408135341424,-148.1507563955647Z"/></g></g><g text-anchor="middle"><g transform="&#10;          rotate(-79.41176470588235)&#10;          translate(110,0)&#10;        "><line x2="-5" stroke="#000"/><text transform="rotate(90)translate(0,-270)">CARTE SON</text></g><g transform="&#10;          rotate(-58.23529411764706)&#10;          translate(110,0)&#10;        "><line x2="-5" stroke="#000"/><text transform="rotate(90)translate(0,-270)">SOURIS</text></g><g transform="&#10;          rotate(-37.05882352941176)&#10;          translate(110,0)&#10;        "><line x2="-5" stroke="#000"/><text transform="rotate(90)translate(0,-270)">ACCESSOIRES</text></g><g transform="&#10;          rotate(-15.882352941176478)&#10;          translate(110,0)&#10;        "><line x2="-5" stroke="#000"/><text transform="rotate(90)translate(0,-270)">CPU</text></g><g transform="&#10;          rotate(5.294117647058812)&#10;          translate(110,0)&#10;        "><line x2="-5" stroke="#000"/><text transform="rotate(-90)translate(0,270)">ORDINATEUR</text></g><g transform="&#10;          rotate(26.470588235294116)&#10;          translate(110,0)&#10;        "><line x2="-5" stroke="#000"/><text transform="rotate(-90)translate(0,270)">EDITIQUE</text></g><g transform="&#10;          rotate(47.64705882352939)&#10;          translate(110,0)&#10;        "><line x2="-5" stroke="#000"/><text transform="rotate(-90)translate(0,270)">DISQUE DUR INTERNE</text></g><g transform="&#10;          rotate(68.82352941176472)&#10;          translate(110,0)&#10;        "><line x2="-5" stroke="#000"/><text transform="rotate(-90)translate(0,270)">SERVEURS</text></g><g transform="&#10;          rotate(90)&#10;          translate(110,0)&#10;        "><line x2="-5" stroke="#000"/><text transform="rotate(-90)translate(0,270)">CARTE RESEAU SANS FIL</text></g><g transform="&#10;          rotate(111.17647058823528)&#10;          translate(110,0)&#10;        "><line x2="-5" stroke="#000"/><text transform="rotate(-90)translate(0,270)">CASQUE</text></g><g transform="&#10;          rotate(132.3529411764706)&#10;          translate(110,0)&#10;        "><line x2="-5" stroke="#000"/><text transform="rotate(-90)translate(0,270)">SOFTWARE</text></g><g transform="&#10;          rotate(153.52941176470588)&#10;          translate(110,0)&#10;        "><line x2="-5" stroke="#000"/><text transform="rotate(-90)translate(0,270)">TELEPHONIE</text></g><g transform="&#10;          rotate(174.70588235294116)&#10;          translate(110,0)&#10;        "><line x2="-5" stroke="#000"/><text transform="rotate(-90)translate(0,270)">MEMORY</text></g><g transform="&#10;          rotate(195.88235294117646)&#10;          translate(110,0)&#10;        "><line x2="-5" stroke="#000"/><text transform="rotate(90)translate(0,-270)">OS</text></g><g transform="&#10;          rotate(217.05882352941182)&#10;          translate(110,0)&#10;        "><line x2="-5" stroke="#000"/><text transform="rotate(90)translate(0,-270)">CLAVIER</text></g><g transform="&#10;          rotate(238.23529411764707)&#10;          translate(110,0)&#10;        "><line x2="-5" stroke="#000"/><text transform="rotate(90)translate(0,-270)">WEBCAM</text></g><g transform="&#10;          rotate(259.4117647058824)&#10;          translate(110,0)&#10;        "><line x2="-5" stroke="#000"/><text transform="rotate(90)translate(0,-270)">CARTE VIDEO</text></g></g><g text-anchor="middle"><text y="-398.50721137784797" dy="-1em">INVENTAIRE</text><g fill="none"><circle stroke="#000" stroke-opacity="0.5" r="220.85515475088465"/><text y="-220.85515475088465" dy="0.35em" stroke="#fff" stroke-width="5">2k</text><text y="-220.85515475088465" dy="0.35em" stroke="none" stroke-width="5" fill="#000">2k</text></g><g fill="none"><circle stroke="#000" stroke-opacity="0.5" r="292.32515930052"/><text y="-292.32515930052" dy="0.35em" stroke="#fff" stroke-width="5">4k</text><text y="-292.32515930052" dy="0.35em" stroke="none" stroke-width="5" fill="#000">4k</text></g><g fill="none"><circle stroke="#000" stroke-opacity="0.5" r="349.4724569120027"/><text y="-349.4724569120027" dy="0.35em" stroke="#fff" stroke-width="5">6k</text><text y="-349.4724569120027" dy="0.35em" stroke="none" stroke-width="5" fill="#000">6k</text></g><g fill="none"><circle stroke="#000" stroke-opacity="0.5" r="398.50721137784797"/><text y="-398.50721137784797" dy="0.35em" stroke="#fff" stroke-width="5">8k</text><text y="-398.50721137784797" dy="0.35em" stroke="none" stroke-width="5" fill="#000">8k</text></g></g><g><g><g transform="translate(-40,-60)"><rect width="18" height="18" fill="#369176ff"/><text x="24" y="9" dy="0.35em">ENTREPOT6</text></g><g transform="translate(-40,-40)"><rect width="18" height="18" fill="#00ad81ff"/><text x="24" y="9" dy="0.35em">ENTREPOT5</text></g><g transform="translate(-40,-20)"><rect width="18" height="18" fill="#8b728eff"/><text x="24" y="9" dy="0.35em">ENTREPOT4</text></g><g transform="translate(-40,0)"><rect width="18" height="18" fill="#654569ff"/><text x="24" y="9" dy="0.35em">ENTREPOT3</text></g><g transform="translate(-40,20)"><rect width="18" height="18" fill="#009acdff"/><text x="24" y="9" dy="0.35em">ENTREPOT2</text></g><g transform="translate(-40,40)"><rect width="18" height="18" fill="#155577ff"/><text x="24" y="9" dy="0.35em">ENTREPOT1</text></g></g></g></svg>