<svg xmlns="http://www.w3.org/2000/svg" xmlns:xlink="http://www.w3.org/1999/xlink" version="1.1" width="1500" height="800">
  <g fill="none" fill-rule="nonzero" stroke="none" stroke-width="none" stroke-linecap="butt" stroke-linejoin="miter" stroke-miterlimit="10" stroke-dasharray="" stroke-dashoffset="0" font-family="sans-serif" font-weight="normal" font-size="11px" text-anchor="start" style="mix-blend-mode: normal">
    <g fill="#ffffff" stroke="none" stroke-width="1"/>
    <g>
      <rect x="0" y="0" width="1300" height="600" fill="#272727" stroke="none" stroke-width="1"/>
      <g>
        <path d="M370,172.88889c18.10892,0.27668 28.63761,-0.35955 46.4,0c18.10892,0.27668 28.63761,-0.35955 46.4,0c18.10892,0.27668 28.63761,-0.35955 46.4,0c18.10892,0.27668 28.63761,-0.35955 46.4,0c18.10892,0.27668 28.63761,-0.35955 46.4,0c18.10892,0.27668 28.63761,-0.35955 46.4,0c18.10892,0.27668 28.63761,-40.24844 46.4,-39.88889c18.10892,0.27668 28.63761,-0.35955 46.4,0c18.10892,0.27668 28.63761,-0.35955 46.4,0c18.10892,0.27668 28.63761,-0.35955 46.4,0c18.10892,0.27668 28.63761,-0.35955 46.4,0c18.10892,0.27668 28.63761,-0.35955 46.4,0c18.10892,0.27668 28.63761,-0.35955 46.4,0c18.10892,0.27668 28.63761,-0.35955 46.4,0c18.10892,0.27668 28.63761,-0.35955 46.4,0" fill="none" stroke="#ffffff" stroke-width="1.5"/>
        <circle cx="370" cy="172.88889" r="4" data-paper-data="{&quot;type&quot;:&quot;Ellipse&quot;}" fill="#ffffff" stroke="none" stroke-width="1"/>
        <circle cx="416.4" cy="172.88889" r="4" data-paper-data="{&quot;type&quot;:&quot;Ellipse&quot;}" fill="#ffffff" stroke="none" stroke-width="1"/>
        <circle cx="462.8" cy="172.88889" r="4" data-paper-data="{&quot;type&quot;:&quot;Ellipse&quot;}" fill="#ffffff" stroke="none" stroke-width="1"/>
        <circle cx="509.2" cy="172.88889" transform="" r="4" data-paper-data="{&quot;type&quot;:&quot;Ellipse&quot;}" fill="#ffffff" stroke="none" stroke-width="1"/>
        <circle cx="555.6" cy="172.88889" r="4" data-paper-data="{&quot;type&quot;:&quot;Ellipse&quot;}" fill="#ffffff" stroke="none" stroke-width="1"/>
        <circle cx="602" cy="172.88889" r="4" data-paper-data="{&quot;type&quot;:&quot;Ellipse&quot;}" fill="#ffffff" stroke="none" stroke-width="1"/>
        <circle cx="648.4" cy="172.88889" r="4" data-paper-data="{&quot;type&quot;:&quot;Ellipse&quot;}" fill="#ffffff" stroke="none" stroke-width="1"/>
        <circle cx="694.8" cy="133" r="4" data-paper-data="{&quot;type&quot;:&quot;Ellipse&quot;}" fill="#ffffff" stroke="none" stroke-width="1"/>
        <circle cx="741.2" cy="133" r="4" data-paper-data="{&quot;type&quot;:&quot;Ellipse&quot;}" fill="#ffffff" stroke="none" stroke-width="1"/>
        <circle cx="787.6" cy="133" r="4" data-paper-data="{&quot;type&quot;:&quot;Ellipse&quot;}" fill="#ffffff" stroke="none" stroke-width="1"/>
        <circle cx="834" cy="133" r="4" data-paper-data="{&quot;type&quot;:&quot;Ellipse&quot;}" fill="#ffffff" stroke="none" stroke-width="1"/>
        <circle cx="880.4" cy="133" r="4" data-paper-data="{&quot;type&quot;:&quot;Ellipse&quot;}" fill="#ffffff" stroke="none" stroke-width="1"/>
        <circle cx="926.8" cy="133" r="4" data-paper-data="{&quot;type&quot;:&quot;Ellipse&quot;}" fill="#ffffff" stroke="none" stroke-width="1"/>
        <circle cx="973.2" cy="133" r="4" data-paper-data="{&quot;type&quot;:&quot;Ellipse&quot;}" fill="#ffffff" stroke="none" stroke-width="1"/>
        <circle cx="1019.6" cy="133" r="4" data-paper-data="{&quot;type&quot;:&quot;Ellipse&quot;}" fill="#ffffff" stroke="none" stroke-width="1"/>
        <circle cx="1066" cy="133" r="4" data-paper-data="{&quot;type&quot;:&quot;Ellipse&quot;}" fill="#ffffff" stroke="none" stroke-width="1"/>
      </g>
      <g>
        <path d="M370,252.66667c18.10892,0.27668 28.63761,-0.35955 46.4,0c18.10892,0.27668 28.63761,79.41823 46.4,79.77778c18.10892,0.27668 28.63761,-80.13733 46.4,-79.77778c18.10892,0.27668 28.63761,79.41823 46.4,79.77778c18.10892,0.27668 28.63761,-0.35955 46.4,0c18.10892,0.27668 28.63761,-0.35955 46.4,0c18.10892,0.27668 28.63761,-80.13733 46.4,-79.77778c18.10892,0.27668 28.63761,79.41823 46.4,79.77778c18.10892,0.27668 28.63761,-0.35955 46.4,0c18.10892,0.27668 28.63761,-40.24844 46.4,-39.88889c18.10892,0.27668 28.63761,-0.35955 46.4,0c18.10892,0.27668 28.63761,-0.35955 46.4,0c18.10892,0.27668 28.63761,-0.35955 46.4,0c18.10892,0.27668 28.63761,-0.35955 46.4,0c18.10892,0.27668 28.63761,-0.35955 46.4,0" fill="none" stroke="#da2225" stroke-width="1.5"/>
        <circle cx="370" cy="252.66667" r="4" data-paper-data="{&quot;type&quot;:&quot;Ellipse&quot;}" fill="#da2225" stroke="none" stroke-width="1"/>
        <circle cx="416.4" cy="252.66667" r="4" data-paper-data="{&quot;type&quot;:&quot;Ellipse&quot;}" fill="#da2225" stroke="none" stroke-width="1"/>
        <circle cx="462.8" cy="332.44444" r="4" data-paper-data="{&quot;type&quot;:&quot;Ellipse&quot;}" fill="#da2225" stroke="none" stroke-width="1"/>
        <circle cx="509.2" cy="252.66667" transform="" r="4" data-paper-data="{&quot;type&quot;:&quot;Ellipse&quot;}" fill="#da2225" stroke="none" stroke-width="1"/>
        <circle cx="555.6" cy="332.44444" r="4" data-paper-data="{&quot;type&quot;:&quot;Ellipse&quot;}" fill="#da2225" stroke="none" stroke-width="1"/>
        <circle cx="602" cy="332.44444" r="4" data-paper-data="{&quot;type&quot;:&quot;Ellipse&quot;}" fill="#da2225" stroke="none" stroke-width="1"/>
        <circle cx="648.4" cy="332.44444" r="4" data-paper-data="{&quot;type&quot;:&quot;Ellipse&quot;}" fill="#da2225" stroke="none" stroke-width="1"/>
        <circle cx="694.8" cy="252.66667" r="4" data-paper-data="{&quot;type&quot;:&quot;Ellipse&quot;}" fill="#da2225" stroke="none" stroke-width="1"/>
        <circle cx="741.2" cy="332.44444" r="4" data-paper-data="{&quot;type&quot;:&quot;Ellipse&quot;}" fill="#da2225" stroke="none" stroke-width="1"/>
        <circle cx="787.6" cy="332.44444" r="4" data-paper-data="{&quot;type&quot;:&quot;Ellipse&quot;}" fill="#da2225" stroke="none" stroke-width="1"/>
        <circle cx="834" cy="292.55556" r="4" data-paper-data="{&quot;type&quot;:&quot;Ellipse&quot;}" fill="#da2225" stroke="none" stroke-width="1"/>
        <circle cx="880.4" cy="292.55556" r="4" data-paper-data="{&quot;type&quot;:&quot;Ellipse&quot;}" fill="#da2225" stroke="none" stroke-width="1"/>
        <circle cx="926.8" cy="292.55556" r="4" data-paper-data="{&quot;type&quot;:&quot;Ellipse&quot;}" fill="#da2225" stroke="none" stroke-width="1"/>
        <circle cx="973.2" cy="292.55556" r="4" data-paper-data="{&quot;type&quot;:&quot;Ellipse&quot;}" fill="#da2225" stroke="none" stroke-width="1"/>
        <circle cx="1019.6" cy="292.55556" r="4" data-paper-data="{&quot;type&quot;:&quot;Ellipse&quot;}" fill="#da2225" stroke="none" stroke-width="1"/>
        <circle cx="1066" cy="292.55556" r="4" data-paper-data="{&quot;type&quot;:&quot;Ellipse&quot;}" fill="#da2225" stroke="none" stroke-width="1"/>
      </g>
      <g>
        <path d="M370,492c18.10892,0.27668 28.63761,-40.24844 46.4,-39.88889c18.10892,0.27668 28.63761,39.52934 46.4,39.88889c18.10892,0.27668 28.63761,-0.35955 46.4,0c18.10892,0.27668 28.63761,-0.35955 46.4,0c18.10892,0.27668 28.63761,-40.24844 46.4,-39.88889c18.10892,0.27668 28.63761,-0.35955 46.4,0c18.10892,0.27668 28.63761,-40.24844 46.4,-39.88889c18.10892,0.27668 28.63761,39.52934 46.4,39.88889c18.10892,0.27668 28.63761,-0.35955 46.4,0c18.10892,0.27668 28.63761,-0.35955 46.4,0c18.10892,0.27668 28.63761,-40.24844 46.4,-39.88889c18.10892,0.27668 28.63761,-0.35955 46.4,0c18.10892,0.27668 28.63761,-0.35955 46.4,0c18.10892,0.27668 28.63761,-0.35955 46.4,0c18.10892,0.27668 28.63761,-0.35955 46.4,0" fill="none" stroke="#e1c41f" stroke-width="1.5"/>
        <circle cx="370" cy="492" r="4" data-paper-data="{&quot;type&quot;:&quot;Ellipse&quot;}" fill="#e1c41f" stroke="none" stroke-width="1"/>
        <circle cx="416.4" cy="452.11111" r="4" data-paper-data="{&quot;type&quot;:&quot;Ellipse&quot;}" fill="#e1c41f" stroke="none" stroke-width="1"/>
        <circle cx="462.8" cy="492" r="4" data-paper-data="{&quot;type&quot;:&quot;Ellipse&quot;}" fill="#e1c41f" stroke="none" stroke-width="1"/>
        <circle cx="509.2" cy="492" transform="" r="4" data-paper-data="{&quot;type&quot;:&quot;Ellipse&quot;}" fill="#e1c41f" stroke="none" stroke-width="1"/>
        <circle cx="555.6" cy="492" r="4" data-paper-data="{&quot;type&quot;:&quot;Ellipse&quot;}" fill="#e1c41f" stroke="none" stroke-width="1"/>
        <circle cx="602" cy="452.11111" r="4" data-paper-data="{&quot;type&quot;:&quot;Ellipse&quot;}" fill="#e1c41f" stroke="none" stroke-width="1"/>
        <circle cx="648.4" cy="452.11111" r="4" data-paper-data="{&quot;type&quot;:&quot;Ellipse&quot;}" fill="#e1c41f" stroke="none" stroke-width="1"/>
        <circle cx="694.8" cy="412.22222" r="4" data-paper-data="{&quot;type&quot;:&quot;Ellipse&quot;}" fill="#e1c41f" stroke="none" stroke-width="1"/>
        <circle cx="741.2" cy="452.11111" r="4" data-paper-data="{&quot;type&quot;:&quot;Ellipse&quot;}" fill="#e1c41f" stroke="none" stroke-width="1"/>
        <circle cx="787.6" cy="452.11111" r="4" data-paper-data="{&quot;type&quot;:&quot;Ellipse&quot;}" fill="#e1c41f" stroke="none" stroke-width="1"/>
        <circle cx="834" cy="452.11111" r="4" data-paper-data="{&quot;type&quot;:&quot;Ellipse&quot;}" fill="#e1c41f" stroke="none" stroke-width="1"/>
        <circle cx="880.4" cy="412.22222" r="4" data-paper-data="{&quot;type&quot;:&quot;Ellipse&quot;}" fill="#e1c41f" stroke="none" stroke-width="1"/>
        <circle cx="926.8" cy="412.22222" r="4" data-paper-data="{&quot;type&quot;:&quot;Ellipse&quot;}" fill="#e1c41f" stroke="none" stroke-width="1"/>
        <circle cx="973.2" cy="412.22222" r="4" data-paper-data="{&quot;type&quot;:&quot;Ellipse&quot;}" fill="#e1c41f" stroke="none" stroke-width="1"/>
        <circle cx="1019.6" cy="412.22222" r="4" data-paper-data="{&quot;type&quot;:&quot;Ellipse&quot;}" fill="#e1c41f" stroke="none" stroke-width="1"/>
        <circle cx="1066" cy="412.22222" r="4" data-paper-data="{&quot;type&quot;:&quot;Ellipse&quot;}" fill="#e1c41f" stroke="none" stroke-width="1"/>
      </g>
      <g>
        <path d="M370,133c18.10892,0.27668 28.63761,-0.35955 46.4,0c18.10892,0.27668 28.63761,-0.35955 46.4,0c18.10892,0.27668 28.63761,-0.35955 46.4,0c18.10892,0.27668 28.63761,-0.35955 46.4,0c18.10892,0.27668 28.63761,-0.35955 46.4,0c18.10892,0.27668 28.63761,-0.35955 46.4,0c18.10892,0.27668 28.63761,39.52934 46.4,39.88889c18.10892,0.27668 28.63761,39.52934 46.4,39.88889c18.10892,0.27668 28.63761,-0.35955 46.4,0c18.10892,0.27668 28.63761,-0.35955 46.4,0c18.10892,0.27668 28.63761,-0.35955 46.4,0c18.10892,0.27668 28.63761,-0.35955 46.4,0c18.10892,0.27668 28.63761,-0.35955 46.4,0c18.10892,0.27668 28.63761,39.52934 46.4,39.88889c18.10892,0.27668 28.63761,-0.35955 46.4,0" fill="none" stroke="#b7bab9" stroke-width="1.5"/>
        <circle cx="370" cy="133" r="4" data-paper-data="{&quot;type&quot;:&quot;Ellipse&quot;}" fill="#b7bab9" stroke="none" stroke-width="1"/>
        <circle cx="416.4" cy="133" r="4" data-paper-data="{&quot;type&quot;:&quot;Ellipse&quot;}" fill="#b7bab9" stroke="none" stroke-width="1"/>
        <circle cx="462.8" cy="133" r="4" data-paper-data="{&quot;type&quot;:&quot;Ellipse&quot;}" fill="#b7bab9" stroke="none" stroke-width="1"/>
        <circle cx="509.2" cy="133" transform="" r="4" data-paper-data="{&quot;type&quot;:&quot;Ellipse&quot;}" fill="#b7bab9" stroke="none" stroke-width="1"/>
        <circle cx="555.6" cy="133" r="4" data-paper-data="{&quot;type&quot;:&quot;Ellipse&quot;}" fill="#b7bab9" stroke="none" stroke-width="1"/>
        <circle cx="602" cy="133" r="4" data-paper-data="{&quot;type&quot;:&quot;Ellipse&quot;}" fill="#b7bab9" stroke="none" stroke-width="1"/>
        <circle cx="648.4" cy="133" r="4" data-paper-data="{&quot;type&quot;:&quot;Ellipse&quot;}" fill="#b7bab9" stroke="none" stroke-width="1"/>
        <circle cx="694.8" cy="172.88889" r="4" data-paper-data="{&quot;type&quot;:&quot;Ellipse&quot;}" fill="#b7bab9" stroke="none" stroke-width="1"/>
        <circle cx="741.2" cy="212.77778" r="4" data-paper-data="{&quot;type&quot;:&quot;Ellipse&quot;}" fill="#b7bab9" stroke="none" stroke-width="1"/>
        <circle cx="787.6" cy="212.77778" r="4" data-paper-data="{&quot;type&quot;:&quot;Ellipse&quot;}" fill="#b7bab9" stroke="none" stroke-width="1"/>
        <circle cx="834" cy="212.77778" r="4" data-paper-data="{&quot;type&quot;:&quot;Ellipse&quot;}" fill="#b7bab9" stroke="none" stroke-width="1"/>
        <circle cx="880.4" cy="212.77778" r="4" data-paper-data="{&quot;type&quot;:&quot;Ellipse&quot;}" fill="#b7bab9" stroke="none" stroke-width="1"/>
        <circle cx="926.8" cy="212.77778" r="4" data-paper-data="{&quot;type&quot;:&quot;Ellipse&quot;}" fill="#b7bab9" stroke="none" stroke-width="1"/>
        <circle cx="973.2" cy="212.77778" r="4" data-paper-data="{&quot;type&quot;:&quot;Ellipse&quot;}" fill="#b7bab9" stroke="none" stroke-width="1"/>
        <circle cx="1019.6" cy="252.66667" r="4" data-paper-data="{&quot;type&quot;:&quot;Ellipse&quot;}" fill="#b7bab9" stroke="none" stroke-width="1"/>
        <circle cx="1066" cy="252.66667" r="4" data-paper-data="{&quot;type&quot;:&quot;Ellipse&quot;}" fill="#b7bab9" stroke="none" stroke-width="1"/>
      </g>
      <g>
        <path d="M370,332.44444c18.10892,0.27668 28.63761,39.52934 46.4,39.88889c18.10892,0.27668 28.63761,79.41823 46.4,79.77778c18.10892,0.27668 28.63761,-0.35955 46.4,0c18.10892,0.27668 28.63761,-40.24844 46.4,-39.88889c18.10892,0.27668 28.63761,-0.35955 46.4,0c18.10892,0.27668 28.63761,-0.35955 46.4,0c18.10892,0.27668 28.63761,39.52934 46.4,39.88889c18.10892,0.27668 28.63761,-40.24844 46.4,-39.88889c18.10892,0.27668 28.63761,-0.35955 46.4,0c18.10892,0.27668 28.63761,-0.35955 46.4,0c18.10892,0.27668 28.63761,39.52934 46.4,39.88889c18.10892,0.27668 28.63761,-0.35955 46.4,0c18.10892,0.27668 28.63761,-0.35955 46.4,0c18.10892,0.27668 28.63761,-0.35955 46.4,0c18.10892,0.27668 28.63761,-0.35955 46.4,0" fill="none" stroke="#429865" stroke-width="1.5"/>
        <circle cx="370" cy="332.44444" r="4" data-paper-data="{&quot;type&quot;:&quot;Ellipse&quot;}" fill="#429865" stroke="none" stroke-width="1"/>
        <circle cx="416.4" cy="372.33333" r="4" data-paper-data="{&quot;type&quot;:&quot;Ellipse&quot;}" fill="#429865" stroke="none" stroke-width="1"/>
        <circle cx="462.8" cy="452.11111" r="4" data-paper-data="{&quot;type&quot;:&quot;Ellipse&quot;}" fill="#429865" stroke="none" stroke-width="1"/>
        <circle cx="509.2" cy="452.11111" transform="" r="4" data-paper-data="{&quot;type&quot;:&quot;Ellipse&quot;}" fill="#429865" stroke="none" stroke-width="1"/>
        <circle cx="555.6" cy="412.22222" r="4" data-paper-data="{&quot;type&quot;:&quot;Ellipse&quot;}" fill="#429865" stroke="none" stroke-width="1"/>
        <circle cx="602" cy="412.22222" r="4" data-paper-data="{&quot;type&quot;:&quot;Ellipse&quot;}" fill="#429865" stroke="none" stroke-width="1"/>
        <circle cx="648.4" cy="412.22222" r="4" data-paper-data="{&quot;type&quot;:&quot;Ellipse&quot;}" fill="#429865" stroke="none" stroke-width="1"/>
        <circle cx="694.8" cy="452.11111" r="4" data-paper-data="{&quot;type&quot;:&quot;Ellipse&quot;}" fill="#429865" stroke="none" stroke-width="1"/>
        <circle cx="741.2" cy="412.22222" r="4" data-paper-data="{&quot;type&quot;:&quot;Ellipse&quot;}" fill="#429865" stroke="none" stroke-width="1"/>
        <circle cx="787.6" cy="412.22222" r="4" data-paper-data="{&quot;type&quot;:&quot;Ellipse&quot;}" fill="#429865" stroke="none" stroke-width="1"/>
        <circle cx="834" cy="412.22222" r="4" data-paper-data="{&quot;type&quot;:&quot;Ellipse&quot;}" fill="#429865" stroke="none" stroke-width="1"/>
        <circle cx="880.4" cy="452.11111" r="4" data-paper-data="{&quot;type&quot;:&quot;Ellipse&quot;}" fill="#429865" stroke="none" stroke-width="1"/>
        <circle cx="926.8" cy="452.11111" r="4" data-paper-data="{&quot;type&quot;:&quot;Ellipse&quot;}" fill="#429865" stroke="none" stroke-width="1"/>
        <circle cx="973.2" cy="452.11111" r="4" data-paper-data="{&quot;type&quot;:&quot;Ellipse&quot;}" fill="#429865" stroke="none" stroke-width="1"/>
        <circle cx="1019.6" cy="452.11111" r="4" data-paper-data="{&quot;type&quot;:&quot;Ellipse&quot;}" fill="#429865" stroke="none" stroke-width="1"/>
        <circle cx="1066" cy="452.11111" r="4" data-paper-data="{&quot;type&quot;:&quot;Ellipse&quot;}" fill="#429865" stroke="none" stroke-width="1"/>
      </g>
      <g>
        <path d="M370,412.22222c18.10892,0.27668 28.63761,-0.35955 46.4,0c18.10892,0.27668 28.63761,-0.35955 46.4,0c18.10892,0.27668 28.63761,-40.24844 46.4,-39.88889c18.10892,0.27668 28.63761,-80.13733 46.4,-79.77778c18.10892,0.27668 28.63761,79.41823 46.4,79.77778c18.10892,0.27668 28.63761,-0.35955 46.4,0c18.10892,0.27668 28.63761,-0.35955 46.4,0c18.10892,0.27668 28.63761,-0.35955 46.4,0c18.10892,0.27668 28.63761,-0.35955 46.4,0c18.10892,0.27668 28.63761,-0.35955 46.4,0c18.10892,0.27668 28.63761,-0.35955 46.4,0c18.10892,0.27668 28.63761,-0.35955 46.4,0c18.10892,0.27668 28.63761,-0.35955 46.4,0c18.10892,0.27668 28.63761,-0.35955 46.4,0c18.10892,0.27668 28.63761,-0.35955 46.4,0" fill="none" stroke="#8c564b" stroke-width="1.5"/>
        <circle cx="370" cy="412.22222" r="4" data-paper-data="{&quot;type&quot;:&quot;Ellipse&quot;}" fill="#8c564b" stroke="none" stroke-width="1"/>
        <circle cx="416.4" cy="412.22222" r="4" data-paper-data="{&quot;type&quot;:&quot;Ellipse&quot;}" fill="#8c564b" stroke="none" stroke-width="1"/>
        <circle cx="462.8" cy="412.22222" r="4" data-paper-data="{&quot;type&quot;:&quot;Ellipse&quot;}" fill="#8c564b" stroke="none" stroke-width="1"/>
        <circle cx="509.2" cy="372.33333" transform="" r="4" data-paper-data="{&quot;type&quot;:&quot;Ellipse&quot;}" fill="#8c564b" stroke="none" stroke-width="1"/>
        <circle cx="555.6" cy="292.55556" r="4" data-paper-data="{&quot;type&quot;:&quot;Ellipse&quot;}" fill="#8c564b" stroke="none" stroke-width="1"/>
        <circle cx="602" cy="372.33333" r="4" data-paper-data="{&quot;type&quot;:&quot;Ellipse&quot;}" fill="#8c564b" stroke="none" stroke-width="1"/>
        <circle cx="648.4" cy="372.33333" r="4" data-paper-data="{&quot;type&quot;:&quot;Ellipse&quot;}" fill="#8c564b" stroke="none" stroke-width="1"/>
        <circle cx="694.8" cy="372.33333" r="4" data-paper-data="{&quot;type&quot;:&quot;Ellipse&quot;}" fill="#8c564b" stroke="none" stroke-width="1"/>
        <circle cx="741.2" cy="372.33333" r="4" data-paper-data="{&quot;type&quot;:&quot;Ellipse&quot;}" fill="#8c564b" stroke="none" stroke-width="1"/>
        <circle cx="787.6" cy="372.33333" r="4" data-paper-data="{&quot;type&quot;:&quot;Ellipse&quot;}" fill="#8c564b" stroke="none" stroke-width="1"/>
        <circle cx="834" cy="372.33333" r="4" data-paper-data="{&quot;type&quot;:&quot;Ellipse&quot;}" fill="#8c564b" stroke="none" stroke-width="1"/>
        <circle cx="880.4" cy="372.33333" r="4" data-paper-data="{&quot;type&quot;:&quot;Ellipse&quot;}" fill="#8c564b" stroke="none" stroke-width="1"/>
        <circle cx="926.8" cy="372.33333" r="4" data-paper-data="{&quot;type&quot;:&quot;Ellipse&quot;}" fill="#8c564b" stroke="none" stroke-width="1"/>
        <circle cx="973.2" cy="372.33333" r="4" data-paper-data="{&quot;type&quot;:&quot;Ellipse&quot;}" fill="#8c564b" stroke="none" stroke-width="1"/>
        <circle cx="1019.6" cy="372.33333" r="4" data-paper-data="{&quot;type&quot;:&quot;Ellipse&quot;}" fill="#8c564b" stroke="none" stroke-width="1"/>
        <circle cx="1066" cy="372.33333" r="4" data-paper-data="{&quot;type&quot;:&quot;Ellipse&quot;}" fill="#8c564b" stroke="none" stroke-width="1"/>
      </g>
      <g>
        <path d="M370,372.33333c18.10892,0.27668 28.63761,-80.13733 46.4,-79.77778c18.10892,0.27668 28.63761,-40.24844 46.4,-39.88889c18.10892,0.27668 28.63761,79.41823 46.4,79.77778c18.10892,0.27668 28.63761,-80.13733 46.4,-79.77778c18.10892,0.27668 28.63761,-0.35955 46.4,0c18.10892,0.27668 28.63761,39.52934 46.4,39.88889c18.10892,0.27668 28.63761,-0.35955 46.4,0c18.10892,0.27668 28.63761,-40.24844 46.4,-39.88889c18.10892,0.27668 28.63761,39.52934 46.4,39.88889c18.10892,0.27668 28.63761,39.52934 46.4,39.88889c18.10892,0.27668 28.63761,-0.35955 46.4,0c18.10892,0.27668 28.63761,-0.35955 46.4,0c18.10892,0.27668 28.63761,-0.35955 46.4,0c18.10892,0.27668 28.63761,-0.35955 46.4,0c18.10892,0.27668 28.63761,-0.35955 46.4,0" fill="none" stroke="#353daf" stroke-width="1.5"/>
        <circle cx="370" cy="372.33333" r="4" data-paper-data="{&quot;type&quot;:&quot;Ellipse&quot;}" fill="#353daf" stroke="none" stroke-width="1"/>
        <circle cx="416.4" cy="292.55556" r="4" data-paper-data="{&quot;type&quot;:&quot;Ellipse&quot;}" fill="#353daf" stroke="none" stroke-width="1"/>
        <circle cx="462.8" cy="252.66667" r="4" data-paper-data="{&quot;type&quot;:&quot;Ellipse&quot;}" fill="#353daf" stroke="none" stroke-width="1"/>
        <circle cx="509.2" cy="332.44444" transform="" r="4" data-paper-data="{&quot;type&quot;:&quot;Ellipse&quot;}" fill="#353daf" stroke="none" stroke-width="1"/>
        <circle cx="555.6" cy="252.66667" r="4" data-paper-data="{&quot;type&quot;:&quot;Ellipse&quot;}" fill="#353daf" stroke="none" stroke-width="1"/>
        <circle cx="602" cy="252.66667" r="4" data-paper-data="{&quot;type&quot;:&quot;Ellipse&quot;}" fill="#353daf" stroke="none" stroke-width="1"/>
        <circle cx="648.4" cy="292.55556" r="4" data-paper-data="{&quot;type&quot;:&quot;Ellipse&quot;}" fill="#353daf" stroke="none" stroke-width="1"/>
        <circle cx="694.8" cy="292.55556" r="4" data-paper-data="{&quot;type&quot;:&quot;Ellipse&quot;}" fill="#353daf" stroke="none" stroke-width="1"/>
        <circle cx="741.2" cy="252.66667" r="4" data-paper-data="{&quot;type&quot;:&quot;Ellipse&quot;}" fill="#353daf" stroke="none" stroke-width="1"/>
        <circle cx="787.6" cy="292.55556" r="4" data-paper-data="{&quot;type&quot;:&quot;Ellipse&quot;}" fill="#353daf" stroke="none" stroke-width="1"/>
        <circle cx="834" cy="332.44444" r="4" data-paper-data="{&quot;type&quot;:&quot;Ellipse&quot;}" fill="#353daf" stroke="none" stroke-width="1"/>
        <circle cx="880.4" cy="332.44444" r="4" data-paper-data="{&quot;type&quot;:&quot;Ellipse&quot;}" fill="#353daf" stroke="none" stroke-width="1"/>
        <circle cx="926.8" cy="332.44444" r="4" data-paper-data="{&quot;type&quot;:&quot;Ellipse&quot;}" fill="#353daf" stroke="none" stroke-width="1"/>
        <circle cx="973.2" cy="332.44444" r="4" data-paper-data="{&quot;type&quot;:&quot;Ellipse&quot;}" fill="#353daf" stroke="none" stroke-width="1"/>
        <circle cx="1019.6" cy="332.44444" r="4" data-paper-data="{&quot;type&quot;:&quot;Ellipse&quot;}" fill="#353daf" stroke="none" stroke-width="1"/>
        <circle cx="1066" cy="332.44444" r="4" data-paper-data="{&quot;type&quot;:&quot;Ellipse&quot;}" fill="#353daf" stroke="none" stroke-width="1"/>
      </g>
      <g>
        <path d="M370,292.55556c18.10892,0.27668 28.63761,-80.13733 46.4,-79.77778c18.10892,0.27668 28.63761,-0.35955 46.4,0c18.10892,0.27668 28.63761,-0.35955 46.4,0c18.10892,0.27668 28.63761,-0.35955 46.4,0c18.10892,0.27668 28.63761,79.41823 46.4,79.77778c18.10892,0.27668 28.63761,-80.13733 46.4,-79.77778c18.10892,0.27668 28.63761,-0.35955 46.4,0c18.10892,0.27668 28.63761,-40.24844 46.4,-39.88889c18.10892,0.27668 28.63761,-0.35955 46.4,0c18.10892,0.27668 28.63761,-0.35955 46.4,0c18.10892,0.27668 28.63761,-0.35955 46.4,0c18.10892,0.27668 28.63761,-0.35955 46.4,0c18.10892,0.27668 28.63761,-0.35955 46.4,0c18.10892,0.27668 28.63761,-0.35955 46.4,0c18.10892,0.27668 28.63761,-0.35955 46.4,0" fill="none" stroke="#000100" stroke-width="1.5"/>
        <circle cx="370" cy="292.55556" r="4" data-paper-data="{&quot;type&quot;:&quot;Ellipse&quot;}" fill="#000100" stroke="none" stroke-width="1"/>
        <circle cx="416.4" cy="212.77778" r="4" data-paper-data="{&quot;type&quot;:&quot;Ellipse&quot;}" fill="#000100" stroke="none" stroke-width="1"/>
        <circle cx="462.8" cy="212.77778" r="4" data-paper-data="{&quot;type&quot;:&quot;Ellipse&quot;}" fill="#000100" stroke="none" stroke-width="1"/>
        <circle cx="509.2" cy="212.77778" transform="" r="4" data-paper-data="{&quot;type&quot;:&quot;Ellipse&quot;}" fill="#000100" stroke="none" stroke-width="1"/>
        <circle cx="555.6" cy="212.77778" r="4" data-paper-data="{&quot;type&quot;:&quot;Ellipse&quot;}" fill="#000100" stroke="none" stroke-width="1"/>
        <circle cx="602" cy="292.55556" r="4" data-paper-data="{&quot;type&quot;:&quot;Ellipse&quot;}" fill="#000100" stroke="none" stroke-width="1"/>
        <circle cx="648.4" cy="212.77778" r="4" data-paper-data="{&quot;type&quot;:&quot;Ellipse&quot;}" fill="#000100" stroke="none" stroke-width="1"/>
        <circle cx="694.8" cy="212.77778" r="4" data-paper-data="{&quot;type&quot;:&quot;Ellipse&quot;}" fill="#000100" stroke="none" stroke-width="1"/>
        <circle cx="741.2" cy="172.88889" r="4" data-paper-data="{&quot;type&quot;:&quot;Ellipse&quot;}" fill="#000100" stroke="none" stroke-width="1"/>
        <circle cx="787.6" cy="172.88889" r="4" data-paper-data="{&quot;type&quot;:&quot;Ellipse&quot;}" fill="#000100" stroke="none" stroke-width="1"/>
        <circle cx="834" cy="172.88889" r="4" data-paper-data="{&quot;type&quot;:&quot;Ellipse&quot;}" fill="#000100" stroke="none" stroke-width="1"/>
        <circle cx="880.4" cy="172.88889" r="4" data-paper-data="{&quot;type&quot;:&quot;Ellipse&quot;}" fill="#000100" stroke="none" stroke-width="1"/>
        <circle cx="926.8" cy="172.88889" r="4" data-paper-data="{&quot;type&quot;:&quot;Ellipse&quot;}" fill="#000100" stroke="none" stroke-width="1"/>
        <circle cx="973.2" cy="172.88889" r="4" data-paper-data="{&quot;type&quot;:&quot;Ellipse&quot;}" fill="#000100" stroke="none" stroke-width="1"/>
        <circle cx="1019.6" cy="172.88889" r="4" data-paper-data="{&quot;type&quot;:&quot;Ellipse&quot;}" fill="#000100" stroke="none" stroke-width="1"/>
        <circle cx="1066" cy="172.88889" r="4" data-paper-data="{&quot;type&quot;:&quot;Ellipse&quot;}" fill="#000100" stroke="none" stroke-width="1"/>
      </g>
      <g>
        <path d="M370,212.77778c18.10892,0.27668 28.63761,119.30712 46.4,119.66667c18.10892,0.27668 28.63761,-40.24844 46.4,-39.88889c18.10892,0.27668 28.63761,119.30712 46.4,119.66667c18.10892,0.27668 28.63761,39.52934 46.4,39.88889c18.10892,0.27668 28.63761,39.52934 46.4,39.88889c18.10892,0.27668 28.63761,-0.35955 46.4,0c18.10892,0.27668 28.63761,-0.35955 46.4,0c18.10892,0.27668 28.63761,-0.35955 46.4,0c18.10892,0.27668 28.63761,-0.35955 46.4,0c18.10892,0.27668 28.63761,-0.35955 46.4,0c18.10892,0.27668 28.63761,-0.35955 46.4,0c18.10892,0.27668 28.63761,-0.35955 46.4,0c18.10892,0.27668 28.63761,-0.35955 46.4,0c18.10892,0.27668 28.63761,-0.35955 46.4,0c18.10892,0.27668 28.63761,-0.35955 46.4,0" fill="none" stroke="#b742c2" stroke-width="1.5"/>
        <circle cx="370" cy="212.77778" r="4" data-paper-data="{&quot;type&quot;:&quot;Ellipse&quot;}" fill="#b742c2" stroke="none" stroke-width="1"/>
        <circle cx="416.4" cy="332.44444" r="4" data-paper-data="{&quot;type&quot;:&quot;Ellipse&quot;}" fill="#b742c2" stroke="none" stroke-width="1"/>
        <circle cx="462.8" cy="292.55556" r="4" data-paper-data="{&quot;type&quot;:&quot;Ellipse&quot;}" fill="#b742c2" stroke="none" stroke-width="1"/>
        <circle cx="509.2" cy="412.22222" transform="" r="4" data-paper-data="{&quot;type&quot;:&quot;Ellipse&quot;}" fill="#b742c2" stroke="none" stroke-width="1"/>
        <circle cx="555.6" cy="452.11111" r="4" data-paper-data="{&quot;type&quot;:&quot;Ellipse&quot;}" fill="#b742c2" stroke="none" stroke-width="1"/>
        <circle cx="602" cy="492" r="4" data-paper-data="{&quot;type&quot;:&quot;Ellipse&quot;}" fill="#b742c2" stroke="none" stroke-width="1"/>
        <circle cx="648.4" cy="492" r="4" data-paper-data="{&quot;type&quot;:&quot;Ellipse&quot;}" fill="#b742c2" stroke="none" stroke-width="1"/>
        <circle cx="694.8" cy="492" r="4" data-paper-data="{&quot;type&quot;:&quot;Ellipse&quot;}" fill="#b742c2" stroke="none" stroke-width="1"/>
        <circle cx="741.2" cy="492" r="4" data-paper-data="{&quot;type&quot;:&quot;Ellipse&quot;}" fill="#b742c2" stroke="none" stroke-width="1"/>
        <circle cx="787.6" cy="492" r="4" data-paper-data="{&quot;type&quot;:&quot;Ellipse&quot;}" fill="#b742c2" stroke="none" stroke-width="1"/>
        <circle cx="834" cy="492" r="4" data-paper-data="{&quot;type&quot;:&quot;Ellipse&quot;}" fill="#b742c2" stroke="none" stroke-width="1"/>
        <circle cx="880.4" cy="492" r="4" data-paper-data="{&quot;type&quot;:&quot;Ellipse&quot;}" fill="#b742c2" stroke="none" stroke-width="1"/>
        <circle cx="926.8" cy="492" r="4" data-paper-data="{&quot;type&quot;:&quot;Ellipse&quot;}" fill="#b742c2" stroke="none" stroke-width="1"/>
        <circle cx="973.2" cy="492" r="4" data-paper-data="{&quot;type&quot;:&quot;Ellipse&quot;}" fill="#b742c2" stroke="none" stroke-width="1"/>
        <circle cx="1019.6" cy="492" r="4" data-paper-data="{&quot;type&quot;:&quot;Ellipse&quot;}" fill="#b742c2" stroke="none" stroke-width="1"/>
        <circle cx="1066" cy="492" r="4" data-paper-data="{&quot;type&quot;:&quot;Ellipse&quot;}" fill="#b742c2" stroke="none" stroke-width="1"/>
      </g>
      <g>
        <path d="M370,452.11111c18.10892,0.27668 28.63761,39.52934 46.4,39.88889c18.10892,0.27668 28.63761,-120.02622 46.4,-119.66667c18.10892,0.27668 28.63761,-80.13733 46.4,-79.77778c18.10892,0.27668 28.63761,79.41823 46.4,79.77778c18.10892,0.27668 28.63761,-159.91511 46.4,-159.55556c18.10892,0.27668 28.63761,39.52934 46.4,39.88889c18.10892,0.27668 28.63761,79.41823 46.4,79.77778c18.10892,0.27668 28.63761,-40.24844 46.4,-39.88889c18.10892,0.27668 28.63761,-40.24844 46.4,-39.88889c18.10892,0.27668 28.63761,-0.35955 46.4,0c18.10892,0.27668 28.63761,-0.35955 46.4,0c18.10892,0.27668 28.63761,-0.35955 46.4,0c18.10892,0.27668 28.63761,-0.35955 46.4,0c18.10892,0.27668 28.63761,-40.24844 46.4,-39.88889c18.10892,0.27668 28.63761,-0.35955 46.4,0" fill="none" stroke="#969797" stroke-width="1.5"/>
        <circle cx="370" cy="452.11111" r="4" data-paper-data="{&quot;type&quot;:&quot;Ellipse&quot;}" fill="#969797" stroke="none" stroke-width="1"/>
        <circle cx="416.4" cy="492" r="4" data-paper-data="{&quot;type&quot;:&quot;Ellipse&quot;}" fill="#969797" stroke="none" stroke-width="1"/>
        <circle cx="462.8" cy="372.33333" r="4" data-paper-data="{&quot;type&quot;:&quot;Ellipse&quot;}" fill="#969797" stroke="none" stroke-width="1"/>
        <circle cx="509.2" cy="292.55556" transform="" r="4" data-paper-data="{&quot;type&quot;:&quot;Ellipse&quot;}" fill="#969797" stroke="none" stroke-width="1"/>
        <circle cx="555.6" cy="372.33333" r="4" data-paper-data="{&quot;type&quot;:&quot;Ellipse&quot;}" fill="#969797" stroke="none" stroke-width="1"/>
        <circle cx="602" cy="212.77778" r="4" data-paper-data="{&quot;type&quot;:&quot;Ellipse&quot;}" fill="#969797" stroke="none" stroke-width="1"/>
        <circle cx="648.4" cy="252.66667" r="4" data-paper-data="{&quot;type&quot;:&quot;Ellipse&quot;}" fill="#969797" stroke="none" stroke-width="1"/>
        <circle cx="694.8" cy="332.44444" r="4" data-paper-data="{&quot;type&quot;:&quot;Ellipse&quot;}" fill="#969797" stroke="none" stroke-width="1"/>
        <circle cx="741.2" cy="292.55556" r="4" data-paper-data="{&quot;type&quot;:&quot;Ellipse&quot;}" fill="#969797" stroke="none" stroke-width="1"/>
        <circle cx="787.6" cy="252.66667" r="4" data-paper-data="{&quot;type&quot;:&quot;Ellipse&quot;}" fill="#969797" stroke="none" stroke-width="1"/>
        <circle cx="834" cy="252.66667" r="4" data-paper-data="{&quot;type&quot;:&quot;Ellipse&quot;}" fill="#969797" stroke="none" stroke-width="1"/>
        <circle cx="880.4" cy="252.66667" r="4" data-paper-data="{&quot;type&quot;:&quot;Ellipse&quot;}" fill="#969797" stroke="none" stroke-width="1"/>
        <circle cx="926.8" cy="252.66667" r="4" data-paper-data="{&quot;type&quot;:&quot;Ellipse&quot;}" fill="#969797" stroke="none" stroke-width="1"/>
        <circle cx="973.2" cy="252.66667" r="4" data-paper-data="{&quot;type&quot;:&quot;Ellipse&quot;}" fill="#969797" stroke="none" stroke-width="1"/>
        <circle cx="1019.6" cy="212.77778" r="4" data-paper-data="{&quot;type&quot;:&quot;Ellipse&quot;}" fill="#969797" stroke="none" stroke-width="1"/>
        <circle cx="1066" cy="212.77778" r="4" data-paper-data="{&quot;type&quot;:&quot;Ellipse&quot;}" fill="#969797" stroke="none" stroke-width="1"/>
      </g>
      <text x="427.11328" y="78.06354" fill="#cacaca" stroke="none" stroke-width="1" font-family="Arial, sans-serif" font-weight="normal" font-size="18.5" text-anchor="start">The Untangling of Color Popularity in New Cars in North America</text>
    </g>
    <g class="domain" transform="translate(370,539)" fill="none" font-size="10" font-family="sans-serif" text-anchor="middle" style="pointer-events: none;">
      <path class="domain" stroke="#444" d="M0.5,6V0.5H696.5V6"/>
      <g class="tick" opacity="1" transform="translate(0,0)">
        <line stroke="#444" y2="6" x1="0.5" x2="0.5"/>
        <text fill="#444" y="9" x="0.5" dy="0.71em">2000</text>
      </g>
      <g class="tick" opacity="1" transform="translate(92.8,0)">
        <line stroke="#444" y2="6" x1="0.5" x2="0.5"/>
        <text fill="#444" y="9" x="0.5" dy="0.71em">2002</text>
      </g>
      <g class="tick" opacity="1" transform="translate(185.6,0)">
        <line stroke="#444" y2="6" x1="0.5" x2="0.5"/>
        <text fill="#444" y="9" x="0.5" dy="0.71em">2004</text>
      </g>
      <g class="tick" opacity="1" transform="translate(278.40000000000003,0)">
        <line stroke="#444" y2="6" x1="0.5" x2="0.5"/>
        <text fill="#444" y="9" x="0.5" dy="0.71em">2006</text>
      </g>
      <g class="tick" opacity="1" transform="translate(371.2,0)">
        <line stroke="#444" y2="6" x1="0.5" x2="0.5"/>
        <text fill="#444" y="9" x="0.5" dy="0.71em">2008</text>
      </g>
      <g class="tick" opacity="1" transform="translate(464,0)">
        <line stroke="#444" y2="6" x1="0.5" x2="0.5"/>
        <text fill="#444" y="9" x="0.5" dy="0.71em">2010</text>
      </g>
      <g class="tick" opacity="1" transform="translate(556.8000000000001,0)">
        <line stroke="#444" y2="6" x1="0.5" x2="0.5"/>
        <text fill="#444" y="9" x="0.5" dy="0.71em">2012</text>
      </g>
      <g class="tick" opacity="1" transform="translate(649.6,0)">
        <line stroke="#444" y2="6" x1="0.5" x2="0.5"/>
        <text fill="#444" y="9" x="0.5" dy="0.71em">2014</text>
      </g>
      <g class="axis-label" transform="translate(2,5)">
        <text class="attribute" dy="0.3em" style="text-anchor: start;" fill="#444">Year</text>
      </g>
    </g>
    <g class="domain" transform="translate(348,133)" fill="none" font-size="10" font-family="sans-serif" text-anchor="end" style="pointer-events: none;">
      <path class="domain" stroke="#444" d="M-6,0.5H0.5V359.5H-6"/>
      <g class="tick" opacity="1" transform="translate(0,0)">
        <line stroke="#444" x2="-6" y1="0.5" y2="0.5"/>
        <text fill="#444" x="-9" y="0.5" dy="0.32em">1</text>
      </g>
      <g class="tick" opacity="1" transform="translate(0,39.888888888888886)">
        <line stroke="#444" x2="-6" y1="0.5" y2="0.5"/>
        <text fill="#444" x="-9" y="0.5" dy="0.32em">2</text>
      </g>
      <g class="tick" opacity="1" transform="translate(0,79.77777777777777)">
        <line stroke="#444" x2="-6" y1="0.5" y2="0.5"/>
        <text fill="#444" x="-9" y="0.5" dy="0.32em">3</text>
      </g>
      <g class="tick" opacity="1" transform="translate(0,119.66666666666666)">
        <line stroke="#444" x2="-6" y1="0.5" y2="0.5"/>
        <text fill="#444" x="-9" y="0.5" dy="0.32em">4</text>
      </g>
      <g class="tick" opacity="1" transform="translate(0,159.55555555555554)">
        <line stroke="#444" x2="-6" y1="0.5" y2="0.5"/>
        <text fill="#444" x="-9" y="0.5" dy="0.32em">5</text>
      </g>
      <g class="tick" opacity="1" transform="translate(0,199.44444444444446)">
        <line stroke="#444" x2="-6" y1="0.5" y2="0.5"/>
        <text fill="#444" x="-9" y="0.5" dy="0.32em">6</text>
      </g>
      <g class="tick" opacity="1" transform="translate(0,239.33333333333331)">
        <line stroke="#444" x2="-6" y1="0.5" y2="0.5"/>
        <text fill="#444" x="-9" y="0.5" dy="0.32em">7</text>
      </g>
      <g class="tick" opacity="1" transform="translate(0,279.22222222222223)">
        <line stroke="#444" x2="-6" y1="0.5" y2="0.5"/>
        <text fill="#444" x="-9" y="0.5" dy="0.32em">8</text>
      </g>
      <g class="tick" opacity="1" transform="translate(0,319.1111111111111)">
        <line stroke="#444" x2="-6" y1="0.5" y2="0.5"/>
        <text fill="#444" x="-9" y="0.5" dy="0.32em">9</text>
      </g>
      <g class="tick" opacity="1" transform="translate(0,359)">
        <line stroke="#444" x2="-6" y1="0.5" y2="0.5"/>
        <text fill="#444" x="-9" y="0.5" dy="0.32em">10</text>
      </g>
      <g class="axis-label" transform="rotate(90) translate(2,5)">
        <text class="attribute" dy="0.3em" style="text-anchor: start;" fill="#444">Rank</text>
      </g>
    </g>
    <g transform="translate(1111,147.88670957640474)">
      <g class="color-scale-palette" transform="translate(0,0)">
        <rect height="14" width="14" fill="#ffffff" style="stroke-width: 1px; stroke: rgb(231, 231, 231);"/>
        <text dy="0.3em" x="18" y="7" title="White (solid+pearl)" fill="#444" style="font-size: 10px;">White (sol...</text>
      </g>
      <g class="color-scale-palette" transform="translate(0,26)">
        <rect height="14" width="14" fill="#da2225" style="stroke-width: 1px; stroke: rgb(231, 231, 231);"/>
        <text dy="0.3em" x="18" y="7" title="Red" fill="#444" style="font-size: 10px;">Red</text>
      </g>
      <g class="color-scale-palette" transform="translate(0,52)">
        <rect height="14" width="14" fill="#e1c41f" style="stroke-width: 1px; stroke: rgb(231, 231, 231);"/>
        <text dy="0.3em" x="18" y="7" title="Gold/yellow" fill="#444" style="font-size: 10px;">Gold/yello...</text>
      </g>
      <g class="color-scale-palette" transform="translate(0,78)">
        <rect height="14" width="14" fill="#b7bab9" style="stroke-width: 1px; stroke: rgb(231, 231, 231);"/>
        <text dy="0.3em" x="18" y="7" title="Silver" fill="#444" style="font-size: 10px;">Silver</text>
      </g>
      <g class="color-scale-palette" transform="translate(0,104)">
        <rect height="14" width="14" fill="#429865" style="stroke-width: 1px; stroke: rgb(231, 231, 231);"/>
        <text dy="0.3em" x="18" y="7" title="Green" fill="#444" style="font-size: 10px;">Green</text>
      </g>
      <g class="color-scale-palette" transform="translate(80,0)">
        <rect height="14" width="14" fill="#8c564b" style="stroke-width: 1px; stroke: rgb(231, 231, 231);"/>
        <text dy="0.3em" x="18" y="7" title="Brown/beige" fill="#444" style="font-size: 10px;">Brown/beig...</text>
      </g>
      <g class="color-scale-palette" transform="translate(80,26)">
        <rect height="14" width="14" fill="#353daf" style="stroke-width: 1px; stroke: rgb(231, 231, 231);"/>
        <text dy="0.3em" x="18" y="7" title="Blue" fill="#444" style="font-size: 10px;">Blue</text>
      </g>
      <g class="color-scale-palette" transform="translate(80,52)">
        <rect height="14" width="14" fill="#000100" style="stroke-width: 1px; stroke: rgb(231, 231, 231);"/>
        <text dy="0.3em" x="18" y="7" title="Black (solid+effect)" fill="#444" style="font-size: 10px;">Black (sol...</text>
      </g>
      <g class="color-scale-palette" transform="translate(80,78)">
        <rect height="14" width="14" fill="#b742c2" style="stroke-width: 1px; stroke: rgb(231, 231, 231);"/>
        <text dy="0.3em" x="18" y="7" title="Other" fill="#444" style="font-size: 10px;">Other</text>
      </g>
      <g class="color-scale-palette" transform="translate(80,104)">
        <rect height="14" width="14" fill="#969797" style="stroke-width: 1px; stroke: rgb(231, 231, 231);"/>
        <text dy="0.3em" x="18" y="7" title="Gray" fill="#444" style="font-size: 10px;">Gray</text>
      </g>
      <text class="color-scale-label" y="-14" dy="0.3em" fill="#444" style="font-size: 10px;">Color</text>
    </g>
  </g>
</svg>
