<svg xmlns="http://www.w3.org/2000/svg" style="max-height:200px" viewBox="0 0 560 100"><g class="plot"><g fill="#dddddd80" class="weeks" cursor="pointer"><path d="M30 80h9.5v9.5H30zM30 20h9.5v9.5H30zM30 30h9.5v9.5H30zM30 40h9.5v9.5H30zM30 50h9.5v9.5H30zM30 60h9.5v9.5H30zM30 70h9.5v9.5H30z" class="days"/></g><g fill="#dddddd80" class="weeks" cursor="pointer"><path d="M40 80h9.5v9.5H40zM40 20h9.5v9.5H40zM40 30h9.5v9.5H40zM40 40h9.5v9.5H40zM40 50h9.5v9.5H40zM40 60h9.5v9.5H40zM40 70h9.5v9.5H40z" class="days"/></g><g fill="#dddddd80" class="weeks" cursor="pointer"><path d="M50 80h9.5v9.5H50zM50 20h9.5v9.5H50zM50 30h9.5v9.5H50zM50 40h9.5v9.5H50zM50 50h9.5v9.5H50zM50 60h9.5v9.5H50zM50 70h9.5v9.5H50z" class="days"/></g><g fill="#dddddd80" class="weeks" cursor="pointer"><path d="M60 80h9.5v9.5H60zM60 20h9.5v9.5H60zM60 30h9.5v9.5H60zM60 40h9.5v9.5H60zM60 50h9.5v9.5H60zM60 60h9.5v9.5H60zM60 70h9.5v9.5H60z" class="days"/></g><g class="weeks" cursor="pointer"><path fill="#dddddd80" d="M70 80h9.5v9.5H70zM70 20h9.5v9.5H70zM70 30h9.5v9.5H70z" class="days"/><path fill="#f2f2f280" d="M70 40h9.5v9.5H70zM70 50h9.5v9.5H70zM70 60h9.5v9.5H70zM70 70h9.5v9.5H70z" class="days"/></g><g fill="#f2f2f280" class="weeks" cursor="pointer"><path d="M80 80h9.5v9.5H80zM80 20h9.5v9.5H80zM80 30h9.5v9.5H80zM80 40h9.5v9.5H80zM80 50h9.5v9.5H80zM80 60h9.5v9.5H80zM80 70h9.5v9.5H80z" class="days"/></g><g fill="#f2f2f280" class="weeks" cursor="pointer"><path d="M90 80h9.5v9.5H90zM90 20h9.5v9.5H90zM90 30h9.5v9.5H90zM90 40h9.5v9.5H90zM90 50h9.5v9.5H90zM90 60h9.5v9.5H90zM90 70h9.5v9.5H90z" class="days"/></g><g fill="#f2f2f280" class="weeks" cursor="pointer"><path d="M100 80h9.5v9.5H100zM100 20h9.5v9.5H100zM100 30h9.5v9.5H100zM100 40h9.5v9.5H100zM100 50h9.5v9.5H100zM100 60h9.5v9.5H100zM100 70h9.5v9.5H100z" class="days"/></g><g class="weeks" cursor="pointer"><path fill="#f2f2f280" d="M110 80h9.5v9.5H110zM110 20h9.5v9.5H110zM110 30h9.5v9.5H110z" class="days"/><path fill="#dddddd80" d="M110 40h9.5v9.5H110zM110 50h9.5v9.5H110zM110 60h9.5v9.5H110zM110 70h9.5v9.5H110z" class="days"/></g><g fill="#dddddd80" class="weeks" cursor="pointer"><path d="M120 80h9.5v9.5H120zM120 20h9.5v9.5H120zM120 30h9.5v9.5H120zM120 40h9.5v9.5H120zM120 50h9.5v9.5H120zM120 60h9.5v9.5H120zM120 70h9.5v9.5H120z" class="days"/></g><g fill="#dddddd80" class="weeks" cursor="pointer"><path d="M130 80h9.5v9.5H130zM130 20h9.5v9.5H130zM130 30h9.5v9.5H130zM130 40h9.5v9.5H130zM130 50h9.5v9.5H130zM130 60h9.5v9.5H130zM130 70h9.5v9.5H130z" class="days"/></g><g fill="#dddddd80" class="weeks" cursor="pointer"><path d="M140 80h9.5v9.5H140zM140 20h9.5v9.5H140zM140 30h9.5v9.5H140zM140 40h9.5v9.5H140zM140 50h9.5v9.5H140zM140 60h9.5v9.5H140zM140 70h9.5v9.5H140z" class="days"/></g><g class="weeks" cursor="pointer"><path fill="#dddddd80" d="M150 80h9.5v9.5H150zM150 20h9.5v9.5H150zM150 30h9.5v9.5H150zM150 40h9.5v9.5H150zM150 50h9.5v9.5H150zM150 60h9.5v9.5H150z" class="days"/><path fill="#f2f2f280" d="M150 70h9.5v9.5H150z" class="days"/></g><g fill="#f2f2f280" class="weeks" cursor="pointer"><path d="M160 80h9.5v9.5H160zM160 20h9.5v9.5H160zM160 30h9.5v9.5H160zM160 40h9.5v9.5H160zM160 50h9.5v9.5H160zM160 60h9.5v9.5H160zM160 70h9.5v9.5H160z" class="days"/></g><g fill="#f2f2f280" class="weeks" cursor="pointer"><path d="M170 80h9.5v9.5H170zM170 20h9.5v9.5H170zM170 30h9.5v9.5H170zM170 40h9.5v9.5H170zM170 50h9.5v9.5H170zM170 60h9.5v9.5H170zM170 70h9.5v9.5H170z" class="days"/></g><g fill="#f2f2f280" class="weeks" cursor="pointer"><path d="M180 80h9.5v9.5H180zM180 20h9.5v9.5H180zM180 30h9.5v9.5H180zM180 40h9.5v9.5H180zM180 50h9.5v9.5H180zM180 60h9.5v9.5H180zM180 70h9.5v9.5H180z" class="days"/></g><g fill="#f2f2f280" class="weeks" cursor="pointer"><path d="M190 80h9.5v9.5H190zM190 20h9.5v9.5H190zM190 30h9.5v9.5H190zM190 40h9.5v9.5H190zM190 50h9.5v9.5H190zM190 60h9.5v9.5H190zM190 70h9.5v9.5H190z" class="days"/></g><g class="weeks" cursor="pointer"><path fill="#f2f2f280" d="M200 80h9.5v9.5H200z" class="days"/><path fill="#dddddd80" d="M200 20h9.5v9.5H200zM200 30h9.5v9.5H200zM200 40h9.5v9.5H200zM200 50h9.5v9.5H200zM200 60h9.5v9.5H200zM200 70h9.5v9.5H200z" class="days"/></g><g fill="#dddddd80" class="weeks" cursor="pointer"><path d="M210 80h9.5v9.5H210zM210 20h9.5v9.5H210zM210 30h9.5v9.5H210zM210 40h9.5v9.5H210zM210 50h9.5v9.5H210zM210 60h9.5v9.5H210zM210 70h9.5v9.5H210z" class="days"/></g><g fill="#dddddd80" class="weeks" cursor="pointer"><path d="M220 80h9.5v9.5H220zM220 20h9.5v9.5H220zM220 30h9.5v9.5H220zM220 40h9.5v9.5H220zM220 50h9.5v9.5H220zM220 60h9.5v9.5H220zM220 70h9.5v9.5H220z" class="days"/></g><g fill="#dddddd80" class="weeks" cursor="pointer"><path d="M230 80h9.5v9.5H230zM230 20h9.5v9.5H230zM230 30h9.5v9.5H230zM230 40h9.5v9.5H230zM230 50h9.5v9.5H230zM230 60h9.5v9.5H230zM230 70h9.5v9.5H230z" class="days"/></g><g class="weeks" cursor="pointer"><path fill="#dddddd80" d="M240 80h9.5v9.5H240zM240 20h9.5v9.5H240zM240 30h9.5v9.5H240zM240 40h9.5v9.5H240z" class="days"/><path fill="#f2f2f280" d="M240 50h9.5v9.5H240zM240 60h9.5v9.5H240zM240 70h9.5v9.5H240z" class="days"/></g><g fill="#f2f2f280" class="weeks" cursor="pointer"><path d="M250 80h9.5v9.5H250zM250 20h9.5v9.5H250zM250 30h9.5v9.5H250zM250 40h9.5v9.5H250zM250 50h9.5v9.5H250zM250 60h9.5v9.5H250zM250 70h9.5v9.5H250z" class="days"/></g><g fill="#f2f2f280" class="weeks" cursor="pointer"><path d="M260 80h9.5v9.5H260zM260 20h9.5v9.5H260zM260 30h9.5v9.5H260zM260 40h9.5v9.5H260zM260 50h9.5v9.5H260zM260 60h9.5v9.5H260zM260 70h9.5v9.5H260z" class="days"/></g><g fill="#f2f2f280" class="weeks" cursor="pointer"><path d="M270 80h9.5v9.5H270zM270 20h9.5v9.5H270zM270 30h9.5v9.5H270zM270 40h9.5v9.5H270zM270 50h9.5v9.5H270zM270 60h9.5v9.5H270zM270 70h9.5v9.5H270z" class="days"/></g><g class="weeks" cursor="pointer"><path fill="#f2f2f280" d="M280 80h9.5v9.5H280zM280 20h9.5v9.5H280zM280 30h9.5v9.5H280zM280 40h9.5v9.5H280zM280 50h9.5v9.5H280zM280 60h9.5v9.5H280z" class="days"/><path fill="#dddddd80" d="M280 70h9.5v9.5H280z" class="days"/></g><g fill="#dddddd80" class="weeks" cursor="pointer"><path d="M290 80h9.5v9.5H290zM290 20h9.5v9.5H290zM290 30h9.5v9.5H290zM290 40h9.5v9.5H290zM290 50h9.5v9.5H290zM290 60h9.5v9.5H290zM290 70h9.5v9.5H290z" class="days"/></g><g fill="#dddddd80" class="weeks" cursor="pointer"><path d="M300 80h9.5v9.5H300zM300 20h9.5v9.5H300zM300 30h9.5v9.5H300zM300 40h9.5v9.5H300zM300 50h9.5v9.5H300zM300 60h9.5v9.5H300zM300 70h9.5v9.5H300z" class="days"/></g><g fill="#dddddd80" class="weeks" cursor="pointer"><path d="M310 80h9.5v9.5H310zM310 20h9.5v9.5H310zM310 30h9.5v9.5H310zM310 40h9.5v9.5H310zM310 50h9.5v9.5H310zM310 60h9.5v9.5H310zM310 70h9.5v9.5H310z" class="days"/></g><g fill="#dddddd80" class="weeks" cursor="pointer"><path d="M320 80h9.5v9.5H320zM320 20h9.5v9.5H320zM320 30h9.5v9.5H320zM320 40h9.5v9.5H320zM320 50h9.5v9.5H320zM320 60h9.5v9.5H320zM320 70h9.5v9.5H320z" class="days"/></g><g class="weeks" cursor="pointer"><path fill="#dddddd80" d="M330 80h9.5v9.5H330zM330 20h9.5v9.5H330z" class="days"/><path fill="#f2f2f280" d="M330 30h9.5v9.5H330zM330 40h9.5v9.5H330zM330 50h9.5v9.5H330zM330 60h9.5v9.5H330zM330 70h9.5v9.5H330z" class="days"/></g><g fill="#f2f2f280" class="weeks" cursor="pointer"><path d="M340 80h9.5v9.5H340zM340 20h9.5v9.5H340zM340 30h9.5v9.5H340zM340 40h9.5v9.5H340zM340 50h9.5v9.5H340zM340 60h9.5v9.5H340zM340 70h9.5v9.5H340z" class="days"/></g><g fill="#f2f2f280" class="weeks" cursor="pointer"><path d="M350 80h9.5v9.5H350zM350 20h9.5v9.5H350zM350 30h9.5v9.5H350zM350 40h9.5v9.5H350zM350 50h9.5v9.5H350zM350 60h9.5v9.5H350zM350 70h9.5v9.5H350z" class="days"/></g><g fill="#f2f2f280" class="weeks" cursor="pointer"><path d="M360 80h9.5v9.5H360zM360 20h9.5v9.5H360zM360 30h9.5v9.5H360zM360 40h9.5v9.5H360zM360 50h9.5v9.5H360zM360 60h9.5v9.5H360zM360 70h9.5v9.5H360z" class="days"/></g><g class="weeks" cursor="pointer"><path fill="#f2f2f280" d="M370 80h9.5v9.5H370zM370 20h9.5v9.5H370zM370 30h9.5v9.5H370zM370 40h9.5v9.5H370zM370 50h9.5v9.5H370z" class="days"/><path fill="#dddddd80" d="M370 60h9.5v9.5H370zM370 70h9.5v9.5H370z" class="days"/></g><g fill="#dddddd80" class="weeks" cursor="pointer"><path d="M380 80h9.5v9.5H380zM380 20h9.5v9.5H380zM380 30h9.5v9.5H380zM380 40h9.5v9.5H380zM380 50h9.5v9.5H380zM380 60h9.5v9.5H380zM380 70h9.5v9.5H380z" class="days"/></g><g fill="#dddddd80" class="weeks" cursor="pointer"><path d="M390 80h9.5v9.5H390zM390 20h9.5v9.5H390zM390 30h9.5v9.5H390zM390 40h9.5v9.5H390zM390 50h9.5v9.5H390zM390 60h9.5v9.5H390zM390 70h9.5v9.5H390z" class="days"/></g><g fill="#dddddd80" class="weeks" cursor="pointer"><path d="M400 80h9.5v9.5H400zM400 20h9.5v9.5H400zM400 30h9.5v9.5H400zM400 40h9.5v9.5H400zM400 50h9.5v9.5H400zM400 60h9.5v9.5H400zM400 70h9.5v9.5H400z" class="days"/></g><g fill="#dddddd80" class="weeks" cursor="pointer"><path d="M410 80h9.5v9.5H410zM410 20h9.5v9.5H410zM410 30h9.5v9.5H410zM410 40h9.5v9.5H410zM410 50h9.5v9.5H410zM410 60h9.5v9.5H410zM410 70h9.5v9.5H410z" class="days"/></g><g fill="#f2f2f280" class="weeks" cursor="pointer"><path d="M420 80h9.5v9.5H420zM420 20h9.5v9.5H420zM420 30h9.5v9.5H420zM420 40h9.5v9.5H420zM420 50h9.5v9.5H420zM420 60h9.5v9.5H420zM420 70h9.5v9.5H420z" class="days"/></g><g fill="#f2f2f280" class="weeks" cursor="pointer"><path d="M430 80h9.5v9.5H430zM430 20h9.5v9.5H430zM430 30h9.5v9.5H430zM430 40h9.5v9.5H430zM430 50h9.5v9.5H430zM430 60h9.5v9.5H430zM430 70h9.5v9.5H430z" class="days"/></g><g fill="#f2f2f280" class="weeks" cursor="pointer"><path d="M440 80h9.5v9.5H440zM440 20h9.5v9.5H440zM440 30h9.5v9.5H440zM440 40h9.5v9.5H440zM440 50h9.5v9.5H440zM440 60h9.5v9.5H440zM440 70h9.5v9.5H440z" class="days"/></g><g fill="#f2f2f280" class="weeks" cursor="pointer"><path d="M450 80h9.5v9.5H450zM450 20h9.5v9.5H450zM450 30h9.5v9.5H450zM450 40h9.5v9.5H450zM450 50h9.5v9.5H450zM450 60h9.5v9.5H450zM450 70h9.5v9.5H450z" class="days"/></g><g class="weeks" cursor="pointer"><path fill="#f2f2f280" d="M460 80h9.5v9.5H460zM460 20h9.5v9.5H460zM460 30h9.5v9.5H460z" class="days"/><path fill="#dddddd80" d="M460 40h9.5v9.5H460zM460 50h9.5v9.5H460zM460 60h9.5v9.5H460zM460 70h9.5v9.5H460z" class="days"/></g><g fill="#dddddd80" class="weeks" cursor="pointer"><path d="M470 80h9.5v9.5H470zM470 20h9.5v9.5H470zM470 30h9.5v9.5H470zM470 40h9.5v9.5H470zM470 50h9.5v9.5H470zM470 60h9.5v9.5H470zM470 70h9.5v9.5H470z" class="days"/></g><g fill="#dddddd80" class="weeks" cursor="pointer"><path d="M480 80h9.5v9.5H480zM480 20h9.5v9.5H480zM480 30h9.5v9.5H480zM480 40h9.5v9.5H480zM480 50h9.5v9.5H480zM480 60h9.5v9.5H480zM480 70h9.5v9.5H480z" class="days"/></g><g fill="#dddddd80" class="weeks" cursor="pointer"><path d="M490 80h9.5v9.5H490zM490 20h9.5v9.5H490zM490 30h9.5v9.5H490zM490 40h9.5v9.5H490zM490 50h9.5v9.5H490zM490 60h9.5v9.5H490zM490 70h9.5v9.5H490z" class="days"/></g><g class="weeks" cursor="pointer"><path fill="#dddddd80" d="M500 80h9.5v9.5H500zM500 20h9.5v9.5H500zM500 30h9.5v9.5H500zM500 40h9.5v9.5H500zM500 50h9.5v9.5H500z" class="days"/><path fill="#f2f2f280" d="M500 60h9.5v9.5H500zM500 70h9.5v9.5H500z" class="days"/></g><g fill="#f2f2f280" class="weeks" cursor="pointer"><path d="M510 80h9.5v9.5H510zM510 20h9.5v9.5H510zM510 30h9.5v9.5H510zM510 40h9.5v9.5H510zM510 50h9.5v9.5H510zM510 60h9.5v9.5H510zM510 70h9.5v9.5H510z" class="days"/></g><g fill="#f2f2f280" class="weeks" cursor="pointer"><path d="M520 80h9.5v9.5H520zM520 20h9.5v9.5H520zM520 30h9.5v9.5H520zM520 40h9.5v9.5H520zM520 50h9.5v9.5H520zM520 60h9.5v9.5H520zM520 70h9.5v9.5H520z" class="days"/></g><g fill="#f2f2f280" class="weeks" cursor="pointer"><path d="M530 80h9.5v9.5H530zM530 20h9.5v9.5H530zM530 30h9.5v9.5H530zM530 40h9.5v9.5H530zM530 50h9.5v9.5H530zM530 60h9.5v9.5H530zM530 70h9.5v9.5H530z" class="days"/></g><g fill="#f2f2f280" class="weeks" cursor="pointer"><path d="M540 80h9.5v9.5H540zM540 20h9.5v9.5H540zM540 30h9.5v9.5H540zM540 40h9.5v9.5H540zM540 50h9.5v9.5H540zM540 60h9.5v9.5H540zM540 70h9.5v9.5H540z" class="days"/></g><g class="weeks"><path fill="#f2f2f280" d="M550 80h9.5v9.5H550z" class="days" cursor="pointer"/></g><g fill="none" stroke="#fff" class="month-divider"><path d="M30 80H20v10h40V40h10V20H30Z"/><path d="M70 40H60v50h40V40h10V20H70Z"/><path d="M110 40h-10v50h40V70h10V20h-40Z"/><path d="M150 70h-10v20h60V20h-50Z"/><path d="M200 20h-10v70h40V50h10V20h-40Z"/><path d="M240 50h-10v40h40V70h10V20h-40Z"/><path d="M280 70h-10v20h50V30h10V20h-50Z"/><path d="M330 30h-10v60h40V60h10V20h-40Z"/><path d="M370 60h-10v30h40V80h10V20h-40ZM420 80h-10v10h40V40h10V20h-40Z"/><path d="M460 40h-10v50h40V60h10V20h-40Z"/><path d="M500 60h-10v30h60V20h-50Z"/></g></g><g class="texts" font-family="-apple-system, BlinkMacSystemFont, sans-serif" font-size="35%" pointer-events="none"><g fill="#333" class="weeks" text-anchor="middle"><text x="4.5" y="7.5" class="days" transform="translate(30 80)">1</text><text x="4.5" y="7.5" class="days" transform="translate(30 20)">2</text><text x="4.5" y="7.5" class="days" transform="translate(30 30)">3</text><text x="4.5" y="7.5" class="days" transform="translate(30 40)">4</text><text x="4.5" y="7.5" class="days" transform="translate(30 50)">5</text><text x="4.5" y="7.5" class="days" transform="translate(30 60)">6</text><text x="4.5" y="7.5" class="days" transform="translate(30 70)">7</text></g><g fill="#333" class="weeks" text-anchor="middle"><text x="4.5" y="7.5" class="days" transform="translate(40 80)">8</text><text x="4.5" y="7.5" class="days" transform="translate(40 20)">9</text><text x="4.5" y="7.5" class="days" transform="translate(40 30)">10</text><text x="4.5" y="7.5" class="days" transform="translate(40 40)">11</text><text x="4.5" y="7.5" class="days" transform="translate(40 50)">12</text><text x="4.5" y="7.5" class="days" transform="translate(40 60)">13</text><text x="4.5" y="7.5" class="days" transform="translate(40 70)">14</text></g><g fill="#333" class="weeks" text-anchor="middle"><text x="4.5" y="7.5" class="days" transform="translate(50 80)">15</text><text x="4.5" y="7.5" class="days" transform="translate(50 20)">16</text><text x="4.5" y="7.5" class="days" transform="translate(50 30)">17</text><text x="4.5" y="7.5" class="days" transform="translate(50 40)">18</text><text x="4.5" y="7.5" class="days" transform="translate(50 50)">19</text><text x="4.5" y="7.5" class="days" transform="translate(50 60)">20</text><text x="4.5" y="7.5" class="days" transform="translate(50 70)">21</text></g><g fill="#333" class="weeks" text-anchor="middle"><text x="4.5" y="7.5" class="days" transform="translate(60 80)">22</text><text x="4.5" y="7.5" class="days" transform="translate(60 20)">23</text><text x="4.5" y="7.5" class="days" transform="translate(60 30)">24</text><text x="4.5" y="7.5" class="days" transform="translate(60 40)">25</text><text x="4.5" y="7.5" class="days" transform="translate(60 50)">26</text><text x="4.5" y="7.5" class="days" transform="translate(60 60)">27</text><text x="4.5" y="7.5" class="days" transform="translate(60 70)">28</text></g><g class="weeks" text-anchor="middle"><text x="4.5" y="7.5" fill="#333" class="days" transform="translate(70 80)">29</text><text x="4.5" y="7.5" fill="#333" class="days" transform="translate(70 20)">30</text><text x="4.5" y="7.5" fill="#333" class="days" transform="translate(70 30)">31</text><text x="4.5" y="7.5" fill="#666" class="days" transform="translate(70 40)">1</text><text x="4.5" y="7.5" fill="#666" class="days" transform="translate(70 50)">2</text><text x="4.5" y="7.5" fill="#666" class="days" transform="translate(70 60)">3</text><text x="4.5" y="7.5" fill="#666" class="days" transform="translate(70 70)">4</text></g><g fill="#666" class="weeks" text-anchor="middle"><text x="4.5" y="7.5" class="days" transform="translate(80 80)">5</text><text x="4.5" y="7.5" class="days" transform="translate(80 20)">6</text><text x="4.5" y="7.5" class="days" transform="translate(80 30)">7</text><text x="4.5" y="7.5" class="days" transform="translate(80 40)">8</text><text x="4.5" y="7.5" class="days" transform="translate(80 50)">9</text><text x="4.5" y="7.5" class="days" transform="translate(80 60)">10</text><text x="4.5" y="7.5" class="days" transform="translate(80 70)">11</text></g><g fill="#666" class="weeks" text-anchor="middle"><text x="4.5" y="7.5" class="days" transform="translate(90 80)">12</text><text x="4.5" y="7.5" class="days" transform="translate(90 20)">13</text><text x="4.5" y="7.5" class="days" transform="translate(90 30)">14</text><text x="4.5" y="7.5" class="days" transform="translate(90 40)">15</text><text x="4.5" y="7.5" class="days" transform="translate(90 50)">16</text><text x="4.5" y="7.5" class="days" transform="translate(90 60)">17</text><text x="4.5" y="7.5" class="days" transform="translate(90 70)">18</text></g><g fill="#666" class="weeks" text-anchor="middle"><text x="4.5" y="7.5" class="days" transform="translate(100 80)">19</text><text x="4.5" y="7.5" class="days" transform="translate(100 20)">20</text><text x="4.5" y="7.5" class="days" transform="translate(100 30)">21</text><text x="4.5" y="7.5" class="days" transform="translate(100 40)">22</text><text x="4.5" y="7.5" class="days" transform="translate(100 50)">23</text><text x="4.5" y="7.5" class="days" transform="translate(100 60)">24</text><text x="4.5" y="7.5" class="days" transform="translate(100 70)">25</text></g><g class="weeks" text-anchor="middle"><text x="4.5" y="7.5" fill="#666" class="days" transform="translate(110 80)">26</text><text x="4.5" y="7.5" fill="#666" class="days" transform="translate(110 20)">27</text><text x="4.5" y="7.5" fill="#666" class="days" transform="translate(110 30)">28</text><text x="4.5" y="7.5" fill="#333" class="days" transform="translate(110 40)">1</text><text x="4.5" y="7.5" fill="#333" class="days" transform="translate(110 50)">2</text><text x="4.5" y="7.5" fill="#333" class="days" transform="translate(110 60)">3</text><text x="4.5" y="7.5" fill="#333" class="days" transform="translate(110 70)">4</text></g><g fill="#333" class="weeks" text-anchor="middle"><text x="4.5" y="7.5" class="days" transform="translate(120 80)">5</text><text x="4.5" y="7.5" class="days" transform="translate(120 20)">6</text><text x="4.5" y="7.5" class="days" transform="translate(120 30)">7</text><text x="4.5" y="7.5" class="days" transform="translate(120 40)">8</text><text x="4.5" y="7.5" class="days" transform="translate(120 50)">9</text><text x="4.5" y="7.5" class="days" transform="translate(120 60)">10</text><text x="4.5" y="7.5" class="days" transform="translate(120 70)">11</text></g><g fill="#333" class="weeks" text-anchor="middle"><text x="4.5" y="7.5" class="days" transform="translate(130 80)">12</text><text x="4.5" y="7.5" class="days" transform="translate(130 20)">13</text><text x="4.5" y="7.5" class="days" transform="translate(130 30)">14</text><text x="4.5" y="7.5" class="days" transform="translate(130 40)">15</text><text x="4.5" y="7.5" class="days" transform="translate(130 50)">16</text><text x="4.5" y="7.5" class="days" transform="translate(130 60)">17</text><text x="4.5" y="7.5" class="days" transform="translate(130 70)">18</text></g><g fill="#333" class="weeks" text-anchor="middle"><text x="4.5" y="7.5" class="days" transform="translate(140 80)">19</text><text x="4.5" y="7.5" class="days" transform="translate(140 20)">20</text><text x="4.5" y="7.5" class="days" transform="translate(140 30)">21</text><text x="4.5" y="7.5" class="days" transform="translate(140 40)">22</text><text x="4.5" y="7.5" class="days" transform="translate(140 50)">23</text><text x="4.5" y="7.5" class="days" transform="translate(140 60)">24</text><text x="4.5" y="7.5" class="days" transform="translate(140 70)">25</text></g><g class="weeks" text-anchor="middle"><text x="4.5" y="7.5" fill="#333" class="days" transform="translate(150 80)">26</text><text x="4.5" y="7.5" fill="#333" class="days" transform="translate(150 20)">27</text><text x="4.5" y="7.5" fill="#333" class="days" transform="translate(150 30)">28</text><text x="4.5" y="7.5" fill="#333" class="days" transform="translate(150 40)">29</text><text x="4.5" y="7.5" fill="#333" class="days" transform="translate(150 50)">30</text><text x="4.5" y="7.5" fill="#333" class="days" transform="translate(150 60)">31</text><text x="4.5" y="7.5" fill="#666" class="days" transform="translate(150 70)">1</text></g><g fill="#666" class="weeks" text-anchor="middle"><text x="4.5" y="7.5" class="days" transform="translate(160 80)">2</text><text x="4.5" y="7.5" class="days" transform="translate(160 20)">3</text><text x="4.5" y="7.5" class="days" transform="translate(160 30)">4</text><text x="4.5" y="7.5" class="days" transform="translate(160 40)">5</text><text x="4.5" y="7.5" class="days" transform="translate(160 50)">6</text><text x="4.5" y="7.5" class="days" transform="translate(160 60)">7</text><text x="4.5" y="7.5" class="days" transform="translate(160 70)">8</text></g><g fill="#666" class="weeks" text-anchor="middle"><text x="4.5" y="7.5" class="days" transform="translate(170 80)">9</text><text x="4.5" y="7.5" class="days" transform="translate(170 20)">10</text><text x="4.5" y="7.5" class="days" transform="translate(170 30)">11</text><text x="4.5" y="7.5" class="days" transform="translate(170 40)">12</text><text x="4.5" y="7.5" class="days" transform="translate(170 50)">13</text><text x="4.5" y="7.5" class="days" transform="translate(170 60)">14</text><text x="4.5" y="7.5" class="days" transform="translate(170 70)">15</text></g><g fill="#666" class="weeks" text-anchor="middle"><text x="4.5" y="7.5" class="days" transform="translate(180 80)">16</text><text x="4.5" y="7.5" class="days" transform="translate(180 20)">17</text><text x="4.5" y="7.5" class="days" transform="translate(180 30)">18</text><text x="4.5" y="7.5" class="days" transform="translate(180 40)">19</text><text x="4.5" y="7.5" class="days" transform="translate(180 50)">20</text><text x="4.5" y="7.5" class="days" transform="translate(180 60)">21</text><text x="4.5" y="7.5" class="days" transform="translate(180 70)">22</text></g><g fill="#666" class="weeks" text-anchor="middle"><text x="4.5" y="7.5" class="days" transform="translate(190 80)">23</text><text x="4.5" y="7.5" class="days" transform="translate(190 20)">24</text><text x="4.5" y="7.5" class="days" transform="translate(190 30)">25</text><text x="4.5" y="7.5" class="days" transform="translate(190 40)">26</text><text x="4.5" y="7.5" class="days" transform="translate(190 50)">27</text><text x="4.5" y="7.5" class="days" transform="translate(190 60)">28</text><text x="4.5" y="7.5" class="days" transform="translate(190 70)">29</text></g><g class="weeks" text-anchor="middle"><text x="4.5" y="7.5" fill="#666" class="days" transform="translate(200 80)">30</text><text x="4.5" y="7.5" fill="#333" class="days" transform="translate(200 20)">1</text><text x="4.5" y="7.5" fill="#333" class="days" transform="translate(200 30)">2</text><text x="4.5" y="7.5" fill="#333" class="days" transform="translate(200 40)">3</text><text x="4.5" y="7.5" fill="#333" class="days" transform="translate(200 50)">4</text><text x="4.5" y="7.5" fill="#333" class="days" transform="translate(200 60)">5</text><text x="4.5" y="7.5" fill="#333" class="days" transform="translate(200 70)">6</text></g><g fill="#333" class="weeks" text-anchor="middle"><text x="4.5" y="7.5" class="days" transform="translate(210 80)">7</text><text x="4.5" y="7.5" class="days" transform="translate(210 20)">8</text><text x="4.5" y="7.5" class="days" transform="translate(210 30)">9</text><text x="4.5" y="7.5" class="days" transform="translate(210 40)">10</text><text x="4.5" y="7.5" class="days" transform="translate(210 50)">11</text><text x="4.5" y="7.5" class="days" transform="translate(210 60)">12</text><text x="4.5" y="7.5" class="days" transform="translate(210 70)">13</text></g><g fill="#333" class="weeks" text-anchor="middle"><text x="4.5" y="7.5" class="days" transform="translate(220 80)">14</text><text x="4.5" y="7.5" class="days" transform="translate(220 20)">15</text><text x="4.5" y="7.5" class="days" transform="translate(220 30)">16</text><text x="4.5" y="7.5" class="days" transform="translate(220 40)">17</text><text x="4.5" y="7.5" class="days" transform="translate(220 50)">18</text><text x="4.5" y="7.5" class="days" transform="translate(220 60)">19</text><text x="4.5" y="7.5" class="days" transform="translate(220 70)">20</text></g><g fill="#333" class="weeks" text-anchor="middle"><text x="4.5" y="7.5" class="days" transform="translate(230 80)">21</text><text x="4.5" y="7.5" class="days" transform="translate(230 20)">22</text><text x="4.5" y="7.5" class="days" transform="translate(230 30)">23</text><text x="4.5" y="7.5" class="days" transform="translate(230 40)">24</text><text x="4.5" y="7.5" class="days" transform="translate(230 50)">25</text><text x="4.5" y="7.5" class="days" transform="translate(230 60)">26</text><text x="4.5" y="7.5" class="days" transform="translate(230 70)">27</text></g><g class="weeks" text-anchor="middle"><text x="4.5" y="7.5" fill="#333" class="days" transform="translate(240 80)">28</text><text x="4.5" y="7.5" fill="#333" class="days" transform="translate(240 20)">29</text><text x="4.5" y="7.5" fill="#333" class="days" transform="translate(240 30)">30</text><text x="4.5" y="7.5" fill="#333" class="days" transform="translate(240 40)">31</text><text x="4.5" y="7.5" fill="#666" class="days" transform="translate(240 50)">1</text><text x="4.5" y="7.5" fill="#666" class="days" transform="translate(240 60)">2</text><text x="4.5" y="7.5" fill="#666" class="days" transform="translate(240 70)">3</text></g><g fill="#666" class="weeks" text-anchor="middle"><text x="4.5" y="7.5" class="days" transform="translate(250 80)">4</text><text x="4.5" y="7.5" class="days" transform="translate(250 20)">5</text><text x="4.5" y="7.5" class="days" transform="translate(250 30)">6</text><text x="4.5" y="7.5" class="days" transform="translate(250 40)">7</text><text x="4.5" y="7.5" class="days" transform="translate(250 50)">8</text><text x="4.5" y="7.5" class="days" transform="translate(250 60)">9</text><text x="4.5" y="7.5" class="days" transform="translate(250 70)">10</text></g><g fill="#666" class="weeks" text-anchor="middle"><text x="4.5" y="7.5" class="days" transform="translate(260 80)">11</text><text x="4.5" y="7.5" class="days" transform="translate(260 20)">12</text><text x="4.5" y="7.5" class="days" transform="translate(260 30)">13</text><text x="4.5" y="7.5" class="days" transform="translate(260 40)">14</text><text x="4.5" y="7.5" class="days" transform="translate(260 50)">15</text><text x="4.5" y="7.5" class="days" transform="translate(260 60)">16</text><text x="4.5" y="7.5" class="days" transform="translate(260 70)">17</text></g><g fill="#666" class="weeks" text-anchor="middle"><text x="4.5" y="7.5" class="days" transform="translate(270 80)">18</text><text x="4.5" y="7.5" class="days" transform="translate(270 20)">19</text><text x="4.5" y="7.5" class="days" transform="translate(270 30)">20</text><text x="4.5" y="7.5" class="days" transform="translate(270 40)">21</text><text x="4.5" y="7.5" class="days" transform="translate(270 50)">22</text><text x="4.5" y="7.5" class="days" transform="translate(270 60)">23</text><text x="4.5" y="7.5" class="days" transform="translate(270 70)">24</text></g><g class="weeks" text-anchor="middle"><text x="4.5" y="7.5" fill="#666" class="days" transform="translate(280 80)">25</text><text x="4.5" y="7.5" fill="#666" class="days" transform="translate(280 20)">26</text><text x="4.5" y="7.5" fill="#666" class="days" transform="translate(280 30)">27</text><text x="4.5" y="7.5" fill="#666" class="days" transform="translate(280 40)">28</text><text x="4.5" y="7.5" fill="#666" class="days" transform="translate(280 50)">29</text><text x="4.5" y="7.5" fill="#666" class="days" transform="translate(280 60)">30</text><text x="4.5" y="7.5" fill="#333" class="days" transform="translate(280 70)">1</text></g><g fill="#333" class="weeks" text-anchor="middle"><text x="4.5" y="7.5" class="days" transform="translate(290 80)">2</text><text x="4.5" y="7.5" class="days" transform="translate(290 20)">3</text><text x="4.5" y="7.5" class="days" transform="translate(290 30)">4</text><text x="4.5" y="7.5" class="days" transform="translate(290 40)">5</text><text x="4.5" y="7.5" class="days" transform="translate(290 50)">6</text><text x="4.5" y="7.5" class="days" transform="translate(290 60)">7</text><text x="4.5" y="7.5" class="days" transform="translate(290 70)">8</text></g><g fill="#333" class="weeks" text-anchor="middle"><text x="4.5" y="7.5" class="days" transform="translate(300 80)">9</text><text x="4.5" y="7.5" class="days" transform="translate(300 20)">10</text><text x="4.5" y="7.5" class="days" transform="translate(300 30)">11</text><text x="4.5" y="7.5" class="days" transform="translate(300 40)">12</text><text x="4.5" y="7.5" class="days" transform="translate(300 50)">13</text><text x="4.5" y="7.5" class="days" transform="translate(300 60)">14</text><text x="4.5" y="7.5" class="days" transform="translate(300 70)">15</text></g><g fill="#333" class="weeks" text-anchor="middle"><text x="4.5" y="7.5" class="days" transform="translate(310 80)">16</text><text x="4.5" y="7.5" class="days" transform="translate(310 20)">17</text><text x="4.5" y="7.5" class="days" transform="translate(310 30)">18</text><text x="4.5" y="7.5" class="days" transform="translate(310 40)">19</text><text x="4.5" y="7.5" class="days" transform="translate(310 50)">20</text><text x="4.5" y="7.5" class="days" transform="translate(310 60)">21</text><text x="4.5" y="7.5" class="days" transform="translate(310 70)">22</text></g><g fill="#333" class="weeks" text-anchor="middle"><text x="4.5" y="7.5" class="days" transform="translate(320 80)">23</text><text x="4.5" y="7.5" class="days" transform="translate(320 20)">24</text><text x="4.5" y="7.5" class="days" transform="translate(320 30)">25</text><text x="4.5" y="7.5" class="days" transform="translate(320 40)">26</text><text x="4.5" y="7.5" class="days" transform="translate(320 50)">27</text><text x="4.5" y="7.5" class="days" transform="translate(320 60)">28</text><text x="4.5" y="7.5" class="days" transform="translate(320 70)">29</text></g><g class="weeks" text-anchor="middle"><text x="4.5" y="7.5" fill="#333" class="days" transform="translate(330 80)">30</text><text x="4.5" y="7.5" fill="#333" class="days" transform="translate(330 20)">31</text><text x="4.5" y="7.5" fill="#666" class="days" transform="translate(330 30)">1</text><text x="4.5" y="7.5" fill="#666" class="days" transform="translate(330 40)">2</text><text x="4.5" y="7.5" fill="#666" class="days" transform="translate(330 50)">3</text><text x="4.5" y="7.5" fill="#666" class="days" transform="translate(330 60)">4</text><text x="4.5" y="7.5" fill="#666" class="days" transform="translate(330 70)">5</text></g><g fill="#666" class="weeks" text-anchor="middle"><text x="4.5" y="7.5" class="days" transform="translate(340 80)">6</text><text x="4.5" y="7.5" class="days" transform="translate(340 20)">7</text><text x="4.5" y="7.5" class="days" transform="translate(340 30)">8</text><text x="4.5" y="7.5" class="days" transform="translate(340 40)">9</text><text x="4.5" y="7.5" class="days" transform="translate(340 50)">10</text><text x="4.5" y="7.5" class="days" transform="translate(340 60)">11</text><text x="4.5" y="7.5" class="days" transform="translate(340 70)">12</text></g><g fill="#666" class="weeks" text-anchor="middle"><text x="4.5" y="7.5" class="days" transform="translate(350 80)">13</text><text x="4.5" y="7.5" class="days" transform="translate(350 20)">14</text><text x="4.5" y="7.5" class="days" transform="translate(350 30)">15</text><text x="4.5" y="7.5" class="days" transform="translate(350 40)">16</text><text x="4.5" y="7.5" class="days" transform="translate(350 50)">17</text><text x="4.5" y="7.5" class="days" transform="translate(350 60)">18</text><text x="4.5" y="7.5" class="days" transform="translate(350 70)">19</text></g><g fill="#666" class="weeks" text-anchor="middle"><text x="4.5" y="7.5" class="days" transform="translate(360 80)">20</text><text x="4.5" y="7.5" class="days" transform="translate(360 20)">21</text><text x="4.5" y="7.5" class="days" transform="translate(360 30)">22</text><text x="4.5" y="7.5" class="days" transform="translate(360 40)">23</text><text x="4.5" y="7.5" class="days" transform="translate(360 50)">24</text><text x="4.5" y="7.5" class="days" transform="translate(360 60)">25</text><text x="4.5" y="7.5" class="days" transform="translate(360 70)">26</text></g><g class="weeks" text-anchor="middle"><text x="4.5" y="7.5" fill="#666" class="days" transform="translate(370 80)">27</text><text x="4.5" y="7.5" fill="#666" class="days" transform="translate(370 20)">28</text><text x="4.5" y="7.5" fill="#666" class="days" transform="translate(370 30)">29</text><text x="4.5" y="7.5" fill="#666" class="days" transform="translate(370 40)">30</text><text x="4.5" y="7.5" fill="#666" class="days" transform="translate(370 50)">31</text><text x="4.5" y="7.5" fill="#333" class="days" transform="translate(370 60)">1</text><text x="4.5" y="7.5" fill="#333" class="days" transform="translate(370 70)">2</text></g><g fill="#333" class="weeks" text-anchor="middle"><text x="4.5" y="7.5" class="days" transform="translate(380 80)">3</text><text x="4.5" y="7.5" class="days" transform="translate(380 20)">4</text><text x="4.5" y="7.5" class="days" transform="translate(380 30)">5</text><text x="4.5" y="7.5" class="days" transform="translate(380 40)">6</text><text x="4.5" y="7.5" class="days" transform="translate(380 50)">7</text><text x="4.5" y="7.5" class="days" transform="translate(380 60)">8</text><text x="4.5" y="7.5" class="days" transform="translate(380 70)">9</text></g><g fill="#333" class="weeks" text-anchor="middle"><text x="4.5" y="7.5" class="days" transform="translate(390 80)">10</text><text x="4.5" y="7.5" class="days" transform="translate(390 20)">11</text><text x="4.5" y="7.5" class="days" transform="translate(390 30)">12</text><text x="4.5" y="7.5" class="days" transform="translate(390 40)">13</text><text x="4.5" y="7.5" class="days" transform="translate(390 50)">14</text><text x="4.5" y="7.5" class="days" transform="translate(390 60)">15</text><text x="4.5" y="7.5" class="days" transform="translate(390 70)">16</text></g><g fill="#333" class="weeks" text-anchor="middle"><text x="4.5" y="7.5" class="days" transform="translate(400 80)">17</text><text x="4.5" y="7.5" class="days" transform="translate(400 20)">18</text><text x="4.5" y="7.5" class="days" transform="translate(400 30)">19</text><text x="4.5" y="7.5" class="days" transform="translate(400 40)">20</text><text x="4.5" y="7.5" class="days" transform="translate(400 50)">21</text><text x="4.5" y="7.5" class="days" transform="translate(400 60)">22</text><text x="4.5" y="7.5" class="days" transform="translate(400 70)">23</text></g><g fill="#333" class="weeks" text-anchor="middle"><text x="4.5" y="7.5" class="days" transform="translate(410 80)">24</text><text x="4.5" y="7.5" class="days" transform="translate(410 20)">25</text><text x="4.5" y="7.5" class="days" transform="translate(410 30)">26</text><text x="4.5" y="7.5" class="days" transform="translate(410 40)">27</text><text x="4.5" y="7.5" class="days" transform="translate(410 50)">28</text><text x="4.5" y="7.5" class="days" transform="translate(410 60)">29</text><text x="4.5" y="7.5" class="days" transform="translate(410 70)">30</text></g><g fill="#666" class="weeks" text-anchor="middle"><text x="4.5" y="7.5" class="days" transform="translate(420 80)">1</text><text x="4.5" y="7.5" class="days" transform="translate(420 20)">2</text><text x="4.5" y="7.5" class="days" transform="translate(420 30)">3</text><text x="4.5" y="7.5" class="days" transform="translate(420 40)">4</text><text x="4.5" y="7.5" class="days" transform="translate(420 50)">5</text><text x="4.5" y="7.5" class="days" transform="translate(420 60)">6</text><text x="4.5" y="7.5" class="days" transform="translate(420 70)">7</text></g><g fill="#666" class="weeks" text-anchor="middle"><text x="4.5" y="7.5" class="days" transform="translate(430 80)">8</text><text x="4.5" y="7.5" class="days" transform="translate(430 20)">9</text><text x="4.5" y="7.5" class="days" transform="translate(430 30)">10</text><text x="4.5" y="7.5" class="days" transform="translate(430 40)">11</text><text x="4.5" y="7.5" class="days" transform="translate(430 50)">12</text><text x="4.5" y="7.5" class="days" transform="translate(430 60)">13</text><text x="4.5" y="7.5" class="days" transform="translate(430 70)">14</text></g><g fill="#666" class="weeks" text-anchor="middle"><text x="4.5" y="7.5" class="days" transform="translate(440 80)">15</text><text x="4.5" y="7.5" class="days" transform="translate(440 20)">16</text><text x="4.5" y="7.5" class="days" transform="translate(440 30)">17</text><text x="4.5" y="7.5" class="days" transform="translate(440 40)">18</text><text x="4.5" y="7.5" class="days" transform="translate(440 50)">19</text><text x="4.5" y="7.5" class="days" transform="translate(440 60)">20</text><text x="4.5" y="7.5" class="days" transform="translate(440 70)">21</text></g><g fill="#666" class="weeks" text-anchor="middle"><text x="4.5" y="7.5" class="days" transform="translate(450 80)">22</text><text x="4.5" y="7.5" class="days" transform="translate(450 20)">23</text><text x="4.5" y="7.5" class="days" transform="translate(450 30)">24</text><text x="4.5" y="7.5" class="days" transform="translate(450 40)">25</text><text x="4.5" y="7.5" class="days" transform="translate(450 50)">26</text><text x="4.5" y="7.5" class="days" transform="translate(450 60)">27</text><text x="4.5" y="7.5" class="days" transform="translate(450 70)">28</text></g><g class="weeks" text-anchor="middle"><text x="4.5" y="7.5" fill="#666" class="days" transform="translate(460 80)">29</text><text x="4.5" y="7.5" fill="#666" class="days" transform="translate(460 20)">30</text><text x="4.5" y="7.5" fill="#666" class="days" transform="translate(460 30)">31</text><text x="4.5" y="7.5" fill="#333" class="days" transform="translate(460 40)">1</text><text x="4.5" y="7.5" fill="#333" class="days" transform="translate(460 50)">2</text><text x="4.5" y="7.5" fill="#333" class="days" transform="translate(460 60)">3</text><text x="4.5" y="7.5" fill="#333" class="days" transform="translate(460 70)">4</text></g><g fill="#333" class="weeks" text-anchor="middle"><text x="4.5" y="7.5" class="days" transform="translate(470 80)">5</text><text x="4.5" y="7.5" class="days" transform="translate(470 20)">6</text><text x="4.5" y="7.5" class="days" transform="translate(470 30)">7</text><text x="4.5" y="7.5" class="days" transform="translate(470 40)">8</text><text x="4.5" y="7.5" class="days" transform="translate(470 50)">9</text><text x="4.5" y="7.5" class="days" transform="translate(470 60)">10</text><text x="4.5" y="7.5" class="days" transform="translate(470 70)">11</text></g><g fill="#333" class="weeks" text-anchor="middle"><text x="4.5" y="7.5" class="days" transform="translate(480 80)">12</text><text x="4.5" y="7.5" class="days" transform="translate(480 20)">13</text><text x="4.5" y="7.5" class="days" transform="translate(480 30)">14</text><text x="4.5" y="7.5" class="days" transform="translate(480 40)">15</text><text x="4.5" y="7.5" class="days" transform="translate(480 50)">16</text><text x="4.5" y="7.5" class="days" transform="translate(480 60)">17</text><text x="4.5" y="7.5" class="days" transform="translate(480 70)">18</text></g><g fill="#333" class="weeks" text-anchor="middle"><text x="4.5" y="7.5" class="days" transform="translate(490 80)">19</text><text x="4.5" y="7.5" class="days" transform="translate(490 20)">20</text><text x="4.5" y="7.5" class="days" transform="translate(490 30)">21</text><text x="4.5" y="7.5" class="days" transform="translate(490 40)">22</text><text x="4.5" y="7.5" class="days" transform="translate(490 50)">23</text><text x="4.5" y="7.5" class="days" transform="translate(490 60)">24</text><text x="4.5" y="7.5" class="days" transform="translate(490 70)">25</text></g><g class="weeks" text-anchor="middle"><text x="4.5" y="7.5" fill="#333" class="days" transform="translate(500 80)">26</text><text x="4.5" y="7.5" fill="#333" class="days" transform="translate(500 20)">27</text><text x="4.5" y="7.5" fill="#333" class="days" transform="translate(500 30)">28</text><text x="4.5" y="7.5" fill="#333" class="days" transform="translate(500 40)">29</text><text x="4.5" y="7.5" fill="#333" class="days" transform="translate(500 50)">30</text><text x="4.5" y="7.5" fill="#666" class="days" transform="translate(500 60)">1</text><text x="4.5" y="7.5" fill="#666" class="days" transform="translate(500 70)">2</text></g><g fill="#666" class="weeks" text-anchor="middle"><text x="4.5" y="7.5" class="days" transform="translate(510 80)">3</text><text x="4.5" y="7.5" class="days" transform="translate(510 20)">4</text><text x="4.5" y="7.5" class="days" transform="translate(510 30)">5</text><text x="4.5" y="7.5" class="days" transform="translate(510 40)">6</text><text x="4.5" y="7.5" class="days" transform="translate(510 50)">7</text><text x="4.5" y="7.5" class="days" transform="translate(510 60)">8</text><text x="4.5" y="7.5" class="days" transform="translate(510 70)">9</text></g><g fill="#666" class="weeks" text-anchor="middle"><text x="4.5" y="7.5" class="days" transform="translate(520 80)">10</text><text x="4.5" y="7.5" class="days" transform="translate(520 20)">11</text><text x="4.5" y="7.5" class="days" transform="translate(520 30)">12</text><text x="4.5" y="7.5" class="days" transform="translate(520 40)">13</text><text x="4.5" y="7.5" class="days" transform="translate(520 50)">14</text><text x="4.5" y="7.5" class="days" transform="translate(520 60)">15</text><text x="4.5" y="7.5" class="days" transform="translate(520 70)">16</text></g><g fill="#666" class="weeks" text-anchor="middle"><text x="4.5" y="7.5" class="days" transform="translate(530 80)">17</text><text x="4.5" y="7.5" class="days" transform="translate(530 20)">18</text><text x="4.5" y="7.5" class="days" transform="translate(530 30)">19</text><text x="4.5" y="7.5" class="days" transform="translate(530 40)">20</text><text x="4.5" y="7.5" class="days" transform="translate(530 50)">21</text><text x="4.5" y="7.5" class="days" transform="translate(530 60)">22</text><text x="4.5" y="7.5" class="days" transform="translate(530 70)">23</text></g><g fill="#666" class="weeks" text-anchor="middle"><text x="4.5" y="7.5" class="days" transform="translate(540 80)">24</text><text x="4.5" y="7.5" class="days" transform="translate(540 20)">25</text><text x="4.5" y="7.5" class="days" transform="translate(540 30)">26</text><text x="4.5" y="7.5" class="days" transform="translate(540 40)">27</text><text x="4.5" y="7.5" class="days" transform="translate(540 50)">28</text><text x="4.5" y="7.5" class="days" transform="translate(540 60)">29</text><text x="4.5" y="7.5" class="days" transform="translate(540 70)">30</text></g><g class="weeks"><text x="4.5" y="7.5" fill="#666" class="days" text-anchor="middle" transform="translate(550 80)">31</text></g><g class="year"><text x="-.2rem" y="-2" class="days" text-anchor="end" transform="translate(30 20)">2023</text></g><g class="months"><text y="-2" class="m" transform="translate(30 20)">Jan</text></g><g class="months"><text y="-2" class="m" transform="translate(80 20)">Feb</text></g><g class="months"><text y="-2" class="m" transform="translate(120 20)">Mar</text></g><g class="months"><text y="-2" class="m" transform="translate(160 20)">Apr</text></g><g class="months"><text y="-2" class="m" transform="translate(200 20)">May</text></g><g class="months"><text y="-2" class="m" transform="translate(250 20)">Jun</text></g><g class="months"><text y="-2" class="m" transform="translate(290 20)">Jul</text></g><g class="months"><text y="-2" class="m" transform="translate(340 20)">Aug</text></g><g class="months"><text y="-2" class="m" transform="translate(380 20)">Sep</text></g><g class="months"><text y="-2" class="m" transform="translate(420 20)">Oct</text></g><g class="months"><text y="-2" class="m" transform="translate(470 20)">Nov</text></g><g class="months"><text y="-2" class="m" transform="translate(510 20)">Dec</text></g><g class="dow" text-anchor="middle"><text x="-7" y="8" class="w" transform="translate(30 80)">Su</text><text x="-7" y="8" class="w" transform="translate(30 20)">Mo</text><text x="-7" y="8" class="w" transform="translate(30 30)">Tu</text><text x="-7" y="8" class="w" transform="translate(30 40)">We</text><text x="-7" y="8" class="w" transform="translate(30 50)">Th</text><text x="-7" y="8" class="w" transform="translate(30 60)">Fr</text><text x="-7" y="8" class="w" transform="translate(30 70)">Sa</text></g></g></svg>