<svg height="390" version="1.1" width="680" xmlns="http://www.w3.org/2000/svg" id="raphael-paper-1232" style="overflow: hidden; -webkit-tap-highlight-color: rgba(0, 0, 0, 0); user-select: none; cursor: default; vertical-align: middle; position: relative; left: -0.625px; top: -0.890625px; background-color: rgb(255, 255, 255);"><desc></desc><defs><clipPath id="rr-3A4EA59F-4FBD-4044-A6C5-4C93D1CDE092"><rect x="46.8" y="67.19999999999999" width="582.2" height="259" transform="matrix(1,0,0,1,0,0)"></rect></clipPath><clipPath id="rr-8301E7A2-D5AA-4C82-B862-A11B981BC22A"><rect x="46.8" y="67.19999999999999" width="582.2" height="259" transform="matrix(1,0,0,1,0,0)"></rect></clipPath><clipPath id="rr-EEE5FE4F-330C-4885-8820-A8683107B253"><rect x="46.8" y="67.19999999999999" width="582.2" height="259" transform="matrix(1,0,0,1,0,0)"></rect></clipPath><clipPath id="rr-3A632437-C2D4-4D94-93B8-03209B2268D9"><rect x="46.8" y="67.19999999999999" width="582.2" height="259" transform="matrix(1,0,0,1,0,0)"></rect></clipPath></defs><g class="raphael-group-1233-parentgroup"><g class="raphael-group-1234-background"><rect x="0" y="0" width="680" height="390" stroke="none" fill-opacity="1" fill="#ffffff" ry="0" rx="0"></rect><rect x="0" y="0" width="680" height="390" stroke="#415d6f" stroke-opacity="0.5" stroke-width="0" stroke-dasharray="none" fill="none" ry="0" rx="0"></rect></g><g class="raphael-group-1257-canvas"><rect x="46.8" y="67.19999999999999" width="582.2" height="259" ry="0" rx="0" stroke-width="0" stroke="none" fill-opacity="0" fill="#ffffff"></rect></g><g class="raphael-group-1235-axisbottom"><g class="raphael-group-1485-dataset-Name-group"><g class="raphael-group-1494-dataset-axis-name"><text font-family="Source Sans Pro" font-size="14px" font-weight="bold" font-style="normal" transform="matrix(0,-1,1,0,-173.3,220.1)" fill-opacity="1" fill="#5a5a5a" x="23.4" stroke="none" text-anchor="middle" y="201" style="font-family: &quot;Source Sans Pro&quot;; font-size: 14px; font-weight: bold; font-style: normal; text-anchor: middle;">Price</text></g></g><g class="raphael-group-1488-dataset-Label-group"><g class="raphael-group-1490-dataset-axis" transform="matrix(1,0,0,1,0,0)" font-family="Source Sans Pro" font-size="14px" font-weight="normal" font-style="normal" style="font-family: &quot;Source Sans Pro&quot;; font-size: 14px; font-weight: normal; font-style: normal;"><text transform="matrix(1,0,0,1,0,0)" opacity="1" fill-opacity="1" fill="#5a5a5a" font-size="14px" text-anchor="start" x="644" stroke="none" y="330" style="font-size: 14px; text-anchor: start;">$17</text><text transform="matrix(1,0,0,1,0,0)" opacity="1" fill-opacity="1" fill="#5a5a5a" font-size="14px" text-anchor="start" x="644" stroke="none" y="298" style="font-size: 14px; text-anchor: start;">$18</text><text transform="matrix(1,0,0,1,0,0)" opacity="1" fill-opacity="1" fill="#5a5a5a" font-size="14px" text-anchor="start" x="644" stroke="none" y="266" style="font-size: 14px; text-anchor: start;">$19</text><text transform="matrix(1,0,0,1,0,0)" opacity="1" fill-opacity="1" fill="#5a5a5a" font-size="14px" text-anchor="start" x="644" stroke="none" y="233" style="font-size: 14px; text-anchor: start;">$20</text><text transform="matrix(1,0,0,1,0,0)" opacity="1" fill-opacity="1" fill="#5a5a5a" font-size="14px" text-anchor="start" x="644" stroke="none" y="201" style="font-size: 14px; text-anchor: start;">$21</text><text transform="matrix(1,0,0,1,0,0)" opacity="1" fill-opacity="1" fill="#5a5a5a" font-size="14px" text-anchor="start" x="644" stroke="none" y="169" style="font-size: 14px; text-anchor: start;">$22</text><text transform="matrix(1,0,0,1,0,0)" opacity="1" fill-opacity="1" fill="#5a5a5a" font-size="14px" text-anchor="start" x="644" stroke="none" y="136" style="font-size: 14px; text-anchor: start;">$23</text><text transform="matrix(1,0,0,1,0,0)" opacity="1" fill-opacity="1" fill="#5a5a5a" font-size="14px" text-anchor="start" x="644" stroke="none" y="104" style="font-size: 14px; text-anchor: start;">$24</text><text transform="matrix(1,0,0,1,0,0)" opacity="1" fill-opacity="1" fill="#5a5a5a" font-size="14px" text-anchor="start" x="644" stroke="none" y="71" style="font-size: 14px; text-anchor: start;">$25</text></g></g><g class="raphael-group-1495-axis-line-tick-bottom"></g><g class="raphael-group-1506-dataset-Name-group"><g class="raphael-group-1515-dataset-axis-name"></g></g><g class="raphael-group-1509-dataset-Label-group"><g class="raphael-group-1511-dataset-axis" transform="matrix(1,0,0,1,0,0)" font-family="Source Sans Pro" font-size="14px" font-weight="normal" font-style="normal" style="font-family: &quot;Source Sans Pro&quot;; font-size: 14px; font-weight: normal; font-style: normal;"><text transform="matrix(1,0,0,1,0,0)" opacity="1" fill-opacity="1" fill="#5a5a5a" x="51.57213114754098" text-anchor="middle" stroke="none" y="349" style="text-anchor: middle;">2 month ago</text><text transform="matrix(1,0,0,1,0,0)" opacity="1" fill-opacity="1" fill="#5a5a5a" x="337.90000000000003" text-anchor="middle" stroke="none" y="349" style="text-anchor: middle;">1 month ago</text><text transform="matrix(1,0,0,1,0,0)" opacity="1" fill-opacity="1" fill="#5a5a5a" x="614.6836065573771" text-anchor="middle" stroke="none" y="349" style="text-anchor: middle;">Today</text></g></g><g class="raphael-group-1516-axis-line-tick-bottom"></g></g><g class="raphael-group-1259-axisReferenceVisualsFloor" clip-path="url('#rr-3A4EA59F-4FBD-4044-A6C5-4C93D1CDE092')"></g><g class="raphael-group-1258-axisReferenceVisualsBottom"><path stroke-dasharray="none" stroke="#dfdfdf" stroke-opacity="0.65" stroke-width="1" d="M46.8,326.5L629,326.5" stroke-linecap="butt" fill="none"></path><path stroke-dasharray="none" stroke="#dfdfdf" stroke-opacity="0.65" stroke-width="1" d="M46.8,293.5L629,293.5" stroke-linecap="butt" fill="none"></path><path stroke-dasharray="none" stroke="#dfdfdf" stroke-opacity="0.65" stroke-width="1" d="M46.8,261.5L629,261.5" stroke-linecap="butt" fill="none"></path><path stroke-dasharray="none" stroke="#dfdfdf" stroke-opacity="0.65" stroke-width="1" d="M46.8,229.5L629,229.5" stroke-linecap="butt" fill="none"></path><path stroke-dasharray="none" stroke="#dfdfdf" stroke-opacity="0.65" stroke-width="1" d="M46.8,196.5L629,196.5" stroke-linecap="butt" fill="none"></path><path stroke-dasharray="none" stroke="#dfdfdf" stroke-opacity="0.65" stroke-width="1" d="M46.8,164.5L629,164.5" stroke-linecap="butt" fill="none"></path><path stroke-dasharray="none" stroke="#dfdfdf" stroke-opacity="0.65" stroke-width="1" d="M46.8,131.5L629,131.5" stroke-linecap="butt" fill="none"></path><path stroke-dasharray="none" stroke="#dfdfdf" stroke-opacity="0.65" stroke-width="1" d="M46.8,99.5L629,99.5" stroke-linecap="butt" fill="none"></path><path stroke-dasharray="none" stroke="#dfdfdf" stroke-opacity="0.65" stroke-width="1" d="M46.8,67.5L629,67.5" stroke-linecap="butt" fill="none"></path></g><g class="raphael-group-1236-belowplot"></g><g class="raphael-group-1260-crossline"></g><g class="raphael-group-1261-crosslineBottom"><g class="raphael-group-2821-crosslineBottom"></g></g><g class="raphael-group-1264-axisReferenceVisualsMiddle" clip-path="url('#rr-8301E7A2-D5AA-4C82-B862-A11B981BC22A')"></g><g class="raphael-group-1266-quadrant"></g><g class="raphael-group-1237-plots"><g class="raphael-group-1268-column-shadow-group"><g class="raphael-group-1286-vcanvas-column-shadow" transform="matrix(1,0,0,1,0,0)"><g class="raphael-group-1297-shadow-group"></g><g class="raphael-group-1298-error-shadow-group"></g></g></g><g class="raphael-group-1269-column"><g class="raphael-group-1287-vcanvas-column-plot" transform="matrix(1,0,0,1,0,0)"><g class="raphael-group-1295-columnTrendGroup"></g><g class="raphael-group-1299-common-elems-group"></g><g class="raphael-group-1300-plot-group"><rect y="262.5" height="7" x="47.5" width="8" ry="0" rx="0" fill-opacity="1" fill="#62b58f" stroke="#c0c0c0" stroke-opacity="0.000001" stroke-width="0" stroke-dasharray="none" stroke-linejoin="miter"></rect><rect y="267.5" height="2" x="57.5" width="7" ry="0" rx="0" fill-opacity="1" fill="#62b58f" stroke="#c0c0c0" stroke-opacity="0.000001" stroke-width="0" stroke-dasharray="none" stroke-linejoin="miter"></rect><rect y="255.5" height="17" x="66.5" width="8" ry="0" rx="0" fill-opacity="1" fill="#f2726f" stroke="#c0c0c0" stroke-opacity="0.000001" stroke-width="0" stroke-dasharray="none" stroke-linejoin="miter"></rect><rect y="234.5" height="14" x="76.5" width="8" ry="0" rx="0" fill-opacity="1" fill="#f2726f" stroke="#c0c0c0" stroke-opacity="0.000001" stroke-width="0" stroke-dasharray="none" stroke-linejoin="miter"></rect><rect y="223.5" height="8" x="85.5" width="8" ry="0" rx="0" fill-opacity="1" fill="#f2726f" stroke="#c0c0c0" stroke-opacity="0.000001" stroke-width="0" stroke-dasharray="none" stroke-linejoin="miter"></rect><rect y="214.5" height="9" x="95.5" width="8" ry="0" rx="0" fill-opacity="1" fill="#f2726f" stroke="#c0c0c0" stroke-opacity="0.000001" stroke-width="0" stroke-dasharray="none" stroke-linejoin="miter"></rect><rect y="214.5" height="3" x="105.5" width="7" ry="0" rx="0" fill-opacity="1" fill="#62b58f" stroke="#c0c0c0" stroke-opacity="0.000001" stroke-width="0" stroke-dasharray="none" stroke-linejoin="miter"></rect><rect y="222.5" height="2" x="114.5" width="8" ry="0" rx="0" fill-opacity="1" fill="#f2726f" stroke="#c0c0c0" stroke-opacity="0.000001" stroke-width="0" stroke-dasharray="none" stroke-linejoin="miter"></rect><rect y="222.5" height="24" x="124.5" width="7" ry="0" rx="0" fill-opacity="1" fill="#62b58f" stroke="#c0c0c0" stroke-opacity="0.000001" stroke-width="0" stroke-dasharray="none" stroke-linejoin="miter"></rect><rect y="247.5" height="6" x="133.5" width="8" ry="0" rx="0" fill-opacity="1" fill="#62b58f" stroke="#c0c0c0" stroke-opacity="0.000001" stroke-width="0" stroke-dasharray="none" stroke-linejoin="miter"></rect><rect y="253.35625" height="0.9712500000000546" x="143.19704918032787" width="7.6354098360655716" ry="0" rx="0" fill-opacity="1" fill="#f2726f" stroke="#c0c0c0" stroke-opacity="0.000001" stroke-width="0" stroke-dasharray="none" stroke-linejoin="miter"></rect><rect y="254.5" height="12" x="152.5" width="8" ry="0" rx="0" fill-opacity="1" fill="#62b58f" stroke="#c0c0c0" stroke-opacity="0.000001" stroke-width="0" stroke-dasharray="none" stroke-linejoin="miter"></rect><rect y="262.42125000000004" height="0.6474999999999795" x="162.28557377049182" width="7.6354098360655716" ry="0" rx="0" fill-opacity="1" fill="#f2726f" stroke="#c0c0c0" stroke-opacity="0.000001" stroke-width="0" stroke-dasharray="none" stroke-linejoin="miter"></rect><rect y="262.5" height="9" x="171.5" width="8" ry="0" rx="0" fill-opacity="1" fill="#62b58f" stroke="#c0c0c0" stroke-opacity="0.000001" stroke-width="0" stroke-dasharray="none" stroke-linejoin="miter"></rect><rect y="261.5" height="10" x="181.5" width="8" ry="0" rx="0" fill-opacity="1" fill="#f2726f" stroke="#c0c0c0" stroke-opacity="0.000001" stroke-width="0" stroke-dasharray="none" stroke-linejoin="miter"></rect><rect y="252.5" height="7" x="190.5" width="8" ry="0" rx="0" fill-opacity="1" fill="#f2726f" stroke="#c0c0c0" stroke-opacity="0.000001" stroke-width="0" stroke-dasharray="none" stroke-linejoin="miter"></rect><rect y="251.5" height="22" x="200.5" width="8" ry="0" rx="0" fill-opacity="1" fill="#62b58f" stroke="#c0c0c0" stroke-opacity="0.000001" stroke-width="0" stroke-dasharray="none" stroke-linejoin="miter"></rect><rect y="277.5" height="12" x="210.5" width="7" ry="0" rx="0" fill-opacity="1" fill="#62b58f" stroke="#c0c0c0" stroke-opacity="0.000001" stroke-width="0" stroke-dasharray="none" stroke-linejoin="miter"></rect><rect y="278.5" height="7" x="219.5" width="8" ry="0" rx="0" fill-opacity="1" fill="#f2726f" stroke="#c0c0c0" stroke-opacity="0.000001" stroke-width="0" stroke-dasharray="none" stroke-linejoin="miter"></rect><rect y="271.5" height="6" x="229.5" width="7" ry="0" rx="0" fill-opacity="1" fill="#f2726f" stroke="#c0c0c0" stroke-opacity="0.000001" stroke-width="0" stroke-dasharray="none" stroke-linejoin="miter"></rect><rect y="256.5" height="16" x="238.5" width="8" ry="0" rx="0" fill-opacity="1" fill="#f2726f" stroke="#c0c0c0" stroke-opacity="0.000001" stroke-width="0" stroke-dasharray="none" stroke-linejoin="miter"></rect><rect y="255.5" height="2" x="248.5" width="7" ry="0" rx="0" fill-opacity="1" fill="#62b58f" stroke="#c0c0c0" stroke-opacity="0.000001" stroke-width="0" stroke-dasharray="none" stroke-linejoin="miter"></rect><rect y="248.5" height="2" x="257.5" width="8" ry="0" rx="0" fill-opacity="1" fill="#f2726f" stroke="#c0c0c0" stroke-opacity="0.000001" stroke-width="0" stroke-dasharray="none" stroke-linejoin="miter"></rect><rect y="238.5" height="14" x="267.5" width="7" ry="0" rx="0" fill-opacity="1" fill="#f2726f" stroke="#c0c0c0" stroke-opacity="0.000001" stroke-width="0" stroke-dasharray="none" stroke-linejoin="miter"></rect><rect y="237.5" height="1" x="276.5" width="8" ry="0" rx="0" fill-opacity="1" fill="#62b58f" stroke="#c0c0c0" stroke-opacity="0.000001" stroke-width="0" stroke-dasharray="none" stroke-linejoin="miter"></rect><rect y="233.5" height="1" x="286.5" width="7" ry="0" rx="0" fill-opacity="1" fill="#62b58f" stroke="#c0c0c0" stroke-opacity="0.000001" stroke-width="0" stroke-dasharray="none" stroke-linejoin="miter"></rect><rect y="206.5" height="35" x="295.5" width="8" ry="0" rx="0" fill-opacity="1" fill="#f2726f" stroke="#c0c0c0" stroke-opacity="0.000001" stroke-width="0" stroke-dasharray="none" stroke-linejoin="miter"></rect><rect y="192.5" height="16" x="305.5" width="8" ry="0" rx="0" fill-opacity="1" fill="#f2726f" stroke="#c0c0c0" stroke-opacity="0.000001" stroke-width="0" stroke-dasharray="none" stroke-linejoin="miter"></rect><rect y="181.5" height="5" x="314.5" width="8" ry="0" rx="0" fill-opacity="1" fill="#f2726f" stroke="#c0c0c0" stroke-opacity="0.000001" stroke-width="0" stroke-dasharray="none" stroke-linejoin="miter"></rect><rect y="211.5" height="3" x="324.5" width="8" ry="0" rx="0" fill-opacity="1" fill="#62b58f" stroke="#c0c0c0" stroke-opacity="0.000001" stroke-width="0" stroke-dasharray="none" stroke-linejoin="miter"></rect><rect y="217.5" height="9" x="334.5" width="7" ry="0" rx="0" fill-opacity="1" fill="#62b58f" stroke="#c0c0c0" stroke-opacity="0.000001" stroke-width="0" stroke-dasharray="none" stroke-linejoin="miter"></rect><rect y="228.5" height="4" x="343.5" width="8" ry="0" rx="0" fill-opacity="1" fill="#62b58f" stroke="#c0c0c0" stroke-opacity="0.000001" stroke-width="0" stroke-dasharray="none" stroke-linejoin="miter"></rect><rect y="233.5" height="3" x="353.5" width="7" ry="0" rx="0" fill-opacity="1" fill="#62b58f" stroke="#c0c0c0" stroke-opacity="0.000001" stroke-width="0" stroke-dasharray="none" stroke-linejoin="miter"></rect><rect y="232.5" height="4" x="362.5" width="8" ry="0" rx="0" fill-opacity="1" fill="#62b58f" stroke="#c0c0c0" stroke-opacity="0.000001" stroke-width="0" stroke-dasharray="none" stroke-linejoin="miter"></rect><rect y="245.5" height="2" x="372.5" width="7" ry="0" rx="0" fill-opacity="1" fill="#62b58f" stroke="#c0c0c0" stroke-opacity="0.000001" stroke-width="0" stroke-dasharray="none" stroke-linejoin="miter"></rect><rect y="239.5" height="8" x="381.5" width="8" ry="0" rx="0" fill-opacity="1" fill="#f2726f" stroke="#c0c0c0" stroke-opacity="0.000001" stroke-width="0" stroke-dasharray="none" stroke-linejoin="miter"></rect><rect y="242.5" height="6" x="391.5" width="7" ry="0" rx="0" fill-opacity="1" fill="#f2726f" stroke="#c0c0c0" stroke-opacity="0.000001" stroke-width="0" stroke-dasharray="none" stroke-linejoin="miter"></rect><rect y="198.5" height="36" x="400.5" width="8" ry="0" rx="0" fill-opacity="1" fill="#f2726f" stroke="#c0c0c0" stroke-opacity="0.000001" stroke-width="0" stroke-dasharray="none" stroke-linejoin="miter"></rect><rect y="197.5" height="15" x="410.5" width="8" ry="0" rx="0" fill-opacity="1" fill="#62b58f" stroke="#c0c0c0" stroke-opacity="0.000001" stroke-width="0" stroke-dasharray="none" stroke-linejoin="miter"></rect><rect y="215.5" height="2" x="419.5" width="8" ry="0" rx="0" fill-opacity="1" fill="#62b58f" stroke="#c0c0c0" stroke-opacity="0.000001" stroke-width="0" stroke-dasharray="none" stroke-linejoin="miter"></rect><rect y="182.5" height="37" x="429.5" width="8" ry="0" rx="0" fill-opacity="1" fill="#f2726f" stroke="#c0c0c0" stroke-opacity="0.000001" stroke-width="0" stroke-dasharray="none" stroke-linejoin="miter"></rect><rect y="116.5" height="60" x="439.5" width="7" ry="0" rx="0" fill-opacity="1" fill="#f2726f" stroke="#c0c0c0" stroke-opacity="0.000001" stroke-width="0" stroke-dasharray="none" stroke-linejoin="miter"></rect><rect y="98.5" height="24" x="448.5" width="8" ry="0" rx="0" fill-opacity="1" fill="#f2726f" stroke="#c0c0c0" stroke-opacity="0.000001" stroke-width="0" stroke-dasharray="none" stroke-linejoin="miter"></rect><rect y="102.5" height="10" x="458.5" width="7" ry="0" rx="0" fill-opacity="1" fill="#62b58f" stroke="#c0c0c0" stroke-opacity="0.000001" stroke-width="0" stroke-dasharray="none" stroke-linejoin="miter"></rect><rect y="116.5" height="20" x="467.5" width="8" ry="0" rx="0" fill-opacity="1" fill="#62b58f" stroke="#c0c0c0" stroke-opacity="0.000001" stroke-width="0" stroke-dasharray="none" stroke-linejoin="miter"></rect><rect y="140.5" height="12" x="477.5" width="7" ry="0" rx="0" fill-opacity="1" fill="#62b58f" stroke="#c0c0c0" stroke-opacity="0.000001" stroke-width="0" stroke-dasharray="none" stroke-linejoin="miter"></rect><rect y="157.5" height="3" x="486.5" width="8" ry="0" rx="0" fill-opacity="1" fill="#62b58f" stroke="#c0c0c0" stroke-opacity="0.000001" stroke-width="0" stroke-dasharray="none" stroke-linejoin="miter"></rect><rect y="146.5" height="4" x="496.5" width="7" ry="0" rx="0" fill-opacity="1" fill="#f2726f" stroke="#c0c0c0" stroke-opacity="0.000001" stroke-width="0" stroke-dasharray="none" stroke-linejoin="miter"></rect><rect y="114.5" height="28" x="505.5" width="8" ry="0" rx="0" fill-opacity="1" fill="#f2726f" stroke="#c0c0c0" stroke-opacity="0.000001" stroke-width="0" stroke-dasharray="none" stroke-linejoin="miter"></rect><rect y="111.5" height="6" x="515.5" width="8" ry="0" rx="0" fill-opacity="1" fill="#f2726f" stroke="#c0c0c0" stroke-opacity="0.000001" stroke-width="0" stroke-dasharray="none" stroke-linejoin="miter"></rect><rect y="88.5" height="24" x="524.5" width="8" ry="0" rx="0" fill-opacity="1" fill="#f2726f" stroke="#c0c0c0" stroke-opacity="0.000001" stroke-width="0" stroke-dasharray="none" stroke-linejoin="miter"></rect><rect y="89.5" height="5" x="534.5" width="8" ry="0" rx="0" fill-opacity="1" fill="#f2726f" stroke="#c0c0c0" stroke-opacity="0.000001" stroke-width="0" stroke-dasharray="none" stroke-linejoin="miter"></rect><rect y="96.5" height="23" x="544.5" width="7" ry="0" rx="0" fill-opacity="1" fill="#62b58f" stroke="#c0c0c0" stroke-opacity="0.000001" stroke-width="0" stroke-dasharray="none" stroke-linejoin="miter"></rect><rect y="107.5" height="9" x="553.5" width="8" ry="0" rx="0" fill-opacity="1" fill="#f2726f" stroke="#c0c0c0" stroke-opacity="0.000001" stroke-width="0" stroke-dasharray="none" stroke-linejoin="miter"></rect><rect y="107.5" height="4" x="563.5" width="7" ry="0" rx="0" fill-opacity="1" fill="#62b58f" stroke="#c0c0c0" stroke-opacity="0.000001" stroke-width="0" stroke-dasharray="none" stroke-linejoin="miter"></rect><rect y="100.5" height="10" x="572.5" width="8" ry="0" rx="0" fill-opacity="1" fill="#f2726f" stroke="#c0c0c0" stroke-opacity="0.000001" stroke-width="0" stroke-dasharray="none" stroke-linejoin="miter"></rect><rect y="106.5" height="15" x="582.5" width="7" ry="0" rx="0" fill-opacity="1" fill="#62b58f" stroke="#c0c0c0" stroke-opacity="0.000001" stroke-width="0" stroke-dasharray="none" stroke-linejoin="miter"></rect><rect y="97.5" height="22" x="591.5" width="8" ry="0" rx="0" fill-opacity="1" fill="#f2726f" stroke="#c0c0c0" stroke-opacity="0.000001" stroke-width="0" stroke-dasharray="none" stroke-linejoin="miter"></rect><rect y="103.5" height="34" x="601.5" width="7" ry="0" rx="0" fill-opacity="1" fill="#62b58f" stroke="#c0c0c0" stroke-opacity="0.000001" stroke-width="0" stroke-dasharray="none" stroke-linejoin="miter"></rect><rect y="120.5" height="11" x="610.5" width="8" ry="0" rx="0" fill-opacity="1" fill="#f2726f" stroke="#c0c0c0" stroke-opacity="0.000001" stroke-width="0" stroke-dasharray="none" stroke-linejoin="miter"></rect><rect y="101.5" height="20" x="620.5" width="8" ry="0" rx="0" fill-opacity="1" fill="#f2726f" stroke="#c0c0c0" stroke-opacity="0.000001" stroke-width="0" stroke-dasharray="none" stroke-linejoin="miter"></rect></g><g class="raphael-group-1301-error-plot-group"><path d="M52.15,269.86750000000006V272.15" stroke="#415d6f" stroke-width="0.3" stroke-linecap="round" fill="none"></path><path d="M52.15,261.77375000000006V256.15" stroke="#415d6f" stroke-width="0.3" stroke-linecap="round" fill="none"></path><path d="M61.15,269.86750000000006V276.15" stroke="#415d6f" stroke-width="0.3" stroke-linecap="round" fill="none"></path><path d="M61.15,267.2775V260.15" stroke="#415d6f" stroke-width="0.3" stroke-linecap="round" fill="none"></path><path d="M71.15,272.78125000000006V275.15" stroke="#b90000" stroke-width="0.3" stroke-linecap="round" fill="none"></path><path d="M71.15,254.65124999999995V252.15" stroke="#b90000" stroke-width="0.3" stroke-linecap="round" fill="none"></path><path d="M81.15,248.50000000000003V258.15" stroke="#b90000" stroke-width="0.3" stroke-linecap="round" fill="none"></path><path d="M81.15,233.93124999999995V234.15" stroke="#b90000" stroke-width="0.3" stroke-linecap="round" fill="none"></path><path d="M90.15,231.66499999999994V243.15" stroke="#b90000" stroke-width="0.3" stroke-linecap="round" fill="none"></path><path d="M90.15,222.92374999999993V222.15" stroke="#b90000" stroke-width="0.3" stroke-linecap="round" fill="none"></path><path d="M100.15,223.89499999999998V224.15" stroke="#b90000" stroke-width="0.3" stroke-linecap="round" fill="none"></path><path d="M100.15,213.85875000000004V208.15" stroke="#b90000" stroke-width="0.3" stroke-linecap="round" fill="none"></path><path d="M109.15,217.42000000000002V220.15" stroke="#415d6f" stroke-width="0.3" stroke-linecap="round" fill="none"></path><path d="M109.15,213.53499999999997V212.15" stroke="#415d6f" stroke-width="0.3" stroke-linecap="round" fill="none"></path><path d="M119.15,224.21875000000003V232.15" stroke="#b90000" stroke-width="0.3" stroke-linecap="round" fill="none"></path><path d="M119.15,222.27624999999995V221.15" stroke="#b90000" stroke-width="0.3" stroke-linecap="round" fill="none"></path><path d="M128.15,221.95250000000004V212.15" stroke="#415d6f" stroke-width="0.3" stroke-linecap="round" fill="none"></path><path d="M138.15,253.68000000000004V257.15" stroke="#415d6f" stroke-width="0.3" stroke-linecap="round" fill="none"></path><path d="M138.15,247.20499999999993V245.15" stroke="#415d6f" stroke-width="0.3" stroke-linecap="round" fill="none"></path><path d="M147.15,254.32750000000004V262.15" stroke="#b90000" stroke-width="0.3" stroke-linecap="round" fill="none"></path><path d="M147.15,253.35625V248.15" stroke="#b90000" stroke-width="0.3" stroke-linecap="round" fill="none"></path><path d="M157.15,266.3062499999999V268.15" stroke="#415d6f" stroke-width="0.3" stroke-linecap="round" fill="none"></path><path d="M157.15,253.68000000000004V247.15" stroke="#415d6f" stroke-width="0.3" stroke-linecap="round" fill="none"></path><path d="M166.15,263.06875V272.15" stroke="#b90000" stroke-width="0.3" stroke-linecap="round" fill="none"></path><path d="M166.15,262.42125000000004V261.15" stroke="#b90000" stroke-width="0.3" stroke-linecap="round" fill="none"></path><path d="M176.15,271.4862499999999V282.15" stroke="#415d6f" stroke-width="0.3" stroke-linecap="round" fill="none"></path><path d="M176.15,262.42125000000004V261.15" stroke="#415d6f" stroke-width="0.3" stroke-linecap="round" fill="none"></path><path d="M186.15,271.1625V272.15" stroke="#b90000" stroke-width="0.3" stroke-linecap="round" fill="none"></path><path d="M186.15,260.8025V258.15" stroke="#b90000" stroke-width="0.3" stroke-linecap="round" fill="none"></path><path d="M195.15,259.83124999999995V265.15" stroke="#b90000" stroke-width="0.3" stroke-linecap="round" fill="none"></path><path d="M195.15,252.06125000000003V249.15" stroke="#b90000" stroke-width="0.3" stroke-linecap="round" fill="none"></path><path d="M205.15,273.10499999999996V277.15" stroke="#415d6f" stroke-width="0.3" stroke-linecap="round" fill="none"></path><path d="M205.15,250.76625000000004V250.15" stroke="#415d6f" stroke-width="0.3" stroke-linecap="round" fill="none"></path><path d="M214.15,289.29249999999996V291.15" stroke="#415d6f" stroke-width="0.3" stroke-linecap="round" fill="none"></path><path d="M214.15,276.99V275.15" stroke="#415d6f" stroke-width="0.3" stroke-linecap="round" fill="none"></path><path d="M224.15,285.4074999999999V288.15" stroke="#b90000" stroke-width="0.3" stroke-linecap="round" fill="none"></path><path d="M224.15,277.96125000000006V264.15" stroke="#b90000" stroke-width="0.3" stroke-linecap="round" fill="none"></path><path d="M233.15,277.3137499999999V294.15" stroke="#b90000" stroke-width="0.3" stroke-linecap="round" fill="none"></path><path d="M233.15,270.83874999999995V267.15" stroke="#b90000" stroke-width="0.3" stroke-linecap="round" fill="none"></path><path d="M243.15,272.4575V274.15" stroke="#b90000" stroke-width="0.3" stroke-linecap="round" fill="none"></path><path d="M243.15,255.94624999999994V250.15" stroke="#b90000" stroke-width="0.3" stroke-linecap="round" fill="none"></path><path d="M252.15,257.56499999999994V264.15" stroke="#415d6f" stroke-width="0.3" stroke-linecap="round" fill="none"></path><path d="M252.15,254.97500000000002V248.15" stroke="#415d6f" stroke-width="0.3" stroke-linecap="round" fill="none"></path><path d="M262.15,250.76625000000004V256.15" stroke="#b90000" stroke-width="0.3" stroke-linecap="round" fill="none"></path><path d="M262.15,247.52875V243.15" stroke="#b90000" stroke-width="0.3" stroke-linecap="round" fill="none"></path><path d="M271.15,252.70875V260.15" stroke="#b90000" stroke-width="0.3" stroke-linecap="round" fill="none"></path><path d="M271.15,238.14000000000004V235.15" stroke="#b90000" stroke-width="0.3" stroke-linecap="round" fill="none"></path><path d="M281.15,238.78750000000002V246.15" stroke="#415d6f" stroke-width="0.3" stroke-linecap="round" fill="none"></path><path d="M281.15,236.52125V231.15" stroke="#415d6f" stroke-width="0.3" stroke-linecap="round" fill="none"></path><path d="M290.15,234.255V249.15" stroke="#415d6f" stroke-width="0.3" stroke-linecap="round" fill="none"></path><path d="M290.15,232.96000000000004V230.15" stroke="#415d6f" stroke-width="0.3" stroke-linecap="round" fill="none"></path><path d="M300.15,241.05375000000004V256.15" stroke="#b90000" stroke-width="0.3" stroke-linecap="round" fill="none"></path><path d="M300.15,206.08874999999995V205.15" stroke="#b90000" stroke-width="0.3" stroke-linecap="round" fill="none"></path><path d="M310.15,208.03125000000003V211.15" stroke="#b90000" stroke-width="0.3" stroke-linecap="round" fill="none"></path><path d="M319.15,186.01625000000004V190.15" stroke="#b90000" stroke-width="0.3" stroke-linecap="round" fill="none"></path><path d="M319.15,180.5125V169.15" stroke="#b90000" stroke-width="0.3" stroke-linecap="round" fill="none"></path><path d="M329.15,214.50625000000002V226.15" stroke="#415d6f" stroke-width="0.3" stroke-linecap="round" fill="none"></path><path d="M329.15,210.94500000000005V194.15" stroke="#415d6f" stroke-width="0.3" stroke-linecap="round" fill="none"></path><path d="M338.15,226.80874999999997V228.15" stroke="#415d6f" stroke-width="0.3" stroke-linecap="round" fill="none"></path><path d="M338.15,217.42000000000002V207.15" stroke="#415d6f" stroke-width="0.3" stroke-linecap="round" fill="none"></path><path d="M348.15,232.96000000000004V245.15" stroke="#415d6f" stroke-width="0.3" stroke-linecap="round" fill="none"></path><path d="M348.15,228.10374999999993V226.15" stroke="#415d6f" stroke-width="0.3" stroke-linecap="round" fill="none"></path><path d="M357.15,236.84499999999994V240.15" stroke="#415d6f" stroke-width="0.3" stroke-linecap="round" fill="none"></path><path d="M357.15,232.96000000000004V225.15" stroke="#415d6f" stroke-width="0.3" stroke-linecap="round" fill="none"></path><path d="M367.15,236.52125V253.15" stroke="#415d6f" stroke-width="0.3" stroke-linecap="round" fill="none"></path><path d="M367.15,232.31250000000003V230.15" stroke="#415d6f" stroke-width="0.3" stroke-linecap="round" fill="none"></path><path d="M376.15,247.52875V265.15" stroke="#415d6f" stroke-width="0.3" stroke-linecap="round" fill="none"></path><path d="M376.15,245.2625V238.15" stroke="#415d6f" stroke-width="0.3" stroke-linecap="round" fill="none"></path><path d="M386.15,247.52875V256.15" stroke="#b90000" stroke-width="0.3" stroke-linecap="round" fill="none"></path><path d="M386.15,239.11124999999993V234.15" stroke="#b90000" stroke-width="0.3" stroke-linecap="round" fill="none"></path><path d="M395.15,248.17624999999998V261.15" stroke="#b90000" stroke-width="0.3" stroke-linecap="round" fill="none"></path><path d="M395.15,242.34875V228.15" stroke="#b90000" stroke-width="0.3" stroke-linecap="round" fill="none"></path><path d="M405.15,234.57875000000004V241.15" stroke="#b90000" stroke-width="0.3" stroke-linecap="round" fill="none"></path><path d="M405.15,198.31875000000002V194.15" stroke="#b90000" stroke-width="0.3" stroke-linecap="round" fill="none"></path><path d="M415.15,212.24V215.15" stroke="#415d6f" stroke-width="0.3" stroke-linecap="round" fill="none"></path><path d="M415.15,196.7V196.15" stroke="#415d6f" stroke-width="0.3" stroke-linecap="round" fill="none"></path><path d="M424.15,217.42000000000002V223.15" stroke="#415d6f" stroke-width="0.3" stroke-linecap="round" fill="none"></path><path d="M424.15,214.82999999999993V198.15" stroke="#415d6f" stroke-width="0.3" stroke-linecap="round" fill="none"></path><path d="M434.15,219.36249999999995V241.15" stroke="#b90000" stroke-width="0.3" stroke-linecap="round" fill="none"></path><path d="M434.15,182.13125000000002V181.15" stroke="#b90000" stroke-width="0.3" stroke-linecap="round" fill="none"></path><path d="M443.15,176.30375V193.15" stroke="#b90000" stroke-width="0.3" stroke-linecap="round" fill="none"></path><path d="M443.15,116.08625000000004V113.15" stroke="#b90000" stroke-width="0.3" stroke-linecap="round" fill="none"></path><path d="M453.15,122.88499999999996V131.15" stroke="#b90000" stroke-width="0.3" stroke-linecap="round" fill="none"></path><path d="M453.15,98.28000000000003V93.15" stroke="#b90000" stroke-width="0.3" stroke-linecap="round" fill="none"></path><path d="M462.15,112.52499999999995V115.15" stroke="#415d6f" stroke-width="0.3" stroke-linecap="round" fill="none"></path><path d="M462.15,101.51749999999996V97.15" stroke="#415d6f" stroke-width="0.3" stroke-linecap="round" fill="none"></path><path d="M472.15,136.15874999999997V136.15" stroke="#415d6f" stroke-width="0.3" stroke-linecap="round" fill="none"></path><path d="M472.15,116.40999999999997V116.15" stroke="#415d6f" stroke-width="0.3" stroke-linecap="round" fill="none"></path><path d="M481.15,140.36750000000004V136.15" stroke="#415d6f" stroke-width="0.3" stroke-linecap="round" fill="none"></path><path d="M491.15,160.76375000000002V168.15" stroke="#415d6f" stroke-width="0.3" stroke-linecap="round" fill="none"></path><path d="M491.15,156.55500000000004V148.15" stroke="#415d6f" stroke-width="0.3" stroke-linecap="round" fill="none"></path><path d="M500.15,150.72749999999994V156.15" stroke="#b90000" stroke-width="0.3" stroke-linecap="round" fill="none"></path><path d="M500.15,145.54750000000004V138.15" stroke="#b90000" stroke-width="0.3" stroke-linecap="round" fill="none"></path><path d="M510.15,142.31V145.15" stroke="#b90000" stroke-width="0.3" stroke-linecap="round" fill="none"></path><path d="M510.15,114.46750000000003V107.15" stroke="#b90000" stroke-width="0.3" stroke-linecap="round" fill="none"></path><path d="M520.15,117.05749999999995V129.15" stroke="#b90000" stroke-width="0.3" stroke-linecap="round" fill="none"></path><path d="M520.15,110.58249999999998V97.15" stroke="#b90000" stroke-width="0.3" stroke-linecap="round" fill="none"></path><path d="M529.15,112.52499999999995V135.15" stroke="#b90000" stroke-width="0.3" stroke-linecap="round" fill="none"></path><path d="M529.15,87.92000000000002V86.15" stroke="#b90000" stroke-width="0.3" stroke-linecap="round" fill="none"></path><path d="M539.15,94.71875000000003V108.15" stroke="#b90000" stroke-width="0.3" stroke-linecap="round" fill="none"></path><path d="M539.15,88.5675V80.15" stroke="#b90000" stroke-width="0.3" stroke-linecap="round" fill="none"></path><path d="M548.15,119.64750000000001V120.15" stroke="#415d6f" stroke-width="0.3" stroke-linecap="round" fill="none"></path><path d="M548.15,96.33749999999995V74.15" stroke="#415d6f" stroke-width="0.3" stroke-linecap="round" fill="none"></path><path d="M558.15,116.73375000000001V125.15" stroke="#b90000" stroke-width="0.3" stroke-linecap="round" fill="none"></path><path d="M558.15,107.34499999999994V105.15" stroke="#b90000" stroke-width="0.3" stroke-linecap="round" fill="none"></path><path d="M567.15,111.22999999999996V116.15" stroke="#415d6f" stroke-width="0.3" stroke-linecap="round" fill="none"></path><path d="M567.15,107.34499999999994V102.15" stroke="#415d6f" stroke-width="0.3" stroke-linecap="round" fill="none"></path><path d="M577.15,110.58249999999998V113.15" stroke="#b90000" stroke-width="0.3" stroke-linecap="round" fill="none"></path><path d="M577.15,99.89875000000004V94.15" stroke="#b90000" stroke-width="0.3" stroke-linecap="round" fill="none"></path><path d="M586.15,106.37375000000003V91.15" stroke="#415d6f" stroke-width="0.3" stroke-linecap="round" fill="none"></path><path d="M596.15,119.32374999999996V124.15" stroke="#b90000" stroke-width="0.3" stroke-linecap="round" fill="none"></path><path d="M596.15,96.98500000000004V87.15" stroke="#b90000" stroke-width="0.3" stroke-linecap="round" fill="none"></path><path d="M605.15,137.13V137.15" stroke="#415d6f" stroke-width="0.3" stroke-linecap="round" fill="none"></path><path d="M605.15,103.46000000000001V101.15" stroke="#415d6f" stroke-width="0.3" stroke-linecap="round" fill="none"></path><path d="M615.15,131.62624999999994V134.15" stroke="#b90000" stroke-width="0.3" stroke-linecap="round" fill="none"></path><path d="M615.15,119.64750000000001V107.15" stroke="#b90000" stroke-width="0.3" stroke-linecap="round" fill="none"></path><path d="M625.15,121.58999999999997V127.15" stroke="#b90000" stroke-width="0.3" stroke-linecap="round" fill="none"></path><path d="M625.15,100.54625000000001V100.15" stroke="#b90000" stroke-width="0.3" stroke-linecap="round" fill="none"></path></g></g></g><g class="raphael-group-1270-area-shadow-group"><g class="raphael-group-1288-vcanvas-area-shadow" transform="matrix(1,0,0,1,0,0)"></g></g><g class="raphael-group-1271-area"><g class="raphael-group-1289-vcanvas-area-plot" transform="matrix(1,0,0,1,0,0)"></g></g><g class="raphael-group-1272-line-shadow-group"><g class="raphael-group-1290-vcanvas-line-shadow" transform="matrix(1,0,0,1,0,0)"></g></g><g class="raphael-group-1273-line"><g class="raphael-group-1291-vcanvas-line-plot" transform="matrix(1,0,0,1,0,0)"></g></g><g class="raphael-group-1274-default-shadow-group"><g class="raphael-group-1292-vcanvas-default-shadow" transform="matrix(1,0,0,1,0,0)"></g></g><g class="raphael-group-1275-default"><g class="raphael-group-1293-vcanvas-default-plot" transform="matrix(1,0,0,1,0,0)"></g></g></g><g class="raphael-group-1238-scrollbar-container"></g><g class="raphael-group-1239-axistop"><g class="raphael-group-1486-axis-Line-group"><g class="raphael-group-1492-axis-line-tick"></g></g><g class="raphael-group-1487-dataset-Trend-group-top"><g class="raphael-group-1493-dataset-axis-trend-label"></g></g><g class="raphael-group-1489-dataset-Label-group"><g class="raphael-group-1491-dataset-top-label" transform="matrix(1,0,0,1,0,0)"></g></g><g class="raphael-group-1507-axis-Line-group"><g class="raphael-group-1513-axis-line-tick"></g></g><g class="raphael-group-1508-dataset-Trend-group-top"><g class="raphael-group-1514-dataset-axis-trend-label"></g></g><g class="raphael-group-1510-dataset-Label-group"><g class="raphael-group-1512-dataset-top-label" transform="matrix(1,0,0,1,0,0)"></g></g></g><g class="raphael-group-1240-sumlabels fusioncharts-datalabels"><g class="raphael-group-1296-vcanvas-sumLabelsLayer" transform="matrix(1,0,0,1,0,0)"></g></g><g class="raphael-group-1265-axisReferenceVisualsTop"></g><g class="raphael-group-1267-axisReferenceVisualsCeil"></g><g class="raphael-group-1241-datalabel" font-family="Source Sans Pro" font-size="14px" font-weight="normal" font-style="normal" style="font-family: &quot;Source Sans Pro&quot;; font-size: 14px; font-weight: normal; font-style: normal;"><g class="raphael-group-1263-canvasdatalabel"><g class="raphael-group-1294-vcanvas-label" transform="matrix(1,0,0,1,0,0)"><g class="raphael-group-1302-label-group fusioncharts-datalabels" font-family="Source Sans Pro" font-size="14px" font-weight="normal" font-style="normal" style="font-family: &quot;Source Sans Pro&quot;; font-size: 14px; font-weight: normal; font-style: normal;"><text transform="matrix(1,0,0,1,0,0)" x="51.5" opacity="1" fill-opacity="1" fill="#000000" stroke="none" text-anchor="middle" y="261" style="text-anchor: middle;"></text><text transform="matrix(1,0,0,1,0,0)" x="61" opacity="1" fill-opacity="1" fill="#000000" stroke="none" text-anchor="middle" y="266" style="text-anchor: middle;"></text><text transform="matrix(1,0,0,1,0,0)" x="70.5" opacity="1" fill-opacity="1" fill="#000000" stroke="none" text-anchor="middle" y="254" style="text-anchor: middle;"></text><text transform="matrix(1,0,0,1,0,0)" x="80.5" opacity="1" fill-opacity="1" fill="#000000" stroke="none" text-anchor="middle" y="233" style="text-anchor: middle;"></text><text transform="matrix(1,0,0,1,0,0)" x="89.5" opacity="1" fill-opacity="1" fill="#000000" stroke="none" text-anchor="middle" y="222" style="text-anchor: middle;"></text><text transform="matrix(1,0,0,1,0,0)" x="99.5" opacity="1" fill-opacity="1" fill="#000000" stroke="none" text-anchor="middle" y="213" style="text-anchor: middle;"></text><text transform="matrix(1,0,0,1,0,0)" x="109" opacity="1" fill-opacity="1" fill="#000000" stroke="none" text-anchor="middle" y="213" style="text-anchor: middle;"></text><text transform="matrix(1,0,0,1,0,0)" x="118.5" opacity="1" fill-opacity="1" fill="#000000" stroke="none" text-anchor="middle" y="221" style="text-anchor: middle;"></text><text transform="matrix(1,0,0,1,0,0)" x="128" opacity="1" fill-opacity="1" fill="#000000" stroke="none" text-anchor="middle" y="221" style="text-anchor: middle;"></text><text transform="matrix(1,0,0,1,0,0)" x="137.5" opacity="1" fill-opacity="1" fill="#000000" stroke="none" text-anchor="middle" y="246" style="text-anchor: middle;"></text><text transform="matrix(1,0,0,1,0,0)" x="147.01475409836064" opacity="1" fill-opacity="1" fill="#000000" stroke="none" text-anchor="middle" y="252" style="text-anchor: middle;"></text><text transform="matrix(1,0,0,1,0,0)" x="156.5" opacity="1" fill-opacity="1" fill="#000000" stroke="none" text-anchor="middle" y="253" style="text-anchor: middle;"></text><text transform="matrix(1,0,0,1,0,0)" x="166.1032786885246" opacity="1" fill-opacity="1" fill="#000000" stroke="none" text-anchor="middle" y="261" style="text-anchor: middle;"></text><text transform="matrix(1,0,0,1,0,0)" x="175.5" opacity="1" fill-opacity="1" fill="#000000" stroke="none" text-anchor="middle" y="261" style="text-anchor: middle;"></text><text transform="matrix(1,0,0,1,0,0)" x="185.5" opacity="1" fill-opacity="1" fill="#000000" stroke="none" text-anchor="middle" y="260" style="text-anchor: middle;"></text><text transform="matrix(1,0,0,1,0,0)" x="194.5" opacity="1" fill-opacity="1" fill="#000000" stroke="none" text-anchor="middle" y="251" style="text-anchor: middle;"></text><text transform="matrix(1,0,0,1,0,0)" x="204.5" opacity="1" fill-opacity="1" fill="#000000" stroke="none" text-anchor="middle" y="250" style="text-anchor: middle;"></text><text transform="matrix(1,0,0,1,0,0)" x="214" opacity="1" fill-opacity="1" fill="#000000" stroke="none" text-anchor="middle" y="276" style="text-anchor: middle;"></text><text transform="matrix(1,0,0,1,0,0)" x="223.5" opacity="1" fill-opacity="1" fill="#000000" stroke="none" text-anchor="middle" y="277" style="text-anchor: middle;"></text><text transform="matrix(1,0,0,1,0,0)" x="233" opacity="1" fill-opacity="1" fill="#000000" stroke="none" text-anchor="middle" y="270" style="text-anchor: middle;"></text><text transform="matrix(1,0,0,1,0,0)" x="242.5" opacity="1" fill-opacity="1" fill="#000000" stroke="none" text-anchor="middle" y="255" style="text-anchor: middle;"></text><text transform="matrix(1,0,0,1,0,0)" x="252" opacity="1" fill-opacity="1" fill="#000000" stroke="none" text-anchor="middle" y="254" style="text-anchor: middle;"></text><text transform="matrix(1,0,0,1,0,0)" x="261.5" opacity="1" fill-opacity="1" fill="#000000" stroke="none" text-anchor="middle" y="247" style="text-anchor: middle;"></text><text transform="matrix(1,0,0,1,0,0)" x="271" opacity="1" fill-opacity="1" fill="#000000" stroke="none" text-anchor="middle" y="237" style="text-anchor: middle;"></text><text transform="matrix(1,0,0,1,0,0)" x="280.5" opacity="1" fill-opacity="1" fill="#000000" stroke="none" text-anchor="middle" y="236" style="text-anchor: middle;"></text><text transform="matrix(1,0,0,1,0,0)" x="290" opacity="1" fill-opacity="1" fill="#000000" stroke="none" text-anchor="middle" y="232" style="text-anchor: middle;"></text><text transform="matrix(1,0,0,1,0,0)" x="299.5" opacity="1" fill-opacity="1" fill="#000000" stroke="none" text-anchor="middle" y="205" style="text-anchor: middle;"></text><text transform="matrix(1,0,0,1,0,0)" x="309.5" opacity="1" fill-opacity="1" fill="#000000" stroke="none" text-anchor="middle" y="191" style="text-anchor: middle;"></text><text transform="matrix(1,0,0,1,0,0)" x="318.5" opacity="1" fill-opacity="1" fill="#000000" stroke="none" text-anchor="middle" y="180" style="text-anchor: middle;"></text><text transform="matrix(1,0,0,1,0,0)" x="328.5" opacity="1" fill-opacity="1" fill="#000000" stroke="none" text-anchor="middle" y="210" style="text-anchor: middle;"></text><text transform="matrix(1,0,0,1,0,0)" x="338" opacity="1" fill-opacity="1" fill="#000000" stroke="none" text-anchor="middle" y="216" style="text-anchor: middle;"></text><text transform="matrix(1,0,0,1,0,0)" x="347.5" opacity="1" fill-opacity="1" fill="#000000" stroke="none" text-anchor="middle" y="227" style="text-anchor: middle;"></text><text transform="matrix(1,0,0,1,0,0)" x="357" opacity="1" fill-opacity="1" fill="#000000" stroke="none" text-anchor="middle" y="232" style="text-anchor: middle;"></text><text transform="matrix(1,0,0,1,0,0)" x="366.5" opacity="1" fill-opacity="1" fill="#000000" stroke="none" text-anchor="middle" y="231" style="text-anchor: middle;"></text><text transform="matrix(1,0,0,1,0,0)" x="376" opacity="1" fill-opacity="1" fill="#000000" stroke="none" text-anchor="middle" y="244" style="text-anchor: middle;"></text><text transform="matrix(1,0,0,1,0,0)" x="385.5" opacity="1" fill-opacity="1" fill="#000000" stroke="none" text-anchor="middle" y="238" style="text-anchor: middle;"></text><text transform="matrix(1,0,0,1,0,0)" x="395" opacity="1" fill-opacity="1" fill="#000000" stroke="none" text-anchor="middle" y="241" style="text-anchor: middle;"></text><text transform="matrix(1,0,0,1,0,0)" x="404.5" opacity="1" fill-opacity="1" fill="#000000" stroke="none" text-anchor="middle" y="197" style="text-anchor: middle;"></text><text transform="matrix(1,0,0,1,0,0)" x="414.5" opacity="1" fill-opacity="1" fill="#000000" stroke="none" text-anchor="middle" y="196" style="text-anchor: middle;"></text><text transform="matrix(1,0,0,1,0,0)" x="423.5" opacity="1" fill-opacity="1" fill="#000000" stroke="none" text-anchor="middle" y="214" style="text-anchor: middle;"></text><text transform="matrix(1,0,0,1,0,0)" x="433.5" opacity="1" fill-opacity="1" fill="#000000" stroke="none" text-anchor="middle" y="181" style="text-anchor: middle;"></text><text transform="matrix(1,0,0,1,0,0)" x="443" opacity="1" fill-opacity="1" fill="#000000" stroke="none" text-anchor="middle" y="115" style="text-anchor: middle;"></text><text transform="matrix(1,0,0,1,0,0)" x="452.5" opacity="1" fill-opacity="1" fill="#000000" stroke="none" text-anchor="middle" y="97" style="text-anchor: middle;"></text><text transform="matrix(1,0,0,1,0,0)" x="462" opacity="1" fill-opacity="1" fill="#000000" stroke="none" text-anchor="middle" y="101" style="text-anchor: middle;"></text><text transform="matrix(1,0,0,1,0,0)" x="471.5" opacity="1" fill-opacity="1" fill="#000000" stroke="none" text-anchor="middle" y="115" style="text-anchor: middle;"></text><text transform="matrix(1,0,0,1,0,0)" x="481" opacity="1" fill-opacity="1" fill="#000000" stroke="none" text-anchor="middle" y="139" style="text-anchor: middle;"></text><text transform="matrix(1,0,0,1,0,0)" x="490.5" opacity="1" fill-opacity="1" fill="#000000" stroke="none" text-anchor="middle" y="156" style="text-anchor: middle;"></text><text transform="matrix(1,0,0,1,0,0)" x="500" opacity="1" fill-opacity="1" fill="#000000" stroke="none" text-anchor="middle" y="145" style="text-anchor: middle;"></text><text transform="matrix(1,0,0,1,0,0)" x="509.5" opacity="1" fill-opacity="1" fill="#000000" stroke="none" text-anchor="middle" y="113" style="text-anchor: middle;"></text><text transform="matrix(1,0,0,1,0,0)" x="519.5" opacity="1" fill-opacity="1" fill="#000000" stroke="none" text-anchor="middle" y="110" style="text-anchor: middle;"></text><text transform="matrix(1,0,0,1,0,0)" x="528.5" opacity="1" fill-opacity="1" fill="#000000" stroke="none" text-anchor="middle" y="87" style="text-anchor: middle;"></text><text transform="matrix(1,0,0,1,0,0)" x="538.5" opacity="1" fill-opacity="1" fill="#000000" stroke="none" text-anchor="middle" y="88" style="text-anchor: middle;"></text><text transform="matrix(1,0,0,1,0,0)" x="548" opacity="1" fill-opacity="1" fill="#000000" stroke="none" text-anchor="middle" y="95" style="text-anchor: middle;"></text><text transform="matrix(1,0,0,1,0,0)" x="557.5" opacity="1" fill-opacity="1" fill="#000000" stroke="none" text-anchor="middle" y="106" style="text-anchor: middle;"></text><text transform="matrix(1,0,0,1,0,0)" x="567" opacity="1" fill-opacity="1" fill="#000000" stroke="none" text-anchor="middle" y="106" style="text-anchor: middle;"></text><text transform="matrix(1,0,0,1,0,0)" x="576.5" opacity="1" fill-opacity="1" fill="#000000" stroke="none" text-anchor="middle" y="99" style="text-anchor: middle;"></text><text transform="matrix(1,0,0,1,0,0)" x="586" opacity="1" fill-opacity="1" fill="#000000" stroke="none" text-anchor="middle" y="105" style="text-anchor: middle;"></text><text transform="matrix(1,0,0,1,0,0)" x="595.5" opacity="1" fill-opacity="1" fill="#000000" stroke="none" text-anchor="middle" y="96" style="text-anchor: middle;"></text><text transform="matrix(1,0,0,1,0,0)" x="605" opacity="1" fill-opacity="1" fill="#000000" stroke="none" text-anchor="middle" y="102" style="text-anchor: middle;"></text><text transform="matrix(1,0,0,1,0,0)" x="614.5" opacity="1" fill-opacity="1" fill="#000000" stroke="none" text-anchor="middle" y="119" style="text-anchor: middle;"></text><text transform="matrix(1,0,0,1,0,0)" x="624.5" opacity="1" fill-opacity="1" fill="#000000" stroke="none" text-anchor="middle" y="100" style="text-anchor: middle;"></text></g></g></g></g><g class="raphael-group-1262-crosslineTop"><g class="raphael-group-2820-crosslineTop"></g></g><g class="raphael-group-1242-aboveplot"></g><g class="raphael-group-1243-caption"><text fill-opacity="1" fill="#5a5a5a" x="338.1" text-anchor="middle" stroke="none" y="31" font-family="Source Sans Pro" font-size="18px" font-weight="bold" style="text-anchor: middle; font-family: &quot;Source Sans Pro&quot;; font-size: 18px; font-weight: bold;">Daily Stock Price HRYS</text><text fill-opacity="1" fill="#999999" x="338.1" text-anchor="middle" stroke="none" y="50" font-family="Source Sans Pro" font-size="13px" font-weight="normal" style="text-anchor: middle; font-family: &quot;Source Sans Pro&quot;; font-size: 13px; font-weight: normal;">Last 2 months</text></g><g class="raphael-group-1244-chartdefault"></g><g class="raphael-group-1245-chartdefault-shadow"></g><g class="raphael-group-1246-tracker"></g><g class="raphael-group-1247-logo"></g><g class="raphael-group-1248-selectorGroup"></g><g class="raphael-group-1249-legend"><g class="raphael-group-1482-legendGroup" transform="matrix(1,0,0,1,337.9,353)"><rect x="0" y="0" width="0" height="0" ry="0" rx="0" stroke="#415d6f" stroke-opacity="0" stroke-width="0" fill-opacity="0" fill="#ffffff" style="cursor: default;"></rect><g class="raphael-group-1484-item" transform="matrix(1,0,0,1,0,0)"></g></g></g><g class="raphael-group-1250-toolbar-master"><g class="raphael-group-1255-toolbar"><rect fill-opacity="0" fill="#eeeeee" stroke="#eeeeee" stroke-opacity="0" stroke-width="1" width="0" height="0" x="670" y="6" ry="0" rx="0"></rect></g></g></g><rect x="0" y="0" width="10" height="30" ry="0" rx="0" fill="none" stroke="#000000" style="display: none;"></rect></svg>