<svg xmlns="http://www.w3.org/2000/svg" width="200" height="200" class="marks"><g fill="none" stroke-miterlimit="10" aria-roledescription="group mark container" class="mark-group role-frame root"><path d="M0 0h200v200H0Z" aria-hidden="true" class="background"/><g aria-roledescription="arc mark container" class="mark-arc role-mark"><path fill="#1f77b4" d="M100 0a100 100 0 0 1 61.478 21.13l-24.591 31.548A60 60 0 0 0 100 40Z"/><path fill="#aec7e8" d="M161.478 21.13a100 100 0 0 1 38.165 87.307l-39.857-3.375a60 60 0 0 0-22.9-52.384Z"/><path fill="#ff7f0e" d="M199.643 108.437a100 100 0 0 1-116.456 90.14l6.725-39.431a60 60 0 0 0 69.874-54.084Z"/><path fill="#ffbb78" d="M83.187 198.576a100 100 0 0 1-44.933-19.916l24.698-31.464a60 60 0 0 0 26.96 11.95Z"/><path fill="#2ca02c" d="M38.254 178.66A100 100 0 0 1 3.194 74.93l38.722 10.028a60 60 0 0 0 21.036 62.238Z"/><path fill="#98df8a" d="M3.193 74.93A100 100 0 0 1 100.681.002l-.272 40a60 60 0 0 0-58.493 44.956Z"/></g></g></svg>