<?xml version="1.0" encoding="utf-8"?>
<!-- Generator: Adobe Illustrator 23.0.3, SVG Export Plug-In . SVG Version: 6.00 Build 0)  -->
<svg version="1.1" id="Layer_1" xmlns="http://www.w3.org/2000/svg" xmlns:xlink="http://www.w3.org/1999/xlink" x="0px" y="0px"
	 width="450px" height="269px" viewBox="0 0 450 269" style="enable-background:new 0 0 450 269;" xml:space="preserve">
<style type="text/css">
	.st0{enable-background:new    ;}
	.st1{fill:#34495E;}
	.st2{stroke:#34495E;stroke-width:2;}
	.st3{fill:#1ABC9C;}
</style>
<g class="st0">
	<path class="st1" d="M97.1,8.6V6.7h13.2v1.9h-5.5V24h-2.2V8.6H97.1z"/>
	<path class="st1" d="M112.3,17.7c0-1.2,0.3-2.3,0.8-3.3c0.5-1,1.3-1.8,2.2-2.4c0.9-0.6,2-0.9,3.2-0.9c1.2,0,2.3,0.3,3.2,0.9
		s1.6,1.4,2.1,2.4c0.5,1,0.7,2.2,0.7,3.4v0.5h-10.2c0.1,1.2,0.5,2.3,1.3,3.1s1.9,1.2,3.2,1.2c0.7,0,1.4-0.1,2.1-0.4
		c0.7-0.3,1.3-0.7,1.8-1.2l0.9,1.3c-1.3,1.3-3,2-5,2c-1.9,0-3.4-0.6-4.6-1.8S112.3,19.7,112.3,17.7z M114.3,16.9h8.3
		c0-0.5-0.1-1-0.3-1.4s-0.4-0.9-0.7-1.3c-0.3-0.4-0.8-0.8-1.3-1c-0.5-0.3-1.2-0.4-1.8-0.4c-0.6,0-1.2,0.1-1.8,0.4s-1,0.6-1.3,1
		c-0.3,0.4-0.6,0.9-0.8,1.3C114.5,15.9,114.4,16.4,114.3,16.9z"/>
	<path class="st1" d="M127.7,24V11.4h1.9v1.8c0.3-0.5,0.9-1,1.7-1.4s1.6-0.7,2.4-0.7c0.9,0,1.6,0.2,2.2,0.7c0.6,0.4,0.9,1,1.1,1.7
		c0.4-0.6,1-1.2,1.8-1.6s1.6-0.7,2.5-0.7c1.2,0,2,0.3,2.6,1s0.9,1.6,0.9,2.8V24h-1.9v-8.5c0-1.7-0.8-2.6-2.3-2.6
		c-0.6,0-1.3,0.2-1.9,0.6c-0.6,0.4-1.1,0.8-1.4,1.4V24h-1.9v-8.5c0-1.7-0.8-2.6-2.3-2.6c-0.6,0-1.2,0.2-1.8,0.6
		c-0.6,0.4-1.1,0.8-1.5,1.4V24H127.7z"/>
	<path class="st1" d="M148.7,28.8V11.4h1.9v1.9c0.5-0.7,1.1-1.2,1.8-1.6c0.7-0.4,1.6-0.6,2.4-0.6c1.7,0,3,0.6,4.1,1.8
		c1,1.2,1.5,2.8,1.5,4.8c0,2-0.5,3.6-1.5,4.8c-1,1.2-2.4,1.8-4.1,1.8c-0.8,0-1.6-0.2-2.4-0.6c-0.7-0.4-1.4-0.9-1.9-1.6v6.7H148.7z
		 M150.6,20.6c0.3,0.6,0.9,1,1.6,1.4c0.7,0.4,1.4,0.6,2.2,0.6c1.2,0,2.2-0.5,2.9-1.4s1.1-2.1,1.1-3.5c0-1.4-0.4-2.6-1.1-3.5
		c-0.7-0.9-1.7-1.4-2.9-1.4c-0.7,0-1.5,0.2-2.2,0.6s-1.2,0.9-1.6,1.4V20.6z"/>
	<path class="st1" d="M162.8,17.7c0-1.2,0.3-2.3,0.8-3.3c0.5-1,1.3-1.8,2.2-2.4c0.9-0.6,2-0.9,3.2-0.9c1.2,0,2.3,0.3,3.2,0.9
		s1.6,1.4,2.1,2.4c0.5,1,0.7,2.2,0.7,3.4v0.5h-10.2c0.1,1.2,0.5,2.3,1.3,3.1s1.9,1.2,3.2,1.2c0.7,0,1.4-0.1,2.1-0.4
		c0.7-0.3,1.3-0.7,1.8-1.2l0.9,1.3c-1.3,1.3-3,2-5,2c-1.9,0-3.4-0.6-4.6-1.8S162.8,19.7,162.8,17.7z M164.8,16.9h8.3
		c0-0.5-0.1-1-0.3-1.4s-0.4-0.9-0.7-1.3c-0.3-0.4-0.8-0.8-1.3-1c-0.5-0.3-1.2-0.4-1.8-0.4c-0.6,0-1.2,0.1-1.8,0.4s-1,0.6-1.3,1
		c-0.3,0.4-0.6,0.9-0.8,1.3C165,15.9,164.9,16.4,164.8,16.9z"/>
	<path class="st1" d="M178.2,24V11.4h1.9v2c0.5-0.7,1.2-1.2,1.9-1.7c0.7-0.4,1.5-0.6,2.3-0.6v2c-0.3,0-0.6-0.1-0.7-0.1
		c-0.6,0-1.3,0.2-2,0.6s-1.2,0.9-1.5,1.4V24H178.2z"/>
	<path class="st1" d="M186.1,20.2c0-0.7,0.1-1.3,0.4-1.8c0.3-0.5,0.6-1,1-1.3c0.4-0.3,0.9-0.6,1.4-0.7s1-0.3,1.6-0.3
		c1.8,0,3.2,0.6,4.2,1.7v-2.3c0-0.8-0.3-1.5-0.9-1.9c-0.6-0.5-1.4-0.7-2.3-0.7c-1.5,0-2.8,0.6-3.8,1.8l-0.9-1.4c1.3-1.4,3-2.1,5-2.1
		c0.7,0,1.3,0.1,1.9,0.2s1.1,0.4,1.5,0.7c0.4,0.3,0.8,0.8,1.1,1.3s0.4,1.2,0.4,1.9V24h-1.9v-1.4c-1,1.2-2.4,1.8-4.2,1.8
		c-0.5,0-1-0.1-1.6-0.3c-0.5-0.2-1-0.4-1.4-0.8s-0.8-0.8-1-1.3C186.2,21.4,186.1,20.8,186.1,20.2z M188,20.2c0,0.8,0.3,1.5,0.9,2
		c0.6,0.5,1.3,0.8,2.3,0.8c0.7,0,1.4-0.1,2-0.4c0.6-0.3,1.1-0.7,1.5-1.2V19c-0.4-0.5-0.9-0.9-1.5-1.1c-0.6-0.3-1.3-0.4-2-0.4
		c-0.9,0-1.7,0.3-2.3,0.8C188.3,18.7,188,19.4,188,20.2z"/>
	<path class="st1" d="M198.7,13.1v-1.7h2.1V8h1.9v3.5h2.6v1.7h-2.6V21c0,0.5,0.1,0.9,0.3,1.2c0.2,0.3,0.5,0.4,0.9,0.4
		c0.6,0,1-0.2,1.3-0.5l0.6,1.5c-0.6,0.5-1.3,0.8-2.3,0.8c-0.9,0-1.6-0.3-2.1-0.8c-0.5-0.5-0.7-1.2-0.7-2.2v-8.2H198.7z"/>
	<path class="st1" d="M208.1,20.3v-8.9h1.9v8.3c0,1.1,0.2,1.8,0.7,2.2s1.2,0.6,2.1,0.6c0.7,0,1.4-0.2,2.1-0.5
		c0.7-0.4,1.2-0.8,1.6-1.3v-9.2h1.9V24h-1.9v-1.8c-0.5,0.6-1.2,1.1-2,1.5c-0.8,0.4-1.6,0.6-2.5,0.6C209.5,24.3,208.1,23,208.1,20.3z
		"/>
	<path class="st1" d="M222.4,24V11.4h1.9v2c0.5-0.7,1.2-1.2,1.9-1.7c0.7-0.4,1.5-0.6,2.3-0.6v2c-0.3,0-0.6-0.1-0.8-0.1
		c-0.6,0-1.3,0.2-2,0.6c-0.7,0.4-1.2,0.9-1.5,1.4V24H222.4z"/>
	<path class="st1" d="M230.3,17.7c0-1.2,0.3-2.3,0.8-3.3c0.5-1,1.3-1.8,2.2-2.4c0.9-0.6,2-0.9,3.2-0.9c1.2,0,2.3,0.3,3.2,0.9
		c0.9,0.6,1.6,1.4,2.1,2.4c0.5,1,0.7,2.2,0.7,3.4v0.5h-10.2c0.1,1.2,0.5,2.3,1.3,3.1s1.9,1.2,3.2,1.2c0.7,0,1.4-0.1,2.1-0.4
		c0.7-0.3,1.3-0.7,1.8-1.2l0.9,1.3c-1.3,1.3-3,2-5,2c-1.9,0-3.4-0.6-4.6-1.8S230.3,19.7,230.3,17.7z M232.3,16.9h8.3
		c0-0.5-0.1-1-0.3-1.4c-0.2-0.5-0.4-0.9-0.7-1.3s-0.8-0.8-1.3-1c-0.5-0.3-1.2-0.4-1.8-0.4c-0.6,0-1.2,0.1-1.8,0.4s-1,0.6-1.3,1
		c-0.3,0.4-0.6,0.9-0.8,1.3C232.4,15.9,232.3,16.4,232.3,16.9z"/>
	<path class="st1" d="M252.4,9.3C252.2,9,252,8.7,252,8.3s0.1-0.7,0.4-0.9c0.3-0.3,0.6-0.4,0.9-0.4c0.4,0,0.7,0.1,0.9,0.4
		c0.3,0.3,0.4,0.6,0.4,0.9s-0.1,0.7-0.4,0.9s-0.6,0.4-0.9,0.4C253,9.7,252.7,9.5,252.4,9.3z M252.4,24V11.4h1.9V24H252.4z"/>
	<path class="st1" d="M258.2,24V11.4h1.9v1.8c0.5-0.6,1.1-1.1,2-1.5c0.8-0.4,1.7-0.6,2.6-0.6c2.7,0,4,1.4,4,4.1V24h-1.9v-8.2
		c0-1.1-0.2-1.8-0.7-2.3c-0.5-0.4-1.2-0.7-2.1-0.7c-0.7,0-1.4,0.2-2.1,0.6s-1.2,0.8-1.6,1.4V24H258.2z"/>
	<path class="st1" d="M278.6,20.2c0-0.7,0.1-1.3,0.4-1.8c0.3-0.5,0.6-1,1-1.3c0.4-0.3,0.9-0.6,1.4-0.7s1-0.3,1.6-0.3
		c1.8,0,3.2,0.6,4.2,1.7v-2.3c0-0.8-0.3-1.5-0.9-1.9c-0.6-0.5-1.4-0.7-2.3-0.7c-1.5,0-2.8,0.6-3.8,1.8l-0.9-1.4c1.3-1.4,3-2.1,5-2.1
		c0.7,0,1.3,0.1,1.9,0.2s1.1,0.4,1.5,0.7c0.4,0.3,0.8,0.8,1.1,1.3s0.4,1.2,0.4,1.9V24h-1.9v-1.4c-1,1.2-2.4,1.8-4.2,1.8
		c-0.5,0-1-0.1-1.6-0.3c-0.5-0.2-1-0.4-1.4-0.8s-0.8-0.8-1-1.3C278.7,21.4,278.6,20.8,278.6,20.2z M280.5,20.2c0,0.8,0.3,1.5,0.9,2
		c0.6,0.5,1.3,0.8,2.3,0.8c0.7,0,1.3-0.1,2-0.4c0.6-0.3,1.1-0.7,1.5-1.2V19c-0.4-0.5-0.9-0.9-1.5-1.1c-0.6-0.3-1.3-0.4-2-0.4
		c-0.9,0-1.7,0.3-2.3,0.8C280.8,18.7,280.5,19.4,280.5,20.2z"/>
	<path class="st1" d="M298,13.1v-1.7h2.1V8h1.9v3.5h2.6v1.7h-2.6V21c0,0.5,0.1,0.9,0.3,1.2c0.2,0.3,0.5,0.4,0.9,0.4
		c0.6,0,1-0.2,1.3-0.5l0.6,1.5c-0.6,0.5-1.3,0.8-2.3,0.8c-0.9,0-1.6-0.3-2.1-0.8c-0.5-0.5-0.7-1.2-0.7-2.2v-8.2H298z"/>
	<path class="st1" d="M307.4,21c-0.5-1-0.7-2.1-0.7-3.3c0-1.2,0.2-2.3,0.7-3.3c0.5-1,1.2-1.8,2.2-2.4c1-0.6,2.1-0.9,3.3-0.9
		s2.3,0.3,3.3,0.9c1,0.6,1.7,1.4,2.2,2.4c0.5,1,0.7,2.1,0.7,3.3c0,1.2-0.2,2.3-0.7,3.3c-0.5,1-1.2,1.8-2.2,2.4
		c-1,0.6-2.1,0.9-3.3,0.9s-2.3-0.3-3.3-0.9C308.6,22.8,307.9,22,307.4,21z M308.7,17.7c0,1.4,0.4,2.5,1.1,3.5c0.7,0.9,1.8,1.4,3,1.4
		c0.9,0,1.6-0.2,2.3-0.7c0.6-0.5,1.1-1,1.4-1.8c0.3-0.7,0.5-1.5,0.5-2.4c0-0.9-0.2-1.7-0.5-2.4c-0.3-0.7-0.8-1.3-1.4-1.8
		c-0.6-0.5-1.4-0.7-2.3-0.7s-1.6,0.2-2.3,0.7c-0.6,0.5-1.1,1-1.4,1.8C308.9,16.1,308.7,16.8,308.7,17.7z"/>
	<path class="st1" d="M320.6,11.4h2.1l3.1,10l3.3-10h1.7l3.3,10l3.1-10h2.1l-4,12.6h-2l-3.3-10.1L326.6,24h-2L320.6,11.4z"/>
	<path class="st1" d="M341.3,24V11.4h1.9v1.8c0.5-0.6,1.1-1.1,2-1.5c0.8-0.4,1.7-0.6,2.6-0.6c2.7,0,4,1.4,4,4.1V24h-1.9v-8.2
		c0-1.1-0.2-1.8-0.7-2.3c-0.5-0.4-1.2-0.7-2.1-0.7c-0.7,0-1.4,0.2-2.1,0.6c-0.7,0.4-1.2,0.8-1.6,1.4V24H341.3z"/>
</g>
<path class="st2" d="M24,234h402 M25,234v7.5"/>
<g class="st0">
	<path class="st1" d="M24.2,256.2l-0.4,2.8h-6v-0.1c0-0.2,0.1-0.3,0.2-0.5l3.1-3.5c1.1-1.3,1.7-2.5,1.7-3.6c0-0.7-0.2-1.3-0.5-1.8
		c-0.4-0.6-0.9-0.8-1.6-0.8c-0.5,0-1,0.2-1.4,0.5c-0.4,0.3-0.7,0.7-0.9,1.2c0,0,0.1,0,0.1,0c0.6,0,0.9,0.3,0.9,0.9
		c0,0.2-0.1,0.4-0.2,0.6c-0.2,0.2-0.4,0.2-0.6,0.2c-0.6,0-0.9-0.3-0.9-0.9c0-0.8,0.3-1.5,0.9-2.1c0.6-0.6,1.3-0.9,2.1-0.9
		c1,0,1.8,0.3,2.4,0.8c0.7,0.6,1,1.4,1,2.3c0,0.6-0.2,1.2-0.6,1.8c-0.2,0.3-0.7,0.8-1.3,1.4l-3.3,3.2h3.2c0.7,0,1.1,0,1.2-0.1
		c0.1-0.1,0.2-0.6,0.4-1.4H24.2z"/>
	<path class="st1" d="M31.7,259c-0.4,0-0.7,0-1.1,0h-3.2c-0.3,0-0.7,0-1.1,0v-0.5c0.1,0,0.2,0,0.3,0s0.2,0,0.3,0
		c0.8,0,1.3-0.1,1.4-0.3c0-0.1,0.1-0.2,0.1-0.4v-8.5c-0.6,0.3-1.3,0.4-2.1,0.4v-0.5c1.3,0,2.3-0.3,3-1h0.1c0.2,0,0.2,0,0.3,0.1
		c0,0,0,0.1,0,0.3v9.2c0,0.2,0,0.3,0.1,0.4c0.1,0.2,0.4,0.3,0.9,0.3c0.1,0,0.4,0,1.1,0V259z"/>
</g>
<path class="st2" d="M53.6,234v7.5"/>
<g class="st0">
	<path class="st1" d="M52.8,256.2l-0.4,2.8h-6v-0.1c0-0.2,0.1-0.3,0.2-0.5l3.1-3.5c1.1-1.3,1.7-2.5,1.7-3.6c0-0.7-0.2-1.3-0.5-1.8
		c-0.4-0.6-0.9-0.8-1.6-0.8c-0.5,0-1,0.2-1.4,0.5c-0.4,0.3-0.7,0.7-0.9,1.2c0,0,0.1,0,0.1,0c0.6,0,0.9,0.3,0.9,0.9
		c0,0.2-0.1,0.4-0.2,0.6c-0.2,0.2-0.4,0.2-0.6,0.2c-0.6,0-0.9-0.3-0.9-0.9c0-0.8,0.3-1.5,0.9-2.1c0.6-0.6,1.3-0.9,2.1-0.9
		c1,0,1.8,0.3,2.4,0.8c0.7,0.6,1,1.4,1,2.3c0,0.6-0.2,1.2-0.6,1.8c-0.2,0.3-0.7,0.8-1.3,1.4l-3.3,3.2h3.2c0.7,0,1.1,0,1.2-0.1
		c0.1-0.1,0.2-0.6,0.4-1.4H52.8z"/>
	<path class="st1" d="M60.8,256.2l-0.4,2.8h-6v-0.1c0-0.2,0.1-0.3,0.2-0.5l3.1-3.5c1.1-1.3,1.7-2.5,1.7-3.6c0-0.7-0.2-1.3-0.5-1.8
		c-0.4-0.6-0.9-0.8-1.6-0.8c-0.5,0-1,0.2-1.4,0.5c-0.4,0.3-0.7,0.7-0.9,1.2c0,0,0.1,0,0.1,0c0.6,0,0.9,0.3,0.9,0.9
		c0,0.2-0.1,0.4-0.2,0.6c-0.2,0.2-0.4,0.2-0.6,0.2c-0.6,0-0.9-0.3-0.9-0.9c0-0.8,0.3-1.5,0.9-2.1c0.6-0.6,1.3-0.9,2.1-0.9
		c1,0,1.8,0.3,2.4,0.8c0.7,0.6,1,1.4,1,2.3c0,0.6-0.2,1.2-0.6,1.8c-0.2,0.3-0.7,0.8-1.3,1.4l-3.3,3.2h3.2c0.7,0,1.1,0,1.2-0.1
		c0.1-0.1,0.2-0.6,0.4-1.4H60.8z"/>
</g>
<path class="st2" d="M82.1,234v7.5"/>
<g class="st0">
	<path class="st1" d="M81.4,256.2l-0.4,2.8h-6v-0.1c0-0.2,0.1-0.3,0.2-0.5l3.1-3.5c1.1-1.3,1.7-2.5,1.7-3.6c0-0.7-0.2-1.3-0.5-1.8
		c-0.4-0.6-0.9-0.8-1.6-0.8c-0.5,0-1,0.2-1.4,0.5c-0.4,0.3-0.7,0.7-0.9,1.2c0,0,0.1,0,0.1,0c0.6,0,0.9,0.3,0.9,0.9
		c0,0.2-0.1,0.4-0.2,0.6c-0.2,0.2-0.4,0.2-0.6,0.2c-0.6,0-0.9-0.3-0.9-0.9c0-0.8,0.3-1.5,0.9-2.1c0.6-0.6,1.3-0.9,2.1-0.9
		c1,0,1.8,0.3,2.4,0.8c0.7,0.6,1,1.4,1,2.3c0,0.6-0.2,1.2-0.6,1.8c-0.2,0.3-0.7,0.8-1.3,1.4l-3.3,3.2h3.2c0.7,0,1.1,0,1.2-0.1
		c0.1-0.1,0.2-0.6,0.4-1.4H81.4z"/>
	<path class="st1" d="M89.5,256.2c0,0.9-0.4,1.7-1.1,2.3c-0.7,0.6-1.5,0.9-2.4,0.9c-0.8,0-1.6-0.2-2.2-0.6c-0.7-0.5-1.1-1.1-1.1-1.9
		c0-0.3,0.1-0.5,0.2-0.7c0.2-0.2,0.4-0.3,0.7-0.3c0.3,0,0.5,0.1,0.7,0.3c0.2,0.2,0.3,0.4,0.3,0.7c0,0.3-0.1,0.5-0.3,0.6
		s-0.4,0.2-0.7,0.2c-0.1,0-0.1,0-0.2,0c0.2,0.4,0.6,0.7,1.1,0.9c0.4,0.2,0.9,0.3,1.4,0.3c0.7,0,1.1-0.3,1.5-0.9
		c0.2-0.5,0.4-1.1,0.4-1.8c0-0.8-0.1-1.4-0.4-1.8c-0.3-0.6-0.8-0.9-1.5-0.9h-0.8c-0.2,0-0.3-0.1-0.3-0.2c0-0.1,0.1-0.2,0.4-0.2
		c0.2,0,0.3,0,0.5,0c0.6,0,1.1-0.3,1.4-0.8c0.3-0.5,0.5-1.1,0.5-1.9c0-0.5-0.1-1-0.4-1.3c-0.3-0.4-0.7-0.5-1.2-0.5
		c-1,0-1.7,0.3-2.2,1c0.7,0,1,0.3,1,0.8c0,0.2-0.1,0.4-0.2,0.6c-0.2,0.2-0.4,0.2-0.6,0.2c-0.2,0-0.5-0.1-0.6-0.2
		c-0.2-0.2-0.2-0.4-0.2-0.6c0-0.7,0.3-1.2,1-1.7c0.6-0.4,1.2-0.6,1.9-0.6c0.7,0,1.4,0.2,2,0.6c0.7,0.4,1,1,1,1.7
		c0,0.7-0.2,1.3-0.7,1.8c-0.4,0.5-1,0.9-1.6,1.1c0.8,0.2,1.4,0.5,1.9,1C89.2,254.8,89.5,255.5,89.5,256.2z"/>
</g>
<path class="st2" d="M110.7,234v7.5"/>
<g class="st0">
	<path class="st1" d="M110,256.2l-0.4,2.8h-6v-0.1c0-0.2,0.1-0.3,0.2-0.5l3.1-3.5c1.1-1.3,1.7-2.5,1.7-3.6c0-0.7-0.2-1.3-0.5-1.8
		c-0.4-0.6-0.9-0.8-1.6-0.8c-0.5,0-1,0.2-1.4,0.5c-0.4,0.3-0.7,0.7-0.9,1.2c0,0,0.1,0,0.1,0c0.6,0,0.9,0.3,0.9,0.9
		c0,0.2-0.1,0.4-0.2,0.6c-0.2,0.2-0.4,0.2-0.6,0.2c-0.6,0-0.9-0.3-0.9-0.9c0-0.8,0.3-1.5,0.9-2.1c0.6-0.6,1.3-0.9,2.1-0.9
		c1,0,1.8,0.3,2.4,0.8c0.7,0.6,1,1.4,1,2.3c0,0.6-0.2,1.2-0.6,1.8c-0.2,0.3-0.7,0.8-1.3,1.4l-3.3,3.2h3.2c0.7,0,1.1,0,1.2-0.1
		c0.1-0.1,0.2-0.6,0.4-1.4H110z"/>
	<path class="st1" d="M118.3,256.3h-1.6v1.5c0,0.2,0,0.3,0.1,0.4c0.1,0.2,0.6,0.3,1.5,0.3v0.5c-0.4,0-0.8,0-1.1,0h-2.2
		c-0.3,0-0.7,0-1.1,0v-0.5c0.2,0,0.4,0,0.5,0c0.6,0,0.9-0.1,1-0.3c0-0.1,0.1-0.2,0.1-0.4v-1.5h-4.3v-0.5l5-7.6
		c0.1-0.1,0.2-0.2,0.3-0.2c0.1,0,0.2,0,0.2,0.1c0,0,0,0.1,0,0.3v7.4h1.6V256.3z M115.5,255.8v-6.1l-4,6.1H115.5z"/>
</g>
<path class="st2" d="M139.3,234v7.5"/>
<g class="st0">
	<path class="st1" d="M138.5,256.2l-0.4,2.8h-6v-0.1c0-0.2,0.1-0.3,0.2-0.5l3.1-3.5c1.1-1.3,1.7-2.5,1.7-3.6c0-0.7-0.2-1.3-0.5-1.8
		c-0.4-0.6-0.9-0.8-1.6-0.8c-0.5,0-1,0.2-1.4,0.5c-0.4,0.3-0.7,0.7-0.9,1.2c0,0,0.1,0,0.1,0c0.6,0,0.9,0.3,0.9,0.9
		c0,0.2-0.1,0.4-0.2,0.6c-0.2,0.2-0.4,0.2-0.6,0.2c-0.6,0-0.9-0.3-0.9-0.9c0-0.8,0.3-1.5,0.9-2.1c0.6-0.6,1.3-0.9,2.1-0.9
		c1,0,1.8,0.3,2.4,0.8c0.7,0.6,1,1.4,1,2.3c0,0.6-0.2,1.2-0.6,1.8c-0.2,0.3-0.7,0.8-1.3,1.4l-3.3,3.2h3.2c0.7,0,1.1,0,1.2-0.1
		c0.1-0.1,0.2-0.6,0.4-1.4H138.5z"/>
	<path class="st1" d="M146.5,255.7c0,1-0.3,1.8-1,2.6c-0.7,0.7-1.5,1.1-2.5,1.1c-0.8,0-1.5-0.3-2.1-0.9s-0.9-1.3-0.9-2.1
		c0-0.6,0.3-0.9,0.8-0.9c0.2,0,0.4,0.1,0.6,0.2c0.2,0.2,0.2,0.3,0.2,0.6s-0.1,0.4-0.2,0.6c-0.2,0.2-0.4,0.2-0.6,0.2
		c-0.1,0-0.2,0-0.3,0c0.2,0.5,0.5,1,0.9,1.3c0.5,0.3,0.9,0.5,1.5,0.5c0.8,0,1.3-0.4,1.8-1.1c0.3-0.4,0.4-1.2,0.4-2.2
		c0-0.9-0.1-1.6-0.3-2c-0.3-0.7-0.8-1-1.4-1c-0.5,0-0.9,0.1-1.2,0.3c-0.2,0.1-0.5,0.3-0.7,0.6c-0.2,0.2-0.3,0.3-0.4,0.3
		c-0.2,0-0.2-0.1-0.2-0.3v-5.1c0-0.2,0.1-0.3,0.2-0.3c0,0,0.1,0,0.2,0c0.9,0.3,1.6,0.5,2.2,0.5c0.7,0,1.4-0.2,2.2-0.5
		c0.1,0,0.1,0,0.1,0c0.1,0,0.2,0.1,0.2,0.2c0,0.1-0.1,0.2-0.3,0.4c-0.8,0.8-1.7,1.3-2.9,1.3c-0.4,0-0.9-0.1-1.4-0.2v3.2
		c0.6-0.6,1.3-0.8,2.1-0.8c0.9,0,1.7,0.4,2.3,1.1C146.3,254,146.5,254.8,146.5,255.7z"/>
</g>
<path class="st2" d="M167.9,234v7.5"/>
<g class="st0">
	<path class="st1" d="M167.1,256.2l-0.4,2.8h-6v-0.1c0-0.2,0.1-0.3,0.2-0.5l3.1-3.5c1.1-1.3,1.7-2.5,1.7-3.6c0-0.7-0.2-1.3-0.5-1.8
		c-0.4-0.6-0.9-0.8-1.6-0.8c-0.5,0-1,0.2-1.4,0.5c-0.4,0.3-0.7,0.7-0.9,1.2c0,0,0.1,0,0.1,0c0.6,0,0.9,0.3,0.9,0.9
		c0,0.2-0.1,0.4-0.2,0.6c-0.2,0.2-0.4,0.2-0.6,0.2c-0.6,0-0.9-0.3-0.9-0.9c0-0.8,0.3-1.5,0.9-2.1c0.6-0.6,1.3-0.9,2.1-0.9
		c1,0,1.8,0.3,2.4,0.8c0.7,0.6,1,1.4,1,2.3c0,0.6-0.2,1.2-0.6,1.8c-0.2,0.3-0.7,0.8-1.3,1.4l-3.3,3.2h3.2c0.7,0,1.1,0,1.2-0.1
		c0.1-0.1,0.2-0.6,0.4-1.4H167.1z"/>
	<path class="st1" d="M175.2,255.7c0,1-0.3,1.8-0.9,2.6c-0.6,0.7-1.5,1.1-2.4,1.1c-1.3,0-2.2-0.6-2.8-1.9c-0.4-1-0.6-2.1-0.6-3.6
		c0-1.1,0.2-2,0.6-2.9c0.4-1,1.1-1.7,1.9-2.2c0.6-0.3,1.2-0.5,1.8-0.5c0.6,0,1.1,0.1,1.4,0.4c0.4,0.3,0.6,0.8,0.6,1.3
		c0,0.2-0.1,0.4-0.2,0.6c-0.1,0.2-0.3,0.2-0.5,0.2c-0.2,0-0.4-0.1-0.5-0.2c-0.1-0.1-0.2-0.3-0.2-0.5c0-0.5,0.3-0.8,0.9-0.7
		c-0.3-0.4-0.8-0.7-1.4-0.7c-0.4,0-0.8,0.1-1.2,0.4c-1.1,0.7-1.6,2.3-1.6,4.7c0.4-1.1,1.1-1.6,2-1.6c1,0,1.7,0.4,2.4,1.1
		C174.9,253.9,175.2,254.7,175.2,255.7z M173.8,256.1v-0.8c0-0.8-0.1-1.5-0.3-1.9c-0.3-0.7-0.8-1-1.5-1c-0.7,0-1.2,0.3-1.6,1
		c-0.3,0.5-0.4,1.2-0.4,1.9c0,1.1,0.1,1.9,0.3,2.4c0.1,0.3,0.3,0.6,0.6,0.9c0.3,0.2,0.6,0.4,1,0.4c0.7,0,1.3-0.4,1.6-1.1
		C173.7,257.5,173.8,256.9,173.8,256.1z"/>
</g>
<path class="st2" d="M196.4,234v7.5"/>
<g class="st0">
	<path class="st1" d="M195.7,256.2l-0.4,2.8h-6v-0.1c0-0.2,0.1-0.3,0.2-0.5l3.1-3.5c1.1-1.3,1.7-2.5,1.7-3.6c0-0.7-0.2-1.3-0.5-1.8
		c-0.4-0.6-0.9-0.8-1.6-0.8c-0.5,0-1,0.2-1.4,0.5c-0.4,0.3-0.7,0.7-0.9,1.2c0,0,0.1,0,0.1,0c0.6,0,0.9,0.3,0.9,0.9
		c0,0.2-0.1,0.4-0.2,0.6c-0.2,0.2-0.4,0.2-0.6,0.2c-0.6,0-0.9-0.3-0.9-0.9c0-0.8,0.3-1.5,0.9-2.1c0.6-0.6,1.3-0.9,2.1-0.9
		c1,0,1.8,0.3,2.4,0.8c0.7,0.6,1,1.4,1,2.3c0,0.6-0.2,1.2-0.6,1.8c-0.2,0.3-0.7,0.8-1.3,1.4l-3.3,3.2h3.2c0.7,0,1.1,0,1.2-0.1
		c0.1-0.1,0.2-0.6,0.4-1.4H195.7z"/>
	<path class="st1" d="M203.9,248.6c0,0.2,0,0.3-0.1,0.5l-2.2,3.1c-0.5,0.7-0.8,1.6-1,2.8c-0.1,0.8-0.2,2-0.2,3.5
		c0,0.6-0.2,0.9-0.8,0.9c-0.5,0-0.7-0.3-0.7-0.9c0-2,0.7-4,2-6.1c0.4-0.6,1-1.4,1.8-2.6h-3.9c-0.6,0-1,0-1.1,0.1
		c-0.1,0.1-0.3,0.6-0.4,1.5h-0.4l0.5-3.4h0.4c0,0.1,0,0.2,0.1,0.3c0.2,0.2,0.8,0.3,2,0.3h4V248.6z"/>
</g>
<path class="st2" d="M225,234v7.5"/>
<g class="st0">
	<path class="st1" d="M224.2,256.2l-0.4,2.8h-6v-0.1c0-0.2,0.1-0.3,0.2-0.5l3.1-3.5c1.1-1.3,1.7-2.5,1.7-3.6c0-0.7-0.2-1.3-0.5-1.8
		c-0.4-0.6-0.9-0.8-1.6-0.8c-0.5,0-1,0.2-1.4,0.5c-0.4,0.3-0.7,0.7-0.9,1.2c0,0,0.1,0,0.1,0c0.6,0,0.9,0.3,0.9,0.9
		c0,0.2-0.1,0.4-0.2,0.6c-0.2,0.2-0.4,0.2-0.6,0.2c-0.6,0-0.9-0.3-0.9-0.9c0-0.8,0.3-1.5,0.9-2.1c0.6-0.6,1.3-0.9,2.1-0.9
		c1,0,1.8,0.3,2.4,0.8c0.7,0.6,1,1.4,1,2.3c0,0.6-0.2,1.2-0.6,1.8c-0.2,0.3-0.7,0.8-1.3,1.4l-3.3,3.2h3.2c0.7,0,1.1,0,1.2-0.1
		c0.1-0.1,0.2-0.6,0.4-1.4H224.2z"/>
	<path class="st1" d="M232.4,256.3c0,0.9-0.3,1.6-1,2.2c-0.7,0.6-1.4,0.9-2.3,0.9c-0.9,0-1.6-0.2-2.3-0.7c-0.7-0.5-1.1-1.2-1.1-2.1
		c0-1.2,0.8-2.2,2.4-3c-0.3-0.2-0.7-0.5-1.2-0.9c-0.5-0.5-0.7-1.1-0.7-1.8c0-0.8,0.3-1.4,0.9-2c0.6-0.5,1.3-0.8,2-0.8
		c0.8,0,1.4,0.2,2,0.6c0.6,0.5,0.9,1.1,0.9,1.8c0,1-0.7,1.9-2,2.5c0.5,0.3,0.8,0.5,0.9,0.5c0.3,0.2,0.6,0.4,0.8,0.6
		C232.1,254.8,232.4,255.5,232.4,256.3z M231.6,256.8c0-0.4-0.1-0.7-0.4-1.1c-0.2-0.2-0.5-0.5-0.9-0.7c-0.4-0.3-1.1-0.7-2-1.3
		c-1.3,0.7-1.9,1.6-1.9,2.7c0,0.7,0.3,1.2,0.8,1.7c0.5,0.4,1.1,0.7,1.8,0.7c0.6,0,1.2-0.2,1.7-0.5
		C231.3,258,231.6,257.5,231.6,256.8z M231.2,250.6c0-0.6-0.2-1.1-0.7-1.5c-0.4-0.4-1-0.6-1.5-0.6c-0.5,0-1,0.1-1.5,0.4
		c-0.5,0.3-0.7,0.7-0.7,1.3c0,0.5,0.3,0.9,0.8,1.3c0.2,0.1,0.8,0.6,2,1.3C230.7,252.2,231.2,251.5,231.2,250.6z"/>
</g>
<path class="st2" d="M253.6,234v7.5"/>
<g class="st0">
	<path class="st1" d="M252.8,256.2l-0.4,2.8h-6v-0.1c0-0.2,0.1-0.3,0.2-0.5l3.1-3.5c1.1-1.3,1.7-2.5,1.7-3.6c0-0.7-0.2-1.3-0.5-1.8
		c-0.4-0.6-0.9-0.8-1.6-0.8c-0.5,0-1,0.2-1.4,0.5c-0.4,0.3-0.7,0.7-0.9,1.2c0,0,0.1,0,0.1,0c0.6,0,0.9,0.3,0.9,0.9
		c0,0.2-0.1,0.4-0.2,0.6c-0.2,0.2-0.4,0.2-0.6,0.2c-0.6,0-0.9-0.3-0.9-0.9c0-0.8,0.3-1.5,0.9-2.1c0.6-0.6,1.3-0.9,2.1-0.9
		c1,0,1.8,0.3,2.4,0.8c0.7,0.6,1,1.4,1,2.3c0,0.6-0.2,1.2-0.6,1.8c-0.2,0.3-0.7,0.8-1.3,1.4l-3.3,3.2h3.2c0.7,0,1.1,0,1.2-0.1
		c0.1-0.1,0.2-0.6,0.4-1.4H252.8z"/>
	<path class="st1" d="M260.9,253.6c0,0.9-0.1,1.7-0.4,2.4c-0.3,0.9-0.7,1.7-1.4,2.2c-0.7,0.7-1.5,1-2.4,1c-0.6,0-1.1-0.1-1.5-0.4
		c-0.5-0.3-0.7-0.8-0.7-1.4c0-0.5,0.2-0.8,0.7-0.8c0.2,0,0.4,0.1,0.5,0.2c0.1,0.1,0.2,0.3,0.2,0.5c0,0.2-0.1,0.4-0.3,0.6
		c-0.2,0.1-0.4,0.2-0.6,0.2c0.3,0.4,0.9,0.6,1.6,0.6c0.4,0,0.8-0.1,1.2-0.4c0.6-0.4,1-1.1,1.3-2.1c0.1-0.6,0.2-1.5,0.2-2.6
		c-0.4,1.1-1.1,1.6-2,1.6c-1,0-1.7-0.4-2.4-1.1c-0.6-0.7-0.9-1.5-0.9-2.5c0-1.1,0.3-1.9,1-2.6c0.7-0.7,1.5-1,2.4-1
		c0.5,0,1,0.1,1.5,0.4C260.3,249.3,260.9,251,260.9,253.6z M259.5,252.1c0-1.1-0.1-1.8-0.3-2.3c-0.3-0.9-0.8-1.3-1.6-1.3
		s-1.3,0.3-1.6,1c-0.2,0.4-0.3,1.1-0.3,1.9v0.7c0,0.8,0.1,1.5,0.3,1.9c0.3,0.7,0.8,1,1.5,1c0.7,0,1.2-0.3,1.6-1
		C259.3,253.5,259.5,252.9,259.5,252.1z"/>
</g>
<path class="st2" d="M282.1,234v7.5"/>
<g class="st0">
	<path class="st1" d="M281.5,256.2c0,0.9-0.4,1.7-1.1,2.3c-0.7,0.6-1.5,0.9-2.4,0.9c-0.8,0-1.6-0.2-2.2-0.6
		c-0.7-0.5-1.1-1.1-1.1-1.9c0-0.3,0.1-0.5,0.2-0.7s0.4-0.3,0.7-0.3c0.3,0,0.5,0.1,0.7,0.3s0.3,0.4,0.3,0.7c0,0.3-0.1,0.5-0.3,0.6
		s-0.4,0.2-0.7,0.2c-0.1,0-0.1,0-0.2,0c0.2,0.4,0.6,0.7,1.1,0.9c0.4,0.2,0.9,0.3,1.4,0.3c0.7,0,1.1-0.3,1.5-0.9
		c0.2-0.5,0.4-1.1,0.4-1.8c0-0.8-0.1-1.4-0.4-1.8c-0.3-0.6-0.8-0.9-1.5-0.9h-0.8c-0.2,0-0.3-0.1-0.3-0.2c0-0.1,0.1-0.2,0.4-0.2
		c0.2,0,0.3,0,0.5,0c0.6,0,1.1-0.3,1.4-0.8c0.3-0.5,0.5-1.1,0.5-1.9c0-0.5-0.1-1-0.4-1.3c-0.3-0.4-0.7-0.5-1.2-0.5
		c-1,0-1.7,0.3-2.2,1c0.7,0,1,0.3,1,0.8c0,0.2-0.1,0.4-0.2,0.6s-0.4,0.2-0.6,0.2c-0.2,0-0.5-0.1-0.6-0.2s-0.2-0.4-0.2-0.6
		c0-0.7,0.3-1.2,1-1.7c0.6-0.4,1.2-0.6,1.9-0.6c0.7,0,1.4,0.2,2,0.6c0.7,0.4,1,1,1,1.7c0,0.7-0.2,1.3-0.7,1.8
		c-0.4,0.5-1,0.9-1.6,1.1c0.8,0.2,1.4,0.5,1.9,1C281.2,254.8,281.5,255.5,281.5,256.2z"/>
	<path class="st1" d="M289.6,253.8c0,1.6-0.2,2.8-0.6,3.7c-0.6,1.3-1.6,1.9-2.8,1.9c-1.2,0-2.1-0.5-2.7-1.6
		c-0.5-0.9-0.7-2.2-0.7-3.9c0-1.6,0.2-2.9,0.6-3.7c0.6-1.3,1.6-1.9,2.8-1.9c1.2,0,2.2,0.6,2.8,1.8
		C289.3,250.8,289.6,252.1,289.6,253.8z M288.2,254.6v-2c0-1.1-0.1-2-0.3-2.6c-0.3-1-0.9-1.5-1.8-1.5c-0.9,0-1.5,0.5-1.8,1.5
		c-0.2,0.6-0.3,1.5-0.3,2.6c0,0.2,0,0.5,0,1c0,0.4,0,0.7,0,0.9c0,1.2,0.1,2.2,0.3,2.8c0.3,1.1,0.9,1.7,1.8,1.7
		c0.9,0,1.5-0.6,1.8-1.7C288.1,256.7,288.2,255.8,288.2,254.6z"/>
</g>
<path class="st2" d="M310.7,234v7.5"/>
<g class="st0">
	<path class="st1" d="M310.1,256.2c0,0.9-0.4,1.7-1.1,2.3c-0.7,0.6-1.5,0.9-2.4,0.9c-0.8,0-1.6-0.2-2.2-0.6
		c-0.7-0.5-1.1-1.1-1.1-1.9c0-0.3,0.1-0.5,0.2-0.7s0.4-0.3,0.7-0.3c0.3,0,0.5,0.1,0.7,0.3s0.3,0.4,0.3,0.7c0,0.3-0.1,0.5-0.3,0.6
		s-0.4,0.2-0.7,0.2c-0.1,0-0.1,0-0.2,0c0.2,0.4,0.6,0.7,1.1,0.9c0.4,0.2,0.9,0.3,1.4,0.3c0.7,0,1.1-0.3,1.5-0.9
		c0.2-0.5,0.4-1.1,0.4-1.8c0-0.8-0.1-1.4-0.4-1.8c-0.3-0.6-0.8-0.9-1.5-0.9h-0.8c-0.2,0-0.3-0.1-0.3-0.2c0-0.1,0.1-0.2,0.4-0.2
		c0.2,0,0.3,0,0.5,0c0.6,0,1.1-0.3,1.4-0.8c0.3-0.5,0.5-1.1,0.5-1.9c0-0.5-0.1-1-0.4-1.3c-0.3-0.4-0.7-0.5-1.2-0.5
		c-1,0-1.7,0.3-2.2,1c0.7,0,1,0.3,1,0.8c0,0.2-0.1,0.4-0.2,0.6s-0.4,0.2-0.6,0.2c-0.2,0-0.5-0.1-0.6-0.2s-0.2-0.4-0.2-0.6
		c0-0.7,0.3-1.2,1-1.7c0.6-0.4,1.2-0.6,1.9-0.6c0.7,0,1.4,0.2,2,0.6c0.7,0.4,1,1,1,1.7c0,0.7-0.2,1.3-0.7,1.8
		c-0.4,0.5-1,0.9-1.6,1.1c0.8,0.2,1.4,0.5,1.9,1C309.8,254.8,310.1,255.5,310.1,256.2z"/>
	<path class="st1" d="M317.4,259c-0.4,0-0.7,0-1.1,0h-3.2c-0.3,0-0.7,0-1.1,0v-0.5c0.1,0,0.2,0,0.3,0s0.2,0,0.3,0
		c0.8,0,1.3-0.1,1.4-0.3c0-0.1,0.1-0.2,0.1-0.4v-8.5c-0.6,0.3-1.3,0.4-2.1,0.4v-0.5c1.3,0,2.3-0.3,3-1h0.1c0.2,0,0.2,0,0.3,0.1
		c0,0,0,0.1,0,0.3v9.2c0,0.2,0,0.3,0.1,0.4c0.1,0.2,0.4,0.3,0.9,0.3c0.1,0,0.4,0,1.1,0V259z"/>
</g>
<path class="st2" d="M339.3,234v7.5"/>
<g class="st0">
	<path class="st1" d="M338.7,256.2c0,0.9-0.4,1.7-1.1,2.3c-0.7,0.6-1.5,0.9-2.4,0.9c-0.8,0-1.6-0.2-2.2-0.6
		c-0.7-0.5-1.1-1.1-1.1-1.9c0-0.3,0.1-0.5,0.2-0.7c0.2-0.2,0.4-0.3,0.7-0.3c0.3,0,0.5,0.1,0.7,0.3c0.2,0.2,0.3,0.4,0.3,0.7
		c0,0.3-0.1,0.5-0.3,0.6s-0.4,0.2-0.7,0.2c-0.1,0-0.1,0-0.2,0c0.2,0.4,0.6,0.7,1.1,0.9c0.4,0.2,0.9,0.3,1.4,0.3
		c0.7,0,1.1-0.3,1.5-0.9c0.2-0.5,0.4-1.1,0.4-1.8c0-0.8-0.1-1.4-0.4-1.8c-0.3-0.6-0.8-0.9-1.5-0.9h-0.8c-0.2,0-0.3-0.1-0.3-0.2
		c0-0.1,0.1-0.2,0.4-0.2c0.2,0,0.3,0,0.5,0c0.6,0,1.1-0.3,1.4-0.8c0.3-0.5,0.5-1.1,0.5-1.9c0-0.5-0.1-1-0.4-1.3
		c-0.3-0.4-0.7-0.5-1.2-0.5c-1,0-1.7,0.3-2.2,1c0.7,0,1,0.3,1,0.8c0,0.2-0.1,0.4-0.2,0.6c-0.2,0.2-0.4,0.2-0.6,0.2
		c-0.2,0-0.5-0.1-0.6-0.2c-0.2-0.2-0.2-0.4-0.2-0.6c0-0.7,0.3-1.2,1-1.7c0.6-0.4,1.2-0.6,1.9-0.6c0.7,0,1.4,0.2,2,0.6
		c0.7,0.4,1,1,1,1.7c0,0.7-0.2,1.3-0.7,1.8c-0.4,0.5-1,0.9-1.6,1.1c0.8,0.2,1.4,0.5,1.9,1C338.4,254.8,338.7,255.5,338.7,256.2z"/>
	<path class="st1" d="M346.5,256.2l-0.4,2.8h-6v-0.1c0-0.2,0.1-0.3,0.2-0.5l3.1-3.5c1.1-1.3,1.7-2.5,1.7-3.6c0-0.7-0.2-1.3-0.5-1.8
		c-0.4-0.6-0.9-0.8-1.6-0.8c-0.5,0-1,0.2-1.4,0.5c-0.4,0.3-0.7,0.7-0.9,1.2c0,0,0.1,0,0.1,0c0.6,0,0.9,0.3,0.9,0.9
		c0,0.2-0.1,0.4-0.2,0.6c-0.2,0.2-0.4,0.2-0.6,0.2c-0.6,0-0.9-0.3-0.9-0.9c0-0.8,0.3-1.5,0.9-2.1c0.6-0.6,1.3-0.9,2.1-0.9
		c1,0,1.8,0.3,2.4,0.8c0.7,0.6,1,1.4,1,2.3c0,0.6-0.2,1.2-0.6,1.8c-0.2,0.3-0.7,0.8-1.3,1.4l-3.3,3.2h3.2c0.7,0,1.1,0,1.2-0.1
		c0.1-0.1,0.2-0.6,0.4-1.4H346.5z"/>
</g>
<path class="st2" d="M367.9,234v7.5"/>
<g class="st0">
	<path class="st1" d="M367.2,256.2c0,0.9-0.4,1.7-1.1,2.3c-0.7,0.6-1.5,0.9-2.4,0.9c-0.8,0-1.6-0.2-2.2-0.6
		c-0.7-0.5-1.1-1.1-1.1-1.9c0-0.3,0.1-0.5,0.2-0.7c0.2-0.2,0.4-0.3,0.7-0.3c0.3,0,0.5,0.1,0.7,0.3c0.2,0.2,0.3,0.4,0.3,0.7
		c0,0.3-0.1,0.5-0.3,0.6s-0.4,0.2-0.7,0.2c-0.1,0-0.1,0-0.2,0c0.2,0.4,0.6,0.7,1.1,0.9c0.4,0.2,0.9,0.3,1.4,0.3
		c0.7,0,1.1-0.3,1.5-0.9c0.2-0.5,0.4-1.1,0.4-1.8c0-0.8-0.1-1.4-0.4-1.8c-0.3-0.6-0.8-0.9-1.5-0.9h-0.8c-0.2,0-0.3-0.1-0.3-0.2
		c0-0.1,0.1-0.2,0.4-0.2c0.2,0,0.3,0,0.5,0c0.6,0,1.1-0.3,1.4-0.8c0.3-0.5,0.5-1.1,0.5-1.9c0-0.5-0.1-1-0.4-1.3
		c-0.3-0.4-0.7-0.5-1.2-0.5c-1,0-1.7,0.3-2.2,1c0.7,0,1,0.3,1,0.8c0,0.2-0.1,0.4-0.2,0.6c-0.2,0.2-0.4,0.2-0.6,0.2
		c-0.2,0-0.5-0.1-0.6-0.2c-0.2-0.2-0.2-0.4-0.2-0.6c0-0.7,0.3-1.2,1-1.7c0.6-0.4,1.2-0.6,1.9-0.6c0.7,0,1.4,0.2,2,0.6
		c0.7,0.4,1,1,1,1.7c0,0.7-0.2,1.3-0.7,1.8c-0.4,0.5-1,0.9-1.6,1.1c0.8,0.2,1.4,0.5,1.9,1C367,254.8,367.2,255.5,367.2,256.2z"/>
	<path class="st1" d="M375.2,256.2c0,0.9-0.4,1.7-1.1,2.3c-0.7,0.6-1.5,0.9-2.4,0.9c-0.8,0-1.6-0.2-2.2-0.6
		c-0.7-0.5-1.1-1.1-1.1-1.9c0-0.3,0.1-0.5,0.2-0.7c0.2-0.2,0.4-0.3,0.7-0.3c0.3,0,0.5,0.1,0.7,0.3c0.2,0.2,0.3,0.4,0.3,0.7
		c0,0.3-0.1,0.5-0.3,0.6s-0.4,0.2-0.7,0.2c-0.1,0-0.1,0-0.2,0c0.2,0.4,0.6,0.7,1.1,0.9c0.4,0.2,0.9,0.3,1.4,0.3
		c0.7,0,1.1-0.3,1.5-0.9c0.2-0.5,0.4-1.1,0.4-1.8c0-0.8-0.1-1.4-0.4-1.8c-0.3-0.6-0.8-0.9-1.5-0.9h-0.8c-0.2,0-0.3-0.1-0.3-0.2
		c0-0.1,0.1-0.2,0.4-0.2c0.2,0,0.3,0,0.5,0c0.6,0,1.1-0.3,1.4-0.8c0.3-0.5,0.5-1.1,0.5-1.9c0-0.5-0.1-1-0.4-1.3
		c-0.3-0.4-0.7-0.5-1.2-0.5c-1,0-1.7,0.3-2.2,1c0.7,0,1,0.3,1,0.8c0,0.2-0.1,0.4-0.2,0.6c-0.2,0.2-0.4,0.2-0.6,0.2
		c-0.2,0-0.5-0.1-0.6-0.2c-0.2-0.2-0.2-0.4-0.2-0.6c0-0.7,0.3-1.2,1-1.7c0.6-0.4,1.2-0.6,1.9-0.6c0.7,0,1.4,0.2,2,0.6
		c0.7,0.4,1,1,1,1.7c0,0.7-0.2,1.3-0.7,1.8c-0.4,0.5-1,0.9-1.6,1.1c0.8,0.2,1.4,0.5,1.9,1C375,254.8,375.2,255.5,375.2,256.2z"/>
</g>
<path class="st2" d="M396.4,234v7.5"/>
<g class="st0">
	<path class="st1" d="M395.8,256.2c0,0.9-0.4,1.7-1.1,2.3c-0.7,0.6-1.5,0.9-2.4,0.9c-0.8,0-1.6-0.2-2.2-0.6
		c-0.7-0.5-1.1-1.1-1.1-1.9c0-0.3,0.1-0.5,0.2-0.7s0.4-0.3,0.7-0.3c0.3,0,0.5,0.1,0.7,0.3s0.3,0.4,0.3,0.7c0,0.3-0.1,0.5-0.3,0.6
		s-0.4,0.2-0.7,0.2c-0.1,0-0.1,0-0.2,0c0.2,0.4,0.6,0.7,1.1,0.9c0.4,0.2,0.9,0.3,1.4,0.3c0.7,0,1.1-0.3,1.5-0.9
		c0.2-0.5,0.4-1.1,0.4-1.8c0-0.8-0.1-1.4-0.4-1.8c-0.3-0.6-0.8-0.9-1.5-0.9h-0.8c-0.2,0-0.3-0.1-0.3-0.2c0-0.1,0.1-0.2,0.4-0.2
		c0.2,0,0.3,0,0.5,0c0.6,0,1.1-0.3,1.4-0.8c0.3-0.5,0.5-1.1,0.5-1.9c0-0.5-0.1-1-0.4-1.3c-0.3-0.4-0.7-0.5-1.2-0.5
		c-1,0-1.7,0.3-2.2,1c0.7,0,1,0.3,1,0.8c0,0.2-0.1,0.4-0.2,0.6s-0.4,0.2-0.6,0.2c-0.2,0-0.5-0.1-0.6-0.2s-0.2-0.4-0.2-0.6
		c0-0.7,0.3-1.2,1-1.7c0.6-0.4,1.2-0.6,1.9-0.6c0.7,0,1.4,0.2,2,0.6c0.7,0.4,1,1,1,1.7c0,0.7-0.2,1.3-0.7,1.8
		c-0.4,0.5-1,0.9-1.6,1.1c0.8,0.2,1.4,0.5,1.9,1C395.5,254.8,395.8,255.5,395.8,256.2z"/>
	<path class="st1" d="M404,256.3h-1.6v1.5c0,0.2,0,0.3,0.1,0.4c0.1,0.2,0.6,0.3,1.5,0.3v0.5c-0.4,0-0.8,0-1.1,0h-2.2
		c-0.3,0-0.7,0-1.1,0v-0.5c0.2,0,0.4,0,0.5,0c0.6,0,0.9-0.1,1-0.3c0-0.1,0.1-0.2,0.1-0.4v-1.5h-4.3v-0.5l5-7.6
		c0.1-0.1,0.2-0.2,0.3-0.2c0.1,0,0.2,0,0.2,0.1c0,0,0,0.1,0,0.3v7.4h1.6V256.3z M401.2,255.8v-6.1l-4,6.1H401.2z"/>
</g>
<path class="st2" d="M425,234v7.5"/>
<g class="st0">
	<path class="st1" d="M424.4,256.2c0,0.9-0.4,1.7-1.1,2.3c-0.7,0.6-1.5,0.9-2.4,0.9c-0.8,0-1.6-0.2-2.2-0.6
		c-0.7-0.5-1.1-1.1-1.1-1.9c0-0.3,0.1-0.5,0.2-0.7c0.2-0.2,0.4-0.3,0.7-0.3c0.3,0,0.5,0.1,0.7,0.3c0.2,0.2,0.3,0.4,0.3,0.7
		c0,0.3-0.1,0.5-0.3,0.6s-0.4,0.2-0.7,0.2c-0.1,0-0.1,0-0.2,0c0.2,0.4,0.6,0.7,1.1,0.9c0.4,0.2,0.9,0.3,1.4,0.3
		c0.7,0,1.1-0.3,1.5-0.9c0.2-0.5,0.4-1.1,0.4-1.8c0-0.8-0.1-1.4-0.4-1.8c-0.3-0.6-0.8-0.9-1.5-0.9h-0.8c-0.2,0-0.3-0.1-0.3-0.2
		c0-0.1,0.1-0.2,0.4-0.2c0.2,0,0.3,0,0.5,0c0.6,0,1.1-0.3,1.4-0.8c0.3-0.5,0.5-1.1,0.5-1.9c0-0.5-0.1-1-0.4-1.3
		c-0.3-0.4-0.7-0.5-1.2-0.5c-1,0-1.7,0.3-2.2,1c0.7,0,1,0.3,1,0.8c0,0.2-0.1,0.4-0.2,0.6c-0.2,0.2-0.4,0.2-0.6,0.2
		c-0.2,0-0.5-0.1-0.6-0.2c-0.2-0.2-0.2-0.4-0.2-0.6c0-0.7,0.3-1.2,1-1.7c0.6-0.4,1.2-0.6,1.9-0.6c0.7,0,1.4,0.2,2,0.6
		c0.7,0.4,1,1,1,1.7c0,0.7-0.2,1.3-0.7,1.8c-0.4,0.5-1,0.9-1.6,1.1c0.8,0.2,1.4,0.5,1.9,1C424.1,254.8,424.4,255.5,424.4,256.2z"/>
	<path class="st1" d="M432.2,255.7c0,1-0.3,1.8-1,2.6c-0.7,0.7-1.5,1.1-2.5,1.1c-0.8,0-1.5-0.3-2.1-0.9s-0.9-1.3-0.9-2.1
		c0-0.6,0.3-0.9,0.8-0.9c0.2,0,0.4,0.1,0.6,0.2c0.2,0.2,0.2,0.3,0.2,0.6s-0.1,0.4-0.2,0.6c-0.2,0.2-0.4,0.2-0.6,0.2
		c-0.1,0-0.2,0-0.3,0c0.2,0.5,0.5,1,0.9,1.3c0.5,0.3,0.9,0.5,1.5,0.5c0.8,0,1.3-0.4,1.8-1.1c0.3-0.4,0.4-1.2,0.4-2.2
		c0-0.9-0.1-1.6-0.3-2c-0.3-0.7-0.8-1-1.4-1c-0.5,0-0.9,0.1-1.2,0.3c-0.2,0.1-0.5,0.3-0.7,0.6c-0.2,0.2-0.3,0.3-0.4,0.3
		c-0.2,0-0.2-0.1-0.2-0.3v-5.1c0-0.2,0.1-0.3,0.2-0.3c0,0,0.1,0,0.2,0c0.9,0.3,1.6,0.5,2.2,0.5c0.7,0,1.4-0.2,2.2-0.5
		c0.1,0,0.1,0,0.1,0c0.1,0,0.2,0.1,0.2,0.2c0,0.1-0.1,0.2-0.3,0.4c-0.8,0.8-1.7,1.3-2.9,1.3c-0.4,0-0.9-0.1-1.4-0.2v3.2
		c0.6-0.6,1.3-0.8,2.1-0.8c0.9,0,1.7,0.4,2.3,1.1C432,254,432.2,254.8,432.2,255.7z"/>
</g>
<ellipse class="st3" cx="25" cy="219" rx="6" ry="6"/>
<ellipse class="st3" cx="167.9" cy="219" rx="6" ry="6"/>
<ellipse class="st3" cx="167.9" cy="204" rx="6" ry="6"/>
<ellipse class="st3" cx="196.4" cy="219" rx="6" ry="6"/>
<ellipse class="st3" cx="196.4" cy="204" rx="6" ry="6"/>
<ellipse class="st3" cx="196.4" cy="189" rx="6" ry="6"/>
<ellipse class="st3" cx="196.4" cy="174" rx="6" ry="6"/>
<ellipse class="st3" cx="196.4" cy="159" rx="6" ry="6"/>
<ellipse class="st3" cx="225" cy="219" rx="6" ry="6"/>
<ellipse class="st3" cx="225" cy="204" rx="6" ry="6"/>
<ellipse class="st3" cx="225" cy="189" rx="6" ry="6"/>
<ellipse transform="matrix(0.1602 -0.9871 0.9871 0.1602 -3.2187 434.2168)" class="st3" cx="253.6" cy="219" rx="6" ry="6"/>
<ellipse transform="matrix(0.1602 -0.9871 0.9871 0.1602 11.5876 421.6195)" class="st3" cx="253.6" cy="204" rx="6" ry="6"/>
<ellipse transform="matrix(0.1602 -0.9871 0.9871 0.1602 26.3939 409.0223)" class="st3" cx="253.6" cy="189" rx="6" ry="6"/>
<ellipse transform="matrix(0.1602 -0.9871 0.9871 0.1602 41.2002 396.425)" class="st3" cx="253.6" cy="174" rx="6" ry="6"/>
<ellipse transform="matrix(0.1602 -0.9871 0.9871 0.1602 56.0065 383.8278)" class="st3" cx="253.6" cy="159" rx="6" ry="6"/>
<ellipse transform="matrix(0.1602 -0.9871 0.9871 0.1602 70.8128 371.2305)" class="st3" cx="253.6" cy="144" rx="6" ry="6"/>
<ellipse transform="matrix(0.1602 -0.9871 0.9871 0.1602 85.6191 358.6332)" class="st3" cx="253.6" cy="129" rx="6" ry="6"/>
<ellipse transform="matrix(0.1602 -0.9871 0.9871 0.1602 100.4254 346.0359)" class="st3" cx="253.6" cy="114" rx="6" ry="6"/>
<ellipse transform="matrix(0.1602 -0.9871 0.9871 0.1602 115.2317 333.4387)" class="st3" cx="253.6" cy="99" rx="6" ry="6"/>
<ellipse class="st3" cx="282.1" cy="219" rx="6" ry="6"/>
<ellipse class="st3" cx="282.1" cy="204" rx="6" ry="6"/>
<ellipse class="st3" cx="282.1" cy="189" rx="6" ry="6"/>
<ellipse class="st3" cx="282.1" cy="174" rx="6" ry="6"/>
<ellipse class="st3" cx="282.1" cy="159" rx="6" ry="6"/>
<ellipse class="st3" cx="282.1" cy="144" rx="6" ry="6"/>
<ellipse class="st3" cx="282.1" cy="129" rx="6" ry="6"/>
<ellipse class="st3" cx="282.1" cy="114" rx="6" ry="6"/>
<ellipse class="st3" cx="310.7" cy="219" rx="6" ry="6"/>
<ellipse class="st3" cx="310.7" cy="204" rx="6" ry="6"/>
<ellipse class="st3" cx="310.7" cy="189" rx="6" ry="6"/>
<ellipse class="st3" cx="310.7" cy="174" rx="6" ry="6"/>
<ellipse class="st3" cx="310.7" cy="159" rx="6" ry="6"/>
<ellipse class="st3" cx="310.7" cy="144" rx="6" ry="6"/>
<ellipse class="st3" cx="310.7" cy="129" rx="6" ry="6"/>
<ellipse class="st3" cx="310.7" cy="114" rx="6" ry="6"/>
<ellipse class="st3" cx="310.7" cy="99" rx="6" ry="6"/>
<ellipse class="st3" cx="310.7" cy="84" rx="6" ry="6"/>
<ellipse class="st3" cx="310.7" cy="69" rx="6" ry="6"/>
<ellipse class="st3" cx="310.7" cy="54" rx="6" ry="6"/>
<ellipse class="st3" cx="339.3" cy="219" rx="6" ry="6"/>
<ellipse class="st3" cx="339.3" cy="204" rx="6" ry="6"/>
<ellipse class="st3" cx="339.3" cy="189" rx="6" ry="6"/>
<ellipse class="st3" cx="339.3" cy="174" rx="6" ry="6"/>
<ellipse class="st3" cx="339.3" cy="159" rx="6" ry="6"/>
<ellipse class="st3" cx="339.3" cy="144" rx="6" ry="6"/>
<ellipse class="st3" cx="339.3" cy="129" rx="6" ry="6"/>
<ellipse class="st3" cx="339.3" cy="114" rx="6" ry="6"/>
<ellipse class="st3" cx="339.3" cy="99" rx="6" ry="6"/>
<ellipse class="st3" cx="339.3" cy="84" rx="6" ry="6"/>
<ellipse class="st3" cx="339.3" cy="69" rx="6" ry="6"/>
<ellipse class="st3" cx="339.3" cy="54" rx="6" ry="6"/>
<ellipse class="st3" cx="367.9" cy="219" rx="6" ry="6"/>
<ellipse class="st3" cx="367.9" cy="204" rx="6" ry="6"/>
<ellipse class="st3" cx="367.9" cy="189" rx="6" ry="6"/>
<ellipse class="st3" cx="367.9" cy="174" rx="6" ry="6"/>
<ellipse class="st3" cx="367.9" cy="159" rx="6" ry="6"/>
<ellipse class="st3" cx="367.9" cy="144" rx="6" ry="6"/>
<ellipse class="st3" cx="367.9" cy="129" rx="6" ry="6"/>
<ellipse class="st3" cx="367.9" cy="114" rx="6" ry="6"/>
<ellipse class="st3" cx="396.4" cy="219" rx="6" ry="6"/>
<ellipse class="st3" cx="396.4" cy="204" rx="6" ry="6"/>
<ellipse class="st3" cx="396.4" cy="189" rx="6" ry="6"/>
<ellipse class="st3" cx="396.4" cy="174" rx="6" ry="6"/>
<ellipse class="st3" cx="425" cy="219" rx="6" ry="6"/>
<ellipse class="st3" cx="425" cy="204" rx="6" ry="6"/>
</svg>
