<svg xmlns="http://www.w3.org/2000/svg" width="750" height="500" style="overflow:hidden;-webkit-tap-highlight-color:transparent;user-select:none;cursor:default;vertical-align:middle;position:relative;background-color:#fff"><defs><clipPath id="n"><path d="M222 139.2h513V413H222z"/></clipPath><clipPath id="o"><path d="M222 139.2h513V413H222z"/></clipPath><clipPath id="p"><path d="M222 139.2h513V413H222z"/></clipPath><clipPath id="u"><path d="M222 139.2h513V413H222z"/></clipPath><clipPath id="v"><path d="M222 139.2h513V413H222z"/></clipPath><clipPath id="c"><path d="M222 139.2h513V413H222z"/></clipPath><clipPath id="a"><path d="M222 139.2h513V413H222z"/></clipPath><clipPath id="b"><path d="M221 139.2h515V413H221z"/></clipPath><clipPath id="q"><path d="M221 139.2h515V413H221z"/></clipPath><clipPath id="r"><path d="M222 139.2h513V413H222z"/></clipPath><clipPath id="d"><path d="M222 139.2h513V413H222z"/></clipPath><clipPath id="e"><path d="M222 139.2h513V413H222z"/></clipPath><clipPath id="f"><path d="M222 67.2h513v72H222z"/></clipPath><clipPath id="i"><path d="M222 139.2h513V413H222z"/></clipPath><clipPath id="g"><path d="M222 139.2h513V413H222z"/></clipPath><clipPath id="h"><path d="M222 138.2h513V414H222z"/></clipPath><clipPath id="s"><path d="M222 138.2h513V414H222z"/></clipPath><clipPath id="t"><path d="M222 139.2h513V413H222z"/></clipPath><clipPath id="j"><path d="M222 139.2h513V413H222z"/></clipPath><clipPath id="k"><path d="M222 139.2h513V413H222z"/></clipPath><clipPath id="l"><path d="M15 67.2h207v72H15z"/></clipPath><clipPath id="m"><path d="M15 139.2h207V413H15z"/></clipPath><clipPath id="z"><path d="M15 67.2h207V413H15z"/></clipPath><linearGradient id="w" x1="0" x2="0" y1="1" y2="0"><stop offset="0%" stop-color="#008ee4"/><stop offset="70%" stop-color="#008ee4"/><stop offset="100%" stop-color="#99d2f4"/><stop offset="100%" stop-color="#008ee4"/><stop offset="100%" stop-color="#008ee4"/></linearGradient><linearGradient id="x" x1="0" x2="0" y1="1" y2="0"><stop offset="0%" stop-color="#6baa01"/><stop offset="70%" stop-color="#6baa01"/><stop offset="100%" stop-color="#c4dd9a"/><stop offset="100%" stop-color="#6baa01"/><stop offset="100%" stop-color="#6baa01"/></linearGradient><linearGradient id="y" x1="0" x2="0" y1="1" y2="0"><stop offset="0%" stop-color="#e44a00"/><stop offset="70%" stop-color="#e44a00"/><stop offset="100%" stop-color="#f4b799"/><stop offset="100%" stop-color="#e44a00"/><stop offset="100%" stop-color="#e44a00"/></linearGradient></defs><g class="raphael-group-3-parentgroup"><g class="raphael-group-4-background"><rect width="750" height="500" fill="#fff" rx="0" ry="0"/><rect width="750" height="500" fill="none" rx="0" ry="0"/></g><rect width="720" height="357.8" x="15" y="67.2" fill="none" class="raphael-group-40-canvas" rx="0" ry="0"/><g class="raphael-group-5-axisbottom"><g class="raphael-group-97-gantt-plot-line-container" clip-path="url('#e')"><path fill="none" stroke="#eaeaea" stroke-linecap="round" d="M222 139.2V413m50.1-273.8V413m87.67-273.8V413m87.68-273.8V413m87.67-273.8V413m87.67-273.8V413m87.68-273.8V413m87.67-273.8V413m87.68-273.8V413m87.67-273.8V413m87.67-273.8V413m87.68-273.8V413m87.67-273.8V413"/></g><g class="raphael-group-98-gantt-label-container" clip-path="url('#f')"><g fill="#f3f3f3" class="raphael-group-99-gantt-label-back-container"><rect width="1127.23" height="22.4" x="222" y="67.2" rx="0" ry="0" style="cursor:default"/><rect width="363.22" height="24.8" x="222" y="89.6" rx="0" ry="0" style="cursor:default"/><rect width="388.27" height="24.8" x="585.22" y="89.6" rx="0" ry="0" style="cursor:default"/><rect width="375.74" height="24.8" x="973.49" y="89.6" rx="0" ry="0" style="cursor:default"/><rect width="50.1" height="24.8" x="222" y="114.4" rx="0" ry="0" style="cursor:default"/><rect width="87.67" height="24.8" x="272.1" y="114.4" rx="0" ry="0" style="cursor:default"/><rect width="87.68" height="24.8" x="359.77" y="114.4" rx="0" ry="0" style="cursor:default"/><rect width="87.67" height="24.8" x="447.45" y="114.4" rx="0" ry="0" style="cursor:default"/><rect width="87.67" height="24.8" x="535.12" y="114.4" rx="0" ry="0" style="cursor:default"/><rect width="87.68" height="24.8" x="622.79" y="114.4" rx="0" ry="0" style="cursor:default"/><rect width="87.67" height="24.8" x="710.47" y="114.4" rx="0" ry="0" style="cursor:default"/><rect width="87.68" height="24.8" x="798.14" y="114.4" rx="0" ry="0" style="cursor:default"/><rect width="87.67" height="24.8" x="885.82" y="114.4" rx="0" ry="0" style="cursor:default"/><rect width="87.67" height="24.8" x="973.49" y="114.4" rx="0" ry="0" style="cursor:default"/><rect width="87.68" height="24.8" x="1061.16" y="114.4" rx="0" ry="0" style="cursor:default"/><rect width="87.67" height="24.8" x="1148.84" y="114.4" rx="0" ry="0" style="cursor:default"/><rect width="87.67" height="24.8" x="1236.51" y="114.4" rx="0" ry="0" style="cursor:default"/></g><path fill="none" stroke="#eaeaea" stroke-linecap="round" d="M222 67.2v22.4h1127.23M222 89.6v24.8h363.22m0-24.8v24.8h388.27m0-24.8v24.8h375.74M222 114.4v24.8h50.1m0-24.8v24.8h87.67m0-24.8v24.8h87.68m0-24.8v24.8h87.67m0-24.8v24.8h87.67m0-24.8v24.8h87.68m0-24.8v24.8h87.67m0-24.8v24.8h87.68m0-24.8v24.8h87.67m0-24.8v24.8h87.67m0-24.8v24.8h87.68m0-24.8v24.8h87.67m0-24.8v24.8h87.67" class="raphael-group-100-gantt-label-line-container"/><g class="raphael-group-101-gantt-label-text-container" font-family="Source Sans Pro" font-weight="bold" text-anchor="middle"><text x="785.615" y="82" fill="#fff" font-size="12" style="text-anchor:middle;cursor:default;font-family:&quot;Source Sans Pro&quot;;font-size:12px;font-weight:700;font-style:normal">Months</text><text x="403.61" y="106" fill="#5d5d5d" font-size="14" style="text-anchor:middle;cursor:default;font-family:&quot;Source Sans Pro&quot;;font-size:14px;font-weight:700;font-style:normal">April</text><text x="779.355" y="106" fill="#5d5d5d" font-size="14" style="text-anchor:middle;cursor:default;font-family:&quot;Source Sans Pro&quot;;font-size:14px;font-weight:700;font-style:normal">May</text><text x="1161.36" y="106" fill="#5d5d5d" font-size="14" style="text-anchor:middle;cursor:default;font-family:&quot;Source Sans Pro&quot;;font-size:14px;font-weight:700;font-style:normal">June</text><text x="247.05" y="131" fill="#5d5d5d" font-size="14" style="text-anchor:middle;cursor:default;font-family:&quot;Source Sans Pro&quot;;font-size:14px;font-weight:700;font-style:normal">Week 1</text><text x="315.935" y="131" fill="#5d5d5d" font-size="14" style="text-anchor:middle;cursor:default;font-family:&quot;Source Sans Pro&quot;;font-size:14px;font-weight:700;font-style:normal">Week 2</text><text x="403.61" y="131" fill="#5d5d5d" font-size="14" style="text-anchor:middle;cursor:default;font-family:&quot;Source Sans Pro&quot;;font-size:14px;font-weight:700;font-style:normal">Week 3</text><text x="491.285" y="131" fill="#5d5d5d" font-size="14" style="text-anchor:middle;cursor:default;font-family:&quot;Source Sans Pro&quot;;font-size:14px;font-weight:700;font-style:normal">Week 4</text><text x="578.955" y="131" fill="#5d5d5d" font-size="14" style="text-anchor:middle;cursor:default;font-family:&quot;Source Sans Pro&quot;;font-size:14px;font-weight:700;font-style:normal">Week 5</text><text x="666.63" y="131" fill="#5d5d5d" font-size="14" style="text-anchor:middle;cursor:default;font-family:&quot;Source Sans Pro&quot;;font-size:14px;font-weight:700;font-style:normal">Week 6</text><text x="754.305" y="131" fill="#5d5d5d" font-size="14" style="text-anchor:middle;cursor:default;font-family:&quot;Source Sans Pro&quot;;font-size:14px;font-weight:700;font-style:normal">Week 7</text><text x="841.98" y="131" fill="#5d5d5d" font-size="14" style="text-anchor:middle;cursor:default;font-family:&quot;Source Sans Pro&quot;;font-size:14px;font-weight:700;font-style:normal">Week 8</text><text x="929.655" y="131" fill="#5d5d5d" font-size="14" style="text-anchor:middle;cursor:default;font-family:&quot;Source Sans Pro&quot;;font-size:14px;font-weight:700;font-style:normal">Week 9</text><text x="1017.325" y="131" fill="#5d5d5d" font-size="14" style="text-anchor:middle;cursor:default;font-family:&quot;Source Sans Pro&quot;;font-size:14px;font-weight:700;font-style:normal">Week 10</text><text x="1105" y="131" fill="#5d5d5d" font-size="14" style="text-anchor:middle;cursor:default;font-family:&quot;Source Sans Pro&quot;;font-size:14px;font-weight:700;font-style:normal">Week 11</text><text x="1192.675" y="131" fill="#5d5d5d" font-size="14" style="text-anchor:middle;cursor:default;font-family:&quot;Source Sans Pro&quot;;font-size:14px;font-weight:700;font-style:normal">Week 12</text><text x="1280.345" y="131" fill="#5d5d5d" font-size="14" style="text-anchor:middle;cursor:default;font-family:&quot;Source Sans Pro&quot;;font-size:14px;font-weight:700;font-style:normal">Week 13</text></g></g><g class="raphael-group-161-gantt-plot-line-container" clip-path="url('#k')"><path fill="none" stroke="#eaeaea" stroke-linecap="round" d="M222 160.4h513m-513 21.2h513m-513 21.2h513M222 224h513m-513 21.2h513m-513 21.2h513m-513 21.2h513m-513 21.2h513M222 330h513m-513 21.2h513m-513 21.2h513m-513 21.2h513m-513 21.2h513M222 436h513m-513 21.2h513m-513 21.2h513m-513 21.2h513m-513 21.2h513M222 542h513m-513 21.2h513m-513 21.2h513m-513 21.2h513"/></g><g class="raphael-group-162-gantt-header-container" clip-path="url('#l')"><g fill="#999" class="raphael-group-163-gantt-header-back-container"><rect width="117" height="72" x="15" y="67.2" rx="0" ry="0" style="cursor:default"/><rect width="45" height="72" x="132" y="67.2" rx="0" ry="0" style="cursor:default"/><rect width="45" height="72" x="177" y="67.2" rx="0" ry="0" style="cursor:default"/></g><path fill="none" stroke="#333" stroke-linecap="round" stroke-opacity=".2" d="M15 139.2h117v-72m0 72h45v-72m0 72h45v-72" class="raphael-group-164-gantt-header-line-container"/><g fill="#fff" class="raphael-group-165-gantt-header-text-container" font-family="Source Sans Pro" font-size="12" font-weight="bold"><text x="17" y="134" style="text-anchor:start;cursor:default;font-family:&quot;Source Sans Pro&quot;;font-size:12px;font-weight:700;font-style:normal">Task</text><text x="154.5" y="105" style="text-anchor:middle;cursor:default;font-family:&quot;Source Sans Pro&quot;;font-size:12px;font-weight:700;font-style:normal" text-anchor="middle"><tspan x="154.5">Actual</tspan><tspan x="154.5" dy="14.4">Start</tspan><tspan x="154.5" dy="14.4">Date</tspan></text><text x="199.5" y="105" style="text-anchor:middle;cursor:default;font-family:&quot;Source Sans Pro&quot;;font-size:12px;font-weight:700;font-style:normal" text-anchor="middle"><tspan x="199.5">Actual</tspan><tspan x="199.5" dy="14.4">End</tspan><tspan x="199.5" dy="14.4">Date</tspan></text></g></g><g class="raphael-group-166-gantt-label-container" clip-path="url('#m')"><g class="raphael-group-167-gantt-label-back-container"><rect width="117" height="21.2" x="15" y="139.2" fill="#6baa01" fill-opacity=".25" rx="0" ry="0" style="cursor:default"/><rect width="117" height="21.2" x="15" y="160.4" fill="#6baa01" fill-opacity=".25" rx="0" ry="0" style="cursor:default"/><rect width="117" height="21.2" x="15" y="181.6" fill="#6baa01" fill-opacity=".25" rx="0" ry="0" style="cursor:default"/><rect width="117" height="21.2" x="15" y="202.8" fill="#6baa01" fill-opacity=".25" rx="0" ry="0" style="cursor:default"/><rect width="117" height="21.2" x="15" y="224" fill="#6baa01" fill-opacity=".25" rx="0" ry="0" style="cursor:default"/><rect width="117" height="21.2" x="15" y="245.2" fill="#6baa01" fill-opacity=".25" rx="0" ry="0" style="cursor:default"/><rect width="117" height="21.2" x="15" y="266.4" fill="#6baa01" fill-opacity=".25" rx="0" ry="0" style="cursor:default"/><rect width="117" height="21.2" x="15" y="287.6" fill="#6baa01" fill-opacity=".25" rx="0" ry="0" style="cursor:default"/><rect width="117" height="21.2" x="15" y="308.8" fill="#6baa01" fill-opacity=".25" rx="0" ry="0" style="cursor:default"/><rect width="117" height="21.2" x="15" y="330" fill="#6baa01" fill-opacity=".25" rx="0" ry="0" style="cursor:default"/><rect width="117" height="21.2" x="15" y="351.2" fill="#6baa01" fill-opacity=".25" rx="0" ry="0" style="cursor:default"/><rect width="117" height="21.2" x="15" y="372.4" fill="#6baa01" fill-opacity=".25" rx="0" ry="0" style="cursor:default"/><rect width="117" height="21.2" x="15" y="393.6" fill="#6baa01" fill-opacity=".25" rx="0" ry="0" style="cursor:default"/><rect width="117" height="21.2" x="15" y="414.8" fill="#6baa01" fill-opacity=".25" rx="0" ry="0" style="cursor:default"/><rect width="117" height="21.2" x="15" y="436" fill="#6baa01" fill-opacity=".25" rx="0" ry="0" style="cursor:default"/><rect width="117" height="21.2" x="15" y="457.2" fill="#6baa01" fill-opacity=".25" rx="0" ry="0" style="cursor:default"/><rect width="117" height="21.2" x="15" y="478.4" fill="#6baa01" fill-opacity=".25" rx="0" ry="0" style="cursor:default"/><rect width="117" height="21.2" x="15" y="499.6" fill="#6baa01" fill-opacity=".25" rx="0" ry="0" style="cursor:default"/><rect width="117" height="21.2" x="15" y="520.8" fill="#6baa01" fill-opacity=".25" rx="0" ry="0" style="cursor:default"/><rect width="117" height="21.2" x="15" y="542" fill="#6baa01" fill-opacity=".25" rx="0" ry="0" style="cursor:default"/><rect width="117" height="21.2" x="15" y="563.2" fill="#6baa01" fill-opacity=".25" rx="0" ry="0" style="cursor:default"/><rect width="117" height="21.2" x="15" y="584.4" fill="#6baa01" fill-opacity=".25" rx="0" ry="0" style="cursor:default"/><rect width="45" height="21.2" x="132" y="139.2" fill="#eee" rx="0" ry="0" style="cursor:default"/><rect width="45" height="21.2" x="132" y="160.4" fill="#eee" rx="0" ry="0" style="cursor:default"/><rect width="45" height="21.2" x="132" y="181.6" fill="#e44a00" fill-opacity=".4" rx="0" ry="0" style="cursor:default"/><rect width="45" height="21.2" x="132" y="202.8" fill="#e44a00" fill-opacity=".4" rx="0" ry="0" style="cursor:default"/><rect width="45" height="21.2" x="132" y="224" fill="#eee" rx="0" ry="0" style="cursor:default"/><rect width="45" height="21.2" x="132" y="245.2" fill="#e44a00" fill-opacity=".4" rx="0" ry="0" style="cursor:default"/><rect width="45" height="21.2" x="132" y="266.4" fill="#eee" rx="0" ry="0" style="cursor:default"/><rect width="45" height="21.2" x="132" y="287.6" fill="#eee" rx="0" ry="0" style="cursor:default"/><rect width="45" height="21.2" x="132" y="308.8" fill="#eee" rx="0" ry="0" style="cursor:default"/><rect width="45" height="21.2" x="132" y="330" fill="#e44a00" fill-opacity=".4" rx="0" ry="0" style="cursor:default"/><rect width="45" height="21.2" x="132" y="351.2" fill="#eee" rx="0" ry="0" style="cursor:default"/><rect width="45" height="21.2" x="132" y="372.4" fill="#eee" rx="0" ry="0" style="cursor:default"/><rect width="45" height="21.2" x="132" y="393.6" fill="#eee" rx="0" ry="0" style="cursor:default"/><rect width="45" height="21.2" x="132" y="414.8" fill="#eee" rx="0" ry="0" style="cursor:default"/><rect width="45" height="21.2" x="132" y="436" fill="#eee" rx="0" ry="0" style="cursor:default"/><rect width="45" height="21.2" x="132" y="457.2" fill="#eee" rx="0" ry="0" style="cursor:default"/><rect width="45" height="21.2" x="132" y="478.4" fill="#eee" rx="0" ry="0" style="cursor:default"/><rect width="45" height="21.2" x="132" y="499.6" fill="#e44a00" fill-opacity=".4" rx="0" ry="0" style="cursor:default"/><rect width="45" height="21.2" x="132" y="520.8" fill="#e44a00" fill-opacity=".4" rx="0" ry="0" style="cursor:default"/><rect width="45" height="21.2" x="132" y="542" fill="#eee" rx="0" ry="0" style="cursor:default"/><rect width="45" height="21.2" x="132" y="563.2" fill="#eee" rx="0" ry="0" style="cursor:default"/><rect width="45" height="21.2" x="132" y="584.4" fill="#eee" rx="0" ry="0" style="cursor:default"/><rect width="45" height="21.2" x="177" y="139.2" fill="#eee" rx="0" ry="0" style="cursor:default"/><rect width="45" height="21.2" x="177" y="160.4" fill="#e44a00" fill-opacity=".4" rx="0" ry="0" style="cursor:default"/><rect width="45" height="21.2" x="177" y="181.6" fill="#e44a00" fill-opacity=".4" rx="0" ry="0" style="cursor:default"/><rect width="45" height="21.2" x="177" y="202.8" fill="#eee" rx="0" ry="0" style="cursor:default"/><rect width="45" height="21.2" x="177" y="224" fill="#eee" rx="0" ry="0" style="cursor:default"/><rect width="45" height="21.2" x="177" y="245.2" fill="#e44a00" fill-opacity=".4" rx="0" ry="0" style="cursor:default"/><rect width="45" height="21.2" x="177" y="266.4" fill="#eee" rx="0" ry="0" style="cursor:default"/><rect width="45" height="21.2" x="177" y="287.6" fill="#eee" rx="0" ry="0" style="cursor:default"/><rect width="45" height="21.2" x="177" y="308.8" fill="#e44a00" fill-opacity=".4" rx="0" ry="0" style="cursor:default"/><rect width="45" height="21.2" x="177" y="330" fill="#e44a00" fill-opacity=".4" rx="0" ry="0" style="cursor:default"/><rect width="45" height="21.2" x="177" y="351.2" fill="#eee" rx="0" ry="0" style="cursor:default"/><rect width="45" height="21.2" x="177" y="372.4" fill="#eee" rx="0" ry="0" style="cursor:default"/><rect width="45" height="21.2" x="177" y="393.6" fill="#eee" rx="0" ry="0" style="cursor:default"/><rect width="45" height="21.2" x="177" y="414.8" fill="#eee" rx="0" ry="0" style="cursor:default"/><rect width="45" height="21.2" x="177" y="436" fill="#eee" rx="0" ry="0" style="cursor:default"/><rect width="45" height="21.2" x="177" y="457.2" fill="#eee" rx="0" ry="0" style="cursor:default"/><rect width="45" height="21.2" x="177" y="478.4" fill="#e44a00" fill-opacity=".4" rx="0" ry="0" style="cursor:default"/><rect width="45" height="21.2" x="177" y="499.6" fill="#e44a00" fill-opacity=".4" rx="0" ry="0" style="cursor:default"/><rect width="45" height="21.2" x="177" y="520.8" fill="#eee" rx="0" ry="0" style="cursor:default"/><rect width="45" height="21.2" x="177" y="542" fill="#eee" rx="0" ry="0" style="cursor:default"/><rect width="45" height="21.2" x="177" y="563.2" fill="#e44a00" fill-opacity=".4" rx="0" ry="0" style="cursor:default"/><rect width="45" height="21.2" x="177" y="584.4" fill="#eee" rx="0" ry="0" style="cursor:default"/></g><path fill="none" stroke="#333" stroke-linecap="round" stroke-opacity=".2" d="M15 160.4h117v-21.2M15 181.6h117v-21.2M15 202.8h117v-21.2M15 224h117v-21.2M15 245.2h117V224M15 266.4h117v-21.2M15 287.6h117v-21.2M15 308.8h117v-21.2M15 330h117v-21.2M15 351.2h117V330M15 372.4h117v-21.2M15 393.6h117v-21.2M15 414.8h117v-21.2M15 436h117v-21.2M15 457.2h117V436M15 478.4h117v-21.2M15 499.6h117v-21.2M15 520.8h117v-21.2M15 542h117v-21.2M15 563.2h117V542M15 584.4h117v-21.2M15 605.6h117v-21.2m0-424h45v-21.2m-45 42.4h45v-21.2m-45 42.4h45v-21.2M132 224h45v-21.2m-45 42.4h45V224m-45 42.4h45v-21.2m-45 42.4h45v-21.2m-45 42.4h45v-21.2M132 330h45v-21.2m-45 42.4h45V330m-45 42.4h45v-21.2m-45 42.4h45v-21.2m-45 42.4h45v-21.2M132 436h45v-21.2m-45 42.4h45V436m-45 42.4h45v-21.2m-45 42.4h45v-21.2m-45 42.4h45v-21.2M132 542h45v-21.2m-45 42.4h45V542m-45 42.4h45v-21.2m-45 42.4h45v-21.2m0-424h45v-21.2m-45 42.4h45v-21.2m-45 42.4h45v-21.2M177 224h45v-21.2m-45 42.4h45V224m-45 42.4h45v-21.2m-45 42.4h45v-21.2m-45 42.4h45v-21.2M177 330h45v-21.2m-45 42.4h45V330m-45 42.4h45v-21.2m-45 42.4h45v-21.2m-45 42.4h45v-21.2M177 436h45v-21.2m-45 42.4h45V436m-45 42.4h45v-21.2m-45 42.4h45v-21.2m-45 42.4h45v-21.2M177 542h45v-21.2m-45 42.4h45V542m-45 42.4h45v-21.2m-45 42.4h45v-21.2" class="raphael-group-168-gantt-label-line-container"/><g class="raphael-group-169-gantt-label-text-container" font-family="Source Sans Pro"><text x="17" y="153" font-size="11" font-weight="bold" style="text-anchor:start;cursor:default;font-family:&quot;Source Sans Pro&quot;;font-size:11px;font-weight:700;font-style:normal">Clear site</text><text x="17" y="174" font-size="11" font-weight="bold" style="text-anchor:start;cursor:default;font-family:&quot;Source Sans Pro&quot;;font-size:11px;font-weight:700;font-style:normal">Excavate Foundation</text><text x="17" y="196" font-size="11" font-weight="bold" style="text-anchor:start;cursor:default;font-family:&quot;Source Sans Pro&quot;;font-size:11px;font-weight:700;font-style:normal">Concrete Foundation</text><text x="17" y="217" font-size="11" font-weight="bold" style="text-anchor:start;cursor:default;font-family:&quot;Source Sans Pro&quot;;font-size:11px;font-weight:700;font-style:normal">Footing to DPC</text><text x="17" y="238" font-size="11" font-weight="bold" style="text-anchor:start;cursor:default;font-family:&quot;Source Sans Pro&quot;;font-size:11px;font-weight:700;font-style:normal">Drainage Services</text><text x="17" y="259" font-size="11" font-weight="bold" style="text-anchor:start;cursor:default;font-family:&quot;Source Sans Pro&quot;;font-size:11px;font-weight:700;font-style:normal">Backfill</text><text x="17" y="280" font-size="11" font-weight="bold" style="text-anchor:start;cursor:default;font-family:&quot;Source Sans Pro&quot;;font-size:11px;font-weight:700;font-style:normal">Ground Floor</text><text x="17" y="302" font-size="11" font-weight="bold" style="text-anchor:start;cursor:default;font-family:&quot;Source Sans Pro&quot;;font-size:11px;font-weight:700;font-style:normal">Walls on First Floor</text><text x="17" y="323" font-size="11" font-weight="bold" style="text-anchor:start;cursor:default;font-family:&quot;Source Sans Pro&quot;;font-size:11px;font-weight:700;font-style:normal">First Floor Carcass</text><text x="17" y="344" font-size="11" font-weight="bold" style="text-anchor:start;cursor:default;font-family:&quot;Source Sans Pro&quot;;font-size:11px;font-weight:700;font-style:normal">First Floor Deck</text><text x="17" y="365" font-size="11" font-weight="bold" style="text-anchor:start;cursor:default;font-family:&quot;Source Sans Pro&quot;;font-size:11px;font-weight:700;font-style:normal">Roof Structure</text><text x="17" y="386" font-size="11" font-weight="bold" style="text-anchor:start;cursor:default;font-family:&quot;Source Sans Pro&quot;;font-size:11px;font-weight:700;font-style:normal">Roof Covering</text><text x="17" y="407" font-size="11" font-weight="bold" style="text-anchor:start;cursor:default;font-family:&quot;Source Sans Pro&quot;;font-size:11px;font-weight:700;font-style:normal">Rainwater Gear</text><text x="17" y="429" font-size="11" font-weight="bold" style="text-anchor:start;cursor:default;font-family:&quot;Source Sans Pro&quot;;font-size:11px;font-weight:700;font-style:normal">Windows</text><text x="17" y="450" font-size="11" font-weight="bold" style="text-anchor:start;cursor:default;font-family:&quot;Source Sans Pro&quot;;font-size:11px;font-weight:700;font-style:normal">External Doors</text><text x="17" y="471" font-size="11" font-weight="bold" style="text-anchor:start;cursor:default;font-family:&quot;Source Sans Pro&quot;;font-size:11px;font-weight:700;font-style:normal">Connect Electricity</text><text x="17" y="492" font-size="11" font-weight="bold" style="text-anchor:start;cursor:default;font-family:&quot;Source Sans Pro&quot;;font-size:11px;font-weight:700;font-style:normal">Connect Water Supply</text><text x="17" y="513" font-size="11" font-weight="bold" style="text-anchor:start;cursor:default;font-family:&quot;Source Sans Pro&quot;;font-size:11px;font-weight:700;font-style:normal">Install Air Conditioning</text><text x="17" y="535" font-size="11" font-weight="bold" style="text-anchor:start;cursor:default;font-family:&quot;Source Sans Pro&quot;;font-size:11px;font-weight:700;font-style:normal">Interior Decoration</text><text x="17" y="556" font-size="11" font-weight="bold" style="text-anchor:start;cursor:default;font-family:&quot;Source Sans Pro&quot;;font-size:11px;font-weight:700;font-style:normal">Fencing And signs</text><text x="17" y="577" font-size="11" font-weight="bold" style="text-anchor:start;cursor:default;font-family:&quot;Source Sans Pro&quot;;font-size:11px;font-weight:700;font-style:normal">Exterior Decoration</text><text x="17" y="598" font-size="11" font-weight="bold" style="text-anchor:start;cursor:default;font-family:&quot;Source Sans Pro&quot;;font-size:11px;font-weight:700;font-style:normal">Setup racks</text><text x="154.5" y="153" font-size="10" style="text-anchor:middle;cursor:default;font-family:&quot;Source Sans Pro&quot;;font-size:10px;font-weight:400;font-style:normal" text-anchor="middle">9/4/2014</text><text x="154.5" y="174" font-size="10" style="text-anchor:middle;cursor:default;font-family:&quot;Source Sans Pro&quot;;font-size:10px;font-weight:400;font-style:normal" text-anchor="middle">13/4/2014</text><text x="154.5" y="195" font-size="10" style="text-anchor:middle;cursor:default;font-family:&quot;Source Sans Pro&quot;;font-size:10px;font-weight:400;font-style:normal" text-anchor="middle">26/4/2014</text><text x="154.5" y="216" font-size="10" style="text-anchor:middle;cursor:default;font-family:&quot;Source Sans Pro&quot;;font-size:10px;font-weight:400;font-style:normal" text-anchor="middle">4/5/2014</text><text x="154.5" y="238" font-size="10" style="text-anchor:middle;cursor:default;font-family:&quot;Source Sans Pro&quot;;font-size:10px;font-weight:400;font-style:normal" text-anchor="middle">6/5/2014</text><text x="154.5" y="259" font-size="10" style="text-anchor:middle;cursor:default;font-family:&quot;Source Sans Pro&quot;;font-size:10px;font-weight:400;font-style:normal" text-anchor="middle">5/5/2014</text><text x="154.5" y="280" font-size="10" style="text-anchor:middle;cursor:default;font-family:&quot;Source Sans Pro&quot;;font-size:10px;font-weight:400;font-style:normal" text-anchor="middle">11/5/2014</text><text x="154.5" y="301" font-size="10" style="text-anchor:middle;cursor:default;font-family:&quot;Source Sans Pro&quot;;font-size:10px;font-weight:400;font-style:normal" text-anchor="middle">16/5/2014</text><text x="154.5" y="322" font-size="10" style="text-anchor:middle;cursor:default;font-family:&quot;Source Sans Pro&quot;;font-size:10px;font-weight:400;font-style:normal" text-anchor="middle">16/5/2014</text><text x="154.5" y="344" font-size="10" style="text-anchor:middle;cursor:default;font-family:&quot;Source Sans Pro&quot;;font-size:10px;font-weight:400;font-style:normal" text-anchor="middle">21/5/2014</text><text x="154.5" y="365" font-size="10" style="text-anchor:middle;cursor:default;font-family:&quot;Source Sans Pro&quot;;font-size:10px;font-weight:400;font-style:normal" text-anchor="middle">25/5/2014</text><text x="154.5" y="386" font-size="10" style="text-anchor:middle;cursor:default;font-family:&quot;Source Sans Pro&quot;;font-size:10px;font-weight:400;font-style:normal" text-anchor="middle">28/5/2014</text><text x="154.5" y="407" font-size="10" style="text-anchor:middle;cursor:default;font-family:&quot;Source Sans Pro&quot;;font-size:10px;font-weight:400;font-style:normal" text-anchor="middle">4/6/2014</text><text x="154.5" y="428" font-size="10" style="text-anchor:middle;cursor:default;font-family:&quot;Source Sans Pro&quot;;font-size:10px;font-weight:400;font-style:normal" text-anchor="middle">4/6/2014</text><text x="154.5" y="450" font-size="10" style="text-anchor:middle;cursor:default;font-family:&quot;Source Sans Pro&quot;;font-size:10px;font-weight:400;font-style:normal" text-anchor="middle">4/6/2014</text><text x="154.5" y="471" font-size="10" style="text-anchor:middle;cursor:default;font-family:&quot;Source Sans Pro&quot;;font-size:10px;font-weight:400;font-style:normal" text-anchor="middle">2/6/2014</text><text x="154.5" y="492" font-size="10" style="text-anchor:middle;cursor:default;font-family:&quot;Source Sans Pro&quot;;font-size:10px;font-weight:400;font-style:normal" text-anchor="middle">5/6/2014</text><text x="154.5" y="513" font-size="10" style="text-anchor:middle;cursor:default;font-family:&quot;Source Sans Pro&quot;;font-size:10px;font-weight:400;font-style:normal" text-anchor="middle">18/6/2014</text><text x="154.5" y="534" font-size="10" style="text-anchor:middle;cursor:default;font-family:&quot;Source Sans Pro&quot;;font-size:10px;font-weight:400;font-style:normal" text-anchor="middle">16/6/2014</text><text x="154.5" y="556" font-size="10" style="text-anchor:middle;cursor:default;font-family:&quot;Source Sans Pro&quot;;font-size:10px;font-weight:400;font-style:normal" text-anchor="middle">23/6/2014</text><text x="154.5" y="577" font-size="10" style="text-anchor:middle;cursor:default;font-family:&quot;Source Sans Pro&quot;;font-size:10px;font-weight:400;font-style:normal" text-anchor="middle">18/6/2014</text><text x="154.5" y="598" font-size="10" style="text-anchor:middle;cursor:default;font-family:&quot;Source Sans Pro&quot;;font-size:10px;font-weight:400;font-style:normal" text-anchor="middle">25/6/2014</text><text x="199.5" y="153" font-size="10" style="text-anchor:middle;cursor:default;font-family:&quot;Source Sans Pro&quot;;font-size:10px;font-weight:400;font-style:normal" text-anchor="middle">12/4/2014</text><text x="199.5" y="174" font-size="10" style="text-anchor:middle;cursor:default;font-family:&quot;Source Sans Pro&quot;;font-size:10px;font-weight:400;font-style:normal" text-anchor="middle">25/4/2014</text><text x="199.5" y="195" font-size="10" style="text-anchor:middle;cursor:default;font-family:&quot;Source Sans Pro&quot;;font-size:10px;font-weight:400;font-style:normal" text-anchor="middle">4/5/2014</text><text x="199.5" y="216" font-size="10" style="text-anchor:middle;cursor:default;font-family:&quot;Source Sans Pro&quot;;font-size:10px;font-weight:400;font-style:normal" text-anchor="middle">10/5/2014</text><text x="199.5" y="238" font-size="10" style="text-anchor:middle;cursor:default;font-family:&quot;Source Sans Pro&quot;;font-size:10px;font-weight:400;font-style:normal" text-anchor="middle">10/5/2014</text><text x="199.5" y="259" font-size="10" style="text-anchor:middle;cursor:default;font-family:&quot;Source Sans Pro&quot;;font-size:10px;font-weight:400;font-style:normal" text-anchor="middle">11/5/2014</text><text x="199.5" y="280" font-size="10" style="text-anchor:middle;cursor:default;font-family:&quot;Source Sans Pro&quot;;font-size:10px;font-weight:400;font-style:normal" text-anchor="middle">14/5/2014</text><text x="199.5" y="301" font-size="10" style="text-anchor:middle;cursor:default;font-family:&quot;Source Sans Pro&quot;;font-size:10px;font-weight:400;font-style:normal" text-anchor="middle">19/5/2014</text><text x="199.5" y="322" font-size="10" style="text-anchor:middle;cursor:default;font-family:&quot;Source Sans Pro&quot;;font-size:10px;font-weight:400;font-style:normal" text-anchor="middle">21/5/2014</text><text x="199.5" y="344" font-size="10" style="text-anchor:middle;cursor:default;font-family:&quot;Source Sans Pro&quot;;font-size:10px;font-weight:400;font-style:normal" text-anchor="middle">24/5/2014</text><text x="199.5" y="365" font-size="10" style="text-anchor:middle;cursor:default;font-family:&quot;Source Sans Pro&quot;;font-size:10px;font-weight:400;font-style:normal" text-anchor="middle">27/5/2014</text><text x="199.5" y="386" font-size="10" style="text-anchor:middle;cursor:default;font-family:&quot;Source Sans Pro&quot;;font-size:10px;font-weight:400;font-style:normal" text-anchor="middle">1/6/2014</text><text x="199.5" y="407" font-size="10" style="text-anchor:middle;cursor:default;font-family:&quot;Source Sans Pro&quot;;font-size:10px;font-weight:400;font-style:normal" text-anchor="middle">6/6/2014</text><text x="199.5" y="428" font-size="10" style="text-anchor:middle;cursor:default;font-family:&quot;Source Sans Pro&quot;;font-size:10px;font-weight:400;font-style:normal" text-anchor="middle">4/6/2014</text><text x="199.5" y="450" font-size="10" style="text-anchor:middle;cursor:default;font-family:&quot;Source Sans Pro&quot;;font-size:10px;font-weight:400;font-style:normal" text-anchor="middle">4/6/2014</text><text x="199.5" y="471" font-size="10" style="text-anchor:middle;cursor:default;font-family:&quot;Source Sans Pro&quot;;font-size:10px;font-weight:400;font-style:normal" text-anchor="middle">7/6/2014</text><text x="199.5" y="492" font-size="10" style="text-anchor:middle;cursor:default;font-family:&quot;Source Sans Pro&quot;;font-size:10px;font-weight:400;font-style:normal" text-anchor="middle">17/6/2014</text><text x="199.5" y="513" font-size="10" style="text-anchor:middle;cursor:default;font-family:&quot;Source Sans Pro&quot;;font-size:10px;font-weight:400;font-style:normal" text-anchor="middle">20/6/2014</text><text x="199.5" y="534" font-size="10" style="text-anchor:middle;cursor:default;font-family:&quot;Source Sans Pro&quot;;font-size:10px;font-weight:400;font-style:normal" text-anchor="middle">23/6/2014</text><text x="199.5" y="556" font-size="10" style="text-anchor:middle;cursor:default;font-family:&quot;Source Sans Pro&quot;;font-size:10px;font-weight:400;font-style:normal" text-anchor="middle">23/6/2014</text><text x="199.5" y="577" font-size="10" style="text-anchor:middle;cursor:default;font-family:&quot;Source Sans Pro&quot;;font-size:10px;font-weight:400;font-style:normal" text-anchor="middle">23/6/2014</text><text x="199.5" y="598" font-size="10" style="text-anchor:middle;cursor:default;font-family:&quot;Source Sans Pro&quot;;font-size:10px;font-weight:400;font-style:normal" text-anchor="middle">28/6/2014</text></g></g></g><g class="raphael-group-7-plots" clip-path="url('#p')"><g class="raphael-group-59-task"><g class="raphael-group-316-columns"><rect width="38" height="7" x="322" y="142" fill="#028fe4" rx="2" ry="2"/><rect width="38" height="7" x="322" y="151" fill="#6caa03" rx="2" ry="2"/><rect width="126" height="7" x="372" y="163" fill="#028fe4" rx="2" ry="2"/><rect width="151" height="7" x="372" y="172" fill="#6caa03" rx="2" ry="2"/><rect width="25" height="7" x="498" y="172" fill="#e44b02" rx="2" ry="2"/><rect width="87" height="7" x="498" y="184" fill="#028fe4" rx="2" ry="2"/><rect width="100" height="7" x="535" y="193" fill="#6caa03" rx="2" ry="2"/><rect width="12" height="7" x="623" y="193" fill="#e44b02" rx="2" ry="2"/><rect width="87" height="7" x="623" y="205" fill="#028fe4" rx="2" ry="2"/><rect width="75" height="6" x="635" y="215" fill="#6caa03" rx="2" ry="2"/><rect width="63" height="6" x="660" y="227" fill="#028fe4" rx="2" ry="2"/><rect width="50" height="7" x="660" y="236" fill="#6caa03" rx="2" ry="2"/><rect width="38" height="7" x="635" y="248" fill="#028fe4" rx="2" ry="2"/><rect width="75" height="7" x="648" y="257" fill="#6caa03" rx="2" ry="2"/><rect width="50" height="7" x="673" y="257" fill="#e44b02" rx="2" ry="2"/><rect width="38" height="7" x="723" y="269" fill="#028fe4" rx="2" ry="2"/><rect width="38" height="7" x="723" y="278" fill="#6caa03" rx="2" ry="2"/><rect width="37" height="7" x="786" y="290" fill="#028fe4" rx="2" ry="2"/><rect width="37" height="7" x="786" y="299" fill="#6caa03" rx="2" ry="2"/><rect width="25" height="7" x="786" y="311" fill="#028fe4" rx="2" ry="2"/><rect width="62" height="6" x="786" y="321" fill="#6caa03" rx="2" ry="2"/><rect width="37" height="6" x="811" y="321" fill="#e44b02" rx="2" ry="2"/><rect width="37" height="6" x="836" y="333" fill="#028fe4" rx="2" ry="2"/><rect width="38" height="7" x="848" y="342" fill="#6caa03" rx="2" ry="2"/><rect width="13" height="7" x="873" y="342" fill="#e44b02" rx="2" ry="2"/><rect width="25" height="7" x="898" y="354" fill="#028fe4" rx="2" ry="2"/><rect width="25" height="7" x="898" y="363" fill="#6caa03" rx="2" ry="2"/><rect width="50" height="7" x="936" y="375" fill="#028fe4" rx="2" ry="2"/><rect width="50" height="7" x="936" y="384" fill="#6caa03" rx="2" ry="2"/><rect width="25" height="7" x="1024" y="396" fill="#028fe4" rx="2" ry="2"/><rect width="25" height="7" x="1024" y="405" fill="#6caa03" rx="2" ry="2"/><rect width="1" height="6.784" x="1023.59" y="417.344" fill="#028fe4" rx="2" ry="2"/><rect width="1" height="6.784" x="1023.59" y="426.672" fill="#6caa03" rx="2" ry="2"/><rect width="1" height="6.784" x="1023.59" y="438.544" fill="#028fe4" rx="2" ry="2"/><rect width="1" height="6.784" x="1023.59" y="447.872" fill="#6caa03" rx="2" ry="2"/><rect width="62" height="7" x="999" y="460" fill="#028fe4" rx="2" ry="2"/><rect width="62" height="7" x="999" y="469" fill="#6caa03" rx="2" ry="2"/><rect width="63" height="7" x="1036" y="481" fill="#028fe4" rx="2" ry="2"/><rect width="150" height="7" x="1036" y="490" fill="#6caa03" rx="2" ry="2"/><rect width="87" height="7" x="1099" y="490" fill="#e44b02" rx="2" ry="2"/><rect width="25" height="7" x="1099" y="502" fill="#028fe4" rx="2" ry="2"/><rect width="25" height="7" x="1199" y="511" fill="#e44b02" rx="2" ry="2"/><rect width="101" height="7" x="1161" y="523" fill="#028fe4" rx="2" ry="2"/><rect width="88" height="6" x="1174" y="533" fill="#6caa03" rx="2" ry="2"/><rect width="1" height="6.784" x="1261.56" y="544.544" fill="#028fe4" rx="2" ry="2"/><rect width="1" height="6.784" x="1261.56" y="553.872" fill="#6caa03" rx="2" ry="2"/><rect width="38" height="7" x="1199" y="566" fill="#028fe4" rx="2" ry="2"/><rect width="63" height="7" x="1199" y="575" fill="#6caa03" rx="2" ry="2"/><rect width="25" height="7" x="1237" y="575" fill="#e44b02" rx="2" ry="2"/><rect width="50" height="7" x="1274" y="587" fill="#028fe4" rx="2" ry="2"/><rect width="37" height="7" x="1287" y="596" fill="#6caa03" rx="2" ry="2"/></g></g><g class="raphael-group-60-connector"><g fill="none" class="raphael-group-371-connectors"><path stroke="#008ee4" stroke-dasharray="3,4" stroke-linecap="round" stroke-width="2" d="M359.77 154.464h6.265v21.2h6.265"/><path d="M359.77 154.464h6.265v21.2h6.265"/><path stroke="#008ee4" stroke-dasharray="3,4" stroke-linecap="round" stroke-width="2" d="M522.6 175.664h6.26v21.2h6.26"/><path d="M522.6 175.664h6.26v21.2h6.26"/><path stroke="#008ee4" stroke-dasharray="3,4" stroke-linecap="round" stroke-width="2" d="M635.32 196.864h0v21.2h0"/><path d="M635.32 196.864v21.2"/><path stroke="#008ee4" stroke-dasharray="3,4" stroke-linecap="round" stroke-width="2" d="M635.32 196.864h6.26v63.6h6.26"/><path d="M635.32 196.864h6.26v63.6h6.26"/><path stroke="#008ee4" stroke-dasharray="3,4" stroke-linecap="round" stroke-width="2" d="M760.57 281.664h12.525v21.2h12.525"/><path d="M760.57 281.664h12.525v21.2h12.525"/><path stroke="#008ee4" stroke-dasharray="3,4" stroke-linecap="round" stroke-width="2" d="M760.57 281.664h12.525v42.4h12.525"/><path d="M760.57 281.664h12.525v42.4h12.525"/><path stroke="#008ee4" stroke-dasharray="3,4" stroke-linecap="round" stroke-width="2" d="M986.01 387.664h6.265v84.8h6.265"/><path d="M986.01 387.664h6.265v84.8h6.265"/><path stroke="#008ee4" stroke-dasharray="3,4" stroke-linecap="round" stroke-width="2" d="M986.01 387.664h25.05v106h25.05"/><path d="M986.01 387.664h25.05v106h25.05"/><path stroke="#008ee4" stroke-dasharray="3,4" stroke-linecap="round" stroke-width="2" d="M1186.41 493.664h6.265v21.2h6.265"/><path d="M1186.41 493.664h6.265v21.2h6.265"/><path stroke="#008ee4" stroke-dasharray="3,4" stroke-linecap="round" stroke-width="2" d="M1261.56 536.064h12.525v63.6h12.525"/><path d="M1261.56 536.064h12.525v63.6h12.525"/></g></g><g class="raphael-group-61-milestone" font-family="Source Sans Pro" font-size="14" style="font-size:14px;font-family:&quot;Source Sans Pro&quot;;font-weight:400;font-style:normal"><path fill="#f8bd19" stroke="#f8bd19" stroke-linecap="round" d="m998.54 383.5936-1.16135 2.47193-2.70983.34065 1.99207 1.86838-.51341 2.68246 2.39252-1.3172 2.39252 1.3172-.51341-2.68246 1.99207-1.86838-2.70983-.34065Z" class="raphael-group-392-milestone"/></g></g><g class="raphael-group-8-scrollbar-container"><g class="raphael-group-395-scrollContainer"><rect width="500" height="11" x="222.5" y="413.5" fill="#eee" stroke="#b2b2b2" rx="0" ry="0"/><rect width="221.22555" height="11" x="223" y="413.5" fill="#8e8e8e" stroke="#8e8e8e" rx="0" ry="0"/></g><g class="raphael-group-398-scrollContainer"><rect width="11" height="273" x="723.5" y="139.5" fill="#eee" stroke="#b2b2b2" rx="0" ry="0"/><rect width="11" height="159.14717" x="723.5" y="140.2" fill="#8e8e8e" stroke="#8e8e8e" rx="0" ry="0"/></g></g><g class="raphael-group-13-caption" font-family="Source Sans Pro" text-anchor="middle"><text x="375" y="31" fill="#5a5a5a" font-size="18" font-weight="bold" style="text-anchor:middle;font-family:&quot;Source Sans Pro&quot;;font-size:18px;font-weight:700">Construction management of a new store in Denver</text><text x="375" y="50" fill="#999" font-size="13" style="text-anchor:middle;font-family:&quot;Source Sans Pro&quot;;font-size:13px;font-weight:400">Planned vs Actual</text></g><g class="raphael-group-19-legend"><g class="raphael-group-28-legendGroup" transform="translate(233 433)"><rect width="285" height="30" fill="none" rx="0" ry="0" style="cursor:default"/><g class="raphael-group-30-item"><text x="28" y="20" fill="#7c7c7c" font-family="Source Sans Pro" font-size="15" style="font-family:&quot;Source Sans Pro&quot;;cursor:default;font-size:15px;text-anchor:start;font-weight:400">Planned</text><path fill="url('#w')" stroke="#66bbef" stroke-linecap="round" stroke-width=".5" d="M7 7h16v16H7Z" style="cursor:default"/><rect width="75.3252" height="22" x="4" y="4" fill="none" rx="0" ry="0" style="cursor:default"/><text x="114.4252" y="20" fill="#7c7c7c" font-family="Source Sans Pro" font-size="15" style="font-family:&quot;Source Sans Pro&quot;;cursor:default;font-size:15px;text-anchor:start;font-weight:400">Actual</text><path fill="url('#x')" stroke="#a6cc67" stroke-linecap="round" stroke-width=".5" d="M93.4252 7h16v16h-16Z" style="cursor:default"/><rect width="66.98291" height="22" x="90.4252" y="4" fill="none" rx="0" ry="0" style="cursor:default"/><text x="192.50811" y="20" fill="#7c7c7c" font-family="Source Sans Pro" font-size="15" style="font-family:&quot;Source Sans Pro&quot;;cursor:default;font-size:15px;text-anchor:start;font-weight:400">Slack (Delay)</text><path fill="url('#y')" stroke="#ef9266" stroke-linecap="round" stroke-width=".5" d="M171.5081 7h16v16h-16Z" style="cursor:default"/><rect width="109.88086" height="22" x="168.50811" y="4" fill="none" rx="0" ry="0" style="cursor:default"/></g></g></g><g fill="none" class="raphael-group-170-gantt-hot-container" clip-path="url('#z')"><path d="M132 67.2v538.4M177 67.2v538.4" style="cursor:ew-resize"/></g></g><g class="raphael-group-osDcqQhj" cursor="pointer" pointer-events="bounding-box" style="transition:.5s"><path d="M41 484.14v-9.59h5.8v1.44h-4.1v2.69h3.48v1.46h-3.47v4Zm7-2.68v-4.52h1.69v4.3c0 1.19.34 1.63 1.12 1.63.63 0 1-.3 1.59-1v-4.93h1.69v7.2h-1.42l-.13-1.05h0a3 3 0 0 1-2.32 1.23c-1.58 0-2.22-1.04-2.22-2.86Zm7.51 1.86.8-1.08a3.23 3.23 0 0 0 2 .8c.78 0 1.14-.36 1.14-.86s-.77-.87-1.54-1.16c-1-.35-2-.9-2-2.1s1-2.15 2.63-2.15a3.94 3.94 0 0 1 2.32.91l-.78 1a2.66 2.66 0 0 0-1.58-.62c-.72 0-1.06.34-1.06.79s.72.8 1.5 1.07c1 .37 2.06.84 2.06 2.19s-1 2.23-2.8 2.23a4.6 4.6 0 0 1-2.73-1.02Zm7.85-7.64a1 1 0 1 1 1-1 1 1 0 0 1-1 1Zm-.85 8.46v-7.2h1.69v7.2Zm3.38-3.59a3.44 3.44 0 1 1 6.85 0 3.44 3.44 0 1 1-6.85 0Zm1.73 0c0 1.44.63 2.39 1.69 2.39s1.69-.95 1.69-2.39-.65-2.41-1.7-2.41-1.68.96-1.68 2.41Zm6.79 3.59v-7.2h1.39l.12 1H76a3.34 3.34 0 0 1 2.36-1.14c1.54 0 2.21 1 2.21 2.86v4.51h-1.7v-4.32c0-1.19-.34-1.63-1.13-1.63a2.29 2.29 0 0 0-1.64.89v5Zm7.83-4.76c0-3.14 2-5 4.43-5a3.79 3.79 0 0 1 2.73 1.21l-.94 1.09a2.42 2.42 0 0 0-1.77-.79c-1.57-.03-2.69 1.29-2.69 3.44s1 3.51 2.64 3.51a2.57 2.57 0 0 0 2-1l.94 1.05a3.84 3.84 0 0 1-3 1.39c-2.42.04-4.34-1.72-4.34-4.9Zm8.76 4.76v-10.35h1.68v4.06a3.3 3.3 0 0 1 2.32-1.08c1.54 0 2.21 1 2.21 2.86v4.51h-1.72v-4.29c0-1.19-.34-1.63-1.13-1.63a2.33 2.33 0 0 0-1.65.89v5Zm7.9-1.93c0-1.54 1.29-2.35 4.24-2.67 0-.77-.33-1.41-1.3-1.41a4 4 0 0 0-2 .7l-.64-1.15a5.64 5.64 0 0 1 3-.93c1.8 0 2.68 1.1 2.68 3.1v4.27h-1.43l-.13-.79h0a3.49 3.49 0 0 1-2.22 1 2 2 0 0 1-2.2-2.12Zm1.65-.14c0 .65.42.93 1 .93a2.25 2.25 0 0 0 1.57-.79v-1.62c-1.93.25-2.57.77-2.57 1.48Zm6.33 2.07v-7.2h1.4l.11 1.28h.06a2.45 2.45 0 0 1 2-1.45 1.86 1.86 0 0 1 .82.14l-.27 1.47a2.46 2.46 0 0 0-.75-.12c-.57 0-1.26.4-1.7 1.48v4.4Zm5.72-2.46v-3.4h-1v-1.27l1.11-.07.21-2h1.4v2h1.84v1.34h-1.86v3.4c0 .85.33 1.26 1 1.26a2 2 0 0 0 .74-.16l.3 1.24a4.43 4.43 0 0 1-1.47.27c-1.65.03-2.27-1.03-2.27-2.61Zm4.33 1.61.79-1.08a3.26 3.26 0 0 0 2 .8c.77 0 1.14-.36 1.14-.86s-.78-.87-1.54-1.16c-.95-.35-2-.9-2-2.1s1-2.15 2.62-2.15a3.89 3.89 0 0 1 2.39.86l-.77 1a2.69 2.69 0 0 0-1.56-.56c-.72 0-1 .34-1 .79s.71.8 1.49 1.07c1 .37 2.07.84 2.07 2.19s-1 2.23-2.8 2.23a4.58 4.58 0 0 1-2.83-1ZM18 474.31h3.33v9.76H18zM22.8 479.11h3.41v4.96H22.8zM27.76 472.68h3.17v11.39M27.76 485.54h3.17v3.33h-3.17v-3.33M129.54 477.27h-2.39V476h6.28v1.27H131v7h-1.5ZM134.11 478.06h1.24l.11 1.11h0a2.15 2.15 0 0 1 1.77-1.27 1.7 1.7 0 0 1 .71.13l-.3 1.28a2.1 2.1 0 0 0-.6-.07c-.49 0-1.09.33-1.46 1.28v3.78h-1.51ZM138.75 476.14a.9.9 0 0 1 1.8 0 .9.9 0 0 1-1.8 0Zm.13 1.92h1.51v6.24h-1.51ZM141.89 482.62c0-1.37 1.09-2 3.65-2.33 0-.64-.27-1.17-1.11-1.17a3.6 3.6 0 0 0-1.75.58l-.53-1a4.78 4.78 0 0 1 2.56-.82c1.55 0 2.33 1 2.33 2.71v3.69h-1.22l-.12-.69h0a2.93 2.93 0 0 1-1.91.84 1.75 1.75 0 0 1-1.9-1.81Zm3.65 0v-1.32c-1.69.21-2.2.59-2.2 1.22s.35.74.86.74a1.85 1.85 0 0 0 1.34-.64ZM148.77 482.68v-7.34h1.51v7.4c0 .36.16.49.31.49a1 1 0 0 0 .23 0l.18 1.1a1.77 1.77 0 0 1-.79.14c-1.05-.02-1.44-.71-1.44-1.79Z"/></g></svg>