<svg width="1280" height="720" xmlns="http://www.w3.org/2000/svg" xmlns:xlink="http://www.w3.org/1999/xlink" overflow="hidden"><defs><clipPath id="clip0"><rect x="0" y="0" width="1280" height="720"/></clipPath><linearGradient x1="640" y1="0" x2="640" y2="720" gradientUnits="userSpaceOnUse" spreadMethod="reflect" id="fill1"><stop offset="0" stop-color="#FEFEFE"/><stop offset="0.166667" stop-color="#FDFDFD"/><stop offset="0.333333" stop-color="#FDFDFD"/><stop offset="0.5" stop-color="#FCFCFC"/><stop offset="0.666667" stop-color="#FAFAFA"/><stop offset="0.833333" stop-color="#F9F9F9"/><stop offset="1" stop-color="#F7F7F7"/></linearGradient></defs><g clip-path="url(#clip0)"><rect x="0" y="0" width="1280" height="720" fill="url(#fill1)"/><path d="M1151.5 301.5 1151.5 663.344" stroke="#175676" stroke-miterlimit="8" fill="none" fill-rule="evenodd"/><path d="M965.5 301.5 965.5 618.011" stroke="#175676" stroke-miterlimit="8" fill="none" fill-rule="evenodd"/><path d="M1043.5 301.5 1043.5 628.678" stroke="#BA324F" stroke-miterlimit="8" fill="none" fill-rule="evenodd"/><path d="M849.5 301.5 849.5 548.678" stroke="#BA324F" stroke-miterlimit="8" fill="none" fill-rule="evenodd"/><path d="M878.5 301.5 878.5 594.011" stroke="#175676" stroke-miterlimit="8" fill="none" fill-rule="evenodd"/><path d="M746.5 566.5 746.5 588.478" stroke="#175676" stroke-miterlimit="8" fill="none" fill-rule="evenodd"/><path d="M746.5 301.5 746.5 548.678" stroke="#175676" stroke-miterlimit="8" fill="none" fill-rule="evenodd"/><path d="M861.5 301.5 861.5 559.344" stroke="#BA324F" stroke-miterlimit="8" fill="none" fill-rule="evenodd"/><path d="M696.5 301.5 696.5 514.011" stroke="#BA324F" stroke-miterlimit="8" fill="none" fill-rule="evenodd"/><path d="M626.5 301.5 626.5 490.011" stroke="#BA324F" stroke-miterlimit="8" fill="none" fill-rule="evenodd"/><path d="M443.5 301.5 443.5 410.011" stroke="#BA324F" stroke-miterlimit="8" fill="none" fill-rule="evenodd"/><path d="M601.5 301.5 601.5 455.344" stroke="#175676" stroke-miterlimit="8" fill="none" fill-rule="evenodd"/><path d="M406.5 427.5 406.5 449.478" stroke="#175676" stroke-miterlimit="8" fill="none" fill-rule="evenodd"/><path d="M406.5 301.5 406.5 410.011" stroke="#175676" stroke-miterlimit="8" fill="none" fill-rule="evenodd"/><path d="M506.5 301.5 506.5 420.678" stroke="#BA324F" stroke-miterlimit="8" fill="none" fill-rule="evenodd"/><path d="M319.5 301.5 319.5 375.344" stroke="#BA324F" stroke-miterlimit="8" fill="none" fill-rule="evenodd"/><path d="M361.5 301.5 361.5 386.011" stroke="#175676" stroke-miterlimit="8" fill="none" fill-rule="evenodd"/><path d="M216.5 301.5 216.5 340.678" stroke="#175676" stroke-miterlimit="8" fill="none" fill-rule="evenodd"/><path d="M286.5 301.5 286.5 351.344" stroke="#BA324F" stroke-miterlimit="8" fill="none" fill-rule="evenodd"/><path d="M174.5 301.5 174.5 351.344" stroke="#BA324F" stroke-miterlimit="8" fill="none" fill-rule="evenodd"/><path d="M94.5001 663.5 914.862 663.5" stroke="#175676" stroke-miterlimit="8" fill="none" fill-rule="evenodd"/><path d="M94.5001 628.5 799.306 628.5" stroke="#BA324F" stroke-miterlimit="8" fill="none" fill-rule="evenodd"/><path d="M94.5001 593.5 695.347 593.5" stroke="#175676" stroke-miterlimit="8" fill="none" fill-rule="evenodd"/><path d="M87.5001 559.5 645.04 559.5" stroke="#BA324F" stroke-miterlimit="8" fill="none" fill-rule="evenodd"/><path d="M87.5001 524.5 580.092 524.5" stroke="#175676" stroke-miterlimit="8" fill="none" fill-rule="evenodd"/><path d="M87.5001 489.5 394.01 489.5" stroke="#BA324F" stroke-miterlimit="8" fill="none" fill-rule="evenodd"/><path d="M87.5001 455.5 356.994 455.5" stroke="#175676" stroke-miterlimit="8" fill="none" fill-rule="evenodd"/><path d="M90.5001 420.5 269.054 420.5" stroke="#BA324F" stroke-miterlimit="8" fill="none" fill-rule="evenodd"/><path d="M90.5001 385.5 165.525 385.5" stroke="#175676" stroke-miterlimit="8" fill="none" fill-rule="evenodd"/><path d="M87.5001 351.5 124.899 351.5" stroke="#BA324F" stroke-miterlimit="8" fill="none" fill-rule="evenodd"/><path d="M1188.5 116.5 1188.5 241.874" stroke="#4BA3C3" stroke-miterlimit="8" fill="none" fill-rule="evenodd"/><path d="M630.5 301.5 630.5 519.344" stroke="#175676" stroke-miterlimit="8" fill="none" fill-rule="evenodd"/><path d="M741.5 301.5 741.5 524.678" stroke="#175676" stroke-miterlimit="8" fill="none" fill-rule="evenodd"/><path d="M150.5 114.5 150.5 241.984" stroke="#4BA3C3" stroke-miterlimit="8" fill="none" fill-rule="evenodd"/><path d="M216.5 358.5 216.5 380.478" stroke="#175676" stroke-miterlimit="8" fill="none" fill-rule="evenodd"/><path d="M319.5 396.5 319.5 420.5" stroke="#BA324F" stroke-miterlimit="8" fill="none" fill-rule="evenodd"/><path d="M443.5 427.5 443.5 444.144" stroke="#BA324F" stroke-miterlimit="8" fill="none" fill-rule="evenodd"/><path d="M443.5 465.5 443.5 489.5" stroke="#BA324F" stroke-miterlimit="8" fill="none" fill-rule="evenodd"/><path d="M696.5 531.5 696.5 558.811" stroke="#BA324F" stroke-miterlimit="8" fill="none" fill-rule="evenodd"/><path d="M849.5 569.5 849.5 582.833" stroke="#BA324F" stroke-miterlimit="8" fill="none" fill-rule="evenodd"/><path d="M849.5 601.5 849.5 628.811" stroke="#BA324F" stroke-miterlimit="8" fill="none" fill-rule="evenodd"/><path d="M965.5 635.5 965.5 657.478" stroke="#175676" stroke-miterlimit="8" fill="none" fill-rule="evenodd"/><path d="M78.1664 241 1202.83 241C1204.58 241 1206 242.418 1206 244.166L1206 260 75 260 75 244.166C75 242.418 76.4176 241 78.1664 241Z" fill="#175676" fill-rule="evenodd"/><rect x="75" y="261" width="1131" height="20" fill="#BA324F"/><path d="M75 282 1206 282 1206 297.834C1206 299.582 1204.58 301 1202.83 301L78.1664 301C76.4176 301 75 299.582 75 297.834L75 282Z" fill="#4BA3C3" fill-rule="evenodd"/><rect x="75" y="297" width="417" height="4" fill="#EEECE1" fill-opacity="0.74902"/><path d="M488 307 491.5 301 495 307Z" fill="#E84C22" fill-rule="evenodd"/><text font-family="Century Gothic,Century Gothic_MSFontService,sans-serif" font-weight="400" font-size="9" transform="translate(477.379 316)">Today<tspan fill="#FFFFFF" font-weight="700" font-size="13" x="-395.565" y="-60">2022</tspan><tspan fill="#FFFFFF" font-weight="700" font-size="13" x="489.992" y="-60">2023</tspan><tspan fill="#FFFFFF" font-weight="700" font-size="13" x="-395.565" y="-40">Q2</tspan><tspan fill="#FFFFFF" font-weight="700" font-size="13" x="-271.422" y="-40">Q3</tspan><tspan fill="#FFFFFF" font-weight="700" font-size="13" x="109.285" y="-40">Q4</tspan><tspan fill="#FFFFFF" font-weight="700" font-size="13" x="489.992" y="-40">Q1</tspan><tspan fill="#FFFFFF" font-weight="700" font-size="13" x="-395.565" y="-20">Jun</tspan><tspan fill="#FFFFFF" font-weight="700" font-size="13" x="-271.422" y="-20">Jul</tspan><tspan fill="#FFFFFF" font-weight="700" font-size="13" x="-143.14" y="-20">Aug</tspan><tspan fill="#FFFFFF" font-weight="700" font-size="13" x="-14.8582" y="-20">Sep</tspan><tspan fill="#FFFFFF" font-weight="700" font-size="13" x="109.285" y="-20">Oct</tspan><tspan fill="#FFFFFF" font-weight="700" font-size="13" x="237.567" y="-20">Nov</tspan><tspan fill="#FFFFFF" font-weight="700" font-size="13" x="361.711" y="-20">Dec</tspan><tspan fill="#FFFFFF" font-weight="700" font-size="13" x="489.992" y="-20">Jan</tspan><tspan fill="#FFFFFF" font-weight="700" font-size="13" x="618.274" y="-20">Feb</tspan></text><path d="M961.5 241.5 961.5 260.7" stroke="#FFFFFF" stroke-miterlimit="8" stroke-opacity="0.298039" fill="none" fill-rule="evenodd"/><path d="M174 340 275.5 340 286 350.5 275.5 361 174 361Z" fill="#BA324F" fill-rule="evenodd"/><path d="M216 377.625 350.5 377.625 350.5 375 361 385.5 350.5 396 350.5 393.375 216 393.375Z" fill="#175676" fill-rule="evenodd"/><path d="M319 409 495 409 506 420 495 431 319 431Z" fill="#BA324F" fill-rule="evenodd"/><path d="M406 446.625 590.5 446.625 590.5 444 601 454.5 590.5 465 590.5 462.375 406 462.375Z" fill="#175676" fill-rule="evenodd"/><path d="M443 479 615.5 479 626 489.5 615.5 500 443 500Z" fill="#BA324F" fill-rule="evenodd"/><path d="M630 515.75 731 515.75 731 513 742 524 731 535 731 532.25 630 532.25Z" fill="#175676" fill-rule="evenodd"/><path d="M696 548 852.5 548 863 558.5 852.5 569 696 569Z" fill="#BA324F" fill-rule="evenodd"/><path d="M746 585.625 868.5 585.625 868.5 583 879 593.5 868.5 604 868.5 601.375 746 601.375Z" fill="#175676" fill-rule="evenodd"/><path d="M849 617 1033 617 1044 628 1033 639 849 639Z" fill="#BA324F" fill-rule="evenodd"/><path d="M965 654.625 1141.5 654.625 1141.5 652 1152 662.5 1141.5 673 1141.5 670.375 965 670.375Z" fill="#175676" fill-rule="evenodd"/><text fill="#E7E6E6" font-family="Century Gothic,Century Gothic_MSFontService,sans-serif" font-weight="700" font-size="12" transform="translate(199.582 355)">6/25 <tspan font-size="12" x="28.7" y="0">-</tspan><tspan font-size="12" x="36.98" y="0">7/21</tspan><tspan fill="#BA324F" font-family="Montserrat Medium,Montserrat Medium_MSFontService,sans-serif" font-weight="500" font-size="12" x="-74.7987" y="-1">27 days</tspan><tspan fill="#BA324F" font-size="13" x="-186.249" y="1">Task 1 Here</tspan><tspan fill="#FFFFFF" font-size="12" x="64.7471" y="35">7/5 </tspan><tspan fill="#FFFFFF" font-size="12" x="86.7004" y="35">-</tspan><tspan fill="#FFFFFF" font-size="12" x="94.9271" y="35">8/8</tspan><tspan fill="#175676" font-family="Montserrat Medium,Montserrat Medium_MSFontService,sans-serif" font-weight="500" font-size="12" x="-33.2975" y="34">35 days</tspan><tspan fill="#175676" font-size="13" x="-186.249" y="35">Task 2 Here </tspan><tspan font-size="12" x="182.077" y="70">7/30 </tspan><tspan font-size="12" x="210.777" y="70">-</tspan><tspan font-size="12" x="219.057" y="70">9/12</tspan><tspan fill="#BA324F" font-family="Montserrat Medium,Montserrat Medium_MSFontService,sans-serif" font-weight="500" font-size="12" x="71.331" y="69">45 days</tspan><tspan fill="#BA324F" font-size="13" x="-186.249" y="70">Task 3 Here </tspan><tspan fill="#FFFFFF" font-size="12" x="273.116" y="104">8/20 </tspan><tspan fill="#FFFFFF" font-size="12" x="301.816" y="104">-</tspan><tspan fill="#FFFFFF" font-size="12" x="310.096" y="104">10/5</tspan><tspan fill="#175676" font-family="Montserrat Medium,Montserrat Medium_MSFontService,sans-serif" font-weight="500" font-size="12" x="158.769" y="103">47 days</tspan><tspan fill="#175676" font-size="13" x="-186.249" y="105">Task 4 Here</tspan><tspan font-size="12" x="300.805" y="139">8/29 </tspan>-<tspan font-size="12" x="337.785" y="139">10/11</tspan><tspan fill="#BA324F" font-family="Montserrat Medium,Montserrat Medium_MSFontService,sans-serif" font-weight="500" font-size="12" x="194.179" y="138">44 days</tspan><tspan fill="#BA324F" font-size="13" x="-186.249" y="139">Task 5 Here</tspan><tspan fill="#FFFFFF" font-size="12" x="451.846" y="174">10/13 </tspan><tspan fill="#FFFFFF" font-size="12" x="487.187" y="174">-</tspan><tspan fill="#FFFFFF" font-size="12" x="495.466" y="174">11/8</tspan><tspan fill="#175676" font-family="Montserrat Medium,Montserrat Medium_MSFontService,sans-serif" font-weight="500" font-size="12" x="380.394" y="173">27 days</tspan><tspan fill="#175676" font-size="13" x="-186.249" y="174">Task 8 Here</tspan><tspan font-size="12" x="544.954" y="208">10/29 </tspan>-<tspan font-size="12" x="588.574" y="208">12/7</tspan><tspan fill="#BA324F" font-family="Montserrat Medium,Montserrat Medium_MSFontService,sans-serif" font-weight="500" font-size="12" x="446.756" y="207">40 days</tspan><tspan fill="#BA324F" font-size="13" x="-186.249" y="209">Task 9 Here</tspan><tspan fill="#FFFFFF" font-size="12" x="574.713" y="243">11/10 </tspan><tspan fill="#FFFFFF" font-size="12" x="610.053" y="243">-</tspan><tspan fill="#FFFFFF" font-size="12" x="618.333" y="243">12/11</tspan><tspan fill="#175676" font-family="Montserrat Medium,Montserrat Medium_MSFontService,sans-serif" font-weight="500" font-size="12" x="496.075" y="242">32 days</tspan><tspan fill="#175676" font-size="13" x="-186.249" y="243">Task 10 Here</tspan><tspan font-size="12" x="715.895" y="278">12/5 </tspan><tspan font-size="12" x="744.595" y="278">-</tspan><tspan font-size="12" x="752.875" y="278">1/20</tspan><tspan fill="#BA324F" font-family="Montserrat Medium,Montserrat Medium_MSFontService,sans-serif" font-weight="500" font-size="12" x="601.548" y="277">47 days</tspan><tspan fill="#BA324F" font-size="13" x="-186.249" y="278">Task 11 Here</tspan><tspan fill="#FFFFFF" font-size="12" x="830.971" y="312">1/2 </tspan><tspan fill="#FFFFFF" font-size="12" x="853.031" y="312">-</tspan><tspan fill="#FFFFFF" font-size="12" x="861.311" y="312">2/15</tspan><tspan fill="#175676" font-family="Montserrat Medium,Montserrat Medium_MSFontService,sans-serif" font-weight="500" font-size="12" x="716.878" y="311">45 days</tspan><tspan fill="#175676" font-size="13" x="-186.249" y="313">Task 12 Here</tspan></text><path d="M382 229 398 229 394.8 248 385.2 248Z" fill="#D62839" fill-rule="evenodd"/><path d="M742 248 746 229 758 229 754 248Z" fill="#92A8AE" fill-rule="evenodd"/><path d="M1185 116 1185 133 1168 124.5Z" fill="#4BA3C3" fill-rule="evenodd"/><path d="M1085 236 1091 236 1091 221 1103 221 1103 236 1109 236 1097 248Z" fill="#BA324F" fill-rule="evenodd"/><path d="M153 131 153 114 170 122.5Z" fill="#4BA3C3" fill-rule="evenodd"/><text fill="#44546A" font-family="Century Gothic,Century Gothic_MSFontService,sans-serif" font-weight="700" font-size="16" transform="translate(346.94 225)">Milestone 2<tspan font-size="16" x="360.017" y="0">Milestone 3</tspan><tspan font-size="16" x="735.289" y="-102">Milestone 5</tspan></text><path d="M1081.97 123.804 1103.47 123.804 1124.97 123.804 1146.47 123.804 1167.97 123.804 1167.97 124.804 1146.47 124.804 1124.97 124.804 1103.47 124.804 1081.97 124.804Z" fill="#44546A" fill-rule="evenodd"/><text fill="#44546A" font-family="Century Gothic,Century Gothic_MSFontService,sans-serif" font-weight="700" font-size="16" transform="translate(169.63 121)">Milestone 1</text><path d="M169.63 121.694 191.13 121.694 212.63 121.694 234.13 121.694 255.63 121.694 255.63 122.694 234.13 122.694 212.63 122.694 191.13 122.694 169.63 122.694Z" fill="#44546A" fill-rule="evenodd"/><text fill="#BA324F" font-family="Century Gothic,Century Gothic_MSFontService,sans-serif" font-weight="700" font-size="13" transform="translate(1104.8 139)">2/24/2023<tspan font-size="13" x="-935.168" y="-2">6/18/2022</tspan><tspan fill="#44546A" font-size="16" x="-50.2397" y="79">Milestone 4</tspan></text></g></svg>