<svg xmlns="http://www.w3.org/2000/svg" width="329" height="267" class="marks"><g fill="none" stroke-miterlimit="10" aria-roledescription="group mark container" class="mark-group role-frame root"><path d="M17 5h300v240H17Z" aria-hidden="true" class="background"/><g aria-label="X-axis for a linear scale with values from 0.0 to 1.1" aria-roledescription="axis" class="mark-group role-axis" pointer-events="none"><path d="M17.5 245.5Z" aria-hidden="true" class="background"/><g stroke="#888" class="mark-rule role-axis-tick"><path d="M17.5 245.5v5M44.5 245.5v5M72.5 245.5v5M99.5 245.5v5M126.5 245.5v5M153.5 245.5v5M181.5 245.5v5M208.5 245.5v5M235.5 245.5v5M262.5 245.5v5M290.5 245.5v5M317.5 245.5v5"/></g><g fill="#000" class="mark-text role-axis-label" font-family="sans-serif" font-size="10" text-anchor="middle"><text transform="translate(17.5 260.5)">0.0</text><text transform="translate(44.5 260.5)">0.1</text><text transform="translate(72.5 260.5)">0.2</text><text transform="translate(99.5 260.5)">0.3</text><text transform="translate(126.5 260.5)">0.4</text><text transform="translate(153.5 260.5)">0.5</text><text transform="translate(181.5 260.5)">0.6</text><text transform="translate(208.5 260.5)">0.7</text><text transform="translate(235.5 260.5)">0.8</text><text transform="translate(262.5 260.5)">0.9</text><text transform="translate(290.5 260.5)">1.0</text><text transform="translate(317.5 260.5)">1.1</text></g><path stroke="#888" d="M17.5 245.5h300" class="mark-rule role-axis-domain"/></g><g aria-roledescription="group mark container" class="mark-group role-scope"><path d="M17 20Z" aria-hidden="true" class="background"/><g aria-roledescription="rect mark container" class="mark-rect role-mark bars"><path fill="#1f77b4" d="M17 20h27v15H17Z"/><path fill="#aec7e8" d="M17 35h164v15H17Z"/><path fill="#ff7f0e" d="M17 50h245v15H17Z"/><path fill="#ffbb78" d="M17 65h109v15H17Z"/></g><g aria-roledescription="text mark container" class="mark-text role-mark" font-family="sans-serif" font-size="11" text-anchor="end"><text fill="#fff" transform="translate(39 30.5)">0.1</text><text fill="#000" transform="translate(176 45.5)">0.6</text><text fill="#000" transform="translate(257 60.5)">0.9</text><text fill="#000" transform="translate(121 75.5)">0.4</text></g><path d="M17 95Z" aria-hidden="true" class="background"/><g aria-roledescription="rect mark container" class="mark-rect role-mark bars"><path fill="#1f77b4" d="M17 95h191v15H17Z"/><path fill="#aec7e8" d="M17 110h55v15H17Z"/><path fill="#ff7f0e" d="M17 125h300v15H17Z"/><path fill="#ffbb78" d="M17 140h218v15H17Z"/></g><g aria-roledescription="text mark container" class="mark-text role-mark" font-family="sans-serif" font-size="11" text-anchor="end"><text fill="#fff" transform="translate(203 105.5)">0.7</text><text fill="#000" transform="translate(67 120.5)">0.2</text><text fill="#000" transform="translate(312 135.5)">1.1</text><text fill="#000" transform="translate(230 150.5)">0.8</text></g><path d="M17 170Z" aria-hidden="true" class="background"/><g aria-roledescription="rect mark container" class="mark-rect role-mark bars"><path fill="#1f77b4" d="M17 170h164v15H17Z"/><path fill="#aec7e8" d="M17 185h27v15H17Z"/><path fill="#ff7f0e" d="M17 200h55v15H17Z"/><path fill="#ffbb78" d="M17 215h191v15H17Z"/></g><g aria-roledescription="text mark container" class="mark-text role-mark" font-family="sans-serif" font-size="11" text-anchor="end"><text fill="#fff" transform="translate(176 180.5)">0.6</text><text fill="#000" transform="translate(39 195.5)">0.1</text><text fill="#000" transform="translate(67 210.5)">0.2</text><text fill="#000" transform="translate(203 225.5)">0.7</text></g></g><g aria-label="Y-axis for a discrete scale with 3 values: A, B, C" aria-roledescription="axis" class="mark-group role-axis" pointer-events="none"><path d="M17.5 5.5Z" aria-hidden="true" class="background"/><g stroke="#888" class="mark-rule role-axis-tick"><path d="M17.5 200.5"/></g><g fill="#000" class="mark-text role-axis-label" font-family="sans-serif" font-size="10" text-anchor="end"><text transform="translate(13.5 53)">A</text><text transform="translate(13.5 128)">B</text><text transform="translate(13.5 203)">C</text></g><path stroke="#888" d="M17.5 5.5v240" class="mark-rule role-axis-domain"/></g></g></svg>