<?xml version="1.0" encoding="utf-8" standalone="no"?>
<!-- Generator: DataGraph - https://www.visualdatatools.com/DataGraph/index.html  --><!DOCTYPE svg PUBLIC "-//W3C//DTD SVG 1.1//EN" "http://www.w3.org/Graphics/SVG/1.1/DTD/svg11.dtd">
<svg width="800" height="400" version="1.1" xmlns="http://www.w3.org/2000/svg" xmlns:xlink="http://www.w3.org/1999/xlink">
<g>
  <!-- Commands -->
  <g id="Commands">
    <!-- airmiles -->
    <g id="airmiles">
      <!-- Plot -->
      <g id="Plot">
        <defs>
          <clipPath id="clipPath">
            <rect x="88.5" y="-4.5" width="705.5" height="336"/>
          </clipPath>
        </defs>
        <g clip-path="url(#clipPath)">
          <path d="M 155.284 308.016 C 163.081 307.895 170.878 307.775 178.676 307.441 
                   C 186.473 307.107 194.27 306.559 202.068 305.724 C 209.865 304.889 217.662 303.766 225.46 302.603 
                   C 233.257 301.44 241.054 300.237 248.851 299.787 C 256.649 299.337 264.446 299.639 272.243 299.508 
                   C 280.041 299.377 287.838 298.812 295.635 297.681 C 303.433 296.55 311.23 294.853 319.027 293.08 
                   C 326.825 291.308 334.622 289.459 342.419 283.067 C 350.216 276.675 358.014 265.739 365.811 261.197 
                   C 373.608 256.655 381.406 258.507 389.203 259.835 C 397 261.163 404.798 261.967 412.595 260.918 
                   C 420.392 259.868 428.19 256.965 435.987 254.389 C 443.784 251.813 451.581 249.563 459.379 243.817 
                   C 467.176 238.072 474.973 228.829 482.771 222.142 C 490.568 215.455 498.365 211.323 506.163 205.549 
                   C 513.96 199.775 521.757 192.36 529.554 186.673 C 537.352 180.985 545.149 177.025 552.946 169.682 
                   C 560.744 162.339 568.541 151.612 576.338 143.888 C 584.136 136.164 591.933 131.442 599.73 122.381 
                   C 607.528 113.32 615.325 99.9201 623.122 97.196 C 630.919 94.4719 638.717 102.424 646.514 97.1706 
                   C 654.311 91.917 662.109 73.4575 669.906 63.9679 C 677.703 54.4783 685.501 53.9585 693.298 53.4387 "
            stroke="black" fill="none" stroke-width="1"/>
        </g>
        <g>
          <circle cx="155.284" cy="308.016" r="3" fill="black" stroke="none"/>
          <circle cx="178.676" cy="307.441" r="3" fill="black" stroke="none"/>
          <circle cx="202.068" cy="305.724" r="3" fill="black" stroke="none"/>
          <circle cx="225.46" cy="302.603" r="3" fill="black" stroke="none"/>
          <circle cx="248.851" cy="299.787" r="3" fill="black" stroke="none"/>
          <circle cx="272.243" cy="299.508" r="3" fill="black" stroke="none"/>
          <circle cx="295.635" cy="297.681" r="3" fill="black" stroke="none"/>
          <circle cx="319.027" cy="293.08" r="3" fill="black" stroke="none"/>
          <circle cx="342.419" cy="283.067" r="3" fill="black" stroke="none"/>
          <circle cx="365.811" cy="261.197" r="3" fill="black" stroke="none"/>
          <circle cx="389.203" cy="259.835" r="3" fill="black" stroke="none"/>
          <circle cx="412.595" cy="260.918" r="3" fill="black" stroke="none"/>
          <circle cx="435.987" cy="254.389" r="3" fill="black" stroke="none"/>
          <circle cx="459.379" cy="243.817" r="3" fill="black" stroke="none"/>
          <circle cx="482.771" cy="222.142" r="3" fill="black" stroke="none"/>
          <circle cx="506.163" cy="205.549" r="3" fill="black" stroke="none"/>
          <circle cx="529.554" cy="186.673" r="3" fill="black" stroke="none"/>
          <circle cx="552.946" cy="169.682" r="3" fill="black" stroke="none"/>
          <circle cx="576.338" cy="143.888" r="3" fill="black" stroke="none"/>
          <circle cx="599.73" cy="122.381" r="3" fill="black" stroke="none"/>
          <circle cx="623.122" cy="97.196" r="3" fill="black" stroke="none"/>
          <circle cx="646.514" cy="97.1706" r="3" fill="black" stroke="none"/>
          <circle cx="669.906" cy="63.9679" r="3" fill="black" stroke="none"/>
          <circle cx="693.298" cy="53.4387" r="3" fill="black" stroke="none"/>
        </g>
      </g>
      <g>
        <g font-family="Helvetica" font-size="13" fill="black">
          <text x="127.596" y="312.825">412</text>
        </g>
        <g font-family="Helvetica" font-size="13" fill="black">
          <text x="168.124" y="322.758">480</text>
        </g>
        <g font-family="Helvetica" font-size="13" fill="black">
          <text x="191.84" y="321.017">683</text>
        </g>
        <g font-family="Helvetica" font-size="13" fill="black">
          <text x="217.839" y="296.651">1k</text>
        </g>
        <g font-family="Helvetica" font-size="13" fill="black">
          <text x="241.59" y="293.8">1k</text>
        </g>
        <g font-family="Helvetica" font-size="13" fill="black">
          <text x="265.648" y="314.826">1k</text>
        </g>
        <g font-family="Helvetica" font-size="13" fill="black">
          <text x="289.587" y="312.95">2k</text>
        </g>
        <g font-family="Helvetica" font-size="13" fill="black">
          <text x="313.951" y="308.132">2k</text>
        </g>
        <g font-family="Helvetica" font-size="13" fill="black">
          <text x="338.933" y="297.35">3k</text>
        </g>
        <g font-family="Helvetica" font-size="13" fill="black">
          <text x="356.278" y="255.823">6k</text>
        </g>
        <g font-family="Helvetica" font-size="13" fill="black">
          <text x="382.338" y="253.835">6k</text>
        </g>
        <g font-family="Helvetica" font-size="13" fill="black">
          <text x="405.73" y="276.243">6k</text>
        </g>
        <g font-family="Helvetica" font-size="13" fill="black">
          <text x="431.182" y="269.349">7k</text>
        </g>
        <g font-family="Helvetica" font-size="13" fill="black">
          <text x="455.919" y="258.082">8k</text>
        </g>
        <g font-family="Helvetica" font-size="13" fill="black">
          <text x="468.971" y="217.498">11k</text>
        </g>
        <g font-family="Helvetica" font-size="13" fill="black">
          <text x="499.307" y="219.655">13k</text>
        </g>
        <g font-family="Helvetica" font-size="13" fill="black">
          <text x="515.424" y="181.911">15k</text>
        </g>
        <g font-family="Helvetica" font-size="13" fill="black">
          <text x="546.516" y="183.435">17k</text>
        </g>
        <g font-family="Helvetica" font-size="13" fill="black">
          <text x="551.112" y="144.331">20k</text>
        </g>
        <g font-family="Helvetica" font-size="13" fill="black">
          <text x="593.489" y="135.953">22k</text>
        </g>
        <g font-family="Helvetica" font-size="13" fill="black">
          <text x="609.796" y="91.9141">25k</text>
        </g>
        <g font-family="Helvetica" font-size="13" fill="black">
          <text x="639.508" y="111.387">25k</text>
        </g>
        <g font-family="Helvetica" font-size="13" fill="black">
          <text x="655.329" y="59.5847">29k</text>
        </g>
        <g font-family="Helvetica" font-size="13" fill="black">
          <text x="698.769" y="55.6384">31k</text>
        </g>
      </g>
    </g>
  </g>
  <!-- Foreground -->
  <g id="Foreground">
    <!-- Y Axis -->
    <g id="Y_Axis">
      <g transform="translate(23.0312,163.5) rotate(-90) translate(-23.0312,-163.5)" font-family="Helvetica" font-size="20" fill="black">
        <text x="-11.417" y="163.5">airmiles</text>
      </g>
      <!-- Y Labels -->
      <g id="Y_Labels">
        <g font-family="Helvetica" font-size="20" fill="black">
          <text x="65.377" y="318.673">0</text>
        </g>
        <g font-family="Helvetica" font-size="20" fill="black">
          <text x="44.2539" y="234.101">10k</text>
        </g>
        <g font-family="Helvetica" font-size="20" fill="black">
          <text x="44.2539" y="149.53">20k</text>
        </g>
        <g font-family="Helvetica" font-size="20" fill="black">
          <text x="44.2539" y="64.9586">30k</text>
        </g>
      </g>
      <path d="M 80.5 311.5 L 88.5 311.5 M 84.5 303.043 L 88.5 303.043 M 84.5 294.586 L 88.5 294.586 
               M 84.5 286.129 L 88.5 286.129 M 84.5 277.671 L 88.5 277.671 M 84.5 269.214 L 88.5 269.214 
               M 84.5 260.757 L 88.5 260.757 M 84.5 252.3 L 88.5 252.3 M 84.5 243.843 L 88.5 243.843 
               M 84.5 235.386 L 88.5 235.386 M 80.5 226.929 L 88.5 226.929 M 84.5 218.471 L 88.5 218.471 
               M 84.5 210.014 L 88.5 210.014 M 84.5 201.557 L 88.5 201.557 M 84.5 193.1 L 88.5 193.1 
               M 84.5 184.643 L 88.5 184.643 M 84.5 176.186 L 88.5 176.186 M 84.5 167.729 L 88.5 167.729 
               M 84.5 159.271 L 88.5 159.271 M 84.5 150.814 L 88.5 150.814 M 80.5 142.357 L 88.5 142.357 
               M 84.5 133.9 L 88.5 133.9 M 84.5 125.443 L 88.5 125.443 M 84.5 116.986 L 88.5 116.986 
               M 84.5 108.529 L 88.5 108.529 M 84.5 100.071 L 88.5 100.071 M 84.5 91.6143 L 88.5 91.6143 
               M 84.5 83.1571 L 88.5 83.1571 M 84.5 74.7 L 88.5 74.7 M 84.5 66.2429 L 88.5 66.2429 M 80.5 57.7857 L 88.5 57.7857 
               M 84.5 49.3286 L 88.5 49.3286 M 84.5 40.8714 L 88.5 40.8714 M 84.5 32.4143 L 88.5 32.4143 
               M 84.5 23.9571 L 88.5 23.9571 M 84.5 15.5 L 88.5 15.5 "
        stroke="black" fill="none" stroke-width="1"/>
    </g>
    <!-- X Axis -->
    <g id="X_Axis">
      <g font-family="Helvetica" font-size="20" fill="black">
        <text x="422.108" y="388">time</text>
      </g>
      <g>
        <g font-family="Helvetica" font-size="20" fill="black">
          <text x="86.2539" y="358.149">1935</text>
        </g>
        <g font-family="Helvetica" font-size="20" fill="black">
          <text x="203.213" y="358.149">1940</text>
        </g>
        <g font-family="Helvetica" font-size="20" fill="black">
          <text x="320.173" y="358.149">1945</text>
        </g>
        <g font-family="Helvetica" font-size="20" fill="black">
          <text x="437.133" y="358.149">1950</text>
        </g>
        <g font-family="Helvetica" font-size="20" fill="black">
          <text x="554.092" y="358.149">1955</text>
        </g>
        <g font-family="Helvetica" font-size="20" fill="black">
          <text x="671.052" y="358.149">1960</text>
        </g>
      </g>
      <path d="M 108.5 339.5 L 108.5 331.5 M 225.46 339.5 L 225.46 331.5 M 342.419 339.5 L 342.419 331.5 
               M 459.379 339.5 L 459.379 331.5 M 576.338 339.5 L 576.338 331.5 M 693.298 339.5 L 693.298 331.5 
               M 131.892 335.5 L 131.892 331.5 M 155.284 335.5 L 155.284 331.5 M 178.676 335.5 L 178.676 331.5 
               M 202.068 335.5 L 202.068 331.5 M 248.851 335.5 L 248.851 331.5 M 272.243 335.5 L 272.243 331.5 
               M 295.635 335.5 L 295.635 331.5 M 319.027 335.5 L 319.027 331.5 M 365.811 335.5 L 365.811 331.5 
               M 389.203 335.5 L 389.203 331.5 M 412.595 335.5 L 412.595 331.5 M 435.987 335.5 L 435.987 331.5 
               M 482.771 335.5 L 482.771 331.5 M 506.163 335.5 L 506.163 331.5 M 529.554 335.5 L 529.554 331.5 
               M 552.946 335.5 L 552.946 331.5 M 599.73 335.5 L 599.73 331.5 M 623.122 335.5 L 623.122 331.5 
               M 646.514 335.5 L 646.514 331.5 M 669.906 335.5 L 669.906 331.5 M 716.69 335.5 L 716.69 331.5 
               M 740.082 335.5 L 740.082 331.5 M 763.474 335.5 L 763.474 331.5 "
        stroke="black" fill="none" stroke-width="1"/>
    </g>
    <path d="M 108.5 331.5 L 774 331.5 M 88.5 15.5 L 88.5 311.5 "
      stroke="black" stroke-linecap="square" fill="none" stroke-width="1"/>
  </g>
</g>
</svg>
