<?xml version="1.0" encoding="utf-8"?>
<!-- Generator: Adobe Illustrator 20.1.0, SVG Export Plug-In . SVG Version: 6.00 Build 0)  -->
<svg version="1.1" id="Layer_1" xmlns="http://www.w3.org/2000/svg" xmlns:xlink="http://www.w3.org/1999/xlink" x="0px" y="0px"
	 viewBox="0 0 427 264.9" style="enable-background:new 0 0 427 264.9;" xml:space="preserve">
<style type="text/css">
	.st0{fill:none;stroke:#808080;stroke-miterlimit:10;}
	.st1{fill:#333333;}
	.st2{font-family: 'Roboto', sans-serif; font-weight:300;}
	.st3{font-size:11px;}
	.st4{fill:none;stroke:#F2F2F2;stroke-miterlimit:10;}
	.st5{fill:none;stroke:#79B8F0;stroke-width:2;stroke-miterlimit:10;}
</style>
<line class="st0" x1="39" y1="239.4" x2="403" y2="239.4"/>
<g>
	<text transform="matrix(1 0 0 1 74.9609 252.5)" class="st1 st2 st3">Su</text>
</g>
<g>
	<text transform="matrix(1 0 0 1 122.0488 252.5)" class="st1 st2 st3">Mo</text>
</g>
<g>
	<text transform="matrix(1 0 0 1 171.3486 252.5)" class="st1 st2 st3">Tu</text>
</g>
<g>
	<text transform="matrix(1 0 0 1 217.833 252.5)" class="st1 st2 st3">We</text>
</g>
<g>
	<text transform="matrix(1 0 0 1 267.3711 252.5)" class="st1 st2 st3">Th</text>
</g>
<g>
	<text transform="matrix(1 0 0 1 315.9238 252.5)" class="st1 st2 st3">Fr</text>
</g>
<g>
	<text transform="matrix(1 0 0 1 363.083 252.5)" class="st1 st2 st3">Sa</text>
</g>
<g>
	<text transform="matrix(1 0 0 1 22.6602 171.1933)" class="st1 st2 st3">40</text>
</g>
<g>
	<text transform="matrix(1 0 0 1 22.6602 206.4433)" class="st1 st2 st3">20</text>
</g>
<g>
	<text transform="matrix(1 0 0 1 27.3613 242.9433)" class="st1 st2 st3">0</text>
</g>
<g>
	<text transform="matrix(1 0 0 1 22.6602 135.6382)" class="st1 st2 st3">60</text>
</g>
<g>
	<text transform="matrix(1 0 0 1 22.6602 100.0825)" class="st1 st2 st3">80</text>
</g>
<g>
	<text transform="matrix(1 0 0 1 17.959 64.5268)" class="st1 st2 st3">100</text>
</g>
<g>
	<text transform="matrix(1 0 0 1 17.959 28.9712)" class="st1 st2 st3">120</text>
</g>
<line class="st4" x1="39" y1="202.4" x2="403" y2="202.4"/>
<line class="st4" x1="39" y1="166.4" x2="403" y2="166.4"/>
<line class="st4" x1="39" y1="131.4" x2="403" y2="131.4"/>
<line class="st4" x1="39" y1="95.4" x2="403" y2="95.4"/>
<line class="st4" x1="39" y1="60.4" x2="403" y2="60.4"/>
<line class="st4" x1="39" y1="24.4" x2="403" y2="24.4"/>
<polyline class="st5" points="80,211 128,149.6 176,181.7 272,109.7 320,43 368,85.7 "/>
</svg>
