<svg xmlns="http://www.w3.org/2000/svg" width="1020" height="650" style="background-color: rgb(255, 255, 255);"><g id="plot" transform="translate(50,100)"><clipPath id="clip"><rect width="900" transform="translate(0,-100)" height="650" x="-50"></rect></clipPath><clipPath id="circleClip"><circle r="18"></circle></clipPath><g class="x axis" fill="none" font-size="10" font-family="sans-serif" text-anchor="middle"><path class="domain" stroke="#000" d="M0.5,-6V0.5H850.5V-6"></path><g class="tick" opacity="1" transform="translate(0.5,0)"><line stroke="#000" y2="-6"></line><rect class="text-hitarea" x="0" y="-65" fill="#FFFFFF" opacity="0.1" height="65" width="66.6640625"></rect><rect class="text-outline" height="20px" width="76.6640625" x="21px" y="-32px" transform="rotate(-45)" rx="10px" stroke="#ccc" stroke-width="2px" style="display: none;"></rect><text fill="#000" y="-9" dy="-0.9em" dx="2.3em" transform="rotate(-45)" style="text-anchor: start;">Election 2013</text></g><g class="tick" opacity="1" transform="translate(94.94444444444444,0)"><line stroke="#000" y2="-6"></line><rect class="text-hitarea" x="0" y="-65" fill="#FFFFFF" opacity="0.1" height="65" width="47.09375"></rect><rect class="text-outline" height="20px" width="57.09375" x="21px" y="-32px" transform="rotate(-45)" rx="10px" stroke="#ccc" stroke-width="2px" style="display: none;"></rect><text fill="#000" y="-9" dy="-0.9em" dx="2.3em" transform="rotate(-45)" style="text-anchor: start;">Dec 2016</text></g><g class="tick" opacity="1" transform="translate(189.38888888888889,0)"><line stroke="#000" y2="-6"></line><rect class="text-hitarea" x="0" y="-65" fill="#FFFFFF" opacity="0.1" height="65" width="45.265625"></rect><rect class="text-outline" height="20px" width="55.265625" x="21px" y="-32px" transform="rotate(-45)" rx="10px" stroke="#ccc" stroke-width="2px" style="display: none;"></rect><text fill="#000" y="-9" dy="-0.9em" dx="2.3em" transform="rotate(-45)" style="text-anchor: start;">Jan 2017</text></g><g class="tick" opacity="1" transform="translate(283.8333333333333,0)"><line stroke="#000" y2="-6"></line><rect class="text-hitarea" x="0" y="-65" fill="#FFFFFF" opacity="0.1" height="65" width="46.484375"></rect><rect class="text-outline" height="20px" width="56.484375" x="21px" y="-32px" transform="rotate(-45)" rx="10px" stroke="#ccc" stroke-width="2px" style="display: none;"></rect><text fill="#000" y="-9" dy="-0.9em" dx="2.3em" transform="rotate(-45)" style="text-anchor: start;">Feb 2017</text></g><g class="tick" opacity="1" transform="translate(378.27777777777777,0)"><line stroke="#000" y2="-6"></line><rect class="text-hitarea" x="0" y="-65" fill="#FFFFFF" opacity="0.1" height="65" width="46.4765625"></rect><rect class="text-outline" height="20px" width="56.4765625" x="21px" y="-32px" transform="rotate(-45)" rx="10px" stroke="#ccc" stroke-width="2px" style="display: none;"></rect><text fill="#000" y="-9" dy="-0.9em" dx="2.3em" transform="rotate(-45)" style="text-anchor: start;">Mar 2017</text></g><g class="tick" opacity="1" transform="translate(472.72222222222223,0)"><line stroke="#000" y2="-6"></line><rect class="text-hitarea" x="0" y="-65" fill="#FFFFFF" opacity="0.1" height="65" width="44.6484375"></rect><rect class="text-outline" height="20px" width="54.6484375" x="21px" y="-32px" transform="rotate(-45)" rx="10px" stroke="#ccc" stroke-width="2px" style="display: none;"></rect><text fill="#000" y="-9" dy="-0.9em" dx="2.3em" transform="rotate(-45)" style="text-anchor: start;">Apr 2017</text></g><g class="tick" opacity="1" transform="translate(567.1666666666666,0)"><line stroke="#000" y2="-6"></line><rect class="text-hitarea" x="0" y="-65" fill="#FFFFFF" opacity="0.1" height="65" width="48.3125"></rect><rect class="text-outline" height="20px" width="58.3125" x="21px" y="-32px" transform="rotate(-45)" rx="10px" stroke="#ccc" stroke-width="2px" style="display: none;"></rect><text fill="#000" y="-9" dy="-0.9em" dx="2.3em" transform="rotate(-45)" style="text-anchor: start;">May 2017</text></g><g class="tick" opacity="1" transform="translate(661.6111111111111,0)"><line stroke="#000" y2="-6"></line><rect class="text-hitarea" x="0" y="-65" fill="#FFFFFF" opacity="0.1" height="65" width="45.265625"></rect><rect class="text-outline" height="20px" width="55.265625" x="21px" y="-32px" transform="rotate(-45)" rx="10px" stroke="#ccc" stroke-width="2px" style="display: none;"></rect><text fill="#000" y="-9" dy="-0.9em" dx="2.3em" transform="rotate(-45)" style="text-anchor: start;">Jun 2017</text></g><g class="tick" opacity="1" transform="translate(756.0555555555555,0)"><line stroke="#000" y2="-6"></line><rect class="text-hitarea" x="0" y="-65" fill="#FFFFFF" opacity="0.1" height="65" width="41.59375"></rect><rect class="text-outline" height="20px" width="51.59375" x="21px" y="-32px" transform="rotate(-45)" rx="10px" stroke="#ccc" stroke-width="2px" style="display: none;"></rect><text fill="#000" y="-9" dy="-0.9em" dx="2.3em" transform="rotate(-45)" style="text-anchor: start;">Jul 2017</text></g><g class="tick" opacity="1" transform="translate(850.5,0)"><line stroke="#000" y2="-6"></line><rect class="text-hitarea" x="0" y="-65" fill="#FFFFFF" opacity="0.1" height="65" width="47.1015625"></rect><rect class="text-outline" height="20px" width="57.1015625" x="21px" y="-32px" transform="rotate(-45)" rx="10px" stroke="#ccc" stroke-width="2px" style="display: none;"></rect><text fill="#000" y="-9" dy="-0.9em" dx="2.3em" transform="rotate(-45)" style="text-anchor: start;">Aug 2017</text></g></g><g class="y axis" fill="none" font-size="10" font-family="sans-serif" text-anchor="end"><path class="domain" stroke="#000" d="M850,500.5H0.5V0.5H850"></path><g class="tick" opacity="1" transform="translate(0,500.5)"><line stroke="#000" x2="850"></line><text fill="#000" x="-10" dy="0.32em">0%</text></g><g class="tick" opacity="1" transform="translate(0,440.2590361445783)"><line stroke="#000" x2="850"></line><text fill="#000" x="-10" dy="0.32em">5%</text></g><g class="tick" opacity="1" transform="translate(0,380.01807228915663)"><line stroke="#000" x2="850"></line><text fill="#000" x="-10" dy="0.32em">10%</text></g><g class="tick" opacity="1" transform="translate(0,319.77710843373495)"><line stroke="#000" x2="850"></line><text fill="#000" x="-10" dy="0.32em">15%</text></g><g class="tick" opacity="1" transform="translate(0,259.53614457831327)"><line stroke="#000" x2="850"></line><text fill="#000" x="-10" dy="0.32em">20%</text></g><g class="tick" opacity="1" transform="translate(0,199.29518072289153)"><line stroke="#000" x2="850"></line><text fill="#000" x="-10" dy="0.32em">25%</text></g><g class="tick" opacity="1" transform="translate(0,139.0542168674699)"><line stroke="#000" x2="850"></line><text fill="#000" x="-10" dy="0.32em">30%</text></g><g class="tick" opacity="1" transform="translate(0,78.81325301204816)"><line stroke="#000" x2="850"></line><text fill="#000" x="-10" dy="0.32em">35%</text></g><g class="tick" opacity="1" transform="translate(0,18.572289156626482)"><line stroke="#000" x2="850"></line><text fill="#000" x="-10" dy="0.32em">40%</text></g></g><g class="highlight-line" transform="translate(661.1111111111111,0)" style="display: none;"><line stroke="#ccc" stroke-width="2px" x1="0.5" x2="0.5" y1="-30" y2="500"></line></g><g class="g-lines"><g class="horse line-group" clip-path="url(#clip)" stroke-linejoin="round" stroke-linecap="round" fill="none" opacity="1" stroke="#1f77b4"><path class="shade" d="M0,0L94.44444444444444,72.28915662650604L188.88888888888889,66.26506024096386L283.3333333333333,90.36144578313252L377.77777777777777,90.36144578313252L472.22222222222223,66.26506024096386L566.6666666666666,54.2168674698795L661.1111111111111,18.072289156626482L755.5555555555555,24.09638554216872L850,36.14457831325302" display="block" opacity="0.1" stroke-width="20"></path><path class="line" d="M0,0L94.44444444444444,72.28915662650604L188.88888888888889,66.26506024096386L283.3333333333333,90.36144578313252L377.77777777777777,90.36144578313252L472.22222222222223,66.26506024096386L566.6666666666666,54.2168674698795L661.1111111111111,18.072289156626482L755.5555555555555,24.09638554216872L850,36.14457831325302" opacity="1" stroke-width="4"></path></g><g class="horse line-group" clip-path="url(#clip)" stroke-linejoin="round" stroke-linecap="round" fill="none" opacity="1" stroke="#aec7e8"><path class="shade" d="M0,190.36144578313252L94.44444444444444,234.93975903614455L188.88888888888889,222.89156626506025L283.3333333333333,132.53012048192767L377.77777777777777,102.40963855421688L472.22222222222223,126.50602409638554L566.6666666666666,186.74698795180723L661.1111111111111,210.8433734939759L755.5555555555555,198.79518072289153L850,210.8433734939759" display="block" opacity="0.1" stroke-width="20"></path><path class="line" d="M0,190.36144578313252L94.44444444444444,234.93975903614455L188.88888888888889,222.89156626506025L283.3333333333333,132.53012048192767L377.77777777777777,102.40963855421688L472.22222222222223,126.50602409638554L566.6666666666666,186.74698795180723L661.1111111111111,210.8433734939759L755.5555555555555,198.79518072289153L850,210.8433734939759" opacity="1" stroke-width="4"></path></g><g class="horse line-group" clip-path="url(#clip)" stroke-linejoin="round" stroke-linecap="round" fill="none" opacity="1" stroke="#ff7f0e"><path class="shade" d="M0,442.1686746987952L94.44444444444444,409.6385542168675L188.88888888888889,415.66265060240966L283.3333333333333,421.6867469879518L377.77777777777777,421.6867469879518L472.22222222222223,427.71084337349396L566.6666666666666,391.566265060241L661.1111111111111,373.49397590361446L755.5555555555555,391.566265060241L850,379.51807228915663" display="block" opacity="0.1" stroke-width="20"></path><path class="line" d="M0,442.1686746987952L94.44444444444444,409.6385542168675L188.88888888888889,415.66265060240966L283.3333333333333,421.6867469879518L377.77777777777777,421.6867469879518L472.22222222222223,427.71084337349396L566.6666666666666,391.566265060241L661.1111111111111,373.49397590361446L755.5555555555555,391.566265060241L850,379.51807228915663" opacity="1" stroke-width="4"></path></g><g class="horse line-group" clip-path="url(#clip)" stroke-linejoin="round" stroke-linecap="round" fill="none" opacity="1" stroke="#ffbb78"><path class="shade" d="M0,398.7951807228916L94.44444444444444,379.51807228915663L188.88888888888889,391.566265060241L283.3333333333333,409.6385542168675L377.77777777777777,409.6385542168675L472.22222222222223,415.66265060240966L566.6666666666666,403.6144578313253L661.1111111111111,415.66265060240966L755.5555555555555,415.66265060240966L850,409.6385542168675" display="block" opacity="0.1" stroke-width="20"></path><path class="line" d="M0,398.7951807228916L94.44444444444444,379.51807228915663L188.88888888888889,391.566265060241L283.3333333333333,409.6385542168675L377.77777777777777,409.6385542168675L472.22222222222223,415.66265060240966L566.6666666666666,403.6144578313253L661.1111111111111,415.66265060240966L755.5555555555555,415.66265060240966L850,409.6385542168675" opacity="1" stroke-width="4"></path></g><g class="horse line-group" clip-path="url(#clip)" stroke-linejoin="round" stroke-linecap="round" fill="none" opacity="1" stroke="#2ca02c"><path class="shade" d="M0,396.3855421686747L94.44444444444444,385.5421686746988L188.88888888888889,385.5421686746988L283.3333333333333,403.6144578313253L377.77777777777777,403.6144578313253L472.22222222222223,391.566265060241L566.6666666666666,403.6144578313253L661.1111111111111,397.5903614457831L755.5555555555555,391.566265060241L850,403.6144578313253" display="block" opacity="0.1" stroke-width="20"></path><path class="line" d="M0,396.3855421686747L94.44444444444444,385.5421686746988L188.88888888888889,385.5421686746988L283.3333333333333,403.6144578313253L377.77777777777777,403.6144578313253L472.22222222222223,391.566265060241L566.6666666666666,403.6144578313253L661.1111111111111,397.5903614457831L755.5555555555555,391.566265060241L850,403.6144578313253" opacity="1" stroke-width="4"></path></g><g class="horse line-group" clip-path="url(#clip)" stroke-linejoin="round" stroke-linecap="round" fill="none" opacity="1" stroke="#98df8a"><path class="shade" d="M0,443.3734939759036L94.44444444444444,373.49397590361446L188.88888888888889,361.4457831325301L283.3333333333333,415.66265060240966L377.77777777777777,415.66265060240966L472.22222222222223,415.66265060240966L566.6666666666666,403.6144578313253L661.1111111111111,421.6867469879518L755.5555555555555,415.66265060240966L850,403.6144578313253" display="block" opacity="0.1" stroke-width="20"></path><path class="line" d="M0,443.3734939759036L94.44444444444444,373.49397590361446L188.88888888888889,361.4457831325301L283.3333333333333,415.66265060240966L377.77777777777777,415.66265060240966L472.22222222222223,415.66265060240966L566.6666666666666,403.6144578313253L661.1111111111111,421.6867469879518L755.5555555555555,415.66265060240966L850,403.6144578313253" opacity="1" stroke-width="4"></path></g></g><g class="g-start-circles"><circle class="horse start-circle" cy="0" cx="0" clip-path="url(#clip)" opacity="1" r="6" fill="rgb(31, 119, 180)"></circle><circle class="horse start-circle" cy="190.36144578313252" cx="0" clip-path="url(#clip)" opacity="1" r="6" fill="rgb(174, 199, 232)"></circle><circle class="horse start-circle" cy="442.1686746987952" cx="0" clip-path="url(#clip)" opacity="1" r="6" fill="rgb(255, 127, 14)"></circle><circle class="horse start-circle" cy="398.7951807228916" cx="0" clip-path="url(#clip)" opacity="1" r="6" fill="rgb(255, 187, 120)"></circle><circle class="horse start-circle" cy="396.3855421686747" cx="0" clip-path="url(#clip)" opacity="1" r="6" fill="rgb(44, 160, 44)"></circle><circle class="horse start-circle" cy="443.3734939759036" cx="0" clip-path="url(#clip)" opacity="1" r="6" fill="rgb(152, 223, 138)"></circle></g><g class="g-labels"><g class="horse labels-group" transform="translate(850,36.14457831325302) scale(1)" fill="#1f77b4"><g class="end-circle-container"><circle class="circle bg" r="20" fill="#FFFFFF"></circle><circle class="end circle" r="20" fill="#1f77b4" opacity="1"></circle><image clip-path="url(#circleClip)" preserveAspectRatio="xMidYMid slice" href="https://tempfiles201706.flourish.studio/merkel_head.1504542633939.1512670033165.jpeg" style="display: inherit;" opacity="1" height="38" width="38" x="-19" y="-19"></image><text class="rank-number" alignment-baseline="central" fill="white" dominant-baseline="central" text-anchor="middle" font-size="14"></text></g><rect class="name-background" fill="#FFFFFF" width="89.8125" height="12" x="20" y="-6"></rect><text class="name" alignment-baseline="central" dominant-baseline="central" font-size="12" x="24" y="0" opacity="1"><tspan class="name-rank" font-weight="bold" font-size="14">38.5 </tspan><tspan class="name-label">CDU/CSU</tspan></text></g><g class="horse labels-group" transform="translate(850,210.8433734939759) scale(1)" fill="#aec7e8"><g class="end-circle-container"><circle class="circle bg" r="20" fill="#FFFFFF"></circle><circle class="end circle" r="20" fill="#aec7e8" opacity="1"></circle><image clip-path="url(#circleClip)" preserveAspectRatio="xMidYMid slice" href="https://tempfiles201706.flourish.studio/schulz_head.1504542885354.1512670019712.jpeg" style="display: inherit;" opacity="1" height="38" width="38" x="-19" y="-19"></image><text class="rank-number" alignment-baseline="central" fill="white" dominant-baseline="central" text-anchor="middle" font-size="14"></text></g><rect class="name-background" fill="#FFFFFF" width="59.8203125" height="12" x="20" y="-6"></rect><text class="name" alignment-baseline="central" dominant-baseline="central" font-size="12" x="24" y="0" opacity="1"><tspan class="name-rank" font-weight="bold" font-size="14">24 </tspan><tspan class="name-label">SPD</tspan></text></g><g class="horse labels-group" transform="translate(850,379.51807228915663) scale(1)" fill="#ff7f0e"><g class="end-circle-container"><circle class="circle bg" r="20" fill="#FFFFFF"></circle><circle class="end circle" r="20" fill="#ff7f0e" opacity="1"></circle><image clip-path="url(#circleClip)" preserveAspectRatio="xMidYMid slice" href="https://tempfiles201706.flourish.studio/lindner_head.1504543030698.1512670005617.jpeg" style="display: inherit;" opacity="1" height="38" width="38" x="-19" y="-19"></image><text class="rank-number" alignment-baseline="central" fill="white" dominant-baseline="central" text-anchor="middle" font-size="14"></text></g><rect class="name-background" fill="#FFFFFF" width="51.3515625" height="12" x="20" y="-6"></rect><text class="name" alignment-baseline="central" dominant-baseline="central" font-size="12" x="24" y="0" opacity="1"><tspan class="name-rank" font-weight="bold" font-size="14">10 </tspan><tspan class="name-label">FDP</tspan></text></g><g class="horse labels-group" transform="translate(850,409.6385542168675) scale(1)" fill="#ffbb78"><g class="end-circle-container"><circle class="circle bg" r="20" fill="#FFFFFF"></circle><circle class="end circle" r="20" fill="#ffbb78" opacity="1"></circle><image clip-path="url(#circleClip)" preserveAspectRatio="xMidYMid slice" href="https://tempfiles201706.flourish.studio/cem_head.1504543224789.1512669981318.jpeg" style="display: inherit;" opacity="1" height="38" width="38" x="-19" y="-19"></image><text class="rank-number" alignment-baseline="central" fill="white" dominant-baseline="central" text-anchor="middle" font-size="14"></text></g><rect class="name-background" fill="#FFFFFF" width="60.703125" height="12" x="20" y="-6"></rect><text class="name" alignment-baseline="central" dominant-baseline="central" font-size="12" x="24" y="0" opacity="1"><tspan class="name-rank" font-weight="bold" font-size="14">7.5 </tspan><tspan class="name-label">Grüne</tspan></text></g><g class="horse labels-group" transform="translate(850,403.6144578313253) scale(1)" fill="#2ca02c" data-shift="-5"><g class="end-circle-container" transform="translate(-5,0)"><circle class="circle bg" r="20" fill="#FFFFFF"></circle><circle class="end circle" r="20" fill="#2ca02c" opacity="1"></circle><image clip-path="url(#circleClip)" preserveAspectRatio="xMidYMid slice" href="https://tempfiles201706.flourish.studio/kipping_head.1504543376751.1512669989551.jpeg" style="display: inherit;" opacity="1" height="38" width="38" x="-19" y="-19"></image><text class="rank-number" alignment-baseline="central" fill="white" dominant-baseline="central" text-anchor="middle" font-size="14"></text></g><rect class="name-background" fill="#FFFFFF" width="56.0390625" height="12" x="22.5" y="-13.2"></rect><text class="name" alignment-baseline="central" dominant-baseline="central" font-size="12" x="26.5" y="-7.199999999999999" opacity="1"><tspan class="name-rank" font-weight="bold" font-size="14">8 </tspan><tspan class="name-label">Linke</tspan></text></g><g class="horse labels-group" transform="translate(850,403.6144578313253) scale(1)" fill="#98df8a" data-shift="5"><g class="end-circle-container" transform="translate(5,0)"><circle class="circle bg" r="20" fill="#FFFFFF"></circle><circle class="end circle" r="20" fill="#98df8a" opacity="1"></circle><image clip-path="url(#circleClip)" preserveAspectRatio="xMidYMid slice" href="https://tempfiles201706.flourish.studio/meuthen_head.1504543615466.1512669998309.jpeg" style="display: inherit;" opacity="1" height="38" width="38" x="-19" y="-19"></image><text class="rank-number" alignment-baseline="central" fill="white" dominant-baseline="central" text-anchor="middle" font-size="14"></text></g><rect class="name-background" fill="#FFFFFF" width="47.359375" height="12" x="22.5" y="1.1999999999999993"></rect><text class="name" alignment-baseline="central" dominant-baseline="central" font-size="12" x="26.5" y="7.199999999999999" opacity="1"><tspan class="name-rank" font-weight="bold" font-size="14">8 </tspan><tspan class="name-label">AfD</tspan></text></g></g></g></svg>