<svg height="460" width="510" xmlns="http://www.w3.org/2000/svg" xmlns:xlink="http://www.w3.org/1999/xlink"><g height="340" width="390" transform="translate(60,30)"><g height="300" width="300" transform="translate(50,50)"><rect height="300" width="300" fill="none" stroke="rgb(0, 0, 0)" stroke-width="1"/><g class="row" transform="translate(0,0)"><g width="30" height="30" class="cell" transform="translate(0,0)"><rect width="30" fill="rgb(19, 94, 165)" height="30" stroke-width="0.5" stroke="rgb(198, 198, 198)"/><text x="15" y="17" fill="white" text-anchor="middle" font-size="11.5px">0.79</text></g><g width="30" height="30" class="cell" transform="translate(30,0)"><rect width="30" fill="rgb(239, 246, 253)" height="30" stroke-width="0.5" stroke="rgb(198, 198, 198)"/><text x="15" y="17" fill="black" text-anchor="middle" font-size="11.5px">0.04</text></g><g width="30" height="30" class="cell" transform="translate(60,0)"><rect width="30" fill="rgb(247, 251, 255)" height="30" stroke-width="0.5" stroke="rgb(198, 198, 198)"/><text x="15" y="17" fill="black" text-anchor="middle" font-size="11.5px">0</text></g><g width="30" height="30" class="cell" transform="translate(90,0)"><rect width="30" fill="rgb(247, 251, 255)" height="30" stroke-width="0.5" stroke="rgb(198, 198, 198)"/><text x="15" y="17" fill="black" text-anchor="middle" font-size="11.5px">0</text></g><g width="30" height="30" class="cell" transform="translate(120,0)"><rect width="30" fill="rgb(247, 251, 255)" height="30" stroke-width="0.5" stroke="rgb(198, 198, 198)"/><text x="15" y="17" fill="black" text-anchor="middle" font-size="11.5px">0</text></g><g width="30" height="30" class="cell" transform="translate(150,0)"><rect width="30" fill="rgb(247, 251, 255)" height="30" stroke-width="0.5" stroke="rgb(198, 198, 198)"/><text x="15" y="17" fill="black" text-anchor="middle" font-size="11.5px">0</text></g><g width="30" height="30" class="cell" transform="translate(180,0)"><rect width="30" fill="rgb(247, 251, 255)" height="30" stroke-width="0.5" stroke="rgb(198, 198, 198)"/><text x="15" y="17" fill="black" text-anchor="middle" font-size="11.5px">0</text></g><g width="30" height="30" class="cell" transform="translate(210,0)"><rect width="30" fill="rgb(247, 251, 255)" height="30" stroke-width="0.5" stroke="rgb(198, 198, 198)"/><text x="15" y="17" fill="black" text-anchor="middle" font-size="11.5px">0</text></g><g width="30" height="30" class="cell" transform="translate(240,0)"><rect width="30" fill="rgb(247, 251, 255)" height="30" stroke-width="0.5" stroke="rgb(198, 198, 198)"/><text x="15" y="17" fill="black" text-anchor="middle" font-size="11.5px">0</text></g><g width="30" height="30" class="cell" transform="translate(270,0)"><rect width="30" fill="rgb(247, 251, 255)" height="30" stroke-width="0.5" stroke="rgb(198, 198, 198)"/><text x="15" y="17" fill="black" text-anchor="middle" font-size="11.5px">0</text></g></g><g class="row" transform="translate(0,30)"><g width="30" height="30" class="cell" transform="translate(0,0)"><rect width="30" fill="rgb(203, 223, 240)" height="30" stroke-width="0.5" stroke="rgb(198, 198, 198)"/><text x="15" y="17" fill="black" text-anchor="middle" font-size="11.5px">0.21</text></g><g width="30" height="30" class="cell" transform="translate(30,0)"><rect width="30" fill="rgb(29, 107, 175)" height="30" stroke-width="0.5" stroke="rgb(198, 198, 198)"/><text x="15" y="17" fill="white" text-anchor="middle" font-size="11.5px">0.74</text></g><g width="30" height="30" class="cell" transform="translate(60,0)"><rect width="30" fill="rgb(234, 243, 251)" height="30" stroke-width="0.5" stroke="rgb(198, 198, 198)"/><text x="15" y="17" fill="black" text-anchor="middle" font-size="11.5px">0.06</text></g><g width="30" height="30" class="cell" transform="translate(90,0)"><rect width="30" fill="rgb(247, 251, 255)" height="30" stroke-width="0.5" stroke="rgb(198, 198, 198)"/><text x="15" y="17" fill="black" text-anchor="middle" font-size="11.5px">0</text></g><g width="30" height="30" class="cell" transform="translate(120,0)"><rect width="30" fill="rgb(247, 251, 255)" height="30" stroke-width="0.5" stroke="rgb(198, 198, 198)"/><text x="15" y="17" fill="black" text-anchor="middle" font-size="11.5px">0</text></g><g width="30" height="30" class="cell" transform="translate(150,0)"><rect width="30" fill="rgb(247, 251, 255)" height="30" stroke-width="0.5" stroke="rgb(198, 198, 198)"/><text x="15" y="17" fill="black" text-anchor="middle" font-size="11.5px">0</text></g><g width="30" height="30" class="cell" transform="translate(180,0)"><rect width="30" fill="rgb(247, 251, 255)" height="30" stroke-width="0.5" stroke="rgb(198, 198, 198)"/><text x="15" y="17" fill="black" text-anchor="middle" font-size="11.5px">0</text></g><g width="30" height="30" class="cell" transform="translate(210,0)"><rect width="30" fill="rgb(247, 251, 255)" height="30" stroke-width="0.5" stroke="rgb(198, 198, 198)"/><text x="15" y="17" fill="black" text-anchor="middle" font-size="11.5px">0</text></g><g width="30" height="30" class="cell" transform="translate(240,0)"><rect width="30" fill="rgb(247, 251, 255)" height="30" stroke-width="0.5" stroke="rgb(198, 198, 198)"/><text x="15" y="17" fill="black" text-anchor="middle" font-size="11.5px">0</text></g><g width="30" height="30" class="cell" transform="translate(270,0)"><rect width="30" fill="rgb(247, 251, 255)" height="30" stroke-width="0.5" stroke="rgb(198, 198, 198)"/><text x="15" y="17" fill="black" text-anchor="middle" font-size="11.5px">0</text></g></g><g class="row" transform="translate(0,60)"><g width="30" height="30" class="cell" transform="translate(0,0)"><rect width="30" fill="rgb(247, 251, 255)" height="30" stroke-width="0.5" stroke="rgb(198, 198, 198)"/><text x="15" y="17" fill="black" text-anchor="middle" font-size="11.5px">0</text></g><g width="30" height="30" class="cell" transform="translate(30,0)"><rect width="30" fill="rgb(200, 221, 239)" height="30" stroke-width="0.5" stroke="rgb(198, 198, 198)"/><text x="15" y="17" fill="black" text-anchor="middle" font-size="11.5px">0.22</text></g><g width="30" height="30" class="cell" transform="translate(60,0)"><rect width="30" fill="rgb(15, 87, 159)" height="30" stroke-width="0.5" stroke="rgb(198, 198, 198)"/><text x="15" y="17" fill="white" text-anchor="middle" font-size="11.5px">0.81</text></g><g width="30" height="30" class="cell" transform="translate(90,0)"><rect width="30" fill="rgb(166, 205, 228)" height="30" stroke-width="0.5" stroke="rgb(198, 198, 198)"/><text x="15" y="17" fill="black" text-anchor="middle" font-size="11.5px">0.33</text></g><g width="30" height="30" class="cell" transform="translate(120,0)"><rect width="30" fill="rgb(247, 251, 255)" height="30" stroke-width="0.5" stroke="rgb(198, 198, 198)"/><text x="15" y="17" fill="black" text-anchor="middle" font-size="11.5px">0</text></g><g width="30" height="30" class="cell" transform="translate(150,0)"><rect width="30" fill="rgb(247, 251, 255)" height="30" stroke-width="0.5" stroke="rgb(198, 198, 198)"/><text x="15" y="17" fill="black" text-anchor="middle" font-size="11.5px">0</text></g><g width="30" height="30" class="cell" transform="translate(180,0)"><rect width="30" fill="rgb(247, 251, 255)" height="30" stroke-width="0.5" stroke="rgb(198, 198, 198)"/><text x="15" y="17" fill="black" text-anchor="middle" font-size="11.5px">0</text></g><g width="30" height="30" class="cell" transform="translate(210,0)"><rect width="30" fill="rgb(247, 251, 255)" height="30" stroke-width="0.5" stroke="rgb(198, 198, 198)"/><text x="15" y="17" fill="black" text-anchor="middle" font-size="11.5px">0</text></g><g width="30" height="30" class="cell" transform="translate(240,0)"><rect width="30" fill="rgb(247, 251, 255)" height="30" stroke-width="0.5" stroke="rgb(198, 198, 198)"/><text x="15" y="17" fill="black" text-anchor="middle" font-size="11.5px">0</text></g><g width="30" height="30" class="cell" transform="translate(270,0)"><rect width="30" fill="rgb(247, 251, 255)" height="30" stroke-width="0.5" stroke="rgb(198, 198, 198)"/><text x="15" y="17" fill="black" text-anchor="middle" font-size="11.5px">0</text></g></g><g class="row" transform="translate(0,90)"><g width="30" height="30" class="cell" transform="translate(0,0)"><rect width="30" fill="rgb(247, 251, 255)" height="30" stroke-width="0.5" stroke="rgb(198, 198, 198)"/><text x="15" y="17" fill="black" text-anchor="middle" font-size="11.5px">0</text></g><g width="30" height="30" class="cell" transform="translate(30,0)"><rect width="30" fill="rgb(247, 251, 255)" height="30" stroke-width="0.5" stroke="rgb(198, 198, 198)"/><text x="15" y="17" fill="black" text-anchor="middle" font-size="11.5px">0</text></g><g width="30" height="30" class="cell" transform="translate(60,0)"><rect width="30" fill="rgb(221, 234, 247)" height="30" stroke-width="0.5" stroke="rgb(198, 198, 198)"/><text x="15" y="17" fill="black" text-anchor="middle" font-size="11.5px">0.13</text></g><g width="30" height="30" class="cell" transform="translate(90,0)"><rect width="30" fill="rgb(100, 169, 211)" height="30" stroke-width="0.5" stroke="rgb(198, 198, 198)"/><text x="15" y="17" fill="white" text-anchor="middle" font-size="11.5px">0.5</text></g><g width="30" height="30" class="cell" transform="translate(120,0)"><rect width="30" fill="rgb(223, 235, 247)" height="30" stroke-width="0.5" stroke="rgb(198, 198, 198)"/><text x="15" y="17" fill="black" text-anchor="middle" font-size="11.5px">0.12</text></g><g width="30" height="30" class="cell" transform="translate(150,0)"><rect width="30" fill="rgb(247, 251, 255)" height="30" stroke-width="0.5" stroke="rgb(198, 198, 198)"/><text x="15" y="17" fill="black" text-anchor="middle" font-size="11.5px">0</text></g><g width="30" height="30" class="cell" transform="translate(180,0)"><rect width="30" fill="rgb(247, 251, 255)" height="30" stroke-width="0.5" stroke="rgb(198, 198, 198)"/><text x="15" y="17" fill="black" text-anchor="middle" font-size="11.5px">0</text></g><g width="30" height="30" class="cell" transform="translate(210,0)"><rect width="30" fill="rgb(247, 251, 255)" height="30" stroke-width="0.5" stroke="rgb(198, 198, 198)"/><text x="15" y="17" fill="black" text-anchor="middle" font-size="11.5px">0</text></g><g width="30" height="30" class="cell" transform="translate(240,0)"><rect width="30" fill="rgb(247, 251, 255)" height="30" stroke-width="0.5" stroke="rgb(198, 198, 198)"/><text x="15" y="17" fill="black" text-anchor="middle" font-size="11.5px">0</text></g><g width="30" height="30" class="cell" transform="translate(270,0)"><rect width="30" fill="rgb(247, 251, 255)" height="30" stroke-width="0.5" stroke="rgb(198, 198, 198)"/><text x="15" y="17" fill="black" text-anchor="middle" font-size="11.5px">0</text></g></g><g class="row" transform="translate(0,120)"><g width="30" height="30" class="cell" transform="translate(0,0)"><rect width="30" fill="rgb(247, 251, 255)" height="30" stroke-width="0.5" stroke="rgb(198, 198, 198)"/><text x="15" y="17" fill="black" text-anchor="middle" font-size="11.5px">0</text></g><g width="30" height="30" class="cell" transform="translate(30,0)"><rect width="30" fill="rgb(247, 251, 255)" height="30" stroke-width="0.5" stroke="rgb(198, 198, 198)"/><text x="15" y="17" fill="black" text-anchor="middle" font-size="11.5px">0</text></g><g width="30" height="30" class="cell" transform="translate(60,0)"><rect width="30" fill="rgb(247, 251, 255)" height="30" stroke-width="0.5" stroke="rgb(198, 198, 198)"/><text x="15" y="17" fill="black" text-anchor="middle" font-size="11.5px">0</text></g><g width="30" height="30" class="cell" transform="translate(90,0)"><rect width="30" fill="rgb(212, 229, 244)" height="30" stroke-width="0.5" stroke="rgb(198, 198, 198)"/><text x="15" y="17" fill="black" text-anchor="middle" font-size="11.5px">0.17</text></g><g width="30" height="30" class="cell" transform="translate(120,0)"><rect width="30" fill="rgb(24, 100, 171)" height="30" stroke-width="0.5" stroke="rgb(198, 198, 198)"/><text x="15" y="17" fill="white" text-anchor="middle" font-size="11.5px">0.76</text></g><g width="30" height="30" class="cell" transform="translate(150,0)"><rect width="30" fill="rgb(232, 241, 250)" height="30" stroke-width="0.5" stroke="rgb(198, 198, 198)"/><text x="15" y="17" fill="black" text-anchor="middle" font-size="11.5px">0.07</text></g><g width="30" height="30" class="cell" transform="translate(180,0)"><rect width="30" fill="rgb(247, 251, 255)" height="30" stroke-width="0.5" stroke="rgb(198, 198, 198)"/><text x="15" y="17" fill="black" text-anchor="middle" font-size="11.5px">0</text></g><g width="30" height="30" class="cell" transform="translate(210,0)"><rect width="30" fill="rgb(247, 251, 255)" height="30" stroke-width="0.5" stroke="rgb(198, 198, 198)"/><text x="15" y="17" fill="black" text-anchor="middle" font-size="11.5px">0</text></g><g width="30" height="30" class="cell" transform="translate(240,0)"><rect width="30" fill="rgb(247, 251, 255)" height="30" stroke-width="0.5" stroke="rgb(198, 198, 198)"/><text x="15" y="17" fill="black" text-anchor="middle" font-size="11.5px">0</text></g><g width="30" height="30" class="cell" transform="translate(270,0)"><rect width="30" fill="rgb(247, 251, 255)" height="30" stroke-width="0.5" stroke="rgb(198, 198, 198)"/><text x="15" y="17" fill="black" text-anchor="middle" font-size="11.5px">0</text></g></g><g class="row" transform="translate(0,150)"><g width="30" height="30" class="cell" transform="translate(0,0)"><rect width="30" fill="rgb(247, 251, 255)" height="30" stroke-width="0.5" stroke="rgb(198, 198, 198)"/><text x="15" y="17" fill="black" text-anchor="middle" font-size="11.5px">0</text></g><g width="30" height="30" class="cell" transform="translate(30,0)"><rect width="30" fill="rgb(247, 251, 255)" height="30" stroke-width="0.5" stroke="rgb(198, 198, 198)"/><text x="15" y="17" fill="black" text-anchor="middle" font-size="11.5px">0</text></g><g width="30" height="30" class="cell" transform="translate(60,0)"><rect width="30" fill="rgb(247, 251, 255)" height="30" stroke-width="0.5" stroke="rgb(198, 198, 198)"/><text x="15" y="17" fill="black" text-anchor="middle" font-size="11.5px">0</text></g><g width="30" height="30" class="cell" transform="translate(90,0)"><rect width="30" fill="rgb(247, 251, 255)" height="30" stroke-width="0.5" stroke="rgb(198, 198, 198)"/><text x="15" y="17" fill="black" text-anchor="middle" font-size="11.5px">0</text></g><g width="30" height="30" class="cell" transform="translate(120,0)"><rect width="30" fill="rgb(223, 235, 247)" height="30" stroke-width="0.5" stroke="rgb(198, 198, 198)"/><text x="15" y="17" fill="black" text-anchor="middle" font-size="11.5px">0.12</text></g><g width="30" height="30" class="cell" transform="translate(150,0)"><rect width="30" fill="rgb(35, 114, 180)" height="30" stroke-width="0.5" stroke="rgb(198, 198, 198)"/><text x="15" y="17" fill="white" text-anchor="middle" font-size="11.5px">0.71</text></g><g width="30" height="30" class="cell" transform="translate(180,0)"><rect width="30" fill="rgb(228, 239, 249)" height="30" stroke-width="0.5" stroke="rgb(198, 198, 198)"/><text x="15" y="17" fill="black" text-anchor="middle" font-size="11.5px">0.09</text></g><g width="30" height="30" class="cell" transform="translate(210,0)"><rect width="30" fill="rgb(247, 251, 255)" height="30" stroke-width="0.5" stroke="rgb(198, 198, 198)"/><text x="15" y="17" fill="black" text-anchor="middle" font-size="11.5px">0</text></g><g width="30" height="30" class="cell" transform="translate(240,0)"><rect width="30" fill="rgb(247, 251, 255)" height="30" stroke-width="0.5" stroke="rgb(198, 198, 198)"/><text x="15" y="17" fill="black" text-anchor="middle" font-size="11.5px">0</text></g><g width="30" height="30" class="cell" transform="translate(270,0)"><rect width="30" fill="rgb(247, 251, 255)" height="30" stroke-width="0.5" stroke="rgb(198, 198, 198)"/><text x="15" y="17" fill="black" text-anchor="middle" font-size="11.5px">0</text></g></g><g class="row" transform="translate(0,180)"><g width="30" height="30" class="cell" transform="translate(0,0)"><rect width="30" fill="rgb(247, 251, 255)" height="30" stroke-width="0.5" stroke="rgb(198, 198, 198)"/><text x="15" y="17" fill="black" text-anchor="middle" font-size="11.5px">0</text></g><g width="30" height="30" class="cell" transform="translate(30,0)"><rect width="30" fill="rgb(247, 251, 255)" height="30" stroke-width="0.5" stroke="rgb(198, 198, 198)"/><text x="15" y="17" fill="black" text-anchor="middle" font-size="11.5px">0</text></g><g width="30" height="30" class="cell" transform="translate(60,0)"><rect width="30" fill="rgb(247, 251, 255)" height="30" stroke-width="0.5" stroke="rgb(198, 198, 198)"/><text x="15" y="17" fill="black" text-anchor="middle" font-size="11.5px">0</text></g><g width="30" height="30" class="cell" transform="translate(90,0)"><rect width="30" fill="rgb(247, 251, 255)" height="30" stroke-width="0.5" stroke="rgb(198, 198, 198)"/><text x="15" y="17" fill="black" text-anchor="middle" font-size="11.5px">0</text></g><g width="30" height="30" class="cell" transform="translate(120,0)"><rect width="30" fill="rgb(247, 251, 255)" height="30" stroke-width="0.5" stroke="rgb(198, 198, 198)"/><text x="15" y="17" fill="black" text-anchor="middle" font-size="11.5px">0</text></g><g width="30" height="30" class="cell" transform="translate(150,0)"><rect width="30" fill="rgb(202, 222, 240)" height="30" stroke-width="0.5" stroke="rgb(198, 198, 198)"/><text x="15" y="17" fill="black" text-anchor="middle" font-size="11.5px">0.21</text></g><g width="30" height="30" class="cell" transform="translate(180,0)"><rect width="30" fill="rgb(32, 110, 178)" height="30" stroke-width="0.5" stroke="rgb(198, 198, 198)"/><text x="15" y="17" fill="white" text-anchor="middle" font-size="11.5px">0.73</text></g><g width="30" height="30" class="cell" transform="translate(210,0)"><rect width="30" fill="rgb(238, 245, 252)" height="30" stroke-width="0.5" stroke="rgb(198, 198, 198)"/><text x="15" y="17" fill="black" text-anchor="middle" font-size="11.5px">0.04</text></g><g width="30" height="30" class="cell" transform="translate(240,0)"><rect width="30" fill="rgb(247, 251, 255)" height="30" stroke-width="0.5" stroke="rgb(198, 198, 198)"/><text x="15" y="17" fill="black" text-anchor="middle" font-size="11.5px">0</text></g><g width="30" height="30" class="cell" transform="translate(270,0)"><rect width="30" fill="rgb(247, 251, 255)" height="30" stroke-width="0.5" stroke="rgb(198, 198, 198)"/><text x="15" y="17" fill="black" text-anchor="middle" font-size="11.5px">0</text></g></g><g class="row" transform="translate(0,210)"><g width="30" height="30" class="cell" transform="translate(0,0)"><rect width="30" fill="rgb(247, 251, 255)" height="30" stroke-width="0.5" stroke="rgb(198, 198, 198)"/><text x="15" y="17" fill="black" text-anchor="middle" font-size="11.5px">0</text></g><g width="30" height="30" class="cell" transform="translate(30,0)"><rect width="30" fill="rgb(247, 251, 255)" height="30" stroke-width="0.5" stroke="rgb(198, 198, 198)"/><text x="15" y="17" fill="black" text-anchor="middle" font-size="11.5px">0</text></g><g width="30" height="30" class="cell" transform="translate(60,0)"><rect width="30" fill="rgb(247, 251, 255)" height="30" stroke-width="0.5" stroke="rgb(198, 198, 198)"/><text x="15" y="17" fill="black" text-anchor="middle" font-size="11.5px">0</text></g><g width="30" height="30" class="cell" transform="translate(90,0)"><rect width="30" fill="rgb(247, 251, 255)" height="30" stroke-width="0.5" stroke="rgb(198, 198, 198)"/><text x="15" y="17" fill="black" text-anchor="middle" font-size="11.5px">0</text></g><g width="30" height="30" class="cell" transform="translate(120,0)"><rect width="30" fill="rgb(247, 251, 255)" height="30" stroke-width="0.5" stroke="rgb(198, 198, 198)"/><text x="15" y="17" fill="black" text-anchor="middle" font-size="11.5px">0</text></g><g width="30" height="30" class="cell" transform="translate(150,0)"><rect width="30" fill="rgb(247, 251, 255)" height="30" stroke-width="0.5" stroke="rgb(198, 198, 198)"/><text x="15" y="17" fill="black" text-anchor="middle" font-size="11.5px">0</text></g><g width="30" height="30" class="cell" transform="translate(180,0)"><rect width="30" fill="rgb(209, 227, 243)" height="30" stroke-width="0.5" stroke="rgb(198, 198, 198)"/><text x="15" y="17" fill="black" text-anchor="middle" font-size="11.5px">0.18</text></g><g width="30" height="30" class="cell" transform="translate(210,0)"><rect width="30" fill="rgb(8, 48, 107)" height="30" stroke-width="0.5" stroke="rgb(198, 198, 198)"/><text x="15" y="17" fill="white" text-anchor="middle" font-size="11.5px">0.96</text></g><g width="30" height="30" class="cell" transform="translate(240,0)"><rect width="30" fill="rgb(235, 243, 251)" height="30" stroke-width="0.5" stroke="rgb(198, 198, 198)"/><text x="15" y="17" fill="black" text-anchor="middle" font-size="11.5px">0.06</text></g><g width="30" height="30" class="cell" transform="translate(270,0)"><rect width="30" fill="rgb(247, 251, 255)" height="30" stroke-width="0.5" stroke="rgb(198, 198, 198)"/><text x="15" y="17" fill="black" text-anchor="middle" font-size="11.5px">0</text></g></g><g class="row" transform="translate(0,240)"><g width="30" height="30" class="cell" transform="translate(0,0)"><rect width="30" fill="rgb(247, 251, 255)" height="30" stroke-width="0.5" stroke="rgb(198, 198, 198)"/><text x="15" y="17" fill="black" text-anchor="middle" font-size="11.5px">0</text></g><g width="30" height="30" class="cell" transform="translate(30,0)"><rect width="30" fill="rgb(247, 251, 255)" height="30" stroke-width="0.5" stroke="rgb(198, 198, 198)"/><text x="15" y="17" fill="black" text-anchor="middle" font-size="11.5px">0</text></g><g width="30" height="30" class="cell" transform="translate(60,0)"><rect width="30" fill="rgb(247, 251, 255)" height="30" stroke-width="0.5" stroke="rgb(198, 198, 198)"/><text x="15" y="17" fill="black" text-anchor="middle" font-size="11.5px">0</text></g><g width="30" height="30" class="cell" transform="translate(90,0)"><rect width="30" fill="rgb(247, 251, 255)" height="30" stroke-width="0.5" stroke="rgb(198, 198, 198)"/><text x="15" y="17" fill="black" text-anchor="middle" font-size="11.5px">0</text></g><g width="30" height="30" class="cell" transform="translate(120,0)"><rect width="30" fill="rgb(247, 251, 255)" height="30" stroke-width="0.5" stroke="rgb(198, 198, 198)"/><text x="15" y="17" fill="black" text-anchor="middle" font-size="11.5px">0</text></g><g width="30" height="30" class="cell" transform="translate(150,0)"><rect width="30" fill="rgb(247, 251, 255)" height="30" stroke-width="0.5" stroke="rgb(198, 198, 198)"/><text x="15" y="17" fill="black" text-anchor="middle" font-size="11.5px">0</text></g><g width="30" height="30" class="cell" transform="translate(180,0)"><rect width="30" fill="rgb(247, 251, 255)" height="30" stroke-width="0.5" stroke="rgb(198, 198, 198)"/><text x="15" y="17" fill="black" text-anchor="middle" font-size="11.5px">0</text></g><g width="30" height="30" class="cell" transform="translate(210,0)"><rect width="30" fill="rgb(247, 251, 255)" height="30" stroke-width="0.5" stroke="rgb(198, 198, 198)"/><text x="15" y="17" fill="black" text-anchor="middle" font-size="11.5px">0</text></g><g width="30" height="30" class="cell" transform="translate(240,0)"><rect width="30" fill="rgb(8, 52, 113)" height="30" stroke-width="0.5" stroke="rgb(198, 198, 198)"/><text x="15" y="17" fill="white" text-anchor="middle" font-size="11.5px">0.94</text></g><g width="30" height="30" class="cell" transform="translate(270,0)"><rect width="30" fill="rgb(214, 230, 244)" height="30" stroke-width="0.5" stroke="rgb(198, 198, 198)"/><text x="15" y="17" fill="black" text-anchor="middle" font-size="11.5px">0.16</text></g></g><g class="row" transform="translate(0,270)"><g width="30" height="30" class="cell" transform="translate(0,0)"><rect width="30" fill="rgb(247, 251, 255)" height="30" stroke-width="0.5" stroke="rgb(198, 198, 198)"/><text x="15" y="17" fill="black" text-anchor="middle" font-size="11.5px">0</text></g><g width="30" height="30" class="cell" transform="translate(30,0)"><rect width="30" fill="rgb(247, 251, 255)" height="30" stroke-width="0.5" stroke="rgb(198, 198, 198)"/><text x="15" y="17" fill="black" text-anchor="middle" font-size="11.5px">0</text></g><g width="30" height="30" class="cell" transform="translate(60,0)"><rect width="30" fill="rgb(247, 251, 255)" height="30" stroke-width="0.5" stroke="rgb(198, 198, 198)"/><text x="15" y="17" fill="black" text-anchor="middle" font-size="11.5px">0</text></g><g width="30" height="30" class="cell" transform="translate(90,0)"><rect width="30" fill="rgb(247, 251, 255)" height="30" stroke-width="0.5" stroke="rgb(198, 198, 198)"/><text x="15" y="17" fill="black" text-anchor="middle" font-size="11.5px">0</text></g><g width="30" height="30" class="cell" transform="translate(120,0)"><rect width="30" fill="rgb(247, 251, 255)" height="30" stroke-width="0.5" stroke="rgb(198, 198, 198)"/><text x="15" y="17" fill="black" text-anchor="middle" font-size="11.5px">0</text></g><g width="30" height="30" class="cell" transform="translate(150,0)"><rect width="30" fill="rgb(247, 251, 255)" height="30" stroke-width="0.5" stroke="rgb(198, 198, 198)"/><text x="15" y="17" fill="black" text-anchor="middle" font-size="11.5px">0</text></g><g width="30" height="30" class="cell" transform="translate(180,0)"><rect width="30" fill="rgb(247, 251, 255)" height="30" stroke-width="0.5" stroke="rgb(198, 198, 198)"/><text x="15" y="17" fill="black" text-anchor="middle" font-size="11.5px">0</text></g><g width="30" height="30" class="cell" transform="translate(210,0)"><rect width="30" fill="rgb(247, 251, 255)" height="30" stroke-width="0.5" stroke="rgb(198, 198, 198)"/><text x="15" y="17" fill="black" text-anchor="middle" font-size="11.5px">0</text></g><g width="30" height="30" class="cell" transform="translate(240,0)"><rect width="30" fill="rgb(247, 251, 255)" height="30" stroke-width="0.5" stroke="rgb(198, 198, 198)"/><text x="15" y="17" fill="black" text-anchor="middle" font-size="11.5px">0</text></g><g width="30" height="30" class="cell" transform="translate(270,0)"><rect width="30" fill="rgb(12, 79, 150)" height="30" stroke-width="0.5" stroke="rgb(198, 198, 198)"/><text x="15" y="17" fill="white" text-anchor="middle" font-size="11.5px">0.84</text></g></g><g class="leftaxis" transform="translate(0,0)" fill="none" font-size="11.5px" font-family="sans-serif" text-anchor="end"><path class="domain" stroke="currentColor" d="M0.5,0.5V300.5"/><g class="tick" opacity="1" transform="translate(0,15)"><line stroke="currentColor" x2="-6"/><text fill="currentColor" x="-9" dy="0.32em" transform="rotate(0)" style="text-anchor: end;">Class 0</text></g><g class="tick" opacity="1" transform="translate(0,45)"><line stroke="currentColor" x2="-6"/><text fill="currentColor" x="-9" dy="0.32em" transform="rotate(0)" style="text-anchor: end;">Class 1</text></g><g class="tick" opacity="1" transform="translate(0,75)"><line stroke="currentColor" x2="-6"/><text fill="currentColor" x="-9" dy="0.32em" transform="rotate(0)" style="text-anchor: end;">Class 2</text></g><g class="tick" opacity="1" transform="translate(0,105)"><line stroke="currentColor" x2="-6"/><text fill="currentColor" x="-9" dy="0.32em" transform="rotate(0)" style="text-anchor: end;">Class 3</text></g><g class="tick" opacity="1" transform="translate(0,135)"><line stroke="currentColor" x2="-6"/><text fill="currentColor" x="-9" dy="0.32em" transform="rotate(0)" style="text-anchor: end;">Class 4</text></g><g class="tick" opacity="1" transform="translate(0,165)"><line stroke="currentColor" x2="-6"/><text fill="currentColor" x="-9" dy="0.32em" transform="rotate(0)" style="text-anchor: end;">Class 5</text></g><g class="tick" opacity="1" transform="translate(0,195)"><line stroke="currentColor" x2="-6"/><text fill="currentColor" x="-9" dy="0.32em" transform="rotate(0)" style="text-anchor: end;">Class 6</text></g><g class="tick" opacity="1" transform="translate(0,225)"><line stroke="currentColor" x2="-6"/><text fill="currentColor" x="-9" dy="0.32em" transform="rotate(0)" style="text-anchor: end;">Class 7</text></g><g class="tick" opacity="1" transform="translate(0,255)"><line stroke="currentColor" x2="-6"/><text fill="currentColor" x="-9" dy="0.32em" transform="rotate(0)" style="text-anchor: end;">Class 8</text></g><g class="tick" opacity="1" transform="translate(0,285)"><line stroke="currentColor" x2="-6"/><text fill="currentColor" x="-9" dy="0.32em" transform="rotate(0)" style="text-anchor: end;">Class 9</text></g></g><g class="bottomaxis" transform="translate(0,300)" fill="none" font-size="11.5px" font-family="sans-serif" text-anchor="middle"><path class="domain" stroke="currentColor" d="M0.5,0.5H300.5"/><g class="tick" opacity="1" transform="translate(15,0)"><line stroke="currentColor" y2="6"/><text fill="currentColor" y="9" dy="0.71em" transform="rotate(-30)" style="text-anchor: end;">Class 0</text></g><g class="tick" opacity="1" transform="translate(45,0)"><line stroke="currentColor" y2="6"/><text fill="currentColor" y="9" dy="0.71em" transform="rotate(-30)" style="text-anchor: end;">Class 1</text></g><g class="tick" opacity="1" transform="translate(75,0)"><line stroke="currentColor" y2="6"/><text fill="currentColor" y="9" dy="0.71em" transform="rotate(-30)" style="text-anchor: end;">Class 2</text></g><g class="tick" opacity="1" transform="translate(105,0)"><line stroke="currentColor" y2="6"/><text fill="currentColor" y="9" dy="0.71em" transform="rotate(-30)" style="text-anchor: end;">Class 3</text></g><g class="tick" opacity="1" transform="translate(135,0)"><line stroke="currentColor" y2="6"/><text fill="currentColor" y="9" dy="0.71em" transform="rotate(-30)" style="text-anchor: end;">Class 4</text></g><g class="tick" opacity="1" transform="translate(165,0)"><line stroke="currentColor" y2="6"/><text fill="currentColor" y="9" dy="0.71em" transform="rotate(-30)" style="text-anchor: end;">Class 5</text></g><g class="tick" opacity="1" transform="translate(195,0)"><line stroke="currentColor" y2="6"/><text fill="currentColor" y="9" dy="0.71em" transform="rotate(-30)" style="text-anchor: end;">Class 6</text></g><g class="tick" opacity="1" transform="translate(225,0)"><line stroke="currentColor" y2="6"/><text fill="currentColor" y="9" dy="0.71em" transform="rotate(-30)" style="text-anchor: end;">Class 7</text></g><g class="tick" opacity="1" transform="translate(255,0)"><line stroke="currentColor" y2="6"/><text fill="currentColor" y="9" dy="0.71em" transform="rotate(-30)" style="text-anchor: end;">Class 8</text></g><g class="tick" opacity="1" transform="translate(285,0)"><line stroke="currentColor" y2="6"/><text fill="currentColor" y="9" dy="0.71em" transform="rotate(-30)" style="text-anchor: end;">Class 9</text></g></g></g><g height="300" width="50" transform="translate(0,50)"><text text-anchor="middle" fill="black" id="label_euxpb" font-size="20px" transform="translate(0,150),rotate(-90)">Prediction</text></g><g height="50" width="300" transform="translate(50,350)"><text text-anchor="middle" fill="black" id="label_9djgd" font-size="20px" transform="translate(150,50),rotate(0)">Ground Truth</text></g><g height="50" width="300" transform="translate(50,0)"><text text-anchor="middle" fill="black" id="label_906lc" font-size="24px" transform="translate(150,42),rotate(0)">Confusion Matrix</text></g><g height="300" width="30" transform="translate(358,50)"><svg height="300" width="30"><linearGradient id="gradient" x1="100%" y1="0%" x2="100%" y2="100%"><stop offset="0%" stop-color="rgb(8, 48, 107)"/><stop offset="12.5%" stop-color="rgb(12, 81, 152)"/><stop offset="25%" stop-color="rgb(34, 113, 180)"/><stop offset="37.5%" stop-color="rgb(67, 145, 198)"/><stop offset="50%" stop-color="rgb(109, 174, 213)"/><stop offset="62.5%" stop-color="rgb(156, 200, 226)"/><stop offset="75%" stop-color="rgb(195, 219, 238)"/><stop offset="87.5%" stop-color="rgb(222, 235, 247)"/><stop offset="100%" stop-color="rgb(247, 251, 255)"/></linearGradient></svg><rect width="30" height="300" stroke="rgb(0, 0, 0)" fill="url(#gradient)"/><g class="rightaxis" transform="translate(30,0)" fill="none" font-size="11.5px" font-family="sans-serif" text-anchor="start"><path class="domain" stroke="currentColor" d="M0.5,300.5V0.5"/><g class="tick" opacity="1" transform="translate(0,300.5)"><line stroke="currentColor" x2="6"/><text fill="currentColor" x="9" dy="0.32em" transform="rotate(0)" style="text-anchor: start;">0.0</text></g><g class="tick" opacity="1" transform="translate(0,269.1363639762579)"><line stroke="currentColor" x2="6"/><text fill="currentColor" x="9" dy="0.32em" transform="rotate(0)" style="text-anchor: start;">0.1</text></g><g class="tick" opacity="1" transform="translate(0,237.77272795251577)"><line stroke="currentColor" x2="6"/><text fill="currentColor" x="9" dy="0.32em" transform="rotate(0)" style="text-anchor: start;">0.2</text></g><g class="tick" opacity="1" transform="translate(0,206.4090919287737)"><line stroke="currentColor" x2="6"/><text fill="currentColor" x="9" dy="0.32em" transform="rotate(0)" style="text-anchor: start;">0.3</text></g><g class="tick" opacity="1" transform="translate(0,175.04545590503153)"><line stroke="currentColor" x2="6"/><text fill="currentColor" x="9" dy="0.32em" transform="rotate(0)" style="text-anchor: start;">0.4</text></g><g class="tick" opacity="1" transform="translate(0,143.68181988128944)"><line stroke="currentColor" x2="6"/><text fill="currentColor" x="9" dy="0.32em" transform="rotate(0)" style="text-anchor: start;">0.5</text></g><g class="tick" opacity="1" transform="translate(0,112.31818385754735)"><line stroke="currentColor" x2="6"/><text fill="currentColor" x="9" dy="0.32em" transform="rotate(0)" style="text-anchor: start;">0.6</text></g><g class="tick" opacity="1" transform="translate(0,80.95454783380525)"><line stroke="currentColor" x2="6"/><text fill="currentColor" x="9" dy="0.32em" transform="rotate(0)" style="text-anchor: start;">0.7</text></g><g class="tick" opacity="1" transform="translate(0,49.590911810063076)"><line stroke="currentColor" x2="6"/><text fill="currentColor" x="9" dy="0.32em" transform="rotate(0)" style="text-anchor: start;">0.8</text></g><g class="tick" opacity="1" transform="translate(0,18.227275786320973)"><line stroke="currentColor" x2="6"/><text fill="currentColor" x="9" dy="0.32em" transform="rotate(0)" style="text-anchor: start;">0.9</text></g></g></g></g></svg>