<svg width="928" height="500" viewBox="-464,-250,928,500" style="max-width: 100%; height: auto; height: intrinsic;"><g stroke="white" stroke-width="0" stroke-linejoin="round"><path fill="#f7f7f7" d="M0,-250A250,250,0,0,1,146.946,202.254L0,0Z"><title>GHG Emissions
40%</title></path><path fill="#cccccc" d="M146.946,202.254A250,250,0,0,1,-146.946,202.254L0,0Z"><title>Renewable Energy
20%</title></path><path fill="#969696" d="M-146.946,202.254A250,250,0,0,1,-237.764,-77.254L0,0Z"><title>Energy Use
20%</title></path><path fill="#525252" d="M-237.764,-77.254A250,250,0,0,1,0,-250L0,0Z"><title>Climate Policy
20%</title></path></g><g font-family="sans-serif" font-size="10" text-anchor="middle"><text transform="translate(142.65847744427302,-46.35254915624211)"><tspan x="0" y="0em" font-weight="bold" fill="black" font-size="16pt">GHG Emissions</tspan><tspan x="0" y="1.1em" fill="black" font-size="16pt">40%</tspan></text><text transform="translate(9.184850993605149e-15,150)"><tspan x="0" y="0em" font-weight="bold" fill="black" font-size="16pt">Renewable Energy</tspan><tspan x="0" y="1.1em" fill="black" font-size="16pt">20%</tspan></text><text transform="translate(-142.65847744427302,46.35254915624213)"><tspan x="0" y="0em" font-weight="bold" fill="black" font-size="16pt">Energy Use</tspan><tspan x="0" y="1.1em" fill="black" font-size="16pt">20%</tspan></text><text transform="translate(-88.16778784387098,-121.3525491562421)"><tspan x="0" y="0em" font-weight="bold" fill="black" font-size="16pt">Climate Policy</tspan><tspan x="0" y="1.1em" fill="black" font-size="16pt">20%</tspan></text></g></svg>