<?xml version="1.0" standalone="no"?><!DOCTYPE svg PUBLIC "-//W3C//DTD SVG 1.1//EN" "http://www.w3.org/Graphics/SVG/1.1/DTD/svg11.dtd"><svg xmlns:xlink="http://www.w3.org/1999/xlink" version="1.1" class="highcharts-root" style="font-family: &quot;Lucida Grande&quot;, &quot;Lucida Sans Unicode&quot;, Arial, Helvetica, sans-serif; font-size: 12px;" xmlns="http://www.w3.org/2000/svg" width="600" height="400" viewBox="0 0 600 400" aria-label="Interactive chart" aria-hidden="false"><desc aria-hidden="true">Created with Highcharts 10.3.3</desc><defs aria-hidden="true"><clipPath id="highcharts-ol1fbte-125-"><rect x="0" y="0" width="467" height="324" fill="none"></rect></clipPath><clipPath id="highcharts-ol1fbte-142-"><rect x="0" y="0" width="865.194616798629" height="137.7" fill="none"></rect></clipPath><clipPath id="highcharts-ol1fbte-143"><circle cx="233.5" cy="162" r="137.7"></circle></clipPath><clipPath id="highcharts-ol1fbte-160"><circle cx="233.5" cy="162" r="137.7"></circle></clipPath><clipPath id="highcharts-ol1fbte-177"><circle cx="233.5" cy="162" r="137.7"></circle></clipPath><clipPath id="highcharts-ol1fbte-194"><circle cx="233.5" cy="162" r="137.7"></circle></clipPath><clipPath id="highcharts-ol1fbte-211"><circle cx="233.5" cy="162" r="137.7"></circle></clipPath><clipPath id="highcharts-ol1fbte-228"><circle cx="233.5" cy="162" r="137.7"></circle></clipPath><clipPath id="highcharts-ol1fbte-245"><circle cx="233.5" cy="162" r="137.7"></circle></clipPath></defs><rect fill="#ffffff" class="highcharts-background" x="0" y="0" width="600" height="400" rx="0" ry="0" aria-hidden="true"></rect><rect fill="none" class="highcharts-plot-background" x="10" y="61" width="467" height="324" aria-hidden="true"></rect><g class="highcharts-pane-group" data-z-index="0" aria-hidden="true"></g><g class="highcharts-grid highcharts-xaxis-grid highcharts-radial-axis-grid" data-z-index="1" aria-hidden="true"><path fill="none" stroke="#e6e6e6" stroke-width="1" stroke-dasharray="none" data-z-index="1" class="highcharts-grid-line" d="M 243.5 223 L 243.5 85.30000000000001" opacity="1"></path><path fill="none" stroke="#e6e6e6" stroke-width="1" stroke-dasharray="none" data-z-index="1" class="highcharts-grid-line" d="M 243.5 223 L 296.19550863667286 95.78178837319582" opacity="1"></path><path fill="none" stroke="#e6e6e6" stroke-width="1" stroke-dasharray="none" data-z-index="1" class="highcharts-grid-line" d="M 243.5 223 L 340.8686037693876 125.63139623061242" opacity="1"></path><path fill="none" stroke="#e6e6e6" stroke-width="1" stroke-dasharray="none" data-z-index="1" class="highcharts-grid-line" d="M 243.5 223 L 370.7182116268042 170.30449136332714" opacity="1"></path><path fill="none" stroke="#e6e6e6" stroke-width="1" stroke-dasharray="none" data-z-index="1" class="highcharts-grid-line" d="M 243.5 223 L 381.2 223" opacity="1"></path><path fill="none" stroke="#e6e6e6" stroke-width="1" stroke-dasharray="none" data-z-index="1" class="highcharts-grid-line" d="M 243.5 223 L 370.7182116268042 275.69550863667286" opacity="1"></path><path fill="none" stroke="#e6e6e6" stroke-width="1" stroke-dasharray="none" data-z-index="1" class="highcharts-grid-line" d="M 243.5 223 L 340.8686037693876 320.36860376938756" opacity="1"></path><path fill="none" stroke="#e6e6e6" stroke-width="1" stroke-dasharray="none" data-z-index="1" class="highcharts-grid-line" d="M 243.5 223 L 296.19550863667286 350.2182116268042" opacity="1"></path><path fill="none" stroke="#e6e6e6" stroke-width="1" stroke-dasharray="none" data-z-index="1" class="highcharts-grid-line" d="M 243.5 223 L 243.5 360.7" opacity="1"></path><path fill="none" stroke="#e6e6e6" stroke-width="1" stroke-dasharray="none" data-z-index="1" class="highcharts-grid-line" d="M 243.5 223 L 190.80449136332714 350.2182116268042" opacity="1"></path><path fill="none" stroke="#e6e6e6" stroke-width="1" stroke-dasharray="none" data-z-index="1" class="highcharts-grid-line" d="M 243.5 223 L 146.13139623061244 320.3686037693876" opacity="1"></path><path fill="none" stroke="#e6e6e6" stroke-width="1" stroke-dasharray="none" data-z-index="1" class="highcharts-grid-line" d="M 243.5 223 L 116.28178837319585 275.6955086366729" opacity="1"></path><path fill="none" stroke="#e6e6e6" stroke-width="1" stroke-dasharray="none" data-z-index="1" class="highcharts-grid-line" d="M 243.5 223 L 105.80000000000001 223.00000000000003" opacity="1"></path><path fill="none" stroke="#e6e6e6" stroke-width="1" stroke-dasharray="none" data-z-index="1" class="highcharts-grid-line" d="M 243.5 223 L 116.28178837319584 170.3044913633271" opacity="1"></path><path fill="none" stroke="#e6e6e6" stroke-width="1" stroke-dasharray="none" data-z-index="1" class="highcharts-grid-line" d="M 243.5 223 L 146.13139623061238 125.63139623061242" opacity="1"></path><path fill="none" stroke="#e6e6e6" stroke-width="1" stroke-dasharray="none" data-z-index="1" class="highcharts-grid-line" d="M 243.5 223 L 190.80449136332706 95.78178837319585" opacity="1"></path><path fill="none" stroke="#e6e6e6" stroke-width="1" stroke-dasharray="none" data-z-index="1" class="highcharts-grid-line" d="M 243.5 223 L 243.49999999999997 85.30000000000001" opacity="1"></path></g><g class="highcharts-grid highcharts-yaxis-grid highcharts-radial-axis-grid" data-z-index="1" aria-hidden="true"><path fill="none" stroke="#e6e6e6" stroke-width="1" stroke-dasharray="none" data-z-index="1" class="highcharts-grid-line" d="M 243.5 223 A 0 0 0 1 1 243.5 223 M 243.5 223 A 0 0 0 1 0 243.5 223" opacity="1"></path><path fill="none" stroke="#e6e6e6" stroke-width="1" stroke-dasharray="none" data-z-index="1" class="highcharts-grid-line" d="M 243.5 165.6823176823177 A 57.31768231768231 57.31768231768231 0 1 1 243.44268232723525 165.68234634115646 M 243.5 223 A 0 0 0 1 0 243.5 223" opacity="1"></path><path fill="none" stroke="#e6e6e6" stroke-width="1" stroke-dasharray="none" data-z-index="1" class="highcharts-grid-line" d="M 243.5 108.36463536463538 A 114.63536463536462 114.63536463536462 0 1 1 243.38536465447046 108.36469268231292 M 243.5 223 A 0 0 0 1 0 243.5 223" opacity="1"></path></g><rect fill="none" class="highcharts-plot-border" data-z-index="1" stroke="#cccccc" stroke-width="0" x="10" y="61" width="467" height="324" aria-hidden="true"></rect><g class="highcharts-axis highcharts-xaxis highcharts-radial-axis" data-z-index="2" aria-hidden="true"><path fill="none" class="highcharts-axis-line" stroke="#ccd6eb" stroke-width="1" data-z-index="7" d="M 243.5 85.30000000000001 A 137.7 137.7 0 1 1 243.36230002294994 85.30006884999426 M 243.5 223 A 0 0 0 1 0 243.5 223"></path></g><g class="highcharts-axis highcharts-yaxis highcharts-radial-axis" data-z-index="2" aria-hidden="true"><text x="247.5" data-z-index="7" text-anchor="middle" transform="translate(0,0) rotate(90 247.5 154.15)" class="highcharts-axis-title" style="color: rgb(102, 102, 102); fill: rgb(102, 102, 102);" y="154.15">Frequency (%)</text><path fill="none" class="highcharts-axis-line" stroke="#ccd6eb" stroke-width="0" data-z-index="7" d="M 243.5 223 L 243.5 85.30000000000001"></path></g><g class="highcharts-series-group" data-z-index="3" aria-hidden="false"><g class="highcharts-series highcharts-series-0 highcharts-column-series highcharts-color-0 highcharts-dense-data" data-z-index="0.1" opacity="1" transform="translate(10,61) scale(1 1)" clip-path="url(#highcharts-ol1fbte-143)" aria-hidden="false" role="region" tabindex="-1" aria-label="&amp;lt; 0.5 m/s, bar series 1 of 7 with 16 bars." style="outline: none;"><path fill="#7cb5ec" d="M 230.75414112860207 141.50645363428984 A 20.749000999000998 20.749000999000998 0 0 1 237.22536370551853 141.50321802273174 L 234 162 A 0 0 0 0 0 234 162 Z" stroke="#ffffff" stroke-width="0" opacity="1" class="highcharts-point highcharts-color-0" tabindex="-1" role="img" aria-label="N, 1.81%. &amp;lt; 0.5 m/s." style="outline: none;"></path><path fill="#7cb5ec" d="M 235.6591878532995 155.08898521611462 A 7.1073926073925975 7.1073926073925975 0 0 1 237.7075405320434 155.93624102731036 L 234 162 A 0 0 0 0 0 234 162 Z" stroke="#ffffff" stroke-width="0" opacity="1" class="highcharts-point highcharts-color-0" tabindex="-1" role="img" aria-label="NNE, 0.62%. &amp;lt; 0.5 m/s." style="outline: none;"></path><path fill="#7cb5ec" d="M 239.52524009135468 154.39515943199694 A 9.400099900099889 9.400099900099889 0 0 1 241.5993115264126 156.46715783196464 L 234 162 A 0 0 0 0 0 234 162 Z" stroke="#ffffff" stroke-width="0" opacity="1" class="highcharts-point highcharts-color-0" tabindex="-1" role="img" aria-label="NE, 0.82%. &amp;lt; 0.5 m/s." style="outline: none;"></path><path fill="#7cb5ec" d="M 239.76682025246592 158.4660880042278 A 6.763486513486498 6.763486513486498 0 0 1 240.5750286501176 160.41451960963042 L 234 162 A 0 0 0 0 0 234 162 Z" stroke="#ffffff" stroke-width="0" opacity="1" class="highcharts-point highcharts-color-0" tabindex="-1" role="img" aria-label="ENE, 0.59%. &amp;lt; 0.5 m/s." style="outline: none;"></path><path fill="#7cb5ec" d="M 241.01988881035373 160.88815883963167 A 7.1073926073925975 7.1073926073925975 0 0 1 241.0209971413847 163.10482071680747 L 234 162 A 0 0 0 0 0 234 162 Z" stroke="#ffffff" stroke-width="0" opacity="1" class="highcharts-point highcharts-color-0" tabindex="-1" role="img" aria-label="E, 0.62%. &amp;lt; 0.5 m/s." style="outline: none;"></path><path fill="#7cb5ec" d="M 247.59909360700033 165.26485351778268 A 13.985514485514486 13.985514485514486 0 0 1 245.93191281722815 169.2954829824078 L 234 162 A 0 0 0 0 0 234 162 Z" stroke="#ffffff" stroke-width="0" opacity="1" class="highcharts-point highcharts-color-0" tabindex="-1" role="img" aria-label="ESE, 1.22%. &amp;lt; 0.5 m/s." style="outline: none;"></path><path fill="#7cb5ec" d="M 248.9314552615675 172.84833725253716 A 18.456293706293707 18.456293706293707 0 0 1 244.8632632811433 176.920599460395 L 234 162 A 0 0 0 0 0 234 162 Z" stroke="#ffffff" stroke-width="0" opacity="1" class="highcharts-point highcharts-color-0" tabindex="-1" role="img" aria-label="SE, 1.61%. &amp;lt; 0.5 m/s." style="outline: none;"></path><path fill="#7cb5ec" d="M 246.21894995148355 181.93951409327207 A 23.38561438561439 23.38561438561439 0 0 1 239.4819999938202 184.7339973665084 L 234 162 A 0 0 0 0 0 234 162 Z" stroke="#ffffff" stroke-width="0" opacity="1" class="highcharts-point highcharts-color-0" tabindex="-1" role="img" aria-label="SSE, 2.04%. &amp;lt; 0.5 m/s." style="outline: none;"></path><path fill="#7cb5ec" d="M 238.77015723641887 192.11758747667903 A 30.493006993006986 30.493006993006986 0 0 1 229.25996273111622 192.1223425743279 L 234 162 A 0 0 0 0 0 234 162 Z" stroke="#ffffff" stroke-width="0" opacity="1" class="highcharts-point highcharts-color-0" tabindex="-1" role="img" aria-label="S, 2.66%. &amp;lt; 0.5 m/s." style="outline: none;"></path><path fill="#7cb5ec" d="M 226.07871605521566 194.99452219403358 A 33.93206793206792 33.93206793206792 0 0 1 216.2994839115351 190.9495589663896 L 234 162 A 0 0 0 0 0 234 162 Z" stroke="#ffffff" stroke-width="0" opacity="1" class="highcharts-point highcharts-color-0" tabindex="-1" role="img" aria-label="SSW, 2.96%. &amp;lt; 0.5 m/s." style="outline: none;"></path><path fill="#7cb5ec" d="M 216.9526128888701 185.46371541103454 A 29.00274725274724 29.00274725274724 0 0 1 210.55334370509348 179.0708422989394 L 234 162 A 0 0 0 0 0 234 162 Z" stroke="#ffffff" stroke-width="0" opacity="1" class="highcharts-point highcharts-color-0" tabindex="-1" role="img" aria-label="SW, 2.53%. &amp;lt; 0.5 m/s." style="outline: none;"></path><path fill="#7cb5ec" d="M 214.74468491973235 173.79967225706983 A 22.58316683316683 22.58316683316683 0 0 1 212.04609077842082 167.29389215089495 L 234 162 A 0 0 0 0 0 234 162 Z" stroke="#ffffff" stroke-width="0" opacity="1" class="highcharts-point highcharts-color-0" tabindex="-1" role="img" aria-label="WSW, 1.97%. &amp;lt; 0.5 m/s." style="outline: none;"></path><path fill="#7cb5ec" d="M 215.4312618564836 164.9409991983935 A 18.800199800199792 18.800199800199792 0 0 1 215.42833014214372 159.0775710071543 L 234 162 A 0 0 0 0 0 234 162 Z" stroke="#ffffff" stroke-width="0" opacity="1" class="highcharts-point highcharts-color-0" tabindex="-1" role="img" aria-label="W, 1.64%. &amp;lt; 0.5 m/s." style="outline: none;"></path><path fill="#7cb5ec" d="M 219.2862265891472 158.46753553813667 A 15.131868131868131 15.131868131868131 0 0 1 221.0900615420155 154.10652660919803 L 234 162 A 0 0 0 0 0 234 162 Z" stroke="#ffffff" stroke-width="0" opacity="1" class="highcharts-point highcharts-color-0" tabindex="-1" role="img" aria-label="WNW, 1.32%. &amp;lt; 0.5 m/s." style="outline: none;"></path><path fill="#7cb5ec" d="M 219.34677061287175 151.35380567763426 A 18.112387612387607 18.112387612387607 0 0 1 223.3391577737849 147.35742413203465 L 234 162 A 0 0 0 0 0 234 162 Z" stroke="#ffffff" stroke-width="0" opacity="1" class="highcharts-point highcharts-color-0" tabindex="-1" role="img" aria-label="NW, 1.58%. &amp;lt; 0.5 m/s." style="outline: none;"></path><path fill="#7cb5ec" d="M 224.95558116336278 147.24084986233288 A 17.30994005994006 17.30994005994006 0 0 1 229.94224510261358 145.1723843022413 L 234 162 A 0 0 0 0 0 234 162 Z" stroke="#ffffff" stroke-width="0" opacity="1" class="highcharts-point highcharts-color-0" tabindex="-1" role="img" aria-label="NNW, 1.51%. &amp;lt; 0.5 m/s." style="outline: none;"></path></g><g class="highcharts-markers highcharts-series-0 highcharts-column-series highcharts-color-0" data-z-index="0.1" opacity="1" transform="translate(10,61) scale(1 1)" clip-path="none" aria-hidden="true"></g><g class="highcharts-series highcharts-series-1 highcharts-column-series highcharts-color-1 highcharts-dense-data" data-z-index="0.1" opacity="1" transform="translate(10,61) scale(1 1)" clip-path="url(#highcharts-ol1fbte-160)" aria-hidden="false" role="region" tabindex="-1" aria-label="0.5-2 m/s, bar series 2 of 7 with 16 bars." style="outline: none;"><path fill="#434348" d="M 227.5620810230284 121.35257930779036 A 41.1540959040959 41.1540959040959 0 0 1 240.39726834409475 121.34616171359504 L 237.22536370551853 141.50321802273174 A 20.749000999000998 20.749000999000998 0 0 0 230.75414112860207 141.50645363428984 Z" stroke="#ffffff" stroke-width="0" opacity="1" class="highcharts-point highcharts-color-1" tabindex="-1" role="img" aria-label="N, 1.78%. 0.5-2 m/s." style="outline: none;"></path><path fill="#434348" d="M 238.5761471437777 142.93897535412256 A 19.602647352647352 19.602647352647352 0 0 1 244.22563598353906 145.2757615430656 L 237.7075405320434 155.93624102731036 A 7.1073926073925975 7.1073926073925975 0 0 0 235.6591878532995 155.08898521611462 Z" stroke="#ffffff" stroke-width="0" opacity="1" class="highcharts-point highcharts-color-1" tabindex="-1" role="img" aria-label="NNE, 1.09%. 0.5-2 m/s." style="outline: none;"></path><path fill="#434348" d="M 245.05048018270935 146.7903188639939 A 18.800199800199792 18.800199800199792 0 0 1 249.19862305282524 150.93431566392925 L 241.5993115264126 156.46715783196464 A 9.400099900099889 9.400099900099889 0 0 0 239.52524009135468 154.39515943199694 Z" stroke="#ffffff" stroke-width="0" opacity="1" class="highcharts-point highcharts-color-1" tabindex="-1" role="img" aria-label="NE, 0.82%. 0.5-2 m/s." style="outline: none;"></path><path fill="#434348" d="M 251.69143162197173 151.15867675873267 A 20.749000999000998 20.749000999000998 0 0 1 254.1708506045981 157.13606863293396 L 240.5750286501176 160.41451960963042 A 6.763486513486498 6.763486513486498 0 0 0 239.76682025246592 158.4660880042278 Z" stroke="#ffffff" stroke-width="0" opacity="1" class="highcharts-point highcharts-color-1" tabindex="-1" role="img" aria-label="ENE, 1.22%. 0.5-2 m/s." style="outline: none;"></path><path fill="#434348" d="M 265.9291716858026 156.94291601251825 A 32.32717282717283 32.32717282717283 0 0 1 265.9342128043627 167.02515229257594 L 241.0209971413847 163.10482071680747 A 7.1073926073925975 7.1073926073925975 0 0 0 241.01988881035373 160.88815883963167 Z" stroke="#ffffff" stroke-width="0" opacity="1" class="highcharts-point highcharts-color-1" tabindex="-1" role="img" aria-label="E, 2.2%. 0.5-2 m/s." style="outline: none;"></path><path fill="#434348" d="M 270.0041576644353 170.64383349380168 A 37.02722277722276 37.02722277722276 0 0 1 265.59022819643195 181.31509019112883 L 245.93191281722815 169.2954829824078 A 13.985514485514486 13.985514485514486 0 0 0 247.59909360700033 165.26485351778268 Z" stroke="#ffffff" stroke-width="0" opacity="1" class="highcharts-point highcharts-color-1" tabindex="-1" role="img" aria-label="ESE, 2.01%. 0.5-2 m/s." style="outline: none;"></path><path fill="#434348" d="M 277.3104944543603 193.46691613003014 A 53.534715284715276 53.534715284715276 0 0 1 265.5102108838132 205.27900588822652 L 244.8632632811433 176.920599460395 A 18.456293706293707 18.456293706293707 0 0 0 248.9314552615675 172.84833725253716 Z" stroke="#ffffff" stroke-width="0" opacity="1" class="highcharts-point highcharts-color-1" tabindex="-1" role="img" aria-label="SE, 3.06%. 0.5-2 m/s." style="outline: none;"></path><path fill="#434348" d="M 266.70366016426476 215.36752301434578 A 62.59090909090908 62.59090909090908 0 0 1 248.67241174816587 222.8468753044783 L 239.4819999938202 184.7339973665084 A 23.38561438561439 23.38561438561439 0 0 0 246.21894995148355 181.93951409327207 Z" stroke="#ffffff" stroke-width="0" opacity="1" class="highcharts-point highcharts-color-1" tabindex="-1" role="img" aria-label="SSE, 3.42%. 0.5-2 m/s." style="outline: none;"></path><path fill="#434348" d="M 247.27036223665397 245.78576967196426 A 84.83016983016982 84.83016983016982 0 0 1 220.8134301542331 245.79899813910765 L 229.25996273111622 192.1223425743279 A 30.493006993006986 30.493006993006986 0 0 0 238.77015723641887 192.11758747667903 Z" stroke="#ffffff" stroke-width="0" opacity="1" class="highcharts-point highcharts-color-1" tabindex="-1" role="img" aria-label="S, 4.74%. 0.5-2 m/s." style="outline: none;"></path><path fill="#434348" d="M 214.99962297028085 241.14226607352649 A 81.39110889110887 81.39110889110887 0 0 1 191.54268100401998 231.43982049370473 L 216.2994839115351 190.9495589663896 A 33.93206793206792 33.93206793206792 0 0 0 226.07871605521566 194.99452219403358 Z" stroke="#ffffff" stroke-width="0" opacity="1" class="highcharts-point highcharts-color-1" tabindex="-1" role="img" aria-label="SSW, 4.14%. 0.5-2 m/s." style="outline: none;"></path><path fill="#434348" d="M 189.93284122261284 222.65324062773357 A 74.97152847152846 74.97152847152846 0 0 1 173.39085685032072 206.1277899743335 L 210.55334370509348 179.0708422989394 A 29.00274725274724 29.00274725274724 0 0 0 216.9526128888701 185.46371541103454 Z" stroke="#ffffff" stroke-width="0" opacity="1" class="highcharts-point highcharts-color-1" tabindex="-1" role="img" aria-label="SW, 4.01%. 0.5-2 m/s." style="outline: none;"></path><path fill="#434348" d="M 188.74512242556384 189.7322246447885 A 53.07617382617383 53.07617382617383 0 0 1 182.40274127111087 174.4419901820526 L 212.04609077842082 167.29389215089495 A 22.58316683316683 22.58316683316683 0 0 0 214.74468491973235 173.79967225706983 Z" stroke="#ffffff" stroke-width="0" opacity="1" class="highcharts-point highcharts-color-1" tabindex="-1" role="img" aria-label="WSW, 2.66%. 0.5-2 m/s." style="outline: none;"></path><path fill="#434348" d="M 196.06995562147563 168.00752885037699 A 38.402847152847144 38.402847152847144 0 0 1 196.06396705864725 156.03040419144324 L 215.42833014214372 159.0775710071543 A 18.800199800199792 18.800199800199792 0 0 0 215.4312618564836 164.9409991983935 Z" stroke="#ffffff" stroke-width="0" opacity="1" class="highcharts-point highcharts-color-1" tabindex="-1" role="img" aria-label="W, 1.71%. 0.5-2 m/s." style="outline: none;"></path><path fill="#434348" d="M 192.53391129668756 152.04487288020334 A 42.64435564435564 42.64435564435564 0 0 1 197.6174461638618 139.7547568077399 L 221.0900615420155 154.10652660919803 A 15.131868131868131 15.131868131868131 0 0 0 219.2862265891472 158.46753553813667 Z" stroke="#ffffff" stroke-width="0" opacity="1" class="highcharts-point highcharts-color-1" tabindex="-1" role="img" aria-label="WNW, 2.4%. 0.5-2 m/s." style="outline: none;"></path><path fill="#434348" d="M 179.6532125262205 122.51474763983333 A 67.17632367632368 67.17632367632368 0 0 1 194.4604206040377 107.6927249453943 L 223.3391577737849 147.35742413203465 A 18.112387612387607 18.112387612387607 0 0 0 219.34677061287175 151.35380567763426 Z" stroke="#ffffff" stroke-width="0" opacity="1" class="highcharts-point highcharts-color-1" tabindex="-1" role="img" aria-label="NW, 4.28%. 0.5-2 m/s." style="outline: none;"></path><path fill="#434348" d="M 195.00717441953088 98.36949179058747 A 74.62762237762236 74.62762237762236 0 0 1 216.50597060795653 89.45180252158349 L 229.94224510261358 145.1723843022413 A 17.30994005994006 17.30994005994006 0 0 0 224.95558116336278 147.24084986233288 Z" stroke="#ffffff" stroke-width="0" opacity="1" class="highcharts-point highcharts-color-1" tabindex="-1" role="img" aria-label="NNW, 5%. 0.5-2 m/s." style="outline: none;"></path></g><g class="highcharts-markers highcharts-series-1 highcharts-column-series highcharts-color-1" data-z-index="0.1" opacity="1" transform="translate(10,61) scale(1 1)" clip-path="none" aria-hidden="true"></g><g class="highcharts-series highcharts-series-2 highcharts-column-series highcharts-color-2 highcharts-dense-data" data-z-index="0.1" opacity="1" transform="translate(10,61) scale(1 1)" clip-path="url(#highcharts-ol1fbte-177)" aria-hidden="false" role="region" tabindex="-1" aria-label="2-4 m/s, bar series 3 of 7 with 16 bars." style="outline: none;"><path fill="#90ed7d" d="M 227.2751542719656 119.5409950986668 A 42.98826173826174 42.98826173826174 0 0 1 240.682383367787 119.53429148356027 L 240.39726834409475 121.34616171359504 A 41.1540959040959 41.1540959040959 0 0 0 227.5620810230284 121.35257930779036 Z" stroke="#ffffff" stroke-width="0" opacity="1" class="highcharts-point highcharts-color-2" tabindex="-1" role="img" aria-label="N, 0.16%. 2-4 m/s." style="outline: none;"></path><path fill="#90ed7d" d="M 238.5761471437777 142.93897535412256 A 19.602647352647352 19.602647352647352 0 0 1 244.22563598353906 145.2757615430656 L 244.22563598353906 145.2757615430656 A 19.602647352647352 19.602647352647352 0 0 0 238.5761471437777 142.93897535412256 Z" stroke="#ffffff" stroke-width="0" opacity="1" class="highcharts-point highcharts-color-2" tabindex="-1" role="img" aria-label="NNE, 0%. 2-4 m/s." style="outline: none;"></path><path fill="#90ed7d" d="M 245.52214701977624 146.14112515696925 A 19.602647352647352 19.602647352647352 0 0 1 249.84734476849462 150.46199986909696 L 249.19862305282524 150.93431566392925 A 18.800199800199792 18.800199800199792 0 0 0 245.05048018270935 146.7903188639939 Z" stroke="#ffffff" stroke-width="0" opacity="1" class="highcharts-point highcharts-color-2" tabindex="-1" role="img" aria-label="NE, 0.07%. 2-4 m/s." style="outline: none;"></path><path fill="#90ed7d" d="M 252.37563063497615 150.73939906431903 A 21.551448551448544 21.551448551448544 0 0 1 254.9509387495273 156.94796079000875 L 254.1708506045981 157.13606863293396 A 20.749000999000998 20.749000999000998 0 0 0 251.69143162197173 151.15867675873267 Z" stroke="#ffffff" stroke-width="0" opacity="1" class="highcharts-point highcharts-color-2" tabindex="-1" role="img" aria-label="ENE, 0.07%. 2-4 m/s." style="outline: none;"></path><path fill="#90ed7d" d="M 271.4771483262434 156.06420283738845 A 37.9443056943057 37.9443056943057 0 0 1 271.4830653838441 167.89831705263344 L 265.9342128043627 167.02515229257594 A 32.32717282717283 32.32717282717283 0 0 0 265.9291716858026 156.94291601251825 Z" stroke="#ffffff" stroke-width="0" opacity="1" class="highcharts-point highcharts-color-2" tabindex="-1" role="img" aria-label="E, 0.49%. 2-4 m/s." style="outline: none;"></path><path fill="#90ed7d" d="M 287.2816946241489 174.79180312705017 A 54.79570429570428 54.79570429570428 0 0 1 280.74962562815625 190.58394152123708 L 265.59022819643195 181.31509019112883 A 37.02722277722276 37.02722277722276 0 0 0 270.0041576644353 170.64383349380168 Z" stroke="#ffffff" stroke-width="0" opacity="1" class="highcharts-point highcharts-color-2" tabindex="-1" role="img" aria-label="ESE, 1.55%. 2-4 m/s." style="outline: none;"></path><path fill="#90ed7d" d="M 299.2903385350528 209.43620761357863 A 80.70329670329669 80.70329670329669 0 0 1 281.501474223136 227.24286969017447 L 265.5102108838132 205.27900588822652 A 53.534715284715276 53.534715284715276 0 0 0 277.3104944543603 193.46691613003014 Z" stroke="#ffffff" stroke-width="0" opacity="1" class="highcharts-point highcharts-color-2" tabindex="-1" role="img" aria-label="SE, 2.37%. 2-4 m/s." style="outline: none;"></path><path fill="#90ed7d" d="M 278.5033324213347 234.6228380946134 A 85.17407592407591 85.17407592407591 0 0 1 253.96630389906088 244.80078452605744 L 248.67241174816587 222.8468753044783 A 62.59090909090908 62.59090909090908 0 0 0 266.70366016426476 215.36752301434578 Z" stroke="#ffffff" stroke-width="0" opacity="1" class="highcharts-point highcharts-color-2" tabindex="-1" role="img" aria-label="SSE, 1.97%. 2-4 m/s." style="outline: none;"></path><path fill="#90ed7d" d="M 248.0414778801352 250.65440223398377 A 89.7594905094905 89.7594905094905 0 0 1 220.04718352806015 250.66839938232607 L 220.8134301542331 245.79899813910765 A 84.83016983016982 84.83016983016982 0 0 0 247.27036223665397 245.78576967196426 Z" stroke="#ffffff" stroke-width="0" opacity="1" class="highcharts-point highcharts-color-2" tabindex="-1" role="img" aria-label="S, 0.43%. 2-4 m/s." style="outline: none;"></path><path fill="#90ed7d" d="M 214.3038345156714 244.04043356354296 A 84.37162837162836 84.37162837162836 0 0 1 189.98790594219537 233.9826871596714 L 191.54268100401998 231.43982049370473 A 81.39110889110887 81.39110889110887 0 0 0 214.99962297028085 241.14226607352649 Z" stroke="#ffffff" stroke-width="0" opacity="1" class="highcharts-point highcharts-color-2" tabindex="-1" role="img" aria-label="SSW, 0.26%. 2-4 m/s." style="outline: none;"></path><path fill="#90ed7d" d="M 181.71236206230515 233.96775952159214 A 88.95704295704293 88.95704295704293 0 0 1 162.08456409151205 214.359579541411 L 173.39085685032072 206.1277899743335 A 74.97152847152846 74.97152847152846 0 0 0 189.93284122261284 222.65324062773357 Z" stroke="#ffffff" stroke-width="0" opacity="1" class="highcharts-point highcharts-color-2" tabindex="-1" role="img" aria-label="SW, 1.22%. 2-4 m/s." style="outline: none;"></path><path fill="#90ed7d" d="M 169.48980734529619 201.53189690185832 A 75.65934065934064 75.65934065934064 0 0 1 160.4488320495317 179.73588233294754 L 182.40274127111087 174.4419901820526 A 53.07617382617383 53.07617382617383 0 0 0 188.74512242556384 189.7322246447885 Z" stroke="#ffffff" stroke-width="0" opacity="1" class="highcharts-point highcharts-color-2" tabindex="-1" role="img" aria-label="WSW, 1.97%. 2-4 m/s." style="outline: none;"></path><path fill="#90ed7d" d="M 185.6533464190152 169.657357668988 A 48.94930069930069 48.94930069930069 0 0 1 185.64571323594737 154.3909928052127 L 196.06396705864725 156.03040419144324 A 38.402847152847144 38.402847152847144 0 0 0 196.06995562147563 168.00752885037699 Z" stroke="#ffffff" stroke-width="0" opacity="1" class="highcharts-point highcharts-color-2" tabindex="-1" role="img" aria-label="W, 0.92%. 2-4 m/s." style="outline: none;"></path><path fill="#90ed7d" d="M 181.49858123854796 149.39552453380585 A 53.99325674325674 53.99325674325674 0 0 1 187.93499232037342 133.83465176463844 L 197.6174461638618 139.7547568077399 A 42.64435564435564 42.64435564435564 0 0 0 192.53391129668756 152.04487288020334 Z" stroke="#ffffff" stroke-width="0" opacity="1" class="highcharts-point highcharts-color-2" tabindex="-1" role="img" aria-label="WNW, 0.99%. 2-4 m/s." style="outline: none;"></path><path fill="#90ed7d" d="M 167.78224188348366 113.8899826191826 A 81.84965034965035 81.84965034965035 0 0 1 185.82378892710398 95.83038500172616 L 194.4604206040377 107.6927249453943 A 67.17632367632368 67.17632367632368 0 0 0 179.6532125262205 122.51474763983333 Z" stroke="#ffffff" stroke-width="0" opacity="1" class="highcharts-point highcharts-color-2" tabindex="-1" role="img" aria-label="NW, 1.28%. 2-4 m/s." style="outline: none;"></path><path fill="#90ed7d" d="M 187.10079503915927 85.46745325964667 A 89.7594905094905 89.7594905094905 0 0 1 212.95879414136706 74.7415689314898 L 216.50597060795653 89.45180252158349 A 74.62762237762236 74.62762237762236 0 0 0 195.00717441953088 98.36949179058747 Z" stroke="#ffffff" stroke-width="0" opacity="1" class="highcharts-point highcharts-color-2" tabindex="-1" role="img" aria-label="NNW, 1.32%. 2-4 m/s." style="outline: none;"></path></g><g class="highcharts-markers highcharts-series-2 highcharts-column-series highcharts-color-2" data-z-index="0.1" opacity="1" transform="translate(10,61) scale(1 1)" clip-path="none" aria-hidden="true"></g><g class="highcharts-series highcharts-series-3 highcharts-column-series highcharts-color-3 highcharts-dense-data" data-z-index="0.1" opacity="1" transform="translate(10,61) scale(1 1)" clip-path="url(#highcharts-ol1fbte-194)" aria-hidden="false" role="region" tabindex="-1" aria-label="4-6 m/s, bar series 4 of 7 with 16 bars." style="outline: none;"><path fill="#f7a35c" d="M 227.2751542719656 119.5409950986668 A 42.98826173826174 42.98826173826174 0 0 1 240.682383367787 119.53429148356027 L 240.682383367787 119.53429148356027 A 42.98826173826174 42.98826173826174 0 0 0 227.2751542719656 119.5409950986668 Z" stroke="#ffffff" stroke-width="0" opacity="1" class="highcharts-point highcharts-color-3" tabindex="-1" role="img" aria-label="N, 0%. 4-6 m/s." style="outline: none;"></path><path fill="#f7a35c" d="M 238.5761471437777 142.93897535412256 A 19.602647352647352 19.602647352647352 0 0 1 244.22563598353906 145.2757615430656 L 244.22563598353906 145.2757615430656 A 19.602647352647352 19.602647352647352 0 0 0 238.5761471437777 142.93897535412256 Z" stroke="#ffffff" stroke-width="0" opacity="1" class="highcharts-point highcharts-color-3" tabindex="-1" role="img" aria-label="NNE, 0%. 4-6 m/s." style="outline: none;"></path><path fill="#f7a35c" d="M 245.52214701977624 146.14112515696925 A 19.602647352647352 19.602647352647352 0 0 1 249.84734476849462 150.46199986909696 L 249.84734476849462 150.46199986909696 A 19.602647352647352 19.602647352647352 0 0 0 245.52214701977624 146.14112515696925 Z" stroke="#ffffff" stroke-width="0" opacity="1" class="highcharts-point highcharts-color-3" tabindex="-1" role="img" aria-label="NE, 0%. 4-6 m/s." style="outline: none;"></path><path fill="#f7a35c" d="M 252.37563063497615 150.73939906431903 A 21.551448551448544 21.551448551448544 0 0 1 254.9509387495273 156.94796079000875 L 254.9509387495273 156.94796079000875 A 21.551448551448544 21.551448551448544 0 0 0 252.37563063497615 150.73939906431903 Z" stroke="#ffffff" stroke-width="0" opacity="1" class="highcharts-point highcharts-color-3" tabindex="-1" role="img" aria-label="ENE, 0%. 4-6 m/s." style="outline: none;"></path><path fill="#f7a35c" d="M 271.4771483262434 156.06420283738845 A 37.9443056943057 37.9443056943057 0 0 1 271.4830653838441 167.89831705263344 L 271.4830653838441 167.89831705263344 A 37.9443056943057 37.9443056943057 0 0 0 271.4771483262434 156.06420283738845 Z" stroke="#ffffff" stroke-width="0" opacity="1" class="highcharts-point highcharts-color-3" tabindex="-1" role="img" aria-label="E, 0%. 4-6 m/s." style="outline: none;"></path><path fill="#f7a35c" d="M 290.62573403570633 175.59463595929182 A 58.23476523476522 58.23476523476522 0 0 1 283.68370255042544 192.37791274641933 L 280.74962562815625 190.58394152123708 A 54.79570429570428 54.79570429570428 0 0 0 287.2816946241489 174.79180312705017 Z" stroke="#ffffff" stroke-width="0" opacity="1" class="highcharts-point highcharts-color-3" tabindex="-1" role="img" aria-label="ESE, 0.3%. 4-6 m/s." style="outline: none;"></path><path fill="#f7a35c" d="M 319.13711757837854 223.85573663247897 A 105.23526473526472 105.23526473526472 0 0 1 295.94084280800973 247.07521928349456 L 281.501474223136 227.24286969017447 A 80.70329670329669 80.70329670329669 0 0 0 299.2903385350528 209.43620761357863 Z" stroke="#ffffff" stroke-width="0" opacity="1" class="highcharts-point highcharts-color-3" tabindex="-1" role="img" aria-label="SE, 2.14%. 4-6 m/s." style="outline: none;"></path><path fill="#f7a35c" d="M 283.6544583812738 243.02871168295357 A 95.03271728271726 95.03271728271726 0 0 1 256.2773431121419 254.38472459233057 L 253.96630389906088 244.80078452605744 A 85.17407592407591 85.17407592407591 0 0 0 278.5033324213347 234.6228380946134 Z" stroke="#ffffff" stroke-width="0" opacity="1" class="highcharts-point highcharts-color-3" tabindex="-1" role="img" aria-label="SSE, 0.86%. 4-6 m/s." style="outline: none;"></path><path fill="#f7a35c" d="M 248.0414778801352 250.65440223398377 A 89.7594905094905 89.7594905094905 0 0 1 220.04718352806015 250.66839938232607 L 220.04718352806015 250.66839938232607 A 89.7594905094905 89.7594905094905 0 0 0 248.0414778801352 250.65440223398377 Z" stroke="#ffffff" stroke-width="0" opacity="1" class="highcharts-point highcharts-color-3" tabindex="-1" role="img" aria-label="S, 0%. 4-6 m/s." style="outline: none;"></path><path fill="#f7a35c" d="M 214.3038345156714 244.04043356354296 A 84.37162837162836 84.37162837162836 0 0 1 189.98790594219537 233.9826871596714 L 189.98790594219537 233.9826871596714 A 84.37162837162836 84.37162837162836 0 0 0 214.3038345156714 244.04043356354296 Z" stroke="#ffffff" stroke-width="0" opacity="1" class="highcharts-point highcharts-color-3" tabindex="-1" role="img" aria-label="SSW, 0%. 4-6 m/s." style="outline: none;"></path><path fill="#f7a35c" d="M 178.41069420283728 238.51211547076483 A 94.5741758241758 94.5741758241758 0 0 1 157.5435120818266 217.6657901052372 L 162.08456409151205 214.359579541411 A 88.95704295704293 88.95704295704293 0 0 0 181.71236206230515 233.96775952159214 Z" stroke="#ffffff" stroke-width="0" opacity="1" class="highcharts-point highcharts-color-3" tabindex="-1" role="img" aria-label="SW, 0.49%. 4-6 m/s." style="outline: none;"></path><path fill="#f7a35c" d="M 161.76813276996043 206.26374516738377 A 84.71553446553445 84.71553446553445 0 0 1 151.64498012818774 181.85881370310338 L 160.4488320495317 179.73588233294754 A 75.65934065934064 75.65934065934064 0 0 0 169.48980734529619 201.53189690185832 Z" stroke="#ffffff" stroke-width="0" opacity="1" class="highcharts-point highcharts-color-3" tabindex="-1" role="img" aria-label="WSW, 0.79%. 4-6 m/s." style="outline: none;"></path><path fill="#f7a35c" d="M 169.23586452383302 172.25763135049445 A 65.57142857142856 65.57142857142856 0 0 1 169.22563927625737 151.80713790300157 L 185.64571323594737 154.3909928052127 A 48.94930069930069 48.94930069930069 0 0 0 185.6533464190152 169.657357668988 Z" stroke="#ffffff" stroke-width="0" opacity="1" class="highcharts-point highcharts-color-3" tabindex="-1" role="img" aria-label="W, 1.45%. 4-6 m/s." style="outline: none;"></path><path fill="#f7a35c" d="M 163.55223639652294 145.0869883341089 A 72.44955044955044 72.44955044955044 0 0 1 172.18877950419534 124.20700618949363 L 187.93499232037342 133.83465176463844 A 53.99325674325674 53.99325674325674 0 0 0 181.49858123854796 149.39552453380585 Z" stroke="#ffffff" stroke-width="0" opacity="1" class="highcharts-point highcharts-color-3" tabindex="-1" role="img" aria-label="WNW, 1.61%. 4-6 m/s." style="outline: none;"></path><path fill="#f7a35c" d="M 160.7338530643587 108.76902838817122 A 90.56193806193805 90.56193806193805 0 0 1 180.69578886892455 88.78712066017322 L 185.82378892710398 95.83038500172616 A 81.84965034965035 81.84965034965035 0 0 0 167.78224188348366 113.8899826191826 Z" stroke="#ffffff" stroke-width="0" opacity="1" class="highcharts-point highcharts-color-3" tabindex="-1" role="img" aria-label="NW, 0.76%. 4-6 m/s." style="outline: none;"></path><path fill="#f7a35c" d="M 186.32213646381962 84.1967979497813 A 91.24975024975024 91.24975024975024 0 0 1 212.60945100450598 73.2928338051927 L 212.95879414136706 74.7415689314898 A 89.7594905094905 89.7594905094905 0 0 0 187.10079503915927 85.46745325964667 Z" stroke="#ffffff" stroke-width="0" opacity="1" class="highcharts-point highcharts-color-3" tabindex="-1" role="img" aria-label="NNW, 0.13%. 4-6 m/s." style="outline: none;"></path></g><g class="highcharts-markers highcharts-series-3 highcharts-column-series highcharts-color-3" data-z-index="0.1" opacity="1" transform="translate(10,61) scale(1 1)" clip-path="none" aria-hidden="true"></g><g class="highcharts-series highcharts-series-4 highcharts-column-series highcharts-color-4 highcharts-dense-data" data-z-index="0.1" opacity="1" transform="translate(10,61) scale(1 1)" clip-path="url(#highcharts-ol1fbte-211)" aria-hidden="false" role="region" tabindex="-1" aria-label="6-8 m/s, bar series 5 of 7 with 16 bars." style="outline: none;"><path fill="#8085e9" d="M 227.2751542719656 119.5409950986668 A 42.98826173826174 42.98826173826174 0 0 1 240.682383367787 119.53429148356027 L 240.682383367787 119.53429148356027 A 42.98826173826174 42.98826173826174 0 0 0 227.2751542719656 119.5409950986668 Z" stroke="#ffffff" stroke-width="0" opacity="1" class="highcharts-point highcharts-color-4" tabindex="-1" role="img" aria-label="N, 0%. 6-8 m/s." style="outline: none;"></path><path fill="#8085e9" d="M 238.5761471437777 142.93897535412256 A 19.602647352647352 19.602647352647352 0 0 1 244.22563598353906 145.2757615430656 L 244.22563598353906 145.2757615430656 A 19.602647352647352 19.602647352647352 0 0 0 238.5761471437777 142.93897535412256 Z" stroke="#ffffff" stroke-width="0" opacity="1" class="highcharts-point highcharts-color-4" tabindex="-1" role="img" aria-label="NNE, 0%. 6-8 m/s." style="outline: none;"></path><path fill="#8085e9" d="M 245.52214701977624 146.14112515696925 A 19.602647352647352 19.602647352647352 0 0 1 249.84734476849462 150.46199986909696 L 249.84734476849462 150.46199986909696 A 19.602647352647352 19.602647352647352 0 0 0 245.52214701977624 146.14112515696925 Z" stroke="#ffffff" stroke-width="0" opacity="1" class="highcharts-point highcharts-color-4" tabindex="-1" role="img" aria-label="NE, 0%. 6-8 m/s." style="outline: none;"></path><path fill="#8085e9" d="M 252.37563063497615 150.73939906431903 A 21.551448551448544 21.551448551448544 0 0 1 254.9509387495273 156.94796079000875 L 254.9509387495273 156.94796079000875 A 21.551448551448544 21.551448551448544 0 0 0 252.37563063497615 150.73939906431903 Z" stroke="#ffffff" stroke-width="0" opacity="1" class="highcharts-point highcharts-color-4" tabindex="-1" role="img" aria-label="ENE, 0%. 6-8 m/s." style="outline: none;"></path><path fill="#8085e9" d="M 271.4771483262434 156.06420283738845 A 37.9443056943057 37.9443056943057 0 0 1 271.4830653838441 167.89831705263344 L 271.4830653838441 167.89831705263344 A 37.9443056943057 37.9443056943057 0 0 0 271.4771483262434 156.06420283738845 Z" stroke="#ffffff" stroke-width="0" opacity="1" class="highcharts-point highcharts-color-4" tabindex="-1" role="img" aria-label="E, 0%. 6-8 m/s." style="outline: none;"></path><path fill="#8085e9" d="M 292.07481778071457 175.94253018659654 A 59.72502497502495 59.72502497502495 0 0 1 284.9551358834088 193.15530027733163 L 283.68370255042544 192.37791274641933 A 58.23476523476522 58.23476523476522 0 0 0 290.62573403570633 175.59463595929182 Z" stroke="#ffffff" stroke-width="0" opacity="1" class="highcharts-point highcharts-color-4" tabindex="-1" role="img" aria-label="ESE, 0.13%. 6-8 m/s." style="outline: none;"></path><path fill="#8085e9" d="M 335.274218295849 235.58002658242594 A 125.18181818181816 125.18181818181816 0 0 1 307.68126399384164 263.20058764441836 L 295.94084280800973 247.07521928349456 A 105.23526473526472 105.23526473526472 0 0 0 319.13711757837854 223.85573663247897 Z" stroke="#ffffff" stroke-width="0" opacity="1" class="highcharts-point highcharts-color-4" tabindex="-1" role="img" aria-label="SE, 1.74%. 6-8 m/s." style="outline: none;"></path><path fill="#8085e9" d="M 286.82898949612 248.20907563855855 A 101.10839160839159 101.10839160839159 0 0 1 257.70158820857563 260.2911062610803 L 256.2773431121419 254.38472459233057 A 95.03271728271726 95.03271728271726 0 0 0 283.6544583812738 243.02871168295357 Z" stroke="#ffffff" stroke-width="0" opacity="1" class="highcharts-point highcharts-color-4" tabindex="-1" role="img" aria-label="SSE, 0.53%. 6-8 m/s." style="outline: none;"></path><path fill="#8085e9" d="M 248.0414778801352 250.65440223398377 A 89.7594905094905 89.7594905094905 0 0 1 220.04718352806015 250.66839938232607 L 220.04718352806015 250.66839938232607 A 89.7594905094905 89.7594905094905 0 0 0 248.0414778801352 250.65440223398377 Z" stroke="#ffffff" stroke-width="0" opacity="1" class="highcharts-point highcharts-color-4" tabindex="-1" role="img" aria-label="S, 0%. 6-8 m/s." style="outline: none;"></path><path fill="#8085e9" d="M 214.3038345156714 244.04043356354296 A 84.37162837162836 84.37162837162836 0 0 1 189.98790594219537 233.9826871596714 L 189.98790594219537 233.9826871596714 A 84.37162837162836 84.37162837162836 0 0 0 214.3038345156714 244.04043356354296 Z" stroke="#ffffff" stroke-width="0" opacity="1" class="highcharts-point highcharts-color-4" tabindex="-1" role="img" aria-label="SSW, 0%. 6-8 m/s." style="outline: none;"></path><path fill="#8085e9" d="M 177.53474150542746 239.71776092666778 A 96.06443556443554 96.06443556443554 0 0 1 156.33874318129781 218.5429480099258 L 157.5435120818266 217.6657901052372 A 94.5741758241758 94.5741758241758 0 0 0 178.41069420283728 238.51211547076483 Z" stroke="#ffffff" stroke-width="0" opacity="1" class="highcharts-point highcharts-color-4" tabindex="-1" role="img" aria-label="SW, 0.13%. 6-8 m/s." style="outline: none;"></path><path fill="#8085e9" d="M 158.83585128565574 208.06064957201372 A 88.15459540459538 88.15459540459538 0 0 1 148.3017452213483 182.6649901727828 L 151.64498012818774 181.85881370310338 A 84.71553446553445 84.71553446553445 0 0 0 161.76813276996043 206.26374516738377 Z" stroke="#ffffff" stroke-width="0" opacity="1" class="highcharts-point highcharts-color-4" tabindex="-1" role="img" aria-label="WSW, 0.3%. 6-8 m/s." style="outline: none;"></path><path fill="#8085e9" d="M 166.29204018400725 172.72388732097147 A 68.55194805194803 68.55194805194803 0 0 1 166.2813501524509 151.34382598950165 L 169.22563927625737 151.80713790300157 A 65.57142857142856 65.57142857142856 0 0 0 169.23586452383302 172.25763135049445 Z" stroke="#ffffff" stroke-width="0" opacity="1" class="highcharts-point highcharts-color-4" tabindex="-1" role="img" aria-label="W, 0.26%. 6-8 m/s." style="outline: none;"></path><path fill="#8085e9" d="M 159.87379304380974 144.20387221864306 A 76.23251748251748 76.23251748251748 0 0 1 168.96129488969922 122.23363784179313 L 172.18877950419534 124.20700618949363 A 72.44955044955044 72.44955044955044 0 0 0 163.55223639652294 145.0869883341089 Z" stroke="#ffffff" stroke-width="0" opacity="1" class="highcharts-point highcharts-color-4" tabindex="-1" role="img" aria-label="WNW, 0.33%. 6-8 m/s." style="outline: none;"></path><path fill="#8085e9" d="M 154.6128838266975 104.32188392439818 A 98.12787212787212 98.12787212787212 0 0 1 176.24252566050558 82.67060162671932 L 180.69578886892455 88.78712066017322 A 90.56193806193805 90.56193806193805 0 0 0 160.7338530643587 108.76902838817122 Z" stroke="#ffffff" stroke-width="0" opacity="1" class="highcharts-point highcharts-color-4" tabindex="-1" role="img" aria-label="NW, 0.66%. 6-8 m/s." style="outline: none;"></path><path fill="#8085e9" d="M 184.94450975360337 81.94871547848102 A 93.88636363636361 93.88636363636361 0 0 1 211.99138237775176 70.72968704328245 L 212.60945100450598 73.2928338051927 A 91.24975024975024 91.24975024975024 0 0 0 186.32213646381962 84.1967979497813 Z" stroke="#ffffff" stroke-width="0" opacity="1" class="highcharts-point highcharts-color-4" tabindex="-1" role="img" aria-label="NNW, 0.23%. 6-8 m/s." style="outline: none;"></path></g><g class="highcharts-markers highcharts-series-4 highcharts-column-series highcharts-color-4" data-z-index="0.1" opacity="1" transform="translate(10,61) scale(1 1)" clip-path="none" aria-hidden="true"></g><g class="highcharts-series highcharts-series-5 highcharts-column-series highcharts-color-5 highcharts-dense-data" data-z-index="0.1" opacity="1" transform="translate(10,61) scale(1 1)" clip-path="url(#highcharts-ol1fbte-228)" aria-hidden="false" role="region" tabindex="-1" aria-label="8-10 m/s, bar series 6 of 7 with 16 bars." style="outline: none;"><path fill="#f15c80" d="M 227.2751542719656 119.5409950986668 A 42.98826173826174 42.98826173826174 0 0 1 240.682383367787 119.53429148356027 L 240.682383367787 119.53429148356027 A 42.98826173826174 42.98826173826174 0 0 0 227.2751542719656 119.5409950986668 Z" stroke="#ffffff" stroke-width="0" opacity="1" class="highcharts-point highcharts-color-5" tabindex="-1" role="img" aria-label="N, 0%. 8-10 m/s." style="outline: none;"></path><path fill="#f15c80" d="M 238.5761471437777 142.93897535412256 A 19.602647352647352 19.602647352647352 0 0 1 244.22563598353906 145.2757615430656 L 244.22563598353906 145.2757615430656 A 19.602647352647352 19.602647352647352 0 0 0 238.5761471437777 142.93897535412256 Z" stroke="#ffffff" stroke-width="0" opacity="1" class="highcharts-point highcharts-color-5" tabindex="-1" role="img" aria-label="NNE, 0%. 8-10 m/s." style="outline: none;"></path><path fill="#f15c80" d="M 245.52214701977624 146.14112515696925 A 19.602647352647352 19.602647352647352 0 0 1 249.84734476849462 150.46199986909696 L 249.84734476849462 150.46199986909696 A 19.602647352647352 19.602647352647352 0 0 0 245.52214701977624 146.14112515696925 Z" stroke="#ffffff" stroke-width="0" opacity="1" class="highcharts-point highcharts-color-5" tabindex="-1" role="img" aria-label="NE, 0%. 8-10 m/s." style="outline: none;"></path><path fill="#f15c80" d="M 252.37563063497615 150.73939906431903 A 21.551448551448544 21.551448551448544 0 0 1 254.9509387495273 156.94796079000875 L 254.9509387495273 156.94796079000875 A 21.551448551448544 21.551448551448544 0 0 0 252.37563063497615 150.73939906431903 Z" stroke="#ffffff" stroke-width="0" opacity="1" class="highcharts-point highcharts-color-5" tabindex="-1" role="img" aria-label="ENE, 0%. 8-10 m/s." style="outline: none;"></path><path fill="#f15c80" d="M 271.4771483262434 156.06420283738845 A 37.9443056943057 37.9443056943057 0 0 1 271.4830653838441 167.89831705263344 L 271.4830653838441 167.89831705263344 A 37.9443056943057 37.9443056943057 0 0 0 271.4771483262434 156.06420283738845 Z" stroke="#ffffff" stroke-width="0" opacity="1" class="highcharts-point highcharts-color-5" tabindex="-1" role="img" aria-label="E, 0%. 8-10 m/s." style="outline: none;"></path><path fill="#f15c80" d="M 292.07481778071457 175.94253018659654 A 59.72502497502495 59.72502497502495 0 0 1 284.9551358834088 193.15530027733163 L 284.9551358834088 193.15530027733163 A 59.72502497502495 59.72502497502495 0 0 0 292.07481778071457 175.94253018659654 Z" stroke="#ffffff" stroke-width="0" opacity="1" class="highcharts-point highcharts-color-5" tabindex="-1" role="img" aria-label="ESE, 0%. 8-10 m/s." style="outline: none;"></path><path fill="#f15c80" d="M 338.89115466355787 238.20788467465545 A 129.6525974025974 129.6525974025974 0 0 1 310.3127377079074 266.81489434600473 L 307.68126399384164 263.20058764441836 A 125.18181818181816 125.18181818181816 0 0 0 335.274218295849 235.58002658242594 Z" stroke="#ffffff" stroke-width="0" opacity="1" class="highcharts-point highcharts-color-5" tabindex="-1" role="img" aria-label="SE, 0.39%. 8-10 m/s." style="outline: none;"></path><path fill="#f15c80" d="M 289.76393335701556 252.9984687295896 A 106.72552447552445 106.72552447552445 0 0 1 259.01834310905207 265.75172327558477 L 257.70158820857563 260.2911062610803 A 101.10839160839159 101.10839160839159 0 0 0 286.82898949612 248.20907563855855 Z" stroke="#ffffff" stroke-width="0" opacity="1" class="highcharts-point highcharts-color-5" tabindex="-1" role="img" aria-label="SSE, 0.49%. 8-10 m/s." style="outline: none;"></path><path fill="#f15c80" d="M 248.0414778801352 250.65440223398377 A 89.7594905094905 89.7594905094905 0 0 1 220.04718352806015 250.66839938232607 L 220.04718352806015 250.66839938232607 A 89.7594905094905 89.7594905094905 0 0 0 248.0414778801352 250.65440223398377 Z" stroke="#ffffff" stroke-width="0" opacity="1" class="highcharts-point highcharts-color-5" tabindex="-1" role="img" aria-label="S, 0%. 8-10 m/s." style="outline: none;"></path><path fill="#f15c80" d="M 214.3038345156714 244.04043356354296 A 84.37162837162836 84.37162837162836 0 0 1 189.98790594219537 233.9826871596714 L 189.98790594219537 233.9826871596714 A 84.37162837162836 84.37162837162836 0 0 0 214.3038345156714 244.04043356354296 Z" stroke="#ffffff" stroke-width="0" opacity="1" class="highcharts-point highcharts-color-5" tabindex="-1" role="img" aria-label="SSW, 0%. 8-10 m/s." style="outline: none;"></path><path fill="#f15c80" d="M 177.53474150542746 239.71776092666778 A 96.06443556443554 96.06443556443554 0 0 1 156.33874318129781 218.5429480099258 L 156.33874318129781 218.5429480099258 A 96.06443556443554 96.06443556443554 0 0 0 177.53474150542746 239.71776092666778 Z" stroke="#ffffff" stroke-width="0" opacity="1" class="highcharts-point highcharts-color-5" tabindex="-1" role="img" aria-label="SW, 0%. 8-10 m/s." style="outline: none;"></path><path fill="#f15c80" d="M 158.83585128565574 208.06064957201372 A 88.15459540459538 88.15459540459538 0 0 1 148.3017452213483 182.6649901727828 L 148.3017452213483 182.6649901727828 A 88.15459540459538 88.15459540459538 0 0 0 158.83585128565574 208.06064957201372 Z" stroke="#ffffff" stroke-width="0" opacity="1" class="highcharts-point highcharts-color-5" tabindex="-1" role="img" aria-label="WSW, 0%. 8-10 m/s." style="outline: none;"></path><path fill="#f15c80" d="M 165.15980005330505 172.9032165403857 A 69.69830169830168 69.69830169830168 0 0 1 165.14893125867917 151.16562909969397 L 166.2813501524509 151.34382598950165 A 68.55194805194803 68.55194805194803 0 0 0 166.29204018400725 172.72388732097147 Z" stroke="#ffffff" stroke-width="0" opacity="1" class="highcharts-point highcharts-color-5" tabindex="-1" role="img" aria-label="W, 0.1%. 8-10 m/s." style="outline: none;"></path><path fill="#f15c80" d="M 159.87379304380974 144.20387221864306 A 76.23251748251748 76.23251748251748 0 0 1 168.96129488969922 122.23363784179313 L 168.96129488969922 122.23363784179313 A 76.23251748251748 76.23251748251748 0 0 0 159.87379304380974 144.20387221864306 Z" stroke="#ffffff" stroke-width="0" opacity="1" class="highcharts-point highcharts-color-5" tabindex="-1" role="img" aria-label="WNW, 0%. 8-10 m/s." style="outline: none;"></path><path fill="#f15c80" d="M 148.2136887145972 99.67259653045366 A 106.03771228771227 106.03771228771227 0 0 1 171.5868413971585 76.27605900083573 L 176.24252566050558 82.67060162671932 A 98.12787212787212 98.12787212787212 0 0 0 154.6128838266975 104.32188392439818 Z" stroke="#ffffff" stroke-width="0" opacity="1" class="highcharts-point highcharts-color-5" tabindex="-1" role="img" aria-label="NW, 0.69%. 8-10 m/s." style="outline: none;"></path><path fill="#f15c80" d="M 184.16585117826372 80.67806016861563 A 95.37662337662337 95.37662337662337 0 0 1 211.64203924089065 69.28095191698533 L 211.99138237775176 70.72968704328245 A 93.88636363636361 93.88636363636361 0 0 0 184.94450975360337 81.94871547848102 Z" stroke="#ffffff" stroke-width="0" opacity="1" class="highcharts-point highcharts-color-5" tabindex="-1" role="img" aria-label="NNW, 0.13%. 8-10 m/s." style="outline: none;"></path></g><g class="highcharts-markers highcharts-series-5 highcharts-column-series highcharts-color-5" data-z-index="0.1" opacity="1" transform="translate(10,61) scale(1 1)" clip-path="none" aria-hidden="true"></g><g class="highcharts-series highcharts-series-6 highcharts-column-series highcharts-color-6 highcharts-dense-data" data-z-index="0.1" opacity="1" transform="translate(10,61) scale(1 1)" clip-path="url(#highcharts-ol1fbte-245)" aria-hidden="false" role="region" tabindex="-1" aria-label="&amp;gt; 10 m/s, bar series 7 of 7 with 16 bars." style="outline: none;"><path fill="#e4d354" d="M 227.2751542719656 119.5409950986668 A 42.98826173826174 42.98826173826174 0 0 1 240.682383367787 119.53429148356027 L 240.682383367787 119.53429148356027 A 42.98826173826174 42.98826173826174 0 0 0 227.2751542719656 119.5409950986668 Z" stroke="#ffffff" stroke-width="0" opacity="1" class="highcharts-point highcharts-color-6" tabindex="-1" role="img" aria-label="N, 0%. &amp;gt; 10 m/s." style="outline: none;"></path><path fill="#e4d354" d="M 238.5761471437777 142.93897535412256 A 19.602647352647352 19.602647352647352 0 0 1 244.22563598353906 145.2757615430656 L 244.22563598353906 145.2757615430656 A 19.602647352647352 19.602647352647352 0 0 0 238.5761471437777 142.93897535412256 Z" stroke="#ffffff" stroke-width="0" opacity="1" class="highcharts-point highcharts-color-6" tabindex="-1" role="img" aria-label="NNE, 0%. &amp;gt; 10 m/s." style="outline: none;"></path><path fill="#e4d354" d="M 245.52214701977624 146.14112515696925 A 19.602647352647352 19.602647352647352 0 0 1 249.84734476849462 150.46199986909696 L 249.84734476849462 150.46199986909696 A 19.602647352647352 19.602647352647352 0 0 0 245.52214701977624 146.14112515696925 Z" stroke="#ffffff" stroke-width="0" opacity="1" class="highcharts-point highcharts-color-6" tabindex="-1" role="img" aria-label="NE, 0%. &amp;gt; 10 m/s." style="outline: none;"></path><path fill="#e4d354" d="M 252.37563063497615 150.73939906431903 A 21.551448551448544 21.551448551448544 0 0 1 254.9509387495273 156.94796079000875 L 254.9509387495273 156.94796079000875 A 21.551448551448544 21.551448551448544 0 0 0 252.37563063497615 150.73939906431903 Z" stroke="#ffffff" stroke-width="0" opacity="1" class="highcharts-point highcharts-color-6" tabindex="-1" role="img" aria-label="ENE, 0%. &amp;gt; 10 m/s." style="outline: none;"></path><path fill="#e4d354" d="M 271.4771483262434 156.06420283738845 A 37.9443056943057 37.9443056943057 0 0 1 271.4830653838441 167.89831705263344 L 271.4830653838441 167.89831705263344 A 37.9443056943057 37.9443056943057 0 0 0 271.4771483262434 156.06420283738845 Z" stroke="#ffffff" stroke-width="0" opacity="1" class="highcharts-point highcharts-color-6" tabindex="-1" role="img" aria-label="E, 0%. &amp;gt; 10 m/s." style="outline: none;"></path><path fill="#e4d354" d="M 292.07481778071457 175.94253018659654 A 59.72502497502495 59.72502497502495 0 0 1 284.9551358834088 193.15530027733163 L 284.9551358834088 193.15530027733163 A 59.72502497502495 59.72502497502495 0 0 0 292.07481778071457 175.94253018659654 Z" stroke="#ffffff" stroke-width="0" opacity="1" class="highcharts-point highcharts-color-6" tabindex="-1" role="img" aria-label="ESE, 0%. &amp;gt; 10 m/s." style="outline: none;"></path><path fill="#e4d354" d="M 340.09680011946085 239.0838373720653 A 131.14285714285714 131.14285714285714 0 0 1 311.189895612596 268.0196632465335 L 310.3127377079074 266.81489434600473 A 129.6525974025974 129.6525974025974 0 0 0 338.89115466355787 238.20788467465545 Z" stroke="#ffffff" stroke-width="0" opacity="1" class="highcharts-point highcharts-color-6" tabindex="-1" role="img" aria-label="SE, 0.13%. &amp;gt; 10 m/s." style="outline: none;"></path><path fill="#e4d354" d="M 289.76393335701556 252.9984687295896 A 106.72552447552445 106.72552447552445 0 0 1 259.01834310905207 265.75172327558477 L 259.01834310905207 265.75172327558477 A 106.72552447552445 106.72552447552445 0 0 0 289.76393335701556 252.9984687295896 Z" stroke="#ffffff" stroke-width="0" opacity="1" class="highcharts-point highcharts-color-6" tabindex="-1" role="img" aria-label="SSE, 0%. &amp;gt; 10 m/s." style="outline: none;"></path><path fill="#e4d354" d="M 248.0414778801352 250.65440223398377 A 89.7594905094905 89.7594905094905 0 0 1 220.04718352806015 250.66839938232607 L 220.04718352806015 250.66839938232607 A 89.7594905094905 89.7594905094905 0 0 0 248.0414778801352 250.65440223398377 Z" stroke="#ffffff" stroke-width="0" opacity="1" class="highcharts-point highcharts-color-6" tabindex="-1" role="img" aria-label="S, 0%. &amp;gt; 10 m/s." style="outline: none;"></path><path fill="#e4d354" d="M 214.3038345156714 244.04043356354296 A 84.37162837162836 84.37162837162836 0 0 1 189.98790594219537 233.9826871596714 L 189.98790594219537 233.9826871596714 A 84.37162837162836 84.37162837162836 0 0 0 214.3038345156714 244.04043356354296 Z" stroke="#ffffff" stroke-width="0" opacity="1" class="highcharts-point highcharts-color-6" tabindex="-1" role="img" aria-label="SSW, 0%. &amp;gt; 10 m/s." style="outline: none;"></path><path fill="#e4d354" d="M 177.53474150542746 239.71776092666778 A 96.06443556443554 96.06443556443554 0 0 1 156.33874318129781 218.5429480099258 L 156.33874318129781 218.5429480099258 A 96.06443556443554 96.06443556443554 0 0 0 177.53474150542746 239.71776092666778 Z" stroke="#ffffff" stroke-width="0" opacity="1" class="highcharts-point highcharts-color-6" tabindex="-1" role="img" aria-label="SW, 0%. &amp;gt; 10 m/s." style="outline: none;"></path><path fill="#e4d354" d="M 158.83585128565574 208.06064957201372 A 88.15459540459538 88.15459540459538 0 0 1 148.3017452213483 182.6649901727828 L 148.3017452213483 182.6649901727828 A 88.15459540459538 88.15459540459538 0 0 0 158.83585128565574 208.06064957201372 Z" stroke="#ffffff" stroke-width="0" opacity="1" class="highcharts-point highcharts-color-6" tabindex="-1" role="img" aria-label="WSW, 0%. &amp;gt; 10 m/s." style="outline: none;"></path><path fill="#e4d354" d="M 165.15980005330505 172.9032165403857 A 69.69830169830168 69.69830169830168 0 0 1 165.14893125867917 151.16562909969397 L 165.14893125867917 151.16562909969397 A 69.69830169830168 69.69830169830168 0 0 0 165.15980005330505 172.9032165403857 Z" stroke="#ffffff" stroke-width="0" opacity="1" class="highcharts-point highcharts-color-6" tabindex="-1" role="img" aria-label="W, 0%. &amp;gt; 10 m/s." style="outline: none;"></path><path fill="#e4d354" d="M 159.87379304380974 144.20387221864306 A 76.23251748251748 76.23251748251748 0 0 1 168.96129488969922 122.23363784179313 L 168.96129488969922 122.23363784179313 A 76.23251748251748 76.23251748251748 0 0 0 159.87379304380974 144.20387221864306 Z" stroke="#ffffff" stroke-width="0" opacity="1" class="highcharts-point highcharts-color-6" tabindex="-1" role="img" aria-label="WNW, 0%. &amp;gt; 10 m/s." style="outline: none;"></path><path fill="#e4d354" d="M 147.93546284015804 99.47045360028216 A 106.38161838161837 106.38161838161837 0 0 1 171.38442034223036 75.998035408406 L 171.5868413971585 76.27605900083573 A 106.03771228771227 106.03771228771227 0 0 0 148.2136887145972 99.67259653045366 Z" stroke="#ffffff" stroke-width="0" opacity="1" class="highcharts-point highcharts-color-6" tabindex="-1" role="img" aria-label="NW, 0.03%. &amp;gt; 10 m/s." style="outline: none;"></path><path fill="#e4d354" d="M 183.74657348385009 79.9938611556112 A 96.17907092907092 96.17907092907092 0 0 1 211.45393139796548 68.50086377205612 L 211.64203924089065 69.28095191698533 A 95.37662337662337 95.37662337662337 0 0 0 184.16585117826372 80.67806016861563 Z" stroke="#ffffff" stroke-width="0" opacity="1" class="highcharts-point highcharts-color-6" tabindex="-1" role="img" aria-label="NNW, 0.07%. &amp;gt; 10 m/s." style="outline: none;"></path></g><g class="highcharts-markers highcharts-series-6 highcharts-column-series highcharts-color-6" data-z-index="0.1" opacity="1" transform="translate(10,61) scale(1 1)" clip-path="none" aria-hidden="true"></g></g><text x="10" text-anchor="start" class="highcharts-title" data-z-index="4" style="color: rgb(51, 51, 51); font-size: 18px; fill: rgb(51, 51, 51);" y="24" aria-hidden="true">Wind rose for South Shore Met Station, Oregon</text><text x="10" text-anchor="start" class="highcharts-subtitle" data-z-index="4" style="color: rgb(102, 102, 102); fill: rgb(102, 102, 102);" y="46" aria-hidden="true">Source: or.water.usgs.gov</text><text x="10" text-anchor="start" class="highcharts-caption" data-z-index="4" style="color: rgb(102, 102, 102); fill: rgb(102, 102, 102);" y="397" aria-hidden="true"></text><g class="highcharts-legend highcharts-no-tooltip" data-z-index="7" transform="translate(489,110)" aria-hidden="true"><rect fill="none" class="highcharts-legend-box" rx="0" ry="0" stroke="#999999" stroke-width="0" x="0" y="0" width="100" height="116"></rect><g data-z-index="1"><g><g class="highcharts-legend-item highcharts-column-series highcharts-color-0 highcharts-series-0" data-z-index="1" transform="translate(8,3)"><text x="21" text-anchor="start" data-z-index="2" y="15" style="color: rgb(51, 51, 51); cursor: pointer; font-size: 12px; font-weight: bold; fill: rgb(51, 51, 51);">&lt; 0.5 m/s</text><rect x="2" y="4" width="12" height="12" fill="#7cb5ec" rx="6" ry="6" class="highcharts-point" data-z-index="3"></rect></g><g class="highcharts-legend-item highcharts-column-series highcharts-color-1 highcharts-series-1" data-z-index="1" transform="translate(8,18)"><text x="21" y="15" text-anchor="start" data-z-index="2" style="color: rgb(51, 51, 51); cursor: pointer; font-size: 12px; font-weight: bold; fill: rgb(51, 51, 51);">0.5-2 m/s</text><rect x="2" y="4" width="12" height="12" fill="#434348" rx="6" ry="6" class="highcharts-point" data-z-index="3"></rect></g><g class="highcharts-legend-item highcharts-column-series highcharts-color-2 highcharts-series-2" data-z-index="1" transform="translate(8,33)"><text x="21" y="15" text-anchor="start" data-z-index="2" style="color: rgb(51, 51, 51); cursor: pointer; font-size: 12px; font-weight: bold; fill: rgb(51, 51, 51);">2-4 m/s</text><rect x="2" y="4" width="12" height="12" fill="#90ed7d" rx="6" ry="6" class="highcharts-point" data-z-index="3"></rect></g><g class="highcharts-legend-item highcharts-column-series highcharts-color-3 highcharts-series-3" data-z-index="1" transform="translate(8,48)"><text x="21" y="15" text-anchor="start" data-z-index="2" style="color: rgb(51, 51, 51); cursor: pointer; font-size: 12px; font-weight: bold; fill: rgb(51, 51, 51);">4-6 m/s</text><rect x="2" y="4" width="12" height="12" fill="#f7a35c" rx="6" ry="6" class="highcharts-point" data-z-index="3"></rect></g><g class="highcharts-legend-item highcharts-column-series highcharts-color-4 highcharts-series-4" data-z-index="1" transform="translate(8,63)"><text x="21" y="15" text-anchor="start" data-z-index="2" style="color: rgb(51, 51, 51); cursor: pointer; font-size: 12px; font-weight: bold; fill: rgb(51, 51, 51);">6-8 m/s</text><rect x="2" y="4" width="12" height="12" fill="#8085e9" rx="6" ry="6" class="highcharts-point" data-z-index="3"></rect></g><g class="highcharts-legend-item highcharts-column-series highcharts-color-5 highcharts-series-5" data-z-index="1" transform="translate(8,78)"><text x="21" y="15" text-anchor="start" data-z-index="2" style="color: rgb(51, 51, 51); cursor: pointer; font-size: 12px; font-weight: bold; fill: rgb(51, 51, 51);">8-10 m/s</text><rect x="2" y="4" width="12" height="12" fill="#f15c80" rx="6" ry="6" class="highcharts-point" data-z-index="3"></rect></g><g class="highcharts-legend-item highcharts-column-series highcharts-color-6 highcharts-series-6" data-z-index="1" transform="translate(8,93)"><text x="21" y="15" text-anchor="start" data-z-index="2" style="color: rgb(51, 51, 51); cursor: pointer; font-size: 12px; font-weight: bold; fill: rgb(51, 51, 51);">&gt; 10 m/s</text><rect x="2" y="4" width="12" height="12" fill="#e4d354" rx="6" ry="6" class="highcharts-point" data-z-index="3"></rect></g></g></g></g><g class="highcharts-axis-labels highcharts-xaxis-labels highcharts-radial-axis-labels" data-z-index="7" aria-hidden="true"><text x="243.5" transform="translate(0,0)" style="color: rgb(102, 102, 102); cursor: default; font-size: 11px; fill: rgb(102, 102, 102);" text-anchor="middle" y="74.80000000000001" opacity="1">N</text><text x="301.9357601221492" transform="translate(0,0)" style="color: rgb(102, 102, 102); cursor: default; font-size: 11px; fill: rgb(102, 102, 102);" text-anchor="start" y="86.42359538552654" opacity="1">NNE</text><text x="351.4752054871858" transform="translate(0,0)" style="color: rgb(102, 102, 102); cursor: default; font-size: 11px; fill: rgb(102, 102, 102);" text-anchor="start" y="119.52479451281421" opacity="1">NE</text><text x="384.57640461447346" transform="translate(0,0)" style="color: rgb(102, 102, 102); cursor: default; font-size: 11px; fill: rgb(102, 102, 102);" text-anchor="start" y="169.0642398778508" opacity="1">ENE</text><text x="396.2" transform="translate(0,0)" style="color: rgb(102, 102, 102); cursor: default; font-size: 11px; fill: rgb(102, 102, 102);" text-anchor="start" y="227.5" opacity="1">E</text><text x="384.57640461447346" transform="translate(0,0)" style="color: rgb(102, 102, 102); cursor: default; font-size: 11px; fill: rgb(102, 102, 102);" text-anchor="start" y="285.9357601221492" opacity="1">ESE</text><text x="351.4752054871858" transform="translate(0,0)" style="color: rgb(102, 102, 102); cursor: default; font-size: 11px; fill: rgb(102, 102, 102);" text-anchor="start" y="335.4752054871858" opacity="1">SE</text><text x="301.9357601221492" transform="translate(0,0)" style="color: rgb(102, 102, 102); cursor: default; font-size: 11px; fill: rgb(102, 102, 102);" text-anchor="start" y="368.57640461447346" opacity="1">SSE</text><text x="243.5" transform="translate(0,0)" style="color: rgb(102, 102, 102); cursor: default; font-size: 11px; fill: rgb(102, 102, 102);" text-anchor="middle" y="380.2" opacity="1">S</text><text x="185.0642398778508" transform="translate(0,0)" style="color: rgb(102, 102, 102); cursor: default; font-size: 11px; fill: rgb(102, 102, 102);" text-anchor="end" y="368.57640461447346" opacity="1">SSW</text><text x="135.5247945128142" transform="translate(0,0)" style="color: rgb(102, 102, 102); cursor: default; font-size: 11px; fill: rgb(102, 102, 102);" text-anchor="end" y="335.4752054871858" opacity="1">SW</text><text x="102.42359538552657" transform="translate(0,0)" style="color: rgb(102, 102, 102); cursor: default; font-size: 11px; fill: rgb(102, 102, 102);" text-anchor="end" y="285.9357601221493" opacity="1">WSW</text><text x="90.80000000000001" transform="translate(0,0)" style="color: rgb(102, 102, 102); cursor: default; font-size: 11px; fill: rgb(102, 102, 102);" text-anchor="end" y="227.50000000000003" opacity="1">W</text><text x="102.42359538552654" transform="translate(0,0)" style="color: rgb(102, 102, 102); cursor: default; font-size: 11px; fill: rgb(102, 102, 102);" text-anchor="end" y="169.06423987785075" opacity="1">WNW</text><text x="135.5247945128142" transform="translate(0,0)" style="color: rgb(102, 102, 102); cursor: default; font-size: 11px; fill: rgb(102, 102, 102);" text-anchor="end" y="119.52479451281421" opacity="1">NW</text><text x="185.0642398778507" transform="translate(0,0)" style="color: rgb(102, 102, 102); cursor: default; font-size: 11px; fill: rgb(102, 102, 102);" text-anchor="end" y="86.42359538552657" opacity="1">NNW</text><text x="0" transform="translate(0,0)" style="color: rgb(102, 102, 102); cursor: default; font-size: 11px; fill: rgb(102, 102, 102);" text-anchor="middle" visibility="hidden">16</text></g><g class="highcharts-axis-labels highcharts-yaxis-labels highcharts-radial-axis-labels" data-z-index="7" aria-hidden="true"><text x="240.5" text-anchor="end" transform="translate(0,0)" style="color: rgb(102, 102, 102); cursor: default; font-size: 11px; fill: rgb(102, 102, 102);" y="221" opacity="1">0%</text><text x="240.5" text-anchor="end" transform="translate(0,0)" style="color: rgb(102, 102, 102); cursor: default; font-size: 11px; fill: rgb(102, 102, 102);" y="163.6823176823177" opacity="1">5%</text><text x="240.5" text-anchor="end" transform="translate(0,0)" style="color: rgb(102, 102, 102); cursor: default; font-size: 11px; fill: rgb(102, 102, 102);" y="106.36463536463538" opacity="1">10%</text></g><text x="590" class="highcharts-credits" text-anchor="end" data-z-index="8" y="395" style="cursor: pointer; color: rgb(153, 153, 153); font-size: 9px; fill: rgb(153, 153, 153);" aria-label="Chart credits: Highcharts.com" aria-hidden="false">Highcharts.com</text></svg>