<svg xmlns="http://www.w3.org/2000/svg" border="0" data-ac-wrapper-id="7" width="1098" height="589" class="anychart-ui-support" ac-id="ac_stage_1a378019_0" role="presentation" style="display: block;"><defs><clipPath clip-rule="nonzero" id="ac_clip_1a378019_h"><path data-ac-wrapper-id="28" id="ac_rect_1a378019_i" fill="none" stroke="black" d="M 0 0 L 180.140625 0 180.140625 25 0 25 0 0 Z"/></clipPath><clipPath clip-rule="nonzero" id="ac_clip_1a378019_p"><path data-ac-wrapper-id="34" id="ac_rect_1a378019_q" fill="none" stroke="black" d="M 40 83 L 1079 83 1079 546 40 546 40 83 Z"/></clipPath><clipPath clip-rule="nonzero" id="ac_clip_1a378019_19"><path data-ac-wrapper-id="52" id="ac_rect_1a378019_1a" fill="none" stroke="black" d="M 40 83 L 1079 83 1079 546 40 546 40 83 Z"/></clipPath><clipPath clip-rule="nonzero" id="ac_clip_1a378019_2t"><path data-ac-wrapper-id="106" id="ac_rect_1a378019_2u" fill="none" stroke="black" d="M 41 83 L 1079 83 1079 545 41 545 41 83 Z"/></clipPath><clipPath clip-rule="nonzero" id="ac_clip_1a378019_3a"><path data-ac-wrapper-id="121" id="ac_rect_1a378019_3b" fill="none" stroke="black" d="M 41 83 L 1079 83 1079 545 41 545 41 83 Z"/></clipPath><clipPath clip-rule="nonzero" id="ac_clip_1a378019_3f"><path data-ac-wrapper-id="124" id="ac_rect_1a378019_3g" fill="none" stroke="black" d="M 40 83 L 1078 83 1078 545 40 545 40 83 Z"/></clipPath></defs><g data-ac-wrapper-id="8" id="ac_layer_1a378019_1"><g data-ac-wrapper-id="13" role="article" aria-label="column chart  entitled Coastal Water Temperature &#10;in London vs Edinburgh in 2015 (°C), with 2 range-column series, . Y-scale minimum value is 4 , maximum value is 20. X-scale with 12 categories: Jan, Feb, Mar, Apr, May, June, July, Aug, Sep, Oct, Nov, Dec, . " id="ac_chart_1a378019_2"><g data-ac-wrapper-id="14" id="ac_layer_1a378019_4"><path data-ac-wrapper-id="15" id="ac_path_1a378019_3" fill="#ffffff" stroke="none" d="M 0 0 L 1098 0 1098 0 1098 589 1098 589 0 589 0 589 0 0 0 0 Z"/></g><path data-ac-wrapper-id="123" clip-path="url(&quot;#ac_clip_1a378019_3f&quot;)" clipPathUnits="userSpaceOnUse" id="ac_path_1a378019_3h" fill="none" stroke="none" d="M 0,0"/><path data-ac-wrapper-id="35" id="ac_path_1a378019_s" fill="none" stroke="none" d="M 40 545.5 L 1078 545.5 1078 516.5 40 516.5 Z"/><path data-ac-wrapper-id="36" id="ac_path_1a378019_t" fill="none" stroke="none" d="M 40 516.5 L 1078 516.5 1078 487.5 40 487.5 Z"/><path data-ac-wrapper-id="37" id="ac_path_1a378019_u" fill="none" stroke="none" d="M 40 487.5 L 1078 487.5 1078 458.5 40 458.5 Z"/><path data-ac-wrapper-id="38" id="ac_path_1a378019_v" fill="none" stroke="none" d="M 40 458.5 L 1078 458.5 1078 429.5 40 429.5 Z"/><path data-ac-wrapper-id="39" id="ac_path_1a378019_w" fill="none" stroke="none" d="M 40 429.5 L 1078 429.5 1078 400.5 40 400.5 Z"/><path data-ac-wrapper-id="40" id="ac_path_1a378019_x" fill="none" stroke="none" d="M 40 400.5 L 1078 400.5 1078 371.5 40 371.5 Z"/><path data-ac-wrapper-id="41" id="ac_path_1a378019_y" fill="none" stroke="none" d="M 40 371.5 L 1078 371.5 1078 342.5 40 342.5 Z"/><path data-ac-wrapper-id="42" id="ac_path_1a378019_z" fill="none" stroke="none" d="M 40 342.5 L 1078 342.5 1078 314.5 40 314.5 Z"/><path data-ac-wrapper-id="43" id="ac_path_1a378019_10" fill="none" stroke="none" d="M 40 314.5 L 1078 314.5 1078 285.5 40 285.5 Z"/><path data-ac-wrapper-id="44" id="ac_path_1a378019_11" fill="none" stroke="none" d="M 40 285.5 L 1078 285.5 1078 256.5 40 256.5 Z"/><path data-ac-wrapper-id="45" id="ac_path_1a378019_12" fill="none" stroke="none" d="M 40 256.5 L 1078 256.5 1078 227.5 40 227.5 Z"/><path data-ac-wrapper-id="46" id="ac_path_1a378019_13" fill="none" stroke="none" d="M 40 227.5 L 1078 227.5 1078 198.5 40 198.5 Z"/><path data-ac-wrapper-id="47" id="ac_path_1a378019_14" fill="none" stroke="none" d="M 40 198.5 L 1078 198.5 1078 169.5 40 169.5 Z"/><path data-ac-wrapper-id="48" id="ac_path_1a378019_15" fill="none" stroke="none" d="M 40 169.5 L 1078 169.5 1078 140.5 40 140.5 Z"/><path data-ac-wrapper-id="49" id="ac_path_1a378019_16" fill="none" stroke="none" d="M 40 140.5 L 1078 140.5 1078 111.5 40 111.5 Z"/><path data-ac-wrapper-id="50" id="ac_path_1a378019_17" fill="none" stroke="none" d="M 40 111.5 L 1078 111.5 1078 83.5 40 83.5 Z"/><path data-ac-wrapper-id="51" clip-path="url(&quot;#ac_clip_1a378019_19&quot;)" clipPathUnits="userSpaceOnUse" id="ac_path_1a378019_1b" fill="none" stroke="#EAEAEA" d="M 40 545.5 L 1078 545.5 M 40 516.5 L 1078 516.5 M 40 487.5 L 1078 487.5 M 40 458.5 L 1078 458.5 M 40 429.5 L 1078 429.5 M 40 400.5 L 1078 400.5 M 40 371.5 L 1078 371.5 M 40 342.5 L 1078 342.5 M 40 314.5 L 1078 314.5 M 40 285.5 L 1078 285.5 M 40 256.5 L 1078 256.5 M 40 227.5 L 1078 227.5 M 40 198.5 L 1078 198.5 M 40 169.5 L 1078 169.5 M 40 140.5 L 1078 140.5 M 40 111.5 L 1078 111.5 M 40 83.5 L 1078 83.5"/><path data-ac-wrapper-id="29" id="ac_path_1a378019_k" fill="none" stroke="none" d="M 40 545.5 L 1078 545.5 1078 429.5 40 429.5 Z"/><path data-ac-wrapper-id="30" id="ac_path_1a378019_l" fill="none" stroke="none" d="M 40 429.5 L 1078 429.5 1078 314.5 40 314.5 Z"/><path data-ac-wrapper-id="31" id="ac_path_1a378019_m" fill="none" stroke="none" d="M 40 314.5 L 1078 314.5 1078 198.5 40 198.5 Z"/><path data-ac-wrapper-id="32" id="ac_path_1a378019_n" fill="none" stroke="none" d="M 40 198.5 L 1078 198.5 1078 83.5 40 83.5 Z"/><path data-ac-wrapper-id="33" clip-path="url(&quot;#ac_clip_1a378019_p&quot;)" clipPathUnits="userSpaceOnUse" id="ac_path_1a378019_r" fill="none" stroke="#CECECE" d="M 40 545.5 L 1078 545.5 M 40 429.5 L 1078 429.5 M 40 314.5 L 1078 314.5 M 40 198.5 L 1078 198.5 M 40 83.5 L 1078 83.5"/><g data-ac-wrapper-id="108" clip-path="url(&quot;#ac_clip_1a378019_3a&quot;)" clipPathUnits="userSpaceOnUse" id="ac_layer_1a378019_3c"><path data-ac-wrapper-id="109" id="ac_path_1a378019_2x" fill="#64b5f6" fill-opacity="0.85" stroke="#64b5f6" stroke-width="1.5" d="M 50.5 432.5 L 77.5 432.5 77.5 493.5 50.5 493.5 Z"/><path data-ac-wrapper-id="110" id="ac_path_1a378019_2y" fill="#64b5f6" fill-opacity="0.85" stroke="#64b5f6" stroke-width="1.5" d="M 137.5 484.5 L 164.5 484.5 164.5 527.5 137.5 527.5 Z"/><path data-ac-wrapper-id="111" id="ac_path_1a378019_2z" fill="#64b5f6" fill-opacity="0.85" stroke="#64b5f6" stroke-width="1.5" d="M 223.5 426.5 L 250.5 426.5 250.5 490.5 223.5 490.5 Z"/><path data-ac-wrapper-id="112" id="ac_path_1a378019_30" fill="#64b5f6" fill-opacity="0.85" stroke="#64b5f6" stroke-width="1.5" d="M 310.5 351.5 L 337.5 351.5 337.5 435.5 310.5 435.5 Z"/><path data-ac-wrapper-id="113" id="ac_path_1a378019_31" fill="#64b5f6" fill-opacity="0.85" stroke="#64b5f6" stroke-width="1.5" d="M 396.5 264.5 L 423.5 264.5 423.5 357.5 396.5 357.5 Z"/><path data-ac-wrapper-id="114" id="ac_path_1a378019_32" fill="#64b5f6" fill-opacity="0.85" stroke="#64b5f6" stroke-width="1.5" d="M 483.5 169.5 L 510.5 169.5 510.5 262.5 483.5 262.5 Z"/><path data-ac-wrapper-id="115" id="ac_path_1a378019_33" fill="#64b5f6" fill-opacity="0.85" stroke="#64b5f6" stroke-width="1.5" d="M 569.5 126.5 L 596.5 126.5 596.5 184.5 569.5 184.5 Z"/><path data-ac-wrapper-id="116" id="ac_path_1a378019_34" fill="#64b5f6" fill-opacity="0.85" stroke="#64b5f6" stroke-width="1.5" d="M 656.5 111.5 L 683.5 111.5 683.5 146.5 656.5 146.5 Z"/><path data-ac-wrapper-id="117" id="ac_path_1a378019_35" fill="#64b5f6" fill-opacity="0.85" stroke="#64b5f6" stroke-width="1.5" d="M 742.5 146.5 L 769.5 146.5 769.5 215.5 742.5 215.5 Z"/><path data-ac-wrapper-id="118" id="ac_path_1a378019_36" fill="#64b5f6" fill-opacity="0.85" stroke="#64b5f6" stroke-width="1.5" d="M 829.5 218.5 L 856.5 218.5 856.5 293.5 829.5 293.5 Z"/><path data-ac-wrapper-id="119" id="ac_path_1a378019_37" fill="#64b5f6" fill-opacity="0.85" stroke="#64b5f6" stroke-width="1.5" d="M 915.5 285.5 L 942.5 285.5 942.5 377.5 915.5 377.5 Z"/><path data-ac-wrapper-id="120" id="ac_path_1a378019_38" fill="#64b5f6" fill-opacity="0.85" stroke="#64b5f6" stroke-width="1.5" d="M 1002.5 368.5 L 1029.5 368.5 1029.5 400.5 1002.5 400.5 Z"/></g><g data-ac-wrapper-id="93" clip-path="url(&quot;#ac_clip_1a378019_2t&quot;)" clipPathUnits="userSpaceOnUse" id="ac_layer_1a378019_2v"><path data-ac-wrapper-id="94" id="ac_path_1a378019_2g" fill="#1976d2" fill-opacity="0.85" stroke="#1976d2" stroke-width="1.5" d="M 88.5 403.5 L 115.5 403.5 115.5 484.5 88.5 484.5 Z"/><path data-ac-wrapper-id="95" id="ac_path_1a378019_2h" fill="#1976d2" fill-opacity="0.85" stroke="#1976d2" stroke-width="1.5" d="M 175.5 423.5 L 202.5 423.5 202.5 501.5 175.5 501.5 Z"/><path data-ac-wrapper-id="96" id="ac_path_1a378019_2i" fill="#1976d2" fill-opacity="0.85" stroke="#1976d2" stroke-width="1.5" d="M 261.5 426.5 L 288.5 426.5 288.5 490.5 261.5 490.5 Z"/><path data-ac-wrapper-id="97" id="ac_path_1a378019_2j" fill="#1976d2" fill-opacity="0.85" stroke="#1976d2" stroke-width="1.5" d="M 348.5 377.5 L 375.5 377.5 375.5 455.5 348.5 455.5 Z"/><path data-ac-wrapper-id="98" id="ac_path_1a378019_2k" fill="#1976d2" fill-opacity="0.85" stroke="#1976d2" stroke-width="1.5" d="M 434.5 351.5 L 461.5 351.5 461.5 420.5 434.5 420.5 Z"/><path data-ac-wrapper-id="99" id="ac_path_1a378019_2l" fill="#1976d2" fill-opacity="0.85" stroke="#1976d2" stroke-width="1.5" d="M 521.5 241.5 L 548.5 241.5 548.5 351.5 521.5 351.5 Z"/><path data-ac-wrapper-id="100" id="ac_path_1a378019_2m" fill="#1976d2" fill-opacity="0.85" stroke="#1976d2" stroke-width="1.5" d="M 607.5 178.5 L 634.5 178.5 634.5 305.5 607.5 305.5 Z"/><path data-ac-wrapper-id="101" id="ac_path_1a378019_2n" fill="#1976d2" fill-opacity="0.85" stroke="#1976d2" stroke-width="1.5" d="M 694.5 189.5 L 721.5 189.5 721.5 256.5 694.5 256.5 Z"/><path data-ac-wrapper-id="102" id="ac_path_1a378019_2o" fill="#1976d2" fill-opacity="0.85" stroke="#1976d2" stroke-width="1.5" d="M 780.5 218.5 L 807.5 218.5 807.5 264.5 780.5 264.5 Z"/><path data-ac-wrapper-id="103" id="ac_path_1a378019_2p" fill="#1976d2" fill-opacity="0.85" stroke="#1976d2" stroke-width="1.5" d="M 867.5 244.5 L 894.5 244.5 894.5 305.5 867.5 305.5 Z"/><path data-ac-wrapper-id="104" id="ac_path_1a378019_2q" fill="#1976d2" fill-opacity="0.85" stroke="#1976d2" stroke-width="1.5" d="M 953.5 288.5 L 980.5 288.5 980.5 351.5 953.5 351.5 Z"/><path data-ac-wrapper-id="105" id="ac_path_1a378019_2r" fill="#1976d2" fill-opacity="0.85" stroke="#1976d2" stroke-width="1.5" d="M 1040.5 339.5 L 1067.5 339.5 1067.5 423.5 1040.5 423.5 Z"/></g><g data-ac-wrapper-id="122" clip-path="url(&quot;#ac_clip_1a378019_3a&quot;)" clipPathUnits="userSpaceOnUse" id="ac_layer_1a378019_3d"/><g data-ac-wrapper-id="107" clip-path="url(&quot;#ac_clip_1a378019_2t&quot;)" clipPathUnits="userSpaceOnUse" id="ac_layer_1a378019_2w"/><path data-ac-wrapper-id="53" id="ac_path_1a378019_1c" fill="none" stroke="#CECECE" d="M 40 545.5 L 1079 545.5"/><path data-ac-wrapper-id="54" id="ac_path_1a378019_1d" fill="none" stroke="#CECECE" d="M 40.5 546 L 40.5 552 M 126.5 546 L 126.5 552 M 213.5 546 L 213.5 552 M 299.5 546 L 299.5 552 M 386.5 546 L 386.5 552 M 472.5 546 L 472.5 552 M 559.5 546 L 559.5 552 M 645.5 546 L 645.5 552 M 732.5 546 L 732.5 552 M 818.5 546 L 818.5 552 M 905.5 546 L 905.5 552 M 991.5 546 L 991.5 552 M 1078.5 546 L 1078.5 552"/><g data-ac-wrapper-id="55" id="ac_layer_1a378019_22"><g data-ac-wrapper-id="56" id="ac_layer_1a378019_1f"><g data-ac-wrapper-id="57" id="ac_unmanageable-layer_1a378019_1e"><text aria-hidden="true" font-style="normal" font-variant="normal" font-family="Verdana, Helvetica, Arial, sans-serif" font-size="12" font-weight="normal" letter-spacing="normal" text-decoration="none" fill="#7c868e" opacity="1" x="71.8671875" y="568">Jan</text></g></g><g data-ac-wrapper-id="58" id="ac_layer_1a378019_1h"><g data-ac-wrapper-id="59" id="ac_unmanageable-layer_1a378019_1g"><text aria-hidden="true" font-style="normal" font-variant="normal" font-family="Verdana, Helvetica, Arial, sans-serif" font-size="12" font-weight="normal" letter-spacing="normal" text-decoration="none" fill="#7c868e" opacity="1" x="158.6240234375" y="568">Feb</text></g></g><g data-ac-wrapper-id="60" id="ac_layer_1a378019_1j"><g data-ac-wrapper-id="61" id="ac_unmanageable-layer_1a378019_1i"><text aria-hidden="true" font-style="normal" font-variant="normal" font-family="Verdana, Helvetica, Arial, sans-serif" font-size="12" font-weight="normal" letter-spacing="normal" text-decoration="none" fill="#7c868e" opacity="1" x="243.83984375" y="568">Mar</text></g></g><g data-ac-wrapper-id="62" id="ac_layer_1a378019_1l"><g data-ac-wrapper-id="63" id="ac_unmanageable-layer_1a378019_1k"><text aria-hidden="true" font-style="normal" font-variant="normal" font-family="Verdana, Helvetica, Arial, sans-serif" font-size="12" font-weight="normal" letter-spacing="normal" text-decoration="none" fill="#7c868e" opacity="1" x="331.16015625" y="568">Apr</text></g></g><g data-ac-wrapper-id="64" id="ac_layer_1a378019_1n"><g data-ac-wrapper-id="65" id="ac_unmanageable-layer_1a378019_1m"><text aria-hidden="true" font-style="normal" font-variant="normal" font-family="Verdana, Helvetica, Arial, sans-serif" font-size="12" font-weight="normal" letter-spacing="normal" text-decoration="none" fill="#7c868e" opacity="1" x="415.88671875" y="568">May</text></g></g><g data-ac-wrapper-id="66" id="ac_layer_1a378019_1p"><g data-ac-wrapper-id="67" id="ac_unmanageable-layer_1a378019_1o"><text aria-hidden="true" font-style="normal" font-variant="normal" font-family="Verdana, Helvetica, Arial, sans-serif" font-size="12" font-weight="normal" letter-spacing="normal" text-decoration="none" fill="#7c868e" opacity="1" x="501.1015625" y="568">June</text></g></g><g data-ac-wrapper-id="68" id="ac_layer_1a378019_1r"><g data-ac-wrapper-id="69" id="ac_unmanageable-layer_1a378019_1q"><text aria-hidden="true" font-style="normal" font-variant="normal" font-family="Verdana, Helvetica, Arial, sans-serif" font-size="12" font-weight="normal" letter-spacing="normal" text-decoration="none" fill="#7c868e" opacity="1" x="588.8291015625" y="568">July</text></g></g><g data-ac-wrapper-id="70" id="ac_layer_1a378019_1t"><g data-ac-wrapper-id="71" id="ac_unmanageable-layer_1a378019_1s"><text aria-hidden="true" font-style="normal" font-variant="normal" font-family="Verdana, Helvetica, Arial, sans-serif" font-size="12" font-weight="normal" letter-spacing="normal" text-decoration="none" fill="#7c868e" opacity="1" x="676.390625" y="568">Aug</text></g></g><g data-ac-wrapper-id="72" id="ac_layer_1a378019_1v"><g data-ac-wrapper-id="73" id="ac_unmanageable-layer_1a378019_1u"><text aria-hidden="true" font-style="normal" font-variant="normal" font-family="Verdana, Helvetica, Arial, sans-serif" font-size="12" font-weight="normal" letter-spacing="normal" text-decoration="none" fill="#7c868e" opacity="1" x="762.82421875" y="568">Sep</text></g></g><g data-ac-wrapper-id="74" id="ac_layer_1a378019_1x"><g data-ac-wrapper-id="75" id="ac_unmanageable-layer_1a378019_1w"><text aria-hidden="true" font-style="normal" font-variant="normal" font-family="Verdana, Helvetica, Arial, sans-serif" font-size="12" font-weight="normal" letter-spacing="normal" text-decoration="none" fill="#7c868e" opacity="1" x="851.1513671875" y="568">Oct</text></g></g><g data-ac-wrapper-id="76" id="ac_layer_1a378019_1z"><g data-ac-wrapper-id="77" id="ac_unmanageable-layer_1a378019_1y"><text aria-hidden="true" font-style="normal" font-variant="normal" font-family="Verdana, Helvetica, Arial, sans-serif" font-size="12" font-weight="normal" letter-spacing="normal" text-decoration="none" fill="#7c868e" opacity="1" x="935.4140625" y="568">Nov</text></g></g><g data-ac-wrapper-id="78" id="ac_layer_1a378019_21"><g data-ac-wrapper-id="79" id="ac_unmanageable-layer_1a378019_20"><text aria-hidden="true" font-style="normal" font-variant="normal" font-family="Verdana, Helvetica, Arial, sans-serif" font-size="12" font-weight="normal" letter-spacing="normal" text-decoration="none" fill="#7c868e" opacity="1" x="1022.802734375" y="568">Dec</text></g></g></g><path data-ac-wrapper-id="80" id="ac_path_1a378019_23" fill="none" stroke="#CECECE" d="M 40.5 83 L 40.5 546"/><path data-ac-wrapper-id="81" id="ac_path_1a378019_24" fill="none" stroke="#CECECE" d="M 40 545.5 L 34 545.5 M 40 429.5 L 34 429.5 M 40 314.5 L 34 314.5 M 40 198.5 L 34 198.5 M 40 83.5 L 34 83.5"/><g data-ac-wrapper-id="82" id="ac_layer_1a378019_2f"><g data-ac-wrapper-id="83" id="ac_layer_1a378019_26"><g data-ac-wrapper-id="84" id="ac_unmanageable-layer_1a378019_25"><text aria-hidden="true" font-style="normal" font-variant="normal" font-family="Verdana, Helvetica, Arial, sans-serif" font-size="12" font-weight="normal" letter-spacing="normal" text-decoration="none" fill="#7c868e" opacity="1" x="22" y="549">4</text></g></g><g data-ac-wrapper-id="85" id="ac_layer_1a378019_28"><g data-ac-wrapper-id="86" id="ac_unmanageable-layer_1a378019_27"><text aria-hidden="true" font-style="normal" font-variant="normal" font-family="Verdana, Helvetica, Arial, sans-serif" font-size="12" font-weight="normal" letter-spacing="normal" text-decoration="none" fill="#7c868e" opacity="1" x="22" y="434">8</text></g></g><g data-ac-wrapper-id="87" id="ac_layer_1a378019_2a"><g data-ac-wrapper-id="88" id="ac_unmanageable-layer_1a378019_29"><text aria-hidden="true" font-style="normal" font-variant="normal" font-family="Verdana, Helvetica, Arial, sans-serif" font-size="12" font-weight="normal" letter-spacing="normal" text-decoration="none" fill="#7c868e" opacity="1" x="14.37109375" y="318">12</text></g></g><g data-ac-wrapper-id="89" id="ac_layer_1a378019_2c"><g data-ac-wrapper-id="90" id="ac_unmanageable-layer_1a378019_2b"><text aria-hidden="true" font-style="normal" font-variant="normal" font-family="Verdana, Helvetica, Arial, sans-serif" font-size="12" font-weight="normal" letter-spacing="normal" text-decoration="none" fill="#7c868e" opacity="1" x="14.37109375" y="203">16</text></g></g><g data-ac-wrapper-id="91" id="ac_layer_1a378019_2e"><g data-ac-wrapper-id="92" id="ac_unmanageable-layer_1a378019_2d"><text aria-hidden="true" font-style="normal" font-variant="normal" font-family="Verdana, Helvetica, Arial, sans-serif" font-size="12" font-weight="normal" letter-spacing="normal" text-decoration="none" fill="#7c868e" opacity="1" x="14.37109375" y="87">20</text></g></g></g><g data-ac-wrapper-id="16" transform="matrix(1,0,0,1,396.09375,10)" id="ac_layer_1a378019_6"><text data-ac-wrapper-id="17" font-style="normal" font-variant="normal" font-family="Verdana, Helvetica, Arial, sans-serif" font-size="16" font-weight="normal" fill="#7c868e" letter-spacing="normal" text-decoration="none" direction="ltr" text-anchor="middle" x="147.90625" y="16" aria-hidden="true" id="ac_text_1a378019_5" style="user-select: none; font-family: Verdana, Helvetica, Arial, sans-serif; opacity: 1;"><tspan x="147.90625" dy="0">Coastal Water Temperature </tspan><tspan x="147.90625" dy="19">in London vs Edinburgh in 2015 (°C)</tspan></text></g><g data-ac-wrapper-id="18" transform="matrix(1,0,0,1,453.9296875,58)" clip-path="url(&quot;#ac_clip_1a378019_h&quot;)" clipPathUnits="userSpaceOnUse" id="ac_layer_1a378019_j"><g data-ac-wrapper-id="19" id="ac_layer_1a378019_f"><g data-ac-wrapper-id="20" transform="matrix(1,0,0,1,10,0)" id="ac_layer_1a378019_a"><text data-ac-wrapper-id="21" font-style="normal" font-variant="normal" font-family="Verdana, Helvetica, Arial, sans-serif" font-size="12" font-weight="normal" fill="#7c868e" letter-spacing="normal" text-decoration="none" direction="ltr" text-anchor="start" x="20" y="12" aria-hidden="true" id="ac_text_1a378019_7" style="user-select: none; font-family: Verdana, Helvetica, Arial, sans-serif; opacity: 1; cursor: pointer;"><tspan x="20" dy="0">London</tspan></text><path data-ac-wrapper-id="22" id="ac_path_1a378019_8" fill="#64b5f6" fill-opacity="0.85" stroke="none" d="M 0 0 L 15 0 15 15 0 15 Z" style="cursor: pointer;"/><path data-ac-wrapper-id="23" id="ac_rect_1a378019_9" fill="#FFFFFF" fill-opacity="0.00001" stroke="none" d="M 0 0 L 63.921875 0 63.921875 15 0 15 0 0 Z" style="cursor: pointer;"/></g><g data-ac-wrapper-id="24" transform="matrix(1,0,0,1,88.921875,0)" id="ac_layer_1a378019_e"><text data-ac-wrapper-id="25" font-style="normal" font-variant="normal" font-family="Verdana, Helvetica, Arial, sans-serif" font-size="12" font-weight="normal" fill="#7c868e" letter-spacing="normal" text-decoration="none" direction="ltr" text-anchor="start" x="20" y="12" aria-hidden="true" id="ac_text_1a378019_b" style="user-select: none; font-family: Verdana, Helvetica, Arial, sans-serif; opacity: 1; cursor: pointer;"><tspan x="20" dy="0">Edinburgh</tspan></text><path data-ac-wrapper-id="26" id="ac_path_1a378019_c" fill="#1976d2" fill-opacity="0.85" stroke="none" d="M 0 0 L 15 0 15 15 0 15 Z" style="cursor: pointer;"/><path data-ac-wrapper-id="27" id="ac_rect_1a378019_d" fill="#FFFFFF" fill-opacity="0.00001" stroke="none" d="M 0 0 L 81.21875 0 81.21875 15 0 15 0 0 Z" style="cursor: pointer;"/></g></g></g></g></g></svg>