<svg xmlns="http://www.w3.org/2000/svg" width="507" height="493"><path d="M34 10h507v493H34z" class="bg"/><g class="x ticks"><g class="tick" style="display:block"><text y="11" class="x-tick-values primary tick" style="fill:#7b7b7b" transform="translate(52.653 480)"><tspan x="0" dy="0">1820</tspan></text></g><g class="tick" style="display:block"><text y="11" class="x-tick-values primary tick" style="fill:#7b7b7b" transform="translate(97.962 480)"><tspan x="0" dy="0">1840</tspan></text></g><g class="tick" style="display:block"><text y="11" class="x-tick-values primary tick" style="fill:#7b7b7b" transform="translate(143.27 480)"><tspan x="0" dy="0">1860</tspan></text></g><g class="tick" style="display:block"><text y="11" class="x-tick-values primary tick" style="fill:#7b7b7b" transform="translate(188.578 480)"><tspan x="0" dy="0">1880</tspan></text></g><g class="tick" style="display:block"><text y="11" class="x-tick-values primary tick" style="fill:#7b7b7b" transform="translate(233.886 480)"><tspan x="0" dy="0">1900</tspan></text></g><g class="tick" style="display:block"><text y="11" class="x-tick-values primary tick" style="fill:#7b7b7b" transform="translate(279.194 480)"><tspan x="0" dy="0">1920</tspan></text></g><g class="tick" style="display:block"><text y="11" class="x-tick-values primary tick" style="fill:#7b7b7b" transform="translate(324.503 480)"><tspan x="0" dy="0">1940</tspan></text></g><g class="tick" style="display:block"><text y="11" class="x-tick-values primary tick" style="fill:#7b7b7b" transform="translate(369.81 480)"><tspan x="0" dy="0">1960</tspan></text></g><g class="tick" style="display:block"><text y="11" class="x-tick-values primary tick" style="fill:#7b7b7b" transform="translate(415.119 480)"><tspan x="0" dy="0">1980</tspan></text></g><g class="tick" style="display:block"><text y="11" class="x-tick-values primary tick" style="fill:#7b7b7b" transform="translate(460.427 480)"><tspan x="0" dy="0">2000</tspan></text></g></g><path d="M0 0h470v1.86H0z" class="free-range" style="fill:#000;opacity:.16" transform="translate(34 241.57)"/><g class="y-grid"><g class="tick tick-major"><text class="y-tick-values tick secondary" style="fill:#a6a6a6" transform="translate(30 479)">0%</text></g><g class="tick tick-major"><path d="M0 0h470" class="y-gridline" style="stroke:#e8e8e8" transform="translate(34 428.5)"/><text class="y-tick-values tick secondary" style="fill:#a6a6a6" transform="translate(30 432.5)">10%</text></g><g class="tick tick-major"><path d="M0 0h470" class="y-gridline" style="stroke:#e8e8e8" transform="translate(34 382)"/><text class="y-tick-values tick secondary" style="fill:#a6a6a6" transform="translate(30 386)">20%</text></g><g class="tick tick-major"><path d="M0 0h470" class="y-gridline" style="stroke:#e8e8e8" transform="translate(34 335.5)"/><text class="y-tick-values tick secondary" style="fill:#a6a6a6" transform="translate(30 339.5)">30%</text></g><g class="tick tick-major"><path d="M0 0h470" class="y-gridline" style="stroke:#e8e8e8" transform="translate(34 289)"/><text class="y-tick-values tick secondary" style="fill:#a6a6a6" transform="translate(30 293)">40%</text></g><g class="tick tick-major"><path d="M0 0h470" class="y-gridline" style="stroke:#e8e8e8" transform="translate(34 242.5)"/><text class="y-tick-values tick secondary" style="fill:#a6a6a6" transform="translate(30 246.5)">50%</text></g><g class="tick tick-major"><path d="M0 0h470" class="y-gridline" style="stroke:#e8e8e8" transform="translate(34 196)"/><text class="y-tick-values tick secondary" style="fill:#a6a6a6" transform="translate(30 200)">60%</text></g><g class="tick tick-major"><path d="M0 0h470" class="y-gridline" style="stroke:#e8e8e8" transform="translate(34 149.5)"/><text class="y-tick-values tick secondary" style="fill:#a6a6a6" transform="translate(30 153.5)">70%</text></g><g class="tick tick-major"><path d="M0 0h470" class="y-gridline" style="stroke:#e8e8e8" transform="translate(34 103)"/><text class="y-tick-values tick secondary" style="fill:#a6a6a6" transform="translate(30 107)">80%</text></g><g class="tick tick-major"><path d="M0 0h470" class="y-gridline" style="stroke:#e8e8e8" transform="translate(34 56.5)"/><text class="y-tick-values tick secondary" style="fill:#a6a6a6" transform="translate(30 60.5)">90%</text></g><g class="tick tick-major"><path d="M0 0h470" class="y-gridline" style="stroke:#e8e8e8" transform="translate(34 10)"/><text class="y-tick-values tick secondary" style="fill:#a6a6a6" transform="translate(30 14)">100%</text></g></g><path d="M9.592 465H460.408V205.512l-2.265 13.172-2.266-10.632-2.265.366-2.265-1.47-2.266 5.764-2.265 11.334-2.266-4.034-2.265 2.505-2.266-20.93-2.265-2.704-2.265.595-2.266 1.973-2.265-1.68-2.266.583-2.265 3.894-2.265 12.056-2.266 6.628-2.265-.089-2.266 7.532-2.265 1.77-2.265-1.182-2.266 4.869-2.265-2.675-2.266 10.902-2.265 19.48-2.265 9.467-2.266-.365-2.265 12.91-2.266 4.71-2.265 1.356-2.266 12.524-2.265-7.99-2.265 7.345-2.266-.869-2.265-1.365-2.266-2.978-2.265 9.54-2.265 4.402-2.266-8.19-2.265-2.133-2.266.773-2.265-8.528-2.265 13.407-2.266 7.78-2.265-5.406-2.266-.696-2.265 2.614-2.265-.418-2.266-.912-2.265-8.603-2.266 1.072-2.265.839-2.265-1.177-2.266-1.788-2.265-14.978-2.266 15.321-2.265.36-2.266-4.427-2.265 3.615-2.265 8.018-2.266-.315-2.265-3.734-2.266-.332-2.265 15.135-2.265-.587-2.266 2.149-2.265-1.671-2.266 4.992-2.265 66.825-2.265 22.28-2.266 3.408-2.265 4.024-2.266.287-2.265.151-2.265.053-2.266-11.738-2.265-6.98-2.266-.191-2.265-.299-2.266-1.78-2.265-.352-2.265-.955-2.266-16.294-2.265-.52-2.266 4.067-2.265-.282-2.265-.353-2.266-.27-2.265-.21-2.266-6.523-2.265-.015-2.265.193-2.266-5.095-2.265.1-2.266-.153-2.265 1.965-2.265 16.436-2.266 5.827-2.265 2.621-2.266-.052-2.265.535-2.266-.089-2.265.46-2.265.306-2.266 2.682-2.265.469-2.266.426-2.265.42-2.265.377-2.266.38-2.265.349-2.266.357-2.265.337-2.265.366-2.266 1.38-2.265 5.504-2.266.285-2.265.92-2.265.313-2.266.299-2.265.292-2.266.3-2.265.299-2.266.296-2.265.279-2.265.338-2.266.303-2.265 1.738-2.266.29-2.265-.624-2.265.343-2.266.364-2.265.358-2.266.368-2.265.39-2.265 10.011-2.266.262-2.265.274-2.266.416-2.265 12.518-2.265.343-2.266.296-2.265.294-2.266.297-2.265.243-2.266.245-2.265.22-2.265.233-2.266 1.023-2.265.235-2.266.238-2.265 1.42-2.265.239-2.266.24-2.265.242-2.266.237-2.265.24-2.265.241-2.266.286-2.265.247-2.266.25-2.265.216-2.265 1.93-2.266.253-2.265-13.126-2.266.168-2.265.164-2.265 14.488-2.266.187-2.265.19-2.266.192-2.265.194-2.266.196-2.265.198-2.265.201-2.266.134-2.265.13-2.266.131-2.265.133-2.265.134-2.266.136-2.265.137-2.266.14-2.265.14-2.265.143-2.266.11-2.265.107-2.266.11-2.265.109-2.265.111-2.266.113-2.265.114-2.266.116-2.265.117-2.266.115-2.265.061-2.265.06-2.266.06-2.265.059Z" class="area" style="opacity:.66;fill:#15607a" transform="translate(34 10)"/><path d="m9.592 460.952 2.265-.06 2.266-.059 2.265-.06 2.265-.06 2.266-.116 2.265-.117 2.266-.116 2.265-.114 2.266-.113 2.265-.111 2.265-.109 2.266-.11 2.265-.108 2.266-.11 2.265-.142 2.265-.14 2.266-.14 2.265-.137 2.266-.136 2.265-.134 2.265-.133 2.266-.131 2.265-.13 2.266-.134 2.265-.2 2.265-.2 2.266-.195 2.265-.194 2.266-.192 2.265-.19 2.266-.187 2.265-14.488 2.265-.164 2.266-.168 2.265 13.126 2.266-.253 2.265-1.93 2.265-.216 2.266-.25 2.265-.247 2.266-.286 2.265-.241 2.265-.24 2.266-.237 2.265-.243 2.266-.24 2.265-.237 2.265-1.421 2.266-.238 2.265-.235 2.266-1.023 2.265-.233 2.265-.22 2.266-.245 2.265-.243 2.266-.297 2.265-.294 2.266-.296 2.265-.343 2.265-12.518 2.266-.416 2.265-.274 2.266-.262 2.265-10.01 2.265-.391 2.266-.368 2.265-.358 2.266-.364 2.265-.343 2.265.625 2.266-.29 2.265-1.739 2.266-.303 2.265-.338 2.265-.279 2.266-.296 2.265-.3 2.266-.3 2.265-.291 2.266-.3 2.265-.312 2.265-.92 2.266-.285 2.265-5.504 2.266-1.38 2.265-.366 2.265-.337 2.266-.357 2.265-.35 2.266-.379 2.265-.378 2.265-.42 2.266-.425 2.265-.469 2.266-2.682 2.265-.307 2.265-.459 2.266.09 2.265-.536 2.266.052 2.265-2.62 2.266-5.828 2.265-16.436 2.265-1.965 2.266.153 2.265-.1 2.266 5.095 2.265-.193 2.265.015 2.266 6.523 2.265.21 2.266.27 2.265.353 2.265.282 2.266-4.067 2.265.52 2.266 16.294 2.265.955 2.265.353 2.266 1.779 2.265.299 2.266.191 2.265 6.98 2.266 11.738 2.265-.053 2.265-.151 2.266-.287 2.265-4.024 2.266-3.408 2.265-22.28 2.265-66.825 2.266-4.992 2.265 1.67 2.266-2.148 2.265.587 2.265-15.135 2.266.332 2.265 3.734 2.266.315 2.265-8.018 2.265-3.615 2.266 4.427 2.265-.36 2.266-15.321 2.265 14.978 2.266 1.788 2.265 1.177 2.265-.839 2.266-1.072 2.265 8.603 2.266.912 2.265.418 2.265-2.614 2.266.696 2.265 5.406 2.266-7.78 2.265-13.407 2.265 8.528 2.266-.773 2.265 2.133 2.266 8.19 2.265-4.402 2.265-9.54 2.266 2.978 2.265 1.365 2.266.87 2.265-7.346 2.265 7.99 2.266-12.524 2.265-1.357 2.266-4.709 2.265-12.91 2.266.365 2.265-9.467 2.265-19.48 2.266-10.902 2.265 2.675 2.266-4.87 2.265 1.184 2.265-1.77 2.266-7.533 2.265.089 2.266-6.628 2.265-12.056 2.265-3.894 2.266-.583 2.265 1.68 2.266-1.973 2.265-.595 2.265 2.704 2.266 20.93 2.265-2.505 2.266 4.034 2.265-11.334 2.266-5.763 2.265 1.47 2.265-.367 2.266 10.632 2.265-13.172-2.265 13.172-2.266-10.632-2.265.366-2.265-1.47-2.266 5.764-2.265 11.334-2.266-4.034-2.265 2.505-2.266-20.93-2.265-2.704-2.265.595-2.266 1.973-2.265-1.68-2.266.583-2.265 3.894-2.265 12.056-2.266 6.628-2.265-.089-2.266 7.532-2.265 1.77-2.265-1.182-2.266 4.869-2.265-4-2.266 10.609-2.265 6.393-2.265 9.196-2.266-.498-2.265 12.785-2.266 4.59-2.265 1.236-2.266 12.405-2.265-8.111-2.265 7.224-2.266-.99-2.265-1.5-2.266-3.097-2.265 9.42-2.265 4.282-2.266-8.336-2.265-2.25-2.266-1.669-2.265-8.631-2.265 13.223-2.266 7.668-2.265-13.984-2.266-.816-2.265 2.535-2.265-.55-2.266-1.715-2.265-8.908-2.266.417-2.265-.158-2.265-2.393-2.266-4.873-2.265-17.18-2.266-.595-2.265.554-2.266-4.786-2.265 1.618-2.265 4.485-2.266-.103-2.265-3.545-2.266-1.3-2.265 15.252-2.265-.523-2.266 1.767-2.265-1.807-2.266 3.62-2.265-10.51-2.265 22.96-2.266.966-2.265 1.329-2.266 1.108-2.265-12.427-2.265 5.169-2.266-10.84-2.265-6.255-2.266.38-2.265.143-2.266-1.464-2.265-2.802-2.265-.735-2.266-16.127-2.265-.382-2.266 4.06-2.265-.32-2.265-.91-2.266-.774-2.265-.688-2.266-6.991-2.265-.414-2.265-1.166-2.266-5.33-2.265-3.455-2.266 6.65-2.265.85-2.265 9.27-2.266-1.324-2.265 1.664-2.266.009-2.265-.792-2.266 2.332-2.265 1.722-2.265.475-2.266 5.561-2.265-.864-2.266.603-2.265.57-2.265.497-2.266.508-2.265.495-2.266.465-2.265.36-2.265-.026-2.266.493-2.265 5.69-2.266.486-2.265 1.132-2.265.524-2.266.455-2.265.49-2.266.493-2.265.31-2.266.486-2.265.386-2.265 1.564-2.266.48-2.265 1.951-2.266.52-2.265.808-2.265.621-2.266 1.506-2.265.924-2.266.515-2.265.577-2.265 10.274-2.266-.488-2.265.545-2.266.64-2.265 12.69-2.265.522-2.266.527-2.265.547-2.266.589-2.265.479-2.266.766-2.265.276-2.265.284-2.266-2.097-2.265.303-2.266.32-2.265 1.495-2.265.31-2.266.318-2.265-8.807-2.266.35-2.265-2.638-2.265.368-2.266.366-2.265.365-2.266.363-2.265.313-2.265 2.014-2.266.32-2.265-13.128-2.266.125-2.265.118-2.265 14.381-2.266.149-2.265.222-2.266.228-2.265.184-2.266.226-2.265.232-2.265.247-2.266.17-2.265.162-2.266.165-2.265.16-2.265.163-2.266.16-2.265.163-2.266.167-2.265.167-2.265.178-2.266-2.568-2.265-.19-2.266.142-2.265-.806-2.265.177-2.266.183-2.265-.289-2.266.191-2.265-1.76-2.266-2.466-2.265-.725-2.265-.411-2.266.722-2.265-.735Z" class="area" style="opacity:.66;fill:#4a9fc2" transform="translate(34 10)"/><path d="m9.592 284.172 2.265.735 2.266-.722 2.265.41 2.265.726 2.266 2.465 2.265 1.761 2.266-.191 2.265.289 2.266-.183 2.265-.177 2.265.806 2.266-.141 2.265.189 2.266 2.568 2.265-.178 2.265-.167 2.266-.167 2.265-.163 2.266-.16 2.265-.162 2.265-.161 2.266-.165 2.265-.163 2.266-.17 2.265-.246 2.265-.232 2.266-.226 2.265-.184 2.266-.228 2.265-.222 2.266-.149 2.265-14.381 2.265-.118 2.266-.125 2.265 13.128 2.266-.32 2.265-2.014 2.265-.313 2.266-.363 2.265-.365 2.266-.366 2.265-.368 2.265 2.637 2.266-.349 2.265 8.807 2.266-.317 2.265-.31 2.265-1.495 2.266-.32 2.265-.304 2.266 2.097 2.265-.284 2.265-.276 2.266-.766 2.265-.48 2.266-.588 2.265-.547 2.266-.527 2.265-.522 2.265-12.69 2.266-.64 2.265-.545 2.266.488 2.265-10.274 2.265-.577 2.266-.515 2.265-.924 2.266-1.506 2.265-.62 2.265-.809 2.266-.52 2.265-1.952 2.266-.48 2.265-1.563 2.265-.386 2.266-.486 2.265-.31 2.266-.493 2.265-.49 2.266-.455 2.265-.524 2.265-1.132 2.266-.485 2.265-5.691 2.266-.493 2.265.027 2.265-.36 2.266-.466 2.265-.495 2.266-.508 2.265-.497 2.265-.57 2.266-.603 2.265.864 2.266-5.56 2.265-.476 2.265-1.722 2.266-2.332 2.265.792 2.266-.01 2.265-1.663 2.266 1.325 2.265-9.272 2.265-.849 2.266-6.65 2.265 3.454 2.266 5.33 2.265 1.167 2.265.414 2.266 6.991 2.265.688 2.266.775 2.265.91 2.265.32 2.266-4.06 2.265.38 2.266 16.128 2.265.735 2.265 2.802 2.266 1.464 2.265-.143 2.266-.38 2.265 6.254 2.266 10.84 2.265-5.168 2.265 12.427 2.266-1.108 2.265-1.329 2.266-.967 2.265-22.96 2.265 10.512 2.266-3.621 2.265 1.807 2.266-1.767 2.265.523 2.265-15.252 2.266 1.3 2.265 3.545 2.266.103 2.265-4.485 2.265-1.618 2.266 4.786 2.265-.554 2.266.595 2.265 17.18 2.266 4.873 2.265 2.393 2.265.158 2.266-.417 2.265 8.908 2.266 1.715 2.265.55 2.265-2.535 2.266.816 2.265 13.984 2.266-7.668 2.265-13.223 2.265 8.631 2.266 1.668 2.265 2.25 2.266 8.337 2.265-4.282 2.265-9.42 2.266 3.098 2.265 1.5 2.266.989 2.265-7.224 2.265 8.11 2.266-12.404 2.265-1.237 2.266-4.589 2.265-12.785 2.266.498 2.265-9.196 2.265-6.393 2.266-10.609 2.265 4 2.266-4.87 2.265 1.184 2.265-1.77 2.266-7.533 2.265.089 2.266-6.628 2.265-12.056 2.265-3.894 2.266-.583 2.265 1.68 2.266-1.973 2.265-.595 2.265 2.704 2.266 20.93 2.265-2.505 2.266 4.034 2.265-11.334 2.266-5.763 2.265 1.47 2.265-.367 2.266 10.632 2.265-13.172v-19.205l-2.265 16.77-2.266-12.431-2.265.838-2.265.653-2.266 6.181-2.265 9.66-2.266-3.614-2.265 2.88-2.266-20.579-2.265-3.118-2.265.616-2.266 2.235-2.265.486-2.266.707-2.265 5.754-2.265 12.079-2.266 6.6-2.265-.14-2.266 7.496-2.265 1.78-2.265-1.121-2.266 9.448-2.265-4.187-2.266-.966-2.265 6.201-2.265 1.674-2.266-1.564-2.265 12.022-2.266 4.591-2.265 1.177-2.266 12.262-2.265-8.33-2.265 6.947-2.266-1.29-2.265-1.784-2.266-4.699-2.265 12.708-2.265 4.02-2.266-14.299-2.265-2.556-2.266-2.064-2.265-9.057-2.265 12.926-2.266-1.133-2.265-6.085-2.266-2.013-2.265 2.022-2.265-1.15-2.266-1.325-2.265-9.146-2.266.727-2.265-.025-2.265-1.953-2.266-4.788-2.265-17.788-2.266-1.675-2.265-.782-2.266-4.397-2.265.625-2.265 6.41-2.266-.44-2.265-4.18-2.266-1.324-2.265-.334-2.265-1.335-2.266-.007-2.265-2.263-2.266-3.486-2.265-6.867-2.265 21.771-2.266 13.173-2.265.049-2.266-.514-2.265-6.913-2.265 7.123-2.266-8.362-2.265-5.382-2.266.068-2.265.162-2.266 2.08-2.265-2.29-2.265.034-2.266-15.468-2.265.31-2.266 4.774-2.265.741-2.265.726-2.266.465-2.265.637-2.266-6.34-2.265.095-2.265-.303-2.266 14.577-2.265-6.59-2.266-1.043-2.265-.598-2.265 17.55-2.266 2.35-2.265-3.376-2.266 3.822-2.265-.691-2.266-1.097-2.265 1.136-2.265-1.13-2.266.942-2.265-2.193-2.266-.648-2.265-.764-2.265-.44-2.266-.513-2.265-.517-2.266-.539-2.265-.632-2.265-1.052-2.266-.517-2.265 4.829-2.266-.437-2.265.163-2.265-.448-2.266-.402-2.265-.413-2.266-.374-2.265-.337-2.266-.343-2.265-.346-2.265-.08-2.266-.165-2.265 1.295-2.266-.108-2.265-1.03-2.265-.094-2.266-.136-2.265-1.041-2.266-.078-2.265.857-2.265 9.63-2.266-1.123-2.265-.14-2.266-.058-2.265 12.037-2.265-.042-2.266-.084-2.265-.07-2.266.078-2.265.29-2.266 1.182-2.265.874-2.265-11.884-2.266-1.386-2.265 1.09-2.266 1.067-2.265-.712-2.265 4.069-2.266 1.124-2.265-7.988-2.266 1.686-2.265-1.269-2.265 1.61-2.266 1.79-2.265 1.794-2.266.223-2.265 1.727-2.265 3.532-2.266 2.047-2.265-11.353-2.266.703-2.265.722-2.265 11.384-2.266.605-2.265 3.498-2.266.663-2.265.615-2.266.688-2.265.178-2.265 1.064-2.266.578-2.265.198-2.266.443-2.265.576-2.265.595-2.266.563-2.265.645-2.266.623-2.265.017-2.265.614-2.266-3.578-2.265-.46-2.266-.47-2.265-1.492-2.265-.492-2.266-1.239-2.265-2.513-2.266-.493-2.265-3.324-2.266-1.06-2.265-2.18-2.265-.458-2.266-.8-2.265-.473Z" class="area" style="opacity:.66;fill:#ccc" transform="translate(34 10)"/><path d="m9.592 232.173 2.265.472 2.266.8 2.265.459 2.265 2.18 2.266 1.06 2.265 3.324 2.266.493 2.265 2.513 2.266 1.239 2.265.492 2.265 1.493 2.266.468 2.265.461 2.266 3.578 2.265-.614 2.265-.017 2.266-.623 2.265-.645 2.266-.563 2.265-.595 2.265-.576 2.266-.443 2.265-.198 2.266-.578 2.265-1.064 2.265-.178 2.266-.688 2.265-.615 2.266-.663 2.265-3.498 2.266-.605 2.265-11.384 2.265-.722 2.266-.703 2.265 11.353 2.266-2.047 2.265-3.532 2.265-1.727 2.266-.223 2.265-1.794 2.266-1.79 2.265-1.61 2.265 1.27 2.266-1.687 2.265 7.988 2.266-1.124 2.265-4.069 2.265.712 2.266-1.068 2.265-1.089 2.266 1.386 2.265 11.884 2.265-.874 2.266-1.182 2.265-.29 2.266-.078 2.265.07 2.266.084 2.265.042 2.265-12.037 2.266.059 2.265.139 2.266 1.122 2.265-9.63 2.265-.856 2.266.078 2.265 1.04 2.266.137 2.265.094 2.265 1.03 2.266.108 2.265-1.295 2.266.166 2.265.08 2.265.345 2.266.343 2.265.337 2.266.374 2.265.413 2.266.402 2.265.448 2.265-.163 2.266.437 2.265-4.829 2.266.517 2.265 1.052 2.265.632 2.266.54 2.265.516 2.266.513 2.265.44 2.265.764 2.266.648 2.265 2.193 2.266-.942 2.265 1.13 2.265-1.136 2.266 1.097 2.265.69 2.266-3.82 2.265 3.374 2.266-2.35 2.265-17.55 2.265.6 2.266 1.041 2.265 6.59 2.266-14.576 2.265.303 2.265-.096 2.266 6.34 2.265-.636 2.266-.465 2.265-.726 2.265-.741 2.266-4.774 2.265-.31 2.266 15.468 2.265-.033 2.265 2.289 2.266-2.08 2.265-.162 2.266-.068 2.265 5.382 2.266 8.362 2.265-7.123 2.265 6.913 2.266.514 2.265-.049 2.266-13.173 2.265-21.77 2.265 6.866 2.266 3.486 2.265 2.263 2.266.007 2.265 1.335 2.265.334 2.266 1.324 2.265 4.18 2.266.44 2.265-6.41 2.265-.625 2.266 4.397 2.265.782 2.266 1.675 2.265 17.788 2.266 4.788 2.265 1.953 2.265.025 2.266-.727 2.265 9.146 2.266 1.325 2.265 1.15 2.265-2.022 2.266 2.013 2.265 6.085 2.266 1.133 2.265-12.926 2.265 9.057 2.266 2.064 2.265 2.556 2.266 14.3 2.265-4.021 2.265-12.708 2.266 4.7 2.265 1.782 2.266 1.29 2.265-6.946 2.265 8.33 2.266-12.262 2.265-1.177 2.266-4.591 2.265-12.022 2.266 1.564 2.265-1.674 2.265-6.201 2.266.966 2.265 4.187 2.266-9.448 2.265 1.12 2.265-1.78 2.266-7.495 2.265.14 2.266-6.6 2.265-12.08 2.265-5.753 2.266-.707 2.265-.486 2.266-2.235 2.265-.616 2.265 3.118 2.266 20.578 2.265-2.879 2.266 3.614 2.265-9.66 2.266-6.181 2.265-.653 2.265-.838 2.266 12.431 2.265-16.77v-50.438l-2.265 7.496-2.266-8.034-2.265 3.46-2.265 3.288-2.266 3.755-2.265 1.311-2.266 6.94-2.265 4.848-2.266 1.903-2.265-2.599-2.265 1.393-2.266-2.352-2.265 6.195-2.266-.05-2.265 2.138-2.265 1.27-2.266 15.976-2.265.856-2.266 3.558-2.265.35-2.265-1.037-2.266 14.411-2.265.833-2.266 6.978-2.265.44-2.265 5.877-2.266 2.713-2.265 8.209-2.266 2.377-2.265 7.218-2.266 11.321-2.265-8.738-2.265 7.022-2.266.465-2.265-1.694-2.266-5.513-2.265 14.573-2.265 4.886-2.266-13.549-2.265-4.396-2.266-1.909-2.265-3.856-2.265 5.359-2.266-3.419-2.265-10.64-2.266-9.825-2.265 2.97-2.265-2.359-2.266-2.468-2.265-9.68-2.266.806-2.265-12.233-2.265 4.546-2.266.988-2.265-7.084-2.266-6.901-2.265.8-2.266-7.965-2.265.566-2.265 1.215-2.266.329-2.265-.447-2.266-1.093-2.265-5.201-2.265-1.759-2.266-12.62-2.265-1.071-2.266.515-2.265-6.174-2.265 26.531-2.266 16.183-2.265 3.817-2.266-2.92-2.265-6.605-2.265 3.245-2.266-8.39-2.265-3.976-2.266.197-2.265 3.357-2.266 1.453-2.265 4.4-2.265-.1-2.266-14.158-2.265.373-2.266-.069-2.265 2.107-2.265-2.697-2.266-.91-2.265.795-2.266-5.127-2.265.458-2.265-1.272-2.266 14.761-2.265-4.443-2.266-.438-2.265-.47-2.265-1.182-2.266 4.505-2.265-2.087-2.266 2.473-2.265-.365-2.266-2.12-2.265-112.012-2.265 112.717-2.266-.956-2.265 1.45-2.266-.303-2.265 1.273-2.265-.145-2.266-.244-2.265-.237-2.266.352-2.265.926-2.265-.234-2.266-.217-2.265-.537-2.266-.165-2.265.828-2.265-.186-2.266-.553-2.265-.2-2.266-.064-2.265-.2-2.266-.204-2.265-.199-2.265 14.18-2.266-.048-2.265-.044-2.266-.034-2.265-.007-2.265-.013-2.266-.19-2.265-.934-2.266.011-2.265.952-2.265 1.33-2.266 4.688-2.265-.003-2.266-.055-2.265-.065-2.265.01-2.266.67-2.265-5.324-2.266 12.527-2.265 5.747-2.266 1.242-2.265.936-2.265-.33-2.266-.084-2.265.542-2.266 1.14-2.265-1.827-2.265 5.32-2.266 1.2-2.265-7.919-2.266.978-2.265-1.199-2.265.624-2.266 1.86-2.265 1.889-2.266 2.032-2.265 1.795-2.265 3.598-2.266 2.108-2.265-11.377-2.266.684-2.265 1.25-2.265 11.342-2.266.74-2.265 3.557-2.266.723-2.265.68-2.266.742-2.265-1.186-2.265 1.151-2.266.636-2.265.257-2.266 1.483-2.265 8.52-2.265 2.037-2.266-.07-2.265.659-2.266.635-2.265.627-2.265.62-2.266-3.572-2.265-.456-2.266-.463-2.265-1.487-2.265.105-2.266-1.239-2.265-2.513-2.266-.493-2.265-3.324-2.266-1.06-2.265-2.18-2.265-.458-2.266-.8-2.265-.473Z" class="area" style="opacity:.66;fill:#ffca76" transform="translate(34 10)"/><path d="m9.592 232.173 2.265.472 2.266.8 2.265.459 2.265 2.18 2.266 1.06 2.265 3.324 2.266.493 2.265 2.513 2.266 1.239 2.265-.105 2.265 1.487 2.266.463 2.265.456 2.266 3.572 2.265-.62 2.265-.627 2.266-.635 2.265-.659 2.266.07 2.265-2.036 2.265-8.52 2.266-1.484 2.265-.257 2.266-.636 2.265-1.151 2.265 1.186 2.266-.742 2.265-.68 2.266-.723 2.265-3.558 2.266-.74 2.265-11.34 2.265-1.25 2.266-.685 2.265 11.377 2.266-2.108 2.265-3.598 2.265-1.795 2.266-2.032 2.265-1.889 2.266-1.86 2.265-.624 2.265 1.199 2.266-.978 2.265 7.919 2.266-1.2 2.265-5.32 2.265 1.827 2.266-1.14 2.265-.542 2.266.085 2.265.329 2.265-.936 2.266-1.242 2.265-5.747 2.266-12.527 2.265 5.324 2.266-.67 2.265-.01 2.265.065 2.266.055 2.265.003 2.266-4.688 2.265-1.33 2.265-.952 2.266-.011 2.265.935 2.266.189 2.265.013 2.265.007 2.266.034 2.265.044 2.266.048 2.265-14.18 2.265.2 2.266.203 2.265.2 2.266.064 2.265.2 2.266.553 2.265.186 2.265-.828 2.266.165 2.265.537 2.266.217 2.265.234 2.265-.926 2.266-.352 2.265.237 2.266.244 2.265.145 2.265-1.273 2.266.302 2.265-1.449 2.266.956 2.265-112.717 2.265 112.012 2.266 2.12 2.265.365 2.266-2.473 2.265 2.087 2.266-4.505 2.265 1.182 2.265.47 2.266.438 2.265 4.443 2.266-14.761 2.265 1.272 2.265-.458 2.266 5.127 2.265-.796 2.266.911 2.265 2.697 2.265-2.107 2.266.07 2.265-.374 2.266 14.157 2.265.1 2.265-4.399 2.266-1.453 2.265-3.357 2.266-.197 2.265 3.977 2.266 8.389 2.265-3.245 2.265 6.606 2.266 2.919 2.265-3.817 2.266-16.183 2.265-26.531 2.265 6.174 2.266-.515 2.265 1.072 2.266 12.62 2.265 1.758 2.265 5.201 2.266 1.093 2.265.447 2.266-.329 2.265-1.215 2.265-.566 2.266 7.965 2.265-.8 2.266 6.901 2.265 7.084 2.266-.988 2.265-4.546 2.265 12.233 2.266-.806 2.265 9.68 2.266 2.468 2.265 2.359 2.265-2.97 2.266 9.826 2.265 10.64 2.266 3.418 2.265-5.359 2.265 3.856 2.266 1.91 2.265 4.395 2.266 13.55 2.265-4.887 2.265-14.573 2.266 5.513 2.265 1.694 2.266-.465 2.265-7.022 2.265 8.738 2.266-11.321 2.265-7.218 2.266-2.377 2.265-8.209 2.266-2.713 2.265-5.877 2.265-.44 2.266-6.978 2.265-.833 2.266-14.41 2.265 1.035 2.265-.349 2.266-3.558 2.265-.856 2.266-15.975 2.265-1.27 2.265-2.139 2.266.05 2.265-6.195 2.266 2.352 2.265-1.393 2.265 2.599 2.266-1.903 2.265-4.848 2.266-6.94 2.265-1.31 2.266-3.756 2.265-3.288 2.265-3.46 2.266 8.034 2.265-7.496v-27.85l-2.265.686-2.266.678-2.265.665-2.265.647-2.266 6.33-2.265.7-2.266 10.593-2.265.594-2.266-9.442-2.265 2.533-2.265 8.262-2.266-4.438-2.265 2.402-2.266 8.555-2.265 2.33-2.265.838-2.266-7.535-2.265 26.66-2.266 4.383-2.265-3.07-2.265 1.838-2.266 2.891-2.265-6.985-2.266 5.854-2.265 11.636-2.265 2.427-2.266 13.744-2.265 1.776-2.266 1.38-2.265 12.303-2.266 10.947-2.265-8.876-2.265 2.44-2.266-13.152-2.265 4.102-2.266-.64-2.265 6.603-2.265 21.638-2.266-2.741-2.265-9.184-2.266-11.546-2.265 17.351-2.265 4.778-2.266-10.614-2.265-8.08-2.266-.063-2.265-1.87-2.265.794-2.266-3.546-2.265-25.965-2.266-14.189-2.265-1.367-2.265 4.476-2.266.954-2.265-5.686-2.266-6.516-2.265.566-2.266-12.927-2.265-.172-2.265 5.311-2.266 3.998-2.265-5.414-2.266-.16-2.265-8.276-2.265-3.172-2.266 2.745-2.265-104.262-2.266-1.45-2.265-6.165-2.265-1.514-2.266 21.251-2.265 8.08-2.266 7.357-2.265-.282-2.265 5.679-2.266-8.822-2.265 1.092-2.266-1.984-2.265 4.89-2.266-2.073-2.265-6.391-2.265 3.326-2.266-14.416-2.265-7.717-2.266.455-2.265-4.8-2.265-2.788-2.266-.493-2.265.021-2.266.763-2.265-10.998-2.265-3.237-2.266-8.729-2.265-.035-2.266.385-2.265.791-2.265-.026-2.266-.793-2.265 19.282-2.266-.1-2.265-.11-2.266-1.349-2.265 2.451-2.265-.12-2.266 116.264-2.265 3.053-2.266-1.035-2.265 5.368-2.265-1.673-2.266 2.786-2.265-.067-2.266-.061-2.265-.28-2.265-.056-2.266-.058-2.265-.398-2.266-.015-2.265-.021-2.265-.027-2.266-.023-2.265-.06-2.266-1.115-2.265-.052-2.266-.057-2.265-.06-2.265.173-2.266 4.3-2.265.112-2.266.11-2.265.107-2.265.104-2.266.102-2.265 1.058-2.266.089-2.265-.855-2.265 2.089-2.266.142-2.265.144-2.266-3.786-2.265.405-2.265.162-2.266.161-2.265.738-2.266.656-2.265.16-2.266 1.268-2.265 26.995-2.265-6.366-2.266 1.2-2.265-1.784-2.266 1.223-2.265.733-2.265 1.241-2.266 12.867-2.265 2.783-2.266 2.892-2.265-3.636-2.265.817-2.266 1.913-2.265 1.945-2.266 1.843-2.265 1.972-2.265 2.005-2.266-11.332-2.265 2.04-2.266.744-2.265 1.3-2.265 1.91-2.266.772-2.265 2.378-2.266.768-2.265.774-2.266.785-2.265.786-2.265.793-2.266.689-2.265.693-2.266 1.677-2.265.677-2.265 6.068-2.266.685-2.265.688-2.266.696-2.265.702-2.265.7-2.266-1.322-2.265-.369-2.266-.375-2.265-.382-2.265-.395-2.266-.402-2.265-2.407-2.266-5.648-2.265-.376-2.266-.379-2.265 4.833-2.265-.416-2.266-.421-2.265-.428Z" class="area" style="opacity:.66;fill:#fa8c00" transform="translate(34 10)"/><path d="m9.592 211.97 2.265.429 2.266.421 2.265.416 2.265-4.833 2.266.379 2.265.376 2.266 5.648 2.265 2.407 2.266.402 2.265.395 2.265.382 2.266.375 2.265.369 2.266 1.322 2.265-.7 2.265-.702 2.266-.696 2.265-.688 2.266-.685 2.265-6.068 2.265-.677 2.266-1.677 2.265-.693 2.266-.69 2.265-.792 2.265-.786 2.266-.785 2.265-.774 2.266-.768 2.265-2.378 2.266-.772 2.265-1.91 2.265-1.3 2.266-.743 2.265-2.04 2.266 11.33 2.265-2.004 2.265-1.972 2.266-1.843 2.265-1.945 2.266-1.913 2.265-.817 2.265 3.636 2.266-2.892 2.265-2.783 2.266-12.867 2.265-1.241 2.265-.733 2.266-1.223 2.265 1.784 2.266-1.2 2.265 6.366 2.265-26.995 2.266-1.268 2.265-.16 2.266-.656 2.265-.738 2.266-.161 2.265-.162 2.265-.405 2.266 3.786 2.265-.144 2.266-.142 2.265-2.089 2.265.855 2.266-.09 2.265-1.057 2.266-.102 2.265-.104 2.265-.107 2.266-.11 2.265-.112 2.266-4.3 2.265-.174 2.265.061 2.266.057 2.265.052 2.266 1.115 2.265.06 2.266.023 2.265.027 2.265.021 2.266.015 2.265.398 2.266.058 2.265.055 2.265.28 2.266.062 2.265.067 2.266-2.786 2.265 1.673 2.265-5.368 2.266 1.035 2.265-3.053 2.266-116.264 2.265.12 2.265-2.451 2.266 1.35 2.265.109 2.266.1 2.265-19.282 2.266.793 2.265.026 2.265-.791 2.266-.385 2.265.035 2.266 8.73 2.265 3.236 2.265 10.998 2.266-.763 2.265-.021 2.266.493 2.265 2.787 2.265 4.801 2.266-.455 2.265 7.717 2.266 14.416 2.265-3.326 2.265 6.39 2.266 2.075 2.265-4.891 2.266 1.984 2.265-1.092 2.266 8.822 2.265-5.68 2.265.283 2.266-7.358 2.265-8.079 2.266-21.251 2.265 1.514 2.265 6.165 2.266 1.45 2.265 104.262 2.266-2.745 2.265 3.172 2.265 8.275 2.266.16 2.265 5.415 2.266-3.998 2.265-5.31 2.265.171 2.266 12.927 2.265-.566 2.266 6.516 2.265 5.686 2.266-.954 2.265-4.476 2.265 1.367 2.266 14.19 2.265 25.964 2.266 3.546 2.265-.794 2.265 1.87 2.266.062 2.265 8.08 2.266 10.615 2.265-4.778 2.265-17.351 2.266 11.546 2.265 9.184 2.266 2.741 2.265-21.638 2.265-6.603 2.266.64 2.265-4.102 2.266 13.151 2.265-2.439 2.265 8.876 2.266-10.947 2.265-12.303 2.266-1.38 2.265-1.776 2.266-13.744 2.265-2.427 2.265-11.636 2.266-5.854 2.265 6.985 2.266-2.891 2.265-1.839 2.265 3.07 2.266-4.381 2.265-26.66 2.266 7.534 2.265-.838 2.265-2.33 2.266-8.555 2.265-2.402 2.266 4.438 2.265-8.262 2.265-2.533 2.266 9.442 2.265-.594 2.266-10.592 2.265-.702 2.266-6.33 2.265-.646 2.265-.665 2.266-.678 2.265-.685V0H9.592Z" class="area" style="opacity:.66;fill:#c71e1d" transform="translate(34 10)"/><g class="x axis"><path d="M0 0h470" class="x-axis" style="stroke:#333" transform="translate(34 475)"/></g><g class="free-texts"><text style="fill:#efefef;font-size:14px;text-anchor:end" transform="translate(478.55 405.835)"><tspan x="0" dy="0">50% of the world</tspan><tspan x="0" dy="16.8">population have been</tspan><tspan x="0" dy="16.8">living in a democracy</tspan><tspan x="0" dy="16.8">since 1994.</tspan></text><text class="desktop-only" style="fill:#fff;font-size:14px;text-anchor:start" transform="translate(59.45 353.23)"><tspan x="0" dy="0">Until 1944, more than</tspan><tspan x="0" dy="16.8">30% of the world</tspan><tspan x="0" dy="16.8">population was home</tspan><tspan x="0" dy="16.8">in colonies.</tspan></text></g><g class="tooltip show"><text class="tooltip bg" style="stroke:#fff" transform="translate(386.996 113.9)"><tspan x="0" dy="0" style="text-anchor:end">Dictatorship / Monarchy</tspan><tspan x="0" dy="13" style="text-anchor:end">1972</tspan><tspan x="0" dy="13" style="text-anchor:end">49.24</tspan></text><text class="tooltip fg" style="fill:#333" transform="translate(386.996 113.9)"><tspan x="0" dy="0" style="text-anchor:end;fill:#c71e1d">Dictatorship / Monarchy</tspan><tspan x="0" dy="13" style="text-anchor:end">1972</tspan><tspan x="0" dy="13" style="text-anchor:end">49.24</tspan></text><path d="M0 207.8V0" style="stroke:#333;stroke-width:3" transform="translate(396.996 10)"/></g></svg>