<svg xmlns="http://www.w3.org/2000/svg" width="537" height="232" class="marks"><g fill="none" stroke-miterlimit="10" aria-roledescription="group mark container" class="mark-group role-frame root"><path d="M29 10h500v200H29Z" aria-hidden="true" class="background"/><g aria-roledescription="group mark container" class="mark-group role-scope"><path d="M29 10Z" aria-hidden="true" class="background"/><path fill="#4c78a8" d="M29 210H529v-61.25C510.481 136.875 491.963 125 473.444 125c-18.518 0-37.037 63.75-55.555 63.75-18.519 0-37.037-87.5-55.556-87.5-18.518 0-37.037 78.75-55.555 78.75-18.519 0-37.037-35-55.556-35-18.518 0-37.037 41.25-55.555 41.25-18.519 0-37.037-77.5-55.556-77.5-18.518 0-37.037 36.458-55.555 47.5C66.037 167.292 47.519 171.146 29 175Z" aria-roledescription="area mark container" class="mark-area role-mark"/><path d="M29 10Z" aria-hidden="true" class="background"/><path fill="#f58518" d="M29 175c18.519-3.854 37.037-7.708 55.556-18.75 18.518-11.042 37.037-47.5 55.555-47.5 18.519 0 37.037 77.5 55.556 77.5 18.518 0 37.037-41.25 55.555-41.25 18.519 0 37.037 35 55.556 35 18.518 0 37.037-78.75 55.555-78.75 18.519 0 37.037 87.5 55.556 87.5 18.518 0 37.037-63.75 55.555-63.75 18.519 0 37.037 11.875 55.556 23.75V130c-18.519-12.5-37.037-25-55.556-25-18.518 0-37.037 50-55.555 50-18.519 0-37.037-136.25-55.556-136.25-18.518 0-37.037 100-55.555 100-18.519 0-37.037-28.75-55.556-33.75-18.518-5-37.037-2.5-55.555-7.5-18.519-5-37.037-35-55.556-35H84.556C66.037 42.5 47.519 74.375 29 106.25Z" aria-roledescription="area mark container" class="mark-area role-mark"/></g><g aria-label="X-axis for a discrete scale with 10 values: 0, 1, 2, 3, 4, ending with 9" aria-roledescription="axis" class="mark-group role-axis" pointer-events="none"><path d="M29.5 210.5Z" aria-hidden="true" class="background"/><g stroke="#888" class="mark-rule role-axis-tick"><path d="M29.5 210.5v5M85.5 210.5v5M140.5 210.5v5M196.5 210.5v5M251.5 210.5v5M307.5 210.5v5M362.5 210.5v5M418.5 210.5v5M473.5 210.5v5M529.5 210.5v5"/></g><g fill="#000" class="mark-text role-axis-label" font-family="sans-serif" font-size="10" text-anchor="middle"><text transform="translate(29.5 225.5)">0</text><text transform="translate(85.056 225.5)">1</text><text transform="translate(140.611 225.5)">2</text><text transform="translate(196.167 225.5)">3</text><text transform="translate(251.722 225.5)">4</text><text transform="translate(307.278 225.5)">5</text><text transform="translate(362.833 225.5)">6</text><text transform="translate(418.389 225.5)">7</text><text transform="translate(473.944 225.5)">8</text><text transform="translate(529.5 225.5)">9</text></g><path stroke="#888" d="M29.5 210.5h500" class="mark-rule role-axis-domain"/></g><g aria-label="Y-axis for a linear scale with values from 0 to 160" aria-roledescription="axis" class="mark-group role-axis" pointer-events="none"><path d="M29.5 10.5Z" aria-hidden="true" class="background"/><g stroke="#888" class="mark-rule role-axis-tick"><path d="M29.5 210.5h-5M29.5 185.5h-5M29.5 160.5h-5M29.5 135.5h-5M29.5 110.5h-5M29.5 85.5h-5M29.5 60.5h-5M29.5 35.5h-5M29.5 10.5h-5"/></g><g fill="#000" class="mark-text role-axis-label" font-family="sans-serif" font-size="10" text-anchor="end"><text transform="translate(22.5 213.5)">0</text><text transform="translate(22.5 188.5)">20</text><text transform="translate(22.5 163.5)">40</text><text transform="translate(22.5 138.5)">60</text><text transform="translate(22.5 113.5)">80</text><text transform="translate(22.5 88.5)">100</text><text transform="translate(22.5 63.5)">120</text><text transform="translate(22.5 38.5)">140</text><text transform="translate(22.5 13.5)">160</text></g><path stroke="#888" d="M29.5 210.5v-200" class="mark-rule role-axis-domain"/></g></g></svg>