<svg width="844px" height="490px" viewBox="0 0 844 490" preserveAspectRatio="xMidYMid" xmlns="http://www.w3.org/2000/svg"><g class="axis horizontal" transform="translate( 0 37.5 )" display="block"><g class="tick" transform="translate(41.34375,0)" style="opacity: 1;"><line y2="-4" x2="0" stroke="#000000" fill="none"></line><text dy="0em" y="-8" x="0" font-size="12" style="text-anchor: middle;" fill="#000000">1910</text></g><g class="tick" transform="translate(121.41003787878788,0)" style="opacity: 1;"><line y2="-4" x2="0" stroke="#000000" fill="none"></line><text dy="0em" y="-8" x="0" font-size="12" style="text-anchor: middle;" fill="#000000">1920</text></g><g class="tick" transform="translate(201.47632575757575,0)" style="opacity: 1;"><line y2="-4" x2="0" stroke="#000000" fill="none"></line><text dy="0em" y="-8" x="0" font-size="12" style="text-anchor: middle;" fill="#000000">1930</text></g><g class="tick" transform="translate(281.5426136363636,0)" style="opacity: 1;"><line y2="-4" x2="0" stroke="#000000" fill="none"></line><text dy="0em" y="-8" x="0" font-size="12" style="text-anchor: middle;" fill="#000000">1940</text></g><g class="tick" transform="translate(361.6089015151515,0)" style="opacity: 1;"><line y2="-4" x2="0" stroke="#000000" fill="none"></line><text dy="0em" y="-8" x="0" font-size="12" style="text-anchor: middle;" fill="#000000">1950</text></g><g class="tick" transform="translate(441.6751893939394,0)" style="opacity: 1;"><line y2="-4" x2="0" stroke="#000000" fill="none"></line><text dy="0em" y="-8" x="0" font-size="12" style="text-anchor: middle;" fill="#000000">1960</text></g><g class="tick" transform="translate(521.7414772727273,0)" style="opacity: 1;"><line y2="-4" x2="0" stroke="#000000" fill="none"></line><text dy="0em" y="-8" x="0" font-size="12" style="text-anchor: middle;" fill="#000000">1970</text></g><g class="tick" transform="translate(601.8077651515151,0)" style="opacity: 1;"><line y2="-4" x2="0" stroke="#000000" fill="none"></line><text dy="0em" y="-8" x="0" font-size="12" style="text-anchor: middle;" fill="#000000">1980</text></g><g class="tick" transform="translate(681.874053030303,0)" style="opacity: 1;"><line y2="-4" x2="0" stroke="#000000" fill="none"></line><text dy="0em" y="-8" x="0" font-size="12" style="text-anchor: middle;" fill="#000000">1990</text></g><g class="tick" transform="translate(761.9403409090909,0)" style="opacity: 1;"><line y2="-4" x2="0" stroke="#000000" fill="none"></line><text dy="0em" y="-8" x="0" font-size="12" style="text-anchor: middle;" fill="#000000">2000</text></g><path class="domain" d="M41.34375,0V0H834V0" stroke="#000000" fill="none" display="none"></path><text class="label" font-size="12" transform="translate(437.671875 -27.5)" text-anchor="middle" fill="#000000"> </text></g><g class="axis vertical" transform="translate( 41.34375 0 )" display="block"><g class="tick" transform="translate(0,451.5622969841311)" style="opacity: 1;"><line x2="-4" y2="0" stroke="#000000" fill="none"></line><text dy=".32em" x="-8" y="0" font-size="12" style="text-anchor: end;" fill="#000000">-12</text></g><g class="tick" transform="translate(0,417.2997982680259)" style="opacity: 1;"><line x2="-4" y2="0" stroke="#000000" fill="none"></line><text dy=".32em" x="-8" y="0" font-size="12" style="text-anchor: end;" fill="#000000">-10</text></g><g class="tick" transform="translate(0,383.03729955192074)" style="opacity: 1;"><line x2="-4" y2="0" stroke="#000000" fill="none"></line><text dy=".32em" x="-8" y="0" font-size="12" style="text-anchor: end;" fill="#000000">-8</text></g><g class="tick" transform="translate(0,348.77480083581554)" style="opacity: 1;"><line x2="-4" y2="0" stroke="#000000" fill="none"></line><text dy=".32em" x="-8" y="0" font-size="12" style="text-anchor: end;" fill="#000000">-6</text></g><g class="tick" transform="translate(0,314.5123021197104)" style="opacity: 1;"><line x2="-4" y2="0" stroke="#000000" fill="none"></line><text dy=".32em" x="-8" y="0" font-size="12" style="text-anchor: end;" fill="#000000">-4</text></g><g class="tick" transform="translate(0,280.2498034036052)" style="opacity: 1;"><line x2="-4" y2="0" stroke="#000000" fill="none"></line><text dy=".32em" x="-8" y="0" font-size="12" style="text-anchor: end;" fill="#000000">-2</text></g><g class="tick" transform="translate(0,245.9873046875)" style="opacity: 1;"><line x2="-4" y2="0" stroke="#000000" fill="none"></line><text dy=".32em" x="-8" y="0" font-size="12" style="text-anchor: end;" fill="#000000">0</text></g><g class="tick" transform="translate(0,211.72480597139483)" style="opacity: 1;"><line x2="-4" y2="0" stroke="#000000" fill="none"></line><text dy=".32em" x="-8" y="0" font-size="12" style="text-anchor: end;" fill="#000000">2</text></g><g class="tick" transform="translate(0,177.4623072552897)" style="opacity: 1;"><line x2="-4" y2="0" stroke="#000000" fill="none"></line><text dy=".32em" x="-8" y="0" font-size="12" style="text-anchor: end;" fill="#000000">4</text></g><g class="tick" transform="translate(0,143.1998085391845)" style="opacity: 1;"><line x2="-4" y2="0" stroke="#000000" fill="none"></line><text dy=".32em" x="-8" y="0" font-size="12" style="text-anchor: end;" fill="#000000">6</text></g><g class="tick" transform="translate(0,108.93730982307933)" style="opacity: 1;"><line x2="-4" y2="0" stroke="#000000" fill="none"></line><text dy=".32em" x="-8" y="0" font-size="12" style="text-anchor: end;" fill="#000000">8</text></g><g class="tick" transform="translate(0,74.67481110697412)" style="opacity: 1;"><line x2="-4" y2="0" stroke="#000000" fill="none"></line><text dy=".32em" x="-8" y="0" font-size="12" style="text-anchor: end;" fill="#000000">10</text></g><g class="tick" transform="translate(0,40.41231239086896)" style="opacity: 1;"><line x2="-4" y2="0" stroke="#000000" fill="none"></line><text dy=".32em" x="-8" y="0" font-size="12" style="text-anchor: end;" fill="#000000">12</text></g><path class="domain" d="M0,37.5H0V454.474609375H0" stroke="#000000" fill="none" display="none"></path><text class="label" font-size="12" transform="translate(-31.34375 245.9873046875) rotate(-90)" text-anchor="middle" fill="#000000"> </text></g><g class="legend-group" transform="translate( 269.7296905517578 466.474609375 )" display="block"><g class="legend" transform="translate(10 0)"><path class="marker" d="M5.4 0 A5.4 5.4 0 0 0 5.4 10.8A5.4 5.4 0 0 0 5.4 0" fill="#f4502a"></path><text font-size="12" text-anchor="start" dy="0.76em" dx="13.8" fill="#000000">Apple</text></g><g class="legend" transform="translate(64.49531173706055 0)"><path class="marker" d="M5.41015625 0 A5.41015625 5.41015625 0 0 0 5.41015625 10.8203125A5.41015625 5.41015625 0 0 0 5.41015625 0" fill="#f1c227"></path><text font-size="12" text-anchor="start" dy="0.76em" dx="13.8203125" fill="#000000">Orange</text></g><g class="legend" transform="translate(128.34687423706055 0)"><path class="marker" d="M5.4 0 A5.4 5.4 0 0 0 5.4 10.8A5.4 5.4 0 0 0 5.4 0" fill="#008a6d"></path><text font-size="12" text-anchor="start" dy="0.76em" dx="13.8" fill="#000000">Banana</text></g><g class="legend" transform="translate(193.5218734741211 0)"><path class="marker" d="M5.4 0 A5.4 5.4 0 0 0 5.4 10.8A5.4 5.4 0 0 0 5.4 0" fill="#00acdb"></path><text font-size="12" text-anchor="start" dy="0.76em" dx="13.8" fill="#000000">Grape</text></g><g class="legend" transform="translate(250.67343521118164 0)"><path class="marker" d="M5.41015625 0 A5.41015625 5.41015625 0 0 0 5.41015625 10.8203125A5.41015625 5.41015625 0 0 0 5.41015625 0" fill="#0064a8"></path><text font-size="12" text-anchor="start" dy="0.76em" dx="13.8203125" fill="#000000">Longan</text></g><text class="label" font-size="12" font-weight="bold" dy="0.76em" fill="#000000"><tspan x="0"> </tspan></text></g><g class="grid-group"><rect x="41.34375" y="0" width="792.6562499999999" height="442.5" fill="none"></rect><line class="grid vertical" x1="41.34375" x2="41.34375" y1="37.5" y2="454.474609375" stroke="#d5d5d5" stroke-width="2" stroke-dasharray="2 4" fill="none" display="block"></line><line class="grid vertical" x1="121.41003787878788" x2="121.41003787878788" y1="37.5" y2="454.474609375" stroke="#d5d5d5" stroke-width="2" stroke-dasharray="2 4" fill="none" display="block"></line><line class="grid vertical" x1="201.47632575757575" x2="201.47632575757575" y1="37.5" y2="454.474609375" stroke="#d5d5d5" stroke-width="2" stroke-dasharray="2 4" fill="none" display="block"></line><line class="grid vertical" x1="281.5426136363636" x2="281.5426136363636" y1="37.5" y2="454.474609375" stroke="#d5d5d5" stroke-width="2" stroke-dasharray="2 4" fill="none" display="block"></line><line class="grid vertical" x1="361.6089015151515" x2="361.6089015151515" y1="37.5" y2="454.474609375" stroke="#d5d5d5" stroke-width="2" stroke-dasharray="2 4" fill="none" display="block"></line><line class="grid vertical" x1="441.6751893939394" x2="441.6751893939394" y1="37.5" y2="454.474609375" stroke="#d5d5d5" stroke-width="2" stroke-dasharray="2 4" fill="none" display="block"></line><line class="grid vertical" x1="521.7414772727273" x2="521.7414772727273" y1="37.5" y2="454.474609375" stroke="#d5d5d5" stroke-width="2" stroke-dasharray="2 4" fill="none" display="block"></line><line class="grid vertical" x1="601.8077651515151" x2="601.8077651515151" y1="37.5" y2="454.474609375" stroke="#d5d5d5" stroke-width="2" stroke-dasharray="2 4" fill="none" display="block"></line><line class="grid vertical" x1="681.874053030303" x2="681.874053030303" y1="37.5" y2="454.474609375" stroke="#d5d5d5" stroke-width="2" stroke-dasharray="2 4" fill="none" display="block"></line><line class="grid vertical" x1="761.9403409090909" x2="761.9403409090909" y1="37.5" y2="454.474609375" stroke="#d5d5d5" stroke-width="2" stroke-dasharray="2 4" fill="none" display="block"></line></g><path class="data" opacity="1" fill="#f4502a" d="M41.34375,324.7053954877517L49.35037878787879,338.06776998703265L57.35700757575758,353.22892566890926L65.36363636363636,369.16098757189815L73.37026515151516,385.09304947488704L81.37689393939394,400.0828926631831L89.38352272727272,413.44526716246406L97.3901515151515,424.23795425803723L105.3967803030303,432.03267271595115L113.40340909090908,436.4867975490448L121.41003787878788,437.3433600169474L129.41666666666666,434.51670387286873L137.42329545454544,428.3494541039698L145.42992424242425,419.35554819099224L153.436553030303,407.62064238072617L161.4431818181818,394.515236621816L169.4498106060606,380.3819559014226L177.45643939393938,366.07736268744867L185.46306818181816,352.45801944779686L193.46969696969697,340.123519909999L201.47632575757575,329.6734578015869L209.48295454545453,321.5361143565119L217.48958333333331,316.0541145619351L225.4962121212121,313.3131146646467L233.50284090909088,313.1418021710662L241.5094696969697,315.28320834082274L249.51609848484847,319.3947081867554L257.52272727272725,324.8767079813322L265.529356060606,331.3009264906019L273.5359848484848,337.89645749345215L281.5426136363636,344.4063322495121L289.5492424242424,350.0596445376695L297.5558712121212,354.42811312397293L305.5625,357.4260817616321L313.56912878787875,358.7109254634861L321.57575757575756,358.53961296990553L329.5823863636363,356.82648803410024L337.5890151515151,353.9998318900216L345.59564393939394,350.1453007844598L353.6022727272727,346.0338009385272L361.6089015151515,342.00795733938475L369.61553030303025,338.32473872740354L377.62215909090907,335.66939507690535L385.6287878787879,334.12758263468055L393.63541666666663,334.2988951282611L401.64204545454544,335.7550513236956L409.6486742424242,338.83867620814505L417.655303030303,343.2071447944485L425.66193181818176,348.6891445890253L433.66856060606057,354.8563943579242L441.6751893939394,361.1093003736134L449.68181818181813,367.19089389572207L457.68844696969694,372.5015811967184L465.6950757575757,376.78439353623156L473.7017045454545,379.43973718672964L481.7083333333333,380.21064340784204L489.71496212121207,379.2684246931492L497.7215909090909,376.613081042651L505.72821969696963,372.15895620955735L513.7348484848485,366.59130016819023L521.7414772727273,359.8244566717595L529.748106060606,352.71498818816764L537.7547348484848,345.77683219815634L545.7613636363635,339.3526136888866L553.7679924242424,334.2132388814709L561.7746212121211,330.87264525665057L569.78125,329.33083281442583L577.7878787878788,329.93042654195773L585.7945075757575,332.84273893282665L593.8011363636363,337.8964574934521L601.8077651515151,344.5776447430927L609.8143939393939,352.800644434958L617.8210227272726,361.7945503479355L625.8276515151515,370.8741125077034L633.8342803030303,379.6967059271005L641.840909090909,387.2344556446437L649.8475378787879,393.1447366731718L657.8541666666666,396.9136115319433L665.8607954545454,398.02714274021673L673.8674242424241,396.3996740512017L681.874053030303,391.9455492181081L689.8806818181818,384.9217369813065L697.8873106060605,375.6708623279581L705.8939393939394,364.6212064920142L713.9005681818181,352.54367569458714L721.9071969696969,340.0378636632087L729.9138257575758,328.0459891125719L737.9204545454545,317.4246145105794L745.9270833333333,308.77333358476284L753.933712121212,302.6917400626541L761.9403409090909,299.6937714249949L769.9469696969696,300.12205265894625L777.9535984848484,303.97658376450806L785.9602272727273,311.2573647416804L793.966856060606,321.6217706033022L801.9734848484848,334.64152011542217L809.9801136363635,349.28873831655716L817.9867424242424,365.1351439727558L825.9933712121211,381.15286212253494L833.9999999999999,396.48533029799205L833.9999999999999,413.6165796560446L825.9933712121211,398.2841114805875L817.9867424242424,382.26639333080834L809.9801136363635,366.41998767460973L801.9734848484848,351.77276947347474L793.966856060606,338.75301996135477L785.9602272727273,328.388614099733L777.9535984848484,321.10783312256063L769.9469696969696,317.2533020169988L761.9403409090909,316.8250207830475L753.933712121212,319.8229894207066L745.9270833333333,325.9045829428154L737.9204545454545,334.55586386863195L729.9138257575758,345.1772384706245L721.9071969696969,357.16911302126135L713.9005681818181,369.6749250526397L705.8939393939394,381.7524558500668L697.8873106060605,392.80211168601073L689.8806818181818,402.05298633935905L681.874053030303,409.0767985761607L673.8674242424241,413.5309234092543L665.8607954545454,415.15839209826936L657.8541666666666,414.0448608899959L649.8475378787879,410.27598603122436L641.840909090909,404.36570500269625L633.8342803030303,396.8279552851531L625.8276515151515,388.005361865756L617.8210227272726,378.9257997059881L609.8143939393939,369.93189379301054L601.8077651515151,361.7088941011453L593.8011363636363,355.0277068515047L585.7945075757575,349.9739882908793L577.7878787878788,347.06167590001036L569.78125,346.46208217247846L561.7746212121211,348.0038946147032L553.7679924242424,351.34448823952346L545.7613636363635,356.4838630469392L537.7547348484848,362.9080815562089L529.748106060606,369.8462375462202L521.7414772727273,376.95570602981206L513.7348484848485,383.72254952624286L505.72821969696963,389.29020556761L497.7215909090909,393.74433040070363L489.71496212121207,396.39967405120177L481.7083333333333,397.3418927658946L473.7017045454545,396.5709865447823L465.6950757575757,393.91564289428413L457.68844696969694,389.6328305547709L449.68181818181813,384.3221432537747L441.6751893939394,378.240549731666L433.66856060606057,371.98764371597684L425.66193181818176,365.82039394707795L417.655303030303,360.3383941525011L409.6486742424242,355.9699255661976L401.64204545454544,352.88630068174814L393.63541666666663,351.4301444863137L385.6287878787879,351.2588319927332L377.62215909090907,352.800644434958L369.61553030303025,355.45598808545606L361.6089015151515,359.1392066974373L353.6022727272727,363.16505029657975L345.59564393939394,367.27655014251235L337.5890151515151,371.1310812480742L329.5823863636363,373.95773739215286L321.57575757575756,375.6708623279581L313.56912878787875,375.84217482153866L305.5625,374.5573311196847L297.5558712121212,371.55936248202545L289.5492424242424,367.19089389572207L281.5426136363636,361.53758160756473L273.5359848484848,355.0277068515047L265.529356060606,348.4321758486545L257.52272727272725,342.00795733938475L249.51609848484847,336.52595754480797L241.5094696969697,332.41445769887537L233.50284090909088,330.2730515291188L225.4962121212121,330.4443640226993L217.48958333333331,333.1853639199877L209.48295454545453,338.66736371456454L201.47632575757575,346.8047071596395L193.46969696969697,357.25476926805163L185.46306818181816,369.58926880584943L177.45643939393938,383.2086120455013L169.4498106060606,397.5132052594751L161.4431818181818,411.64648597986854L153.436553030303,424.7518917387788L145.42992424242425,436.4867975490448L137.42329545454544,445.4807034620224L129.41666666666666,451.64795323092136L121.41003787878788,454.474609375L113.40340909090908,453.6180469070974L105.3967803030303,449.1639220740037L97.3901515151515,441.3692036160898L89.38352272727272,430.57651652051663L81.37689393939394,417.21414202123566L73.37026515151516,402.2242988329396L65.36363636363636,386.2922369299508L57.35700757575758,370.3601750269618L49.35037878787879,355.1990193450853L41.34375,341.83664484580424Z"></path><path class="data" opacity="1" fill="#f1c227" d="M41.34375,273.4829599071744L49.35037878787879,286.8453344064555L57.35700757575758,302.1778025819126L65.36363636363636,318.28117697848194L73.37026515151516,334.55586386863195L81.37689393939394,350.0596445376695L89.38352272727272,363.7646440241116L97.3901515151515,375.0712686004263L105.3967803030303,383.5512370326623L113.40340909090908,388.69061184007813L121.41003787878788,390.2324242823029L129.41666666666666,388.09101811254624L137.42329545454544,382.7803308115499L145.42992424242425,374.642987366475L153.436553030303,363.9359565176921L161.4431818181818,351.6871132266845L169.4498106060606,338.58170746777427L177.45643939393938,325.3049892152835L185.46306818181816,312.7135209371149L193.46969696969697,301.5782088543807L201.47632575757575,292.1560217074517L209.48295454545453,285.2178657174404L217.48958333333331,280.9350533779273L225.4962121212121,279.2219284421221L233.50284090909088,280.2498034036052L241.5094696969697,283.5903970284255L249.51609848484847,288.72977183584123L257.52272727272725,295.4109590854818L265.529356060606,302.8630525562346L273.5359848484848,310.486458520568L281.5426136363636,318.02420823811116L289.5492424242424,324.7053954877517L297.5558712121212,330.1017390355383L305.5625,333.9562701411L313.56912878787875,336.0976763108566L321.57575757575756,336.7829262851787L329.5823863636363,335.7550513236956L337.5890151515151,333.61364515393905L345.59564393939394,330.4443640226993L353.6022727272727,326.84680165750825L361.6089015151515,323.3348955391075L369.61553030303025,320.16561440786774L377.62215909090907,317.8528957445306L385.6287878787879,316.653708289467L393.63541666666663,316.996333276628L401.64204545454544,318.623801965643L409.6486742424242,321.7074268500925L417.655303030303,326.07589543639585L425.66193181818176,331.55789523097275L433.66856060606057,337.55383250629114L441.6751893939394,343.6354260283998L449.68181818181813,349.3743945633474L457.68844696969694,354.34245687718266L465.6950757575757,358.11133173595425L473.7017045454545,360.2527379057107L481.7083333333333,360.50970664608155L489.71496212121207,358.8822379570666L497.7215909090909,355.54164433224634L505.72821969696963,350.23095703125006L513.7348484848485,343.80673852198026L521.7414772727273,336.1833325576469L529.748106060606,328.21730160615243L537.7547348484848,320.2512706546581L545.7613636363635,312.97048967748566L553.7679924242424,306.8032399085867L561.7746212121211,302.26345882870277L569.78125,299.6937714249949L577.7878787878788,299.09417769746307L585.7945075757575,300.97861512684887L593.8011363636363,304.8331462324106L601.8077651515151,310.486458520568L609.8143939393939,317.5102707573696L617.8210227272726,325.3049892152835L625.8276515151515,333.3566764135682L633.8342803030303,340.9800823779016L641.840909090909,347.4899571339616L649.8475378787879,352.3723632010066L657.8541666666666,355.113363098295L665.8607954545454,355.1990193450853L673.8674242424241,352.5436756945871L681.874053030303,347.2329883935908L689.8806818181818,339.3526136888866L697.8873106060605,329.2451765676356L705.8939393939394,317.33895826378904L713.9005681818181,304.57617749203985L721.9071969696969,291.3851154863394L729.9138257575758,278.87930345496096L737.9204545454545,267.74399137222684L745.9270833333333,258.5787729656687L753.933712121212,252.15455445639896L761.9403409090909,248.8139608315787L769.9469696969696,249.0709295719495L777.9535984848484,252.7541481839308L785.9602272727273,260.03492916110315L793.966856060606,270.399335022725L801.9734848484848,283.4190845348449L809.9801136363635,298.2376152295605L817.9867424242424,314.2553333793396L825.9933712121211,330.61567651627985L833.9999999999999,346.29076967889796L833.9999999999999,396.48533029799205L825.9933712121211,381.15286212253494L817.9867424242424,365.1351439727558L809.9801136363635,349.28873831655716L801.9734848484848,334.64152011542217L793.966856060606,321.6217706033022L785.9602272727273,311.2573647416804L777.9535984848484,303.97658376450806L769.9469696969696,300.12205265894625L761.9403409090909,299.6937714249949L753.933712121212,302.6917400626541L745.9270833333333,308.77333358476284L737.9204545454545,317.4246145105794L729.9138257575758,328.0459891125719L721.9071969696969,340.0378636632087L713.9005681818181,352.54367569458714L705.8939393939394,364.6212064920142L697.8873106060605,375.6708623279581L689.8806818181818,384.9217369813065L681.874053030303,391.9455492181081L673.8674242424241,396.3996740512017L665.8607954545454,398.02714274021673L657.8541666666666,396.9136115319433L649.8475378787879,393.1447366731718L641.840909090909,387.2344556446437L633.8342803030303,379.6967059271005L625.8276515151515,370.8741125077034L617.8210227272726,361.7945503479355L609.8143939393939,352.800644434958L601.8077651515151,344.5776447430927L593.8011363636363,337.8964574934521L585.7945075757575,332.84273893282665L577.7878787878788,329.93042654195773L569.78125,329.33083281442583L561.7746212121211,330.87264525665057L553.7679924242424,334.2132388814709L545.7613636363635,339.3526136888866L537.7547348484848,345.77683219815634L529.748106060606,352.71498818816764L521.7414772727273,359.8244566717595L513.7348484848485,366.59130016819023L505.72821969696963,372.15895620955735L497.7215909090909,376.613081042651L489.71496212121207,379.2684246931492L481.7083333333333,380.21064340784204L473.7017045454545,379.43973718672964L465.6950757575757,376.78439353623156L457.68844696969694,372.5015811967184L449.68181818181813,367.19089389572207L441.6751893939394,361.1093003736134L433.66856060606057,354.8563943579242L425.66193181818176,348.6891445890253L417.655303030303,343.2071447944485L409.6486742424242,338.83867620814505L401.64204545454544,335.7550513236956L393.63541666666663,334.2988951282611L385.6287878787879,334.12758263468055L377.62215909090907,335.66939507690535L369.61553030303025,338.32473872740354L361.6089015151515,342.00795733938475L353.6022727272727,346.0338009385272L345.59564393939394,350.1453007844598L337.5890151515151,353.9998318900216L329.5823863636363,356.82648803410024L321.57575757575756,358.53961296990553L313.56912878787875,358.7109254634861L305.5625,357.4260817616321L297.5558712121212,354.42811312397293L289.5492424242424,350.0596445376695L281.5426136363636,344.4063322495121L273.5359848484848,337.89645749345215L265.529356060606,331.3009264906019L257.52272727272725,324.8767079813322L249.51609848484847,319.3947081867554L241.5094696969697,315.28320834082274L233.50284090909088,313.1418021710662L225.4962121212121,313.3131146646467L217.48958333333331,316.0541145619351L209.48295454545453,321.5361143565119L201.47632575757575,329.6734578015869L193.46969696969697,340.123519909999L185.46306818181816,352.45801944779686L177.45643939393938,366.07736268744867L169.4498106060606,380.3819559014226L161.4431818181818,394.515236621816L153.436553030303,407.62064238072617L145.42992424242425,419.35554819099224L137.42329545454544,428.3494541039698L129.41666666666666,434.51670387286873L121.41003787878788,437.3433600169474L113.40340909090908,436.4867975490448L105.3967803030303,432.03267271595115L97.3901515151515,424.23795425803723L89.38352272727272,413.44526716246406L81.37689393939394,400.0828926631831L73.37026515151516,385.09304947488704L65.36363636363636,369.16098757189815L57.35700757575758,353.22892566890926L49.35037878787879,338.06776998703265L41.34375,324.7053954877517Z"></path><path class="data" opacity="1" fill="#008a6d" d="M41.34375,219.34821193572827L49.35037878787879,228.2564616019156L57.35700757575758,239.13480494427904L65.36363636363636,251.1266794949158L73.37026515151516,263.4611790327137L81.37689393939394,275.3673973365602L89.38352272727272,285.9887719385528L97.3901515151515,294.72570911115963L105.3967803030303,300.97861512684887L113.40340909090908,304.57617749203985L121.41003787878788,305.09011497278146L129.41666666666666,302.60608381586377L137.42329545454544,297.46670900844805L145.42992424242425,290.0146155376952L153.436553030303,280.849397131137L161.4431818181818,270.4849912695152L169.4498106060606,259.94927291431287L177.45643939393938,249.58486705269107L185.46306818181816,240.41964864613294L193.46969696969697,233.0532114221703L201.47632575757575,227.74252412117406L209.48295454545453,225.0871804706759L217.48958333333331,225.25849296425636L225.4962121212121,228.17080535512534L233.50284090909088,233.65280514970215L241.5094696969697,241.44752360761612L249.51609848484847,251.04102324812555L257.52272727272725,261.66239785011817L265.529356060606,272.8833661796426L273.5359848484848,283.9330220155865L281.5426136363636,294.3830841239986L289.5492424242424,303.46264628376645L297.5558712121212,310.74342726093886L305.5625,315.9684583151449L313.56912878787875,318.96642695280406L321.57575757575756,319.6516769271262L329.5823863636363,318.281176978482L337.5890151515151,314.9405833536617L345.59564393939394,310.2294897801972L353.6022727272727,304.40486499845935L361.6089015151515,298.15195898277017L369.61553030303025,291.89905296708093L377.62215909090907,285.9887719385529L385.6287878787879,280.849397131137L393.63541666666663,276.9092097787849L401.64204545454544,274.2538661282868L409.6486742424242,272.71205368606206L417.655303030303,272.6263974392718L425.66193181818176,273.4829599071744L433.66856060606057,275.0247723493992L441.6751893939394,276.9948660255753L449.68181818181813,278.79364720817074L457.68844696969694,280.1641471568149L465.6950757575757,280.67808463755654L473.7017045454545,280.0784909100247L481.7083333333333,278.2797097274291L489.71496212121207,274.9391161026089L497.7215909090909,270.399335022725L505.72821969696963,264.7460227345676L513.7348484848485,258.32180422529785L521.7414772727273,251.55496072886706L529.748106060606,244.78811723243632L537.7547348484848,238.70652371032764L545.7613636363635,233.9954301368632L553.7679924242424,230.74049275883323L561.7746212121211,229.4556490569793L569.78125,230.65483651204295L577.7878787878788,234.16674263044376L585.7945075757575,240.33399239934266L593.8011363636363,248.64264833799817L601.8077651515151,258.7500854592492L609.8143939393939,270.399335022725L617.8210227272726,282.6481783137326L625.8276515151515,294.98267785153035L633.8342803030303,306.7175836617965L641.840909090909,317.1676457702086L649.8475378787879,325.476301708864L657.8541666666666,331.1296139970213L665.8607954545454,333.78495764751955L673.8674242424241,333.01405142640715L681.874053030303,329.0738640740551L689.8806818181818,322.05005183725353L697.8873106060605,312.113927209583L705.8939393939394,299.8650839185754L713.9005681818181,286.0744281853431L721.9071969696969,271.3415537374178L729.9138257575758,256.7799917830731L737.9204545454545,242.90367980305055L745.9270833333333,230.65483651204295L753.933712121212,220.63305563758217L761.9403409090909,213.5235871539904L769.9469696969696,209.49774355484803L777.9535984848484,208.8981498273162L785.9602272727273,211.72480597139483L793.966856060606,217.4637745063425L801.9734848484848,225.8580866917882L809.9801136363635,236.39380504699062L817.9867424242424,248.12871085725658L825.9933712121211,260.54886664184477L833.9999999999999,272.45508494569134L833.9999999999999,346.29076967889796L825.9933712121211,330.61567651627985L817.9867424242424,314.2553333793396L809.9801136363635,298.2376152295605L801.9734848484848,283.4190845348449L793.966856060606,270.399335022725L785.9602272727273,260.03492916110315L777.9535984848484,252.7541481839308L769.9469696969696,249.0709295719495L761.9403409090909,248.8139608315787L753.933712121212,252.15455445639896L745.9270833333333,258.5787729656687L737.9204545454545,267.74399137222684L729.9138257575758,278.87930345496096L721.9071969696969,291.3851154863394L713.9005681818181,304.57617749203985L705.8939393939394,317.33895826378904L697.8873106060605,329.2451765676356L689.8806818181818,339.3526136888866L681.874053030303,347.2329883935908L673.8674242424241,352.5436756945871L665.8607954545454,355.1990193450853L657.8541666666666,355.113363098295L649.8475378787879,352.3723632010066L641.840909090909,347.4899571339616L633.8342803030303,340.9800823779016L625.8276515151515,333.3566764135682L617.8210227272726,325.3049892152835L609.8143939393939,317.5102707573696L601.8077651515151,310.486458520568L593.8011363636363,304.8331462324106L585.7945075757575,300.97861512684887L577.7878787878788,299.09417769746307L569.78125,299.6937714249949L561.7746212121211,302.26345882870277L553.7679924242424,306.8032399085867L545.7613636363635,312.97048967748566L537.7547348484848,320.2512706546581L529.748106060606,328.21730160615243L521.7414772727273,336.1833325576469L513.7348484848485,343.80673852198026L505.72821969696963,350.23095703125006L497.7215909090909,355.54164433224634L489.71496212121207,358.8822379570666L481.7083333333333,360.50970664608155L473.7017045454545,360.2527379057107L465.6950757575757,358.11133173595425L457.68844696969694,354.34245687718266L449.68181818181813,349.3743945633474L441.6751893939394,343.6354260283998L433.66856060606057,337.55383250629114L425.66193181818176,331.55789523097275L417.655303030303,326.07589543639585L409.6486742424242,321.7074268500925L401.64204545454544,318.623801965643L393.63541666666663,316.996333276628L385.6287878787879,316.653708289467L377.62215909090907,317.8528957445306L369.61553030303025,320.16561440786774L361.6089015151515,323.3348955391075L353.6022727272727,326.84680165750825L345.59564393939394,330.4443640226993L337.5890151515151,333.61364515393905L329.5823863636363,335.7550513236956L321.57575757575756,336.7829262851787L313.56912878787875,336.0976763108566L305.5625,333.9562701411L297.5558712121212,330.1017390355383L289.5492424242424,324.7053954877517L281.5426136363636,318.02420823811116L273.5359848484848,310.486458520568L265.529356060606,302.8630525562346L257.52272727272725,295.4109590854818L249.51609848484847,288.72977183584123L241.5094696969697,283.5903970284255L233.50284090909088,280.2498034036052L225.4962121212121,279.2219284421221L217.48958333333331,280.9350533779273L209.48295454545453,285.2178657174404L201.47632575757575,292.1560217074517L193.46969696969697,301.5782088543807L185.46306818181816,312.7135209371149L177.45643939393938,325.3049892152835L169.4498106060606,338.58170746777427L161.4431818181818,351.6871132266845L153.436553030303,363.9359565176921L145.42992424242425,374.642987366475L137.42329545454544,382.7803308115499L129.41666666666666,388.09101811254624L121.41003787878788,390.2324242823029L113.40340909090908,388.69061184007813L105.3967803030303,383.5512370326623L97.3901515151515,375.0712686004263L89.38352272727272,363.7646440241116L81.37689393939394,350.0596445376695L73.37026515151516,334.55586386863195L65.36363636363636,318.28117697848194L57.35700757575758,302.1778025819126L49.35037878787879,286.8453344064555L41.34375,273.4829599071744Z"></path><path class="data" opacity="1" fill="#00acdb" d="M41.34375,187.1414631425894L49.35037878787879,188.16933810407255L57.35700757575758,189.96811928666807L65.36363636363636,192.0238692096343L73.37026515151516,194.25093162618123L81.37689393939394,195.87840031519625L89.38352272727272,196.7349627830988L97.3901515151515,196.5636502895183L105.3967803030303,195.10749409408382L113.40340909090908,192.36649419679543L121.41003787878788,188.4263068444433L129.41666666666666,183.3725882838178L137.42329545454544,177.71927599566044L145.42992424242425,171.6376824735518L153.436553030303,166.07002643218468L161.4431818181818,161.01630787155918L169.4498106060606,157.3330892595779L177.45643939393938,155.36299558340184L185.46306818181816,155.6199643237726L193.46969696969697,158.18965172748054L201.47632575757575,163.15771404131573L209.48295454545453,170.6098075120686L217.48958333333331,180.37461964615864L225.4962121212121,191.85255671605387L233.50284090909088,204.7009937345933L241.5094696969697,218.14902448066456L249.51609848484847,231.6827114735261L257.52272727272725,244.359835998485L265.529356060606,255.5808043280095L273.5359848484848,264.5747102409871L281.5426136363636,270.9132725034665L289.5492424242424,274.1682098814966L297.5558712121212,274.08255363470624L305.5625,270.74196000988604L313.56912878787875,264.14642900703575L321.57575757575756,254.7242418601069L329.5823863636363,243.07499229663114L337.5890151515151,229.62696155055983L345.59564393939394,215.66499332374696L353.6022727272727,201.6173688501438L361.6089015151515,188.34065059765308L369.61553030303025,176.94836977454813L377.62215909090907,167.61183887440944L385.6287878787879,161.1019641183494L393.63541666666663,157.6757142467389L401.64204545454544,157.7613704935292L409.6486742424242,160.8449953779786L417.655303030303,167.09790139366783L425.66193181818176,175.66352607269414L433.66856060606057,186.11358818110625L441.6751893939394,197.8484939913723L449.68181818181813,209.92602478879934L457.68844696969694,221.57527435227507L465.6950757575757,231.85402396710668L473.7017045454545,240.33399239934266L481.7083333333333,246.41558592145134L489.71496212121207,249.58486705269107L497.7215909090909,249.67052329948135L505.72821969696963,246.92952340219293L513.7348484848485,241.1905548672453L521.7414772727273,233.22452391575084L529.748106060606,223.20274304129012L537.7547348484848,212.15308720534614L545.7613636363635,200.58949388866063L553.7679924242424,189.1115568187654L561.7746212121211,178.57583846356312L569.78125,169.8389012909563L577.7878787878788,163.24337028810606L585.7945075757575,159.1318704421734L593.8011363636363,157.84702674031948L601.8077651515151,159.2175266889637L609.8143939393939,163.3290265348963L617.8210227272726,169.5819325505855L625.8276515151515,177.80493224245072L633.8342803030303,187.3127756361699L641.840909090909,197.42021275742098L649.8475378787879,207.6133061254622L657.8541666666666,217.0354932723911L665.8607954545454,225.34414921104667L673.8674242424241,231.76836772031635L681.874053030303,236.39380504699056L689.8806818181818,238.79217995711792L697.8873106060605,238.96349245069845L705.8939393939394,236.9933987745224L713.9005681818181,233.31018016254112L721.9071969696969,227.99949286154484L729.9138257575758,221.83224309264585L737.9204545454545,214.97974334942484L745.9270833333333,208.2128998529941L753.933712121212,201.78868134372433L761.9403409090909,196.3923377959378L769.9469696969696,192.02386920963437L777.9535984848484,189.02590057197517L785.9602272727273,187.39843188296015L793.966856060606,187.14146314258937L801.9734848484848,187.8267131169115L809.9801136363635,189.45418180592648L817.9867424242424,191.59558797568306L825.9933712121211,193.73699414543967L833.9999999999999,195.53577532803516L833.9999999999999,272.45508494569134L825.9933712121211,260.54886664184477L817.9867424242424,248.12871085725658L809.9801136363635,236.39380504699062L801.9734848484848,225.8580866917882L793.966856060606,217.4637745063425L785.9602272727273,211.72480597139483L777.9535984848484,208.8981498273162L769.9469696969696,209.49774355484803L761.9403409090909,213.5235871539904L753.933712121212,220.63305563758217L745.9270833333333,230.65483651204295L737.9204545454545,242.90367980305055L729.9138257575758,256.7799917830731L721.9071969696969,271.3415537374178L713.9005681818181,286.0744281853431L705.8939393939394,299.8650839185754L697.8873106060605,312.113927209583L689.8806818181818,322.05005183725353L681.874053030303,329.0738640740551L673.8674242424241,333.01405142640715L665.8607954545454,333.78495764751955L657.8541666666666,331.1296139970213L649.8475378787879,325.476301708864L641.840909090909,317.1676457702086L633.8342803030303,306.7175836617965L625.8276515151515,294.98267785153035L617.8210227272726,282.6481783137326L609.8143939393939,270.399335022725L601.8077651515151,258.7500854592492L593.8011363636363,248.64264833799817L585.7945075757575,240.33399239934266L577.7878787878788,234.16674263044376L569.78125,230.65483651204295L561.7746212121211,229.4556490569793L553.7679924242424,230.74049275883323L545.7613636363635,233.9954301368632L537.7547348484848,238.70652371032764L529.748106060606,244.78811723243632L521.7414772727273,251.55496072886706L513.7348484848485,258.32180422529785L505.72821969696963,264.7460227345676L497.7215909090909,270.399335022725L489.71496212121207,274.9391161026089L481.7083333333333,278.2797097274291L473.7017045454545,280.0784909100247L465.6950757575757,280.67808463755654L457.68844696969694,280.1641471568149L449.68181818181813,278.79364720817074L441.6751893939394,276.9948660255753L433.66856060606057,275.0247723493992L425.66193181818176,273.4829599071744L417.655303030303,272.6263974392718L409.6486742424242,272.71205368606206L401.64204545454544,274.2538661282868L393.63541666666663,276.9092097787849L385.6287878787879,280.849397131137L377.62215909090907,285.9887719385529L369.61553030303025,291.89905296708093L361.6089015151515,298.15195898277017L353.6022727272727,304.40486499845935L345.59564393939394,310.2294897801972L337.5890151515151,314.9405833536617L329.5823863636363,318.281176978482L321.57575757575756,319.6516769271262L313.56912878787875,318.96642695280406L305.5625,315.9684583151449L297.5558712121212,310.74342726093886L289.5492424242424,303.46264628376645L281.5426136363636,294.3830841239986L273.5359848484848,283.9330220155865L265.529356060606,272.8833661796426L257.52272727272725,261.66239785011817L249.51609848484847,251.04102324812555L241.5094696969697,241.44752360761612L233.50284090909088,233.65280514970215L225.4962121212121,228.17080535512534L217.48958333333331,225.25849296425636L209.48295454545453,225.0871804706759L201.47632575757575,227.74252412117406L193.46969696969697,233.0532114221703L185.46306818181816,240.41964864613294L177.45643939393938,249.58486705269107L169.4498106060606,259.94927291431287L161.4431818181818,270.4849912695152L153.436553030303,280.849397131137L145.42992424242425,290.0146155376952L137.42329545454544,297.46670900844805L129.41666666666666,302.60608381586377L121.41003787878788,305.09011497278146L113.40340909090908,304.57617749203985L105.3967803030303,300.97861512684887L97.3901515151515,294.72570911115963L89.38352272727272,285.9887719385528L81.37689393939394,275.3673973365602L73.37026515151516,263.4611790327137L65.36363636363636,251.1266794949158L57.35700757575758,239.13480494427904L49.35037878787879,228.2564616019156L41.34375,219.34821193572827Z"></path><path class="data" opacity="1" fill="#0064a8" d="M41.34375,150.1379645291958L49.35037878787879,136.77559002991478L57.35700757575758,121.61443434803822L65.36363636363636,105.68237244504931L73.37026515151516,89.75031054206042L81.37689393939394,74.7604673537644L89.38352272727272,61.398092854483345L97.3901515151515,50.605405758910294L105.3967803030303,42.810687300996285L113.40340909090908,38.3565624679027L121.41003787878788,37.5L129.41666666666666,40.326656144078655L137.42329545454544,46.493905912977624L145.42992424242425,55.487811825955205L153.436553030303,67.22271763622132L161.4431818181818,80.32812339513151L169.4498106060606,94.46140411552486L177.45643939393938,108.76599732949876L185.46306818181816,122.3853405691506L193.46969696969697,134.71984010694845L201.47632575757575,145.1699022153605L209.48295454545453,153.3072456604355L217.48958333333331,158.78924545501235L225.4962121212121,161.53024535230077L233.50284090909088,161.70155784588135L241.5094696969697,159.56015167612478L249.51609848484847,155.44865183019212L257.52272727272725,149.96665203561523L265.529356060606,143.54243352634558L273.5359848484848,136.94690252349534L281.5426136363636,130.43702776743532L289.5492424242424,124.78371547927797L297.5558712121212,120.41524689297451L305.5625,117.41727825531538L313.56912878787875,116.13243455346137L321.57575757575756,116.30374704704194L329.5823863636363,118.01687198284722L337.5890151515151,120.84352812692589L345.59564393939394,124.69805923248775L353.6022727272727,128.80955907842034L361.6089015151515,132.83540267756268L369.61553030303025,136.51862128954403L377.62215909090907,139.17396494004214L385.6287878787879,140.71577738226688L393.63541666666663,140.54446488868635L401.64204545454544,139.08830869325192L409.6486742424242,136.00468380880238L417.655303030303,131.63621522249898L425.66193181818176,126.15421542792217L433.66856060606057,119.98696565902324L441.6751893939394,113.73405964333408L449.68181818181813,107.65246612122542L457.68844696969694,102.34177882022902L465.6950757575757,98.0589664807159L473.7017045454545,95.40362283021771L481.7083333333333,94.63271660910539L489.71496212121207,95.57493532379834L497.7215909090909,98.23027897429647L505.72821969696963,102.68440380739014L513.7348484848485,108.25205984875717L521.7414772727273,115.018903345188L529.748106060606,122.1283718287798L537.7547348484848,129.06652781879112L545.7613636363635,135.49074632806085L553.7679924242424,140.63012113547654L561.7746212121211,143.97071476029683L569.78125,145.5125272025216L577.7878787878788,144.9129334749898L585.7945075757575,142.0006210841208L593.8011363636363,136.94690252349534L601.8077651515151,130.26571527385482L609.8143939393939,122.04271558198954L617.8210227272726,113.04880966901192L625.8276515151515,103.96924750924407L633.8342803030303,95.146654089847L641.840909090909,87.60890437230384L649.8475378787879,81.69862334377571L657.8541666666666,77.92974848500414L665.8607954545454,76.8162172767307L673.8674242424241,78.44368596574569L681.874053030303,82.8978107988394L689.8806818181818,89.92162303564095L697.8873106060605,99.17249768898932L705.8939393939394,110.22215352493326L713.9005681818181,122.29968432236038L721.9071969696969,134.80549635373876L729.9138257575758,146.79737090437553L737.9204545454545,157.4187455063682L745.9270833333333,166.0700264321847L753.933712121212,172.15161995429338L761.9403409090909,175.14958859195255L769.9469696969696,174.72130735800124L777.9535984848484,170.86677625243942L785.9602272727273,163.58599527526707L793.966856060606,153.22158941364526L801.9734848484848,140.2018399015253L809.9801136363635,125.55462170039036L817.9867424242424,109.70821604419167L825.9933712121211,93.69049789441256L833.9999999999999,78.35802971895546L833.9999999999999,195.53577532803516L825.9933712121211,193.73699414543967L817.9867424242424,191.59558797568306L809.9801136363635,189.45418180592648L801.9734848484848,187.8267131169115L793.966856060606,187.14146314258937L785.9602272727273,187.39843188296015L777.9535984848484,189.02590057197517L769.9469696969696,192.02386920963437L761.9403409090909,196.3923377959378L753.933712121212,201.78868134372433L745.9270833333333,208.2128998529941L737.9204545454545,214.97974334942484L729.9138257575758,221.83224309264585L721.9071969696969,227.99949286154484L713.9005681818181,233.31018016254112L705.8939393939394,236.9933987745224L697.8873106060605,238.96349245069845L689.8806818181818,238.79217995711792L681.874053030303,236.39380504699056L673.8674242424241,231.76836772031635L665.8607954545454,225.34414921104667L657.8541666666666,217.0354932723911L649.8475378787879,207.6133061254622L641.840909090909,197.42021275742098L633.8342803030303,187.3127756361699L625.8276515151515,177.80493224245072L617.8210227272726,169.5819325505855L609.8143939393939,163.3290265348963L601.8077651515151,159.2175266889637L593.8011363636363,157.84702674031948L585.7945075757575,159.1318704421734L577.7878787878788,163.24337028810606L569.78125,169.8389012909563L561.7746212121211,178.57583846356312L553.7679924242424,189.1115568187654L545.7613636363635,200.58949388866063L537.7547348484848,212.15308720534614L529.748106060606,223.20274304129012L521.7414772727273,233.22452391575084L513.7348484848485,241.1905548672453L505.72821969696963,246.92952340219293L497.7215909090909,249.67052329948135L489.71496212121207,249.58486705269107L481.7083333333333,246.41558592145134L473.7017045454545,240.33399239934266L465.6950757575757,231.85402396710668L457.68844696969694,221.57527435227507L449.68181818181813,209.92602478879934L441.6751893939394,197.8484939913723L433.66856060606057,186.11358818110625L425.66193181818176,175.66352607269414L417.655303030303,167.09790139366783L409.6486742424242,160.8449953779786L401.64204545454544,157.7613704935292L393.63541666666663,157.6757142467389L385.6287878787879,161.1019641183494L377.62215909090907,167.61183887440944L369.61553030303025,176.94836977454813L361.6089015151515,188.34065059765308L353.6022727272727,201.6173688501438L345.59564393939394,215.66499332374696L337.5890151515151,229.62696155055983L329.5823863636363,243.07499229663114L321.57575757575756,254.7242418601069L313.56912878787875,264.14642900703575L305.5625,270.74196000988604L297.5558712121212,274.08255363470624L289.5492424242424,274.1682098814966L281.5426136363636,270.9132725034665L273.5359848484848,264.5747102409871L265.529356060606,255.5808043280095L257.52272727272725,244.359835998485L249.51609848484847,231.6827114735261L241.5094696969697,218.14902448066456L233.50284090909088,204.7009937345933L225.4962121212121,191.85255671605387L217.48958333333331,180.37461964615864L209.48295454545453,170.6098075120686L201.47632575757575,163.15771404131573L193.46969696969697,158.18965172748054L185.46306818181816,155.6199643237726L177.45643939393938,155.36299558340184L169.4498106060606,157.3330892595779L161.4431818181818,161.01630787155918L153.436553030303,166.07002643218468L145.42992424242425,171.6376824735518L137.42329545454544,177.71927599566044L129.41666666666666,183.3725882838178L121.41003787878788,188.4263068444433L113.40340909090908,192.36649419679543L105.3967803030303,195.10749409408382L97.3901515151515,196.5636502895183L89.38352272727272,196.7349627830988L81.37689393939394,195.87840031519625L73.37026515151516,194.25093162618123L65.36363636363636,192.0238692096343L57.35700757575758,189.96811928666807L49.35037878787879,188.16933810407255L41.34375,187.1414631425894Z"></path></svg>