<svg id="svgElement" style="display: block; background: rgb(255, 255, 255);"><g id="scene3"><g id="axis7"><g id="axis7ticks"><line id="axis7tick0" x1="90" y1="333.27759197324417" x2="95" y2="333.27759197324417" style="shape-rendering: crispedges; stroke: rgb(85, 85, 85); stroke-width: 1; stroke-dasharray: none;"></line><g id="axis7tick0-vertices"></g><line id="axis7tick1" x1="90" y1="291.4715719063545" x2="95" y2="291.4715719063545" style="shape-rendering: crispedges; stroke: rgb(85, 85, 85); stroke-width: 1; stroke-dasharray: none;"></line><g id="axis7tick1-vertices"></g><line id="axis7tick2" x1="90" y1="249.66555183946488" x2="95" y2="249.66555183946488" style="shape-rendering: crispedges; stroke: rgb(85, 85, 85); stroke-width: 1; stroke-dasharray: none;"></line><g id="axis7tick2-vertices"></g><line id="axis7tick3" x1="90" y1="207.85953177257525" x2="95" y2="207.85953177257525" style="shape-rendering: crispedges; stroke: rgb(85, 85, 85); stroke-width: 1; stroke-dasharray: none;"></line><g id="axis7tick3-vertices"></g><line id="axis7tick4" x1="90" y1="166.05351170568562" x2="95" y2="166.05351170568562" style="shape-rendering: crispedges; stroke: rgb(85, 85, 85); stroke-width: 1; stroke-dasharray: none;"></line><g id="axis7tick4-vertices"></g><line id="axis7tick5" x1="90" y1="124.24749163879599" x2="95" y2="124.24749163879599" style="shape-rendering: crispedges; stroke: rgb(85, 85, 85); stroke-width: 1; stroke-dasharray: none;"></line><g id="axis7tick5-vertices"></g></g><g id="axis7labels"><text id="axis7label0" text-anchor="end" alignment-baseline="middle" dominant-baseline="middle" x="90" y="333.27759197324417" style="fill: rgb(85, 85, 85); font-size: 12px; font-family: Arial, sans-serif; font-weight: normal;">−100</text><text id="axis7label1" text-anchor="end" alignment-baseline="middle" dominant-baseline="middle" x="90" y="291.4715719063545" style="fill: rgb(85, 85, 85); font-size: 12px; font-family: Arial, sans-serif; font-weight: normal;">−50</text><text id="axis7label2" text-anchor="end" alignment-baseline="middle" dominant-baseline="middle" x="90" y="249.66555183946488" style="fill: rgb(85, 85, 85); font-size: 12px; font-family: Arial, sans-serif; font-weight: normal;">0.0</text><text id="axis7label3" text-anchor="end" alignment-baseline="middle" dominant-baseline="middle" x="90" y="207.85953177257525" style="fill: rgb(85, 85, 85); font-size: 12px; font-family: Arial, sans-serif; font-weight: normal;">50</text><text id="axis7label4" text-anchor="end" alignment-baseline="middle" dominant-baseline="middle" x="90" y="166.05351170568562" style="fill: rgb(85, 85, 85); font-size: 12px; font-family: Arial, sans-serif; font-weight: normal;">100</text><text id="axis7label5" text-anchor="end" alignment-baseline="middle" dominant-baseline="middle" x="90" y="124.24749163879599" style="fill: rgb(85, 85, 85); font-size: 12px; font-family: Arial, sans-serif; font-weight: normal;">150</text></g><line id="axis7path" x1="95" y1="100" x2="95" y2="350" style="shape-rendering: crispedges; stroke: rgb(85, 85, 85); stroke-width: 1; stroke-dasharray: none;"></line><g id="axis7path-vertices"></g><text id="axis7-title" text-anchor="middle" alignment-baseline="middle" dominant-baseline="middle" x="54.5" y="225" transform="rotate(-90 54.5 225)" style="fill: rgb(85, 85, 85); font-weight: bold; font-size: 12px; font-family: Arial, sans-serif;">Net Income</text></g><g id="axis6"><g id="axis6ticks"><line id="axis6tick0" x1="128.00733455012505" y1="355" x2="128.00733455012505" y2="360" style="shape-rendering: crispedges; stroke: rgb(85, 85, 85); stroke-width: 1; stroke-dasharray: none;"></line><g id="axis6tick0-vertices"></g><line id="axis6tick1" x1="202.02883120394782" y1="355" x2="202.02883120394782" y2="360" style="shape-rendering: crispedges; stroke: rgb(85, 85, 85); stroke-width: 1; stroke-dasharray: none;"></line><g id="axis6tick1-vertices"></g><line id="axis6tick2" x1="276.15172716825526" y1="355" x2="276.15172716825526" y2="360" style="shape-rendering: crispedges; stroke: rgb(85, 85, 85); stroke-width: 1; stroke-dasharray: none;"></line><g id="axis6tick2-vertices"></g><line id="axis6tick3" x1="350.17322382207806" y1="355" x2="350.17322382207806" y2="360" style="shape-rendering: crispedges; stroke: rgb(85, 85, 85); stroke-width: 1; stroke-dasharray: none;"></line><g id="axis6tick3-vertices"></g><line id="axis6tick4" x1="424.2961197863855" y1="355" x2="424.2961197863855" y2="360" style="shape-rendering: crispedges; stroke: rgb(85, 85, 85); stroke-width: 1; stroke-dasharray: none;"></line><g id="axis6tick4-vertices"></g><line id="axis6tick5" x1="498.3176164402082" y1="355" x2="498.3176164402082" y2="360" style="shape-rendering: crispedges; stroke: rgb(85, 85, 85); stroke-width: 1; stroke-dasharray: none;"></line><g id="axis6tick5-vertices"></g><line id="axis6tick6" x1="572.4405124045156" y1="355" x2="572.4405124045156" y2="360" style="shape-rendering: crispedges; stroke: rgb(85, 85, 85); stroke-width: 1; stroke-dasharray: none;"></line><g id="axis6tick6-vertices"></g></g><g id="axis6labels"><text id="axis6label0" text-anchor="middle" alignment-baseline="text-before-edge" dominant-baseline="text-before-edge" x="128.00733455012505" y="360" style="fill: rgb(85, 85, 85); font-size: 12px; font-family: Arial, sans-serif; font-weight: normal;">01/01/10</text><text id="axis6label1" text-anchor="middle" alignment-baseline="text-before-edge" dominant-baseline="text-before-edge" x="202.02883120394782" y="360" style="fill: rgb(85, 85, 85); font-size: 12px; font-family: Arial, sans-serif; font-weight: normal;">01/01/12</text><text id="axis6label2" text-anchor="middle" alignment-baseline="text-before-edge" dominant-baseline="text-before-edge" x="276.15172716825526" y="360" style="fill: rgb(85, 85, 85); font-size: 12px; font-family: Arial, sans-serif; font-weight: normal;">01/01/14</text><text id="axis6label3" text-anchor="middle" alignment-baseline="text-before-edge" dominant-baseline="text-before-edge" x="350.17322382207806" y="360" style="fill: rgb(85, 85, 85); font-size: 12px; font-family: Arial, sans-serif; font-weight: normal;">01/01/16</text><text id="axis6label4" text-anchor="middle" alignment-baseline="text-before-edge" dominant-baseline="text-before-edge" x="424.2961197863855" y="360" style="fill: rgb(85, 85, 85); font-size: 12px; font-family: Arial, sans-serif; font-weight: normal;">01/01/18</text><text id="axis6label5" text-anchor="middle" alignment-baseline="text-before-edge" dominant-baseline="text-before-edge" x="498.3176164402082" y="360" style="fill: rgb(85, 85, 85); font-size: 12px; font-family: Arial, sans-serif; font-weight: normal;">01/01/20</text><text id="axis6label6" text-anchor="middle" alignment-baseline="text-before-edge" dominant-baseline="text-before-edge" x="572.4405124045156" y="360" style="fill: rgb(85, 85, 85); font-size: 12px; font-family: Arial, sans-serif; font-weight: normal;">01/01/22</text></g><line id="axis6path" x1="100" y1="355" x2="600" y2="355" style="shape-rendering: crispedges; stroke: rgb(85, 85, 85); stroke-width: 1; stroke-dasharray: none;"></line><g id="axis6path-vertices"></g><text id="axis6-title" text-anchor="middle" alignment-baseline="middle" dominant-baseline="middle" x="350" y="395.5" style="fill: rgb(85, 85, 85); font-weight: bold; font-size: 12px; font-family: Arial, sans-serif;">Date</text></g><path id="area3" class="area" d="M100,311.53846153846155L109.22733725410667,217.05685618729098L118.55607381869802,279.76588628762545L127.88481038328939,173.57859531772576L137.01074832691137,238.7959866220736L146.23808558101805,222.90969899665552L155.56682214560942,253.01003344481603L164.89555871020076,193.64548494983276L174.02149665382274,245.48494983277592L183.24883390792942,350L192.5775704725208,236.2876254180602L201.90630703711213,200.33444816053512L211.13364429121881,214.5484949832776L220.3609815453255,323.24414715719064L229.68971810991687,247.1571906354515L239.0184546745082,100L248.1443926181302,246.3210702341137L257.37172987223687,232.94314381270902L266.70046643682826,269.7324414715719L276.02920300141955,194.48160535117057L285.1551409450416,247.9933110367893L294.38247819914824,242.14046822742475L303.7112147637396,259.6989966555184L313.039951328331,220.40133779264215L322.16588927195295,261.371237458194L331.3932265260596,236.2876254180602L340.721963090651,242.14046822742475L350.05069965524234,206.1872909698997L359.27803690934905,256.35451505016727L368.5053741634557,249.66555183946488L377.83411072804705,249.66555183946488L387.1628472926384,218.72909698996656L396.2887852362604,238.7959866220736L405.5161224903671,236.2876254180602L414.8448590549584,222.90969899665552L424.17359561954976,297.32441471571906L433.2995335631718,231.27090301003344L442.52687081727845,229.59866220735785L451.85560738186985,228.76254180602007L461.1843439464611,203.67892976588627L470.31028189008316,224.5819397993311L479.5376191441898,228.76254180602007L488.8663557087812,236.2876254180602L498.1950922733725,192.80936454849498L507.4224295274792,222.0735785953177L516.6497667815859,229.59866220735785L525.9785033461773,221.23745819397993L535.3072399107687,241.30434782608694L544.4331778543906,215.3846153846154L553.6605151084973,204.5150501672241L562.9892516730886,203.67892976588627L572.3179882376801,191.1371237458194L581.443926181302,245.48494983277592L590.6712634354086,197.82608695652172L600,218.72909698996656L600,249.66555183946488L590.6712634354086,249.66555183946488L581.443926181302,249.66555183946488L572.3179882376801,249.66555183946488L562.9892516730886,249.66555183946488L553.6605151084973,249.66555183946488L544.4331778543906,249.66555183946488L535.3072399107687,249.66555183946488L525.9785033461773,249.66555183946488L516.6497667815859,249.66555183946488L507.4224295274792,249.66555183946488L498.1950922733725,249.66555183946488L488.8663557087812,249.66555183946488L479.5376191441898,249.66555183946488L470.31028189008316,249.66555183946488L461.1843439464611,249.66555183946488L451.85560738186985,249.66555183946488L442.52687081727845,249.66555183946488L433.2995335631718,249.66555183946488L424.17359561954976,249.66555183946488L414.8448590549584,249.66555183946488L405.5161224903671,249.66555183946488L396.2887852362604,249.66555183946488L387.1628472926384,249.66555183946488L377.83411072804705,249.66555183946488L368.5053741634557,249.66555183946488L359.27803690934905,249.66555183946488L350.05069965524234,249.66555183946488L340.721963090651,249.66555183946488L331.3932265260596,249.66555183946488L322.16588927195295,249.66555183946488L313.039951328331,249.66555183946488L303.7112147637396,249.66555183946488L294.38247819914824,249.66555183946488L285.1551409450416,249.66555183946488L276.02920300141955,249.66555183946488L266.70046643682826,249.66555183946488L257.37172987223687,249.66555183946488L248.1443926181302,249.66555183946488L239.0184546745082,249.66555183946488L229.68971810991687,249.66555183946488L220.3609815453255,249.66555183946488L211.13364429121881,249.66555183946488L201.90630703711213,249.66555183946488L192.5775704725208,249.66555183946488L183.24883390792942,249.66555183946488L174.02149665382274,249.66555183946488L164.89555871020076,249.66555183946488L155.56682214560942,249.66555183946488L146.23808558101805,249.66555183946488L137.01074832691137,249.66555183946488L127.88481038328939,249.66555183946488L118.55607381869802,249.66555183946488L109.22733725410667,249.66555183946488L100,249.66555183946488L100,311.53846153846155 z" style="fill: url(&quot;#LinearGradient1&quot;); stroke: none; stroke-width: 0.25; stroke-dasharray: none;"></path><g id="area3-vertices"></g></g><defs><linearGradient id="LinearGradient1" x1="0%" x2="0%" y1="100%" y2="0%"><stop offset="0%" style="stop-color: rgb(233, 88, 57); stop-opacity: 1;"></stop><stop offset="40.13377926421405%" style="stop-color: rgb(250, 248, 193); stop-opacity: 1;"></stop><stop offset="100%" style="stop-color: rgb(49, 54, 149); stop-opacity: 1;"></stop></linearGradient></defs></svg>