<svg xmlns="http://www.w3.org/2000/svg" xmlns:xlink="http://www.w3.org/1999/xlink" version="1.1" id="Layer_1" x="0px" y="0px" style="enable-background:new 0 0 407.1 284.9;" xml:space="preserve"><style type="text/css">
	.st0{fill:none;stroke:#808080;stroke-miterlimit:10;}
	.st1{fill:none;stroke:#F2F2F2;stroke-miterlimit:10;}
	.st2{fill:#333333;}
	.st3{font-family: 'Roboto', sans-serif; font-weight:300;}
	.st4{font-size:11px;}
	.st5{font-size:10px;}
	.st6{fill:#79B8F0;}
	.st7{fill:#8998F0;}
	.st8{fill:#D1A9E5;}
</style><line class="st0" x1="27.1" y1="260" x2="393.1" y2="260"/><line class="st1" x1="27.1" y1="223" x2="393.1" y2="223"/><line class="st1" x1="27.1" y1="187" x2="393.1" y2="187"/><line class="st1" x1="27.1" y1="152" x2="393.1" y2="152"/><line class="st1" x1="27.1" y1="116" x2="393.1" y2="116"/><line class="st1" x1="27.1" y1="81" x2="393.1" y2="81"/><line class="st1" x1="27.1" y1="45" x2="393.1" y2="45"/><g><text transform="matrix(1 0 0 1 53.6847 274.249)" class="st2 st3 st4">Su</text></g><g><text transform="matrix(1 0 0 1 100.2609 273)" class="st2 st3 st4">Mo</text></g><g><text transform="matrix(1 0 0 1 149.7169 273)" class="st2 st3 st4">Tu</text></g><g><text transform="matrix(1 0 0 1 196.3663 273)" class="st2 st3 st4">We</text></g><g><text transform="matrix(1 0 0 1 245.7169 273)" class="st2 st3 st4">Th</text></g><g><text transform="matrix(1 0 0 1 295.1593 273)" class="st2 st3 st4">Fr</text></g><g><text transform="matrix(1 0 0 1 341.7892 273)" class="st2 st3 st4">Sa</text></g><g><text transform="matrix(1 0 0 1 57.7322 24)" class="st2 st3 st5">Sub-Categoty 1</text></g><g><text transform="matrix(1 0 0 1 157.7318 23.6667)" class="st2 st3 st5">Sub-Category 2</text></g><g><text transform="matrix(1 0 0 1 11.9357 191.6934)" class="st2 st3 st4">40</text></g><g><text transform="matrix(1 0 0 1 11.9357 226.9434)" class="st2 st3 st4">20</text></g><g><text transform="matrix(1 0 0 1 18.0323 263.6099)" class="st2 st3 st4">0</text></g><g><text transform="matrix(1 0 0 1 11.9357 156.1382)" class="st2 st3 st4">60</text></g><g><text transform="matrix(1 0 0 1 11.9357 120.5825)" class="st2 st3 st4">80</text></g><g><text transform="matrix(1 0 0 1 5.839 85.0269)" class="st2 st3 st4">100</text></g><g><text transform="matrix(1 0 0 1 5.839 49.4712)" class="st2 st3 st4">120</text></g><g><rect x="44.1" y="101.5" class="st6" width="9.2" height="158"/></g><g><rect x="54.5" y="44.5" class="st7" width="9.2" height="215"/></g><g><rect x="65" y="65.8" class="st8" width="9.2" height="193.7"/></g><g><g><rect x="93.1" y="130" class="st6" width="9.2" height="129.5"/></g><g><rect x="103.5" y="58" class="st7" width="9.2" height="201.5"/></g><g><rect x="114" y="58" class="st8" width="9.2" height="201.5"/></g></g><g><rect x="141.1" y="107" class="st6" width="9.2" height="152.5"/><g><rect x="151.5" y="128.3" class="st7" width="9.2" height="131.2"/></g><g><rect x="162" y="142.3" class="st8" width="9.2" height="117.1"/></g></g><g><rect x="258" y="107" class="st8" width="9.2" height="152.5"/><g><rect x="247.6" y="128.3" class="st7" width="9.2" height="131.2"/></g><g><rect x="237.1" y="142.3" class="st6" width="9.2" height="117.1"/></g></g><g><rect x="306" y="162.8" class="st8" width="9.2" height="96.8"/><g><rect x="295.6" y="94.7" class="st7" width="9.2" height="164.8"/></g><g><rect x="285.1" y="200.9" class="st6" width="9.2" height="58.6"/></g></g><rect x="354" y="204.5" class="st8" width="9.2" height="55"/><g><rect x="343.6" y="173" class="st7" width="9.2" height="86.5"/></g><g><rect x="333.1" y="232.6" class="st6" width="9.2" height="26.8"/></g><rect x="189.1" y="53" class="st6" width="9.2" height="206.5"/><g><rect x="199.5" y="128.3" class="st7" width="9.2" height="131.2"/></g><g><rect x="210" y="90.3" class="st8" width="9.2" height="169.2"/></g><rect x="44.1" y="15" class="st6" width="10" height="10"/><rect x="144.1" y="15" class="st7" width="10" height="10"/><g><text transform="matrix(1 0 0 1 257.7318 23.6667)" class="st2 st3 st5">Sub-Category 3</text></g><rect x="244.1" y="15" class="st8" width="10" height="10"/><g id="ai2html-settings"></g></svg>