<svg xmlns="http://www.w3.org/2000/svg" xmlns:xlink="http://www.w3.org/1999/xlink" version="1.1" id="Layer_1" x="0px" y="0px" style="enable-background:new 0 0 407.1 306.9;" xml:space="preserve"><style type="text/css">
	.st0{fill:#F2F2F2;}
	.st1{fill:none;stroke:#E6E6E6;stroke-miterlimit:10;}
	.st2{fill:#333333;}
	.st3{font-family: 'Roboto', sans-serif; font-weight:300;}
	.st4{font-size:11px;}
	.st5{fill:#79B8F0;}
	.st6{fill:none;stroke:#808080;stroke-miterlimit:10;}
	.st7{fill:none;stroke:#F2F2F2;stroke-miterlimit:10;}
	.st8{fill:#ABB8F0;}
</style><g id="ai2html-settings"></g><g><rect x="29" y="224.5" class="st0" width="367" height="71"/><line class="st1" x1="29" y1="295.4" x2="396" y2="295.4"/><line class="st1" x1="29" y1="259.4" x2="396" y2="259.4"/><g><text transform="matrix(1 0 0 1 10.3174 264.1934)" class="st2 st3 st4">-20</text></g><g><text transform="matrix(1 0 0 1 10.3174 299.4434)" class="st2 st3 st4">-40</text></g><g><rect x="294" y="224.9" class="st5" width="32" height="38"/></g><g><rect x="342" y="224.9" class="st5" width="32" height="65"/></g><line class="st6" x1="29" y1="224.4" x2="396" y2="224.4"/><line class="st7" x1="29" y1="187.4" x2="396" y2="187.4"/><line class="st7" x1="29" y1="151.4" x2="396" y2="151.4"/><line class="st7" x1="29" y1="116.4" x2="396" y2="116.4"/><line class="st7" x1="29" y1="80.4" x2="396" y2="80.4"/><line class="st7" x1="29" y1="45.4" x2="396" y2="45.4"/><line class="st7" x1="29" y1="9.4" x2="396" y2="9.4"/><g><text transform="matrix(1 0 0 1 63.5967 238.749)" class="st2 st3 st4">Su</text></g><g><text transform="matrix(1 0 0 1 110.1279 237.5)" class="st2 st3 st4">Mo</text></g><g><text transform="matrix(1 0 0 1 159.6455 237.5)" class="st2 st3 st4">Tu</text></g><g><text transform="matrix(1 0 0 1 206.1973 237.5)" class="st2 st3 st4">We</text></g><g><text transform="matrix(1 0 0 1 255.6455 237.5)" class="st2 st3 st4">Th</text></g><g><text transform="matrix(1 0 0 1 304.9277 217.5)" class="st2 st3 st4">Fr</text></g><g><text transform="matrix(1 0 0 1 351.7021 217.5)" class="st2 st3 st4">Sa</text></g><g><text transform="matrix(1 0 0 1 13.4824 156.1933)" class="st2 st3 st4">40</text></g><g><text transform="matrix(1 0 0 1 13.4824 191.4433)" class="st2 st3 st4">20</text></g><g><text transform="matrix(1 0 0 1 20.6133 228.1098)" class="st2 st3 st4">0</text></g><g><text transform="matrix(1 0 0 1 13.4824 120.6382)" class="st2 st3 st4">60</text></g><g><text transform="matrix(1 0 0 1 13.4824 85.0825)" class="st2 st3 st4">80</text></g><g><text transform="matrix(1 0 0 1 7.0332 49.5268)" class="st2 st3 st4">100</text></g><g><text transform="matrix(1 0 0 1 7.3525 13.9712)" class="st2 st3 st4">120</text></g><g><rect x="102" y="43.9" class="st5" width="32" height="180"/></g><g><rect x="150" y="59.9" class="st5" width="32" height="164"/></g><g><rect x="198" y="92.9" class="st8" width="32" height="131"/></g><g><rect x="246" y="150.9" class="st5" width="32" height="73"/></g><g><rect x="54" y="9.9" class="st5" width="32" height="214"/></g></g></svg>