<svg version="1.1" xmlns="http://www.w3.org/2000/svg" xmlns:xlink="http://www.w3.org/1999/xlink" role="group" style="width: 100%; height: 100%; overflow: visible;"><defs><clipPath id="id-46"><rect width="1136" height="500"/></clipPath><linearGradient id="gradient-id-69" x1="1%" x2="99%" y1="59%" y2="41%"><stop stop-color="#474758" offset="0"/><stop stop-color="#474758" stop-opacity="1" offset="0.75"/><stop stop-color="#3cabff" stop-opacity="1" offset="0.755"/></linearGradient><filter id="filter-id-78" filterUnits="objectBoundingBox" width="200%" height="200%" x="-50%" y="-50%"/><filter id="filter-id-99" filterUnits="objectBoundingBox" width="200%" height="200%" x="-50%" y="-50%"/><clipPath id="id-146"><path d="M0,0 L1041,0 L1041,437 L0,437 L0,0"/></clipPath><clipPath id="id-357"><rect width="1041" height="437"/></clipPath><filter id="filter-id-51" filterUnits="objectBoundingBox" width="200%" height="200%" x="-50%" y="-50%"><feGaussianBlur result="blurOut" in="SourceGraphic" stdDeviation="1.5"/><feOffset result="offsetBlur" dx="1" dy="1"/><feFlood flood-color="#000000" flood-opacity="0.5"/><feComposite in2="offsetBlur" operator="in"/><feMerge><feMergeNode/><feMergeNode in="SourceGraphic"/></feMerge></filter><filter id="filter-id-66" filterUnits="objectBoundingBox" width="120%" height="120%" x="-10%" y="-10%"><feColorMatrix type="saturate" values="0"/></filter><filter id="filter-id-151" filterUnits="objectBoundingBox" width="200%" height="200%" x="-50%" y="-50%"><feGaussianBlur result="blurOut" in="SourceGraphic" stdDeviation="1.5"/><feOffset result="offsetBlur" dx="1" dy="1"/><feFlood flood-color="#000000" flood-opacity="0.5"/><feComposite in2="offsetBlur" operator="in"/><feMerge><feMergeNode/><feMergeNode in="SourceGraphic"/></feMerge></filter></defs><g><g fill="#ffffff" fill-opacity="0"><rect width="1136" height="500"/></g><g><g role="region" clip-path="url(&quot;#id-46&quot;)" opacity="1" aria-label="Chart"><g transform="translate(15,15)"><g><g><g><g><g><g><g transform="translate(65,0)"><g fill="#ffffff" fill-opacity="0"><rect width="1041" height="437"/></g><g><g><g><g stroke="#000000" stroke-opacity="0.15" fill="none" transform="translate(0,489)" display="none"><path d=" M0,0  L1041,0 " transform="translate(-0.5,-0.5)"/></g><g stroke="#000000" stroke-opacity="0.15" fill="none" transform="translate(0,463)" display="none"><path d=" M0,0  L1041,0 " transform="translate(-0.5,-0.5)"/></g><g stroke="#000000" stroke-opacity="0.15" fill="none" transform="translate(0,437)"><path d=" M0,0  L1041,0 " transform="translate(-0.5,-0.5)"/></g><g stroke="#000000" stroke-opacity="0.15" fill="none" transform="translate(0,411)" display="none"><path d=" M0,0  L1041,0 " transform="translate(-0.5,-0.5)"/></g><g stroke="#000000" stroke-opacity="0.15" fill="none" transform="translate(0,385)" display="none"><path d=" M0,0  L1041,0 " transform="translate(-0.5,-0.5)"/></g><g stroke="#000000" stroke-opacity="0.15" fill="none" transform="translate(0,359)" display="none"><path d=" M0,0  L1041,0 " transform="translate(-0.5,-0.5)"/></g><g stroke="#000000" stroke-opacity="0.15" fill="none" transform="translate(0,333)" display="none"><path d=" M0,0  L1041,0 " transform="translate(-0.5,-0.5)"/></g><g stroke="#000000" stroke-opacity="0.15" fill="none" transform="translate(0,307)"><path d=" M0,0  L1041,0 " transform="translate(-0.5,-0.5)"/></g><g stroke="#000000" stroke-opacity="0.15" fill="none" transform="translate(0,281)" display="none"><path d=" M0,0  L1041,0 " transform="translate(-0.5,-0.5)"/></g><g stroke="#000000" stroke-opacity="0.15" fill="none" transform="translate(0,255)" display="none"><path d=" M0,0  L1041,0 " transform="translate(-0.5,-0.5)"/></g><g stroke="#000000" stroke-opacity="0.15" fill="none" transform="translate(0,229)" display="none"><path d=" M0,0  L1041,0 " transform="translate(-0.5,-0.5)"/></g><g stroke="#000000" stroke-opacity="0.15" fill="none" transform="translate(0,-65)" display="none"><path d=" M0,0  L1041,0 " transform="translate(-0.5,-0.5)"/></g><g stroke="#000000" stroke-opacity="0.15" fill="none" transform="translate(0,177)"><path d=" M0,0  L1041,0 " transform="translate(-0.5,-0.5)"/></g><g stroke="#000000" stroke-opacity="0.15" fill="none" transform="translate(0,130)"><path d=" M0,0  L1041,0 " transform="translate(-0.5,-0.5)"/></g><g stroke="#000000" stroke-opacity="0.15" fill="none"><path d=" M0,0  L1041,0 " transform="translate(-0.5,-0.5)"/></g><g stroke="#000000" stroke-opacity="0.15" fill="none" transform="translate(0,65)"><path d=" M0,0  L1041,0 " transform="translate(-0.5,-0.5)"/></g><g stroke="#000000" stroke-opacity="0.15" fill="none" transform="translate(0,242)"><path d=" M0,0  L1041,0 " transform="translate(-0.5,-0.5)"/></g><g stroke="#000000" stroke-opacity="0.15" fill="none" transform="translate(0,372)"><path d=" M0,0  L1041,0 " transform="translate(-0.5,-0.5)"/></g><g stroke="#000000" stroke-opacity="0.15" fill="none" transform="translate(0,502)" display="none"><path d=" M0,0  L1041,0 " transform="translate(-0.5,-0.5)"/></g><g stroke="#000000" stroke-opacity="0.15" fill="none" transform="translate(0,567)" display="none"><path d=" M0,0  L1041,0 " transform="translate(-0.5,-0.5)"/></g></g></g><g><g><g stroke="#000000" stroke-opacity="0.15" fill="none"><path d=" M0,0  L0,437 " transform="translate(-0.5,-0.5)"/></g><g stroke="#000000" stroke-opacity="0.15" fill="none" transform="translate(87,0)"><path d=" M0,0  L0,437 " transform="translate(-0.5,-0.5)"/></g><g stroke="#000000" stroke-opacity="0.15" fill="none" transform="translate(174,0)"><path d=" M0,0  L0,437 " transform="translate(-0.5,-0.5)"/></g><g stroke="#000000" stroke-opacity="0.15" fill="none" transform="translate(260,0)"><path d=" M0,0  L0,437 " transform="translate(-0.5,-0.5)"/></g><g stroke="#000000" stroke-opacity="0.15" fill="none" transform="translate(347,0)"><path d=" M0,0  L0,437 " transform="translate(-0.5,-0.5)"/></g><g stroke="#000000" stroke-opacity="0.15" fill="none" transform="translate(434,0)"><path d=" M0,0  L0,437 " transform="translate(-0.5,-0.5)"/></g><g stroke="#000000" stroke-opacity="0.15" fill="none" transform="translate(520,0)"><path d=" M0,0  L0,437 " transform="translate(-0.5,-0.5)"/></g><g stroke="#000000" stroke-opacity="0.15" fill="none" transform="translate(607,0)"><path d=" M0,0  L0,437 " transform="translate(-0.5,-0.5)"/></g><g stroke="#000000" stroke-opacity="0.15" fill="none" transform="translate(694,0)"><path d=" M0,0  L0,437 " transform="translate(-0.5,-0.5)"/></g><g stroke="#000000" stroke-opacity="0.15" fill="none" transform="translate(781,0)"><path d=" M0,0  L0,437 " transform="translate(-0.5,-0.5)"/></g><g stroke="#000000" stroke-opacity="0.15" fill="none" transform="translate(867,0)"><path d=" M0,0  L0,437 " transform="translate(-0.5,-0.5)"/></g><g stroke="#000000" stroke-opacity="0.15" fill="none" transform="translate(954,0)"><path d=" M0,0  L0,437 " transform="translate(-0.5,-0.5)"/></g><g stroke="#000000" stroke-opacity="0.15" fill="none" transform="translate(1041,0)"><path d=" M0,0  L0,437 " transform="translate(-0.5,-0.5)"/></g></g></g><g><g><g role="group" stroke-opacity="0" fill-opacity="1" stroke="#67b7dc" aria-label="Series"><g><g clip-path="url(&quot;#id-146&quot;)"><g><g><g><g stroke-opacity="0" fill="#67b7dc" fill-opacity="1" stroke="#67b7dc" role="menuitem" focusable="true" tabindex="0" transform="translate(8.672,35.766)" id="id-359"><g><g><path d="M0,0 L69.403,0 a0,0 0 0 1 0,0 L69.403,401.234 a0,0 0 0 1 -0,0 L0,401.234 a0,0 0 0 1 -0,-0 L0,0 a0,0 0 0 1 0,-0 Z"/></g></g></g><g stroke-opacity="0" fill="#6794dc" fill-opacity="1" stroke="#67b7dc" role="menuitem" focusable="true" tabindex="0" transform="translate(95.428,192.228)" id="id-369"><g><g><path d="M0,0 L69.393,0 a0,0 0 0 1 0,0 L69.393,244.772 a0,0 0 0 1 -0,0 L0,244.772 a0,0 0 0 1 -0,-0 L0,0 a0,0 0 0 1 0,-0 Z"/></g></g></g><g stroke-opacity="0" fill="#6771dc" fill-opacity="1" stroke="#67b7dc" role="menuitem" focusable="true" tabindex="0" transform="translate(182.175,201.722)"><g><g><path d="M0,0 L69.403,0 a0,0 0 0 1 0,0 L69.403,235.278 a0,0 0 0 1 -0,0 L0,235.278 a0,0 0 0 1 -0,-0 L0,0 a0,0 0 0 1 0,-0 Z"/></g></g></g><g stroke-opacity="0" fill="#8067dc" fill-opacity="1" stroke="#67b7dc" role="menuitem" focusable="true" tabindex="0" transform="translate(268.922,265.061)"><g><g><path d="M0,0 L69.403,0 a0,0 0 0 1 0,0 L69.403,171.939 a0,0 0 0 1 -0,0 L0,171.939 a0,0 0 0 1 -0,-0 L0,0 a0,0 0 0 1 0,-0 Z"/></g></g></g><g stroke-opacity="0" fill="#a367dc" fill-opacity="1" stroke="#67b7dc" role="menuitem" focusable="true" tabindex="0" transform="translate(355.678,291.073)"><g><g><path d="M0,0 L69.393,0 a0,0 0 0 1 0,0 L69.393,145.927 a0,0 0 0 1 -0,0 L0,145.927 a0,0 0 0 1 -0,-0 L0,0 a0,0 0 0 1 0,-0 Z"/></g></g></g><g stroke-opacity="0" fill="#c767dc" fill-opacity="1" stroke="#67b7dc" role="menuitem" focusable="true" tabindex="0" transform="translate(442.425,292.114)"><g><g><path d="M0,0 L69.403,0 a0,0 0 0 1 0,0 L69.403,144.886 a0,0 0 0 1 -0,0 L0,144.886 a0,0 0 0 1 -0,-0 L0,0 a0,0 0 0 1 0,-0 Z"/></g></g></g><g stroke-opacity="0" fill="#dc67ce" fill-opacity="1" stroke="#67b7dc" role="menuitem" focusable="true" tabindex="0" transform="translate(529.172,309.021)"><g><g><path d="M0,0 L69.403,0 a0,0 0 0 1 0,0 L69.403,127.979 a0,0 0 0 1 -0,0 L0,127.979 a0,0 0 0 1 -0,-0 L0,0 a0,0 0 0 1 0,-0 Z"/></g></g></g><g stroke-opacity="0" fill="#dc67ab" fill-opacity="1" stroke="#67b7dc" role="menuitem" focusable="true" tabindex="0" transform="translate(615.928,344.528)"><g><g><path d="M0,0 L69.393,0 a0,0 0 0 1 0,0 L69.393,92.472 a0,0 0 0 1 -0,0 L0,92.472 a0,0 0 0 1 -0,-0 L0,0 a0,0 0 0 1 0,-0 Z"/></g></g></g><g stroke-opacity="0" fill="#dc6788" fill-opacity="1" stroke="#67b7dc" role="menuitem" focusable="true" tabindex="0" transform="translate(702.675,350.51)" id="id-432"><g><g><path d="M0,0 L69.403,0 a0,0 0 0 1 0,0 L69.403,86.49 a0,0 0 0 1 -0,0 L0,86.49 a0,0 0 0 1 -0,-0 L0,0 a0,0 0 0 1 0,-0 Z"/></g></g></g><g stroke-opacity="0" fill="#dc6967" fill-opacity="1" stroke="#67b7dc" role="menuitem" focusable="true" tabindex="0" transform="translate(789.422,361.565)"><g><g><path d="M0,0 L69.403,0 a0,0 0 0 1 0,0 L69.403,75.435 a0,0 0 0 1 -0,0 L0,75.435 a0,0 0 0 1 -0,-0 L0,0 a0,0 0 0 1 0,-0 Z"/></g></g></g><g stroke-opacity="0" fill="#dc8c67" fill-opacity="1" stroke="#67b7dc" role="menuitem" focusable="true" tabindex="0" transform="translate(876.178,379.384)"><g><g><path d="M0,0 L69.393,0 a0,0 0 0 1 0,0 L69.393,57.616 a0,0 0 0 1 -0,0 L0,57.616 a0,0 0 0 1 -0,-0 L0,0 a0,0 0 0 1 0,-0 Z"/></g></g></g><g stroke-opacity="0" fill="#dcaf67" fill-opacity="1" stroke="#67b7dc" role="menuitem" focusable="true" tabindex="0" transform="translate(962.925,379.644)"><g><g><path d="M0,0 L69.403,0 a0,0 0 0 1 0,0 L69.403,57.356 a0,0 0 0 1 -0,0 L0,57.356 a0,0 0 0 1 -0,-0 L0,0 a0,0 0 0 1 0,-0 Z"/></g></g></g></g></g></g></g><g/></g></g></g></g><g clip-path="url(&quot;#id-357&quot;)"><g><g fill="#67b7dc" stroke="#67b7dc"><g/></g></g></g><g><g><g><g/></g><g><g/></g></g></g><g><g/></g><g><g><g opacity="1"><g><g fill="#ffffff" fill-opacity="0.9" transform="translate(-5,143.065)"><path width="1056" height="20.81" d=" M0,0  C1.6001,1.2 4.7998,-2 8,-2 C11.2002,-2 12.7998,2 16,2 C19.2002,2 20.7998,-2 24,-2 C27.2002,-2 28.7998,2 32,2 C35.2002,2 36.7998,-2 40,-2 C43.2002,-2 44.7998,2 48,2 C51.2002,2 52.7998,-2 56,-2 C59.2002,-2 60.7998,2 64,2 C67.2002,2 68.7998,-2 72,-2 C75.2002,-2 76.7998,2 80,2 C83.2002,2 84.7998,-2 88,-2 C91.2002,-2 92.7998,2 96,2 C99.2002,2 100.7998,-2 104,-2 C107.2002,-2 108.7998,2 112,2 C115.2002,2 116.7998,-2 120,-2 C123.2002,-2 124.7998,2 128,2 C131.2002,2 132.7998,-2 136,-2 C139.2002,-2 140.7998,2 144,2 C147.2002,2 148.7998,-2 152,-2 C155.2002,-2 156.7998,2 160,2 C163.2002,2 164.7998,-2 168,-2 C171.2002,-2 172.7998,2 176,2 C179.2002,2 180.7998,-2 184,-2 C187.2002,-2 188.7998,2 192,2 C195.2002,2 196.7998,-2 200,-2 C203.2002,-2 204.7998,2 208,2 C211.2002,2 212.7998,-2 216,-2 C219.2002,-2 220.7998,2 224,2 C227.2002,2 228.7998,-2 232,-2 C235.2002,-2 236.7998,2 240,2 C243.2002,2 244.7998,-2 248,-2 C251.2002,-2 252.7998,2 256,2 C259.2002,2 260.7998,-2 264,-2 C267.2002,-2 268.7998,2 272,2 C275.2002,2 276.7998,-2 280,-2 C283.2002,-2 284.7998,2 288,2 C291.2002,2 292.7998,-2 296,-2 C299.2002,-2 300.7998,2 304,2 C307.2002,2 308.7998,-2 312,-2 C315.2002,-2 316.7998,2 320,2 C323.2002,2 324.7998,-2 328,-2 C331.2002,-2 332.7998,2 336,2 C339.2002,2 340.7998,-2 344,-2 C347.2002,-2 348.7998,2 352,2 C355.2002,2 356.7998,-2 360,-2 C363.2002,-2 364.7998,2 368,2 C371.2002,2 372.7998,-2 376,-2 C379.2002,-2 380.7998,2 384,2 C387.2002,2 388.7998,-2 392,-2 C395.2002,-2 396.7998,2 400,2 C403.2002,2 404.7998,-2 408,-2 C411.2002,-2 412.7998,2 416,2 C419.2002,2 420.7998,-2 424,-2 C427.2002,-2 428.7998,2 432,2 C435.2002,2 436.7998,-2 440,-2 C443.2002,-2 444.7998,2 448,2 C451.2002,2 452.7998,-2 456,-2 C459.2002,-2 460.7998,2 464,2 C467.2002,2 468.7998,-2 472,-2 C475.2002,-2 476.7998,2 480,2 C483.2002,2 484.7998,-2 488,-2 C491.2002,-2 492.7998,2 496,2 C499.2002,2 500.7998,-2 504,-2 C507.2002,-2 508.7998,2 512,2 C515.2002,2 516.7998,-2 520,-2 C523.2002,-2 524.7998,2 528,2 C531.2002,2 532.7998,-2 536,-2 C539.2002,-2 540.7998,2 544,2 C547.2002,2 548.7998,-2 552,-2 C555.2002,-2 556.7998,2 560,2 C563.2002,2 564.7998,-2 568,-2 C571.2002,-2 572.7998,2 576,2 C579.2002,2 580.7998,-2 584,-2 C587.2002,-2 588.7998,2 592,2 C595.2002,2 596.7998,-2 600,-2 C603.2002,-2 604.7998,2 608,2 C611.2002,2 612.7998,-2 616,-2 C619.2002,-2 620.7998,2 624,2 C627.2002,2 628.7998,-2 632,-2 C635.2002,-2 636.7998,2 640,2 C643.2002,2 644.7998,-2 648,-2 C651.2002,-2 652.7998,2 656,2 C659.2002,2 660.7998,-2 664,-2 C667.2002,-2 668.7998,2 672,2 C675.2002,2 676.7998,-2 680,-2 C683.2002,-2 684.7998,2 688,2 C691.2002,2 692.7998,-2 696,-2 C699.2002,-2 700.7998,2 704,2 C707.2002,2 708.7998,-2 712,-2 C715.2002,-2 716.7998,2 720,2 C723.2002,2 724.7998,-2 728,-2 C731.2002,-2 732.7998,2 736,2 C739.2002,2 740.7998,-2 744,-2 C747.2002,-2 748.7998,2 752,2 C755.2002,2 756.7998,-2 760,-2 C763.2002,-2 764.7998,2 768,2 C771.2002,2 772.7998,-2 776,-2 C779.2002,-2 780.7998,2 784,2 C787.2002,2 788.7998,-2 792,-2 C795.2002,-2 796.7998,2 800,2 C803.2002,2 804.7998,-2 808,-2 C811.2002,-2 812.7998,2 816,2 C819.2002,2 820.7998,-2 824,-2 C827.2002,-2 828.7998,2 832,2 C835.2002,2 836.7998,-2 840,-2 C843.2002,-2 844.7998,2 848,2 C851.2002,2 852.7998,-2 856,-2 C859.2002,-2 860.7998,2 864,2 C867.2002,2 868.7998,-2 872,-2 C875.2002,-2 876.7998,2 880,2 C883.2002,2 884.7998,-2 888,-2 C891.2002,-2 892.7998,2 896,2 C899.2002,2 900.7998,-2 904,-2 C907.2002,-2 908.7998,2 912,2 C915.2002,2 916.7998,-2 920,-2 C923.2002,-2 924.7998,2 928,2 C931.2002,2 932.7998,-2 936,-2 C939.2002,-2 940.7998,2 944,2 C947.2002,2 948.7998,-2 952,-2 C955.2002,-2 956.7998,2 960,2 C963.2002,2 964.7998,-2 968,-2 C971.2002,-2 972.7998,2 976,2 C979.2002,2 980.7998,-2 984,-2 C987.2002,-2 988.7998,2 992,2 C995.2002,2 996.7998,-2 1000,-2 C1003.2002,-2 1004.7998,2 1008,2 C1011.2002,2 1012.7998,-2 1016,-2 C1019.2002,-2 1020.7998,2 1024,2 C1027.2002,2 1028.7998,-2 1032,-2 C1035.2002,-2 1036.7998,2 1040,2 C1043.2002,2 1044.7998,-2 1048,-2 C1051.2002,-2 1054.3999,1.2 1056,2 L1056,0  L1056,20.81  C1054.3999,22.01 1051.2002,18.81 1048,18.81 C1044.7998,18.81 1043.2002,22.81 1040,22.81 C1036.7998,22.81 1035.2002,18.81 1032,18.81 C1028.7998,18.81 1027.2002,22.81 1024,22.81 C1020.7998,22.81 1019.2002,18.81 1016,18.81 C1012.7998,18.81 1011.2002,22.81 1008,22.81 C1004.7998,22.81 1003.2002,18.81 1000,18.81 C996.7998,18.81 995.2002,22.81 992,22.81 C988.7998,22.81 987.2002,18.81 984,18.81 C980.7998,18.81 979.2002,22.81 976,22.81 C972.7998,22.81 971.2002,18.81 968,18.81 C964.7998,18.81 963.2002,22.81 960,22.81 C956.7998,22.81 955.2002,18.81 952,18.81 C948.7998,18.81 947.2002,22.81 944,22.81 C940.7998,22.81 939.2002,18.81 936,18.81 C932.7998,18.81 931.2002,22.81 928,22.81 C924.7998,22.81 923.2002,18.81 920,18.81 C916.7998,18.81 915.2002,22.81 912,22.81 C908.7998,22.81 907.2002,18.81 904,18.81 C900.7998,18.81 899.2002,22.81 896,22.81 C892.7998,22.81 891.2002,18.81 888,18.81 C884.7998,18.81 883.2002,22.81 880,22.81 C876.7998,22.81 875.2002,18.81 872,18.81 C868.7998,18.81 867.2002,22.81 864,22.81 C860.7998,22.81 859.2002,18.81 856,18.81 C852.7998,18.81 851.2002,22.81 848,22.81 C844.7998,22.81 843.2002,18.81 840,18.81 C836.7998,18.81 835.2002,22.81 832,22.81 C828.7998,22.81 827.2002,18.81 824,18.81 C820.7998,18.81 819.2002,22.81 816,22.81 C812.7998,22.81 811.2002,18.81 808,18.81 C804.7998,18.81 803.2002,22.81 800,22.81 C796.7998,22.81 795.2002,18.81 792,18.81 C788.7998,18.81 787.2002,22.81 784,22.81 C780.7998,22.81 779.2002,18.81 776,18.81 C772.7998,18.81 771.2002,22.81 768,22.81 C764.7998,22.81 763.2002,18.81 760,18.81 C756.7998,18.81 755.2002,22.81 752,22.81 C748.7998,22.81 747.2002,18.81 744,18.81 C740.7998,18.81 739.2002,22.81 736,22.81 C732.7998,22.81 731.2002,18.81 728,18.81 C724.7998,18.81 723.2002,22.81 720,22.81 C716.7998,22.81 715.2002,18.81 712,18.81 C708.7998,18.81 707.2002,22.81 704,22.81 C700.7998,22.81 699.2002,18.81 696,18.81 C692.7998,18.81 691.2002,22.81 688,22.81 C684.7998,22.81 683.2002,18.81 680,18.81 C676.7998,18.81 675.2002,22.81 672,22.81 C668.7998,22.81 667.2002,18.81 664,18.81 C660.7998,18.81 659.2002,22.81 656,22.81 C652.7998,22.81 651.2002,18.81 648,18.81 C644.7998,18.81 643.2002,22.81 640,22.81 C636.7998,22.81 635.2002,18.81 632,18.81 C628.7998,18.81 627.2002,22.81 624,22.81 C620.7998,22.81 619.2002,18.81 616,18.81 C612.7998,18.81 611.2002,22.81 608,22.81 C604.7998,22.81 603.2002,18.81 600,18.81 C596.7998,18.81 595.2002,22.81 592,22.81 C588.7998,22.81 587.2002,18.81 584,18.81 C580.7998,18.81 579.2002,22.81 576,22.81 C572.7998,22.81 571.2002,18.81 568,18.81 C564.7998,18.81 563.2002,22.81 560,22.81 C556.7998,22.81 555.2002,18.81 552,18.81 C548.7998,18.81 547.2002,22.81 544,22.81 C540.7998,22.81 539.2002,18.81 536,18.81 C532.7998,18.81 531.2002,22.81 528,22.81 C524.7998,22.81 523.2002,18.81 520,18.81 C516.7998,18.81 515.2002,22.81 512,22.81 C508.7998,22.81 507.2002,18.81 504,18.81 C500.7998,18.81 499.2002,22.81 496,22.81 C492.7998,22.81 491.2002,18.81 488,18.81 C484.7998,18.81 483.2002,22.81 480,22.81 C476.7998,22.81 475.2002,18.81 472,18.81 C468.7998,18.81 467.2002,22.81 464,22.81 C460.7998,22.81 459.2002,18.81 456,18.81 C452.7998,18.81 451.2002,22.81 448,22.81 C444.7998,22.81 443.2002,18.81 440,18.81 C436.7998,18.81 435.2002,22.81 432,22.81 C428.7998,22.81 427.2002,18.81 424,18.81 C420.7998,18.81 419.2002,22.81 416,22.81 C412.7998,22.81 411.2002,18.81 408,18.81 C404.7998,18.81 403.2002,22.81 400,22.81 C396.7998,22.81 395.2002,18.81 392,18.81 C388.7998,18.81 387.2002,22.81 384,22.81 C380.7998,22.81 379.2002,18.81 376,18.81 C372.7998,18.81 371.2002,22.81 368,22.81 C364.7998,22.81 363.2002,18.81 360,18.81 C356.7998,18.81 355.2002,22.81 352,22.81 C348.7998,22.81 347.2002,18.81 344,18.81 C340.7998,18.81 339.2002,22.81 336,22.81 C332.7998,22.81 331.2002,18.81 328,18.81 C324.7998,18.81 323.2002,22.81 320,22.81 C316.7998,22.81 315.2002,18.81 312,18.81 C308.7998,18.81 307.2002,22.81 304,22.81 C300.7998,22.81 299.2002,18.81 296,18.81 C292.7998,18.81 291.2002,22.81 288,22.81 C284.7998,22.81 283.2002,18.81 280,18.81 C276.7998,18.81 275.2002,22.81 272,22.81 C268.7998,22.81 267.2002,18.81 264,18.81 C260.7998,18.81 259.2002,22.81 256,22.81 C252.7998,22.81 251.2002,18.81 248,18.81 C244.7998,18.81 243.2002,22.81 240,22.81 C236.7998,22.81 235.2002,18.81 232,18.81 C228.7998,18.81 227.2002,22.81 224,22.81 C220.7998,22.81 219.2002,18.81 216,18.81 C212.7998,18.81 211.2002,22.81 208,22.81 C204.7998,22.81 203.2002,18.81 200,18.81 C196.7998,18.81 195.2002,22.81 192,22.81 C188.7998,22.81 187.2002,18.81 184,18.81 C180.7998,18.81 179.2002,22.81 176,22.81 C172.7998,22.81 171.2002,18.81 168,18.81 C164.7998,18.81 163.2002,22.81 160,22.81 C156.7998,22.81 155.2002,18.81 152,18.81 C148.7998,18.81 147.2002,22.81 144,22.81 C140.7998,22.81 139.2002,18.81 136,18.81 C132.7998,18.81 131.2002,22.81 128,22.81 C124.7998,22.81 123.2002,18.81 120,18.81 C116.7998,18.81 115.2002,22.81 112,22.81 C108.7998,22.81 107.2002,18.81 104,18.81 C100.7998,18.81 99.2002,22.81 96,22.81 C92.7998,22.81 91.2002,18.81 88,18.81 C84.7998,18.81 83.2002,22.81 80,22.81 C76.7998,22.81 75.2002,18.81 72,18.81 C68.7998,18.81 67.2002,22.81 64,22.81 C60.7998,22.81 59.2002,18.81 56,18.81 C52.7998,18.81 51.2002,22.81 48,22.81 C44.7998,22.81 43.2002,18.81 40,18.81 C36.7998,18.81 35.2002,22.81 32,22.81 C28.7998,22.81 27.2002,18.81 24,18.81 C20.7998,18.81 19.2002,22.81 16,22.81 C12.7998,22.81 11.2002,18.81 8,18.81 C4.7998,18.81 1.6001,22.01 0,22.81 L0,20.81 z"/></g><g fill="none" stroke="#000000" stroke-opacity="0.3" transform="translate(-5,163.875)"><path x1="0" y1="0" d=" M0,0  C1.6001,1.2 4.7998,-2 8,-2 C11.2002,-2 12.7998,2 16,2 C19.2002,2 20.7998,-2 24,-2 C27.2002,-2 28.7998,2 32,2 C35.2002,2 36.7998,-2 40,-2 C43.2002,-2 44.7998,2 48,2 C51.2002,2 52.7998,-2 56,-2 C59.2002,-2 60.7998,2 64,2 C67.2002,2 68.7998,-2 72,-2 C75.2002,-2 76.7998,2 80,2 C83.2002,2 84.7998,-2 88,-2 C91.2002,-2 92.7998,2 96,2 C99.2002,2 100.7998,-2 104,-2 C107.2002,-2 108.7998,2 112,2 C115.2002,2 116.7998,-2 120,-2 C123.2002,-2 124.7998,2 128,2 C131.2002,2 132.7998,-2 136,-2 C139.2002,-2 140.7998,2 144,2 C147.2002,2 148.7998,-2 152,-2 C155.2002,-2 156.7998,2 160,2 C163.2002,2 164.7998,-2 168,-2 C171.2002,-2 172.7998,2 176,2 C179.2002,2 180.7998,-2 184,-2 C187.2002,-2 188.7998,2 192,2 C195.2002,2 196.7998,-2 200,-2 C203.2002,-2 204.7998,2 208,2 C211.2002,2 212.7998,-2 216,-2 C219.2002,-2 220.7998,2 224,2 C227.2002,2 228.7998,-2 232,-2 C235.2002,-2 236.7998,2 240,2 C243.2002,2 244.7998,-2 248,-2 C251.2002,-2 252.7998,2 256,2 C259.2002,2 260.7998,-2 264,-2 C267.2002,-2 268.7998,2 272,2 C275.2002,2 276.7998,-2 280,-2 C283.2002,-2 284.7998,2 288,2 C291.2002,2 292.7998,-2 296,-2 C299.2002,-2 300.7998,2 304,2 C307.2002,2 308.7998,-2 312,-2 C315.2002,-2 316.7998,2 320,2 C323.2002,2 324.7998,-2 328,-2 C331.2002,-2 332.7998,2 336,2 C339.2002,2 340.7998,-2 344,-2 C347.2002,-2 348.7998,2 352,2 C355.2002,2 356.7998,-2 360,-2 C363.2002,-2 364.7998,2 368,2 C371.2002,2 372.7998,-2 376,-2 C379.2002,-2 380.7998,2 384,2 C387.2002,2 388.7998,-2 392,-2 C395.2002,-2 396.7998,2 400,2 C403.2002,2 404.7998,-2 408,-2 C411.2002,-2 412.7998,2 416,2 C419.2002,2 420.7998,-2 424,-2 C427.2002,-2 428.7998,2 432,2 C435.2002,2 436.7998,-2 440,-2 C443.2002,-2 444.7998,2 448,2 C451.2002,2 452.7998,-2 456,-2 C459.2002,-2 460.7998,2 464,2 C467.2002,2 468.7998,-2 472,-2 C475.2002,-2 476.7998,2 480,2 C483.2002,2 484.7998,-2 488,-2 C491.2002,-2 492.7998,2 496,2 C499.2002,2 500.7998,-2 504,-2 C507.2002,-2 508.7998,2 512,2 C515.2002,2 516.7998,-2 520,-2 C523.2002,-2 524.7998,2 528,2 C531.2002,2 532.7998,-2 536,-2 C539.2002,-2 540.7998,2 544,2 C547.2002,2 548.7998,-2 552,-2 C555.2002,-2 556.7998,2 560,2 C563.2002,2 564.7998,-2 568,-2 C571.2002,-2 572.7998,2 576,2 C579.2002,2 580.7998,-2 584,-2 C587.2002,-2 588.7998,2 592,2 C595.2002,2 596.7998,-2 600,-2 C603.2002,-2 604.7998,2 608,2 C611.2002,2 612.7998,-2 616,-2 C619.2002,-2 620.7998,2 624,2 C627.2002,2 628.7998,-2 632,-2 C635.2002,-2 636.7998,2 640,2 C643.2002,2 644.7998,-2 648,-2 C651.2002,-2 652.7998,2 656,2 C659.2002,2 660.7998,-2 664,-2 C667.2002,-2 668.7998,2 672,2 C675.2002,2 676.7998,-2 680,-2 C683.2002,-2 684.7998,2 688,2 C691.2002,2 692.7998,-2 696,-2 C699.2002,-2 700.7998,2 704,2 C707.2002,2 708.7998,-2 712,-2 C715.2002,-2 716.7998,2 720,2 C723.2002,2 724.7998,-2 728,-2 C731.2002,-2 732.7998,2 736,2 C739.2002,2 740.7998,-2 744,-2 C747.2002,-2 748.7998,2 752,2 C755.2002,2 756.7998,-2 760,-2 C763.2002,-2 764.7998,2 768,2 C771.2002,2 772.7998,-2 776,-2 C779.2002,-2 780.7998,2 784,2 C787.2002,2 788.7998,-2 792,-2 C795.2002,-2 796.7998,2 800,2 C803.2002,2 804.7998,-2 808,-2 C811.2002,-2 812.7998,2 816,2 C819.2002,2 820.7998,-2 824,-2 C827.2002,-2 828.7998,2 832,2 C835.2002,2 836.7998,-2 840,-2 C843.2002,-2 844.7998,2 848,2 C851.2002,2 852.7998,-2 856,-2 C859.2002,-2 860.7998,2 864,2 C867.2002,2 868.7998,-2 872,-2 C875.2002,-2 876.7998,2 880,2 C883.2002,2 884.7998,-2 888,-2 C891.2002,-2 892.7998,2 896,2 C899.2002,2 900.7998,-2 904,-2 C907.2002,-2 908.7998,2 912,2 C915.2002,2 916.7998,-2 920,-2 C923.2002,-2 924.7998,2 928,2 C931.2002,2 932.7998,-2 936,-2 C939.2002,-2 940.7998,2 944,2 C947.2002,2 948.7998,-2 952,-2 C955.2002,-2 956.7998,2 960,2 C963.2002,2 964.7998,-2 968,-2 C971.2002,-2 972.7998,2 976,2 C979.2002,2 980.7998,-2 984,-2 C987.2002,-2 988.7998,2 992,2 C995.2002,2 996.7998,-2 1000,-2 C1003.2002,-2 1004.7998,2 1008,2 C1011.2002,2 1012.7998,-2 1016,-2 C1019.2002,-2 1020.7998,2 1024,2 C1027.2002,2 1028.7998,-2 1032,-2 C1035.2002,-2 1036.7998,2 1040,2 C1043.2002,2 1044.7998,-2 1048,-2 C1051.2002,-2 1054.3999,1.2 1056,2"/></g><g fill="none" stroke="#000000" stroke-opacity="0.3" transform="translate(-5,143.065)"><path x1="0" y1="0" d=" M0,0  C1.6001,1.2 4.7998,-2 8,-2 C11.2002,-2 12.7998,2 16,2 C19.2002,2 20.7998,-2 24,-2 C27.2002,-2 28.7998,2 32,2 C35.2002,2 36.7998,-2 40,-2 C43.2002,-2 44.7998,2 48,2 C51.2002,2 52.7998,-2 56,-2 C59.2002,-2 60.7998,2 64,2 C67.2002,2 68.7998,-2 72,-2 C75.2002,-2 76.7998,2 80,2 C83.2002,2 84.7998,-2 88,-2 C91.2002,-2 92.7998,2 96,2 C99.2002,2 100.7998,-2 104,-2 C107.2002,-2 108.7998,2 112,2 C115.2002,2 116.7998,-2 120,-2 C123.2002,-2 124.7998,2 128,2 C131.2002,2 132.7998,-2 136,-2 C139.2002,-2 140.7998,2 144,2 C147.2002,2 148.7998,-2 152,-2 C155.2002,-2 156.7998,2 160,2 C163.2002,2 164.7998,-2 168,-2 C171.2002,-2 172.7998,2 176,2 C179.2002,2 180.7998,-2 184,-2 C187.2002,-2 188.7998,2 192,2 C195.2002,2 196.7998,-2 200,-2 C203.2002,-2 204.7998,2 208,2 C211.2002,2 212.7998,-2 216,-2 C219.2002,-2 220.7998,2 224,2 C227.2002,2 228.7998,-2 232,-2 C235.2002,-2 236.7998,2 240,2 C243.2002,2 244.7998,-2 248,-2 C251.2002,-2 252.7998,2 256,2 C259.2002,2 260.7998,-2 264,-2 C267.2002,-2 268.7998,2 272,2 C275.2002,2 276.7998,-2 280,-2 C283.2002,-2 284.7998,2 288,2 C291.2002,2 292.7998,-2 296,-2 C299.2002,-2 300.7998,2 304,2 C307.2002,2 308.7998,-2 312,-2 C315.2002,-2 316.7998,2 320,2 C323.2002,2 324.7998,-2 328,-2 C331.2002,-2 332.7998,2 336,2 C339.2002,2 340.7998,-2 344,-2 C347.2002,-2 348.7998,2 352,2 C355.2002,2 356.7998,-2 360,-2 C363.2002,-2 364.7998,2 368,2 C371.2002,2 372.7998,-2 376,-2 C379.2002,-2 380.7998,2 384,2 C387.2002,2 388.7998,-2 392,-2 C395.2002,-2 396.7998,2 400,2 C403.2002,2 404.7998,-2 408,-2 C411.2002,-2 412.7998,2 416,2 C419.2002,2 420.7998,-2 424,-2 C427.2002,-2 428.7998,2 432,2 C435.2002,2 436.7998,-2 440,-2 C443.2002,-2 444.7998,2 448,2 C451.2002,2 452.7998,-2 456,-2 C459.2002,-2 460.7998,2 464,2 C467.2002,2 468.7998,-2 472,-2 C475.2002,-2 476.7998,2 480,2 C483.2002,2 484.7998,-2 488,-2 C491.2002,-2 492.7998,2 496,2 C499.2002,2 500.7998,-2 504,-2 C507.2002,-2 508.7998,2 512,2 C515.2002,2 516.7998,-2 520,-2 C523.2002,-2 524.7998,2 528,2 C531.2002,2 532.7998,-2 536,-2 C539.2002,-2 540.7998,2 544,2 C547.2002,2 548.7998,-2 552,-2 C555.2002,-2 556.7998,2 560,2 C563.2002,2 564.7998,-2 568,-2 C571.2002,-2 572.7998,2 576,2 C579.2002,2 580.7998,-2 584,-2 C587.2002,-2 588.7998,2 592,2 C595.2002,2 596.7998,-2 600,-2 C603.2002,-2 604.7998,2 608,2 C611.2002,2 612.7998,-2 616,-2 C619.2002,-2 620.7998,2 624,2 C627.2002,2 628.7998,-2 632,-2 C635.2002,-2 636.7998,2 640,2 C643.2002,2 644.7998,-2 648,-2 C651.2002,-2 652.7998,2 656,2 C659.2002,2 660.7998,-2 664,-2 C667.2002,-2 668.7998,2 672,2 C675.2002,2 676.7998,-2 680,-2 C683.2002,-2 684.7998,2 688,2 C691.2002,2 692.7998,-2 696,-2 C699.2002,-2 700.7998,2 704,2 C707.2002,2 708.7998,-2 712,-2 C715.2002,-2 716.7998,2 720,2 C723.2002,2 724.7998,-2 728,-2 C731.2002,-2 732.7998,2 736,2 C739.2002,2 740.7998,-2 744,-2 C747.2002,-2 748.7998,2 752,2 C755.2002,2 756.7998,-2 760,-2 C763.2002,-2 764.7998,2 768,2 C771.2002,2 772.7998,-2 776,-2 C779.2002,-2 780.7998,2 784,2 C787.2002,2 788.7998,-2 792,-2 C795.2002,-2 796.7998,2 800,2 C803.2002,2 804.7998,-2 808,-2 C811.2002,-2 812.7998,2 816,2 C819.2002,2 820.7998,-2 824,-2 C827.2002,-2 828.7998,2 832,2 C835.2002,2 836.7998,-2 840,-2 C843.2002,-2 844.7998,2 848,2 C851.2002,2 852.7998,-2 856,-2 C859.2002,-2 860.7998,2 864,2 C867.2002,2 868.7998,-2 872,-2 C875.2002,-2 876.7998,2 880,2 C883.2002,2 884.7998,-2 888,-2 C891.2002,-2 892.7998,2 896,2 C899.2002,2 900.7998,-2 904,-2 C907.2002,-2 908.7998,2 912,2 C915.2002,2 916.7998,-2 920,-2 C923.2002,-2 924.7998,2 928,2 C931.2002,2 932.7998,-2 936,-2 C939.2002,-2 940.7998,2 944,2 C947.2002,2 948.7998,-2 952,-2 C955.2002,-2 956.7998,2 960,2 C963.2002,2 964.7998,-2 968,-2 C971.2002,-2 972.7998,2 976,2 C979.2002,2 980.7998,-2 984,-2 C987.2002,-2 988.7998,2 992,2 C995.2002,2 996.7998,-2 1000,-2 C1003.2002,-2 1004.7998,2 1008,2 C1011.2002,2 1012.7998,-2 1016,-2 C1019.2002,-2 1020.7998,2 1024,2 C1027.2002,2 1028.7998,-2 1032,-2 C1035.2002,-2 1036.7998,2 1040,2 C1043.2002,2 1044.7998,-2 1048,-2 C1051.2002,-2 1054.3999,1.2 1056,2"/></g></g></g></g></g><g role="button" focusable="true" tabindex="0" opacity="0" visibility="hidden" aria-hidden="true" transform="translate(1001,-3)" aria-labelledby="id-37-title"><g fill="#6794dc" stroke="#ffffff" fill-opacity="1" stroke-opacity="0" transform="translate(0,8)"><path d="M17,0 L18,0 a17,17 0 0 1 17,17 L35,17 a17,17 0 0 1 -17,17 L17,34 a17,17 0 0 1 -17,-17 L0,17 a17,17 0 0 1 17,-17 Z"/></g><g transform="translate(9,9)"><g stroke="#ffffff" style="pointer-events: none;" transform="translate(0,8)"><path d=" M0,0  L11,0 " transform="translate(2.5,7.5)"/></g><g fill="#000000" style="pointer-events: none;" transform="translate(17,8)"><g display="none"/></g></g><title id="id-37-title">Zoom Out</title></g></g></g><g><g><g aria-hidden="true"><g><g fill="#000000" transform="translate(0,218.5) rotate(-90)"><g display="none"/></g><g stroke="#000000" stroke-opacity="0.15" fill="none" transform="translate(65,437)" opacity="1"><path transform="translate(-0.5,-0.5)" d=" M0,0  L1041,0 "/></g><g><g><g fill="#000000" aria-label="L" fill-opacity="0" opacity="0" stroke-opacity="0" style="pointer-events: none;" transform="translate(65,218.5)"><g transform="translate(-55,-8)" style="user-select: none;"><text x="0" y="16.015625" dy="-4.324"><tspan>23,000</tspan></text></g></g><g fill="#000000" transform="translate(65,489.024)" display="none"><g transform="translate(-42,-8)" style="user-select: none;"><text x="0" y="16.015625" dy="-4.324"><tspan>-400</tspan></text></g></g><g fill="#000000" transform="translate(65,463.012)" display="none"><g transform="translate(-41,-8)" style="user-select: none;"><text x="0" y="16.015625" dy="-4.324"><tspan>-200</tspan></text></g></g><g fill="#000000" transform="translate(65,437)"><g transform="translate(-19,-8)" style="user-select: none;"><text x="0" y="16" dy="-4.32"><tspan>0</tspan></text></g></g><g fill="#000000" transform="translate(65,410.988)" display="none"><g transform="translate(-35,-8)" style="user-select: none;"><text x="0" y="16.015625" dy="-4.324"><tspan>200</tspan></text></g></g><g fill="#000000" transform="translate(65,384.976)" display="none"><g transform="translate(-36,-8)" style="user-select: none;"><text x="0" y="16.015625" dy="-4.324"><tspan>400</tspan></text></g></g><g fill="#000000" transform="translate(65,358.964)" display="none"><g transform="translate(-35,-8)" style="user-select: none;"><text x="0" y="16.015625" dy="-4.324"><tspan>600</tspan></text></g></g><g fill="#000000" transform="translate(65,332.952)" display="none"><g transform="translate(-35,-8)" style="user-select: none;"><text x="0" y="16.015625" dy="-4.324"><tspan>800</tspan></text></g></g><g fill="#000000" transform="translate(65,306.94)"><g transform="translate(-45,-8)" style="user-select: none;"><text x="0" y="16" dy="-4.32"><tspan>1,000</tspan></text></g></g><g fill="#000000" transform="translate(65,280.929)" display="none"><g transform="translate(-44,-8)" style="user-select: none;"><text x="0" y="16.015625" dy="-4.324"><tspan>1,200</tspan></text></g></g><g fill="#000000" transform="translate(65,254.917)" display="none"><g transform="translate(-45,-8)" style="user-select: none;"><text x="0" y="16.015625" dy="-4.324"><tspan>1,400</tspan></text></g></g><g fill="#000000" transform="translate(65,228.905)" display="none"><g transform="translate(-45,-8)" style="user-select: none;"><text x="0" y="16.015625" dy="-4.324"><tspan>1,600</tspan></text></g></g><g fill="#000000" transform="translate(65,-65.03)" display="none"><g transform="translate(-55,-8)" style="user-select: none;"><text x="0" y="16.015625" dy="-4.324"><tspan>24,500</tspan></text></g></g><g fill="#000000" transform="translate(65,176.881)"><g transform="translate(-47,-8)" style="user-select: none;"><text x="0" y="16" dy="-4.32"><tspan>2,000</tspan></text></g></g><g fill="#000000" transform="translate(65,130.06)"><g transform="translate(-55,-8)" style="user-select: none;"><text x="0" y="16" dy="-4.32"><tspan>23,000</tspan></text></g></g><g fill="#000000" transform="translate(65,0)"><g transform="translate(-55,-8)" style="user-select: none;"><text x="0" y="16.015625" dy="-4.324"><tspan>24,000</tspan></text></g></g><g fill="#000000" transform="translate(65,65.03)"><g transform="translate(-55,-8)" style="user-select: none;"><text x="0" y="16.015625" dy="-4.324"><tspan>23,500</tspan></text></g></g><g fill="#000000" transform="translate(65,241.911)"><g transform="translate(-45,-8)" style="user-select: none;"><text x="0" y="16.015625" dy="-4.324"><tspan>1,500</tspan></text></g></g><g fill="#000000" transform="translate(65,371.97)"><g transform="translate(-35,-8)" style="user-select: none;"><text x="0" y="16.015625" dy="-4.324"><tspan>500</tspan></text></g></g><g fill="#000000" transform="translate(65,502.03)" display="none"><g transform="translate(-41,-8)" style="user-select: none;"><text x="0" y="16.015625" dy="-4.324"><tspan>-500</tspan></text></g></g><g fill="#000000" transform="translate(65,567.06)" display="none"><g transform="translate(-51,-8)" style="user-select: none;"><text x="0" y="16.015625" dy="-4.324"><tspan>-1,000</tspan></text></g></g></g></g><g stroke="#000000" stroke-opacity="0" fill="none" style="pointer-events: none;" transform="translate(65,0)"><path d=" M0,0  L0,437 " transform="translate(-0.5,-0.5)"/></g></g></g></g></g><g transform="translate(1106,0)"><g/></g></g></g><g><g transform="translate(65,0)"/></g><g transform="translate(0,437)"><g transform="translate(65,0)"><g aria-hidden="true" font-size="11"><g><g stroke="#000000" stroke-opacity="0" fill="none" style="pointer-events: none;"><path d=" M0,0  L1041,0 " transform="translate(-0.5,-0.5)"/></g><g><g><g fill="#000000" aria-label="L" fill-opacity="0" opacity="0" stroke-opacity="0" style="pointer-events: none;" transform="translate(520.5,0)"><g transform="translate(-3,10)" style="user-select: none;"><text x="0" y="13.015625" dy="-3.514"><tspan>L</tspan></text></g></g><g fill="#000000" transform="translate(43.373,0)"><g transform="translate(-11,10)" style="user-select: none;"><text x="0" y="13" dy="-3.51"><tspan>USA</tspan></text></g></g><g fill="#000000" transform="translate(130.125,0)"><g transform="translate(-14,10)" style="user-select: none;"><text x="0" y="13" dy="-3.51"><tspan>China</tspan></text></g></g><g fill="#000000" transform="translate(216.877,0)"><g transform="translate(-15,10)" style="user-select: none;"><text x="0" y="13" dy="-3.51"><tspan>Japan</tspan></text></g></g><g fill="#000000" transform="translate(303.623,0)"><g transform="translate(-22,10)" style="user-select: none;"><text x="0" y="13" dy="-3.51"><tspan>Germany</tspan></text></g></g><g fill="#000000" transform="translate(390.375,0)"><g transform="translate(-7.5,10)" style="user-select: none;"><text x="0" y="13" dy="-3.51"><tspan>UK</tspan></text></g></g><g fill="#000000" transform="translate(477.127,0)"><g transform="translate(-16.5,10)" style="user-select: none;"><text x="0" y="13" dy="-3.51"><tspan>France</tspan></text></g></g><g fill="#000000" transform="translate(563.873,0)"><g transform="translate(-11.5,10)" style="user-select: none;"><text x="0" y="13" dy="-3.51"><tspan>India</tspan></text></g></g><g fill="#000000" transform="translate(650.625,0)"><g transform="translate(-13.5,10)" style="user-select: none;"><text x="0" y="13" dy="-3.51"><tspan>Spain</tspan></text></g></g><g fill="#000000" transform="translate(737.377,0)"><g transform="translate(-29.5,10)" style="user-select: none;"><text x="0" y="13" dy="-3.51"><tspan>Netherlands</tspan></text></g></g><g fill="#000000" transform="translate(824.123,0)"><g transform="translate(-16,10)" style="user-select: none;"><text x="0" y="13" dy="-3.51"><tspan>Russia</tspan></text></g></g><g fill="#000000" transform="translate(910.875,0)"><g transform="translate(-29.5,10)" style="user-select: none;"><text x="0" y="13" dy="-3.51"><tspan>South Korea</tspan></text></g></g><g fill="#000000" transform="translate(997.627,0)"><g transform="translate(-19,10)" style="user-select: none;"><text x="0" y="13" dy="-3.51"><tspan>Canada</tspan></text></g></g><g fill="#000000" display="none" transform="translate(1084.373,0)"><g transform="translate(0,10)" display="none"/></g></g></g><g stroke="#000000" stroke-opacity="0.15" fill="none" display="none" transform="translate(1041,-437)" opacity="0" visibility="hidden" aria-hidden="true"><path transform="translate(-0.5,-0.5)" d=" M0,0  L0,437 "/></g><g fill="#000000" transform="translate(520.5,33)"><g display="none"/></g></g></g></g></g></g></g></g></g></g></g><g><g><g role="tooltip" visibility="hidden" opacity="0"><g fill="#ffffff" fill-opacity="0.9" stroke-width="1" stroke-opacity="1" stroke="#ffffff" filter="url(&quot;#filter-id-51&quot;)" style="pointer-events: none;" transform="translate(0,6)"><path d="M3,0 L3,0 L0,-6 L13,0 L21,0 a3,3 0 0 1 3,3 L24,8 a3,3 0 0 1 -3,3 L3,11 a3,3 0 0 1 -3,-3 L0,3 a3,3 0 0 1 3,-3"/></g><g><g fill="#ffffff" style="pointer-events: none;" transform="translate(12,6)"><g transform="translate(0,7)" display="none"/></g></g></g><g visibility="hidden" display="none" style="pointer-events: none;"><g fill="#ffffff" opacity="1"><rect width="1136" height="500"/></g><g><g transform="translate(568,250)"><g><g stroke-opacity="1" fill="#f3f3f3" fill-opacity="0.8"><g><g><path d=" M53,0  a53,53,0,0,1,-106,0 a53,53,0,0,1,106,0 M42,0  a42,42,0,0,0,-84,0 a42,42,0,0,0,84,0 L42,0 "/></g></g></g><g stroke-opacity="1" fill="#000000" fill-opacity="0.2"><g><g><path d=" M50,0  a50,50,0,0,1,-100,0 a50,50,0,0,1,100,0 M45,0  a45,45,0,0,0,-90,0 a45,45,0,0,0,90,0 L45,0 "/></g></g></g><g fill="#000000" fill-opacity="0.4"><g transform="translate(-17,-8)" style="user-select: none;"><text x="17px" y="16" dy="-4.32" text-anchor="middle"><tspan>100%</tspan></text></g></g></g></g></g></g><g opacity="0.3" aria-labelledby="id-66-title" filter="url(&quot;#filter-id-66&quot;)" style="cursor: pointer;" transform="translate(0,479)"><g fill="#ffffff" opacity="0"><rect width="66" height="21"/></g><g><g shape-rendering="auto" fill="none" stroke-opacity="1" stroke-width="1.7999999999999998" stroke="#3cabff"><path d=" M15,15  C17.4001,15 22.7998,15.0001 27,15 C31.2002,14.9999 33.2999,6 36,6 C38.7001,6 38.6999,10.5 40.5,10.5 C42.3001,10.5 42.2999,6 45,6 C47.7001,6 50.9999,14.9999 54,15 C57.0002,15.0001 58.7999,15 60,15"/></g><g shape-rendering="auto" fill="none" stroke-opacity="1" stroke-width="1.7999999999999998" stroke="url(&quot;#gradient-id-69&quot;)"><path d=" M6,15  C8.2501,15 9.7498,15.0001 15,15 C20.2502,14.9999 20.7748,3.6 27,3.6 C33.2252,3.6 33.8998,14.9999 39.9,15 C45.9002,15.0001 45.9748,15 51,15 C56.0252,15 57.7499,15 60,15"/></g></g><title id="id-66-title">Chart created using amCharts library</title></g><g role="tooltip" visibility="hidden" opacity="0"><g fill="#000000" fill-opacity="1" stroke-width="1" stroke-opacity="1" stroke="#000000" style="pointer-events: none;" transform="translate(80,452)"><path d="M0,0 L20,0 a0,0 0 0 1 0,0 L20,10 a0,0 0 0 1 -0,0 L0,10 a0,0 0 0 1 -0,-0 L0,0 a0,0 0 0 1 0,-0"/></g><g><g fill="#ffffff" style="pointer-events: none;" transform="translate(90,452)"><g transform="translate(0,5)" display="none"/></g></g></g><g role="tooltip" visibility="hidden" opacity="0"><g fill="#000000" fill-opacity="1" stroke-width="1" stroke-opacity="1" stroke="#000000" style="pointer-events: none;" transform="translate(-25,15)"><path d="M0,0 L20,0 a0,0 0 0 1 0,0 L20,0 L20,0 L25,0 L20,10 L20,10 a0,0 0 0 1 -0,0 L0,10 a0,0 0 0 1 -0,-0 L0,0 a0,0 0 0 1 0,-0"/></g><g><g fill="#ffffff" style="pointer-events: none;" transform="translate(-15,15)"><g transform="translate(0,5)" display="none"/></g></g></g><g role="tooltip" opacity="0" aria-describedby="id-369" transform="translate(210.1245,207.228)" aria-hidden="true" visibility="hidden"><g fill="#6794dc" fill-opacity="0.9" stroke-width="1" stroke-opacity="1" stroke="#ffffff" filter="url(&quot;#filter-id-151&quot;)" style="pointer-events: none;" transform="translate(6,-13.5)"><path d="M3,0 L55,0 a3,3 0 0 1 3,3 L58,24 a3,3 0 0 1 -3,3 L3,27 a3,3 0 0 1 -3,-3 L0,24 L0,18.5 L-6,13.5 L0,8.5 L0,3 a3,3 0 0 1 3,-3"/></g><g><g fill="#000000" style="pointer-events: none;" transform="translate(35,-13.5)"><g transform="translate(-17,7)" style="user-select: none;"><text x="0" y="16.015625" dy="-4.324"><tspan>1,882</tspan></text></g></g></g></g></g></g></g></g></svg>