<svg xmlns="http://www.w3.org/2000/svg"><g transform="translate(90,20)"><g transform="translate(0,340)" fill="none" font-size="10" font-family="sans-serif" text-anchor="middle"><path class="domain" stroke="#000" d="M0.5,6V0.5H340.5V6"></path><g class="tick" opacity="1" transform="translate(0.5,0)"><line stroke="#000" y2="6"></line><text fill="#000" y="9" dy="0.71em" transform="translate(-10,0)rotate(-45)" style="text-anchor: end;">0</text></g><g class="tick" opacity="1" transform="translate(26.653846153846157,0)"><line stroke="#000" y2="6"></line><text fill="#000" y="9" dy="0.71em" transform="translate(-10,0)rotate(-45)" style="text-anchor: end;">1,000</text></g><g class="tick" opacity="1" transform="translate(52.807692307692314,0)"><line stroke="#000" y2="6"></line><text fill="#000" y="9" dy="0.71em" transform="translate(-10,0)rotate(-45)" style="text-anchor: end;">2,000</text></g><g class="tick" opacity="1" transform="translate(78.96153846153847,0)"><line stroke="#000" y2="6"></line><text fill="#000" y="9" dy="0.71em" transform="translate(-10,0)rotate(-45)" style="text-anchor: end;">3,000</text></g><g class="tick" opacity="1" transform="translate(105.11538461538463,0)"><line stroke="#000" y2="6"></line><text fill="#000" y="9" dy="0.71em" transform="translate(-10,0)rotate(-45)" style="text-anchor: end;">4,000</text></g><g class="tick" opacity="1" transform="translate(131.26923076923077,0)"><line stroke="#000" y2="6"></line><text fill="#000" y="9" dy="0.71em" transform="translate(-10,0)rotate(-45)" style="text-anchor: end;">5,000</text></g><g class="tick" opacity="1" transform="translate(157.42307692307693,0)"><line stroke="#000" y2="6"></line><text fill="#000" y="9" dy="0.71em" transform="translate(-10,0)rotate(-45)" style="text-anchor: end;">6,000</text></g><g class="tick" opacity="1" transform="translate(183.57692307692307,0)"><line stroke="#000" y2="6"></line><text fill="#000" y="9" dy="0.71em" transform="translate(-10,0)rotate(-45)" style="text-anchor: end;">7,000</text></g><g class="tick" opacity="1" transform="translate(209.73076923076925,0)"><line stroke="#000" y2="6"></line><text fill="#000" y="9" dy="0.71em" transform="translate(-10,0)rotate(-45)" style="text-anchor: end;">8,000</text></g><g class="tick" opacity="1" transform="translate(235.8846153846154,0)"><line stroke="#000" y2="6"></line><text fill="#000" y="9" dy="0.71em" transform="translate(-10,0)rotate(-45)" style="text-anchor: end;">9,000</text></g><g class="tick" opacity="1" transform="translate(262.03846153846155,0)"><line stroke="#000" y2="6"></line><text fill="#000" y="9" dy="0.71em" transform="translate(-10,0)rotate(-45)" style="text-anchor: end;">10,000</text></g><g class="tick" opacity="1" transform="translate(288.1923076923077,0)"><line stroke="#000" y2="6"></line><text fill="#000" y="9" dy="0.71em" transform="translate(-10,0)rotate(-45)" style="text-anchor: end;">11,000</text></g><g class="tick" opacity="1" transform="translate(314.34615384615387,0)"><line stroke="#000" y2="6"></line><text fill="#000" y="9" dy="0.71em" transform="translate(-10,0)rotate(-45)" style="text-anchor: end;">12,000</text></g><g class="tick" opacity="1" transform="translate(340.5,0)"><line stroke="#000" y2="6"></line><text fill="#000" y="9" dy="0.71em" transform="translate(-10,0)rotate(-45)" style="text-anchor: end;">13,000</text></g></g><g fill="none" font-size="10" font-family="sans-serif" text-anchor="end"><path class="domain" stroke="#000" d="M-6,0.5H0.5V340.5H-6"></path><g class="tick" opacity="1" transform="translate(0,18.514851485148515)"><line stroke="#000" x2="-6"></line><text fill="#000" x="-9" dy="0.32em">United States</text></g><g class="tick" opacity="1" transform="translate(0,52.178217821782184)"><line stroke="#000" x2="-6"></line><text fill="#000" x="-9" dy="0.32em">Russia</text></g><g class="tick" opacity="1" transform="translate(0,85.84158415841584)"><line stroke="#000" x2="-6"></line><text fill="#000" x="-9" dy="0.32em">Germany (FRG)</text></g><g class="tick" opacity="1" transform="translate(0,119.50495049504951)"><line stroke="#000" x2="-6"></line><text fill="#000" x="-9" dy="0.32em">France</text></g><g class="tick" opacity="1" transform="translate(0,153.16831683168317)"><line stroke="#000" x2="-6"></line><text fill="#000" x="-9" dy="0.32em">United Kingdom</text></g><g class="tick" opacity="1" transform="translate(0,186.83168316831683)"><line stroke="#000" x2="-6"></line><text fill="#000" x="-9" dy="0.32em">China</text></g><g class="tick" opacity="1" transform="translate(0,220.49504950495052)"><line stroke="#000" x2="-6"></line><text fill="#000" x="-9" dy="0.32em">Spain</text></g><g class="tick" opacity="1" transform="translate(0,254.15841584158417)"><line stroke="#000" x2="-6"></line><text fill="#000" x="-9" dy="0.32em">Netherlands</text></g><g class="tick" opacity="1" transform="translate(0,287.82178217821786)"><line stroke="#000" x2="-6"></line><text fill="#000" x="-9" dy="0.32em">Italy</text></g><g class="tick" opacity="1" transform="translate(0,321.4851485148515)"><line stroke="#000" x2="-6"></line><text fill="#000" x="-9" dy="0.32em">Israel</text></g></g><rect x="0" y="3.3663366336633658" width="324.15076923076924" height="30.2970297029703" fill="#69b3a2"></rect><rect x="0" y="37.02970297029703" width="160.79384615384618" height="30.2970297029703" fill="#69b3a2"></rect><rect x="0" y="70.6930693069307" width="43.23230769230769" height="30.2970297029703" fill="#69b3a2"></rect><rect x="0" y="104.35643564356437" width="56.54461538461538" height="30.2970297029703" fill="#69b3a2"></rect><rect x="0" y="138.01980198019803" width="31.75076923076923" height="30.2970297029703" fill="#69b3a2"></rect><rect x="0" y="171.68316831683168" width="29.58" height="30.2970297029703" fill="#69b3a2"></rect><rect x="0" y="205.34653465346537" width="21.28923076923077" height="30.2970297029703" fill="#69b3a2"></rect><rect x="0" y="239.00990099009903" width="30.521538461538462" height="30.2970297029703" fill="#69b3a2"></rect><rect x="0" y="272.6732673267327" width="17.26153846153846" height="30.2970297029703" fill="#69b3a2"></rect><rect x="0" y="306.33663366336634" width="33.0323076923077" height="30.2970297029703" fill="#69b3a2"></rect></g></svg>