<svg width="856" height="400"><defs><filter x="-100%" y="-100%" width="300%" height="300%" id="rablfilter5"><feGaussianBlur in="SourceAlpha" stdDeviation="2"></feGaussianBlur><feOffset dx="0" dy="0"></feOffset><feComponentTransfer><feFuncA type="linear" slope="0"></feFuncA></feComponentTransfer><feMerge><feMergeNode></feMergeNode><feMergeNode in="SourceGraphic"></feMergeNode></feMerge></filter><filter x="-100%" y="-100%" width="300%" height="300%" id="rablfilter4"><feGaussianBlur in="SourceAlpha" stdDeviation="2"></feGaussianBlur><feOffset dx="0" dy="0"></feOffset><feComponentTransfer><feFuncA type="linear" slope="0.4"></feFuncA></feComponentTransfer><feMerge><feMergeNode></feMergeNode><feMergeNode in="SourceGraphic"></feMergeNode></feMerge></filter><filter x="-100%" y="-100%" width="300%" height="300%" id="rablfilter3"><feGaussianBlur in="SourceAlpha" stdDeviation="1"></feGaussianBlur><feOffset dx="0" dy="2"></feOffset><feComponentTransfer><feFuncA type="linear" slope="0.2"></feFuncA></feComponentTransfer><feMerge><feMergeNode></feMergeNode><feMergeNode in="SourceGraphic"></feMergeNode></feMerge></filter><filter x="-100%" y="-100%" width="300%" height="300%" id="rablfilter2"><feGaussianBlur in="SourceAlpha" stdDeviation="2"></feGaussianBlur><feOffset dx="0" dy="1"></feOffset><feComponentTransfer><feFuncA type="linear" slope="0.4"></feFuncA></feComponentTransfer><feMerge><feMergeNode></feMergeNode><feMergeNode in="SourceGraphic"></feMergeNode></feMerge></filter><filter x="-100%" y="-100%" width="300%" height="300%" id="rablfilter1"><feGaussianBlur in="SourceAlpha" stdDeviation="0"></feGaussianBlur><feOffset dx="0" dy="1"></feOffset><feComponentTransfer><feFuncA type="linear" slope="0.4"></feFuncA></feComponentTransfer><feMerge><feMergeNode></feMergeNode><feMergeNode in="SourceGraphic"></feMergeNode></feMerge></filter><clipPath id="rablfilter0"><rect x="66.5" y="77.5" width="646" height="302"></rect></clipPath></defs><g><rect x="0" y="0" width="856" height="400" fill="#ffffff" fill-opacity="1" stroke="#ffffff" stroke-opacity="0" stroke-width="0"></rect><text x="0" y="15.203125" style="cursor: default; user-select: none; -webkit-font-smoothing: antialiased; font-family: Roboto; font-size: 16px;" fill="#757575" dx="0px">Company Performance</text><text x="0" y="36.8125" style="cursor: default; user-select: none; -webkit-font-smoothing: antialiased; font-family: Roboto; font-size: 14px;" fill="#BDBDBD" dx="0px">Sales, Expenses, and Profit: 2014-2017</text><rect x="767.71875" y="77.5" width="12" height="12" rx="2" ry="2" fill="#1b9e77"></rect><text x="787.71875" y="92.703125" style="cursor: default; user-select: none; -webkit-font-smoothing: antialiased; font-family: Roboto;" fill="#757575" dx="0px">Sales</text><rect x="767.71875" y="112.703125" width="12" height="12" rx="2" ry="2" fill="#d95f02"></rect><text x="787.71875" y="127.90625" style="cursor: default; user-select: none; -webkit-font-smoothing: antialiased; font-family: Roboto;" fill="#757575" dx="0px">Expenses</text><rect x="767.71875" y="147.90625" width="12" height="12" rx="2" ry="2" fill="#7570b3"></rect><text x="787.71875" y="163.109375" style="cursor: default; user-select: none; -webkit-font-smoothing: antialiased; font-family: Roboto;" fill="#757575" dx="0px">Profit</text><rect x="66.5" y="77.5" width="646" height="302" fill="#ffffff" fill-opacity="1" stroke="#ffffff" stroke-opacity="0" stroke-width="1"></rect></g><g><line x1="66.5" x2="66.5" y1="77.5" y2="379.5" stroke="#9E9E9E" stroke-width="1"></line><line x1="174.16666666666666" x2="174.16666666666666" y1="77.5" y2="379.5" stroke="#E0E0E0" stroke-width="1"></line><line x1="281.8333333333333" x2="281.8333333333333" y1="77.5" y2="379.5" stroke="#E0E0E0" stroke-width="1"></line><line x1="389.5" x2="389.5" y1="77.5" y2="379.5" stroke="#E0E0E0" stroke-width="1"></line><line x1="497.16666666666663" x2="497.16666666666663" y1="77.5" y2="379.5" stroke="#E0E0E0" stroke-width="1"></line><line x1="604.8333333333334" x2="604.8333333333334" y1="77.5" y2="379.5" stroke="#E0E0E0" stroke-width="1"></line><line x1="712.5" x2="712.5" y1="77.5" y2="379.5" stroke="#E0E0E0" stroke-width="1"></line></g><g><path d="M 602.3333333333334 78 A 2 2 0 0 1 604.3333333333334 80 L 604.3333333333334 92.21461187214612 A 2 2 0 0 1 602.3333333333334 94.21461187214612 L 67 94.21461187214612 A 0 0 0 0 1 67 94.21461187214612 L 67 78 A 0 0 0 0 1 67 78 Z" fill="#1b9e77" clip-path="url(#rablfilter0)"></path><path d="M 279.3333333333333 95.21461187214612 A 2 2 0 0 1 281.3333333333333 97.21461187214612 L 281.3333333333333 109.42922374429223 A 2 2 0 0 1 279.3333333333333 111.42922374429223 L 67 111.42922374429223 A 0 0 0 0 1 67 111.42922374429223 L 67 95.21461187214612 A 0 0 0 0 1 67 95.21461187214612 Z" fill="#d95f02" clip-path="url(#rablfilter0)"></path><path d="M 171.66666666666666 112.42922374429223 A 2 2 0 0 1 173.66666666666666 114.42922374429223 L 173.66666666666666 126.64383561643834 A 2 2 0 0 1 171.66666666666666 128.64383561643834 L 67 128.64383561643834 A 0 0 0 0 1 67 128.64383561643834 L 67 112.42922374429223 A 0 0 0 0 1 67 112.42922374429223 Z" fill="#7570b3" clip-path="url(#rablfilter0)"></path><path d="M 693.85 157.45205479452056 A 2 2 0 0 1 695.85 159.45205479452056 L 695.85 171.66666666666663 A 2 2 0 0 1 693.85 173.66666666666663 L 67 173.66666666666663 A 0 0 0 0 1 67 173.66666666666663 L 67 157.45205479452056 A 0 0 0 0 1 67 157.45205479452056 Z" fill="#1b9e77" clip-path="url(#rablfilter0)"></path><path d="M 311.6333333333333 174.66666666666663 A 2 2 0 0 1 313.6333333333333 176.66666666666663 L 313.6333333333333 188.88127853881275 A 2 2 0 0 1 311.6333333333333 190.88127853881275 L 67 190.88127853881275 A 0 0 0 0 1 67 190.88127853881275 L 67 174.66666666666663 A 0 0 0 0 1 67 174.66666666666663 Z" fill="#d95f02" clip-path="url(#rablfilter0)"></path><path d="M 198.58333333333334 191.88127853881275 A 2 2 0 0 1 200.58333333333334 193.88127853881275 L 200.58333333333334 206.09589041095887 A 2 2 0 0 1 198.58333333333334 208.09589041095887 L 67 208.09589041095887 A 0 0 0 0 1 67 208.09589041095887 L 67 191.88127853881275 A 0 0 0 0 1 67 191.88127853881275 Z" fill="#7570b3" clip-path="url(#rablfilter0)"></path><path d="M 419.3 236.90410958904104 A 2 2 0 0 1 421.3 238.90410958904104 L 421.3 251.11872146118722 A 2 2 0 0 1 419.3 253.11872146118722 L 67 253.11872146118722 A 0 0 0 0 1 67 253.11872146118722 L 67 236.90410958904104 A 0 0 0 0 1 67 236.90410958904104 Z" fill="#1b9e77" clip-path="url(#rablfilter0)"></path><path d="M 666.9333333333334 254.11872146118722 A 2 2 0 0 1 668.9333333333334 256.1187214611872 L 668.9333333333334 268.3333333333333 A 2 2 0 0 1 666.9333333333334 270.3333333333333 L 67 270.3333333333333 A 0 0 0 0 1 67 270.3333333333333 L 67 254.11872146118722 A 0 0 0 0 1 67 254.11872146118722 Z" fill="#d95f02" clip-path="url(#rablfilter0)"></path><path d="M 225.5 271.3333333333333 A 2 2 0 0 1 227.5 273.3333333333333 L 227.5 285.54794520547944 A 2 2 0 0 1 225.5 287.54794520547944 L 67 287.54794520547944 A 0 0 0 0 1 67 287.54794520547944 L 67 271.3333333333333 A 0 0 0 0 1 67 271.3333333333333 Z" fill="#7570b3" clip-path="url(#rablfilter0)"></path><path d="M 618.4833333333333 316.35616438356163 A 2 2 0 0 1 620.4833333333333 318.35616438356163 L 620.4833333333333 330.57077625570776 A 2 2 0 0 1 618.4833333333333 332.57077625570776 L 67 332.57077625570776 A 0 0 0 0 1 67 332.57077625570776 L 67 316.35616438356163 A 0 0 0 0 1 67 316.35616438356163 Z" fill="#1b9e77" clip-path="url(#rablfilter0)"></path><path d="M 354.7 333.57077625570776 A 2 2 0 0 1 356.7 335.57077625570776 L 356.7 347.7853881278539 A 2 2 0 0 1 354.7 349.7853881278539 L 67 349.7853881278539 A 0 0 0 0 1 67 349.7853881278539 L 67 333.57077625570776 A 0 0 0 0 1 67 333.57077625570776 Z" fill="#d95f02" clip-path="url(#rablfilter0)"></path><path d="M 252.41666666666669 350.7853881278539 A 2 2 0 0 1 254.41666666666669 352.7853881278539 L 254.41666666666669 365 A 2 2 0 0 1 252.41666666666669 367 L 67 367 A 0 0 0 0 1 67 367 L 67 350.7853881278539 A 0 0 0 0 1 67 350.7853881278539 Z" fill="#7570b3" clip-path="url(#rablfilter0)"></path></g><g></g><g><text x="66.5" y="396.703125" style="cursor: default; user-select: none; -webkit-font-smoothing: antialiased; font-family: Roboto; font-size: 12px;" fill="#757575" dx="-3.369140625px">0</text><text x="174.16666666666666" y="396.703125" style="cursor: default; user-select: none; -webkit-font-smoothing: antialiased; font-family: Roboto; font-size: 12px;" fill="#757575" dx="-10.107421875px">200</text><text x="281.8333333333333" y="396.703125" style="cursor: default; user-select: none; -webkit-font-smoothing: antialiased; font-family: Roboto; font-size: 12px;" fill="#757575" dx="-10.107421875px">400</text><text x="389.5" y="396.703125" style="cursor: default; user-select: none; -webkit-font-smoothing: antialiased; font-family: Roboto; font-size: 12px;" fill="#757575" dx="-10.107421875px">600</text><text x="497.16666666666663" y="396.703125" style="cursor: default; user-select: none; -webkit-font-smoothing: antialiased; font-family: Roboto; font-size: 12px;" fill="#757575" dx="-10.107421875px">800</text><text x="604.8333333333334" y="396.703125" style="cursor: default; user-select: none; -webkit-font-smoothing: antialiased; font-family: Roboto; font-size: 12px;" fill="#757575" dx="-14.654296875px">1,000</text><text x="712.5" y="396.703125" style="cursor: default; user-select: none; -webkit-font-smoothing: antialiased; font-family: Roboto; font-size: 12px;" fill="#757575" dx="-14.654296875px">1,200</text><text x="60.5" y="107.32352311643837" style="cursor: default; user-select: none; -webkit-font-smoothing: antialiased; font-family: Roboto; font-size: 12px;" fill="#757575" dx="-26.953125px">2014</text><text x="60.5" y="186.77450770547944" style="cursor: default; user-select: none; -webkit-font-smoothing: antialiased; font-family: Roboto; font-size: 12px;" fill="#757575" dx="-26.953125px">2015</text><text x="60.5" y="266.22549229452056" style="cursor: default; user-select: none; -webkit-font-smoothing: antialiased; font-family: Roboto; font-size: 12px;" fill="#757575" dx="-26.953125px">2016</text><text x="60.5" y="345.6764768835616" style="cursor: default; user-select: none; -webkit-font-smoothing: antialiased; font-family: Roboto; font-size: 12px;" fill="#757575" dx="-26.953125px">2017</text><text x="15.078125" y="219.296875" style="cursor: default; user-select: none; -webkit-font-smoothing: antialiased; font-family: Roboto; font-size: 12px;" fill="#424242" dx="-11.8857421875px" transform="rotate(-90 15.078125 222.5)">Year</text></g><g></g><g></g><g></g></svg>