<svg xmlns="http://www.w3.org/2000/svg" width="600" height="100" style="overflow:hidden;-webkit-tap-highlight-color:transparent;user-select:none;cursor:default;vertical-align:middle;position:relative;top:-.398438px;background-color:#fff"><defs><clipPath id="a"><path d="M207.025 10H556v22.2H207.025z"/></clipPath><clipPath id="b"><path d="M207.025 10H556v22.2H207.025z"/></clipPath></defs><g class="raphael-group-4-parentgroup"><g class="raphael-group-5-background"><rect width="600" height="100" fill="#fff" rx="0" ry="0"/><rect width="600" height="100" fill="none" rx="0" ry="0"/></g><g class="raphael-group-27-canvas"><rect width="174.487" height="22.2" x="207.025" y="10" fill="#f27370" rx="0" ry="0"/><rect width="87.244" height="22.2" x="381.513" y="10" fill="#ffc535" rx="0" ry="0"/><rect width="87.244" height="22.2" x="468.756" y="10" fill="#63b590" rx="0" ry="0"/></g><g class="raphael-group-8-plots"><rect width="314" height="9" x="207" y="17" fill="#5d5d5d" class="raphael-group-69-bar" rx="0" ry="0"/><path fill="none" stroke="#545454" stroke-linecap="round" stroke-width="3" d="M538.551 14.44v13.32" class="raphael-group-71-target" shape-rendering="crispEdges" style="shape-rendering:crispedges"/></g><g class="raphael-group-10-axistop"><g class="raphael-group-47-axis-Line-group"><g fill="none" stroke="#333" stroke-linecap="round" class="raphael-group-51-axis-line-tick"><path d="M207.025 35.2v6M294.269 35.2v6M381.513 35.2v6M468.756 35.2v6M556 35.2v6"/></g></g><g class="raphael-group-49-dataset-Label-group"><g fill="#5a5a5a" class="raphael-group-50-dataset-top-label" font-family="Source Sans Pro" font-size="14" style="font-family:&quot;Source Sans Pro&quot;;font-size:14px;font-weight:400;font-style:normal" text-anchor="middle"><text x="207.025" y="59" style="font-size:14px;text-anchor:middle">0K</text><text x="294.269" y="59" style="font-size:14px;text-anchor:middle">25K</text><text x="381.513" y="59" style="font-size:14px;text-anchor:middle">50K</text><text x="468.756" y="59" style="font-size:14px;text-anchor:middle">75K</text><text x="556" y="59" style="font-size:14px;text-anchor:middle">100K</text></g></g></g><g class="raphael-group-12-datalabel" font-family="Source Sans Pro" font-size="14" font-weight="bold" style="font-family:&quot;Source Sans Pro&quot;;font-size:14px;font-weight:700;font-style:normal"><text x="560" y="25" class="raphael-group-70-datalabel" style="text-anchor:start">90K</text></g><g class="raphael-group-14-caption" font-family="Source Sans Pro" text-anchor="end"><text x="192.025" y="26" fill="#5a5a5a" font-size="18" font-weight="bold" style="text-anchor:end;font-family:&quot;Source Sans Pro&quot;;font-size:18px;font-weight:700"><tspan x="192.025">Website downloads for</tspan><tspan x="192.025" dy="21.6">2017</tspan></text><text x="192.025" y="68" fill="#999" font-size="13" style="text-anchor:end;font-family:&quot;Source Sans Pro&quot;;font-size:13px;font-weight:400">Actual vs Target</text></g></g></svg>