<svg width="500" height="500"><g style="fill: rgb(31, 119, 180); opacity: 0.8;" class="series"><rect width="133" height="47.58620689655177" y="242.06896551724137" x="35"></rect><rect width="133" height="95.17241379310349" y="194.48275862068965" x="183"></rect><rect width="133" height="47.58620689655177" y="289.65517241379314" x="331"></rect></g><g style="fill: rgb(255, 127, 14); opacity: 0.8;" class="series"><rect width="133" height="63.44827586206898" y="178.6206896551724" x="35"></rect><rect width="133" height="31.72413793103459" y="289.65517241379314" x="183"></rect><rect width="133" height="142.7586206896552" y="337.2413793103448" x="331"></rect></g><g style="fill: rgb(44, 160, 44); opacity: 0.8;" class="series"><rect width="133" height="158.6206896551724" y="20" x="35"></rect><rect width="133" height="47.58620689655177" y="321.37931034482756" x="183"></rect><rect width="133" height="63.44827586206898" y="226.20689655172416" x="331"></rect></g><g transform="translate(0 289.65517241379314)" class="axis x"><g transform="translate(101.5,0)" style="opacity: 1;" class="tick"><line x2="0" y2="6"></line><text x="0" y="9" style="text-anchor: middle;" dy=".71em">abc</text></g><g transform="translate(249.5,0)" style="opacity: 1;" class="tick"><line x2="0" y2="6"></line><text x="0" y="9" style="text-anchor: middle;" dy=".71em">abc2</text></g><g transform="translate(397.5,0)" style="opacity: 1;" class="tick"><line x2="0" y2="6"></line><text x="0" y="9" style="text-anchor: middle;" dy=".71em">abc3</text></g><path d="M20,0V0H480V0" class="domain"></path></g><g transform="translate(20 0)" class="axis y"><g transform="translate(0,448.27586206896547)" style="opacity: 1;" class="tick"><line y2="0" x2="-6"></line><text y="0" x="-9" style="text-anchor: end;" dy=".32em">-10</text></g><g transform="translate(0,368.9655172413793)" style="opacity: 1;" class="tick"><line y2="0" x2="-6"></line><text y="0" x="-9" style="text-anchor: end;" dy=".32em">-5</text></g><g transform="translate(0,289.65517241379314)" style="opacity: 1;" class="tick"><line y2="0" x2="-6"></line><text y="0" x="-9" style="text-anchor: end;" dy=".32em">0</text></g><g transform="translate(0,210.34482758620692)" style="opacity: 1;" class="tick"><line y2="0" x2="-6"></line><text y="0" x="-9" style="text-anchor: end;" dy=".32em">5</text></g><g transform="translate(0,131.03448275862073)" style="opacity: 1;" class="tick"><line y2="0" x2="-6"></line><text y="0" x="-9" style="text-anchor: end;" dy=".32em">10</text></g><g transform="translate(0,51.72413793103449)" style="opacity: 1;" class="tick"><line y2="0" x2="-6"></line><text y="0" x="-9" style="text-anchor: end;" dy=".32em">15</text></g><path d="M-6,20H0V480H-6" class="domain"></path></g><g style="display: none;" class="tooltip"><rect style="opacity: 0.5;" fill="white" height="20" width="30"></rect><text font-weight="bold" font-size="12px" style="text-anchor: middle;" dy="1.2em" x="15"></text></g></svg>