<svg height="411" width="556"><g transform="translate(50,170)"><text class="dayLabel mono axis axis-workweek" transform="translate(-6,12.666666666666666)" style="text-anchor: end;" y="0" x="0">Mo</text><text class="dayLabel mono axis axis-workweek" transform="translate(-6,12.666666666666666)" style="text-anchor: end;" y="19" x="0">Tu</text><text class="dayLabel mono axis axis-workweek" transform="translate(-6,12.666666666666666)" style="text-anchor: end;" y="38" x="0">We</text><text class="dayLabel mono axis axis-workweek" transform="translate(-6,12.666666666666666)" style="text-anchor: end;" y="57" x="0">Th</text><text class="dayLabel mono axis axis-workweek" transform="translate(-6,12.666666666666666)" style="text-anchor: end;" y="76" x="0">Fr</text><text class="dayLabel mono axis" transform="translate(-6,12.666666666666666)" style="text-anchor: end;" y="95" x="0">Sa</text><text class="dayLabel mono axis" transform="translate(-6,12.666666666666666)" style="text-anchor: end;" y="114" x="0">Su</text><text class="timeLabel mono axis" transform="translate(9.5, -6)" style="text-anchor: middle;" y="0" x="0">0</text><text class="timeLabel mono axis" transform="translate(9.5, -6)" style="text-anchor: middle;" y="0" x="19">1</text><text class="timeLabel mono axis" transform="translate(9.5, -6)" style="text-anchor: middle;" y="0" x="38">2</text><text class="timeLabel mono axis" transform="translate(9.5, -6)" style="text-anchor: middle;" y="0" x="57">3</text><text class="timeLabel mono axis" transform="translate(9.5, -6)" style="text-anchor: middle;" y="0" x="76">4</text><text class="timeLabel mono axis" transform="translate(9.5, -6)" style="text-anchor: middle;" y="0" x="95">5</text><text class="timeLabel mono axis" transform="translate(9.5, -6)" style="text-anchor: middle;" y="0" x="114">6</text><text class="timeLabel mono axis" transform="translate(9.5, -6)" style="text-anchor: middle;" y="0" x="133">7</text><text class="timeLabel mono axis axis-worktime" transform="translate(9.5, -6)" style="text-anchor: middle;" y="0" x="152">8</text><text class="timeLabel mono axis axis-worktime" transform="translate(9.5, -6)" style="text-anchor: middle;" y="0" x="171">9</text><text class="timeLabel mono axis axis-worktime" transform="translate(9.5, -6)" style="text-anchor: middle;" y="0" x="190">10</text><text class="timeLabel mono axis axis-worktime" transform="translate(9.5, -6)" style="text-anchor: middle;" y="0" x="209">11</text><text class="timeLabel mono axis axis-worktime" transform="translate(9.5, -6)" style="text-anchor: middle;" y="0" x="228">12</text><text class="timeLabel mono axis axis-worktime" transform="translate(9.5, -6)" style="text-anchor: middle;" y="0" x="247">13</text><text class="timeLabel mono axis axis-worktime" transform="translate(9.5, -6)" style="text-anchor: middle;" y="0" x="266">14</text><text class="timeLabel mono axis axis-worktime" transform="translate(9.5, -6)" style="text-anchor: middle;" y="0" x="285">15</text><text class="timeLabel mono axis axis-worktime" transform="translate(9.5, -6)" style="text-anchor: middle;" y="0" x="304">16</text><text class="timeLabel mono axis axis-worktime" transform="translate(9.5, -6)" style="text-anchor: middle;" y="0" x="323">17</text><text class="timeLabel mono axis" transform="translate(9.5, -6)" style="text-anchor: middle;" y="0" x="342">18</text><text class="timeLabel mono axis" transform="translate(9.5, -6)" style="text-anchor: middle;" y="0" x="361">19</text><text class="timeLabel mono axis" transform="translate(9.5, -6)" style="text-anchor: middle;" y="0" x="380">20</text><text class="timeLabel mono axis" transform="translate(9.5, -6)" style="text-anchor: middle;" y="0" x="399">21</text><text class="timeLabel mono axis" transform="translate(9.5, -6)" style="text-anchor: middle;" y="0" x="418">22</text><text class="timeLabel mono axis" transform="translate(9.5, -6)" style="text-anchor: middle;" y="0" x="437">23</text><rect style="stroke: white; stroke-opacity: 0.6; fill: rgb(225, 239, 207);" height="19" width="19" class="hour bordered" y="19" x="0"></rect><rect style="stroke: white; stroke-opacity: 0.6; fill: rgb(222, 237, 206);" height="19" width="19" class="hour bordered" y="57" x="0"></rect><rect style="stroke: white; stroke-opacity: 0.6; fill: rgb(224, 238, 206);" height="19" width="19" class="hour bordered" y="0" x="0"></rect><rect style="stroke: white; stroke-opacity: 0.6; fill: rgb(214, 233, 202);" height="19" width="19" class="hour bordered" y="76" x="0"></rect><rect style="stroke: white; stroke-opacity: 0.6; fill: rgb(224, 238, 207);" height="19" width="19" class="hour bordered" y="38" x="0"></rect><rect style="stroke: white; stroke-opacity: 0.6; fill: rgb(177, 212, 185);" height="19" width="19" class="hour bordered" y="95" x="0"></rect><rect style="stroke: white; stroke-opacity: 0.6; fill: rgb(182, 215, 187);" height="19" width="19" class="hour bordered" y="114" x="0"></rect><rect style="stroke: white; stroke-opacity: 0.6; fill: rgb(237, 245, 212);" height="19" width="19" class="hour bordered" y="19" x="19"></rect><rect style="stroke: white; stroke-opacity: 0.6; fill: rgb(232, 242, 210);" height="19" width="19" class="hour bordered" y="57" x="19"></rect><rect style="stroke: white; stroke-opacity: 0.6; fill: rgb(228, 240, 208);" height="19" width="19" class="hour bordered" y="0" x="19"></rect><rect style="stroke: white; stroke-opacity: 0.6; fill: rgb(226, 239, 208);" height="19" width="19" class="hour bordered" y="76" x="19"></rect><rect style="stroke: white; stroke-opacity: 0.6; fill: rgb(234, 243, 211);" height="19" width="19" class="hour bordered" y="38" x="19"></rect><rect style="stroke: white; stroke-opacity: 0.6; fill: rgb(195, 222, 193);" height="19" width="19" class="hour bordered" y="95" x="19"></rect><rect style="stroke: white; stroke-opacity: 0.6; fill: rgb(187, 217, 189);" height="19" width="19" class="hour bordered" y="114" x="19"></rect><rect style="stroke: white; stroke-opacity: 0.6; fill: rgb(242, 248, 215);" height="19" width="19" class="hour bordered" y="19" x="38"></rect><rect style="stroke: white; stroke-opacity: 0.6; fill: rgb(238, 246, 213);" height="19" width="19" class="hour bordered" y="57" x="38"></rect><rect style="stroke: white; stroke-opacity: 0.6; fill: rgb(230, 241, 209);" height="19" width="19" class="hour bordered" y="0" x="38"></rect><rect style="stroke: white; stroke-opacity: 0.6; fill: rgb(234, 244, 211);" height="19" width="19" class="hour bordered" y="76" x="38"></rect><rect style="stroke: white; stroke-opacity: 0.6; fill: rgb(240, 247, 214);" height="19" width="19" class="hour bordered" y="38" x="38"></rect><rect style="stroke: white; stroke-opacity: 0.6; fill: rgb(212, 231, 201);" height="19" width="19" class="hour bordered" y="95" x="38"></rect><rect style="stroke: white; stroke-opacity: 0.6; fill: rgb(194, 221, 192);" height="19" width="19" class="hour bordered" y="114" x="38"></rect><rect style="stroke: white; stroke-opacity: 0.6; fill: rgb(246, 250, 217);" height="19" width="19" class="hour bordered" y="19" x="57"></rect><rect style="stroke: white; stroke-opacity: 0.6; fill: rgb(239, 246, 214);" height="19" width="19" class="hour bordered" y="57" x="57"></rect><rect style="stroke: white; stroke-opacity: 0.6; fill: rgb(241, 247, 215);" height="19" width="19" class="hour bordered" y="0" x="57"></rect><rect style="stroke: white; stroke-opacity: 0.6; fill: rgb(236, 244, 212);" height="19" width="19" class="hour bordered" y="76" x="57"></rect><rect style="stroke: white; stroke-opacity: 0.6; fill: rgb(244, 249, 216);" height="19" width="19" class="hour bordered" y="38" x="57"></rect><rect style="stroke: white; stroke-opacity: 0.6; fill: rgb(213, 232, 201);" height="19" width="19" class="hour bordered" y="95" x="57"></rect><rect style="stroke: white; stroke-opacity: 0.6; fill: rgb(204, 227, 197);" height="19" width="19" class="hour bordered" y="114" x="57"></rect><rect style="stroke: white; stroke-opacity: 0.6; fill: rgb(244, 249, 216);" height="19" width="19" class="hour bordered" y="19" x="76"></rect><rect style="stroke: white; stroke-opacity: 0.6; fill: rgb(242, 248, 215);" height="19" width="19" class="hour bordered" y="57" x="76"></rect><rect style="stroke: white; stroke-opacity: 0.6; fill: rgb(238, 246, 213);" height="19" width="19" class="hour bordered" y="0" x="76"></rect><rect style="stroke: white; stroke-opacity: 0.6; fill: rgb(237, 245, 213);" height="19" width="19" class="hour bordered" y="76" x="76"></rect><rect style="stroke: white; stroke-opacity: 0.6; fill: rgb(238, 246, 213);" height="19" width="19" class="hour bordered" y="38" x="76"></rect><rect style="stroke: white; stroke-opacity: 0.6; fill: rgb(216, 233, 203);" height="19" width="19" class="hour bordered" y="95" x="76"></rect><rect style="stroke: white; stroke-opacity: 0.6; fill: rgb(209, 229, 199);" height="19" width="19" class="hour bordered" y="114" x="76"></rect><rect style="stroke: white; stroke-opacity: 0.6; fill: rgb(225, 238, 207);" height="19" width="19" class="hour bordered" y="19" x="95"></rect><rect style="stroke: white; stroke-opacity: 0.6; fill: rgb(231, 242, 210);" height="19" width="19" class="hour bordered" y="57" x="95"></rect><rect style="stroke: white; stroke-opacity: 0.6; fill: rgb(225, 238, 207);" height="19" width="19" class="hour bordered" y="0" x="95"></rect><rect style="stroke: white; stroke-opacity: 0.6; fill: rgb(222, 237, 206);" height="19" width="19" class="hour bordered" y="76" x="95"></rect><rect style="stroke: white; stroke-opacity: 0.6; fill: rgb(228, 240, 208);" height="19" width="19" class="hour bordered" y="38" x="95"></rect><rect style="stroke: white; stroke-opacity: 0.6; fill: rgb(220, 236, 205);" height="19" width="19" class="hour bordered" y="95" x="95"></rect><rect style="stroke: white; stroke-opacity: 0.6; fill: rgb(210, 230, 200);" height="19" width="19" class="hour bordered" y="114" x="95"></rect><rect style="stroke: white; stroke-opacity: 0.6; fill: rgb(182, 215, 187);" height="19" width="19" class="hour bordered" y="19" x="114"></rect><rect style="stroke: white; stroke-opacity: 0.6; fill: rgb(189, 219, 190);" height="19" width="19" class="hour bordered" y="57" x="114"></rect><rect style="stroke: white; stroke-opacity: 0.6; fill: rgb(169, 208, 181);" height="19" width="19" class="hour bordered" y="0" x="114"></rect><rect style="stroke: white; stroke-opacity: 0.6; fill: rgb(192, 220, 192);" height="19" width="19" class="hour bordered" y="76" x="114"></rect><rect style="stroke: white; stroke-opacity: 0.6; fill: rgb(183, 215, 187);" height="19" width="19" class="hour bordered" y="38" x="114"></rect><rect style="stroke: white; stroke-opacity: 0.6; fill: rgb(213, 232, 202);" height="19" width="19" class="hour bordered" y="95" x="114"></rect><rect style="stroke: white; stroke-opacity: 0.6; fill: rgb(210, 230, 200);" height="19" width="19" class="hour bordered" y="114" x="114"></rect><rect style="stroke: white; stroke-opacity: 0.6; fill: rgb(67, 152, 133);" height="19" width="19" class="hour bordered" y="19" x="133"></rect><rect style="stroke: white; stroke-opacity: 0.6; fill: rgb(66, 151, 133);" height="19" width="19" class="hour bordered" y="57" x="133"></rect><rect style="stroke: white; stroke-opacity: 0.6; fill: rgb(61, 146, 131);" height="19" width="19" class="hour bordered" y="0" x="133"></rect><rect style="stroke: white; stroke-opacity: 0.6; fill: rgb(113, 177, 155);" height="19" width="19" class="hour bordered" y="76" x="133"></rect><rect style="stroke: white; stroke-opacity: 0.6; fill: rgb(61, 147, 131);" height="19" width="19" class="hour bordered" y="38" x="133"></rect><rect style="stroke: white; stroke-opacity: 0.6; fill: rgb(206, 228, 198);" height="19" width="19" class="hour bordered" y="95" x="133"></rect><rect style="stroke: white; stroke-opacity: 0.6; fill: rgb(221, 237, 205);" height="19" width="19" class="hour bordered" y="114" x="133"></rect><rect style="stroke: white; stroke-opacity: 0.6; fill: rgb(48, 101, 132);" height="19" width="19" class="hour bordered" y="19" x="152"></rect><rect style="stroke: white; stroke-opacity: 0.6; fill: rgb(47, 100, 132);" height="19" width="19" class="hour bordered" y="57" x="152"></rect><rect style="stroke: white; stroke-opacity: 0.6; fill: rgb(48, 101, 132);" height="19" width="19" class="hour bordered" y="0" x="152"></rect><rect style="stroke: white; stroke-opacity: 0.6; fill: rgb(57, 132, 131);" height="19" width="19" class="hour bordered" y="76" x="152"></rect><rect style="stroke: white; stroke-opacity: 0.6; fill: rgb(53, 118, 132);" height="19" width="19" class="hour bordered" y="38" x="152"></rect><rect style="stroke: white; stroke-opacity: 0.6; fill: rgb(188, 218, 190);" height="19" width="19" class="hour bordered" y="95" x="152"></rect><rect style="stroke: white; stroke-opacity: 0.6; fill: rgb(220, 236, 204);" height="19" width="19" class="hour bordered" y="114" x="152"></rect><rect style="stroke: white; stroke-opacity: 0.6; fill: rgb(80, 159, 139);" height="19" width="19" class="hour bordered" y="19" x="171"></rect><rect style="stroke: white; stroke-opacity: 0.6; fill: rgb(66, 151, 133);" height="19" width="19" class="hour bordered" y="57" x="171"></rect><rect style="stroke: white; stroke-opacity: 0.6; fill: rgb(113, 177, 155);" height="19" width="19" class="hour bordered" y="0" x="171"></rect><rect style="stroke: white; stroke-opacity: 0.6; fill: rgb(102, 171, 150);" height="19" width="19" class="hour bordered" y="76" x="171"></rect><rect style="stroke: white; stroke-opacity: 0.6; fill: rgb(95, 167, 147);" height="19" width="19" class="hour bordered" y="38" x="171"></rect><rect style="stroke: white; stroke-opacity: 0.6; fill: rgb(142, 193, 169);" height="19" width="19" class="hour bordered" y="95" x="171"></rect><rect style="stroke: white; stroke-opacity: 0.6; fill: rgb(196, 223, 193);" height="19" width="19" class="hour bordered" y="114" x="171"></rect><rect style="stroke: white; stroke-opacity: 0.6; fill: rgb(117, 179, 157);" height="19" width="19" class="hour bordered" y="19" x="190"></rect><rect style="stroke: white; stroke-opacity: 0.6; fill: rgb(117, 179, 156);" height="19" width="19" class="hour bordered" y="57" x="190"></rect><rect style="stroke: white; stroke-opacity: 0.6; fill: rgb(121, 182, 159);" height="19" width="19" class="hour bordered" y="0" x="190"></rect><rect style="stroke: white; stroke-opacity: 0.6; fill: rgb(93, 166, 145);" height="19" width="19" class="hour bordered" y="76" x="190"></rect><rect style="stroke: white; stroke-opacity: 0.6; fill: rgb(110, 175, 153);" height="19" width="19" class="hour bordered" y="38" x="190"></rect><rect style="stroke: white; stroke-opacity: 0.6; fill: rgb(97, 168, 147);" height="19" width="19" class="hour bordered" y="95" x="190"></rect><rect style="stroke: white; stroke-opacity: 0.6; fill: rgb(179, 213, 186);" height="19" width="19" class="hour bordered" y="114" x="190"></rect><rect style="stroke: white; stroke-opacity: 0.6; fill: rgb(103, 171, 150);" height="19" width="19" class="hour bordered" y="19" x="209"></rect><rect style="stroke: white; stroke-opacity: 0.6; fill: rgb(96, 168, 147);" height="19" width="19" class="hour bordered" y="57" x="209"></rect><rect style="stroke: white; stroke-opacity: 0.6; fill: rgb(106, 173, 151);" height="19" width="19" class="hour bordered" y="0" x="209"></rect><rect style="stroke: white; stroke-opacity: 0.6; fill: rgb(83, 161, 141);" height="19" width="19" class="hour bordered" y="76" x="209"></rect><rect style="stroke: white; stroke-opacity: 0.6; fill: rgb(95, 167, 146);" height="19" width="19" class="hour bordered" y="38" x="209"></rect><rect style="stroke: white; stroke-opacity: 0.6; fill: rgb(61, 145, 131);" height="19" width="19" class="hour bordered" y="95" x="209"></rect><rect style="stroke: white; stroke-opacity: 0.6; fill: rgb(161, 203, 177);" height="19" width="19" class="hour bordered" y="114" x="209"></rect><rect style="stroke: white; stroke-opacity: 0.6; fill: rgb(83, 160, 141);" height="19" width="19" class="hour bordered" y="19" x="228"></rect><rect style="stroke: white; stroke-opacity: 0.6; fill: rgb(80, 159, 139);" height="19" width="19" class="hour bordered" y="57" x="228"></rect><rect style="stroke: white; stroke-opacity: 0.6; fill: rgb(108, 174, 152);" height="19" width="19" class="hour bordered" y="0" x="228"></rect><rect style="stroke: white; stroke-opacity: 0.6; fill: rgb(59, 139, 131);" height="19" width="19" class="hour bordered" y="76" x="228"></rect><rect style="stroke: white; stroke-opacity: 0.6; fill: rgb(60, 141, 131);" height="19" width="19" class="hour bordered" y="38" x="228"></rect><rect style="stroke: white; stroke-opacity: 0.6; fill: rgb(60, 142, 131);" height="19" width="19" class="hour bordered" y="95" x="228"></rect><rect style="stroke: white; stroke-opacity: 0.6; fill: rgb(137, 190, 166);" height="19" width="19" class="hour bordered" y="114" x="228"></rect><rect style="stroke: white; stroke-opacity: 0.6; fill: rgb(70, 153, 135);" height="19" width="19" class="hour bordered" y="19" x="247"></rect><rect style="stroke: white; stroke-opacity: 0.6; fill: rgb(61, 146, 131);" height="19" width="19" class="hour bordered" y="57" x="247"></rect><rect style="stroke: white; stroke-opacity: 0.6; fill: rgb(79, 159, 139);" height="19" width="19" class="hour bordered" y="0" x="247"></rect><rect style="stroke: white; stroke-opacity: 0.6; fill: rgb(54, 123, 132);" height="19" width="19" class="hour bordered" y="76" x="247"></rect><rect style="stroke: white; stroke-opacity: 0.6; fill: rgb(58, 134, 131);" height="19" width="19" class="hour bordered" y="38" x="247"></rect><rect style="stroke: white; stroke-opacity: 0.6; fill: rgb(56, 129, 132);" height="19" width="19" class="hour bordered" y="95" x="247"></rect><rect style="stroke: white; stroke-opacity: 0.6; fill: rgb(106, 173, 152);" height="19" width="19" class="hour bordered" y="114" x="247"></rect><rect style="stroke: white; stroke-opacity: 0.6; fill: rgb(59, 139, 131);" height="19" width="19" class="hour bordered" y="19" x="266"></rect><rect style="stroke: white; stroke-opacity: 0.6; fill: rgb(54, 123, 132);" height="19" width="19" class="hour bordered" y="57" x="266"></rect><rect style="stroke: white; stroke-opacity: 0.6; fill: rgb(57, 133, 131);" height="19" width="19" class="hour bordered" y="0" x="266"></rect><rect style="stroke: white; stroke-opacity: 0.6; fill: rgb(48, 102, 132);" height="19" width="19" class="hour bordered" y="76" x="266"></rect><rect style="stroke: white; stroke-opacity: 0.6; fill: rgb(55, 125, 132);" height="19" width="19" class="hour bordered" y="38" x="266"></rect><rect style="stroke: white; stroke-opacity: 0.6; fill: rgb(51, 111, 132);" height="19" width="19" class="hour bordered" y="95" x="266"></rect><rect style="stroke: white; stroke-opacity: 0.6; fill: rgb(89, 164, 143);" height="19" width="19" class="hour bordered" y="114" x="266"></rect><rect style="stroke: white; stroke-opacity: 0.6; fill: rgb(52, 114, 132);" height="19" width="19" class="hour bordered" y="19" x="285"></rect><rect style="stroke: white; stroke-opacity: 0.6; fill: rgb(50, 107, 132);" height="19" width="19" class="hour bordered" y="57" x="285"></rect><rect style="stroke: white; stroke-opacity: 0.6; fill: rgb(54, 124, 132);" height="19" width="19" class="hour bordered" y="0" x="285"></rect><rect style="stroke: white; stroke-opacity: 0.6; fill: rgb(42, 81, 133);" height="19" width="19" class="hour bordered" y="76" x="285"></rect><rect style="stroke: white; stroke-opacity: 0.6; fill: rgb(53, 119, 132);" height="19" width="19" class="hour bordered" y="38" x="285"></rect><rect style="stroke: white; stroke-opacity: 0.6; fill: rgb(53, 119, 132);" height="19" width="19" class="hour bordered" y="95" x="285"></rect><rect style="stroke: white; stroke-opacity: 0.6; fill: rgb(83, 161, 141);" height="19" width="19" class="hour bordered" y="114" x="285"></rect><rect style="stroke: white; stroke-opacity: 0.6; fill: rgb(44, 89, 133);" height="19" width="19" class="hour bordered" y="19" x="304"></rect><rect style="stroke: white; stroke-opacity: 0.6; fill: rgb(40, 74, 133);" height="19" width="19" class="hour bordered" y="57" x="304"></rect><rect style="stroke: white; stroke-opacity: 0.6; fill: rgb(45, 93, 133);" height="19" width="19" class="hour bordered" y="0" x="304"></rect><rect style="stroke: white; stroke-opacity: 0.6; fill: rgb(38, 70, 133);" height="19" width="19" class="hour bordered" y="76" x="304"></rect><rect style="stroke: white; stroke-opacity: 0.6; fill: rgb(40, 76, 133);" height="19" width="19" class="hour bordered" y="38" x="304"></rect><rect style="stroke: white; stroke-opacity: 0.6; fill: rgb(60, 142, 131);" height="19" width="19" class="hour bordered" y="95" x="304"></rect><rect style="stroke: white; stroke-opacity: 0.6; fill: rgb(99, 170, 148);" height="19" width="19" class="hour bordered" y="114" x="304"></rect><rect style="stroke: white; stroke-opacity: 0.6; fill: rgb(35, 58, 134);" height="19" width="19" class="hour bordered" y="19" x="323"></rect><rect style="stroke: white; stroke-opacity: 0.6; fill: rgb(31, 45, 134);" height="19" width="19" class="hour bordered" y="57" x="323"></rect><rect style="stroke: white; stroke-opacity: 0.6; fill: rgb(42, 83, 133);" height="19" width="19" class="hour bordered" y="0" x="323"></rect><rect style="stroke: white; stroke-opacity: 0.6; fill: rgb(37, 64, 133);" height="19" width="19" class="hour bordered" y="76" x="323"></rect><rect style="stroke: white; stroke-opacity: 0.6; fill: rgb(36, 63, 133);" height="19" width="19" class="hour bordered" y="38" x="323"></rect><rect style="stroke: white; stroke-opacity: 0.6; fill: rgb(62, 149, 131);" height="19" width="19" class="hour bordered" y="95" x="323"></rect><rect style="stroke: white; stroke-opacity: 0.6; fill: rgb(103, 171, 150);" height="19" width="19" class="hour bordered" y="114" x="323"></rect><rect style="stroke: white; stroke-opacity: 0.6; fill: rgb(56, 127, 132);" height="19" width="19" class="hour bordered" y="19" x="342"></rect><rect style="stroke: white; stroke-opacity: 0.6; fill: rgb(53, 118, 132);" height="19" width="19" class="hour bordered" y="57" x="342"></rect><rect style="stroke: white; stroke-opacity: 0.6; fill: rgb(71, 154, 135);" height="19" width="19" class="hour bordered" y="0" x="342"></rect><rect style="stroke: white; stroke-opacity: 0.6; fill: rgb(54, 124, 132);" height="19" width="19" class="hour bordered" y="76" x="342"></rect><rect style="stroke: white; stroke-opacity: 0.6; fill: rgb(55, 125, 132);" height="19" width="19" class="hour bordered" y="38" x="342"></rect><rect style="stroke: white; stroke-opacity: 0.6; fill: rgb(121, 181, 158);" height="19" width="19" class="hour bordered" y="95" x="342"></rect><rect style="stroke: white; stroke-opacity: 0.6; fill: rgb(134, 188, 164);" height="19" width="19" class="hour bordered" y="114" x="342"></rect><rect style="stroke: white; stroke-opacity: 0.6; fill: rgb(101, 170, 149);" height="19" width="19" class="hour bordered" y="19" x="361"></rect><rect style="stroke: white; stroke-opacity: 0.6; fill: rgb(78, 158, 139);" height="19" width="19" class="hour bordered" y="57" x="361"></rect><rect style="stroke: white; stroke-opacity: 0.6; fill: rgb(116, 179, 156);" height="19" width="19" class="hour bordered" y="0" x="361"></rect><rect style="stroke: white; stroke-opacity: 0.6; fill: rgb(85, 161, 142);" height="19" width="19" class="hour bordered" y="76" x="361"></rect><rect style="stroke: white; stroke-opacity: 0.6; fill: rgb(104, 172, 150);" height="19" width="19" class="hour bordered" y="38" x="361"></rect><rect style="stroke: white; stroke-opacity: 0.6; fill: rgb(140, 192, 167);" height="19" width="19" class="hour bordered" y="95" x="361"></rect><rect style="stroke: white; stroke-opacity: 0.6; fill: rgb(142, 193, 168);" height="19" width="19" class="hour bordered" y="114" x="361"></rect><rect style="stroke: white; stroke-opacity: 0.6; fill: rgb(154, 200, 174);" height="19" width="19" class="hour bordered" y="19" x="380"></rect><rect style="stroke: white; stroke-opacity: 0.6; fill: rgb(129, 186, 162);" height="19" width="19" class="hour bordered" y="57" x="380"></rect><rect style="stroke: white; stroke-opacity: 0.6; fill: rgb(155, 200, 174);" height="19" width="19" class="hour bordered" y="0" x="380"></rect><rect style="stroke: white; stroke-opacity: 0.6; fill: rgb(136, 190, 166);" height="19" width="19" class="hour bordered" y="76" x="380"></rect><rect style="stroke: white; stroke-opacity: 0.6; fill: rgb(148, 196, 171);" height="19" width="19" class="hour bordered" y="38" x="380"></rect><rect style="stroke: white; stroke-opacity: 0.6; fill: rgb(152, 198, 173);" height="19" width="19" class="hour bordered" y="95" x="380"></rect><rect style="stroke: white; stroke-opacity: 0.6; fill: rgb(157, 201, 175);" height="19" width="19" class="hour bordered" y="114" x="380"></rect><rect style="stroke: white; stroke-opacity: 0.6; fill: rgb(173, 210, 183);" height="19" width="19" class="hour bordered" y="19" x="399"></rect><rect style="stroke: white; stroke-opacity: 0.6; fill: rgb(155, 200, 174);" height="19" width="19" class="hour bordered" y="57" x="399"></rect><rect style="stroke: white; stroke-opacity: 0.6; fill: rgb(170, 209, 182);" height="19" width="19" class="hour bordered" y="0" x="399"></rect><rect style="stroke: white; stroke-opacity: 0.6; fill: rgb(147, 196, 171);" height="19" width="19" class="hour bordered" y="76" x="399"></rect><rect style="stroke: white; stroke-opacity: 0.6; fill: rgb(164, 205, 179);" height="19" width="19" class="hour bordered" y="38" x="399"></rect><rect style="stroke: white; stroke-opacity: 0.6; fill: rgb(166, 206, 180);" height="19" width="19" class="hour bordered" y="95" x="399"></rect><rect style="stroke: white; stroke-opacity: 0.6; fill: rgb(179, 213, 186);" height="19" width="19" class="hour bordered" y="114" x="399"></rect><rect style="stroke: white; stroke-opacity: 0.6; fill: rgb(178, 213, 185);" height="19" width="19" class="hour bordered" y="19" x="418"></rect><rect style="stroke: white; stroke-opacity: 0.6; fill: rgb(166, 206, 180);" height="19" width="19" class="hour bordered" y="57" x="418"></rect><rect style="stroke: white; stroke-opacity: 0.6; fill: rgb(187, 217, 189);" height="19" width="19" class="hour bordered" y="0" x="418"></rect><rect style="stroke: white; stroke-opacity: 0.6; fill: rgb(163, 205, 178);" height="19" width="19" class="hour bordered" y="76" x="418"></rect><rect style="stroke: white; stroke-opacity: 0.6; fill: rgb(182, 215, 187);" height="19" width="19" class="hour bordered" y="38" x="418"></rect><rect style="stroke: white; stroke-opacity: 0.6; fill: rgb(168, 207, 180);" height="19" width="19" class="hour bordered" y="95" x="418"></rect><rect style="stroke: white; stroke-opacity: 0.6; fill: rgb(188, 218, 190);" height="19" width="19" class="hour bordered" y="114" x="418"></rect><rect style="stroke: white; stroke-opacity: 0.6; fill: rgb(206, 228, 198);" height="19" width="19" class="hour bordered" y="19" x="437"></rect><rect style="stroke: white; stroke-opacity: 0.6; fill: rgb(197, 223, 194);" height="19" width="19" class="hour bordered" y="57" x="437"></rect><rect style="stroke: white; stroke-opacity: 0.6; fill: rgb(207, 229, 199);" height="19" width="19" class="hour bordered" y="0" x="437"></rect><rect style="stroke: white; stroke-opacity: 0.6; fill: rgb(158, 202, 176);" height="19" width="19" class="hour bordered" y="76" x="437"></rect><rect style="stroke: white; stroke-opacity: 0.6; fill: rgb(206, 228, 198);" height="19" width="19" class="hour bordered" y="38" x="437"></rect><rect style="stroke: white; stroke-opacity: 0.6; fill: rgb(166, 206, 180);" height="19" width="19" class="hour bordered" y="95" x="437"></rect><rect style="stroke: white; stroke-opacity: 0.6; fill: rgb(208, 229, 199);" height="19" width="19" class="hour bordered" y="114" x="437"></rect><text style="text-anchor: middle;" y="-90" x="228" class="title">Number of Traffic accidents per Day &amp; Hour combination</text><text style="text-anchor: middle;" y="-60" x="228" class="subtitle">The Netherlands | 2014</text><text style="text-anchor: middle;" y="232" x="228" class="credit">Based on Miles McCrocklin's Heatmap block</text><defs><linearGradient y2="0%" x2="100%" y1="0%" x1="0%" id="legend-traffic"><stop stop-color="#ffffdd" offset="0"></stop><stop stop-color="#d4e7c9" offset="0.1111111111111111"></stop><stop stop-color="#a9d0b5" offset="0.2222222222222222"></stop><stop stop-color="#7eb8a1" offset="0.3333333333333333"></stop><stop stop-color="#53a18d" offset="0.4444444444444444"></stop><stop stop-color="#3b8983" offset="0.5555555555555556"></stop><stop stop-color="#347284" offset="0.6666666666666666"></stop><stop stop-color="#2d5b85" offset="0.7777777777777778"></stop><stop stop-color="#264485" offset="0.8888888888888888"></stop><stop stop-color="#1f2d86" offset="1"></stop></linearGradient></defs><g transform="translate(228,173)" class="legendWrapper"><rect style="fill: url(&quot;#legend-traffic&quot;) none;" height="10" width="364.8" y="0" x="-182.4" class="legendRect"></rect><text style="text-anchor: middle;" y="-10" x="0" class="legendTitle">Number of Accidents</text><g transform="translate(0,10)" class="axis"><g transform="translate(-182.4,0)" style="opacity: 1;" class="tick"><line x2="0" y2="6"></line><text x="0" y="9" style="text-anchor: middle;" dy=".71em">0</text></g><g transform="translate(-72.05517241379312,0)" style="opacity: 1;" class="tick"><line x2="0" y2="6"></line><text x="0" y="9" style="text-anchor: middle;" dy=".71em">500</text></g><g transform="translate(38.289655172413774,0)" style="opacity: 1;" class="tick"><line x2="0" y2="6"></line><text x="0" y="9" style="text-anchor: middle;" dy=".71em">1,000</text></g><g transform="translate(148.6344827586207,0)" style="opacity: 1;" class="tick"><line x2="0" y2="6"></line><text x="0" y="9" style="text-anchor: middle;" dy=".71em">1,500</text></g><path d="M-182.4,6V0H182.4V6" style="fill:none;stroke:none;" class="domain"></path></g></g></g></svg>