<svg xmlns="http://www.w3.org/2000/svg" border="0" data-ac-wrapper-id="13" width="1098" height="589" class="anychart-ui-support" ac-id="ac_stage_f9ddd8e_0" role="presentation" style="display: block;"><defs><clipPath clip-rule="nonzero" id="ac_clip_f9ddd8e_t"><path data-ac-wrapper-id="46" id="ac_rect_f9ddd8e_u" fill="none" stroke="black" d="M 0 0 L 584.8984375 0 584.8984375 45 0 45 0 0 Z"/></clipPath><clipPath clip-rule="nonzero" id="ac_clip_f9ddd8e_23"><path data-ac-wrapper-id="90" id="ac_rect_f9ddd8e_24" fill="none" stroke="black" d="M 186 134 L 1078 134 1078 544 186 544 186 134 Z"/></clipPath><clipPath clip-rule="nonzero" id="ac_clip_f9ddd8e_2d"><path data-ac-wrapper-id="98" id="ac_rect_f9ddd8e_2e" fill="none" stroke="black" d="M 186 134 L 1079 134 1079 545 186 545 186 134 Z"/></clipPath><clipPath clip-rule="nonzero" id="ac_clip_f9ddd8e_2o"><path data-ac-wrapper-id="107" id="ac_rect_f9ddd8e_2p" fill="none" stroke="black" d="M 186 134 L 1079 134 1079 545 186 545 186 134 Z"/></clipPath><clipPath clip-rule="nonzero" id="ac_clip_f9ddd8e_2z"><path data-ac-wrapper-id="116" id="ac_rect_f9ddd8e_30" fill="none" stroke="black" d="M 186 134 L 1079 134 1079 545 186 545 186 134 Z"/></clipPath><clipPath clip-rule="nonzero" id="ac_clip_f9ddd8e_3a"><path data-ac-wrapper-id="125" id="ac_rect_f9ddd8e_3b" fill="none" stroke="black" d="M 186 134 L 1079 134 1079 545 186 545 186 134 Z"/></clipPath><clipPath clip-rule="nonzero" id="ac_clip_f9ddd8e_3l"><path data-ac-wrapper-id="134" id="ac_rect_f9ddd8e_3m" fill="none" stroke="black" d="M 186 134 L 1079 134 1079 545 186 545 186 134 Z"/></clipPath><clipPath clip-rule="nonzero" id="ac_clip_f9ddd8e_3q"><path data-ac-wrapper-id="137" id="ac_rect_f9ddd8e_3r" fill="none" stroke="black" d="M 185 133 L 1078 133 1078 545 185 545 185 133 Z"/></clipPath></defs><g data-ac-wrapper-id="14" id="ac_layer_f9ddd8e_1"><g data-ac-wrapper-id="19" role="article" aria-label="bar chart  entitled Diverging Chart&lt;br/&gt;&lt;span style=&quot;color:#212121; font-size: 13px;&quot;&gt;(According to survey 1000 in ACME corp.)&lt;/span&gt;, with 5 range-bar series, . Y-scale minimum value is -100 , maximum value is 100. X-scale with 6 categories: Formation and evolution&lt;br/&gt;of the Solar System, Giant impact hypothesis&lt;br/&gt;(Earth's Moon formation), Origin of water on Earth, Conception of Darwinism, Linnaean classification&lt;br/&gt;of organisms, Historical materialism&lt;br/&gt;by Karl Marx, . " id="ac_chart_f9ddd8e_2"><g data-ac-wrapper-id="20" id="ac_layer_f9ddd8e_4"><path data-ac-wrapper-id="21" id="ac_path_f9ddd8e_3" fill="#ffffff" stroke="none" d="M 0 0 L 1098 0 1098 0 1098 589 1098 589 0 589 0 589 0 0 0 0 Z"/></g><path data-ac-wrapper-id="136" clip-path="url(&quot;#ac_clip_f9ddd8e_3q&quot;)" clipPathUnits="userSpaceOnUse" id="ac_path_f9ddd8e_3s" fill="none" stroke="none" d="M 0,0"/><path data-ac-wrapper-id="89" clip-path="url(&quot;#ac_clip_f9ddd8e_23&quot;)" clipPathUnits="userSpaceOnUse" id="ac_path_f9ddd8e_25" fill="none" stroke="#CECECE" d="M 631.5 133 L 631.5 545"/><g data-ac-wrapper-id="91" clip-path="url(&quot;#ac_clip_f9ddd8e_2d&quot;)" clipPathUnits="userSpaceOnUse" id="ac_layer_f9ddd8e_2f"><path data-ac-wrapper-id="92" id="ac_path_f9ddd8e_26" fill="#ef6c00" fill-opacity="0.85" stroke="#fff" stroke-width="3" d="M 549.5 148.5 L 549.5 186.5 517.5 186.5 517.5 148.5 Z"/><path data-ac-wrapper-id="93" id="ac_path_f9ddd8e_27" fill="#ef6c00" fill-opacity="0.85" stroke="#fff" stroke-width="3" d="M 490.5 216.5 L 490.5 255.5 387.5 255.5 387.5 216.5 Z"/><path data-ac-wrapper-id="94" id="ac_path_f9ddd8e_28" fill="#ef6c00" fill-opacity="0.85" stroke="#fff" stroke-width="3" d="M 368.5 285.5 L 368.5 323.5 315.5 323.5 315.5 285.5 Z"/><path data-ac-wrapper-id="95" id="ac_path_f9ddd8e_29" fill="#ef6c00" fill-opacity="0.85" stroke="#fff" stroke-width="3" d="M 475.5 354.5 L 475.5 392.5 384.5 392.5 384.5 354.5 Z"/><path data-ac-wrapper-id="96" id="ac_path_f9ddd8e_2a" fill="#ef6c00" fill-opacity="0.85" stroke="#fff" stroke-width="3" d="M 551.5 422.5 L 551.5 461.5 502.5 461.5 502.5 422.5 Z"/><path data-ac-wrapper-id="97" id="ac_path_f9ddd8e_2b" fill="#ef6c00" fill-opacity="0.85" stroke="#fff" stroke-width="3" d="M 423.5 491.5 L 423.5 529.5 378.5 529.5 378.5 491.5 Z"/></g><g data-ac-wrapper-id="99" clip-path="url(&quot;#ac_clip_f9ddd8e_2d&quot;)" clipPathUnits="userSpaceOnUse" id="ac_layer_f9ddd8e_2g"/><g data-ac-wrapper-id="100" clip-path="url(&quot;#ac_clip_f9ddd8e_2o&quot;)" clipPathUnits="userSpaceOnUse" id="ac_layer_f9ddd8e_2q"><path data-ac-wrapper-id="101" id="ac_path_f9ddd8e_2h" fill="#ffa000" fill-opacity="0.85" stroke="#fff" stroke-width="3" d="M 613.5 148.5 L 613.5 186.5 549.5 186.5 549.5 148.5 Z"/><path data-ac-wrapper-id="102" id="ac_path_f9ddd8e_2i" fill="#ffa000" fill-opacity="0.85" stroke="#fff" stroke-width="3" d="M 627.5 216.5 L 627.5 255.5 490.5 255.5 490.5 216.5 Z"/><path data-ac-wrapper-id="103" id="ac_path_f9ddd8e_2j" fill="#ffa000" fill-opacity="0.85" stroke="#fff" stroke-width="3" d="M 612.5 285.5 L 612.5 323.5 368.5 323.5 368.5 285.5 Z"/><path data-ac-wrapper-id="104" id="ac_path_f9ddd8e_2k" fill="#ffa000" fill-opacity="0.85" stroke="#fff" stroke-width="3" d="M 610.5 354.5 L 610.5 392.5 475.5 392.5 475.5 354.5 Z"/><path data-ac-wrapper-id="105" id="ac_path_f9ddd8e_2l" fill="#ffa000" fill-opacity="0.85" stroke="#fff" stroke-width="3" d="M 616.5 422.5 L 616.5 461.5 551.5 461.5 551.5 422.5 Z"/><path data-ac-wrapper-id="106" id="ac_path_f9ddd8e_2m" fill="#ffa000" fill-opacity="0.85" stroke="#fff" stroke-width="3" d="M 622.5 491.5 L 622.5 529.5 423.5 529.5 423.5 491.5 Z"/></g><g data-ac-wrapper-id="108" clip-path="url(&quot;#ac_clip_f9ddd8e_2o&quot;)" clipPathUnits="userSpaceOnUse" id="ac_layer_f9ddd8e_2r"/><g data-ac-wrapper-id="109" clip-path="url(&quot;#ac_clip_f9ddd8e_2z&quot;)" clipPathUnits="userSpaceOnUse" id="ac_layer_f9ddd8e_31"><path data-ac-wrapper-id="110" id="ac_path_f9ddd8e_2s" fill="#96a6a6" fill-opacity="0.85" stroke="#fff" stroke-width="3" d="M 613.5 148.5 L 613.5 186.5 649.5 186.5 649.5 148.5 Z"/><path data-ac-wrapper-id="111" id="ac_path_f9ddd8e_2t" fill="#96a6a6" fill-opacity="0.85" stroke="#fff" stroke-width="3" d="M 627.5 216.5 L 627.5 255.5 635.5 255.5 635.5 216.5 Z"/><path data-ac-wrapper-id="112" id="ac_path_f9ddd8e_2u" fill="#96a6a6" fill-opacity="0.85" stroke="#fff" stroke-width="3" d="M 612.5 285.5 L 612.5 323.5 650.5 323.5 650.5 285.5 Z"/><path data-ac-wrapper-id="113" id="ac_path_f9ddd8e_2v" fill="#96a6a6" fill-opacity="0.85" stroke="#fff" stroke-width="3" d="M 610.5 354.5 L 610.5 392.5 652.5 392.5 652.5 354.5 Z"/><path data-ac-wrapper-id="114" id="ac_path_f9ddd8e_2w" fill="#96a6a6" fill-opacity="0.85" stroke="#fff" stroke-width="3" d="M 616.5 422.5 L 616.5 461.5 646.5 461.5 646.5 422.5 Z"/><path data-ac-wrapper-id="115" id="ac_path_f9ddd8e_2x" fill="#96a6a6" fill-opacity="0.85" stroke="#fff" stroke-width="3" d="M 622.5 491.5 L 622.5 529.5 640.5 529.5 640.5 491.5 Z"/></g><g data-ac-wrapper-id="117" clip-path="url(&quot;#ac_clip_f9ddd8e_2z&quot;)" clipPathUnits="userSpaceOnUse" id="ac_layer_f9ddd8e_32"/><g data-ac-wrapper-id="118" clip-path="url(&quot;#ac_clip_f9ddd8e_3a&quot;)" clipPathUnits="userSpaceOnUse" id="ac_layer_f9ddd8e_3c"><path data-ac-wrapper-id="119" id="ac_path_f9ddd8e_33" fill="#42a5f5" fill-opacity="0.85" stroke="#fff" stroke-width="3" d="M 649.5 148.5 L 649.5 186.5 834.5 186.5 834.5 148.5 Z"/><path data-ac-wrapper-id="120" id="ac_path_f9ddd8e_34" fill="#42a5f5" fill-opacity="0.85" stroke="#fff" stroke-width="3" d="M 635.5 216.5 L 635.5 255.5 772.5 255.5 772.5 216.5 Z"/><path data-ac-wrapper-id="121" id="ac_path_f9ddd8e_35" fill="#42a5f5" fill-opacity="0.85" stroke="#fff" stroke-width="3" d="M 650.5 285.5 L 650.5 323.5 720.5 323.5 720.5 285.5 Z"/><path data-ac-wrapper-id="122" id="ac_path_f9ddd8e_36" fill="#42a5f5" fill-opacity="0.85" stroke="#fff" stroke-width="3" d="M 652.5 354.5 L 652.5 392.5 790.5 392.5 790.5 354.5 Z"/><path data-ac-wrapper-id="123" id="ac_path_f9ddd8e_37" fill="#42a5f5" fill-opacity="0.85" stroke="#fff" stroke-width="3" d="M 646.5 422.5 L 646.5 461.5 790.5 461.5 790.5 422.5 Z"/><path data-ac-wrapper-id="124" id="ac_path_f9ddd8e_38" fill="#42a5f5" fill-opacity="0.85" stroke="#fff" stroke-width="3" d="M 640.5 491.5 L 640.5 529.5 693.5 529.5 693.5 491.5 Z"/></g><g data-ac-wrapper-id="126" clip-path="url(&quot;#ac_clip_f9ddd8e_3a&quot;)" clipPathUnits="userSpaceOnUse" id="ac_layer_f9ddd8e_3d"/><g data-ac-wrapper-id="127" clip-path="url(&quot;#ac_clip_f9ddd8e_3l&quot;)" clipPathUnits="userSpaceOnUse" id="ac_layer_f9ddd8e_3n"><path data-ac-wrapper-id="128" id="ac_path_f9ddd8e_3e" fill="#1976d2" fill-opacity="0.85" stroke="#fff" stroke-width="3" d="M 834.5 148.5 L 834.5 186.5 964.5 186.5 964.5 148.5 Z"/><path data-ac-wrapper-id="129" id="ac_path_f9ddd8e_3f" fill="#1976d2" fill-opacity="0.85" stroke="#fff" stroke-width="3" d="M 772.5 216.5 L 772.5 255.5 833.5 255.5 833.5 216.5 Z"/><path data-ac-wrapper-id="130" id="ac_path_f9ddd8e_3g" fill="#1976d2" fill-opacity="0.85" stroke="#fff" stroke-width="3" d="M 720.5 285.5 L 720.5 323.5 761.5 323.5 761.5 285.5 Z"/><path data-ac-wrapper-id="131" id="ac_path_f9ddd8e_3h" fill="#1976d2" fill-opacity="0.85" stroke="#fff" stroke-width="3" d="M 790.5 354.5 L 790.5 392.5 831.5 392.5 831.5 354.5 Z"/><path data-ac-wrapper-id="132" id="ac_path_f9ddd8e_3i" fill="#1976d2" fill-opacity="0.85" stroke="#fff" stroke-width="3" d="M 790.5 422.5 L 790.5 461.5 949.5 461.5 949.5 422.5 Z"/><path data-ac-wrapper-id="133" id="ac_path_f9ddd8e_3j" fill="#1976d2" fill-opacity="0.85" stroke="#fff" stroke-width="3" d="M 693.5 491.5 L 693.5 529.5 825.5 529.5 825.5 491.5 Z"/></g><g data-ac-wrapper-id="135" clip-path="url(&quot;#ac_clip_f9ddd8e_3l&quot;)" clipPathUnits="userSpaceOnUse" id="ac_layer_f9ddd8e_3o"/><path data-ac-wrapper-id="47" id="ac_path_f9ddd8e_w" fill="none" stroke="#CECECE" d="M 185.5 133 L 185.5 546"/><g data-ac-wrapper-id="48" transform="matrix(6.123233995736766e-17,-1,1,6.123233995736766e-17,9.999999999999998,366.75390625)" id="ac_layer_f9ddd8e_y"><text data-ac-wrapper-id="49" font-style="normal" font-variant="normal" font-family="Verdana, Helvetica, Arial, sans-serif" font-size="13" font-weight="normal" fill="#545f69" letter-spacing="normal" text-decoration="none" direction="ltr" text-anchor="middle" x="27.75390625" y="13" aria-hidden="true" id="ac_text_f9ddd8e_x" style="user-select: none; font-family: Verdana, Helvetica, Arial, sans-serif; opacity: 1;"><tspan x="27.75390625" dy="0">Theories</tspan></text></g><g data-ac-wrapper-id="50" id="ac_layer_f9ddd8e_1b"><g data-ac-wrapper-id="51" id="ac_layer_f9ddd8e_10"><text data-ac-wrapper-id="52" font-style="normal" font-variant="normal" font-family="Verdana, Helvetica, Arial, sans-serif" font-size="11" font-weight="normal" fill="#474747" letter-spacing="normal" text-decoration="none" direction="ltr" text-anchor="end" x="175" y="164" aria-hidden="true" id="ac_text_f9ddd8e_z" style="user-select: none; font-family: Verdana, Helvetica, Arial, sans-serif; opacity: 1;"><tspan x="175" dy="0">Formation and evolution</tspan><tspan x="175" dy="13.5">of the Solar System</tspan></text></g><g data-ac-wrapper-id="53" id="ac_layer_f9ddd8e_12"><text data-ac-wrapper-id="54" font-style="normal" font-variant="normal" font-family="Verdana, Helvetica, Arial, sans-serif" font-size="11" font-weight="normal" fill="#474747" letter-spacing="normal" text-decoration="none" direction="ltr" text-anchor="end" x="175" y="233" aria-hidden="true" id="ac_text_f9ddd8e_11" style="user-select: none; font-family: Verdana, Helvetica, Arial, sans-serif; opacity: 1;"><tspan x="175" dy="0">Giant impact hypothesis</tspan><tspan x="175" dy="13.5">(Earth's Moon formation)</tspan></text></g><g data-ac-wrapper-id="55" id="ac_layer_f9ddd8e_14"><text data-ac-wrapper-id="56" font-style="normal" font-variant="normal" font-family="Verdana, Helvetica, Arial, sans-serif" font-size="11" font-weight="normal" fill="#474747" letter-spacing="normal" text-decoration="none" direction="ltr" text-anchor="end" x="175" y="308.75" aria-hidden="true" id="ac_text_f9ddd8e_13" style="user-select: none; font-family: Verdana, Helvetica, Arial, sans-serif; opacity: 1;"><tspan x="175" dy="0">Origin of water on Earth</tspan></text></g><g data-ac-wrapper-id="57" id="ac_layer_f9ddd8e_16"><text data-ac-wrapper-id="58" font-style="normal" font-variant="normal" font-family="Verdana, Helvetica, Arial, sans-serif" font-size="11" font-weight="normal" fill="#474747" letter-spacing="normal" text-decoration="none" direction="ltr" text-anchor="end" x="175" y="376.75" aria-hidden="true" id="ac_text_f9ddd8e_15" style="user-select: none; font-family: Verdana, Helvetica, Arial, sans-serif; opacity: 1;"><tspan x="175" dy="0">Conception of Darwinism</tspan></text></g><g data-ac-wrapper-id="59" id="ac_layer_f9ddd8e_18"><text data-ac-wrapper-id="60" font-style="normal" font-variant="normal" font-family="Verdana, Helvetica, Arial, sans-serif" font-size="11" font-weight="normal" fill="#474747" letter-spacing="normal" text-decoration="none" direction="ltr" text-anchor="end" x="175" y="439" aria-hidden="true" id="ac_text_f9ddd8e_17" style="user-select: none; font-family: Verdana, Helvetica, Arial, sans-serif; opacity: 1;"><tspan x="175" dy="0">Linnaean classification</tspan><tspan x="175" dy="13.5">of organisms</tspan></text></g><g data-ac-wrapper-id="61" id="ac_layer_f9ddd8e_1a"><text data-ac-wrapper-id="62" font-style="normal" font-variant="normal" font-family="Verdana, Helvetica, Arial, sans-serif" font-size="11" font-weight="normal" fill="#474747" letter-spacing="normal" text-decoration="none" direction="ltr" text-anchor="end" x="175" y="508" aria-hidden="true" id="ac_text_f9ddd8e_19" style="user-select: none; font-family: Verdana, Helvetica, Arial, sans-serif; opacity: 1;"><tspan x="175" dy="0">Historical materialism</tspan><tspan x="175" dy="13.5">by Karl Marx</tspan></text></g></g><path data-ac-wrapper-id="63" id="ac_path_f9ddd8e_1c" fill="none" stroke="#CECECE" d="M 185 546.5 L 1079 546.5"/><path data-ac-wrapper-id="64" id="ac_path_f9ddd8e_1d" fill="none" stroke="#CECECE" d="M 185.5 547 L 185.5 553 M 408.5 547 L 408.5 553 M 631.5 547 L 631.5 553 M 854.5 547 L 854.5 553 M 1078.5 547 L 1078.5 553"/><g data-ac-wrapper-id="65" id="ac_layer_f9ddd8e_1o"><g data-ac-wrapper-id="66" id="ac_layer_f9ddd8e_1f"><g data-ac-wrapper-id="67" id="ac_unmanageable-layer_f9ddd8e_1e"><text aria-hidden="true" font-style="normal" font-variant="normal" font-family="Verdana, Helvetica, Arial, sans-serif" font-size="12" font-weight="normal" letter-spacing="normal" text-decoration="none" fill="#7c868e" opacity="1" x="166.59765625" y="569">100%</text></g></g><g data-ac-wrapper-id="68" id="ac_layer_f9ddd8e_1h"><g data-ac-wrapper-id="69" id="ac_unmanageable-layer_f9ddd8e_1g"><text aria-hidden="true" font-style="normal" font-variant="normal" font-family="Verdana, Helvetica, Arial, sans-serif" font-size="12" font-weight="normal" letter-spacing="normal" text-decoration="none" fill="#7c868e" opacity="1" x="393.4140625" y="569">50%</text></g></g><g data-ac-wrapper-id="70" id="ac_layer_f9ddd8e_1j"><g data-ac-wrapper-id="71" id="ac_unmanageable-layer_f9ddd8e_1i"><text aria-hidden="true" font-style="normal" font-variant="normal" font-family="Verdana, Helvetica, Arial, sans-serif" font-size="12" font-weight="normal" letter-spacing="normal" text-decoration="none" fill="#7c868e" opacity="1" x="621.2265625" y="569">0%</text></g></g><g data-ac-wrapper-id="72" id="ac_layer_f9ddd8e_1l"><g data-ac-wrapper-id="73" id="ac_unmanageable-layer_f9ddd8e_1k"><text aria-hidden="true" font-style="normal" font-variant="normal" font-family="Verdana, Helvetica, Arial, sans-serif" font-size="12" font-weight="normal" letter-spacing="normal" text-decoration="none" fill="#7c868e" opacity="1" x="840.4140625" y="569">50%</text></g></g><g data-ac-wrapper-id="74" id="ac_layer_f9ddd8e_1n"><g data-ac-wrapper-id="75" id="ac_unmanageable-layer_f9ddd8e_1m"><text aria-hidden="true" font-style="normal" font-variant="normal" font-family="Verdana, Helvetica, Arial, sans-serif" font-size="12" font-weight="normal" letter-spacing="normal" text-decoration="none" fill="#7c868e" opacity="1" x="1059.59765625" y="569">100%</text></g></g></g><path data-ac-wrapper-id="76" id="ac_path_f9ddd8e_1p" fill="none" stroke="#CECECE" d="M 185 133.5 L 1079 133.5"/><path data-ac-wrapper-id="77" id="ac_path_f9ddd8e_1q" fill="none" stroke="#CECECE" d="M 185.5 133 L 185.5 127 M 408.5 133 L 408.5 127 M 631.5 133 L 631.5 127 M 854.5 133 L 854.5 127 M 1078.5 133 L 1078.5 127"/><g data-ac-wrapper-id="78" id="ac_layer_f9ddd8e_21"><g data-ac-wrapper-id="79" id="ac_layer_f9ddd8e_1s"><g data-ac-wrapper-id="80" id="ac_unmanageable-layer_f9ddd8e_1r"><text aria-hidden="true" font-style="normal" font-variant="normal" font-family="Verdana, Helvetica, Arial, sans-serif" font-size="12" font-weight="normal" letter-spacing="normal" text-decoration="none" fill="#7c868e" opacity="1" x="170.33203125" y="120.5">-100</text></g></g><g data-ac-wrapper-id="81" id="ac_layer_f9ddd8e_1u"><g data-ac-wrapper-id="82" id="ac_unmanageable-layer_f9ddd8e_1t"><text aria-hidden="true" font-style="normal" font-variant="normal" font-family="Verdana, Helvetica, Arial, sans-serif" font-size="12" font-weight="normal" letter-spacing="normal" text-decoration="none" fill="#7c868e" opacity="1" x="397.14453125" y="120.5">-50</text></g></g><g data-ac-wrapper-id="83" id="ac_layer_f9ddd8e_1w"><g data-ac-wrapper-id="84" id="ac_unmanageable-layer_f9ddd8e_1v"><text aria-hidden="true" font-style="normal" font-variant="normal" font-family="Verdana, Helvetica, Arial, sans-serif" font-size="12" font-weight="normal" letter-spacing="normal" text-decoration="none" fill="#7c868e" opacity="1" x="627.68359375" y="120.5">0</text></g></g><g data-ac-wrapper-id="85" id="ac_layer_f9ddd8e_1y"><g data-ac-wrapper-id="86" id="ac_unmanageable-layer_f9ddd8e_1x"><text aria-hidden="true" font-style="normal" font-variant="normal" font-family="Verdana, Helvetica, Arial, sans-serif" font-size="12" font-weight="normal" letter-spacing="normal" text-decoration="none" fill="#7c868e" opacity="1" x="846.87109375" y="120.5">50</text></g></g><g data-ac-wrapper-id="87" id="ac_layer_f9ddd8e_20"><g data-ac-wrapper-id="88" id="ac_unmanageable-layer_f9ddd8e_1z"><text aria-hidden="true" font-style="normal" font-variant="normal" font-family="Verdana, Helvetica, Arial, sans-serif" font-size="12" font-weight="normal" letter-spacing="normal" text-decoration="none" fill="#7c868e" opacity="1" x="1066.0546875" y="120.5">100</text></g></g></g><g data-ac-wrapper-id="22" transform="matrix(1,0,0,1,406.7109375,10)" id="ac_layer_f9ddd8e_6"><text data-ac-wrapper-id="23" font-style="normal" font-variant="normal" font-family="Verdana, Helvetica, Arial, sans-serif" font-size="16" font-weight="normal" fill="#7c868e" letter-spacing="normal" text-decoration="none" direction="ltr" text-anchor="middle" x="137.2890625" y="16" aria-hidden="true" id="ac_text_f9ddd8e_5" style="user-select: none; font-family: Verdana, Helvetica, Arial, sans-serif; opacity: 1;"><tspan x="137.2890625" dy="0">Diverging Chart</tspan><tspan font-size="13px" fill="#212121" x="137.2890625" dy="19.5">(According to survey 1000 in ACME corp.)</tspan></text></g><g data-ac-wrapper-id="24" transform="matrix(1,0,0,1,251.55078125,59)" clip-path="url(&quot;#ac_clip_f9ddd8e_t&quot;)" clipPathUnits="userSpaceOnUse" id="ac_layer_f9ddd8e_v"><g data-ac-wrapper-id="25" id="ac_layer_f9ddd8e_r"><g data-ac-wrapper-id="26" transform="matrix(1,0,0,1,0,20)" id="ac_layer_f9ddd8e_a"><text data-ac-wrapper-id="27" font-style="normal" font-variant="normal" font-family="Verdana, Helvetica, Arial, sans-serif" font-size="12" font-weight="normal" fill="#7c868e" letter-spacing="normal" text-decoration="none" direction="ltr" text-anchor="start" x="20" y="12.25" aria-hidden="true" id="ac_text_f9ddd8e_7" style="user-select: none; font-family: Verdana, Helvetica, Arial, sans-serif; opacity: 1; cursor: pointer;"><tspan x="20" dy="0">Disagree</tspan></text><path data-ac-wrapper-id="28" id="ac_path_f9ddd8e_8" fill="#ef6c00" fill-opacity="0.85" stroke="none" d="M 0 0 L 15 0 15 15 0 15 Z" style="cursor: pointer;"/><path data-ac-wrapper-id="29" id="ac_rect_f9ddd8e_9" fill="#FFFFFF" fill-opacity="0.00001" stroke="none" d="M 0 0 L 72.8984375 0 72.8984375 15 0 15 0 0 Z" style="cursor: pointer;"/></g><g data-ac-wrapper-id="30" transform="matrix(1,0,0,1,87.8984375,20)" id="ac_layer_f9ddd8e_e"><text data-ac-wrapper-id="31" font-style="normal" font-variant="normal" font-family="Verdana, Helvetica, Arial, sans-serif" font-size="12" font-weight="normal" fill="#7c868e" letter-spacing="normal" text-decoration="none" direction="ltr" text-anchor="start" x="20" y="12.25" aria-hidden="true" id="ac_text_f9ddd8e_b" style="user-select: none; font-family: Verdana, Helvetica, Arial, sans-serif; opacity: 1; cursor: pointer;"><tspan x="20" dy="0">Not completely disagree</tspan></text><path data-ac-wrapper-id="32" id="ac_path_f9ddd8e_c" fill="#ffa000" fill-opacity="0.85" stroke="none" d="M 0 0 L 15 0 15 15 0 15 Z" style="cursor: pointer;"/><path data-ac-wrapper-id="33" id="ac_rect_f9ddd8e_d" fill="#FFFFFF" fill-opacity="0.00001" stroke="none" d="M 0 0 L 165.9453125 0 165.9453125 15 0 15 0 0 Z" style="cursor: pointer;"/></g><g data-ac-wrapper-id="34" transform="matrix(1,0,0,1,268.84375,20)" id="ac_layer_f9ddd8e_i"><text data-ac-wrapper-id="35" font-style="normal" font-variant="normal" font-family="Verdana, Helvetica, Arial, sans-serif" font-size="12" font-weight="normal" fill="#7c868e" letter-spacing="normal" text-decoration="none" direction="ltr" text-anchor="start" x="20" y="12.25" aria-hidden="true" id="ac_text_f9ddd8e_f" style="user-select: none; font-family: Verdana, Helvetica, Arial, sans-serif; opacity: 1; cursor: pointer;"><tspan x="20" dy="0">Don't care</tspan></text><path data-ac-wrapper-id="36" id="ac_path_f9ddd8e_g" fill="#96a6a6" fill-opacity="0.85" stroke="none" d="M 0 0 L 15 0 15 15 0 15 Z" style="cursor: pointer;"/><path data-ac-wrapper-id="37" id="ac_rect_f9ddd8e_h" fill="#FFFFFF" fill-opacity="0.00001" stroke="none" d="M 0 0 L 82.0234375 0 82.0234375 15 0 15 0 0 Z" style="cursor: pointer;"/></g><g data-ac-wrapper-id="38" transform="matrix(1,0,0,1,365.8671875,20)" id="ac_layer_f9ddd8e_m"><text data-ac-wrapper-id="39" font-style="normal" font-variant="normal" font-family="Verdana, Helvetica, Arial, sans-serif" font-size="12" font-weight="normal" fill="#7c868e" letter-spacing="normal" text-decoration="none" direction="ltr" text-anchor="start" x="20" y="12.25" aria-hidden="true" id="ac_text_f9ddd8e_j" style="user-select: none; font-family: Verdana, Helvetica, Arial, sans-serif; opacity: 1; cursor: pointer;"><tspan x="20" dy="0">Not completely agree</tspan></text><path data-ac-wrapper-id="40" id="ac_path_f9ddd8e_k" fill="#42a5f5" fill-opacity="0.85" stroke="none" d="M 0 0 L 15 0 15 15 0 15 Z" style="cursor: pointer;"/><path data-ac-wrapper-id="41" id="ac_rect_f9ddd8e_l" fill="#FFFFFF" fill-opacity="0.00001" stroke="none" d="M 0 0 L 148.9296875 0 148.9296875 15 0 15 0 0 Z" style="cursor: pointer;"/></g><g data-ac-wrapper-id="42" transform="matrix(1,0,0,1,529.796875,20)" id="ac_layer_f9ddd8e_q"><text data-ac-wrapper-id="43" font-style="normal" font-variant="normal" font-family="Verdana, Helvetica, Arial, sans-serif" font-size="12" font-weight="normal" fill="#7c868e" letter-spacing="normal" text-decoration="none" direction="ltr" text-anchor="start" x="20" y="12.25" aria-hidden="true" id="ac_text_f9ddd8e_n" style="user-select: none; font-family: Verdana, Helvetica, Arial, sans-serif; opacity: 1; cursor: pointer;"><tspan x="20" dy="0">Agree</tspan></text><path data-ac-wrapper-id="44" id="ac_path_f9ddd8e_o" fill="#1976d2" fill-opacity="0.85" stroke="none" d="M 0 0 L 15 0 15 15 0 15 Z" style="cursor: pointer;"/><path data-ac-wrapper-id="45" id="ac_rect_f9ddd8e_p" fill="#FFFFFF" fill-opacity="0.00001" stroke="none" d="M 0 0 L 55.1015625 0 55.1015625 15 0 15 0 0 Z" style="cursor: pointer;"/></g></g></g></g></g></svg>