<svg id="Layer_1" data-name="Layer 1" xmlns="http://www.w3.org/2000/svg" viewBox="0 0 2954.82 2471"><defs><style>.cls-1{fill:#fff;}.cls-15,.cls-2{fill:#2db6f5;}.cls-2,.cls-3,.cls-4,.cls-5,.cls-6{stroke:#bbb;stroke-width:1.5px;}.cls-13,.cls-15,.cls-17,.cls-19,.cls-2,.cls-21,.cls-22,.cls-3,.cls-4,.cls-5,.cls-6{stroke-miterlimit:10;}.cls-17,.cls-3{fill:#39c86a;}.cls-19,.cls-4{fill:#ffc107;}.cls-21,.cls-5{fill:#ff8a65;}.cls-22,.cls-6{fill:#e289f2;}.cls-11,.cls-12,.cls-14,.cls-16,.cls-18,.cls-20,.cls-7,.cls-8{isolation:isolate;}.cls-7{font-size:16px;}.cls-12,.cls-7,.cls-8{fill:#333;}.cls-12,.cls-14,.cls-16,.cls-18,.cls-20,.cls-7,.cls-8{font-family:ArialMT, Arial;}.cls-8{font-size:14px;}.cls-9{letter-spacing:-0.02em;}.cls-10{letter-spacing:-0.06em;}.cls-11{font-size:24.5px;fill:#969696;font-family:Arial-BoldMT, Arial;font-weight:700;}.cls-12{font-size:14.5px;}.cls-13{fill:none;stroke:#444;stroke-width:1.03px;}.cls-14{font-size:10.58px;}.cls-14,.cls-16,.cls-18,.cls-20{fill:#444;}.cls-15,.cls-17,.cls-19,.cls-21,.cls-22{stroke:#e7e7e7;}.cls-15{stroke-width:1.32px;}.cls-16{font-size:13.53px;}.cls-17{stroke-width:1.34px;}.cls-18{font-size:14.43px;}.cls-20{font-size:10px;}</style></defs><rect class="cls-2" x="746" y="202" width="133.95" height="25"/><rect class="cls-3" x="881.21" y="202" width="230.07" height="25"/><rect class="cls-4" x="934.3" y="233.5" width="176.98" height="25"/><rect class="cls-4" x="1112.55" y="233.5" width="228.81" height="25"/><rect class="cls-2" x="1340.4" y="232.77" width="195.34" height="25"/><rect class="cls-5" x="932.52" y="265" width="111.24" height="25"/><rect class="cls-3" x="1048.08" y="265" width="293.28" height="25"/><rect class="cls-2" x="1342.62" y="265" width="190.89" height="25"/><rect class="cls-6" x="746" y="410" width="133.95" height="25"/><rect class="cls-2" x="881.21" y="410" width="113.77" height="25"/><rect class="cls-2" x="996.25" y="410" width="115.04" height="25"/><rect class="cls-2" x="1112.55" y="410" width="135.32" height="25"/><rect class="cls-6" x="1342.62" y="410" width="212.38" height="25"/><rect class="cls-3" x="881.71" y="439.03" width="230.07" height="25"/><rect class="cls-3" x="1112.55" y="439.03" width="154.28" height="25"/><rect class="cls-4" x="1268.09" y="439.03" width="73.27" height="25"/><rect class="cls-6" x="1341.36" y="439.03" width="113.77" height="25"/><rect class="cls-4" x="746" y="644" width="171.87" height="25"/><rect class="cls-2" x="919.14" y="644" width="192.15" height="25"/><rect class="cls-3" x="1398.25" y="647.38" width="156.75" height="25"/><rect class="cls-6" x="809.21" y="677.86" width="302.08" height="25"/><rect class="cls-4" x="1112.55" y="677.86" width="228.81" height="25"/><rect class="cls-5" x="1342.62" y="677.86" width="111.24" height="25"/><text class="cls-7" transform="translate(749.58 192.88)">Developers</text><text class="cls-7" transform="translate(749.05 401.28)">Designers</text><text class="cls-7" transform="translate(747.02 631.68)">Marketing</text><text class="cls-8" transform="translate(757.83 217.93)">Design Database</text><text class="cls-8" transform="translate(891.01 217.93)">Charts Design System Integration</text><text class="cls-8" transform="translate(946.24 250.65)">Dashboard MV<tspan class="cls-9" x="93.38" y="0">P</tspan><tspan x="102.46" y="0" xml:space="preserve"> Deploy</tspan></text><text class="cls-8" transform="translate(1130.97 250.65)">Backup Database Constantly</text><text class="cls-8" transform="translate(1347.8 250.65)">Purchasing Other Figma Kits</text><text class="cls-8" transform="translate(946.76 282.64)">Purchase now</text><text class="cls-8" transform="translate(1119.79 282.64)">Self Service<tspan class="cls-10" x="74.7" y="0"> </tspan><tspan x="77.81" y="0">AR System</tspan></text><text class="cls-8" transform="translate(1391.92 277.5)"><tspan class="cls-9">W</tspan><tspan x="12.96" y="0">orkflow Boost</tspan></text><text class="cls-8" transform="translate(750.97 427.13)">Charts Kit in Fitness</text><text class="cls-8" transform="translate(891.01 427.13)">UX<tspan class="cls-10" x="19.45" y="0"> </tspan><tspan x="22.57" y="0">Acceleration</tspan></text><text class="cls-8" transform="translate(1000.56 427.13)">Cool Presentation</text><text class="cls-8" transform="translate(1120.43 427.13)">Data <tspan class="cls-9" x="33.46" y="0">V</tspan><tspan x="42.55" y="0">isualization</tspan></text><text class="cls-8" transform="translate(1356.93 427.13)">Material Design Components</text><text class="cls-8" transform="translate(907.45 454.64)">Android Design Kit</text><text class="cls-8" transform="translate(1111.29 454.64)">Material Minimal<tspan class="cls-9" x="101.91" y="0"> </tspan><tspan x="105.55" y="0">Theme</tspan></text><text class="cls-8" transform="translate(1268.09 454.64)">Prototyping</text><text class="cls-8" transform="translate(1352.42 457.58)">GUI</text><text class="cls-8" transform="translate(766.89 659.73)">Fits for Dashboard</text><text class="cls-8" transform="translate(932.52 659.73)">Presentation Showcase</text><text class="cls-8" transform="translate(1398.25 664.67)">Premium Charts Release</text><text class="cls-8" transform="translate(858.82 694.8)">Dashboard MV<tspan class="cls-9" x="93.38" y="0">P</tspan><tspan x="102.46" y="0" xml:space="preserve"> Deploy (2)</tspan></text><text class="cls-8" transform="translate(1132 694.8)">Backup Databse Constantly</text><text class="cls-8" transform="translate(1364.62 694.8)">Oooh, no!</text><text class="cls-11" transform="translate(748.1 91.41)">Product Roadmap</text><text class="cls-12" transform="translate(749 114.87)">Chart how your business grows</text><path class="cls-13" d="M746.5,730v-5.82h809V730"/><line class="cls-13" x1="767.99" y1="723.62" x2="767.99" y2="729.97"/><text class="cls-14" transform="translate(756.87 740.66) scale(0.94 1)">2017</text><line class="cls-13" x1="881.71" y1="723.62" x2="881.71" y2="729.97"/><text class="cls-14" transform="translate(871.71 740.66) scale(0.94 1)">April</text><line class="cls-13" x1="996.75" y1="723.62" x2="996.75" y2="729.97"/><text class="cls-14" transform="translate(987.86 740.66) scale(0.94 1)">July</text><line class="cls-13" x1="1113.05" y1="723.62" x2="1113.05" y2="729.97"/><text class="cls-14" transform="translate(1095.26 740.66) scale(0.94 1)">October</text><line class="cls-13" x1="1229.4" y1="723.62" x2="1229.4" y2="729.97"/><text class="cls-14" transform="translate(1218.28 740.66) scale(0.94 1)">2018</text><line class="cls-13" x1="1343.12" y1="723.62" x2="1343.12" y2="729.97"/><text class="cls-14" transform="translate(1333.12 740.66) scale(0.94 1)">April</text><line class="cls-13" x1="1458.16" y1="723.62" x2="1458.16" y2="729.97"/><text class="cls-14" transform="translate(1449.27 740.66) scale(0.94 1)">July</text><text class="cls-14" transform="translate(748 732.08) scale(0.94 1)">Start</text><rect class="cls-15" x="1186.89" y="133.57" width="17.96" height="18.94"/><text class="cls-16" transform="translate(1209.98 147.1) scale(0.95 1)">Performance enhancement</text><rect class="cls-17" x="1189.69" y="170.42" width="17.5" height="20.21"/><text class="cls-18" transform="translate(1212.19 184.86) scale(0.87 1)">Customer Satisfaction</text><rect class="cls-19" x="1406.8" y="170.53" width="14" height="14"/><text class="cls-20" transform="translate(1424.8 180.53)">Customer Satisfaction (2)</text><rect class="cls-21" x="1555" y="141.83" width="14" height="14"/><text class="cls-20" transform="translate(1573 151.83)">Sometimes shit happens</text><rect class="cls-22" x="1395.81" y="134.83" width="14" height="14"/><text class="cls-20" transform="translate(1413.81 144.83)">Internal Optimization</text><text class="cls-20" transform="translate(1766 195)">Category</text></svg>