<svg version="1.1" xmlns="http://www.w3.org/2000/svg" xmlns:xlink="http://www.w3.org/1999/xlink" role="group" style="width: 100%; height: 100%; overflow: visible;"><defs><clipPath id="id-46"><rect width="1136" height="500"/></clipPath><linearGradient id="gradient-id-69" x1="1%" x2="99%" y1="59%" y2="41%"><stop stop-color="#474758" offset="0"/><stop stop-color="#474758" stop-opacity="1" offset="0.75"/><stop stop-color="#3cabff" stop-opacity="1" offset="0.755"/></linearGradient><filter id="filter-id-78" filterUnits="objectBoundingBox" width="200%" height="200%" x="-50%" y="-50%"/><filter id="filter-id-99" filterUnits="objectBoundingBox" width="200%" height="200%" x="-50%" y="-50%"/><clipPath id="id-133"><path d="M0,0 L1025,0 L1025,402 L0,402 L0,0"/></clipPath><clipPath id="id-316"><rect width="1025" height="402"/></clipPath><filter id="filter-id-51" filterUnits="objectBoundingBox" width="200%" height="200%" x="-50%" y="-50%"><feGaussianBlur result="blurOut" in="SourceGraphic" stdDeviation="1.5"/><feOffset result="offsetBlur" dx="1" dy="1"/><feFlood flood-color="#000000" flood-opacity="0.5"/><feComposite in2="offsetBlur" operator="in"/><feMerge><feMergeNode/><feMergeNode in="SourceGraphic"/></feMerge></filter><filter id="filter-id-66" filterUnits="objectBoundingBox" width="120%" height="120%" x="-10%" y="-10%"><feColorMatrix type="saturate" values="0"/></filter><filter id="filter-id-138" filterUnits="objectBoundingBox" width="200%" height="200%" x="-50%" y="-50%"><feGaussianBlur result="blurOut" in="SourceGraphic" stdDeviation="1.5"/><feOffset result="offsetBlur" dx="1" dy="1"/><feFlood flood-color="#000000" flood-opacity="0.5"/><feComposite in2="offsetBlur" operator="in"/><feMerge><feMergeNode/><feMergeNode in="SourceGraphic"/></feMerge></filter></defs><g><g fill="#ffffff" fill-opacity="0"><rect width="1136" height="500"/></g><g><g role="region" clip-path="url(&quot;#id-46&quot;)" opacity="1" aria-label="Chart" id="id-22"><g transform="translate(15,15)"><g><g><g><g><g transform="translate(0,32)"><g><g transform="translate(66,0)"><g fill="#ffffff" fill-opacity="0"><rect width="1025" height="402"/></g><g><g><g><g stroke="#000000" stroke-opacity="0.15" fill="none" display="none"><path d=" M0,0  L0,402 " transform="translate(-0.5,-0.5)"/></g><g stroke="#000000" stroke-opacity="0.15" fill="none" transform="translate(64,0)"><path d=" M0,0  L0,402 " transform="translate(-0.5,-0.5)"/></g><g stroke="#000000" stroke-opacity="0.15" fill="none" transform="translate(128,0)" display="none"><path d=" M0,0  L0,402 " transform="translate(-0.5,-0.5)"/></g><g stroke="#000000" stroke-opacity="0.15" fill="none" transform="translate(192,0)" display="none"><path d=" M0,0  L0,402 " transform="translate(-0.5,-0.5)"/></g><g stroke="#000000" stroke-opacity="0.15" fill="none" transform="translate(256,0)"><path d=" M0,0  L0,402 " transform="translate(-0.5,-0.5)"/></g><g stroke="#000000" stroke-opacity="0.15" fill="none" transform="translate(320,0)" display="none"><path d=" M0,0  L0,402 " transform="translate(-0.5,-0.5)"/></g><g stroke="#000000" stroke-opacity="0.15" fill="none" transform="translate(384,0)" display="none"><path d=" M0,0  L0,402 " transform="translate(-0.5,-0.5)"/></g><g stroke="#000000" stroke-opacity="0.15" fill="none" transform="translate(448,0)"><path d=" M0,0  L0,402 " transform="translate(-0.5,-0.5)"/></g><g stroke="#000000" stroke-opacity="0.15" fill="none" transform="translate(512,0)" display="none"><path d=" M0,0  L0,402 " transform="translate(-0.5,-0.5)"/></g><g stroke="#000000" stroke-opacity="0.15" fill="none" transform="translate(577,0)" display="none"><path d=" M0,0  L0,402 " transform="translate(-0.5,-0.5)"/></g><g stroke="#000000" stroke-opacity="0.15" fill="none" transform="translate(641,0)"><path d=" M0,0  L0,402 " transform="translate(-0.5,-0.5)"/></g><g stroke="#000000" stroke-opacity="0.15" fill="none" transform="translate(705,0)" display="none"><path d=" M0,0  L0,402 " transform="translate(-0.5,-0.5)"/></g><g stroke="#000000" stroke-opacity="0.15" fill="none" transform="translate(769,0)" display="none"><path d=" M0,0  L0,402 " transform="translate(-0.5,-0.5)"/></g><g stroke="#000000" stroke-opacity="0.15" fill="none" transform="translate(833,0)"><path d=" M0,0  L0,402 " transform="translate(-0.5,-0.5)"/></g><g stroke="#000000" stroke-opacity="0.15" fill="none" transform="translate(897,0)" display="none"><path d=" M0,0  L0,402 " transform="translate(-0.5,-0.5)"/></g><g stroke="#000000" stroke-opacity="0.15" fill="none" transform="translate(1217,0)" display="none"><path d=" M0,0  L0,402 " transform="translate(-0.5,-0.5)"/></g><g stroke="#000000" stroke-opacity="0.15" fill="none" transform="translate(1025,0)"><path d=" M0,0  L0,402 " transform="translate(-0.5,-0.5)"/></g><g stroke="#000000" stroke-opacity="0.15" fill="none" transform="translate(-128,0)" display="none"><path d=" M0,0  L0,402 " transform="translate(-0.5,-0.5)"/></g></g></g><g><g><g stroke="#000000" stroke-opacity="0.15" fill="none"><path d=" M0,0  L1025,0 " transform="translate(-0.5,-0.5)"/></g><g stroke="#000000" stroke-opacity="0.15" fill="none" transform="translate(0,80)"><path d=" M0,0  L1025,0 " transform="translate(-0.5,-0.5)"/></g><g stroke="#000000" stroke-opacity="0.15" fill="none" transform="translate(0,161)"><path d=" M0,0  L1025,0 " transform="translate(-0.5,-0.5)"/></g><g stroke="#000000" stroke-opacity="0.15" fill="none" transform="translate(0,241)"><path d=" M0,0  L1025,0 " transform="translate(-0.5,-0.5)"/></g><g stroke="#000000" stroke-opacity="0.15" fill="none" transform="translate(0,322)"><path d=" M0,0  L1025,0 " transform="translate(-0.5,-0.5)"/></g><g stroke="#000000" stroke-opacity="0.15" fill="none" transform="translate(0,402)"><path d=" M0,0  L1025,0 " transform="translate(-0.5,-0.5)"/></g></g></g><g><g><g role="group" stroke-opacity="0" fill-opacity="1" stroke="#67b7dc" aria-label="Series"><g><g clip-path="url(&quot;#id-133&quot;)"><g><g><g><g stroke-opacity="1" fill="#7cafc7" fill-opacity="1" stroke="#7cafc7" role="menuitem" focusable="true" tabindex="0" transform="translate(0,8.04)"><g><g><path d="M0,0 L128.125,0 a0,0 0 0 1 0,0 L128.125,64.32 a0,0 0 0 1 -0,0 L0,64.32 a0,0 0 0 1 -0,-0 L0,0 a0,0 0 0 1 0,-0 Z"/></g></g></g><g stroke-opacity="1" fill="#92c5dd" fill-opacity="1" stroke="#92c5dd" role="menuitem" focusable="true" tabindex="0" transform="translate(256.25,8.04)"><g><g><path d="M0,0 L192.188,0 a0,0 0 0 1 0,0 L192.188,64.32 a0,0 0 0 1 -0,0 L0,64.32 a0,0 0 0 1 -0,-0 L0,0 a0,0 0 0 1 0,-0 Z"/></g></g></g><g stroke-opacity="1" fill="#a9dcf4" fill-opacity="1" stroke="#a9dcf4" role="menuitem" focusable="true" tabindex="0" transform="translate(480.469,8.04)" id="id-336"><g><g><path d="M0,0 L384.375,0 a0,0 0 0 1 0,0 L384.375,64.32 a0,0 0 0 1 -0,0 L0,64.32 a0,0 0 0 1 -0,-0 L0,0 a0,0 0 0 1 0,-0 Z"/></g></g></g><g stroke-opacity="1" fill="#7c82c7" fill-opacity="1" stroke="#7c82c7" role="menuitem" focusable="true" tabindex="0" transform="translate(64.063,88.44)"><g><g><path d="M0,0 L192.188,0 a0,0 0 0 1 0,0 L192.188,64.32 a0,0 0 0 1 -0,0 L0,64.32 a0,0 0 0 1 -0,-0 L0,0 a0,0 0 0 1 0,-0 Z"/></g></g></g><g stroke-opacity="1" fill="#9298dd" fill-opacity="1" stroke="#9298dd" role="menuitem" focusable="true" tabindex="0" transform="translate(320.313,88.44)"><g><g><path d="M0,0 L256.25,0 a0,0 0 0 1 0,0 L256.25,64.32 a0,0 0 0 1 -0,0 L0,64.32 a0,0 0 0 1 -0,-0 L0,0 a0,0 0 0 1 0,-0 Z"/></g></g></g><g stroke-opacity="1" fill="#a37cc7" fill-opacity="1" stroke="#a37cc7" role="menuitem" focusable="true" tabindex="0" transform="translate(192.188,168.84)"><g><g><path d="M0,0 L320.313,0 a0,0 0 0 1 0,0 L320.313,64.32 a0,0 0 0 1 -0,0 L0,64.32 a0,0 0 0 1 -0,-0 L0,0 a0,0 0 0 1 0,-0 Z"/></g></g></g><g stroke-opacity="1" fill="#b992dd" fill-opacity="1" stroke="#b992dd" role="menuitem" focusable="true" tabindex="0" transform="translate(512.5,168.84)"><g><g><path d="M0,0 L192.188,0 a0,0 0 0 1 0,0 L192.188,64.32 a0,0 0 0 1 -0,0 L0,64.32 a0,0 0 0 1 -0,-0 L0,0 a0,0 0 0 1 0,-0 Z"/></g></g></g><g stroke-opacity="1" fill="#c77cbe" fill-opacity="1" stroke="#c77cbe" role="menuitem" focusable="true" tabindex="0" transform="translate(512.5,249.24)"><g><g><path d="M0,0 L256.25,0 a0,0 0 0 1 0,0 L256.25,64.32 a0,0 0 0 1 -0,0 L0,64.32 a0,0 0 0 1 -0,-0 L0,0 a0,0 0 0 1 0,-0 Z"/></g></g></g><g stroke-opacity="1" fill="#dd92d4" fill-opacity="1" stroke="#dd92d4" role="menuitem" focusable="true" tabindex="0" transform="translate(800.781,249.24)"><g><g><path d="M0,0 L224.219,0 a0,0 0 0 1 0,0 L224.219,64.32 a0,0 0 0 1 -0,0 L0,64.32 a0,0 0 0 1 -0,-0 L0,0 a0,0 0 0 1 0,-0 Z"/></g></g></g><g stroke-opacity="1" fill="#c77c91" fill-opacity="1" stroke="#c77c91" role="menuitem" focusable="true" tabindex="0" transform="translate(320.313,329.64)" id="id-399"><g><g><path d="M0,0 L704.688,0 a0,0 0 0 1 0,0 L704.688,64.32 a0,0 0 0 1 -0,0 L0,64.32 a0,0 0 0 1 -0,-0 L0,0 a0,0 0 0 1 0,-0 Z"/></g></g></g></g></g></g></g><g/></g></g></g></g><g clip-path="url(&quot;#id-316&quot;)"><g><g fill="#67b7dc" stroke="#67b7dc"><g/></g></g></g><g><g><g><g/></g><g><g/></g></g></g><g><g/></g><g><g/></g><g role="button" focusable="true" tabindex="0" opacity="0" visibility="hidden" aria-hidden="true" transform="translate(985,-3)" aria-labelledby="id-37-title"><g fill="#6794dc" stroke="#ffffff" fill-opacity="1" stroke-opacity="0" transform="translate(0,8)"><path d="M17,0 L18,0 a17,17 0 0 1 17,17 L35,17 a17,17 0 0 1 -17,17 L17,34 a17,17 0 0 1 -17,-17 L0,17 a17,17 0 0 1 17,-17 Z"/></g><g transform="translate(9,9)"><g stroke="#ffffff" style="pointer-events: none;" transform="translate(0,8)"><path d=" M0,0  L11,0 " transform="translate(2.5,7.5)"/></g><g fill="#000000" style="pointer-events: none;" transform="translate(17,8)"><g display="none"/></g></g><title id="id-37-title">Zoom Out</title></g></g></g><g><g><g aria-hidden="true"><g><g fill="#000000" transform="translate(0,201) rotate(-90)"><g display="none"/></g><g stroke="#000000" stroke-opacity="0.15" fill="none" display="none" transform="translate(66,402)" opacity="0" visibility="hidden" aria-hidden="true"><path transform="translate(-0.5,-0.5)" d=" M0,0  L1025,0 "/></g><g transform="translate(0,0)"><g><g fill="#000000" aria-label="L" fill-opacity="0" opacity="0" stroke-opacity="0" style="pointer-events: none;" transform="translate(66,201)"><g transform="translate(-56,-8)" style="user-select: none;"><text x="0" y="16.015625" dy="-4.324"><tspan>Melania</tspan></text></g></g><g fill="#000000" transform="translate(66,40.2)"><g transform="translate(-39,-8)" style="user-select: none;"><text x="0" y="16" dy="-4.32"><tspan>John</tspan></text></g></g><g fill="#000000" transform="translate(66,120.6)"><g transform="translate(-39,-8)" style="user-select: none;"><text x="0" y="16" dy="-4.32"><tspan>Jane</tspan></text></g></g><g fill="#000000" transform="translate(66,201)"><g transform="translate(-41,-8)" style="user-select: none;"><text x="0" y="16" dy="-4.32"><tspan>Peter</tspan></text></g></g><g fill="#000000" transform="translate(66,281.4)"><g transform="translate(-56,-8)" style="user-select: none;"><text x="0" y="16" dy="-4.32"><tspan>Melania</tspan></text></g></g><g fill="#000000" transform="translate(66,361.8)"><g transform="translate(-52,-8)" style="user-select: none;"><text x="0" y="16" dy="-4.32"><tspan>Donald</tspan></text></g></g><g fill="#000000" display="none" transform="translate(66,442.2)"><g transform="translate(-10,0)" display="none"/></g></g></g><g stroke="#000000" stroke-opacity="0" fill="none" style="pointer-events: none;" transform="translate(66,0)"><path d=" M0,0  L0,402 " transform="translate(-0.5,-0.5)"/></g></g></g></g></g><g transform="translate(1091,0)"><g/></g></g></g><g transform="translate(0,434)"><g transform="translate(66,0)"><g aria-hidden="true"><g><g stroke="#000000" stroke-opacity="0" fill="none" style="pointer-events: none;"><path d=" M0,0  L1025,0 " transform="translate(-0.5,-0.5)"/></g><g><g><g fill="#000000" aria-label="L" fill-opacity="0" opacity="0" stroke-opacity="0" style="pointer-events: none;"><g transform="translate(-4,10)" style="user-select: none;"><text x="0" y="16.015625" dy="-4.324"><tspan>L</tspan></text></g></g><g fill="#000000" display="none"><g transform="translate(-18.5,10)" style="user-select: none;"><text x="0" y="16.015625" dy="-4.324"><tspan>08:00</tspan></text></g></g><g fill="#000000" transform="translate(64.063,0)"><g transform="translate(-18.5,10)" style="user-select: none;"><text x="0" y="16.015625" dy="-4.324"><tspan>09:00</tspan></text></g></g><g fill="#000000" transform="translate(128.125,0)" display="none"><g transform="translate(-17.5,10)" style="user-select: none;"><text x="0" y="16.015625" dy="-4.324"><tspan>10:00</tspan></text></g></g><g fill="#000000" transform="translate(192.188,0)" display="none"><g transform="translate(-16.5,10)" style="user-select: none;"><text x="0" y="16.015625" dy="-4.324"><tspan>11:00</tspan></text></g></g><g fill="#000000" transform="translate(256.25,0)"><g transform="translate(-17.5,10)" style="user-select: none;"><text x="0" y="16.015625" dy="-4.324"><tspan>12:00</tspan></text></g></g><g fill="#000000" transform="translate(320.313,0)" display="none"><g transform="translate(-17.5,10)" style="user-select: none;"><text x="0" y="16.015625" dy="-4.324"><tspan>13:00</tspan></text></g></g><g fill="#000000" transform="translate(384.375,0)" display="none"><g transform="translate(-17.5,10)" style="user-select: none;"><text x="0" y="16.015625" dy="-4.324"><tspan>14:00</tspan></text></g></g><g fill="#000000" transform="translate(448.438,0)"><g transform="translate(-17.5,10)" style="user-select: none;"><text x="0" y="16.015625" dy="-4.324"><tspan>15:00</tspan></text></g></g><g fill="#000000" transform="translate(512.5,0)" display="none"><g transform="translate(-17.5,10)" style="user-select: none;"><text x="0" y="16.015625" dy="-4.324"><tspan>16:00</tspan></text></g></g><g fill="#000000" transform="translate(576.563,0)" display="none"><g transform="translate(-17,10)" style="user-select: none;"><text x="0" y="16.015625" dy="-4.324"><tspan>17:00</tspan></text></g></g><g fill="#000000" transform="translate(640.625,0)"><g transform="translate(-17.5,10)" style="user-select: none;"><text x="0" y="16.015625" dy="-4.324"><tspan>18:00</tspan></text></g></g><g fill="#000000" transform="translate(704.688,0)" display="none"><g transform="translate(-17.5,10)" style="user-select: none;"><text x="0" y="16.015625" dy="-4.324"><tspan>19:00</tspan></text></g></g><g fill="#000000" transform="translate(768.75,0)" display="none"><g transform="translate(-18.5,10)" style="user-select: none;"><text x="0" y="16.015625" dy="-4.324"><tspan>20:00</tspan></text></g></g><g fill="#000000" transform="translate(832.813,0)"><g transform="translate(-17.5,10)" style="user-select: none;"><text x="0" y="16.015625" dy="-4.324"><tspan>21:00</tspan></text></g></g><g fill="#000000" transform="translate(896.875,0)" display="none"><g transform="translate(-18,10)" style="user-select: none;"><text x="0" y="16.015625" dy="-4.324"><tspan>22:00</tspan></text></g></g><g fill="#000000" transform="translate(1217.188,0)" display="none"><g transform="translate(-18.5,10)" style="user-select: none;"><text x="0" y="16.015625" dy="-4.324"><tspan>03:00</tspan></text></g></g><g fill="#000000" transform="translate(1025,0)"><g transform="translate(-20.5,10)" style="user-select: none;"><text x="0" y="16.015625" dy="-4.324"><tspan>Jan 02</tspan></text></g></g><g fill="#000000" transform="translate(-128.125,0)" display="none"><g transform="translate(-18.5,10)" style="user-select: none;"><text x="0" y="16.015625" dy="-4.324"><tspan>06:00</tspan></text></g></g></g></g><g stroke="#000000" stroke-opacity="0.15" fill="none" display="none" transform="translate(0,-402)"><path transform="translate(-0.5,-0.5)" d=" M0,0  L0,402 "/></g><g fill="#000000" transform="translate(512.5,36)"><g display="none"/></g></g></g></g></g></g></g></g></g></g></g><g><g><g role="tooltip" visibility="hidden" opacity="0"><g fill="#ffffff" fill-opacity="0.9" stroke-width="1" stroke-opacity="1" stroke="#ffffff" filter="url(&quot;#filter-id-51&quot;)" style="pointer-events: none;" transform="translate(0,6)"><path d="M3,0 L3,0 L0,-6 L13,0 L21,0 a3,3 0 0 1 3,3 L24,8 a3,3 0 0 1 -3,3 L3,11 a3,3 0 0 1 -3,-3 L0,3 a3,3 0 0 1 3,-3"/></g><g><g fill="#ffffff" style="pointer-events: none;" transform="translate(12,6)"><g transform="translate(0,7)" display="none"/></g></g></g><g visibility="hidden" display="none" style="pointer-events: none;"><g fill="#ffffff" opacity="1"><rect width="1136" height="500"/></g><g><g transform="translate(568,250)"><g><g stroke-opacity="1" fill="#f3f3f3" fill-opacity="0.8"><g><g><path d=" M53,0  a53,53,0,0,1,-106,0 a53,53,0,0,1,106,0 M42,0  a42,42,0,0,0,-84,0 a42,42,0,0,0,84,0 L42,0 "/></g></g></g><g stroke-opacity="1" fill="#000000" fill-opacity="0.2"><g><g><path d=" M50,0  a50,50,0,0,1,-100,0 a50,50,0,0,1,100,0 M45,0  a45,45,0,0,0,-90,0 a45,45,0,0,0,90,0 L45,0 "/></g></g></g><g fill="#000000" fill-opacity="0.4"><g transform="translate(-17,-8)" style="user-select: none;"><text x="17px" y="16" dy="-4.32" text-anchor="middle"><tspan>100%</tspan></text></g></g></g></g></g></g><g opacity="0.3" aria-labelledby="id-66-title" filter="url(&quot;#filter-id-66&quot;)" style="cursor: pointer;" transform="translate(0,479)"><g fill="#ffffff" opacity="0"><rect width="66" height="21"/></g><g><g shape-rendering="auto" fill="none" stroke-opacity="1" stroke-width="1.7999999999999998" stroke="#3cabff"><path d=" M15,15  C17.4001,15 22.7998,15.0001 27,15 C31.2002,14.9999 33.2999,6 36,6 C38.7001,6 38.6999,10.5 40.5,10.5 C42.3001,10.5 42.2999,6 45,6 C47.7001,6 50.9999,14.9999 54,15 C57.0002,15.0001 58.7999,15 60,15"/></g><g shape-rendering="auto" fill="none" stroke-opacity="1" stroke-width="1.7999999999999998" stroke="url(&quot;#gradient-id-69&quot;)"><path d=" M6,15  C8.2501,15 9.7498,15.0001 15,15 C20.2502,14.9999 20.7748,3.6 27,3.6 C33.2252,3.6 33.8998,14.9999 39.9,15 C45.9002,15.0001 45.9748,15 51,15 C56.0252,15 57.7499,15 60,15"/></g></g><title id="id-66-title">Chart created using amCharts library</title></g><g role="tooltip" visibility="hidden" opacity="0"><g fill="#000000" fill-opacity="1" stroke-width="1" stroke-opacity="1" stroke="#000000" style="pointer-events: none;" transform="translate(-25,47)"><path d="M0,0 L20,0 a0,0 0 0 1 0,0 L20,0 L20,0 L25,0 L20,10 L20,10 a0,0 0 0 1 -0,0 L0,10 a0,0 0 0 1 -0,-0 L0,0 a0,0 0 0 1 0,-0"/></g><g><g fill="#ffffff" style="pointer-events: none;" transform="translate(-15,47)"><g transform="translate(0,5)" display="none"/></g></g></g><g role="tooltip" visibility="hidden" opacity="0"><g fill="#000000" fill-opacity="1" stroke-width="1" stroke-opacity="1" stroke="#000000" style="pointer-events: none;" transform="translate(81,449)"><path d="M0,0 L20,0 a0,0 0 0 1 0,0 L20,10 a0,0 0 0 1 -0,0 L0,10 a0,0 0 0 1 -0,-0 L0,0 a0,0 0 0 1 0,-0"/></g><g><g fill="#ffffff" style="pointer-events: none;" transform="translate(91,449)"><g transform="translate(0,5)" display="none"/></g></g></g><g role="tooltip" opacity="0" aria-describedby="id-336" transform="translate(753.6565,87.2)" aria-hidden="true" visibility="hidden"><g fill="#a9dcf4" fill-opacity="0.9" stroke-width="1" stroke-opacity="1" stroke="#ffffff" filter="url(&quot;#filter-id-138&quot;)" style="pointer-events: none;" transform="translate(-295,-13.5)"><path d="M3,0 L286,0 a3,3 0 0 1 3,3 L289,3 L289,8.5 L295,13.5 L289,18.5 L289,24 a3,3 0 0 1 -3,3 L3,27 a3,3 0 0 1 -3,-3 L0,3 a3,3 0 0 1 3,-3"/></g><g><g fill="#000000" style="pointer-events: none;" transform="translate(-150.5,-13.5)"><g transform="translate(-132.5,7)" style="user-select: none;"><text x="0" y="16.015625" dy="-4.324"><tspan>John: 2018-01-01 15:30 - 2018-01-01 21:30</tspan></text></g></g></g></g></g></g></g></g></svg>