<svg version="1.1" xmlns="http://www.w3.org/2000/svg" xmlns:xlink="http://www.w3.org/1999/xlink" role="group" style="width: 100%; height: 100%; overflow: visible;"><defs><clipPath id="id-46"><rect width="1136" height="500"/></clipPath><linearGradient id="gradient-id-69" x1="1%" x2="99%" y1="59%" y2="41%"><stop stop-color="#474758" offset="0"/><stop stop-color="#474758" stop-opacity="1" offset="0.75"/><stop stop-color="#3cabff" stop-opacity="1" offset="0.755"/></linearGradient><filter id="filter-id-78" filterUnits="objectBoundingBox" width="200%" height="200%" x="-50%" y="-50%"/><filter id="filter-id-99" filterUnits="objectBoundingBox" width="200%" height="200%" x="-50%" y="-50%"/><clipPath id="id-133"><path d="M0,0 L1007,0 L1007,402 L0,402 L0,0"/></clipPath><clipPath id="id-266"><rect width="1007" height="402"/></clipPath><filter id="filter-id-51" filterUnits="objectBoundingBox" width="200%" height="200%" x="-50%" y="-50%"><feGaussianBlur result="blurOut" in="SourceGraphic" stdDeviation="1.5"/><feOffset result="offsetBlur" dx="1" dy="1"/><feFlood flood-color="#000000" flood-opacity="0.5"/><feComposite in2="offsetBlur" operator="in"/><feMerge><feMergeNode/><feMergeNode in="SourceGraphic"/></feMerge></filter><filter id="filter-id-66" filterUnits="objectBoundingBox" width="120%" height="120%" x="-10%" y="-10%"><feColorMatrix type="saturate" values="0"/></filter><filter id="filter-id-138" filterUnits="objectBoundingBox" width="200%" height="200%" x="-50%" y="-50%"><feGaussianBlur result="blurOut" in="SourceGraphic" stdDeviation="1.5"/><feOffset result="offsetBlur" dx="1" dy="1"/><feFlood flood-color="#000000" flood-opacity="0.5"/><feComposite in2="offsetBlur" operator="in"/><feMerge><feMergeNode/><feMergeNode in="SourceGraphic"/></feMerge></filter></defs><g><g fill="#ffffff" fill-opacity="0"><rect width="1136" height="500"/></g><g><g role="region" clip-path="url(&quot;#id-46&quot;)" opacity="1" aria-label="Chart" id="id-22"><g transform="translate(15,15)"><g><g><g><g><g transform="translate(0,32)"><g><g transform="translate(84,0)"><g fill="#ffffff" fill-opacity="0"><rect width="1007" height="402"/></g><g><g><g><g stroke="#000000" stroke-opacity="0.15" fill="none"><path d=" M0,0  L0,402 " transform="translate(-0.5,-0.5)"/></g><g stroke="#000000" stroke-opacity="0.15" fill="none" transform="translate(230,0)"><path d=" M0,0  L0,402 " transform="translate(-0.5,-0.5)"/></g><g stroke="#000000" stroke-opacity="0.15" fill="none" transform="translate(444,0)"><path d=" M0,0  L0,402 " transform="translate(-0.5,-0.5)"/></g><g stroke="#000000" stroke-opacity="0.15" fill="none" transform="translate(674,0)"><path d=" M0,0  L0,402 " transform="translate(-0.5,-0.5)"/></g><g stroke="#000000" stroke-opacity="0.15" fill="none" transform="translate(896,0)"><path d=" M0,0  L0,402 " transform="translate(-0.5,-0.5)"/></g><g stroke="#000000" stroke-opacity="0.15" fill="none" transform="translate(1126,0)" display="none"><path d=" M0,0  L0,402 " transform="translate(-0.5,-0.5)"/></g></g></g><g><g><g stroke="#000000" stroke-opacity="0.15" fill="none"><path d=" M0,0  L1007,0 " transform="translate(-0.5,-0.5)"/></g><g stroke="#000000" stroke-opacity="0.15" fill="none" transform="translate(0,80)"><path d=" M0,0  L1007,0 " transform="translate(-0.5,-0.5)"/></g><g stroke="#000000" stroke-opacity="0.15" fill="none" transform="translate(0,161)"><path d=" M0,0  L1007,0 " transform="translate(-0.5,-0.5)"/></g><g stroke="#000000" stroke-opacity="0.15" fill="none" transform="translate(0,241)"><path d=" M0,0  L1007,0 " transform="translate(-0.5,-0.5)"/></g><g stroke="#000000" stroke-opacity="0.15" fill="none" transform="translate(0,322)"><path d=" M0,0  L1007,0 " transform="translate(-0.5,-0.5)"/></g><g stroke="#000000" stroke-opacity="0.15" fill="none" transform="translate(0,402)"><path d=" M0,0  L1007,0 " transform="translate(-0.5,-0.5)"/></g></g></g><g><g><g role="group" stroke-opacity="0" fill-opacity="1" stroke="#67b7dc" aria-label="Series"><g><g clip-path="url(&quot;#id-133&quot;)"><g><g><g><g stroke-opacity="1" fill="#7cafc7" fill-opacity="1" stroke="#7cafc7" role="listitem" transform="translate(0,12.06)"><g><g><path d="M0,0 L96.287,0 a0,0 0 0 1 0,0 L96.287,56.28 a0,0 0 0 1 -0,0 L0,56.28 a0,0 0 0 1 -0,-0 L0,0 a0,0 0 0 1 0,-0 Z"/></g></g></g><g stroke-opacity="1" fill="#92c5dd" fill-opacity="1" stroke="#92c5dd" role="listitem" transform="translate(111.1,12.06)"><g><g><path d="M0,0 L81.473,0 a0,0 0 0 1 0,0 L81.473,56.28 a0,0 0 0 1 -0,0 L0,56.28 a0,0 0 0 1 -0,-0 L0,0 a0,0 0 0 1 0,-0 Z"/></g></g></g><g stroke-opacity="1" fill="#a9dcf4" fill-opacity="1" stroke="#a9dcf4" role="listitem" transform="translate(259.234,12.06)" id="id-286"><g><g><path d="M0,0 L540.379,0 a0,0 0 0 1 0,0 L540.379,56.28 a0,0 0 0 1 -0,0 L0,56.28 a0,0 0 0 1 -0,-0 L0,0 a0,0 0 0 1 0,-0 Z"/></g></g></g><g stroke-opacity="1" fill="#bff2ff" fill-opacity="1" stroke="#bff2ff" role="listitem" transform="translate(799.613,12.06)"><g><g><path d="M0,0 L88.88,0 a0,0 0 0 1 0,0 L88.88,56.28 a0,0 0 0 1 -0,0 L0,56.28 a0,0 0 0 1 -0,-0 L0,0 a0,0 0 0 1 0,-0 Z"/></g></g></g><g stroke-opacity="1" fill="#7c82c7" fill-opacity="1" stroke="#7c82c7" role="listitem" transform="translate(51.847,92.46)"><g><g><path d="M0,0 L14.813,0 a0,0 0 0 1 0,0 L14.813,56.28 a0,0 0 0 1 -0,0 L0,56.28 a0,0 0 0 1 -0,-0 L0,0 a0,0 0 0 1 0,-0 Z"/></g></g></g><g stroke-opacity="1" fill="#9298dd" fill-opacity="1" stroke="#9298dd" role="listitem" transform="translate(81.473,92.46)"><g><g><path d="M0,0 L22.22,0 a0,0 0 0 1 0,0 L22.22,56.28 a0,0 0 0 1 -0,0 L0,56.28 a0,0 0 0 1 -0,-0 L0,0 a0,0 0 0 1 0,-0 Z"/></g></g></g><g stroke-opacity="1" fill="#a9aff4" fill-opacity="1" stroke="#a9aff4" role="listitem" transform="translate(111.1,92.46)"><g><g><path d="M0,0 L148.134,0 a0,0 0 0 1 0,0 L148.134,56.28 a0,0 0 0 1 -0,0 L0,56.28 a0,0 0 0 1 -0,-0 L0,0 a0,0 0 0 1 0,-0 Z"/></g></g></g><g stroke-opacity="1" fill="#bfc5ff" fill-opacity="1" stroke="#bfc5ff" role="listitem" transform="translate(296.267,92.46)"><g><g><path d="M0,0 L59.253,0 a0,0 0 0 1 0,0 L59.253,56.28 a0,0 0 0 1 -0,0 L0,56.28 a0,0 0 0 1 -0,-0 L0,0 a0,0 0 0 1 0,-0 Z"/></g></g></g><g stroke-opacity="1" fill="#a37cc7" fill-opacity="1" stroke="#a37cc7" role="listitem" transform="translate(7.407,172.86)"><g><g><path d="M0,0 L44.44,0 a0,0 0 0 1 0,0 L44.44,56.28 a0,0 0 0 1 -0,0 L0,56.28 a0,0 0 0 1 -0,-0 L0,0 a0,0 0 0 1 0,-0 Z"/></g></g></g><g stroke-opacity="1" fill="#b992dd" fill-opacity="1" stroke="#b992dd" role="listitem" transform="translate(51.847,172.86)"><g><g><path d="M0,0 L59.253,0 a0,0 0 0 1 0,0 L59.253,56.28 a0,0 0 0 1 -0,0 L0,56.28 a0,0 0 0 1 -0,-0 L0,0 a0,0 0 0 1 0,-0 Z"/></g></g></g><g stroke-opacity="1" fill="#d0a9f4" fill-opacity="1" stroke="#d0a9f4" role="listitem" transform="translate(133.32,172.86)" id="id-358"><g><g><path d="M0,0 L311.081,0 a0,0 0 0 1 0,0 L311.081,56.28 a0,0 0 0 1 -0,0 L0,56.28 a0,0 0 0 1 -0,-0 L0,0 a0,0 0 0 1 0,-0 Z"/></g></g></g><g stroke-opacity="1" fill="#e6bfff" fill-opacity="1" stroke="#e6bfff" role="listitem" transform="translate(525.874,172.86)" id="id-367"><g><g><path d="M0,0 L177.452,0 a0,0 0 0 1 0,0 L177.452,56.28 a0,0 0 0 1 -0,0 L0,56.28 a0,0 0 0 1 -0,-0 L0,0 a0,0 0 0 1 0,-0 Z"/></g></g></g><g stroke-opacity="1" fill="#c77cbe" fill-opacity="1" stroke="#c77cbe" role="listitem" transform="translate(0,253.26)"><g><g><path d="M0,0 L133.32,0 a0,0 0 0 1 0,0 L133.32,56.28 a0,0 0 0 1 -0,0 L0,56.28 a0,0 0 0 1 -0,-0 L0,0 a0,0 0 0 1 0,-0 Z"/></g></g></g><g stroke-opacity="1" fill="#dd92d4" fill-opacity="1" stroke="#dd92d4" role="listitem" transform="translate(133.32,253.26)"><g><g><path d="M0,0 L111.1,0 a0,0 0 0 1 0,0 L111.1,56.28 a0,0 0 0 1 -0,0 L0,56.28 a0,0 0 0 1 -0,-0 L0,0 a0,0 0 0 1 0,-0 Z"/></g></g></g><g stroke-opacity="1" fill="#f4a9eb" fill-opacity="1" stroke="#f4a9eb" role="listitem" transform="translate(584.819,253.26)"><g><g><path d="M0,0 L266.641,0 a0,0 0 0 1 0,0 L266.641,56.28 a0,0 0 0 1 -0,0 L0,56.28 a0,0 0 0 1 -0,-0 L0,0 a0,0 0 0 1 0,-0 Z"/></g></g></g><g stroke-opacity="1" fill="#ffbfff" fill-opacity="1" stroke="#ffbfff" role="listitem" transform="translate(866.273,253.26)"><g><g><path d="M0,0 L133.32,0 a0,0 0 0 1 0,0 L133.32,56.28 a0,0 0 0 1 -0,0 L0,56.28 a0,0 0 0 1 -0,-0 L0,0 a0,0 0 0 1 0,-0 Z"/></g></g></g><g stroke-opacity="1" fill="#c77c91" fill-opacity="1" stroke="#c77c91" role="listitem" transform="translate(0,333.66)"><g><g><path d="M0,0 L81.473,0 a0,0 0 0 1 0,0 L81.473,56.28 a0,0 0 0 1 -0,0 L0,56.28 a0,0 0 0 1 -0,-0 L0,0 a0,0 0 0 1 0,-0 Z"/></g></g></g><g stroke-opacity="1" fill="#dd92a7" fill-opacity="1" stroke="#dd92a7" role="listitem" transform="translate(81.473,333.66)"><g><g><path d="M0,0 L51.847,0 a0,0 0 0 1 0,0 L51.847,56.28 a0,0 0 0 1 -0,0 L0,56.28 a0,0 0 0 1 -0,-0 L0,0 a0,0 0 0 1 0,-0 Z"/></g></g></g><g stroke-opacity="1" fill="#f4a9be" fill-opacity="1" stroke="#f4a9be" role="listitem" transform="translate(133.32,333.66)"><g><g><path d="M0,0 L311.081,0 a0,0 0 0 1 0,0 L311.081,56.28 a0,0 0 0 1 -0,0 L0,56.28 a0,0 0 0 1 -0,-0 L0,0 a0,0 0 0 1 0,-0 Z"/></g></g></g><g stroke-opacity="1" fill="#ffbfd4" fill-opacity="1" stroke="#ffbfd4" role="listitem" transform="translate(496.248,333.66)"><g><g><path d="M0,0 L162.638,0 a0,0 0 0 1 0,0 L162.638,56.28 a0,0 0 0 1 -0,0 L0,56.28 a0,0 0 0 1 -0,-0 L0,0 a0,0 0 0 1 0,-0 Z"/></g></g></g></g></g></g></g><g/></g></g></g></g><g clip-path="url(&quot;#id-266&quot;)"><g><g fill="#67b7dc" stroke="#67b7dc"><g/></g></g></g><g><g><g><g/></g><g><g/></g></g></g><g><g/></g><g><g/></g><g role="button" focusable="true" tabindex="0" opacity="0" visibility="hidden" aria-hidden="true" transform="translate(967,-3)" aria-labelledby="id-37-title"><g fill="#6794dc" stroke="#ffffff" fill-opacity="1" stroke-opacity="0" transform="translate(0,8)"><path d="M17,0 L18,0 a17,17 0 0 1 17,17 L35,17 a17,17 0 0 1 -17,17 L17,34 a17,17 0 0 1 -17,-17 L0,17 a17,17 0 0 1 17,-17 Z"/></g><g transform="translate(9,9)"><g stroke="#ffffff" style="pointer-events: none;" transform="translate(0,8)"><path d=" M0,0  L11,0 " transform="translate(2.5,7.5)"/></g><g fill="#000000" style="pointer-events: none;" transform="translate(17,8)"><g display="none"/></g></g><title id="id-37-title">Zoom Out</title></g></g></g><g><g><g aria-hidden="true"><g><g fill="#000000" transform="translate(0,201) rotate(-90)"><g display="none"/></g><g stroke="#000000" stroke-opacity="0.15" fill="none" display="none" transform="translate(84,402)" opacity="0" visibility="hidden" aria-hidden="true"><path transform="translate(-0.5,-0.5)" d=" M0,0  L1007,0 "/></g><g transform="translate(0,0)"><g><g fill="#000000" aria-label="L" fill-opacity="0" opacity="0" stroke-opacity="0" style="pointer-events: none;" transform="translate(84,201)"><g transform="translate(-74,-8)" style="user-select: none;"><text x="0" y="16.015625" dy="-4.324"><tspan>Module #5</tspan></text></g></g><g fill="#000000" transform="translate(84,40.2)"><g transform="translate(-72,-8)" style="user-select: none;"><text x="0" y="16" dy="-4.32"><tspan>Module #1</tspan></text></g></g><g fill="#000000" transform="translate(84,120.6)"><g transform="translate(-73,-8)" style="user-select: none;"><text x="0" y="16" dy="-4.32"><tspan>Module #2</tspan></text></g></g><g fill="#000000" transform="translate(84,201)"><g transform="translate(-74,-8)" style="user-select: none;"><text x="0" y="16" dy="-4.32"><tspan>Module #3</tspan></text></g></g><g fill="#000000" transform="translate(84,281.4)"><g transform="translate(-74,-8)" style="user-select: none;"><text x="0" y="16" dy="-4.32"><tspan>Module #4</tspan></text></g></g><g fill="#000000" transform="translate(84,361.8)"><g transform="translate(-74,-8)" style="user-select: none;"><text x="0" y="16" dy="-4.32"><tspan>Module #5</tspan></text></g></g><g fill="#000000" display="none" transform="translate(84,442.2)"><g transform="translate(-10,0)" display="none"/></g></g></g><g stroke="#000000" stroke-opacity="0" fill="none" style="pointer-events: none;" transform="translate(84,0)"><path d=" M0,0  L0,402 " transform="translate(-0.5,-0.5)"/></g></g></g></g></g><g transform="translate(1091,0)"><g/></g></g></g><g transform="translate(0,434)"><g transform="translate(84,0)"><g aria-hidden="true"><g><g stroke="#000000" stroke-opacity="0" fill="none" style="pointer-events: none;"><path d=" M0,0  L1007,0 " transform="translate(-0.5,-0.5)"/></g><g><g><g fill="#000000" aria-label="L" fill-opacity="0" opacity="0" stroke-opacity="0" style="pointer-events: none;"><g transform="translate(-4,10)" style="user-select: none;"><text x="0" y="16.015625" dy="-4.324"><tspan>L</tspan></text></g></g><g fill="#000000" transform="translate(114.804,0)"><g transform="translate(-27.5,10)" style="user-select: none;"><text x="0" y="16" dy="-4.32"><tspan>Jan 2016</tspan></text></g></g><g fill="#000000" transform="translate(337.004,0)"><g transform="translate(-11,10)" style="user-select: none;"><text x="0" y="16" dy="-4.32"><tspan>Feb</tspan></text></g></g><g fill="#000000" transform="translate(559.05,0)"><g transform="translate(-11.5,10)" style="user-select: none;"><text x="0" y="16" dy="-4.32"><tspan>Mar</tspan></text></g></g><g fill="#000000" transform="translate(784.8,0)"><g transform="translate(-10.5,10)" style="user-select: none;"><text x="0" y="16" dy="-4.32"><tspan>Apr</tspan></text></g></g><g fill="#000000" transform="translate(1010.703,0)" display="none"><g transform="translate(-12.5,10)" style="user-select: none;"><text x="0" y="16.015625" dy="-4.324"><tspan>May</tspan></text></g></g><g fill="#000000" transform="translate(1236.607,0)" display="none"><g transform="translate(-11,10)" style="user-select: none;"><text x="0" y="16.015625" dy="-4.324"><tspan>Jun</tspan></text></g></g></g></g><g stroke="#000000" stroke-opacity="0.15" fill="none" display="none" transform="translate(0,-402)"><path transform="translate(-0.5,-0.5)" d=" M0,0  L0,402 "/></g><g fill="#000000" transform="translate(503.5,36)"><g display="none"/></g></g></g></g></g></g></g></g></g></g></g><g><g><g role="tooltip" visibility="hidden" opacity="0"><g fill="#ffffff" fill-opacity="0.9" stroke-width="1" stroke-opacity="1" stroke="#ffffff" filter="url(&quot;#filter-id-51&quot;)" style="pointer-events: none;" transform="translate(0,6)"><path d="M3,0 L3,0 L0,-6 L13,0 L21,0 a3,3 0 0 1 3,3 L24,8 a3,3 0 0 1 -3,3 L3,11 a3,3 0 0 1 -3,-3 L0,3 a3,3 0 0 1 3,-3"/></g><g><g fill="#ffffff" style="pointer-events: none;" transform="translate(12,6)"><g transform="translate(0,7)" display="none"/></g></g></g><g visibility="hidden" display="none" style="pointer-events: none;"><g fill="#ffffff" opacity="1"><rect width="1136" height="500"/></g><g><g transform="translate(568,250)"><g><g stroke-opacity="1" fill="#f3f3f3" fill-opacity="0.8"><g><g><path d=" M53,0  a53,53,0,0,1,-106,0 a53,53,0,0,1,106,0 M42,0  a42,42,0,0,0,-84,0 a42,42,0,0,0,84,0 L42,0 "/></g></g></g><g stroke-opacity="1" fill="#000000" fill-opacity="0.2"><g><g><path d=" M50,0  a50,50,0,0,1,-100,0 a50,50,0,0,1,100,0 M45,0  a45,45,0,0,0,-90,0 a45,45,0,0,0,90,0 L45,0 "/></g></g></g><g fill="#000000" fill-opacity="0.4"><g transform="translate(-17,-8)" style="user-select: none;"><text x="17px" y="16" dy="-4.32" text-anchor="middle"><tspan>100%</tspan></text></g></g></g></g></g></g><g opacity="0.3" aria-labelledby="id-66-title" filter="url(&quot;#filter-id-66&quot;)" style="cursor: pointer;" transform="translate(0,479)"><g fill="#ffffff" opacity="0"><rect width="66" height="21"/></g><g><g shape-rendering="auto" fill="none" stroke-opacity="1" stroke-width="1.7999999999999998" stroke="#3cabff"><path d=" M15,15  C17.4001,15 22.7998,15.0001 27,15 C31.2002,14.9999 33.2999,6 36,6 C38.7001,6 38.6999,10.5 40.5,10.5 C42.3001,10.5 42.2999,6 45,6 C47.7001,6 50.9999,14.9999 54,15 C57.0002,15.0001 58.7999,15 60,15"/></g><g shape-rendering="auto" fill="none" stroke-opacity="1" stroke-width="1.7999999999999998" stroke="url(&quot;#gradient-id-69&quot;)"><path d=" M6,15  C8.2501,15 9.7498,15.0001 15,15 C20.2502,14.9999 20.7748,3.6 27,3.6 C33.2252,3.6 33.8998,14.9999 39.9,15 C45.9002,15.0001 45.9748,15 51,15 C56.0252,15 57.7499,15 60,15"/></g></g><title id="id-66-title">Chart created using amCharts library</title></g><g role="tooltip" visibility="hidden" opacity="0"><g fill="#000000" fill-opacity="1" stroke-width="1" stroke-opacity="1" stroke="#000000" style="pointer-events: none;" transform="translate(-25,47)"><path d="M0,0 L20,0 a0,0 0 0 1 0,0 L20,0 L20,0 L25,0 L20,10 L20,10 a0,0 0 0 1 -0,0 L0,10 a0,0 0 0 1 -0,-0 L0,0 a0,0 0 0 1 0,-0"/></g><g><g fill="#ffffff" style="pointer-events: none;" transform="translate(-15,47)"><g transform="translate(0,5)" display="none"/></g></g></g><g role="tooltip" visibility="hidden" opacity="0"><g fill="#000000" fill-opacity="1" stroke-width="1" stroke-opacity="1" stroke="#000000" style="pointer-events: none;" transform="translate(99,449)"><path d="M0,0 L20,0 a0,0 0 0 1 0,0 L20,10 a0,0 0 0 1 -0,0 L0,10 a0,0 0 0 1 -0,-0 L0,0 a0,0 0 0 1 0,-0"/></g><g><g fill="#ffffff" style="pointer-events: none;" transform="translate(109,449)"><g transform="translate(0,5)" display="none"/></g></g></g><g role="tooltip" opacity="0" aria-describedby="id-286" transform="translate(628.4235,87.2)" aria-hidden="true" visibility="hidden"><g fill="#a9dcf4" fill-opacity="0.9" stroke-width="1" stroke-opacity="1" stroke="#ffffff" filter="url(&quot;#filter-id-138&quot;)" style="pointer-events: none;" transform="translate(-285,-13.5)"><path d="M3,0 L276,0 a3,3 0 0 1 3,3 L279,3 L279,8.5 L285,13.5 L279,18.5 L279,24 a3,3 0 0 1 -3,3 L3,27 a3,3 0 0 1 -3,-3 L0,3 a3,3 0 0 1 3,-3"/></g><g><g fill="#000000" style="pointer-events: none;" transform="translate(-145.5,-13.5)"><g transform="translate(-127.5,7)" style="user-select: none;"><text x="0" y="16.015625" dy="-4.324"><tspan>Development: </tspan><tspan style="font-weight:bold">2016-02-05</tspan><tspan> - </tspan><tspan style="font-weight:bold">2016-04-18</tspan></text></g></g></g></g></g></g></g></g></svg>