<svg width="880.7999877929688px" height="770.7999877929688px" viewBox="0 0 880.7999877929688 770.7999877929688" preserveAspectRatio="xMidYMid"><g class="axis vertical" transform="translate(26.234375,0)" display="block"><g class="tick" transform="translate(0,709.9718627929688)" style="opacity: 1;"><line x2="-4" y2="0" stroke="#000000" fill="none"></line><text dy=".32em" x="-8" y="0" font-size="13" style="text-anchor: end;" fill="#000000">0</text></g><g class="tick" transform="translate(0,554.4225599500868)" style="opacity: 1;"><line x2="-4" y2="0" stroke="#000000" fill="none"></line><text dy=".32em" x="-8" y="0" font-size="13" style="text-anchor: end;" fill="#000000">2</text></g><g class="tick" transform="translate(0,398.8732571072049)" style="opacity: 1;"><line x2="-4" y2="0" stroke="#000000" fill="none"></line><text dy=".32em" x="-8" y="0" font-size="13" style="text-anchor: end;" fill="#000000">4</text></g><g class="tick" transform="translate(0,243.32395426432294)" style="opacity: 1;"><line x2="-4" y2="0" stroke="#000000" fill="none"></line><text dy=".32em" x="-8" y="0" font-size="13" style="text-anchor: end;" fill="#000000">6</text></g><g class="tick" transform="translate(0,87.774651421441)" style="opacity: 1;"><line x2="-4" y2="0" stroke="#000000" fill="none"></line><text dy=".32em" x="-8" y="0" font-size="13" style="text-anchor: end;" fill="#000000">8</text></g><path class="domain" d="M0,10H0V709.9718627929688H0" stroke="#000000" fill="none" display="block"></path></g><g class="axis horizontal" transform="translate(0 709.9718627929688 )" display="block"><g class="tick" transform="translate(83.34353019872538,0)" style="opacity: 1;"><line y2="4" x2="0" stroke="#000000" fill="none"></line><text dy="0.71em" y="8" x="0" font-size="13" style="text-anchor: middle;" fill="#000000">1965</text></g><g class="tick" transform="translate(187.6788591123708,0)" style="opacity: 1;"><line y2="4" x2="0" stroke="#000000" fill="none"></line><text dy="0.71em" y="8" x="0" font-size="13" style="text-anchor: middle;" fill="#000000">1970</text></g><g class="tick" transform="translate(292.0141880260162,0)" style="opacity: 1;"><line y2="4" x2="0" stroke="#000000" fill="none"></line><text dy="0.71em" y="8" x="0" font-size="13" style="text-anchor: middle;" fill="#000000">1975</text></g><g class="tick" transform="translate(396.3495169396616,0)" style="opacity: 1;"><line y2="4" x2="0" stroke="#000000" fill="none"></line><text dy="0.71em" y="8" x="0" font-size="13" style="text-anchor: middle;" fill="#000000">1980</text></g><g class="tick" transform="translate(500.684845853307,0)" style="opacity: 1;"><line y2="4" x2="0" stroke="#000000" fill="none"></line><text dy="0.71em" y="8" x="0" font-size="13" style="text-anchor: middle;" fill="#000000">1985</text></g><g class="tick" transform="translate(605.0201747669524,0)" style="opacity: 1;"><line y2="4" x2="0" stroke="#000000" fill="none"></line><text dy="0.71em" y="8" x="0" font-size="13" style="text-anchor: middle;" fill="#000000">1990</text></g><g class="tick" transform="translate(709.3555036805978,0)" style="opacity: 1;"><line y2="4" x2="0" stroke="#000000" fill="none"></line><text dy="0.71em" y="8" x="0" font-size="13" style="text-anchor: middle;" fill="#000000">1995</text></g><g class="tick" transform="translate(813.6908325942433,0)" style="opacity: 1;"><line y2="4" x2="0" stroke="#000000" fill="none"></line><text dy="0.71em" y="8" x="0" font-size="13" style="text-anchor: middle;" fill="#000000">2000</text></g></g><g class="legend-group" transform="translate( 341.3999938964844 746.3937377929688 )" display="block"><g class="legend" transform="translate(0 0)"><path class="marker" d="M5.7625 0 A5.7625 5.7625 0 0 0 5.7625 11.525A5.7625 5.7625 0 0 0 5.7625 0" fill="#f4502a"></path><text font-size="13" text-anchor="start" dy="0.76em" dx="14.525" fill="#000000">Cat1</text></g><g class="legend" transform="translate(52 0)"><path class="marker" d="M5.7625 0 A5.7625 5.7625 0 0 0 5.7625 11.525A5.7625 5.7625 0 0 0 5.7625 0" fill="#f1c227"></path><text font-size="13" text-anchor="start" dy="0.76em" dx="14.525" fill="#000000">Cat2</text></g><g class="legend" transform="translate(104 0)"><path class="marker" d="M5.7625 0 A5.7625 5.7625 0 0 0 5.7625 11.525A5.7625 5.7625 0 0 0 5.7625 0" fill="#008a6d"></path><text font-size="13" text-anchor="start" dy="0.76em" dx="14.525" fill="#000000">Cat3</text></g><g class="legend" transform="translate(156 0)"><path class="marker" d="M5.7625 0 A5.7625 5.7625 0 0 0 5.7625 11.525A5.7625 5.7625 0 0 0 5.7625 0" fill="#00acdb"></path><text font-size="13" text-anchor="start" dy="0.76em" dx="14.525" fill="#000000">Cat4</text></g></g><g class="data-group" opacity="1" transform="translate(36.11735534667969,0)"><line class="domain sub" stroke="#000000" display="block" stroke-width="1" y2="710.9718627929688" y1="710.9718627929688" x2="96.95234742984005" x1="-2.5"></line><rect class="data" fill="#f4502a" opacity="1" height="466.6479085286458" width="23.61308685746001" y="243.32395426432294" ry="0" rx="0" x="0"></rect><rect class="data" fill="#f1c227" opacity="1" height="388.8732571072049" width="23.61308685746001" y="321.09860568576386" ry="0" rx="0" x="23.61308685746001"></rect><rect class="data" fill="#008a6d" opacity="1" height="388.8732571072049" width="23.61308685746001" y="321.09860568576386" ry="0" rx="0" x="47.22617371492002"></rect><rect class="data" fill="#00acdb" opacity="1" height="388.8732571072049" width="23.61308685746001" y="321.09860568576386" ry="0" rx="0" x="70.83926057238003"></rect><text class="data label" font-size="13" fill="#000000" display="none" dy="0.38em" text-anchor="middle" y="230.32395426432294" x="11.806543428730006">6</text><text class="data label" font-size="13" fill="#000000" display="none" dy="0.38em" text-anchor="middle" y="308.09860568576386" x="35.419630286190014">5</text><text class="data label" font-size="13" fill="#000000" display="none" dy="0.38em" text-anchor="middle" y="308.09860568576386" x="59.03271714365003">5</text><text class="data label" font-size="13" fill="#000000" display="none" dy="0.38em" text-anchor="middle" y="308.09860568576386" x="82.64580400111004">5</text></g><g class="data-group" opacity="1" transform="translate(140.4526824951172,0)"><line class="domain sub" stroke="#000000" display="block" stroke-width="1" y2="710.9718627929688" y1="710.9718627929688" x2="96.95234742984005" x1="-2.5"></line><rect class="data" fill="#f4502a" opacity="1" height="622.1972113715277" width="23.61308685746001" y="87.774651421441" ry="0" rx="0" x="0"></rect><rect class="data" fill="#f1c227" opacity="1" height="544.4225599500868" width="23.61308685746001" y="165.54930284288193" ry="0" rx="0" x="23.61308685746001"></rect><rect class="data" fill="#008a6d" opacity="1" height="233.32395426432288" width="23.61308685746001" y="476.64790852864587" ry="0" rx="0" x="47.22617371492002"></rect><rect class="data" fill="#00acdb" opacity="1" height="311.09860568576386" width="23.61308685746001" y="398.8732571072049" ry="0" rx="0" x="70.83926057238003"></rect><text class="data label" font-size="13" fill="#000000" display="none" dy="0.38em" text-anchor="middle" y="74.774651421441" x="11.806543428730006">8</text><text class="data label" font-size="13" fill="#000000" display="none" dy="0.38em" text-anchor="middle" y="152.54930284288193" x="35.419630286190014">7</text><text class="data label" font-size="13" fill="#000000" display="none" dy="0.38em" text-anchor="middle" y="463.64790852864587" x="59.03271714365003">3</text><text class="data label" font-size="13" fill="#000000" display="none" dy="0.38em" text-anchor="middle" y="385.8732571072049" x="82.64580400111004">4</text></g><g class="data-group" opacity="1" transform="translate(244.7880096435547,0)"><line class="domain sub" stroke="#000000" display="block" stroke-width="1" y2="710.9718627929688" y1="710.9718627929688" x2="96.95234742984005" x1="-2.5"></line><rect class="data" fill="#f4502a" opacity="1" height="699.9718627929688" width="23.61308685746001" y="10" ry="0" rx="0" x="0"></rect><rect class="data" fill="#f1c227" opacity="1" height="466.6479085286458" width="23.61308685746001" y="243.32395426432294" ry="0" rx="0" x="23.61308685746001"></rect><rect class="data" fill="#008a6d" opacity="1" height="388.8732571072049" width="23.61308685746001" y="321.09860568576386" ry="0" rx="0" x="47.22617371492002"></rect><rect class="data" fill="#00acdb" opacity="1" height="155.54930284288196" width="23.61308685746001" y="554.4225599500868" ry="0" rx="0" x="70.83926057238003"></rect><text class="data label" font-size="13" fill="#000000" display="none" dy="0.38em" text-anchor="middle" y="-3" x="11.806543428730006">9</text><text class="data label" font-size="13" fill="#000000" display="none" dy="0.38em" text-anchor="middle" y="230.32395426432294" x="35.419630286190014">6</text><text class="data label" font-size="13" fill="#000000" display="none" dy="0.38em" text-anchor="middle" y="308.09860568576386" x="59.03271714365003">5</text><text class="data label" font-size="13" fill="#000000" display="none" dy="0.38em" text-anchor="middle" y="541.4225599500868" x="82.64580400111004">2</text></g><g class="data-group" opacity="1" transform="translate(349.12335205078125,0)"><line class="domain sub" stroke="#000000" display="block" stroke-width="1" y2="710.9718627929688" y1="710.9718627929688" x2="96.95234742984005" x1="-2.5"></line><rect class="data" fill="#f4502a" opacity="1" height="622.1972113715277" width="23.61308685746001" y="87.774651421441" ry="0" rx="0" x="0"></rect><rect class="data" fill="#f1c227" opacity="1" height="622.1972113715277" width="23.61308685746001" y="87.774651421441" ry="0" rx="0" x="23.61308685746001"></rect><rect class="data" fill="#008a6d" opacity="1" height="466.6479085286458" width="23.61308685746001" y="243.32395426432294" ry="0" rx="0" x="47.22617371492002"></rect><rect class="data" fill="#00acdb" opacity="1" height="388.8732571072049" width="23.61308685746001" y="321.09860568576386" ry="0" rx="0" x="70.83926057238003"></rect><text class="data label" font-size="13" fill="#000000" display="none" dy="0.38em" text-anchor="middle" y="74.774651421441" x="11.806543428730006">8</text><text class="data label" font-size="13" fill="#000000" display="none" dy="0.38em" text-anchor="middle" y="74.774651421441" x="35.419630286190014">8</text><text class="data label" font-size="13" fill="#000000" display="none" dy="0.38em" text-anchor="middle" y="230.32395426432294" x="59.03271714365003">6</text><text class="data label" font-size="13" fill="#000000" display="none" dy="0.38em" text-anchor="middle" y="308.09860568576386" x="82.64580400111004">5</text></g><g class="data-group" opacity="1" transform="translate(453.45867919921875,0)"><line class="domain sub" stroke="#000000" display="block" stroke-width="1" y2="710.9718627929688" y1="710.9718627929688" x2="96.95234742984005" x1="-2.5"></line><rect class="data" fill="#f4502a" opacity="1" height="544.4225599500868" width="23.61308685746001" y="165.54930284288193" ry="0" rx="0" x="0"></rect><rect class="data" fill="#f1c227" opacity="1" height="544.4225599500868" width="23.61308685746001" y="165.54930284288193" ry="0" rx="0" x="23.61308685746001"></rect><rect class="data" fill="#008a6d" opacity="1" height="622.1972113715277" width="23.61308685746001" y="87.774651421441" ry="0" rx="0" x="47.22617371492002"></rect><rect class="data" fill="#00acdb" opacity="1" height="466.6479085286458" width="23.61308685746001" y="243.32395426432294" ry="0" rx="0" x="70.83926057238003"></rect><text class="data label" font-size="13" fill="#000000" display="none" dy="0.38em" text-anchor="middle" y="152.54930284288193" x="11.806543428730006">7</text><text class="data label" font-size="13" fill="#000000" display="none" dy="0.38em" text-anchor="middle" y="152.54930284288193" x="35.419630286190014">7</text><text class="data label" font-size="13" fill="#000000" display="none" dy="0.38em" text-anchor="middle" y="74.774651421441" x="59.03271714365003">8</text><text class="data label" font-size="13" fill="#000000" display="none" dy="0.38em" text-anchor="middle" y="230.32395426432294" x="82.64580400111004">6</text></g><g class="data-group" opacity="1" transform="translate(557.7940063476562,0)"><line class="domain sub" stroke="#000000" display="block" stroke-width="1" y2="710.9718627929688" y1="710.9718627929688" x2="96.95234742984005" x1="-2.5"></line><rect class="data" fill="#f4502a" opacity="1" height="544.4225599500868" width="23.61308685746001" y="165.54930284288193" ry="0" rx="0" x="0"></rect><rect class="data" fill="#f1c227" opacity="1" height="544.4225599500868" width="23.61308685746001" y="165.54930284288193" ry="0" rx="0" x="23.61308685746001"></rect><rect class="data" fill="#008a6d" opacity="1" height="699.9718627929688" width="23.61308685746001" y="10" ry="0" rx="0" x="47.22617371492002"></rect><rect class="data" fill="#00acdb" opacity="1" height="544.4225599500868" width="23.61308685746001" y="165.54930284288193" ry="0" rx="0" x="70.83926057238003"></rect><text class="data label" font-size="13" fill="#000000" display="none" dy="0.38em" text-anchor="middle" y="152.54930284288193" x="11.806543428730006">7</text><text class="data label" font-size="13" fill="#000000" display="none" dy="0.38em" text-anchor="middle" y="152.54930284288193" x="35.419630286190014">7</text><text class="data label" font-size="13" fill="#000000" display="none" dy="0.38em" text-anchor="middle" y="-3" x="59.03271714365003">9</text><text class="data label" font-size="13" fill="#000000" display="none" dy="0.38em" text-anchor="middle" y="152.54930284288193" x="82.64580400111004">7</text></g><g class="data-group" opacity="1" transform="translate(662.1293334960938,0)"><line class="domain sub" stroke="#000000" display="block" stroke-width="1" y2="710.9718627929688" y1="710.9718627929688" x2="96.95234742984005" x1="-2.5"></line><rect class="data" fill="#f4502a" opacity="1" height="311.09860568576386" width="23.61308685746001" y="398.8732571072049" ry="0" rx="0" x="0"></rect><rect class="data" fill="#f1c227" opacity="1" height="466.6479085286458" width="23.61308685746001" y="243.32395426432294" ry="0" rx="0" x="23.61308685746001"></rect><rect class="data" fill="#008a6d" opacity="1" height="699.9718627929688" width="23.61308685746001" y="10" ry="0" rx="0" x="47.22617371492002"></rect><rect class="data" fill="#00acdb" opacity="1" height="544.4225599500868" width="23.61308685746001" y="165.54930284288193" ry="0" rx="0" x="70.83926057238003"></rect><text class="data label" font-size="13" fill="#000000" display="none" dy="0.38em" text-anchor="middle" y="385.8732571072049" x="11.806543428730006">4</text><text class="data label" font-size="13" fill="#000000" display="none" dy="0.38em" text-anchor="middle" y="230.32395426432294" x="35.419630286190014">6</text><text class="data label" font-size="13" fill="#000000" display="none" dy="0.38em" text-anchor="middle" y="-3" x="59.03271714365003">9</text><text class="data label" font-size="13" fill="#000000" display="none" dy="0.38em" text-anchor="middle" y="152.54930284288193" x="82.64580400111004">7</text></g><g class="data-group" opacity="1" transform="translate(766.4646606445312,0)"><line class="domain sub" stroke="#000000" display="block" stroke-width="1" y2="710.9718627929688" y1="710.9718627929688" x2="96.95234742984005" x1="-2.5"></line><rect class="data" fill="#f4502a" opacity="1" height="233.32395426432288" width="23.61308685746001" y="476.64790852864587" ry="0" rx="0" x="0"></rect><rect class="data" fill="#f1c227" opacity="1" height="388.8732571072049" width="23.61308685746001" y="321.09860568576386" ry="0" rx="0" x="23.61308685746001"></rect><rect class="data" fill="#008a6d" opacity="1" height="466.6479085286458" width="23.61308685746001" y="243.32395426432294" ry="0" rx="0" x="47.22617371492002"></rect><rect class="data" fill="#00acdb" opacity="1" height="544.4225599500868" width="23.61308685746001" y="165.54930284288193" ry="0" rx="0" x="70.83926057238003"></rect><text class="data label" font-size="13" fill="#000000" display="none" dy="0.38em" text-anchor="middle" y="463.64790852864587" x="11.806543428730006">3</text><text class="data label" font-size="13" fill="#000000" display="none" dy="0.38em" text-anchor="middle" y="308.09860568576386" x="35.419630286190014">5</text><text class="data label" font-size="13" fill="#000000" display="none" dy="0.38em" text-anchor="middle" y="230.32395426432294" x="59.03271714365003">6</text><text class="data label" font-size="13" fill="#000000" display="none" dy="0.38em" text-anchor="middle" y="152.54930284288193" x="82.64580400111004">7</text></g></svg>