<svg width="960" height="500"><g transform="translate(40,20)"><g><g transform="translate(2,0)"><rect x="2" y="339" width="18" height="111" fill="#98abc5"></rect><rect x="21" y="266" width="18" height="184" fill="#8a89a6"></rect><rect x="40" y="362" width="18" height="88" fill="#7b6888"></rect><rect x="59" y="292" width="18" height="158" fill="#6b486b"></rect><rect x="78" y="16" width="18" height="434" fill="#a05d56"></rect><rect x="97" y="89" width="18" height="361" fill="#d0743c"></rect><rect x="116" y="282" width="18" height="168" fill="#ff8c00"></rect></g><g transform="translate(154,0)"><rect x="2" y="367" width="18" height="83" fill="#98abc5"></rect><rect x="21" y="316" width="18" height="134" fill="#8a89a6"></rect><rect x="40" y="392" width="18" height="58" fill="#7b6888"></rect><rect x="59" y="350" width="18" height="100" fill="#6b486b"></rect><rect x="78" y="163" width="18" height="287" fill="#a05d56"></rect><rect x="97" y="219" width="18" height="231" fill="#d0743c"></rect><rect x="116" y="349" width="18" height="101" fill="#ff8c00"></rect></g><g transform="translate(306,0)"><rect x="2" y="401" width="18" height="49" fill="#98abc5"></rect><rect x="21" y="362" width="18" height="88" fill="#8a89a6"></rect><rect x="40" y="407" width="18" height="43" fill="#7b6888"></rect><rect x="59" y="368" width="18" height="82" fill="#6b486b"></rect><rect x="78" y="231" width="18" height="219" fill="#a05d56"></rect><rect x="97" y="241" width="18" height="209" fill="#d0743c"></rect><rect x="116" y="343" width="18" height="107" fill="#ff8c00"></rect></g><g transform="translate(458,0)"><rect x="2" y="403" width="18" height="47" fill="#98abc5"></rect><rect x="21" y="371" width="18" height="79" fill="#8a89a6"></rect><rect x="40" y="412" width="18" height="38" fill="#7b6888"></rect><rect x="59" y="384" width="18" height="66" fill="#6b486b"></rect><rect x="78" y="254" width="18" height="196" fill="#a05d56"></rect><rect x="97" y="256" width="18" height="194" fill="#d0743c"></rect><rect x="116" y="320" width="18" height="130" fill="#ff8c00"></rect></g><g transform="translate(610,0)"><rect x="2" y="413" width="18" height="37" fill="#98abc5"></rect><rect x="21" y="386" width="18" height="64" fill="#8a89a6"></rect><rect x="40" y="420" width="18" height="30" fill="#7b6888"></rect><rect x="59" y="396" width="18" height="54" fill="#6b486b"></rect><rect x="78" y="303" width="18" height="147" fill="#a05d56"></rect><rect x="97" y="317" width="18" height="133" fill="#d0743c"></rect><rect x="116" y="386" width="18" height="64" fill="#ff8c00"></rect></g><g transform="translate(762,0)"><rect x="2" y="420" width="18" height="30" fill="#98abc5"></rect><rect x="21" y="395" width="18" height="55" fill="#8a89a6"></rect><rect x="40" y="422" width="18" height="28" fill="#7b6888"></rect><rect x="59" y="401" width="18" height="49" fill="#6b486b"></rect><rect x="78" y="321" width="18" height="129" fill="#a05d56"></rect><rect x="97" y="310" width="18" height="140" fill="#d0743c"></rect><rect x="116" y="372" width="18" height="78" fill="#ff8c00"></rect></g></g><g class="axis" transform="translate(0,450)" fill="none" font-size="10" font-family="sans-serif" text-anchor="middle"><path class="domain" stroke="#000" d="M0.5,6V0.5H900.5V6"></path><g class="tick" opacity="1" transform="translate(70.5,0)"><line stroke="#000" y2="6"></line><text fill="#000" y="9" dy="0.71em">CA</text></g><g class="tick" opacity="1" transform="translate(222.5,0)"><line stroke="#000" y2="6"></line><text fill="#000" y="9" dy="0.71em">TX</text></g><g class="tick" opacity="1" transform="translate(374.5,0)"><line stroke="#000" y2="6"></line><text fill="#000" y="9" dy="0.71em">NY</text></g><g class="tick" opacity="1" transform="translate(526.5,0)"><line stroke="#000" y2="6"></line><text fill="#000" y="9" dy="0.71em">FL</text></g><g class="tick" opacity="1" transform="translate(678.5,0)"><line stroke="#000" y2="6"></line><text fill="#000" y="9" dy="0.71em">IL</text></g><g class="tick" opacity="1" transform="translate(830.5,0)"><line stroke="#000" y2="6"></line><text fill="#000" y="9" dy="0.71em">PA</text></g></g><g class="axis" fill="none" font-size="10" font-family="sans-serif" text-anchor="end"><path class="domain" stroke="#000" d="M-6,450.5H0.5V0.5H-6"></path><g class="tick" opacity="1" transform="translate(0,450.5)"><line stroke="#000" x2="-6"></line><text fill="#000" x="-9" dy="0.32em">0M</text></g><g class="tick" opacity="1" transform="translate(0,409.5)"><line stroke="#000" x2="-6"></line><text fill="#000" x="-9" dy="0.32em">1M</text></g><g class="tick" opacity="1" transform="translate(0,368.5)"><line stroke="#000" x2="-6"></line><text fill="#000" x="-9" dy="0.32em">2M</text></g><g class="tick" opacity="1" transform="translate(0,327.5)"><line stroke="#000" x2="-6"></line><text fill="#000" x="-9" dy="0.32em">3M</text></g><g class="tick" opacity="1" transform="translate(0,286.5)"><line stroke="#000" x2="-6"></line><text fill="#000" x="-9" dy="0.32em">4M</text></g><g class="tick" opacity="1" transform="translate(0,245.5)"><line stroke="#000" x2="-6"></line><text fill="#000" x="-9" dy="0.32em">5M</text></g><g class="tick" opacity="1" transform="translate(0,205.5)"><line stroke="#000" x2="-6"></line><text fill="#000" x="-9" dy="0.32em">6M</text></g><g class="tick" opacity="1" transform="translate(0,164.5)"><line stroke="#000" x2="-6"></line><text fill="#000" x="-9" dy="0.32em">7M</text></g><g class="tick" opacity="1" transform="translate(0,123.5)"><line stroke="#000" x2="-6"></line><text fill="#000" x="-9" dy="0.32em">8M</text></g><g class="tick" opacity="1" transform="translate(0,82.5)"><line stroke="#000" x2="-6"></line><text fill="#000" x="-9" dy="0.32em">9M</text></g><g class="tick" opacity="1" transform="translate(0,41.5)"><line stroke="#000" x2="-6"></line><text fill="#000" x="-9" dy="0.32em">10M</text></g><g class="tick" opacity="1" transform="translate(0,0.5)"><line stroke="#000" x2="-6"></line><text fill="#000" x="-9" dy="0.32em">11M</text></g><text x="2" y="0.5" dy="0.32em" fill="#000" font-weight="bold" text-anchor="start">Population</text></g><g font-family="sans-serif" font-size="10" text-anchor="end"><g transform="translate(0,0)"><rect x="881" width="19" height="19" fill="#ff8c00"></rect><text x="876" y="9.5" dy="0.32em">65 Years and Over</text></g><g transform="translate(0,20)"><rect x="881" width="19" height="19" fill="#d0743c"></rect><text x="876" y="9.5" dy="0.32em">45 to 64 Years</text></g><g transform="translate(0,40)"><rect x="881" width="19" height="19" fill="#a05d56"></rect><text x="876" y="9.5" dy="0.32em">25 to 44 Years</text></g><g transform="translate(0,60)"><rect x="881" width="19" height="19" fill="#6b486b"></rect><text x="876" y="9.5" dy="0.32em">18 to 24 Years</text></g><g transform="translate(0,80)"><rect x="881" width="19" height="19" fill="#7b6888"></rect><text x="876" y="9.5" dy="0.32em">14 to 17 Years</text></g><g transform="translate(0,100)"><rect x="881" width="19" height="19" fill="#8a89a6"></rect><text x="876" y="9.5" dy="0.32em">5 to 13 Years</text></g><g transform="translate(0,120)"><rect x="881" width="19" height="19" fill="#98abc5"></rect><text x="876" y="9.5" dy="0.32em">Under 5 Years</text></g></g></g></svg>