<svg width="880.7999877929688px" height="723.2000122070312px" viewBox="0 0 880.7999877929688 723.2000122070312" preserveAspectRatio="xMidYMid"><g class="data-groups"><g class="data-group" transform="translate( 0 10 )"><rect class="data" opacity="1" width="164.11155198766295" height="308.62991387758535" y="0" fill="#f4502a" stroke="#ffffff" stroke-width="2" ry="0" rx="0" x="77.703125"></rect><rect class="data" opacity="1" width="163.45772110324998" height="308.62991387758535" y="0" fill="#f1c227" stroke="#ffffff" stroke-width="2" ry="0" rx="0" x="241.81467698766295"></rect><rect class="data" opacity="1" width="213.14886831863794" height="308.62991387758535" y="0" fill="#008a6d" stroke="#ffffff" stroke-width="2" ry="0" rx="0" x="405.27239809091293"></rect><rect class="data" opacity="1" width="69.95990463219084" height="308.62991387758535" y="0" fill="#00acdb" stroke="#ffffff" stroke-width="2" ry="0" rx="0" x="618.4212664095509"></rect><rect class="data" opacity="1" width="182.41881675122704" height="308.62991387758535" y="0" fill="#0064a8" stroke="#ffffff" stroke-width="2" ry="0" rx="0" x="688.3811710417417"></rect></g><g class="data-group" transform="translate(0,318.6299133300781)"><rect class="data" opacity="1" width="174.30700281164147" height="115.76802210577192" y="0" fill="#f4502a" stroke="#ffffff" stroke-width="2" ry="0" rx="0" x="77.703125"></rect><rect class="data" opacity="1" width="45.319820731026795" height="115.76802210577192" y="0" fill="#f1c227" stroke="#ffffff" stroke-width="2" ry="0" rx="0" x="252.01012781164147"></rect><rect class="data" opacity="1" width="238.80059385194886" height="115.76802210577192" y="0" fill="#008a6d" stroke="#ffffff" stroke-width="2" ry="0" rx="0" x="297.32994854266826"></rect><rect class="data" opacity="1" width="212.65454343020258" height="115.76802210577192" y="0" fill="#00acdb" stroke="#ffffff" stroke-width="2" ry="0" rx="0" x="536.1305423946171"></rect><rect class="data" opacity="1" width="122.01490196814905" height="115.76802210577192" y="0" fill="#0064a8" stroke="#ffffff" stroke-width="2" ry="0" rx="0" x="748.7850858248197"></rect></g><g class="data-group" transform="translate(0,434.39794921875)"><rect class="data" opacity="1" width="63.89879937194536" height="107.37166006293572" y="0" fill="#f4502a" stroke="#ffffff" stroke-width="2" ry="0" rx="0" x="77.703125"></rect><rect class="data" opacity="1" width="105.24508131849822" height="107.37166006293572" y="0" fill="#f1c227" stroke="#ffffff" stroke-width="2" ry="0" rx="0" x="141.60192437194536"></rect><rect class="data" opacity="1" width="88.33069324945379" height="107.37166006293572" y="0" fill="#008a6d" stroke="#ffffff" stroke-width="2" ry="0" rx="0" x="246.84700569044358"></rect><rect class="data" opacity="1" width="163.50575133409558" height="107.37166006293572" y="0" fill="#00acdb" stroke="#ffffff" stroke-width="2" ry="0" rx="0" x="335.17769893989737"></rect><rect class="data" opacity="1" width="372.1165375189758" height="107.37166006293572" y="0" fill="#0064a8" stroke="#ffffff" stroke-width="2" ry="0" rx="0" x="498.68345027399295"></rect></g><g class="data-group" transform="translate(0,541.7695922851562)"><rect class="data" opacity="1" width="93.76514634005542" height="103.30069664822726" y="0" fill="#f4502a" stroke="#ffffff" stroke-width="2" ry="0" rx="0" x="77.703125"></rect><rect class="data" opacity="1" width="304.73672560518014" height="103.30069664822726" y="0" fill="#f1c227" stroke="#ffffff" stroke-width="2" ry="0" rx="0" x="171.46827134005542"></rect><rect class="data" opacity="1" width="195.34405487511543" height="103.30069664822726" y="0" fill="#008a6d" stroke="#ffffff" stroke-width="2" ry="0" rx="0" x="476.20499694523556"></rect><rect class="data" opacity="1" width="13.674083841258039" height="103.30069664822726" y="0" fill="#00acdb" stroke="#ffffff" stroke-width="2" ry="0" rx="0" x="671.549051820351"></rect><rect class="data" opacity="1" width="185.57685213135971" height="103.30069664822726" y="0" fill="#0064a8" stroke="#ffffff" stroke-width="2" ry="0" rx="0" x="685.223135661609"></rect></g><g class="data-group" transform="translate(0,645.0703125)"><rect class="data" opacity="1" width="69.97913495232078" height="17.30159451251097" y="0" fill="#f4502a" stroke="#ffffff" stroke-width="2" ry="0" rx="0" x="77.703125"></rect><rect class="data" opacity="1" width="81.64232411104089" height="17.30159451251097" y="0" fill="#f1c227" stroke="#ffffff" stroke-width="2" ry="0" rx="0" x="147.68225995232078"></rect><rect class="data" opacity="1" width="93.30551326976104" height="17.30159451251097" y="0" fill="#008a6d" stroke="#ffffff" stroke-width="2" ry="0" rx="0" x="229.32458406336167"></rect><rect class="data" opacity="1" width="489.85394466624547" height="17.30159451251097" y="0" fill="#00acdb" stroke="#ffffff" stroke-width="2" ry="0" rx="0" x="322.6300973331227"></rect><rect class="data" opacity="1" width="58.315945793600804" height="17.30159451251097" y="0" fill="#0064a8" stroke="#ffffff" stroke-width="2" ry="0" rx="0" x="812.4840419993682"></rect></g></g><g class="axis horizontal" transform="translate( 0 662.3718872070312 )" display="block"><g class="tick" transform="translate(77.703125,0)" style="opacity: 1;"><line y2="4" x2="0" stroke="#000000" fill="none"></line><text dy="0.71em" y="8" x="0" font-size="13" style="text-anchor: start;" fill="#000000">0</text></g><g class="tick" transform="translate(236.32249755859377,0)" style="opacity: 1;"><line y2="4" x2="0" stroke="#000000" fill="none"></line><text dy="0.71em" y="8" x="0" font-size="13" style="text-anchor: middle;" fill="#000000">20</text></g><g class="tick" transform="translate(394.94187011718753,0)" style="opacity: 1;"><line y2="4" x2="0" stroke="#000000" fill="none"></line><text dy="0.71em" y="8" x="0" font-size="13" style="text-anchor: middle;" fill="#000000">40</text></g><g class="tick" transform="translate(553.5612426757812,0)" style="opacity: 1;"><line y2="4" x2="0" stroke="#000000" fill="none"></line><text dy="0.71em" y="8" x="0" font-size="13" style="text-anchor: middle;" fill="#000000">60</text></g><g class="tick" transform="translate(712.1806152343751,0)" style="opacity: 1;"><line y2="4" x2="0" stroke="#000000" fill="none"></line><text dy="0.71em" y="8" x="0" font-size="13" style="text-anchor: middle;" fill="#000000">80</text></g><g class="tick" transform="translate(870.7999877929688,0)" style="opacity: 1;"><line y2="4" x2="0" stroke="#000000" fill="none"></line><text dy="0.71em" y="8" x="0" font-size="13" style="text-anchor: end;" fill="#000000">100</text></g><path class="domain" d="M77.703125,0V0H870.7999877929688V0" stroke="#000000" fill="none" display="block"></path></g><g class="axis vertical" transform="translate( 77.703125 0 )" display="block"><g class="tick" transform="translate(0,164.31495693879268)" style="opacity: 1;"><line x2="0" y2="0" stroke="#000000" fill="none"></line><text dy=".32em" x="-6" y="0" font-size="13" style="text-anchor: end;" fill="#000000">Brand A</text></g><g class="tick" transform="translate(0,376.5139249304713)" style="opacity: 1;"><line x2="0" y2="0" stroke="#000000" fill="none"></line><text dy=".32em" x="-6" y="0" font-size="13" style="text-anchor: end;" fill="#000000">Brand B</text></g><g class="tick" transform="translate(0,488.0837660148252)" style="opacity: 1;"><line x2="0" y2="0" stroke="#000000" fill="none"></line><text dy=".32em" x="-6" y="0" font-size="13" style="text-anchor: end;" fill="#000000">Brand C</text></g><g class="tick" transform="translate(0,593.4199443704066)" style="opacity: 1;"><line x2="0" y2="0" stroke="#000000" fill="none"></line><text dy=".32em" x="-6" y="0" font-size="13" style="text-anchor: end;" fill="#000000">Brand D</text></g><g class="tick" transform="translate(0,653.7210899507758)" style="opacity: 1;"><line x2="0" y2="0" stroke="#000000" fill="none"></line><text dy=".32em" x="-6" y="0" font-size="13" style="text-anchor: end;" fill="#000000">Brand E</text></g></g><g class="legend-group" transform="translate( 277.1265563964844 698.7937622070312 )" display="block"><g class="legend" transform="translate(0 0)"><path class="marker" d="M5.7625 0 A5.7625 5.7625 0 0 0 5.7625 11.525A5.7625 5.7625 0 0 0 5.7625 0" fill="#f4502a"></path><text font-size="13" text-anchor="start" dy="0.76em" dx="14.525" fill="#000000">Asia</text></g><g class="legend" transform="translate(49.828125 0)"><path class="marker" d="M5.7625 0 A5.7625 5.7625 0 0 0 5.7625 11.525A5.7625 5.7625 0 0 0 5.7625 0" fill="#f1c227"></path><text font-size="13" text-anchor="start" dy="0.76em" dx="14.525" fill="#000000">Europe</text></g><g class="legend" transform="translate(116.28125 0)"><path class="marker" d="M5.7625 0 A5.7625 5.7625 0 0 0 5.7625 11.525A5.7625 5.7625 0 0 0 5.7625 0" fill="#008a6d"></path><text font-size="13" text-anchor="start" dy="0.76em" dx="14.525" fill="#000000">America</text></g><g class="legend" transform="translate(188.484375 0)"><path class="marker" d="M5.7625 0 A5.7625 5.7625 0 0 0 5.7625 11.525A5.7625 5.7625 0 0 0 5.7625 0" fill="#00acdb"></path><text font-size="13" text-anchor="start" dy="0.76em" dx="14.525" fill="#000000">Oceania</text></g><g class="legend" transform="translate(261.4375 0)"><path class="marker" d="M5.7625 0 A5.7625 5.7625 0 0 0 5.7625 11.525A5.7625 5.7625 0 0 0 5.7625 0" fill="#0064a8"></path><text font-size="13" text-anchor="start" dy="0.76em" dx="14.525" fill="#000000">Africa</text></g></g></svg>