<svg width="500" height="500"><g transform="translate(100,50)"><rect width="350" height="350" style="stroke: black; stroke-width: 2px;"></rect><g class="row" transform="translate(0,0)"><g class="cell" transform="translate(0, 0)" style="fill: rgb(52, 152, 219);"><rect width="35" height="35" style="stroke-width: 0;"></rect><text dy=".32em" x="17.5" y="17.5" text-anchor="middle" style="fill: white;">1</text></g><g class="cell" transform="translate(35, 0)" style="fill: rgb(194, 224, 244);"><rect width="35" height="35" style="stroke-width: 0;"></rect><text dy=".32em" x="17.5" y="17.5" text-anchor="middle" style="fill: black;">0.3</text></g><g class="cell" transform="translate(70, 0)" style="fill: rgb(255, 255, 255);"><rect width="35" height="35" style="stroke-width: 0;"></rect><text dy=".32em" x="17.5" y="17.5" text-anchor="middle" style="fill: black;">0</text></g><g class="cell" transform="translate(105, 0)" style="fill: rgb(93, 173, 226);"><rect width="35" height="35" style="stroke-width: 0;"></rect><text dy=".32em" x="17.5" y="17.5" text-anchor="middle" style="fill: white;">0.8</text></g><g class="cell" transform="translate(140, 0)" style="fill: rgb(255, 255, 255);"><rect width="35" height="35" style="stroke-width: 0;"></rect><text dy=".32em" x="17.5" y="17.5" text-anchor="middle" style="fill: black;">0</text></g><g class="cell" transform="translate(175, 0)" style="fill: rgb(214, 234, 248);"><rect width="35" height="35" style="stroke-width: 0;"></rect><text dy=".32em" x="17.5" y="17.5" text-anchor="middle" style="fill: black;">0.2</text></g><g class="cell" transform="translate(210, 0)" style="fill: rgb(52, 152, 219);"><rect width="35" height="35" style="stroke-width: 0;"></rect><text dy=".32em" x="17.5" y="17.5" text-anchor="middle" style="fill: white;">1</text></g><g class="cell" transform="translate(245, 0)" style="fill: rgb(154, 204, 237);"><rect width="35" height="35" style="stroke-width: 0;"></rect><text dy=".32em" x="17.5" y="17.5" text-anchor="middle" style="fill: white;">0.5</text></g><g class="cell" transform="translate(280, 0)" style="fill: rgb(255, 255, 255);"><rect width="35" height="35" style="stroke-width: 0;"></rect><text dy=".32em" x="17.5" y="17.5" text-anchor="middle" style="fill: black;">0</text></g><g class="cell" transform="translate(315, 0)" style="fill: rgb(103, 178, 228);"><rect width="35" height="35" style="stroke-width: 0;"></rect><text dy=".32em" x="17.5" y="17.5" text-anchor="middle" style="fill: white;">0.75</text></g></g><g class="row" transform="translate(0,35)"><g class="cell" transform="translate(0, 0)" style="fill: rgb(194, 224, 244);"><rect width="35" height="35" style="stroke-width: 0;"></rect><text dy=".32em" x="17.5" y="17.5" text-anchor="middle" style="fill: black;">0.3</text></g><g class="cell" transform="translate(35, 0)" style="fill: rgb(52, 152, 219);"><rect width="35" height="35" style="stroke-width: 0;"></rect><text dy=".32em" x="17.5" y="17.5" text-anchor="middle" style="fill: white;">1</text></g><g class="cell" transform="translate(70, 0)" style="fill: rgb(154, 204, 237);"><rect width="35" height="35" style="stroke-width: 0;"></rect><text dy=".32em" x="17.5" y="17.5" text-anchor="middle" style="fill: white;">0.5</text></g><g class="cell" transform="translate(105, 0)" style="fill: rgb(214, 234, 248);"><rect width="35" height="35" style="stroke-width: 0;"></rect><text dy=".32em" x="17.5" y="17.5" text-anchor="middle" style="fill: black;">0.2</text></g><g class="cell" transform="translate(140, 0)" style="fill: rgb(174, 214, 241);"><rect width="35" height="35" style="stroke-width: 0;"></rect><text dy=".32em" x="17.5" y="17.5" text-anchor="middle" style="fill: black;">0.4</text></g><g class="cell" transform="translate(175, 0)" style="fill: rgb(194, 224, 244);"><rect width="35" height="35" style="stroke-width: 0;"></rect><text dy=".32em" x="17.5" y="17.5" text-anchor="middle" style="fill: black;">0.3</text></g><g class="cell" transform="translate(210, 0)" style="fill: rgb(93, 173, 226);"><rect width="35" height="35" style="stroke-width: 0;"></rect><text dy=".32em" x="17.5" y="17.5" text-anchor="middle" style="fill: white;">0.8</text></g><g class="cell" transform="translate(245, 0)" style="fill: rgb(235, 245, 251);"><rect width="35" height="35" style="stroke-width: 0;"></rect><text dy=".32em" x="17.5" y="17.5" text-anchor="middle" style="fill: black;">0.1</text></g><g class="cell" transform="translate(280, 0)" style="fill: rgb(52, 152, 219);"><rect width="35" height="35" style="stroke-width: 0;"></rect><text dy=".32em" x="17.5" y="17.5" text-anchor="middle" style="fill: white;">1</text></g><g class="cell" transform="translate(315, 0)" style="fill: rgb(255, 255, 255);"><rect width="35" height="35" style="stroke-width: 0;"></rect><text dy=".32em" x="17.5" y="17.5" text-anchor="middle" style="fill: black;">0</text></g></g><g class="row" transform="translate(0,70)"><g class="cell" transform="translate(0, 0)" style="fill: rgb(255, 255, 255);"><rect width="35" height="35" style="stroke-width: 0;"></rect><text dy=".32em" x="17.5" y="17.5" text-anchor="middle" style="fill: black;">0</text></g><g class="cell" transform="translate(35, 0)" style="fill: rgb(154, 204, 237);"><rect width="35" height="35" style="stroke-width: 0;"></rect><text dy=".32em" x="17.5" y="17.5" text-anchor="middle" style="fill: white;">0.5</text></g><g class="cell" transform="translate(70, 0)" style="fill: rgb(52, 152, 219);"><rect width="35" height="35" style="stroke-width: 0;"></rect><text dy=".32em" x="17.5" y="17.5" text-anchor="middle" style="fill: white;">1</text></g><g class="cell" transform="translate(105, 0)" style="fill: rgb(174, 214, 241);"><rect width="35" height="35" style="stroke-width: 0;"></rect><text dy=".32em" x="17.5" y="17.5" text-anchor="middle" style="fill: black;">0.4</text></g><g class="cell" transform="translate(140, 0)" style="fill: rgb(255, 255, 255);"><rect width="35" height="35" style="stroke-width: 0;"></rect><text dy=".32em" x="17.5" y="17.5" text-anchor="middle" style="fill: black;">0</text></g><g class="cell" transform="translate(175, 0)" style="fill: rgb(72, 162, 223);"><rect width="35" height="35" style="stroke-width: 0;"></rect><text dy=".32em" x="17.5" y="17.5" text-anchor="middle" style="fill: white;">0.9</text></g><g class="cell" transform="translate(210, 0)" style="fill: rgb(255, 255, 255);"><rect width="35" height="35" style="stroke-width: 0;"></rect><text dy=".32em" x="17.5" y="17.5" text-anchor="middle" style="fill: black;">0</text></g><g class="cell" transform="translate(245, 0)" style="fill: rgb(214, 234, 248);"><rect width="35" height="35" style="stroke-width: 0;"></rect><text dy=".32em" x="17.5" y="17.5" text-anchor="middle" style="fill: black;">0.2</text></g><g class="cell" transform="translate(280, 0)" style="fill: rgb(52, 152, 219);"><rect width="35" height="35" style="stroke-width: 0;"></rect><text dy=".32em" x="17.5" y="17.5" text-anchor="middle" style="fill: white;">1</text></g><g class="cell" transform="translate(315, 0)" style="fill: rgb(194, 224, 244);"><rect width="35" height="35" style="stroke-width: 0;"></rect><text dy=".32em" x="17.5" y="17.5" text-anchor="middle" style="fill: black;">0.3</text></g></g><g class="row" transform="translate(0,105)"><g class="cell" transform="translate(0, 0)" style="fill: rgb(93, 173, 226);"><rect width="35" height="35" style="stroke-width: 0;"></rect><text dy=".32em" x="17.5" y="17.5" text-anchor="middle" style="fill: white;">0.8</text></g><g class="cell" transform="translate(35, 0)" style="fill: rgb(214, 234, 248);"><rect width="35" height="35" style="stroke-width: 0;"></rect><text dy=".32em" x="17.5" y="17.5" text-anchor="middle" style="fill: black;">0.2</text></g><g class="cell" transform="translate(70, 0)" style="fill: rgb(174, 214, 241);"><rect width="35" height="35" style="stroke-width: 0;"></rect><text dy=".32em" x="17.5" y="17.5" text-anchor="middle" style="fill: black;">0.4</text></g><g class="cell" transform="translate(105, 0)" style="fill: rgb(52, 152, 219);"><rect width="35" height="35" style="stroke-width: 0;"></rect><text dy=".32em" x="17.5" y="17.5" text-anchor="middle" style="fill: white;">1</text></g><g class="cell" transform="translate(140, 0)" style="fill: rgb(194, 224, 244);"><rect width="35" height="35" style="stroke-width: 0;"></rect><text dy=".32em" x="17.5" y="17.5" text-anchor="middle" style="fill: black;">0.3</text></g><g class="cell" transform="translate(175, 0)" style="fill: rgb(174, 214, 241);"><rect width="35" height="35" style="stroke-width: 0;"></rect><text dy=".32em" x="17.5" y="17.5" text-anchor="middle" style="fill: black;">0.4</text></g><g class="cell" transform="translate(210, 0)" style="fill: rgb(235, 245, 251);"><rect width="35" height="35" style="stroke-width: 0;"></rect><text dy=".32em" x="17.5" y="17.5" text-anchor="middle" style="fill: black;">0.1</text></g><g class="cell" transform="translate(245, 0)" style="fill: rgb(52, 152, 219);"><rect width="35" height="35" style="stroke-width: 0;"></rect><text dy=".32em" x="17.5" y="17.5" text-anchor="middle" style="fill: white;">1</text></g><g class="cell" transform="translate(280, 0)" style="fill: rgb(214, 234, 248);"><rect width="35" height="35" style="stroke-width: 0;"></rect><text dy=".32em" x="17.5" y="17.5" text-anchor="middle" style="fill: black;">0.2</text></g><g class="cell" transform="translate(315, 0)" style="fill: rgb(72, 162, 223);"><rect width="35" height="35" style="stroke-width: 0;"></rect><text dy=".32em" x="17.5" y="17.5" text-anchor="middle" style="fill: white;">0.9</text></g></g><g class="row" transform="translate(0,140)"><g class="cell" transform="translate(0, 0)" style="fill: rgb(255, 255, 255);"><rect width="35" height="35" style="stroke-width: 0;"></rect><text dy=".32em" x="17.5" y="17.5" text-anchor="middle" style="fill: black;">0</text></g><g class="cell" transform="translate(35, 0)" style="fill: rgb(174, 214, 241);"><rect width="35" height="35" style="stroke-width: 0;"></rect><text dy=".32em" x="17.5" y="17.5" text-anchor="middle" style="fill: black;">0.4</text></g><g class="cell" transform="translate(70, 0)" style="fill: rgb(255, 255, 255);"><rect width="35" height="35" style="stroke-width: 0;"></rect><text dy=".32em" x="17.5" y="17.5" text-anchor="middle" style="fill: black;">0</text></g><g class="cell" transform="translate(105, 0)" style="fill: rgb(194, 224, 244);"><rect width="35" height="35" style="stroke-width: 0;"></rect><text dy=".32em" x="17.5" y="17.5" text-anchor="middle" style="fill: black;">0.3</text></g><g class="cell" transform="translate(140, 0)" style="fill: rgb(52, 152, 219);"><rect width="35" height="35" style="stroke-width: 0;"></rect><text dy=".32em" x="17.5" y="17.5" text-anchor="middle" style="fill: white;">1</text></g><g class="cell" transform="translate(175, 0)" style="fill: rgb(235, 245, 251);"><rect width="35" height="35" style="stroke-width: 0;"></rect><text dy=".32em" x="17.5" y="17.5" text-anchor="middle" style="fill: black;">0.1</text></g><g class="cell" transform="translate(210, 0)" style="fill: rgb(174, 214, 241);"><rect width="35" height="35" style="stroke-width: 0;"></rect><text dy=".32em" x="17.5" y="17.5" text-anchor="middle" style="fill: black;">0.4</text></g><g class="cell" transform="translate(245, 0)" style="fill: rgb(255, 255, 255);"><rect width="35" height="35" style="stroke-width: 0;"></rect><text dy=".32em" x="17.5" y="17.5" text-anchor="middle" style="fill: black;">0</text></g><g class="cell" transform="translate(280, 0)" style="fill: rgb(133, 193, 233);"><rect width="35" height="35" style="stroke-width: 0;"></rect><text dy=".32em" x="17.5" y="17.5" text-anchor="middle" style="fill: white;">0.6</text></g><g class="cell" transform="translate(315, 0)" style="fill: rgb(113, 183, 230);"><rect width="35" height="35" style="stroke-width: 0;"></rect><text dy=".32em" x="17.5" y="17.5" text-anchor="middle" style="fill: white;">0.7</text></g></g><g class="row" transform="translate(0,175)"><g class="cell" transform="translate(0, 0)" style="fill: rgb(214, 234, 248);"><rect width="35" height="35" style="stroke-width: 0;"></rect><text dy=".32em" x="17.5" y="17.5" text-anchor="middle" style="fill: black;">0.2</text></g><g class="cell" transform="translate(35, 0)" style="fill: rgb(194, 224, 244);"><rect width="35" height="35" style="stroke-width: 0;"></rect><text dy=".32em" x="17.5" y="17.5" text-anchor="middle" style="fill: black;">0.3</text></g><g class="cell" transform="translate(70, 0)" style="fill: rgb(72, 162, 223);"><rect width="35" height="35" style="stroke-width: 0;"></rect><text dy=".32em" x="17.5" y="17.5" text-anchor="middle" style="fill: white;">0.9</text></g><g class="cell" transform="translate(105, 0)" style="fill: rgb(174, 214, 241);"><rect width="35" height="35" style="stroke-width: 0;"></rect><text dy=".32em" x="17.5" y="17.5" text-anchor="middle" style="fill: black;">0.4</text></g><g class="cell" transform="translate(140, 0)" style="fill: rgb(235, 245, 251);"><rect width="35" height="35" style="stroke-width: 0;"></rect><text dy=".32em" x="17.5" y="17.5" text-anchor="middle" style="fill: black;">0.1</text></g><g class="cell" transform="translate(175, 0)" style="fill: rgb(52, 152, 219);"><rect width="35" height="35" style="stroke-width: 0;"></rect><text dy=".32em" x="17.5" y="17.5" text-anchor="middle" style="fill: white;">1</text></g><g class="cell" transform="translate(210, 0)" style="fill: rgb(255, 255, 255);"><rect width="35" height="35" style="stroke-width: 0;"></rect><text dy=".32em" x="17.5" y="17.5" text-anchor="middle" style="fill: black;">0</text></g><g class="cell" transform="translate(245, 0)" style="fill: rgb(235, 245, 251);"><rect width="35" height="35" style="stroke-width: 0;"></rect><text dy=".32em" x="17.5" y="17.5" text-anchor="middle" style="fill: black;">0.1</text></g><g class="cell" transform="translate(280, 0)" style="fill: rgb(174, 214, 241);"><rect width="35" height="35" style="stroke-width: 0;"></rect><text dy=".32em" x="17.5" y="17.5" text-anchor="middle" style="fill: black;">0.4</text></g><g class="cell" transform="translate(315, 0)" style="fill: rgb(235, 245, 251);"><rect width="35" height="35" style="stroke-width: 0;"></rect><text dy=".32em" x="17.5" y="17.5" text-anchor="middle" style="fill: black;">0.1</text></g></g><g class="row" transform="translate(0,210)"><g class="cell" transform="translate(0, 0)" style="fill: rgb(52, 152, 219);"><rect width="35" height="35" style="stroke-width: 0;"></rect><text dy=".32em" x="17.5" y="17.5" text-anchor="middle" style="fill: white;">1</text></g><g class="cell" transform="translate(35, 0)" style="fill: rgb(93, 173, 226);"><rect width="35" height="35" style="stroke-width: 0;"></rect><text dy=".32em" x="17.5" y="17.5" text-anchor="middle" style="fill: white;">0.8</text></g><g class="cell" transform="translate(70, 0)" style="fill: rgb(255, 255, 255);"><rect width="35" height="35" style="stroke-width: 0;"></rect><text dy=".32em" x="17.5" y="17.5" text-anchor="middle" style="fill: black;">0</text></g><g class="cell" transform="translate(105, 0)" style="fill: rgb(235, 245, 251);"><rect width="35" height="35" style="stroke-width: 0;"></rect><text dy=".32em" x="17.5" y="17.5" text-anchor="middle" style="fill: black;">0.1</text></g><g class="cell" transform="translate(140, 0)" style="fill: rgb(174, 214, 241);"><rect width="35" height="35" style="stroke-width: 0;"></rect><text dy=".32em" x="17.5" y="17.5" text-anchor="middle" style="fill: black;">0.4</text></g><g class="cell" transform="translate(175, 0)" style="fill: rgb(255, 255, 255);"><rect width="35" height="35" style="stroke-width: 0;"></rect><text dy=".32em" x="17.5" y="17.5" text-anchor="middle" style="fill: black;">0</text></g><g class="cell" transform="translate(210, 0)" style="fill: rgb(52, 152, 219);"><rect width="35" height="35" style="stroke-width: 0;"></rect><text dy=".32em" x="17.5" y="17.5" text-anchor="middle" style="fill: white;">1</text></g><g class="cell" transform="translate(245, 0)" style="fill: rgb(154, 204, 237);"><rect width="35" height="35" style="stroke-width: 0;"></rect><text dy=".32em" x="17.5" y="17.5" text-anchor="middle" style="fill: white;">0.5</text></g><g class="cell" transform="translate(280, 0)" style="fill: rgb(255, 255, 255);"><rect width="35" height="35" style="stroke-width: 0;"></rect><text dy=".32em" x="17.5" y="17.5" text-anchor="middle" style="fill: black;">0</text></g><g class="cell" transform="translate(315, 0)" style="fill: rgb(52, 152, 219);"><rect width="35" height="35" style="stroke-width: 0;"></rect><text dy=".32em" x="17.5" y="17.5" text-anchor="middle" style="fill: white;">1</text></g></g><g class="row" transform="translate(0,245)"><g class="cell" transform="translate(0, 0)" style="fill: rgb(154, 204, 237);"><rect width="35" height="35" style="stroke-width: 0;"></rect><text dy=".32em" x="17.5" y="17.5" text-anchor="middle" style="fill: white;">0.5</text></g><g class="cell" transform="translate(35, 0)" style="fill: rgb(235, 245, 251);"><rect width="35" height="35" style="stroke-width: 0;"></rect><text dy=".32em" x="17.5" y="17.5" text-anchor="middle" style="fill: black;">0.1</text></g><g class="cell" transform="translate(70, 0)" style="fill: rgb(214, 234, 248);"><rect width="35" height="35" style="stroke-width: 0;"></rect><text dy=".32em" x="17.5" y="17.5" text-anchor="middle" style="fill: black;">0.2</text></g><g class="cell" transform="translate(105, 0)" style="fill: rgb(52, 152, 219);"><rect width="35" height="35" style="stroke-width: 0;"></rect><text dy=".32em" x="17.5" y="17.5" text-anchor="middle" style="fill: white;">1</text></g><g class="cell" transform="translate(140, 0)" style="fill: rgb(235, 245, 251);"><rect width="35" height="35" style="stroke-width: 0;"></rect><text dy=".32em" x="17.5" y="17.5" text-anchor="middle" style="fill: black;">0.1</text></g><g class="cell" transform="translate(175, 0)" style="fill: rgb(255, 255, 255);"><rect width="35" height="35" style="stroke-width: 0;"></rect><text dy=".32em" x="17.5" y="17.5" text-anchor="middle" style="fill: black;">0</text></g><g class="cell" transform="translate(210, 0)" style="fill: rgb(154, 204, 237);"><rect width="35" height="35" style="stroke-width: 0;"></rect><text dy=".32em" x="17.5" y="17.5" text-anchor="middle" style="fill: white;">0.5</text></g><g class="cell" transform="translate(245, 0)" style="fill: rgb(52, 152, 219);"><rect width="35" height="35" style="stroke-width: 0;"></rect><text dy=".32em" x="17.5" y="17.5" text-anchor="middle" style="fill: white;">1</text></g><g class="cell" transform="translate(280, 0)" style="fill: rgb(255, 255, 255);"><rect width="35" height="35" style="stroke-width: 0;"></rect><text dy=".32em" x="17.5" y="17.5" text-anchor="middle" style="fill: black;">0</text></g><g class="cell" transform="translate(315, 0)" style="fill: rgb(174, 214, 241);"><rect width="35" height="35" style="stroke-width: 0;"></rect><text dy=".32em" x="17.5" y="17.5" text-anchor="middle" style="fill: black;">0.4</text></g></g><g class="row" transform="translate(0,280)"><g class="cell" transform="translate(0, 0)" style="fill: rgb(255, 255, 255);"><rect width="35" height="35" style="stroke-width: 0;"></rect><text dy=".32em" x="17.5" y="17.5" text-anchor="middle" style="fill: black;">0</text></g><g class="cell" transform="translate(35, 0)" style="fill: rgb(52, 152, 219);"><rect width="35" height="35" style="stroke-width: 0;"></rect><text dy=".32em" x="17.5" y="17.5" text-anchor="middle" style="fill: white;">1</text></g><g class="cell" transform="translate(70, 0)" style="fill: rgb(52, 152, 219);"><rect width="35" height="35" style="stroke-width: 0;"></rect><text dy=".32em" x="17.5" y="17.5" text-anchor="middle" style="fill: white;">1</text></g><g class="cell" transform="translate(105, 0)" style="fill: rgb(214, 234, 248);"><rect width="35" height="35" style="stroke-width: 0;"></rect><text dy=".32em" x="17.5" y="17.5" text-anchor="middle" style="fill: black;">0.2</text></g><g class="cell" transform="translate(140, 0)" style="fill: rgb(133, 193, 233);"><rect width="35" height="35" style="stroke-width: 0;"></rect><text dy=".32em" x="17.5" y="17.5" text-anchor="middle" style="fill: white;">0.6</text></g><g class="cell" transform="translate(175, 0)" style="fill: rgb(174, 214, 241);"><rect width="35" height="35" style="stroke-width: 0;"></rect><text dy=".32em" x="17.5" y="17.5" text-anchor="middle" style="fill: black;">0.4</text></g><g class="cell" transform="translate(210, 0)" style="fill: rgb(255, 255, 255);"><rect width="35" height="35" style="stroke-width: 0;"></rect><text dy=".32em" x="17.5" y="17.5" text-anchor="middle" style="fill: black;">0</text></g><g class="cell" transform="translate(245, 0)" style="fill: rgb(255, 255, 255);"><rect width="35" height="35" style="stroke-width: 0;"></rect><text dy=".32em" x="17.5" y="17.5" text-anchor="middle" style="fill: black;">0</text></g><g class="cell" transform="translate(280, 0)" style="fill: rgb(52, 152, 219);"><rect width="35" height="35" style="stroke-width: 0;"></rect><text dy=".32em" x="17.5" y="17.5" text-anchor="middle" style="fill: white;">1</text></g><g class="cell" transform="translate(315, 0)" style="fill: rgb(133, 193, 233);"><rect width="35" height="35" style="stroke-width: 0;"></rect><text dy=".32em" x="17.5" y="17.5" text-anchor="middle" style="fill: white;">0.6</text></g></g><g class="row" transform="translate(0,315)"><g class="cell" transform="translate(0, 0)" style="fill: rgb(103, 178, 228);"><rect width="35" height="35" style="stroke-width: 0;"></rect><text dy=".32em" x="17.5" y="17.5" text-anchor="middle" style="fill: white;">0.75</text></g><g class="cell" transform="translate(35, 0)" style="fill: rgb(255, 255, 255);"><rect width="35" height="35" style="stroke-width: 0;"></rect><text dy=".32em" x="17.5" y="17.5" text-anchor="middle" style="fill: black;">0</text></g><g class="cell" transform="translate(70, 0)" style="fill: rgb(194, 224, 244);"><rect width="35" height="35" style="stroke-width: 0;"></rect><text dy=".32em" x="17.5" y="17.5" text-anchor="middle" style="fill: black;">0.3</text></g><g class="cell" transform="translate(105, 0)" style="fill: rgb(72, 162, 223);"><rect width="35" height="35" style="stroke-width: 0;"></rect><text dy=".32em" x="17.5" y="17.5" text-anchor="middle" style="fill: white;">0.9</text></g><g class="cell" transform="translate(140, 0)" style="fill: rgb(113, 183, 230);"><rect width="35" height="35" style="stroke-width: 0;"></rect><text dy=".32em" x="17.5" y="17.5" text-anchor="middle" style="fill: white;">0.7</text></g><g class="cell" transform="translate(175, 0)" style="fill: rgb(235, 245, 251);"><rect width="35" height="35" style="stroke-width: 0;"></rect><text dy=".32em" x="17.5" y="17.5" text-anchor="middle" style="fill: black;">0.1</text></g><g class="cell" transform="translate(210, 0)" style="fill: rgb(52, 152, 219);"><rect width="35" height="35" style="stroke-width: 0;"></rect><text dy=".32em" x="17.5" y="17.5" text-anchor="middle" style="fill: white;">1</text></g><g class="cell" transform="translate(245, 0)" style="fill: rgb(174, 214, 241);"><rect width="35" height="35" style="stroke-width: 0;"></rect><text dy=".32em" x="17.5" y="17.5" text-anchor="middle" style="fill: black;">0.4</text></g><g class="cell" transform="translate(280, 0)" style="fill: rgb(133, 193, 233);"><rect width="35" height="35" style="stroke-width: 0;"></rect><text dy=".32em" x="17.5" y="17.5" text-anchor="middle" style="fill: white;">0.6</text></g><g class="cell" transform="translate(315, 0)" style="fill: rgb(52, 152, 219);"><rect width="35" height="35" style="stroke-width: 0;"></rect><text dy=".32em" x="17.5" y="17.5" text-anchor="middle" style="fill: white;">1</text></g></g><g class="labels"><g class="column-label" transform="translate(0,350)"><line x1="17.5" x2="17.5" y1="0" y2="5" style="stroke: black; stroke-width: 1px;"></line><text x="0" y="17.5" dy=".82em" text-anchor="end" transform="rotate(-60)">Var 1</text></g><g class="column-label" transform="translate(35,350)"><line x1="17.5" x2="17.5" y1="0" y2="5" style="stroke: black; stroke-width: 1px;"></line><text x="0" y="17.5" dy=".82em" text-anchor="end" transform="rotate(-60)">Var 2</text></g><g class="column-label" transform="translate(70,350)"><line x1="17.5" x2="17.5" y1="0" y2="5" style="stroke: black; stroke-width: 1px;"></line><text x="0" y="17.5" dy=".82em" text-anchor="end" transform="rotate(-60)">Var 3</text></g><g class="column-label" transform="translate(105,350)"><line x1="17.5" x2="17.5" y1="0" y2="5" style="stroke: black; stroke-width: 1px;"></line><text x="0" y="17.5" dy=".82em" text-anchor="end" transform="rotate(-60)">Var 4</text></g><g class="column-label" transform="translate(140,350)"><line x1="17.5" x2="17.5" y1="0" y2="5" style="stroke: black; stroke-width: 1px;"></line><text x="0" y="17.5" dy=".82em" text-anchor="end" transform="rotate(-60)">Var 5</text></g><g class="column-label" transform="translate(175,350)"><line x1="17.5" x2="17.5" y1="0" y2="5" style="stroke: black; stroke-width: 1px;"></line><text x="0" y="17.5" dy=".82em" text-anchor="end" transform="rotate(-60)">Var 6</text></g><g class="column-label" transform="translate(210,350)"><line x1="17.5" x2="17.5" y1="0" y2="5" style="stroke: black; stroke-width: 1px;"></line><text x="0" y="17.5" dy=".82em" text-anchor="end" transform="rotate(-60)">Var 7</text></g><g class="column-label" transform="translate(245,350)"><line x1="17.5" x2="17.5" y1="0" y2="5" style="stroke: black; stroke-width: 1px;"></line><text x="0" y="17.5" dy=".82em" text-anchor="end" transform="rotate(-60)">Var 8</text></g><g class="column-label" transform="translate(280,350)"><line x1="17.5" x2="17.5" y1="0" y2="5" style="stroke: black; stroke-width: 1px;"></line><text x="0" y="17.5" dy=".82em" text-anchor="end" transform="rotate(-60)">Var 9</text></g><g class="column-label" transform="translate(315,350)"><line x1="17.5" x2="17.5" y1="0" y2="5" style="stroke: black; stroke-width: 1px;"></line><text x="0" y="17.5" dy=".82em" text-anchor="end" transform="rotate(-60)">Var 10</text></g><g class="row-label" transform="translate(0,0)"><line x1="0" x2="-5" y1="17.5" y2="17.5" style="stroke: black; stroke-width: 1px;"></line><text x="-8" y="17.5" dy=".32em" text-anchor="end">Var 1</text></g><g class="row-label" transform="translate(0,35)"><line x1="0" x2="-5" y1="17.5" y2="17.5" style="stroke: black; stroke-width: 1px;"></line><text x="-8" y="17.5" dy=".32em" text-anchor="end">Var 2</text></g><g class="row-label" transform="translate(0,70)"><line x1="0" x2="-5" y1="17.5" y2="17.5" style="stroke: black; stroke-width: 1px;"></line><text x="-8" y="17.5" dy=".32em" text-anchor="end">Var 3</text></g><g class="row-label" transform="translate(0,105)"><line x1="0" x2="-5" y1="17.5" y2="17.5" style="stroke: black; stroke-width: 1px;"></line><text x="-8" y="17.5" dy=".32em" text-anchor="end">Var 4</text></g><g class="row-label" transform="translate(0,140)"><line x1="0" x2="-5" y1="17.5" y2="17.5" style="stroke: black; stroke-width: 1px;"></line><text x="-8" y="17.5" dy=".32em" text-anchor="end">Var 5</text></g><g class="row-label" transform="translate(0,175)"><line x1="0" x2="-5" y1="17.5" y2="17.5" style="stroke: black; stroke-width: 1px;"></line><text x="-8" y="17.5" dy=".32em" text-anchor="end">Var 6</text></g><g class="row-label" transform="translate(0,210)"><line x1="0" x2="-5" y1="17.5" y2="17.5" style="stroke: black; stroke-width: 1px;"></line><text x="-8" y="17.5" dy=".32em" text-anchor="end">Var 7</text></g><g class="row-label" transform="translate(0,245)"><line x1="0" x2="-5" y1="17.5" y2="17.5" style="stroke: black; stroke-width: 1px;"></line><text x="-8" y="17.5" dy=".32em" text-anchor="end">Var 8</text></g><g class="row-label" transform="translate(0,280)"><line x1="0" x2="-5" y1="17.5" y2="17.5" style="stroke: black; stroke-width: 1px;"></line><text x="-8" y="17.5" dy=".32em" text-anchor="end">Var 9</text></g><g class="row-label" transform="translate(0,315)"><line x1="0" x2="-5" y1="17.5" y2="17.5" style="stroke: black; stroke-width: 1px;"></line><text x="-8" y="17.5" dy=".32em" text-anchor="end">Var 10</text></g></g></g></svg>