<svg class="main-svg" xmlns="http://www.w3.org/2000/svg" xmlns:xlink="http://www.w3.org/1999/xlink" width="600" height="900"><rect x="0" y="0" width="600" height="900" style="fill: rgb(255, 255, 255); fill-opacity: 1;"/><defs id="defs-13dd45"><g class="clips"><clipPath class="axesclip" id="clip13dd45x"><rect x="80" y="0" width="440" height="900"/></clipPath><clipPath class="axesclip" id="clip13dd45y"><rect x="0" y="150" width="600" height="630"/></clipPath><clipPath class="axesclip" id="clip13dd45xy"><rect x="80" y="150" width="440" height="630"/></clipPath></g></defs><g class="draglayer"><g transform="translate(80,150)"/></g><g class="subplot xy"><rect x="80" y="150" width="440" height="630" style="stroke-width: 0px; fill: rgb(255, 255, 255); fill-opacity: 1;"/><g transform="translate(80,150)"/><g/><g transform="translate(80,150)"/><g/><svg preserveAspectRatio="none" x="80" y="150" width="440" height="630" viewBox="0 0 440 630" style="fill: none;"><g class="maplayer"/><g class="barlayer"><g class="trace bars" style="opacity: 1;"><g class="points"><path d="M229.21,627.74V616.11H132.51V627.74Z" style="stroke-width: 0px; fill: rgb(242, 196, 129); fill-opacity: 1;"/><path d="M229.21,611.58V599.95H141.72V611.58Z" style="stroke-width: 0px; fill: rgb(242, 196, 129); fill-opacity: 1;"/><path d="M229.21,595.43V583.8H121V595.43Z" style="stroke-width: 0px; fill: rgb(242, 196, 129); fill-opacity: 1;"/><path d="M229.21,579.28V567.65H130.21V579.28Z" style="stroke-width: 0px; fill: rgb(242, 196, 129); fill-opacity: 1;"/><path d="M229.21,563.12V551.49H144.02V563.12Z" style="stroke-width: 0px; fill: rgb(242, 196, 129); fill-opacity: 1;"/><path d="M229.21,546.97V535.34H132.51V546.97Z" style="stroke-width: 0px; fill: rgb(242, 196, 129); fill-opacity: 1;"/><path d="M229.21,530.82V519.18H160.14V530.82Z" style="stroke-width: 0px; fill: rgb(242, 196, 129); fill-opacity: 1;"/><path d="M229.21,514.66V503.03H139.42V514.66Z" style="stroke-width: 0px; fill: rgb(242, 196, 129); fill-opacity: 1;"/><path d="M229.21,498.51V486.88H146.33V498.51Z" style="stroke-width: 0px; fill: rgb(242, 196, 129); fill-opacity: 1;"/><path d="M229.21,482.35V470.72H185.47V482.35Z" style="stroke-width: 0px; fill: rgb(242, 196, 129); fill-opacity: 1;"/><path d="M229.21,466.2V454.57H155.53V466.2Z" style="stroke-width: 0px; fill: rgb(242, 196, 129); fill-opacity: 1;"/><path d="M229.21,450.05V438.42H162.44V450.05Z" style="stroke-width: 0px; fill: rgb(242, 196, 129); fill-opacity: 1;"/><path d="M229.21,433.89V422.26H178.56V433.89Z" style="stroke-width: 0px; fill: rgb(242, 196, 129); fill-opacity: 1;"/><path d="M229.21,417.74V406.11H187.77V417.74Z" style="stroke-width: 0px; fill: rgb(242, 196, 129); fill-opacity: 1;"/></g></g><g class="trace bars" style="opacity: 1;"><g class="points"><path d="M229.21,627.74V616.11H279.86V627.74Z" style="stroke-width: 0px; fill: rgb(148, 157, 73); fill-opacity: 1;"/><path d="M229.21,611.58V599.95H282.16V611.58Z" style="stroke-width: 0px; fill: rgb(148, 157, 73); fill-opacity: 1;"/><path d="M229.21,595.43V583.8H289.07V595.43Z" style="stroke-width: 0px; fill: rgb(148, 157, 73); fill-opacity: 1;"/><path d="M229.21,579.28V567.65H328.21V579.28Z" style="stroke-width: 0px; fill: rgb(148, 157, 73); fill-opacity: 1;"/><path d="M229.21,563.12V551.49H319V563.12Z" style="stroke-width: 0px; fill: rgb(148, 157, 73); fill-opacity: 1;"/><path d="M229.21,546.97V535.34H321.3V546.97Z" style="stroke-width: 0px; fill: rgb(148, 157, 73); fill-opacity: 1;"/><path d="M229.21,530.82V519.18H321.3V530.82Z" style="stroke-width: 0px; fill: rgb(148, 157, 73); fill-opacity: 1;"/><path d="M229.21,514.66V503.03H342.02V514.66Z" style="stroke-width: 0px; fill: rgb(148, 157, 73); fill-opacity: 1;"/><path d="M229.21,498.51V486.88H346.63V498.51Z" style="stroke-width: 0px; fill: rgb(148, 157, 73); fill-opacity: 1;"/><path d="M229.21,482.35V470.72H346.63V482.35Z" style="stroke-width: 0px; fill: rgb(148, 157, 73); fill-opacity: 1;"/><path d="M229.21,466.2V454.57H355.84V466.2Z" style="stroke-width: 0px; fill: rgb(148, 157, 73); fill-opacity: 1;"/><path d="M229.21,450.05V438.42H374.26V450.05Z" style="stroke-width: 0px; fill: rgb(148, 157, 73); fill-opacity: 1;"/><path d="M229.21,433.89V422.26H378.86V433.89Z" style="stroke-width: 0px; fill: rgb(148, 157, 73); fill-opacity: 1;"/><path d="M229.21,417.74V406.11H378.86V417.74Z" style="stroke-width: 0px; fill: rgb(148, 157, 73); fill-opacity: 1;"/></g></g><g class="trace bars" style="opacity: 1;"><g class="points"><path d="M229.21,401.58V389.95H130.21V401.58Z" style="stroke-width: 0px; fill: rgb(242, 196, 129); fill-opacity: 1;"/><path d="M229.21,385.43V373.8H137.12V385.43Z" style="stroke-width: 0px; fill: rgb(242, 196, 129); fill-opacity: 1;"/><path d="M229.21,369.28V357.65H173.95V369.28Z" style="stroke-width: 0px; fill: rgb(242, 196, 129); fill-opacity: 1;"/><path d="M229.21,353.12V341.49H139.42V353.12Z" style="stroke-width: 0px; fill: rgb(242, 196, 129); fill-opacity: 1;"/><path d="M229.21,336.97V325.34H141.72V336.97Z" style="stroke-width: 0px; fill: rgb(242, 196, 129); fill-opacity: 1;"/><path d="M229.21,320.82V309.18H171.65V320.82Z" style="stroke-width: 0px; fill: rgb(242, 196, 129); fill-opacity: 1;"/><path d="M229.21,304.66V293.03H180.86V304.66Z" style="stroke-width: 0px; fill: rgb(242, 196, 129); fill-opacity: 1;"/><path d="M229.21,288.51V276.88H201.58V288.51Z" style="stroke-width: 0px; fill: rgb(242, 196, 129); fill-opacity: 1;"/><path d="M229.21,272.35V260.72H199.28V272.35Z" style="stroke-width: 0px; fill: rgb(242, 196, 129); fill-opacity: 1;"/><path d="M229.21,256.2V244.57H187.77V256.2Z" style="stroke-width: 0px; fill: rgb(242, 196, 129); fill-opacity: 1;"/><path d="M229.21,240.05V228.42H213.09V240.05Z" style="stroke-width: 0px; fill: rgb(242, 196, 129); fill-opacity: 1;"/></g></g><g class="trace bars" style="opacity: 1;"><g class="points"><path d="M229.21,401.58V389.95H319V401.58Z" style="stroke-width: 0px; fill: rgb(148, 157, 73); fill-opacity: 1;"/><path d="M229.21,385.43V373.8H319V385.43Z" style="stroke-width: 0px; fill: rgb(148, 157, 73); fill-opacity: 1;"/><path d="M229.21,369.28V357.65H321.3V369.28Z" style="stroke-width: 0px; fill: rgb(148, 157, 73); fill-opacity: 1;"/><path d="M229.21,353.12V341.49H330.51V353.12Z" style="stroke-width: 0px; fill: rgb(148, 157, 73); fill-opacity: 1;"/><path d="M229.21,336.97V325.34H330.51V336.97Z" style="stroke-width: 0px; fill: rgb(148, 157, 73); fill-opacity: 1;"/><path d="M229.21,320.82V309.18H362.74V320.82Z" style="stroke-width: 0px; fill: rgb(148, 157, 73); fill-opacity: 1;"/><path d="M229.21,304.66V293.03H381.16V304.66Z" style="stroke-width: 0px; fill: rgb(148, 157, 73); fill-opacity: 1;"/><path d="M229.21,288.51V276.88H394.98V288.51Z" style="stroke-width: 0px; fill: rgb(148, 157, 73); fill-opacity: 1;"/><path d="M229.21,272.35V260.72H404.19V272.35Z" style="stroke-width: 0px; fill: rgb(148, 157, 73); fill-opacity: 1;"/><path d="M229.21,256.2V244.57H411.09V256.2Z" style="stroke-width: 0px; fill: rgb(148, 157, 73); fill-opacity: 1;"/><path d="M229.21,240.05V228.42H418V240.05Z" style="stroke-width: 0px; fill: rgb(148, 157, 73); fill-opacity: 1;"/></g></g><g class="trace bars" style="opacity: 1;"><g class="points"><path d="M229.21,223.89V212.26H22V223.89Z" style="stroke-width: 0px; fill: rgb(242, 196, 129); fill-opacity: 1;"/><path d="M229.21,207.74V196.11H61.14V207.74Z" style="stroke-width: 0px; fill: rgb(242, 196, 129); fill-opacity: 1;"/><path d="M229.21,191.58V179.95H54.23V191.58Z" style="stroke-width: 0px; fill: rgb(242, 196, 129); fill-opacity: 1;"/><path d="M229.21,175.43V163.8H58.84V175.43Z" style="stroke-width: 0px; fill: rgb(242, 196, 129); fill-opacity: 1;"/><path d="M229.21,159.28V147.65H74.95V159.28Z" style="stroke-width: 0px; fill: rgb(242, 196, 129); fill-opacity: 1;"/><path d="M229.21,143.12V131.49H88.77V143.12Z" style="stroke-width: 0px; fill: rgb(242, 196, 129); fill-opacity: 1;"/><path d="M229.21,126.97V115.34H81.86V126.97Z" style="stroke-width: 0px; fill: rgb(242, 196, 129); fill-opacity: 1;"/><path d="M229.21,110.82V99.18H79.56V110.82Z" style="stroke-width: 0px; fill: rgb(242, 196, 129); fill-opacity: 1;"/><path d="M229.21,94.66V83.03H81.86V94.66Z" style="stroke-width: 0px; fill: rgb(242, 196, 129); fill-opacity: 1;"/><path d="M229.21,78.51V66.88H95.67V78.51Z" style="stroke-width: 0px; fill: rgb(242, 196, 129); fill-opacity: 1;"/><path d="M229.21,62.35V50.72H86.47V62.35Z" style="stroke-width: 0px; fill: rgb(242, 196, 129); fill-opacity: 1;"/><path d="M229.21,46.2V34.57H107.19V46.2Z" style="stroke-width: 0px; fill: rgb(242, 196, 129); fill-opacity: 1;"/><path d="M229.21,30.05V18.42H167.05V30.05Z" style="stroke-width: 0px; fill: rgb(242, 196, 129); fill-opacity: 1;"/><path d="M229.21,13.89V2.26H144.02V13.89Z" style="stroke-width: 0px; fill: rgb(242, 196, 129); fill-opacity: 1;"/></g></g><g class="trace bars" style="opacity: 1;"><g class="points"><path d="M229.21,223.89V212.26H249.93V223.89Z" style="stroke-width: 0px; fill: rgb(148, 157, 73); fill-opacity: 1;"/><path d="M229.21,207.74V196.11H261.44V207.74Z" style="stroke-width: 0px; fill: rgb(148, 157, 73); fill-opacity: 1;"/><path d="M229.21,191.58V179.95H263.74V191.58Z" style="stroke-width: 0px; fill: rgb(148, 157, 73); fill-opacity: 1;"/><path d="M229.21,175.43V163.8H268.35V175.43Z" style="stroke-width: 0px; fill: rgb(148, 157, 73); fill-opacity: 1;"/><path d="M229.21,159.28V147.65H277.56V159.28Z" style="stroke-width: 0px; fill: rgb(148, 157, 73); fill-opacity: 1;"/><path d="M229.21,143.12V131.49H289.07V143.12Z" style="stroke-width: 0px; fill: rgb(148, 157, 73); fill-opacity: 1;"/><path d="M229.21,126.97V115.34H291.37V126.97Z" style="stroke-width: 0px; fill: rgb(148, 157, 73); fill-opacity: 1;"/><path d="M229.21,110.82V99.18H293.67V110.82Z" style="stroke-width: 0px; fill: rgb(148, 157, 73); fill-opacity: 1;"/><path d="M229.21,94.66V83.03H293.67V94.66Z" style="stroke-width: 0px; fill: rgb(148, 157, 73); fill-opacity: 1;"/><path d="M229.21,78.51V66.88H293.67V78.51Z" style="stroke-width: 0px; fill: rgb(148, 157, 73); fill-opacity: 1;"/><path d="M229.21,62.35V50.72H305.19V62.35Z" style="stroke-width: 0px; fill: rgb(148, 157, 73); fill-opacity: 1;"/><path d="M229.21,46.2V34.57H319V46.2Z" style="stroke-width: 0px; fill: rgb(148, 157, 73); fill-opacity: 1;"/><path d="M229.21,30.05V18.42H323.6V30.05Z" style="stroke-width: 0px; fill: rgb(148, 157, 73); fill-opacity: 1;"/><path d="M229.21,13.89V2.26H358.14V13.89Z" style="stroke-width: 0px; fill: rgb(148, 157, 73); fill-opacity: 1;"/></g></g></g><g class="errorlayer"><g class="errorbars"/><g class="errorbars"/><g class="errorbars"/><g class="errorbars"/><g class="errorbars"/><g class="errorbars"/></g><g class="boxlayer"/><g class="scatterlayer"/></svg><g/><path class="crisp" transform="translate(80,150)" d="M-1,630.5h442" style="fill: none; stroke-width: 1px; stroke: rgb(0, 0, 0); stroke-opacity: 0;"/><path class="crisp" transform="translate(80,150)" d="M-0.5,-1v631" stroke-width="1px" style="fill: none; stroke: rgb(0, 0, 0); stroke-opacity: 0;"/><g/><g transform="translate(80,150)"><g class="xtick" data-bb="8195"><text text-anchor="middle" x="0" y="644" transform="translate(45.02,0)" style="font-family: Balto, sans-serif; font-size: 12px; fill: rgb(68, 68, 68); fill-opacity: 1; visibility: visible; white-space: pre;" data-bb="8185">−80</text></g><g class="xtick" data-bb="8196"><text text-anchor="middle" x="0" y="644" transform="translate(91.07,0)" style="font-family: Balto, sans-serif; font-size: 12px; fill: rgb(68, 68, 68); fill-opacity: 1; visibility: visible; white-space: pre;" data-bb="8186">−60</text></g><g class="xtick" data-bb="8197"><text text-anchor="middle" x="0" y="644" transform="translate(137.12,0)" style="font-family: Balto, sans-serif; font-size: 12px; fill: rgb(68, 68, 68); fill-opacity: 1; visibility: visible; white-space: pre;" data-bb="8187">−40</text></g><g class="xtick" data-bb="8198"><text text-anchor="middle" x="0" y="644" transform="translate(183.16,0)" style="font-family: Balto, sans-serif; font-size: 12px; fill: rgb(68, 68, 68); fill-opacity: 1; visibility: visible; white-space: pre;" data-bb="8188">−20</text></g><g class="xtick" data-bb="8199"><text text-anchor="middle" x="0" y="644" transform="translate(229.21,0)" style="font-family: Balto, sans-serif; font-size: 12px; fill: rgb(68, 68, 68); fill-opacity: 1; visibility: visible; white-space: pre;" data-bb="8189">0</text></g><g class="xtick" data-bb="8200"><text text-anchor="middle" x="0" y="644" transform="translate(275.26,0)" style="font-family: Balto, sans-serif; font-size: 12px; fill: rgb(68, 68, 68); fill-opacity: 1; visibility: visible; white-space: pre;" data-bb="8190">20</text></g><g class="xtick" data-bb="8201"><text text-anchor="middle" x="0" y="644" transform="translate(321.3,0)" style="font-family: Balto, sans-serif; font-size: 12px; fill: rgb(68, 68, 68); fill-opacity: 1; visibility: visible; white-space: pre;" data-bb="8191">40</text></g><g class="xtick" data-bb="8202"><text text-anchor="middle" x="0" y="644" transform="translate(367.35,0)" style="font-family: Balto, sans-serif; font-size: 12px; fill: rgb(68, 68, 68); fill-opacity: 1; visibility: visible; white-space: pre;" data-bb="8192">60</text></g><g class="xtick" data-bb="8203"><text text-anchor="middle" x="0" y="644" transform="translate(413.4,0)" style="font-family: Balto, sans-serif; font-size: 12px; fill: rgb(68, 68, 68); fill-opacity: 1; visibility: visible; white-space: pre;" data-bb="8193">80</text></g></g><g transform="translate(80,150)"><g class="ytick"><text text-anchor="end" x="-2" y="6" transform="translate(0,621.92)" style="font-family: Balto, sans-serif; font-size: 12px; fill: rgb(68, 68, 68); fill-opacity: 1; visibility: visible; white-space: pre;">Egypt</text></g><g class="ytick"><text text-anchor="end" x="-2" y="6" transform="translate(0,605.77)" style="font-family: Balto, sans-serif; font-size: 12px; fill: rgb(68, 68, 68); fill-opacity: 1; visibility: visible; white-space: pre;">Palest.</text></g><g class="ytick"><text text-anchor="end" x="-2" y="6" transform="translate(0,589.62)" style="font-family: Balto, sans-serif; font-size: 12px; fill: rgb(68, 68, 68); fill-opacity: 1; visibility: visible; white-space: pre;">Lebanon</text></g><g class="ytick"><text text-anchor="end" x="-2" y="6" transform="translate(0,573.46)" style="font-family: Balto, sans-serif; font-size: 12px; fill: rgb(68, 68, 68); fill-opacity: 1; visibility: visible; white-space: pre;">Jordan</text></g><g class="ytick"><text text-anchor="end" x="-2" y="6" transform="translate(0,557.31)" style="font-family: Balto, sans-serif; font-size: 12px; fill: rgb(68, 68, 68); fill-opacity: 1; visibility: visible; white-space: pre;">Uganda</text></g><g class="ytick"><text text-anchor="end" x="-2" y="6" transform="translate(0,541.15)" style="font-family: Balto, sans-serif; font-size: 12px; fill: rgb(68, 68, 68); fill-opacity: 1; visibility: visible; white-space: pre;">El Salvador</text></g><g class="ytick"><text text-anchor="end" x="-2" y="6" transform="translate(0,525)" style="font-family: Balto, sans-serif; font-size: 12px; fill: rgb(68, 68, 68); fill-opacity: 1; visibility: visible; white-space: pre;">Pakistan</text></g><g class="ytick"><text text-anchor="end" x="-2" y="6" transform="translate(0,508.85)" style="font-family: Balto, sans-serif; font-size: 12px; fill: rgb(68, 68, 68); fill-opacity: 1; visibility: visible; white-space: pre;">Tunisia</text></g><g class="ytick"><text text-anchor="end" x="-2" y="6" transform="translate(0,492.69)" style="font-family: Balto, sans-serif; font-size: 12px; fill: rgb(68, 68, 68); fill-opacity: 1; visibility: visible; white-space: pre;">Senegal</text></g><g class="ytick"><text text-anchor="end" x="-2" y="6" transform="translate(0,476.54)" style="font-family: Balto, sans-serif; font-size: 12px; fill: rgb(68, 68, 68); fill-opacity: 1; visibility: visible; white-space: pre;">Bolivia</text></g><g class="ytick"><text text-anchor="end" x="-2" y="6" transform="translate(0,460.38)" style="font-family: Balto, sans-serif; font-size: 12px; fill: rgb(68, 68, 68); fill-opacity: 1; visibility: visible; white-space: pre;">Kenya</text></g><g class="ytick"><text text-anchor="end" x="-2" y="6" transform="translate(0,444.23)" style="font-family: Balto, sans-serif; font-size: 12px; fill: rgb(68, 68, 68); fill-opacity: 1; visibility: visible; white-space: pre;">Philippines</text></g><g class="ytick"><text text-anchor="end" x="-2" y="6" transform="translate(0,428.08)" style="font-family: Balto, sans-serif; font-size: 12px; fill: rgb(68, 68, 68); fill-opacity: 1; visibility: visible; white-space: pre;">Ghana</text></g><g class="ytick"><text text-anchor="end" x="-2" y="6" transform="translate(0,411.92)" style="font-family: Balto, sans-serif; font-size: 12px; fill: rgb(68, 68, 68); fill-opacity: 1; visibility: visible; white-space: pre;">Nigeria</text></g><g class="ytick"><text text-anchor="end" x="-2" y="6" transform="translate(0,395.77)" style="font-family: Balto, sans-serif; font-size: 12px; fill: rgb(68, 68, 68); fill-opacity: 1; visibility: visible; white-space: pre;">Turkey</text></g><g class="ytick"><text text-anchor="end" x="-2" y="6" transform="translate(0,379.62)" style="font-family: Balto, sans-serif; font-size: 12px; fill: rgb(68, 68, 68); fill-opacity: 1; visibility: visible; white-space: pre;">S. Africa</text></g><g class="ytick"><text text-anchor="end" x="-2" y="6" transform="translate(0,363.46)" style="font-family: Balto, sans-serif; font-size: 12px; fill: rgb(68, 68, 68); fill-opacity: 1; visibility: visible; white-space: pre;">Russia</text></g><g class="ytick"><text text-anchor="end" x="-2" y="6" transform="translate(0,347.31)" style="font-family: Balto, sans-serif; font-size: 12px; fill: rgb(68, 68, 68); fill-opacity: 1; visibility: visible; white-space: pre;">Mexico</text></g><g class="ytick"><text text-anchor="end" x="-2" y="6" transform="translate(0,331.15)" style="font-family: Balto, sans-serif; font-size: 12px; fill: rgb(68, 68, 68); fill-opacity: 1; visibility: visible; white-space: pre;">Argentina</text></g><g class="ytick"><text text-anchor="end" x="-2" y="6" transform="translate(0,315)" style="font-family: Balto, sans-serif; font-size: 12px; fill: rgb(68, 68, 68); fill-opacity: 1; visibility: visible; white-space: pre;">Indonesia</text></g><g class="ytick"><text text-anchor="end" x="-2" y="6" transform="translate(0,298.85)" style="font-family: Balto, sans-serif; font-size: 12px; fill: rgb(68, 68, 68); fill-opacity: 1; visibility: visible; white-space: pre;">Venezeula</text></g><g class="ytick"><text text-anchor="end" x="-2" y="6" transform="translate(0,282.69)" style="font-family: Balto, sans-serif; font-size: 12px; fill: rgb(68, 68, 68); fill-opacity: 1; visibility: visible; white-space: pre;">Malaysia</text></g><g class="ytick"><text text-anchor="end" x="-2" y="6" transform="translate(0,266.54)" style="font-family: Balto, sans-serif; font-size: 12px; fill: rgb(68, 68, 68); fill-opacity: 1; visibility: visible; white-space: pre;">Chile</text></g><g class="ytick"><text text-anchor="end" x="-2" y="6" transform="translate(0,250.38)" style="font-family: Balto, sans-serif; font-size: 12px; fill: rgb(68, 68, 68); fill-opacity: 1; visibility: visible; white-space: pre;">Brazil</text></g><g class="ytick"><text text-anchor="end" x="-2" y="6" transform="translate(0,234.23)" style="font-family: Balto, sans-serif; font-size: 12px; fill: rgb(68, 68, 68); fill-opacity: 1; visibility: visible; white-space: pre;">China</text></g><g class="ytick"><text text-anchor="end" x="-2" y="6" transform="translate(0,218.08)" style="font-family: Balto, sans-serif; font-size: 12px; fill: rgb(68, 68, 68); fill-opacity: 1; visibility: visible; white-space: pre;">France</text></g><g class="ytick"><text text-anchor="end" x="-2" y="6" transform="translate(0,201.92)" style="font-family: Balto, sans-serif; font-size: 12px; fill: rgb(68, 68, 68); fill-opacity: 1; visibility: visible; white-space: pre;">Italy</text></g><g class="ytick"><text text-anchor="end" x="-2" y="6" transform="translate(0,185.77)" style="font-family: Balto, sans-serif; font-size: 12px; fill: rgb(68, 68, 68); fill-opacity: 1; visibility: visible; white-space: pre;">Japan</text></g><g class="ytick"><text text-anchor="end" x="-2" y="6" transform="translate(0,169.62)" style="font-family: Balto, sans-serif; font-size: 12px; fill: rgb(68, 68, 68); fill-opacity: 1; visibility: visible; white-space: pre;">Britain</text></g><g class="ytick"><text text-anchor="end" x="-2" y="6" transform="translate(0,153.46)" style="font-family: Balto, sans-serif; font-size: 12px; fill: rgb(68, 68, 68); fill-opacity: 1; visibility: visible; white-space: pre;">Greece</text></g><g class="ytick"><text text-anchor="end" x="-2" y="6" transform="translate(0,137.31)" style="font-family: Balto, sans-serif; font-size: 12px; fill: rgb(68, 68, 68); fill-opacity: 1; visibility: visible; white-space: pre;">Poland</text></g><g class="ytick"><text text-anchor="end" x="-2" y="6" transform="translate(0,121.15)" style="font-family: Balto, sans-serif; font-size: 12px; fill: rgb(68, 68, 68); fill-opacity: 1; visibility: visible; white-space: pre;">Canada</text></g><g class="ytick"><text text-anchor="end" x="-2" y="6" transform="translate(0,105)" style="font-family: Balto, sans-serif; font-size: 12px; fill: rgb(68, 68, 68); fill-opacity: 1; visibility: visible; white-space: pre;">Spain</text></g><g class="ytick"><text text-anchor="end" x="-2" y="6" transform="translate(0,88.85)" style="font-family: Balto, sans-serif; font-size: 12px; fill: rgb(68, 68, 68); fill-opacity: 1; visibility: visible; white-space: pre;">Germany</text></g><g class="ytick"><text text-anchor="end" x="-2" y="6" transform="translate(0,72.69)" style="font-family: Balto, sans-serif; font-size: 12px; fill: rgb(68, 68, 68); fill-opacity: 1; visibility: visible; white-space: pre;">Czech Rep.</text></g><g class="ytick"><text text-anchor="end" x="-2" y="6" transform="translate(0,56.54)" style="font-family: Balto, sans-serif; font-size: 12px; fill: rgb(68, 68, 68); fill-opacity: 1; visibility: visible; white-space: pre;">U.S.</text></g><g class="ytick"><text text-anchor="end" x="-2" y="6" transform="translate(0,40.38)" style="font-family: Balto, sans-serif; font-size: 12px; fill: rgb(68, 68, 68); fill-opacity: 1; visibility: visible; white-space: pre;">Australia</text></g><g class="ytick"><text text-anchor="end" x="-2" y="6" transform="translate(0,24.23)" style="font-family: Balto, sans-serif; font-size: 12px; fill: rgb(68, 68, 68); fill-opacity: 1; visibility: visible; white-space: pre;">Israel</text></g><g class="ytick"><text text-anchor="end" x="-2" y="6" transform="translate(0,8.08)" style="font-family: Balto, sans-serif; font-size: 12px; fill: rgb(68, 68, 68); fill-opacity: 1; visibility: visible; white-space: pre;">S. Korea</text></g></g><g/></g><g class="shapelayer"/><g class="pielayer"/><g class="glimages"/><g class="geoimages"/><text class="js-plot-link-container" y="891" text-anchor="end" x="593" style="font-family: 'Open Sans', Arial, sans-serif; font-size: 12px; fill: rgb(68, 68, 68); pointer-events: all;"><tspan class="js-link-to-tool"/><tspan class="js-link-spacer"/><tspan class="js-sourcelinks"/></text><g class="infolayer"><g class="g-gtitle"><text class="gtitle" x="300" y="75" text-anchor="middle" style="font-family: Balto, sans-serif; font-size: 17px; fill: rgb(68, 68, 68); opacity: 1; white-space: pre; visibility: visible;"><tspan class="line" dy="0em" x="300" y="75" text-anchor="middle">Emerging Markets: More Hopeful for Children</tspan><tspan class="line" dy="1.3em" x="300" y="75" text-anchor="middle"/><tspan class="line" dy="2.6em" x="300" y="75" text-anchor="middle"><tspan style="font-style:italic">Children will be ____ than parents</tspan></tspan></text></g><g class="g-xtitle" data-bb="8194"><text class="xtitle" x="300" y="832" text-anchor="middle" style="font-family: Balto, sans-serif; font-size: 14px; fill: rgb(68, 68, 68); opacity: 1; white-space: pre; visibility: visible;"><tspan class="line" dy="0em" x="300" y="832" text-anchor="middle">Percent</tspan><tspan class="line" dy="1.3em" x="300" y="832" text-anchor="middle">Data may not add up to 100%</tspan><tspan class="line" dy="2.6em" x="300" y="832" text-anchor="middle">due to non-responders</tspan></text></g><g class="g-ytitle"/><svg class="legend" x="412" y="202" width="99" height="48"><rect class="bg" x="0" y="0" width="99" height="48" style="stroke: rgb(68, 68, 68); stroke-opacity: 1; fill: rgb(255, 255, 255); fill-opacity: 0; stroke-width: 0px;"/><g class="groups"><g class="traces" transform="translate(0,14.5)" style="opacity: 1;"><g class="legendfill"/><g class="legendlines"/><g class="legendsymbols" style="opacity: 1;"><g class="legendpoints"><path class="legendbar" d="M6,6H-6V-6H6Z" transform="translate(20,0)" style="stroke-width: 0px; fill: rgb(148, 157, 73); fill-opacity: 1;"/></g></g><text class="legendtext" x="40" y="4.680000000000001" style="text-anchor: start; font-family: Balto, sans-serif; font-size: 12px; fill: rgb(68, 68, 68); fill-opacity: 1; white-space: pre; visibility: visible;" data-bb="8212">Better Off</text><rect class="legendtoggle" pointer-events="all" x="0" y="-9.5" height="19" style="cursor: pointer; fill: rgb(0, 0, 0); fill-opacity: 0;" width="93.9375"/></g><g class="traces" transform="translate(0,33.5)" style="opacity: 1;"><g class="legendfill"/><g class="legendlines"/><g class="legendsymbols" style="opacity: 1;"><g class="legendpoints"><path class="legendbar" d="M6,6H-6V-6H6Z" transform="translate(20,0)" style="stroke-width: 0px; fill: rgb(242, 196, 129); fill-opacity: 1;"/></g></g><text class="legendtext" x="40" y="4.680000000000001" style="text-anchor: start; font-family: Balto, sans-serif; font-size: 12px; fill: rgb(68, 68, 68); fill-opacity: 1; white-space: pre; visibility: visible;" data-bb="8213">Worse Off</text><rect class="legendtoggle" pointer-events="all" x="0" y="-9.5" height="19" width="93.9375" style="cursor: pointer; fill: rgb(0, 0, 0); fill-opacity: 0;"/></g></g></svg><g class="annotation" data-index="0" style="opacity: 1;"><g class="annotation-text-g" data-index="0" transform="rotate(0,190,563.4833374023438)" x="190" y="563.4833374023438"><svg x="154" y="554" width="72" height="18"><rect class="bg" x="0.5" y="0.5" width="71" height="17" style="stroke-width: 1px; stroke: rgb(0, 0, 0); stroke-opacity: 0; fill: rgb(0, 0, 0); fill-opacity: 0;"/><text class="annotation" text-anchor="middle" style="font-family: Balto, sans-serif; font-size: 14px; fill: rgb(68, 68, 68); fill-opacity: 1; visibility: visible; white-space: pre;" data-bb="8208" x="36.1875" y="13">Developing</text></svg></g><g class="annotation-arrow-g" data-index="0" style="opacity: 0;"><path d="M169.61235313297828,571.9833374023438L124,591" style="stroke-width: 2px; stroke: rgb(68, 68, 68); stroke-opacity: 1; stroke-dasharray: 48.2178123474121px, 49.4178123474121px;"/><path d="M-2.4,-3V3L0.6,0Z" transform="translate(125.10759735107422,590.5382080078125)rotate(157.38349795397906)scale(2)" style="fill: rgb(68, 68, 68); opacity: 1; stroke-width: 0px;"/><path class="annotation anndrag" data-index="0" d="M3,3H-3V-3H3ZM0,0L45.612353132978285,-19.01666259765625" transform="translate(124,591)" style="stroke-width: 8px; stroke: rgb(0, 0, 0); stroke-opacity: 0; fill: rgb(0, 0, 0); fill-opacity: 0;"/></g></g><g class="annotation" data-index="1" style="opacity: 1;"><g class="annotation-text-g" data-index="1" transform="rotate(0,222,386.48333740234375)" x="222" y="386.48333740234375"><svg x="191" y="377" width="62" height="18"><rect class="bg" x="0.5" y="0.5" width="61" height="17" style="stroke-width: 1px; stroke: rgb(0, 0, 0); stroke-opacity: 0; fill: rgb(0, 0, 0); fill-opacity: 0;"/><text class="annotation" text-anchor="middle" style="font-family: Balto, sans-serif; font-size: 14px; fill: rgb(68, 68, 68); fill-opacity: 1; visibility: visible; white-space: pre;" data-bb="8209" x="31.046875" y="13">Emerging</text></svg></g><g class="annotation-arrow-g" data-index="1" style="opacity: 0;"><path d="M217.92698223499397,394.98333740234375L124,591" style="stroke-width: 2px; stroke: rgb(68, 68, 68); stroke-opacity: 1; stroke-dasharray: 216.15871887207px, 217.35871887207px;"/><path d="M-2.4,-3V3L0.6,0Z" transform="translate(124.5185546875,589.9178466796875)rotate(115.59561904370777)scale(2)" style="fill: rgb(68, 68, 68); opacity: 1; stroke-width: 0px;"/><path class="annotation anndrag" data-index="1" d="M3,3H-3V-3H3ZM0,0L93.92698223499397,-196.01666259765625" transform="translate(124,591)" style="stroke-width: 8px; stroke: rgb(0, 0, 0); stroke-opacity: 0; fill: rgb(0, 0, 0); fill-opacity: 0;"/></g></g><g class="annotation" data-index="2" style="opacity: 1;"><g class="annotation-text-g" data-index="2" transform="rotate(0,183,156.48333740234375)" x="183" y="156.48333740234375"><svg x="151" y="147" width="65" height="18"><rect class="bg" x="0.5" y="0.5" width="64" height="17" style="stroke-width: 1px; stroke: rgb(0, 0, 0); stroke-opacity: 0; fill: rgb(0, 0, 0); fill-opacity: 0;"/><text class="annotation" text-anchor="middle" style="font-family: Balto, sans-serif; font-size: 14px; fill: rgb(68, 68, 68); fill-opacity: 1; visibility: visible; white-space: pre;" data-bb="8210" x="32.71875" y="13">Advanced</text></svg></g><g class="annotation-arrow-g" data-index="2" style="opacity: 0;"><path d="M181.84584403046387,164.98333740234375L124,591" style="stroke-width: 2px; stroke: rgb(68, 68, 68); stroke-opacity: 1; stroke-dasharray: 428.725964355469px, 429.925964355469px;"/><path d="M-2.4,-3V3L0.6,0Z" transform="translate(124.16146087646484,589.8109130859375)rotate(97.73210122676277)scale(2)" style="fill: rgb(68, 68, 68); opacity: 1; stroke-width: 0px;"/><path class="annotation anndrag" data-index="2" d="M3,3H-3V-3H3ZM0,0L57.845844030463866,-426.01666259765625" transform="translate(124,591)" style="stroke-width: 8px; stroke: rgb(0, 0, 0); stroke-opacity: 0; fill: rgb(0, 0, 0); fill-opacity: 0;"/></g></g><g class="annotation" data-index="3" style="opacity: 1;"><g class="annotation-text-g" data-index="3" transform="rotate(0,459,769.4833374023438)" x="459" y="769.4833374023438"><svg x="400" y="753" width="118" height="32"><rect class="bg" x="0.5" y="0.5" width="117" height="31" style="stroke-width: 1px; stroke: rgb(0, 0, 0); stroke-opacity: 0; fill: rgb(0, 0, 0); fill-opacity: 0;"/><text class="annotation" text-anchor="middle" style="font-family: Balto, sans-serif; font-size: 12px; fill: rgb(68, 68, 68); fill-opacity: 1; visibility: visible; white-space: pre; pointer-events: all;" data-bb="8211" x="58.984375" y="12"><tspan class="line" dy="0em" y="12" x="58.984375">Source &amp; Data:</tspan><tspan class="line" dy="1.3em" y="12" x="58.984375"><a xlink:show="new" xlink:href="http://www.pewglobal.org/2013/05/23/chapter-3-inequality-and-economic-mobility/#real-divisions-in-faithin-economic-mobility">Pew Research Center</a></tspan></text></svg></g><g class="annotation-arrow-g" data-index="3" style="opacity: 0;"><path d="M429.90764843614016,753.9833374023438L124,591" style="stroke-width: 2px; stroke: rgb(68, 68, 68); stroke-opacity: 1; stroke-dasharray: 345.416607666016px, 346.616607666016px;"/><path d="M-2.4,-3V3L0.6,0Z" transform="translate(125.05907440185547,591.5642700195312)rotate(-151.9665991092294)scale(2)" style="fill: rgb(68, 68, 68); opacity: 1; stroke-width: 0px;"/><path class="annotation anndrag" data-index="3" d="M3,3H-3V-3H3ZM0,0L305.90764843614016,162.98333740234375" transform="translate(124,591)" style="stroke-width: 8px; stroke: rgb(0, 0, 0); stroke-opacity: 0; fill: rgb(0, 0, 0); fill-opacity: 0;"/></g></g></g></svg>