<svg width="976" height="662" xmlns="http://www.w3.org/2000/svg" xmlns:xlink="http://www.w3.org/1999/xlink" version="1.1" baseProfile="full" style="position:absolute;left:0;top:0;user-select:none"><rect width="976" height="662" x="0" y="0" id="0" fill="none"></rect><g><path d="M488 331A0 0 0 1 1 488 331M537.65 331A49.65 49.65 0 1 1 537.65 330.995M587.3 331A99.3 99.3 0 1 1 587.3 330.9901M636.95 331A148.95 148.95 0 1 1 636.95 330.9851M686.6 331A198.6 198.6 0 1 1 686.6 330.9801M736.25 331A248.25 248.25 0 1 1 736.25 330.9752" fill="none" stroke="#e6e6e6"></path><text dominant-baseline="central" text-anchor="middle" style="font-size:20px;font-family:Microsoft YaHei;" x="537.9918950166328" y="69.6737718966722" fill="#333333">N</text><text dominant-baseline="central" text-anchor="start" style="font-size:20px;font-family:Microsoft YaHei;" x="630.3648722112731" y="107.9359118474728" fill="#333333">NNE</text><text dominant-baseline="central" text-anchor="start" style="font-size:20px;font-family:Microsoft YaHei;" x="701.0640881525272" y="178.63512778872695" fill="#333333">NE</text><text dominant-baseline="central" text-anchor="start" style="font-size:20px;font-family:Microsoft YaHei;" x="739.3262281033278" y="281.00810498336716" fill="#333333">ENE</text><text dominant-baseline="central" text-anchor="start" style="font-size:20px;font-family:Microsoft YaHei;" x="739.3262281033278" y="380.99189501663284" fill="#333333">E</text><text dominant-baseline="central" text-anchor="start" style="font-size:20px;font-family:Microsoft YaHei;" x="701.0640881525272" y="483.36487221127305" fill="#333333">ESE</text><text dominant-baseline="central" text-anchor="start" style="font-size:20px;font-family:Microsoft YaHei;" x="630.3648722112731" y="554.0640881525272" fill="#333333">SE</text><text dominant-baseline="central" text-anchor="middle" style="font-size:20px;font-family:Microsoft YaHei;" x="537.9918950166328" y="592.3262281033278" fill="#333333">SSE</text><text dominant-baseline="central" text-anchor="middle" style="font-size:20px;font-family:Microsoft YaHei;" x="438.00810498336716" y="592.3262281033278" fill="#333333">S</text><text dominant-baseline="central" text-anchor="end" style="font-size:20px;font-family:Microsoft YaHei;" x="345.635127788727" y="554.0640881525272" fill="#333333">SSW</text><text dominant-baseline="central" text-anchor="end" style="font-size:20px;font-family:Microsoft YaHei;" x="274.93591184747277" y="483.36487221127305" fill="#333333">SW</text><text dominant-baseline="central" text-anchor="end" style="font-size:20px;font-family:Microsoft YaHei;" x="236.6737718966722" y="380.99189501663295" fill="#333333">WSW</text><text dominant-baseline="central" text-anchor="end" style="font-size:20px;font-family:Microsoft YaHei;" x="236.6737718966722" y="281.0081049833671" fill="#333333">W</text><text dominant-baseline="central" text-anchor="end" style="font-size:20px;font-family:Microsoft YaHei;" x="274.93591184747277" y="178.635127788727" fill="#333333">WNW</text><text dominant-baseline="central" text-anchor="end" style="font-size:20px;font-family:Microsoft YaHei;" x="345.63512778872695" y="107.9359118474728" fill="#333333">NW</text><text dominant-baseline="central" text-anchor="middle" style="font-size:20px;font-family:Microsoft YaHei;" x="438.00810498336705" y="69.67377189667224" fill="#333333">NNW</text><path d="M488 77.75L488 82.75M584.9146 97.0275L583.0012 101.6469M667.0748 151.9252L663.5393 155.4607M721.9725 234.0854L717.3531 235.9988M741.25 331L736.25 331M721.9725 427.9146L717.3531 426.0012M667.0748 510.0748L663.5393 506.5393M584.9146 564.9725L583.0012 560.3531M488 584.25L488 579.25M391.0854 564.9725L392.9988 560.3531M308.9252 510.0748L312.4607 506.5393M254.0275 427.9146L258.6469 426.0012M234.75 331L239.75 331M254.0275 234.0854L258.6469 235.9988M308.9252 151.9252L312.4607 155.4607M391.0854 97.0275L392.9988 101.6469" fill="#000" stroke="#6E7079"></path><path d="M488.5 331L488.5 82.75" fill="none" stroke="#6E7079" stroke-linecap="round"></path><path d="M736.25 331A248.25 248.25 0 1 1 736.25 330.9752" fill="none" stroke="#6E7079"></path><path d="M488 331.5L483 331.5" fill="none" stroke="#6E7079"></path><path d="M488 281.5L483 281.5" fill="none" stroke="#6E7079"></path><path d="M488 231.5L483 231.5" fill="none" stroke="#6E7079"></path><path d="M488 182.5L483 182.5" fill="none" stroke="#6E7079"></path><path d="M488 132.5L483 132.5" fill="none" stroke="#6E7079"></path><path d="M488 83.5L483 83.5" fill="none" stroke="#6E7079"></path><text dominant-baseline="central" text-anchor="end" style="font-size:14px;font-family:Microsoft YaHei;" transform="translate(480 331)" fill="#333333">0%</text><text dominant-baseline="central" text-anchor="end" style="font-size:14px;font-family:Microsoft YaHei;" transform="translate(480 281.35)" fill="#333333">20%</text><text dominant-baseline="central" text-anchor="end" style="font-size:14px;font-family:Microsoft YaHei;" transform="translate(480 231.7)" fill="#333333">40%</text><text dominant-baseline="central" text-anchor="end" style="font-size:14px;font-family:Microsoft YaHei;" transform="translate(480 182.05)" fill="#333333">60%</text><text dominant-baseline="central" text-anchor="end" style="font-size:14px;font-family:Microsoft YaHei;" transform="translate(480 132.4)" fill="#333333">80%</text><text dominant-baseline="central" text-anchor="end" style="font-size:14px;font-family:Microsoft YaHei;" transform="translate(480 82.75)" fill="#333333">100%</text><path d="M489.1004 302.9934A28.0282 28.0282 0 0 1 497.701 304.7042L488 331Z" fill="#660802"></path><path d="M499.878 305.2347A28.3714 28.3714 0 0 1 507.2585 310.1662L488 331Z" fill="#660802"></path><path d="M506.4938 313.9046A25.1848 25.1848 0 0 1 510.8714 320.4561L488 331Z" fill="#660802"></path><path d="M512.5164 321.9554A26.1316 26.1316 0 0 1 514.1114 329.9741L488 331Z" fill="#660802"></path><path d="M515.7678 332.091A27.7892 27.7892 0 0 1 514.0716 340.6183L488 331Z" fill="#660802"></path><path d="M517.3081 344.5112A32.2725 32.2725 0 0 1 511.6984 352.9066L488 331Z" fill="#660802"></path><path d="M509.4939 354.252A31.6645 31.6645 0 0 1 501.2567 359.7559L488 331Z" fill="#660802"></path><path d="M498.8639 360.4479A31.3879 31.3879 0 0 1 489.2323 362.3637L488 331Z" fill="#660802"></path><path d="M486.8534 360.1834A29.2059 29.2059 0 0 1 477.8913 358.4007L488 331Z" fill="#660802"></path><path d="M475.2083 358.7473A30.5538 30.5538 0 0 1 467.26 353.4364L488 331Z" fill="#660802"></path><path d="M467.0279 350.3864A28.5597 28.5597 0 0 1 462.0637 342.9568L488 331Z" fill="#660802"></path><path d="M461.1262 340.9143A28.6442 28.6442 0 0 1 459.3779 332.1246L488 331Z" fill="#660802"></path><path d="M458.1134 329.8258A29.9096 29.9096 0 0 1 459.939 320.6478L488 331Z" fill="#660802"></path><path d="M462.2347 319.122A28.3714 28.3714 0 0 1 467.1662 311.7415L488 331Z" fill="#660802"></path><path d="M466.936 308.2131A31.0313 31.0313 0 0 1 475.0085 302.8192L488 331Z" fill="#660802"></path><path d="M478.1399 304.2731A28.4877 28.4877 0 0 1 486.8816 302.5343L488 331Z" fill="#660802"></path><path d="M490.358 270.9858A60.0605 60.0605 0 0 1 508.788 274.6518L497.701 304.7042A28.0282 28.0282 0 0 0 489.1004 302.9934Z" fill="#E74510"></path><path d="M513.2407 276.2487A60.2893 60.2893 0 0 1 528.9244 286.7282L507.2585 310.1662A28.3714 28.3714 0 0 0 499.878 305.2347Z" fill="#E74510"></path><path d="M540.8393 282.1559A71.9565 71.9565 0 0 1 553.3468 300.8747L510.8714 320.4561A25.1848 25.1848 0 0 0 506.4938 313.9046Z" fill="#E74510"></path><path d="M549.2911 308.3885A65.3289 65.3289 0 0 1 553.2786 328.4352L514.1114 329.9741A26.1316 26.1316 0 0 0 512.5164 321.9554Z" fill="#E74510"></path><path d="M567.6009 334.1275A79.6623 79.6623 0 0 1 562.7385 358.5725L514.0716 340.6183A27.7892 27.7892 0 0 0 515.7678 332.091Z" fill="#E74510"></path><path d="M556.7612 362.6993A75.7163 75.7163 0 0 1 543.6001 382.3962L511.6984 352.9066A32.2725 32.2725 0 0 0 517.3081 344.5112Z" fill="#E74510"></path><path d="M537.0061 384.0145A72.1952 72.1952 0 0 1 518.2252 396.5635L501.2567 359.7559A31.6645 31.6645 0 0 0 509.4939 354.252Z" fill="#E74510"></path><path d="M515.1597 404.6197A78.4698 78.4698 0 0 1 491.0807 409.4093L489.2323 362.3637A31.3879 31.3879 0 0 0 498.8639 360.4479Z" fill="#E74510"></path><path d="M485.0698 405.5797A74.6373 74.6373 0 0 1 462.1668 401.024L477.8913 358.4007A29.2059 29.2059 0 0 0 486.8534 360.1834Z" fill="#E74510"></path><path d="M454.4219 403.8366A80.2038 80.2038 0 0 1 433.5576 389.8955L467.26 353.4364A30.5538 30.5538 0 0 0 475.2083 358.7473Z" fill="#E74510"></path><path d="M431.5368 383.1941A76.8916 76.8916 0 0 1 418.1714 363.1914L462.0637 342.9568A28.5597 28.5597 0 0 0 467.0279 350.3864Z" fill="#E74510"></path><path d="M416.3366 357.438A76.3846 76.3846 0 0 1 411.6743 333.9988L459.3779 332.1246A28.6442 28.6442 0 0 0 461.1262 340.9143Z" fill="#E74510"></path><path d="M410.2949 327.947A77.7651 77.7651 0 0 1 415.0415 304.0842L459.939 320.6478A29.9096 29.9096 0 0 0 458.1134 329.8258Z" fill="#E74510"></path><path d="M420.366 299.8203A74.475 74.475 0 0 1 433.3113 280.4463L467.1662 311.7415A28.3714 28.3714 0 0 0 462.2347 319.122Z" fill="#E74510"></path><path d="M434.1697 272.7667A79.3021 79.3021 0 0 1 454.7994 258.9824L475.0085 302.8192A31.0313 31.0313 0 0 0 466.936 308.2131Z" fill="#E74510"></path><path d="M461.2369 258.4555A77.3238 77.3238 0 0 1 484.9643 253.7358L486.8816 302.5343A28.4877 28.4877 0 0 0 478.1399 304.2731Z" fill="#E74510"></path><path d="M492.5587 214.9726A116.1169 116.1169 0 0 1 528.1901 222.0601L508.788 274.6518A60.0605 60.0605 0 0 0 490.358 270.9858Z" fill="#F69A1B"></path><path d="M536.9966 224.7181A117.0321 117.0321 0 0 1 567.4415 245.0607L528.9244 286.7282A60.2893 60.2893 0 0 0 513.2407 276.2487Z" fill="#F69A1B"></path><path d="M577.8268 247.965A122.3261 122.3261 0 0 1 599.0896 279.787L553.3468 300.8747A71.9565 71.9565 0 0 0 540.8393 282.1559Z" fill="#F69A1B"></path><path d="M598.3239 290.2994A117.5921 117.5921 0 0 1 605.5014 326.3834L553.2786 328.4352A65.3289 65.3289 0 0 0 549.2911 308.3885Z" fill="#F69A1B"></path><path d="M619.434 336.1641A131.5354 131.5354 0 0 1 611.4054 376.5267L562.7385 358.5725A79.6623 79.6623 0 0 0 567.6009 334.1275Z" fill="#F69A1B"></path><path d="M595.0871 380.3678A117.9188 117.9188 0 0 1 574.5904 411.0433L543.6001 382.3962A75.7163 75.7163 0 0 0 556.7612 362.6993Z" fill="#F69A1B"></path><path d="M565.3781 414.7071A113.9923 113.9923 0 0 1 535.724 434.5214L518.2252 396.5635A72.1952 72.1952 0 0 0 537.0061 384.0145Z" fill="#F69A1B"></path><path d="M530.9618 447.453A124.125 124.125 0 0 1 492.8731 455.0293L491.0807 409.4093A78.4698 78.4698 0 0 0 515.1597 404.6197Z" fill="#F69A1B"></path><path d="M483.2861 450.9761A120.0686 120.0686 0 0 1 446.4422 443.6473L462.1668 401.024A74.6373 74.6373 0 0 0 485.0698 405.5797Z" fill="#F69A1B"></path><path d="M435.2344 445.4575A126.0346 126.0346 0 0 1 402.4476 423.5501L433.5576 389.8955A80.2038 80.2038 0 0 0 454.4219 403.8366Z" fill="#F69A1B"></path><path d="M396.0456 416.0018A125.2235 125.2235 0 0 1 374.2792 383.426L418.1714 363.1914A76.8916 76.8916 0 0 0 431.5368 383.1941Z" fill="#F69A1B"></path><path d="M373.7865 373.1356A121.738 121.738 0 0 1 366.3559 335.7794L411.6743 333.9988A76.3846 76.3846 0 0 0 416.3366 357.438Z" fill="#F69A1B"></path><path d="M368.4537 326.303A119.6386 119.6386 0 0 1 375.7561 289.5911L415.0415 304.0842A77.7651 77.7651 0 0 0 410.2949 327.947Z" fill="#F69A1B"></path><path d="M381.7181 282.0034A117.0321 117.0321 0 0 1 402.0607 251.5585L433.3113 280.4463A74.475 74.475 0 0 0 420.366 299.8203Z" fill="#F69A1B"></path><path d="M403.7439 239.8522A124.125 124.125 0 0 1 436.0339 218.2767L454.7994 258.9824A79.3021 79.3021 0 0 0 434.1697 272.7667Z" fill="#F69A1B"></path><path d="M445.7425 216.4561A122.0902 122.0902 0 0 1 483.2068 209.004L484.9643 253.7358A77.3238 77.3238 0 0 0 461.2369 258.4555Z" fill="#F69A1B"></path><path d="M493.5019 190.9669A140.1411 140.1411 0 0 1 536.5052 199.5208L528.1901 222.0601A116.1169 116.1169 0 0 0 492.5587 214.9726Z" fill="#FADC64"></path><path d="M547.3899 202.1734A141.8571 141.8571 0 0 1 584.2927 226.8311L567.4415 245.0607A117.0321 117.0321 0 0 0 536.9966 224.7181Z" fill="#FADC64"></path><path d="M593.6786 233.3117A143.913 143.913 0 0 1 618.6936 270.7494L599.0896 279.787A122.3261 122.3261 0 0 0 577.8268 247.965Z" fill="#FADC64"></path><path d="M620.7973 282.0085A141.5461 141.5461 0 0 1 629.4369 325.4429L605.5014 326.3834A117.5921 117.5921 0 0 0 598.3239 290.2994Z" fill="#FADC64"></path><path d="M643.4994 337.1096A155.6194 155.6194 0 0 1 634.0008 384.8625L611.4054 376.5267A131.5354 131.5354 0 0 0 619.434 336.1641Z" fill="#FADC64"></path><path d="M623.2679 393.3594A148.95 148.95 0 0 1 597.3773 432.1074L574.5904 411.0433A117.9188 117.9188 0 0 0 595.0871 380.3678Z" fill="#FADC64"></path><path d="M586.0122 437.0291A144.3903 144.3903 0 0 1 548.4504 462.1271L535.724 434.5214A113.9923 113.9923 0 0 0 565.3781 414.7071Z" fill="#FADC64"></path><path d="M541.3319 475.5623A154.0862 154.0862 0 0 1 494.0494 484.9674L492.8731 455.0293A124.125 124.125 0 0 0 530.9618 447.453Z" fill="#FADC64"></path><path d="M482.2032 478.5381A147.652 147.652 0 0 1 436.8951 469.5258L446.4422 443.6473A120.0686 120.0686 0 0 0 483.2861 450.9761Z" fill="#FADC64"></path><path d="M423.2422 471.4705A154.6788 154.6788 0 0 1 383.0039 444.5842L402.4476 423.5501A126.0346 126.0346 0 0 0 435.2344 445.4575Z" fill="#FADC64"></path><path d="M376.6868 433.8969A151.5863 151.5863 0 0 1 350.338 394.4631L374.2792 383.426A125.2235 125.2235 0 0 0 396.0456 416.0018Z" fill="#FADC64"></path><path d="M349.1522 382.2237A147.9952 147.9952 0 0 1 340.1189 336.8103L366.3559 335.7794A121.738 121.738 0 0 0 373.7865 373.1356Z" fill="#FADC64"></path><path d="M341.5558 325.2462A146.5572 146.5572 0 0 1 350.5013 280.274L375.7561 289.5911A119.6386 119.6386 0 0 0 368.4537 326.303Z" fill="#FADC64"></path><path d="M359.1734 271.6101A141.8571 141.8571 0 0 1 383.8311 234.7073L402.0607 251.5585A117.0321 117.0321 0 0 0 381.7181 282.0034Z" fill="#FADC64"></path><path d="M385.0203 219.5972A151.7083 151.7083 0 0 1 424.4858 193.2271L436.0339 218.2767A124.125 124.125 0 0 0 403.7439 239.8522Z" fill="#FADC64"></path><path d="M437.291 193.5473A146.5082 146.5082 0 0 1 482.2481 184.6048L483.2068 209.004A122.0902 122.0902 0 0 0 445.7425 216.4561Z" fill="#FADC64"></path><path d="M495.7027 134.9537A196.1976 196.1976 0 0 1 555.9073 146.9291L536.5052 199.5208A140.1411 140.1411 0 0 0 493.5019 190.9669Z" fill="#B2E75A"></path><path d="M569.6611 153.8634A195.0536 195.0536 0 0 1 620.4025 187.7678L584.2927 226.8311A141.8571 141.8571 0 0 0 547.3899 202.1734Z" fill="#B2E75A"></path><path d="M635.95 194.2364A201.4783 201.4783 0 0 1 670.9711 246.6492L618.6936 270.7494A143.913 143.913 0 0 0 593.6786 233.3117Z" fill="#B2E75A"></path><path d="M667.7871 264.673A191.6316 191.6316 0 0 1 679.4838 323.4766L629.4369 325.4429A141.5461 141.5461 0 0 0 620.7973 282.0085Z" fill="#B2E75A"></path><path d="M691.6302 339.0007A203.7873 203.7873 0 0 1 679.1915 401.5343L634.0008 384.8625A155.6194 155.6194 0 0 0 643.4994 337.1096Z" fill="#B2E75A"></path><path d="M660.4666 410.5082A189.9113 189.9113 0 0 1 627.4561 459.9119L597.3773 432.1074A148.95 148.95 0 0 0 623.2679 393.3594Z" fill="#B2E75A"></path><path d="M614.3842 467.7217A186.1875 186.1875 0 0 1 565.9492 500.0849L548.4504 462.1271A144.3903 144.3903 0 0 0 586.0122 437.0291Z" fill="#B2E75A"></path><path d="M552.1958 505.0102A185.4741 185.4741 0 0 1 495.2817 516.3311L494.0494 484.9674A154.0862 154.0862 0 0 0 541.3319 475.5623Z" fill="#B2E75A"></path><path d="M480.4833 522.3132A191.4608 191.4608 0 0 1 421.7322 510.6268L436.8951 469.5258A147.652 147.652 0 0 0 482.2032 478.5381Z" fill="#B2E75A"></path><path d="M405.6537 509.623A196.6904 196.6904 0 0 1 354.4864 475.4342L383.0039 444.5842A154.6788 154.6788 0 0 0 423.2422 471.4705Z" fill="#B2E75A"></path><path d="M347.6485 460.7395A191.1305 191.1305 0 0 1 314.4261 411.0187L350.338 394.4631A151.5863 151.5863 0 0 0 376.6868 433.8969Z" fill="#B2E75A"></path><path d="M313.3205 395.4427A186.1875 186.1875 0 0 1 301.956 338.3097L340.1189 336.8103A147.9952 147.9952 0 0 0 349.1522 382.2237Z" fill="#B2E75A"></path><path d="M302.7032 323.7197A185.4398 185.4398 0 0 1 314.022 266.8161L350.5013 280.274A146.5572 146.5572 0 0 0 341.5558 325.2462Z" fill="#B2E75A"></path><path d="M317.3048 252.3084A187.9607 187.9607 0 0 1 349.9762 203.4121L383.8311 234.7073A141.8571 141.8571 0 0 0 359.1734 271.6101Z" fill="#B2E75A"></path><path d="M359.2753 191.7464A189.6354 189.6354 0 0 1 408.6073 158.7839L424.4858 193.2271A151.7083 151.7083 0 0 0 385.0203 219.5972Z" fill="#B2E75A"></path><path d="M424.6138 159.1841A183.1352 183.1352 0 0 1 480.8101 148.0059L482.2481 184.6048A146.5082 146.5082 0 0 0 437.291 193.5473Z" fill="#B2E75A"></path><path d="M496.6459 110.948A220.2218 220.2218 0 0 1 564.2225 124.3898L555.9073 146.9291A196.1976 196.1976 0 0 0 495.7027 134.9537Z" fill="#34E4BD"></path><path d="M580.0543 131.3188A219.8786 219.8786 0 0 1 637.2537 169.5382L620.4025 187.7678A195.0536 195.0536 0 0 0 569.6611 153.8634Z" fill="#34E4BD"></path><path d="M654.4438 177.141A226.663 226.663 0 0 1 693.8425 236.1053L670.9711 246.6492A201.4783 201.4783 0 0 0 635.95 194.2364Z" fill="#34E4BD"></path><path d="M692.3035 255.6285A217.7632 217.7632 0 0 1 705.5953 322.4507L679.4838 323.4766A191.6316 191.6316 0 0 0 667.7871 264.673Z" fill="#34E4BD"></path><path d="M711.9932 339.8007A224.166 224.166 0 0 1 698.3106 408.5877L679.1915 401.5343A203.7873 203.7873 0 0 0 691.6302 339.0007Z" fill="#34E4BD"></path><path d="M686.393 422.4604A218.46 218.46 0 0 1 648.4201 479.2908L627.4561 459.9119A189.9113 189.9113 0 0 0 660.4666 410.5082Z" fill="#34E4BD"></path><path d="M633.2989 488.1834A214.0523 214.0523 0 0 1 577.6151 525.3901L565.9492 500.0849A186.1875 186.1875 0 0 0 614.3842 467.7217Z" fill="#34E4BD"></path><path d="M563.5535 535.7967A218.2888 218.2888 0 0 1 496.57 549.1205L495.2817 516.3311A185.4741 185.4741 0 0 0 552.1958 505.0102Z" fill="#34E4BD"></path><path d="M479.3367 551.4965A220.6667 220.6667 0 0 1 411.6235 538.0276L421.7322 510.6268A191.4608 191.4608 0 0 0 480.4833 522.3132Z" fill="#34E4BD"></path><path d="M394.4609 533.9019A223.425 223.425 0 0 1 336.3389 495.066L354.4864 475.4342A196.6904 196.6904 0 0 0 405.6537 509.623Z" fill="#34E4BD"></path><path d="M329.903 477.1434A215.2965 215.2965 0 0 1 292.48 421.136L314.4261 411.0187A191.1305 191.1305 0 0 0 347.6485 460.7395Z" fill="#34E4BD"></path><path d="M286.4467 405.3569A214.8317 214.8317 0 0 1 273.3339 339.4343L301.956 338.3097A186.1875 186.1875 0 0 0 313.3205 395.4427Z" fill="#34E4BD"></path><path d="M272.8166 322.5454A215.3494 215.3494 0 0 1 285.9611 256.4639L314.022 266.8161A185.4398 185.4398 0 0 0 302.7032 323.7197Z" fill="#34E4BD"></path><path d="M291.5394 240.4304A216.3321 216.3321 0 0 1 329.1424 184.1536L349.9762 203.4121A187.9607 187.9607 0 0 0 317.3048 252.3084Z" fill="#34E4BD"></path><path d="M342.8922 174.0233A213.7708 213.7708 0 0 1 398.5028 136.8655L408.6073 158.7839A189.6354 189.6354 0 0 0 359.2753 191.7464Z" fill="#34E4BD"></path><path d="M413.3451 128.639A215.6926 215.6926 0 0 1 479.5319 115.4737L480.8101 148.0059A183.1352 183.1352 0 0 0 424.6138 159.1841Z" fill="#34E4BD"></path><path d="M497.7462 82.9414A248.25 248.25 0 0 1 573.9236 98.094L564.2225 124.3898A220.2218 220.2218 0 0 0 496.6459 110.948Z" fill="#0CACDA"></path><path d="M591.9323 105.5535A248.25 248.25 0 0 1 656.5123 148.7044L637.2537 169.5382A219.8786 219.8786 0 0 0 580.0543 131.3188Z" fill="#0CACDA"></path><path d="M670.2956 162.4877A248.25 248.25 0 0 1 713.4465 227.0677L693.8425 236.1053A226.663 226.663 0 0 0 654.4438 177.141Z" fill="#0CACDA"></path><path d="M720.906 245.0764A248.25 248.25 0 0 1 736.0586 321.2538L705.5953 322.4507A217.7632 217.7632 0 0 0 692.3035 255.6285Z" fill="#0CACDA"></path><path d="M736.0586 340.7462A248.25 248.25 0 0 1 720.906 416.9236L698.3106 408.5877A224.166 224.166 0 0 0 711.9932 339.8007Z" fill="#0CACDA"></path><path d="M713.4465 434.9323A248.25 248.25 0 0 1 670.2956 499.5123L648.4201 479.2908A218.46 218.46 0 0 0 686.393 422.4604Z" fill="#0CACDA"></path><path d="M656.5123 513.2956A248.25 248.25 0 0 1 591.9323 556.4465L577.6151 525.3901A214.0523 214.0523 0 0 0 633.2989 488.1834Z" fill="#0CACDA"></path><path d="M573.9236 563.906A248.25 248.25 0 0 1 497.7462 579.0586L496.57 549.1205A218.2888 218.2888 0 0 0 563.5535 535.7967Z" fill="#0CACDA"></path><path d="M478.2538 579.0586A248.25 248.25 0 0 1 402.0764 563.906L411.6235 538.0276A220.6667 220.6667 0 0 0 479.3367 551.4965Z" fill="#0CACDA"></path><path d="M384.0677 556.4465A248.25 248.25 0 0 1 319.4877 513.2956L336.3389 495.066A223.425 223.425 0 0 0 394.4609 533.9019Z" fill="#0CACDA"></path><path d="M305.7044 499.5123A248.25 248.25 0 0 1 262.5535 434.9323L292.48 421.136A215.2965 215.2965 0 0 0 329.903 477.1434Z" fill="#0CACDA"></path><path d="M255.094 416.9236A248.25 248.25 0 0 1 239.9414 340.7462L273.3339 339.4343A214.8317 214.8317 0 0 0 286.4467 405.3569Z" fill="#0CACDA"></path><path d="M239.9414 321.2538A248.25 248.25 0 0 1 255.094 245.0764L285.9611 256.4639A215.3494 215.3494 0 0 0 272.8166 322.5454Z" fill="#0CACDA"></path><path d="M262.5535 227.0677A248.25 248.25 0 0 1 305.7044 162.4877L329.1424 184.1536A216.3321 216.3321 0 0 0 291.5394 240.4304Z" fill="#0CACDA"></path><path d="M319.4877 148.7044A248.25 248.25 0 0 1 384.0677 105.5535L398.5028 136.8655A213.7708 213.7708 0 0 0 342.8922 174.0233Z" fill="#0CACDA"></path><path d="M402.0764 98.094A248.25 248.25 0 0 1 478.2538 82.9414L479.5319 115.4737A215.6926 215.6926 0 0 0 413.3451 128.639Z" fill="#0CACDA"></path><path d="M-5 -5l816.4688 0l0 26l-816.4687 0Z" transform="translate(84.7656 641)" fill="rgb(0,0,0)" fill-opacity="0" stroke="#ccc" stroke-width="0"></path><path d="M3.5 0L21.5 0A3.5 3.5 0 0 1 25 3.5L25 10.5A3.5 3.5 0 0 1 21.5 14L3.5 14A3.5 3.5 0 0 1 0 10.5L0 3.5A3.5 3.5 0 0 1 3.5 0" transform="translate(84.7656 642)" fill="#660802"></path><text dominant-baseline="central" text-anchor="start" style="font-size:16px;font-family:Microsoft YaHei;" xml:space="preserve" x="30" y="7" transform="translate(84.7656 642)" fill="#333333">&lt; 0.5 m/2</text><path d="M3.5 0L21.5 0A3.5 3.5 0 0 1 25 3.5L25 10.5A3.5 3.5 0 0 1 21.5 14L3.5 14A3.5 3.5 0 0 1 0 10.5L0 3.5A3.5 3.5 0 0 1 3.5 0" transform="translate(199.9297 642)" fill="#E74510"></path><text dominant-baseline="central" text-anchor="start" style="font-size:16px;font-family:Microsoft YaHei;" xml:space="preserve" x="30" y="7" transform="translate(199.9297 642)" fill="#333333">0.5 - 2 m/2</text><path d="M3.5 0L21.5 0A3.5 3.5 0 0 1 25 3.5L25 10.5A3.5 3.5 0 0 1 21.5 14L3.5 14A3.5 3.5 0 0 1 0 10.5L0 3.5A3.5 3.5 0 0 1 3.5 0" transform="translate(324.2656 642)" fill="#F69A1B"></path><text dominant-baseline="central" text-anchor="start" style="font-size:16px;font-family:Microsoft YaHei;" xml:space="preserve" x="30" y="7" transform="translate(324.2656 642)" fill="#333333">2 - 4 m/2</text><path d="M3.5 0L21.5 0A3.5 3.5 0 0 1 25 3.5L25 10.5A3.5 3.5 0 0 1 21.5 14L3.5 14A3.5 3.5 0 0 1 0 10.5L0 3.5A3.5 3.5 0 0 1 3.5 0" transform="translate(435.3672 642)" fill="#FADC64"></path><text dominant-baseline="central" text-anchor="start" style="font-size:16px;font-family:Microsoft YaHei;" xml:space="preserve" x="30" y="7" transform="translate(435.3672 642)" fill="#333333">4 - 6 m/2</text><path d="M3.5 0L21.5 0A3.5 3.5 0 0 1 25 3.5L25 10.5A3.5 3.5 0 0 1 21.5 14L3.5 14A3.5 3.5 0 0 1 0 10.5L0 3.5A3.5 3.5 0 0 1 3.5 0" transform="translate(546.4688 642)" fill="#B2E75A"></path><text dominant-baseline="central" text-anchor="start" style="font-size:16px;font-family:Microsoft YaHei;" xml:space="preserve" x="30" y="7" transform="translate(546.4688 642)" fill="#333333">6 - 8 m/2</text><path d="M3.5 0L21.5 0A3.5 3.5 0 0 1 25 3.5L25 10.5A3.5 3.5 0 0 1 21.5 14L3.5 14A3.5 3.5 0 0 1 0 10.5L0 3.5A3.5 3.5 0 0 1 3.5 0" transform="translate(657.5703 642)" fill="#34E4BD"></path><text dominant-baseline="central" text-anchor="start" style="font-size:16px;font-family:Microsoft YaHei;" xml:space="preserve" x="30" y="7" transform="translate(657.5703 642)" fill="#333333">8 - 10 m/2</text><path d="M3.5 0L21.5 0A3.5 3.5 0 0 1 25 3.5L25 10.5A3.5 3.5 0 0 1 21.5 14L3.5 14A3.5 3.5 0 0 1 0 10.5L0 3.5A3.5 3.5 0 0 1 3.5 0" transform="translate(778.0547 642)" fill="#0CACDA"></path><text dominant-baseline="central" text-anchor="start" style="font-size:16px;font-family:Microsoft YaHei;" xml:space="preserve" x="30" y="7" transform="translate(778.0547 642)" fill="#333333">&gt;= 10 m/2</text><path d="M1.521 -38.7126A38.7425 38.7425 0 0 1 13.4094 -36.3479L9.701 -26.2958A28.0282 28.0282 0 0 0 1.1004 -28.0066Z" transform="translate(488 331)" fill="none"></path><path d="M16.3636 -35.4954A39.0857 39.0857 0 0 1 26.5314 -28.7015L19.2585 -20.8338A28.3714 28.3714 0 0 0 11.878 -25.7653Z" transform="translate(488 331)" fill="none"></path><path d="M26.3615 -24.3683A35.8991 35.8991 0 0 1 32.6015 -15.0295L22.8714 -10.5439A25.1848 25.1848 0 0 0 18.4938 -17.0954Z" transform="translate(488 331)" fill="none"></path><path d="M34.5685 -12.753A36.8459 36.8459 0 0 1 36.8175 -1.4466L26.1114 -1.0259A26.1316 26.1316 0 0 0 24.5164 -9.0446Z" transform="translate(488 331)" fill="none"></path><path d="M38.4738 1.5116A38.5035 38.5035 0 0 1 36.1236 13.3267L26.0716 9.6183A27.7892 27.7892 0 0 0 27.7678 1.091Z" transform="translate(488 331)" fill="none"></path><path d="M39.0382 17.9968A42.9868 42.9868 0 0 1 31.5662 29.1795L23.6984 21.9066A32.2725 32.2725 0 0 0 29.3081 13.5112Z" transform="translate(488 331)" fill="none"></path><path d="M28.7668 31.1197A42.3788 42.3788 0 0 1 17.7423 38.486L13.2567 28.7559A31.6645 31.6645 0 0 0 21.4939 23.252Z" transform="translate(488 331)" fill="none"></path><path d="M14.5723 39.4999A42.1022 42.1022 0 0 1 1.6529 42.0698L1.2323 31.3637A31.3879 31.3879 0 0 0 10.8639 29.4479Z" transform="translate(488 331)" fill="none"></path><path d="M-1.5673 39.8894A39.9202 39.9202 0 0 1 -13.8171 37.4528L-10.1087 27.4007A29.2059 29.2059 0 0 0 -1.1466 29.1834Z" transform="translate(488 331)" fill="none"></path><path d="M-17.2773 37.4774A41.2681 41.2681 0 0 1 -28.0128 30.3041L-20.74 22.4364A30.5538 30.5538 0 0 0 -12.7917 27.7473Z" transform="translate(488 331)" fill="none"></path><path d="M-28.8398 26.6592A39.274 39.274 0 0 1 -35.6664 16.4425L-25.9363 11.9568A28.5597 28.5597 0 0 0 -20.9721 19.3864Z" transform="translate(488 331)" fill="none"></path><path d="M-36.9258 13.6227A39.3585 39.3585 0 0 1 -39.3282 1.5452L-28.6221 1.1246A28.6442 28.6442 0 0 0 -26.8738 9.9143Z" transform="translate(488 331)" fill="none"></path><path d="M-40.5926 -1.5949A40.6239 40.6239 0 0 1 -38.113 -14.0606L-28.061 -10.3522A29.9096 29.9096 0 0 0 -29.8866 -1.1742Z" transform="translate(488 331)" fill="none"></path><path d="M-35.4954 -16.3636A39.0857 39.0857 0 0 1 -28.7015 -26.5314L-20.8338 -19.2585A28.3714 28.3714 0 0 0 -25.7653 -11.878Z" transform="translate(488 331)" fill="none"></path><path d="M-28.3369 -30.6547A41.7455 41.7455 0 0 1 -17.4772 -37.9109L-12.9915 -28.1808A31.0313 31.0313 0 0 0 -21.064 -22.7869Z" transform="translate(488 331)" fill="none"></path><path d="M-13.5685 -36.779A39.202 39.202 0 0 1 -1.5391 -39.1718L-1.1184 -28.4657A28.4877 28.4877 0 0 0 -9.8601 -26.7269Z" transform="translate(488 331)" fill="none"></path><path d="M2.7786 -70.7202A70.7748 70.7748 0 0 1 24.4964 -66.4003L20.788 -56.3482A60.0605 60.0605 0 0 0 2.358 -60.0142Z" transform="translate(488 331)" fill="none"></path><path d="M29.7263 -64.4814A71.0036 71.0036 0 0 1 48.1973 -52.1395L40.9244 -44.2718A60.2893 60.2893 0 0 0 25.2407 -54.7513Z" transform="translate(488 331)" fill="none"></path><path d="M60.707 -56.117A82.6708 82.6708 0 0 1 75.0769 -34.6109L65.3468 -30.1253A71.9565 71.9565 0 0 0 52.8393 -48.8441Z" transform="translate(488 331)" fill="none"></path><path d="M71.3431 -26.3199A76.0432 76.0432 0 0 1 75.9846 -2.9854L65.2786 -2.5648A65.3289 65.3289 0 0 0 61.2911 -22.6115Z" transform="translate(488 331)" fill="none"></path><path d="M90.3069 3.5482A90.3766 90.3766 0 0 1 84.7905 31.2809L74.7385 27.5725A79.6623 79.6623 0 0 0 79.6009 3.1275Z" transform="translate(488 331)" fill="none"></path><path d="M78.4913 36.185A86.4305 86.4305 0 0 1 63.4679 58.6691L55.6001 51.3962A75.7163 75.7163 0 0 0 68.7612 31.6993Z" transform="translate(488 331)" fill="none"></path><path d="M56.279 60.8823A82.9094 82.9094 0 0 1 34.7108 75.2936L30.2252 65.5635A72.1952 72.1952 0 0 0 49.0061 53.0145Z" transform="translate(488 331)" fill="none"></path><path d="M30.8681 83.6718A89.1841 89.1841 0 0 1 3.5014 89.1154L3.0807 78.4093A78.4698 78.4698 0 0 0 27.1597 73.6197Z" transform="translate(488 331)" fill="none"></path><path d="M-3.3509 85.2857A85.3515 85.3515 0 0 1 -29.5416 80.0761L-25.8332 70.024A74.6373 74.6373 0 0 0 -2.9302 74.5797Z" transform="translate(488 331)" fill="none"></path><path d="M-38.0638 82.5667A90.9181 90.9181 0 0 1 -61.7153 66.7632L-54.4424 58.8955A80.2038 80.2038 0 0 0 -33.5781 72.8366Z" transform="translate(488 331)" fill="none"></path><path d="M-64.331 59.4669A87.6059 87.6059 0 0 1 -79.5587 36.6771L-69.8286 32.1914A76.8916 76.8916 0 0 0 -56.4632 52.1941Z" transform="translate(488 331)" fill="none"></path><path d="M-81.7154 30.1464A87.0989 87.0989 0 0 1 -87.0318 3.4195L-76.3257 2.9988A76.3846 76.3846 0 0 0 -71.6634 26.438Z" transform="translate(488 331)" fill="none"></path><path d="M-88.4111 -3.4737A88.4793 88.4793 0 0 1 -83.0106 -30.6242L-72.9585 -26.9158A77.7651 77.7651 0 0 0 -77.7051 -3.053Z" transform="translate(488 331)" fill="none"></path><path d="M-77.3641 -35.6653A85.1893 85.1893 0 0 1 -62.5564 -57.8266L-54.6887 -50.5537A74.475 74.475 0 0 0 -67.634 -31.1797Z" transform="translate(488 331)" fill="none"></path><path d="M-61.1032 -66.101A90.0164 90.0164 0 0 1 -37.6862 -81.7478L-33.2006 -72.0176A79.3021 79.3021 0 0 0 -53.8303 -58.2333Z" transform="translate(488 331)" fill="none"></path><path d="M-30.4715 -82.5965A88.0381 88.0381 0 0 1 -3.4564 -87.9702L-3.0357 -77.2642A77.3238 77.3238 0 0 0 -26.7631 -72.5445Z" transform="translate(488 331)" fill="none"></path><path d="M4.9794 -126.7334A126.8312 126.8312 0 0 1 43.8984 -118.992L40.1901 -108.9399A116.1169 116.1169 0 0 0 4.5587 -116.0274Z" transform="translate(488 331)" fill="none"></path><path d="M53.4823 -116.012A127.7464 127.7464 0 0 1 86.7144 -93.8071L79.4415 -85.9393A117.0321 117.0321 0 0 0 48.9966 -106.2819Z" transform="translate(488 331)" fill="none"></path><path d="M97.6945 -90.3079A133.0404 133.0404 0 0 1 120.8197 -55.6986L111.0896 -51.213A122.3261 122.3261 0 0 0 89.8268 -83.035Z" transform="translate(488 331)" fill="none"></path><path d="M120.3759 -44.409A128.3064 128.3064 0 0 1 128.2075 -5.0373L117.5014 -4.6166A117.5921 117.5921 0 0 0 110.3239 -40.7006Z" transform="translate(488 331)" fill="none"></path><path d="M142.1401 5.5847A142.2497 142.2497 0 0 1 133.4575 49.2351L123.4054 45.5267A131.5354 131.5354 0 0 0 131.434 5.1641Z" transform="translate(488 331)" fill="none"></path><path d="M116.8172 53.8535A128.633 128.633 0 0 1 94.4581 87.3162L86.5904 80.0433A117.9188 117.9188 0 0 0 107.0871 49.3678Z" transform="translate(488 331)" fill="none"></path><path d="M84.651 91.5749A124.7066 124.7066 0 0 1 52.2096 113.2515L47.724 103.5214A113.9923 113.9923 0 0 0 77.3781 83.7071Z" transform="translate(488 331)" fill="none"></path><path d="M46.6702 126.505A134.8393 134.8393 0 0 1 5.2938 134.7353L4.8731 124.0293A124.125 124.125 0 0 0 42.9618 116.453Z" transform="translate(488 331)" fill="none"></path><path d="M-5.1345 130.6821A130.7829 130.7829 0 0 1 -45.2662 122.6994L-41.5578 112.6473A120.0686 120.0686 0 0 0 -4.7139 119.9761Z" transform="translate(488 331)" fill="none"></path><path d="M-57.2513 124.1876A136.7489 136.7489 0 0 1 -92.8253 100.4178L-85.5524 92.5501A126.0346 126.0346 0 0 0 -52.7656 114.4575Z" transform="translate(488 331)" fill="none"></path><path d="M-99.8221 92.2746A135.9377 135.9377 0 0 1 -123.4509 56.9117L-113.7208 52.426A125.2235 125.2235 0 0 0 -91.9544 85.0018Z" transform="translate(488 331)" fill="none"></path><path d="M-124.2656 45.844A132.4523 132.4523 0 0 1 -132.3502 5.2001L-121.6441 4.7794A121.738 121.738 0 0 0 -114.2135 42.1356Z" transform="translate(488 331)" fill="none"></path><path d="M-130.2523 -5.1176A130.3528 130.3528 0 0 1 -122.2959 -45.1173L-112.2439 -41.4089A119.6386 119.6386 0 0 0 -119.5463 -4.697Z" transform="translate(488 331)" fill="none"></path><path d="M-116.012 -53.4823A127.7464 127.7464 0 0 1 -93.8071 -86.7144L-85.9393 -79.4415A117.0321 117.0321 0 0 0 -106.2819 -48.9966Z" transform="translate(488 331)" fill="none"></path><path d="M-91.529 -99.0155A134.8393 134.8393 0 0 1 -56.4518 -122.4534L-51.9661 -112.7233A124.125 124.125 0 0 0 -84.2561 -91.1478Z" transform="translate(488 331)" fill="none"></path><path d="M-45.9659 -124.596A132.8044 132.8044 0 0 1 -5.2139 -132.7021L-4.7932 -121.996A122.0902 122.0902 0 0 0 -42.2575 -114.5439Z" transform="translate(488 331)" fill="none"></path><path d="M5.9226 -150.7391A150.8554 150.8554 0 0 1 52.2136 -141.5312L48.5052 -131.4792A140.1411 140.1411 0 0 0 5.5019 -140.0331Z" transform="translate(488 331)" fill="none"></path><path d="M63.8755 -138.5567A152.5714 152.5714 0 0 1 103.5656 -112.0366L96.2927 -104.1689A141.8571 141.8571 0 0 0 59.3899 -128.8266Z" transform="translate(488 331)" fill="none"></path><path d="M113.5463 -104.9611A154.6273 154.6273 0 0 1 140.4238 -64.7362L130.6936 -60.2506A143.913 143.913 0 0 0 105.6786 -97.6883Z" transform="translate(488 331)" fill="none"></path><path d="M142.8493 -52.6999A152.2603 152.2603 0 0 1 152.143 -5.9777L141.4369 -5.5571A141.5461 141.5461 0 0 0 132.7973 -48.9915Z" transform="translate(488 331)" fill="none"></path><path d="M166.2055 6.5302A166.3337 166.3337 0 0 1 156.0528 57.5709L146.0008 53.8625A155.6194 155.6194 0 0 0 155.4994 6.1096Z" transform="translate(488 331)" fill="none"></path><path d="M144.998 66.845A159.6643 159.6643 0 0 1 117.2451 108.3802L109.3773 101.1074A148.95 148.95 0 0 0 135.2679 62.3594Z" transform="translate(488 331)" fill="none"></path><path d="M105.2851 113.8968A155.1046 155.1046 0 0 1 64.936 140.8572L60.4504 131.1271A144.3903 144.3903 0 0 0 98.0122 106.0291Z" transform="translate(488 331)" fill="none"></path><path d="M57.0403 154.6144A164.8005 164.8005 0 0 1 6.47 164.6734L6.0494 153.9674A154.0862 154.0862 0 0 0 53.3319 144.5623Z" transform="translate(488 331)" fill="none"></path><path d="M-6.2174 158.2442A158.3662 158.3662 0 0 1 -54.8133 148.5778L-51.1049 138.5258A147.652 147.652 0 0 0 -5.7968 147.5381Z" transform="translate(488 331)" fill="none"></path><path d="M-69.2434 150.2006A165.3931 165.3931 0 0 1 -112.269 121.4519L-104.9961 113.5842A154.6788 154.6788 0 0 0 -64.7578 140.4705Z" transform="translate(488 331)" fill="none"></path><path d="M-119.181 110.1697A162.3006 162.3006 0 0 1 -147.3922 67.9487L-137.662 63.4631A151.5863 151.5863 0 0 0 -111.3132 102.8969Z" transform="translate(488 331)" fill="none"></path><path d="M-148.8999 54.9321A158.7095 158.7095 0 0 1 -158.5871 6.2309L-147.8811 5.8103A147.9952 147.9952 0 0 0 -138.8478 51.2237Z" transform="translate(488 331)" fill="none"></path><path d="M-157.1503 -6.1745A157.2715 157.2715 0 0 1 -147.5508 -54.4344L-137.4987 -50.726A146.5572 146.5572 0 0 0 -146.4442 -5.7538Z" transform="translate(488 331)" fill="none"></path><path d="M-138.5567 -63.8755A152.5714 152.5714 0 0 1 -112.0366 -103.5656L-104.1689 -96.2927A141.8571 141.8571 0 0 0 -128.8266 -59.3899Z" transform="translate(488 331)" fill="none"></path><path d="M-110.2526 -119.2706A162.4226 162.4226 0 0 1 -67.9998 -147.503L-63.5142 -137.7729A151.7083 151.7083 0 0 0 -102.9797 -111.4028Z" transform="translate(488 331)" fill="none"></path><path d="M-54.4174 -147.5048A157.2225 157.2225 0 0 1 -6.1725 -157.1013L-5.7519 -146.3952A146.5082 146.5082 0 0 0 -50.709 -137.4527Z" transform="translate(488 331)" fill="none"></path><path d="M8.1233 -206.7523A206.9119 206.9119 0 0 1 71.6157 -194.1229L67.9073 -184.0709A196.1976 196.1976 0 0 0 7.7027 -196.0463Z" transform="translate(488 331)" fill="none"></path><path d="M86.1467 -186.8667A205.7679 205.7679 0 0 1 139.6754 -151.1L132.4025 -143.2322A195.0536 195.0536 0 0 0 81.6611 -177.1366Z" transform="translate(488 331)" fill="none"></path><path d="M155.8178 -144.0365A212.1925 212.1925 0 0 1 192.7012 -88.8365L182.9711 -84.3508A201.4783 201.4783 0 0 0 147.95 -136.7636Z" transform="translate(488 331)" fill="none"></path><path d="M189.8391 -70.0354A202.3459 202.3459 0 0 1 202.1899 -7.9441L191.4838 -7.5234A191.6316 191.6316 0 0 0 179.7871 -66.327Z" transform="translate(488 331)" fill="none"></path><path d="M214.3362 8.4213A214.5016 214.5016 0 0 1 201.2435 74.2427L191.1915 70.5343A203.7873 203.7873 0 0 0 203.6302 8.0007Z" transform="translate(488 331)" fill="none"></path><path d="M182.1967 83.9938A200.6255 200.6255 0 0 1 147.3238 136.1848L139.4561 128.9119A189.9113 189.9113 0 0 0 172.4666 79.5082Z" transform="translate(488 331)" fill="none"></path><path d="M133.6571 144.5894A196.9018 196.9018 0 0 1 82.4348 178.815L77.9492 169.0849A186.1875 186.1875 0 0 0 126.3842 136.7217Z" transform="translate(488 331)" fill="none"></path><path d="M67.9042 184.0623A196.1884 196.1884 0 0 1 7.7023 196.0372L7.2817 185.3311A185.4741 185.4741 0 0 0 64.1958 174.0102Z" transform="translate(488 331)" fill="none"></path><path d="M-7.9374 202.0192A202.1751 202.1751 0 0 1 -69.9762 189.6789L-66.2678 179.6268A191.4608 191.4608 0 0 0 -7.5167 191.3132Z" transform="translate(488 331)" fill="none"></path><path d="M-86.832 188.3531A207.4047 207.4047 0 0 1 -140.7864 152.3019L-133.5136 144.4342A196.6904 196.6904 0 0 0 -82.3463 178.623Z" transform="translate(488 331)" fill="none"></path><path d="M-148.2192 137.0124A201.8448 201.8448 0 0 1 -183.304 84.5043L-173.5739 80.0187A191.1305 191.1305 0 0 0 -140.3515 129.7395Z" transform="translate(488 331)" fill="none"></path><path d="M-184.7315 68.1511A196.9018 196.9018 0 0 1 -196.75 7.7303L-186.044 7.3097A186.1875 186.1875 0 0 0 -174.6795 64.4427Z" transform="translate(488 331)" fill="none"></path><path d="M-196.0028 -7.701A196.154 196.154 0 0 1 -184.03 -67.8923L-173.978 -64.1839A185.4398 185.4398 0 0 0 -185.2968 -7.2803Z" transform="translate(488 331)" fill="none"></path><path d="M-180.4253 -83.1772A198.675 198.675 0 0 1 -145.8915 -134.8607L-138.0238 -127.5879A187.9607 187.9607 0 0 0 -170.6952 -78.6916Z" transform="translate(488 331)" fill="none"></path><path d="M-135.9975 -147.1213A200.3497 200.3497 0 0 1 -83.8784 -181.9462L-79.3927 -172.2161A189.6354 189.6354 0 0 0 -128.7247 -139.2536Z" transform="translate(488 331)" fill="none"></path><path d="M-67.0946 -181.868A193.8495 193.8495 0 0 1 -7.6105 -193.7001L-7.1899 -182.9941A183.1352 183.1352 0 0 0 -63.3862 -171.8159Z" transform="translate(488 331)" fill="none"></path><path d="M9.0665 -230.758A230.9361 230.9361 0 0 1 79.9309 -216.6622L76.2225 -206.6102A220.2218 220.2218 0 0 0 8.6459 -220.052Z" transform="translate(488 331)" fill="none"></path><path d="M96.5399 -209.4113A230.5929 230.5929 0 0 1 156.5266 -169.3295L149.2537 -161.4618A219.8786 219.8786 0 0 0 92.0543 -199.6812Z" transform="translate(488 331)" fill="none"></path><path d="M174.3115 -161.1319A237.3773 237.3773 0 0 1 215.5726 -99.3803L205.8425 -94.8947A226.663 226.663 0 0 0 166.4438 -153.859Z" transform="translate(488 331)" fill="none"></path><path d="M214.3556 -79.0799A228.4774 228.4774 0 0 1 228.3013 -8.97L217.5953 -8.5493A217.7632 217.7632 0 0 0 204.3035 -75.3715Z" transform="translate(488 331)" fill="none"></path><path d="M234.6992 9.2214A234.8803 234.8803 0 0 1 220.3627 81.2961L210.3106 77.5877A224.166 224.166 0 0 0 223.9932 8.8007Z" transform="translate(488 331)" fill="none"></path><path d="M208.1231 95.946A229.1743 229.1743 0 0 1 168.2878 155.5637L160.4201 148.2908A218.46 218.46 0 0 0 198.393 91.4604Z" transform="translate(488 331)" fill="none"></path><path d="M152.5717 165.0512A224.7666 224.7666 0 0 1 94.1007 204.1202L89.6151 194.3901A214.0523 214.0523 0 0 0 145.2989 157.1834Z" transform="translate(488 331)" fill="none"></path><path d="M79.2619 214.8487A229.0031 229.0031 0 0 1 8.9906 228.8265L8.57 218.1205A218.2888 218.2888 0 0 0 75.5535 204.7967Z" transform="translate(488 331)" fill="none"></path><path d="M-9.084 231.2026A231.381 231.381 0 0 1 -80.0849 217.0796L-76.3765 207.0276A220.6667 220.6667 0 0 0 -8.6633 220.4965Z" transform="translate(488 331)" fill="none"></path><path d="M-98.0247 212.632A234.1393 234.1393 0 0 1 -158.9339 171.9337L-151.6611 164.066A223.425 223.425 0 0 0 -93.5391 202.9019Z" transform="translate(488 331)" fill="none"></path><path d="M-165.9648 153.4163A226.0107 226.0107 0 0 1 -205.2501 94.6216L-195.52 90.136A215.2965 215.2965 0 0 0 -158.097 146.1434Z" transform="translate(488 331)" fill="none"></path><path d="M-211.6053 78.0653A225.546 225.546 0 0 1 -225.3721 8.8549L-214.6661 8.4343A214.8317 214.8317 0 0 0 -201.5533 74.3569Z" transform="translate(488 331)" fill="none"></path><path d="M-225.8894 -8.8752A226.0637 226.0637 0 0 1 -212.091 -78.2445L-202.0389 -74.5361A215.3494 215.3494 0 0 0 -215.1834 -8.4546Z" transform="translate(488 331)" fill="none"></path><path d="M-206.1907 -95.0552A227.0464 227.0464 0 0 1 -166.7253 -154.1193L-158.8576 -146.8464A216.3321 216.3321 0 0 0 -196.4606 -90.5696Z" transform="translate(488 331)" fill="none"></path><path d="M-152.3807 -164.8445A224.4851 224.4851 0 0 1 -93.9829 -203.8646L-89.4972 -194.1345A213.7708 213.7708 0 0 0 -145.1078 -156.9767Z" transform="translate(488 331)" fill="none"></path><path d="M-78.3633 -212.413A226.4069 226.4069 0 0 1 -8.8887 -226.2324L-8.4681 -215.5263A215.6926 215.6926 0 0 0 -74.6549 -202.361Z" transform="translate(488 331)" fill="none"></path></g></svg>