<svg xmlns="http://www.w3.org/2000/svg" xmlns:xlink="http://www.w3.org/1999/xlink" width="1920" height="1080" viewBox="0 0 1920 1080">
  <defs>
    <clipPath id="clip-Web_1920_1">
      <rect width="1920" height="1080"/>
    </clipPath>
  </defs>
  <g id="Web_1920_1" data-name="Web 1920 – 1" clip-path="url(#clip-Web_1920_1)">
    <rect width="1920" height="1080" fill="#fff"/>
    <rect id="Rectangle_1" data-name="Rectangle 1" width="136" height="72" transform="translate(457 339)" fill="#70d89a"/>
    <rect id="Rectangle_2" data-name="Rectangle 2" width="157" height="87" transform="translate(596 324)" fill="#70d89a"/>
    <rect id="Rectangle_3" data-name="Rectangle 3" width="185" height="121" transform="translate(444 414)" fill="#70d89a"/>
    <rect id="Rectangle_4" data-name="Rectangle 4" width="121" height="121" transform="translate(632 414)" fill="#70d89a"/>
    <rect id="Rectangle_5" data-name="Rectangle 5" width="141" height="140" transform="translate(469 538)" fill="#70d89a"/>
    <rect id="Rectangle_6" data-name="Rectangle 6" width="58" height="140" transform="translate(613 538)" fill="#70d89a"/>
    <rect id="Rectangle_7" data-name="Rectangle 7" width="79" height="140" transform="translate(674 538)" fill="#70d89a"/>
    <rect id="Rectangle_8" data-name="Rectangle 8" width="96" height="79" transform="translate(477 684)" fill="#70d89a"/>
    <rect id="Rectangle_9" data-name="Rectangle 9" width="91" height="112" transform="translate(576 684)" fill="#70d89a"/>
    <rect id="Rectangle_10" data-name="Rectangle 10" width="81" height="94" transform="translate(672 684)" fill="#70d89a"/>
    <rect id="Rectangle_11" data-name="Rectangle 11" width="250" height="108" transform="translate(757 288)" fill="#66d0f9"/>
    <rect id="Rectangle_12" data-name="Rectangle 12" width="215" height="150" transform="translate(757 399)" fill="#66d0f9"/>
    <rect id="Rectangle_13" data-name="Rectangle 13" width="157" height="143" transform="translate(757 552)" fill="#66d0f9"/>
    <rect id="Rectangle_14" data-name="Rectangle 14" width="181" height="120" transform="translate(757 698)" fill="#66d0f9"/>
    <rect id="Rectangle_15" data-name="Rectangle 15" width="132" height="123" transform="translate(1009 273)" fill="#66d0f9"/>
    <rect id="Rectangle_16" data-name="Rectangle 16" width="165" height="104" transform="translate(976 399)" fill="#66d0f9"/>
    <rect id="Rectangle_17" data-name="Rectangle 17" width="165" height="42" transform="translate(976 507)" fill="#66d0f9"/>
    <rect id="Rectangle_18" data-name="Rectangle 18" width="223" height="143" transform="translate(918 552)" fill="#66d0f9"/>
    <rect id="Rectangle_19" data-name="Rectangle 19" width="199" height="74" transform="translate(942 698)" fill="#66d0f9"/>
    <rect id="Rectangle_20" data-name="Rectangle 20" width="126" height="56" transform="translate(942 775)" fill="#66d0f9"/>
    <rect id="Rectangle_21" data-name="Rectangle 21" width="66" height="46" transform="translate(1075 775)" fill="#66d0f9"/>
    <rect id="Rectangle_22" data-name="Rectangle 22" width="77" height="102" transform="translate(1144 273)" fill="#eeb5f6"/>
    <rect id="Rectangle_23" data-name="Rectangle 23" width="77" height="28" transform="translate(1145 379)" fill="#eeb5f6"/>
    <rect id="Rectangle_24" data-name="Rectangle 24" width="96" height="52" transform="translate(1225 355)" fill="#eeb5f6"/>
    <rect id="Rectangle_25" data-name="Rectangle 25" width="113" height="90" transform="translate(1438 318)" fill="#eeb5f6"/>
    <rect id="Rectangle_26" data-name="Rectangle 26" width="94" height="27" transform="translate(1438 288)" fill="#eeb5f6"/>
    <rect id="Rectangle_27" data-name="Rectangle 27" width="110" height="54" transform="translate(1325 288)" fill="#eeb5f6"/>
    <rect id="Rectangle_28" data-name="Rectangle 28" width="97" height="79" transform="translate(1224 273)" fill="#eeb5f6"/>
    <rect id="Rectangle_29" data-name="Rectangle 29" width="133" height="176" transform="translate(1145 411)" fill="#eeb5f6"/>
    <rect id="Rectangle_30" data-name="Rectangle 30" width="119" height="158" transform="translate(1145 591)" fill="#f9d662"/>
    <rect id="Rectangle_31" data-name="Rectangle 31" width="70" height="65" transform="translate(1145 753)" fill="#f9d662"/>
    <rect id="Rectangle_32" data-name="Rectangle 32" width="45" height="56" transform="translate(1219 753)" fill="#f9d662"/>
    <rect id="Rectangle_33" data-name="Rectangle 33" width="71" height="62" transform="translate(1325 345)" fill="#eeb5f6"/>
    <rect id="Rectangle_34" data-name="Rectangle 34" width="37" height="62" transform="translate(1398 345)" fill="#eeb5f6"/>
    <rect id="Rectangle_35" data-name="Rectangle 35" width="183" height="130" transform="translate(1281 411)" fill="#eeb5f6"/>
    <rect id="Rectangle_36" data-name="Rectangle 36" width="88" height="129" transform="translate(1469 412)" fill="#eeb5f6"/>
    <rect id="Rectangle_37" data-name="Rectangle 37" width="246" height="43" transform="translate(1281 544)" fill="#eeb5f6"/>
    <rect id="Rectangle_38" data-name="Rectangle 38" width="106" height="126" transform="translate(1267 591)" fill="#f9d662"/>
    <rect id="Rectangle_39" data-name="Rectangle 39" width="106" height="52" transform="translate(1267 720)" fill="#f9d662"/>
    <rect id="Rectangle_40" data-name="Rectangle 40" width="68" height="70" transform="translate(1376 591)" fill="#f9d662"/>
    <rect id="Rectangle_41" data-name="Rectangle 41" width="66" height="54" transform="translate(1447 591)" fill="#f9d662"/>
    <rect id="Rectangle_42" data-name="Rectangle 42" width="34" height="67" transform="translate(1376 664)" fill="#f9d662"/>
    <rect id="Rectangle_43" data-name="Rectangle 43" width="31" height="53" transform="translate(1413 664)" fill="#f9d662"/>
    <rect id="Rectangle_44" data-name="Rectangle 44" width="55" height="63" transform="translate(1447 648)" fill="#f9d662"/>
  </g>
</svg>
