<svg width="738px" height="300px"><g transform="translate(32,30)"><g class="x axis" transform="translate(0, 250)" fill="none" font-size="10" font-family="sans-serif" text-anchor="middle"><path class="domain" stroke="#000" d="M0.5,0V0.5H686.5V0"></path><g class="tick" opacity="1" transform="translate(3.4646464646464645,0)"><line stroke="#000" y2="6"></line><text fill="#000" y="9" dy="0.71em">1917–18</text></g><g class="tick" opacity="1" transform="translate(58.898989898989896,0)"><line stroke="#000" y2="6"></line><text fill="#000" y="9" dy="0.71em">1925–26</text></g><g class="tick" opacity="1" transform="translate(114.33333333333333,0)"><line stroke="#000" y2="6"></line><text fill="#000" y="9" dy="0.71em">1933–34</text></g><g class="tick" opacity="1" transform="translate(176.69696969696972,0)"><line stroke="#000" y2="6"></line><text fill="#000" y="9" dy="0.71em">1942–43</text></g><g class="tick" opacity="1" transform="translate(232.13131313131314,0)"><line stroke="#000" y2="6"></line><text fill="#000" y="9" dy="0.71em">1950–51</text></g><g class="tick" opacity="1" transform="translate(287.5656565656566,0)"><line stroke="#000" y2="6"></line><text fill="#000" y="9" dy="0.71em">1958–59</text></g><g class="tick" opacity="1" transform="translate(343,0)"><line stroke="#000" y2="6"></line><text fill="#000" y="9" dy="0.71em">1966–67</text></g><g class="tick" opacity="1" transform="translate(398.4343434343434,0)"><line stroke="#000" y2="6"></line><text fill="#000" y="9" dy="0.71em">1974–75</text></g><g class="tick" opacity="1" transform="translate(453.8686868686869,0)"><line stroke="#000" y2="6"></line><text fill="#000" y="9" dy="0.71em">1982–83</text></g><g class="tick" opacity="1" transform="translate(516.2323232323232,0)"><line stroke="#000" y2="6"></line><text fill="#000" y="9" dy="0.71em">1991–92</text></g><g class="tick" opacity="1" transform="translate(571.6666666666666,0)"><line stroke="#000" y2="6"></line><text fill="#000" y="9" dy="0.71em">1999–00</text></g><g class="tick" opacity="1" transform="translate(627.10101010101,0)"><line stroke="#000" y2="6"></line><text fill="#000" y="9" dy="0.71em">2008–09</text></g><g class="tick" opacity="1" transform="translate(682.5353535353535,0)"><line stroke="#000" y2="6"></line><text fill="#000" y="9" dy="0.71em">2016–17</text></g></g><g class="y axis" fill="none" font-size="10" font-family="sans-serif" text-anchor="end"><path class="domain" stroke="#000" d="M0,250.5H0.5V0.5H0"></path><g class="tick" opacity="1" transform="translate(0,250.5)"><line stroke="#000" x2="686"></line><text fill="#000" x="-3" dy="0.32em" transform="translate(-2,0)">0</text></g><g class="tick" opacity="1" transform="translate(0,215.4859943977591)"><line stroke="#000" x2="686"></line><text fill="#000" x="-3" dy="0.32em" transform="translate(-2,0)">50</text></g><g class="tick" opacity="1" transform="translate(0,180.4719887955182)"><line stroke="#000" x2="686"></line><text fill="#000" x="-3" dy="0.32em" transform="translate(-2,0)">100</text></g><g class="tick" opacity="1" transform="translate(0,145.4579831932773)"><line stroke="#000" x2="686"></line><text fill="#000" x="-3" dy="0.32em" transform="translate(-2,0)">150</text></g><g class="tick" opacity="1" transform="translate(0,110.4439775910364)"><line stroke="#000" x2="686"></line><text fill="#000" x="-3" dy="0.32em" transform="translate(-2,0)">200</text></g><g class="tick" opacity="1" transform="translate(0,75.42997198879553)"><line stroke="#000" x2="686"></line><text fill="#000" x="-3" dy="0.32em" transform="translate(-2,0)">250</text></g><g class="tick" opacity="1" transform="translate(0,40.41596638655463)"><line stroke="#000" x2="686"></line><text fill="#000" x="-3" dy="0.32em" transform="translate(-2,0)">300</text></g><g class="tick" opacity="1" transform="translate(0,5.401960784313729)"><line stroke="#000" x2="686"></line><text fill="#000" x="-3" dy="0.32em" transform="translate(-2,0)">350</text></g></g><g class="layer" category="Regular Season Goals" fill="#013878" stroke="#fff"><rect touch-action="none" x="0" y="174.36974789915968" width="6.929292929292929" height="75.63025210084032"></rect><rect touch-action="none" x="6.929292929292929" y="205.88235294117646" width="6.929292929292929" height="44.117647058823536"></rect><rect touch-action="none" x="13.858585858585858" y="166.66666666666669" width="6.929292929292929" height="83.33333333333331"></rect><rect touch-action="none" x="20.78787878787879" y="176.47058823529412" width="6.929292929292929" height="73.52941176470588"></rect><rect touch-action="none" x="27.717171717171716" y="181.37254901960785" width="6.929292929292929" height="68.62745098039215"></rect><rect touch-action="none" x="34.64646464646464" y="192.57703081232495" width="6.929292929292929" height="57.42296918767505"></rect><rect touch-action="none" x="41.57575757575758" y="208.68347338935575" width="6.929292929292929" height="41.316526610644246"></rect><rect touch-action="none" x="48.505050505050505" y="186.9747899159664" width="6.929292929292929" height="63.0252100840336"></rect><rect touch-action="none" x="55.43434343434343" y="185.57422969187675" width="6.929292929292929" height="64.42577030812325"></rect><rect touch-action="none" x="62.36363636363636" y="194.6778711484594" width="6.929292929292929" height="55.32212885154061"></rect><rect touch-action="none" x="69.29292929292929" y="186.9747899159664" width="6.929292929292929" height="63.0252100840336"></rect><rect touch-action="none" x="76.22222222222221" y="190.47619047619048" width="6.929292929292929" height="59.52380952380952"></rect><rect touch-action="none" x="83.15151515151516" y="168.7675070028011" width="6.929292929292929" height="81.2324929971989"></rect><rect touch-action="none" x="90.08080808080808" y="167.36694677871148" width="6.929292929292929" height="82.63305322128852"></rect><rect touch-action="none" x="97.01010101010101" y="141.45658263305322" width="6.929292929292929" height="108.54341736694678"></rect><rect touch-action="none" x="103.93939393939394" y="166.66666666666669" width="6.929292929292929" height="83.33333333333331"></rect><rect touch-action="none" x="110.86868686868686" y="128.8515406162465" width="6.929292929292929" height="121.1484593837535"></rect><rect touch-action="none" x="117.79797979797979" y="140.0560224089636" width="6.929292929292929" height="109.9439775910364"></rect><rect touch-action="none" x="124.72727272727272" y="161.76470588235293" width="6.929292929292929" height="88.23529411764707"></rect><rect touch-action="none" x="131.65656565656565" y="166.66666666666669" width="6.929292929292929" height="83.33333333333331"></rect><rect touch-action="none" x="138.58585858585857" y="144.25770308123248" width="6.929292929292929" height="105.74229691876752"></rect><rect touch-action="none" x="145.5151515151515" y="170.16806722689074" width="6.929292929292929" height="79.83193277310926"></rect><rect touch-action="none" x="152.44444444444443" y="156.1624649859944" width="6.929292929292929" height="93.8375350140056"></rect><rect touch-action="none" x="159.37373737373736" y="148.4593837535014" width="6.929292929292929" height="101.54061624649859"></rect><rect touch-action="none" x="166.3030303030303" y="139.35574229691878" width="6.929292929292929" height="110.64425770308122"></rect><rect touch-action="none" x="173.23232323232324" y="111.34453781512605" width="6.929292929292929" height="138.65546218487395"></rect><rect touch-action="none" x="180.16161616161617" y="100.14005602240897" width="6.929292929292929" height="149.85994397759103"></rect><rect touch-action="none" x="187.0909090909091" y="121.84873949579833" width="6.929292929292929" height="128.15126050420167"></rect><rect touch-action="none" x="194.02020202020202" y="128.15126050420167" width="6.929292929292929" height="121.84873949579833"></rect><rect touch-action="none" x="200.94949494949495" y="103.64145658263305" width="6.929292929292929" height="146.35854341736695"></rect><rect touch-action="none" x="207.87878787878788" y="122.54901960784315" width="6.929292929292929" height="127.45098039215685"></rect><rect touch-action="none" x="214.8080808080808" y="147.05882352941177" width="6.929292929292929" height="102.94117647058823"></rect><rect touch-action="none" x="221.73737373737373" y="126.75070028011204" width="6.929292929292929" height="123.24929971988796"></rect><rect touch-action="none" x="228.66666666666666" y="101.54061624649859" width="6.929292929292929" height="148.4593837535014"></rect><rect touch-action="none" x="235.59595959595958" y="132.3529411764706" width="6.929292929292929" height="117.64705882352939"></rect><rect touch-action="none" x="242.5252525252525" y="140.75630252100842" width="6.929292929292929" height="109.24369747899158"></rect><rect touch-action="none" x="249.45454545454544" y="143.55742296918768" width="6.929292929292929" height="106.44257703081232"></rect><rect touch-action="none" x="256.3838383838384" y="147.05882352941177" width="6.929292929292929" height="102.94117647058823"></rect><rect touch-action="none" x="263.3131313131313" y="142.85714285714286" width="6.929292929292929" height="107.14285714285714"></rect><rect touch-action="none" x="270.24242424242425" y="128.15126050420167" width="6.929292929292929" height="121.84873949579833"></rect><rect touch-action="none" x="277.17171717171715" y="115.54621848739495" width="6.929292929292929" height="134.45378151260505"></rect><rect touch-action="none" x="284.1010101010101" y="117.64705882352942" width="6.929292929292929" height="132.35294117647058"></rect><rect touch-action="none" x="291.030303030303" y="110.64425770308122" width="6.929292929292929" height="139.35574229691878"></rect><rect touch-action="none" x="297.95959595959596" y="86.1344537815126" width="6.929292929292929" height="163.8655462184874"></rect><rect touch-action="none" x="304.88888888888886" y="87.53501400560222" width="6.929292929292929" height="162.46498599439778"></rect><rect touch-action="none" x="311.8181818181818" y="95.23809523809524" width="6.929292929292929" height="154.76190476190476"></rect><rect touch-action="none" x="318.7474747474747" y="115.54621848739495" width="6.929292929292929" height="134.45378151260505"></rect><rect touch-action="none" x="325.67676767676767" y="107.14285714285714" width="6.929292929292929" height="142.85714285714286"></rect><rect touch-action="none" x="332.6060606060606" y="104.34173669467785" width="6.929292929292929" height="145.65826330532215"></rect><rect touch-action="none" x="339.5353535353535" y="107.14285714285714" width="6.929292929292929" height="142.85714285714286"></rect><rect touch-action="none" x="346.4646464646465" y="103.64145658263305" width="6.929292929292929" height="146.35854341736695"></rect><rect touch-action="none" x="353.3939393939394" y="86.1344537815126" width="6.929292929292929" height="163.8655462184874"></rect><rect touch-action="none" x="360.32323232323233" y="94.53781512605042" width="6.929292929292929" height="155.46218487394958"></rect><rect touch-action="none" x="367.25252525252523" y="76.33053221288517" width="6.929292929292929" height="173.66946778711483"></rect><rect touch-action="none" x="374.1818181818182" y="103.64145658263305" width="6.929292929292929" height="146.35854341736695"></rect><rect touch-action="none" x="381.1111111111111" y="77.03081232492997" width="6.929292929292929" height="172.96918767507003"></rect><rect touch-action="none" x="388.04040404040404" y="58.12324929971987" width="6.929292929292929" height="191.87675070028013"></rect><rect touch-action="none" x="394.96969696969694" y="53.921568627450995" width="6.929292929292929" height="196.078431372549"></rect><rect touch-action="none" x="401.8989898989899" y="44.117647058823536" width="6.929292929292929" height="205.88235294117646"></rect><rect touch-action="none" x="408.8282828282828" y="39.21568627450981" width="6.929292929292929" height="210.7843137254902"></rect><rect touch-action="none" x="415.75757575757575" y="60.22408963585434" width="6.929292929292929" height="189.77591036414566"></rect><rect touch-action="none" x="422.68686868686865" y="63.0252100840336" width="6.929292929292929" height="186.9747899159664"></rect><rect touch-action="none" x="429.6161616161616" y="37.11484593837537" width="6.929292929292929" height="212.88515406162463"></rect><rect touch-action="none" x="436.5454545454545" y="24.50980392156862" width="6.929292929292929" height="225.49019607843138"></rect><rect touch-action="none" x="443.47474747474746" y="41.316526610644246" width="6.929292929292929" height="208.68347338935575"></rect><rect touch-action="none" x="450.4040404040404" y="44.81792717086836" width="6.929292929292929" height="205.18207282913164"></rect><rect touch-action="none" x="457.3333333333333" y="37.81512605042016" width="6.929292929292929" height="212.18487394957984"></rect><rect touch-action="none" x="464.26262626262627" y="72.82913165266106" width="6.929292929292929" height="177.17086834733894"></rect><rect touch-action="none" x="471.19191919191917" y="32.21288515406161" width="6.929292929292929" height="217.7871148459384"></rect><rect touch-action="none" x="478.1212121212121" y="49.71988795518206" width="6.929292929292929" height="200.28011204481794"></rect><rect touch-action="none" x="485.050505050505" y="58.823529411764724" width="6.929292929292929" height="191.17647058823528"></rect><rect touch-action="none" x="491.979797979798" y="68.62745098039215" width="6.929292929292929" height="181.37254901960785"></rect><rect touch-action="none" x="498.9090909090909" y="14.005602240896366" width="6.929292929292929" height="235.99439775910363"></rect><rect touch-action="none" x="505.83838383838383" y="81.23249299719888" width="6.929292929292929" height="168.76750700280112"></rect><rect touch-action="none" x="512.7676767676768" y="86.1344537815126" width="6.929292929292929" height="163.8655462184874"></rect><rect touch-action="none" x="519.6969696969696" y="48.31932773109244" width="6.929292929292929" height="201.68067226890756"></rect><rect touch-action="none" x="526.6262626262626" y="53.921568627450995" width="6.929292929292929" height="196.078431372549"></rect><rect touch-action="none" x="533.5555555555555" y="155.46218487394958" width="6.929292929292929" height="94.53781512605042"></rect><rect touch-action="none" x="540.4848484848485" y="77.03081232492997" width="6.929292929292929" height="172.96918767507003"></rect><rect touch-action="none" x="547.4141414141413" y="88.93557422969187" width="6.929292929292929" height="161.06442577030813"></rect><rect touch-action="none" x="554.3434343434343" y="114.14565826330534" width="6.929292929292929" height="135.85434173669466"></rect><rect touch-action="none" x="561.2727272727273" y="62.32492997198881" width="6.929292929292929" height="187.6750700280112"></rect><rect touch-action="none" x="568.2020202020202" y="77.73109243697479" width="6.929292929292929" height="172.2689075630252"></rect><rect touch-action="none" x="575.1313131313132" y="87.53501400560222" width="6.929292929292929" height="162.46498599439778"></rect><rect touch-action="none" x="582.060606060606" y="75.63025210084035" width="6.929292929292929" height="174.36974789915965"></rect><rect touch-action="none" x="588.989898989899" y="84.73389355742296" width="6.929292929292929" height="165.26610644257704"></rect><rect touch-action="none" x="595.9191919191919" y="80.53221288515405" width="6.929292929292929" height="169.46778711484595"></rect><rect touch-action="none" x="602.8484848484849" y="72.12885154061624" width="6.929292929292929" height="177.87114845938376"></rect><rect touch-action="none" x="609.7777777777777" y="72.12885154061624" width="6.929292929292929" height="177.87114845938376"></rect><rect touch-action="none" x="616.7070707070707" y="90.33613445378151" width="6.929292929292929" height="159.6638655462185"></rect><rect touch-action="none" x="623.6363636363636" y="79.13165266106444" width="6.929292929292929" height="170.86834733893556"></rect><rect touch-action="none" x="630.5656565656566" y="102.94117647058823" width="6.929292929292929" height="147.05882352941177"></rect><rect touch-action="none" x="637.4949494949494" y="100.84033613445379" width="6.929292929292929" height="149.1596638655462"></rect><rect touch-action="none" x="644.4242424242424" y="91.03641456582633" width="6.929292929292929" height="158.96358543417367"></rect><rect touch-action="none" x="651.3535353535353" y="148.4593837535014" width="6.929292929292929" height="101.54061624649859"></rect><rect touch-action="none" x="658.2828282828283" y="94.53781512605042" width="6.929292929292929" height="155.46218487394958"></rect><rect touch-action="none" x="665.2121212121212" y="105.74229691876752" width="6.929292929292929" height="144.25770308123248"></rect><rect touch-action="none" x="672.1414141414141" y="115.54621848739495" width="6.929292929292929" height="134.45378151260505"></rect><rect touch-action="none" x="679.070707070707" y="74.92997198879553" width="6.929292929292929" height="175.07002801120447"></rect></g><g class="layer" category="Post-season Goals" fill="#013878" stroke="#fff" mask="url(#season-chart-mask-stripe)"><rect touch-action="none" x="0" y="167.36694677871148" width="6.929292929292929" height="7.002801120448197"></rect><rect touch-action="none" x="6.929292929292929" y="205.88235294117646" width="6.929292929292929" height="0"></rect><rect touch-action="none" x="13.858585858585858" y="166.66666666666669" width="6.929292929292929" height="0"></rect><rect touch-action="none" x="20.78787878787879" y="176.47058823529412" width="6.929292929292929" height="0"></rect><rect touch-action="none" x="27.717171717171716" y="177.87114845938376" width="6.929292929292929" height="3.5014005602240843"></rect><rect touch-action="none" x="34.64646464646464" y="192.57703081232495" width="6.929292929292929" height="0"></rect><rect touch-action="none" x="41.57575757575758" y="208.68347338935575" width="6.929292929292929" height="0"></rect><rect touch-action="none" x="48.505050505050505" y="185.57422969187675" width="6.929292929292929" height="1.400560224089645"></rect><rect touch-action="none" x="55.43434343434343" y="185.57422969187675" width="6.929292929292929" height="0"></rect><rect touch-action="none" x="62.36363636363636" y="194.6778711484594" width="6.929292929292929" height="0"></rect><rect touch-action="none" x="69.29292929292929" y="186.9747899159664" width="6.929292929292929" height="0"></rect><rect touch-action="none" x="76.22222222222221" y="184.87394957983193" width="6.929292929292929" height="5.602240896358552"></rect><rect touch-action="none" x="83.15151515151516" y="168.7675070028011" width="6.929292929292929" height="0"></rect><rect touch-action="none" x="90.08080808080808" y="165.26610644257704" width="6.929292929292929" height="2.100840336134439"></rect><rect touch-action="none" x="97.01010101010101" y="121.84873949579833" width="6.929292929292929" height="19.60784313725489"></rect><rect touch-action="none" x="103.93939393939394" y="156.86274509803923" width="6.929292929292929" height="9.803921568627459"></rect><rect touch-action="none" x="110.86868686868686" y="120.44817927170868" width="6.929292929292929" height="8.403361344537814"></rect><rect touch-action="none" x="117.79797979797979" y="132.3529411764706" width="6.929292929292929" height="7.703081232492991"></rect><rect touch-action="none" x="124.72727272727272" y="144.25770308123248" width="6.929292929292929" height="17.50700280112045"></rect><rect touch-action="none" x="131.65656565656565" y="165.96638655462186" width="6.929292929292929" height="0.7002801120448225"></rect><rect touch-action="none" x="138.58585858585857" y="134.45378151260502" width="6.929292929292929" height="9.803921568627459"></rect><rect touch-action="none" x="145.5151515151515" y="154.76190476190476" width="6.929292929292929" height="15.406162464985982"></rect><rect touch-action="none" x="152.44444444444443" y="141.45658263305322" width="6.929292929292929" height="14.705882352941188"></rect><rect touch-action="none" x="159.37373737373736" y="136.5546218487395" width="6.929292929292929" height="11.904761904761926"></rect><rect touch-action="none" x="166.3030303030303" y="112.74509803921566" width="6.929292929292929" height="26.610644257703115"></rect><rect touch-action="none" x="173.23232323232324" y="99.43977591036415" width="6.929292929292929" height="11.904761904761898"></rect><rect touch-action="none" x="180.16161616161617" y="95.93837535014003" width="6.929292929292929" height="4.201680672268935"></rect><rect touch-action="none" x="187.0909090909091" y="105.04201680672267" width="6.929292929292929" height="16.806722689075656"></rect><rect touch-action="none" x="194.02020202020202" y="128.15126050420167" width="6.929292929292929" height="0"></rect><rect touch-action="none" x="200.94949494949495" y="81.9327731092437" width="6.929292929292929" height="21.708683473389357"></rect><rect touch-action="none" x="207.87878787878788" y="95.93837535014003" width="6.929292929292929" height="26.610644257703115"></rect><rect touch-action="none" x="214.8080808080808" y="127.45098039215686" width="6.929292929292929" height="19.607843137254903"></rect><rect touch-action="none" x="221.73737373737373" y="119.04761904761904" width="6.929292929292929" height="7.703081232493005"></rect><rect touch-action="none" x="228.66666666666666" y="80.53221288515405" width="6.929292929292929" height="21.008403361344534"></rect><rect touch-action="none" x="235.59595959595958" y="130.25210084033614" width="6.929292929292929" height="2.1008403361344676"></rect><rect touch-action="none" x="242.5252525252525" y="140.75630252100842" width="6.929292929292929" height="0"></rect><rect touch-action="none" x="249.45454545454544" y="137.95518207282913" width="6.929292929292929" height="5.602240896358552"></rect><rect touch-action="none" x="256.3838383838384" y="142.85714285714286" width="6.929292929292929" height="4.201680672268907"></rect><rect touch-action="none" x="263.3131313131313" y="135.85434173669466" width="6.929292929292929" height="7.002801120448197"></rect><rect touch-action="none" x="270.24242424242425" y="128.15126050420167" width="6.929292929292929" height="0"></rect><rect touch-action="none" x="277.17171717171715" y="115.54621848739495" width="6.929292929292929" height="0"></rect><rect touch-action="none" x="284.1010101010101" y="95.23809523809524" width="6.929292929292929" height="22.40896358543418"></rect><rect touch-action="none" x="291.030303030303" y="93.13725490196077" width="6.929292929292929" height="17.50700280112045"></rect><rect touch-action="none" x="297.95959595959596" y="80.53221288515405" width="6.929292929292929" height="5.602240896358552"></rect><rect touch-action="none" x="304.88888888888886" y="59.52380952380955" width="6.929292929292929" height="28.011204481792674"></rect><rect touch-action="none" x="311.8181818181818" y="73.52941176470588" width="6.929292929292929" height="21.708683473389357"></rect><rect touch-action="none" x="318.7474747474747" y="88.23529411764704" width="6.929292929292929" height="27.31092436974791"></rect><rect touch-action="none" x="325.67676767676767" y="97.33893557422968" width="6.929292929292929" height="9.803921568627459"></rect><rect touch-action="none" x="332.6060606060606" y="100.14005602240897" width="6.929292929292929" height="4.201680672268878"></rect><rect touch-action="none" x="339.5353535353535" y="82.63305322128852" width="6.929292929292929" height="24.50980392156862"></rect><rect touch-action="none" x="346.4646464646465" y="103.64145658263305" width="6.929292929292929" height="0"></rect><rect touch-action="none" x="353.3939393939394" y="82.63305322128852" width="6.929292929292929" height="3.5014005602240843"></rect><rect touch-action="none" x="360.32323232323233" y="94.53781512605042" width="6.929292929292929" height="0"></rect><rect touch-action="none" x="367.25252525252523" y="65.82633053221286" width="6.929292929292929" height="10.50420168067231"></rect><rect touch-action="none" x="374.1818181818182" y="96.63865546218486" width="6.929292929292929" height="7.002801120448197"></rect><rect touch-action="none" x="381.1111111111111" y="77.03081232492997" width="6.929292929292929" height="0"></rect><rect touch-action="none" x="388.04040404040404" y="51.82072829131653" width="6.929292929292929" height="6.302521008403346"></rect><rect touch-action="none" x="394.96969696969694" y="44.81792717086836" width="6.929292929292929" height="9.103641456582636"></rect><rect touch-action="none" x="401.8989898989899" y="22.40896358543418" width="6.929292929292929" height="21.708683473389357"></rect><rect touch-action="none" x="408.8282828282828" y="17.50700280112045" width="6.929292929292929" height="21.708683473389357"></rect><rect touch-action="none" x="415.75757575757575" y="37.11484593837537" width="6.929292929292929" height="23.109243697478973"></rect><rect touch-action="none" x="422.68686868686865" y="49.71988795518206" width="6.929292929292929" height="13.305322128851543"></rect><rect touch-action="none" x="429.6161616161616" y="31.512605042016816" width="6.929292929292929" height="5.602240896358552"></rect><rect touch-action="none" x="436.5454545454545" y="21.708683473389357" width="6.929292929292929" height="2.8011204481792618"></rect><rect touch-action="none" x="443.47474747474746" y="41.316526610644246" width="6.929292929292929" height="0"></rect><rect touch-action="none" x="450.4040404040404" y="32.21288515406161" width="6.929292929292929" height="12.605042016806749"></rect><rect touch-action="none" x="457.3333333333333" y="37.81512605042016" width="6.929292929292929" height="0"></rect><rect touch-action="none" x="464.26262626262627" y="72.82913165266106" width="6.929292929292929" height="0"></rect><rect touch-action="none" x="471.19191919191917" y="4.201680672268907" width="6.929292929292929" height="28.011204481792703"></rect><rect touch-action="none" x="478.1212121212121" y="26.610644257703058" width="6.929292929292929" height="23.109243697479002"></rect><rect touch-action="none" x="485.050505050505" y="44.81792717086836" width="6.929292929292929" height="14.005602240896366"></rect><rect touch-action="none" x="491.979797979798" y="68.62745098039215" width="6.929292929292929" height="0"></rect><rect touch-action="none" x="498.9090909090909" y="2.8011204481792618" width="6.929292929292929" height="11.204481792717104"></rect><rect touch-action="none" x="505.83838383838383" y="81.23249299719888" width="6.929292929292929" height="0"></rect><rect touch-action="none" x="512.7676767676768" y="86.1344537815126" width="6.929292929292929" height="0"></rect><rect touch-action="none" x="519.6969696969696" y="0" width="6.929292929292929" height="48.31932773109244"></rect><rect touch-action="none" x="526.6262626262626" y="18.907563025210067" width="6.929292929292929" height="35.01400560224093"></rect><rect touch-action="none" x="533.5555555555555" y="141.45658263305322" width="6.929292929292929" height="14.005602240896366"></rect><rect touch-action="none" x="540.4848484848485" y="66.52661064425772" width="6.929292929292929" height="10.504201680672253"></rect><rect touch-action="none" x="547.4141414141413" y="88.93557422969187" width="6.929292929292929" height="0"></rect><rect touch-action="none" x="554.3434343434343" y="114.14565826330534" width="6.929292929292929" height="0"></rect><rect touch-action="none" x="561.2727272727273" y="32.21288515406161" width="6.929292929292929" height="30.1120448179272"></rect><rect touch-action="none" x="568.2020202020202" y="59.52380952380955" width="6.929292929292929" height="18.207282913165244"></rect><rect touch-action="none" x="575.1313131313132" y="67.92717086834736" width="6.929292929292929" height="19.60784313725486"></rect><rect touch-action="none" x="582.060606060606" y="44.81792717086836" width="6.929292929292929" height="30.812324929971993"></rect><rect touch-action="none" x="588.989898989899" y="73.52941176470588" width="6.929292929292929" height="11.204481792717075"></rect><rect touch-action="none" x="595.9191919191919" y="61.624649859943986" width="6.929292929292929" height="18.907563025210067"></rect><rect touch-action="none" x="602.8484848484849" y="72.12885154061624" width="6.929292929292929" height="0"></rect><rect touch-action="none" x="609.7777777777777" y="72.12885154061624" width="6.929292929292929" height="0"></rect><rect touch-action="none" x="616.7070707070707" y="90.33613445378151" width="6.929292929292929" height="0"></rect><rect touch-action="none" x="623.6363636363636" y="79.13165266106444" width="6.929292929292929" height="0"></rect><rect touch-action="none" x="630.5656565656566" y="102.94117647058823" width="6.929292929292929" height="0"></rect><rect touch-action="none" x="637.4949494949494" y="100.84033613445379" width="6.929292929292929" height="0"></rect><rect touch-action="none" x="644.4242424242424" y="91.03641456582633" width="6.929292929292929" height="0"></rect><rect touch-action="none" x="651.3535353535353" y="135.85434173669466" width="6.929292929292929" height="12.605042016806749"></rect><rect touch-action="none" x="658.2828282828283" y="94.53781512605042" width="6.929292929292929" height="0"></rect><rect touch-action="none" x="665.2121212121212" y="105.74229691876752" width="6.929292929292929" height="0"></rect><rect touch-action="none" x="672.1414141414141" y="115.54621848739495" width="6.929292929292929" height="0"></rect><rect touch-action="none" x="679.070707070707" y="63.725490196078425" width="6.929292929292929" height="11.204481792717104"></rect></g><g class="layer" category="Regular Season Even Strength Goals" fill="#769fce" stroke="#fff"><rect touch-action="none" x="0" y="167.36694677871148" width="6.929292929292929" height="0"></rect><rect touch-action="none" x="6.929292929292929" y="205.88235294117646" width="6.929292929292929" height="0"></rect><rect touch-action="none" x="13.858585858585858" y="166.66666666666669" width="6.929292929292929" height="0"></rect><rect touch-action="none" x="20.78787878787879" y="176.47058823529412" width="6.929292929292929" height="0"></rect><rect touch-action="none" x="27.717171717171716" y="177.87114845938376" width="6.929292929292929" height="0"></rect><rect touch-action="none" x="34.64646464646464" y="192.57703081232495" width="6.929292929292929" height="0"></rect><rect touch-action="none" x="41.57575757575758" y="208.68347338935575" width="6.929292929292929" height="0"></rect><rect touch-action="none" x="48.505050505050505" y="185.57422969187675" width="6.929292929292929" height="0"></rect><rect touch-action="none" x="55.43434343434343" y="185.57422969187675" width="6.929292929292929" height="0"></rect><rect touch-action="none" x="62.36363636363636" y="194.6778711484594" width="6.929292929292929" height="0"></rect><rect touch-action="none" x="69.29292929292929" y="186.9747899159664" width="6.929292929292929" height="0"></rect><rect touch-action="none" x="76.22222222222221" y="184.87394957983193" width="6.929292929292929" height="0"></rect><rect touch-action="none" x="83.15151515151516" y="168.7675070028011" width="6.929292929292929" height="0"></rect><rect touch-action="none" x="90.08080808080808" y="165.26610644257704" width="6.929292929292929" height="0"></rect><rect touch-action="none" x="97.01010101010101" y="121.84873949579833" width="6.929292929292929" height="0"></rect><rect touch-action="none" x="103.93939393939394" y="156.86274509803923" width="6.929292929292929" height="0"></rect><rect touch-action="none" x="110.86868686868686" y="120.44817927170868" width="6.929292929292929" height="0"></rect><rect touch-action="none" x="117.79797979797979" y="132.3529411764706" width="6.929292929292929" height="0"></rect><rect touch-action="none" x="124.72727272727272" y="144.25770308123248" width="6.929292929292929" height="0"></rect><rect touch-action="none" x="131.65656565656565" y="165.96638655462186" width="6.929292929292929" height="0"></rect><rect touch-action="none" x="138.58585858585857" y="134.45378151260502" width="6.929292929292929" height="0"></rect><rect touch-action="none" x="145.5151515151515" y="154.76190476190476" width="6.929292929292929" height="0"></rect><rect touch-action="none" x="152.44444444444443" y="141.45658263305322" width="6.929292929292929" height="0"></rect><rect touch-action="none" x="159.37373737373736" y="136.5546218487395" width="6.929292929292929" height="0"></rect><rect touch-action="none" x="166.3030303030303" y="112.74509803921566" width="6.929292929292929" height="0"></rect><rect touch-action="none" x="173.23232323232324" y="99.43977591036415" width="6.929292929292929" height="0"></rect><rect touch-action="none" x="180.16161616161617" y="95.93837535014003" width="6.929292929292929" height="0"></rect><rect touch-action="none" x="187.0909090909091" y="105.04201680672267" width="6.929292929292929" height="0"></rect><rect touch-action="none" x="194.02020202020202" y="128.15126050420167" width="6.929292929292929" height="0"></rect><rect touch-action="none" x="200.94949494949495" y="81.9327731092437" width="6.929292929292929" height="0"></rect><rect touch-action="none" x="207.87878787878788" y="95.93837535014003" width="6.929292929292929" height="0"></rect><rect touch-action="none" x="214.8080808080808" y="127.45098039215686" width="6.929292929292929" height="0"></rect><rect touch-action="none" x="221.73737373737373" y="119.04761904761904" width="6.929292929292929" height="0"></rect><rect touch-action="none" x="228.66666666666666" y="80.53221288515405" width="6.929292929292929" height="0"></rect><rect touch-action="none" x="235.59595959595958" y="130.25210084033614" width="6.929292929292929" height="0"></rect><rect touch-action="none" x="242.5252525252525" y="140.75630252100842" width="6.929292929292929" height="0"></rect><rect touch-action="none" x="249.45454545454544" y="137.95518207282913" width="6.929292929292929" height="0"></rect><rect touch-action="none" x="256.3838383838384" y="142.85714285714286" width="6.929292929292929" height="0"></rect><rect touch-action="none" x="263.3131313131313" y="135.85434173669466" width="6.929292929292929" height="0"></rect><rect touch-action="none" x="270.24242424242425" y="128.15126050420167" width="6.929292929292929" height="0"></rect><rect touch-action="none" x="277.17171717171715" y="115.54621848739495" width="6.929292929292929" height="0"></rect><rect touch-action="none" x="284.1010101010101" y="95.23809523809524" width="6.929292929292929" height="0"></rect><rect touch-action="none" x="291.030303030303" y="93.13725490196077" width="6.929292929292929" height="0"></rect><rect touch-action="none" x="297.95959595959596" y="80.53221288515405" width="6.929292929292929" height="0"></rect><rect touch-action="none" x="304.88888888888886" y="59.52380952380955" width="6.929292929292929" height="0"></rect><rect touch-action="none" x="311.8181818181818" y="73.52941176470588" width="6.929292929292929" height="0"></rect><rect touch-action="none" x="318.7474747474747" y="88.23529411764704" width="6.929292929292929" height="0"></rect><rect touch-action="none" x="325.67676767676767" y="97.33893557422968" width="6.929292929292929" height="0"></rect><rect touch-action="none" x="332.6060606060606" y="100.14005602240897" width="6.929292929292929" height="0"></rect><rect touch-action="none" x="339.5353535353535" y="82.63305322128852" width="6.929292929292929" height="0"></rect><rect touch-action="none" x="346.4646464646465" y="103.64145658263305" width="6.929292929292929" height="0"></rect><rect touch-action="none" x="353.3939393939394" y="82.63305322128852" width="6.929292929292929" height="0"></rect><rect touch-action="none" x="360.32323232323233" y="94.53781512605042" width="6.929292929292929" height="0"></rect><rect touch-action="none" x="367.25252525252523" y="65.82633053221286" width="6.929292929292929" height="0"></rect><rect touch-action="none" x="374.1818181818182" y="96.63865546218486" width="6.929292929292929" height="0"></rect><rect touch-action="none" x="381.1111111111111" y="77.03081232492997" width="6.929292929292929" height="0"></rect><rect touch-action="none" x="388.04040404040404" y="51.82072829131653" width="6.929292929292929" height="0"></rect><rect touch-action="none" x="394.96969696969694" y="44.81792717086836" width="6.929292929292929" height="0"></rect><rect touch-action="none" x="401.8989898989899" y="22.40896358543418" width="6.929292929292929" height="0"></rect><rect touch-action="none" x="408.8282828282828" y="17.50700280112045" width="6.929292929292929" height="0"></rect><rect touch-action="none" x="415.75757575757575" y="37.11484593837537" width="6.929292929292929" height="0"></rect><rect touch-action="none" x="422.68686868686865" y="49.71988795518206" width="6.929292929292929" height="0"></rect><rect touch-action="none" x="429.6161616161616" y="31.512605042016816" width="6.929292929292929" height="0"></rect><rect touch-action="none" x="436.5454545454545" y="21.708683473389357" width="6.929292929292929" height="0"></rect><rect touch-action="none" x="443.47474747474746" y="41.316526610644246" width="6.929292929292929" height="0"></rect><rect touch-action="none" x="450.4040404040404" y="32.21288515406161" width="6.929292929292929" height="0"></rect><rect touch-action="none" x="457.3333333333333" y="37.81512605042016" width="6.929292929292929" height="0"></rect><rect touch-action="none" x="464.26262626262627" y="72.82913165266106" width="6.929292929292929" height="0"></rect><rect touch-action="none" x="471.19191919191917" y="4.201680672268907" width="6.929292929292929" height="0"></rect><rect touch-action="none" x="478.1212121212121" y="26.610644257703058" width="6.929292929292929" height="0"></rect><rect touch-action="none" x="485.050505050505" y="44.81792717086836" width="6.929292929292929" height="0"></rect><rect touch-action="none" x="491.979797979798" y="68.62745098039215" width="6.929292929292929" height="0"></rect><rect touch-action="none" x="498.9090909090909" y="2.8011204481792618" width="6.929292929292929" height="0"></rect><rect touch-action="none" x="505.83838383838383" y="81.23249299719888" width="6.929292929292929" height="0"></rect><rect touch-action="none" x="512.7676767676768" y="86.1344537815126" width="6.929292929292929" height="0"></rect><rect touch-action="none" x="519.6969696969696" y="0" width="6.929292929292929" height="0"></rect><rect touch-action="none" x="526.6262626262626" y="18.907563025210067" width="6.929292929292929" height="0"></rect><rect touch-action="none" x="533.5555555555555" y="141.45658263305322" width="6.929292929292929" height="0"></rect><rect touch-action="none" x="540.4848484848485" y="66.52661064425772" width="6.929292929292929" height="0"></rect><rect touch-action="none" x="547.4141414141413" y="88.93557422969187" width="6.929292929292929" height="0"></rect><rect touch-action="none" x="554.3434343434343" y="114.14565826330534" width="6.929292929292929" height="0"></rect><rect touch-action="none" x="561.2727272727273" y="32.21288515406161" width="6.929292929292929" height="0"></rect><rect touch-action="none" x="568.2020202020202" y="59.52380952380955" width="6.929292929292929" height="0"></rect><rect touch-action="none" x="575.1313131313132" y="67.92717086834736" width="6.929292929292929" height="0"></rect><rect touch-action="none" x="582.060606060606" y="44.81792717086836" width="6.929292929292929" height="0"></rect><rect touch-action="none" x="588.989898989899" y="73.52941176470588" width="6.929292929292929" height="0"></rect><rect touch-action="none" x="595.9191919191919" y="61.624649859943986" width="6.929292929292929" height="0"></rect><rect touch-action="none" x="602.8484848484849" y="72.12885154061624" width="6.929292929292929" height="0"></rect><rect touch-action="none" x="609.7777777777777" y="72.12885154061624" width="6.929292929292929" height="0"></rect><rect touch-action="none" x="616.7070707070707" y="90.33613445378151" width="6.929292929292929" height="0"></rect><rect touch-action="none" x="623.6363636363636" y="79.13165266106444" width="6.929292929292929" height="0"></rect><rect touch-action="none" x="630.5656565656566" y="102.94117647058823" width="6.929292929292929" height="0"></rect><rect touch-action="none" x="637.4949494949494" y="100.84033613445379" width="6.929292929292929" height="0"></rect><rect touch-action="none" x="644.4242424242424" y="91.03641456582633" width="6.929292929292929" height="0"></rect><rect touch-action="none" x="651.3535353535353" y="135.85434173669466" width="6.929292929292929" height="0"></rect><rect touch-action="none" x="658.2828282828283" y="94.53781512605042" width="6.929292929292929" height="0"></rect><rect touch-action="none" x="665.2121212121212" y="105.74229691876752" width="6.929292929292929" height="0"></rect><rect touch-action="none" x="672.1414141414141" y="115.54621848739495" width="6.929292929292929" height="0"></rect><rect touch-action="none" x="679.070707070707" y="63.725490196078425" width="6.929292929292929" height="0"></rect></g><g class="layer" category="Regular Season Power-Play Goals" fill="#3fb34f" stroke="#fff"><rect touch-action="none" x="0" y="167.36694677871148" width="6.929292929292929" height="0"></rect><rect touch-action="none" x="6.929292929292929" y="205.88235294117646" width="6.929292929292929" height="0"></rect><rect touch-action="none" x="13.858585858585858" y="166.66666666666669" width="6.929292929292929" height="0"></rect><rect touch-action="none" x="20.78787878787879" y="176.47058823529412" width="6.929292929292929" height="0"></rect><rect touch-action="none" x="27.717171717171716" y="177.87114845938376" width="6.929292929292929" height="0"></rect><rect touch-action="none" x="34.64646464646464" y="192.57703081232495" width="6.929292929292929" height="0"></rect><rect touch-action="none" x="41.57575757575758" y="208.68347338935575" width="6.929292929292929" height="0"></rect><rect touch-action="none" x="48.505050505050505" y="185.57422969187675" width="6.929292929292929" height="0"></rect><rect touch-action="none" x="55.43434343434343" y="185.57422969187675" width="6.929292929292929" height="0"></rect><rect touch-action="none" x="62.36363636363636" y="194.6778711484594" width="6.929292929292929" height="0"></rect><rect touch-action="none" x="69.29292929292929" y="186.9747899159664" width="6.929292929292929" height="0"></rect><rect touch-action="none" x="76.22222222222221" y="184.87394957983193" width="6.929292929292929" height="0"></rect><rect touch-action="none" x="83.15151515151516" y="168.7675070028011" width="6.929292929292929" height="0"></rect><rect touch-action="none" x="90.08080808080808" y="165.26610644257704" width="6.929292929292929" height="0"></rect><rect touch-action="none" x="97.01010101010101" y="121.84873949579833" width="6.929292929292929" height="0"></rect><rect touch-action="none" x="103.93939393939394" y="156.86274509803923" width="6.929292929292929" height="0"></rect><rect touch-action="none" x="110.86868686868686" y="120.44817927170868" width="6.929292929292929" height="0"></rect><rect touch-action="none" x="117.79797979797979" y="132.3529411764706" width="6.929292929292929" height="0"></rect><rect touch-action="none" x="124.72727272727272" y="144.25770308123248" width="6.929292929292929" height="0"></rect><rect touch-action="none" x="131.65656565656565" y="165.96638655462186" width="6.929292929292929" height="0"></rect><rect touch-action="none" x="138.58585858585857" y="134.45378151260502" width="6.929292929292929" height="0"></rect><rect touch-action="none" x="145.5151515151515" y="154.76190476190476" width="6.929292929292929" height="0"></rect><rect touch-action="none" x="152.44444444444443" y="141.45658263305322" width="6.929292929292929" height="0"></rect><rect touch-action="none" x="159.37373737373736" y="136.5546218487395" width="6.929292929292929" height="0"></rect><rect touch-action="none" x="166.3030303030303" y="112.74509803921566" width="6.929292929292929" height="0"></rect><rect touch-action="none" x="173.23232323232324" y="99.43977591036415" width="6.929292929292929" height="0"></rect><rect touch-action="none" x="180.16161616161617" y="95.93837535014003" width="6.929292929292929" height="0"></rect><rect touch-action="none" x="187.0909090909091" y="105.04201680672267" width="6.929292929292929" height="0"></rect><rect touch-action="none" x="194.02020202020202" y="128.15126050420167" width="6.929292929292929" height="0"></rect><rect touch-action="none" x="200.94949494949495" y="81.9327731092437" width="6.929292929292929" height="0"></rect><rect touch-action="none" x="207.87878787878788" y="95.93837535014003" width="6.929292929292929" height="0"></rect><rect touch-action="none" x="214.8080808080808" y="127.45098039215686" width="6.929292929292929" height="0"></rect><rect touch-action="none" x="221.73737373737373" y="119.04761904761904" width="6.929292929292929" height="0"></rect><rect touch-action="none" x="228.66666666666666" y="80.53221288515405" width="6.929292929292929" height="0"></rect><rect touch-action="none" x="235.59595959595958" y="130.25210084033614" width="6.929292929292929" height="0"></rect><rect touch-action="none" x="242.5252525252525" y="140.75630252100842" width="6.929292929292929" height="0"></rect><rect touch-action="none" x="249.45454545454544" y="137.95518207282913" width="6.929292929292929" height="0"></rect><rect touch-action="none" x="256.3838383838384" y="142.85714285714286" width="6.929292929292929" height="0"></rect><rect touch-action="none" x="263.3131313131313" y="135.85434173669466" width="6.929292929292929" height="0"></rect><rect touch-action="none" x="270.24242424242425" y="128.15126050420167" width="6.929292929292929" height="0"></rect><rect touch-action="none" x="277.17171717171715" y="115.54621848739495" width="6.929292929292929" height="0"></rect><rect touch-action="none" x="284.1010101010101" y="95.23809523809524" width="6.929292929292929" height="0"></rect><rect touch-action="none" x="291.030303030303" y="93.13725490196077" width="6.929292929292929" height="0"></rect><rect touch-action="none" x="297.95959595959596" y="80.53221288515405" width="6.929292929292929" height="0"></rect><rect touch-action="none" x="304.88888888888886" y="59.52380952380955" width="6.929292929292929" height="0"></rect><rect touch-action="none" x="311.8181818181818" y="73.52941176470588" width="6.929292929292929" height="0"></rect><rect touch-action="none" x="318.7474747474747" y="88.23529411764704" width="6.929292929292929" height="0"></rect><rect touch-action="none" x="325.67676767676767" y="97.33893557422968" width="6.929292929292929" height="0"></rect><rect touch-action="none" x="332.6060606060606" y="100.14005602240897" width="6.929292929292929" height="0"></rect><rect touch-action="none" x="339.5353535353535" y="82.63305322128852" width="6.929292929292929" height="0"></rect><rect touch-action="none" x="346.4646464646465" y="103.64145658263305" width="6.929292929292929" height="0"></rect><rect touch-action="none" x="353.3939393939394" y="82.63305322128852" width="6.929292929292929" height="0"></rect><rect touch-action="none" x="360.32323232323233" y="94.53781512605042" width="6.929292929292929" height="0"></rect><rect touch-action="none" x="367.25252525252523" y="65.82633053221286" width="6.929292929292929" height="0"></rect><rect touch-action="none" x="374.1818181818182" y="96.63865546218486" width="6.929292929292929" height="0"></rect><rect touch-action="none" x="381.1111111111111" y="77.03081232492997" width="6.929292929292929" height="0"></rect><rect touch-action="none" x="388.04040404040404" y="51.82072829131653" width="6.929292929292929" height="0"></rect><rect touch-action="none" x="394.96969696969694" y="44.81792717086836" width="6.929292929292929" height="0"></rect><rect touch-action="none" x="401.8989898989899" y="22.40896358543418" width="6.929292929292929" height="0"></rect><rect touch-action="none" x="408.8282828282828" y="17.50700280112045" width="6.929292929292929" height="0"></rect><rect touch-action="none" x="415.75757575757575" y="37.11484593837537" width="6.929292929292929" height="0"></rect><rect touch-action="none" x="422.68686868686865" y="49.71988795518206" width="6.929292929292929" height="0"></rect><rect touch-action="none" x="429.6161616161616" y="31.512605042016816" width="6.929292929292929" height="0"></rect><rect touch-action="none" x="436.5454545454545" y="21.708683473389357" width="6.929292929292929" height="0"></rect><rect touch-action="none" x="443.47474747474746" y="41.316526610644246" width="6.929292929292929" height="0"></rect><rect touch-action="none" x="450.4040404040404" y="32.21288515406161" width="6.929292929292929" height="0"></rect><rect touch-action="none" x="457.3333333333333" y="37.81512605042016" width="6.929292929292929" height="0"></rect><rect touch-action="none" x="464.26262626262627" y="72.82913165266106" width="6.929292929292929" height="0"></rect><rect touch-action="none" x="471.19191919191917" y="4.201680672268907" width="6.929292929292929" height="0"></rect><rect touch-action="none" x="478.1212121212121" y="26.610644257703058" width="6.929292929292929" height="0"></rect><rect touch-action="none" x="485.050505050505" y="44.81792717086836" width="6.929292929292929" height="0"></rect><rect touch-action="none" x="491.979797979798" y="68.62745098039215" width="6.929292929292929" height="0"></rect><rect touch-action="none" x="498.9090909090909" y="2.8011204481792618" width="6.929292929292929" height="0"></rect><rect touch-action="none" x="505.83838383838383" y="81.23249299719888" width="6.929292929292929" height="0"></rect><rect touch-action="none" x="512.7676767676768" y="86.1344537815126" width="6.929292929292929" height="0"></rect><rect touch-action="none" x="519.6969696969696" y="0" width="6.929292929292929" height="0"></rect><rect touch-action="none" x="526.6262626262626" y="18.907563025210067" width="6.929292929292929" height="0"></rect><rect touch-action="none" x="533.5555555555555" y="141.45658263305322" width="6.929292929292929" height="0"></rect><rect touch-action="none" x="540.4848484848485" y="66.52661064425772" width="6.929292929292929" height="0"></rect><rect touch-action="none" x="547.4141414141413" y="88.93557422969187" width="6.929292929292929" height="0"></rect><rect touch-action="none" x="554.3434343434343" y="114.14565826330534" width="6.929292929292929" height="0"></rect><rect touch-action="none" x="561.2727272727273" y="32.21288515406161" width="6.929292929292929" height="0"></rect><rect touch-action="none" x="568.2020202020202" y="59.52380952380955" width="6.929292929292929" height="0"></rect><rect touch-action="none" x="575.1313131313132" y="67.92717086834736" width="6.929292929292929" height="0"></rect><rect touch-action="none" x="582.060606060606" y="44.81792717086836" width="6.929292929292929" height="0"></rect><rect touch-action="none" x="588.989898989899" y="73.52941176470588" width="6.929292929292929" height="0"></rect><rect touch-action="none" x="595.9191919191919" y="61.624649859943986" width="6.929292929292929" height="0"></rect><rect touch-action="none" x="602.8484848484849" y="72.12885154061624" width="6.929292929292929" height="0"></rect><rect touch-action="none" x="609.7777777777777" y="72.12885154061624" width="6.929292929292929" height="0"></rect><rect touch-action="none" x="616.7070707070707" y="90.33613445378151" width="6.929292929292929" height="0"></rect><rect touch-action="none" x="623.6363636363636" y="79.13165266106444" width="6.929292929292929" height="0"></rect><rect touch-action="none" x="630.5656565656566" y="102.94117647058823" width="6.929292929292929" height="0"></rect><rect touch-action="none" x="637.4949494949494" y="100.84033613445379" width="6.929292929292929" height="0"></rect><rect touch-action="none" x="644.4242424242424" y="91.03641456582633" width="6.929292929292929" height="0"></rect><rect touch-action="none" x="651.3535353535353" y="135.85434173669466" width="6.929292929292929" height="0"></rect><rect touch-action="none" x="658.2828282828283" y="94.53781512605042" width="6.929292929292929" height="0"></rect><rect touch-action="none" x="665.2121212121212" y="105.74229691876752" width="6.929292929292929" height="0"></rect><rect touch-action="none" x="672.1414141414141" y="115.54621848739495" width="6.929292929292929" height="0"></rect><rect touch-action="none" x="679.070707070707" y="63.725490196078425" width="6.929292929292929" height="0"></rect></g><g class="layer" category="Regular Season Shorthanded Goals" fill="#f69331" stroke="#fff"><rect touch-action="none" x="0" y="167.36694677871148" width="6.929292929292929" height="0"></rect><rect touch-action="none" x="6.929292929292929" y="205.88235294117646" width="6.929292929292929" height="0"></rect><rect touch-action="none" x="13.858585858585858" y="166.66666666666669" width="6.929292929292929" height="0"></rect><rect touch-action="none" x="20.78787878787879" y="176.47058823529412" width="6.929292929292929" height="0"></rect><rect touch-action="none" x="27.717171717171716" y="177.87114845938376" width="6.929292929292929" height="0"></rect><rect touch-action="none" x="34.64646464646464" y="192.57703081232495" width="6.929292929292929" height="0"></rect><rect touch-action="none" x="41.57575757575758" y="208.68347338935575" width="6.929292929292929" height="0"></rect><rect touch-action="none" x="48.505050505050505" y="185.57422969187675" width="6.929292929292929" height="0"></rect><rect touch-action="none" x="55.43434343434343" y="185.57422969187675" width="6.929292929292929" height="0"></rect><rect touch-action="none" x="62.36363636363636" y="194.6778711484594" width="6.929292929292929" height="0"></rect><rect touch-action="none" x="69.29292929292929" y="186.9747899159664" width="6.929292929292929" height="0"></rect><rect touch-action="none" x="76.22222222222221" y="184.87394957983193" width="6.929292929292929" height="0"></rect><rect touch-action="none" x="83.15151515151516" y="168.7675070028011" width="6.929292929292929" height="0"></rect><rect touch-action="none" x="90.08080808080808" y="165.26610644257704" width="6.929292929292929" height="0"></rect><rect touch-action="none" x="97.01010101010101" y="121.84873949579833" width="6.929292929292929" height="0"></rect><rect touch-action="none" x="103.93939393939394" y="156.86274509803923" width="6.929292929292929" height="0"></rect><rect touch-action="none" x="110.86868686868686" y="120.44817927170868" width="6.929292929292929" height="0"></rect><rect touch-action="none" x="117.79797979797979" y="132.3529411764706" width="6.929292929292929" height="0"></rect><rect touch-action="none" x="124.72727272727272" y="144.25770308123248" width="6.929292929292929" height="0"></rect><rect touch-action="none" x="131.65656565656565" y="165.96638655462186" width="6.929292929292929" height="0"></rect><rect touch-action="none" x="138.58585858585857" y="134.45378151260502" width="6.929292929292929" height="0"></rect><rect touch-action="none" x="145.5151515151515" y="154.76190476190476" width="6.929292929292929" height="0"></rect><rect touch-action="none" x="152.44444444444443" y="141.45658263305322" width="6.929292929292929" height="0"></rect><rect touch-action="none" x="159.37373737373736" y="136.5546218487395" width="6.929292929292929" height="0"></rect><rect touch-action="none" x="166.3030303030303" y="112.74509803921566" width="6.929292929292929" height="0"></rect><rect touch-action="none" x="173.23232323232324" y="99.43977591036415" width="6.929292929292929" height="0"></rect><rect touch-action="none" x="180.16161616161617" y="95.93837535014003" width="6.929292929292929" height="0"></rect><rect touch-action="none" x="187.0909090909091" y="105.04201680672267" width="6.929292929292929" height="0"></rect><rect touch-action="none" x="194.02020202020202" y="128.15126050420167" width="6.929292929292929" height="0"></rect><rect touch-action="none" x="200.94949494949495" y="81.9327731092437" width="6.929292929292929" height="0"></rect><rect touch-action="none" x="207.87878787878788" y="95.93837535014003" width="6.929292929292929" height="0"></rect><rect touch-action="none" x="214.8080808080808" y="127.45098039215686" width="6.929292929292929" height="0"></rect><rect touch-action="none" x="221.73737373737373" y="119.04761904761904" width="6.929292929292929" height="0"></rect><rect touch-action="none" x="228.66666666666666" y="80.53221288515405" width="6.929292929292929" height="0"></rect><rect touch-action="none" x="235.59595959595958" y="130.25210084033614" width="6.929292929292929" height="0"></rect><rect touch-action="none" x="242.5252525252525" y="140.75630252100842" width="6.929292929292929" height="0"></rect><rect touch-action="none" x="249.45454545454544" y="137.95518207282913" width="6.929292929292929" height="0"></rect><rect touch-action="none" x="256.3838383838384" y="142.85714285714286" width="6.929292929292929" height="0"></rect><rect touch-action="none" x="263.3131313131313" y="135.85434173669466" width="6.929292929292929" height="0"></rect><rect touch-action="none" x="270.24242424242425" y="128.15126050420167" width="6.929292929292929" height="0"></rect><rect touch-action="none" x="277.17171717171715" y="115.54621848739495" width="6.929292929292929" height="0"></rect><rect touch-action="none" x="284.1010101010101" y="95.23809523809524" width="6.929292929292929" height="0"></rect><rect touch-action="none" x="291.030303030303" y="93.13725490196077" width="6.929292929292929" height="0"></rect><rect touch-action="none" x="297.95959595959596" y="80.53221288515405" width="6.929292929292929" height="0"></rect><rect touch-action="none" x="304.88888888888886" y="59.52380952380955" width="6.929292929292929" height="0"></rect><rect touch-action="none" x="311.8181818181818" y="73.52941176470588" width="6.929292929292929" height="0"></rect><rect touch-action="none" x="318.7474747474747" y="88.23529411764704" width="6.929292929292929" height="0"></rect><rect touch-action="none" x="325.67676767676767" y="97.33893557422968" width="6.929292929292929" height="0"></rect><rect touch-action="none" x="332.6060606060606" y="100.14005602240897" width="6.929292929292929" height="0"></rect><rect touch-action="none" x="339.5353535353535" y="82.63305322128852" width="6.929292929292929" height="0"></rect><rect touch-action="none" x="346.4646464646465" y="103.64145658263305" width="6.929292929292929" height="0"></rect><rect touch-action="none" x="353.3939393939394" y="82.63305322128852" width="6.929292929292929" height="0"></rect><rect touch-action="none" x="360.32323232323233" y="94.53781512605042" width="6.929292929292929" height="0"></rect><rect touch-action="none" x="367.25252525252523" y="65.82633053221286" width="6.929292929292929" height="0"></rect><rect touch-action="none" x="374.1818181818182" y="96.63865546218486" width="6.929292929292929" height="0"></rect><rect touch-action="none" x="381.1111111111111" y="77.03081232492997" width="6.929292929292929" height="0"></rect><rect touch-action="none" x="388.04040404040404" y="51.82072829131653" width="6.929292929292929" height="0"></rect><rect touch-action="none" x="394.96969696969694" y="44.81792717086836" width="6.929292929292929" height="0"></rect><rect touch-action="none" x="401.8989898989899" y="22.40896358543418" width="6.929292929292929" height="0"></rect><rect touch-action="none" x="408.8282828282828" y="17.50700280112045" width="6.929292929292929" height="0"></rect><rect touch-action="none" x="415.75757575757575" y="37.11484593837537" width="6.929292929292929" height="0"></rect><rect touch-action="none" x="422.68686868686865" y="49.71988795518206" width="6.929292929292929" height="0"></rect><rect touch-action="none" x="429.6161616161616" y="31.512605042016816" width="6.929292929292929" height="0"></rect><rect touch-action="none" x="436.5454545454545" y="21.708683473389357" width="6.929292929292929" height="0"></rect><rect touch-action="none" x="443.47474747474746" y="41.316526610644246" width="6.929292929292929" height="0"></rect><rect touch-action="none" x="450.4040404040404" y="32.21288515406161" width="6.929292929292929" height="0"></rect><rect touch-action="none" x="457.3333333333333" y="37.81512605042016" width="6.929292929292929" height="0"></rect><rect touch-action="none" x="464.26262626262627" y="72.82913165266106" width="6.929292929292929" height="0"></rect><rect touch-action="none" x="471.19191919191917" y="4.201680672268907" width="6.929292929292929" height="0"></rect><rect touch-action="none" x="478.1212121212121" y="26.610644257703058" width="6.929292929292929" height="0"></rect><rect touch-action="none" x="485.050505050505" y="44.81792717086836" width="6.929292929292929" height="0"></rect><rect touch-action="none" x="491.979797979798" y="68.62745098039215" width="6.929292929292929" height="0"></rect><rect touch-action="none" x="498.9090909090909" y="2.8011204481792618" width="6.929292929292929" height="0"></rect><rect touch-action="none" x="505.83838383838383" y="81.23249299719888" width="6.929292929292929" height="0"></rect><rect touch-action="none" x="512.7676767676768" y="86.1344537815126" width="6.929292929292929" height="0"></rect><rect touch-action="none" x="519.6969696969696" y="0" width="6.929292929292929" height="0"></rect><rect touch-action="none" x="526.6262626262626" y="18.907563025210067" width="6.929292929292929" height="0"></rect><rect touch-action="none" x="533.5555555555555" y="141.45658263305322" width="6.929292929292929" height="0"></rect><rect touch-action="none" x="540.4848484848485" y="66.52661064425772" width="6.929292929292929" height="0"></rect><rect touch-action="none" x="547.4141414141413" y="88.93557422969187" width="6.929292929292929" height="0"></rect><rect touch-action="none" x="554.3434343434343" y="114.14565826330534" width="6.929292929292929" height="0"></rect><rect touch-action="none" x="561.2727272727273" y="32.21288515406161" width="6.929292929292929" height="0"></rect><rect touch-action="none" x="568.2020202020202" y="59.52380952380955" width="6.929292929292929" height="0"></rect><rect touch-action="none" x="575.1313131313132" y="67.92717086834736" width="6.929292929292929" height="0"></rect><rect touch-action="none" x="582.060606060606" y="44.81792717086836" width="6.929292929292929" height="0"></rect><rect touch-action="none" x="588.989898989899" y="73.52941176470588" width="6.929292929292929" height="0"></rect><rect touch-action="none" x="595.9191919191919" y="61.624649859943986" width="6.929292929292929" height="0"></rect><rect touch-action="none" x="602.8484848484849" y="72.12885154061624" width="6.929292929292929" height="0"></rect><rect touch-action="none" x="609.7777777777777" y="72.12885154061624" width="6.929292929292929" height="0"></rect><rect touch-action="none" x="616.7070707070707" y="90.33613445378151" width="6.929292929292929" height="0"></rect><rect touch-action="none" x="623.6363636363636" y="79.13165266106444" width="6.929292929292929" height="0"></rect><rect touch-action="none" x="630.5656565656566" y="102.94117647058823" width="6.929292929292929" height="0"></rect><rect touch-action="none" x="637.4949494949494" y="100.84033613445379" width="6.929292929292929" height="0"></rect><rect touch-action="none" x="644.4242424242424" y="91.03641456582633" width="6.929292929292929" height="0"></rect><rect touch-action="none" x="651.3535353535353" y="135.85434173669466" width="6.929292929292929" height="0"></rect><rect touch-action="none" x="658.2828282828283" y="94.53781512605042" width="6.929292929292929" height="0"></rect><rect touch-action="none" x="665.2121212121212" y="105.74229691876752" width="6.929292929292929" height="0"></rect><rect touch-action="none" x="672.1414141414141" y="115.54621848739495" width="6.929292929292929" height="0"></rect><rect touch-action="none" x="679.070707070707" y="63.725490196078425" width="6.929292929292929" height="0"></rect></g><g class="layer" category="Post-season Even Strength Goals" fill="#769fce" stroke="#fff" mask="url(#season-chart-mask-stripe)"><rect touch-action="none" x="0" y="167.36694677871148" width="6.929292929292929" height="0"></rect><rect touch-action="none" x="6.929292929292929" y="205.88235294117646" width="6.929292929292929" height="0"></rect><rect touch-action="none" x="13.858585858585858" y="166.66666666666669" width="6.929292929292929" height="0"></rect><rect touch-action="none" x="20.78787878787879" y="176.47058823529412" width="6.929292929292929" height="0"></rect><rect touch-action="none" x="27.717171717171716" y="177.87114845938376" width="6.929292929292929" height="0"></rect><rect touch-action="none" x="34.64646464646464" y="192.57703081232495" width="6.929292929292929" height="0"></rect><rect touch-action="none" x="41.57575757575758" y="208.68347338935575" width="6.929292929292929" height="0"></rect><rect touch-action="none" x="48.505050505050505" y="185.57422969187675" width="6.929292929292929" height="0"></rect><rect touch-action="none" x="55.43434343434343" y="185.57422969187675" width="6.929292929292929" height="0"></rect><rect touch-action="none" x="62.36363636363636" y="194.6778711484594" width="6.929292929292929" height="0"></rect><rect touch-action="none" x="69.29292929292929" y="186.9747899159664" width="6.929292929292929" height="0"></rect><rect touch-action="none" x="76.22222222222221" y="184.87394957983193" width="6.929292929292929" height="0"></rect><rect touch-action="none" x="83.15151515151516" y="168.7675070028011" width="6.929292929292929" height="0"></rect><rect touch-action="none" x="90.08080808080808" y="165.26610644257704" width="6.929292929292929" height="0"></rect><rect touch-action="none" x="97.01010101010101" y="121.84873949579833" width="6.929292929292929" height="0"></rect><rect touch-action="none" x="103.93939393939394" y="156.86274509803923" width="6.929292929292929" height="0"></rect><rect touch-action="none" x="110.86868686868686" y="120.44817927170868" width="6.929292929292929" height="0"></rect><rect touch-action="none" x="117.79797979797979" y="132.3529411764706" width="6.929292929292929" height="0"></rect><rect touch-action="none" x="124.72727272727272" y="144.25770308123248" width="6.929292929292929" height="0"></rect><rect touch-action="none" x="131.65656565656565" y="165.96638655462186" width="6.929292929292929" height="0"></rect><rect touch-action="none" x="138.58585858585857" y="134.45378151260502" width="6.929292929292929" height="0"></rect><rect touch-action="none" x="145.5151515151515" y="154.76190476190476" width="6.929292929292929" height="0"></rect><rect touch-action="none" x="152.44444444444443" y="141.45658263305322" width="6.929292929292929" height="0"></rect><rect touch-action="none" x="159.37373737373736" y="136.5546218487395" width="6.929292929292929" height="0"></rect><rect touch-action="none" x="166.3030303030303" y="112.74509803921566" width="6.929292929292929" height="0"></rect><rect touch-action="none" x="173.23232323232324" y="99.43977591036415" width="6.929292929292929" height="0"></rect><rect touch-action="none" x="180.16161616161617" y="95.93837535014003" width="6.929292929292929" height="0"></rect><rect touch-action="none" x="187.0909090909091" y="105.04201680672267" width="6.929292929292929" height="0"></rect><rect touch-action="none" x="194.02020202020202" y="128.15126050420167" width="6.929292929292929" height="0"></rect><rect touch-action="none" x="200.94949494949495" y="81.9327731092437" width="6.929292929292929" height="0"></rect><rect touch-action="none" x="207.87878787878788" y="95.93837535014003" width="6.929292929292929" height="0"></rect><rect touch-action="none" x="214.8080808080808" y="127.45098039215686" width="6.929292929292929" height="0"></rect><rect touch-action="none" x="221.73737373737373" y="119.04761904761904" width="6.929292929292929" height="0"></rect><rect touch-action="none" x="228.66666666666666" y="80.53221288515405" width="6.929292929292929" height="0"></rect><rect touch-action="none" x="235.59595959595958" y="130.25210084033614" width="6.929292929292929" height="0"></rect><rect touch-action="none" x="242.5252525252525" y="140.75630252100842" width="6.929292929292929" height="0"></rect><rect touch-action="none" x="249.45454545454544" y="137.95518207282913" width="6.929292929292929" height="0"></rect><rect touch-action="none" x="256.3838383838384" y="142.85714285714286" width="6.929292929292929" height="0"></rect><rect touch-action="none" x="263.3131313131313" y="135.85434173669466" width="6.929292929292929" height="0"></rect><rect touch-action="none" x="270.24242424242425" y="128.15126050420167" width="6.929292929292929" height="0"></rect><rect touch-action="none" x="277.17171717171715" y="115.54621848739495" width="6.929292929292929" height="0"></rect><rect touch-action="none" x="284.1010101010101" y="95.23809523809524" width="6.929292929292929" height="0"></rect><rect touch-action="none" x="291.030303030303" y="93.13725490196077" width="6.929292929292929" height="0"></rect><rect touch-action="none" x="297.95959595959596" y="80.53221288515405" width="6.929292929292929" height="0"></rect><rect touch-action="none" x="304.88888888888886" y="59.52380952380955" width="6.929292929292929" height="0"></rect><rect touch-action="none" x="311.8181818181818" y="73.52941176470588" width="6.929292929292929" height="0"></rect><rect touch-action="none" x="318.7474747474747" y="88.23529411764704" width="6.929292929292929" height="0"></rect><rect touch-action="none" x="325.67676767676767" y="97.33893557422968" width="6.929292929292929" height="0"></rect><rect touch-action="none" x="332.6060606060606" y="100.14005602240897" width="6.929292929292929" height="0"></rect><rect touch-action="none" x="339.5353535353535" y="82.63305322128852" width="6.929292929292929" height="0"></rect><rect touch-action="none" x="346.4646464646465" y="103.64145658263305" width="6.929292929292929" height="0"></rect><rect touch-action="none" x="353.3939393939394" y="82.63305322128852" width="6.929292929292929" height="0"></rect><rect touch-action="none" x="360.32323232323233" y="94.53781512605042" width="6.929292929292929" height="0"></rect><rect touch-action="none" x="367.25252525252523" y="65.82633053221286" width="6.929292929292929" height="0"></rect><rect touch-action="none" x="374.1818181818182" y="96.63865546218486" width="6.929292929292929" height="0"></rect><rect touch-action="none" x="381.1111111111111" y="77.03081232492997" width="6.929292929292929" height="0"></rect><rect touch-action="none" x="388.04040404040404" y="51.82072829131653" width="6.929292929292929" height="0"></rect><rect touch-action="none" x="394.96969696969694" y="44.81792717086836" width="6.929292929292929" height="0"></rect><rect touch-action="none" x="401.8989898989899" y="22.40896358543418" width="6.929292929292929" height="0"></rect><rect touch-action="none" x="408.8282828282828" y="17.50700280112045" width="6.929292929292929" height="0"></rect><rect touch-action="none" x="415.75757575757575" y="37.11484593837537" width="6.929292929292929" height="0"></rect><rect touch-action="none" x="422.68686868686865" y="49.71988795518206" width="6.929292929292929" height="0"></rect><rect touch-action="none" x="429.6161616161616" y="31.512605042016816" width="6.929292929292929" height="0"></rect><rect touch-action="none" x="436.5454545454545" y="21.708683473389357" width="6.929292929292929" height="0"></rect><rect touch-action="none" x="443.47474747474746" y="41.316526610644246" width="6.929292929292929" height="0"></rect><rect touch-action="none" x="450.4040404040404" y="32.21288515406161" width="6.929292929292929" height="0"></rect><rect touch-action="none" x="457.3333333333333" y="37.81512605042016" width="6.929292929292929" height="0"></rect><rect touch-action="none" x="464.26262626262627" y="72.82913165266106" width="6.929292929292929" height="0"></rect><rect touch-action="none" x="471.19191919191917" y="4.201680672268907" width="6.929292929292929" height="0"></rect><rect touch-action="none" x="478.1212121212121" y="26.610644257703058" width="6.929292929292929" height="0"></rect><rect touch-action="none" x="485.050505050505" y="44.81792717086836" width="6.929292929292929" height="0"></rect><rect touch-action="none" x="491.979797979798" y="68.62745098039215" width="6.929292929292929" height="0"></rect><rect touch-action="none" x="498.9090909090909" y="2.8011204481792618" width="6.929292929292929" height="0"></rect><rect touch-action="none" x="505.83838383838383" y="81.23249299719888" width="6.929292929292929" height="0"></rect><rect touch-action="none" x="512.7676767676768" y="86.1344537815126" width="6.929292929292929" height="0"></rect><rect touch-action="none" x="519.6969696969696" y="0" width="6.929292929292929" height="0"></rect><rect touch-action="none" x="526.6262626262626" y="18.907563025210067" width="6.929292929292929" height="0"></rect><rect touch-action="none" x="533.5555555555555" y="141.45658263305322" width="6.929292929292929" height="0"></rect><rect touch-action="none" x="540.4848484848485" y="66.52661064425772" width="6.929292929292929" height="0"></rect><rect touch-action="none" x="547.4141414141413" y="88.93557422969187" width="6.929292929292929" height="0"></rect><rect touch-action="none" x="554.3434343434343" y="114.14565826330534" width="6.929292929292929" height="0"></rect><rect touch-action="none" x="561.2727272727273" y="32.21288515406161" width="6.929292929292929" height="0"></rect><rect touch-action="none" x="568.2020202020202" y="59.52380952380955" width="6.929292929292929" height="0"></rect><rect touch-action="none" x="575.1313131313132" y="67.92717086834736" width="6.929292929292929" height="0"></rect><rect touch-action="none" x="582.060606060606" y="44.81792717086836" width="6.929292929292929" height="0"></rect><rect touch-action="none" x="588.989898989899" y="73.52941176470588" width="6.929292929292929" height="0"></rect><rect touch-action="none" x="595.9191919191919" y="61.624649859943986" width="6.929292929292929" height="0"></rect><rect touch-action="none" x="602.8484848484849" y="72.12885154061624" width="6.929292929292929" height="0"></rect><rect touch-action="none" x="609.7777777777777" y="72.12885154061624" width="6.929292929292929" height="0"></rect><rect touch-action="none" x="616.7070707070707" y="90.33613445378151" width="6.929292929292929" height="0"></rect><rect touch-action="none" x="623.6363636363636" y="79.13165266106444" width="6.929292929292929" height="0"></rect><rect touch-action="none" x="630.5656565656566" y="102.94117647058823" width="6.929292929292929" height="0"></rect><rect touch-action="none" x="637.4949494949494" y="100.84033613445379" width="6.929292929292929" height="0"></rect><rect touch-action="none" x="644.4242424242424" y="91.03641456582633" width="6.929292929292929" height="0"></rect><rect touch-action="none" x="651.3535353535353" y="135.85434173669466" width="6.929292929292929" height="0"></rect><rect touch-action="none" x="658.2828282828283" y="94.53781512605042" width="6.929292929292929" height="0"></rect><rect touch-action="none" x="665.2121212121212" y="105.74229691876752" width="6.929292929292929" height="0"></rect><rect touch-action="none" x="672.1414141414141" y="115.54621848739495" width="6.929292929292929" height="0"></rect><rect touch-action="none" x="679.070707070707" y="63.725490196078425" width="6.929292929292929" height="0"></rect></g><g class="layer" category="Post-season Power-Play Goals" fill="#3fb34f" stroke="#fff" mask="url(#season-chart-mask-stripe)"><rect touch-action="none" x="0" y="167.36694677871148" width="6.929292929292929" height="0"></rect><rect touch-action="none" x="6.929292929292929" y="205.88235294117646" width="6.929292929292929" height="0"></rect><rect touch-action="none" x="13.858585858585858" y="166.66666666666669" width="6.929292929292929" height="0"></rect><rect touch-action="none" x="20.78787878787879" y="176.47058823529412" width="6.929292929292929" height="0"></rect><rect touch-action="none" x="27.717171717171716" y="177.87114845938376" width="6.929292929292929" height="0"></rect><rect touch-action="none" x="34.64646464646464" y="192.57703081232495" width="6.929292929292929" height="0"></rect><rect touch-action="none" x="41.57575757575758" y="208.68347338935575" width="6.929292929292929" height="0"></rect><rect touch-action="none" x="48.505050505050505" y="185.57422969187675" width="6.929292929292929" height="0"></rect><rect touch-action="none" x="55.43434343434343" y="185.57422969187675" width="6.929292929292929" height="0"></rect><rect touch-action="none" x="62.36363636363636" y="194.6778711484594" width="6.929292929292929" height="0"></rect><rect touch-action="none" x="69.29292929292929" y="186.9747899159664" width="6.929292929292929" height="0"></rect><rect touch-action="none" x="76.22222222222221" y="184.87394957983193" width="6.929292929292929" height="0"></rect><rect touch-action="none" x="83.15151515151516" y="168.7675070028011" width="6.929292929292929" height="0"></rect><rect touch-action="none" x="90.08080808080808" y="165.26610644257704" width="6.929292929292929" height="0"></rect><rect touch-action="none" x="97.01010101010101" y="121.84873949579833" width="6.929292929292929" height="0"></rect><rect touch-action="none" x="103.93939393939394" y="156.86274509803923" width="6.929292929292929" height="0"></rect><rect touch-action="none" x="110.86868686868686" y="120.44817927170868" width="6.929292929292929" height="0"></rect><rect touch-action="none" x="117.79797979797979" y="132.3529411764706" width="6.929292929292929" height="0"></rect><rect touch-action="none" x="124.72727272727272" y="144.25770308123248" width="6.929292929292929" height="0"></rect><rect touch-action="none" x="131.65656565656565" y="165.96638655462186" width="6.929292929292929" height="0"></rect><rect touch-action="none" x="138.58585858585857" y="134.45378151260502" width="6.929292929292929" height="0"></rect><rect touch-action="none" x="145.5151515151515" y="154.76190476190476" width="6.929292929292929" height="0"></rect><rect touch-action="none" x="152.44444444444443" y="141.45658263305322" width="6.929292929292929" height="0"></rect><rect touch-action="none" x="159.37373737373736" y="136.5546218487395" width="6.929292929292929" height="0"></rect><rect touch-action="none" x="166.3030303030303" y="112.74509803921566" width="6.929292929292929" height="0"></rect><rect touch-action="none" x="173.23232323232324" y="99.43977591036415" width="6.929292929292929" height="0"></rect><rect touch-action="none" x="180.16161616161617" y="95.93837535014003" width="6.929292929292929" height="0"></rect><rect touch-action="none" x="187.0909090909091" y="105.04201680672267" width="6.929292929292929" height="0"></rect><rect touch-action="none" x="194.02020202020202" y="128.15126050420167" width="6.929292929292929" height="0"></rect><rect touch-action="none" x="200.94949494949495" y="81.9327731092437" width="6.929292929292929" height="0"></rect><rect touch-action="none" x="207.87878787878788" y="95.93837535014003" width="6.929292929292929" height="0"></rect><rect touch-action="none" x="214.8080808080808" y="127.45098039215686" width="6.929292929292929" height="0"></rect><rect touch-action="none" x="221.73737373737373" y="119.04761904761904" width="6.929292929292929" height="0"></rect><rect touch-action="none" x="228.66666666666666" y="80.53221288515405" width="6.929292929292929" height="0"></rect><rect touch-action="none" x="235.59595959595958" y="130.25210084033614" width="6.929292929292929" height="0"></rect><rect touch-action="none" x="242.5252525252525" y="140.75630252100842" width="6.929292929292929" height="0"></rect><rect touch-action="none" x="249.45454545454544" y="137.95518207282913" width="6.929292929292929" height="0"></rect><rect touch-action="none" x="256.3838383838384" y="142.85714285714286" width="6.929292929292929" height="0"></rect><rect touch-action="none" x="263.3131313131313" y="135.85434173669466" width="6.929292929292929" height="0"></rect><rect touch-action="none" x="270.24242424242425" y="128.15126050420167" width="6.929292929292929" height="0"></rect><rect touch-action="none" x="277.17171717171715" y="115.54621848739495" width="6.929292929292929" height="0"></rect><rect touch-action="none" x="284.1010101010101" y="95.23809523809524" width="6.929292929292929" height="0"></rect><rect touch-action="none" x="291.030303030303" y="93.13725490196077" width="6.929292929292929" height="0"></rect><rect touch-action="none" x="297.95959595959596" y="80.53221288515405" width="6.929292929292929" height="0"></rect><rect touch-action="none" x="304.88888888888886" y="59.52380952380955" width="6.929292929292929" height="0"></rect><rect touch-action="none" x="311.8181818181818" y="73.52941176470588" width="6.929292929292929" height="0"></rect><rect touch-action="none" x="318.7474747474747" y="88.23529411764704" width="6.929292929292929" height="0"></rect><rect touch-action="none" x="325.67676767676767" y="97.33893557422968" width="6.929292929292929" height="0"></rect><rect touch-action="none" x="332.6060606060606" y="100.14005602240897" width="6.929292929292929" height="0"></rect><rect touch-action="none" x="339.5353535353535" y="82.63305322128852" width="6.929292929292929" height="0"></rect><rect touch-action="none" x="346.4646464646465" y="103.64145658263305" width="6.929292929292929" height="0"></rect><rect touch-action="none" x="353.3939393939394" y="82.63305322128852" width="6.929292929292929" height="0"></rect><rect touch-action="none" x="360.32323232323233" y="94.53781512605042" width="6.929292929292929" height="0"></rect><rect touch-action="none" x="367.25252525252523" y="65.82633053221286" width="6.929292929292929" height="0"></rect><rect touch-action="none" x="374.1818181818182" y="96.63865546218486" width="6.929292929292929" height="0"></rect><rect touch-action="none" x="381.1111111111111" y="77.03081232492997" width="6.929292929292929" height="0"></rect><rect touch-action="none" x="388.04040404040404" y="51.82072829131653" width="6.929292929292929" height="0"></rect><rect touch-action="none" x="394.96969696969694" y="44.81792717086836" width="6.929292929292929" height="0"></rect><rect touch-action="none" x="401.8989898989899" y="22.40896358543418" width="6.929292929292929" height="0"></rect><rect touch-action="none" x="408.8282828282828" y="17.50700280112045" width="6.929292929292929" height="0"></rect><rect touch-action="none" x="415.75757575757575" y="37.11484593837537" width="6.929292929292929" height="0"></rect><rect touch-action="none" x="422.68686868686865" y="49.71988795518206" width="6.929292929292929" height="0"></rect><rect touch-action="none" x="429.6161616161616" y="31.512605042016816" width="6.929292929292929" height="0"></rect><rect touch-action="none" x="436.5454545454545" y="21.708683473389357" width="6.929292929292929" height="0"></rect><rect touch-action="none" x="443.47474747474746" y="41.316526610644246" width="6.929292929292929" height="0"></rect><rect touch-action="none" x="450.4040404040404" y="32.21288515406161" width="6.929292929292929" height="0"></rect><rect touch-action="none" x="457.3333333333333" y="37.81512605042016" width="6.929292929292929" height="0"></rect><rect touch-action="none" x="464.26262626262627" y="72.82913165266106" width="6.929292929292929" height="0"></rect><rect touch-action="none" x="471.19191919191917" y="4.201680672268907" width="6.929292929292929" height="0"></rect><rect touch-action="none" x="478.1212121212121" y="26.610644257703058" width="6.929292929292929" height="0"></rect><rect touch-action="none" x="485.050505050505" y="44.81792717086836" width="6.929292929292929" height="0"></rect><rect touch-action="none" x="491.979797979798" y="68.62745098039215" width="6.929292929292929" height="0"></rect><rect touch-action="none" x="498.9090909090909" y="2.8011204481792618" width="6.929292929292929" height="0"></rect><rect touch-action="none" x="505.83838383838383" y="81.23249299719888" width="6.929292929292929" height="0"></rect><rect touch-action="none" x="512.7676767676768" y="86.1344537815126" width="6.929292929292929" height="0"></rect><rect touch-action="none" x="519.6969696969696" y="0" width="6.929292929292929" height="0"></rect><rect touch-action="none" x="526.6262626262626" y="18.907563025210067" width="6.929292929292929" height="0"></rect><rect touch-action="none" x="533.5555555555555" y="141.45658263305322" width="6.929292929292929" height="0"></rect><rect touch-action="none" x="540.4848484848485" y="66.52661064425772" width="6.929292929292929" height="0"></rect><rect touch-action="none" x="547.4141414141413" y="88.93557422969187" width="6.929292929292929" height="0"></rect><rect touch-action="none" x="554.3434343434343" y="114.14565826330534" width="6.929292929292929" height="0"></rect><rect touch-action="none" x="561.2727272727273" y="32.21288515406161" width="6.929292929292929" height="0"></rect><rect touch-action="none" x="568.2020202020202" y="59.52380952380955" width="6.929292929292929" height="0"></rect><rect touch-action="none" x="575.1313131313132" y="67.92717086834736" width="6.929292929292929" height="0"></rect><rect touch-action="none" x="582.060606060606" y="44.81792717086836" width="6.929292929292929" height="0"></rect><rect touch-action="none" x="588.989898989899" y="73.52941176470588" width="6.929292929292929" height="0"></rect><rect touch-action="none" x="595.9191919191919" y="61.624649859943986" width="6.929292929292929" height="0"></rect><rect touch-action="none" x="602.8484848484849" y="72.12885154061624" width="6.929292929292929" height="0"></rect><rect touch-action="none" x="609.7777777777777" y="72.12885154061624" width="6.929292929292929" height="0"></rect><rect touch-action="none" x="616.7070707070707" y="90.33613445378151" width="6.929292929292929" height="0"></rect><rect touch-action="none" x="623.6363636363636" y="79.13165266106444" width="6.929292929292929" height="0"></rect><rect touch-action="none" x="630.5656565656566" y="102.94117647058823" width="6.929292929292929" height="0"></rect><rect touch-action="none" x="637.4949494949494" y="100.84033613445379" width="6.929292929292929" height="0"></rect><rect touch-action="none" x="644.4242424242424" y="91.03641456582633" width="6.929292929292929" height="0"></rect><rect touch-action="none" x="651.3535353535353" y="135.85434173669466" width="6.929292929292929" height="0"></rect><rect touch-action="none" x="658.2828282828283" y="94.53781512605042" width="6.929292929292929" height="0"></rect><rect touch-action="none" x="665.2121212121212" y="105.74229691876752" width="6.929292929292929" height="0"></rect><rect touch-action="none" x="672.1414141414141" y="115.54621848739495" width="6.929292929292929" height="0"></rect><rect touch-action="none" x="679.070707070707" y="63.725490196078425" width="6.929292929292929" height="0"></rect></g><g class="layer" category="Post-season Shorthanded Goals" fill="#f69331" stroke="#fff" mask="url(#season-chart-mask-stripe)"><rect touch-action="none" x="0" y="167.36694677871148" width="6.929292929292929" height="0"></rect><rect touch-action="none" x="6.929292929292929" y="205.88235294117646" width="6.929292929292929" height="0"></rect><rect touch-action="none" x="13.858585858585858" y="166.66666666666669" width="6.929292929292929" height="0"></rect><rect touch-action="none" x="20.78787878787879" y="176.47058823529412" width="6.929292929292929" height="0"></rect><rect touch-action="none" x="27.717171717171716" y="177.87114845938376" width="6.929292929292929" height="0"></rect><rect touch-action="none" x="34.64646464646464" y="192.57703081232495" width="6.929292929292929" height="0"></rect><rect touch-action="none" x="41.57575757575758" y="208.68347338935575" width="6.929292929292929" height="0"></rect><rect touch-action="none" x="48.505050505050505" y="185.57422969187675" width="6.929292929292929" height="0"></rect><rect touch-action="none" x="55.43434343434343" y="185.57422969187675" width="6.929292929292929" height="0"></rect><rect touch-action="none" x="62.36363636363636" y="194.6778711484594" width="6.929292929292929" height="0"></rect><rect touch-action="none" x="69.29292929292929" y="186.9747899159664" width="6.929292929292929" height="0"></rect><rect touch-action="none" x="76.22222222222221" y="184.87394957983193" width="6.929292929292929" height="0"></rect><rect touch-action="none" x="83.15151515151516" y="168.7675070028011" width="6.929292929292929" height="0"></rect><rect touch-action="none" x="90.08080808080808" y="165.26610644257704" width="6.929292929292929" height="0"></rect><rect touch-action="none" x="97.01010101010101" y="121.84873949579833" width="6.929292929292929" height="0"></rect><rect touch-action="none" x="103.93939393939394" y="156.86274509803923" width="6.929292929292929" height="0"></rect><rect touch-action="none" x="110.86868686868686" y="120.44817927170868" width="6.929292929292929" height="0"></rect><rect touch-action="none" x="117.79797979797979" y="132.3529411764706" width="6.929292929292929" height="0"></rect><rect touch-action="none" x="124.72727272727272" y="144.25770308123248" width="6.929292929292929" height="0"></rect><rect touch-action="none" x="131.65656565656565" y="165.96638655462186" width="6.929292929292929" height="0"></rect><rect touch-action="none" x="138.58585858585857" y="134.45378151260502" width="6.929292929292929" height="0"></rect><rect touch-action="none" x="145.5151515151515" y="154.76190476190476" width="6.929292929292929" height="0"></rect><rect touch-action="none" x="152.44444444444443" y="141.45658263305322" width="6.929292929292929" height="0"></rect><rect touch-action="none" x="159.37373737373736" y="136.5546218487395" width="6.929292929292929" height="0"></rect><rect touch-action="none" x="166.3030303030303" y="112.74509803921566" width="6.929292929292929" height="0"></rect><rect touch-action="none" x="173.23232323232324" y="99.43977591036415" width="6.929292929292929" height="0"></rect><rect touch-action="none" x="180.16161616161617" y="95.93837535014003" width="6.929292929292929" height="0"></rect><rect touch-action="none" x="187.0909090909091" y="105.04201680672267" width="6.929292929292929" height="0"></rect><rect touch-action="none" x="194.02020202020202" y="128.15126050420167" width="6.929292929292929" height="0"></rect><rect touch-action="none" x="200.94949494949495" y="81.9327731092437" width="6.929292929292929" height="0"></rect><rect touch-action="none" x="207.87878787878788" y="95.93837535014003" width="6.929292929292929" height="0"></rect><rect touch-action="none" x="214.8080808080808" y="127.45098039215686" width="6.929292929292929" height="0"></rect><rect touch-action="none" x="221.73737373737373" y="119.04761904761904" width="6.929292929292929" height="0"></rect><rect touch-action="none" x="228.66666666666666" y="80.53221288515405" width="6.929292929292929" height="0"></rect><rect touch-action="none" x="235.59595959595958" y="130.25210084033614" width="6.929292929292929" height="0"></rect><rect touch-action="none" x="242.5252525252525" y="140.75630252100842" width="6.929292929292929" height="0"></rect><rect touch-action="none" x="249.45454545454544" y="137.95518207282913" width="6.929292929292929" height="0"></rect><rect touch-action="none" x="256.3838383838384" y="142.85714285714286" width="6.929292929292929" height="0"></rect><rect touch-action="none" x="263.3131313131313" y="135.85434173669466" width="6.929292929292929" height="0"></rect><rect touch-action="none" x="270.24242424242425" y="128.15126050420167" width="6.929292929292929" height="0"></rect><rect touch-action="none" x="277.17171717171715" y="115.54621848739495" width="6.929292929292929" height="0"></rect><rect touch-action="none" x="284.1010101010101" y="95.23809523809524" width="6.929292929292929" height="0"></rect><rect touch-action="none" x="291.030303030303" y="93.13725490196077" width="6.929292929292929" height="0"></rect><rect touch-action="none" x="297.95959595959596" y="80.53221288515405" width="6.929292929292929" height="0"></rect><rect touch-action="none" x="304.88888888888886" y="59.52380952380955" width="6.929292929292929" height="0"></rect><rect touch-action="none" x="311.8181818181818" y="73.52941176470588" width="6.929292929292929" height="0"></rect><rect touch-action="none" x="318.7474747474747" y="88.23529411764704" width="6.929292929292929" height="0"></rect><rect touch-action="none" x="325.67676767676767" y="97.33893557422968" width="6.929292929292929" height="0"></rect><rect touch-action="none" x="332.6060606060606" y="100.14005602240897" width="6.929292929292929" height="0"></rect><rect touch-action="none" x="339.5353535353535" y="82.63305322128852" width="6.929292929292929" height="0"></rect><rect touch-action="none" x="346.4646464646465" y="103.64145658263305" width="6.929292929292929" height="0"></rect><rect touch-action="none" x="353.3939393939394" y="82.63305322128852" width="6.929292929292929" height="0"></rect><rect touch-action="none" x="360.32323232323233" y="94.53781512605042" width="6.929292929292929" height="0"></rect><rect touch-action="none" x="367.25252525252523" y="65.82633053221286" width="6.929292929292929" height="0"></rect><rect touch-action="none" x="374.1818181818182" y="96.63865546218486" width="6.929292929292929" height="0"></rect><rect touch-action="none" x="381.1111111111111" y="77.03081232492997" width="6.929292929292929" height="0"></rect><rect touch-action="none" x="388.04040404040404" y="51.82072829131653" width="6.929292929292929" height="0"></rect><rect touch-action="none" x="394.96969696969694" y="44.81792717086836" width="6.929292929292929" height="0"></rect><rect touch-action="none" x="401.8989898989899" y="22.40896358543418" width="6.929292929292929" height="0"></rect><rect touch-action="none" x="408.8282828282828" y="17.50700280112045" width="6.929292929292929" height="0"></rect><rect touch-action="none" x="415.75757575757575" y="37.11484593837537" width="6.929292929292929" height="0"></rect><rect touch-action="none" x="422.68686868686865" y="49.71988795518206" width="6.929292929292929" height="0"></rect><rect touch-action="none" x="429.6161616161616" y="31.512605042016816" width="6.929292929292929" height="0"></rect><rect touch-action="none" x="436.5454545454545" y="21.708683473389357" width="6.929292929292929" height="0"></rect><rect touch-action="none" x="443.47474747474746" y="41.316526610644246" width="6.929292929292929" height="0"></rect><rect touch-action="none" x="450.4040404040404" y="32.21288515406161" width="6.929292929292929" height="0"></rect><rect touch-action="none" x="457.3333333333333" y="37.81512605042016" width="6.929292929292929" height="0"></rect><rect touch-action="none" x="464.26262626262627" y="72.82913165266106" width="6.929292929292929" height="0"></rect><rect touch-action="none" x="471.19191919191917" y="4.201680672268907" width="6.929292929292929" height="0"></rect><rect touch-action="none" x="478.1212121212121" y="26.610644257703058" width="6.929292929292929" height="0"></rect><rect touch-action="none" x="485.050505050505" y="44.81792717086836" width="6.929292929292929" height="0"></rect><rect touch-action="none" x="491.979797979798" y="68.62745098039215" width="6.929292929292929" height="0"></rect><rect touch-action="none" x="498.9090909090909" y="2.8011204481792618" width="6.929292929292929" height="0"></rect><rect touch-action="none" x="505.83838383838383" y="81.23249299719888" width="6.929292929292929" height="0"></rect><rect touch-action="none" x="512.7676767676768" y="86.1344537815126" width="6.929292929292929" height="0"></rect><rect touch-action="none" x="519.6969696969696" y="0" width="6.929292929292929" height="0"></rect><rect touch-action="none" x="526.6262626262626" y="18.907563025210067" width="6.929292929292929" height="0"></rect><rect touch-action="none" x="533.5555555555555" y="141.45658263305322" width="6.929292929292929" height="0"></rect><rect touch-action="none" x="540.4848484848485" y="66.52661064425772" width="6.929292929292929" height="0"></rect><rect touch-action="none" x="547.4141414141413" y="88.93557422969187" width="6.929292929292929" height="0"></rect><rect touch-action="none" x="554.3434343434343" y="114.14565826330534" width="6.929292929292929" height="0"></rect><rect touch-action="none" x="561.2727272727273" y="32.21288515406161" width="6.929292929292929" height="0"></rect><rect touch-action="none" x="568.2020202020202" y="59.52380952380955" width="6.929292929292929" height="0"></rect><rect touch-action="none" x="575.1313131313132" y="67.92717086834736" width="6.929292929292929" height="0"></rect><rect touch-action="none" x="582.060606060606" y="44.81792717086836" width="6.929292929292929" height="0"></rect><rect touch-action="none" x="588.989898989899" y="73.52941176470588" width="6.929292929292929" height="0"></rect><rect touch-action="none" x="595.9191919191919" y="61.624649859943986" width="6.929292929292929" height="0"></rect><rect touch-action="none" x="602.8484848484849" y="72.12885154061624" width="6.929292929292929" height="0"></rect><rect touch-action="none" x="609.7777777777777" y="72.12885154061624" width="6.929292929292929" height="0"></rect><rect touch-action="none" x="616.7070707070707" y="90.33613445378151" width="6.929292929292929" height="0"></rect><rect touch-action="none" x="623.6363636363636" y="79.13165266106444" width="6.929292929292929" height="0"></rect><rect touch-action="none" x="630.5656565656566" y="102.94117647058823" width="6.929292929292929" height="0"></rect><rect touch-action="none" x="637.4949494949494" y="100.84033613445379" width="6.929292929292929" height="0"></rect><rect touch-action="none" x="644.4242424242424" y="91.03641456582633" width="6.929292929292929" height="0"></rect><rect touch-action="none" x="651.3535353535353" y="135.85434173669466" width="6.929292929292929" height="0"></rect><rect touch-action="none" x="658.2828282828283" y="94.53781512605042" width="6.929292929292929" height="0"></rect><rect touch-action="none" x="665.2121212121212" y="105.74229691876752" width="6.929292929292929" height="0"></rect><rect touch-action="none" x="672.1414141414141" y="115.54621848739495" width="6.929292929292929" height="0"></rect><rect touch-action="none" x="679.070707070707" y="63.725490196078425" width="6.929292929292929" height="0"></rect></g></g><defs><pattern id="season-chart-pattern-stripe" width="2" height="2" patternUnits="userSpaceOnUse" patternTransform="rotate(45)"><rect width="1" height="2" transform="translate(0,0)" fill="white"></rect></pattern><mask id="season-chart-mask-stripe"><rect width="100%" height="100%" fill="url(#season-chart-pattern-stripe)"></rect></mask></defs><g transform="translate(548,0)"><g class="regular" style="opacity: 1;"><rect x="0" y="0" width="9" height="9" fill="#666" style="cursor: pointer;"></rect><text x="15" y="8" font-size="10px" fill="#333" style="cursor: pointer;">Regular Season</text></g><g class="post" style="opacity: 1;"><rect x="100" y="0" width="9" height="9" fill="#666" mask="url(#season-chart-mask-stripe)" style="cursor: pointer;"></rect><text x="115" y="8" font-size="10px" fill="#333" style="cursor: pointer;">Post-season</text></g></g></svg>