<svg xmlns="http://www.w3.org/2000/svg" border="0" data-ac-wrapper-id="4" width="1098" height="589" class="anychart-ui-support" ac-id="ac_stage_32ac14c4_0" role="presentation" style="display: block;"><defs><clipPath clip-rule="nonzero" id="ac_clip_32ac14c4_t"><path data-ac-wrapper-id="33" id="ac_rect_32ac14c4_u" fill="none" stroke="black" d="M 10 69 L 1078 69 1078 574 10 574 10 69 Z"/></clipPath><clipPath clip-rule="nonzero" id="ac_clip_32ac14c4_14"><path data-ac-wrapper-id="43" id="ac_rect_32ac14c4_15" fill="none" stroke="black" d="M 10 91.5 L 665.253 91.5 665.253 574 10 574 10 91.5 Z"/></clipPath><clipPath clip-rule="nonzero" id="ac_clip_32ac14c4_19"><path data-ac-wrapper-id="46" id="ac_rect_32ac14c4_1a" fill="none" stroke="black" d="M 665.253 91.5 L 1078 91.5 1078 376.5191 665.253 376.5191 665.253 91.5 Z"/></clipPath><clipPath clip-rule="nonzero" id="ac_clip_32ac14c4_1e"><path data-ac-wrapper-id="49" id="ac_rect_32ac14c4_1f" fill="none" stroke="black" d="M 665.253 376.5191 L 925.8748 376.5191 925.8748 574 665.253 574 665.253 376.5191 Z"/></clipPath><clipPath clip-rule="nonzero" id="ac_clip_32ac14c4_1j"><path data-ac-wrapper-id="52" id="ac_rect_32ac14c4_1k" fill="none" stroke="black" d="M 925.8748 376.5191 L 1078 376.5191 1078 463.51709999999997 925.8748 463.51709999999997 925.8748 376.5191 Z"/></clipPath><clipPath clip-rule="nonzero" id="ac_clip_32ac14c4_1o"><path data-ac-wrapper-id="55" id="ac_rect_32ac14c4_1p" fill="none" stroke="black" d="M 1011.451 463.51709999999997 L 1078 463.51709999999997 1078 574.0002999999999 1011.451 574.0002999999999 1011.451 463.51709999999997 Z"/></clipPath><clipPath clip-rule="nonzero" id="ac_clip_32ac14c4_1t"><path data-ac-wrapper-id="58" id="ac_rect_32ac14c4_1u" fill="none" stroke="black" d="M 925.8748 463.51709999999997 L 1011.451 463.51709999999997 1011.451 574 925.8748 574 925.8748 463.51709999999997 Z"/></clipPath></defs><g data-ac-wrapper-id="5" id="ac_layer_32ac14c4_1"><g data-ac-wrapper-id="6" role="article" aria-label="tree-map chart  entitled Composition of Human Body&lt;br/&gt;&lt;span style=&quot;color:#212121; font-size: 13px;&quot;&gt;Mass from the average adult human body 70 kg.&lt;/span&gt;" id="ac_chart_32ac14c4_2"><g data-ac-wrapper-id="7" id="ac_layer_32ac14c4_4"><path data-ac-wrapper-id="8" id="ac_path_32ac14c4_3" fill="#ffffff" stroke="none" d="M 0 0 L 1098 0 1098 0 1098 589 1098 589 0 589 0 589 0 0 0 0 Z"/></g><g data-ac-wrapper-id="11" clip-path="url(&quot;#ac_clip_32ac14c4_t&quot;)" clipPathUnits="userSpaceOnUse" id="ac_layer_32ac14c4_v"><path data-ac-wrapper-id="12" id="ac_rect_32ac14c4_7" fill="#f595b2" stroke="#848c90" d="M 10.5 92.5 L 664.753 92.5 664.753 573.5 10.5 573.5 10.5 92.5 Z"/><path data-ac-wrapper-id="13" id="ac_rect_32ac14c4_8" fill="#fab388" stroke="#bdc8ce" d="M 665.5 92.5 L 1077.5 92.5 1077.5 376.0191 665.5 376.0191 665.5 92.5 Z"/><path data-ac-wrapper-id="14" id="ac_rect_32ac14c4_9" fill="#fdcc84" stroke="#bdc8ce" d="M 665.5 377.5 L 925.3748 377.5 925.3748 573.5 665.5 573.5 665.5 377.5 Z"/><path data-ac-wrapper-id="15" id="ac_rect_32ac14c4_a" fill="#fedb83" stroke="#bdc8ce" d="M 926.5 377.5 L 1077.5 377.5 1077.5 463.01709999999997 926.5 463.01709999999997 926.5 377.5 Z"/><path data-ac-wrapper-id="16" id="ac_rect_32ac14c4_b" fill="#ffdd82" stroke="#bdc8ce" d="M 1011.5 464.5 L 1077.5 464.5 1077.5 573.5003 1011.5 573.5003 1011.5 464.5 Z"/><path data-ac-wrapper-id="17" id="ac_rect_32ac14c4_c" fill="#f06592" stroke="#bdc8ce" d="M 926.5 464.5 L 1010.951 464.5 1010.951 530.0333 926.5 530.0333 926.5 464.5 Z"/><path data-ac-wrapper-id="18" id="ac_rect_32ac14c4_d" fill="#fcca85" stroke="#bdc8ce" d="M 926.5 531.5 L 949.0563000000001 531.5 949.0563000000001 573.5 926.5 573.5 926.5 531.5 Z"/><path data-ac-wrapper-id="19" id="ac_rect_32ac14c4_e" fill="#fcca85" stroke="#bdc8ce" d="M 950.5 531.5 L 972.7378 531.5 972.7378 573.5 950.5 573.5 950.5 531.5 Z"/><path data-ac-wrapper-id="20" id="ac_rect_32ac14c4_f" fill="#fdd084" stroke="#bdc8ce" d="M 973.5 531.5 L 1010.951 531.5 1010.951 549.2742000000001 973.5 549.2742000000001 973.5 531.5 Z"/><path data-ac-wrapper-id="21" id="ac_rect_32ac14c4_g" fill="#fdd184" stroke="#bdc8ce" d="M 973.5 550.5 L 1001.5704 550.5 1001.5704 573.5 973.5 573.5 973.5 550.5 Z"/><path data-ac-wrapper-id="22" id="ac_rect_32ac14c4_h" fill="#ffdd82" stroke="#bdc8ce" d="M 1002.5 550.5 L 1010.9509999999999 550.5 1010.9509999999999 564.1664999999999 1002.5 564.1664999999999 1002.5 550.5 Z"/><path data-ac-wrapper-id="23" id="ac_rect_32ac14c4_i" fill="#ffdf82" stroke="#bdc8ce" d="M 1002.5 565.5 L 1006.9272 565.5 1006.9272 569.9313000000001 1002.5 569.9313000000001 1002.5 565.5 Z"/><path data-ac-wrapper-id="24" id="ac_rect_32ac14c4_j" fill="#ffe082" stroke="#bdc8ce" d="M 1002.5 570.5 L 1006.9272 570.5 1006.9272 573.5 1002.5 573.5 1002.5 570.5 Z"/><path data-ac-wrapper-id="25" id="ac_rect_32ac14c4_k" fill="#ffe082" stroke="#bdc8ce" d="M 1007.5 565.5 L 1010.951 565.5 1010.951 568.3692000000001 1007.5 568.3692000000001 1007.5 565.5 Z"/><path data-ac-wrapper-id="26" id="ac_rect_32ac14c4_l" fill="#ffe082" stroke="#bdc8ce" d="M 1007.5 569.5 L 1009.3222999999999 569.5 1009.3222999999999 571.439 1007.5 571.439 1007.5 569.5 Z"/><path data-ac-wrapper-id="27" id="ac_rect_32ac14c4_m" fill="#ffe082" stroke="#bdc8ce" d="M 1010.5 569.5 L 1010.951 569.5 1010.951 571.439 1010.5 571.439 1010.5 569.5 Z"/><path data-ac-wrapper-id="28" id="ac_rect_32ac14c4_n" fill="#ffe082" stroke="#bdc8ce" d="M 1009.5 572.5 L 1009.5983 572.5 1009.5983 573.5 1009.5 573.5 1009.5 572.5 Z"/><path data-ac-wrapper-id="29" id="ac_rect_32ac14c4_o" fill="#ffe082" stroke="#bdc8ce" d="M 1010.5 572.5 L 1010.951 572.5 1010.951 572.8521999999999 1010.5 572.8521999999999 1010.5 572.5 Z"/><path data-ac-wrapper-id="30" id="ac_rect_32ac14c4_p" fill="#ffe082" stroke="#bdc8ce" d="M 1010.5 573.5 L 1010.9603 573.5 1010.9603 573.8522 1010.5 573.8522 1010.5 573.5 Z"/><path data-ac-wrapper-id="31" id="ac_rect_32ac14c4_q" fill="#ffe082" stroke="#bdc8ce" d="M 1007.5 572.5 L 1008.4567 572.5 1008.4567 573.5 1007.5 573.5 1007.5 572.5 Z"/><path data-ac-wrapper-id="32" id="ac_rect_32ac14c4_r" fill="#ffdc82" fill-opacity="0.5" stroke="#bdc8ce" d="M 926.5 464.5 L 1010.951 464.5 1010.951 573.5 926.5 573.5 926.5 464.5 Z"/></g><g data-ac-wrapper-id="34" pointer-events="none" id="ac_layer_32ac14c4_w"/><g data-ac-wrapper-id="40" id="ac_layer_32ac14c4_1w"><g data-ac-wrapper-id="41" clip-path="url(&quot;#ac_clip_32ac14c4_14&quot;)" clipPathUnits="userSpaceOnUse" id="ac_layer_32ac14c4_16"><text data-ac-wrapper-id="42" font-style="normal" font-variant="normal" font-family="Verdana, Helvetica, Arial, sans-serif" font-size="12" font-weight="bold" fill="#212121" letter-spacing="normal" text-decoration="none" direction="ltr" text-anchor="middle" x="337.6265" y="330.25" aria-hidden="true" id="ac_text_32ac14c4_12" style="user-select: none; font-family: Verdana, Helvetica, Arial, sans-serif; opacity: 1;"><tspan x="337.6265" dy="0">Oxygen</tspan><tspan font-size="11px" font-weight="bold" x="337.6265" dy="14.5">43</tspan><tspan dy="0"> kg</tspan></text></g><g data-ac-wrapper-id="44" clip-path="url(&quot;#ac_clip_32ac14c4_19&quot;)" clipPathUnits="userSpaceOnUse" id="ac_layer_32ac14c4_1b"><text data-ac-wrapper-id="45" font-style="normal" font-variant="normal" font-family="Verdana, Helvetica, Arial, sans-serif" font-size="12" font-weight="normal" fill="#212121" letter-spacing="normal" text-decoration="none" direction="ltr" text-anchor="middle" x="871.6265000000001" y="231.50955" aria-hidden="true" id="ac_text_32ac14c4_17" style="user-select: none; font-family: Verdana, Helvetica, Arial, sans-serif; opacity: 1;"><tspan x="871.6265000000001" dy="0">Carbon</tspan><tspan font-size="11px" font-weight="bold" x="871.6265000000001" dy="14.5">16</tspan><tspan dy="0"> kg</tspan></text></g><g data-ac-wrapper-id="47" clip-path="url(&quot;#ac_clip_32ac14c4_1e&quot;)" clipPathUnits="userSpaceOnUse" id="ac_layer_32ac14c4_1g"><text data-ac-wrapper-id="48" font-style="normal" font-variant="normal" font-family="Verdana, Helvetica, Arial, sans-serif" font-size="12" font-weight="normal" fill="#212121" letter-spacing="normal" text-decoration="none" direction="ltr" text-anchor="middle" x="795.5639000000001" y="472.75955" aria-hidden="true" id="ac_text_32ac14c4_1c" style="user-select: none; font-family: Verdana, Helvetica, Arial, sans-serif; opacity: 1;"><tspan x="795.5639000000001" dy="0">Hydrogen</tspan><tspan font-size="11px" font-weight="bold" x="795.5639000000001" dy="14.5">7</tspan><tspan dy="0"> kg</tspan></text></g><g data-ac-wrapper-id="50" clip-path="url(&quot;#ac_clip_32ac14c4_1j&quot;)" clipPathUnits="userSpaceOnUse" id="ac_layer_32ac14c4_1l"><text data-ac-wrapper-id="51" font-style="normal" font-variant="normal" font-family="Verdana, Helvetica, Arial, sans-serif" font-size="12" font-weight="normal" fill="#212121" letter-spacing="normal" text-decoration="none" direction="ltr" text-anchor="middle" x="1001.9374" y="417.5181" aria-hidden="true" id="ac_text_32ac14c4_1h" style="user-select: none; font-family: Verdana, Helvetica, Arial, sans-serif; opacity: 1;"><tspan x="1001.9374" dy="0">Nitrogen</tspan><tspan font-size="11px" font-weight="bold" x="1001.9374" dy="14.5">1.8</tspan><tspan dy="0"> kg</tspan></text></g><g data-ac-wrapper-id="53" clip-path="url(&quot;#ac_clip_32ac14c4_1o&quot;)" clipPathUnits="userSpaceOnUse" id="ac_layer_32ac14c4_1q"><text data-ac-wrapper-id="54" font-style="normal" font-variant="normal" font-family="Verdana, Helvetica, Arial, sans-serif" font-size="12" font-weight="normal" fill="#212121" letter-spacing="normal" text-decoration="none" direction="ltr" text-anchor="middle" x="1044.7255" y="516.2587" aria-hidden="true" id="ac_text_32ac14c4_1m" style="user-select: none; font-family: Verdana, Helvetica, Arial, sans-serif; opacity: 1;"><tspan x="1044.7255" dy="0">Calcium</tspan><tspan font-size="11px" font-weight="bold" x="1044.7255" dy="14.5">1</tspan><tspan dy="0"> kg</tspan></text></g><g data-ac-wrapper-id="56" clip-path="url(&quot;#ac_clip_32ac14c4_1t&quot;)" clipPathUnits="userSpaceOnUse" id="ac_layer_32ac14c4_1v"><text data-ac-wrapper-id="57" font-style="normal" font-variant="normal" font-family="Verdana, Helvetica, Arial, sans-serif" font-size="12" font-weight="normal" fill="#212121" letter-spacing="normal" text-decoration="none" direction="ltr" text-anchor="middle" x="968.6629" y="516.25855" aria-hidden="true" id="ac_text_32ac14c4_1r" style="user-select: none; font-family: Verdana, Helvetica, Arial, sans-serif; opacity: 1;"><tspan x="968.6629" dy="0">Other</tspan><tspan font-size="11px" font-weight="bold" x="968.6629" dy="14.5">1.286</tspan><tspan dy="0"> kg</tspan></text></g></g><g data-ac-wrapper-id="59" id="ac_layer_32ac14c4_1x"/><g data-ac-wrapper-id="35" id="ac_layer_32ac14c4_11"><g data-ac-wrapper-id="36" id="ac_layer_32ac14c4_10"><g data-ac-wrapper-id="37" id="ac_layer_32ac14c4_y"><path data-ac-wrapper-id="38" id="ac_path_32ac14c4_x" fill="#eceff1" stroke="#bdc8ce" d="M 10.5 69.25 L 1077.5 69.25 1077.5 69.25 1077.5 91.25 1077.5 91.25 10.5 91.25 10.5 91.25 10.5 69.25 10.5 69.25 Z"/></g><text data-ac-wrapper-id="39" font-style="normal" font-variant="normal" font-family="Verdana, Helvetica, Arial, sans-serif" font-size="12" font-weight="normal" fill="#7c868e" letter-spacing="normal" text-decoration="none" direction="ltr" text-anchor="middle" x="544" y="85" aria-hidden="true" id="ac_text_32ac14c4_z" style="user-select: none; font-family: Verdana, Helvetica, Arial, sans-serif; opacity: 1;"><tspan x="544" dy="0">Elements</tspan></text></g></g><g data-ac-wrapper-id="9" transform="matrix(1,0,0,1,384.29296875,10)" id="ac_layer_32ac14c4_6"><text data-ac-wrapper-id="10" font-style="normal" font-variant="normal" font-family="Verdana, Helvetica, Arial, sans-serif" font-size="16" font-weight="normal" fill="#7c868e" letter-spacing="normal" text-decoration="none" direction="ltr" text-anchor="middle" x="159.70703125" y="16" aria-hidden="true" id="ac_text_32ac14c4_5" style="user-select: none; font-family: Verdana, Helvetica, Arial, sans-serif; opacity: 1;"><tspan x="159.70703125" dy="0">Composition of Human Body</tspan><tspan font-size="13px" fill="#212121" x="159.70703125" dy="19.5">Mass from the average adult human body 70 kg.</tspan></text></g></g></g></svg>