<svg version="1.1" xmlns="http://www.w3.org/2000/svg" id="raphael-paper-732" style="overflow: hidden; -webkit-tap-highlight-color: rgba(0, 0, 0, 0); user-select: none; cursor: default; vertical-align: middle; position: relative; left: -0.625px; top: -0.3125px; background-color: rgb(255, 255, 255);"><desc/><defs><clipPath id="rr-FF4CD860-6E65-4CA3-97C1-320EA8C740B7"><rect x="101" y="67.19999999999999" width="564" height="265.8" transform="matrix(1,0,0,1,0,0)"/></clipPath><clipPath id="rr-7D62BA08-04F4-4E8B-98ED-3847A924759C"><rect x="101" y="67.19999999999999" width="564" height="265.8" transform="matrix(1,0,0,1,0,0)"/></clipPath><clipPath id="rr-510B60EB-D717-4BD1-9909-BFDFAA68429B"><rect x="99" y="65.19999999999999" width="568" height="269.8" transform="matrix(1,0,0,1,0,0)"/></clipPath><clipPath id="rr-9E22D241-42B0-4F27-A73E-D24902171D8E"><rect x="99" y="65.19999999999999" width="568" height="269.8" transform="matrix(1,0,0,1,0,0)"/></clipPath><clipPath id="rr-3ABC2503-6B05-4345-B4AA-246D9DED740E"><rect x="99" y="65.19999999999999" width="568" height="269.8" transform="matrix(1,0,0,1,0,0)"/></clipPath><clipPath id="rr-CEA2BB5F-AAD1-4BBE-9007-F85CE2B6196A"><rect x="101" y="0" width="564" height="333" transform="matrix(1,0,0,1,0,0)"/></clipPath><linearGradient id="rr-732-0" x1="0" y1="0" x2="1" y2="0"/></defs><g class="raphael-group-733-parentgroup"><g class="raphael-group-734-background"><rect x="0" y="0" width="680" height="390" stroke="none" fill-opacity="1" fill="#ffffff" ry="0" rx="0"/><rect x="0" y="0" width="680" height="390" stroke="#767575" stroke-opacity="0.5" stroke-width="0" stroke-dasharray="none" fill="none" ry="0" rx="0"/></g><g class="raphael-group-756-canvas"><rect x="101" y="67.19999999999999" width="564" height="265.8" ry="0" rx="0" stroke-width="0" stroke="none" fill-opacity="0" fill="#ffffff"/></g><g class="raphael-group-735-axisbottom"><g class="raphael-group-810-dataset-Name-group"><g class="raphael-group-819-dataset-axis-name"><text font-family="Source Sans Pro" font-size="15px" font-weight="normal" font-style="normal" transform="matrix(0,-1,1,0,-176.1,224.1)" fill-opacity="1" fill="#999999" x="24" stroke="none" text-anchor="middle" y="205" style="font-family: &quot;Source Sans Pro&quot;; font-size: 15px; font-weight: normal; font-style: normal; text-anchor: middle;">Amount (In USD)</text></g></g><g class="raphael-group-813-dataset-Label-group"><g class="raphael-group-815-dataset-axis" transform="matrix(1,0,0,1,0,0)" font-family="Source Sans Pro" font-size="14px" font-weight="normal" font-style="normal" style="font-family: &quot;Source Sans Pro&quot;; font-size: 14px; font-weight: normal; font-style: normal;"><text transform="matrix(1,0,0,1,0,0)" opacity="1" fill-opacity="1" fill="#5a5a5a" font-size="14px" text-anchor="end" x="86" stroke="none" y="337" style="font-size: 14px; text-anchor: end;">$0</text><text transform="matrix(1,0,0,1,0,0)" opacity="1" fill-opacity="1" fill="#5a5a5a" font-size="14px" text-anchor="end" x="86" stroke="none" y="293" style="font-size: 14px; text-anchor: end;">$200K</text><text transform="matrix(1,0,0,1,0,0)" opacity="1" fill-opacity="1" fill="#5a5a5a" font-size="14px" text-anchor="end" x="86" stroke="none" y="249" style="font-size: 14px; text-anchor: end;">$400K</text><text transform="matrix(1,0,0,1,0,0)" opacity="1" fill-opacity="1" fill="#5a5a5a" font-size="14px" text-anchor="end" x="86" stroke="none" y="204" style="font-size: 14px; text-anchor: end;">$600K</text><text transform="matrix(1,0,0,1,0,0)" opacity="1" fill-opacity="1" fill="#5a5a5a" font-size="14px" text-anchor="end" x="86" stroke="none" y="160" style="font-size: 14px; text-anchor: end;">$800K</text><text transform="matrix(1,0,0,1,0,0)" opacity="1" fill-opacity="1" fill="#5a5a5a" font-size="14px" text-anchor="end" x="86" stroke="none" y="116" style="font-size: 14px; text-anchor: end;">$1M</text><text transform="matrix(1,0,0,1,0,0)" opacity="1" fill-opacity="1" fill="#5a5a5a" font-size="14px" text-anchor="end" x="86" stroke="none" y="71" style="font-size: 14px; text-anchor: end;">$1.2M</text></g></g><g class="raphael-group-820-axis-line-tick-bottom"/><g class="raphael-group-829-dataset-Name-group"><g class="raphael-group-838-dataset-axis-name"/></g><g class="raphael-group-832-dataset-Label-group"><g class="raphael-group-834-dataset-axis" transform="matrix(1,0,0,1,0,0)" font-family="Source Sans Pro" font-size="14px" font-weight="normal" font-style="normal" style="font-family: &quot;Source Sans Pro&quot;; font-size: 14px; font-weight: normal; font-style: normal;"><text transform="matrix(1,0,0,1,0,0)" opacity="1" fill-opacity="1" fill="#5a5a5a" x="132.33333333333334" text-anchor="middle" stroke="none" y="356" style="text-anchor: middle;"><tspan x="132.33333333333334">Online</tspan><tspan dy="16.8" x="132.33333333333334">sales</tspan></text><text transform="matrix(1,0,0,1,0,0)" opacity="1" fill-opacity="1" fill="#5a5a5a" x="195" text-anchor="middle" stroke="none" y="356" style="text-anchor: middle;"><tspan x="195">Store</tspan><tspan dy="16.8" x="195">Sales</tspan></text><text transform="matrix(1,0,0,1,0,0)" opacity="1" fill-opacity="1" fill="#5a5a5a" x="257.6666666666667" text-anchor="middle" stroke="none" y="356" style="text-anchor: middle;"><tspan x="257.6666666666667">Total</tspan><tspan dy="16.8" x="257.6666666666667">Sales</tspan></text><text transform="matrix(1,0,0,1,0,0)" opacity="1" fill-opacity="1" fill="#5a5a5a" x="320.33333333333337" text-anchor="middle" stroke="none" y="356" style="text-anchor: middle;"><tspan x="320.33333333333337">Fixed</tspan><tspan dy="16.8" x="320.33333333333337">Costs</tspan></text><text transform="matrix(1,0,0,1,0,0)" opacity="1" fill-opacity="1" fill="#5a5a5a" x="383" text-anchor="middle" stroke="none" y="356" style="text-anchor: middle;"><tspan x="383">Variable</tspan><tspan dy="16.8" x="383">Costs</tspan></text><text transform="matrix(1,0,0,1,0,0)" opacity="1" fill-opacity="1" fill="#5a5a5a" x="445.6666666666667" text-anchor="middle" stroke="none" y="356" style="text-anchor: middle;">COGS</text><text transform="matrix(1,0,0,1,0,0)" opacity="1" fill-opacity="1" fill="#5a5a5a" x="508.3333333333333" text-anchor="middle" stroke="none" y="356" style="text-anchor: middle;"><tspan x="508.3333333333333">Promoti</tspan><tspan dy="16.8" x="508.3333333333333">on Costs</tspan></text><text transform="matrix(1,0,0,1,0,0)" opacity="1" fill-opacity="1" fill="#5a5a5a" x="571" text-anchor="middle" stroke="none" y="356" style="text-anchor: middle;"><tspan x="571">Total</tspan><tspan dy="16.8" x="571">Costs</tspan></text><text transform="matrix(1,0,0,1,0,0)" opacity="1" fill-opacity="1" fill="#5a5a5a" x="633.6666666666666" text-anchor="middle" stroke="none" y="356" style="text-anchor: middle;"><tspan x="633.6666666666666">Total </tspan><tspan dy="16.8" x="633.6666666666666">Profit</tspan></text></g></g><g class="raphael-group-839-axis-line-tick-bottom"/></g><g class="raphael-group-758-axisReferenceVisualsFloor" clip-path="url('#rr-FF4CD860-6E65-4CA3-97C1-320EA8C740B7')"/><g class="raphael-group-757-axisReferenceVisualsBottom"><path stroke-dasharray="none" stroke="#dfdfdf" stroke-opacity="0.4" stroke-width="1" d="M101,333.5L665,333.5" stroke-linecap="butt" fill="none"/><path stroke-dasharray="none" stroke="#dfdfdf" stroke-opacity="0.4" stroke-width="1" d="M101,288.5L665,288.5" stroke-linecap="butt" fill="none"/><path stroke-dasharray="none" stroke="#dfdfdf" stroke-opacity="0.4" stroke-width="1" d="M101,244.5L665,244.5" stroke-linecap="butt" fill="none"/><path stroke-dasharray="none" stroke="#dfdfdf" stroke-opacity="0.4" stroke-width="1" d="M101,200.5L665,200.5" stroke-linecap="butt" fill="none"/><path stroke-dasharray="none" stroke="#dfdfdf" stroke-opacity="0.4" stroke-width="1" d="M101,155.5L665,155.5" stroke-linecap="butt" fill="none"/><path stroke-dasharray="none" stroke="#dfdfdf" stroke-opacity="0.4" stroke-width="1" d="M101,111.5L665,111.5" stroke-linecap="butt" fill="none"/><path stroke-dasharray="none" stroke="#dfdfdf" stroke-opacity="0.4" stroke-width="1" d="M101,67.5L665,67.5" stroke-linecap="butt" fill="none"/></g><g class="raphael-group-736-belowplot"/><g class="raphael-group-759-crossline"/><g class="raphael-group-760-crosslineBottom"/><g class="raphael-group-763-axisReferenceVisualsMiddle" clip-path="url('#rr-7D62BA08-04F4-4E8B-98ED-3847A924759C')"/><g class="raphael-group-765-quadrant" clip-path="url('#rr-3ABC2503-6B05-4345-B4AA-246D9DED740E')"/><g class="raphael-group-737-plots" clip-path="url('#rr-510B60EB-D717-4BD1-9909-BFDFAA68429B')"><g class="raphael-group-767-column-shadow-group"><g class="raphael-group-783-vcanvas-column-shadow" transform="matrix(1,0,0,1,0,0)"><g class="raphael-group-794-shadow-group"/><g class="raphael-group-795-error-shadow-group"/></g></g><g class="raphael-group-768-column"><g class="raphael-group-784-vcanvas-column-plot" transform="matrix(1,0,0,1,0,0)"><g class="raphael-group-792-columnTrendGroup"/><g class="raphael-group-797-plot-group"><rect y="240.5" height="93" x="107.5" width="50" ry="0" rx="0" fill-opacity="1" fill="#62b58f" stroke="#c0c0c0" stroke-opacity="0.000001" stroke-width="0" stroke-dasharray="none" stroke-linejoin="miter"/><rect y="83.5" height="156" x="170.5" width="50" ry="0" rx="0" fill-opacity="1" fill="#62b58f" stroke="#c0c0c0" stroke-opacity="0.000001" stroke-width="0" stroke-dasharray="none" stroke-linejoin="miter"/><rect y="83.5" height="250" x="232.5" width="50" ry="0" rx="0" fill-opacity="1" fill="#62b58f" stroke="url('#rr-732-0')" stroke-width="0" stroke-dasharray="none" stroke-linejoin="miter" stroke-opacity="1"/><rect y="82.5" height="55" x="295.5" width="50" ry="0" rx="0" fill-opacity="1" fill="#f2726f" stroke="#c0c0c0" stroke-opacity="0.000001" stroke-width="0" stroke-dasharray="none" stroke-linejoin="miter"/><rect y="138.5" height="34" x="358.5" width="50" ry="0" rx="0" fill-opacity="1" fill="#f2726f" stroke="#c0c0c0" stroke-opacity="0.000001" stroke-width="0" stroke-dasharray="none" stroke-linejoin="miter"/><rect y="172.5" height="68" x="420.5" width="50" ry="0" rx="0" fill-opacity="1" fill="#f2726f" stroke="#c0c0c0" stroke-opacity="0.000001" stroke-width="0" stroke-dasharray="none" stroke-linejoin="miter"/><rect y="241.5" height="18" x="483.5" width="50" ry="0" rx="0" fill-opacity="1" fill="#f2726f" stroke="#c0c0c0" stroke-opacity="0.000001" stroke-width="0" stroke-dasharray="none" stroke-linejoin="miter"/><rect y="82.5" height="177" x="546.5" width="50" ry="0" rx="0" fill-opacity="1" fill="#f2726f" stroke="#c0c0c0" stroke-opacity="0.000001" stroke-width="0" stroke-dasharray="none" stroke-linejoin="miter"/><rect y="260.5" height="73" x="608.5" width="50" ry="0" rx="0" fill-opacity="1" fill="#62b58f" stroke="#c0c0c0" stroke-opacity="0.000001" stroke-width="0" stroke-dasharray="none" stroke-linejoin="miter"/></g><g class="raphael-group-798-error-plot-group"/><g class="raphael-group-796-common-elems-group"><path d="M132.65,239.65M132.65,239.65m-25,0H194.65h25m0,-157M257.65,82.65M257.65,82.65m-25,0H320.65h25m0,55M320.65,137.65m-25,0H382.65h25m0,35M382.65,172.65m-25,0H445.65h25m0,69M445.65,241.65m-25,0H508.65h25m0,18.99999999999997" stroke-linecap="round" stroke-opacity="1" stroke-dasharray="1.3,2.7" stroke="#5d5d5d" stroke-linejoin="miter" stroke-width="0.7" fill="none"/></g></g></g><g class="raphael-group-769-area-shadow-group"><g class="raphael-group-785-vcanvas-area-shadow" transform="matrix(1,0,0,1,0,0)"/></g><g class="raphael-group-770-area"><g class="raphael-group-786-vcanvas-area-plot" transform="matrix(1,0,0,1,0,0)"/></g><g class="raphael-group-771-line-shadow-group"><g class="raphael-group-787-vcanvas-line-shadow" transform="matrix(1,0,0,1,0,0)"/></g><g class="raphael-group-772-line"><g class="raphael-group-788-vcanvas-line-plot" transform="matrix(1,0,0,1,0,0)"/></g><g class="raphael-group-773-default-shadow-group"><g class="raphael-group-789-vcanvas-default-shadow" transform="matrix(1,0,0,1,0,0)"/></g><g class="raphael-group-774-default"><g class="raphael-group-790-vcanvas-default-plot" transform="matrix(1,0,0,1,0,0)"/></g></g><g class="raphael-group-738-scrollbar-container"/><g class="raphael-group-739-axistop"><g class="raphael-group-811-axis-Line-group"><g class="raphael-group-817-axis-line-tick"/></g><g class="raphael-group-812-dataset-Trend-group-top"><g class="raphael-group-818-dataset-axis-trend-label"/></g><g class="raphael-group-814-dataset-Label-group"><g class="raphael-group-816-dataset-top-label" transform="matrix(1,0,0,1,0,0)"/></g><g class="raphael-group-830-axis-Line-group"><g class="raphael-group-836-axis-line-tick"/></g><g class="raphael-group-831-dataset-Trend-group-top"><g class="raphael-group-837-dataset-axis-trend-label"/></g><g class="raphael-group-833-dataset-Label-group"><g class="raphael-group-835-dataset-top-label" transform="matrix(1,0,0,1,0,0)"/></g></g><g class="raphael-group-740-sumlabels fusioncharts-datalabels" clip-path="url('#rr-CEA2BB5F-AAD1-4BBE-9007-F85CE2B6196A')"><g class="raphael-group-793-vcanvas-sumLabelsLayer" transform="matrix(1,0,0,1,0,0)"/></g><g class="raphael-group-764-axisReferenceVisualsTop"/><g class="raphael-group-766-axisReferenceVisualsCeil"/><g class="raphael-group-741-datalabel" font-family="Source Sans Pro" font-size="14px" font-weight="normal" font-style="normal" clip-path="url('#rr-9E22D241-42B0-4F27-A73E-D24902171D8E')" style="font-family: &quot;Source Sans Pro&quot;; font-size: 14px; font-weight: normal; font-style: normal;"><g class="raphael-group-762-canvasdatalabel"><g class="raphael-group-791-vcanvas-label" transform="matrix(1,0,0,1,0,0)"><g class="raphael-group-799-label-group fusioncharts-datalabels" font-family="Source Sans Pro" font-size="14px" font-weight="normal" font-style="normal" style="font-family: &quot;Source Sans Pro&quot;; font-size: 14px; font-weight: normal; font-style: normal;"/></g></g></g><g class="raphael-group-761-crosslineTop"/><g class="raphael-group-742-aboveplot"/><g class="raphael-group-743-caption"><text fill-opacity="1" fill="#5a5a5a" x="383" text-anchor="middle" stroke="none" y="31" font-family="Source Sans Pro" font-size="18px" font-weight="bold" style="text-anchor: middle; font-family: &quot;Source Sans Pro&quot;; font-size: 18px; font-weight: bold;">Total Profit Calculation</text><text fill-opacity="1" fill="#999999" x="383" text-anchor="middle" stroke="none" y="50" font-family="Source Sans Pro" font-size="13px" font-weight="normal" style="text-anchor: middle; font-family: &quot;Source Sans Pro&quot;; font-size: 13px; font-weight: normal;">Last month</text></g><g class="raphael-group-744-chartdefault"/><g class="raphael-group-745-chartdefault-shadow"/><g class="raphael-group-746-tracker"/><g class="raphael-group-747-logo"/><g class="raphael-group-748-selectorGroup"/><g class="raphael-group-749-toolbar-master"><g class="raphael-group-754-toolbar"><rect fill-opacity="0" fill="#eeeeee" stroke="#eeeeee" stroke-opacity="0" stroke-width="1" width="0" height="0" x="670" y="6" ry="0" rx="0"/></g></g></g><rect x="0" y="0" width="10" height="30" ry="0" rx="0" fill="none" stroke="#000000" style="display: none;"/></svg>