<svg version="1.1" class="highcharts-root" style="font-family: &quot;Lucida Grande&quot;, &quot;Lucida Sans Unicode&quot;, Arial, Helvetica, sans-serif; font-size: 12px;" xmlns="http://www.w3.org/2000/svg" width="593" height="400" viewBox="0 0 593 400" aria-hidden="false" aria-label="Interactive chart"><desc aria-hidden="true">Created with Highcharts 10.3.3</desc><defs aria-hidden="true"><clipPath id="highcharts-hxk9h79-1-"><rect x="0" y="0" width="573" height="286" fill="none"></rect></clipPath><clipPath id="highcharts-hxk9h79-11"><circle cx="286.5" cy="143" r="121.55" innerR="0"></circle></clipPath><clipPath id="highcharts-hxk9h79-20"><circle cx="286.5" cy="143" r="121.55" innerR="0"></circle></clipPath><clipPath id="highcharts-hxk9h79-29"><circle cx="286.5" cy="143" r="121.55" innerR="0"></circle></clipPath></defs><rect fill="#ffffff" class="highcharts-background" x="0" y="0" width="593" height="400" rx="0" ry="0" aria-hidden="true"></rect><rect fill="none" class="highcharts-plot-background" x="10" y="61" width="573" height="286" aria-hidden="true"></rect><g class="highcharts-pane-group" data-z-index="0" aria-hidden="true"></g><g class="highcharts-grid highcharts-xaxis-grid highcharts-radial-axis-grid" data-z-index="1" aria-hidden="true"><path fill="none" stroke="#e6e6e6" stroke-width="1" stroke-dasharray="none" data-z-index="1" class="highcharts-grid-line" d="M 296.5 204 L 296.5 82.45" opacity="1"></path><path fill="none" stroke="#e6e6e6" stroke-width="1" stroke-dasharray="none" data-z-index="1" class="highcharts-grid-line" d="M 296.5 204 L 382.44882925322486 118.05117074677516" opacity="1"></path><path fill="none" stroke="#e6e6e6" stroke-width="1" stroke-dasharray="none" data-z-index="1" class="highcharts-grid-line" d="M 296.5 204 L 418.05 204" opacity="1"></path><path fill="none" stroke="#e6e6e6" stroke-width="1" stroke-dasharray="none" data-z-index="1" class="highcharts-grid-line" d="M 296.5 204 L 382.44882925322486 289.94882925322486" opacity="1"></path><path fill="none" stroke="#e6e6e6" stroke-width="1" stroke-dasharray="none" data-z-index="1" class="highcharts-grid-line" d="M 296.5 204 L 296.5 325.55" opacity="1"></path><path fill="none" stroke="#e6e6e6" stroke-width="1" stroke-dasharray="none" data-z-index="1" class="highcharts-grid-line" d="M 296.5 204 L 210.55117074677514 289.94882925322486" opacity="1"></path><path fill="none" stroke="#e6e6e6" stroke-width="1" stroke-dasharray="none" data-z-index="1" class="highcharts-grid-line" d="M 296.5 204 L 174.95 204.00000000000003" opacity="1"></path><path fill="none" stroke="#e6e6e6" stroke-width="1" stroke-dasharray="none" data-z-index="1" class="highcharts-grid-line" d="M 296.5 204 L 210.55117074677514 118.05117074677516" opacity="1"></path><path fill="none" stroke="#e6e6e6" stroke-width="1" stroke-dasharray="none" data-z-index="1" class="highcharts-grid-line" d="M 296.5 204 L 296.5 82.45" opacity="1"></path></g><g class="highcharts-grid highcharts-yaxis-grid highcharts-radial-axis-grid" data-z-index="1" aria-hidden="true"><path fill="none" stroke="#e6e6e6" stroke-width="1" stroke-dasharray="none" data-z-index="1" class="highcharts-grid-line" d="M 296.5 204 A 0 0 0 1 1 296.5 204 M 296.5 204 A 0 0 0 1 0 296.5 204" opacity="1"></path><path fill="none" stroke="#e6e6e6" stroke-width="1" stroke-dasharray="none" data-z-index="1" class="highcharts-grid-line" d="M 296.5 143.225 A 60.775 60.775 0 1 1 296.4392250101291 143.22503038749747 M 296.5 204 A 0 0 0 1 0 296.5 204" opacity="1"></path><path fill="none" stroke="#e6e6e6" stroke-width="1" stroke-dasharray="none" data-z-index="1" class="highcharts-grid-line" d="M 296.5 82.45 A 121.55 121.55 0 1 1 296.37845002025824 82.45006077499494 M 296.5 204 A 0 0 0 1 0 296.5 204" opacity="1"></path></g><rect fill="none" class="highcharts-plot-border" data-z-index="1" stroke="#cccccc" stroke-width="0" x="10" y="61" width="573" height="286" aria-hidden="true"></rect><g class="highcharts-axis highcharts-xaxis highcharts-radial-axis" data-z-index="2" aria-hidden="true"><path fill="none" class="highcharts-axis-line" stroke="#ccd6eb" stroke-width="1" data-z-index="7" d="M 296.5 82.45 A 121.55 121.55 0 1 1 296.37845002025824 82.45006077499494 M 296.5 204 A 0 0 0 1 0 296.5 204"></path></g><g class="highcharts-axis highcharts-yaxis highcharts-radial-axis" data-z-index="2" aria-hidden="true"><path fill="none" class="highcharts-axis-line" stroke="#ccd6eb" stroke-width="0" data-z-index="7" d="M 296.5 204 L 296.5 82.45"></path></g><g class="highcharts-series-group" data-z-index="3" aria-hidden="false"><g class="highcharts-series highcharts-series-0 highcharts-column-series highcharts-color-0 highcharts-tracker highcharts-dense-data" data-z-index="0.1" opacity="1" transform="translate(10,61) scale(1 1)" clip-path="url(#highcharts-hxk9h79-11)" aria-hidden="false" role="region" tabindex="-1" aria-label="Column, series 1 of 3. Bar series with 8 bars." style="outline: none;"><path fill="#7cb5ec" d="M 286.4999999999996 45.760000000000005 A 97.24 97.24 0 0 1 355.190269971108 74.17221192500594 L 286.5 143 A 0 0 0 0 0 286.5 143 Z" stroke="#ffffff" stroke-width="0" opacity="1" class="highcharts-point highcharts-color-0" tabindex="-1" role="img" aria-label="x, 0, 8. Column." style="outline: none;"></path><path fill="#7cb5ec" d="M 346.66418047725904 82.83581952274426 A 85.085 85.085 0 0 1 371.58495745750355 142.91491501418318 L 286.5 143 A 0 0 0 0 0 286.5 143 Z" stroke="#ffffff" stroke-width="0" opacity="1" class="highcharts-point highcharts-color-0" tabindex="-1" role="img" aria-label="x, 45, 7. Column." style="outline: none;"></path><path fill="#7cb5ec" d="M 359.43 142.9999999999985 A 72.92999999999999 72.92999999999999 0 0 1 338.1208410562464 194.51770247833016 L 286.5 143 A 0 0 0 0 0 286.5 143 Z" stroke="#ffffff" stroke-width="0" opacity="1" class="highcharts-point highcharts-color-0" tabindex="-1" role="img" aria-label="x, 90, 6. Column." style="outline: none;"></path><path fill="#7cb5ec" d="M 329.47441462661106 185.97441462661376 A 60.775 60.775 0 0 1 286.56077498986895 203.77496961250253 L 286.5 143 A 0 0 0 0 0 286.5 143 Z" stroke="#ffffff" stroke-width="0" opacity="1" class="highcharts-point highcharts-color-0" tabindex="-1" role="img" aria-label="x, 135, 5. Column." style="outline: none;"></path><path fill="#7cb5ec" d="M 286.50000000000085 191.62 A 48.61999999999999 48.61999999999999 0 0 1 252.15486501444644 177.41389403749747 L 286.5 143 A 0 0 0 0 0 286.5 143 Z" stroke="#ffffff" stroke-width="0" opacity="1" class="highcharts-point highcharts-color-0" tabindex="-1" role="img" aria-label="x, 180, 4. Column." style="outline: none;"></path><path fill="#7cb5ec" d="M 260.7153512240317 168.78464877596656 A 36.46499999999999 36.46499999999999 0 0 1 250.0350182324985 143.03646499392124 L 286.5 143 A 0 0 0 0 0 286.5 143 Z" stroke="#ffffff" stroke-width="0" opacity="1" class="highcharts-point highcharts-color-0" tabindex="-1" role="img" aria-label="x, 225, 3. Column." style="outline: none;"></path><path fill="#7cb5ec" d="M 262.19 143.00000000000034 A 24.310000000000002 24.310000000000002 0 0 1 269.2930529812513 125.82743250722316 L 286.5 143 A 0 0 0 0 0 286.5 143 Z" stroke="#ffffff" stroke-width="0" opacity="1" class="highcharts-point highcharts-color-0" tabindex="-1" role="img" aria-label="x, 270, 2. Column." style="outline: none;"></path><path fill="#7cb5ec" d="M 277.90511707467783 134.40511707467718 A 12.155000000000001 12.155000000000001 0 0 1 286.4878450020263 130.8450060774995 L 286.5 143 A 0 0 0 0 0 286.5 143 Z" stroke="#ffffff" stroke-width="0" opacity="1" class="highcharts-point highcharts-color-0" tabindex="-1" role="img" aria-label="x, 315, 1. Column." style="outline: none;"></path></g><g class="highcharts-markers highcharts-series-0 highcharts-column-series highcharts-color-0" data-z-index="0.1" opacity="1" transform="translate(10,61) scale(1 1)" clip-path="none" aria-hidden="true"></g><g class="highcharts-series highcharts-series-1 highcharts-line-series highcharts-color-1" data-z-index="0.1" opacity="1" transform="translate(10,61) scale(1 1)" clip-path="url(#highcharts-hxk9h79-20)" aria-hidden="true"><path fill="none" d="M 286.5 130.845 L 303.689765850645 125.81023414935507 L 322.965 143.00000000000014 L 320.87953170129146 177.37953170128839 L 286.49999999999955 203.77499999999998 L 234.93070244806722 194.56929755193704 L 201.41500000000002 142.9999999999991 L 217.7409365974175 74.24093659742277 L 286.5 130.845" class="highcharts-graph" data-z-index="1" stroke="#434348" stroke-width="2" stroke-linejoin="round" stroke-linecap="round"></path><path fill="none" d="M 286.5 130.845 L 303.689765850645 125.81023414935507 L 322.965 143.00000000000014 L 320.87953170129146 177.37953170128839 L 286.49999999999955 203.77499999999998 L 234.93070244806722 194.56929755193704 L 201.41500000000002 142.9999999999991 L 217.7409365974175 74.24093659742277 L 286.5 130.845" data-z-index="2" class="highcharts-tracker-line" stroke-linecap="round" stroke-linejoin="round" stroke="rgba(192,192,192,0.0001)" stroke-width="22"></path></g><g class="highcharts-markers highcharts-series-1 highcharts-line-series highcharts-color-1 highcharts-tracker" data-z-index="0.1" opacity="1" transform="translate(10,61) scale(1 1)" clip-path="none" aria-hidden="false" role="region" tabindex="-1" aria-label="Line, series 2 of 3. Line with 8 data points." style="outline: none;"><path fill="#434348" d="M 286 134.845 A 4 4 0 1 1 286.00399999933336 134.84499800000017 Z" stroke="#ffffff" stroke-width="0" opacity="1" class="highcharts-point highcharts-color-1" tabindex="-1" role="img" aria-label="x, 0, 1. Line." style="outline: none;"></path><path fill="#434348" d="M 303 129.81023414935507 A 4 4 0 1 1 303.00399999933336 129.81023214935524 Z" stroke="#ffffff" stroke-width="0" opacity="1" class="highcharts-point highcharts-color-1" tabindex="-1" role="img" aria-label="x, 45, 2. Line." style="outline: none;"></path><path fill="#434348" d="M 322 147.00000000000014 A 4 4 0 1 1 322.00399999933336 146.99999800000032 Z" stroke="#ffffff" stroke-width="0" opacity="1" class="highcharts-point highcharts-color-1" tabindex="-1" role="img" aria-label="x, 90, 3. Line." style="outline: none;"></path><path fill="#434348" d="M 320 181.37953170128839 A 4 4 0 1 1 320.00399999933336 181.37952970128856 Z" stroke="#ffffff" stroke-width="0" opacity="1" class="highcharts-point highcharts-color-1" tabindex="-1" role="img" aria-label="x, 135, 4. Line." style="outline: none;"></path><path fill="#434348" d="M 286 207.77499999999998 A 4 4 0 1 1 286.00399999933336 207.77499800000015 Z" stroke="#ffffff" stroke-width="0" opacity="1" class="highcharts-point highcharts-color-1" tabindex="-1" role="img" aria-label="x, 180, 5. Line." style="outline: none;"></path><path fill="#434348" d="M 234 198.56929755193704 A 4 4 0 1 1 234.00399999933333 198.56929555193722 Z" stroke="#ffffff" stroke-width="0" opacity="1" class="highcharts-point highcharts-color-1" tabindex="-1" role="img" aria-label="x, 225, 6. Line." style="outline: none;"></path><path fill="#434348" d="M 201 146.9999999999991 A 4 4 0 1 1 201.00399999933333 146.99999799999927 Z" stroke="#ffffff" stroke-width="0" opacity="1" class="highcharts-point highcharts-color-1" tabindex="-1" role="img" aria-label="x, 270, 7. Line." style="outline: none;"></path><path fill="#434348" d="M 217 78.24093659742277 A 4 4 0 1 1 217.00399999933333 78.24093459742294 Z" stroke="#ffffff" stroke-width="0" opacity="1" class="highcharts-point highcharts-color-1" tabindex="-1" role="img" aria-label="x, 315, 8. Line." style="outline: none;"></path></g><g class="highcharts-series highcharts-series-2 highcharts-area-series highcharts-color-2" data-z-index="0.1" opacity="1" transform="translate(10,61) scale(1 1)" clip-path="url(#highcharts-hxk9h79-29)" aria-hidden="true"><path fill="rgba(144,237,125,0.75)" d="M 286.5 130.845 L 355.25906340258 74.24093659742024 L 310.81 143.00000000000009 L 346.6641804772601 203.16418047725472 L 286.4999999999997 179.46499999999997 L 234.93070244806722 194.56929755193704 L 237.88 142.9999999999995 L 243.52558537338592 100.02558537338922 L 286.5 130.845 L 286.5 143.45 L 286.81819805153395 143.31819805153393 L 286.95 143 L 286.81819805153395 142.68180194846605 L 286.5 142.55 L 286.18180194846605 142.68180194846607 L 286.05 143 L 286.18180194846605 143.31819805153395 L 286.5 143.45 Z" class="highcharts-area" data-z-index="0"></path><path fill="none" d="M 286.5 130.845 L 355.25906340258 74.24093659742024 L 310.81 143.00000000000009 L 346.6641804772601 203.16418047725472 L 286.4999999999997 179.46499999999997 L 234.93070244806722 194.56929755193704 L 237.88 142.9999999999995 L 243.52558537338592 100.02558537338922 L 286.5 130.845" class="highcharts-graph" data-z-index="1" stroke="#90ed7d" stroke-width="2" stroke-linejoin="round" stroke-linecap="round"></path><path fill="none" d="M 286.5 130.845 L 355.25906340258 74.24093659742024 L 310.81 143.00000000000009 L 346.6641804772601 203.16418047725472 L 286.4999999999997 179.46499999999997 L 234.93070244806722 194.56929755193704 L 237.88 142.9999999999995 L 243.52558537338592 100.02558537338922 L 286.5 130.845" data-z-index="2" class="highcharts-tracker-line" stroke-linecap="round" stroke-linejoin="round" stroke="rgba(192,192,192,0.0001)" stroke-width="22"></path></g><g class="highcharts-markers highcharts-series-2 highcharts-area-series highcharts-color-2 highcharts-tracker" data-z-index="0.1" opacity="1" transform="translate(10,61) scale(1 1)" clip-path="none" aria-hidden="false" role="region" tabindex="-1" aria-label="Area, series 3 of 3 with 8 data points." style="outline: none;"><path fill="#90ed7d" d="M 286 126.845 L 290 130.845 L 286 134.845 L 282 130.845 Z" stroke="#ffffff" stroke-width="0" opacity="1" class="highcharts-point highcharts-color-2" tabindex="-1" role="img" aria-label="x, 0, 1. Area." style="outline: none;"></path><path fill="#90ed7d" d="M 355 70.24093659742024 L 359 74.24093659742024 L 355 78.24093659742024 L 351 74.24093659742024 Z" stroke="#ffffff" stroke-width="0" opacity="1" class="highcharts-point highcharts-color-2" tabindex="-1" role="img" aria-label="x, 45, 8. Area." style="outline: none;"></path><path fill="#90ed7d" d="M 310 139.00000000000009 L 314 143.00000000000009 L 310 147.00000000000009 L 306 143.00000000000009 Z" stroke="#ffffff" stroke-width="0" opacity="1" class="highcharts-point highcharts-color-2" tabindex="-1" role="img" aria-label="x, 90, 2. Area." style="outline: none;"></path><path fill="#90ed7d" d="M 346 199.16418047725472 L 350 203.16418047725472 L 346 207.16418047725472 L 342 203.16418047725472 Z" stroke="#ffffff" stroke-width="0" opacity="1" class="highcharts-point highcharts-color-2" tabindex="-1" role="img" aria-label="x, 135, 7. Area." style="outline: none;"></path><path fill="#90ed7d" d="M 286 175.46499999999997 L 290 179.46499999999997 L 286 183.46499999999997 L 282 179.46499999999997 Z" stroke="#ffffff" stroke-width="0" opacity="1" class="highcharts-point highcharts-color-2" tabindex="-1" role="img" aria-label="x, 180, 3. Area." style="outline: none;"></path><path fill="#90ed7d" d="M 234 190.56929755193704 L 238 194.56929755193704 L 234 198.56929755193704 L 230 194.56929755193704 Z" stroke="#ffffff" stroke-width="0" opacity="1" class="highcharts-point highcharts-color-2" tabindex="-1" role="img" aria-label="x, 225, 6. Area." style="outline: none;"></path><path fill="#90ed7d" d="M 237 138.9999999999995 L 241 142.9999999999995 L 237 146.9999999999995 L 233 142.9999999999995 Z" stroke="#ffffff" stroke-width="0" opacity="1" class="highcharts-point highcharts-color-2" tabindex="-1" role="img" aria-label="x, 270, 4. Area." style="outline: none;"></path><path fill="#90ed7d" d="M 243 96.02558537338922 L 247 100.02558537338922 L 243 104.02558537338922 L 239 100.02558537338922 Z" stroke="#ffffff" stroke-width="0" opacity="1" class="highcharts-point highcharts-color-2" tabindex="-1" role="img" aria-label="x, 315, 5. Area." style="outline: none;"></path></g></g><g class="highcharts-exporting-group" data-z-index="3" aria-hidden="true"><g class="highcharts-no-tooltip highcharts-button highcharts-contextbutton" stroke-linecap="round" style="cursor: pointer;" transform="translate(559,10)"><title>Chart context menu</title><rect fill="#ffffff" class="highcharts-button-box" x="0.5" y="0.5" width="24" height="22" rx="2" ry="2" stroke="none" stroke-width="1"></rect><path fill="#666666" d="M 6 6.5 L 20 6.5 M 6 11.5 L 20 11.5 M 6 16.5 L 20 16.5" class="highcharts-button-symbol" data-z-index="1" stroke="#666666" stroke-width="3"></path><text x="0" data-z-index="1" y="15.5" style="color: rgb(51, 51, 51); font-weight: normal; fill: rgb(51, 51, 51);"></text></g></g><text x="297" text-anchor="middle" class="highcharts-title" data-z-index="4" style="color: rgb(51, 51, 51); font-size: 18px; fill: rgb(51, 51, 51);" y="24" aria-hidden="true">Highcharts Polar Chart</text><text x="297" text-anchor="middle" class="highcharts-subtitle" data-z-index="4" style="color: rgb(102, 102, 102); fill: rgb(102, 102, 102);" y="46" aria-hidden="true">Also known as Radar Chart</text><text x="10" text-anchor="start" class="highcharts-caption" data-z-index="4" style="color: rgb(102, 102, 102); fill: rgb(102, 102, 102);" y="397" aria-hidden="true"></text><g class="highcharts-legend highcharts-no-tooltip" data-z-index="7" transform="translate(186,359)" aria-hidden="true"><rect fill="none" class="highcharts-legend-box" rx="0" ry="0" stroke="#999999" stroke-width="0" x="0" y="0" width="220" height="26"></rect><g data-z-index="1"><g><g class="highcharts-legend-item highcharts-column-series highcharts-color-0 highcharts-series-0" data-z-index="1" transform="translate(8,3)"><text x="21" text-anchor="start" data-z-index="2" y="15" style="color: rgb(51, 51, 51); cursor: pointer; font-size: 12px; font-weight: bold; fill: rgb(51, 51, 51);">Column</text><rect x="2" y="4" width="12" height="12" fill="#7cb5ec" rx="6" ry="6" class="highcharts-point" data-z-index="3"></rect></g><g class="highcharts-legend-item highcharts-line-series highcharts-color-1 highcharts-series-1" data-z-index="1" transform="translate(96.515625,3)"><path fill="none" class="highcharts-graph" stroke-width="2" stroke-linecap="round" d="M 1 11 L 15 11" stroke="#434348"></path><path fill="#434348" d="M 8 15 A 4 4 0 1 1 8.003999999333336 14.999998000000167 Z" class="highcharts-point" stroke="#ffffff" stroke-width="0" opacity="1"></path><text x="21" y="15" text-anchor="start" data-z-index="2" style="color: rgb(51, 51, 51); cursor: pointer; font-size: 12px; font-weight: bold; fill: rgb(51, 51, 51);">Line</text></g><g class="highcharts-legend-item highcharts-area-series highcharts-color-2 highcharts-series-2" data-z-index="1" transform="translate(163.3125,3)"><text x="21" y="15" text-anchor="start" data-z-index="2" style="color: rgb(51, 51, 51); cursor: pointer; font-size: 12px; font-weight: bold; fill: rgb(51, 51, 51);">Area</text><rect x="2" y="4" width="12" height="12" fill="#90ed7d" rx="6" ry="6" class="highcharts-point" data-z-index="3"></rect></g></g></g></g><g class="highcharts-axis-labels highcharts-xaxis-labels highcharts-radial-axis-labels" data-z-index="7" aria-hidden="true"><text x="296.5" transform="translate(0,0)" style="color: rgb(102, 102, 102); cursor: default; font-size: 11px; fill: rgb(102, 102, 102);" text-anchor="middle" y="71.94999999999999" opacity="1">0°</text><text x="393.0554309710231" transform="translate(0,0)" style="color: rgb(102, 102, 102); cursor: default; font-size: 11px; fill: rgb(102, 102, 102);" text-anchor="start" y="111.94456902897694" opacity="1">45°</text><text x="433.05" transform="translate(0,0)" style="color: rgb(102, 102, 102); cursor: default; font-size: 11px; fill: rgb(102, 102, 102);" text-anchor="start" y="208.5" opacity="1">90°</text><text x="393.0554309710231" transform="translate(0,0)" style="color: rgb(102, 102, 102); cursor: default; font-size: 11px; fill: rgb(102, 102, 102);" text-anchor="start" y="305.05543097102304" opacity="1">135°</text><text x="296.5" transform="translate(0,0)" style="color: rgb(102, 102, 102); cursor: default; font-size: 11px; fill: rgb(102, 102, 102);" text-anchor="middle" y="345.05" opacity="1">180°</text><text x="199.94456902897696" transform="translate(0,0)" style="color: rgb(102, 102, 102); cursor: default; font-size: 11px; fill: rgb(102, 102, 102);" text-anchor="end" y="305.0554309710231" opacity="1">225°</text><text x="159.95" transform="translate(0,0)" style="color: rgb(102, 102, 102); cursor: default; font-size: 11px; fill: rgb(102, 102, 102);" text-anchor="end" y="208.50000000000003" opacity="1">270°</text><text x="199.9445690289769" transform="translate(0,0)" style="color: rgb(102, 102, 102); cursor: default; font-size: 11px; fill: rgb(102, 102, 102);" text-anchor="end" y="111.94456902897694" opacity="1">315°</text><text x="0" transform="translate(0,0)" style="color: rgb(102, 102, 102); cursor: default; font-size: 11px; fill: rgb(102, 102, 102);" text-anchor="middle" visibility="hidden">360°</text></g><g class="highcharts-axis-labels highcharts-yaxis-labels highcharts-radial-axis-labels" data-z-index="7" aria-hidden="true"><text x="293.5" text-anchor="end" transform="translate(0,0)" style="color: rgb(102, 102, 102); cursor: default; font-size: 11px; fill: rgb(102, 102, 102);" y="202" opacity="1">0</text><text x="293.5" text-anchor="end" transform="translate(0,0)" style="color: rgb(102, 102, 102); cursor: default; font-size: 11px; fill: rgb(102, 102, 102);" y="141.225" opacity="1">5</text><text x="0" text-anchor="end" transform="translate(0,0)" style="color: rgb(102, 102, 102); cursor: default; font-size: 11px; fill: rgb(102, 102, 102);" visibility="hidden">10</text></g><text x="583" class="highcharts-credits" text-anchor="end" data-z-index="8" y="395" style="cursor: pointer; color: rgb(153, 153, 153); font-size: 9px; fill: rgb(153, 153, 153);" aria-label="Chart credits: Highcharts.com" aria-hidden="false">Highcharts.com</text></svg>