<svg xmlns="http://www.w3.org/2000/svg" xmlns:xlink="http://www.w3.org/1999/xlink" width="898.788" height="439.702" viewBox="0 0 898.788 439.702">
  <path fill="none" stroke="#DDDDDC" stroke-width=".971" stroke-miterlimit="10" d="M893.481 414.157H45.562"/>
  <defs>
    <path id="a" d="M46.464 53.701h378.573v360.695H46.464z"/>
  </defs>
  <clipPath id="b">
    <use xlink:href="#a" overflow="visible"/>
  </clipPath>
  <path clip-path="url(#b)" fill="none" stroke="#DDDDDC" stroke-width=".289" stroke-linecap="round" stroke-miterlimit="10" d="m41.418 314.238.449 63.417.454-13.179.449-18.855.449 12.337.454 28.357.449-18.401.453-12.336.45 8.01.449-13.826.453 7.14.449 15.584.454 27.273.449.839.45-22.151.453 5.486.449-17.101.453-14.262.45-8.222.453 28.114.449-3.031.446 3.49.453 40.473.449-16.015.454 22.08.449 14.285.449-40.694.454-30.301.449-38.746.453-8.658.449 17.964.45-37.879.453 18.183.449-5.412.454 34.414.449-35.713.45-.65.453.216.449 62.988.453-41.774.45 2.812.453-3.46.449-11.473.45 4.761.453-2.165.449 17.967.453 17.314.45-11.471.449-9.333.453-29.626.45 16.207.453-37.202.449 22.293.45-12.336.453 27.92.449-5.627.454-2.165.445 8.007.45 23.16.453-16.474.449 62.361.453-32.684.45 14.72.453-18.833.449 12.339.45-5.194.453 10.175.449-10.608.453 3.898.45-33.119.449-11.473.453 59.741.45-67.965.453 72.078.449 35.065.45-38.746.453 11.041.449-23.162.454 4.98.449-38.528.453 33.548.449-8.008.45 45.24.453 7.788.449-28.567.453 3.463.45 17.532.449-4.977.454 1.079.449-15.799.453-17.532.45 25.323.449-5.408.449 10.361.45-26.815.453-7.575.449 12.556.45-13.203.453 11.685.449-20.346.453-33.332.45-9.309.453 25.11.449-28.356.45 14.936.453 11.473.449-2.168.453-17.773.45-35.904.449 23.808.454 28.57.449 8.635.453-7.117.449 17.939.45-18.374.453 14.261.449 6.09.454-17.967.449.431.449 5.819.454-12.337.449 11.689.453-15.012.45-3.577.453 19.264.449-17.1.449 15.584.454-7.577.449 6.685.453 2.625.446 22.727.449-8.227.454-3.463.449-32.036.453 95.213.449-29.869.45-16.426.453-23.809.449-1.95.454-15.148.449-5.196.453 6.928.45 40.693.449-61.906.453 28.978.45-28.571.453 18.182.449-12.311h.449l.454 1.514.449 18.399.453-2.384.45 7.362.449 4.762.453-8.009.45 36.121.453-36.798.449-21.834.449 11.255.454 8.223.449 24.002.453-13.61.45-.459.453 4.572.449 2.164.446-14.936.453-4.545.449 19.241.454.675.449-35.308.449 63.851.454-16.881.449-10.173.453-9.5.45-31.602.449-16.017.453 3.897.45-.244.453 12.149.449 27.922.449 20.102.454 13.665.449 35.037.453-6.929.45-14.932.453-30.279.449 12.555.45 30.088.453 10.363.449-15.342.453 1.732.45 10.173.449-43.507.453 25.326.45-6.713.453 12.989.449-21.427.45-.459.453 11.062.449-24.673.454 8.847.445-18.804.449 8.224.454 1.299.449 10.579.453-9.497.45-4.862.453 11.358.449 10.604.45-36.171.453-15.562.449 24.677.453-3.247.45 24.865.449-19.019.453 2.377.45 20.35.453 25.081.449-53.87.45 8.874.453-50.648.449 41.338.453-13.852.45 13.852.453 10.176.449-26.839.45 22.945.453-.219.45 40.908.453-9.306.449-61.473.449 40.477.454 14.721.449-23.81.453 16.666.449-13.422.45 10.798.449-42.181.45 31.383.453 8.226.449-5.411.45 10.388.453-21.859.449-30.735.453-11.905.45 19.694.453 15.562.449-5.606.45-3.891.453-2.167.449-11.039.454-28.571.449 33.332.449-8.874.454 31.602.449-8.683.453 19.913.449-12.964.45 9.528.453 15.772.45-38.284.453 11.473.449 4.758.45 28.79.453-13.635.449 29.434.453 4.98.45-18.396.453-1.618.449 3.13.45-8.225.453.766.449-14.403.45 9.09.449-11.47.449 25.324.453 36.915.45-17.432.453-38.846.449-.766.45-.216.453-21.429.45 13.422.453-28.139.449 25.54.449-5.032.454 3.517.449-39.855.453-5.483.45-14.212.453 11.255.449 2.408.45 7.358.453 6.278.449 20.993.453 7.145.45 2.063.449-10.822.453 13.52.45 19.481.453 29.771.449 30.3.45-49.781.453 6.81.449-15.468.453-11.157.45 5.521.453-37.986.449 35.931.45 9.522.449-1.299.449 14.619.454-37.005.449-.773.45-9.842.453 13.739.449-20.229.453 22.178.45 14.029.449 14.804.453-19.079.45 8.425.453 26.257.449.412.45-30.232.453 10.823.449 32.468.453-29.984.45 19.549.453-11.347.449-20.976.45 18.776.453-13.796.449 30.951.454-29.97.449-30.305.449-23.708.454-2.263.449-6.496.453-4.327.449-6.496.45 4.215.453 13.421.449 3.028.454 5.024.449 12.965.446-29.405.453 44.453.449-14.903.453-4.165.45-15.152.453 12.987.449 15.685.45 12.014.453-7.321.449 12.872.454-19.945.449 4.968.449-33.897.453 26.446.45-4.628.453 18.008.449-30.695.45 9.41.453 4.115.449-14.679.454 5.349.449-12.025.449-7.322.454-10.56.449 1.47.453-38.528.449 36.795.454-28.136.449 28.136.449-6.491.454-4.328.449 29.103.453-13.953.45 10.824.449 7.024.453 2.438.446-30.701.453 25.964.449-73.99.45 30.303.453-17.316.449 38.958.454 15.153.449-17 .453-4.643.449-1.632.45 27.057.453 10.443.449-14.225.454-41.124.449 71.426.449-10.822.454 27.696.449-29.447.453-.41.45 13.899.449-7.89.453-.294.449-21.188.454 10.398.449 7.236.449-60.604.454-19.481.449 19.249.453 2.394.45 23.809.453-10.822.449 27.239.449-4.391.454-20.582.449-8.756.453 37.452.446-45.75.449 45.564.454-17.789.449 28.142.453-25.975.449 41.085.45-49.743.453 49.498.449-14.865.454-2.933.449-9.737.449 14.835.454 21.645.449 23.807.453-58.44.45 49.664.453-38.841.449 12.987.449-12.987.454-2.167.449 24.947.453-27.227.45 8.773.449 3.118.453 4.604.45-7.722.453-30.301.449-19.48.45 21.644.453 8.657h.449l.453 4.353.45 14.138.453-.91.449-1.741.45-9.352.449 12.547.45-3.881.453-41.129.449-21.643.449 58.306.454-13.544.449-9.541.453-15.742.45-17.314.449 16.109.453-11.398.45 18.692.453 3.06.449-32.96.449-19.477.454 30.303.449-17.316.453 12.987.45 2.165.453 2.164.449 17.317.45-25.976.453 12.988.449 2.165.454 37.753.449-22.602.449 33.54.453-37.868.45-4.332.453 8.66.45 19.986.449-.609.453-21.541.449-6.496h.454l.449 10.822.445 15.619.454-30.767.449-4.33.453-2.167.45-75.756.453 47.62.449 19.48.45 15.153.453-10.823.449 22.533.453 5.953.45-34.663.449-.9.453 13.57h.45l.453-19.482.45 32.47.449-36.798.453 29.107.449-31.271.454 2.047.449 19.483.449-10.711.453 31.603.45 3.26.453-2.392.45-24.818.453 5.335.449-10.821.45 49.208.453-16.742.449 12.988.453 29.956.45-2.296.449 15.977.449-13.304.45 6.65.453-29.431.45-34.533.449-1.155.453 6.49.449 19.483.454-7.959.449 7.625.453-1.831.449 16.467.45 2.247.453-12.507.45 28.741.453-27.53.449-7.418.45 49.021.453-53.275.449-23.884.453 13.927.45-18.586.449 25.537.453 2.551.45-5.637.453-28.733.449.118.45 21.643.453-32.577.449-58.33.453 69.264.45-4.332.453 35.016.449-29.935.45-14.286.453 5.373.449 25.227.454-21.395.449 4.65.445 36.479.454 6.593.449-53.464.453 33.551.45-1.834.449 2.35.453 5.816.45-19.319.453-16.983.449 44.255.45 10.982.453-37.921h.449l.453 15.819.45-11.632.453-30.161.449 21.53.45 10.003.453-43.771.449 20.322.454-9.689.449-17.138.449-9.079.453-1.514.45 16.349.453-2.165.449-64.936.45 56.278.453-18.972.449 5.004.454-14.171.449 2.266.449 5.195.453 46.158.45 4.697.449 2.291.45-20.465.453 22.626.449-39.1.45 67.243.453-12.662.449 8.297.454-7.224.449 2.53.449 6.14.453-10.069.45 4.33.453-1.632.449-26.439.45 46.36.453-57.251.449-2.165.454-.161.449 32.982.453-.468.449-.215.45-6.497.453 4.98.449 27.895.454-9.5.449 12.556.449-33.116.454-5.63.449-27.27.453 13.179.45-8.735.449 6.494.453-12.988.449 3.63.454 3.181.449 8.227.45-55.631.449 38.095.449-27.805.454-6.636.449-27.997.453 69.151.449-10.708.45 17.316.453-20.894.449 14.715.454-11.137.449 5.728.449 5.024.454 26.793.449-61.038.453 37.88.449-1.4.45 4.214.453-10.708.449 16.956.454-7.765.449-28.57.45 3.028.453-15.365.449 38.527.453-34.95.45 27.806.453-25.641.449 17.316.449 4.329.454 45.122.449-4.863.453-4.837.45-13.027.449-3.895.45-20.664.449-25.701.453 53.84.449-47.519.45 25.758.453-26.193.449 1.086.454 18.729.449-4.33.45 2.165.453-5.745.449-18.062.453-7.693.45 9.956.453 11.471.449 23.594.449-34.849.454 27.822.449 16.767.453 4.761.45-25.857.449 6.92.453-26.3.45 20.913.453-17.666.449-5.195.45-11.906.453-37.229.449 49.785.453 9.855.45-20.246.453 26.739.449 10.058.45-11.254.453 4.976.449 9.208.453-9.639.446 1.514.449 30.738.454 48.267.449-18.182.453-80.837.45 45.455.449 2.697.453 2.149.45-28.774.453 18.084.449-17.966.45-13.104.453-1.513.449 34.414.453-28.138.45 26.625.453 5.526.449-18.465.45-9.674.453-13.318.449-12.555.453 16.015.45-8.007.449 8.873.454-16.665.449 14.072.453-11.041.449-20.563.45-15.251.453 4.212.449 30.303.453 12.977.45-2.908.449 8.762.454 8.874.449-19.697.453-19.262.446 64.067.453-3.897.449 5.313.45-23.926.453-3.68.449 22.118.453-20.386.45-18.614.449-6.496.453 30.738.45-9.957.453 14.502.449 3.897.45 24.791.453-12.239.449-11.571.453-27.391.45-11.571.453 12.438.45 2.435.449 1.864.453-12.487.449-17.786.454.216.449 60.94.449-30.304.454 17.502.449-17.502.453 15.25.45-18.187.449 1.957.453 2.418.45-9.346.453-17.533.449 17.748.449-31.382.45 38.744.449-14.82.453 45.455.45-51.946.453-6.829.45-12.654.449 25.46.453 10.025.449-31.271.454-10.706.449 11.356.449 30.629.454-20.341.449-6.492.453-12.987.45-6.496.449 29.757.453-12.692.45-7.158.453 12.195.449-15.852.449-11.563.454-31.484.449 5.946.453-12.796.45-13.612.453-37.978.449 8.658.45 49.782.453 34.632.449 7.42.453 3.378.45-31.044.449 27.576.453-6.146.45.432.449 13.637.45-26.075.449-34.633h.453l.449 43.293.454 8.658.449 27.347.453-15.417.45-9.765-2.307 20.655-3.634-22.055.532 7.26.799-7.068-.264 44.863-3.08 8.789-1.32-4.684-.147 2.316 9.421-33.12-.45 13.637-.453 6.204-.449-7.936-.454-16.882-.449-29.44-.453 7.428-.449 21.58-.45 25.756-.449 14.501-.45-9.74-.453-28.353-.449-13.205-.45 10.317-.453 8.656-.449-1.009-.453-49.782-.45-33.739-.449 1.785-.453 32.602-.45-11.613-.453 31.963-.449-1.082-.454 22.219-.449 8.656-.449 15.151-.453-17.316-.45 8.658-.453 4.537-.449-12.255-.45 4.113-.453-2.255-.449 9.615-.454 32.683-.449-28.354-.449 7.357-.454-16.447-.449 42.132-.453-21.646-.449-5.553-.45-12.771-.453 17.967-.45 55.627-.453-44.804-.449.431-.45-27.704-.449 31.169-.449-6.496-.453 1.085-.45 10.531-.453-1.875-.449-.29-.45 14.346-.453 3.263-.449-9.281-.454-1.064-.449 42.81-.449-60.389-.454-1.3h-.449l-.453 5.121-.449 15.152-.45-17.316-.453-6.633-.45-.219-.453 46.321-.449 14.437-.453-1.883-.45-21.646-.449 10.607-.453-22.726-.45 2.595-.453-9.741-.449-4.329-.45 6.204-.453 19.339-.449-21.214-.453 15.371-.45 20.778-.449 1.949-.453-4.116-.446-55.843-.453 20.563-.449 10.607-.454-19.698-.449 3.606-.45-6.494-.453-8.584-.449-20.995-.453 1.517-.45 22.164-.449 4.239-.453 16.963-.449-14.796-.454 7.36-.449-11.038-.45-3.324-.453 10.034-.449-2.168-.453 22.728-.45-15.152-.449 23.163-.453-6.136-.45-9.884-.453 17.965-.449-28.352-.453-4.332-.45 30.091-.449 11.828-.453-21.356-.45 18.617-.453 5.409-.449 2.815-.45-50.216-.453 70.129-.449 17.893-.454-40.837-.449-10.823-.446-16.447-.453 2.594-.449 3.247-.453.391-.45 3.941-.449-6.062-.453-30.085-.45 15.152-.453-3.457-.449-50.831-.453 31.48-.45 17.827-.449-6.277-.453 14.286-.45-6.925-.453 20.054-.449-16.373-.45 27.195-.453.028-.449-13.981-.454-8.627-.449 31.854-.449-24.348-.453-35.716-.45 2.813-.453 8.658-.449 7.792-.453-1.948-.45-1.083-.449 7.363-.454-18.26-.449 10.263-.453 35.698-.45-26.231-.449 33.809-.453-53.896-.449 30.303-.45 6.852-.449 12.987-.45 43.288-.453-31.501-.449 1.49-.454-34.485-.449-10.077-.449-17.3-.453 24.808-.45-23.118-.453 29.579-.449-34.559-.453 16.453-.45.311-.449 16.797-.454 11.817-.449-15.291-.453 8.161-.45 1.175-.449-.828-.453-30.301-.449 58.897-.454-32.127-.449 9.601-.449-3.97-.454-6.278-.449-8.227-.453 4.332-.45 9.522-.449-4.359-.453-43.999-.449 4.228-.454 11.236-.449 44.195-.449-50.995-.45 40.995-.449-.019-.454 1.891-.449-11.181-.453 9.741-.449.215-.45-3.104-.453-10.823-.449 46.636-.454-18.497-.449 42.283-.449-.652-.454-9.164-.449-23.735-.453-8.732-.45 19.771-.449-1.949-.453-1.921-.449-43.316-.454 20.995-.449-6.676-.453 54.22-.45-37.994-.449 20.97-.453-2.597-.45-11.254-.453 16.663-.449-12.988-.449 3.249-.454 10.849-.449-6.377-.453 5.701-.45-67.972-.449 41.782-.453-20.891-.45 31.498-.449-16.092-.45 6.491-.453-51.947-.449-6.493-.449 12.173-.454 1.211-.449-2.561-.453 14.294-.45-49.908-.449 53.679-.453-2.597-.45-2.191-.453-11.113-.449 20.017-.449 25.436-.454 15.155-.449-30.011-.453 27.054-.45 4.328-.449-12.22-.453 8.135-.45 15.99-.453-4.545-.449 18.615-.453 7.284-.45 1.806-.449-22.293-.453-3.032-.45 14.314-.453-10.275-.449 15.659-.45-11.919-.453-29.856-.449 44.806-.454-3.466-.445-41.556-.449-2.598-.454 18.108-.449-22.653-.453 5.627-.45 4.113-.449 25.9-.453-19.787-.45-8.277-.453-51.639-.449 37.813-.453 36.145-.45-20.588-.449.649-.453 26.193-.45 10.314-.453-5.988-.449-19.913-.45 12.913-.453-1.658-.449 3.823-.453 52.499-.45-48.287-.449 19.599-.453 25.614-.45-31.386-.453 18.755-.45-6.493-.449-17.026-.453-10.388-.449.459-.454 9.929-.449-23.375-.453-3.029-.449-2.582-.45 39.595-.453 35.929-.45-7.792-.449 6.423-.449-17.32-.45 3.971-.453-31.601-.449-9.309-.453 7.795-.45-26.191-.449-8.415-.453-12.366-.45 50.65-.453-8.659-.45-6.708-.453-11.255-.449-3.247-.449-10.607-.454.219-.449 3.083-.453-19.751-.449 40.044-.45-21.646-.453 3.487-.45 7.336-.453-15.152-.449-3.031-.45 33.332-.453-9.599-.449-1.871-.453-9.957-.45-.217-.449-18.061-.453-43.411-.45 63.446-.453 11.23-.449 3.462-.454 30.52-.445-19.697-.449 1.949-.454-7.576-.449 4.545-.453 20.803-.449 7.577-.45-12.148-.453-11.902-.45-2.813-.453 48.727-.449-48.079-.449 27.081-.454-25.565-.449-9.526-.453 1.516-.45.648-.449-10.389-.453 2.165-.45-3.031-.453-8.008-.449 6.276-.454-33.548-.449 14.286-.449 34.44-.453-8.898-.45-8.85-.453 10.823-.449-16.042-.45 30.732-.453-.407-.449 7.336-.454 15.799-.449-53.004-.449 33.526-.453 22.968-.45 2.788-.449-12.846-.45 28.143-.449-17.246-.453.867-.45-1.49-.453-8.683-.449-7.144-.453.651-.45-3.247-.449-5.387-.453 21.837-.45 18.617-.453-19.483-.449 10.822-.45-12.556-.453 24.603-.449-5.77-.454-12.552-.449 8.008-.449-3.028-.453 23.158-.45-31.17-.453 61.688-.449-33.116-.454-21.427-.449-11.905-.449-1.733-.454 16.882-.449-2.784-.453-25.136-.45 29.868-.449-20.562-.453 12.798-.449-27.735-.454 6.281-.449-31.579-.446 33.02-.453-22.873-.449-2.594-.454 21.135-.449-4.329-.449-3.17-.453 3.678-.45-20.129-.453-17.507-.449-19.049-.454 28.549-.449 56.059-.449-3.247-.454-8.199-.449 14.721-.453-1.761-.449 8.443-.45-19.455-.453 11.04-.449 31.817-.454-36.606-.449 11.039-.449-67.101-.454 41.774-.449 14.72-.453-14.72-.45-10.604-.449 6.928-.453-7.794-.449 12.771-.454-11.445-.449-19.29-.453 2.38-.45-28.571-.449 59.307-.453-16.019-.446 25.542-.453-6.06-.449.218-.45-4.98-.453-1.948-.449-15.584-.454-.432-.449 16.232-.449-32.034-.454 17.963-.449-47.833-.453 45.238-.449 2.38-.454 9.309-.449 8.581-.449 23.811-.454-18.514-.449 22.943-.453-6.086-.45-14.289-.449 46.566-.453-36.824-.45 14.935-.453-31.167-.449 34.198-.449-12.553-.454 44.082-.449-41.486-.453 14.934-.45-10.822-.449-5.194-.453-19.264-.45 13.637-.453-3.752-.449 9.407-.453-33.217-.446 32.466-.449 4.332-.454-16.596-.449-14.285-.453-10.172-.45 8.655-.449-4.758-.453 5.652-.449-1.977-.454 32.688-.449 2.811-.449 20.132-.454 34.124-.449-36.797-.453 10.823-.45-7.718-.449 14.717-.453 25.135-.45-37.04-.453 54.114-.449-25.108-.453-20.779-.45 16.45-.449 2.164-.453-18.396-.45-23.378-.453 30.662-.449-34.124-.45-5.196h-.453l-.449.864-.453-2.81-.45 4.488-.449-3.384-.454 34.606-.449-5.409-.449.65-.45-4.837-.449-24.818-.453 9.666-.45 5.485-.453 9.306-.449.361-.453 6.786-.45 41.583-.449-10.631-.453-50.725-.45-8.369-.453-11.254-.449-1.082-.45 1.224-.453-15.153-.449-14.434-.453.874-.45-8.674-.449-7.751-.453-14.502-.45 19.265-.453 5.743-.449 32.467-.454-9.666-.449 13.996-.449-13.578-.453 15.742-.45-8.349-.453 19.172-.45-6.303-.449 10.733-.453 33.438-.45 18.699-.453-38.961-.449-15.442-.449 8.085-.45-8.875-.449 9.522-.453 4.255-.45 17.317-.449-11.615-.453 9.018-.45 5.701-.453 14.092-.449-48.713-.453 23.845-.45-37.215-.449 10.552-.453-7.696-.45 20.385-.453-12.008-.45-3.143-.449 4.329-.453-26.442-.449 24.335-.454-45.849-.449 22.006-.449-23.067-.454 14.383-.449 9.356-.453-.926-.45 11.052-.449 12.987-.453-16.449-.45-19.665-.453-1.872-.449 29.328-.453 36.026-.45 2.739-.449-8.461-.453-21.646-.45-17.368-.449 49.837-.45-19.482-.449 6.494-.453-8.659-.449 13.062-.454-4.691-.449-44.468-.449 57.792-.453 17.267-.45-34.454-.453-6.672-.45-32.468-.449 30.304-.453-10.328-.45 4.258-.453 10.398-.449-36.386-.453 29.893-.45 2.143-.449 34.704-.453-16.265-.45 8.409-.453-29.171-.449 21.826-.45-28.139-.453 12.986-.449-29.064-.453 9.584-.45 25.974-.449 6.12-.453-16.04-.45 4.99-.453 17.915-.449-21.336-.454 4.842-.449-9.478-.445 23.81-.454-22.979-.449 14.321-.453-6.494-.45 10.823-.449 20.721-.453-15.73-.45 18.556-.453-30.131-.449 45.925-.45-22.598-.453 20.054-.449-4.332-.453-17.313-.45-18.684-.449-.537-.453 27.879-.45 15.152-.453-19.484-.449-15.772-.454-16.694-.449-15.151-.449-34.633h-.453l-.45-2.312-.453 2.187-.449 15.277-.45 13.247-.453 12.728-.449 4.329-.454 17.316-.449-73.594-.449 47.62-.454-4.326-.449-15.155-.453 15.155-.446-2.168-.449 4.329-.453-6.493-.45-1.225-.453 14.212-.449-14.838-.454-6.097-.449-13.17-.449 10.295-.453 47.62-.45-34.779-.453 8.623-.449-4.446-.45-7.368-.453 5.505-.449-23.811h-.454l-.449 5.955-.449.536-.453-9.139-.45 11.304-.453-21.227-.449 62.353-.45-35.015-.453-3.729-.449 10.605-.454 8.658-.449 2.165-.453 17.729-.45 5.206-.449 41.998-.453-102.658-.449 36.989-.454 12.681-.449-1.123h-.446l-.453-6.493-.449-8.658-.454-16.527-.449 7.869-.449 6.605-.453-17.549-.45-15.17-.453 27.589-.449-14.463-.454 17.32-.449-4.332-.449-4.33-.454 12.988-.449 2.164-.453-17.316-.45 25.974-.449-29.47-.453 7.825-.449-5.868-.454-21.82-.449-21.536-.45 21.088-.453 21.645-.449 10.82-.453-13.083-.45-11.574-.449 24.657-.453-25.742-.45 12.252-.453 30.192-.449 14.011-.453 7.115-.45-1.703-.449 11.563-.453-5.622-.45 12.048-.449 3.009-.449 1.319-.45-24.51-.453 5.975-.449 29.358-.454 4.945-.449-15.402-.45 13.668-.453-23.697-.449 24.455-.453-18.809-.45-26.628-.449-1.823-.453-16.941-.449 19.396-.454-2.455-.449 19.482-.453 19.264-.45 17.653-.449-40.987-.453-50.277-.45 63.601-.453-60.034-.449 20.908-.45 6.061-.453 15.152-.449 4.33-.453-2.168-.45 14.687-.449-3.461-.453-14.823-.45-3.46-.453 28.776-.449-58.655-.453 14.066-.45-26.909-.445 2.162-.454-2.162-.449 12.988-.453-20.826-.45 1.341-.449-10.543-.453 9.828-.45-2.257-.453 7.993-.449 28.38-.45 29.555-.453-36.926-.449-21.031-.453 5.824h-.45l-.449 15.152-.453-2.164-.45-8.44-.453 27.912-.449-32.875-.453-15.895-.45-5.335-.449 32.468-.454-12.987-.449-8.659-.453 6.497-.45 6.491-.449 10.823-.453-4.326-.449 28.513-.454 21.82-.449 49.487-.449-26.232-.454-21.872-.449 30.533-.453-34.635-.446-21.643-.449 10.82-.453-10.815-.45-6.795-.453 2.46-.449 26.35-.453-15.403-.45 30.443-.449 8.393-.454-17.899-.449-31.884-.453-6.493-.449 15.152-.45-4.329-.453 4.329-.449 19.478-.454-32.466-.449 4.329-.449 8.4-.454 13.88-.449-61.561-.453 67.418"/>
  <path fill="#F9BCC0" d="m601.709 0-5.039.033-5.427.304-5.423.47-5.433.708-5.426.833-5.423 1.039-5.43 1.26-5.425 1.481-5.426 1.752-5.43 2.008-5.427 2.244-5.423 2.455-5.428 2.754-5.431 3.021-5.423 3.402-5.429 3.684-5.426 3.881-5.423 4.22-5.434 4.689-5.425 4.939-5.423 5.161-5.43 5.457-5.427 5.884-5.426 6.327-5.429 6.504-5.426 6.734-5.424 6.913-5.429 7.007-5.429 7.149-5.423 7.223-5.43 7.143-5.426 6.934-5.423 6.662-5.433 6.406-5.426 6.253v88.882h.918l4.508-2.582 5.433-3.184 5.423-3.211 5.426-3.261 5.43-3.266 5.423-3.238 5.429-3.146 5.429-3.032 5.424-2.945 5.426-2.814 5.429-2.682 5.426-2.564 5.427-2.347 5.43-2.138 5.423-1.979 5.425-1.86 5.434-1.736 5.423-1.514 5.426-1.36 5.429-1.264 5.423-1.125 5.431-.959 5.428-.84 5.423-.705 5.427-.609 5.43-.509 5.426-.399 5.425-.285 5.43-.188 5.423-.098 5.426-.016 5.433.034 5.423.135 5.427.191 5.425.304 5.426.387 5.431.485 5.426.538 5.426.578 5.425.621 5.426.646 5.431.671 5.427.706 5.425.705 5.426.706 5.427.694 5.43.688 5.425.684 5.426.68 5.427.703 5.426.719 5.429.704 5.426.73 5.427.727 5.427.708 5.426.686 5.429.641 5.427.604 5.426.606 5.426.587 5.425.544 5.431.522 5.426.506 5.426.474 5.426.488 5.427.433 5.43.389 5.426.409 5.425.417 5.426.42 5.427.404 5.43.396 5.425.405 5.427.391 5.427.378 5.426.368 5.429.368 5.427.354 5.426.358 5.426.352 5.426.342 5.429.338 5.427.315 5.426.296 5.426.273 5.426.258 5.431.241 5.426.225 5.425.21 3.64.138V44.207l-3.64-.195-5.425-.319-5.426-.347-5.431-.383-5.426-.417-5.426-.455-5.426-.505-5.427-.55-5.429-.608-5.426-.605-5.426-.631-5.426-.637-5.427-.617-5.429-.66-5.426-.644-5.427-.667-5.427-.691-5.425-.717-5.43-.689-5.427-.71-5.426-.735-5.425-.706-5.426-.691-5.43-.634-5.427-.743-5.426-.843-5.426-.819-5.426-.871-5.431-.907-5.425-.95-5.426-1.048-5.426-1.067-5.427-1.061-5.429-1.134-5.426-1.231-5.427-1.263-5.427-1.298-5.426-1.297-5.429-1.215-5.426-1.233-5.427-1.181-5.426-1.114-5.425-1.096-5.43-1.097-5.427-1.091-5.426-1.1-5.425-1.092-5.427-1.07-5.431-.97-5.426-.891-5.425-.812-5.426-.7-5.426-.577-5.431-.43L602.166 0z"/>
  <path fill="#F37681" d="m591.242 49.156-5.422.177-5.433.381-5.426.483-5.423.657-5.43.845-5.425 1.035L553.26 54l-5.434 1.488-5.426 1.687-5.423 1.87-5.428 2.131-5.432 2.363-5.422 2.691-5.429 2.939-5.426 3.116-5.423 3.411-5.434 3.823-5.425 4.046-5.423 4.248-5.431 4.514-5.426 4.903-5.423 5.291-5.432 5.466-5.427 5.682-5.423 5.86-5.428 5.971-5.431 6.119-5.422 6.217-5.431 6.181-5.424 6.05-5.424 5.854-5.433 5.686-5.427 5.541v39.971l5.427-4.138 5.433-4.249 5.424-4.316 5.424-4.399 5.431-4.451 5.422-4.43 5.431-4.326 5.428-4.191 5.423-4.078 5.427-3.926 5.432-3.747 5.423-3.604 5.426-3.306 5.431-3.026 5.423-2.822 5.425-2.665 5.434-2.492 5.423-2.197 5.426-1.979 5.429-1.851 5.422-1.667 5.432-1.435 5.428-1.261 5.423-1.084 5.426-.956 5.434-.811 5.423-.653 5.425-.497 5.43-.359 5.423-.235 5.426-.114 5.433-.041 5.422.095 5.428.188 5.425.339 5.426.471 5.43.609 5.427.683 5.426.746 5.425.812 5.426.848 5.431.894 5.427.94 5.425.947 5.426.949 5.426.935 5.431.929 5.425.932 5.426.933 5.427.961 5.426.991 5.429.974 5.426 1.014 5.426 1.008 5.428.988 5.426.959 5.429.897 5.426.853 5.427.849 5.426.837 5.426.766 5.43.745 5.426.716 5.426.685 5.426.694 5.427.628 5.43.566 5.426.59 5.425.599 5.426.617 5.428.594 5.429.58 5.425.593 5.427.573 5.427.557 5.426.545 5.429.549 5.426.521 5.427.532 5.427.524 5.425.512 5.429.505 5.427.473 5.427.443 5.426.416 5.425.39 5.431.367 5.426.349 5.426.331 3.638.207V95l-3.638-.238-5.426-.376-5.426-.4-5.431-.434-5.425-.462-5.426-.495-5.427-.536-5.427-.581-5.429-.627-5.425-.632-5.427-.647-5.427-.656-5.426-.641-5.429-.679-5.426-.667-5.427-.686-5.427-.708-5.425-.737-5.429-.709-5.428-.728-5.426-.756-5.425-.73-5.426-.72-5.43-.671-5.427-.767-5.426-.853-5.426-.839-5.426-.882-5.43-.916-5.426-.951-5.426-1.035-5.427-1.055-5.426-1.059-5.429-1.113-5.426-1.206-5.428-1.234-5.426-1.264-5.426-1.268-5.429-1.202-5.426-1.216-5.427-1.178-5.426-1.119-5.425-1.118-5.431-1.111-5.426-1.111-5.426-1.124-5.425-1.116-5.427-1.104-5.431-1.027-5.426-.956-5.425-.892-5.426-.797-5.427-.704-5.43-.578-5.426-.381-5.425-.19z"/>
  <path fill="none" stroke="#EB202F" stroke-width="6" stroke-miterlimit="10" d="M45.473 90.6h853.315"/>
  <g opacity=".8">
    <defs>
      <path id="c" d="M46.196 141.713h366.478v229.854H46.196z"/>
    </defs>
    <clipPath id="d">
      <use xlink:href="#c" overflow="visible"/>
    </clipPath>
    <path clip-path="url(#d)" fill="#0969B1" d="M46.196 353.807s61.939-7.016 96.252-15.028c35.106-8.196 86.667-56.089 100.895-67.304 10.835-8.546 33.205-26.507 57.346-38.671 15.58-7.85 82.467-55.234 111.985-91.092v90.146s-41.576 30.872-80.828 47.303c-21.738 9.103-51.489 18.568-99.082 44.526-47.597 25.955-68.193 36.133-103.096 41.145-34.9 5.01-83.292 6.734-83.292 6.734z"/>
  </g>
  <path fill="none" stroke="#0969B1" stroke-width="6" stroke-miterlimit="10" d="M46.831 364.52c43.785-1.367 95.822-11.055 123.105-23.805 27.291-12.752 84.401-53.053 100.267-60.795 15.861-7.743 59.018-30.738 78.684-41.668 19.674-10.93 57.599-42.668 63.311-47.221"/>
  <path fill="none" stroke="#EE3544" stroke-width="6" stroke-linecap="round" stroke-linejoin="round" stroke-dasharray="0,11.6" d="M427.951 178.689c30.596-23.846 82.807-67.304 103.215-84.52"/>
  <path d="M4.249 85.639h-.036l-2.035 1.098-.306-1.206 2.557-1.369H5.78v11.704H4.249zm6.065 9.291c0-.666.45-1.134 1.08-1.134s1.063.468 1.063 1.134c0 .648-.414 1.135-1.081 1.135-.63-.001-1.062-.487-1.062-1.135m10.604-9.435h-4.465l-.45 3.007c.27-.036.522-.072.954-.072.9 0 1.801.198 2.521.63.918.522 1.674 1.531 1.674 3.007 0 2.287-1.818 3.998-4.357 3.998-1.279 0-2.359-.36-2.917-.72l.396-1.207c.486.288 1.44.648 2.503.648 1.494 0 2.772-.973 2.772-2.539-.018-1.512-1.026-2.593-3.367-2.593-.667 0-1.188.072-1.621.126l.756-5.618h5.6v1.333zm3.22-.936c0-.954.702-1.71 1.836-1.71 1.081 0 1.783.738 1.783 1.693 0 .954-.774 1.656-1.801 1.656-1.08-.001-1.818-.721-1.818-1.639m2.737-.036c0-.541-.36-.99-.937-.99-.558 0-.882.468-.882 1.026 0 .468.36.973.882.973.577-.001.937-.469.937-1.009m9.848 10.947c-.576.288-1.729.576-3.205.576-3.421 0-5.996-2.161-5.996-6.14 0-3.799 2.575-6.374 6.338-6.374 1.512 0 2.466.324 2.881.54l-.378 1.278c-.594-.288-1.44-.504-2.449-.504-2.845 0-4.735 1.819-4.735 5.006 0 2.971 1.71 4.879 4.664 4.879.954 0 1.926-.198 2.557-.504z" fill="#EB202F"/>
  <path d="M88.093 424.975h-.036l-2.035 1.099-.306-1.206 2.557-1.368h1.351v11.703h-1.531zm6.749 9.111c.342.036.738 0 1.278-.054.918-.126 1.783-.505 2.449-1.135.774-.702 1.333-1.729 1.548-3.115h-.054c-.648.793-1.584 1.261-2.755 1.261-2.106 0-3.457-1.585-3.457-3.583 0-2.215 1.603-4.159 3.997-4.159s3.871 1.944 3.871 4.934c0 2.574-.864 4.375-2.017 5.491-.9.883-2.143 1.423-3.403 1.566-.576.09-1.081.108-1.458.09zm.576-6.734c0 1.459.882 2.485 2.25 2.485 1.063 0 1.891-.522 2.305-1.225.09-.145.144-.324.144-.576 0-1.999-.738-3.529-2.395-3.529-1.35 0-2.304 1.188-2.304 2.845m14.545-2.737c-.324-.019-.738 0-1.188.072-2.485.414-3.799 2.232-4.069 4.159h.054c.558-.738 1.53-1.351 2.827-1.351 2.07 0 3.529 1.494 3.529 3.781 0 2.143-1.458 4.123-3.889 4.123-2.503 0-4.141-1.944-4.141-4.987 0-2.305.828-4.124 1.98-5.276.972-.954 2.269-1.548 3.745-1.729.468-.071.864-.09 1.152-.09zm-.45 6.752c0-1.675-.954-2.683-2.413-2.683-.954 0-1.836.594-2.269 1.44-.108.18-.18.414-.18.702.036 1.927.918 3.349 2.575 3.349 1.369.001 2.287-1.134 2.287-2.808m10.764-2.142c0 3.979-1.476 6.176-4.069 6.176-2.287 0-3.835-2.143-3.872-6.014 0-3.926 1.693-6.086 4.069-6.086 2.468 0 3.872 2.196 3.872 5.924m-6.355.179c0 3.043.936 4.771 2.376 4.771 1.621 0 2.395-1.891 2.395-4.879 0-2.881-.738-4.771-2.376-4.771-1.387 0-2.395 1.693-2.395 4.879m81.631-4.429h-.036l-2.035 1.099-.306-1.206 2.557-1.368h1.351v11.703h-1.531zm6.749 9.111c.342.036.738 0 1.278-.054.918-.126 1.783-.505 2.449-1.135.774-.702 1.333-1.729 1.548-3.115h-.054c-.648.793-1.584 1.261-2.755 1.261-2.106 0-3.457-1.585-3.457-3.583 0-2.215 1.603-4.159 3.997-4.159s3.871 1.944 3.871 4.934c0 2.574-.864 4.375-2.017 5.491-.9.883-2.143 1.423-3.403 1.566-.576.09-1.081.108-1.458.09zm.576-6.734c0 1.459.882 2.485 2.25 2.485 1.063 0 1.891-.522 2.305-1.225.09-.145.144-.324.144-.576 0-1.999-.738-3.529-2.395-3.529-1.35 0-2.304 1.188-2.304 2.845m7.631 4.879c0-1.477.882-2.521 2.323-3.133l-.018-.055c-1.296-.612-1.854-1.62-1.854-2.628 0-1.855 1.566-3.115 3.619-3.115 2.269 0 3.403 1.422 3.403 2.881 0 .99-.486 2.053-1.926 2.736v.055c1.458.576 2.359 1.603 2.359 3.024 0 2.035-1.747 3.403-3.979 3.403-2.45.001-3.927-1.458-3.927-3.168m6.303-.072c0-1.423-.99-2.106-2.575-2.557-1.368.396-2.106 1.296-2.106 2.413-.054 1.188.846 2.232 2.341 2.232 1.421.001 2.34-.882 2.34-2.088m-4.358-5.851c0 1.17.882 1.801 2.232 2.16 1.008-.342 1.783-1.062 1.783-2.124 0-.937-.558-1.909-1.98-1.909-1.315 0-2.035.864-2.035 1.873m15.247 2.917c0 3.979-1.476 6.176-4.069 6.176-2.287 0-3.835-2.143-3.872-6.014 0-3.926 1.693-6.086 4.069-6.086 2.468 0 3.872 2.196 3.872 5.924m-6.355.179c0 3.043.936 4.771 2.376 4.771 1.621 0 2.395-1.891 2.395-4.879 0-2.881-.738-4.771-2.376-4.771-1.387 0-2.395 1.693-2.395 4.879m78.102 5.798v-.973l1.243-1.206c2.989-2.845 4.339-4.357 4.357-6.122 0-1.188-.576-2.286-2.323-2.286-1.063 0-1.945.54-2.485.99l-.504-1.116a5.13 5.13 0 0 1 3.313-1.188c2.521 0 3.583 1.729 3.583 3.402 0 2.161-1.566 3.907-4.033 6.284l-.936.864v.036h5.257v1.314h-7.472zm16.832-5.977c0 3.979-1.476 6.176-4.069 6.176-2.287 0-3.835-2.143-3.871-6.014 0-3.926 1.692-6.086 4.069-6.086 2.466 0 3.871 2.196 3.871 5.924m-6.356.179c0 3.043.937 4.771 2.377 4.771 1.621 0 2.395-1.891 2.395-4.879 0-2.881-.738-4.771-2.376-4.771-1.387 0-2.396 1.693-2.396 4.879m15.734-.179c0 3.979-1.476 6.176-4.069 6.176-2.287 0-3.835-2.143-3.871-6.014 0-3.926 1.692-6.086 4.069-6.086 2.466 0 3.871 2.196 3.871 5.924m-6.356.179c0 3.043.937 4.771 2.377 4.771 1.621 0 2.395-1.891 2.395-4.879 0-2.881-.738-4.771-2.376-4.771-1.387 0-2.396 1.693-2.396 4.879m15.715-.179c0 3.979-1.476 6.176-4.069 6.176-2.287 0-3.835-2.143-3.871-6.014 0-3.926 1.692-6.086 4.069-6.086 2.467 0 3.871 2.196 3.871 5.924m-6.356.179c0 3.043.937 4.771 2.377 4.771 1.621 0 2.395-1.891 2.395-4.879 0-2.881-.738-4.771-2.376-4.771-1.387 0-2.396 1.693-2.396 4.879m82.621 5.798v-.973l1.243-1.206c2.989-2.845 4.339-4.357 4.357-6.122 0-1.188-.576-2.286-2.323-2.286-1.063 0-1.945.54-2.485.99l-.504-1.116a5.13 5.13 0 0 1 3.313-1.188c2.521 0 3.583 1.729 3.583 3.402 0 2.161-1.566 3.907-4.033 6.284l-.936.864v.036h5.257v1.314h-7.472zm16.832-5.977c0 3.979-1.476 6.176-4.069 6.176-2.287 0-3.835-2.143-3.871-6.014 0-3.926 1.692-6.086 4.069-6.086 2.466 0 3.871 2.196 3.871 5.924m-6.356.179c0 3.043.937 4.771 2.377 4.771 1.621 0 2.395-1.891 2.395-4.879 0-2.881-.738-4.771-2.376-4.771-1.387 0-2.396 1.693-2.396 4.879m7.379 5.798v-.973l1.243-1.206c2.989-2.845 4.339-4.357 4.357-6.122 0-1.188-.576-2.286-2.323-2.286-1.063 0-1.945.54-2.485.99l-.504-1.116a5.13 5.13 0 0 1 3.313-1.188c2.521 0 3.583 1.729 3.583 3.402 0 2.161-1.566 3.907-4.033 6.284l-.936.864v.036h5.257v1.314h-7.472zm16.832-5.977c0 3.979-1.476 6.176-4.069 6.176-2.287 0-3.835-2.143-3.871-6.014 0-3.926 1.692-6.086 4.069-6.086 2.467 0 3.871 2.196 3.871 5.924m-6.356.179c0 3.043.937 4.771 2.377 4.771 1.621 0 2.395-1.891 2.395-4.879 0-2.881-.738-4.771-2.376-4.771-1.387 0-2.396 1.693-2.396 4.879m82.19 5.798v-.973l1.242-1.206c2.989-2.845 4.339-4.357 4.357-6.122 0-1.188-.576-2.286-2.323-2.286-1.063 0-1.944.54-2.484.99l-.504-1.116a5.13 5.13 0 0 1 3.313-1.188c2.521 0 3.583 1.729 3.583 3.402 0 2.161-1.566 3.907-4.033 6.284l-.937.864v.036h5.258v1.314h-7.472zm16.832-5.977c0 3.979-1.477 6.176-4.069 6.176-2.287 0-3.835-2.143-3.871-6.014 0-3.926 1.692-6.086 4.069-6.086 2.466 0 3.871 2.196 3.871 5.924m-6.357.179c0 3.043.937 4.771 2.377 4.771 1.62 0 2.395-1.891 2.395-4.879 0-2.881-.738-4.771-2.377-4.771-1.386 0-2.395 1.693-2.395 4.879m12.728 5.798v-3.187h-5.438v-1.045l5.221-7.472h1.711v7.273h1.639v1.243H546.5v3.187zm0-4.43v-3.907q0-.917.054-1.836h-.054a33 33 0 0 1-.973 1.729l-2.862 3.979v.036zm12.133-1.547c0 3.979-1.477 6.176-4.069 6.176-2.287 0-3.835-2.143-3.871-6.014 0-3.926 1.692-6.086 4.069-6.086 2.466 0 3.871 2.196 3.871 5.924m-6.357.179c0 3.043.937 4.771 2.377 4.771 1.62 0 2.395-1.891 2.395-4.879 0-2.881-.738-4.771-2.377-4.771-1.386 0-2.395 1.693-2.395 4.879m81.954 5.798v-.973l1.242-1.206c2.989-2.845 4.339-4.357 4.357-6.122 0-1.188-.576-2.286-2.323-2.286-1.063 0-1.944.54-2.484.99l-.504-1.116a5.13 5.13 0 0 1 3.313-1.188c2.521 0 3.583 1.729 3.583 3.402 0 2.161-1.566 3.907-4.033 6.284l-.937.864v.036h5.258v1.314h-7.472zm16.832-5.977c0 3.979-1.477 6.176-4.069 6.176-2.287 0-3.835-2.143-3.871-6.014 0-3.926 1.692-6.086 4.069-6.086 2.467 0 3.871 2.196 3.871 5.924m-6.356.179c0 3.043.937 4.771 2.377 4.771 1.62 0 2.395-1.891 2.395-4.879 0-2.881-.738-4.771-2.377-4.771-1.386 0-2.395 1.693-2.395 4.879m14.617-4.789c-.324-.019-.738 0-1.188.072-2.484.414-3.799 2.232-4.069 4.159h.055c.558-.738 1.53-1.351 2.826-1.351 2.071 0 3.529 1.494 3.529 3.781 0 2.143-1.458 4.123-3.889 4.123-2.503 0-4.142-1.944-4.142-4.987 0-2.305.828-4.124 1.98-5.276.973-.954 2.269-1.548 3.745-1.729.468-.071.864-.09 1.152-.09zm-.45 6.752c0-1.675-.954-2.683-2.413-2.683-.954 0-1.836.594-2.269 1.44-.107.18-.18.414-.18.702.036 1.927.918 3.349 2.575 3.349 1.369.001 2.287-1.134 2.287-2.808m10.765-2.142c0 3.979-1.477 6.176-4.069 6.176-2.287 0-3.835-2.143-3.871-6.014 0-3.926 1.692-6.086 4.069-6.086 2.466 0 3.871 2.196 3.871 5.924m-6.357.179c0 3.043.937 4.771 2.377 4.771 1.62 0 2.395-1.891 2.395-4.879 0-2.881-.738-4.771-2.377-4.771-1.386 0-2.395 1.693-2.395 4.879m82.333 5.798v-.973l1.242-1.206c2.988-2.845 4.339-4.357 4.357-6.122 0-1.188-.576-2.286-2.323-2.286-1.062 0-1.944.54-2.484.99l-.504-1.116a5.13 5.13 0 0 1 3.313-1.188c2.521 0 3.583 1.729 3.583 3.402 0 2.161-1.566 3.907-4.033 6.284l-.936.864v.036h5.257v1.314h-7.472zm16.832-5.977c0 3.979-1.477 6.176-4.069 6.176-2.287 0-3.835-2.143-3.871-6.014 0-3.926 1.692-6.086 4.069-6.086 2.467 0 3.871 2.196 3.871 5.924m-6.356.179c0 3.043.937 4.771 2.377 4.771 1.62 0 2.395-1.891 2.395-4.879 0-2.881-.738-4.771-2.377-4.771-1.387 0-2.395 1.693-2.395 4.879m7.703 2.827c0-1.477.883-2.521 2.323-3.133l-.019-.055c-1.296-.612-1.854-1.62-1.854-2.628 0-1.855 1.566-3.115 3.619-3.115 2.269 0 3.403 1.422 3.403 2.881 0 .99-.486 2.053-1.927 2.736v.055c1.458.576 2.358 1.603 2.358 3.024 0 2.035-1.746 3.403-3.979 3.403-2.448.001-3.924-1.458-3.924-3.168m6.302-.072c0-1.423-.99-2.106-2.574-2.557-1.369.396-2.106 1.296-2.106 2.413-.055 1.188.846 2.232 2.34 2.232 1.422.001 2.34-.882 2.34-2.088m-4.358-5.851c0 1.17.883 1.801 2.233 2.16 1.008-.342 1.782-1.062 1.782-2.124 0-.937-.559-1.909-1.98-1.909-1.314 0-2.035.864-2.035 1.873m15.248 2.917c0 3.979-1.477 6.176-4.069 6.176-2.287 0-3.835-2.143-3.871-6.014 0-3.926 1.692-6.086 4.069-6.086 2.467 0 3.871 2.196 3.871 5.924m-6.356.179c0 3.043.937 4.771 2.377 4.771 1.62 0 2.395-1.891 2.395-4.879 0-2.881-.738-4.771-2.377-4.771-1.386 0-2.395 1.693-2.395 4.879m82.244 5.798v-.973l1.242-1.206c2.989-2.845 4.339-4.357 4.357-6.122 0-1.188-.576-2.286-2.323-2.286-1.063 0-1.944.54-2.484.99l-.504-1.116a5.13 5.13 0 0 1 3.313-1.188c2.521 0 3.583 1.729 3.583 3.402 0 2.161-1.566 3.907-4.033 6.284l-.937.864v.036h5.258v1.314h-7.472zm12.654-10.227h-.036l-2.034 1.099-.306-1.206 2.557-1.368h1.35v11.703h-1.53v-10.228zm13.682 4.25c0 3.979-1.477 6.176-4.069 6.176-2.287 0-3.835-2.143-3.871-6.014 0-3.926 1.692-6.086 4.069-6.086 2.467 0 3.871 2.196 3.871 5.924m-6.357.179c0 3.043.937 4.771 2.377 4.771 1.62 0 2.395-1.891 2.395-4.879 0-2.881-.738-4.771-2.377-4.771-1.386 0-2.395 1.693-2.395 4.879m15.716-.179c0 3.979-1.477 6.176-4.069 6.176-2.287 0-3.835-2.143-3.871-6.014 0-3.926 1.692-6.086 4.069-6.086 2.467 0 3.871 2.196 3.871 5.924m-6.356.179c0 3.043.937 4.771 2.377 4.771 1.62 0 2.395-1.891 2.395-4.879 0-2.881-.738-4.771-2.377-4.771-1.386 0-2.395 1.693-2.395 4.879" fill="#454545"/>
  <path d="M76.249 214.969v5.078h5.87v-5.078h1.584v12.136h-1.584v-5.689h-5.87v5.689h-1.566v-12.136zm17.425 9.759c0 .9.018 1.692.072 2.377h-1.405l-.09-1.423h-.036a3.28 3.28 0 0 1-2.881 1.621c-1.368 0-3.007-.757-3.007-3.817v-5.096h1.584v4.825c0 1.657.504 2.773 1.945 2.773 1.062 0 1.8-.738 2.088-1.44.09-.234.144-.522.144-.811v-5.348h1.584v6.339zm2.554-3.979c0-.9-.018-1.639-.072-2.359h1.387l.072 1.404h.054c.486-.828 1.296-1.603 2.737-1.603 1.188 0 2.088.721 2.467 1.747h.036c.27-.486.612-.864.972-1.135.522-.396 1.098-.612 1.926-.612 1.152 0 2.863.757 2.863 3.781v5.132h-1.549v-4.934c0-1.675-.612-2.683-1.891-2.683-.9 0-1.603.666-1.873 1.44a2.6 2.6 0 0 0-.126.792v5.384h-1.548v-5.222c0-1.387-.612-2.395-1.818-2.395-.99 0-1.711.792-1.963 1.584-.09.234-.126.505-.126.774v5.258h-1.548zm19.783 6.355-.126-1.099h-.054c-.486.685-1.422 1.297-2.665 1.297-1.765 0-2.665-1.242-2.665-2.503 0-2.106 1.873-3.259 5.239-3.241v-.18c0-.721-.198-2.017-1.98-2.017-.81 0-1.656.252-2.269.648l-.36-1.045c.72-.468 1.765-.774 2.863-.774 2.665 0 3.313 1.819 3.313 3.565v3.259c0 .757.036 1.495.144 2.089h-1.44zm-.234-4.447c-1.729-.036-3.691.271-3.691 1.963 0 1.026.684 1.512 1.494 1.512 1.134 0 1.854-.72 2.107-1.458.054-.162.09-.342.09-.504zm4.013-1.908c0-.9-.018-1.639-.072-2.359h1.405l.09 1.44h.036c.432-.828 1.44-1.639 2.881-1.639 1.206 0 3.079.721 3.079 3.71v5.203h-1.584v-5.023c0-1.404-.522-2.575-2.017-2.575-1.044 0-1.854.738-2.125 1.621a2.3 2.3 0 0 0-.108.738v5.239h-1.584zm13.897.899v1.171h-4.447v-1.171zm3.797-5.707c.018.54-.378.972-1.008.972-.558 0-.955-.432-.955-.972 0-.559.414-.99.99-.99.595 0 .973.432.973.99m-1.764 11.163v-8.715h1.584v8.715zm4.14-6.355c0-.9-.018-1.639-.072-2.359h1.405l.09 1.44h.036c.432-.828 1.44-1.639 2.881-1.639 1.206 0 3.079.721 3.079 3.71v5.203h-1.584v-5.023c0-1.404-.522-2.575-2.017-2.575-1.044 0-1.854.738-2.125 1.621a2.3 2.3 0 0 0-.108.738v5.239h-1.584zm17.48-6.429v10.533c0 .774.018 1.657.072 2.251h-1.422l-.072-1.513h-.036c-.486.973-1.548 1.711-2.971 1.711-2.106 0-3.727-1.783-3.727-4.43-.018-2.898 1.783-4.682 3.907-4.682 1.333 0 2.233.631 2.629 1.333h.036v-5.204zm-1.585 7.617c0-.197-.018-.468-.072-.666-.234-1.008-1.098-1.836-2.287-1.836-1.639 0-2.611 1.44-2.611 3.366 0 1.765.864 3.224 2.575 3.224 1.063 0 2.035-.702 2.323-1.891a2.8 2.8 0 0 0 .072-.685zm11.431 2.791c0 .9.018 1.692.072 2.377h-1.404l-.09-1.423h-.036a3.28 3.28 0 0 1-2.881 1.621c-1.368 0-3.007-.757-3.007-3.817v-5.096h1.584v4.825c0 1.657.504 2.773 1.945 2.773 1.062 0 1.8-.738 2.088-1.44.09-.234.144-.522.144-.811v-5.348h1.584v6.339zm8.801 2.052c-.414.216-1.333.504-2.503.504-2.629 0-4.339-1.782-4.339-4.447 0-2.683 1.836-4.627 4.682-4.627.936 0 1.764.234 2.197.45l-.36 1.225c-.378-.217-.972-.414-1.836-.414-1.999 0-3.079 1.476-3.079 3.295 0 2.017 1.296 3.259 3.025 3.259.9 0 1.495-.234 1.945-.433zm2.447-3.745c.036 2.143 1.404 3.025 2.989 3.025 1.134 0 1.818-.198 2.413-.45l.27 1.134c-.558.252-1.512.54-2.899.54-2.683 0-4.285-1.765-4.285-4.393s1.549-4.7 4.087-4.7c2.845 0 3.601 2.503 3.601 4.105 0 .324-.036.576-.054.738h-6.122zm4.645-1.134c.018-1.009-.415-2.575-2.197-2.575-1.603 0-2.305 1.477-2.431 2.575zm11.017-7.581v10.533c0 .774.018 1.657.072 2.251h-1.422l-.072-1.513h-.036c-.486.973-1.548 1.711-2.971 1.711-2.106 0-3.727-1.783-3.727-4.43-.018-2.898 1.783-4.682 3.907-4.682 1.333 0 2.233.631 2.629 1.333h.036v-5.204zm-1.585 7.617c0-.197-.018-.468-.072-.666-.234-1.008-1.098-1.836-2.287-1.836-1.639 0-2.611 1.44-2.611 3.366 0 1.765.864 3.224 2.575 3.224 1.063 0 2.035-.702 2.323-1.891a2.8 2.8 0 0 0 .072-.685zm15.22-3.547 1.152 4.43c.252.972.486 1.872.648 2.772h.054c.198-.882.486-1.818.774-2.755l1.422-4.447h1.333l1.351 4.357c.324 1.044.576 1.963.774 2.845h.054c.144-.882.378-1.801.666-2.826l1.243-4.376h1.566l-2.809 8.715h-1.44l-1.332-4.159c-.306-.973-.558-1.837-.774-2.863h-.036c-.216 1.045-.486 1.945-.792 2.881l-1.405 4.142h-1.44l-2.628-8.715h1.619zm17.389 8.714-.126-1.099h-.054c-.486.685-1.423 1.297-2.665 1.297-1.765 0-2.665-1.242-2.665-2.503 0-2.106 1.873-3.259 5.239-3.241v-.18c0-.721-.198-2.017-1.98-2.017-.81 0-1.657.252-2.269.648l-.36-1.045c.72-.468 1.765-.774 2.863-.774 2.665 0 3.313 1.819 3.313 3.565v3.259c0 .757.036 1.495.144 2.089h-1.44zm-.234-4.447c-1.729-.036-3.691.271-3.691 1.963 0 1.026.684 1.512 1.494 1.512 1.134 0 1.854-.72 2.107-1.458.054-.162.09-.342.09-.504zm4.013-1.549c0-1.026-.018-1.908-.072-2.719h1.387l.054 1.711h.072c.396-1.171 1.35-1.909 2.413-1.909.18 0 .306.019.45.055v1.494a2.4 2.4 0 0 0-.54-.054c-1.116 0-1.909.846-2.125 2.034a4.5 4.5 0 0 0-.072.738v4.646H228.9v-5.996zm5.796-.359c0-.9-.018-1.639-.072-2.359h1.387l.072 1.404h.054c.486-.828 1.296-1.603 2.737-1.603 1.188 0 2.088.721 2.467 1.747h.036c.27-.486.612-.864.972-1.135.522-.396 1.098-.612 1.926-.612 1.152 0 2.863.757 2.863 3.781v5.132h-1.549v-4.934c0-1.675-.612-2.683-1.891-2.683-.9 0-1.603.666-1.873 1.44a2.6 2.6 0 0 0-.126.792v5.384h-1.548v-5.222c0-1.387-.612-2.395-1.818-2.395-.99 0-1.711.792-1.963 1.584-.09.234-.126.505-.126.774v5.258h-1.548zm16.686-4.808c.018.54-.378.972-1.008.972-.559 0-.955-.432-.955-.972 0-.559.414-.99.99-.99.595 0 .973.432.973.99m-1.764 11.163v-8.715h1.584v8.715zm4.122-6.355c0-.9-.018-1.639-.072-2.359h1.405l.09 1.44h.036c.432-.828 1.44-1.639 2.881-1.639 1.206 0 3.079.721 3.079 3.71v5.203h-1.584v-5.023c0-1.404-.522-2.575-2.017-2.575-1.044 0-1.854.738-2.125 1.621a2.3 2.3 0 0 0-.108.738v5.239h-1.584zm17.462-2.359a38 38 0 0 0-.072 2.395v5.06c0 1.999-.396 3.224-1.242 3.979-.846.792-2.071 1.044-3.169 1.044-1.044 0-2.197-.252-2.899-.72l.396-1.206c.576.359 1.477.684 2.557.684 1.62 0 2.809-.846 2.809-3.043v-.972h-.036c-.486.81-1.422 1.458-2.772 1.458-2.161 0-3.709-1.836-3.709-4.249 0-2.953 1.927-4.628 3.925-4.628 1.513 0 2.341.793 2.719 1.513h.036l.072-1.314h1.385zm-1.639 3.439c0-.271-.018-.504-.09-.721-.288-.918-1.063-1.674-2.215-1.674-1.512 0-2.593 1.278-2.593 3.295 0 1.71.864 3.133 2.575 3.133.973 0 1.854-.612 2.197-1.621.09-.27.126-.576.126-.846z" fill="#0969B1"/>
  <path d="M609.23 232.126c-.576.288-1.729.576-3.205.576-3.421 0-5.995-2.16-5.995-6.14 0-3.799 2.574-6.374 6.338-6.374 1.512 0 2.467.324 2.881.54l-.378 1.279c-.595-.289-1.44-.505-2.449-.505-2.845 0-4.735 1.818-4.735 5.006 0 2.971 1.711 4.879 4.663 4.879.954 0 1.927-.197 2.557-.504zm1.798-12.388h1.584v12.784h-1.584zm5.941 1.621c.018.54-.378.972-1.009.972-.558 0-.954-.432-.954-.972 0-.559.414-.99.99-.99.595 0 .973.432.973.99m-1.765 11.163v-8.715h1.584v8.715zm4.122-6.355c0-.9-.019-1.639-.072-2.359h1.387l.072 1.404h.054c.486-.828 1.296-1.603 2.736-1.603 1.188 0 2.089.721 2.467 1.747h.036c.271-.486.612-.864.973-1.135.522-.396 1.099-.612 1.927-.612 1.152 0 2.862.757 2.862 3.781v5.132h-1.548v-4.934c0-1.675-.612-2.683-1.891-2.683-.9 0-1.603.666-1.873 1.44a2.6 2.6 0 0 0-.126.792v5.384h-1.548v-5.222c0-1.387-.612-2.395-1.819-2.395-.99 0-1.71.792-1.962 1.584a2.2 2.2 0 0 0-.126.774v5.258h-1.549zm19.783 6.355-.126-1.099h-.054c-.486.685-1.423 1.297-2.665 1.297-1.765 0-2.665-1.242-2.665-2.503 0-2.106 1.873-3.259 5.24-3.241v-.18c0-.721-.198-2.017-1.981-2.017-.81 0-1.656.252-2.269.648l-.359-1.045c.72-.468 1.765-.774 2.862-.774 2.665 0 3.313 1.819 3.313 3.565v3.259c0 .757.036 1.495.144 2.089zm-.233-4.447c-1.729-.036-3.691.271-3.691 1.963 0 1.026.684 1.512 1.494 1.512 1.135 0 1.854-.72 2.106-1.458.055-.162.091-.342.091-.504zm5.92-6.77v2.503h2.269v1.207h-2.269v4.699c0 1.08.307 1.692 1.188 1.692.414 0 .721-.054.919-.108l.071 1.188c-.306.126-.792.216-1.404.216-.738 0-1.332-.233-1.71-.666-.45-.468-.612-1.242-.612-2.269v-4.753h-1.351v-1.207h1.351v-2.089zm4.697 7.148c.036 2.143 1.404 3.025 2.989 3.025 1.135 0 1.818-.198 2.413-.45l.27 1.134c-.558.252-1.513.54-2.898.54-2.683 0-4.285-1.765-4.285-4.393s1.548-4.7 4.087-4.7c2.845 0 3.601 2.503 3.601 4.105 0 .324-.035.576-.054.738h-6.123zm4.646-1.134c.019-1.009-.414-2.575-2.196-2.575-1.603 0-2.305 1.477-2.431 2.575zm14.598 2.827c0 .9.019 1.692.072 2.377h-1.404l-.09-1.423h-.036a3.28 3.28 0 0 1-2.881 1.621c-1.369 0-3.007-.757-3.007-3.817v-5.096h1.584v4.825c0 1.657.504 2.773 1.944 2.773 1.063 0 1.801-.738 2.089-1.44.09-.234.145-.522.145-.811v-5.348h1.584zm2.554-3.979c0-.9-.019-1.639-.072-2.359h1.404l.091 1.44h.035c.433-.828 1.44-1.639 2.881-1.639 1.207 0 3.079.721 3.079 3.71v5.203h-1.584v-5.023c0-1.404-.522-2.575-2.017-2.575-1.045 0-1.854.738-2.125 1.621a2.3 2.3 0 0 0-.108.738v5.239h-1.584zm16.13 6.031c-.414.216-1.332.504-2.503.504-2.629 0-4.339-1.782-4.339-4.447 0-2.683 1.836-4.627 4.681-4.627.937 0 1.765.234 2.197.45l-.36 1.225c-.378-.217-.973-.414-1.837-.414-1.998 0-3.078 1.476-3.078 3.295 0 2.017 1.296 3.259 3.024 3.259.9 0 1.494-.234 1.944-.433zm2.446-3.745c.036 2.143 1.405 3.025 2.989 3.025 1.135 0 1.818-.198 2.413-.45l.27 1.134c-.558.252-1.513.54-2.898.54-2.683 0-4.285-1.765-4.285-4.393s1.548-4.7 4.087-4.7c2.845 0 3.601 2.503 3.601 4.105 0 .324-.035.576-.054.738h-6.123zm4.646-1.134c.019-1.009-.414-2.575-2.196-2.575-1.603 0-2.305 1.477-2.431 2.575zm3.454-.793c0-1.026-.019-1.908-.072-2.719h1.387l.054 1.711h.072c.396-1.171 1.351-1.909 2.413-1.909.18 0 .306.019.45.055v1.494a2.4 2.4 0 0 0-.541-.054c-1.116 0-1.908.846-2.124 2.034a4.5 4.5 0 0 0-.072.738v4.646h-1.566zm8.208-5.221v2.503h2.269v1.207h-2.269v4.699c0 1.08.307 1.692 1.188 1.692.414 0 .721-.054.919-.108l.071 1.188c-.306.126-.792.216-1.404.216-.738 0-1.332-.233-1.71-.666-.45-.468-.612-1.242-.612-2.269v-4.753h-1.351v-1.207h1.351v-2.089zm8.875 11.217-.126-1.099h-.054c-.486.685-1.423 1.297-2.665 1.297-1.765 0-2.665-1.242-2.665-2.503 0-2.106 1.873-3.259 5.24-3.241v-.18c0-.721-.198-2.017-1.98-2.017-.811 0-1.657.252-2.27.648l-.359-1.045c.72-.468 1.764-.774 2.862-.774 2.665 0 3.313 1.819 3.313 3.565v3.259c0 .757.036 1.495.144 2.089zm-.235-4.447c-1.729-.036-3.69.271-3.69 1.963 0 1.026.684 1.512 1.494 1.512 1.135 0 1.854-.72 2.106-1.458.055-.162.09-.342.09-.504zm5.743-6.716c.018.54-.378.972-1.009.972-.558 0-.954-.432-.954-.972 0-.559.414-.99.99-.99.595 0 .973.432.973.99m-1.765 11.163v-8.715h1.584v8.715zm4.14-6.355c0-.9-.018-1.639-.072-2.359h1.404l.09 1.44h.036c.433-.828 1.44-1.639 2.881-1.639 1.207 0 3.079.721 3.079 3.71v5.203h-1.584v-5.023c0-1.404-.522-2.575-2.017-2.575-1.045 0-1.854.738-2.125 1.621a2.3 2.3 0 0 0-.108.738v5.239h-1.584zm11.843-4.862v2.503h2.269v1.207h-2.269v4.699c0 1.08.307 1.692 1.188 1.692.414 0 .721-.054.919-.108l.071 1.188c-.306.126-.792.216-1.404.216-.738 0-1.332-.233-1.71-.666-.45-.468-.612-1.242-.612-2.269v-4.753h-1.351v-1.207h1.351v-2.089zm5.077 2.503 1.908 5.149c.198.576.414 1.261.559 1.783h.036c.162-.522.342-1.188.558-1.818l1.729-5.114h1.675l-2.377 6.212c-1.134 2.989-1.908 4.52-2.988 5.456-.774.684-1.549.954-1.945 1.026l-.396-1.333a4.2 4.2 0 0 0 1.386-.774c.433-.342.973-.954 1.333-1.764.072-.162.126-.288.126-.379 0-.09-.036-.216-.108-.414l-3.223-8.03zm11.879 8.714v-7.508h-1.225v-1.207h1.225v-.414c0-1.225.27-2.341 1.008-3.043.595-.576 1.387-.81 2.125-.81.559 0 1.044.126 1.351.252l-.216 1.225c-.234-.107-.559-.197-1.009-.197-1.351 0-1.692 1.188-1.692 2.521v.468h2.106v1.207h-2.106v7.508h-1.567zm12.89-4.429c0 3.224-2.233 4.628-4.34 4.628-2.358 0-4.177-1.729-4.177-4.483 0-2.917 1.908-4.628 4.321-4.628 2.503-.001 4.196 1.819 4.196 4.483m-6.914.091c0 1.908 1.098 3.349 2.646 3.349 1.513 0 2.646-1.423 2.646-3.385 0-1.477-.738-3.35-2.61-3.35s-2.682 1.728-2.682 3.386m8.874-1.658c0-1.026-.019-1.908-.072-2.719h1.387l.054 1.711h.072c.396-1.171 1.351-1.909 2.413-1.909.18 0 .306.019.45.055v1.494a2.4 2.4 0 0 0-.541-.054c-1.116 0-1.908.846-2.124 2.034a4.5 4.5 0 0 0-.072.738v4.646h-1.566zm12.636-4.231h-.036l-2.034 1.099-.307-1.206 2.558-1.368h1.35v11.703h-1.53zm6.101 9.291c0-.666.45-1.134 1.08-1.134s1.063.468 1.063 1.134c0 .648-.414 1.135-1.08 1.135-.631 0-1.063-.487-1.063-1.135m10.639-9.435h-4.465l-.45 3.007c.271-.036.522-.072.954-.072.9 0 1.801.198 2.521.631.919.521 1.675 1.53 1.675 3.007 0 2.286-1.818 3.997-4.357 3.997-1.278 0-2.358-.36-2.917-.721l.396-1.206c.486.288 1.44.648 2.503.648 1.494 0 2.772-.973 2.772-2.539-.018-1.513-1.026-2.593-3.367-2.593-.666 0-1.188.072-1.62.126l.756-5.617h5.6zm6.588.378c0 1.459-1.171 2.413-2.413 2.413-1.404 0-2.358-1.063-2.358-2.323a2.37 2.37 0 0 1 2.395-2.431c1.476 0 2.376 1.117 2.376 2.341m-3.8.09c0 .828.612 1.477 1.404 1.477.811 0 1.423-.666 1.423-1.548 0-.667-.396-1.513-1.423-1.513-.935 0-1.404.811-1.404 1.584m14.133 9.507c-.576.288-1.729.576-3.205.576-3.421 0-5.995-2.16-5.995-6.14 0-3.799 2.574-6.374 6.338-6.374 1.512 0 2.467.324 2.881.54l-.378 1.279c-.595-.289-1.44-.505-2.449-.505-2.845 0-4.735 1.818-4.735 5.006 0 2.971 1.711 4.879 4.663 4.879.954 0 1.927-.197 2.557-.504zm5.722-5.474c0-1.116-.036-2.017-.072-2.845h1.423l.071 1.495h.036c.648-1.063 1.675-1.693 3.098-1.693 2.106 0 3.69 1.783 3.69 4.43 0 3.133-1.908 4.682-3.961 4.682-1.152 0-2.16-.504-2.683-1.368h-.036v4.735h-1.566zm1.566 2.324c0 .233.036.45.072.648.288 1.098 1.242 1.854 2.377 1.854 1.674 0 2.646-1.369 2.646-3.367 0-1.747-.918-3.241-2.593-3.241-1.08 0-2.089.774-2.395 1.963a2.5 2.5 0 0 0-.108.647zm13.446 3.546-.126-1.099h-.054c-.486.685-1.423 1.297-2.665 1.297-1.765 0-2.665-1.242-2.665-2.503 0-2.106 1.873-3.259 5.24-3.241v-.18c0-.721-.198-2.017-1.981-2.017-.81 0-1.656.252-2.269.648l-.359-1.045c.72-.468 1.765-.774 2.862-.774 2.665 0 3.313 1.819 3.313 3.565v3.259c0 .757.036 1.495.144 2.089zm-.233-4.447c-1.729-.036-3.691.271-3.691 1.963 0 1.026.684 1.512 1.494 1.512 1.135 0 1.854-.72 2.106-1.458.055-.162.091-.342.091-.504zm5.92-6.77v2.503h2.269v1.207H839.3v4.699c0 1.08.307 1.692 1.188 1.692.414 0 .721-.054.919-.108l.071 1.188c-.306.126-.792.216-1.404.216-.738 0-1.332-.233-1.71-.666-.45-.468-.612-1.242-.612-2.269v-4.753h-1.351v-1.207h1.351v-2.089zm4.032-1.567h1.584v5.438h.036a2.94 2.94 0 0 1 1.135-1.116 3.26 3.26 0 0 1 1.62-.45c1.171 0 3.043.721 3.043 3.728v5.186h-1.584v-5.006c0-1.404-.522-2.593-2.017-2.593-1.026 0-1.837.721-2.125 1.585-.09.216-.108.45-.108.756v5.258h-1.584zm10.457 4.07 1.152 4.43c.252.972.486 1.872.648 2.772h.054c.198-.882.486-1.818.774-2.755l1.423-4.447h1.332l1.351 4.357c.324 1.044.576 1.963.774 2.845h.054c.144-.882.378-1.801.666-2.826l1.242-4.376h1.566l-2.809 8.715h-1.44l-1.332-4.159c-.307-.973-.559-1.837-.774-2.863h-.036c-.216 1.045-.486 1.945-.792 2.881l-1.404 4.142h-1.44l-2.629-8.715h1.62zm17.39 8.714-.126-1.099h-.054c-.486.685-1.423 1.297-2.665 1.297-1.765 0-2.665-1.242-2.665-2.503 0-2.106 1.873-3.259 5.24-3.241v-.18c0-.721-.198-2.017-1.98-2.017-.811 0-1.657.252-2.27.648l-.359-1.045c.72-.468 1.764-.774 2.862-.774 2.665 0 3.313 1.819 3.313 3.565v3.259c0 .757.036 1.495.144 2.089zm-.235-4.447c-1.729-.036-3.69.271-3.69 1.963 0 1.026.684 1.512 1.494 1.512 1.135 0 1.854-.72 2.106-1.458.055-.162.09-.342.09-.504zm4.373-4.267 1.908 5.149c.198.576.414 1.261.559 1.783h.036c.162-.522.342-1.188.558-1.818l1.729-5.114h1.675l-2.377 6.212c-1.134 2.989-1.908 4.52-2.988 5.456-.774.684-1.549.954-1.945 1.026l-.396-1.333a4.2 4.2 0 0 0 1.386-.774c.433-.342.973-.954 1.333-1.764.072-.162.126-.288.126-.379 0-.09-.036-.216-.108-.414l-3.223-8.03z" fill="#F37681"/>
  <path d="M257.925 37.24c-.576.288-1.729.576-3.205.576-3.421 0-5.996-2.161-5.996-6.14 0-3.799 2.575-6.374 6.338-6.374 1.512 0 2.466.324 2.881.54l-.378 1.278c-.594-.288-1.44-.504-2.449-.504-2.845 0-4.735 1.818-4.735 5.005 0 2.971 1.71 4.879 4.664 4.879.954 0 1.926-.198 2.557-.504zm9.089-1.98c0 .9.018 1.692.072 2.376h-1.405l-.09-1.422h-.036a3.28 3.28 0 0 1-2.881 1.621c-1.368 0-3.007-.756-3.007-3.817v-5.095h1.584v4.825c0 1.656.504 2.773 1.945 2.773 1.062 0 1.8-.738 2.088-1.44.09-.234.144-.522.144-.811v-5.347h1.584v6.337zm2.554-3.619c0-1.026-.018-1.909-.072-2.719h1.387l.054 1.71h.072c.396-1.17 1.351-1.909 2.413-1.909.18 0 .306.018.45.054v1.495a2.4 2.4 0 0 0-.54-.054c-1.117 0-1.909.847-2.125 2.035a4.5 4.5 0 0 0-.072.738v4.646h-1.566zm5.796 0c0-1.026-.018-1.909-.072-2.719h1.387l.054 1.71h.072c.396-1.17 1.351-1.909 2.413-1.909.18 0 .306.018.45.054v1.495a2.4 2.4 0 0 0-.54-.054c-1.117 0-1.909.847-2.125 2.035a4.5 4.5 0 0 0-.072.738v4.646h-1.566zm6.607 1.926c.036 2.143 1.404 3.025 2.989 3.025 1.134 0 1.818-.198 2.413-.45l.27 1.135c-.558.252-1.512.54-2.899.54-2.683 0-4.285-1.765-4.285-4.394s1.549-4.699 4.087-4.699c2.845 0 3.601 2.503 3.601 4.105 0 .324-.036.576-.054.738zm4.645-1.134c.018-1.008-.415-2.575-2.197-2.575-1.603 0-2.305 1.477-2.431 2.575zm3.454-1.153c0-.9-.018-1.639-.072-2.358h1.405l.09 1.44h.036c.432-.829 1.44-1.639 2.881-1.639 1.206 0 3.079.72 3.079 3.709v5.204h-1.584v-5.023c0-1.404-.522-2.575-2.017-2.575-1.044 0-1.854.738-2.125 1.62a2.3 2.3 0 0 0-.108.738v5.24h-1.584zm11.845-4.861v2.503h2.269v1.206h-2.269v4.699c0 1.081.306 1.693 1.188 1.693.414 0 .72-.054.918-.108l.072 1.188c-.306.126-.792.216-1.404.216-.738 0-1.332-.234-1.71-.667-.45-.468-.612-1.242-.612-2.269v-4.753h-1.35v-1.206h1.35v-2.089zm8.495 2.503 1.152 4.429c.252.972.486 1.873.648 2.773h.054c.198-.882.486-1.819.774-2.755l1.422-4.447h1.333l1.351 4.357c.324 1.044.576 1.963.774 2.845h.054c.144-.882.378-1.801.666-2.827l1.243-4.375h1.566l-2.809 8.714h-1.44l-1.332-4.159c-.306-.972-.558-1.836-.774-2.863h-.036c-.216 1.044-.486 1.944-.792 2.881l-1.405 4.141h-1.44l-2.628-8.714zm17.389 8.714-.126-1.098h-.054c-.486.684-1.423 1.296-2.665 1.296-1.765 0-2.665-1.243-2.665-2.503 0-2.106 1.873-3.259 5.239-3.241v-.18c0-.72-.198-2.017-1.98-2.017-.81 0-1.657.252-2.269.648l-.36-1.044c.72-.468 1.765-.774 2.863-.774 2.665 0 3.313 1.818 3.313 3.565v3.259c0 .756.036 1.494.144 2.088zm-.234-4.447c-1.729-.036-3.691.27-3.691 1.962 0 1.026.684 1.513 1.494 1.513 1.134 0 1.854-.72 2.107-1.458.054-.162.09-.342.09-.504zm4.012-1.548c0-1.026-.018-1.909-.072-2.719h1.387l.054 1.71h.072c.396-1.17 1.351-1.909 2.413-1.909.18 0 .306.018.45.054v1.495a2.4 2.4 0 0 0-.54-.054c-1.117 0-1.909.847-2.125 2.035a4.5 4.5 0 0 0-.072.738v4.646h-1.566zm5.796-.361c0-.9-.018-1.639-.072-2.358h1.387l.072 1.404h.054c.486-.828 1.296-1.603 2.737-1.603 1.188 0 2.088.72 2.467 1.747h.036c.271-.486.612-.864.973-1.134.522-.396 1.098-.612 1.926-.612 1.152 0 2.863.756 2.863 3.781v5.131h-1.548v-4.934c0-1.674-.612-2.683-1.891-2.683-.9 0-1.602.666-1.873 1.44a2.6 2.6 0 0 0-.126.792v5.384h-1.548v-5.222c0-1.386-.612-2.395-1.818-2.395-.991 0-1.71.792-1.963 1.584-.09.234-.126.504-.126.774v5.257h-1.548V31.28zm16.687-4.807c.018.541-.378.973-1.008.973-.559 0-.955-.432-.955-.973 0-.558.414-.99.99-.99.595-.001.973.432.973.99m-1.765 11.163v-8.714h1.584v8.714zm4.122-6.356c0-.9-.018-1.639-.072-2.358h1.405l.09 1.44h.036c.432-.829 1.44-1.639 2.881-1.639 1.206 0 3.079.72 3.079 3.709v5.204h-1.584v-5.023c0-1.404-.522-2.575-2.017-2.575-1.044 0-1.854.738-2.125 1.62a2.3 2.3 0 0 0-.108.738v5.24h-1.584zm17.462-2.358c-.036.63-.072 1.332-.072 2.395v5.06c0 1.999-.396 3.223-1.242 3.979-.846.792-2.071 1.044-3.169 1.044-1.044 0-2.197-.252-2.899-.72l.396-1.207c.576.36 1.477.685 2.557.685 1.62 0 2.809-.847 2.809-3.043v-.973h-.036c-.486.811-1.422 1.458-2.772 1.458-2.161 0-3.709-1.836-3.709-4.249 0-2.953 1.927-4.627 3.925-4.627 1.513 0 2.341.792 2.719 1.512h.036l.072-1.314zm-1.638 3.439c0-.27-.018-.504-.09-.72-.288-.918-1.063-1.675-2.215-1.675-1.512 0-2.593 1.278-2.593 3.295 0 1.711.864 3.133 2.575 3.133.973 0 1.854-.612 2.197-1.621.09-.27.126-.576.126-.846zm8.008-.72c0-1.026-.018-1.909-.072-2.719h1.387l.054 1.71h.072c.396-1.17 1.35-1.909 2.413-1.909.18 0 .306.018.45.054v1.495a2.4 2.4 0 0 0-.54-.054c-1.116 0-1.909.847-2.125 2.035a4.5 4.5 0 0 0-.072.738v4.646h-1.566zm10.657 5.995-.126-1.098h-.054c-.486.684-1.422 1.296-2.665 1.296-1.765 0-2.665-1.243-2.665-2.503 0-2.106 1.873-3.259 5.239-3.241v-.18c0-.72-.198-2.017-1.98-2.017-.81 0-1.656.252-2.269.648l-.36-1.044c.72-.468 1.765-.774 2.863-.774 2.665 0 3.313 1.818 3.313 3.565v3.259c0 .756.036 1.494.144 2.088zm-.234-4.447c-1.729-.036-3.691.27-3.691 1.962 0 1.026.684 1.513 1.494 1.513 1.134 0 1.854-.72 2.107-1.458.054-.162.09-.342.09-.504zm5.921-6.77v2.503h2.269v1.206h-2.269v4.699c0 1.081.306 1.693 1.188 1.693.414 0 .72-.054.918-.108l.072 1.188c-.306.126-.792.216-1.404.216-.738 0-1.332-.234-1.71-.667-.45-.468-.612-1.242-.612-2.269v-4.753h-1.35v-1.206h1.35v-2.089zm4.698 7.148c.036 2.143 1.404 3.025 2.989 3.025 1.134 0 1.818-.198 2.413-.45l.27 1.135c-.558.252-1.512.54-2.898.54-2.683 0-4.286-1.765-4.286-4.394s1.548-4.699 4.087-4.699c2.845 0 3.601 2.503 3.601 4.105 0 .324-.036.576-.054.738zm4.645-1.134c.018-1.008-.414-2.575-2.196-2.575-1.603 0-2.305 1.477-2.431 2.575z" fill="#454545"/>
  <path fill="none" stroke="#454545" stroke-miterlimit="10" d="M495.237 115.56 419.41 39.731"/>
  <circle fill="none" stroke="#454545" stroke-miterlimit="10" cx="499.828" cy="120.149" r="6.386"/>
  <path d="M484.949 272.24v-.973l1.242-1.206c2.989-2.845 4.339-4.357 4.357-6.122 0-1.188-.576-2.286-2.323-2.286-1.063 0-1.944.54-2.484.99l-.504-1.116a5.13 5.13 0 0 1 3.313-1.188c2.521 0 3.583 1.729 3.583 3.403 0 2.16-1.566 3.906-4.033 6.283l-.937.864v.036h5.258v1.314zm16.832-5.977c0 3.979-1.477 6.176-4.069 6.176-2.287 0-3.835-2.143-3.871-6.014 0-3.926 1.692-6.086 4.069-6.086 2.467 0 3.871 2.196 3.871 5.924m-6.356.179c0 3.043.937 4.771 2.377 4.771 1.62 0 2.395-1.891 2.395-4.88 0-2.881-.738-4.771-2.377-4.771-1.386.001-2.395 1.694-2.395 4.88m11.286-4.428h-.036l-2.034 1.098-.306-1.206 2.557-1.368h1.35v11.703h-1.53v-10.227zm13.213-1.477v1.044l-5.095 10.659h-1.639l5.077-10.354v-.035h-5.726v-1.314z" fill="#454545"/>
  <path fill="none" stroke="#454545" stroke-miterlimit="10" d="m417.265 195.625 63.732 63.733"/>
  <circle fill="none" stroke="#454545" stroke-miterlimit="10" cx="412.786" cy="191.147" r="6.386"/>
  <path d="M336.382 347.969c0 4.177-2.539 6.392-5.635 6.392-3.205 0-5.456-2.485-5.456-6.158 0-3.853 2.395-6.374 5.635-6.374 3.313-.001 5.456 2.538 5.456 6.14m-9.417.197c0 2.593 1.404 4.916 3.871 4.916 2.485 0 3.889-2.287 3.889-5.042 0-2.412-1.26-4.934-3.871-4.934-2.592 0-3.889 2.396-3.889 5.06m11.394 5.996c.036-.594.072-1.477.072-2.251v-10.533h1.566v5.474h.036c.558-.972 1.566-1.603 2.971-1.603 2.161 0 3.691 1.801 3.673 4.448 0 3.114-1.963 4.663-3.907 4.663-1.261 0-2.269-.486-2.917-1.639h-.054l-.072 1.44h-1.368zm1.639-3.493c0 .198.036.396.072.576.306 1.099 1.225 1.854 2.377 1.854 1.656 0 2.647-1.351 2.647-3.349 0-1.747-.9-3.241-2.593-3.241-1.081 0-2.089.738-2.413 1.944-.036.181-.09.396-.09.648zm8.422 1.873c.468.306 1.296.63 2.089.63 1.152 0 1.692-.576 1.692-1.297 0-.756-.45-1.17-1.621-1.602-1.566-.559-2.305-1.423-2.305-2.467 0-1.405 1.135-2.558 3.007-2.558.882 0 1.657.253 2.143.541l-.396 1.152a3.4 3.4 0 0 0-1.782-.505c-.937 0-1.458.54-1.458 1.188 0 .721.522 1.045 1.656 1.477 1.513.576 2.287 1.332 2.287 2.629 0 1.53-1.188 2.61-3.259 2.61-.954 0-1.836-.233-2.449-.594zm8.155-2.449c.036 2.143 1.404 3.025 2.989 3.025 1.134 0 1.818-.198 2.413-.45l.27 1.134c-.558.252-1.512.54-2.898.54-2.683 0-4.286-1.764-4.286-4.393s1.548-4.7 4.087-4.7c2.845 0 3.601 2.503 3.601 4.105 0 .324-.036.576-.054.738zm4.645-1.134c.018-1.009-.414-2.575-2.196-2.575-1.603 0-2.305 1.477-2.431 2.575zm3.454-.793c0-1.026-.018-1.908-.072-2.719h1.387l.054 1.711h.072c.396-1.171 1.35-1.909 2.413-1.909.18 0 .306.019.45.055v1.494a2.4 2.4 0 0 0-.54-.054c-1.116 0-1.909.846-2.125 2.034a4.5 4.5 0 0 0-.072.738v4.646h-1.566zm7.021-2.719 1.71 4.897c.288.792.522 1.513.702 2.233h.054c.198-.721.45-1.441.738-2.233l1.693-4.897h1.656l-3.421 8.715h-1.513l-3.313-8.715zm8.658 4.646c.036 2.143 1.404 3.025 2.989 3.025 1.134 0 1.818-.198 2.413-.45l.27 1.134c-.558.252-1.512.54-2.899.54-2.683 0-4.285-1.764-4.285-4.393s1.549-4.7 4.087-4.7c2.845 0 3.601 2.503 3.601 4.105 0 .324-.036.576-.054.738zm4.645-1.134c.018-1.009-.415-2.575-2.197-2.575-1.603 0-2.305 1.477-2.431 2.575zm11.016-7.581v10.533c0 .774.018 1.657.072 2.251h-1.422l-.072-1.513h-.036c-.486.973-1.549 1.711-2.971 1.711-2.106 0-3.727-1.782-3.727-4.43-.018-2.898 1.783-4.682 3.907-4.682 1.333 0 2.233.631 2.629 1.333h.036v-5.204zm-1.584 7.616c0-.197-.018-.468-.072-.666-.234-1.008-1.098-1.836-2.287-1.836-1.639 0-2.611 1.44-2.611 3.366 0 1.765.864 3.224 2.575 3.224 1.063 0 2.035-.702 2.323-1.891a2.8 2.8 0 0 0 .072-.685zm8.656-3.547 1.152 4.43c.252.973.486 1.872.648 2.772h.054c.198-.882.486-1.818.774-2.755l1.422-4.447h1.333l1.351 4.357c.324 1.045.576 1.963.774 2.845h.054c.144-.882.378-1.8.666-2.826l1.243-4.376h1.566l-2.809 8.715h-1.44l-1.332-4.159c-.306-.973-.558-1.837-.774-2.863h-.036c-.216 1.045-.486 1.945-.792 2.881l-1.405 4.142h-1.44l-2.628-8.715zm17.389 8.715-.126-1.099h-.054c-.486.685-1.423 1.297-2.665 1.297-1.765 0-2.665-1.242-2.665-2.503 0-2.106 1.873-3.259 5.239-3.241v-.18c0-.721-.198-2.017-1.98-2.017-.81 0-1.657.252-2.269.648l-.36-1.045c.72-.468 1.765-.774 2.863-.774 2.665 0 3.313 1.819 3.313 3.565v3.259c0 .757.036 1.495.144 2.089zm-.234-4.447c-1.729-.036-3.691.27-3.691 1.963 0 1.026.684 1.512 1.494 1.512 1.134 0 1.854-.72 2.107-1.458.054-.162.09-.342.09-.504zm4.012-1.549c0-1.026-.018-1.908-.072-2.719h1.387l.054 1.711h.072c.396-1.171 1.35-1.909 2.413-1.909.18 0 .306.019.45.055v1.494a2.4 2.4 0 0 0-.54-.054c-1.116 0-1.909.846-2.125 2.034a4.5 4.5 0 0 0-.072.738v4.646h-1.566zm5.796-.359c0-.9-.018-1.639-.072-2.359h1.387l.072 1.404h.054c.486-.828 1.296-1.603 2.737-1.603 1.188 0 2.088.721 2.467 1.747h.036c.27-.486.612-.864.972-1.135.522-.396 1.098-.612 1.926-.612 1.152 0 2.863.757 2.863 3.781v5.132h-1.549v-4.934c0-1.675-.612-2.683-1.891-2.683-.9 0-1.603.666-1.873 1.44a2.6 2.6 0 0 0-.126.792v5.384h-1.548v-5.222c0-1.387-.612-2.395-1.818-2.395-.99 0-1.711.792-1.963 1.584-.09.234-.126.505-.126.774v5.258h-1.548zm16.705-4.808c.018.54-.378.972-1.008.972-.558 0-.955-.432-.955-.972 0-.559.414-.99.99-.99.594 0 .973.431.973.99m-1.765 11.163v-8.715h1.584v8.715zm4.122-6.355c0-.9-.018-1.639-.072-2.359h1.404l.091 1.44h.035c.433-.828 1.44-1.639 2.881-1.639 1.207 0 3.079.721 3.079 3.71v5.203h-1.584v-5.023c0-1.404-.522-2.575-2.017-2.575-1.045 0-1.854.738-2.125 1.621a2.3 2.3 0 0 0-.108.738v5.239h-1.584zm17.462-2.36a39 39 0 0 0-.071 2.395v5.06c0 1.999-.396 3.224-1.243 3.979-.846.792-2.07 1.044-3.169 1.044-1.044 0-2.196-.252-2.898-.72l.396-1.206c.576.359 1.476.684 2.557.684 1.62 0 2.809-.846 2.809-3.043v-.972h-.036c-.486.81-1.422 1.458-2.772 1.458-2.161 0-3.709-1.837-3.709-4.249 0-2.953 1.926-4.628 3.925-4.628 1.513 0 2.341.793 2.719 1.513h.036l.072-1.314zm-1.637 3.44c0-.271-.019-.504-.091-.721-.288-.918-1.062-1.674-2.214-1.674-1.513 0-2.593 1.278-2.593 3.295 0 1.71.864 3.133 2.574 3.133.973 0 1.854-.612 2.197-1.621.09-.27.126-.576.126-.846z" fill="#D2D3D3"/>
</svg>
