<svg class="plot-d6a7b5" fill="currentColor" font-family="system-ui, sans-serif" font-size="10" text-anchor="middle" width="700" height="500" viewBox="0 0 700 500" xmlns="http://www.w3.org/2000/svg" xmlns:xlink="http://www.w3.org/1999/xlink"><style>:where(.plot-d6a7b5) {
  --plot-background: white;
  display: block;
  height: auto;
  height: intrinsic;
  max-width: 100%;
}
:where(.plot-d6a7b5 text),
:where(.plot-d6a7b5 tspan) {
  white-space: pre;
}</style><g aria-label="y-axis tick label" text-anchor="end" transform="translate(-9,0)"><text y="0.32em" transform="translate(120,100)">Joseph Jobs</text><text y="0.32em" transform="translate(120,140)">Sally Sample</text><text y="0.32em" transform="translate(120,180)">John Doe</text><text y="0.32em" transform="translate(120,220)">Paula Perfect</text><text y="0.32em" transform="translate(120,260)">Harry Hire</text><text y="0.32em" transform="translate(120,300)">Robin Research</text><text y="0.32em" transform="translate(120,340)">Carol Candidate</text><text y="0.32em" transform="translate(120,380)">Eric Example</text><text y="0.32em" transform="translate(120,420)">Nick Newbie</text><text y="0.32em" transform="translate(120,460)">Steve Smith</text></g><g aria-label="x-axis tick label" text-anchor="start" transform="translate(0,-12.276608177155968)"><text y="0.32em" transform="translate(141,80) rotate(-35)">Z-Score</text><text y="0.32em" transform="translate(178,80) rotate(-35)"/><text y="0.32em" transform="translate(215,80) rotate(-35)">Key Skill</text><text y="0.32em" transform="translate(252,80) rotate(-35)"> </text><text y="0.32em" transform="translate(289,80) rotate(-35)">Ability to Influence</text><text y="0.32em" transform="translate(326,80) rotate(-35)">Strategic Thinking</text><text y="0.32em" transform="translate(363,80) rotate(-35)">Entrepreneur</text><text y="0.32em" transform="translate(400,80) rotate(-35)">Ethical Principles</text><text y="0.32em" transform="translate(437,80) rotate(-35)">Funding</text><text y="0.32em" transform="translate(474,80) rotate(-35)">Tech</text><text y="0.32em" transform="translate(511,80) rotate(-35)">Management</text><text y="0.32em" transform="translate(548,80) rotate(-35)">Ethics</text><text y="0.32em" transform="translate(585,80) rotate(-35)">Managed Money</text><text y="0.32em" transform="translate(622,80) rotate(-35)">Location</text><text y="0.32em" transform="translate(659,80) rotate(-35)">Municipal</text></g><g aria-label="dot"><circle cx="289" cy="100" r="17.260127931769723" fill="rgb(0, 104, 55)"/><circle cx="363" cy="100" r="17.260127931769723" fill="rgb(0, 104, 55)"/><circle cx="400" cy="100" r="17.260127931769723" fill="rgb(0, 104, 55)"/><circle cx="548" cy="100" r="17.260127931769723" fill="rgb(0, 104, 55)"/><circle cx="585" cy="100" r="17.260127931769723" fill="rgb(0, 104, 55)"/><circle cx="622" cy="100" r="17.260127931769723" fill="rgb(0, 104, 55)"/><circle cx="659" cy="100" r="17.260127931769723" fill="rgb(0, 104, 55)"/><circle cx="289" cy="180" r="17.260127931769723" fill="rgb(0, 104, 55)"/><circle cx="363" cy="180" r="17.260127931769723" fill="rgb(0, 104, 55)"/><circle cx="659" cy="180" r="17.260127931769723" fill="rgb(0, 104, 55)"/><circle cx="585" cy="220" r="17.260127931769723" fill="rgb(0, 104, 55)"/><circle cx="622" cy="220" r="17.260127931769723" fill="rgb(0, 104, 55)"/><circle cx="659" cy="220" r="17.260127931769723" fill="rgb(0, 104, 55)"/><circle cx="289" cy="140" r="17.260127931769723" fill="rgb(0, 104, 55)"/><circle cx="326" cy="140" r="17.260127931769723" fill="rgb(0, 104, 55)"/><circle cx="363" cy="140" r="17.260127931769723" fill="rgb(0, 104, 55)"/><circle cx="400" cy="140" r="17.260127931769723" fill="rgb(0, 104, 55)"/><circle cx="548" cy="140" r="17.260127931769723" fill="rgb(0, 104, 55)"/><circle cx="326" cy="260" r="17.260127931769723" fill="rgb(0, 104, 55)"/><circle cx="400" cy="260" r="17.260127931769723" fill="rgb(0, 104, 55)"/><circle cx="437" cy="260" r="17.260127931769723" fill="rgb(0, 104, 55)"/><circle cx="585" cy="260" r="17.260127931769723" fill="rgb(0, 104, 55)"/><circle cx="363" cy="300" r="17.260127931769723" fill="rgb(0, 104, 55)"/><circle cx="659" cy="300" r="17.260127931769723" fill="rgb(0, 104, 55)"/><circle cx="289" cy="340" r="17.260127931769723" fill="rgb(0, 104, 55)"/><circle cx="326" cy="340" r="17.260127931769723" fill="rgb(0, 104, 55)"/><circle cx="659" cy="340" r="17.260127931769723" fill="rgb(0, 104, 55)"/><circle cx="511" cy="380" r="17.260127931769723" fill="rgb(0, 104, 55)"/><circle cx="622" cy="380" r="17.260127931769723" fill="rgb(0, 104, 55)"/><circle cx="659" cy="380" r="17.260127931769723" fill="rgb(0, 104, 55)"/><circle cx="215" cy="100" r="16.35287846481876" fill="rgb(10, 122, 64)"/><circle cx="215" cy="140" r="16.35287846481876" fill="rgb(10, 122, 64)"/><circle cx="437" cy="100" r="16.03411513859275" fill="rgb(14, 128, 67)"/><circle cx="474" cy="100" r="16.03411513859275" fill="rgb(14, 128, 67)"/><circle cx="511" cy="100" r="16.03411513859275" fill="rgb(14, 128, 67)"/><circle cx="326" cy="180" r="16.03411513859275" fill="rgb(14, 128, 67)"/><circle cx="437" cy="180" r="16.03411513859275" fill="rgb(14, 128, 67)"/><circle cx="474" cy="180" r="16.03411513859275" fill="rgb(14, 128, 67)"/><circle cx="622" cy="180" r="16.03411513859275" fill="rgb(14, 128, 67)"/><circle cx="326" cy="220" r="16.03411513859275" fill="rgb(14, 128, 67)"/><circle cx="363" cy="220" r="16.03411513859275" fill="rgb(14, 128, 67)"/><circle cx="400" cy="220" r="16.03411513859275" fill="rgb(14, 128, 67)"/><circle cx="437" cy="220" r="16.03411513859275" fill="rgb(14, 128, 67)"/><circle cx="474" cy="220" r="16.03411513859275" fill="rgb(14, 128, 67)"/><circle cx="511" cy="220" r="16.03411513859275" fill="rgb(14, 128, 67)"/><circle cx="548" cy="220" r="16.03411513859275" fill="rgb(14, 128, 67)"/><circle cx="622" cy="140" r="16.03411513859275" fill="rgb(14, 128, 67)"/><circle cx="659" cy="140" r="16.03411513859275" fill="rgb(14, 128, 67)"/><circle cx="289" cy="260" r="16.03411513859275" fill="rgb(14, 128, 67)"/><circle cx="363" cy="260" r="16.03411513859275" fill="rgb(14, 128, 67)"/><circle cx="511" cy="260" r="16.03411513859275" fill="rgb(14, 128, 67)"/><circle cx="548" cy="260" r="16.03411513859275" fill="rgb(14, 128, 67)"/><circle cx="659" cy="260" r="16.03411513859275" fill="rgb(14, 128, 67)"/><circle cx="215" cy="260" r="16.03411513859275" fill="rgb(14, 128, 67)"/><circle cx="437" cy="300" r="16.03411513859275" fill="rgb(14, 128, 67)"/><circle cx="474" cy="300" r="16.03411513859275" fill="rgb(14, 128, 67)"/><circle cx="511" cy="300" r="16.03411513859275" fill="rgb(14, 128, 67)"/><circle cx="585" cy="300" r="16.03411513859275" fill="rgb(14, 128, 67)"/><circle cx="363" cy="340" r="16.03411513859275" fill="rgb(14, 128, 67)"/><circle cx="548" cy="340" r="16.03411513859275" fill="rgb(14, 128, 67)"/><circle cx="289" cy="380" r="16.03411513859275" fill="rgb(14, 128, 67)"/><circle cx="326" cy="380" r="16.03411513859275" fill="rgb(14, 128, 67)"/><circle cx="363" cy="380" r="16.03411513859275" fill="rgb(14, 128, 67)"/><circle cx="400" cy="380" r="16.03411513859275" fill="rgb(14, 128, 67)"/><circle cx="326" cy="420" r="16.03411513859275" fill="rgb(14, 128, 67)"/><circle cx="400" cy="420" r="16.03411513859275" fill="rgb(14, 128, 67)"/><circle cx="437" cy="420" r="16.03411513859275" fill="rgb(14, 128, 67)"/><circle cx="474" cy="420" r="16.03411513859275" fill="rgb(14, 128, 67)"/><circle cx="511" cy="420" r="16.03411513859275" fill="rgb(14, 128, 67)"/><circle cx="400" cy="460" r="16.03411513859275" fill="rgb(14, 128, 67)"/><circle cx="511" cy="460" r="16.03411513859275" fill="rgb(14, 128, 67)"/><circle cx="622" cy="460" r="16.03411513859275" fill="rgb(14, 128, 67)"/><circle cx="215" cy="180" r="15.886993603411513" fill="rgb(16, 131, 69)"/><circle cx="215" cy="220" r="15.5682302771855" fill="rgb(21, 137, 72)"/><circle cx="215" cy="420" r="15.5682302771855" fill="rgb(21, 137, 72)"/><circle cx="215" cy="340" r="15.421108742004265" fill="rgb(23, 139, 73)"/><circle cx="215" cy="300" r="15.273987206823028" fill="rgb(25, 142, 75)"/><circle cx="400" cy="180" r="14.808102345415778" fill="rgb(34, 150, 79)"/><circle cx="511" cy="180" r="14.808102345415778" fill="rgb(34, 150, 79)"/><circle cx="548" cy="180" r="14.808102345415778" fill="rgb(34, 150, 79)"/><circle cx="585" cy="180" r="14.808102345415778" fill="rgb(34, 150, 79)"/><circle cx="437" cy="140" r="14.808102345415778" fill="rgb(34, 150, 79)"/><circle cx="474" cy="140" r="14.808102345415778" fill="rgb(34, 150, 79)"/><circle cx="511" cy="140" r="14.808102345415778" fill="rgb(34, 150, 79)"/><circle cx="326" cy="300" r="14.808102345415778" fill="rgb(34, 150, 79)"/><circle cx="400" cy="300" r="14.808102345415778" fill="rgb(34, 150, 79)"/><circle cx="548" cy="300" r="14.808102345415778" fill="rgb(34, 150, 79)"/><circle cx="622" cy="300" r="14.808102345415778" fill="rgb(34, 150, 79)"/><circle cx="400" cy="340" r="14.808102345415778" fill="rgb(34, 150, 79)"/><circle cx="437" cy="340" r="14.808102345415778" fill="rgb(34, 150, 79)"/><circle cx="474" cy="340" r="14.808102345415778" fill="rgb(34, 150, 79)"/><circle cx="622" cy="340" r="14.808102345415778" fill="rgb(34, 150, 79)"/><circle cx="474" cy="380" r="14.808102345415778" fill="rgb(34, 150, 79)"/><circle cx="548" cy="380" r="14.808102345415778" fill="rgb(34, 150, 79)"/><circle cx="585" cy="380" r="14.808102345415778" fill="rgb(34, 150, 79)"/><circle cx="215" cy="380" r="14.808102345415778" fill="rgb(34, 150, 79)"/><circle cx="289" cy="420" r="14.808102345415778" fill="rgb(34, 150, 79)"/><circle cx="363" cy="420" r="14.808102345415778" fill="rgb(34, 150, 79)"/><circle cx="548" cy="420" r="14.808102345415778" fill="rgb(34, 150, 79)"/><circle cx="437" cy="460" r="14.808102345415778" fill="rgb(34, 150, 79)"/><circle cx="474" cy="460" r="14.808102345415778" fill="rgb(34, 150, 79)"/><circle cx="548" cy="460" r="14.808102345415778" fill="rgb(34, 150, 79)"/><circle cx="585" cy="460" r="14.808102345415778" fill="rgb(34, 150, 79)"/><circle cx="659" cy="460" r="14.808102345415778" fill="rgb(34, 150, 79)"/><circle cx="215" cy="460" r="14.19509594882729" fill="rgb(48, 160, 84)"/><circle cx="326" cy="100" r="13.582089552238806" fill="rgb(65, 170, 89)"/><circle cx="289" cy="220" r="12.356076759061834" fill="rgb(100, 188, 97)"/><circle cx="474" cy="260" r="12.356076759061834" fill="rgb(100, 188, 97)"/><circle cx="289" cy="300" r="12.356076759061834" fill="rgb(100, 188, 97)"/><circle cx="511" cy="340" r="12.356076759061834" fill="rgb(100, 188, 97)"/><circle cx="585" cy="420" r="12.356076759061834" fill="rgb(100, 188, 97)"/><circle cx="622" cy="420" r="12.356076759061834" fill="rgb(100, 188, 97)"/><circle cx="659" cy="420" r="12.356076759061834" fill="rgb(100, 188, 97)"/><circle cx="289" cy="460" r="12.356076759061834" fill="rgb(100, 188, 97)"/><circle cx="326" cy="460" r="12.356076759061834" fill="rgb(100, 188, 97)"/><circle cx="363" cy="460" r="12.356076759061834" fill="rgb(100, 188, 97)"/><circle cx="585" cy="140" r="9.904051172707888" fill="rgb(164, 216, 110)"/><circle cx="622" cy="260" r="9.904051172707888" fill="rgb(164, 216, 110)"/><circle cx="585" cy="340" r="9.904051172707888" fill="rgb(164, 216, 110)"/><circle cx="437" cy="380" r="7.452025586353944" fill="rgb(215, 238, 142)"/></g><g aria-label="dot" fill="steelblue"><circle cx="141" cy="100" r="16.5" fill-opacity="1"/><circle cx="141" cy="180" r="15.862473347547972" fill-opacity="0.7815126050420164"/><circle cx="141" cy="220" r="15.862473347547972" fill-opacity="0.7815126050420164"/><circle cx="141" cy="140" r="15.862473347547972" fill-opacity="0.7815126050420164"/><circle cx="141" cy="260" r="15.690831556503198" fill-opacity="0.7226890756302521"/><circle cx="141" cy="300" r="15.359808102345415" fill-opacity="0.6092436974789911"/><circle cx="141" cy="340" r="15.065565031982942" fill-opacity="0.508403361344538"/><circle cx="141" cy="380" r="15.065565031982942" fill-opacity="0.508403361344538"/><circle cx="141" cy="420" r="15.016524520255862" fill-opacity="0.49159663865546205"/><circle cx="141" cy="460" r="14.391257995735607" fill-opacity="0.27731092436974786"/></g><g aria-label="text" fill="white" font-variant="tabular-nums"><text y="0.32em" transform="translate(141,100)">9.38</text><text y="0.32em" transform="translate(289,100)">5</text><text y="0.32em" transform="translate(326,100)">3.5</text><text y="0.32em" transform="translate(363,100)">5</text><text y="0.32em" transform="translate(400,100)">5</text><text y="0.32em" transform="translate(437,100)">4.5</text><text y="0.32em" transform="translate(474,100)">4.5</text><text y="0.32em" transform="translate(511,100)">4.5</text><text y="0.32em" transform="translate(548,100)">5</text><text y="0.32em" transform="translate(585,100)">5</text><text y="0.32em" transform="translate(622,100)">5</text><text y="0.32em" transform="translate(659,100)">5</text><text y="0.32em" transform="translate(215,100)">4.63</text><text y="0.32em" transform="translate(141,180)">8.86</text><text y="0.32em" transform="translate(289,180)">5</text><text y="0.32em" transform="translate(326,180)">4.5</text><text y="0.32em" transform="translate(363,180)">5</text><text y="0.32em" transform="translate(400,180)">4</text><text y="0.32em" transform="translate(437,180)">4.5</text><text y="0.32em" transform="translate(474,180)">4.5</text><text y="0.32em" transform="translate(511,180)">4</text><text y="0.32em" transform="translate(548,180)">4</text><text y="0.32em" transform="translate(585,180)">4</text><text y="0.32em" transform="translate(622,180)">4.5</text><text y="0.32em" transform="translate(659,180)">5</text><text y="0.32em" transform="translate(215,180)">4.44</text><text y="0.32em" transform="translate(141,220)">8.86</text><text y="0.32em" transform="translate(289,220)">3</text><text y="0.32em" transform="translate(326,220)">4.5</text><text y="0.32em" transform="translate(363,220)">4.5</text><text y="0.32em" transform="translate(400,220)">4.5</text><text y="0.32em" transform="translate(437,220)">4.5</text><text y="0.32em" transform="translate(474,220)">4.5</text><text y="0.32em" transform="translate(511,220)">4.5</text><text y="0.32em" transform="translate(548,220)">4.5</text><text y="0.32em" transform="translate(585,220)">5</text><text y="0.32em" transform="translate(622,220)">5</text><text y="0.32em" transform="translate(659,220)">5</text><text y="0.32em" transform="translate(215,220)">4.31</text><text y="0.32em" transform="translate(141,140)">8.86</text><text y="0.32em" transform="translate(289,140)">5</text><text y="0.32em" transform="translate(326,140)">5</text><text y="0.32em" transform="translate(363,140)">5</text><text y="0.32em" transform="translate(400,140)">5</text><text y="0.32em" transform="translate(437,140)">4</text><text y="0.32em" transform="translate(474,140)">4</text><text y="0.32em" transform="translate(511,140)">4</text><text y="0.32em" transform="translate(548,140)">5</text><text y="0.32em" transform="translate(585,140)">2</text><text y="0.32em" transform="translate(622,140)">4.5</text><text y="0.32em" transform="translate(659,140)">4.5</text><text y="0.32em" transform="translate(215,140)">4.63</text><text y="0.32em" transform="translate(141,260)">8.72</text><text y="0.32em" transform="translate(289,260)">4.5</text><text y="0.32em" transform="translate(326,260)">5</text><text y="0.32em" transform="translate(363,260)">4.5</text><text y="0.32em" transform="translate(400,260)">5</text><text y="0.32em" transform="translate(437,260)">5</text><text y="0.32em" transform="translate(474,260)">3</text><text y="0.32em" transform="translate(511,260)">4.5</text><text y="0.32em" transform="translate(548,260)">4.5</text><text y="0.32em" transform="translate(585,260)">5</text><text y="0.32em" transform="translate(622,260)">2</text><text y="0.32em" transform="translate(659,260)">4.5</text><text y="0.32em" transform="translate(215,260)">4.5</text><text y="0.32em" transform="translate(141,300)">8.45</text><text y="0.32em" transform="translate(289,300)">3</text><text y="0.32em" transform="translate(326,300)">4</text><text y="0.32em" transform="translate(363,300)">5</text><text y="0.32em" transform="translate(400,300)">4</text><text y="0.32em" transform="translate(437,300)">4.5</text><text y="0.32em" transform="translate(474,300)">4.5</text><text y="0.32em" transform="translate(511,300)">4.5</text><text y="0.32em" transform="translate(548,300)">4</text><text y="0.32em" transform="translate(585,300)">4.5</text><text y="0.32em" transform="translate(622,300)">4</text><text y="0.32em" transform="translate(659,300)">5</text><text y="0.32em" transform="translate(215,300)">4.19</text><text y="0.32em" transform="translate(141,340)">8.21</text><text y="0.32em" transform="translate(289,340)">5</text><text y="0.32em" transform="translate(326,340)">5</text><text y="0.32em" transform="translate(363,340)">4.5</text><text y="0.32em" transform="translate(400,340)">4</text><text y="0.32em" transform="translate(437,340)">4</text><text y="0.32em" transform="translate(474,340)">4</text><text y="0.32em" transform="translate(511,340)">3</text><text y="0.32em" transform="translate(548,340)">4.5</text><text y="0.32em" transform="translate(585,340)">2</text><text y="0.32em" transform="translate(622,340)">4</text><text y="0.32em" transform="translate(659,340)">5</text><text y="0.32em" transform="translate(215,340)">4.25</text><text y="0.32em" transform="translate(141,380)">8.21</text><text y="0.32em" transform="translate(289,380)">4.5</text><text y="0.32em" transform="translate(326,380)">4.5</text><text y="0.32em" transform="translate(363,380)">4.5</text><text y="0.32em" transform="translate(400,380)">4.5</text><text y="0.32em" transform="translate(437,380)">1</text><text y="0.32em" transform="translate(474,380)">4</text><text y="0.32em" transform="translate(511,380)">5</text><text y="0.32em" transform="translate(548,380)">4</text><text y="0.32em" transform="translate(585,380)">4</text><text y="0.32em" transform="translate(622,380)">5</text><text y="0.32em" transform="translate(659,380)">5</text><text y="0.32em" transform="translate(215,380)">4</text><text y="0.32em" transform="translate(141,420)">8.17</text><text y="0.32em" transform="translate(289,420)">4</text><text y="0.32em" transform="translate(326,420)">4.5</text><text y="0.32em" transform="translate(363,420)">4</text><text y="0.32em" transform="translate(400,420)">4.5</text><text y="0.32em" transform="translate(437,420)">4.5</text><text y="0.32em" transform="translate(474,420)">4.5</text><text y="0.32em" transform="translate(511,420)">4.5</text><text y="0.32em" transform="translate(548,420)">4</text><text y="0.32em" transform="translate(585,420)">3</text><text y="0.32em" transform="translate(622,420)">3</text><text y="0.32em" transform="translate(659,420)">3</text><text y="0.32em" transform="translate(215,420)">4.31</text><text y="0.32em" transform="translate(141,460)">7.66</text><text y="0.32em" transform="translate(289,460)">3</text><text y="0.32em" transform="translate(326,460)">3</text><text y="0.32em" transform="translate(363,460)">3</text><text y="0.32em" transform="translate(400,460)">4.5</text><text y="0.32em" transform="translate(437,460)">4</text><text y="0.32em" transform="translate(474,460)">4</text><text y="0.32em" transform="translate(511,460)">4.5</text><text y="0.32em" transform="translate(548,460)">4</text><text y="0.32em" transform="translate(585,460)">4</text><text y="0.32em" transform="translate(622,460)">4.5</text><text y="0.32em" transform="translate(659,460)">4</text><text y="0.32em" transform="translate(215,460)">3.75</text></g></svg>