<svg width="641" height="368">
  <clipPath id="a">
    <path d="M-1-1h643v370H-1z"/>
  </clipPath>
  <g class="wj-header" clip-path="url(#a)"/>
  <g class="wj-footer" clip-path="url(#a)"/>
  <path fill="transparent" class="wj-plot-area" d="M73 16.5h541V300H73z"/>
  <g class="wj-axis-x" clip-path="url(#a)">
    <text x="18" y="334.6" fill="#666" class="wj-label" transform="rotate(-45 46.8 329.3)">Jan 2013</text>
    <path stroke="#666" class="wj-tick" d="M73 300v4"/>
    <text x="104.1" y="335.2" fill="#666" class="wj-label" transform="rotate(-45 133.8 330)">Mar 2013</text>
    <path stroke="#666" class="wj-tick" d="M160.7 300v4"/>
    <text x="192.7" y="336.1" fill="#666" class="wj-label" transform="rotate(-45 223.6 330.8)">May 2013</text>
    <path stroke="#666" class="wj-tick" d="M251.3 300v4"/>
    <text x="290.7" y="333" fill="#666" class="wj-label" transform="rotate(-45 317.3 327.8)">Jul 2013</text>
    <path stroke="#666" class="wj-tick" d="M341.9 300v4"/>
    <text x="377.1" y="335.4" fill="#666" class="wj-label" transform="rotate(-45 407.1 330.1)">Sep 2013</text>
    <path stroke="#666" class="wj-tick" d="M434.1 300v4"/>
    <text x="467.5" y="335.5" fill="#666" class="wj-label" transform="rotate(-45 497.6 330.2)">Nov 2013</text>
    <path stroke="#666" class="wj-tick" d="M524.7 300v4"/>
    <path stroke="#666" class="wj-line" d="M73 300h541"/>
  </g>
  <g class="wj-axis-y" clip-path="url(#a)">
    <path stroke="#666" class="wj-gridline" d="M73 282.8h541"/>
    <text x="46.7" y="288" fill="#666" class="wj-label">-5</text>
    <path stroke="#666" class="wj-gridline" d="M73 239.8h541"/>
    <text x="52.2" y="245.1" fill="#666" class="wj-label">0</text>
    <path stroke="#666" class="wj-gridline" d="M73 196.9h541"/>
    <text x="52.2" y="202.1" fill="#666" class="wj-label">5</text>
    <path stroke="#666" class="wj-gridline" d="M73 153.9h541"/>
    <text x="44.4" y="159.2" fill="#666" class="wj-label">10</text>
    <path stroke="#666" class="wj-gridline" d="M73 111h541"/>
    <text x="44.4" y="116.2" fill="#666" class="wj-label">15</text>
    <path stroke="#666" class="wj-gridline" d="M73 68h541"/>
    <text x="44.4" y="73.3" fill="#666" class="wj-label">20</text>
    <path stroke="#666" class="wj-gridline" d="M73 25.1h541"/>
    <text x="44.4" y="30.3" fill="#666" class="wj-label">25</text>
    <text x="-42.1" y="163.5" fill="#666" class="wj-title" transform="rotate(-90 8.3 158.2)">Temperature(°C)</text>
  </g>
  <g clip-path="url(#b)" class="wj-series-group">
    <path fill="rgba(42,159,214,0.7)" clip-path="url(#b)" d="M73 179.7h1.5l1.4-17.2h1.5l1.5 8.6h1.5l1.5 8.6 1.5-8.6 1.5 17.2 1.5 17.2 1.4 34.3 1.5-8.6 1.5 17.2 1.5 25.8 1.5-17.2 1.5 34.4 1.5 8.6 1.4-34.4 1.5 8.6h1.5l1.5-8.6 1.5 17.2 1.5 8.6 1.5-17.2 1.4 17.2 1.5-34.4 1.5-34.3 1.5-17.2 1.5-43 1.5-8.6 1.5 17.2 1.5 34.4h2.9l1.5-34.4 1.5 43 1.5 8.6h3l1.4 25.7h6l1.5-8.6 1.5-25.7 1.4-25.8 1.5 17.2 1.5 17.2h1.5l1.5 17.1 1.5 8.6h1.5l1.4 8.6 1.5-17.2 1.5-17.1h1.5l1.5 8.5h1.5l1.5-17.1h1.5l1.4-8.6h1.5l1.5-43 1.5-8.6 1.5 8.6h1.5l1.5 51.6 1.4 25.7 1.5 17.2h1.5l1.4-17.2 1.5 8.6h1.5l1.5-42.9 1.5-17.2h1.5l1.5 25.8 1.4 17.1h1.5l1.5 8.6h1.5l1.5 8.6 1.5-17.2h2.9l1.5 8.6h1.5l1.5-8.6 1.5-8.5h1.5l1.5-8.6 1.5-8.6 1.4 17.2 1.5-25.8h1.5l1.5 8.6 1.5-17.2 1.5-8.6 1.5 25.8h1.4l1.5-34.4 1.5-8.6 1.5-60.1 1.5 34.4 1.5 8.5 1.5-17.1 1.4 8.6 1.5 34.3 1.5 17.2 1.5-17.2 1.5 8.6 1.5-42.9h1.5l1.5-17.2 1.4 60.1h1.5l1.5 8.6 1.5-17.2h1.5l1.5-8.6 1.5-17.2 1.4-8.5 1.5 8.5 1.5-8.5 1.5-17.2 1.5-25.8h1.5l1.5 43h1.4l1.5 8.5 1.5 17.2 1.5-17.2 1.5 17.2 1.5-25.7 1.5 34.3 1.4-8.6 1.5-8.6h1.5l1.5-8.6 1.5 8.6 1.5 8.6 1.5 8.6h1.5l1.4 8.6 1.5-25.8 1.5-8.6 1.5-25.7 1.5 17.2 1.5-17.2 1.5-8.6 1.4 34.3h3l1.5-17.1 1.5-25.8 1.5-8.6h1.5l1.4 25.8 1.5 17.2h1.5l1.5-25.8 1.5-25.8 1.5 17.2h1.5l1.5 17.2h1.4l1.5-17.2 1.5-51.5 1.5 8.5 1.5 17.2 1.5 25.8h2.9l1.5 17.2 1.5 8.6 1.5 8.6h1.5l1.5-8.6h1.5l1.4-8.6 1.5-17.2h1.5l1.5-8.6 1.5-8.6h1.5l1.5-8.6h2.9l1.5 8.6 1.5 17.2 1.5 8.6h1.5l1.5-17.2h1.5l1.4-8.6h1.5l1.5-8.6 1.5-17.2h1.5l1.5 17.2 1.5-25.7 1.4-17.2h1.5l1.5 17.2 1.5 8.5h4.5l1.4 8.6 1.5 17.2 1.5-8.6 1.5-42.9 1.5-17.2 1.5 60.1h1.5l1.5-17.2 1.4 25.8 1.5 17.2 1.5-8.6 1.5-8.6 1.5 17.2 1.5-8.6h1.5l1.4 8.6h1.5l1.5-8.6 1.5-25.8 1.5-8.6 1.5 17.2 1.5 8.6 1.4 8.6 1.5-8.6 1.5 8.6 1.5-25.8h1.5l1.5 8.6h1.5l1.4 8.6h1.5l1.5 8.6 1.5-8.6 1.5 17.2 1.5 17.2 1.5-25.8 1.5-17.2h1.4l1.5-25.7 1.5 17.1 1.5 25.8 1.5 17.2 1.5 17.2h1.5l1.4-17.2 1.5-8.6 1.5 25.8 1.5-17.2 1.5 17.2 1.5 8.6 1.5 8.5 1.4-8.5 1.5 8.5 1.5-17.1h1.5l1.5-34.4h1.5l1.5 25.8h1.5l1.4 8.6 1.5 17.1 1.5-8.5 1.5-8.6 1.5 8.6 1.5 17.1h1.5l1.4-17.1 1.5-43 1.5 8.6 1.5 25.8 1.5 8.6 1.5-8.6 1.5 8.6 1.4 25.7h1.5l1.5 8.6h1.5l1.5-8.6 1.5 8.6 1.5-8.6 1.4-25.7 1.5 17.1 1.5-17.1 1.5-17.2h1.5l1.5-25.8 1.5 8.6 1.5 42.9 1.4-8.5 1.5-34.4 1.5 17.2h1.5l1.5 25.7 1.5 8.6h1.5l1.4-8.6h1.5l1.5 17.2h1.6l1.4 17.2 1.5-34.4 1.5 8.6 1.5 25.8 1.5-8.6 1.5 8.6 1.5 17.2 1.5-25.8 1.4 8.6h3l1.5 25.8 1.5-34.4 1.5 17.2 1.5 17.2 1.4 17.2 1.5-8.6h1.5l1.5-17.2 1.5-8.6 1.5 17.2 1.5-17.2 1.4-8.6 1.5-8.6 1.5 8.6 1.5 8.6h1.5l1.5 17.2 1.5 17.2 1.5-34.4h1.4l1.5 25.8 1.5-25.8 1.5-17.2 1.5-8.6 1.5 51.6 1.5 8.6h2.9l1.5-34.4 1.5-8.6 1.5-25.8 1.5 43 1.5-17.2 1.4 8.6h1.5l1.5-8.6 1.5-8.6 1.5 8.6 1.5-17.2 1.5 25.8 1.4 17.2 1.5-17.2 1.5-8.6 1.5 17.2 1.5 8.6 1.5-25.8V300H73z"/>
    <path stroke="#2a9fd6" stroke-width="2" stroke-linejoin="round" fill="none" clip-path="url(#b)" d="M73 179.7h1.5l1.4-17.2h1.5l1.5 8.6h1.5l1.5 8.6 1.5-8.6 1.5 17.2 1.5 17.2 1.4 34.3 1.5-8.6 1.5 17.2 1.5 25.8 1.5-17.2 1.5 34.4 1.5 8.6 1.4-34.4 1.5 8.6h1.5l1.5-8.6 1.5 17.2 1.5 8.6 1.5-17.2 1.4 17.2 1.5-34.4 1.5-34.3 1.5-17.2 1.5-43 1.5-8.6 1.5 17.2 1.5 34.4h2.9l1.5-34.4 1.5 43 1.5 8.6h3l1.4 25.7h6l1.5-8.6 1.5-25.7 1.4-25.8 1.5 17.2 1.5 17.2h1.5l1.5 17.1 1.5 8.6h1.5l1.4 8.6 1.5-17.2 1.5-17.1h1.5l1.5 8.5h1.5l1.5-17.1h1.5l1.4-8.6h1.5l1.5-43 1.5-8.6 1.5 8.6h1.5l1.5 51.6 1.4 25.7 1.5 17.2h1.5l1.4-17.2 1.5 8.6h1.5l1.5-42.9 1.5-17.2h1.5l1.5 25.8 1.4 17.1h1.5l1.5 8.6h1.5l1.5 8.6 1.5-17.2h2.9l1.5 8.6h1.5l1.5-8.6 1.5-8.5h1.5l1.5-8.6 1.5-8.6 1.4 17.2 1.5-25.8h1.5l1.5 8.6 1.5-17.2 1.5-8.6 1.5 25.8h1.4l1.5-34.4 1.5-8.6 1.5-60.1 1.5 34.4 1.5 8.5 1.5-17.1 1.4 8.6 1.5 34.3 1.5 17.2 1.5-17.2 1.5 8.6 1.5-42.9h1.5l1.5-17.2 1.4 60.1h1.5l1.5 8.6 1.5-17.2h1.5l1.5-8.6 1.5-17.2 1.4-8.5 1.5 8.5 1.5-8.5 1.5-17.2 1.5-25.8h1.5l1.5 43h1.4l1.5 8.5 1.5 17.2 1.5-17.2 1.5 17.2 1.5-25.7 1.5 34.3 1.4-8.6 1.5-8.6h1.5l1.5-8.6 1.5 8.6 1.5 8.6 1.5 8.6h1.5l1.4 8.6 1.5-25.8 1.5-8.6 1.5-25.7 1.5 17.2 1.5-17.2 1.5-8.6 1.4 34.3h3l1.5-17.1 1.5-25.8 1.5-8.6h1.5l1.4 25.8 1.5 17.2h1.5l1.5-25.8 1.5-25.8 1.5 17.2h1.5l1.5 17.2h1.4l1.5-17.2 1.5-51.5 1.5 8.5 1.5 17.2 1.5 25.8h2.9l1.5 17.2 1.5 8.6 1.5 8.6h1.5l1.5-8.6h1.5l1.4-8.6 1.5-17.2h1.5l1.5-8.6 1.5-8.6h1.5l1.5-8.6h2.9l1.5 8.6 1.5 17.2 1.5 8.6h1.5l1.5-17.2h1.5l1.4-8.6h1.5l1.5-8.6 1.5-17.2h1.5l1.5 17.2 1.5-25.7 1.4-17.2h1.5l1.5 17.2 1.5 8.5h4.5l1.4 8.6 1.5 17.2 1.5-8.6 1.5-42.9 1.5-17.2 1.5 60.1h1.5l1.5-17.2 1.4 25.8 1.5 17.2 1.5-8.6 1.5-8.6 1.5 17.2 1.5-8.6h1.5l1.4 8.6h1.5l1.5-8.6 1.5-25.8 1.5-8.6 1.5 17.2 1.5 8.6 1.4 8.6 1.5-8.6 1.5 8.6 1.5-25.8h1.5l1.5 8.6h1.5l1.4 8.6h1.5l1.5 8.6 1.5-8.6 1.5 17.2 1.5 17.2 1.5-25.8 1.5-17.2h1.4l1.5-25.7 1.5 17.1 1.5 25.8 1.5 17.2 1.5 17.2h1.5l1.4-17.2 1.5-8.6 1.5 25.8 1.5-17.2 1.5 17.2 1.5 8.6 1.5 8.5 1.4-8.5 1.5 8.5 1.5-17.1h1.5l1.5-34.4h1.5l1.5 25.8h1.5l1.4 8.6 1.5 17.1 1.5-8.5 1.5-8.6 1.5 8.6 1.5 17.1h1.5l1.4-17.1 1.5-43 1.5 8.6 1.5 25.8 1.5 8.6 1.5-8.6 1.5 8.6 1.4 25.7h1.5l1.5 8.6h1.5l1.5-8.6 1.5 8.6 1.5-8.6 1.4-25.7 1.5 17.1 1.5-17.1 1.5-17.2h1.5l1.5-25.8 1.5 8.6 1.5 42.9 1.4-8.5 1.5-34.4 1.5 17.2h1.5l1.5 25.7 1.5 8.6h1.5l1.4-8.6h1.5l1.5 17.2h1.6l1.4 17.2 1.5-34.4 1.5 8.6 1.5 25.8 1.5-8.6 1.5 8.6 1.5 17.2 1.5-25.8 1.4 8.6h3l1.5 25.8 1.5-34.4 1.5 17.2 1.5 17.2 1.4 17.2 1.5-8.6h1.5l1.5-17.2 1.5-8.6 1.5 17.2 1.5-17.2 1.4-8.6 1.5-8.6 1.5 8.6 1.5 8.6h1.5l1.5 17.2 1.5 17.2 1.5-34.4h1.4l1.5 25.8 1.5-25.8 1.5-17.2 1.5-8.6 1.5 51.6 1.5 8.6h2.9l1.5-34.4 1.5-8.6 1.5-25.8 1.5 43 1.5-17.2 1.4 8.6h1.5l1.5-8.6 1.5-8.6 1.5 8.6 1.5-17.2 1.5 25.8 1.4 17.2 1.5-17.2 1.5-8.6 1.5 17.2 1.5 8.6 1.5-25.8"/>
  </g>
  <clipPath id="b">
    <path d="M72 15.5h543V301H72z"/>
  </clipPath>
</svg>
