<svg xmlns:xlink="http://www.w3.org/1999/xlink" version="1.1" class="highcharts-root" style="font-family:&quot;Lucida Grande&quot;, &quot;Lucida Sans Unicode&quot;, Arial, Helvetica, sans-serif;font-size:12px;" xmlns="http://www.w3.org/2000/svg" width="600" height="400" viewBox="0 0 600 400"><desc>Created with Highcharts 7.0.3</desc><defs><clipPath id="highcharts-8a1cl4z-17"><rect x="0" y="0" width="486" height="286" fill="none"></rect></clipPath></defs><rect fill="none" class="highcharts-background highcharts-shadow" stroke="#000000" stroke-opacity="0.049999999999999996" stroke-width="5" transform="translate(1, 1)" x="4" y="4" width="592" height="392" rx="0" ry="0"></rect><rect fill="none" class="highcharts-background highcharts-shadow" stroke="#000000" stroke-opacity="0.09999999999999999" stroke-width="3" transform="translate(1, 1)" x="4" y="4" width="592" height="392" rx="0" ry="0"></rect><rect fill="none" class="highcharts-background highcharts-shadow" stroke="#000000" stroke-opacity="0.15" stroke-width="1" transform="translate(1, 1)" x="4" y="4" width="592" height="392" rx="0" ry="0"></rect><rect fill="#FFFFFF" class="highcharts-background" x="4" y="4" width="592" height="392" rx="0" ry="0"></rect><rect fill="none" class="highcharts-plot-background" x="104" y="62" width="486" height="286"></rect><g class="highcharts-pane-group" data-z-index="0"></g><g class="highcharts-grid highcharts-xaxis-grid " data-z-index="1"><path fill="none" data-z-index="1" class="highcharts-grid-line" d="M 152.5 62 L 152.5 348" opacity="1"></path><path fill="none" data-z-index="1" class="highcharts-grid-line" d="M 249.5 62 L 249.5 348" opacity="1"></path><path fill="none" data-z-index="1" class="highcharts-grid-line" d="M 346.5 62 L 346.5 348" opacity="1"></path><path fill="none" data-z-index="1" class="highcharts-grid-line" d="M 443.5 62 L 443.5 348" opacity="1"></path><path fill="none" data-z-index="1" class="highcharts-grid-line" d="M 540.5 62 L 540.5 348" opacity="1"></path></g><g class="highcharts-grid highcharts-yaxis-grid " data-z-index="1"><path fill="none" data-z-index="1" class="highcharts-grid-line" d="M 104 348.5 L 590 348.5" opacity="1"></path><path fill="none" data-z-index="1" class="highcharts-grid-line" d="M 104 291.5 L 590 291.5" opacity="1"></path><path fill="none" data-z-index="1" class="highcharts-grid-line" d="M 104 234.5 L 590 234.5" opacity="1"></path><path fill="none" data-z-index="1" class="highcharts-grid-line" d="M 104 176.5 L 590 176.5" opacity="1"></path><path fill="none" data-z-index="1" class="highcharts-grid-line" d="M 104 119.5 L 590 119.5" opacity="1"></path><path fill="none" data-z-index="1" class="highcharts-grid-line" d="M 104 62.5 L 590 62.5" opacity="1"></path></g><rect fill="none" class="highcharts-plot-border" data-z-index="1" x="104" y="62" width="486" height="286"></rect><g class="highcharts-axis highcharts-xaxis " data-z-index="2"><path fill="none" class="highcharts-tick" stroke="#ccd6eb" stroke-width="1" d="M 152.5 348 L 152.5 358" opacity="1"></path><path fill="none" class="highcharts-tick" stroke="#ccd6eb" stroke-width="1" d="M 249.5 348 L 249.5 358" opacity="1"></path><path fill="none" class="highcharts-tick" stroke="#ccd6eb" stroke-width="1" d="M 346.5 348 L 346.5 358" opacity="1"></path><path fill="none" class="highcharts-tick" stroke="#ccd6eb" stroke-width="1" d="M 443.5 348 L 443.5 358" opacity="1"></path><path fill="none" class="highcharts-tick" stroke="#ccd6eb" stroke-width="1" d="M 540.5 348 L 540.5 358" opacity="1"></path><path fill="none" class="highcharts-axis-line" stroke="#ccd6eb" stroke-width="1" data-z-index="7" d="M 104 348.5 L 590 348.5"></path></g><g class="highcharts-axis highcharts-yaxis " data-z-index="2"><text x="24.3046875" data-z-index="7" text-anchor="middle" transform="translate(0,0) rotate(270 24.3046875 205)" class="highcharts-axis-title" style="color:#666666;fill:#666666;" y="205"><tspan>Income</tspan></text><path fill="none" class="highcharts-axis-line" data-z-index="7" d="M 104 62 L 104 348"></path></g><g class="highcharts-series-group" data-z-index="3"><g data-z-index="0.1" class="highcharts-series highcharts-series-0 highcharts-area-series highcharts-color-0 " transform="translate(104,62) scale(1 1)" clip-path="url(#highcharts-8a1cl4z-17)"><path fill="rgb(124,181,236)" fill-opacity="0.75" d="M 48.6 57.20000000000002 L 145.8 251.68 L 243 199.056 L 340.2 217.36 L 437.4 205.92000000000002 L 437.4 286 L 340.2 286 L 243 286 L 145.8 286 L 48.6 286" class="highcharts-area" data-z-index="0"></path><path fill="none" d="M 48.6 57.20000000000002 L 145.8 251.68 L 243 199.056 L 340.2 217.36 L 437.4 205.92000000000002" class="highcharts-graph" data-z-index="1" stroke="#7cb5ec" stroke-width="2" stroke-linejoin="round" stroke-linecap="round"></path></g><g data-z-index="0.1" class="highcharts-markers highcharts-series-0 highcharts-area-series highcharts-color-0 " transform="translate(104,62) scale(1 1)" clip-path="none"><path fill="#7cb5ec" d="M 52 57 A 4 4 0 1 1 51.99999800000017 56.99600000066666 Z" class="highcharts-point highcharts-color-0"></path><path fill="#7cb5ec" d="M 149 252 A 4 4 0 1 1 148.99999800000018 251.99600000066667 Z" class="highcharts-point highcharts-color-0"></path><path fill="#7cb5ec" d="M 247 199 A 4 4 0 1 1 246.99999800000018 198.99600000066667 Z" class="highcharts-point highcharts-color-0"></path><path fill="#7cb5ec" d="M 344 217 A 4 4 0 1 1 343.9999980000002 216.99600000066667 Z" class="highcharts-point highcharts-color-0"></path><path fill="#7cb5ec" d="M 441 206 A 4 4 0 1 1 440.9999980000002 205.99600000066667 Z" class="highcharts-point highcharts-color-0"></path></g><g data-z-index="0.1" class="highcharts-series highcharts-series-1 highcharts-area-series highcharts-color-1 " transform="translate(104,62) scale(1 1)" clip-path="url(#highcharts-8a1cl4z-17)"><path fill="rgb(67,67,72)" fill-opacity="0.75" d="M 48.6 125.84 L 145.8 228.8 L 243 183.04000000000002 L 340.2 217.36 L 437.4 171.60000000000002 L 437.4 286 L 340.2 286 L 243 286 L 145.8 286 L 48.6 286" class="highcharts-area" data-z-index="0"></path><path fill="none" d="M 48.6 125.84 L 145.8 228.8 L 243 183.04000000000002 L 340.2 217.36 L 437.4 171.60000000000002" class="highcharts-graph" data-z-index="1" stroke="#434348" stroke-width="2" stroke-linejoin="round" stroke-linecap="round"></path></g><g data-z-index="0.1" class="highcharts-markers highcharts-series-1 highcharts-area-series highcharts-color-1 " transform="translate(104,62) scale(1 1)" clip-path="none"><path fill="#434348" d="M 48 122 L 52 126 48 130 44 126 Z" class="highcharts-point highcharts-color-1"></path><path fill="#434348" d="M 145 225 L 149 229 145 233 141 229 Z" class="highcharts-point highcharts-color-1"></path><path fill="#434348" d="M 243 179 L 247 183 243 187 239 183 Z" class="highcharts-point highcharts-color-1"></path><path fill="#434348" d="M 340 213 L 344 217 340 221 336 217 Z" class="highcharts-point highcharts-color-1"></path><path fill="#434348" d="M 437 168 L 441 172 437 176 433 172 Z" class="highcharts-point highcharts-color-1"></path></g></g><text x="300" text-anchor="middle" class="highcharts-title" data-z-index="4" style="color:#625791;font-size:18px;fill:#625791;" y="24"><tspan>Income Per Year</tspan></text><text x="300" text-anchor="middle" class="highcharts-subtitle" data-z-index="4" style="color:#bda2a2;fill:#bda2a2;" y="46"><tspan>USA and UK</tspan></text><g class="highcharts-legend" data-z-index="7" transform="translate(528,178)"><rect fill="none" class="highcharts-legend-box" rx="0" ry="0" stroke="#999999" stroke-width="1" x="0.5" y="0.5" width="60" height="38" visibility="visible"></rect><g data-z-index="1"><g><g class="highcharts-legend-item highcharts-area-series highcharts-color-0 highcharts-series-0" data-z-index="1" transform="translate(8,3)"><text x="21" style="color:#333333;cursor:pointer;font-size:12px;font-weight:bold;fill:#333333;" text-anchor="start" data-z-index="2" y="15"><tspan>UK</tspan></text><rect x="2" y="4" width="12" height="12" fill="#7cb5ec" rx="6" ry="6" class="highcharts-point" data-z-index="3"></rect></g><g class="highcharts-legend-item highcharts-area-series highcharts-color-1 highcharts-series-1" data-z-index="1" transform="translate(8,17)"><text x="21" y="15" style="color:#333333;cursor:pointer;font-size:12px;font-weight:bold;fill:#333333;" text-anchor="start" data-z-index="2"><tspan>USA</tspan></text><rect x="2" y="4" width="12" height="12" fill="#434348" rx="6" ry="6" class="highcharts-point" data-z-index="3"></rect></g></g></g></g><g class="highcharts-axis-labels highcharts-xaxis-labels " data-z-index="7"><text x="155.19272486435068" style="color:#666666;cursor:default;font-size:11px;font-size:11px;font-weight:normal;fill:#666666;" text-anchor="end" transform="translate(0,0) rotate(-45 155.19272486435068 364)" y="364" opacity="1">2013</text><text x="252.3927248643507" style="color:#666666;cursor:default;font-size:11px;font-size:11px;font-weight:normal;fill:#666666;" text-anchor="end" transform="translate(0,0) rotate(-45 252.3927248643507 364)" y="364" opacity="1">2014</text><text x="349.59272486435066" style="color:#666666;cursor:default;font-size:11px;font-size:11px;font-weight:normal;fill:#666666;" text-anchor="end" transform="translate(0,0) rotate(-45 349.59272486435066 364)" y="364" opacity="1">2015</text><text x="446.79272486435065" style="color:#666666;cursor:default;font-size:11px;font-size:11px;font-weight:normal;fill:#666666;" text-anchor="end" transform="translate(0,0) rotate(-45 446.79272486435065 364)" y="364" opacity="1">2016</text><text x="543.9927248643506" style="color:#666666;cursor:default;font-size:11px;font-size:11px;font-weight:normal;fill:#666666;" text-anchor="end" transform="translate(0,0) rotate(-45 543.9927248643506 364)" y="364" opacity="1">2017</text></g><g class="highcharts-axis-labels highcharts-yaxis-labels " data-z-index="7"><text x="89" style="color:#666666;cursor:default;font-size:11px;font-size:11px;font-weight:normal;fill:#666666;" text-anchor="end" transform="translate(0,0)" y="353" opacity="1"><tspan>$ 0.0 M</tspan></text><text x="89" style="color:#666666;cursor:default;font-size:11px;font-size:11px;font-weight:normal;fill:#666666;" text-anchor="end" transform="translate(0,0)" y="295" opacity="1"><tspan>$ 25.0 M</tspan></text><text x="89" style="color:#666666;cursor:default;font-size:11px;font-size:11px;font-weight:normal;fill:#666666;" text-anchor="end" transform="translate(0,0)" y="238" opacity="1"><tspan>$ 50.0 M</tspan></text><text x="89" style="color:#666666;cursor:default;font-size:11px;font-size:11px;font-weight:normal;fill:#666666;" text-anchor="end" transform="translate(0,0)" y="181" opacity="1"><tspan>$ 75.0 M</tspan></text><text x="89" style="color:#666666;cursor:default;font-size:11px;font-size:11px;font-weight:normal;fill:#666666;" text-anchor="end" transform="translate(0,0)" y="124" opacity="1"><tspan>$ 100.0 M</tspan></text><text x="89" style="color:#666666;cursor:default;font-size:11px;font-size:11px;font-weight:normal;fill:#666666;" text-anchor="end" transform="translate(0,0)" y="67" opacity="1"><tspan>$ 125.0 M</tspan></text></g></svg>