<svg version="1.1" class="highcharts-root" style="font-family: Roboto; font-size: 12px;" xmlns="http://www.w3.org/2000/svg" width="650" height="400" viewBox="0 0 650 400" aria-hidden="false" aria-label="Interactive chart"><defs aria-hidden="true"><clipPath id="highcharts-igzvbr8-1-"><rect x="0" y="0" width="598" height="281" fill="none"></rect></clipPath><clipPath id="highcharts-igzvbr8-8-"><rect x="0" y="0" width="598" height="281" fill="none"></rect></clipPath></defs><rect fill="#ffffff" class="highcharts-background" x="0" y="0" width="650" height="400" rx="0" ry="0" aria-hidden="true"></rect><rect fill="none" class="highcharts-plot-background" x="42" y="45" width="598" height="281" aria-hidden="true"></rect><g class="highcharts-pane-group" data-z-index="0" aria-hidden="true"></g><rect fill="none" class="highcharts-plot-border" data-z-index="1" x="42" y="45" width="598" height="281" aria-hidden="true"></rect><g class="highcharts-grid highcharts-xaxis-grid" data-z-index="1" aria-hidden="true"><path fill="none" stroke-dasharray="none" data-z-index="1" class="highcharts-grid-line" d="M 141.5 45 L 141.5 326" opacity="1"></path><path fill="none" stroke-dasharray="none" data-z-index="1" class="highcharts-grid-line" d="M 240.5 45 L 240.5 326" opacity="1"></path><path fill="none" stroke-dasharray="none" data-z-index="1" class="highcharts-grid-line" d="M 340.5 45 L 340.5 326" opacity="1"></path><path fill="none" stroke-dasharray="none" data-z-index="1" class="highcharts-grid-line" d="M 440.5 45 L 440.5 326" opacity="1"></path><path fill="none" stroke-dasharray="none" data-z-index="1" class="highcharts-grid-line" d="M 539.5 45 L 539.5 326" opacity="1"></path><path fill="none" stroke-dasharray="none" data-z-index="1" class="highcharts-grid-line" d="M 639.5 45 L 639.5 326" opacity="1"></path><path fill="none" stroke-dasharray="none" data-z-index="1" class="highcharts-grid-line" d="M 41.5 45 L 41.5 326" opacity="1"></path></g><g class="highcharts-grid highcharts-yaxis-grid" data-z-index="1" aria-hidden="true"><path fill="none" stroke="#e6e6e6" stroke-width="1" stroke-dasharray="none" data-z-index="1" class="highcharts-grid-line" d="M 42 326.5 L 640 326.5" opacity="1"></path><path fill="none" stroke="#e6e6e6" stroke-width="1" stroke-dasharray="none" data-z-index="1" class="highcharts-grid-line" d="M 42 44.5 L 640 44.5" opacity="1"></path><path fill="none" stroke="#e6e6e6" stroke-width="1" stroke-dasharray="none" data-z-index="1" class="highcharts-grid-line" d="M 42 256.5 L 640 256.5" opacity="1"></path><path fill="none" stroke="#e6e6e6" stroke-width="1" stroke-dasharray="none" data-z-index="1" class="highcharts-grid-line" d="M 42 186.5 L 640 186.5" opacity="1"></path><path fill="none" stroke="#e6e6e6" stroke-width="1" stroke-dasharray="none" data-z-index="1" class="highcharts-grid-line" d="M 42 115.5 L 640 115.5" opacity="1"></path></g><g class="highcharts-axis highcharts-xaxis" data-z-index="2" aria-hidden="true"><path fill="none" class="highcharts-axis-line" stroke="#ccd6eb" stroke-width="1" data-z-index="7" d="M 42 326.5 L 640 326.5"></path></g><g class="highcharts-axis highcharts-yaxis" data-z-index="2" aria-hidden="true"><path fill="none" class="highcharts-axis-line" data-z-index="7" d="M 42 45 L 42 326"></path></g><g class="highcharts-series-group" data-z-index="3" aria-hidden="false"><g class="highcharts-series highcharts-series-0 highcharts-areaspline-series" data-z-index="0.1" opacity="1" transform="translate(42,45) scale(1 1)" clip-path="url(#highcharts-igzvbr8-8-)" aria-hidden="true"><path fill="rgba(111,88,233,0.35)" d="M 49.833333333333 171.41 C 49.833333333333 171.41 109.63333333333321 205.13 149.5 205.13 C 189.366666666664 205.13 209.299999999996 87.11000000000001 249.16666666666 73.06 C 289.033333333328 59.00999999999999 308.96666666666204 59.00999999999999 348.83333333333 59.00999999999999 C 388.699999999998 59.00999999999999 408.633333333332 224.8 448.5 224.8 C 488.36666666666406 224.8 548.16666666666 19.670000000000016 548.16666666666 19.670000000000016 L 548.16666666666 281 C 548.16666666666 281 488.36666666666406 281 448.5 281 C 408.633333333332 281 388.699999999998 281 348.83333333333 281 C 308.96666666666204 281 289.033333333328 281 249.16666666666 281 C 209.299999999996 281 189.366666666664 281 149.5 281 C 109.63333333333321 281 49.833333333333 281 49.833333333333 281 Z" class="highcharts-area" data-z-index="0"></path><path fill="none" d="M 49.833333333333 171.41 C 49.833333333333 171.41 109.63333333333321 205.13 149.5 205.13 C 189.366666666664 205.13 209.299999999996 87.11000000000001 249.16666666666 73.06 C 289.033333333328 59.00999999999999 308.96666666666204 59.00999999999999 348.83333333333 59.00999999999999 C 388.699999999998 59.00999999999999 408.633333333332 224.8 448.5 224.8 C 488.36666666666406 224.8 548.16666666666 19.670000000000016 548.16666666666 19.670000000000016" class="highcharts-graph" data-z-index="1" stroke="#6f58e9" stroke-width="2" stroke-linejoin="round" stroke-linecap="round"></path><path fill="none" d="M 49.833333333333 171.41 C 49.833333333333 171.41 109.63333333333321 205.13 149.5 205.13 C 189.366666666664 205.13 209.299999999996 87.11000000000001 249.16666666666 73.06 C 289.033333333328 59.00999999999999 308.96666666666204 59.00999999999999 348.83333333333 59.00999999999999 C 388.699999999998 59.00999999999999 408.633333333332 224.8 448.5 224.8 C 488.36666666666406 224.8 548.16666666666 19.670000000000016 548.16666666666 19.670000000000016" data-z-index="2" class="highcharts-tracker-line" stroke-linecap="round" stroke-linejoin="round" stroke="rgba(192,192,192,0.0001)" stroke-width="22" style="cursor: pointer;"></path></g><g class="highcharts-markers highcharts-series-0 highcharts-areaspline-series highcharts-tracker" data-z-index="0.1" opacity="1" transform="translate(42,45) scale(1 1)" clip-path="none" style="cursor: pointer; outline: none;" aria-hidden="false" role="region" tabindex="-1" aria-label="Item 1, series 1 of 2 with 6 data points."><path fill="#6f58e9" d="M 548 19.670000000000016 A 0 0 0 1 1 548 19.670000000000016 Z" class="highcharts-halo highcharts-color-undefined" data-z-index="-1" fill-opacity="0.25" visibility="hidden"></path><path fill="#6f58e9" d="M 49 175.41 A 4 4 0 1 1 49.00399999933334 175.40999800000017 Z" opacity="1" class="highcharts-point" tabindex="-1" role="img" aria-label="Category 1, 39 units. Item 1." style="outline: none;" stroke-width="0.00003947789809188862"></path><path fill="#6f58e9" d="M 149 209.13 A 4 4 0 1 1 149.00399999933333 209.12999800000017 Z" opacity="1" class="highcharts-point" tabindex="-1" role="img" aria-label="Category 2, 27 units. Item 1." style="outline: none;" stroke-width="3.8912261289027195e-8"></path><path fill="#6f58e9" d="M 249 77.06 A 4 4 0 1 1 249.00399999933333 77.05999800000016 Z" opacity="1" class="highcharts-point" tabindex="-1" role="img" aria-label="Category 3, 74 units. Item 1." style="outline: none;" stroke-width="0.002849604801500538"></path><path fill="#6f58e9" d="M 348 63.00999999999999 A 4 4 0 1 1 348.00399999933336 63.00999800000016 Z" opacity="1" class="highcharts-point" tabindex="-1" role="img" aria-label="Category 4, 79 units. Item 1." style="outline: none;" stroke-width="0.00001123499249776512"></path><path fill="#6f58e9" d="M 448 228.8 A 4 4 0 1 1 448.00399999933336 228.7999980000002 Z" opacity="1" class="highcharts-point" tabindex="-1" role="img" aria-label="Category 5, 20 units. Item 1." style="outline: none;" stroke-width="0.0008181510439386197"></path><path fill="#6f58e9" d="M 548 23.670000000000016 A 4 4 0 1 1 548.0039999993334 23.669998000000184 Z" opacity="1" class="highcharts-point" tabindex="-1" role="img" aria-label="Category 6, 93 units. Item 1." style="outline: none;" stroke-width="0.36352403224133745"></path><rect x="43.00199890136719" y="165.4099884033203" width="12" height="12.000015258789062" fill="none" rx="3" ry="3" class="highcharts-focus-border" data-z-index="99" stroke="#335cad" stroke-width="2"></rect></g><g class="highcharts-series highcharts-series-1 highcharts-areaspline-series" data-z-index="0.1" opacity="1" transform="translate(42,45) scale(1 1)" clip-path="url(#highcharts-igzvbr8-8-)" aria-hidden="true"><path fill="rgba(148,209,61,0.35)" d="M 49.833333333333 244.47 C 49.833333333333 244.47 109.63333333333321 244.47 149.5 244.47 C 189.366666666664 244.47 209.299999999996 244.47 249.16666666666 238.85 C 289.033333333328 233.23 308.96666666666204 230.42 348.83333333333 191.07999999999998 C 388.699999999998 151.73999999999995 408.633333333332 42.150000000000006 448.5 42.150000000000006 C 488.36666666666406 42.150000000000006 548.16666666666 205.13 548.16666666666 205.13 L 548.16666666666 281 C 548.16666666666 281 488.36666666666406 281 448.5 281 C 408.633333333332 281 388.699999999998 281 348.83333333333 281 C 308.96666666666204 281 289.033333333328 281 249.16666666666 281 C 209.299999999996 281 189.366666666664 281 149.5 281 C 109.63333333333321 281 49.833333333333 281 49.833333333333 281 Z" class="highcharts-area" data-z-index="0"></path><path fill="none" d="M 49.833333333333 244.47 C 49.833333333333 244.47 109.63333333333321 244.47 149.5 244.47 C 189.366666666664 244.47 209.299999999996 244.47 249.16666666666 238.85 C 289.033333333328 233.23 308.96666666666204 230.42 348.83333333333 191.07999999999998 C 388.699999999998 151.73999999999995 408.633333333332 42.150000000000006 448.5 42.150000000000006 C 488.36666666666406 42.150000000000006 548.16666666666 205.13 548.16666666666 205.13" class="highcharts-graph" data-z-index="1" stroke="#94d13d" stroke-width="2" stroke-linejoin="round" stroke-linecap="round"></path><path fill="none" d="M 49.833333333333 244.47 C 49.833333333333 244.47 109.63333333333321 244.47 149.5 244.47 C 189.366666666664 244.47 209.299999999996 244.47 249.16666666666 238.85 C 289.033333333328 233.23 308.96666666666204 230.42 348.83333333333 191.07999999999998 C 388.699999999998 151.73999999999995 408.633333333332 42.150000000000006 448.5 42.150000000000006 C 488.36666666666406 42.150000000000006 548.16666666666 205.13 548.16666666666 205.13" data-z-index="2" class="highcharts-tracker-line" stroke-linecap="round" stroke-linejoin="round" stroke="rgba(192,192,192,0.0001)" stroke-width="22" style="cursor: pointer;"></path></g><g class="highcharts-markers highcharts-series-1 highcharts-areaspline-series highcharts-tracker" data-z-index="0.1" opacity="1" transform="translate(42,45) scale(1 1)" clip-path="none" style="cursor: pointer; outline: none;" aria-hidden="false" role="region" tabindex="-1" aria-label="Item 2, series 2 of 2 with 6 data points."><path fill="#94d13d" d="M 548 205.13 A 0 0 0 1 1 548 205.13 Z" class="highcharts-halo highcharts-color-undefined" data-z-index="-1" fill-opacity="0.25" visibility="hidden"></path><path fill="#94d13d" d="M 49 240.47 L 53 244.47 L 49 248.47 L 45 244.47 Z" opacity="1" class="highcharts-point" tabindex="-1" role="img" aria-label="Category 1, 13 units. Item 2." style="outline: none;" stroke-width="0.00003947789809188862"></path><path fill="#94d13d" d="M 149 240.47 L 153 244.47 L 149 248.47 L 145 244.47 Z" opacity="1" class="highcharts-point" tabindex="-1" role="img" aria-label="Category 2, 13 units. Item 2." style="outline: none;" stroke-width="3.8912261289027195e-8"></path><path fill="#94d13d" d="M 249 234.85 L 253 238.85 L 249 242.85 L 245 238.85 Z" opacity="1" class="highcharts-point" tabindex="-1" role="img" aria-label="Category 3, 15 units. Item 2." style="outline: none;" stroke-width="0.000009869571931497845"></path><path fill="#94d13d" d="M 348 187.07999999999998 L 352 191.07999999999998 L 348 195.07999999999998 L 344 191.07999999999998 Z" opacity="1" class="highcharts-point" tabindex="-1" role="img" aria-label="Category 4, 32 units. Item 2." style="outline: none;" stroke-width="0.00001123499249776512"></path><path fill="#94d13d" d="M 448 38.150000000000006 L 452 42.150000000000006 L 448 46.150000000000006 L 444 42.150000000000006 Z" opacity="1" class="highcharts-point" tabindex="-1" role="img" aria-label="Category 5, 85 units. Item 2." style="outline: none;" stroke-width="0.0008181510439386197"></path><path fill="#94d13d" d="M 548 201.13 L 552 205.13 L 548 209.13 L 544 205.13 Z" opacity="1" class="highcharts-point" tabindex="-1" role="img" aria-label="Category 6, 27 units. Item 2." style="outline: none;" stroke-width="0.36352403224133745"></path></g></g><g class="highcharts-exporting-group" data-z-index="3" aria-hidden="true"><g class="highcharts-no-tooltip highcharts-button highcharts-contextbutton" stroke-linecap="round" style="cursor: pointer;" transform="translate(616,10)"><title>Chart context menu</title><rect fill="#ffffff" class="highcharts-button-box" x="0.5" y="0.5" width="24" height="22" rx="2" ry="2" stroke="none" stroke-width="1"></rect><path fill="#666666" d="M 6 6.5 L 20 6.5 M 6 11.5 L 20 11.5 M 6 16.5 L 20 16.5" class="highcharts-button-symbol" data-z-index="1" stroke="#666666" stroke-width="3"></path><text x="0" data-z-index="1" y="15.5" style="color: rgb(51, 51, 51); font-weight: normal; fill: rgb(51, 51, 51);"></text></g></g><text x="325" text-anchor="middle" class="highcharts-title" data-z-index="4" style="color: rgb(51, 51, 51); font-size: 18px; fill: rgb(51, 51, 51);" y="24" aria-hidden="true">Chart title</text><text x="325" text-anchor="middle" class="highcharts-subtitle" data-z-index="4" style="color: rgb(102, 102, 102); fill: rgb(102, 102, 102);" y="44" aria-hidden="true"></text><text x="10" text-anchor="start" class="highcharts-caption" data-z-index="4" style="color: rgb(102, 102, 102); fill: rgb(102, 102, 102);" y="397" aria-hidden="true"></text><g class="highcharts-legend highcharts-no-tooltip" data-z-index="7" transform="translate(253,359)" aria-hidden="true"><rect fill="none" class="highcharts-legend-box" rx="0" ry="0" x="0" y="0" width="143" height="26"></rect><g data-z-index="1"><g><g class="highcharts-legend-item highcharts-areaspline-series highcharts-color-undefined highcharts-series-0" data-z-index="1" transform="translate(8,3)"><text x="21" text-anchor="start" data-z-index="2" y="15" style="color: rgb(51, 51, 51); cursor: pointer; font-size: 12px; font-weight: bold; fill: rgb(51, 51, 51);">Item 1</text><rect x="2" y="4" width="12" height="12" fill="#6f58e9" rx="6" ry="6" class="highcharts-point" data-z-index="3"></rect></g><g class="highcharts-legend-item highcharts-areaspline-series highcharts-color-undefined highcharts-series-1" data-z-index="1" transform="translate(81.98958587646484,3)"><text x="21" y="15" text-anchor="start" data-z-index="2" style="color: rgb(51, 51, 51); cursor: pointer; font-size: 12px; font-weight: bold; fill: rgb(51, 51, 51);">Item 2</text><rect x="2" y="4" width="12" height="12" fill="#94d13d" rx="6" ry="6" class="highcharts-point" data-z-index="3"></rect></g></g></g></g><g class="highcharts-axis-labels highcharts-xaxis-labels" data-z-index="7" aria-hidden="true"><text x="91.83333333333667" text-anchor="middle" transform="translate(0,0)" style="color: rgb(102, 102, 102); cursor: default; font-size: 11px; fill: rgb(102, 102, 102);" y="345" opacity="1">Category 1</text><text x="191.49999999999665" text-anchor="middle" transform="translate(0,0)" style="color: rgb(102, 102, 102); cursor: default; font-size: 11px; fill: rgb(102, 102, 102);" y="345" opacity="1">Category 2</text><text x="291.1666666666667" text-anchor="middle" transform="translate(0,0)" style="color: rgb(102, 102, 102); cursor: default; font-size: 11px; fill: rgb(102, 102, 102);" y="345" opacity="1">Category 3</text><text x="390.83333333332666" text-anchor="middle" transform="translate(0,0)" style="color: rgb(102, 102, 102); cursor: default; font-size: 11px; fill: rgb(102, 102, 102);" y="345" opacity="1">Category 4</text><text x="490.49999999999665" text-anchor="middle" transform="translate(0,0)" style="color: rgb(102, 102, 102); cursor: default; font-size: 11px; fill: rgb(102, 102, 102);" y="345" opacity="1">Category 5</text><text x="590.1666666666666" text-anchor="middle" transform="translate(0,0)" style="color: rgb(102, 102, 102); cursor: default; font-size: 11px; fill: rgb(102, 102, 102);" y="345" opacity="1">Category 6</text></g><g class="highcharts-axis-labels highcharts-yaxis-labels" data-z-index="7" aria-hidden="true"><text x="27" text-anchor="end" transform="translate(0,0)" style="color: rgb(102, 102, 102); cursor: default; font-size: 11px; fill: rgb(102, 102, 102);" y="331" opacity="1">0</text><text x="27" text-anchor="end" transform="translate(0,0)" style="color: rgb(102, 102, 102); cursor: default; font-size: 11px; fill: rgb(102, 102, 102);" y="50" opacity="1">100</text><text x="27" text-anchor="end" transform="translate(0,0)" y="260" opacity="1" style="color: rgb(102, 102, 102); cursor: default; font-size: 11px; fill: rgb(102, 102, 102);">25</text><text x="27" text-anchor="end" transform="translate(0,0)" y="190" opacity="1" style="color: rgb(102, 102, 102); cursor: default; font-size: 11px; fill: rgb(102, 102, 102);">50</text><text x="27" text-anchor="end" transform="translate(0,0)" y="120" opacity="1" style="color: rgb(102, 102, 102); cursor: default; font-size: 11px; fill: rgb(102, 102, 102);">75</text></g><g class="highcharts-label highcharts-tooltip highcharts-color-undefined" data-z-index="8" transform="translate(465,103)" style="cursor: default; white-space: nowrap; pointer-events: none;" opacity="0" aria-hidden="true" visibility="hidden"><path fill="none" class="highcharts-label-box highcharts-tooltip-box highcharts-shadow" d="M 3.5 0.5 L 106.5 0.5 C 109.5 0.5 109.5 0.5 109.5 3.5 L 109.5 56.5 C 109.5 59.5 109.5 59.5 106.5 59.5 L 3.5 59.5 C 0.5 59.5 0.5 59.5 0.5 56.5 L 0.5 3.5 C 0.5 0.5 0.5 0.5 3.5 0.5" stroke="#000000" stroke-opacity="0.049999999999999996" stroke-width="5" transform="translate(1, 1)"></path><path fill="none" class="highcharts-label-box highcharts-tooltip-box highcharts-shadow" d="M 3.5 0.5 L 106.5 0.5 C 109.5 0.5 109.5 0.5 109.5 3.5 L 109.5 56.5 C 109.5 59.5 109.5 59.5 106.5 59.5 L 3.5 59.5 C 0.5 59.5 0.5 59.5 0.5 56.5 L 0.5 3.5 C 0.5 0.5 0.5 0.5 3.5 0.5" stroke="#000000" stroke-opacity="0.09999999999999999" stroke-width="3" transform="translate(1, 1)"></path><path fill="none" class="highcharts-label-box highcharts-tooltip-box highcharts-shadow" d="M 3.5 0.5 L 106.5 0.5 C 109.5 0.5 109.5 0.5 109.5 3.5 L 109.5 56.5 C 109.5 59.5 109.5 59.5 106.5 59.5 L 3.5 59.5 C 0.5 59.5 0.5 59.5 0.5 56.5 L 0.5 3.5 C 0.5 0.5 0.5 0.5 3.5 0.5" stroke="#000000" stroke-opacity="0.15" stroke-width="1" transform="translate(1, 1)"></path><path fill="rgba(247,247,247,0.85)" class="highcharts-label-box highcharts-tooltip-box" d="M 3.5 0.5 L 106.5 0.5 C 109.5 0.5 109.5 0.5 109.5 3.5 L 109.5 56.5 C 109.5 59.5 109.5 59.5 106.5 59.5 L 3.5 59.5 C 0.5 59.5 0.5 59.5 0.5 56.5 L 0.5 3.5 C 0.5 0.5 0.5 0.5 3.5 0.5" stroke="#6f58e9" stroke-width="1"></path><text x="8" data-z-index="1" y="18" style="color: rgb(51, 51, 51); font-size: 12px; fill: rgb(51, 51, 51);"><tspan style="font-size: 10px;">Category 6</tspan><tspan class="highcharts-br" dy="15" x="8">​</tspan><tspan style="color: rgb(111, 88, 233); fill: rgb(111, 88, 233);">●</tspan> Item 1: <tspan style="font-weight: bold;">93 units</tspan><tspan class="highcharts-br" dy="15" x="8">​</tspan><tspan style="color: rgb(148, 209, 61); fill: rgb(148, 209, 61);">●</tspan> Item 2: <tspan style="font-weight: bold;">27 units</tspan><tspan class="highcharts-br">​</tspan></text></g></svg>