<svg aria-label="Cumulative Distribution of Average DI Monthly Worker Benefits, by Sex, 2013" role="img" viewBox="0 0 745 500" height="500" width="745" xmlns="http://www.w3.org/2000/svg" style="font-family: Lato, sans-serif; font-size: 1rem;" class="highcharts-root" version="1.1" xmlns:xlink="http://www.w3.org/1999/xlink"><desc>Created with Highcharts 11.4.6</desc><defs><filter id="highcharts-drop-shadow-1"><fedropshadow stdDeviation="2.5" flood-opacity="0.75" flood-color="#000000" dy="1" dx="1"></fedropshadow></filter><clipPath id="highcharts-aenj3xx-127-"><rect fill="none" height="359" width="680" y="0" x="0"></rect></clipPath></defs><rect ry="0" rx="0" height="500" width="745" y="0" x="0" filter="none" class="highcharts-background" fill="#ffffff"></rect><rect filter="none" height="360" width="680" y="90" x="55" class="highcharts-plot-background" fill="none"></rect><g style="fill: rgb(51, 51, 51);" transform="translate(80,105)" class="highcharts-label"><text style="font-size: 14px; font-weight: bolder; text-align: right;" y="17" data-z-index="1" x="3">More than half of women beneficiaries<tspan x="3" dy="17" class="highcharts-br">​</tspan>and about a third of men had benefits<tspan x="3" dy="17" class="highcharts-br">​</tspan>below $1,000 per month.</text></g><g data-z-index="0" class="highcharts-plot-lines-0"><path d="M 55.5 90 L 55.5 450" stroke-width="0" stroke="#999999" class="highcharts-plot-line" fill="none"></path><path d="M 354.5 90 L 354.5 450" stroke-width="1" stroke="#333333" class="highcharts-plot-line" fill="none"></path></g><g data-z-index="0" class="highcharts-plot-lines-0"><path d="M 55 90 L 735 90" stroke-dasharray="6,2" stroke-width="2" stroke="#333333" class="highcharts-plot-line" fill="none"></path></g><g data-z-index="1" class="highcharts-grid highcharts-xaxis-grid"><path opacity="1" d="M 55 90 L 55 450" class="highcharts-grid-line" data-z-index="1" stroke-dasharray="none" stroke-width="0" stroke-opacity="0.5" stroke="rgb(219,219,216)" fill="none"></path><path opacity="1" d="M 130 90 L 130 450" class="highcharts-grid-line" data-z-index="1" stroke-dasharray="none" stroke-width="0" stroke-opacity="0.5" stroke="rgb(219,219,216)" fill="none"></path><path opacity="1" d="M 205 90 L 205 450" class="highcharts-grid-line" data-z-index="1" stroke-dasharray="none" stroke-width="0" stroke-opacity="0.5" stroke="rgb(219,219,216)" fill="none"></path><path opacity="1" d="M 279 90 L 279 450" class="highcharts-grid-line" data-z-index="1" stroke-dasharray="none" stroke-width="0" stroke-opacity="0.5" stroke="rgb(219,219,216)" fill="none"></path><path opacity="1" d="M 354 90 L 354 450" class="highcharts-grid-line" data-z-index="1" stroke-dasharray="none" stroke-width="0" stroke-opacity="0.5" stroke="rgb(219,219,216)" fill="none"></path><path opacity="1" d="M 429 90 L 429 450" class="highcharts-grid-line" data-z-index="1" stroke-dasharray="none" stroke-width="0" stroke-opacity="0.5" stroke="rgb(219,219,216)" fill="none"></path><path opacity="1" d="M 504 90 L 504 450" class="highcharts-grid-line" data-z-index="1" stroke-dasharray="none" stroke-width="0" stroke-opacity="0.5" stroke="rgb(219,219,216)" fill="none"></path><path opacity="1" d="M 579 90 L 579 450" class="highcharts-grid-line" data-z-index="1" stroke-dasharray="none" stroke-width="0" stroke-opacity="0.5" stroke="rgb(219,219,216)" fill="none"></path><path opacity="1" d="M 653 90 L 653 450" class="highcharts-grid-line" data-z-index="1" stroke-dasharray="none" stroke-width="0" stroke-opacity="0.5" stroke="rgb(219,219,216)" fill="none"></path><path opacity="1" d="M 728 90 L 728 450" class="highcharts-grid-line" data-z-index="1" stroke-dasharray="none" stroke-width="0" stroke-opacity="0.5" stroke="rgb(219,219,216)" fill="none"></path></g><g data-z-index="1" class="highcharts-grid highcharts-yaxis-grid"><path opacity="1" d="M 55 450.5 L 735 450.5" class="highcharts-grid-line" data-z-index="1" stroke-dasharray="none" stroke-width="1" stroke-opacity="0.5" stroke="rgb(219,219,216)" fill="none"></path><path opacity="1" d="M 55 378.5 L 735 378.5" class="highcharts-grid-line" data-z-index="1" stroke-dasharray="none" stroke-width="1" stroke-opacity="0.5" stroke="rgb(219,219,216)" fill="none"></path><path opacity="1" d="M 55 306.5 L 735 306.5" class="highcharts-grid-line" data-z-index="1" stroke-dasharray="none" stroke-width="1" stroke-opacity="0.5" stroke="rgb(219,219,216)" fill="none"></path><path opacity="1" d="M 55 234.5 L 735 234.5" class="highcharts-grid-line" data-z-index="1" stroke-dasharray="none" stroke-width="1" stroke-opacity="0.5" stroke="rgb(219,219,216)" fill="none"></path><path opacity="1" d="M 55 162.5 L 735 162.5" class="highcharts-grid-line" data-z-index="1" stroke-dasharray="none" stroke-width="1" stroke-opacity="0.5" stroke="rgb(219,219,216)" fill="none"></path><path opacity="1" d="M 55 90.5 L 735 90.5" class="highcharts-grid-line" data-z-index="1" stroke-dasharray="none" stroke-width="1" stroke-opacity="0.5" stroke="rgb(219,219,216)" fill="none"></path></g><rect height="360" width="680" y="90" x="55" stroke-width="0" stroke="#cccccc" data-z-index="1" class="highcharts-plot-border" fill="none"></rect><g data-z-index="2" class="highcharts-axis highcharts-xaxis"><path opacity="1" d="M 55.5 450 L 55.5 460" stroke-width="1" stroke="#333333" class="highcharts-tick" fill="none"></path><path opacity="1" d="M 129.5 450 L 129.5 460" stroke-width="1" stroke="#333333" class="highcharts-tick" fill="none"></path><path opacity="1" d="M 204.5 450 L 204.5 460" stroke-width="1" stroke="#333333" class="highcharts-tick" fill="none"></path><path opacity="1" d="M 279.5 450 L 279.5 460" stroke-width="1" stroke="#333333" class="highcharts-tick" fill="none"></path><path opacity="1" d="M 354.5 450 L 354.5 460" stroke-width="1" stroke="#333333" class="highcharts-tick" fill="none"></path><path opacity="1" d="M 429.5 450 L 429.5 460" stroke-width="1" stroke="#333333" class="highcharts-tick" fill="none"></path><path opacity="1" d="M 503.5 450 L 503.5 460" stroke-width="1" stroke="#333333" class="highcharts-tick" fill="none"></path><path opacity="1" d="M 578.5 450 L 578.5 460" stroke-width="1" stroke="#333333" class="highcharts-tick" fill="none"></path><path opacity="1" d="M 653.5 450 L 653.5 460" stroke-width="1" stroke="#333333" class="highcharts-tick" fill="none"></path><path opacity="1" d="M 728.5 450 L 728.5 460" stroke-width="1" stroke="#333333" class="highcharts-tick" fill="none"></path><path d="M 55 450 L 735 450" data-z-index="7" stroke-width="2" stroke="#333333" class="highcharts-axis-line" fill="none"></path></g><g data-z-index="2" class="highcharts-axis highcharts-yaxis"><path d="M 55 90 L 55 450" data-z-index="7" stroke-width="0" stroke="#333333" class="highcharts-axis-line" fill="none"></path></g><g filter="none" data-z-index="3" class="highcharts-series-group"><g clip-path="url(#highcharts-aenj3xx-127-)" transform="translate(55,90) scale(1 1)" opacity="1" data-z-index="0.1" class="highcharts-series highcharts-series-0 highcharts-areaspline-series highcharts-color-0"><path style="pointer-events: none;" fill-opacity="0.1" data-z-index="0" class="highcharts-area" d="M 89.772966807326 356.04 C 89.772966807326 356.04 98.73230889469639 354.5989189189186 104.70520361961 353.52 C 110.69006807343399 352.43891891891866 113.682500300346 351.93600000000043 119.66736475417 350.64 C 125.65222920799002 349.3440000000004 128.6446614349 348.48 134.62952588872 347.04 C 140.61439034254 345.6 143.60682256945 344.9519999999995 149.59168702327 343.44 C 155.57655147709403 341.9279999999995 158.568983704006 341.2080000000006 164.55384815783 339.48 C 170.53871261165 337.7520000000006 173.53114483856 337.0319999999993 179.51600929238 334.8 C 185.50087374620404 332.56799999999924 188.493305973116 331.20000000000095 194.47817042694 328.32 C 200.46303488076 325.44000000000096 203.45546710767002 324.4319999999986 209.44033156149 320.4 C 215.42519601531404 316.36799999999863 218.41762824222602 313.4880000000018 224.40249269605 308.16 C 230.38735714986996 302.8320000000018 233.37978937678 299.592 239.3646538306 293.76 C 245.34951828442 287.928 248.34195051133003 284.903999999998 254.32681496515 279 C 260.311679418974 273.095999999998 263.304111645886 270.144000000002 269.28897609971 264.24 C 275.27384055353 258.336000000002 278.26627278044 255.38399999999805 284.25113723426 249.48 C 290.236001688084 243.575999999998 293.228433914996 240.55200000000193 299.21329836882 234.72 C 305.19816282264003 228.88800000000194 308.19059504955004 226.00799999999998 314.17545950337 220.32 C 320.16032395719003 214.63199999999998 323.1527561841 211.82399999999816 329.13762063792 206.28 C 335.122485091744 200.73599999999814 338.114917318656 197.9280000000018 344.09978177248 192.6 C 350.0846462263 187.2720000000018 353.07707845321 184.75199999999828 359.06194290703 179.64 C 365.046807360854 174.5279999999983 368.039239587766 172.00800000000163 374.02410404159 167.04 C 380.00896849541004 162.07200000000165 383.00140072232 159.55199999999846 388.98626517614 154.8 C 394.97112962996397 150.04799999999847 397.963561856876 147.74400000000148 403.9484263107 143.28 C 409.93329076452 138.81600000000145 412.92572299142995 136.728 418.91058744525 132.48 C 424.89545189906994 128.232 427.88788412597995 126.07199999999865 433.8727485798 122.04 C 439.857613033624 118.00799999999867 442.850045260536 116.13600000000126 448.83490971436 112.32 C 454.81977416818 108.50400000000126 457.81220639509 106.55999999999877 463.79707084891 102.96 C 469.78193530273404 99.35999999999876 472.77436752964593 97.63200000000113 478.75923198347 94.32 C 484.74409643728995 91.00800000000113 487.73652866419997 89.56799999999895 493.72139311802 86.4 C 499.706257571844 83.23199999999895 502.698689798756 81.57600000000105 508.68355425258 78.48 C 514.6684187064 75.38400000000104 517.66085093331 73.80000000000001 523.64571538713 70.92 C 529.6305798409501 68.04 532.62301206786 66.67199999999914 538.60787652168 64.08 C 544.5927409755041 61.48799999999914 547.585173202416 60.336000000000794 553.57003765624 57.96 C 559.55490211006 55.58400000000079 562.5473343369699 54.43199999999926 568.53219879079 52.2 C 574.517063244614 49.967999999999265 577.509495471526 49.10400000000076 583.49435992535 46.8 C 589.47922437917 44.49600000000076 592.4716566060799 43.27199999999914 598.4565210599 40.68 C 604.441385513724 38.08799999999914 607.433817740636 36.504000000000914 613.41868219446 33.84 C 619.4035466482799 31.176000000000915 622.3959788751899 29.736 628.38084332901 27.36 C 634.36570778283 24.984 637.3581400097399 23.975999999999328 643.34300446356 21.96 C 649.327868917384 19.94399999999933 652.320301144296 21.74400000000149 658.30516559812 17.28 C 664.29003005194 12.816000000001484 673.26732673267 -0.36000000000001 673.26732673267 -0.36000000000001 L 673.26732673267 360 C 673.26732673267 360 664.29003005194 360 658.30516559812 360 C 652.320301144296 360 649.327868917384 360 643.34300446356 360 C 637.3581400097399 360 634.36570778283 360 628.38084332901 360 C 622.3959788751899 360 619.4035466482799 360 613.41868219446 360 C 607.433817740636 360 604.441385513724 360 598.4565210599 360 C 592.4716566060799 360 589.47922437917 360 583.49435992535 360 C 577.509495471526 360 574.517063244614 360 568.53219879079 360 C 562.5473343369699 360 559.55490211006 360 553.57003765624 360 C 547.585173202416 360 544.5927409755041 360 538.60787652168 360 C 532.62301206786 360 529.6305798409501 360 523.64571538713 360 C 517.66085093331 360 514.6684187064 360 508.68355425258 360 C 502.698689798756 360 499.706257571844 360 493.72139311802 360 C 487.73652866419997 360 484.74409643728995 360 478.75923198347 360 C 472.77436752964593 360 469.78193530273404 360 463.79707084891 360 C 457.81220639509 360 454.81977416818 360 448.83490971436 360 C 442.850045260536 360 439.857613033624 360 433.8727485798 360 C 427.88788412597995 360 424.89545189906994 360 418.91058744525 360 C 412.92572299142995 360 409.93329076452 360 403.9484263107 360 C 397.963561856876 360 394.97112962996397 360 388.98626517614 360 C 383.00140072232 360 380.00896849541004 360 374.02410404159 360 C 368.039239587766 360 365.046807360854 360 359.06194290703 360 C 353.07707845321 360 350.0846462263 360 344.09978177248 360 C 338.114917318656 360 335.122485091744 360 329.13762063792 360 C 323.1527561841 360 320.16032395719003 360 314.17545950337 360 C 308.19059504955004 360 305.19816282264003 360 299.21329836882 360 C 293.228433914996 360 290.236001688084 360 284.25113723426 360 C 278.26627278044 360 275.27384055353 360 269.28897609971 360 C 263.304111645886 360 260.311679418974 360 254.32681496515 360 C 248.34195051133003 360 245.34951828442 360 239.3646538306 360 C 233.37978937678 360 230.38735714986996 360 224.40249269605 360 C 218.41762824222602 360 215.42519601531404 360 209.44033156149 360 C 203.45546710767002 360 200.46303488076 360 194.47817042694 360 C 188.493305973116 360 185.50087374620404 360 179.51600929238 360 C 173.53114483856 360 170.53871261165 360 164.55384815783 360 C 158.568983704006 360 155.57655147709403 360 149.59168702327 360 C 143.60682256945 360 140.61439034254 360 134.62952588872 360 C 128.6446614349 360 125.65222920799002 360 119.66736475417 360 C 113.682500300346 360 110.69006807343399 360 104.70520361961 360 C 98.73230889469639 360 89.772966807326 360 89.772966807326 360 Z" fill="#1696d2"></path><path filter="none" stroke-linecap="round" stroke-linejoin="round" stroke-width="2" stroke="#1696d2" data-z-index="1" class="highcharts-graph" d="M 89.772966807326 356.04 C 89.772966807326 356.04 98.73230889469639 354.5989189189186 104.70520361961 353.52 C 110.69006807343399 352.43891891891866 113.682500300346 351.93600000000043 119.66736475417 350.64 C 125.65222920799002 349.3440000000004 128.6446614349 348.48 134.62952588872 347.04 C 140.61439034254 345.6 143.60682256945 344.9519999999995 149.59168702327 343.44 C 155.57655147709403 341.9279999999995 158.568983704006 341.2080000000006 164.55384815783 339.48 C 170.53871261165 337.7520000000006 173.53114483856 337.0319999999993 179.51600929238 334.8 C 185.50087374620404 332.56799999999924 188.493305973116 331.20000000000095 194.47817042694 328.32 C 200.46303488076 325.44000000000096 203.45546710767002 324.4319999999986 209.44033156149 320.4 C 215.42519601531404 316.36799999999863 218.41762824222602 313.4880000000018 224.40249269605 308.16 C 230.38735714986996 302.8320000000018 233.37978937678 299.592 239.3646538306 293.76 C 245.34951828442 287.928 248.34195051133003 284.903999999998 254.32681496515 279 C 260.311679418974 273.095999999998 263.304111645886 270.144000000002 269.28897609971 264.24 C 275.27384055353 258.336000000002 278.26627278044 255.38399999999805 284.25113723426 249.48 C 290.236001688084 243.575999999998 293.228433914996 240.55200000000193 299.21329836882 234.72 C 305.19816282264003 228.88800000000194 308.19059504955004 226.00799999999998 314.17545950337 220.32 C 320.16032395719003 214.63199999999998 323.1527561841 211.82399999999816 329.13762063792 206.28 C 335.122485091744 200.73599999999814 338.114917318656 197.9280000000018 344.09978177248 192.6 C 350.0846462263 187.2720000000018 353.07707845321 184.75199999999828 359.06194290703 179.64 C 365.046807360854 174.5279999999983 368.039239587766 172.00800000000163 374.02410404159 167.04 C 380.00896849541004 162.07200000000165 383.00140072232 159.55199999999846 388.98626517614 154.8 C 394.97112962996397 150.04799999999847 397.963561856876 147.74400000000148 403.9484263107 143.28 C 409.93329076452 138.81600000000145 412.92572299142995 136.728 418.91058744525 132.48 C 424.89545189906994 128.232 427.88788412597995 126.07199999999865 433.8727485798 122.04 C 439.857613033624 118.00799999999867 442.850045260536 116.13600000000126 448.83490971436 112.32 C 454.81977416818 108.50400000000126 457.81220639509 106.55999999999877 463.79707084891 102.96 C 469.78193530273404 99.35999999999876 472.77436752964593 97.63200000000113 478.75923198347 94.32 C 484.74409643728995 91.00800000000113 487.73652866419997 89.56799999999895 493.72139311802 86.4 C 499.706257571844 83.23199999999895 502.698689798756 81.57600000000105 508.68355425258 78.48 C 514.6684187064 75.38400000000104 517.66085093331 73.80000000000001 523.64571538713 70.92 C 529.6305798409501 68.04 532.62301206786 66.67199999999914 538.60787652168 64.08 C 544.5927409755041 61.48799999999914 547.585173202416 60.336000000000794 553.57003765624 57.96 C 559.55490211006 55.58400000000079 562.5473343369699 54.43199999999926 568.53219879079 52.2 C 574.517063244614 49.967999999999265 577.509495471526 49.10400000000076 583.49435992535 46.8 C 589.47922437917 44.49600000000076 592.4716566060799 43.27199999999914 598.4565210599 40.68 C 604.441385513724 38.08799999999914 607.433817740636 36.504000000000914 613.41868219446 33.84 C 619.4035466482799 31.176000000000915 622.3959788751899 29.736 628.38084332901 27.36 C 634.36570778283 24.984 637.3581400097399 23.975999999999328 643.34300446356 21.96 C 649.327868917384 19.94399999999933 652.320301144296 21.74400000000149 658.30516559812 17.28 C 664.29003005194 12.816000000001484 673.26732673267 -0.36000000000001 673.26732673267 -0.36000000000001" fill="none"></path></g><g clip-path="none" transform="translate(55,90) scale(1 1)" opacity="1" data-z-index="0.1" class="highcharts-markers highcharts-series-0 highcharts-areaspline-series highcharts-color-0"></g><g clip-path="url(#highcharts-aenj3xx-127-)" transform="translate(55,90) scale(1 1)" opacity="1" data-z-index="0.1" class="highcharts-series highcharts-series-1 highcharts-areaspline-series highcharts-color-1"><path style="pointer-events: none;" fill-opacity="0.1" data-z-index="0" class="highcharts-area" d="M 89.772966807326 352.08 C 89.772966807326 352.08 98.73230889469639 349.2697657657653 104.70520361961 347.04 C 110.69006807343399 344.8057657657653 113.682500300346 343.5840000000009 119.66736475417 340.92 C 125.65222920799002 338.2560000000009 128.6446614349 336.672 134.62952588872 333.72 C 140.61439034254 330.76800000000003 143.60682256945 329.255999999999 149.59168702327 326.16 C 155.57655147709403 323.063999999999 158.568983704006 321.55200000000116 164.55384815783 318.24 C 170.53871261165 314.92800000000113 173.53114483856 313.6319999999987 179.51600929238 309.6 C 185.50087374620404 305.5679999999987 188.493305973116 302.9760000000016 194.47817042694 298.08 C 200.46303488076 293.1840000000016 203.45546710767002 291.9599999999977 209.44033156149 285.12 C 215.42519601531404 278.2799999999977 218.41762824222602 272.95200000000307 224.40249269605 263.88 C 230.38735714986996 254.808000000003 233.37978937678 249.19199999999998 239.3646538306 239.76 C 245.34951828442 230.328 248.34195051133003 225.64799999999698 254.32681496515 216.72 C 260.311679418974 207.79199999999702 263.304111645886 203.4720000000028 269.28897609971 195.12 C 275.27384055353 186.7680000000028 278.26627278044 182.66399999999746 284.25113723426 174.96 C 290.236001688084 167.25599999999744 293.228433914996 163.65600000000234 299.21329836882 156.6 C 305.19816282264003 149.5440000000023 308.19059504955004 146.15999999999997 314.17545950337 139.68 C 320.16032395719003 133.19999999999996 323.1527561841 130.10399999999802 329.13762063792 124.2 C 335.122485091744 118.29599999999805 338.114917318656 115.48800000000179 344.09978177248 110.16 C 350.0846462263 104.8320000000018 353.07707845321 102.31199999999842 359.06194290703 97.56 C 365.046807360854 92.80799999999843 368.039239587766 90.64800000000142 374.02410404159 86.4 C 380.00896849541004 82.15200000000142 383.00140072232 80.13599999999875 388.98626517614 76.32 C 394.97112962996397 72.50399999999874 397.963561856876 70.70400000000109 403.9484263107 67.32 C 409.93329076452 63.93600000000111 412.92572299142995 62.35200000000001 418.91058744525 59.4 C 424.89545189906994 56.448000000000015 427.88788412597995 55.15199999999914 433.8727485798 52.56 C 439.857613033624 49.96799999999914 442.850045260536 48.74400000000077 448.83490971436 46.44 C 454.81977416818 44.13600000000076 457.81220639509 43.05599999999931 463.79707084891 41.04 C 469.78193530273404 39.023999999999305 472.77436752964593 38.160000000000615 478.75923198347 36.36 C 484.74409643728995 34.56000000000061 487.73652866419997 33.695999999999444 493.72139311802 32.04 C 499.706257571844 30.383999999999446 502.698689798756 29.59200000000051 508.68355425258 28.08 C 514.6684187064 26.56800000000051 517.66085093331 25.848000000000003 523.64571538713 24.48 C 529.6305798409501 23.112000000000002 532.62301206786 22.46399999999959 538.60787652168 21.24 C 544.5927409755041 20.01599999999959 547.585173202416 19.44000000000036 553.57003765624 18.36 C 559.55490211006 17.280000000000356 562.5473343369699 16.77599999999969 568.53219879079 15.84 C 574.517063244614 14.903999999999689 577.509495471526 14.61600000000031 583.49435992535 13.68 C 589.47922437917 12.74400000000031 592.4716566060799 12.167999999999665 598.4565210599 11.16 C 604.441385513724 10.151999999999665 607.433817740636 9.57600000000032 613.41868219446 8.64 C 619.4035466482799 7.704000000000321 622.3959788751899 7.272 628.38084332901 6.48 C 634.36570778283 5.688000000000001 637.3581400097399 5.3279999999997845 643.34300446356 4.68 C 649.327868917384 4.031999999999784 652.320301144296 4.320000000000365 658.30516559812 3.24 C 664.29003005194 2.1600000000003536 673.26732673267 -0.72000000000003 673.26732673267 -0.72000000000003 L 673.26732673267 360 C 673.26732673267 360 664.29003005194 360 658.30516559812 360 C 652.320301144296 360 649.327868917384 360 643.34300446356 360 C 637.3581400097399 360 634.36570778283 360 628.38084332901 360 C 622.3959788751899 360 619.4035466482799 360 613.41868219446 360 C 607.433817740636 360 604.441385513724 360 598.4565210599 360 C 592.4716566060799 360 589.47922437917 360 583.49435992535 360 C 577.509495471526 360 574.517063244614 360 568.53219879079 360 C 562.5473343369699 360 559.55490211006 360 553.57003765624 360 C 547.585173202416 360 544.5927409755041 360 538.60787652168 360 C 532.62301206786 360 529.6305798409501 360 523.64571538713 360 C 517.66085093331 360 514.6684187064 360 508.68355425258 360 C 502.698689798756 360 499.706257571844 360 493.72139311802 360 C 487.73652866419997 360 484.74409643728995 360 478.75923198347 360 C 472.77436752964593 360 469.78193530273404 360 463.79707084891 360 C 457.81220639509 360 454.81977416818 360 448.83490971436 360 C 442.850045260536 360 439.857613033624 360 433.8727485798 360 C 427.88788412597995 360 424.89545189906994 360 418.91058744525 360 C 412.92572299142995 360 409.93329076452 360 403.9484263107 360 C 397.963561856876 360 394.97112962996397 360 388.98626517614 360 C 383.00140072232 360 380.00896849541004 360 374.02410404159 360 C 368.039239587766 360 365.046807360854 360 359.06194290703 360 C 353.07707845321 360 350.0846462263 360 344.09978177248 360 C 338.114917318656 360 335.122485091744 360 329.13762063792 360 C 323.1527561841 360 320.16032395719003 360 314.17545950337 360 C 308.19059504955004 360 305.19816282264003 360 299.21329836882 360 C 293.228433914996 360 290.236001688084 360 284.25113723426 360 C 278.26627278044 360 275.27384055353 360 269.28897609971 360 C 263.304111645886 360 260.311679418974 360 254.32681496515 360 C 248.34195051133003 360 245.34951828442 360 239.3646538306 360 C 233.37978937678 360 230.38735714986996 360 224.40249269605 360 C 218.41762824222602 360 215.42519601531404 360 209.44033156149 360 C 203.45546710767002 360 200.46303488076 360 194.47817042694 360 C 188.493305973116 360 185.50087374620404 360 179.51600929238 360 C 173.53114483856 360 170.53871261165 360 164.55384815783 360 C 158.568983704006 360 155.57655147709403 360 149.59168702327 360 C 143.60682256945 360 140.61439034254 360 134.62952588872 360 C 128.6446614349 360 125.65222920799002 360 119.66736475417 360 C 113.682500300346 360 110.69006807343399 360 104.70520361961 360 C 98.73230889469639 360 89.772966807326 360 89.772966807326 360 Z" fill="#fdbf11"></path><path filter="none" stroke-linecap="round" stroke-linejoin="round" stroke-width="2" stroke="#fdbf11" data-z-index="1" class="highcharts-graph" d="M 89.772966807326 352.08 C 89.772966807326 352.08 98.73230889469639 349.2697657657653 104.70520361961 347.04 C 110.69006807343399 344.8057657657653 113.682500300346 343.5840000000009 119.66736475417 340.92 C 125.65222920799002 338.2560000000009 128.6446614349 336.672 134.62952588872 333.72 C 140.61439034254 330.76800000000003 143.60682256945 329.255999999999 149.59168702327 326.16 C 155.57655147709403 323.063999999999 158.568983704006 321.55200000000116 164.55384815783 318.24 C 170.53871261165 314.92800000000113 173.53114483856 313.6319999999987 179.51600929238 309.6 C 185.50087374620404 305.5679999999987 188.493305973116 302.9760000000016 194.47817042694 298.08 C 200.46303488076 293.1840000000016 203.45546710767002 291.9599999999977 209.44033156149 285.12 C 215.42519601531404 278.2799999999977 218.41762824222602 272.95200000000307 224.40249269605 263.88 C 230.38735714986996 254.808000000003 233.37978937678 249.19199999999998 239.3646538306 239.76 C 245.34951828442 230.328 248.34195051133003 225.64799999999698 254.32681496515 216.72 C 260.311679418974 207.79199999999702 263.304111645886 203.4720000000028 269.28897609971 195.12 C 275.27384055353 186.7680000000028 278.26627278044 182.66399999999746 284.25113723426 174.96 C 290.236001688084 167.25599999999744 293.228433914996 163.65600000000234 299.21329836882 156.6 C 305.19816282264003 149.5440000000023 308.19059504955004 146.15999999999997 314.17545950337 139.68 C 320.16032395719003 133.19999999999996 323.1527561841 130.10399999999802 329.13762063792 124.2 C 335.122485091744 118.29599999999805 338.114917318656 115.48800000000179 344.09978177248 110.16 C 350.0846462263 104.8320000000018 353.07707845321 102.31199999999842 359.06194290703 97.56 C 365.046807360854 92.80799999999843 368.039239587766 90.64800000000142 374.02410404159 86.4 C 380.00896849541004 82.15200000000142 383.00140072232 80.13599999999875 388.98626517614 76.32 C 394.97112962996397 72.50399999999874 397.963561856876 70.70400000000109 403.9484263107 67.32 C 409.93329076452 63.93600000000111 412.92572299142995 62.35200000000001 418.91058744525 59.4 C 424.89545189906994 56.448000000000015 427.88788412597995 55.15199999999914 433.8727485798 52.56 C 439.857613033624 49.96799999999914 442.850045260536 48.74400000000077 448.83490971436 46.44 C 454.81977416818 44.13600000000076 457.81220639509 43.05599999999931 463.79707084891 41.04 C 469.78193530273404 39.023999999999305 472.77436752964593 38.160000000000615 478.75923198347 36.36 C 484.74409643728995 34.56000000000061 487.73652866419997 33.695999999999444 493.72139311802 32.04 C 499.706257571844 30.383999999999446 502.698689798756 29.59200000000051 508.68355425258 28.08 C 514.6684187064 26.56800000000051 517.66085093331 25.848000000000003 523.64571538713 24.48 C 529.6305798409501 23.112000000000002 532.62301206786 22.46399999999959 538.60787652168 21.24 C 544.5927409755041 20.01599999999959 547.585173202416 19.44000000000036 553.57003765624 18.36 C 559.55490211006 17.280000000000356 562.5473343369699 16.77599999999969 568.53219879079 15.84 C 574.517063244614 14.903999999999689 577.509495471526 14.61600000000031 583.49435992535 13.68 C 589.47922437917 12.74400000000031 592.4716566060799 12.167999999999665 598.4565210599 11.16 C 604.441385513724 10.151999999999665 607.433817740636 9.57600000000032 613.41868219446 8.64 C 619.4035466482799 7.704000000000321 622.3959788751899 7.272 628.38084332901 6.48 C 634.36570778283 5.688000000000001 637.3581400097399 5.3279999999997845 643.34300446356 4.68 C 649.327868917384 4.031999999999784 652.320301144296 4.320000000000365 658.30516559812 3.24 C 664.29003005194 2.1600000000003536 673.26732673267 -0.72000000000003 673.26732673267 -0.72000000000003" fill="none"></path></g><g clip-path="none" transform="translate(55,90) scale(1 1)" opacity="1" data-z-index="0.1" class="highcharts-markers highcharts-series-1 highcharts-areaspline-series highcharts-color-1"></g></g><text y="24" style="font-size: 18px; color: rgb(90, 90, 90); font-weight: bold; fill: rgb(90, 90, 90);" data-z-index="4" class="highcharts-title" text-anchor="start" x="10"><tspan class="chartSubtitle">Cumulative Distribution of Average DI Monthly Worker Benefits, by Sex, 2013</tspan><tspan class="chartTitle"></tspan></text><text y="10" style="color: rgb(102, 102, 102); font-size: 0.8em; fill: rgb(102, 102, 102);" data-z-index="4" class="highcharts-subtitle" text-anchor="start" x="10"></text><text y="497" style="color: rgb(102, 102, 102); font-size: 0.8em; fill: rgb(102, 102, 102);" data-z-index="4" class="highcharts-caption" text-anchor="start" x="10"></text><g transform="translate(10,30)" data-z-index="7" class="highcharts-legend highcharts-no-tooltip"><rect height="31" width="139" y="0" x="0" filter="none" stroke-width="0" stroke="#999999" ry="0" rx="0" class="highcharts-legend-box" fill="none"></rect><g data-z-index="1"><g><g transform="translate(8,3)" data-z-index="1" class="highcharts-legend-item highcharts-areaspline-series highcharts-color-0 highcharts-series-0"><path stroke="#1696d2" d="M 1 13 L 15 13" stroke-linecap="round" stroke-width="2" class="highcharts-graph" fill="none"></path><path fill-opacity="0.1" d="M 1 13 L 15 13 L 15 18 L 1 18" class="highcharts-area" fill="#1696d2"></path><text y="18" style="color: rgb(51, 51, 51); cursor: pointer; font-size: 13px; text-decoration: none; font-weight: bold; fill: rgb(51, 51, 51);" data-z-index="2" text-anchor="start" x="21">Men</text></g><g transform="translate(64.4296875,3)" data-z-index="1" class="highcharts-legend-item highcharts-areaspline-series highcharts-color-1 highcharts-series-1"><path stroke="#fdbf11" d="M 1 13 L 15 13" stroke-linecap="round" stroke-width="2" class="highcharts-graph" fill="none"></path><path fill-opacity="0.1" d="M 1 13 L 15 13 L 15 18 L 1 18" class="highcharts-area" fill="#fdbf11"></path><text style="color: rgb(51, 51, 51); cursor: pointer; font-size: 13px; text-decoration: none; font-weight: bold; fill: rgb(51, 51, 51);" data-z-index="2" text-anchor="start" y="18" x="21">Women</text></g></g></g></g><g data-z-index="7" class="highcharts-axis-labels highcharts-xaxis-labels"><text opacity="1" y="477" style="color: rgb(51, 51, 51); cursor: default; font-size: 12px; fill: rgb(51, 51, 51);" transform="translate(0,0)" text-anchor="middle" x="55">$0</text><text opacity="1" y="477" style="color: rgb(51, 51, 51); cursor: default; font-size: 12px; fill: rgb(51, 51, 51);" transform="translate(0,0)" text-anchor="middle" x="129.81080567277">$250</text><text opacity="1" y="477" style="color: rgb(51, 51, 51); cursor: default; font-size: 12px; fill: rgb(51, 51, 51);" transform="translate(0,0)" text-anchor="middle" x="204.62161134554">$500</text><text opacity="1" y="477" style="color: rgb(51, 51, 51); cursor: default; font-size: 12px; fill: rgb(51, 51, 51);" transform="translate(0,0)" text-anchor="middle" x="279.43241701831">$750</text><text opacity="1" y="477" style="color: rgb(51, 51, 51); cursor: default; font-size: 12px; fill: rgb(51, 51, 51);" transform="translate(0,0)" text-anchor="middle" x="354.24322269109">$1,000</text><text opacity="1" y="477" style="color: rgb(51, 51, 51); cursor: default; font-size: 12px; fill: rgb(51, 51, 51);" transform="translate(0,0)" text-anchor="middle" x="429.05402836386">$1,250</text><text opacity="1" y="477" style="color: rgb(51, 51, 51); cursor: default; font-size: 12px; fill: rgb(51, 51, 51);" transform="translate(0,0)" text-anchor="middle" x="503.86483403663">$1,500</text><text opacity="1" y="477" style="color: rgb(51, 51, 51); cursor: default; font-size: 12px; fill: rgb(51, 51, 51);" transform="translate(0,0)" text-anchor="middle" x="578.6756397094">$1,750</text><text opacity="1" y="477" style="color: rgb(51, 51, 51); cursor: default; font-size: 12px; fill: rgb(51, 51, 51);" transform="translate(0,0)" text-anchor="middle" x="653.48644538217">$2,000</text><text opacity="1" y="477" style="color: rgb(51, 51, 51); cursor: default; font-size: 12px; fill: rgb(51, 51, 51);" transform="translate(0,0)" text-anchor="middle" x="716.32421875">$2,250</text></g><g data-z-index="7" class="highcharts-axis-labels highcharts-yaxis-labels"><text opacity="1" y="455" style="color: rgb(51, 51, 51); cursor: default; font-size: 12px; fill: rgb(51, 51, 51);" transform="translate(0,0)" text-anchor="end" x="40">0%</text><text opacity="1" y="383" style="color: rgb(51, 51, 51); cursor: default; font-size: 12px; fill: rgb(51, 51, 51);" transform="translate(0,0)" text-anchor="end" x="40">20%</text><text opacity="1" y="311" style="color: rgb(51, 51, 51); cursor: default; font-size: 12px; fill: rgb(51, 51, 51);" transform="translate(0,0)" text-anchor="end" x="40">40%</text><text opacity="1" y="239" style="color: rgb(51, 51, 51); cursor: default; font-size: 12px; fill: rgb(51, 51, 51);" transform="translate(0,0)" text-anchor="end" x="40">60%</text><text opacity="1" y="167" style="color: rgb(51, 51, 51); cursor: default; font-size: 12px; fill: rgb(51, 51, 51);" transform="translate(0,0)" text-anchor="end" x="40">80%</text><text opacity="1" y="95" style="color: rgb(51, 51, 51); cursor: default; font-size: 12px; fill: rgb(51, 51, 51);" transform="translate(0,0)" text-anchor="end" x="40">100%</text></g></svg>