<svg viewBox="-487.5 -487.5 975 975" width="975" height="975" style="width: 100%; height: auto; font: 10px sans-serif;"><g><g fill="#98abc5"><path d="M0.8999962500047134,-227.91973212616819A227.9215090457991,227.9215090457991,0,0,1,58.12063780747432,-220.38649175157417L45.71751615537264,-174.09741157347298A180,180,0,0,0,0.8999962500046793,-179.9977500046875Z"></path><path d="M67.66699275900066,-249.0593364862144A258.08792106567097,258.08792106567097,0,0,1,128.2637563048339,-223.95933518961468L89.21945538652895,-156.33262225310227A180,180,0,0,0,47.45617539825829,-173.63153923342884Z"></path><path d="M123.76290228977416,-212.56364235806205A245.96861189126204,245.96861189126204,0,0,1,173.28851569396915,-174.5613025968107L126.64123617521469,-127.91402307805623A180,180,0,0,0,90.77829461815851,-155.4326260030976Z"></path><path d="M169.21049861572652,-167.93771171288498A238.40148459508984,238.40148459508984,0,0,1,206.01027262440752,-119.97931250994961L155.43262600309757,-90.77829461815855A180,180,0,0,0,127.91402307805623,-126.64123617521466Z"></path><path d="M202.42325949549638,-115.82989720554662A233.22037018971685,233.22037018971685,0,0,1,225.03896523733243,-61.230753680967L173.63153923342884,-47.45617539825834A180,180,0,0,0,156.33262225310227,-89.21945538652896Z"></path><path d="M207.0371532788284,-54.543693344212414A214.10137160099785,214.10137160099785,0,0,1,214.09947998110258,-0.899996250004735L179.9977500046875,-0.8999962500047274A180,180,0,0,0,174.09741157347298,-45.71751615537266Z"></path><path d="M179.9977500046875,0.8999962500046874A180,180,0,0,1,174.09741157347298,45.717516155372614A180,180,0,0,0,179.9977500046875,0.8999962500046874Z"></path><path d="M173.63153923342884,47.4561753982583A180,180,0,0,1,156.3326222531023,89.21945538652894A180,180,0,0,0,173.63153923342884,47.4561753982583Z"></path><path d="M155.4326260030976,90.77829461815851A180,180,0,0,1,127.91402307805623,126.64123617521466A180,180,0,0,0,155.4326260030976,90.77829461815851Z"></path><path d="M126.64123617521469,127.91402307805623A180,180,0,0,1,90.77829461815851,155.4326260030976A180,180,0,0,0,126.64123617521469,127.91402307805623Z"></path><path d="M89.21945538652902,156.33262225310222A180,180,0,0,1,47.45617539825833,173.63153923342884A180,180,0,0,0,89.21945538652902,156.33262225310222Z"></path><path d="M45.717516155372685,174.09741157347295A180,180,0,0,1,0.8999962500046793,179.9977500046875A180,180,0,0,0,45.717516155372685,174.09741157347295Z"></path><path d="M-0.8999962500046573,179.9977500046875A180,180,0,0,1,-45.717516155372664,174.09741157347295A180,180,0,0,0,-0.8999962500046573,179.9977500046875Z"></path><path d="M-55.53888683181115,203.79662896636611A211.22886622943236,211.22886622943236,0,0,1,-104.83405482675025,183.37790182340225L-89.21945538652894,156.3326222531023A180,180,0,0,0,-47.45617539825823,173.63153923342887Z"></path><path d="M-117.38873643717618,201.5232632454917A233.22037018971685,233.22037018971685,0,0,1,-164.27408389640954,165.54687079925117L-126.64123617521466,127.91402307805623A180,180,0,0,0,-90.7782946181585,155.43262600309762Z"></path><path d="M-184.79709555641253,183.52430865357124A260.4441176007958,260.4441176007958,0,0,1,-225.09987728996066,131.0007009023303L-155.43262600309757,90.7782946181586A180,180,0,0,0,-127.91402307805615,126.64123617521474Z"></path><path d="M-197.8342761700082,113.18044644726938A227.9215090457991,227.9215090457991,0,0,1,-219.92061941152997,59.859297050360176L-173.63153923342884,47.45617539825841A180,180,0,0,0,-156.33262225310222,89.21945538652903Z"></path><path d="M-209.77506791977052,55.277315361198326A216.9358446967345,216.9358446967345,0,0,1,-216.93397779286602,0.8999962500049187L-179.9977500046875,0.8999962500048503A180,180,0,0,0,-174.09741157347295,45.71751615537277Z"></path><path d="M-211.22694888513018,-0.8999962500046775A211.22886622943236,211.22886622943236,0,0,1,-204.26250130641026,-53.80022758892542L-174.097411573473,-45.71751615537257A180,180,0,0,0,-179.9977500046875,-0.8999962500046462Z"></path><path d="M-198.1309262678181,-54.020766369180336A205.363353943339,205.363353943339,0,0,1,-178.29817175128775,-101.90127130220421L-156.33262225310233,-89.21945538652885A180,180,0,0,0,-173.63153923342887,-47.45617539825822Z"></path><path d="M-201.5232632454918,-117.38873643717608A233.22037018971685,233.22037018971685,0,0,1,-165.54687079925134,-164.2740838964094L-127.91402307805635,-126.64123617521454A180,180,0,0,0,-155.43262600309765,-90.77829461815841Z"></path><path d="M-167.937711712885,-169.21049861572652A238.40148459508984,238.40148459508984,0,0,1,-119.97931250994961,-206.01027262440752L-90.7782946181586,-155.43262600309757A180,180,0,0,0,-126.6412361752147,-127.91402307805619Z"></path><path d="M-114.51278272818753,-200.14195030132575A230.5861610734075,230.5861610734075,0,0,1,-60.54896505832552,-222.4944954576115L-47.456175398258424,-173.6315392334288A180,180,0,0,0,-89.21945538652905,-156.33262225310222Z"></path><path d="M-53.800227588925665,-204.26250130641023A211.22886622943236,211.22886622943236,0,0,1,-0.8999962500049299,-211.22694888513018L-0.8999962500048613,-179.9977500046875A180,180,0,0,0,-45.717516155372785,-174.09741157347295Z"></path></g><g fill="#8a89a6"><path d="M0.899996250004676,-262.777647056336A262.77918826595516,262.77918826595516,0,0,1,67.1425300639653,-254.05665203321053L58.12063780747432,-220.38649175157417A227.9215090457991,227.9215090457991,0,0,0,0.8999962500047134,-227.91973212616819Z"></path><path d="M75.20560591119981,-277.19382378882864A287.2147264802814,287.2147264802814,0,0,1,142.82723858105712,-249.18402642716214L128.2637563048339,-223.95933518961468A258.08792106567097,258.08792106567097,0,0,0,67.66699275900066,-249.0593364862144Z"></path><path d="M135.61022282027147,-233.08380345043722A269.66310827453896,269.66310827453896,0,0,1,190.0431570659796,-191.31594396882116L173.28851569396915,-174.5613025968107A245.96861189126204,245.96861189126204,0,0,0,123.76290228977416,-212.56364235806205Z"></path><path d="M186.44824962920117,-185.1754627263596A262.77918826595516,262.77918826595516,0,0,1,227.12211977248572,-132.16824314398278L206.01027262440752,-119.97931250994961A238.40148459508984,238.40148459508984,0,0,0,169.21049861572652,-167.93771171288498Z"></path><path d="M217.72276706104253,-124.66307201698338A250.8865975324879,250.8865975324879,0,0,1,242.10334859431813,-65.80314142080641L225.03896523733243,-61.230753680967A233.22037018971685,233.22037018971685,0,0,0,202.42325949549638,-115.82989720554662Z"></path><path d="M215.1462826767345,-56.71652801770084A222.4964887363394,222.4964887363394,0,0,1,222.49466849061795,-0.8999962500047368L214.09947998110258,-0.899996250004735A214.10137160099785,214.10137160099785,0,0,0,207.0371532788284,-54.543693344212414Z"></path><path d="M179.9977500046875,0.8999962500046874A180,180,0,0,1,174.09741157347298,45.717516155372614A180,180,0,0,0,179.9977500046875,0.8999962500046874Z"></path><path d="M173.63153923342884,47.4561753982583A180,180,0,0,1,156.3326222531023,89.21945538652894A180,180,0,0,0,173.63153923342884,47.4561753982583Z"></path><path d="M155.4326260030976,90.77829461815851A180,180,0,0,1,127.91402307805623,126.64123617521466A180,180,0,0,0,155.4326260030976,90.77829461815851Z"></path><path d="M126.64123617521469,127.91402307805623A180,180,0,0,1,90.77829461815851,155.4326260030976A180,180,0,0,0,126.64123617521469,127.91402307805623Z"></path><path d="M89.21945538652902,156.33262225310222A180,180,0,0,1,47.45617539825833,173.63153923342884A180,180,0,0,0,89.21945538652902,156.33262225310222Z"></path><path d="M45.717516155372685,174.09741157347295A180,180,0,0,1,0.8999962500046793,179.9977500046875A180,180,0,0,0,45.717516155372685,174.09741157347295Z"></path><path d="M-0.8999962500046573,179.9977500046875A180,180,0,0,1,-45.717516155372664,174.09741157347295A180,180,0,0,0,-0.8999962500046573,179.9977500046875Z"></path><path d="M-65.16985284000347,239.73988343490893A248.43977424835063,248.43977424835063,0,0,1,-123.43965242560058,215.60374216979247L-104.83405482675025,183.37790182340225A211.22886622943236,211.22886622943236,0,0,0,-55.53888683181115,203.79662896636611Z"></path><path d="M-132.16824314398275,227.12211977248575A262.77918826595516,262.77918826595516,0,0,1,-185.17546272635957,186.4482496292012L-164.27408389640954,165.54687079925117A233.22037018971685,233.22037018971685,0,0,0,-117.38873643717618,201.5232632454917Z"></path><path d="M-218.24742607897866,216.97463917613737A307.74978965990255,307.74978965990255,0,0,1,-266.067998043827,154.65365644776818L-225.09987728996066,131.0007009023303A260.4441176007958,260.4441176007958,0,0,0,-184.79709555641253,183.52430865357124Z"></path><path d="M-237.87510540635634,136.2980299854509A274.15637645329355,274.15637645329355,0,0,1,-264.580361373379,71.8258388432199L-219.92061941152997,59.859297050360176A227.9215090457991,227.9215090457991,0,0,0,-197.8342761700082,113.18044644726938Z"></path><path d="M-240.20575577495296,63.43119359711809A248.43977424835063,248.43977424835063,0,0,1,-248.4381440828308,0.8999962500049151L-216.93397779286602,0.8999962500049187A216.9358446967345,216.9358446967345,0,0,0,-209.77506791977052,55.277315361198326Z"></path><path d="M-233.21863364272278,-0.8999962500046985A233.22037018971685,233.22037018971685,0,0,1,-225.5048375773766,-59.49209443808115L-204.26250130641026,-53.80022758892542A211.22886622943236,211.22886622943236,0,0,0,-211.22694888513018,-0.8999962500046775Z"></path><path d="M-200.9837199136656,-54.78517012275781A208.31675529278553,208.31675529278553,0,0,1,-180.8559165613115,-103.37798595678979L-178.29817175128775,-101.90127130220421A205.363353943339,205.363353943339,0,0,0,-198.1309262678181,-54.020766369180336Z"></path><path d="M-208.21759864690313,-121.25371278322648A240.95026717146425,240.95026717146425,0,0,1,-171.01277276608707,-169.73998586324518L-165.54687079925134,-164.2740838964094A233.22037018971685,233.22037018971685,0,0,0,-201.5232632454918,-117.38873643717608Z"></path><path d="M-200.94451551695815,-202.21730241979955A285.07987602474805,285.07987602474805,0,0,1,-143.3186473051037,-246.43518630447443L-119.97931250994961,-206.01027262440752A238.40148459508984,238.40148459508984,0,0,0,-167.937711712885,-169.21049861572652Z"></path><path d="M-151.09684273017382,-263.50740097191414A303.7538580001907,303.7538580001907,0,0,1,-79.4862680097003,-293.1694722304662L-60.54896505832552,-222.4944954576115A230.5861610734075,230.5861610734075,0,0,0,-114.51278272818753,-200.14195030132575Z"></path><path d="M-70.08717960033434,-265.0462337134231A274.15637645329355,274.15637645329355,0,0,1,-0.8999962500049283,-274.1548992025311L-0.8999962500049299,-211.22694888513018A211.22886622943236,211.22886622943236,0,0,0,-53.800227588925665,-204.26250130641023Z"></path></g><g fill="#7b6888"><path d="M0.8999962500047369,-291.43612662058064A291.4375162755426,291.4375162755426,0,0,1,74.55989037887313,-281.738617586492L67.1425300639653,-254.05665203321053A262.77918826595516,262.77918826595516,0,0,0,0.899996250004676,-262.777647056336Z"></path><path d="M80.0050714209454,-295.10567292037365A305.75835171399183,305.75835171399183,0,0,1,152.09909395755093,-265.24335101968006L142.82723858105712,-249.18402642716214A287.2147264802814,287.2147264802814,0,0,0,75.20560591119981,-277.19382378882864Z"></path><path d="M150.63107081712425,-259.10067535375555A299.7046537247724,299.7046537247724,0,0,1,211.28584402147365,-212.5586309243152L190.0431570659796,-191.31594396882116A269.66310827453896,269.66310827453896,0,0,0,135.61022282027147,-233.08380345043722Z"></path><path d="M202.21730241979967,-200.94451551695806A285.07987602474805,285.07987602474805,0,0,1,246.43518630447443,-143.31864730510367L227.12211977248572,-132.16824314398278A262.77918826595516,262.77918826595516,0,0,0,186.44824962920117,-185.1754627263596Z"></path><path d="M237.8751054063564,-136.29802998545077A274.15637645329355,274.15637645329355,0,0,1,264.580361373379,-71.82583884321981L242.10334859431813,-65.80314142080641A250.8865975324879,250.8865975324879,0,0,0,217.72276706104253,-124.66307201698338Z"></path><path d="M230.50944624469327,-60.833075288922636A238.40148459508984,238.40148459508984,0,0,1,238.3997857882696,-0.8999962500047404L222.49466849061795,-0.8999962500047368A222.4964887363394,222.4964887363394,0,0,0,215.1462826767345,-56.71652801770084Z"></path><path d="M179.9977500046875,0.8999962500046874A180,180,0,0,1,174.09741157347298,45.717516155372614A180,180,0,0,0,179.9977500046875,0.8999962500046874Z"></path><path d="M173.63153923342884,47.4561753982583A180,180,0,0,1,156.3326222531023,89.21945538652894A180,180,0,0,0,173.63153923342884,47.4561753982583Z"></path><path d="M155.4326260030976,90.77829461815851A180,180,0,0,1,127.91402307805623,126.64123617521466A180,180,0,0,0,155.4326260030976,90.77829461815851Z"></path><path d="M126.64123617521469,127.91402307805623A180,180,0,0,1,90.77829461815851,155.4326260030976A180,180,0,0,0,126.64123617521469,127.91402307805623Z"></path><path d="M89.21945538652902,156.33262225310222A180,180,0,0,1,47.45617539825833,173.63153923342884A180,180,0,0,0,89.21945538652902,156.33262225310222Z"></path><path d="M46.587775516221086,177.3452637239217A183.36238270936911,183.36238270936911,0,0,1,0.8999962500047007,183.36017397354073L0.8999962500046793,179.9977500046875A180,180,0,0,0,45.717516155372685,174.09741157347295Z"></path><path d="M-0.8999962500046783,183.36017397354073A183.36238270936911,183.36238270936911,0,0,1,-46.587775516221065,177.3452637239217L-45.717516155372664,174.09741157347295A180,180,0,0,0,-0.8999962500046573,179.9977500046875Z"></path><path d="M-73.53537455842549,270.9604355198808A280.7614804929113,280.7614804929113,0,0,1,-139.60059938201238,243.59532339672347L-123.43965242560058,215.60374216979247A248.43977424835063,248.43977424835063,0,0,0,-65.16985284000347,239.73988343490893Z"></path><path d="M-153.65793318918054,264.3433547696754A305.75835171399183,305.75835171399183,0,0,1,-215.56647383947228,216.839260742314L-185.17546272635957,186.4482496292012A262.77918826595516,262.77918826595516,0,0,0,-132.16824314398275,227.12211977248575Z"></path><path d="M-231.8578857169924,230.58509881415108A326.99780880655106,326.99780880655106,0,0,1,-282.73733868276656,164.27770475287352L-266.067998043827,154.65365644776818A307.74978965990255,307.74978965990255,0,0,0,-218.24742607897866,216.97463917613737Z"></path><path d="M-254.6498888986771,145.98295575033998A293.52613049899713,293.52613049899713,0,0,1,-283.2902012173765,76.83912531993471L-264.580361373379,71.8258388432199A274.15637645329355,274.15637645329355,0,0,0,-237.87510540635634,136.2980299854509Z"></path><path d="M-251.80113362421923,66.53816572776276A260.4441176007958,260.4441176007958,0,0,1,-260.4425625730309,0.8999962500049066L-248.4381440828308,0.8999962500049151A248.43977424835063,248.43977424835063,0,0,0,-240.20575577495296,63.43119359711809Z"></path><path d="M-245.96696534791877,-0.8999962500046604A245.96861189126204,245.96861189126204,0,0,1,-237.81878041352513,-62.791605476670206L-225.5048375773766,-59.49209443808115A233.22037018971685,233.22037018971685,0,0,0,-233.21863364272278,-0.8999962500046985Z"></path><path d="M-242.10334859431816,-65.80314142080631A250.8865975324879,250.8865975324879,0,0,1,-217.72276706104265,-124.66307201698318L-180.8559165613115,-103.37798595678979A208.31675529278553,208.31675529278553,0,0,0,-200.9837199136656,-54.78517012275781Z"></path><path d="M-229.12654986932375,-133.3255013999637A265.0936913217126,265.0936913217126,0,0,1,-188.0848599499781,-186.8120730471362L-171.01277276608707,-169.73998586324518A240.95026717146425,240.95026717146425,0,0,0,-208.21759864690313,-121.25371278322648Z"></path><path d="M-211.28584402147365,-212.5586309243152A299.7046537247724,299.7046537247724,0,0,1,-150.63107081712434,-259.1006753537555L-143.3186473051037,-246.43518630447443A285.07987602474805,285.07987602474805,0,0,0,-200.94451551695815,-202.21730241979955Z"></path><path d="M-151.09684273017382,-263.50740097191414A303.7538580001907,303.7538580001907,0,0,1,-79.4862680097003,-293.1694722304662A303.7538580001907,303.7538580001907,0,0,0,-151.09684273017382,-263.50740097191414Z"></path><path d="M-71.23137396852997,-269.3164252292639A278.5771805724839,278.5771805724839,0,0,1,-0.8999962500050989,-278.5757267646704L-0.8999962500049283,-274.1548992025311A274.15637645329355,274.15637645329355,0,0,0,-70.08717960033434,-265.0462337134231Z"></path></g><g fill="#6b486b"><path d="M0.8999962500047123,-336.2076351532211A336.2088397537629,336.2088397537629,0,0,1,86.14760946509051,-324.9845739600907L74.55989037887313,-281.738617586492A291.4375162755426,291.4375162755426,0,0,0,0.8999962500047369,-291.43612662058064Z"></path><path d="M93.79888283234496,-346.58487793774026A359.0533498461117,359.0533498461117,0,0,1,178.74669132801438,-311.3983435649615L152.09909395755093,-265.24335101968006A305.75835171399183,305.75835171399183,0,0,0,80.0050714209454,-295.10567292037365Z"></path><path d="M187.80506530256176,-323.4879225228186A374.052374102115,374.052374102115,0,0,1,263.857811190362,-265.13059809320356L211.28584402147365,-212.5586309243152A299.7046537247724,299.7046537247724,0,0,0,150.63107081712425,-259.10067535375555Z"></path><path d="M247.20070320175896,-245.92791629891738A348.6957523093326,348.6957523093326,0,0,1,301.5283757099315,-175.1267150388593L246.43518630447443,-143.31864730510367A285.07987602474805,285.07987602474805,0,0,0,202.21730241979967,-200.94451551695806Z"></path><path d="M297.8419459481781,-170.9199015147229A343.3998216365291,343.3998216365291,0,0,1,331.4646811025513,-89.74743830095652L264.580361373379,-71.82583884321981A274.15637645329355,274.15637645329355,0,0,0,237.8751054063564,-136.29802998545077Z"></path><path d="M281.73861758649196,-74.55989037887322A291.4375162755426,291.4375162755426,0,0,1,291.43612662058064,-0.899996250004752L238.3997857882696,-0.8999962500047404A238.40148459508984,238.40148459508984,0,0,0,230.50944624469327,-60.833075288922636Z"></path><path d="M216.93397779286602,0.8999962500046874A216.9358446967345,216.9358446967345,0,0,1,209.77506791977058,55.27731536119817L174.09741157347298,45.717516155372614A180,180,0,0,0,179.9977500046875,0.8999962500046874Z"></path><path d="M173.63153923342884,47.4561753982583A180,180,0,0,1,156.3326222531023,89.21945538652894A180,180,0,0,0,173.63153923342884,47.4561753982583Z"></path><path d="M155.4326260030976,90.77829461815851A180,180,0,0,1,127.91402307805623,126.64123617521466A180,180,0,0,0,155.4326260030976,90.77829461815851Z"></path><path d="M126.64123617521469,127.91402307805623A180,180,0,0,1,90.77829461815851,155.4326260030976A180,180,0,0,0,126.64123617521469,127.91402307805623Z"></path><path d="M89.21945538652902,156.33262225310222A180,180,0,0,1,47.45617539825833,173.63153923342884A180,180,0,0,0,89.21945538652902,156.33262225310222Z"></path><path d="M46.587775516221086,177.3452637239217A183.36238270936911,183.36238270936911,0,0,1,0.8999962500047007,183.36017397354073A183.36238270936911,183.36238270936911,0,0,0,46.587775516221086,177.3452637239217Z"></path><path d="M-0.899996250004661,233.21863364272278A233.22037018971685,233.22037018971685,0,0,1,-59.492094438081324,225.50483757737655L-46.587775516221065,177.3452637239217A183.36238270936911,183.36238270936911,0,0,0,-0.8999962500046783,183.36017397354073Z"></path><path d="M-91.57042507737106,338.26816037365705A350.44327796581945,350.44327796581945,0,0,1,-174.44164153136754,303.94177858805534L-139.60059938201238,243.59532339672347A280.7614804929113,280.7614804929113,0,0,0,-73.53537455842549,270.9604355198808Z"></path><path d="M-188.61986518800478,324.89919732240736A375.68196917643746,375.68196917643746,0,0,1,-265.0101122389757,266.2828991418172L-215.56647383947228,216.839260742314A305.75835171399183,305.75835171399183,0,0,0,-153.65793318918054,264.3433547696754Z"></path><path d="M-268.5726347073862,267.299847804545A378.9201350548688,378.9201350548688,0,0,1,-327.70353921318093,190.23895273354296L-282.73733868276656,164.27770475287352A326.99780880655106,326.99780880655106,0,0,0,-231.8578857169924,230.58509881415108Z"></path><path d="M-302.4283719599361,173.56787580722977A348.6957523093326,348.6957523093326,0,0,1,-336.5801746155149,91.11813065664207L-283.2902012173765,76.83912531993471A293.52613049899713,293.52613049899713,0,0,0,-254.6498888986771,145.98295575033998Z"></path><path d="M-299.4063566938628,79.29394680477711A309.7284236691418,309.7284236691418,0,0,1,-309.7271160801414,0.8999962500050576L-260.4425625730309,0.8999962500049066A260.4441176007958,260.4441176007958,0,0,0,-251.80113362421923,66.53816572776276Z"></path><path d="M-319.43654048904165,-0.8999962500046189A319.4378083334175,319.4378083334175,0,0,1,-308.78494048882106,-81.80693075878354L-237.81878041352513,-62.791605476670206A245.96861189126204,245.96861189126204,0,0,0,-245.96696534791877,-0.8999962500046604Z"></path><path d="M-298.9404843538187,-81.03260604766257A309.7284236691418,309.7284236691418,0,0,1,-268.68154889129664,-154.08413842425566L-217.72276706104265,-124.66307201698318A250.8865975324879,250.8865975324879,0,0,0,-242.10334859431816,-65.80314142080631Z"></path><path d="M-289.1365310970046,-167.9722802158296A334.3869323638624,334.3869323638624,0,0,1,-237.0828044439166,-235.8100175410746L-188.0848599499781,-186.8120730471362A265.0936913217126,265.0936913217126,0,0,0,-229.12654986932375,-133.3255013999637Z"></path><path d="M-253.2518674454394,-254.52465434828093A359.0533498461117,359.0533498461117,0,0,1,-180.30553055964404,-310.4983473149568L-150.63107081712434,-259.1006753537555A299.7046537247724,299.7046537247724,0,0,0,-211.28584402147365,-212.5586309243152Z"></path><path d="M-187.06102595637537,-325.799193572412A375.68196917643746,375.68196917643746,0,0,1,-98.10269913069577,-362.6469390296268L-79.4862680097003,-293.1694722304662A303.7538580001907,303.7538580001907,0,0,0,-151.09684273017382,-263.50740097191414Z"></path><path d="M-88.46801324850128,-333.64443877385423A345.17416023343515,345.17416023343515,0,0,1,-0.8999962500052028,-345.1729869204819L-0.8999962500050989,-278.5757267646704A278.5771805724839,278.5771805724839,0,0,0,-71.23137396852997,-269.3164252292639Z"></path></g><g fill="#a05d56"><path d="M0.8999962500047298,-394.71165765064677A394.71268370622624,394.71268370622624,0,0,1,101.2895647025306,-381.4951202321509L86.14760946509051,-324.9845739600907A336.2088397537629,336.2088397537629,0,0,0,0.8999962500047123,-336.2076351532211Z"></path><path d="M109.24793335543042,-404.24151941859355A418.7437366269324,418.7437366269324,0,0,1,208.59196511180002,-363.09187412428184L178.74669132801438,-311.3983435649615A359.0533498461117,359.0533498461117,0,0,0,93.79888283234496,-346.58487793774026Z"></path><path d="M209.42010571165898,-360.9262707190294A417.2823427505992,417.2823427505992,0,0,1,294.42609448814983,-295.6988813909914L263.857811190362,-265.13059809320356A374.052374102115,374.052374102115,0,0,0,187.80506530256176,-323.4879225228186Z"></path><path d="M271.97101060828254,-270.6982237054409A383.7261509573871,383.7261509573871,0,0,1,331.8656826688643,-192.6419673780875L301.5283757099315,-175.1267150388593A348.6957523093326,348.6957523093326,0,0,0,247.20070320175896,-245.92791629891738Z"></path><path d="M332.76567891886896,-191.08312814645788A383.7261509573871,383.7261509573871,0,0,1,370.41704379237603,-100.18469242697928L331.4646811025513,-89.74743830095652A343.3998216365291,343.3998216365291,0,0,0,297.8419459481781,-170.9199015147229Z"></path><path d="M319.6759889268538,-84.7251783924828A330.7130081354527,330.7130081354527,0,0,1,330.71178351662945,-0.8999962500047608L291.43612662058064,-0.899996250004752A291.4375162755426,291.4375162755426,0,0,0,281.73861758649196,-74.55989037887322Z"></path><path d="M253.30818822342812,0.8999962500046875A253.30978704796567,253.30978704796567,0,0,1,244.90985718552372,64.69165377119441L209.77506791977058,55.27731536119817A216.9358446967345,216.9358446967345,0,0,0,216.93397779286602,0.8999962500046874Z"></path><path d="M212.01179460667262,57.740133830819225A219.733757322681,219.733757322681,0,0,1,190.74341783629882,109.08653747951662L156.3326222531023,89.21945538652894A180,180,0,0,0,173.63153923342884,47.4561753982583Z"></path><path d="M158.3445705784182,92.45950660258514A183.36238270936911,183.36238270936911,0,0,1,130.29161586765653,129.01882896481496L127.91402307805623,126.64123617521466A180,180,0,0,0,155.4326260030976,90.77829461815851Z"></path><path d="M126.64123617521469,127.91402307805623A180,180,0,0,1,90.77829461815851,155.4326260030976A180,180,0,0,0,126.64123617521469,127.91402307805623Z"></path><path d="M89.21945538652902,156.33262225310222A180,180,0,0,1,47.45617539825833,173.63153923342884A180,180,0,0,0,89.21945538652902,156.33262225310222Z"></path><path d="M47.44236106168045,180.53462039899003A186.66420863602718,186.66420863602718,0,0,1,0.8999962500047131,186.66203897007088L0.8999962500047007,183.36017397354073A183.36238270936911,183.36238270936911,0,0,0,46.587775516221086,177.3452637239217Z"></path><path d="M-0.8999962500046899,258.08635184129747A258.08792106567097,258.08792106567097,0,0,1,-65.92833351611498,249.52520882625853L-59.492094438081324,225.50483757737655A233.22037018971685,233.22037018971685,0,0,0,-0.899996250004661,233.21863364272278Z"></path><path d="M-92.9139742388723,343.28235410684624A355.63433643280285,355.63433643280285,0,0,1,-177.03717919933368,308.43738170193154L-174.44164153136754,303.94177858805534A350.44327796581945,350.44327796581945,0,0,0,-91.57042507737106,338.26816037365705Z"></path><path d="M-194.22739435387945,334.61172274262645A386.89699625906337,386.89699625906337,0,0,1,-272.94035603675815,274.2131429395998L-265.0101122389757,266.2828991418172A375.68196917643746,375.68196917643746,0,0,0,-188.61986518800478,324.89919732240736Z"></path><path d="M-279.739683189576,278.4668962867347A394.71268370622624,394.71268370622624,0,0,1,-341.3803245703241,198.13524844113834L-327.70353921318093,190.23895273354296A378.9201350548688,378.9201350548688,0,0,0,-268.5726347073862,267.299847804545Z"></path><path d="M-317.2372511993955,182.1177862225283A365.7955188450822,365.7955188450822,0,0,1,-353.0973331807044,95.54388995544139L-336.5801746155149,91.11813065664207A348.6957523093326,348.6957523093326,0,0,0,-302.4283719599361,173.56787580722977Z"></path><path d="M-312.457504225826,82.7909912462662A323.239911178325,323.239911178325,0,0,1,-323.23865824700084,0.8999962500049941L-309.7271160801414,0.8999962500050576A309.7284236691418,309.7284236691418,0,0,0,-299.4063566938628,79.29394680477711Z"></path><path d="M-336.2076351532211,-0.899996250004576A336.2088397537629,336.2088397537629,0,0,1,-324.9845739600907,-86.14760946509045L-308.78494048882106,-81.80693075878354A319.4378083334175,319.4378083334175,0,0,0,-319.43654048904165,-0.8999962500046189Z"></path><path d="M-328.0100649371108,-88.82177668926712A339.8233522203642,339.8233522203642,0,0,1,-294.7446218284891,-169.13166060045253L-268.68154889129664,-154.08413842425566A309.7284236691418,309.7284236691418,0,0,0,-298.9404843538187,-81.03260604766257Z"></path><path d="M-311.96830491835516,-181.1542109776629A360.75070537501574,360.75070537501574,0,0,1,-255.72486970556443,-254.45208280272243L-237.0828044439166,-235.8100175410746A334.3869323638624,334.3869323638624,0,0,0,-289.1365310970046,-167.9722802158296Z"></path><path d="M-265.01011223897575,-266.28289914181715A375.68196917643746,375.68196917643746,0,0,1,-188.61986518800518,-324.89919732240713L-180.30553055964404,-310.4983473149568A359.0533498461117,359.0533498461117,0,0,0,-253.2518674454394,-254.52465434828093Z"></path><path d="M-200.40837179410605,-348.91747470955437A402.37658933250225,402.37658933250225,0,0,1,-105.01179373944488,-388.4320311437787L-98.10269913069577,-362.6469390296268A375.68196917643746,375.68196917643746,0,0,0,-187.06102595637537,-325.799193572412Z"></path><path d="M-97.20214127275705,-366.2406483201872A378.9201350548688,378.9201350548688,0,0,1,-0.8999962500050643,-378.9190662354561L-0.8999962500052028,-345.1729869204819A345.17416023343515,345.17416023343515,0,0,0,-88.46801324850128,-333.64443877385423Z"></path></g><g fill="#d0743c"><path d="M0.8999962500046856,-424.5380554702537A424.5390094393144,424.5390094393144,0,0,1,109.00920450504923,-410.3052081912812L101.2895647025306,-381.4951202321509A394.71268370622624,394.71268370622624,0,0,0,0.8999962500047298,-394.71165765064677Z"></path><path d="M117.25858847657769,-434.1376913326271A449.6944647281561,449.6944647281561,0,0,1,224.067362445822,-389.89604857412377L208.59196511180002,-363.09187412428184A418.7437366269324,418.7437366269324,0,0,0,109.24793335543042,-404.24151941859355Z"></path><path d="M232.31879830897802,-400.5879697244872A463.07963195946576,463.07963195946576,0,0,1,326.8097361198908,-328.0825230227323L294.42609448814983,-295.6988813909914A417.2823427505992,417.2823427505992,0,0,0,209.42010571165898,-360.9262707190294Z"></path><path d="M298.78822872729995,-297.5154418244584A421.65132959591153,421.65132959591153,0,0,1,364.70993302512056,-211.60460416260347L331.8656826688643,-192.6419673780875A383.7261509573871,383.7261509573871,0,0,0,271.97101060828254,-270.6982237054409Z"></path><path d="M346.2778991797316,-198.88441215141643A399.32867772943985,399.32867772943985,0,0,1,385.4879671895866,-104.22293418045314L370.41704379237603,-100.18469242697928A383.7261509573871,383.7261509573871,0,0,0,332.76567891886896,-191.08312814645788Z"></path><path d="M333.64443877385423,-88.46801324850122A345.17416023343515,345.17416023343515,0,0,1,345.1729869204819,-0.8999962500047642L330.71178351662945,-0.8999962500047608A330.7130081354527,330.7130081354527,0,0,0,319.6759889268538,-84.7251783924828Z"></path><path d="M253.30818822342812,0.8999962500046875A253.30978704796567,253.30978704796567,0,0,1,244.90985718552372,64.69165377119441A253.30978704796567,253.30978704796567,0,0,0,253.30818822342812,0.8999962500046875Z"></path><path d="M212.01179460667262,57.740133830819225A219.733757322681,219.733757322681,0,0,1,190.74341783629882,109.08653747951662A219.733757322681,219.733757322681,0,0,0,212.01179460667262,57.740133830819225Z"></path><path d="M158.3445705784182,92.45950660258514A183.36238270936911,183.36238270936911,0,0,1,130.29161586765653,129.01882896481496A183.36238270936911,183.36238270936911,0,0,0,158.3445705784182,92.45950660258514Z"></path><path d="M126.64123617521469,127.91402307805623A180,180,0,0,1,90.77829461815851,155.4326260030976A180,180,0,0,0,126.64123617521469,127.91402307805623Z"></path><path d="M89.21945538652902,156.33262225310222A180,180,0,0,1,47.45617539825833,173.63153923342884A180,180,0,0,0,89.21945538652902,156.33262225310222Z"></path><path d="M47.44236106168045,180.53462039899003A186.66420863602718,186.66420863602718,0,0,1,0.8999962500047131,186.66203897007088A186.66420863602718,186.66420863602718,0,0,0,47.44236106168045,180.53462039899003Z"></path><path d="M-0.8999962500046785,274.1548992025311A274.15637645329355,274.15637645329355,0,0,1,-70.08717960033411,265.04623371342313L-65.92833351611498,249.52520882625853A258.08792106567097,258.08792106567097,0,0,0,-0.8999962500046899,258.08635184129747Z"></path><path d="M-100.1846924269791,370.4170437923761A383.7261509573871,383.7261509573871,0,0,1,-191.08312814645777,332.76567891886907L-177.03717919933368,308.43738170193154A355.63433643280285,355.63433643280285,0,0,0,-92.9139742388723,343.28235410684624Z"></path><path d="M-208.68683902726892,359.6562155661684A415.8158128048661,415.8158128048661,0,0,1,-293.38909879824917,294.6618857010907L-272.94035603675815,274.2131429395998A386.89699625906337,386.89699625906337,0,0,0,-194.22739435387945,334.61172274262645Z"></path><path d="M-293.6212196732441,292.3484327704029A414.3440922539071,414.3440922539071,0,0,1,-358.3816651857319,207.9509770220285L-341.3803245703241,198.13524844113834A394.71268370622624,394.71268370622624,0,0,0,-279.739683189576,278.4668962867347Z"></path><path d="M-328.6035354631856,188.68011350191344A378.9201350548688,378.9201350548688,0,0,1,-365.77477598014303,98.94080051564265L-353.0973331807044,95.54388995544139A365.7955188450822,365.7955188450822,0,0,0,-317.2372511993955,182.1177862225283Z"></path><path d="M-321.4552652800119,85.20193405442345A332.5550437790068,332.5550437790068,0,0,1,-332.5538259434209,0.8999962500050637L-323.23865824700084,0.8999962500049941A323.239911178325,323.239911178325,0,0,0,-312.457504225826,82.7909912462662Z"></path><path d="M-355.63319763029716,-0.8999962500046688A355.63433643280285,355.63433643280285,0,0,1,-343.7482264468904,-91.17531499598655L-324.9845739600907,-86.14760946509045A336.2088397537629,336.2088397537629,0,0,0,-336.2076351532211,-0.899996250004576Z"></path><path d="M-348.22440260580146,-94.23819214312267A360.75070537501574,360.75070537501574,0,0,1,-312.8683011683597,-179.59537174603344L-294.7446218284891,-169.13166060045253A339.8233522203642,339.8233522203642,0,0,0,-328.0100649371108,-88.82177668926712Z"></path><path d="M-329.0967612464189,-191.04332984947342A380.52888476810426,380.52888476810426,0,0,1,-269.7101957339985,-268.43740883115635L-255.72486970556443,-254.45208280272243A360.75070537501574,360.75070537501574,0,0,0,-311.96830491835516,-181.1542109776629Z"></path><path d="M-278.4668962867346,-279.73968318957606A394.71268370622624,394.71268370622624,0,0,1,-198.13524844113834,-341.38032457032403L-188.61986518800518,-324.89919732240713A375.68196917643746,375.68196917643746,0,0,0,-265.01011223897575,-266.28289914181715Z"></path><path d="M-212.20785930907874,-369.3547865887616A425.9755086018108,425.9755086018108,0,0,1,-111.11965792209354,-411.2268905991537L-105.01179373944488,-388.4320311437787A402.37658933250225,402.37658933250225,0,0,0,-200.40837179410605,-348.91747470955437Z"></path><path d="M-102.87945448687736,-387.4286696857662A400.8555303971744,400.8555303971744,0,0,1,-0.899996250005068,-400.85452006526003L-0.8999962500050643,-378.9190662354561A378.9201350548688,378.9201350548688,0,0,0,-97.20214127275705,-366.2406483201872Z"></path></g><g fill="#ff8c00"><path d="M0.8999962500047178,-448.3330661696009A448.33396950742616,448.33396950742616,0,0,1,115.16780645245849,-433.28942356260535L109.00920450504923,-410.3052081912812A424.5390094393144,424.5390094393144,0,0,0,0.8999962500046856,-424.5380554702537Z"></path><path d="M124.08991292284375,-459.6325412490795A476.08862564052686,476.08862564052686,0,0,1,237.2644678666386,-412.7541056758207L224.067362445822,-389.89604857412377A449.6944647281561,449.6944647281561,0,0,0,117.25858847657769,-434.1376913326271Z"></path><path d="M244.52900423430697,-421.7366667580355A487.5,487.5,0,0,1,344.0775749388593,-345.3503618417008L326.8097361198908,-328.0825230227323A463.07963195946576,463.07963195946576,0,0,0,232.31879830897802,-400.5879697244872Z"></path><path d="M317.6557447701027,-316.3829578672611A448.33396950742616,448.33396950742616,0,0,1,387.8178265344417,-224.94595270061524L364.70993302512056,-211.60460416260347A421.65132959591153,421.65132959591153,0,0,0,298.78822872729995,-297.5154418244584Z"></path><path d="M365.60992927512524,-210.04576493097392A421.65132959591153,421.65132959591153,0,0,1,407.0500450017822,-110.000475517368L385.4879671895866,-104.22293418045314A399.32867772943985,399.32867772943985,0,0,0,346.2778991797316,-198.88441215141643Z"></path><path d="M351.946396923537,-93.37200815461692A364.12168050568715,364.12168050568715,0,0,1,364.1205682477106,-0.8999962500047682L345.1729869204819,-0.8999962500047642A345.17416023343515,345.17416023343515,0,0,0,333.64443877385423,-88.46801324850122Z"></path><path d="M260.4425625730309,0.8999962500046875A260.4441176007958,260.4441176007958,0,0,1,251.80113362421932,66.5381657277625L244.90985718552372,64.69165377119441A253.30978704796567,253.30978704796567,0,0,0,253.30818822342812,0.8999962500046875Z"></path><path d="M212.01179460667262,57.740133830819225A219.733757322681,219.733757322681,0,0,1,190.74341783629882,109.08653747951662A219.733757322681,219.733757322681,0,0,0,212.01179460667262,57.740133830819225Z"></path><path d="M158.3445705784182,92.45950660258514A183.36238270936911,183.36238270936911,0,0,1,130.29161586765653,129.01882896481496A183.36238270936911,183.36238270936911,0,0,0,158.3445705784182,92.45950660258514Z"></path><path d="M126.64123617521469,127.91402307805623A180,180,0,0,1,90.77829461815851,155.4326260030976A180,180,0,0,0,126.64123617521469,127.91402307805623Z"></path><path d="M89.21945538652902,156.33262225310222A180,180,0,0,1,47.45617539825833,173.63153923342884A180,180,0,0,0,89.21945538652902,156.33262225310222Z"></path><path d="M47.44236106168045,180.53462039899003A186.66420863602718,186.66420863602718,0,0,1,0.8999962500047131,186.66203897007088A186.66420863602718,186.66420863602718,0,0,0,47.44236106168045,180.53462039899003Z"></path><path d="M-0.8999962500046594,278.5757267646704A278.5771805724839,278.5771805724839,0,0,1,-71.23137396852991,269.316425229264L-70.08717960033411,265.04623371342313A274.15637645329355,274.15637645329355,0,0,0,-0.8999962500046785,274.1548992025311Z"></path><path d="M-104.22293418045294,385.48796718958664A399.32867772943985,399.32867772943985,0,0,1,-198.88441215141634,346.27789917973166L-191.08312814645777,332.76567891886907A383.7261509573871,383.7261509573871,0,0,0,-100.1846924269791,370.4170437923761Z"></path><path d="M-214.48253571860963,369.6946567008291A427.40717977290524,427.40717977290524,0,0,1,-301.58545166254385,302.85823856538553L-293.38909879824917,294.6618857010907A415.8158128048661,415.8158128048661,0,0,0,-208.68683902726892,359.6562155661684Z"></path><path d="M-303.86720547506343,302.59441857222237A428.8340713076396,428.8340713076396,0,0,1,-370.93038374886123,215.19598306243603L-358.3816651857319,207.9509770220285A414.3440922539071,414.3440922539071,0,0,0,-293.6212196732441,292.3484327704029Z"></path><path d="M-342.28032082032877,196.57640920950874A394.71268370622624,394.71268370622624,0,0,1,-381.02924789210664,103.02822394541661L-365.77477598014303,98.94080051564265A378.9201350548688,378.9201350548688,0,0,0,-328.6035354631856,188.68011350191344Z"></path><path d="M-338.7340327137011,89.83176583448568A350.44327796581945,350.44327796581945,0,0,1,-350.4421222943649,0.8999962500050593L-332.5538259434209,0.8999962500050637A332.5550437790068,332.5550437790068,0,0,0,-321.4552652800119,85.20193405442345Z"></path><path d="M-377.3034526265202,-0.8999962500045688A377.3045260226053,377.3045260226053,0,0,1,-364.680085410012,-96.78398970123722L-343.7482264468904,-91.17531499598655A355.63433643280285,355.63433643280285,0,0,0,-355.63319763029716,-0.8999962500046688Z"></path><path d="M-373.47985351560186,-101.00536981888764A386.89699625906337,386.89699625906337,0,0,1,-335.51171899263124,-192.66855512224964L-312.8683011683597,-179.59537174603344A360.75070537501574,360.75070537501574,0,0,0,-348.22440260580146,-94.23819214312267Z"></path><path d="M-340.03736870282626,-197.3598925095281A393.16197588998136,393.16197588998136,0,0,1,-278.6431643154274,-277.3703774125853L-269.7101957339985,-268.43740883115635A380.52888476810426,380.52888476810426,0,0,0,-329.0967612464189,-191.04332984947342Z"></path><path d="M-293.3890987982493,-294.6618857010906A415.8158128048661,415.8158128048661,0,0,1,-208.68683902726914,-359.65621556616827L-198.13524844113834,-341.38032457032403A394.71268370622624,394.71268370622624,0,0,0,-278.4668962867346,-279.73968318957606Z"></path><path d="M-221.3338668184192,-385.1614952651946A444.2274845568589,444.2274845568589,0,0,1,-115.84362702042557,-428.85698328751374L-111.11965792209354,-411.2268905991537A425.9755086018108,425.9755086018108,0,0,0,-212.20785930907874,-369.3547865887616Z"></path><path d="M-104.83319327667571,-394.7201221140124A408.40417874243855,408.40417874243855,0,0,1,-0.8999962500052434,-408.4031870848166L-0.899996250005068,-400.85452006526003A400.8555303971744,400.8555303971744,0,0,0,-102.87945448687736,-387.4286696857662Z"></path></g></g><g text-anchor="middle"><g transform="
          rotate(-82.5)
          translate(180,0)
        "><line x2="-5" stroke="#000"></line><text transform="rotate(90)translate(0,16)">0</text></g><g transform="
          rotate(-67.5)
          translate(180,0)
        "><line x2="-5" stroke="#000"></line><text transform="rotate(90)translate(0,16)">1</text></g><g transform="
          rotate(-52.50000000000001)
          translate(180,0)
        "><line x2="-5" stroke="#000"></line><text transform="rotate(90)translate(0,16)">2</text></g><g transform="
          rotate(-37.50000000000001)
          translate(180,0)
        "><line x2="-5" stroke="#000"></line><text transform="rotate(90)translate(0,16)">3</text></g><g transform="
          rotate(-22.5)
          translate(180,0)
        "><line x2="-5" stroke="#000"></line><text transform="rotate(90)translate(0,16)">4</text></g><g transform="
          rotate(-7.500000000000014)
          translate(180,0)
        "><line x2="-5" stroke="#000"></line><text transform="rotate(90)translate(0,16)">5</text></g><g transform="
          rotate(7.500000000000014)
          translate(180,0)
        "><line x2="-5" stroke="#000"></line><text transform="rotate(-90)translate(0,-9)">6</text></g><g transform="
          rotate(22.5)
          translate(180,0)
        "><line x2="-5" stroke="#000"></line><text transform="rotate(-90)translate(0,-9)">7</text></g><g transform="
          rotate(37.499999999999986)
          translate(180,0)
        "><line x2="-5" stroke="#000"></line><text transform="rotate(-90)translate(0,-9)">8</text></g><g transform="
          rotate(52.5)
          translate(180,0)
        "><line x2="-5" stroke="#000"></line><text transform="rotate(-90)translate(0,-9)">9</text></g><g transform="
          rotate(67.49999999999997)
          translate(180,0)
        "><line x2="-5" stroke="#000"></line><text transform="rotate(-90)translate(0,-9)">10</text></g><g transform="
          rotate(82.49999999999997)
          translate(180,0)
        "><line x2="-5" stroke="#000"></line><text transform="rotate(-90)translate(0,-9)">11</text></g><g transform="
          rotate(97.5)
          translate(180,0)
        "><line x2="-5" stroke="#000"></line><text transform="rotate(-90)translate(0,-9)">12</text></g><g transform="
          rotate(112.49999999999997)
          translate(180,0)
        "><line x2="-5" stroke="#000"></line><text transform="rotate(-90)translate(0,-9)">13</text></g><g transform="
          rotate(127.49999999999997)
          translate(180,0)
        "><line x2="-5" stroke="#000"></line><text transform="rotate(-90)translate(0,-9)">14</text></g><g transform="
          rotate(142.5)
          translate(180,0)
        "><line x2="-5" stroke="#000"></line><text transform="rotate(-90)translate(0,-9)">15</text></g><g transform="
          rotate(157.49999999999997)
          translate(180,0)
        "><line x2="-5" stroke="#000"></line><text transform="rotate(-90)translate(0,-9)">16</text></g><g transform="
          rotate(172.49999999999994)
          translate(180,0)
        "><line x2="-5" stroke="#000"></line><text transform="rotate(-90)translate(0,-9)">17</text></g><g transform="
          rotate(187.5)
          translate(180,0)
        "><line x2="-5" stroke="#000"></line><text transform="rotate(90)translate(0,16)">18</text></g><g transform="
          rotate(202.49999999999994)
          translate(180,0)
        "><line x2="-5" stroke="#000"></line><text transform="rotate(90)translate(0,16)">19</text></g><g transform="
          rotate(217.49999999999994)
          translate(180,0)
        "><line x2="-5" stroke="#000"></line><text transform="rotate(90)translate(0,16)">20</text></g><g transform="
          rotate(232.5)
          translate(180,0)
        "><line x2="-5" stroke="#000"></line><text transform="rotate(90)translate(0,16)">21</text></g><g transform="
          rotate(247.49999999999994)
          translate(180,0)
        "><line x2="-5" stroke="#000"></line><text transform="rotate(90)translate(0,16)">22</text></g><g transform="
          rotate(262.49999999999994)
          translate(180,0)
        "><line x2="-5" stroke="#000"></line><text transform="rotate(90)translate(0,16)">23</text></g></g><g text-anchor="middle"><text y="-477.3700271876554" dy="-1em">Population</text><g fill="none"><circle stroke="#000" stroke-opacity="0.5" r="285.07987602474805"></circle><text y="-285.07987602474805" dy="0.35em" stroke="#fff" stroke-width="5">200</text><text y="-285.07987602474805" dy="0.35em" stroke="none" stroke-width="5" fill="#000">200</text></g><g fill="none"><circle stroke="#000" stroke-opacity="0.5" r="360.75070537501574"></circle><text y="-360.75070537501574" dy="0.35em" stroke="#fff" stroke-width="5">400</text><text y="-360.75070537501574" dy="0.35em" stroke="none" stroke-width="5" fill="#000">400</text></g><g fill="none"><circle stroke="#000" stroke-opacity="0.5" r="423.0976331094954"></circle><text y="-423.0976331094954" dy="0.35em" stroke="#fff" stroke-width="5">600</text><text y="-423.0976331094954" dy="0.35em" stroke="none" stroke-width="5" fill="#000">600</text></g><g fill="none"><circle stroke="#000" stroke-opacity="0.5" r="477.3700271876554"></circle><text y="-477.3700271876554" dy="0.35em" stroke="#fff" stroke-width="5">800</text><text y="-477.3700271876554" dy="0.35em" stroke="none" stroke-width="5" fill="#000">800</text></g></g><g><g><g transform="translate(-40,-70)"><rect width="18" height="18" fill="#ff8c00"></rect><text x="24" y="9" dy="0.35em">Sat</text></g><g transform="translate(-40,-50)"><rect width="18" height="18" fill="#d0743c"></rect><text x="24" y="9" dy="0.35em">Fri</text></g><g transform="translate(-40,-30)"><rect width="18" height="18" fill="#a05d56"></rect><text x="24" y="9" dy="0.35em">Thu</text></g><g transform="translate(-40,-10)"><rect width="18" height="18" fill="#6b486b"></rect><text x="24" y="9" dy="0.35em">Wed</text></g><g transform="translate(-40,10)"><rect width="18" height="18" fill="#7b6888"></rect><text x="24" y="9" dy="0.35em">Tue</text></g><g transform="translate(-40,30)"><rect width="18" height="18" fill="#8a89a6"></rect><text x="24" y="9" dy="0.35em">Mon</text></g><g transform="translate(-40,50)"><rect width="18" height="18" fill="#98abc5"></rect><text x="24" y="9" dy="0.35em">Sun (UTC+8)</text></g></g></g></svg>