<svg viewBox="-400 -400 800 800" width="800" height="800" id="myTooltip" style="width: 100%; height: auto; font: 10px sans-serif;"><g><g fill="#98abc5"><path d="M0.9999958333385326,-199.99750000520834A200,200,0,0,1,36.8678511390586,-196.57253509172693A200,200,0,0,0,0.9999958333385326,-199.99750000520834Z"></path><path d="M39.294628884889185,-198.59593549327582A202.44607542170468,202.44607542170468,0,0,1,74.31232353774057,-188.31381262157248L73.40319791304091,-186.0429265952859A200,200,0,0,0,38.83170035085505,-196.19403418009784Z"></path><path d="M75.7158702973967,-186.4384984704958A201.2267545005516,201.2267545005516,0,0,1,107.94880366023759,-169.82126638071202L107.28556186427922,-168.78924200157402A200,200,0,0,0,75.25992604268326,-185.29960478114853Z"></path><path d="M108.96806191950424,-167.70796487199732A200,200,0,0,1,137.2903460799375,-145.4350744258447A200,200,0,0,0,108.96806191950424,-167.70796487199732Z"></path><path d="M138.73780812503819,-144.05492215353172A200,200,0,0,1,162.33309948175915,-116.82450433297495A200,200,0,0,0,138.73780812503819,-144.05492215353172Z"></path><path d="M166.86631899261263,-117.59734034858757A204.14088975804407,204.14088975804407,0,0,1,185.27544365566794,-85.71180110930652L181.50871171354478,-83.99159227023434A200,200,0,0,0,163.49320846710003,-115.19535921699872Z"></path><path d="M182.33953827776114,-82.17233585978245A200,200,0,0,1,194.1241261876673,-48.123005224888324A200,200,0,0,0,182.33953827776114,-82.17233585978245Z"></path><path d="M194.5956420940308,-46.17939018666085A200,200,0,0,1,199.72338895589004,-10.515127387447695A200,200,0,0,0,194.5956420940308,-46.17939018666085Z"></path><path d="M199.81855239102205,-8.517401032965768A200,200,0,0,1,198.1041280730327,27.472794550672468A200,200,0,0,0,199.81855239102205,-8.517401032965768Z"></path><path d="M197.81949958244164,29.452429185932633A200,200,0,0,1,189.32486784634474,64.46777811406331A200,200,0,0,0,197.81949958244164,29.452429185932633Z"></path><path d="M188.67073464527283,66.35777187649566A200,200,0,0,1,173.7029136145581,99.13272820725437A200,200,0,0,0,188.67073464527283,66.35777187649566Z"></path><path d="M172.70291778121955,100.8647717979539A200,200,0,0,1,151.80288350621427,130.21476321523124A200,200,0,0,0,172.70291778121955,100.8647717979539Z"></path><path d="M150.679048035423,131.88732247075052A200.24595213228417,200.24595213228417,0,0,1,124.56834108830677,156.78383125779365L124.4163016694007,156.5904974093533A200,200,0,0,0,150.49316749548967,131.72625606603452Z"></path><path d="M122.84420203034945,157.826810230476A200,200,0,0,1,92.53299052674286,177.30664303453977A200,200,0,0,0,122.84420203034945,157.826810230476Z"></path><path d="M90.75532703638586,178.22309225944502A200,200,0,0,1,57.30529601409325,191.61446461250557A200,200,0,0,0,90.75532703638586,178.22309225944502Z"></path><path d="M55.524820231376786,192.6496224470824A200.49160254417168,200.49160254417168,0,0,1,20.05316917142542,199.4862228248164L20.00643879600196,198.99684019275742A200,200,0,0,0,55.38631806262917,192.17792737842Z"></path><path d="M18.015503246444815,199.18695148723307A200,200,0,0,1,-18.01550324644479,199.18695148723307A200,200,0,0,0,18.015503246444815,199.18695148723307Z"></path><path d="M-20.006438796001934,198.99684019275742A200,200,0,0,1,-55.386318062629144,192.17792737842004A200,200,0,0,0,-20.006438796001934,198.99684019275742Z"></path><path d="M-57.30529601409323,191.61446461250557A200,200,0,0,1,-90.75532703638585,178.22309225944502A200,200,0,0,0,-57.30529601409323,191.61446461250557Z"></path><path d="M-92.53299052674284,177.3066430345398A200,200,0,0,1,-122.84420203034945,157.826810230476A200,200,0,0,0,-92.53299052674284,177.3066430345398Z"></path><path d="M-124.41630166940065,156.59049740935333A200,200,0,0,1,-150.49316749548967,131.72625606603452A200,200,0,0,0,-124.41630166940065,156.59049740935333Z"></path><path d="M-151.98876404614757,130.3758296199473A200.24595213228417,200.24595213228417,0,0,1,-172.91592123515989,100.98774939942479L-172.70291778121953,100.86477179795399A200,200,0,0,0,-151.80288350621422,130.2147632152313Z"></path><path d="M-175.6106174903093,100.23414155345351A202.20279945709328,202.20279945709328,0,0,1,-190.7524076730756,67.07824591631967L-188.67073464527283,66.3577718764957A200,200,0,0,0,-173.70291361455804,99.13272820725449Z"></path><path d="M-189.32486784634472,64.46777811406339A200,200,0,0,1,-197.81949958244164,29.452429185932633A200,200,0,0,0,-189.32486784634472,64.46777811406339Z"></path><path d="M-198.59073287977006,27.54275775963492A200.49160254417168,200.49160254417168,0,0,1,-200.30960423933905,-8.54079271551975L-199.81855239102205,-8.51740103296581A200,200,0,0,0,-198.10412807303268,27.472794550672514Z"></path><path d="M-200.21444080420702,-10.53851907000172A200.49160254417168,200.49160254417168,0,0,1,-195.0733930907061,-46.29529132437737L-194.59564209403078,-46.17939018666093A200,200,0,0,0,-199.72338895589004,-10.515127387447693Z"></path><path d="M-194.12412618766731,-48.12300522488819A200,200,0,0,1,-182.33953827776114,-82.17233585978241A200,200,0,0,0,-194.12412618766731,-48.12300522488819Z"></path><path d="M-181.50871171354484,-83.99159227023425A200,200,0,0,1,-163.49320846710003,-115.19535921699871A200,200,0,0,0,-181.50871171354484,-83.99159227023425Z"></path><path d="M-162.5334486753571,-116.96717234788616A200.24595213228417,200.24595213228417,0,0,1,-138.90753664835302,-144.23292830574962L-138.73780812503819,-144.05492215353172A200,200,0,0,0,-162.3330994817592,-116.82450433297488Z"></path><path d="M-138.13691413057526,-146.32292944479804A201.2267545005516,201.2267545005516,0,0,1,-109.6313037154626,-168.7399892511353L-108.96806191950417,-167.70796487199738A200,200,0,0,0,-137.29034607993754,-145.4350744258447Z"></path><path d="M-107.41853528625508,-168.99615268496683A200.24595213228417,200.24595213228417,0,0,1,-75.35133835739116,-185.52794170451793L-75.25992604268336,-185.29960478114847A200,200,0,0,0,-107.28556186427936,-168.78924200157394Z"></path><path d="M-73.40319791304103,-186.04292659528588A200,200,0,0,1,-38.83170035085512,-196.19403418009784A200,200,0,0,0,-73.40319791304103,-186.04292659528588Z"></path><path d="M-36.867851139058665,-196.5725350917269A200,200,0,0,1,-0.999995833338557,-199.99750000520834A200,200,0,0,0,-36.867851139058665,-196.5725350917269Z"></path></g><g fill="#8a89a6"><path d="M0.9999958333385429,-234.43993794535393A234.44207066029787,234.44207066029787,0,0,1,43.38612537803735,-230.39255330884575L36.8678511390586,-196.57253509172693A200,200,0,0,0,0.9999958333385326,-199.99750000520834Z"></path><path d="M42.85615736900803,-217.07489998565626A221.26491458932176,221.26491458932176,0,0,1,81.30665758709023,-205.7848144548949L74.31232353774057,-188.31381262157248A202.44607542170468,202.44607542170468,0,0,0,39.294628884889185,-198.59593549327582Z"></path><path d="M87.66985695709594,-216.29811360662666A233.3899692974461,233.3899692974461,0,0,1,125.33773552872752,-196.87897252168293L107.94880366023759,-169.82126638071202A201.2267545005516,201.2267545005516,0,0,0,75.7158702973967,-186.4384984704958Z"></path><path d="M119.37752332198053,-183.905402980566A219.25371221471798,219.25371221471798,0,0,1,150.57708027157483,-159.36980020324455L137.2903460799375,-145.4350744258447A200,200,0,0,0,108.96806191950424,-167.70796487199732Z"></path><path d="M142.75532359662265,-148.26837111665063A205.82174882349358,205.82174882349358,0,0,1,167.07541367432418,-120.20149098207862L162.33309948175915,-116.82450433297495A200,200,0,0,0,138.73780812503819,-144.05492215353172Z"></path><path d="M206.20743010138045,-145.6120187483236A252.43685197089954,252.43685197089954,0,0,1,229.20742238307443,-105.77486354273756L185.27544365566794,-85.71180110930652A204.14088975804407,204.14088975804407,0,0,0,166.86631899261263,-117.59734034858757Z"></path><path d="M194.89081545326653,-87.90431208498192A213.79803093380698,213.79803093380698,0,0,1,207.53336906685774,-51.37605234866243L194.1241261876673,-48.123005224888324A200,200,0,0,0,182.33953827776114,-82.17233585978245Z"></path><path d="M196.7363745567152,-46.69872626277238A202.20279945709328,202.20279945709328,0,0,1,201.9237205928071,-10.619942101699674L199.72338895589004,-10.515127387447695A200,200,0,0,0,194.5956420940308,-46.17939018666085Z"></path><path d="M210.12336554041636,-9.008279783946769A210.3163756123077,210.3163756123077,0,0,1,208.31561923880628,28.940985329632138L198.1041280730327,27.472794550672468A200,200,0,0,0,199.81855239102205,-8.517401032965768Z"></path><path d="M209.18604676513036,31.086691948472986A211.48329621396238,211.48329621396238,0,0,1,200.1767204523947,68.22364081787465L189.32486784634474,64.46777811406331A200,200,0,0,0,197.81949958244164,29.452429185932633Z"></path><path d="M197.08839901003452,69.27115383886995A208.90746702429516,208.90746702429516,0,0,1,181.41709865656674,103.58651501783665L173.7029136145581,99.13272820725437A200,200,0,0,0,188.67073464527283,66.35777187649566Z"></path><path d="M212.12276160156932,123.62382923904585A245.51765139232043,245.51765139232043,0,0,1,186.20317945383295,160.022789334784L151.80288350621427,130.21476321523124A200,200,0,0,0,172.70291778121955,100.8647717979539Z"></path><path d="M187.15238936190687,163.49165263647555A248.50661424935308,248.50661424935308,0,0,1,154.4014028107984,194.71965523730356L124.56834108830677,156.78383125779365A200.24595213228417,200.24595213228417,0,0,0,150.679048035423,131.88732247075052Z"></path><path d="M125.25482656998906,160.89216869308095A203.89963591394874,203.89963591394874,0,0,1,94.31992903708202,180.77282017018118L92.53299052674286,177.30664303453977A200,200,0,0,0,122.84420203034945,157.826810230476Z"></path><path d="M101.31180473674252,198.69980224480454A223.03742553916882,223.03742553916882,0,0,1,63.79576156495081,213.7189603135113L57.30529601409325,191.61446461250557A200,200,0,0,0,90.75532703638586,178.22309225944502Z"></path><path d="M62.49548113620513,216.38951333728036A225.23344921390074,225.23344921390074,0,0,1,22.405057260813205,224.11630921004053L20.05316917142542,199.4862228248164A200.49160254417168,200.49160254417168,0,0,0,55.524820231376786,192.6496224470824Z"></path><path d="M18.22489523590902,201.37980360980995A202.20279945709328,202.20279945709328,0,0,1,-18.224895235908996,201.37980360980995L-18.01550324644479,199.18695148723307A200,200,0,0,0,18.015503246444815,199.18695148723307Z"></path><path d="M-20.830748451921657,207.62940146346008A208.67172408628323,208.67172408628323,0,0,1,-57.82945433170536,200.4984853928805L-55.386318062629144,192.17792737842004A200,200,0,0,0,-20.006438796001934,198.99684019275742Z"></path><path d="M-58.13127629784156,194.42749512444126A202.93175243017203,202.93175243017203,0,0,1,-92.09875030517915,180.82896984887375L-90.75532703638585,178.22309225944502A200,200,0,0,0,-57.30529601409323,191.61446461250557Z"></path><path d="M-93.20714589343561,178.61432200859517A201.4712090403746,201.4712090403746,0,0,1,-123.75365440438262,158.98327299986923L-122.84420203034945,157.826810230476A200,200,0,0,0,-92.53299052674284,177.3066430345398Z"></path><path d="M-132.6608423026623,167.07428365847073A213.33709321269703,213.33709321269703,0,0,1,-160.57278813229166,140.4602970659864L-150.49316749548967,131.72625606603452A200,200,0,0,0,-124.41630166940065,156.59049740935333Z"></path><path d="M-172.84374175854296,148.4467706758135A227.84073996801243,227.84073996801243,0,0,1,-196.81397041332136,114.78529452554328L-172.91592123515989,100.98774939942479A200.24595213228417,200.24595213228417,0,0,0,-151.98876404614757,130.3758296199473Z"></path><path d="M-189.98807334135967,108.53496955931948A218.80426784961088,218.80426784961088,0,0,1,-206.44098619618148,72.50811573577316L-190.7524076730756,67.07824591631967A202.20279945709328,202.20279945709328,0,0,0,-175.6106174903093,100.23414155345351Z"></path><path d="M-195.50329136815162,66.60615128556856A206.53792950655924,206.53792950655924,0,0,1,-204.29096072596104,30.382884828802595L-197.81949958244164,29.452429185932633A200,200,0,0,0,-189.32486784634472,64.46777811406339Z"></path><path d="M-222.86459974899313,31.03281292675295A225.0148112890033,225.0148112890033,0,0,1,-224.80530799502722,-9.70766690233603L-200.30960423933905,-8.54079271551975A200.49160254417168,200.49160254417168,0,0,0,-198.59073287977006,27.54275775963492Z"></path><path d="M-205.7773499173513,-10.803513091503353A206.06075228952827,206.06075228952827,0,0,1,-200.48562274084944,-47.60828403061934L-195.0733930907061,-46.29529132437737A200.49160254417168,200.49160254417168,0,0,0,-200.21444080420702,-10.53851907000172Z"></path><path d="M-194.12412618766731,-48.12300522488819A200,200,0,0,1,-182.33953827776114,-82.17233585978241A200,200,0,0,0,-194.12412618766731,-48.12300522488819Z"></path><path d="M-184.39606070206554,-85.31020037079895A203.1741555654796,203.1741555654796,0,0,1,-166.07883107408534,-117.03657274036661L-163.49320846710003,-115.19535921699871A200,200,0,0,0,-181.50871171354484,-83.99159227023425Z"></path><path d="M-170.9272035557645,-122.94433813994283A210.5502771217895,210.5502771217895,0,0,1,-146.01841937931871,-151.69060748124042L-138.90753664835302,-144.23292830574962A200.24595213228417,200.24595213228417,0,0,0,-162.5334486753571,-116.96717234788616Z"></path><path d="M-180.72589966538033,-190.9889719805692A262.94227166443926,262.94227166443926,0,0,1,-142.99754666884436,-220.6588767186751L-109.6313037154626,-168.7399892511353A201.2267545005516,201.2267545005516,0,0,0,-138.13691413057526,-146.32292944479804Z"></path><path d="M-107.81647917332921,-169.61536545999388A200.98200263073363,200.98200263073363,0,0,1,-75.62490409181159,-186.21127587384314L-75.35133835739116,-185.52794170451793A200.24595213228417,200.24595213228417,0,0,0,-107.41853528625508,-168.99615268496683Z"></path><path d="M-74.04074344924118,-187.63543835597534A201.71536733118617,201.71536733118617,0,0,1,-39.156339776292796,-197.87842346470944L-38.83170035085512,-196.19403418009784A200,200,0,0,0,-73.40319791304103,-186.04292659528588Z"></path><path d="M-37.51439240313218,-199.9271097118512A203.41626983874903,203.41626983874903,0,0,1,-0.9999958333386373,-203.41381183057374L-0.999995833338557,-199.99750000520834A200,200,0,0,0,-36.867851139058665,-196.5725350917269Z"></path></g><g fill="#7b6888"><path d="M0.9999958333385682,-303.59992268083926A303.60156956688854,303.60156956688854,0,0,1,56.4747385491749,-298.30272702286953L43.38612537803735,-230.39255330884575A234.44207066029787,234.44207066029787,0,0,0,0.9999958333385429,-234.43993794535393Z"></path><path d="M48.2733934675624,-245.1821898636972A249.8892289460115,249.8892289460115,0,0,1,91.94533675712624,-232.3589503157793L81.30665758709023,-205.7848144548949A221.26491458932176,221.26491458932176,0,0,0,42.85615736900803,-217.07489998565626Z"></path><path d="M103.4078635714182,-255.60975363863653A275.7345324829835,275.7345324829835,0,0,1,148.23111265494722,-232.50176267006202L125.33773552872752,-196.87897252168293A233.3899692974461,233.3899692974461,0,0,0,87.66985695709594,-216.29811360662666Z"></path><path d="M132.26993301627473,-203.9663840457308A243.1000226261206,243.1000226261206,0,0,1,167.0330729569433,-176.62834862892427L150.57708027157483,-159.36980020324455A219.25371221471798,219.25371221471798,0,0,0,119.37752332198053,-183.905402980566Z"></path><path d="M148.10069336336707,-153.8744335849785A213.56768642706237,213.56768642706237,0,0,1,173.38513994386423,-124.69462671845432L167.07541367432418,-120.20149098207862A205.82174882349358,205.82174882349358,0,0,0,142.75532359662265,-148.26837111665063Z"></path><path d="M289.31588612310986,-204.79328237126362A354.4629324310179,354.4629324310179,0,0,1,322.01412811946904,-148.1582659153871L229.20742238307443,-105.77486354273756A252.43685197089954,252.43685197089954,0,0,0,206.20743010138045,-145.6120187483236Z"></path><path d="M213.28718462236122,-96.30565238149221A234.0217977128584,234.0217977128584,0,0,1,227.18725598484053,-56.14403372431081L207.53336906685774,-51.37605234866243A213.79803093380698,213.79803093380698,0,0,0,194.89081545326653,-87.90431208498192Z"></path><path d="M209.34297602775158,-49.757054687829395A215.17491978240267,215.17491978240267,0,0,1,214.88129681227682,-11.237187532367997L201.9237205928071,-10.619942101699674A202.20279945709328,202.20279945709328,0,0,0,196.7363745567152,-46.69872626277238Z"></path><path d="M221.0596210400784,-9.529237841337533A221.26491458932176,221.26491458932176,0,0,1,219.15283431514231,30.499141624964334L208.31561923880628,28.940985329632138A210.3163756123077,210.3163756123077,0,0,0,210.12336554041636,-9.008279783946769Z"></path><path d="M228.35123192504236,33.842229574862905A230.84536301230355,230.84536301230355,0,0,1,218.47407682458945,74.5564174295251L200.1767204523947,68.22364081787465A211.48329621396238,211.48329621396238,0,0,0,209.18604676513036,31.086691948472986Z"></path><path d="M228.63408399501915,80.18922156448866A242.28878558315515,242.28878558315515,0,0,1,210.32645411504785,120.27733917388927L181.41709865656674,103.58651501783665A208.90746702429516,208.90746702429516,0,0,0,197.08839901003452,69.27115383886995Z"></path><path d="M293.44921691546045,170.57768010675892A339.4247896941246,339.4247896941246,0,0,1,257.17388506896793,221.51925581636013L186.20317945383295,160.022789334784A245.51765139232043,245.51765139232043,0,0,0,212.12276160156932,123.62382923904585Z"></path><path d="M244.3161285540453,213.02431460906868A324.1446116879012,324.1446116879012,0,0,1,201.15800085160313,254.1755062544121L154.4014028107984,194.71965523730356A248.50661424935308,248.50661424935308,0,0,0,187.15238936190687,163.49165263647555Z"></path><path d="M129.07668718562402,165.7520598077647A210.0822136815305,210.0822136815305,0,0,1,97.15298321160209,186.2681785985422L94.31992903708202,180.77282017018118A203.89963591394874,203.89963591394874,0,0,0,125.25482656998906,160.89216869308095Z"></path><path d="M123.39745629954778,241.53998954269326A271.23513557333087,271.23513557333087,0,0,1,77.37473787745576,259.9647066581889L63.79576156495081,213.7189603135113A223.03742553916882,223.03742553916882,0,0,0,101.31180473674252,198.69980224480454Z"></path><path d="M85.39273797885977,294.37040877187883A306.50588454391743,306.50588454391743,0,0,1,30.130549345873934,305.02132262542744L22.405057260813205,224.11630921004053A225.23344921390074,225.23344921390074,0,0,0,62.49548113620513,216.38951333728036Z"></path><path d="M19.239379141535608,212.0039597270794A212.8751574273355,212.8751574273355,0,0,1,-19.23937914153558,212.0039597270794L-18.224895235908996,201.37980360980995A202.20279945709328,202.20279945709328,0,0,0,18.22489523590902,201.37980360980995Z"></path><path d="M-21.81529090095106,217.93999646112738A219.02910531381286,219.02910531381286,0,0,1,-60.74749774948547,210.43642862333886L-57.82945433170536,200.4984853928805A208.67172408628323,208.67172408628323,0,0,0,-20.830748451921657,207.62940146346008Z"></path><path d="M-59.6153722220446,199.4818616747871A208.1994374209782,208.1994374209782,0,0,1,-94.51257184175124,185.51113041073742L-92.09875030517915,180.82896984887375A202.93175243017203,202.93175243017203,0,0,0,-58.13127629784156,194.42749512444126Z"></path><path d="M-94.43047927486668,180.98725771480397A204.14088975804407,204.14088975804407,0,0,1,-125.4039615931165,161.08180930185154L-123.75365440438262,158.98327299986923A201.4712090403746,201.4712090403746,0,0,0,-93.20714589343561,178.61432200859517Z"></path><path d="M-147.38466834857763,185.79715154171117A237.15569144600727,237.15569144600727,0,0,1,-178.57386150517888,156.0583159346627L-160.57278813229166,140.4602970659864A213.33709321269703,213.33709321269703,0,0,0,-132.6608423026623,167.07428365847073Z"></path><path d="M-199.65467215052405,171.67857410653386A263.31638938506256,263.31638938506256,0,0,1,-227.53704007352079,132.523267064191L-196.81397041332136,114.78529452554328A227.84073996801243,227.84073996801243,0,0,0,-172.84374175854296,148.4467706758135Z"></path><path d="M-217.7599231417163,124.56905451744917A250.87214566399638,250.87214566399638,0,0,1,-236.74543302172773,82.99658675760126L-206.44098619618148,72.50811573577316A218.80426784961088,218.80426784961088,0,0,0,-189.98807334135967,108.53496955931948Z"></path><path d="M-207.30759320175045,70.69165987205898A219.02910531381286,219.02910531381286,0,0,1,-216.65513103136095,32.16058414197633L-204.29096072596104,30.382884828802595A206.53792950655924,206.53792950655924,0,0,0,-195.50329136815162,66.60615128556856Z"></path><path d="M-261.3311271367413,36.56346461047431A263.87657143990833,263.87657143990833,0,0,1,-263.62337783436726,-11.556799473880892L-224.80530799502722,-9.70766690233603A225.0148112890033,225.0148112890033,0,0,0,-222.86459974899313,31.03281292675295Z"></path><path d="M-215.5656790924787,-11.26978867845657A215.8600707390289,215.8600707390289,0,0,1,-210.008820821115,-49.91858688688395L-200.48562274084944,-47.60828403061934A206.06075228952827,206.06075228952827,0,0,0,-205.7773499173513,-10.803513091503353Z"></path><path d="M-194.36314829917532,-48.18099136171671A200.24595213228417,200.24595213228417,0,0,1,-182.56326699978072,-82.27450934361028L-182.33953827776114,-82.17233585978241A200,200,0,0,0,-194.12412618766731,-48.12300522488819Z"></path><path d="M-188.53668310238803,-87.20115926082295A207.72607696599312,207.72607696599312,0,0,1,-169.78676071051942,-119.67697748151276L-166.07883107408534,-117.03657274036661A203.1741555654796,203.1741555654796,0,0,0,-184.39606070206554,-85.31020037079895Z"></path><path d="M-185.1876376273151,-133.09914727206458A228.05666869121916,228.05666869121916,0,0,1,-158.09933856510068,-164.36071087645664L-146.01841937931871,-151.69060748124042A210.5502771217895,210.5502771217895,0,0,0,-170.9272035557645,-122.94433813994283Z"></path><path d="M-246.26672443049648,-259.72621072967706A357.9175940097423,357.9175940097423,0,0,1,-194.34535538081093,-300.55762666022804L-142.99754666884436,-220.6588767186751A262.94227166443926,262.94227166443926,0,0,0,-180.72589966538033,-190.9889719805692Z"></path><path d="M-109.39389006259205,-172.06986471434902A203.89963591394874,203.89963591394874,0,0,1,-76.70929207318503,-188.91994610276504L-75.62490409181159,-186.21127587384314A200.98200263073363,200.98200263073363,0,0,0,-107.81647917332921,-169.61536545999388Z"></path><path d="M-75.38898015463758,-191.00317083565614A205.34290734776104,205.34290734776104,0,0,1,-39.84286452557179,-201.44045210540037L-39.156339776292796,-197.87842346470944A201.71536733118617,201.71536733118617,0,0,0,-74.04074344924118,-187.63543835597534Z"></path><path d="M-38.014869967607986,-202.52383389485837A206.06075228952827,206.06075228952827,0,0,1,-0.9999958333385801,-206.0583258265961L-0.9999958333386373,-203.41381183057374A203.41626983874903,203.41626983874903,0,0,0,-37.51439240313218,-199.9271097118512Z"></path></g><g fill="#6b486b"><path d="M0.9999958333385928,-357.09012313121417A357.09152332354853,357.09152332354853,0,0,1,66.59782554549611,-350.82628986742725L56.4747385491749,-298.30272702286953A303.60156956688854,303.60156956688854,0,0,0,0.9999958333385682,-303.59992268083926Z"></path><path d="M52.34749457907057,-266.320633684554A271.41654355408815,271.41654355408815,0,0,1,99.94629035100581,-252.3443662139511L91.94533675712624,-232.3589503157793A249.8892289460115,249.8892289460115,0,0,0,48.2733934675624,-245.1821898636972Z"></path><path d="M112.24848502399185,-277.69255845119545A299.5210834137589,299.5210834137589,0,0,1,161.0911708506104,-252.51240382074573L148.23111265494722,-232.50176267006202A275.7345324829835,275.7345324829835,0,0,0,103.4078635714182,-255.60975363863653Z"></path><path d="M140.54753007094564,-216.8465764780508A258.410614989583,258.410614989583,0,0,1,177.59867549472,-187.70923366157464L167.0330729569433,-176.62834862892427A243.1000226261206,243.1000226261206,0,0,0,132.26993301627473,-203.9663840457308Z"></path><path d="M152.64295341844436,-158.63821882853202A220.14984828837513,220.14984828837513,0,0,1,178.74686772758298,-128.5126957890641L173.38513994386423,-124.69462671845432A213.56768642706237,213.56768642706237,0,0,0,148.10069336336707,-153.8744335849785Z"></path><path d="M326.4094170997588,-231.20746620426354A400,400,0,0,1,363.4362478274037,-167.07511414073014L322.01412811946904,-148.1582659153871A354.4629324310179,354.4629324310179,0,0,0,289.31588612310986,-204.79328237126362Z"></path><path d="M226.64324721733905,-102.40516179286064A248.70460122611692,248.70460122611692,0,0,1,241.4562968753758,-59.605665588702344L227.18725598484053,-56.14403372431081A234.0217977128584,234.0217977128584,0,0,0,213.28718462236122,-96.30565238149221Z"></path><path d="M223.7414670360491,-53.25009081098875A229.99090469586397,229.99090469586397,0,0,1,229.68064976350695,-11.942167602040959L214.88129681227682,-11.237187532367997A215.17491978240267,215.17491978240267,0,0,0,209.34297602775158,-49.757054687829395Z"></path><path d="M234.01217251366123,-10.14624391385843A234.2320284464169,234.2320284464169,0,0,1,231.9880854768282,32.34457213998853L219.15283431514231,30.499141624964334A221.26491458932176,221.26491458932176,0,0,0,221.0596210400784,-9.529237841337533Z"></path><path d="M251.64572730104788,37.191472379498784A254.3792005778546,254.3792005778546,0,0,1,240.7137619541002,82.25364729015457L218.47407682458945,74.5564174295251A230.84536301230355,230.84536301230355,0,0,0,228.35123192504236,33.842229574862905Z"></path><path d="M262.2570658575979,91.82624872961819A277.86836550422606,277.86836550422606,0,0,1,241.13950302180078,138.0672612547562L210.32645411504785,120.27733917388927A242.28878558315515,242.28878558315515,0,0,0,228.63408399501915,80.18922156448866Z"></path><path d="M336.83877134688817,195.6286510377616A389.52654208581924,389.52654208581924,0,0,1,295.03840630550036,254.329050236197L257.17388506896793,221.51925581636013A339.4247896941246,339.4247896941246,0,0,0,293.44921691546045,170.57768010675892Z"></path><path d="M275.0896852064239,239.6897532402481A364.86369059600935,364.86369059600935,0,0,1,226.32897180304656,286.182999561323L201.15800085160313,254.1755062544121A324.1446116879012,324.1446116879012,0,0,0,244.3161285540453,213.02431460906868Z"></path><path d="M131.37367858153473,168.672921973649A213.79803093380698,213.79803093380698,0,0,1,98.8556881811135,189.57096545993414L97.15298321160209,186.2681785985422A210.0822136815305,210.0822136815305,0,0,0,129.07668718562402,165.7520598077647Z"></path><path d="M139.19113626806813,272.17545465678575A305.7018981511629,305.7018981511629,0,0,1,87.08520557952706,293.0355225947794L77.37473787745576,259.9647066581889A271.23513557333087,271.23513557333087,0,0,0,123.39745629954778,241.53998954269326Z"></path><path d="M97.88146932812299,336.90312175798067A350.8339999032377,350.8339999032377,0,0,1,34.34422419147593,349.1489220272499L30.130549345873934,305.02132262542744A306.50588454391743,306.50588454391743,0,0,0,85.39273797885977,294.37040877187883Z"></path><path d="M19.86703443274832,218.57706331668797A219.47808926017976,219.47808926017976,0,0,1,-19.86703443274829,218.57706331668797L-19.23937914153558,212.0039597270794A212.8751574273355,212.8751574273355,0,0,0,19.239379141535608,212.0039597270794Z"></path><path d="M-22.549977597536753,225.63398363876124A226.7580121238193,226.7580121238193,0,0,1,-62.92500434782028,217.85233505788497L-60.74749774948547,210.43642862333886A219.02910531381286,219.02910531381286,0,0,0,-21.81529090095106,217.93999646112738Z"></path><path d="M-60.86751172315297,203.74625719502103A212.64381322847797,212.64381322847797,0,0,1,-96.54912570951504,189.46149378983606L-94.51257184175124,185.51113041073742A208.1994374209782,208.1994374209782,0,0,0,-59.6153722220446,199.4818616747871Z"></path><path d="M-94.54089901530182,181.20144212988336A204.3818588245321,204.3818588245321,0,0,1,-125.55292057207046,161.27122605224508L-125.4039615931165,161.08180930185154A204.14088975804407,204.14088975804407,0,0,0,-94.43047927486668,180.98725771480397Z"></path><path d="M-154.15633297784044,194.40802359411984A248.1101663272722,248.1101663272722,0,0,1,-186.85277158383747,163.23203235390088L-178.57386150517888,156.0583159346627A237.15569144600727,237.15569144600727,0,0,0,-147.38466834857763,185.79715154171117Z"></path><path d="M-226.02078594492997,194.52494176137836A298.20353560350605,298.20353560350605,0,0,1,-257.7503873513368,149.9669512481577L-227.53704007352079,132.523267064191A263.31638938506256,263.31638938506256,0,0,0,-199.65467215052405,171.67857410653386Z"></path><path d="M-229.82844963500642,131.5368215370724A264.80757481935126,264.80757481935126,0,0,1,-249.91452409804174,87.55445349355813L-236.74543302172773,82.99658675760126A250.87214566399638,250.87214566399638,0,0,0,-217.7599231417163,124.56905451744917Z"></path><path d="M-216.24626442051638,73.78536405981016A228.4879139588495,228.4879139588495,0,0,1,-226.01775618367836,33.50672641369092L-216.65513103136095,32.16058414197633A219.02910531381286,219.02910531381286,0,0,0,-207.30759320175045,70.69165987205898Z"></path><path d="M-285.1686584438122,39.990784194856744A287.9590710138565,287.9590710138565,0,0,1,-287.6787583928436,-12.702698481628708L-263.62337783436726,-11.556799473880892A263.87657143990833,263.87657143990833,0,0,0,-261.3311271367413,36.56346461047431Z"></path><path d="M-224.27272182341508,-11.684556243723128A224.57689687208622,224.57689687208622,0,0,1,-218.4800206690671,-51.9736777334418L-210.008820821115,-49.91858688688395A215.8600707390289,215.8600707390289,0,0,0,-215.5656790924787,-11.26978867845657Z"></path><path d="M-194.36314829917532,-48.18099136171671A200.24595213228417,200.24595213228417,0,0,1,-182.56326699978072,-82.27450934361028A200.24595213228417,200.24595213228417,0,0,0,-194.36314829917532,-48.18099136171671Z"></path><path d="M-194.26929440741347,-89.81915512285703A214.02812753593426,214.02812753593426,0,0,1,-174.92031728655618,-123.33256657066963L-169.78676071051942,-119.67697748151276A207.72607696599312,207.72607696599312,0,0,0,-188.53668310238803,-87.20115926082295Z"></path><path d="M-190.73081589054377,-137.0464266442059A234.86159155174397,234.86159155174397,0,0,1,-162.79531684279186,-169.28571115210292L-158.09933856510068,-164.36071087645664A228.05666869121916,228.05666869121916,0,0,0,-185.1876376273151,-133.09914727206458Z"></path><path d="M-267.73045232453217,-282.23672069023326A389.0207727202692,389.0207727202692,0,0,1,-211.16106372897988,-326.7233795930757L-194.34535538081093,-300.55762666022804A357.9175940097423,357.9175940097423,0,0,0,-246.26672443049648,-259.72621072967706Z"></path><path d="M-110.94904519656542,-174.48973333750035A206.77610517228894,206.77610517228894,0,0,1,-77.77838037980887,-191.59039959172082L-76.70929207318503,-188.91994610276504A203.89963591394874,203.89963591394874,0,0,0,-109.39389006259205,-172.06986471434902Z"></path><path d="M-75.74450606957757,-191.89123163856945A206.2994788638386,206.2994788638386,0,0,1,-40.02389901205282,-202.37974821449993L-39.84286452557179,-201.44045210540037A205.34290734776104,205.34290734776104,0,0,0,-75.38898015463758,-191.00317083565614Z"></path><path d="M-38.37485645135992,-204.3916211330207A207.9628918750813,207.9628918750813,0,0,1,-0.9999958333385807,-207.96048760613172L-0.9999958333385801,-206.0583258265961A206.06075228952827,206.06075228952827,0,0,0,-38.014869967607986,-202.52383389485837Z"></path></g></g><g text-anchor="middle"><g transform="
          rotate(-84.54545454545455)
          translate(200,0)
        "><line x2="-5" stroke="#000"></line><text transform="rotate(90)translate(0,16)">Anhui</text></g><g transform="
          rotate(-73.63636363636364)
          translate(200,0)
        "><line x2="-5" stroke="#000"></line><text transform="rotate(90)translate(0,16)">Beijing</text></g><g transform="
          rotate(-62.72727272727273)
          translate(200,0)
        "><line x2="-5" stroke="#000"></line><text transform="rotate(90)translate(0,16)">Chongqing</text></g><g transform="
          rotate(-51.81818181818182)
          translate(200,0)
        "><line x2="-5" stroke="#000"></line><text transform="rotate(90)translate(0,16)">Fujian</text></g><g transform="
          rotate(-40.909090909090914)
          translate(200,0)
        "><line x2="-5" stroke="#000"></line><text transform="rotate(90)translate(0,16)">Gansu</text></g><g transform="
          rotate(-30.000000000000007)
          translate(200,0)
        "><line x2="-5" stroke="#000"></line><text transform="rotate(90)translate(0,16)">Guangdong</text></g><g transform="
          rotate(-19.090909090909093)
          translate(200,0)
        "><line x2="-5" stroke="#000"></line><text transform="rotate(90)translate(0,16)">Guangxi</text></g><g transform="
          rotate(-8.181818181818173)
          translate(200,0)
        "><line x2="-5" stroke="#000"></line><text transform="rotate(90)translate(0,16)">Guizhou</text></g><g transform="
          rotate(2.7272727272727337)
          translate(200,0)
        "><line x2="-5" stroke="#000"></line><text transform="rotate(-90)translate(0,-9)">Hainan</text></g><g transform="
          rotate(13.63636363636364)
          translate(200,0)
        "><line x2="-5" stroke="#000"></line><text transform="rotate(-90)translate(0,-9)">Hebei</text></g><g transform="
          rotate(24.545454545454547)
          translate(200,0)
        "><line x2="-5" stroke="#000"></line><text transform="rotate(-90)translate(0,-9)">Heilongjiang</text></g><g transform="
          rotate(35.45454545454545)
          translate(200,0)
        "><line x2="-5" stroke="#000"></line><text transform="rotate(-90)translate(0,-9)">Henan</text></g><g transform="
          rotate(46.363636363636374)
          translate(200,0)
        "><line x2="-5" stroke="#000"></line><text transform="rotate(-90)translate(0,-9)">Hunan</text></g><g transform="
          rotate(57.27272727272728)
          translate(200,0)
        "><line x2="-5" stroke="#000"></line><text transform="rotate(-90)translate(0,-9)">Inner Mongolia</text></g><g transform="
          rotate(68.18181818181819)
          translate(200,0)
        "><line x2="-5" stroke="#000"></line><text transform="rotate(-90)translate(0,-9)">Jiangsu</text></g><g transform="
          rotate(79.09090909090907)
          translate(200,0)
        "><line x2="-5" stroke="#000"></line><text transform="rotate(-90)translate(0,-9)">Jiangxi</text></g><g transform="
          rotate(90)
          translate(200,0)
        "><line x2="-5" stroke="#000"></line><text transform="rotate(-90)translate(0,-9)">Jilin</text></g><g transform="
          rotate(100.9090909090909)
          translate(200,0)
        "><line x2="-5" stroke="#000"></line><text transform="rotate(-90)translate(0,-9)">Liaoning</text></g><g transform="
          rotate(111.81818181818181)
          translate(200,0)
        "><line x2="-5" stroke="#000"></line><text transform="rotate(-90)translate(0,-9)">Ningxia</text></g><g transform="
          rotate(122.72727272727275)
          translate(200,0)
        "><line x2="-5" stroke="#000"></line><text transform="rotate(-90)translate(0,-9)">Qinghai</text></g><g transform="
          rotate(133.63636363636363)
          translate(200,0)
        "><line x2="-5" stroke="#000"></line><text transform="rotate(-90)translate(0,-9)">Shaanxi</text></g><g transform="
          rotate(144.54545454545453)
          translate(200,0)
        "><line x2="-5" stroke="#000"></line><text transform="rotate(-90)translate(0,-9)">Shandong</text></g><g transform="
          rotate(155.45454545454544)
          translate(200,0)
        "><line x2="-5" stroke="#000"></line><text transform="rotate(-90)translate(0,-9)">Shanghai</text></g><g transform="
          rotate(166.36363636363632)
          translate(200,0)
        "><line x2="-5" stroke="#000"></line><text transform="rotate(-90)translate(0,-9)">Shanxi</text></g><g transform="
          rotate(177.27272727272725)
          translate(200,0)
        "><line x2="-5" stroke="#000"></line><text transform="rotate(-90)translate(0,-9)">Sichuan</text></g><g transform="
          rotate(188.1818181818182)
          translate(200,0)
        "><line x2="-5" stroke="#000"></line><text transform="rotate(90)translate(0,16)">Tianjin</text></g><g transform="
          rotate(199.09090909090907)
          translate(200,0)
        "><line x2="-5" stroke="#000"></line><text transform="rotate(90)translate(0,16)">Tibet</text></g><g transform="
          rotate(209.99999999999994)
          translate(200,0)
        "><line x2="-5" stroke="#000"></line><text transform="rotate(90)translate(0,16)">Xinjiang</text></g><g transform="
          rotate(220.90909090909088)
          translate(200,0)
        "><line x2="-5" stroke="#000"></line><text transform="rotate(90)translate(0,16)">Yunnan</text></g><g transform="
          rotate(231.8181818181818)
          translate(200,0)
        "><line x2="-5" stroke="#000"></line><text transform="rotate(90)translate(0,16)">Zhejiang</text></g><g transform="
          rotate(242.7272727272727)
          translate(200,0)
        "><line x2="-5" stroke="#000"></line><text transform="rotate(90)translate(0,16)">Taiwan</text></g><g transform="
          rotate(253.63636363636357)
          translate(200,0)
        "><line x2="-5" stroke="#000"></line><text transform="rotate(90)translate(0,16)">Macau</text></g><g transform="
          rotate(264.5454545454545)
          translate(200,0)
        "><line x2="-5" stroke="#000"></line><text transform="rotate(90)translate(0,16)">Hong Kong</text></g></g><g text-anchor="middle"><text y="-397.65514511705237" dy="-1em">Virus Cases</text><g fill="none"><circle stroke="#000" stroke-opacity="0.5" r="244.31182753401578"></circle><text y="-244.31182753401578" dy="0.35em" stroke="#fff" stroke-width="5">0.2k</text><text y="-244.31182753401578" dy="0.35em" stroke="none" stroke-width="5" fill="#000">0.2k</text></g><g fill="none"><circle stroke="#000" stroke-opacity="0.5" r="281.73842149416066"></circle><text y="-281.73842149416066" dy="0.35em" stroke="#fff" stroke-width="5">0.4k</text><text y="-281.73842149416066" dy="0.35em" stroke="none" stroke-width="5" fill="#000">0.4k</text></g><g fill="none"><circle stroke="#000" stroke-opacity="0.5" r="314.7456230339542"></circle><text y="-314.7456230339542" dy="0.35em" stroke="#fff" stroke-width="5">0.6k</text><text y="-314.7456230339542" dy="0.35em" stroke="none" stroke-width="5" fill="#000">0.6k</text></g><g fill="none"><circle stroke="#000" stroke-opacity="0.5" r="344.60568232697887"></circle><text y="-344.60568232697887" dy="0.35em" stroke="#fff" stroke-width="5">0.8k</text><text y="-344.60568232697887" dy="0.35em" stroke="none" stroke-width="5" fill="#000">0.8k</text></g><g fill="none"><circle stroke="#000" stroke-opacity="0.5" r="372.07706912016675"></circle><text y="-372.07706912016675" dy="0.35em" stroke="#fff" stroke-width="5">1.0k</text><text y="-372.07706912016675" dy="0.35em" stroke="none" stroke-width="5" fill="#000">1.0k</text></g><g fill="none"><circle stroke="#000" stroke-opacity="0.5" r="397.65514511705237"></circle><text y="-397.65514511705237" dy="0.35em" stroke="#fff" stroke-width="5">1.2k</text><text y="-397.65514511705237" dy="0.35em" stroke="none" stroke-width="5" fill="#000">1.2k</text></g></g><g><g><g transform="translate(-40,-40)"><rect width="18" height="18" fill="#6b486b"></rect><text x="24" y="9" dy="0.35em">Week4</text></g><g transform="translate(-40,-20)"><rect width="18" height="18" fill="#7b6888"></rect><text x="24" y="9" dy="0.35em">Week3</text></g><g transform="translate(-40,0)"><rect width="18" height="18" fill="#8a89a6"></rect><text x="24" y="9" dy="0.35em">Week2</text></g><g transform="translate(-40,20)"><rect width="18" height="18" fill="#98abc5"></rect><text x="24" y="9" dy="0.35em">Week1</text></g></g></g></svg>