<svg viewBox="-487.5 -487.5 975 975" width="975" height="975" style="width: 100%; height: auto; font: 10px sans-serif;"><g><g fill="#00bc12"><path d="M0.8999962500047326,-354.5384118276825A354.5395541467065,354.5395541467065,0,0,1,276.6281536275089,-221.75472954410864L140.16676924348562,-112.93040688779729A180,180,0,0,0,0.8999962500046793,-179.9977500046875Z"></path><path d="M197.57432897899017,-156.40913127654534A251.99093598417747,251.99093598417747,0,0,1,245.8716982171774,55.19546932478313L175.68509861560403,39.175835976089715A180,180,0,0,0,141.28904621066366,-111.52311608308362Z"></path><path d="M404.5376621284826,93.25622285638532A415.1474956949857,415.1474956949857,0,0,1,180.93619304467254,373.6435965305964L78.9089654072644,161.78187530856215A180,180,0,0,0,175.2845626033876,40.930698906066795Z"></path><path d="M153.01758318211242,319.8185652704526A354.5395541467065,354.5395541467065,0,0,1,-153.01758318211247,319.8185652704526L-77.28722820229814,162.56286278484976A180,180,0,0,0,77.28722820229815,162.56286278484976Z"></path><path d="M-144.81044939860746,298.62771688245533A331.88639554138786,331.88639554138786,0,0,1,-323.3638529866486,74.72883062837023L-175.28456260338757,40.9306989060668A180,180,0,0,0,-78.90896540726439,161.78187530856215Z"></path><path d="M-323.76438899886506,72.9739676983932A331.88639554138786,331.88639554138786,0,0,1,-260.0394170602032,-206.22337675550813L-141.28904621066366,-111.52311608308362A180,180,0,0,0,-175.68509861560403,39.17583597608976Z"></path><path d="M-258.9171400930252,-207.63066756022175A331.88639554138786,331.88639554138786,0,0,1,-0.8999962500048736,-331.88517525223165L-0.8999962500047014,-179.9977500046875A180,180,0,0,0,-140.16676924348565,-112.93040688779726Z"></path></g><g fill="#CC0033"><path d="M0.8999962500047352,-395.97590492285923A395.97692770252064,395.97692770252064,0,0,1,309.02529028386965,-247.59058390354298L276.6281536275089,-221.75472954410864A354.5395541467065,354.5395541467065,0,0,0,0.8999962500047326,-354.5384118276825Z"></path><path d="M232.9876425702077,-184.65030647768887A297.2860193025015,297.2860193025015,0,0,1,290.0313779654762,65.2746280584912L245.8716982171774,55.19546932478313A251.99093598417747,251.99093598417747,0,0,0,197.57432897899017,-156.40913127654534Z"></path><path d="M471.95632019896016,108.64409161311264A484.29981087977086,484.29981087977086,0,0,1,210.94031856452068,435.94780515800323L180.93619304467254,373.6435965305964A415.1474956949857,415.1474956949857,0,0,0,404.5376621284826,93.25622285638532Z"></path><path d="M187.26476994326288,390.93358135239026A433.47105911572584,433.47105911572584,0,0,1,-187.26476994326282,390.93358135239026L-153.01758318211247,319.8185652704526A354.5395541467065,354.5395541467065,0,0,0,153.01758318211242,319.8185652704526Z"></path><path d="M-199.48317277941334,412.1567967915792A457.8938319781523,457.8938319781523,0,0,1,-446.2123473030063,102.76819779473442L-323.3638529866486,74.72883062837023A331.88639554138786,331.88639554138786,0,0,0,-144.81044939860746,298.62771688245533Z"></path><path d="M-446.6128833152228,101.01333486475718A457.8938319781523,457.8938319781523,0,0,1,-358.55626043929675,-284.7879377070307L-260.0394170602032,-206.22337675550813A331.88639554138786,331.88639554138786,0,0,0,-323.76438899886506,72.9739676983932Z"></path><path d="M-357.4339834721186,-286.19522851174446A457.8938319781523,457.8938319781523,0,0,1,-0.8999962500046502,-457.8929475001623L-0.8999962500048736,-331.88517525223165A331.88639554138786,331.88639554138786,0,0,0,-258.9171400930252,-207.63066756022175Z"></path></g><g fill="#CCCC00"><path d="M0.8999962500046694,-403.7533945902048A403.75439766814134,403.75439766814134,0,0,1,315.1059765603702,-252.43976939519467L309.02529028386965,-247.59058390354298A395.97692770252064,395.97692770252064,0,0,0,0.8999962500047352,-395.97590492285923Z"></path><path d="M235.02344347678795,-186.27380352574926A299.88989456738346,299.88989456738346,0,0,1,292.56998017321126,65.85404744647916L290.0313779654762,65.2746280584912A297.2860193025015,297.2860193025015,0,0,0,232.9876425702077,-184.65030647768887Z"></path><path d="M475.0762792484785,109.35620190652969A487.5,487.5,0,0,1,212.32883096772923,438.83108087267186L210.94031856452068,435.94780515800323A484.29981087977086,484.29981087977086,0,0,0,471.95632019896016,108.64409161311264Z"></path><path d="M188.0413941461763,392.546258126836A435.2609914543436,435.2609914543436,0,0,1,-188.04139414617623,392.546258126836L-187.26476994326282,390.93358135239026A433.47105911572584,433.47105911572584,0,0,0,187.26476994326288,390.93358135239026Z"></path><path d="M-200.9511871511651,415.2051600449975A461.2772534446659,461.2772534446659,0,0,1,-449.5109456542967,103.52108134305053L-446.2123473030063,102.76819779473442A457.8938319781523,457.8938319781523,0,0,0,-199.48317277941334,412.1567967915792Z"></path><path d="M-449.91148166651317,101.76621841307333A461.2772534446659,461.2772534446659,0,0,1,-361.2015309324601,-286.89747053172437L-358.55626043929675,-284.7879377070307A457.8938319781523,457.8938319781523,0,0,0,-446.6128833152228,101.01333486475718Z"></path><path d="M-360.07925396528196,-288.3047613364381A461.2772534446659,461.2772534446659,0,0,1,-0.8999962500048284,-461.2763754542438L-0.8999962500046502,-457.8929475001623A457.8938319781523,457.8938319781523,0,0,0,-357.4339834721186,-286.19522851174446Z"></path></g></g><g text-anchor="middle"><g transform="
          rotate(-64.28571428571428)
          translate(180,0)
        "><line x2="-5" stroke="#000"></line><text transform="rotate(90)translate(0,16)">微博</text></g><g transform="
          rotate(-12.857142857142847)
          translate(180,0)
        "><line x2="-5" stroke="#000"></line><text transform="rotate(90)translate(0,16)">哔哩哔哩动画</text></g><g transform="
          rotate(38.571428571428555)
          translate(180,0)
        "><line x2="-5" stroke="#000"></line><text transform="rotate(-90)translate(0,-9)">新浪</text></g><g transform="
          rotate(90)
          translate(180,0)
        "><line x2="-5" stroke="#000"></line><text transform="rotate(-90)translate(0,-9)">知乎</text></g><g transform="
          rotate(141.42857142857142)
          translate(180,0)
        "><line x2="-5" stroke="#000"></line><text transform="rotate(-90)translate(0,-9)">今日头条</text></g><g transform="
          rotate(192.85714285714283)
          translate(180,0)
        "><line x2="-5" stroke="#000"></line><text transform="rotate(90)translate(0,16)">111</text></g><g transform="
          rotate(244.28571428571428)
          translate(180,0)
        "><line x2="-5" stroke="#000"></line><text transform="rotate(90)translate(0,16)">222</text></g></g><g text-anchor="middle"><text y="-467.97071586701975" dy="-1em">Population</text><g fill="none"><circle stroke="#000" stroke-opacity="0.5" r="251.99093598417747"></circle><text y="-251.99093598417747" dy="0.35em" stroke="#fff" stroke-width="5">1k</text><text y="-251.99093598417747" dy="0.35em" stroke="none" stroke-width="5" fill="#000">1k</text></g><g fill="none"><circle stroke="#000" stroke-opacity="0.5" r="307.5692826606123"></circle><text y="-307.5692826606123" dy="0.35em" stroke="#fff" stroke-width="5">2k</text><text y="-307.5692826606123" dy="0.35em" stroke="none" stroke-width="5" fill="#000">2k</text></g><g fill="none"><circle stroke="#000" stroke-opacity="0.5" r="354.5395541467065"></circle><text y="-354.5395541467065" dy="0.35em" stroke="#fff" stroke-width="5">3k</text><text y="-354.5395541467065" dy="0.35em" stroke="none" stroke-width="5" fill="#000">3k</text></g><g fill="none"><circle stroke="#000" stroke-opacity="0.5" r="395.97692770252064"></circle><text y="-395.97692770252064" dy="0.35em" stroke="#fff" stroke-width="5">4k</text><text y="-395.97692770252064" dy="0.35em" stroke="none" stroke-width="5" fill="#000">4k</text></g><g fill="none"><circle stroke="#000" stroke-opacity="0.5" r="433.47105911572584"></circle><text y="-433.47105911572584" dy="0.35em" stroke="#fff" stroke-width="5">5k</text><text y="-433.47105911572584" dy="0.35em" stroke="none" stroke-width="5" fill="#000">5k</text></g><g fill="none"><circle stroke="#000" stroke-opacity="0.5" r="467.97071586701975"></circle><text y="-467.97071586701975" dy="0.35em" stroke="#fff" stroke-width="5">6k</text><text y="-467.97071586701975" dy="0.35em" stroke="none" stroke-width="5" fill="#000">6k</text></g></g><g><g><g transform="translate(-40,-30)"><rect width="18" height="18" fill="#CCCC00"></rect><text x="24" y="9" dy="0.35em">中性</text></g><g transform="translate(-40,-10)"><rect width="18" height="18" fill="#CC0033"></rect><text x="24" y="9" dy="0.35em">消极</text></g><g transform="translate(-40,10)"><rect width="18" height="18" fill="#00bc12"></rect><text x="24" y="9" dy="0.35em">积极</text></g></g></g></svg>