<svg xmlns="http://www.w3.org/2000/svg" width="277" height="320" viewBox="0 0 277 320" fill="none"><mask id="mask0_2744_96150" style="mask-type:alpha" maskUnits="userSpaceOnUse" x="56" y="13" width="209" height="257"><rect x="56" y="13" width="209" height="257" fill="#C4C4C4"/></mask><g mask="url(#mask0_2744_96150)"><mask id="mask1_2744_96150" style="mask-type:alpha" maskUnits="userSpaceOnUse" x="53" y="-1" width="392" height="272"><rect x="53" y="-1" width="392" height="272" fill="#C4C4C4"/></mask><g mask="url(#mask1_2744_96150)"><mask id="mask2_2744_96150" style="mask-type:alpha" maskUnits="userSpaceOnUse" x="-54" y="-68" width="500" height="489"><rect x="-54" y="-68" width="500" height="488.599" fill="white"/></mask><g mask="url(#mask2_2744_96150)"><rect x="-54" y="-68" width="500" height="488.599" fill="white"/><line x1="448.443" y1="269.272" x2="-59.7003" y2="269.272" stroke="#E0E0E0" stroke-width="0.814332"/><line x1="448.443" y1="254.27" x2="-59.7003" y2="254.27" stroke="#E0E0E0" stroke-width="0.81"/><line x1="448.443" y1="239.272" x2="-59.7003" y2="239.272" stroke="#E0E0E0" stroke-width="0.814332"/><line x1="448.443" y1="224.272" x2="-59.7003" y2="224.272" stroke="#E0E0E0" stroke-width="0.814332"/><line x1="448.443" y1="209.272" x2="-59.7003" y2="209.272" stroke="#E0E0E0" stroke-width="0.814332"/><line x1="448.443" y1="194.27" x2="-59.7003" y2="194.27" stroke="#E0E0E0" stroke-width="0.81"/><line x1="448.443" y1="179.272" x2="-59.7003" y2="179.272" stroke="#E0E0E0" stroke-width="0.814332"/><line x1="448.443" y1="164.272" x2="-59.7003" y2="164.272" stroke="#E0E0E0" stroke-width="0.814332"/><line x1="448.443" y1="149.272" x2="-59.7003" y2="149.272" stroke="#E0E0E0" stroke-width="0.814332"/><line x1="448.443" y1="134.27" x2="-59.7003" y2="134.27" stroke="#E0E0E0" stroke-width="0.81"/><line x1="448.443" y1="119.272" x2="-59.7003" y2="119.272" stroke="#E0E0E0" stroke-width="0.814332"/><line x1="448.443" y1="104.272" x2="-59.7003" y2="104.272" stroke="#E0E0E0" stroke-width="0.814332"/><line x1="448.443" y1="89.2719" x2="-59.7003" y2="89.2719" stroke="#E0E0E0" stroke-width="0.814332"/><line x1="448.443" y1="74.2697" x2="-59.7003" y2="74.2697" stroke="#E0E0E0" stroke-width="0.81"/><line x1="448.443" y1="59.2719" x2="-59.7003" y2="59.2719" stroke="#E0E0E0" stroke-width="0.814332"/><line x1="448.443" y1="44.2719" x2="-59.7003" y2="44.2719" stroke="#E0E0E0" stroke-width="0.814332"/><line x1="448.443" y1="29.2719" x2="-59.7003" y2="29.2719" stroke="#E0E0E0" stroke-width="0.814332"/><line x1="448.443" y1="14.2697" x2="-59.7003" y2="14.2697" stroke="#E0E0E0" stroke-width="0.81"/><line x1="68.9968" y1="420.599" x2="68.9968" y2="-68.0002" stroke="#E0E0E0" stroke-width="0.814332"/><line x1="83.9968" y1="420.599" x2="83.9968" y2="-68.0002" stroke="#E0E0E0" stroke-width="0.814332"/><line x1="98.9989" y1="420.599" x2="98.9989" y2="-68.0002" stroke="#E0E0E0" stroke-width="0.81"/><line x1="113.997" y1="420.599" x2="113.997" y2="-68.0002" stroke="#E0E0E0" stroke-width="0.814332"/><line x1="128.997" y1="420.599" x2="128.997" y2="-68.0002" stroke="#E0E0E0" stroke-width="0.814332"/><line x1="143.997" y1="420.599" x2="143.997" y2="-68.0002" stroke="#E0E0E0" stroke-width="0.814332"/><line x1="158.999" y1="420.599" x2="158.999" y2="-68.0002" stroke="#E0E0E0" stroke-width="0.81"/><line x1="173.997" y1="420.599" x2="173.997" y2="-68.0002" stroke="#E0E0E0" stroke-width="0.814332"/><line x1="188.997" y1="420.599" x2="188.997" y2="-68.0002" stroke="#E0E0E0" stroke-width="0.814332"/><line x1="203.997" y1="420.599" x2="203.997" y2="-68.0002" stroke="#E0E0E0" stroke-width="0.814332"/><line x1="218.999" y1="420.599" x2="218.999" y2="-68.0002" stroke="#E0E0E0" stroke-width="0.81"/><line x1="233.997" y1="420.599" x2="233.997" y2="-68.0002" stroke="#E0E0E0" stroke-width="0.814332"/><line x1="248.997" y1="420.599" x2="248.997" y2="-68.0002" stroke="#E0E0E0" stroke-width="0.814332"/><line x1="263.997" y1="420.599" x2="263.997" y2="-68.0002" stroke="#E0E0E0" stroke-width="0.814332"/></g></g><rect x="95" y="59" width="8" height="211" fill="#0026CA"/><rect x="140" y="209" width="8" height="61" fill="#0026CA"/><rect x="185" y="119" width="8" height="151" fill="#0026CA"/><rect x="230" y="149" width="8" height="121" fill="#0026CA"/></g><path d="M54 270L54 271L56 271L56 270L54 270ZM55 2L49.2265 12L60.7735 12L55 2ZM56 270L56 11L54 11L54 270L56 270Z" fill="#9E9E9E"/><path d="M275 270L265 264.227L265 275.774L275 270ZM84 271L266 271L266 269L84 269L84 271Z" fill="#9E9E9E"/><path d="M85.5 270H79.5L74 263L66.5 278.5L62.5 270H55" stroke="#9E9E9E" stroke-width="2" stroke-linecap="round" stroke-linejoin="round"/><line x1="50.75" y1="239.25" x2="55.25" y2="239.25" stroke="#9E9E9E" stroke-width="1.5" stroke-linecap="round"/><line x1="49.75" y1="270.25" x2="54.25" y2="270.25" stroke="#9E9E9E" stroke-width="1.5" stroke-linecap="round"/><line x1="50.75" y1="209.25" x2="55.25" y2="209.25" stroke="#9E9E9E" stroke-width="1.5" stroke-linecap="round"/><line x1="50.75" y1="179.25" x2="55.25" y2="179.25" stroke="#9E9E9E" stroke-width="1.5" stroke-linecap="round"/><line x1="50.75" y1="149.25" x2="55.25" y2="149.25" stroke="#9E9E9E" stroke-width="1.5" stroke-linecap="round"/><line x1="50.75" y1="119.25" x2="55.25" y2="119.25" stroke="#9E9E9E" stroke-width="1.5" stroke-linecap="round"/><line x1="50.75" y1="89.25" x2="55.25" y2="89.25" stroke="#9E9E9E" stroke-width="1.5" stroke-linecap="round"/><line x1="50.75" y1="59.25" x2="55.25" y2="59.25" stroke="#9E9E9E" stroke-width="1.5" stroke-linecap="round"/><line x1="50.75" y1="29.25" x2="55.25" y2="29.25" stroke="#9E9E9E" stroke-width="1.5" stroke-linecap="round"/><line x1="54.75" y1="269.75" x2="54.75" y2="274.25" stroke="#9E9E9E" stroke-width="1.5" stroke-linecap="round"/><line x1="99.75" y1="269.75" x2="99.75" y2="274.25" stroke="#9E9E9E" stroke-width="1.5" stroke-linecap="round"/><line x1="143.75" y1="269.75" x2="143.75" y2="274.25" stroke="#9E9E9E" stroke-width="1.5" stroke-linecap="round"/><line x1="188.75" y1="269.75" x2="188.75" y2="274.25" stroke="#9E9E9E" stroke-width="1.5" stroke-linecap="round"/><line x1="234.75" y1="269.75" x2="234.75" y2="274.25" stroke="#9E9E9E" stroke-width="1.5" stroke-linecap="round"/><path d="M43.2568 235.242V240.657C43.2568 241.064 43.2747 241.325 43.3105 241.438C43.3464 241.549 43.4212 241.64 43.5352 241.712C43.6491 241.784 43.8314 241.819 44.082 241.819H44.2334V242H40.7471V241.819H40.9229C41.2061 241.819 41.4079 241.787 41.5283 241.722C41.6488 241.657 41.7301 241.567 41.7725 241.453C41.8148 241.339 41.8359 241.074 41.8359 240.657V237.225C41.8359 236.919 41.8213 236.728 41.792 236.653C41.7627 236.575 41.7074 236.51 41.626 236.458C41.5479 236.403 41.4567 236.375 41.3525 236.375C41.1865 236.375 40.9847 236.427 40.7471 236.531L40.6592 236.355L43.0957 235.242H43.2568Z" fill="#757575"/><path d="M44.6338 267.689C44.6338 268.35 44.541 268.967 44.3555 269.54C44.2448 269.892 44.0951 270.18 43.9062 270.404C43.7207 270.629 43.5091 270.808 43.2715 270.941C43.0339 271.072 42.7751 271.137 42.4951 271.137C42.1761 271.137 41.888 271.055 41.6309 270.893C41.3737 270.73 41.1458 270.497 40.9473 270.194C40.804 269.973 40.6787 269.678 40.5713 269.311C40.4313 268.812 40.3613 268.298 40.3613 267.768C40.3613 267.048 40.4622 266.387 40.6641 265.785C40.8301 265.287 41.0824 264.906 41.4209 264.643C41.7594 264.376 42.1175 264.242 42.4951 264.242C42.8792 264.242 43.2373 264.374 43.5693 264.638C43.9046 264.898 44.1504 265.25 44.3066 265.692C44.5247 266.301 44.6338 266.967 44.6338 267.689ZM43.1299 267.68C43.1299 266.521 43.1234 265.845 43.1104 265.653C43.0778 265.201 42.9997 264.895 42.876 264.735C42.7946 264.631 42.6628 264.579 42.4805 264.579C42.3405 264.579 42.2298 264.618 42.1484 264.696C42.028 264.81 41.9466 265.012 41.9043 265.302C41.862 265.588 41.8408 266.592 41.8408 268.314C41.8408 269.252 41.8734 269.88 41.9385 270.199C41.9873 270.43 42.0573 270.585 42.1484 270.663C42.2396 270.741 42.36 270.78 42.5098 270.78C42.6725 270.78 42.7946 270.728 42.876 270.624C43.0127 270.442 43.0908 270.16 43.1104 269.779L43.1299 267.68Z" fill="#757575"/><path d="M44.1406 213H40.2441V212.893C41.4388 211.47 42.1631 210.513 42.417 210.021C42.6742 209.53 42.8027 209.05 42.8027 208.581C42.8027 208.239 42.6969 207.956 42.4854 207.731C42.2738 207.504 42.015 207.39 41.709 207.39C41.2077 207.39 40.8187 207.64 40.542 208.142L40.3613 208.078C40.5371 207.453 40.804 206.991 41.1621 206.691C41.5202 206.392 41.9336 206.242 42.4023 206.242C42.7376 206.242 43.0436 206.32 43.3203 206.477C43.597 206.633 43.8135 206.848 43.9697 207.121C44.126 207.391 44.2041 207.645 44.2041 207.883C44.2041 208.316 44.0837 208.755 43.8428 209.201C43.514 209.803 42.7962 210.643 41.6895 211.721H43.1201C43.4717 211.721 43.6995 211.706 43.8037 211.677C43.9111 211.647 43.999 211.599 44.0674 211.53C44.1357 211.459 44.2253 211.311 44.3359 211.086H44.5117L44.1406 213Z" fill="#757575"/><path d="M41.4795 178.68V178.509C41.8506 178.401 42.1077 178.302 42.251 178.211C42.3942 178.117 42.5179 177.975 42.6221 177.786C42.7262 177.594 42.7783 177.4 42.7783 177.205C42.7783 176.935 42.679 176.704 42.4805 176.512C42.2852 176.316 42.041 176.219 41.748 176.219C41.2923 176.219 40.9049 176.46 40.5859 176.941L40.4053 176.878C40.6396 176.334 40.9391 175.926 41.3037 175.652C41.6715 175.379 42.0801 175.242 42.5293 175.242C42.9883 175.242 43.3659 175.382 43.6621 175.662C43.9616 175.942 44.1113 176.269 44.1113 176.644C44.1113 176.888 44.0413 177.124 43.9014 177.352C43.7646 177.576 43.5482 177.775 43.252 177.947C43.6328 178.133 43.9225 178.362 44.1211 178.636C44.3229 178.906 44.4238 179.246 44.4238 179.656C44.4238 180.346 44.1732 180.934 43.6719 181.419C43.1738 181.901 42.5049 182.142 41.665 182.142C41.1051 182.142 40.6966 182.049 40.4395 181.863C40.2539 181.733 40.1611 181.565 40.1611 181.36C40.1611 181.211 40.2148 181.084 40.3223 180.979C40.4297 180.872 40.5534 180.818 40.6934 180.818C40.8008 180.818 40.9017 180.841 40.9961 180.887C41.0482 180.913 41.2321 181.056 41.5479 181.316C41.8669 181.574 42.1647 181.702 42.4414 181.702C42.6823 181.702 42.889 181.608 43.0615 181.419C43.234 181.227 43.3203 180.984 43.3203 180.691C43.3203 180.245 43.1641 179.835 42.8516 179.461C42.5391 179.083 42.0817 178.823 41.4795 178.68Z" fill="#757575"/><path d="M40.249 151.505L43.3936 147.242H43.9893V151.505H44.5947V152.516H43.9893V154H42.6465V152.516H40.249V151.505ZM40.7227 151.505H42.6465V148.893L40.7227 151.505Z" fill="#757575"/><path d="M41.5234 116.379H44.624L44.1309 117.639H41.5234L41.2744 118.298C42.3975 118.34 43.2617 118.62 43.8672 119.138C44.3652 119.564 44.6143 120.095 44.6143 120.729C44.6143 121.136 44.4987 121.535 44.2676 121.926C44.0365 122.313 43.7109 122.613 43.291 122.824C42.8711 123.033 42.4105 123.137 41.9092 123.137C41.3688 123.137 40.9538 123.036 40.6641 122.834C40.4622 122.691 40.3613 122.528 40.3613 122.346C40.3613 122.206 40.4134 122.082 40.5176 121.975C40.625 121.867 40.7487 121.813 40.8887 121.813C41.0156 121.813 41.1442 121.84 41.2744 121.892C41.4046 121.944 41.6276 122.08 41.9434 122.302C42.1419 122.438 42.3128 122.533 42.4561 122.585C42.557 122.624 42.6709 122.644 42.7979 122.644C43.0648 122.644 43.291 122.546 43.4766 122.351C43.6654 122.155 43.7598 121.921 43.7598 121.647C43.7598 121.075 43.4733 120.609 42.9004 120.251C42.3275 119.893 41.6048 119.714 40.7324 119.714C40.6445 119.714 40.5127 119.715 40.3369 119.719L41.5234 116.379Z" fill="#757575"/><path d="M44.6973 86.2422V86.3789C44.1081 86.5286 43.6344 86.7223 43.2764 86.96C42.9215 87.1943 42.64 87.4808 42.4316 87.8193C42.2266 88.1546 42.0671 88.5713 41.9531 89.0693C42.0964 88.9717 42.2152 88.9082 42.3096 88.8789C42.5212 88.8138 42.7344 88.7812 42.9492 88.7812C43.444 88.7812 43.8558 88.9619 44.1846 89.3232C44.5166 89.6813 44.6826 90.1712 44.6826 90.793C44.6826 91.2292 44.5931 91.6296 44.4141 91.9941C44.235 92.3587 43.9811 92.6403 43.6523 92.8389C43.3236 93.0374 42.972 93.1367 42.5977 93.1367C42.1908 93.1367 41.8148 93.026 41.4697 92.8047C41.1247 92.5801 40.8545 92.2529 40.6592 91.8232C40.4671 91.3936 40.3711 90.9264 40.3711 90.4219C40.3711 89.6797 40.5485 88.9896 40.9033 88.3516C41.2614 87.7103 41.7676 87.2008 42.4219 86.8232C43.0794 86.4424 43.8379 86.2487 44.6973 86.2422ZM41.8896 89.4648C41.8636 89.9141 41.8506 90.2428 41.8506 90.4512C41.8506 90.9004 41.8929 91.335 41.9775 91.7549C42.0654 92.1748 42.1842 92.4694 42.334 92.6387C42.4414 92.7591 42.5684 92.8193 42.7148 92.8193C42.8646 92.8193 42.998 92.7331 43.1152 92.5605C43.2324 92.3848 43.291 92.0299 43.291 91.4961C43.291 90.5977 43.182 89.9775 42.9639 89.6357C42.8239 89.4144 42.6351 89.3037 42.3975 89.3037C42.2673 89.3037 42.098 89.3574 41.8896 89.4648Z" fill="#757575"/><path d="M41.7725 63.1367L43.5742 57.6729H42.2021C41.665 57.6729 41.2614 57.7428 40.9912 57.8828C40.8024 57.9805 40.6462 58.1644 40.5225 58.4346H40.3369L40.8154 56.3789H44.7607L42.5391 63.1367H41.7725Z" fill="#757575"/><path d="M43.4082 28.2598C43.8737 28.6016 44.196 28.9206 44.375 29.2168C44.5573 29.5098 44.6484 29.8467 44.6484 30.2275C44.6484 30.7614 44.4466 31.2139 44.043 31.585C43.6426 31.9528 43.0973 32.1367 42.4072 32.1367C41.7529 32.1367 41.2467 31.9756 40.8887 31.6533C40.5306 31.3311 40.3516 30.9372 40.3516 30.4717C40.3516 30.1169 40.4541 29.806 40.6592 29.5391C40.8675 29.2721 41.2126 29.028 41.6943 28.8066C41.1702 28.4062 40.8333 28.0791 40.6836 27.8252C40.5371 27.5713 40.4639 27.2767 40.4639 26.9414C40.4639 26.4987 40.651 26.1097 41.0254 25.7744C41.403 25.4359 41.9189 25.2666 42.5732 25.2666C43.2048 25.2666 43.6898 25.4163 44.0283 25.7158C44.3701 26.012 44.541 26.3685 44.541 26.7852C44.541 27.0977 44.4482 27.3743 44.2627 27.6152C44.0804 27.8529 43.7956 28.0677 43.4082 28.2598ZM43.0371 28.0107C43.1576 27.848 43.2471 27.6657 43.3057 27.4639C43.3643 27.262 43.3936 27.0407 43.3936 26.7998C43.3936 26.3766 43.3024 26.0527 43.1201 25.8281C42.9834 25.6556 42.7946 25.5693 42.5537 25.5693C42.3356 25.5693 42.1501 25.6491 41.9971 25.8086C41.8441 25.9648 41.7676 26.1602 41.7676 26.3945C41.7676 26.6322 41.8522 26.8796 42.0215 27.1367C42.194 27.3906 42.5326 27.682 43.0371 28.0107ZM42.0605 29.041C41.9596 29.1322 41.888 29.2152 41.8457 29.29C41.7806 29.404 41.722 29.57 41.6699 29.7881C41.6178 30.0062 41.5918 30.234 41.5918 30.4717C41.5918 30.7777 41.6309 31.0348 41.709 31.2432C41.7871 31.4482 41.8978 31.5964 42.041 31.6875C42.1875 31.7786 42.3372 31.8242 42.4902 31.8242C42.7279 31.8242 42.9281 31.738 43.0908 31.5654C43.2536 31.3896 43.335 31.1504 43.335 30.8477C43.335 30.2161 42.9102 29.6139 42.0605 29.041Z" fill="#757575"/><path d="M97.2568 277.242V282.657C97.2568 283.064 97.2747 283.325 97.3105 283.438C97.3464 283.549 97.4212 283.64 97.5352 283.712C97.6491 283.784 97.8314 283.819 98.082 283.819H98.2334V284H94.7471V283.819H94.9229C95.2061 283.819 95.4079 283.787 95.5283 283.722C95.6488 283.657 95.7301 283.567 95.7725 283.453C95.8148 283.339 95.8359 283.074 95.8359 282.657V279.225C95.8359 278.919 95.8213 278.728 95.792 278.653C95.7627 278.575 95.7074 278.51 95.626 278.458C95.5479 278.403 95.4567 278.375 95.3525 278.375C95.1865 278.375 94.9847 278.427 94.7471 278.531L94.6592 278.355L97.0957 277.242H97.2568ZM103.847 277.242V277.379C103.258 277.529 102.784 277.722 102.426 277.96C102.072 278.194 101.79 278.481 101.582 278.819C101.377 279.155 101.217 279.571 101.103 280.069C101.246 279.972 101.365 279.908 101.46 279.879C101.671 279.814 101.884 279.781 102.099 279.781C102.594 279.781 103.006 279.962 103.335 280.323C103.667 280.681 103.833 281.171 103.833 281.793C103.833 282.229 103.743 282.63 103.564 282.994C103.385 283.359 103.131 283.64 102.802 283.839C102.474 284.037 102.122 284.137 101.748 284.137C101.341 284.137 100.965 284.026 100.62 283.805C100.275 283.58 100.004 283.253 99.8092 282.823C99.6171 282.394 99.5211 281.926 99.5211 281.422C99.5211 280.68 99.6985 279.99 100.053 279.352C100.411 278.71 100.918 278.201 101.572 277.823C102.229 277.442 102.988 277.249 103.847 277.242ZM101.04 280.465C101.014 280.914 101.001 281.243 101.001 281.451C101.001 281.9 101.043 282.335 101.128 282.755C101.215 283.175 101.334 283.469 101.484 283.639C101.591 283.759 101.718 283.819 101.865 283.819C102.015 283.819 102.148 283.733 102.265 283.561C102.382 283.385 102.441 283.03 102.441 282.496C102.441 281.598 102.332 280.978 102.114 280.636C101.974 280.414 101.785 280.304 101.547 280.304C101.417 280.304 101.248 280.357 101.04 280.465Z" fill="#757575"/><path d="M141.257 277.242V282.657C141.257 283.064 141.275 283.325 141.311 283.438C141.346 283.549 141.421 283.64 141.535 283.712C141.649 283.784 141.831 283.819 142.082 283.819H142.233V284H138.747V283.819H138.923C139.206 283.819 139.408 283.787 139.528 283.722C139.649 283.657 139.73 283.567 139.772 283.453C139.815 283.339 139.836 283.074 139.836 282.657V279.225C139.836 278.919 139.821 278.728 139.792 278.653C139.763 278.575 139.707 278.51 139.626 278.458C139.548 278.403 139.457 278.375 139.353 278.375C139.187 278.375 138.985 278.427 138.747 278.531L138.659 278.355L141.096 277.242H141.257ZM144.922 284.137L146.724 278.673H145.352C144.815 278.673 144.411 278.743 144.141 278.883C143.952 278.98 143.796 279.164 143.672 279.435H143.487L143.965 277.379H147.911L145.689 284.137H144.922Z" fill="#757575"/><path d="M186.257 277.242V282.657C186.257 283.064 186.275 283.325 186.311 283.438C186.346 283.549 186.421 283.64 186.535 283.712C186.649 283.784 186.831 283.819 187.082 283.819H187.233V284H183.747V283.819H183.923C184.206 283.819 184.408 283.787 184.528 283.722C184.649 283.657 184.73 283.567 184.772 283.453C184.815 283.339 184.836 283.074 184.836 282.657V279.225C184.836 278.919 184.821 278.728 184.792 278.653C184.763 278.575 184.707 278.51 184.626 278.458C184.548 278.403 184.457 278.375 184.353 278.375C184.187 278.375 183.985 278.427 183.747 278.531L183.659 278.355L186.096 277.242H186.257ZM191.558 280.26C192.024 280.602 192.346 280.921 192.525 281.217C192.707 281.51 192.798 281.847 192.798 282.228C192.798 282.761 192.597 283.214 192.193 283.585C191.793 283.953 191.247 284.137 190.557 284.137C189.903 284.137 189.397 283.976 189.039 283.653C188.681 283.331 188.502 282.937 188.502 282.472C188.502 282.117 188.604 281.806 188.809 281.539C189.018 281.272 189.363 281.028 189.844 280.807C189.32 280.406 188.983 280.079 188.834 279.825C188.687 279.571 188.614 279.277 188.614 278.941C188.614 278.499 188.801 278.11 189.175 277.774C189.553 277.436 190.069 277.267 190.723 277.267C191.355 277.267 191.84 277.416 192.178 277.716C192.52 278.012 192.691 278.368 192.691 278.785C192.691 279.098 192.598 279.374 192.413 279.615C192.23 279.853 191.946 280.068 191.558 280.26ZM191.187 280.011C191.308 279.848 191.397 279.666 191.456 279.464C191.514 279.262 191.544 279.041 191.544 278.8C191.544 278.377 191.452 278.053 191.27 277.828C191.133 277.656 190.945 277.569 190.704 277.569C190.486 277.569 190.3 277.649 190.147 277.809C189.994 277.965 189.918 278.16 189.918 278.395C189.918 278.632 190.002 278.88 190.171 279.137C190.344 279.391 190.683 279.682 191.187 280.011ZM190.211 281.041C190.11 281.132 190.038 281.215 189.996 281.29C189.931 281.404 189.872 281.57 189.82 281.788C189.768 282.006 189.742 282.234 189.742 282.472C189.742 282.778 189.781 283.035 189.859 283.243C189.937 283.448 190.048 283.596 190.191 283.688C190.338 283.779 190.487 283.824 190.64 283.824C190.878 283.824 191.078 283.738 191.241 283.565C191.404 283.39 191.485 283.15 191.485 282.848C191.485 282.216 191.06 281.614 190.211 281.041Z" fill="#757575"/><path d="M233.257 277.242V282.657C233.257 283.064 233.275 283.325 233.311 283.438C233.346 283.549 233.421 283.64 233.535 283.712C233.649 283.784 233.831 283.819 234.082 283.819H234.233V284H230.747V283.819H230.923C231.206 283.819 231.408 283.787 231.528 283.722C231.649 283.657 231.73 283.567 231.772 283.453C231.815 283.339 231.836 283.074 231.836 282.657V279.225C231.836 278.919 231.821 278.728 231.792 278.653C231.763 278.575 231.707 278.51 231.626 278.458C231.548 278.403 231.457 278.375 231.353 278.375C231.187 278.375 230.985 278.427 230.747 278.531L230.659 278.355L233.096 277.242H233.257ZM235.458 284.137V284C235.998 283.876 236.455 283.694 236.83 283.453C237.207 283.212 237.505 282.914 237.723 282.56C237.945 282.205 238.099 281.796 238.187 281.334C237.985 281.438 237.813 281.511 237.67 281.554C237.53 281.593 237.381 281.612 237.225 281.612C236.724 281.612 236.306 281.432 235.97 281.07C235.638 280.709 235.472 280.214 235.472 279.586C235.472 279.15 235.562 278.751 235.741 278.39C235.923 278.025 236.182 277.743 236.517 277.545C236.852 277.343 237.201 277.242 237.562 277.242C237.949 277.242 238.316 277.353 238.661 277.574C239.006 277.796 239.281 278.116 239.486 278.536C239.691 278.956 239.794 279.435 239.794 279.972C239.794 280.668 239.626 281.336 239.291 281.974C238.959 282.612 238.462 283.124 237.801 283.512C237.141 283.896 236.359 284.104 235.458 284.137ZM238.26 280.924C238.293 280.559 238.309 280.239 238.309 279.962C238.309 279.369 238.241 278.818 238.104 278.307C238.026 278.023 237.91 277.815 237.757 277.682C237.676 277.61 237.57 277.574 237.44 277.574C237.277 277.574 237.15 277.644 237.059 277.784C236.932 277.976 236.869 278.342 236.869 278.883C236.869 279.785 236.976 280.406 237.191 280.748C237.331 280.969 237.52 281.08 237.757 281.08C237.884 281.08 238.052 281.028 238.26 280.924Z" fill="#757575"/><path d="M14 180.545H4.13L4.13 174.091H5.558L5.558 178.753H8.344V174.385H9.772V178.753H14V180.545ZM14 172.839H7.154V171.131H8.358C7.546 170.795 7.098 170.076 7.014 168.975L6.972 168.443L8.456 168.331L8.554 169.339C8.666 170.487 9.254 171.061 10.318 171.061H14V172.839ZM14.14 163.942C14.14 164.716 13.9953 165.384 13.706 165.944C13.4167 166.504 13.006 166.938 12.474 167.246C11.942 167.544 11.312 167.694 10.584 167.694C9.87467 167.694 9.254 167.549 8.722 167.26C8.19 166.961 7.77467 166.555 7.476 166.042C7.168 165.519 7.014 164.926 7.014 164.264C7.014 163.293 7.322 162.528 7.938 161.968C8.554 161.398 9.394 161.114 10.458 161.114H10.976V166.014C12.1987 165.883 12.81 165.183 12.81 163.914C12.81 163.531 12.754 163.148 12.642 162.766C12.5207 162.383 12.334 162.033 12.082 161.716L13.258 161.226C13.5287 161.552 13.7433 161.963 13.902 162.458C14.0607 162.952 14.14 163.447 14.14 163.942ZM8.204 164.194C8.204 164.707 8.36267 165.122 8.68 165.44C8.99733 165.757 9.42667 165.948 9.968 166.014V162.57C9.39867 162.607 8.96467 162.766 8.666 163.046C8.358 163.316 8.204 163.699 8.204 164.194ZM16.52 154.748H12.964C13.3187 154.944 13.6033 155.238 13.818 155.63C14.0327 156.022 14.14 156.461 14.14 156.946C14.14 157.543 13.9953 158.071 13.706 158.528C13.4167 158.976 13.006 159.326 12.474 159.578C11.9327 159.83 11.298 159.956 10.57 159.956C9.83267 159.956 9.20267 159.83 8.68 159.578C8.148 159.326 7.73733 158.976 7.448 158.528C7.15867 158.071 7.014 157.543 7.014 156.946C7.014 156.442 7.13067 155.989 7.364 155.588C7.588 155.187 7.89133 154.893 8.274 154.706H7.154V152.998H16.52V154.748ZM12.81 156.456C12.81 155.933 12.6233 155.513 12.25 155.196C11.8673 154.879 11.3073 154.72 10.57 154.72C9.82333 154.72 9.268 154.879 8.904 155.196C8.53067 155.513 8.344 155.933 8.344 156.456C8.344 156.979 8.53067 157.399 8.904 157.716C9.268 158.033 9.82333 158.192 10.57 158.192C11.3073 158.192 11.8673 158.033 12.25 157.716C12.6233 157.399 12.81 156.979 12.81 156.456ZM14.14 148.555C14.14 150.235 13.1973 151.075 11.312 151.075H7.154V149.325H11.34C11.8253 149.325 12.1847 149.227 12.418 149.031C12.6513 148.835 12.768 148.523 12.768 148.093C12.768 147.627 12.6093 147.244 12.292 146.945C11.9653 146.647 11.536 146.497 11.004 146.497H7.154L7.154 144.747H14V146.455H12.978C13.7527 146.913 14.14 147.613 14.14 148.555ZM14.14 139.402C14.14 140.177 13.9953 140.844 13.706 141.404C13.4167 141.964 13.006 142.398 12.474 142.706C11.942 143.005 11.312 143.154 10.584 143.154C9.87467 143.154 9.254 143.009 8.722 142.72C8.19 142.421 7.77467 142.015 7.476 141.502C7.168 140.979 7.014 140.387 7.014 139.724C7.014 138.753 7.322 137.988 7.938 137.428C8.554 136.859 9.394 136.574 10.458 136.574H10.976L10.976 141.474C12.1987 141.343 12.81 140.643 12.81 139.374C12.81 138.991 12.754 138.609 12.642 138.226C12.5207 137.843 12.334 137.493 12.082 137.176L13.258 136.686C13.5287 137.013 13.7433 137.423 13.902 137.918C14.0607 138.413 14.14 138.907 14.14 139.402ZM8.204 139.654C8.204 140.167 8.36267 140.583 8.68 140.9C8.99733 141.217 9.42667 141.409 9.968 141.474L9.968 138.03C9.39867 138.067 8.96467 138.226 8.666 138.506C8.358 138.777 8.204 139.159 8.204 139.654ZM14 135.038H7.154V133.33H8.218C7.826 133.097 7.52733 132.784 7.322 132.392C7.11667 131.991 7.014 131.543 7.014 131.048C7.014 129.433 7.952 128.626 9.828 128.626H14V130.376H9.912C9.38 130.376 8.99267 130.479 8.75 130.684C8.50733 130.88 8.386 131.188 8.386 131.608C8.386 132.121 8.54933 132.532 8.876 132.84C9.19333 133.139 9.618 133.288 10.15 133.288H14V135.038ZM14.14 123.535C14.14 124.253 13.9953 124.879 13.706 125.411C13.4073 125.943 12.9873 126.353 12.446 126.643C11.9047 126.932 11.27 127.077 10.542 127.077C9.814 127.077 9.18867 126.932 8.666 126.643C8.134 126.353 7.728 125.943 7.448 125.411C7.15867 124.879 7.014 124.253 7.014 123.535C7.014 123.096 7.084 122.662 7.224 122.233C7.364 121.803 7.56 121.449 7.812 121.169L9.03 121.687C8.81533 121.929 8.652 122.205 8.54 122.513C8.428 122.811 8.372 123.101 8.372 123.381C8.372 123.987 8.56333 124.459 8.946 124.795C9.31933 125.121 9.856 125.285 10.556 125.285C11.2467 125.285 11.7927 125.121 12.194 124.795C12.586 124.459 12.782 123.987 12.782 123.381C12.782 123.11 12.726 122.821 12.614 122.513C12.502 122.205 12.334 121.929 12.11 121.687L13.342 121.169C13.5847 121.449 13.7807 121.808 13.93 122.247C14.07 122.676 14.14 123.105 14.14 123.535ZM16.52 119.22L13.72 117.96L7.154 120.802V118.94L11.942 117.022L7.154 115.062V113.298L16.52 117.414V119.22Z" fill="black"/><path d="M113.427 316L117.893 306.13H119.363L123.829 316H122.009L121.029 313.718H116.213L115.247 316H113.427ZM118.607 308.076L116.829 312.29H120.413L118.635 308.076H118.607ZM128.015 318.66C127.38 318.66 126.783 318.585 126.223 318.436C125.672 318.296 125.187 318.077 124.767 317.778L125.271 316.56C125.663 316.821 126.083 317.013 126.531 317.134C126.979 317.265 127.427 317.33 127.875 317.33C129.125 317.33 129.751 316.728 129.751 315.524V314.586C129.555 314.969 129.251 315.272 128.841 315.496C128.439 315.72 127.991 315.832 127.497 315.832C126.881 315.832 126.344 315.692 125.887 315.412C125.429 315.123 125.075 314.721 124.823 314.208C124.571 313.695 124.445 313.097 124.445 312.416C124.445 311.735 124.571 311.142 124.823 310.638C125.075 310.125 125.429 309.728 125.887 309.448C126.344 309.159 126.881 309.014 127.497 309.014C128.01 309.014 128.467 309.131 128.869 309.364C129.27 309.588 129.564 309.891 129.751 310.274V309.154H131.459V315.314C131.459 316.425 131.165 317.26 130.577 317.82C129.989 318.38 129.135 318.66 128.015 318.66ZM127.973 314.502C128.514 314.502 128.943 314.315 129.261 313.942C129.578 313.569 129.737 313.06 129.737 312.416C129.737 311.772 129.578 311.268 129.261 310.904C128.943 310.531 128.514 310.344 127.973 310.344C127.431 310.344 127.002 310.531 126.685 310.904C126.367 311.268 126.209 311.772 126.209 312.416C126.209 313.06 126.367 313.569 126.685 313.942C127.002 314.315 127.431 314.502 127.973 314.502ZM136.796 316.14C136.021 316.14 135.354 315.995 134.794 315.706C134.234 315.417 133.8 315.006 133.492 314.474C133.193 313.942 133.044 313.312 133.044 312.584C133.044 311.875 133.189 311.254 133.478 310.722C133.777 310.19 134.183 309.775 134.696 309.476C135.219 309.168 135.811 309.014 136.474 309.014C137.445 309.014 138.21 309.322 138.77 309.938C139.339 310.554 139.624 311.394 139.624 312.458V312.976H134.724C134.855 314.199 135.555 314.81 136.824 314.81C137.207 314.81 137.589 314.754 137.972 314.642C138.355 314.521 138.705 314.334 139.022 314.082L139.512 315.258C139.185 315.529 138.775 315.743 138.28 315.902C137.785 316.061 137.291 316.14 136.796 316.14ZM136.544 310.204C136.031 310.204 135.615 310.363 135.298 310.68C134.981 310.997 134.789 311.427 134.724 311.968H138.168C138.131 311.399 137.972 310.965 137.692 310.666C137.421 310.358 137.039 310.204 136.544 310.204ZM147.505 318.73C146.815 317.703 146.32 316.658 146.021 315.594C145.723 314.521 145.573 313.429 145.573 312.318C145.573 311.198 145.723 310.106 146.021 309.042C146.32 307.978 146.815 306.933 147.505 305.906L148.695 306.382C148.257 307.455 147.939 308.459 147.743 309.392C147.547 310.316 147.449 311.291 147.449 312.318C147.449 313.335 147.547 314.311 147.743 315.244C147.939 316.177 148.257 317.181 148.695 318.254L147.505 318.73ZM153.263 316V311.464L149.469 306.13H151.555L154.187 309.868L156.833 306.13H158.835L155.055 311.478V316H153.263ZM161.759 316.14C160.985 316.14 160.317 315.995 159.757 315.706C159.197 315.417 158.763 315.006 158.455 314.474C158.157 313.942 158.007 313.312 158.007 312.584C158.007 311.875 158.152 311.254 158.441 310.722C158.74 310.19 159.146 309.775 159.659 309.476C160.182 309.168 160.775 309.014 161.437 309.014C162.408 309.014 163.173 309.322 163.733 309.938C164.303 310.554 164.587 311.394 164.587 312.458V312.976H159.687C159.818 314.199 160.518 314.81 161.787 314.81C162.17 314.81 162.553 314.754 162.935 314.642C163.318 314.521 163.668 314.334 163.985 314.082L164.475 315.258C164.149 315.529 163.738 315.743 163.243 315.902C162.749 316.061 162.254 316.14 161.759 316.14ZM161.507 310.204C160.994 310.204 160.579 310.363 160.261 310.68C159.944 310.997 159.753 311.427 159.687 311.968H163.131C163.094 311.399 162.935 310.965 162.655 310.666C162.385 310.358 162.002 310.204 161.507 310.204ZM168.377 316.14C167.882 316.14 167.439 316.047 167.047 315.86C166.664 315.664 166.361 315.403 166.137 315.076C165.922 314.749 165.815 314.381 165.815 313.97C165.815 313.466 165.946 313.069 166.207 312.78C166.468 312.481 166.893 312.267 167.481 312.136C168.069 312.005 168.858 311.94 169.847 311.94H170.337V311.646C170.337 311.179 170.234 310.843 170.029 310.638C169.824 310.433 169.478 310.33 168.993 310.33C168.61 310.33 168.218 310.391 167.817 310.512C167.416 310.624 167.01 310.801 166.599 311.044L166.095 309.854C166.338 309.686 166.622 309.541 166.949 309.42C167.285 309.289 167.635 309.191 167.999 309.126C168.372 309.051 168.722 309.014 169.049 309.014C170.048 309.014 170.79 309.247 171.275 309.714C171.76 310.171 172.003 310.885 172.003 311.856V316H170.365V314.908C170.206 315.291 169.954 315.594 169.609 315.818C169.264 316.033 168.853 316.14 168.377 316.14ZM168.741 314.936C169.198 314.936 169.576 314.777 169.875 314.46C170.183 314.143 170.337 313.741 170.337 313.256V312.948H169.861C168.984 312.948 168.372 313.018 168.027 313.158C167.691 313.289 167.523 313.531 167.523 313.886C167.523 314.194 167.63 314.446 167.845 314.642C168.06 314.838 168.358 314.936 168.741 314.936ZM173.929 316V309.154H175.637V310.358C175.973 309.546 176.692 309.098 177.793 309.014L178.325 308.972L178.437 310.456L177.429 310.554C176.281 310.666 175.707 311.254 175.707 312.318V316H173.929ZM181.999 316.14C181.421 316.14 180.879 316.07 180.375 315.93C179.871 315.79 179.451 315.589 179.115 315.328L179.563 314.18C179.909 314.413 180.296 314.595 180.725 314.726C181.155 314.847 181.584 314.908 182.013 314.908C182.461 314.908 182.793 314.833 183.007 314.684C183.231 314.525 183.343 314.32 183.343 314.068C183.343 313.676 183.054 313.424 182.475 313.312L181.075 313.046C179.89 312.822 179.297 312.206 179.297 311.198C179.297 310.75 179.419 310.363 179.661 310.036C179.913 309.709 180.259 309.457 180.697 309.28C181.136 309.103 181.64 309.014 182.209 309.014C182.695 309.014 183.161 309.084 183.609 309.224C184.057 309.355 184.44 309.555 184.757 309.826L184.281 310.974C184.011 310.75 183.684 310.573 183.301 310.442C182.928 310.311 182.569 310.246 182.223 310.246C181.766 310.246 181.425 310.325 181.201 310.484C180.987 310.643 180.879 310.853 180.879 311.114C180.879 311.525 181.145 311.777 181.677 311.87L183.077 312.136C183.684 312.248 184.141 312.453 184.449 312.752C184.767 313.051 184.925 313.452 184.925 313.956C184.925 314.637 184.659 315.174 184.127 315.566C183.595 315.949 182.886 316.14 181.999 316.14ZM187.249 318.73L186.059 318.254C186.498 317.171 186.815 316.163 187.011 315.23C187.207 314.297 187.305 313.326 187.305 312.318C187.305 311.31 187.207 310.339 187.011 309.406C186.815 308.473 186.498 307.465 186.059 306.382L187.249 305.906C187.94 306.933 188.435 307.983 188.733 309.056C189.032 310.12 189.181 311.207 189.181 312.318C189.181 313.429 189.032 314.521 188.733 315.594C188.435 316.658 187.94 317.703 187.249 318.73Z" fill="black"/><rect x="27" y="1" width="249" height="292" stroke="#0026CA" stroke-width="2"/></svg>