<svg xmlns="http://www.w3.org/2000/svg" xmlns:xlink="http://www.w3.org/1999/xlink" width="449.28" height="165.44" viewBox="0 0 336.96 124.08"><defs><symbol overflow="visible" id="d"><path d="M1.078-6.578c.414-.602.988-.906 1.719-.906.55 0 1.031.187 1.437.562.196.2.368.453.516.766.281.625.422 1.48.422 2.562 0 1.156-.164 2.043-.484 2.656-.211.438-.516.758-.922.954a2.118 2.118 0 0 1-.954.234C1.946.25 1.317-.145.923-.938.598-1.55.437-2.438.437-3.594c0-.695.047-1.27.141-1.719.094-.457.258-.878.5-1.265zm2.531-.125a1.044 1.044 0 0 0-.796-.36c-.313 0-.586.122-.813.36a1.31 1.31 0 0 0-.344.625c-.054.25-.09.68-.11 1.281v1.063c0 .718.005 1.218.016 1.5.032.523.07.898.125 1.125.063.23.176.43.344.593.207.22.469.329.781.329.301 0 .555-.11.766-.329.156-.164.266-.363.328-.593.063-.227.11-.602.14-1.125.009-.282.016-.782.016-1.5v-.625-.438C4.04-5.398 4-5.828 3.938-6.078a1.255 1.255 0 0 0-.328-.625zm0 0"/></symbol><symbol overflow="visible" id="e"><path d="M4.672 0c-.125-.02-.719-.031-1.781-.031-1.055 0-1.641.011-1.766.031h-.14v-.516h.296c.438 0 .719-.007.844-.03.063-.009.148-.056.266-.141V-6.5a.31.31 0 0 0-.094.047 3.11 3.11 0 0 1-1.156.203H.937v-.516h.204c.632-.02 1.16-.16 1.578-.421.133-.07.25-.16.344-.266.019-.02.066-.031.14-.031.07 0 .133.023.188.062v3.36l.015 3.375c.114.117.36.171.735.171h.656V0zm0 0"/></symbol><symbol overflow="visible" id="f"><path d="M1.234-4.813a.64.64 0 0 1-.5-.203.728.728 0 0 1-.171-.5c0-.539.203-1.004.609-1.39a2.066 2.066 0 0 1 1.469-.578c.644 0 1.175.18 1.593.53.426.345.688.798.782 1.36A2.15 2.15 0 0 1 4.656-4c-.21.313-.636.746-1.281 1.297-.262.23-.633.574-1.11 1.031l-.671.625.86.016c1.175 0 1.8-.02 1.874-.063.031 0 .067-.078.11-.234.03-.082.082-.336.156-.766v-.031h.453v.031L4.734-.03V0H.563v-.219c0-.144.003-.226.015-.25.008-.008.328-.367.953-1.078.813-.906 1.332-1.504 1.563-1.797.508-.676.765-1.3.765-1.875 0-.488-.132-.898-.39-1.234-.262-.332-.625-.5-1.094-.5-.43 0-.777.195-1.047.578a.53.53 0 0 0-.062.125.274.274 0 0 0-.047.078h.062c.188 0 .336.07.453.203a.716.716 0 0 1 .172.469.685.685 0 0 1-.187.484c-.117.137-.278.204-.485.204zm0 0"/></symbol><symbol overflow="visible" id="g"><path d="M1.422-5.203a.6.6 0 0 1-.469-.188c-.117-.125-.172-.289-.172-.5 0-.425.164-.78.5-1.062.332-.29.723-.461 1.172-.516h.172c.258 0 .422.008.484.016.25.031.5.11.75.234.5.242.813.59.938 1.047.02.074.031.18.031.313 0 .437-.137.836-.406 1.187-.274.344-.617.59-1.031.734-.032.024-.032.04 0 .047.02 0 .054.012.109.032a2.35 2.35 0 0 1 1.156.718c.32.344.485.735.485 1.172 0 .313-.075.61-.22.89-.179.388-.476.704-.89.954-.406.25-.86.375-1.36.375-.491 0-.929-.105-1.312-.313C.973-.27.711-.55.58-.905a1.254 1.254 0 0 1-.11-.547c0-.219.066-.39.203-.516a.723.723 0 0 1 .5-.203.73.73 0 0 1 .531.203.713.713 0 0 1 .203.516c0 .168-.054.32-.156.453a.615.615 0 0 1-.39.234l-.079.032c.407.336.867.5 1.39.5.415 0 .727-.196.938-.594.125-.25.188-.629.188-1.14v-.22c0-.718-.242-1.195-.719-1.437-.117-.04-.344-.066-.687-.078h-.47l-.03-.031c-.024-.02-.032-.079-.032-.172 0-.094.008-.149.032-.172.03-.02.05-.031.062-.031.207 0 .426-.02.656-.063.32-.039.57-.223.75-.547.176-.332.266-.722.266-1.172 0-.488-.137-.816-.406-.984a.93.93 0 0 0-.516-.156c-.375 0-.71.101-1 .297-.031.023-.07.046-.11.078a.552.552 0 0 0-.077.093l-.032.047c.02.012.047.016.079.016.144.023.269.094.375.219a.682.682 0 0 1 .156.437c0 .18-.063.328-.188.453a.66.66 0 0 1-.484.188zm0 0"/></symbol><symbol overflow="visible" id="h"><path d="M5.188 0c-.106-.02-.59-.031-1.454-.031-.898 0-1.398.011-1.5.031h-.093v-.516h.343c.32-.007.52-.03.594-.062.063-.008.11-.047.14-.11v-1.171H.314v-.516l1.703-2.594c1.144-1.738 1.722-2.61 1.734-2.61.02-.019.098-.03.234-.03h.204l.062.078v5.156h1.047v.516H4.25v1.125a.18.18 0 0 0 .078.125c.063.054.274.086.64.093h.329V0zM3.296-2.375v-3.75L.828-2.375zm0 0"/></symbol><symbol overflow="visible" id="i"><path d="M1.203-2.406a.62.62 0 0 1 .453.187.636.636 0 0 1 .188.469c0 .168-.07.313-.203.438a.597.597 0 0 1-.422.171H1.14l.03.063c.114.242.286.437.516.594.239.156.516.234.829.234.53 0 .91-.223 1.14-.672.145-.281.219-.758.219-1.437 0-.77-.102-1.29-.297-1.563-.2-.25-.437-.375-.719-.375-.586 0-1.027.258-1.328.766-.031.054-.062.086-.093.094a.439.439 0 0 1-.157.015c-.125 0-.199-.02-.218-.062-.012-.032-.016-.688-.016-1.97 0-.218-.008-.476-.016-.78v-.594c0-.414.02-.625.063-.625.02-.02.035-.031.047-.031l.203.062a3.935 3.935 0 0 0 3.031-.016.273.273 0 0 1 .14-.046c.063 0 .094.07.094.203v.14c-.605.73-1.375 1.094-2.312 1.094a2.8 2.8 0 0 1-.625-.062l-.11-.032v1.938c.426-.344.864-.516 1.313-.516.145 0 .3.024.469.063.5.125.906.414 1.219.86.32.437.484.948.484 1.53 0 .688-.242 1.282-.719 1.782C3.86.004 3.273.25 2.578.25c-.48 0-.883-.133-1.203-.39A1.226 1.226 0 0 1 1-.517a1.86 1.86 0 0 1-.422-1c0-.02-.008-.054-.015-.109v-.11c0-.206.054-.367.171-.484a.636.636 0 0 1 .47-.187zm0 0"/></symbol><symbol overflow="visible" id="j"><path d="M4.188-6.75c-.168-.164-.399-.258-.688-.281-.531 0-.977.226-1.328.672-.344.492-.516 1.246-.516 2.265v.047l.094-.14c.313-.446.727-.672 1.25-.672.344 0 .645.07.906.203.176.105.352.261.531.468.188.2.336.407.454.625.156.368.234.766.234 1.204v.203c0 .168-.023.328-.063.484-.085.438-.312.856-.687 1.25-.324.336-.684.54-1.078.625a1.9 1.9 0 0 1-.453.047c-.149 0-.278-.012-.39-.031C1.897.113 1.46-.187 1.14-.687.69-1.383.469-2.329.469-3.517c0-.812.14-1.52.422-2.125a3.498 3.498 0 0 1 1.203-1.421 2.262 2.262 0 0 1 1.312-.422c.438 0 .785.12 1.047.359.27.23.406.547.406.953 0 .188-.058.34-.171.453-.106.106-.25.157-.438.157a.613.613 0 0 1-.438-.157c-.105-.101-.156-.25-.156-.437 0-.332.176-.532.531-.594zm-.485 2.688a1.032 1.032 0 0 0-.812-.391c-.282 0-.508.086-.672.25-.375.367-.563.96-.563 1.781 0 .668.047 1.125.14 1.375.071.23.196.422.376.578a.968.968 0 0 0 .64.235c.383 0 .68-.141.891-.422.102-.164.172-.352.203-.563.031-.218.047-.535.047-.953v-.36c0-.425-.015-.741-.047-.952a1.52 1.52 0 0 0-.203-.579zm0 0"/></symbol><symbol overflow="visible" id="k"><path d="M.625-5.14c0-.02.063-.43.188-1.235l.171-1.203c0-.008.079-.016.235-.016h.218v.047c0 .074.055.137.172.188.114.054.313.09.594.109.281.012.91.016 1.89.016h1.36v.437L4.687-5.75c-.117.156-.246.336-.39.531-.137.188-.246.336-.328.438a1.944 1.944 0 0 0-.125.187c-.387.606-.621 1.418-.703 2.438a12.9 12.9 0 0 0-.047 1.25c0 .117-.008.226-.016.328v.359A.556.556 0 0 1 2.86.11a.59.59 0 0 1-.812-.046C1.94-.064 1.89-.234 1.89-.454c0-.113.015-.328.046-.64.102-1.009.454-2.024 1.047-3.048.145-.238.457-.691.938-1.359l.515-.703H3.391c-1.305 0-1.985.023-2.047.062-.032.024-.074.106-.125.25a3.126 3.126 0 0 0-.125.532c-.012.125-.024.199-.032.218v.032H.625zm0 0"/></symbol><symbol overflow="visible" id="l"><path d="M1.938-3.766c-.375-.238-.665-.488-.86-.75-.2-.257-.297-.601-.297-1.03 0-.321.063-.595.188-.813.164-.332.406-.602.719-.813.32-.207.687-.312 1.093-.312.508 0 .953.136 1.328.406.375.262.61.601.704 1.016v.28a2.5 2.5 0 0 1-.016.329c-.117.5-.453.93-1.016 1.281l-.14.094c.414.281.632.433.656.453.562.45.844 1.008.844 1.672 0 .605-.227 1.125-.672 1.562C4.019.035 3.46.25 2.797.25 1.879.25 1.203-.086.766-.766a1.657 1.657 0 0 1-.282-.968c0-.82.485-1.5 1.454-2.032zm2.234-2c0-.32-.11-.593-.328-.812a1.422 1.422 0 0 0-.75-.438h-.375c-.399 0-.73.137-1 .407A.79.79 0 0 0 1.437-6c0 .324.133.578.407.766.039.043.281.199.718.468l.657.422s.047-.023.14-.078c.094-.062.16-.113.204-.156.406-.32.609-.719.609-1.188zm-2.969 4c0 .45.16.82.484 1.11.32.281.696.422 1.125.422.301 0 .579-.063.829-.188.25-.133.441-.3.578-.5.125-.195.187-.406.187-.625 0-.312-.133-.594-.39-.844-.063-.062-.375-.273-.938-.64a7.69 7.69 0 0 0-.344-.219 17.105 17.105 0 0 1-.28-.188L2.358-3.5l-.14.078c-.469.305-.778.68-.922 1.125a1.695 1.695 0 0 0-.094.531zm0 0"/></symbol><symbol overflow="visible" id="m"><path d="M1.938-1.078c0 .156-.043.289-.125.39a.43.43 0 0 1-.297.188l-.047.016c0 .011.023.03.078.062.05.031.094.055.125.063.176.074.39.109.64.109.145 0 .243-.004.297-.016.352-.093.657-.328.907-.703.289-.414.437-1.14.437-2.172v-.078l-.062.078c-.305.512-.73.766-1.282.766-.605 0-1.117-.254-1.53-.766a2.854 2.854 0 0 1-.47-.78c-.093-.259-.14-.583-.14-.97 0-.437.054-.789.172-1.062.113-.281.316-.567.609-.86a2.227 2.227 0 0 1 1.39-.656l.032-.015h.062c.008 0 .032.007.063.015h.094c.156 0 .265.008.328.016.601.137 1.078.523 1.422 1.156.32.656.484 1.508.484 2.547 0 1.055-.227 1.938-.672 2.656-.262.43-.578.762-.953 1A2.218 2.218 0 0 1 2.344.25c-.48 0-.867-.11-1.156-.328-.282-.227-.422-.55-.422-.969 0-.414.195-.625.593-.625.176 0 .317.055.422.156.102.106.157.25.157.438zM3.077-7a2.985 2.985 0 0 0-.312-.016 1.04 1.04 0 0 0-.735.297 1.267 1.267 0 0 0-.312.594c-.043.23-.063.621-.063 1.172 0 .512.016.918.047 1.219.04.28.149.511.328.687.188.18.422.266.703.266h.047c.406-.04.696-.254.875-.64.188-.384.281-.852.281-1.407 0-.582-.027-1.004-.078-1.266a1.235 1.235 0 0 0-.28-.578.923.923 0 0 0-.5-.328zm0 0"/></symbol><symbol overflow="visible" id="n"><path d="M3.14-3.422c-.867-.25-1.495-.55-1.89-.906a1.76 1.76 0 0 1-.594-1.36c0-.593.239-1.085.719-1.484.488-.394 1.117-.594 1.89-.594.532 0 1 .106 1.407.313.414.2.734.48.953.844.227.355.344.742.344 1.156H4.953c0-.457-.148-.817-.437-1.078-.293-.27-.711-.407-1.25-.407-.5 0-.891.11-1.172.329-.274.218-.406.523-.406.906 0 .312.128.578.39.797.27.218.723.418 1.36.593.632.18 1.128.375 1.484.594.363.219.629.477.797.766.176.281.265.617.265 1 0 .625-.246 1.125-.734 1.5-.48.375-1.121.562-1.922.562a3.744 3.744 0 0 1-1.484-.296C1.383-.395 1.03-.672.78-1.016a2.07 2.07 0 0 1-.36-1.203h1.016c0 .461.172.824.516 1.094.344.273.8.406 1.375.406.531 0 .938-.11 1.219-.328.281-.219.422-.516.422-.89 0-.375-.133-.66-.39-.86-.263-.207-.743-.414-1.438-.625zm0 0"/></symbol><symbol overflow="visible" id="o"><path d="M4.25-.563c-.375.45-.934.672-1.672.672-.605 0-1.07-.175-1.39-.53-.313-.352-.47-.876-.47-1.563v-3.72h.97v3.688c0 .868.351 1.297 1.062 1.297.738 0 1.234-.273 1.484-.828v-4.156h.97V0H4.28zm0 0"/></symbol><symbol overflow="visible" id="p"><path d="M3.484-4.828a3.586 3.586 0 0 0-.468-.031c-.649 0-1.086.273-1.313.812V0H.734v-5.703h.954l.015.672c.313-.508.766-.766 1.36-.766.187 0 .328.024.421.063zm0 0"/></symbol><symbol overflow="visible" id="q"><path d="M1.219 0v-4.938H.312v-.765h.907v-.578c0-.614.16-1.086.484-1.422.32-.332.785-.5 1.39-.5.22 0 .442.031.673.094l-.063.796a2.891 2.891 0 0 0-.531-.046c-.313 0-.559.093-.735.28-.167.18-.25.438-.25.782v.594h1.22v.766h-1.22V0zm0 0"/></symbol><symbol overflow="visible" id="r"><path d="M5.563-2.781c0 .867-.204 1.562-.61 2.094-.398.53-.933.796-1.61.796-.718 0-1.277-.254-1.671-.765L1.625 0h-.89v-8.094h.968v3.031c.395-.488.938-.734 1.625-.734.695 0 1.242.262 1.64.781.395.524.595 1.235.595 2.141zm-.985-.11c0-.664-.133-1.175-.39-1.53-.25-.364-.618-.548-1.094-.548-.649 0-1.11.297-1.39.89v2.47c.3.593.769.89 1.405.89.47 0 .829-.18 1.079-.547.257-.363.39-.906.39-1.625zm0 0"/></symbol><symbol overflow="visible" id="s"><path d="M.484-2.906c0-.551.11-1.051.329-1.5.218-.446.519-.79.906-1.032.394-.238.843-.359 1.343-.359.782 0 1.41.274 1.891.813.477.53.719 1.242.719 2.125v.078c0 .554-.11 1.054-.328 1.5A2.45 2.45 0 0 1 4.437-.25c-.398.242-.851.36-1.359.36-.773 0-1.398-.266-1.875-.797-.48-.54-.719-1.254-.719-2.141zm.97.125c0 .625.144 1.133.437 1.515.3.387.695.579 1.187.579.488 0 .879-.192 1.172-.579.29-.394.438-.941.438-1.64 0-.625-.153-1.13-.454-1.516A1.405 1.405 0 0 0 3.063-5c-.481 0-.872.195-1.172.578-.293.375-.438.922-.438 1.64zm0 0"/></symbol><symbol overflow="visible" id="t"><path d="M4.25 0c-.055-.113-.102-.313-.14-.594-.45.469-.985.703-1.61.703-.563 0-1.027-.156-1.39-.468a1.567 1.567 0 0 1-.532-1.22c0-.593.223-1.05.672-1.374.445-.332 1.082-.5 1.906-.5h.938v-.453c0-.332-.106-.598-.313-.797-.199-.207-.496-.313-.89-.313-.344 0-.637.09-.875.266-.23.18-.344.39-.344.64H.688c0-.288.097-.566.296-.827.207-.27.485-.477.829-.625a2.72 2.72 0 0 1 1.14-.235c.656 0 1.164.168 1.531.5.375.324.57.774.594 1.344v2.625c0 .523.067.937.203 1.25V0zM2.64-.75c.301 0 .587-.078.86-.234.281-.157.477-.36.594-.61v-1.172h-.75c-1.2 0-1.797.352-1.797 1.047 0 .305.098.543.297.719.207.168.472.25.797.25zm0 0"/></symbol><symbol overflow="visible" id="u"><path d="M.5-2.89c0-.876.207-1.579.625-2.11.414-.531.957-.797 1.625-.797.664 0 1.191.23 1.578.688v-2.985h.984V0h-.906L4.36-.61c-.386.481-.93.72-1.625.72-.656 0-1.195-.27-1.609-.813C.707-1.243.5-1.953.5-2.828zm.969.109c0 .648.133 1.152.406 1.515.27.368.64.547 1.11.547.613 0 1.062-.273 1.343-.828v-2.625c-.293-.531-.742-.797-1.344-.797-.468 0-.84.184-1.109.547-.273.367-.406.914-.406 1.64zm0 0"/></symbol><symbol overflow="visible" id="w"><path d="M5.547-2.781c0 .867-.2 1.562-.594 2.094-.398.53-.933.796-1.61.796-.687 0-1.234-.218-1.64-.656v2.735H.734v-7.891h.891l.047.64c.394-.488.945-.734 1.656-.734.688 0 1.227.262 1.625.781.395.512.594 1.227.594 2.141zm-.969-.11c0-.644-.14-1.148-.422-1.515-.273-.375-.648-.563-1.125-.563-.586 0-1.027.262-1.328.782v2.718c.29.524.738.782 1.344.782.469 0 .836-.18 1.11-.547.28-.375.421-.926.421-1.657zm0 0"/></symbol><symbol overflow="visible" id="x"><path d="M1.797 0H.828v-5.703h.969zM.75-7.203c0-.156.047-.285.14-.39.094-.114.235-.173.422-.173.188 0 .329.059.422.172a.542.542 0 0 1 .157.39c0 .157-.055.29-.157.391-.093.106-.234.157-.421.157-.188 0-.329-.051-.422-.157a.558.558 0 0 1-.141-.39zm0 0"/></symbol><symbol overflow="visible" id="y"><path d="M3.016-.688c.351 0 .66-.101.921-.312.258-.219.399-.484.422-.797h.922a1.746 1.746 0 0 1-.328.938c-.21.293-.492.527-.844.703a2.38 2.38 0 0 1-1.093.265c-.774 0-1.387-.257-1.844-.78C.71-1.192.484-1.899.484-2.798v-.156c0-.563.098-1.055.297-1.485.207-.425.5-.757.875-1 .383-.238.836-.359 1.36-.359.632 0 1.164.195 1.593.578.426.375.649.871.672 1.485H4.36c-.023-.375-.164-.676-.421-.907A1.29 1.29 0 0 0 3.015-5c-.493 0-.875.18-1.157.531-.273.356-.406.871-.406 1.547v.188c0 .656.133 1.164.406 1.515.27.356.657.532 1.157.532zm0 0"/></symbol><symbol overflow="visible" id="z"><path d="M3.094.11c-.774 0-1.403-.255-1.89-.766-.481-.508-.72-1.188-.72-2.031v-.188c0-.563.11-1.063.329-1.5.218-.445.519-.797.906-1.047.383-.25.804-.375 1.265-.375.739 0 1.313.246 1.72.734.413.481.624 1.18.624 2.094v.406h-3.86c.009.555.173 1.008.485 1.36.313.344.711.516 1.203.516.344 0 .633-.067.875-.204.239-.144.446-.332.625-.562L5.25-1C4.77-.258 4.05.11 3.094.11zM2.984-5c-.398 0-.73.148-1 .438-.261.28-.421.68-.484 1.187h2.844v-.063c-.024-.5-.153-.882-.39-1.156C3.71-4.864 3.39-5 2.983-5zm0 0"/></symbol><symbol overflow="visible" id="B"><path d="M.703-3.11c0-.788.102-1.55.313-2.28.218-.727.535-1.391.953-1.985.414-.602.851-1.031 1.312-1.281L3.484-8c-.511.387-.933.984-1.265 1.797-.324.805-.508 1.703-.547 2.703v.453c0 1.356.25 2.531.75 3.531.289.594.644 1.055 1.062 1.391l-.203.594c-.469-.262-.918-.696-1.344-1.297C1.114-.023.704-1.453.704-3.11zm0 0"/></symbol><symbol overflow="visible" id="C"><path d="M1.797 0H.828v-8.094h.969zm0 0"/></symbol><symbol overflow="visible" id="D"><path d="M4.047-1.516a.727.727 0 0 0-.297-.609c-.2-.145-.543-.27-1.031-.375-.492-.102-.883-.227-1.172-.375-.293-.145-.512-.32-.656-.531a1.27 1.27 0 0 1-.204-.719c0-.469.196-.863.594-1.188.395-.32.899-.484 1.516-.484.644 0 1.164.168 1.562.5.407.336.61.762.61 1.281H4c0-.27-.117-.5-.344-.687A1.284 1.284 0 0 0 2.796-5c-.355 0-.632.078-.827.234a.737.737 0 0 0-.297.61.6.6 0 0 0 .281.531c.188.117.52.23 1 .344.488.105.883.234 1.188.39.3.149.523.329.671.547.145.211.22.465.22.766 0 .512-.204.922-.61 1.234-.406.305-.938.453-1.594.453-.46 0-.867-.078-1.219-.234a1.98 1.98 0 0 1-.812-.688C.597-1.101.5-1.413.5-1.75h.969c.02.324.148.586.39.781.25.188.57.281.97.281.374 0 .671-.07.89-.218a.718.718 0 0 0 .328-.61zm0 0"/></symbol><symbol overflow="visible" id="E"><path d="M2.984-3.063a8.09 8.09 0 0 1-.312 2.25 6.387 6.387 0 0 1-.938 1.985c-.43.613-.87 1.047-1.328 1.297l-.203-.594C.743 1.469 1.176.828 1.5-.047c.332-.875.5-1.844.5-2.906v-.172c0-.738-.078-1.422-.234-2.047a6.477 6.477 0 0 0-.641-1.703C.852-7.383.547-7.773.203-8.047l.203-.61c.457.262.895.696 1.313 1.298.426.593.742 1.257.953 1.984.207.719.312 1.492.312 2.313zm0 0"/></symbol><symbol overflow="visible" id="v"><path d="M3.594 2.594c0 .07-.07.11-.203.11H3.25l-.297-.267c-1.293-1.18-1.937-2.89-1.937-5.14 0-.875.101-1.672.312-2.39.332-1.134.875-2.048 1.625-2.735.05-.04.11-.086.172-.14a.734.734 0 0 0 .125-.126h.14c.094 0 .15.016.172.047.02.024.032.043.032.063 0 .023-.043.074-.125.156-1.117 1.18-1.672 2.89-1.672 5.14 0 2.243.555 3.946 1.672 5.126.082.082.125.132.125.156zm0 0"/></symbol><symbol overflow="visible" id="G"><path d="M.64-8.078l.047-.016h.235l.312.266c1.29 1.18 1.938 2.887 1.938 5.125 0 .887-.106 1.687-.313 2.406C2.523.836 1.984 1.75 1.234 2.438c-.054.039-.117.085-.187.14a.61.61 0 0 0-.125.125H.797c-.086 0-.14-.012-.172-.031-.023-.012-.031-.047-.031-.11.008 0 .05-.046.125-.14 1.101-1.156 1.656-2.86 1.656-5.11 0-2.257-.555-3.968-1.656-5.124a.743.743 0 0 0-.125-.141c0-.063.015-.102.047-.125zm0 0"/></symbol><symbol overflow="visible" id="H"><path d="M3.938-4.266c-1.086-.312-1.876-.695-2.376-1.156a2.209 2.209 0 0 1-.734-1.687c0-.75.3-1.368.906-1.86.602-.5 1.391-.75 2.36-.75.656 0 1.238.133 1.75.39.52.25.922.602 1.203 1.048.281.449.422.937.422 1.469H6.203c0-.583-.187-1.036-.562-1.36-.368-.332-.883-.5-1.547-.5-.625 0-1.117.137-1.469.406-.344.274-.516.653-.516 1.141 0 .398.16.73.485 1 .332.262.894.508 1.687.734.801.22 1.426.465 1.875.735.457.273.797.59 1.016.953.219.355.328.777.328 1.265 0 .782-.309 1.407-.922 1.876-.605.46-1.414.687-2.422.687A4.55 4.55 0 0 1 2.313-.25C1.738-.5 1.296-.844.984-1.281a2.558 2.558 0 0 1-.453-1.5h1.266c0 .586.21 1.043.64 1.375.426.336 1 .5 1.72.5.663 0 1.175-.133 1.53-.406.352-.27.532-.641.532-1.11 0-.469-.168-.828-.5-1.078-.324-.258-.918-.516-1.782-.766zm0 0"/></symbol><symbol overflow="visible" id="I"><path d="M2.14-6.266c.54-.656 1.243-.984 2.11-.984 1.5 0 2.258.852 2.281 2.547V0H5.313v-4.719c-.012-.508-.133-.883-.36-1.125-.23-.25-.59-.375-1.078-.375a1.8 1.8 0 0 0-1.047.313c-.293.21-.523.484-.687.828V0H.92v-10.11h1.22zm0 0"/></symbol><symbol overflow="visible" id="J"><path d="M.594-3.625c0-.695.133-1.32.406-1.875.281-.563.664-.992 1.156-1.297a3.127 3.127 0 0 1 1.672-.453c.969 0 1.75.34 2.344 1.016.601.668.906 1.558.906 2.671v.079c0 .699-.137 1.324-.406 1.875A3.067 3.067 0 0 1 5.547-.33c-.492.306-1.059.454-1.703.454-.969 0-1.758-.332-2.36-1-.593-.676-.89-1.566-.89-2.672zm1.234.14c0 .794.18 1.43.547 1.907.363.48.852.719 1.469.719.625 0 1.113-.239 1.469-.72.363-.487.546-1.171.546-2.046 0-.781-.187-1.41-.562-1.89a1.746 1.746 0 0 0-1.469-.735c-.594 0-1.078.242-1.453.719-.367.48-.547 1.164-.547 2.047zm0 0"/></symbol><symbol overflow="visible" id="K"><path d="M6.938-3.484c0 1.086-.25 1.96-.75 2.625-.493.656-1.157.984-2 .984-.868 0-1.547-.27-2.047-.813v3.422H.92v-9.859h1.11l.063.797c.5-.613 1.187-.922 2.062-.922.852 0 1.532.324 2.032.969.5.648.75 1.543.75 2.687zm-1.22-.141c0-.8-.171-1.43-.515-1.89-.344-.47-.812-.704-1.406-.704-.742 0-1.293.328-1.656.985v3.39c.363.657.921.985 1.671.985.583 0 1.047-.227 1.391-.688.344-.469.516-1.16.516-2.078zm0 0"/></symbol><symbol overflow="visible" id="M"><path d="M1.11 0v-9.594h3.14c1.04 0 1.82.219 2.344.656.52.43.781 1.063.781 1.907 0 .449-.133.843-.39 1.187-.25.344-.594.61-1.032.797.52.149.93.422 1.234.828.301.407.454.89.454 1.453 0 .868-.282 1.543-.844 2.032-.555.492-1.34.734-2.36.734zm1.265-4.484v3.453h2.094c.582 0 1.039-.149 1.375-.453.343-.313.515-.735.515-1.266 0-1.156-.625-1.734-1.875-1.734zm0-1.016h1.906c.551 0 .992-.133 1.328-.406.332-.282.5-.657.5-1.125 0-.532-.156-.914-.468-1.157-.305-.238-.766-.359-1.391-.359H2.375zm0 0"/></symbol><symbol overflow="visible" id="N"><path d="M6.406-2.5H2.391L1.484 0H.188l3.656-9.594h1.11L8.624 0H7.328zm-3.64-1.047H6.03L4.391-8.03zm0 0"/></symbol><clipPath id="a"><path d="M0 0h336.96v123.566H0zm0 0"/></clipPath><clipPath id="b"><path d="M.11 72.84H12V84H.11zm0 0"/></clipPath><clipPath id="c"><path d="M325.938 72.84h11.023V84h-11.024zm0 0"/></clipPath><clipPath id="F"><path d="M335 54h1.96v12H335zm0 0"/></clipPath></defs><g clip-path="url(#a)" fill="#fff"><path d="M0 0h336.96v124.08H0z"/><path d="M0 0h336.96v124.08H0z"/></g><path d="M7.313 104.377h435.374" transform="scale(.74889 .75043)" fill="none" stroke-width="1.462" stroke="#000"/><g clip-path="url(#b)"><path d="M11.063 72.84L.108 78.328l10.954 5.484-5.477-5.484zm0 0"/></g><g clip-path="url(#c)"><path d="M325.938 72.84l10.953 5.488-10.954 5.484 5.477-5.484zm0 0"/></g><path d="M37.498 97.626v13.497m41.666-13.497v13.497m41.671-13.497v13.497m41.666-13.497v13.497m41.666-13.497v13.497m41.666-13.497v13.497m41.666-13.497v13.497m41.666-13.497v13.497m41.67-13.497v13.497m41.667-13.497v13.497" transform="scale(.74889 .75043)" fill="none" stroke-width="1.125" stroke-linecap="round" stroke-linejoin="round" stroke="#666"/><path d="M121.695 36.031H168.5v21.93h-46.805zm0 0" fill="red" fill-opacity=".2"/><path d="M152.898 4.7h62.407v21.933h-62.407zm0 0" fill="#1e90ff" fill-opacity=".2"/><path d="M162.501 48.014H225M225 48.014v29.223M225 77.237h-62.499M162.501 77.237V48.014" transform="scale(.74889 .75043)" fill="none" stroke-width="1.688" stroke-linecap="round" stroke="red"/><path d="M204.167 6.262H287.5M287.499 6.262V35.49M287.499 35.49h-83.332M204.167 35.49V6.262" transform="scale(.74889 .75043)" fill="none" stroke-width="1.688" stroke-linecap="round" stroke="#1e90ff"/><path d="M141.668 62.625h20.833M225 62.625h62.499M204.167 77.237V48.014" transform="scale(.74889 .75043)" fill="none" stroke-width="1.688" stroke="red"/><path d="M162.501 20.873h41.666M287.499 20.873h125.003M245.833 35.49V6.262" transform="scale(.74889 .75043)" fill="none" stroke-width="1.688" stroke="#1e90ff"/><path d="M144.694 62.625c0 .401-.079.786-.235 1.156-.151.375-.37.697-.652.984-.287.28-.61.5-.98.656a3.042 3.042 0 0 1-2.317 0 3.058 3.058 0 0 1-.98-.656 2.912 2.912 0 0 1-.658-.984 2.93 2.93 0 0 1-.23-1.156c0-.4.074-.786.23-1.155.152-.375.37-.698.658-.984.281-.281.61-.5.98-.656a3.042 3.042 0 0 1 2.316 0c.37.156.694.375.98.656.282.286.502.609.653.984.156.37.235.754.235 1.155zm0 0M165.526 62.625a3.025 3.025 0 0 1-5.163 2.14 3.025 3.025 0 1 1 5.164-2.14zm0 0M207.192 62.625a3.025 3.025 0 1 1-6.049 0 3.025 3.025 0 0 1 6.05 0zm0 0M228.025 62.625a3.025 3.025 0 1 1-6.049 0 3.025 3.025 0 0 1 6.05 0zm0 0M290.524 62.625a3.025 3.025 0 1 1-6.049 0 3.025 3.025 0 0 1 6.05 0zm0 0" transform="scale(.74889 .75043)" fill="red" stroke-width="1.125" stroke="red"/><path d="M165.526 20.873c0 .401-.078.792-.229 1.161a3.051 3.051 0 0 1-1.638 1.635c-.37.156-.756.229-1.158.229-.401 0-.787-.073-1.158-.23a2.898 2.898 0 0 1-.98-.655 2.891 2.891 0 0 1-.658-.979 3.05 3.05 0 0 1 0-2.316c.152-.37.37-.698.658-.984.281-.281.61-.5.98-.656a3.042 3.042 0 0 1 2.316 0c.37.156.694.375.98.656a3.025 3.025 0 0 1 .887 2.14zm0 0M207.192 20.873c0 .401-.078.792-.23 1.161-.156.37-.375.698-.656.979-.282.286-.61.505-.981.656-.37.156-.756.229-1.158.229-.402 0-.788-.073-1.158-.23a2.898 2.898 0 0 1-.98-.655 2.969 2.969 0 0 1-.658-.979 3.05 3.05 0 0 1 0-2.316 3.045 3.045 0 0 1 1.638-1.64 3.042 3.042 0 0 1 2.316 0c.37.156.699.375.98.656a3.025 3.025 0 0 1 .887 2.14zm0 0M248.858 20.873c0 .401-.078.792-.23 1.161-.156.37-.37.698-.656.979-.282.286-.61.505-.981.656-.37.156-.756.229-1.158.229-.402 0-.788-.073-1.158-.23a2.898 2.898 0 0 1-.98-.655 3.051 3.051 0 0 1-.658-.979 3.05 3.05 0 0 1 0-2.316c.157-.37.376-.698.657-.984.282-.281.61-.5.981-.656a3.042 3.042 0 0 1 2.316 0 3.045 3.045 0 0 1 1.638 1.64c.151.37.23.755.23 1.155zm0 0M290.524 20.873c0 .401-.078.792-.23 1.161-.15.37-.37.698-.657.979-.281.286-.61.505-.98.656-.37.156-.757.229-1.158.229-.402 0-.788-.073-1.158-.23a3.051 3.051 0 0 1-1.638-1.634 3.05 3.05 0 0 1 0-2.316c.157-.37.376-.698.657-.984.287-.281.61-.5.98-.656a3.042 3.042 0 0 1 2.317 0c.37.156.699.375.98.656a3.025 3.025 0 0 1 .887 2.14zm0 0M415.527 20.873c0 .401-.078.792-.235 1.161-.15.37-.37.698-.652.979a2.95 2.95 0 0 1-.98.656c-.37.156-.757.229-1.158.229-.402 0-.788-.073-1.158-.23a2.898 2.898 0 0 1-.98-.655 2.891 2.891 0 0 1-.658-.979c-.157-.37-.23-.76-.23-1.16 0-.401.073-.787.23-1.156.151-.37.37-.698.657-.984.282-.281.61-.5.98-.656a3.042 3.042 0 0 1 2.317 0c.37.156.693.375.98.656.282.286.501.614.652.984.157.37.235.755.235 1.155zm0 0" transform="scale(.74889 .75043)" fill="#1e90ff" stroke-width="1.125" stroke="#1e90ff"/><use xlink:href="#d" x="25.088" y="98.104"/><use xlink:href="#e" x="50.293" y="98.104"/><use xlink:href="#d" x="56.284" y="98.104"/><use xlink:href="#d" x="62.275" y="98.104"/><use xlink:href="#f" x="81.5" y="98.104"/><use xlink:href="#d" x="87.491" y="98.104"/><use xlink:href="#d" x="93.482" y="98.104"/><use xlink:href="#g" x="112.708" y="98.104"/><use xlink:href="#d" x="118.699" y="98.104"/><use xlink:href="#d" x="124.69" y="98.104"/><use xlink:href="#h" x="143.904" y="98.104"/><use xlink:href="#d" x="149.895" y="98.104"/><use xlink:href="#d" x="155.886" y="98.104"/><use xlink:href="#i" x="175.111" y="98.104"/><use xlink:href="#d" x="181.102" y="98.104"/><use xlink:href="#d" x="187.094" y="98.104"/><use xlink:href="#j" x="206.319" y="98.104"/><use xlink:href="#d" x="212.31" y="98.104"/><use xlink:href="#d" x="218.301" y="98.104"/><use xlink:href="#k" x="237.515" y="98.104"/><use xlink:href="#d" x="243.506" y="98.104"/><use xlink:href="#d" x="249.497" y="98.104"/><use xlink:href="#l" x="268.722" y="98.104"/><use xlink:href="#d" x="274.714" y="98.104"/><use xlink:href="#d" x="280.705" y="98.104"/><use xlink:href="#m" x="299.93" y="98.104"/><use xlink:href="#d" x="305.921" y="98.104"/><use xlink:href="#d" x="311.912" y="98.104"/><use xlink:href="#n" x="266.721" y="50.176"/><use xlink:href="#o" x="272.713" y="50.176"/><use xlink:href="#p" x="278.704" y="50.176"/><use xlink:href="#q" x="282.448" y="50.176"/><use xlink:href="#r" x="286.193" y="50.176"/><use xlink:href="#s" x="292.184" y="50.176"/><use xlink:href="#t" x="298.175" y="50.176"/><use xlink:href="#p" x="304.166" y="50.176"/><use xlink:href="#u" x="307.91" y="50.176"/><use xlink:href="#v" x="266.721" y="62.907"/><use xlink:href="#w" x="271.215" y="62.907"/><use xlink:href="#p" x="277.206" y="62.907"/><use xlink:href="#x" x="280.95" y="62.907"/><use xlink:href="#y" x="283.197" y="62.907"/><use xlink:href="#z" x="288.439" y="62.907"/><use xlink:href="#A" x="293.681" y="62.907"/><use xlink:href="#B" x="295.928" y="62.907"/><use xlink:href="#u" x="299.673" y="62.907"/><use xlink:href="#s" x="305.664" y="62.907"/><use xlink:href="#C" x="311.655" y="62.907"/><use xlink:href="#C" x="313.901" y="62.907"/><use xlink:href="#t" x="316.148" y="62.907"/><use xlink:href="#p" x="322.139" y="62.907"/><use xlink:href="#D" x="325.884" y="62.907"/><use xlink:href="#E" x="331.126" y="62.907"/><g clip-path="url(#F)"><use xlink:href="#G" x="334.87" y="62.907"/></g><use xlink:href="#H" x="38.31" y="51.673" fill="red"/><use xlink:href="#I" x="46.548" y="51.673" fill="red"/><use xlink:href="#J" x="54.037" y="51.673" fill="red"/><use xlink:href="#K" x="61.526" y="51.673" fill="red"/><use xlink:href="#L" x="69.015" y="51.673" fill="red"/><use xlink:href="#M" x="72.01" y="51.673" fill="red"/><use xlink:href="#H" x="37.936" y="20.22" fill="#1e90ff"/><use xlink:href="#I" x="46.174" y="20.22" fill="#1e90ff"/><use xlink:href="#J" x="53.663" y="20.22" fill="#1e90ff"/><use xlink:href="#K" x="61.151" y="20.22" fill="#1e90ff"/><use xlink:href="#L" x="68.64" y="20.22" fill="#1e90ff"/><use xlink:href="#N" x="71.636" y="20.22" fill="#1e90ff"/></svg>