<svg xmlns="http://www.w3.org/2000/svg" width="521" height="154" viewBox="0 0 521 154" fill="none">
<rect x="34.4492" y="99.6741" width="1.88174" height="30" rx="0.940872" fill="#858585"/>
<rect x="84.7454" y="99.6741" width="1.88174" height="30" rx="0.940872" fill="#858585"/>
<rect x="135.042" y="99.6741" width="1.88175" height="30" rx="0.940876" fill="#858585"/>
<rect x="185.338" y="99.6741" width="1.88172" height="30" rx="0.940859" fill="#858585"/>
<rect x="235.634" y="99.6741" width="1.88175" height="30" rx="0.940876" fill="#858585"/>
<rect x="285.93" y="99.6741" width="1.88178" height="30" rx="0.940892" fill="#858585"/>
<rect x="336.227" y="99.6741" width="1.88178" height="30" rx="0.940892" fill="#858585"/>
<rect x="386.523" y="99.6741" width="1.88178" height="30" rx="0.940892" fill="#858585"/>
<rect x="436.82" y="99.6741" width="1.88178" height="30" rx="0.940892" fill="#858585"/>
<rect x="487.116" y="99.6741" width="1.88178" height="30" rx="0.940892" fill="#858585"/>
<path d="M3.00702 115.1C2.17594 114.762 2.17594 113.586 3.00702 113.248L15.325 108.239C15.9826 107.971 16.7017 108.455 16.7017 109.165V119.183C16.7017 119.893 15.9826 120.377 15.325 120.109L3.00702 115.1Z" fill="#858585"/>
<path d="M518.451 113.248C519.282 113.586 519.282 114.762 518.451 115.1L506.133 120.109C505.475 120.377 504.756 119.893 504.756 119.183V109.165C504.756 108.455 505.475 107.971 506.133 108.239L518.451 113.248Z" fill="#858585"/>
<path d="M16.7017 112.674H504.756V115.674H16.7017V112.674Z" fill="#858585"/>
<path d="M39.5637 150.66H33.2668V149.472H35.6887V141.675H33.2668V140.613C33.595 140.613 33.9465 140.587 34.3215 140.535C34.6965 140.477 34.9804 140.397 35.1731 140.292C35.4127 140.162 35.6002 139.998 35.7356 139.8C35.8762 139.597 35.9569 139.326 35.9778 138.988H37.1887V149.472H39.5637V150.66Z" fill="#202020"/>
<path d="M89.6318 150.66H81.7568V149.027C82.3037 148.558 82.8506 148.089 83.3975 147.621C83.9495 147.152 84.4626 146.686 84.9365 146.222C85.9365 145.253 86.6214 144.485 86.9912 143.917C87.361 143.345 87.5459 142.727 87.5459 142.066C87.5459 141.462 87.3454 140.99 86.9443 140.652C86.5485 140.308 85.9938 140.136 85.2803 140.136C84.8063 140.136 84.2933 140.22 83.7412 140.386C83.1891 140.553 82.6501 140.808 82.124 141.152H82.0459V139.511C82.4157 139.329 82.9079 139.162 83.5225 139.011C84.1423 138.86 84.7412 138.785 85.3193 138.785C86.512 138.785 87.4469 139.074 88.124 139.652C88.8011 140.225 89.1396 141.003 89.1396 141.988C89.1396 142.431 89.0824 142.845 88.9678 143.23C88.8584 143.61 88.6943 143.972 88.4756 144.316C88.2725 144.639 88.0329 144.957 87.7568 145.269C87.486 145.582 87.1553 145.928 86.7646 146.308C86.2074 146.855 85.6318 147.386 85.0381 147.902C84.4443 148.412 83.8896 148.886 83.374 149.324H89.6318V150.66Z" fill="#202020"/>
<path d="M138.034 145.058C138.284 145.282 138.49 145.563 138.651 145.902C138.813 146.24 138.894 146.678 138.894 147.214C138.894 147.746 138.797 148.233 138.604 148.675C138.412 149.118 138.141 149.503 137.792 149.832C137.401 150.196 136.94 150.467 136.409 150.644C135.883 150.816 135.305 150.902 134.675 150.902C134.029 150.902 133.394 150.824 132.769 150.667C132.144 150.516 131.631 150.35 131.229 150.167V148.535H131.347C131.789 148.826 132.31 149.069 132.909 149.261C133.508 149.454 134.086 149.55 134.644 149.55C134.972 149.55 135.321 149.496 135.69 149.386C136.06 149.277 136.36 149.115 136.589 148.902C136.828 148.673 137.006 148.42 137.12 148.144C137.24 147.868 137.3 147.519 137.3 147.097C137.3 146.681 137.232 146.337 137.097 146.066C136.966 145.79 136.784 145.574 136.55 145.417C136.315 145.256 136.032 145.147 135.698 145.089C135.365 145.027 135.006 144.996 134.62 144.996H133.917V143.699H134.464C135.256 143.699 135.886 143.535 136.354 143.207C136.828 142.873 137.065 142.389 137.065 141.753C137.065 141.472 137.006 141.227 136.886 141.019C136.766 140.806 136.599 140.631 136.386 140.496C136.162 140.36 135.922 140.266 135.667 140.214C135.412 140.162 135.123 140.136 134.8 140.136C134.305 140.136 133.779 140.225 133.222 140.402C132.664 140.579 132.138 140.829 131.644 141.152H131.565V139.519C131.935 139.337 132.427 139.17 133.042 139.019C133.662 138.863 134.261 138.785 134.839 138.785C135.407 138.785 135.907 138.837 136.339 138.941C136.771 139.045 137.162 139.212 137.511 139.441C137.886 139.691 138.17 139.993 138.362 140.347C138.555 140.701 138.651 141.115 138.651 141.589C138.651 142.235 138.422 142.8 137.964 143.285C137.511 143.764 136.974 144.066 136.354 144.191V144.3C136.604 144.342 136.891 144.431 137.214 144.566C137.537 144.696 137.81 144.86 138.034 145.058Z" fill="#202020"/>
<path d="M190.106 147.386H188.38V150.66H186.88V147.386H181.31V145.589L186.942 139.027H188.38V146.136H190.106V147.386ZM186.88 146.136V140.886L182.372 146.136H186.88Z" fill="#202020"/>
<path d="M239.84 146.964C239.84 147.506 239.741 148.024 239.543 148.519C239.345 149.014 239.074 149.431 238.731 149.769C238.356 150.134 237.908 150.415 237.387 150.613C236.871 150.806 236.272 150.902 235.59 150.902C234.955 150.902 234.343 150.834 233.754 150.699C233.166 150.569 232.668 150.41 232.262 150.222V148.574H232.371C232.798 148.845 233.298 149.076 233.871 149.269C234.444 149.457 235.007 149.55 235.559 149.55C235.929 149.55 236.285 149.498 236.629 149.394C236.978 149.29 237.288 149.108 237.559 148.847C237.788 148.623 237.96 148.355 238.074 148.042C238.194 147.73 238.254 147.368 238.254 146.957C238.254 146.556 238.184 146.217 238.043 145.941C237.908 145.665 237.718 145.444 237.473 145.277C237.202 145.079 236.871 144.941 236.481 144.863C236.095 144.779 235.663 144.738 235.184 144.738C234.726 144.738 234.283 144.769 233.856 144.832C233.434 144.894 233.069 144.957 232.762 145.019V139.027H239.762V140.394H234.27V143.488C234.494 143.467 234.723 143.451 234.957 143.441C235.192 143.431 235.395 143.425 235.567 143.425C236.197 143.425 236.749 143.48 237.223 143.589C237.697 143.694 238.132 143.881 238.528 144.152C238.944 144.438 239.267 144.808 239.496 145.261C239.726 145.714 239.84 146.282 239.84 146.964Z" fill="#202020"/>
<path d="M291.09 146.886C291.09 148.069 290.699 149.035 289.918 149.785C289.142 150.529 288.189 150.902 287.059 150.902C286.486 150.902 285.965 150.813 285.496 150.636C285.028 150.459 284.614 150.196 284.254 149.847C283.806 149.415 283.46 148.842 283.215 148.128C282.976 147.415 282.856 146.556 282.856 145.55C282.856 144.519 282.965 143.605 283.184 142.808C283.408 142.011 283.762 141.303 284.246 140.683C284.705 140.095 285.296 139.636 286.02 139.308C286.744 138.975 287.587 138.808 288.551 138.808C288.858 138.808 289.116 138.821 289.324 138.847C289.533 138.873 289.744 138.92 289.957 138.988V140.48H289.879C289.733 140.402 289.512 140.329 289.215 140.261C288.923 140.188 288.624 140.152 288.317 140.152C287.197 140.152 286.304 140.503 285.637 141.207C284.97 141.904 284.582 142.85 284.473 144.042C284.91 143.777 285.34 143.576 285.762 143.441C286.189 143.3 286.681 143.23 287.239 143.23C287.733 143.23 288.168 143.277 288.543 143.371C288.923 143.459 289.311 143.641 289.707 143.917C290.166 144.235 290.509 144.636 290.739 145.121C290.973 145.605 291.09 146.194 291.09 146.886ZM289.504 146.949C289.504 146.464 289.431 146.063 289.285 145.746C289.145 145.428 288.91 145.152 288.582 144.917C288.343 144.751 288.077 144.641 287.785 144.589C287.494 144.537 287.189 144.511 286.871 144.511C286.429 144.511 286.017 144.563 285.637 144.667C285.257 144.772 284.866 144.933 284.465 145.152C284.455 145.266 284.447 145.378 284.442 145.488C284.436 145.592 284.434 145.725 284.434 145.886C284.434 146.709 284.517 147.36 284.684 147.839C284.856 148.313 285.09 148.688 285.387 148.964C285.627 149.194 285.884 149.363 286.16 149.472C286.442 149.576 286.746 149.628 287.074 149.628C287.83 149.628 288.423 149.399 288.856 148.941C289.288 148.477 289.504 147.813 289.504 146.949Z" fill="#202020"/>
<path d="M342.08 140.769L336.814 150.66H335.142L340.744 140.394H334.119V139.027H342.08V140.769Z" fill="#202020"/>
<path d="M391.597 147.417C391.597 148.423 391.204 149.259 390.417 149.925C389.636 150.592 388.652 150.925 387.464 150.925C386.204 150.925 385.198 150.6 384.448 149.949C383.704 149.298 383.331 148.464 383.331 147.449C383.331 146.803 383.519 146.22 383.894 145.699C384.269 145.173 384.797 144.756 385.48 144.449V144.402C384.855 144.069 384.391 143.704 384.089 143.308C383.792 142.912 383.644 142.417 383.644 141.824C383.644 140.949 384.003 140.22 384.722 139.636C385.441 139.053 386.355 138.761 387.464 138.761C388.626 138.761 389.553 139.04 390.245 139.597C390.938 140.154 391.284 140.863 391.284 141.722C391.284 142.248 391.12 142.766 390.792 143.277C390.464 143.782 389.982 144.178 389.347 144.464V144.511C390.076 144.824 390.633 145.209 391.019 145.667C391.404 146.126 391.597 146.709 391.597 147.417ZM389.745 141.738C389.745 141.181 389.529 140.738 389.097 140.41C388.67 140.076 388.123 139.91 387.456 139.91C386.8 139.91 386.261 140.066 385.839 140.378C385.422 140.691 385.214 141.113 385.214 141.644C385.214 142.019 385.318 142.345 385.527 142.621C385.74 142.891 386.06 143.134 386.488 143.347C386.68 143.441 386.956 143.563 387.316 143.714C387.68 143.865 388.034 143.99 388.378 144.089C388.894 143.746 389.251 143.389 389.448 143.019C389.646 142.649 389.745 142.222 389.745 141.738ZM389.988 147.566C389.988 147.087 389.881 146.704 389.667 146.417C389.459 146.126 389.047 145.834 388.433 145.542C388.188 145.428 387.92 145.321 387.628 145.222C387.337 145.123 386.948 144.985 386.464 144.808C385.995 145.063 385.618 145.41 385.331 145.847C385.05 146.285 384.909 146.779 384.909 147.332C384.909 148.035 385.152 148.615 385.636 149.074C386.12 149.532 386.735 149.761 387.48 149.761C388.24 149.761 388.847 149.566 389.3 149.175C389.758 148.785 389.988 148.248 389.988 147.566Z" fill="#202020"/>
<path d="M441.792 144.144C441.792 145.16 441.675 146.082 441.44 146.91C441.211 147.738 440.862 148.444 440.393 149.027C439.919 149.621 439.326 150.079 438.612 150.402C437.899 150.725 437.06 150.886 436.096 150.886C435.826 150.886 435.57 150.871 435.331 150.839C435.091 150.813 434.878 150.769 434.69 150.707V149.214H434.768C434.919 149.292 435.133 149.368 435.409 149.441C435.685 149.509 435.992 149.542 436.331 149.542C437.482 149.542 438.383 149.199 439.034 148.511C439.69 147.819 440.07 146.865 440.175 145.652C439.69 145.944 439.234 146.152 438.807 146.277C438.38 146.402 437.914 146.464 437.409 146.464C436.93 146.464 436.495 146.417 436.104 146.324C435.719 146.23 435.331 146.048 434.94 145.777C434.482 145.459 434.135 145.056 433.901 144.566C433.672 144.076 433.557 143.49 433.557 142.808C433.557 141.621 433.948 140.654 434.729 139.91C435.51 139.165 436.464 138.792 437.589 138.792C438.151 138.792 438.672 138.881 439.151 139.058C439.63 139.23 440.05 139.49 440.409 139.839C440.852 140.272 441.193 140.829 441.432 141.511C441.672 142.188 441.792 143.066 441.792 144.144ZM440.214 143.808C440.214 143.001 440.13 142.352 439.964 141.863C439.797 141.373 439.568 140.993 439.276 140.722C439.031 140.488 438.768 140.321 438.487 140.222C438.206 140.118 437.901 140.066 437.573 140.066C436.823 140.066 436.229 140.3 435.792 140.769C435.359 141.238 435.143 141.897 435.143 142.746C435.143 143.24 435.214 143.644 435.354 143.957C435.495 144.269 435.732 144.542 436.065 144.777C436.3 144.938 436.557 145.048 436.839 145.105C437.12 145.157 437.432 145.183 437.776 145.183C438.182 145.183 438.594 145.128 439.01 145.019C439.427 144.91 439.818 144.751 440.182 144.542C440.188 144.433 440.193 144.326 440.198 144.222C440.208 144.113 440.214 143.975 440.214 143.808Z" fill="#202020"/>
<path d="M485.413 150.66H479.116V149.472H481.538V141.675H479.116V140.613C479.444 140.613 479.795 140.587 480.17 140.535C480.545 140.477 480.829 140.397 481.022 140.292C481.262 140.162 481.449 139.998 481.584 139.8C481.725 139.597 481.806 139.326 481.827 138.988H483.038V149.472H485.413V150.66ZM496.233 144.839C496.233 146.928 495.905 148.462 495.249 149.441C494.597 150.415 493.584 150.902 492.209 150.902C490.814 150.902 489.793 150.407 489.147 149.417C488.506 148.428 488.186 146.907 488.186 144.855C488.186 142.787 488.512 141.261 489.163 140.277C489.814 139.287 490.829 138.792 492.209 138.792C493.605 138.792 494.624 139.295 495.264 140.3C495.91 141.3 496.233 142.813 496.233 144.839ZM494.178 148.386C494.361 147.964 494.483 147.47 494.545 146.902C494.613 146.329 494.647 145.641 494.647 144.839C494.647 144.048 494.613 143.36 494.545 142.777C494.483 142.194 494.358 141.699 494.17 141.292C493.988 140.891 493.738 140.589 493.42 140.386C493.108 140.183 492.704 140.082 492.209 140.082C491.72 140.082 491.314 140.183 490.991 140.386C490.673 140.589 490.42 140.897 490.233 141.308C490.056 141.694 489.933 142.196 489.866 142.816C489.803 143.436 489.772 144.115 489.772 144.855C489.772 145.667 489.801 146.347 489.858 146.894C489.915 147.441 490.038 147.931 490.225 148.363C490.397 148.769 490.639 149.079 490.952 149.292C491.269 149.506 491.689 149.613 492.209 149.613C492.699 149.613 493.105 149.511 493.428 149.308C493.751 149.105 494.001 148.798 494.178 148.386Z" fill="#202020"/>
<rect x="135.902" y="51.3136" width="99.5851" height="27.1453" fill="#A5E8BD"/>
<rect x="136.949" y="50.644" width="99.5644" height="28.3999" stroke="#0FA646" stroke-width="2"/>
<line x1="187.18" y1="49.644" x2="187.18" y2="79.644" stroke="#0FA646" stroke-width="2"/>
<line x1="135.998" y1="65.0439" x2="34.4491" y2="65.0439" stroke="#0FA646" stroke-width="2"/>
<line x1="385.166" y1="66.0439" x2="235.487" y2="66.0439" stroke="#0FA646" stroke-width="2"/>
<path d="M385.633 56.644L385.633 74.644" stroke="#0FA646" stroke-width="2" stroke-linecap="round"/>
<line x1="35.4492" y1="56.644" x2="35.4492" y2="74.644" stroke="#0FA646" stroke-width="2" stroke-linecap="round"/>
<path d="M142.616 13.1112C142.616 13.6737 142.501 14.1763 142.272 14.619C142.048 15.0617 141.738 15.4289 141.342 15.7206C140.884 16.0643 140.379 16.3091 139.827 16.455C139.28 16.6008 138.584 16.6737 137.741 16.6737H132.663V5.04089H137.178C138.116 5.04089 138.801 5.07214 139.233 5.13464C139.67 5.19714 140.103 5.33516 140.53 5.54871C140.972 5.77266 141.301 6.07475 141.514 6.45496C141.733 6.82996 141.842 7.25964 141.842 7.74402C141.842 8.30652 141.694 8.80391 141.397 9.23621C141.1 9.66329 140.681 9.99662 140.139 10.2362V10.2987C140.9 10.4497 141.501 10.7622 141.944 11.2362C142.392 11.7102 142.616 12.3352 142.616 13.1112ZM138.772 8.32996C138.772 8.13725 138.722 7.94454 138.624 7.75183C138.53 7.55912 138.361 7.41589 138.116 7.32214C137.897 7.23881 137.624 7.19454 137.295 7.18933C136.972 7.17891 136.517 7.17371 135.928 7.17371H135.647V9.63464H136.116C136.59 9.63464 136.993 9.62683 137.327 9.61121C137.66 9.59558 137.923 9.5435 138.116 9.45496C138.387 9.33516 138.564 9.18152 138.647 8.99402C138.73 8.80131 138.772 8.57996 138.772 8.32996ZM139.506 13.0643C139.506 12.6945 139.433 12.4107 139.288 12.2128C139.147 12.0096 138.905 11.8586 138.561 11.7596C138.327 11.6919 138.004 11.6555 137.592 11.6503C137.181 11.6451 136.751 11.6425 136.303 11.6425H135.647V14.5409H135.866C136.709 14.5409 137.314 14.5383 137.678 14.5331C138.043 14.5279 138.379 14.4602 138.686 14.33C138.999 14.1997 139.212 14.0279 139.327 13.8143C139.446 13.5956 139.506 13.3456 139.506 13.0643ZM147.506 16.6737H144.694V4.51746H147.506V16.6737ZM158.905 16.6737H156.092V15.705C155.571 16.1008 155.095 16.4029 154.663 16.6112C154.23 16.8143 153.715 16.9159 153.116 16.9159C152.147 16.9159 151.4 16.6372 150.874 16.08C150.353 15.5227 150.092 14.6997 150.092 13.6112V7.90027H152.92V12.2518C152.92 12.6945 152.933 13.0643 152.959 13.3612C152.991 13.6529 153.058 13.8951 153.163 14.0878C153.262 14.2805 153.41 14.4211 153.608 14.5096C153.811 14.5982 154.092 14.6425 154.452 14.6425C154.691 14.6425 154.957 14.5982 155.249 14.5096C155.54 14.4211 155.821 14.2909 156.092 14.119V7.90027H158.905V16.6737ZM170.209 12.8065H163.772C163.814 13.494 164.074 14.0201 164.553 14.3846C165.038 14.7492 165.749 14.9315 166.686 14.9315C167.28 14.9315 167.855 14.8247 168.413 14.6112C168.97 14.3977 169.41 14.1685 169.733 13.9237H170.045V16.1815C169.41 16.4367 168.811 16.6216 168.249 16.7362C167.686 16.8508 167.064 16.9081 166.381 16.9081C164.621 16.9081 163.272 16.5122 162.334 15.7206C161.397 14.9289 160.928 13.8013 160.928 12.3378C160.928 10.8899 161.371 9.74402 162.256 8.90027C163.147 8.05131 164.366 7.62683 165.913 7.62683C167.34 7.62683 168.413 7.98881 169.131 8.71277C169.85 9.43152 170.209 10.468 170.209 11.8221V12.8065ZM167.413 11.1581C167.397 10.5695 167.251 10.1268 166.975 9.82996C166.699 9.53308 166.269 9.38464 165.686 9.38464C165.144 9.38464 164.699 9.52527 164.35 9.80652C164.001 10.0878 163.806 10.5383 163.764 11.1581H167.413ZM181.35 12.1659C181.35 13.5461 180.967 14.6711 180.202 15.5409C179.441 16.4107 178.491 16.8456 177.35 16.8456C176.861 16.8456 176.431 16.7935 176.061 16.6893C175.691 16.5852 175.34 16.4341 175.006 16.2362L174.889 16.6737H172.194V4.51746H175.006V8.81433C175.439 8.47058 175.879 8.19194 176.327 7.97839C176.78 7.76485 177.301 7.65808 177.889 7.65808C178.999 7.65808 179.853 8.05912 180.452 8.86121C181.051 9.65808 181.35 10.7596 181.35 12.1659ZM178.452 12.2206C178.452 11.4393 178.319 10.8378 178.053 10.4159C177.788 9.99402 177.314 9.78308 176.631 9.78308C176.366 9.78308 176.092 9.82475 175.811 9.90808C175.53 9.98621 175.262 10.1008 175.006 10.2518V14.6581C175.209 14.731 175.402 14.7805 175.584 14.8065C175.767 14.8326 175.986 14.8456 176.241 14.8456C176.986 14.8456 177.54 14.6268 177.905 14.1893C178.269 13.7518 178.452 13.0956 178.452 12.2206ZM192.022 12.8065H185.584C185.626 13.494 185.887 14.0201 186.366 14.3846C186.85 14.7492 187.561 14.9315 188.499 14.9315C189.092 14.9315 189.668 14.8247 190.225 14.6112C190.782 14.3977 191.222 14.1685 191.545 13.9237H191.858V16.1815C191.222 16.4367 190.624 16.6216 190.061 16.7362C189.499 16.8508 188.876 16.9081 188.194 16.9081C186.433 16.9081 185.084 16.5122 184.147 15.7206C183.209 14.9289 182.741 13.8013 182.741 12.3378C182.741 10.8899 183.183 9.74402 184.069 8.90027C184.959 8.05131 186.178 7.62683 187.725 7.62683C189.152 7.62683 190.225 7.98881 190.944 8.71277C191.663 9.43152 192.022 10.468 192.022 11.8221V12.8065ZM189.225 11.1581C189.209 10.5695 189.064 10.1268 188.788 9.82996C188.512 9.53308 188.082 9.38464 187.499 9.38464C186.957 9.38464 186.512 9.52527 186.163 9.80652C185.814 10.0878 185.618 10.5383 185.577 11.1581H189.225ZM200.366 10.58H200.116C199.996 10.5383 199.803 10.507 199.538 10.4862C199.272 10.4654 199.051 10.455 198.874 10.455C198.472 10.455 198.118 10.481 197.811 10.5331C197.504 10.5852 197.173 10.6737 196.819 10.7987V16.6737H194.006V7.90027H196.819V9.18933C197.439 8.65808 197.978 8.30652 198.436 8.13464C198.894 7.95756 199.316 7.86902 199.702 7.86902C199.801 7.86902 199.913 7.87162 200.038 7.87683C200.163 7.88204 200.272 7.88985 200.366 7.90027V10.58ZM208.319 10.58H208.069C207.949 10.5383 207.756 10.507 207.491 10.4862C207.225 10.4654 207.004 10.455 206.827 10.455C206.426 10.455 206.071 10.481 205.764 10.5331C205.457 10.5852 205.126 10.6737 204.772 10.7987V16.6737H201.959V7.90027H204.772V9.18933C205.392 8.65808 205.931 8.30652 206.389 8.13464C206.847 7.95756 207.269 7.86902 207.655 7.86902C207.754 7.86902 207.866 7.87162 207.991 7.87683C208.116 7.88204 208.225 7.88985 208.319 7.90027V10.58ZM213.874 13.5721L215.874 7.90027H218.764L213.889 19.8925H210.842L212.233 16.6112L208.819 7.90027H211.772L213.874 13.5721ZM234.959 12.1659C234.959 12.8899 234.847 13.5487 234.624 14.1425C234.405 14.7362 234.116 15.2258 233.756 15.6112C233.381 16.0175 232.957 16.3247 232.483 16.5331C232.009 16.7414 231.501 16.8456 230.959 16.8456C230.459 16.8456 230.035 16.7909 229.686 16.6815C229.337 16.5774 228.98 16.4289 228.616 16.2362V19.8925H225.803V7.90027H228.616V8.81433C229.048 8.47058 229.488 8.19194 229.936 7.97839C230.389 7.76485 230.91 7.65808 231.499 7.65808C232.592 7.65808 233.441 8.05912 234.045 8.86121C234.655 9.66329 234.959 10.7649 234.959 12.1659ZM232.061 12.2206C232.061 11.3664 231.915 10.7466 231.624 10.3612C231.332 9.97579 230.871 9.78308 230.241 9.78308C229.975 9.78308 229.702 9.82475 229.42 9.90808C229.139 9.98621 228.871 10.1008 228.616 10.2518V14.6659C228.803 14.7388 229.004 14.7857 229.217 14.8065C229.431 14.8274 229.642 14.8378 229.85 14.8378C230.595 14.8378 231.15 14.6216 231.514 14.1893C231.879 13.7518 232.061 13.0956 232.061 12.2206ZM239.803 16.6737H236.991V7.90027H239.803V16.6737ZM239.881 6.65027H236.913V4.51746H239.881V6.65027ZM251.1 12.8065H244.663C244.704 13.494 244.965 14.0201 245.444 14.3846C245.928 14.7492 246.639 14.9315 247.577 14.9315C248.17 14.9315 248.746 14.8247 249.303 14.6112C249.861 14.3977 250.301 14.1685 250.624 13.9237H250.936V16.1815C250.301 16.4367 249.702 16.6216 249.139 16.7362C248.577 16.8508 247.954 16.9081 247.272 16.9081C245.512 16.9081 244.163 16.5122 243.225 15.7206C242.288 14.9289 241.819 13.8013 241.819 12.3378C241.819 10.8899 242.262 9.74402 243.147 8.90027C244.038 8.05131 245.256 7.62683 246.803 7.62683C248.23 7.62683 249.303 7.98881 250.022 8.71277C250.741 9.43152 251.1 10.468 251.1 11.8221V12.8065ZM248.303 11.1581C248.288 10.5695 248.142 10.1268 247.866 9.82996C247.59 9.53308 247.16 9.38464 246.577 9.38464C246.035 9.38464 245.59 9.52527 245.241 9.80652C244.892 10.0878 244.696 10.5383 244.655 11.1581H248.303ZM260.709 13.8925C260.709 14.7987 260.303 15.5305 259.491 16.0878C258.678 16.6399 257.566 16.9159 256.155 16.9159C255.374 16.9159 254.665 16.843 254.03 16.6971C253.394 16.5513 252.884 16.3899 252.499 16.2128V13.9003H252.756C252.897 13.9992 253.058 14.1086 253.241 14.2284C253.428 14.343 253.691 14.468 254.03 14.6034C254.321 14.7232 254.652 14.8274 255.022 14.9159C255.392 14.9992 255.788 15.0409 256.209 15.0409C256.762 15.0409 257.17 14.981 257.436 14.8612C257.702 14.7362 257.834 14.5539 257.834 14.3143C257.834 14.1008 257.756 13.9471 257.6 13.8534C257.444 13.7544 257.147 13.6607 256.709 13.5721C256.501 13.5253 256.217 13.4758 255.858 13.4237C255.504 13.3664 255.181 13.2987 254.889 13.2206C254.092 13.0122 253.501 12.6893 253.116 12.2518C252.73 11.8091 252.538 11.2596 252.538 10.6034C252.538 9.75964 252.936 9.05912 253.733 8.50183C254.535 7.93933 255.629 7.65808 257.014 7.65808C257.67 7.65808 258.298 7.72579 258.897 7.86121C259.501 7.99141 259.972 8.13204 260.311 8.28308V10.5018H260.069C259.652 10.2154 259.176 9.9836 258.639 9.80652C258.108 9.62423 257.569 9.53308 257.022 9.53308C256.569 9.53308 256.186 9.59558 255.874 9.72058C255.566 9.84558 255.413 10.0227 255.413 10.2518C255.413 10.4602 255.483 10.619 255.624 10.7284C255.764 10.8378 256.095 10.9471 256.616 11.0565C256.902 11.1138 257.209 11.1711 257.538 11.2284C257.871 11.2805 258.204 11.3482 258.538 11.4315C259.277 11.6242 259.824 11.9289 260.178 12.3456C260.532 12.757 260.709 13.2727 260.709 13.8925ZM275.678 13.8925C275.678 14.7987 275.272 15.5305 274.459 16.0878C273.647 16.6399 272.535 16.9159 271.124 16.9159C270.342 16.9159 269.634 16.843 268.999 16.6971C268.363 16.5513 267.853 16.3899 267.467 16.2128V13.9003H267.725C267.866 13.9992 268.027 14.1086 268.209 14.2284C268.397 14.343 268.66 14.468 268.999 14.6034C269.29 14.7232 269.621 14.8274 269.991 14.9159C270.361 14.9992 270.756 15.0409 271.178 15.0409C271.73 15.0409 272.139 14.981 272.405 14.8612C272.67 14.7362 272.803 14.5539 272.803 14.3143C272.803 14.1008 272.725 13.9471 272.569 13.8534C272.413 13.7544 272.116 13.6607 271.678 13.5721C271.47 13.5253 271.186 13.4758 270.827 13.4237C270.472 13.3664 270.15 13.2987 269.858 13.2206C269.061 13.0122 268.47 12.6893 268.084 12.2518C267.699 11.8091 267.506 11.2596 267.506 10.6034C267.506 9.75964 267.905 9.05912 268.702 8.50183C269.504 7.93933 270.597 7.65808 271.983 7.65808C272.639 7.65808 273.267 7.72579 273.866 7.86121C274.47 7.99141 274.941 8.13204 275.28 8.28308V10.5018H275.038C274.621 10.2154 274.144 9.9836 273.608 9.80652C273.077 9.62423 272.538 9.53308 271.991 9.53308C271.538 9.53308 271.155 9.59558 270.842 9.72058C270.535 9.84558 270.381 10.0227 270.381 10.2518C270.381 10.4602 270.452 10.619 270.592 10.7284C270.733 10.8378 271.064 10.9471 271.584 11.0565C271.871 11.1138 272.178 11.1711 272.506 11.2284C272.84 11.2805 273.173 11.3482 273.506 11.4315C274.246 11.6242 274.793 11.9289 275.147 12.3456C275.501 12.757 275.678 13.2727 275.678 13.8925ZM286.522 12.2909C286.522 13.7336 286.1 14.8716 285.256 15.705C284.418 16.5331 283.238 16.9471 281.717 16.9471C280.196 16.9471 279.014 16.5331 278.17 15.705C277.332 14.8716 276.913 13.7336 276.913 12.2909C276.913 10.8378 277.334 9.69714 278.178 8.86902C279.027 8.04089 280.207 7.62683 281.717 7.62683C283.249 7.62683 284.431 8.0435 285.264 8.87683C286.103 9.71016 286.522 10.8482 286.522 12.2909ZM283.061 14.4237C283.243 14.1997 283.379 13.9315 283.467 13.619C283.561 13.3013 283.608 12.8638 283.608 12.3065C283.608 11.7909 283.561 11.3586 283.467 11.0096C283.374 10.6607 283.243 10.382 283.077 10.1737C282.91 9.96016 282.709 9.80912 282.475 9.72058C282.241 9.63204 281.988 9.58777 281.717 9.58777C281.446 9.58777 281.204 9.62423 280.991 9.69714C280.782 9.77006 280.582 9.91589 280.389 10.1346C280.217 10.3378 280.079 10.6164 279.975 10.9706C279.876 11.3247 279.827 11.7701 279.827 12.3065C279.827 12.7857 279.871 13.2024 279.959 13.5565C280.048 13.9055 280.178 14.1867 280.35 14.4003C280.517 14.6034 280.715 14.7518 280.944 14.8456C281.178 14.9393 281.444 14.9862 281.741 14.9862C281.996 14.9862 282.238 14.9445 282.467 14.8612C282.702 14.7727 282.9 14.6268 283.061 14.4237ZM291.35 16.6737H288.538V4.51746H291.35V16.6737ZM302.538 16.6737H299.725V15.7596C299.241 16.1555 298.788 16.4471 298.366 16.6346C297.944 16.8221 297.457 16.9159 296.905 16.9159C295.837 16.9159 294.983 16.5044 294.342 15.6815C293.702 14.8586 293.381 13.7492 293.381 12.3534C293.381 11.6086 293.488 10.9497 293.702 10.3768C293.92 9.79871 294.217 9.30391 294.592 8.89246C294.946 8.50183 295.376 8.19975 295.881 7.98621C296.387 7.76746 296.892 7.65808 297.397 7.65808C297.923 7.65808 298.353 7.71537 298.686 7.82996C299.025 7.93933 299.371 8.07996 299.725 8.25183V4.51746H302.538V16.6737ZM299.725 14.2518V9.94714C299.527 9.86381 299.319 9.80391 299.1 9.76746C298.881 9.731 298.681 9.71277 298.499 9.71277C297.759 9.71277 297.204 9.94454 296.834 10.4081C296.465 10.8664 296.28 11.5044 296.28 12.3221C296.28 13.1815 296.428 13.8065 296.725 14.1971C297.022 14.5826 297.499 14.7753 298.155 14.7753C298.41 14.7753 298.681 14.7284 298.967 14.6346C299.254 14.5357 299.506 14.4081 299.725 14.2518ZM319.303 12.8065H312.866C312.907 13.494 313.168 14.0201 313.647 14.3846C314.131 14.7492 314.842 14.9315 315.78 14.9315C316.374 14.9315 316.949 14.8247 317.506 14.6112C318.064 14.3977 318.504 14.1685 318.827 13.9237H319.139V16.1815C318.504 16.4367 317.905 16.6216 317.342 16.7362C316.78 16.8508 316.157 16.9081 315.475 16.9081C313.715 16.9081 312.366 16.5122 311.428 15.7206C310.491 14.9289 310.022 13.8013 310.022 12.3378C310.022 10.8899 310.465 9.74402 311.35 8.90027C312.241 8.05131 313.459 7.62683 315.006 7.62683C316.433 7.62683 317.506 7.98881 318.225 8.71277C318.944 9.43152 319.303 10.468 319.303 11.8221V12.8065ZM316.506 11.1581C316.491 10.5695 316.345 10.1268 316.069 9.82996C315.793 9.53308 315.363 9.38464 314.78 9.38464C314.238 9.38464 313.793 9.52527 313.444 9.80652C313.095 10.0878 312.9 10.5383 312.858 11.1581H316.506ZM326.6 14.3846V12.5565C326.22 12.5878 325.808 12.632 325.366 12.6893C324.923 12.7414 324.587 12.8039 324.358 12.8768C324.077 12.9654 323.861 13.0956 323.709 13.2675C323.564 13.4341 323.491 13.6555 323.491 13.9315C323.491 14.1138 323.506 14.2622 323.538 14.3768C323.569 14.4914 323.647 14.6008 323.772 14.705C323.892 14.8091 324.035 14.8872 324.202 14.9393C324.368 14.9862 324.629 15.0096 324.983 15.0096C325.264 15.0096 325.548 14.9524 325.834 14.8378C326.126 14.7232 326.381 14.5721 326.6 14.3846ZM326.6 15.744C326.449 15.8586 326.262 15.9966 326.038 16.1581C325.814 16.3195 325.603 16.4471 325.405 16.5409C325.129 16.6659 324.842 16.757 324.545 16.8143C324.249 16.8768 323.923 16.9081 323.569 16.9081C322.736 16.9081 322.038 16.6503 321.475 16.1346C320.913 15.619 320.631 14.9602 320.631 14.1581C320.631 13.5175 320.775 12.994 321.061 12.5878C321.347 12.1815 321.754 11.8612 322.28 11.6268C322.801 11.3925 323.446 11.2258 324.217 11.1268C324.988 11.0279 325.788 10.955 326.616 10.9081V10.8612C326.616 10.3768 326.418 10.0435 326.022 9.86121C325.626 9.67371 325.043 9.57996 324.272 9.57996C323.808 9.57996 323.314 9.66329 322.788 9.82996C322.262 9.99141 321.884 10.1164 321.655 10.205H321.397V8.08777C321.694 8.00964 322.176 7.9185 322.842 7.81433C323.514 7.70496 324.186 7.65027 324.858 7.65027C326.457 7.65027 327.611 7.89766 328.319 8.39246C329.032 8.88204 329.389 9.65287 329.389 10.705V16.6737H326.6V15.744ZM336.545 16.9081C335.78 16.9081 335.079 16.8169 334.444 16.6346C333.814 16.4524 333.264 16.1711 332.795 15.7909C332.332 15.4107 331.972 14.9315 331.717 14.3534C331.462 13.7753 331.334 13.0982 331.334 12.3221C331.334 11.5044 331.47 10.7987 331.741 10.205C332.017 9.61121 332.4 9.11902 332.889 8.72839C333.363 8.3586 333.91 8.08777 334.53 7.91589C335.15 7.74402 335.793 7.65808 336.459 7.65808C337.058 7.65808 337.611 7.72319 338.116 7.85339C338.621 7.9836 339.092 8.15287 339.53 8.36121V10.7596H339.131C339.022 10.6659 338.889 10.5565 338.733 10.4315C338.582 10.3065 338.394 10.1841 338.17 10.0643C337.957 9.94975 337.722 9.856 337.467 9.78308C337.212 9.70496 336.915 9.66589 336.577 9.66589C335.827 9.66589 335.249 9.90548 334.842 10.3846C334.441 10.8586 334.241 11.5044 334.241 12.3221C334.241 13.1659 334.446 13.8065 334.858 14.244C335.275 14.6815 335.863 14.9003 336.624 14.9003C336.978 14.9003 337.295 14.8612 337.577 14.7831C337.863 14.6997 338.1 14.6034 338.288 14.494C338.465 14.3899 338.621 14.2805 338.756 14.1659C338.892 14.0513 339.017 13.9393 339.131 13.83H339.53V16.2284C339.087 16.4367 338.624 16.6008 338.139 16.7206C337.66 16.8456 337.129 16.9081 336.545 16.9081ZM350.209 16.6737H347.381V12.3221C347.381 11.968 347.363 11.6164 347.327 11.2675C347.29 10.9133 347.228 10.6529 347.139 10.4862C347.035 10.2935 346.881 10.1529 346.678 10.0643C346.48 9.97579 346.202 9.93152 345.842 9.93152C345.587 9.93152 345.327 9.97319 345.061 10.0565C344.801 10.1399 344.517 10.2727 344.209 10.455V16.6737H341.397V4.51746H344.209V8.86902C344.709 8.47839 345.189 8.17891 345.647 7.97058C346.111 7.76225 346.624 7.65808 347.186 7.65808C348.134 7.65808 348.874 7.93412 349.405 8.48621C349.941 9.03829 350.209 9.86381 350.209 10.9628V16.6737ZM366.803 16.6737H363.991V15.7596C363.506 16.1555 363.053 16.4471 362.631 16.6346C362.209 16.8221 361.722 16.9159 361.17 16.9159C360.103 16.9159 359.249 16.5044 358.608 15.6815C357.967 14.8586 357.647 13.7492 357.647 12.3534C357.647 11.6086 357.754 10.9497 357.967 10.3768C358.186 9.79871 358.483 9.30391 358.858 8.89246C359.212 8.50183 359.642 8.19975 360.147 7.98621C360.652 7.76746 361.157 7.65808 361.663 7.65808C362.189 7.65808 362.618 7.71537 362.952 7.82996C363.29 7.93933 363.637 8.07996 363.991 8.25183V4.51746H366.803V16.6737ZM363.991 14.2518V9.94714C363.793 9.86381 363.584 9.80391 363.366 9.76746C363.147 9.731 362.946 9.71277 362.764 9.71277C362.025 9.71277 361.47 9.94454 361.1 10.4081C360.73 10.8664 360.545 11.5044 360.545 12.3221C360.545 13.1815 360.694 13.8065 360.991 14.1971C361.288 14.5826 361.764 14.7753 362.42 14.7753C362.676 14.7753 362.946 14.7284 363.233 14.6346C363.519 14.5357 363.772 14.4081 363.991 14.2518ZM374.772 14.3846V12.5565C374.392 12.5878 373.98 12.632 373.538 12.6893C373.095 12.7414 372.759 12.8039 372.53 12.8768C372.249 12.9654 372.032 13.0956 371.881 13.2675C371.736 13.4341 371.663 13.6555 371.663 13.9315C371.663 14.1138 371.678 14.2622 371.709 14.3768C371.741 14.4914 371.819 14.6008 371.944 14.705C372.064 14.8091 372.207 14.8872 372.374 14.9393C372.54 14.9862 372.801 15.0096 373.155 15.0096C373.436 15.0096 373.72 14.9524 374.006 14.8378C374.298 14.7232 374.553 14.5721 374.772 14.3846ZM374.772 15.744C374.621 15.8586 374.433 15.9966 374.209 16.1581C373.986 16.3195 373.775 16.4471 373.577 16.5409C373.301 16.6659 373.014 16.757 372.717 16.8143C372.42 16.8768 372.095 16.9081 371.741 16.9081C370.907 16.9081 370.209 16.6503 369.647 16.1346C369.084 15.619 368.803 14.9602 368.803 14.1581C368.803 13.5175 368.946 12.994 369.233 12.5878C369.519 12.1815 369.926 11.8612 370.452 11.6268C370.972 11.3925 371.618 11.2258 372.389 11.1268C373.16 11.0279 373.959 10.955 374.788 10.9081V10.8612C374.788 10.3768 374.59 10.0435 374.194 9.86121C373.798 9.67371 373.215 9.57996 372.444 9.57996C371.98 9.57996 371.486 9.66329 370.959 9.82996C370.433 9.99141 370.056 10.1164 369.827 10.205H369.569V8.08777C369.866 8.00964 370.347 7.9185 371.014 7.81433C371.686 7.70496 372.358 7.65027 373.03 7.65027C374.629 7.65027 375.782 7.89766 376.491 8.39246C377.204 8.88204 377.561 9.65287 377.561 10.705V16.6737H374.772V15.744ZM384.108 13.5721L386.108 7.90027H388.999L384.124 19.8925H381.077L382.467 16.6112L379.053 7.90027H382.006L384.108 13.5721Z" fill="#202020"/>
</svg>