<svg shape-rendering="geometricPrecision" display="block" width="600" height="400" style="font-family:Lucida Grande,sans-serif;user-select:none;-webkit-user-select:none;-moz-user-select:none;-ms-user-select:none;cursor:crosshair">
  <style>
    text{text-rendering:optimizeLegibility}#pcYw33h .axis-text-x,#pcYw33h .axis-text-y{fill:#474747;font-family:Lucida Grande,sans-serif;font-size:13px;font-weight:400;font-style:normal}
  </style>
  <g id="pcYw33h">
    <path fill-rule="evenodd" fill="#FFF" d="M0 0v400h600V0Z"/>
    <path stroke="#E9E9E9" fill="none" d="M163.057 26.5v321m159.423-321v321m159.424-321v321M51.461 295.717H593.5m-542.039-57.22H593.5M51.461 181.278H593.5M51.461 124.059H593.5M51.461 66.84H593.5"/>
    <g clip-path="url(#c9bOuYb)" transform="translate(29.5 26.5)">
      <path d="m128.549 303.548-.07-.358-.072-.359-.074-.358-.074-.358-.075-.358-.077-.359-.078-.358-.08-.358-.08-.359-.083-.358-.083-.358-.085-.359-.086-.358-.088-.358-.09-.359-.09-.358-.093-.358-.095-.359-.095-.358-.098-.358-.1-.359-.1-.358-.103-.358-.105-.359-.106-.358-.108-.358-.11-.359-.113-.358-.114-.358-.116-.358-.118-.359-.12-.358-.122-.358-.124-.359-.127-.358-.128-.358-.13-.359-.134-.358-.134-.358-.138-.359-.139-.358-.142-.358-.143-.359-.146-.358-.149-.358-.15-.359-.153-.358-.156-.358-.157-.359-.16-.358-.162-.358-.165-.359-.167-.358-.169-.358-.171-.358-.174-.359-.176-.358-.179-.358-.18-.359-.183-.358-.185-.358-.188-.359-.19-.358-.192-.358-.194-.359-.196-.358-.198-.358-.2-.359-.203-.358-.205-.358-.207-.359-.208-.358-.21-.358-.213-.359-.215-.358-.216-.358-.218-.359-.22-.358-.221-.358-.223-.358-.225-.359-.226-.358-.227-.358-.23-.359-.23-.358-.231-.358-.233-.359-.234-.358-.236-.358-.236-.359-.237-.358-.238-.358-.239-.359-.24-.358-.24-.358-.24-.359-.242-.358-.242-.358-.242-.359-.242-.358-.243-.358-.243-.359-.242-.358-.243-.358-.243-.358-.242-.359-.242-.358-.241-.358-.241-.359-.24-.358-.24-.358-.24-.359-.238-.358-.237-.358-.236-.359-.235-.358-.234-.358-.232-.359-.231-.358-.23-.358-.227-.359-.227-.358-.224-.358-.223-.359-.22-.358-.22-.358-.216-.359-.214-.358-.212-.358-.21-.358-.207-.359-.205-.358-.202-.358-.2-.359-.196-.358-.194-.358-.19-.359-.188-.358-.185-.358-.182-.359-.178-.358-.175-.358-.172-.359-.169-.358-.165-.358-.161-.359-.158-.358-.154-.358-.15-.359-.148-.358-.143-.358-.139-.359-.135-.358-.131-.358-.128-.358-.123-.359-.12-.358-.114-.358-.111-.359-.107-.358-.103-.358-.098-.359-.095-.358-.09-.358-.085-.359-.082-.358-.077-.358-.073-.359-.068-.358-.064-.358-.06-.359-.055-.358-.051-.358-.047-.359-.042-.358-.038-.358-.033-.359-.03-.358-.024-.358-.02-.359-.016-.358-.012-.358-.008-.358-.003-.359.001-.358.006-.358.01-.359.013-.358.018-.358.022-.359.026-.358.03-.358.035-.359.038-.358.042-.358.047-.359.05-.358.054-.358.058-.359.062-.358.065-.358.07-.359.072-.358.076-.358.08-.359.084-.358.087-.358.09-.358.094-.359.097-.358.1-.358.104-.359.107-.358.11-.358.113-.359.116-.358.119-.358.122-.359.125-.358.127-.358.13-.359.133-.358.135-.358.138-.359.14-.358.144-.358.145-.359.148-.358.15-.358.151-.359.154-.358.157-.358.158-.358.16-.359.162-.358.163-.358.166-.359.167-.358.169-.358.17-.359.172-.358.173-.358.175-.359.176-.358.177-.358.178-.359.18-.358.18-.358.181-.359.183-.358.183-.358.184-.359.185-.358.185-.358.186-.359.186-.358.187-.358.188-.358.187-.359.188-.358.188-.358.189-.359.188-.358.189-.358.188-.359.188-.358.188-.358.188-.359.188-.358.187-.358.187-.359.187-.358.186-.358.185-.359.185-.358.184-.358.184-.359.182-.358.182-.358.181-.359.18-.358.179-.358.178-.358.177-.359.175-.358.175-.358.173-.359.172-.358.17-.358.17-.359.167-.358.166-.358.165-.359.163-.358.162-.358.16-.359.158-.358.156-.358.155-.359.153-.358.15-.358.15-.359.147-.358.145-.358.144-.359.141-.358.14-.358.137-.358.135-.359.133-.358.131-.358.129-.359.127-.358.124-.358.123-.359.12-.358.118-.358.115-.359.113-.358.112-.358.108-.359.107-.358.104-.358.102-.359.1-.358.097-.358.095-.359.092-.358.09-.358.088-.359.086-.358.083-.358.081-.358.079-.359.076-.358.074-.358.072-.359.069-.358.067-.358.065-.359.063-.358.06-.358.058-.359.056-.358.054-.358.051-.359.05-.358.046-.358.046-.359.042-.358.041-.358.04-.359.036-.358.034-.358.033-.359.03-.358.03-.358.026-.358.025-.359.023-.358.022-.358.019-.359.018-.358.015-.358.014-.359.013-.358.01-.358.01-.359.007-.358.006-.358.004-.359.003-.358.001-.358v-.359l-.002-.358-.003-.358-.004-.359-.006-.358-.007-.358-.008-.359-.01-.358-.01-.358-.012-.358-.013-.359-.014-.358-.015-.358-.016-.359-.017-.358-.018-.358-.02-.359-.019-.358-.02-.358-.022-.359-.022-.358-.023-.358-.024-.359-.024-.358-.025-.358-.025-.359-.026-.358-.027-.358-.027-.359-.027-.358-.028-.358-.028-.359-.029-.358-.028-.358-.03-.358-.029-.359-.029-.358-.03-.358-.03-.359-.029-.358-.03-.358-.03-.359-.029-.358-.03-.358-.029-.359-.029-.358-.029-.358-.028-.359-.029-.358-.028-.358-.028-.359-.027-.358-.027-.358-.027-.359-.025-.358-.026-.358-.025-.359-.024-.358-.023-.358-.023-.359-.022-.358-.022-.358-.02-.358-.02-.359-.019-.358-.018-.358-.017-.359-.016-.358-.015-.358-.014-.359-.012-.358-.012-.358-.01-.359-.01-.358-.009-.358-.007-.359-.005-.358-.005-.358-.003-.359-.002-.358v-.717l.003-.358.004-.358.006-.359.007-.358.008-.358.01-.358.011-.359.014-.358.014-.358.017-.359.018-.358.02-.358.02-.359.024-.358.025-.358.026-.359.028-.358.03-.358.032-.359.034-.358.035-.358.037-.359.039-.358.04-.358.043-.359.044-.358.046-.358.048-.359.05-.358.05-.358.054-.358.054-.359.057-.358.058-.358.06-.359.062-.358.064-.358.065-.359.067-.358.07-.358.07-.359.071-.358.074-.358.075-.359.077-.358.079-.358.08-.359.08-.358.084-.358.084-.359.086-.358.087-.358.089-.359.09-.358.091-.358.093-.358h22.853l.092.358.091.358.09.358.09.359.086.358.086.358.085.359.083.358.081.358.08.359.078.358.077.358.075.359.074.358.072.358.07.359.069.358.067.358.065.359.064.358.062.358.06.359.058.358.057.358.055.359.053.358.051.358.05.358.048.359.046.358.044.358.042.359.04.358.04.358.037.359.035.358.033.358.032.359.03.358.028.358.027.359.025.358.023.358.021.359.02.358.018.358.016.359.015.358.013.358.012.359.01.358.008.358.007.358.005.359.004.358.002.358.002.359v.358l-.003.358-.003.359-.004.358-.006.358-.007.359-.008.358-.01.358-.01.359-.012.358-.013.358-.014.359-.015.358-.016.358-.017.359-.018.358-.019.358-.02.359-.02.358-.021.358-.022.358-.023.359-.024.358-.024.358-.025.359-.025.358-.026.358-.027.359-.026.358-.028.358-.028.359-.028.358-.028.358-.029.359-.029.358-.029.358-.03.359-.029.358-.03.358-.03.359-.029.358-.03.358-.029.359-.03.358-.029.358-.03.359-.028.358-.029.358-.028.358-.028.359-.028.358-.028.358-.027.359-.026.358-.026.358-.026.359-.024.358-.025.358-.023.359-.023.358-.022.358-.022.359-.02.358-.02.358-.02.359-.017.358-.017.358-.016.359-.015.358-.015.358-.012.359-.012.358-.01.358-.01.358-.009.359-.007.358-.005.358-.005.359-.003.358-.001.358v.717l.003.358.005.359.006.358.007.358.009.359.01.358.013.358.014.359.016.358.017.358.02.359.021.358.023.358.025.359.027.358.029.358.03.358.033.359.035.358.036.358.04.359.04.358.043.358.045.359.047.358.05.358.05.359.055.358.056.358.058.359.06.358.063.358.064.359.067.358.07.358.072.359.074.358.076.358.078.359.081.358.084.358.085.358.088.359.09.358.093.358.095.359.097.358.1.358.101.359.105.358.106.358.109.359.111.358.113.358.116.359.118.358.12.358.122.359.125.358.126.358.13.359.13.358.133.358.136.359.137.358.14.358.14.358.144.359.145.358.148.358.149.359.15.358.154.358.154.359.157.358.158.358.16.359.161.358.163.358.165.359.166.358.168.358.17.359.17.358.172.358.173.359.174.358.176.358.177.359.178.358.178.358.18.358.181.359.182.358.183.358.183.359.184.358.185.358.186.359.186.358.186.358.187.359.187.358.188.358.188.359.188.358.189.358.188.359.188.358.189.358.188.359.188.358.188.358.188.359.187.358.187.358.187.358.186.359.185.358.185.358.184.359.183.358.182.358.181.359.18.358.18.358.179.359.177.358.176.358.174.359.173.358.172.358.17.359.17.358.167.358.165.359.164.358.162.358.16.359.158.358.156.358.154.358.152.359.15.358.147.358.146.359.143.358.14.358.138.359.135.358.133.358.13.359.128.358.125.358.121.359.12.358.115.358.113.359.11.358.107.358.104.359.1.358.097.358.094.359.09.358.088.358.083.358.08.359.077.358.072.358.07.359.065.358.062.358.058.359.054.358.05.358.046.359.042.358.039.358.034.359.03.358.027.358.022.359.017.358.014.358.01.359.005.358.001.358-.003.359-.007.358-.012.358-.016.358-.02.359-.025.358-.03.358-.033.359-.038.358-.042.358-.047.359-.05.358-.056.358-.06.359-.064.358-.068.358-.073.359-.077.358-.081.358-.086.359-.09.358-.094.358-.099.359-.102.358-.107.358-.111.359-.115.358-.12.358-.123.359-.127.358-.132.358-.135.358-.14.359-.142.358-.147.358-.15.359-.155.358-.157.358-.162.359-.165.358-.168.358-.172.359-.175.358-.179.358-.181.359-.185.358-.188.358-.19.359-.195.358-.196.358-.2.359-.202.358-.205.358-.207.359-.21.358-.211.358-.215.358-.216.359-.219.358-.22.358-.223.359-.225.358-.226.358-.228.359-.23.358-.23.358-.233.359-.234.358-.235.358-.236.359-.237.358-.238.358-.239.359-.24.358-.24.358-.241.359-.242.358-.242.358-.242.359-.243.358-.242.358-.243.358-.243.359-.242.358-.243.358-.242.359-.242.358-.241.358-.24.359-.241.358-.24.358-.239.359-.238.358-.237.358-.236.359-.235.358-.234.358-.233.359-.232.358-.23.358-.23.359-.227.358-.226.358-.225.359-.223.358-.221.358-.22.358-.218.359-.216.358-.214.358-.213.359-.21.358-.209.358-.207.359-.204.358-.203.358-.2.359-.199.358-.196.358-.194.359-.192.358-.19.358-.187.359-.185.358-.183.358-.18.359-.18.358-.175.358-.174.359-.172.358-.169.358-.167.358-.164.359-.162.358-.16.358-.158.359-.155.358-.153.358-.15.359-.15.358-.145.358-.144.359-.142.358-.139.358-.137.359-.135.358-.133.358-.13.359-.129.358-.126.358-.124.359-.122.358-.12.358-.119.359-.116.358-.114.358-.112.358-.11.359-.108.358-.107.358-.104.359-.103.358-.101.358-.1.359-.097.358-.096.358-.094.359-.093.358-.09.358-.09.359-.088.358-.087.358-.084.359-.084.358-.082.358-.08.359-.08.358-.078.358-.077.359-.076.358-.074.358-.073.358-.072.359-.07.358Z" fill="#FFF"/>
      <path d="m128.549 303.548-.07-.358-.072-.359-.074-.358-.074-.358-.075-.358-.077-.359-.078-.358-.08-.358-.08-.359-.083-.358-.083-.358-.085-.359-.086-.358-.088-.358-.09-.359-.09-.358-.093-.358-.095-.359-.095-.358-.098-.358-.1-.359-.1-.358-.103-.358-.105-.359-.106-.358-.108-.358-.11-.359-.113-.358-.114-.358-.116-.358-.118-.359-.12-.358-.122-.358-.124-.359-.127-.358-.128-.358-.13-.359-.134-.358-.134-.358-.138-.359-.139-.358-.142-.358-.143-.359-.146-.358-.149-.358-.15-.359-.153-.358-.156-.358-.157-.359-.16-.358-.162-.358-.165-.359-.167-.358-.169-.358-.171-.358-.174-.359-.176-.358-.179-.358-.18-.359-.183-.358-.185-.358-.188-.359-.19-.358-.192-.358-.194-.359-.196-.358-.198-.358-.2-.359-.203-.358-.205-.358-.207-.359-.208-.358-.21-.358-.213-.359-.215-.358-.216-.358-.218-.359-.22-.358-.221-.358-.223-.358-.225-.359-.226-.358-.227-.358-.23-.359-.23-.358-.231-.358-.233-.359-.234-.358-.236-.358-.236-.359-.237-.358-.238-.358-.239-.359-.24-.358-.24-.358-.24-.359-.242-.358-.242-.358-.242-.359-.242-.358-.243-.358-.243-.359-.242-.358-.243-.358-.243-.358-.242-.359-.242-.358-.241-.358-.241-.359-.24-.358-.24-.358-.24-.359-.238-.358-.237-.358-.236-.359-.235-.358-.234-.358-.232-.359-.231-.358-.23-.358-.227-.359-.227-.358-.224-.358-.223-.359-.22-.358-.22-.358-.216-.359-.214-.358-.212-.358-.21-.358-.207-.359-.205-.358-.202-.358-.2-.359-.196-.358-.194-.358-.19-.359-.188-.358-.185-.358-.182-.359-.178-.358-.175-.358-.172-.359-.169-.358-.165-.358-.161-.359-.158-.358-.154-.358-.15-.359-.148-.358-.143-.358-.139-.359-.135-.358-.131-.358-.128-.358-.123-.359-.12-.358-.114-.358-.111-.359-.107-.358-.103-.358-.098-.359-.095-.358-.09-.358-.085-.359-.082-.358-.077-.358-.073-.359-.068-.358-.064-.358-.06-.359-.055-.358-.051-.358-.047-.359-.042-.358-.038-.358-.033-.359-.03-.358-.024-.358-.02-.359-.016-.358-.012-.358-.008-.358-.003-.359.001-.358.006-.358.01-.359.013-.358.018-.358.022-.359.026-.358.03-.358.035-.359.038-.358.042-.358.047-.359.05-.358.054-.358.058-.359.062-.358.065-.358.07-.359.072-.358.076-.358.08-.359.084-.358.087-.358.09-.358.094-.359.097-.358.1-.358.104-.359.107-.358.11-.358.113-.359.116-.358.119-.358.122-.359.125-.358.127-.358.13-.359.133-.358.135-.358.138-.359.14-.358.144-.358.145-.359.148-.358.15-.358.151-.359.154-.358.157-.358.158-.358.16-.359.162-.358.163-.358.166-.359.167-.358.169-.358.17-.359.172-.358.173-.358.175-.359.176-.358.177-.358.178-.359.18-.358.18-.358.181-.359.183-.358.183-.358.184-.359.185-.358.185-.358.186-.359.186-.358.187-.358.188-.358.187-.359.188-.358.188-.358.189-.359.188-.358.189-.358.188-.359.188-.358.188-.358.188-.359.188-.358.187-.358.187-.359.187-.358.186-.358.185-.359.185-.358.184-.358.184-.359.182-.358.182-.358.181-.359.18-.358.179-.358.178-.358.177-.359.175-.358.175-.358.173-.359.172-.358.17-.358.17-.359.167-.358.166-.358.165-.359.163-.358.162-.358.16-.359.158-.358.156-.358.155-.359.153-.358.15-.358.15-.359.147-.358.145-.358.144-.359.141-.358.14-.358.137-.358.135-.359.133-.358.131-.358.129-.359.127-.358.124-.358.123-.359.12-.358.118-.358.115-.359.113-.358.112-.358.108-.359.107-.358.104-.358.102-.359.1-.358.097-.358.095-.359.092-.358.09-.358.088-.359.086-.358.083-.358.081-.358.079-.359.076-.358.074-.358.072-.359.069-.358.067-.358.065-.359.063-.358.06-.358.058-.359.056-.358.054-.358.051-.359.05-.358.046-.358.046-.359.042-.358.041-.358.04-.359.036-.358.034-.358.033-.359.03-.358.03-.358.026-.358.025-.359.023-.358.022-.358.019-.359.018-.358.015-.358.014-.359.013-.358.01-.358.01-.359.007-.358.006-.358.004-.359.003-.358.001-.358v-.359l-.002-.358-.003-.358-.004-.359-.006-.358-.007-.358-.008-.359-.01-.358-.01-.358-.012-.358-.013-.359-.014-.358-.015-.358-.016-.359-.017-.358-.018-.358-.02-.359-.019-.358-.02-.358-.022-.359-.022-.358-.023-.358-.024-.359-.024-.358-.025-.358-.025-.359-.026-.358-.027-.358-.027-.359-.027-.358-.028-.358-.028-.359-.029-.358-.028-.358-.03-.358-.029-.359-.029-.358-.03-.358-.03-.359-.029-.358-.03-.358-.03-.359-.029-.358-.03-.358-.029-.359-.029-.358-.029-.358-.028-.359-.029-.358-.028-.358-.028-.359-.027-.358-.027-.358-.027-.359-.025-.358-.026-.358-.025-.359-.024-.358-.023-.358-.023-.359-.022-.358-.022-.358-.02-.358-.02-.359-.019-.358-.018-.358-.017-.359-.016-.358-.015-.358-.014-.359-.012-.358-.012-.358-.01-.359-.01-.358-.009-.358-.007-.359-.005-.358-.005-.358-.003-.359-.002-.358v-.717l.003-.358.004-.358.006-.359.007-.358.008-.358.01-.358.011-.359.014-.358.014-.358.017-.359.018-.358.02-.358.02-.359.024-.358.025-.358.026-.359.028-.358.03-.358.032-.359.034-.358.035-.358.037-.359.039-.358.04-.358.043-.359.044-.358.046-.358.048-.359.05-.358.05-.358.054-.358.054-.359.057-.358.058-.358.06-.359.062-.358.064-.358.065-.359.067-.358.07-.358.07-.359.071-.358.074-.358.075-.359.077-.358.079-.358.08-.359.08-.358.084-.358.084-.359.086-.358.087-.358.089-.359.09-.358.091-.358.093-.358m16.434 183.101.07-.358.073-.359.073-.358.074-.358.076-.358.077-.359.078-.358.08-.358.08-.359.082-.358.084-.358.084-.359.087-.358.088-.358.09-.359.09-.358.093-.358.094-.359.096-.358.097-.358.1-.359.1-.358.104-.358.104-.359.107-.358.108-.358.11-.359.112-.358.114-.358.116-.358.118-.359.12-.358.123-.358.124-.359.126-.358.129-.358.13-.359.133-.358.135-.358.137-.359.14-.358.141-.358.144-.359.146-.358.148-.358.15-.359.154-.358.155-.358.158-.359.16-.358.162-.358.164-.359.167-.358.17-.358.17-.358.175-.359.176-.358.178-.358.18-.359.184-.358.185-.358.187-.359.19-.358.192-.358.194-.359.196-.358.199-.358.2-.359.203-.358.204-.358.207-.359.209-.358.21-.358.213-.359.214-.358.216-.358.218-.359.22-.358.221-.358.223-.358.225-.359.226-.358.228-.358.229-.359.23-.358.232-.358.233-.359.234-.358.235-.358.236-.359.237-.358.238-.358.24-.359.239-.358.24-.358.241-.359.241-.358.242-.358.242-.359.243-.358.242-.358.243-.359.243-.358.242-.358.243-.358.242-.359.242-.358.242-.358.24-.359.241-.358.24-.358.239-.359.238-.358.237-.358.236-.359.235-.358.234-.358.232-.359.231-.358.23-.358.228-.359.226-.358.225-.358.222-.359.221-.358.219-.358.216-.359.215-.358.212-.358.21-.358.206-.359.205-.358.202-.358.2-.359.196-.358.194-.358.19-.359.189-.358.185-.358.181-.359.179-.358.175-.358.172-.359.168-.358.165-.358.162-.359.157-.358.155-.358.15-.359.147-.358.143-.358.14-.359.134-.358.132-.358.127-.358.123-.359.12-.358.115-.358.11-.359.108-.358.102-.358.099-.359.094-.358.09-.358.086-.359.081-.358.077-.358.073-.359.068-.358.064-.358.06-.359.055-.358.051-.358.047-.359.042-.358.038-.358.033-.359.03-.358.024-.358.02-.359.017-.358.012-.358.007-.358.003-.359v-.358l-.006-.358-.01-.359-.014-.358-.017-.358-.022-.359-.027-.358-.03-.358-.034-.359-.039-.358-.042-.358-.046-.359-.05-.358-.054-.358-.058-.359-.062-.358-.066-.358-.069-.359-.072-.358-.077-.358-.08-.359-.083-.358-.087-.358-.09-.358-.095-.359-.097-.358-.1-.358-.104-.359-.107-.358-.11-.358-.113-.359-.116-.358-.119-.358-.121-.359-.125-.358-.128-.358-.13-.359-.133-.358-.135-.358-.138-.359-.14-.358-.143-.358-.146-.359-.147-.358-.15-.358-.152-.359-.154-.358-.156-.358-.158-.358-.16-.359-.162-.358-.164-.358-.165-.359-.168-.358-.168-.358-.17-.359-.173-.358-.173-.358-.174-.359-.176-.358-.177-.358-.179-.359-.18-.358-.18-.358-.181-.359-.182-.358-.183-.358-.184-.359-.185-.358-.185-.358-.186-.359-.187-.358-.187-.358-.187-.358-.188-.359-.188-.358-.188-.358-.188-.359-.189-.358-.188-.358-.188-.359-.189-.358-.188-.358-.188-.359-.188-.358-.187-.358-.187-.359-.186-.358-.186-.358-.186-.359-.185-.358-.184-.358-.183-.359-.183-.358-.182-.358-.18-.359-.18-.358-.18-.358-.177-.358-.177-.359-.176-.358-.174-.358-.173-.359-.172-.358-.17-.358-.17-.359-.168-.358-.166-.358-.165-.359-.163-.358-.161-.358-.16-.359-.158-.358-.157-.358-.154-.359-.153-.358-.151-.358-.15-.359-.147-.358-.145-.358-.143-.359-.142-.358-.139-.358-.137-.358-.136-.359-.133-.358-.13-.358-.13-.359-.126-.358-.125-.358-.122-.359-.12-.358-.118-.358-.116-.359-.113-.358-.111-.358-.109-.359-.106-.358-.105-.358-.101-.359-.1-.358-.097-.358-.095-.359-.093-.358-.09-.358-.088-.359-.085-.358-.084-.358-.08-.358-.08-.359-.075-.358-.074-.358-.072-.359-.07-.358-.067-.358-.064-.359-.063-.358-.06-.358-.058-.359-.056-.358-.054-.358-.052-.359-.049-.358-.047-.358-.045-.359-.043-.358-.04-.358-.04-.359-.036-.358-.035-.358-.033-.359-.03-.358-.03-.358-.026-.358-.025-.359-.023-.358-.021-.358-.02-.359-.017-.358-.016-.358-.014-.359-.012-.358-.011-.358-.009-.359-.007-.358-.006-.358-.005-.359-.002-.358-.002-.358v-.359l.002-.358.003-.358.005-.359.005-.358.007-.358.009-.359.01-.358.01-.358.012-.358.012-.359.015-.358.015-.358.016-.359.017-.358.018-.358.019-.359.02-.358.02-.358.022-.359.022-.358.023-.358.023-.359.025-.358.024-.358.026-.359.026-.358.026-.358.027-.359.028-.358.028-.358.028-.359.028-.358.029-.358.029-.358.03-.359.028-.358.03-.358.03-.359.03-.358.029-.358.03-.359.03-.358.029-.358.029-.359.03-.358.028-.358.029-.359.028-.358.028-.358.028-.359.028-.358.026-.358.027-.359.026-.358.025-.358.025-.359.024-.358.024-.358.023-.359.022-.358.021-.358.02-.358.02-.359.02-.358.017-.358.017-.359.016-.358.015-.358.014-.359.013-.358.012-.358.01-.359.01-.358.008-.358.007-.359.006-.358.004-.358.003-.359.002-.358v-.717l-.003-.358-.004-.358-.005-.359-.007-.358-.009-.358-.01-.358-.011-.359-.013-.358-.015-.358-.016-.359-.018-.358-.02-.358-.021-.359-.023-.358-.025-.358-.027-.359-.028-.358-.03-.358-.032-.359-.033-.358-.035-.358-.037-.359-.04-.358-.04-.358-.042-.359-.044-.358-.046-.358-.048-.359-.05-.358-.051-.358-.053-.358-.055-.359-.057-.358-.058-.358-.06-.359-.062-.358-.064-.358-.065-.359-.067-.358-.069-.358-.07-.359-.072-.358-.074-.358-.075-.359-.077-.358-.078-.358-.08-.359-.081-.358-.083-.358-.085-.359-.086-.358-.087-.358-.089-.359-.09-.358-.09-.358-.093-.358" fill="none" stroke-width="1.65" stroke="#474747"/>
      <path d="m283.968 200.553.008-.358.024-.358.04-.358.055-.359.07-.358.087-.358.1-.359.114-.358.128-.358.14-.359.153-.358.163-.358.174-.359.182-.358.192-.358.198-.359.205-.358.21-.358.215-.359.218-.358.22-.358.222-.359.222-.358.221-.358.22-.359.217-.358.213-.358.21-.358.203-.359.198-.358.19-.358.184-.359.176-.358.167-.358.157-.359.147-.358.137-.358.127-.359.115-.358.103-.358.091-.359.08-.358.066-.358.054-.359.04-.358.029-.358.014-.359.001-.358-.012-.358-.026-.359-.04-.358-.052-.358-.067-.358-.08-.359-.093-.358-.106-.358-.12-.359-.132-.358-.146-.358-.158-.359-.17-.358-.182-.358-.194-.359-.206-.358-.216-.358-.227-.359-.238-.358-.247-.358-.257-.359-.265-.358-.274-.358-.282-.359-.29-.358-.296-.358-.303-.359-.309-.358-.314-.358-.32-.358-.323-.359-.328-.358-.332-.358-.336-.359-.338-.358-.342-.358-.344-.359-.347-.358-.35-.358-.353-.359-.355-.358-.359-.358-.362-.359-.367-.358-.371-.358-.376-.359-.383-.358-.39-.358-.397-.359-.406-.358-.417-.358-.428-.359-.441-.358-.456-.358-.472-.359-.489-.358-.508-.358-.53-.358-.552-.359-.577-.358-.603-.358-.631-.359-.661-.358-.693-.358-.725-.359-.76-.358-.797-.358-.833-.359-.872-.358-.912-.358-.952-.359-.993-.358-1.034-.358-1.076-.359-1.117-.358-1.158-.358-1.198-.359-1.238-.358-1.275-.358-1.313-.359-1.346-.358-1.38-.358-1.409-.358-1.436-.359-1.46-.358-1.482-.358-1.498-.359-1.511-.358-1.52-.358-1.525-.359-1.524-.358-1.52-.358-1.51-.359-1.495-.358-1.476-.358-1.45-.359-1.422-.358-1.386-.358-1.347-.359-1.302-.358-1.252-.358-1.2-.359-1.14-.358-1.08-.358-1.013-.359-.945-.358-.873-.358-.798-.358-.722-.359-.643-.358-.563-.358-.482-.359-.401-.358-.32-.358-.238-.359-.158-.358-.079-.358-.001-.359.074-.358.148-.358.218-.359.286-.358.35-.358.41-.359.47-.358.52-.358.571-.359.616-.358.657-.358.694-.359.725-.358.754-.358.778-.358.798-.359.813-.358.825-.358.833-.359.838-.358.84-.358.837-.359.833-.358.825-.358.815-.359.803-.358.789-.358.773-.359.756-.358.737-.358.718-.359.697-.358.677-.358.656-.359.634-.358.614-.358.593-.359.572-.358.552-.358.534-.358.515-.359.498-.358.482-.358.466-.359.453-.358.44-.358.43-.359.418-.358.41-.358.404-.359.397-.358.393-.358.39-.359.387-.358.386-.358.388-.359.388-.358.391-.358.395-.359.4-.358.405-.358.411-.359.418-.358.427-.358.434-.358.444-.359.453-.358.464-.358.473-.359.485-.358.495-.358.507-.359.519-.358.53-.358.541-.359.554-.358.565-.358.578-.359.589-.358.6-.358.613-.359.623-.358.635-.358.645-.359.656-.358.666-.358.676-.359.685-.358.694-.358.701-.358.71-.359.716-.358.722-.358.728-.359.732-.358.735-.358.739-.359.74-.358.74-.358.741-.359.74-.358.736-.358.733-.359.728-.358.723-.358.715-.359.707-.358.698-.358.688-.359.676-.358.663-.358.65-.359.634-.358.62-.358.602-.358.585-.359.567-.358.549-.358.528-.359.508-.358.488-.358.466-.359.444-.358.423-.358.4-.359.377-.358.355-.358.331-.359.31-.358.285-.358.263-.359.24-.358.219-.358.195-.359.174-.358.151-.358.13-.359.11-.358.088-.358.068-.358.048-.359.029-.358.01-.358-.008-.359-.026-.358-.043-.358-.06-.359-.075-.358-.09-.358-.105-.359-.118-.358-.131-.358-.144-.359-.154-.358-.164-.358-.174-.359-.183-.358-.19-.358-.196-.359-.202-.358-.206-.358-.21-.359-.212-.358-.213-.358-.213-.358-.212-.359-.21-.358-.206-.358-.202-.359-.197-.358-.19-.358-.182-.359-.174-.358-.164-.358-.154-.359-.142-.358-.13-.358-.118-.359-.103-.358-.09-.358-.074-.359-.06-.358-.044-.358-.028-.359-.013-.358.004-.358.02-.359.036-.358.052-.358.067-.359.083-.358.097-.358.111-.358.126-.359.138-.358.15-.358.163-.359.173-.358.183-.358.192-.359.2-.358.208-.358.213-.359.22-.358.223-.358.227-.359.23-.358.23-.358.232-.359.232-.358.23-.358.23-.359.226-.358.224-.358.22-.359.216-.358.21-.358.206-.358.2-.359.193-.358.187-.358.18-.359.175-.358.166-.358.16-.359.152-.358.145-.358.138-.359.13-.358.124-.358.117-.359.11-.358.103-.358.096-.359.09-.358.085-.358.078-.359.073-.358.068-.358.062-.359.058-.358.053-.358.048-.358.045-.359.04-.358.038-.358.034-.359.03-.358.028-.358.026-.359.022-.358.02-.358.018-.359.016-.358.015-.358.012-.359.01-.358.01-.358.008-.359.007-.358.005-.358.004-.359.003-.358.002-.358v-.717l-.001-.358-.003-.358-.004-.359-.005-.358-.006-.358-.007-.359-.01-.358-.01-.358-.011-.359-.014-.358-.015-.358-.018-.359-.02-.358-.021-.358-.024-.359-.027-.358-.03-.358-.033-.359-.036-.358-.04-.358-.043-.359-.048-.358-.051-.358-.056-.359-.061-.358-.066-.358-.071-.358-.077-.359-.082-.358-.089-.358-.094-.359-.102-.358-.107-.358-.115-.359-.121-.358-.128-.358-.136-.359-.143-.358-.15-.358-.157-.359-.165-.358-.171-.358-.179-.359-.185-.358-.191-.358-.198-.359-.204-.358-.21-.358-.213-.359-.219-.358-.222-.358-.226-.358-.229-.359-.23-.358-.231-.358-.232-.359-.232-.358-.23-.358-.227-.359-.225-.358-.22-.358-.216-.359-.21-.358-.202-.358-.195-.359-.186-.358-.176-.358-.165-.359-.155-.358-.142-.358-.129-.359-.116-.358-.101-.358-.087-.359-.072-.358-.056-.358-.04-.358-.024-.359-.008-.358h18.02l-.009.358-.024.359-.04.358-.057.358-.071.358-.087.359-.102.358-.115.358-.13.359-.142.358-.154.358-.165.359-.177.358-.185.358-.195.359-.203.358-.21.358-.215.359-.22.358-.225.358-.228.359-.23.358-.23.358-.233.359-.231.358-.23.358-.23.359-.225.358-.222.358-.219.358-.214.359-.21.358-.203.358-.198.359-.192.358-.185.358-.178.359-.172.358-.164.358-.157.359-.15.358-.143.358-.136.359-.128.358-.122.358-.114.359-.108.358-.1.358-.095.359-.089.358-.082.358-.077.359-.071.358-.066.358-.06.358-.057.359-.052.358-.047.358-.043.359-.04.358-.036.358-.033.359-.03.358-.027.358-.024.359-.022.358-.02.358-.017.359-.015.358-.014.358-.012.359-.01.358-.009.358-.007.359-.007.358-.005.358-.003.359-.003.358-.001.358v.717l.002.358.003.358.004.359.005.358.007.358.008.359.009.358.01.358.013.359.014.358.016.358.018.359.02.358.023.358.025.359.028.358.03.358.035.359.037.358.04.358.045.359.049.358.053.358.058.358.062.359.068.358.072.358.079.359.084.358.09.358.097.359.103.358.11.358.117.359.123.358.13.358.139.359.145.358.152.358.16.359.166.358.174.358.18.359.188.358.193.358.2.359.205.358.211.358.216.358.22.359.223.358.227.358.23.359.23.358.232.358.232.359.23.358.23.358.227.359.223.358.22.358.213.359.208.358.2.358.192.359.183.358.173.358.162.359.15.358.14.358.124.359.112.358.097.358.083.358.067.359.052.358.036.358.02.359.003.358-.012.358-.028.359-.044.358-.06.358-.075.359-.089.358-.104.358-.117.359-.13.358-.142.358-.154.359-.164.358-.174.358-.183.359-.19.358-.196.358-.202.359-.207.358-.21.358-.211.359-.213.358-.213.358-.212.358-.21.359-.206.358-.202.358-.196.359-.19.358-.183.358-.174.359-.164.358-.155.358-.143.359-.131.358-.118.358-.105.359-.09.358-.076.358-.06.359-.042.358-.026.358-.008.359.01.358.029.358.048.359.068.358.088.358.11.358.13.359.151.358.174.358.195.359.218.358.24.358.264.359.286.358.308.358.332.359.355.358.377.358.4.359.423.358.444.358.466.359.488.358.508.358.528.359.548.358.567.358.586.359.602.358.62.358.634.358.65.359.663.358.676.358.687.359.698.358.708.358.715.359.722.358.729.358.733.359.736.358.74.358.74.359.74.358.741.358.738.359.736.358.732.358.728.359.722.358.716.358.71.359.701.358.694.358.685.358.676.359.666.358.655.358.646.359.635.358.623.358.612.359.601.358.59.358.576.359.566.358.553.358.542.359.53.358.519.358.506.359.496.358.484.358.474.359.463.358.454.358.443.359.435.358.426.358.419.358.411.359.405.358.4.358.394.359.392.358.388.358.387.359.387.358.387.358.39.359.392.358.398.358.403.359.41.358.42.358.428.359.44.358.454.358.466.359.482.358.498.358.515.359.534.358.552.358.572.358.593.359.613.358.635.358.656.359.676.358.698.358.718.359.737.358.756.358.773.359.789.358.803.358.815.359.825.358.833.358.837.359.84.358.837.358.834.359.825.358.813.358.798.359.778.358.753.358.726.358.694.359.656.358.616.358.571.359.522.358.468.358.411.359.35.358.286.358.218.359.148.358.074.358-.001.359-.08.358-.157.358-.238.359-.32.358-.4.358-.483.359-.563.358-.643.358-.722.359-.798.358-.873.358-.945.358-1.013.359-1.08.358-1.14.358-1.2.359-1.252.358-1.302.358-1.347.359-1.386.358-1.421.358-1.451.359-1.476.358-1.495.358-1.51.359-1.52.358-1.524.358-1.525.359-1.52.358-1.511.358-1.498.359-1.481.358-1.46.358-1.437.359-1.41.358-1.379.358-1.347.358-1.312.359-1.276.358-1.237.358-1.198.359-1.158.358-1.117.358-1.076.359-1.034.358-.993.358-.952.359-.912.358-.872.358-.834.359-.796.358-.76.358-.726.359-.692.358-.661.358-.631.359-.603.358-.577.358-.552.359-.53.358-.508.358-.49.358-.471.359-.456.358-.441.358-.428.359-.417.358-.407.358-.397.359-.39.358-.382.358-.376.359-.371.358-.367.358-.362.359-.36.358-.355.358-.352.359-.35.358-.347.358-.345.359-.341.358-.339.358-.335.359-.332.358-.328.358-.324.359-.319.358-.314.358-.31.358-.302.359-.296.358-.29.358-.282.359-.274.358-.265.358-.257.359-.247.358-.238.358-.227.359-.216.358-.206.358-.194.359-.182.358-.17.358-.158.359-.146.358-.132.358-.12.359-.107.358-.093.358-.08.359-.066.358-.053.358-.04.358-.025.359-.013.358.002.358.014.359.028.358.04.358.055.359.066.358.08.358.09.359.104.358.115.358.126.359.137.358.148.358.157.359.167.358.175.358.184.359.191.358.198.358.204.359.209.358.213.358.217.358.22.359.22.358.223.358.221.359.22.358.219.358.214.359.21.358.206.358.198.359.191.358.183.358.174.359.163.358.152.358.14.359.128.358.115.358.1.359.086.358.07.358.056.359.04.358.024.358.008.358Z" fill="#FFF"/>
      <path d="m283.968 200.553.008-.358.024-.358.04-.358.055-.359.07-.358.087-.358.1-.359.114-.358.128-.358.14-.359.153-.358.163-.358.174-.359.182-.358.192-.358.198-.359.205-.358.21-.358.215-.359.218-.358.22-.358.222-.359.222-.358.221-.358.22-.359.217-.358.213-.358.21-.358.203-.359.198-.358.19-.358.184-.359.176-.358.167-.358.157-.359.147-.358.137-.358.127-.359.115-.358.103-.358.091-.359.08-.358.066-.358.054-.359.04-.358.029-.358.014-.359.001-.358-.012-.358-.026-.359-.04-.358-.052-.358-.067-.358-.08-.359-.093-.358-.106-.358-.12-.359-.132-.358-.146-.358-.158-.359-.17-.358-.182-.358-.194-.359-.206-.358-.216-.358-.227-.359-.238-.358-.247-.358-.257-.359-.265-.358-.274-.358-.282-.359-.29-.358-.296-.358-.303-.359-.309-.358-.314-.358-.32-.358-.323-.359-.328-.358-.332-.358-.336-.359-.338-.358-.342-.358-.344-.359-.347-.358-.35-.358-.353-.359-.355-.358-.359-.358-.362-.359-.367-.358-.371-.358-.376-.359-.383-.358-.39-.358-.397-.359-.406-.358-.417-.358-.428-.359-.441-.358-.456-.358-.472-.359-.489-.358-.508-.358-.53-.358-.552-.359-.577-.358-.603-.358-.631-.359-.661-.358-.693-.358-.725-.359-.76-.358-.797-.358-.833-.359-.872-.358-.912-.358-.952-.359-.993-.358-1.034-.358-1.076-.359-1.117-.358-1.158-.358-1.198-.359-1.238-.358-1.275-.358-1.313-.359-1.346-.358-1.38-.358-1.409-.358-1.436-.359-1.46-.358-1.482-.358-1.498-.359-1.511-.358-1.52-.358-1.525-.359-1.524-.358-1.52-.358-1.51-.359-1.495-.358-1.476-.358-1.45-.359-1.422-.358-1.386-.358-1.347-.359-1.302-.358-1.252-.358-1.2-.359-1.14-.358-1.08-.358-1.013-.359-.945-.358-.873-.358-.798-.358-.722-.359-.643-.358-.563-.358-.482-.359-.401-.358-.32-.358-.238-.359-.158-.358-.079-.358-.001-.359.074-.358.148-.358.218-.359.286-.358.35-.358.41-.359.47-.358.52-.358.571-.359.616-.358.657-.358.694-.359.725-.358.754-.358.778-.358.798-.359.813-.358.825-.358.833-.359.838-.358.84-.358.837-.359.833-.358.825-.358.815-.359.803-.358.789-.358.773-.359.756-.358.737-.358.718-.359.697-.358.677-.358.656-.359.634-.358.614-.358.593-.359.572-.358.552-.358.534-.358.515-.359.498-.358.482-.358.466-.359.453-.358.44-.358.43-.359.418-.358.41-.358.404-.359.397-.358.393-.358.39-.359.387-.358.386-.358.388-.359.388-.358.391-.358.395-.359.4-.358.405-.358.411-.359.418-.358.427-.358.434-.358.444-.359.453-.358.464-.358.473-.359.485-.358.495-.358.507-.359.519-.358.53-.358.541-.359.554-.358.565-.358.578-.359.589-.358.6-.358.613-.359.623-.358.635-.358.645-.359.656-.358.666-.358.676-.359.685-.358.694-.358.701-.358.71-.359.716-.358.722-.358.728-.359.732-.358.735-.358.739-.359.74-.358.74-.358.741-.359.74-.358.736-.358.733-.359.728-.358.723-.358.715-.359.707-.358.698-.358.688-.359.676-.358.663-.358.65-.359.634-.358.62-.358.602-.358.585-.359.567-.358.549-.358.528-.359.508-.358.488-.358.466-.359.444-.358.423-.358.4-.359.377-.358.355-.358.331-.359.31-.358.285-.358.263-.359.24-.358.219-.358.195-.359.174-.358.151-.358.13-.359.11-.358.088-.358.068-.358.048-.359.029-.358.01-.358-.008-.359-.026-.358-.043-.358-.06-.359-.075-.358-.09-.358-.105-.359-.118-.358-.131-.358-.144-.359-.154-.358-.164-.358-.174-.359-.183-.358-.19-.358-.196-.359-.202-.358-.206-.358-.21-.359-.212-.358-.213-.358-.213-.358-.212-.359-.21-.358-.206-.358-.202-.359-.197-.358-.19-.358-.182-.359-.174-.358-.164-.358-.154-.359-.142-.358-.13-.358-.118-.359-.103-.358-.09-.358-.074-.359-.06-.358-.044-.358-.028-.359-.013-.358.004-.358.02-.359.036-.358.052-.358.067-.359.083-.358.097-.358.111-.358.126-.359.138-.358.15-.358.163-.359.173-.358.183-.358.192-.359.2-.358.208-.358.213-.359.22-.358.223-.358.227-.359.23-.358.23-.358.232-.359.232-.358.23-.358.23-.359.226-.358.224-.358.22-.359.216-.358.21-.358.206-.358.2-.359.193-.358.187-.358.18-.359.175-.358.166-.358.16-.359.152-.358.145-.358.138-.359.13-.358.124-.358.117-.359.11-.358.103-.358.096-.359.09-.358.085-.358.078-.359.073-.358.068-.358.062-.359.058-.358.053-.358.048-.358.045-.359.04-.358.038-.358.034-.359.03-.358.028-.358.026-.359.022-.358.02-.358.018-.359.016-.358.015-.358.012-.359.01-.358.01-.358.008-.359.007-.358.005-.358.004-.359.003-.358.002-.358v-.717l-.001-.358-.003-.358-.004-.359-.005-.358-.006-.358-.007-.359-.01-.358-.01-.358-.011-.359-.014-.358-.015-.358-.018-.359-.02-.358-.021-.358-.024-.359-.027-.358-.03-.358-.033-.359-.036-.358-.04-.358-.043-.359-.048-.358-.051-.358-.056-.359-.061-.358-.066-.358-.071-.358-.077-.359-.082-.358-.089-.358-.094-.359-.102-.358-.107-.358-.115-.359-.121-.358-.128-.358-.136-.359-.143-.358-.15-.358-.157-.359-.165-.358-.171-.358-.179-.359-.185-.358-.191-.358-.198-.359-.204-.358-.21-.358-.213-.359-.219-.358-.222-.358-.226-.358-.229-.359-.23-.358-.231-.358-.232-.359-.232-.358-.23-.358-.227-.359-.225-.358-.22-.358-.216-.359-.21-.358-.202-.358-.195-.359-.186-.358-.176-.358-.165-.359-.155-.358-.142-.358-.129-.359-.116-.358-.101-.358-.087-.359-.072-.358-.056-.358-.04-.358-.024-.359-.008-.358m18.022 183.101-.008-.358-.024-.358-.04-.358-.055-.359-.071-.358-.086-.358-.1-.359-.115-.358-.127-.358-.14-.359-.153-.358-.163-.358-.174-.359-.183-.358-.19-.358-.2-.359-.204-.358-.21-.358-.215-.359-.219-.358-.22-.358-.221-.359-.222-.358-.222-.358-.22-.359-.216-.358-.213-.358-.21-.358-.203-.359-.198-.358-.191-.358-.184-.359-.175-.358-.167-.358-.157-.359-.148-.358-.137-.358-.126-.359-.115-.358-.103-.358-.092-.359-.079-.358-.066-.358-.054-.359-.041-.358-.028-.358-.014-.359-.002-.358.013-.358.026-.359.039-.358.053-.358.066-.358.08-.359.093-.358.107-.358.12-.359.132-.358.146-.358.158-.359.17-.358.182-.358.194-.359.206-.358.216-.358.227-.359.238-.358.247-.358.257-.359.265-.358.274-.358.282-.359.29-.358.296-.358.303-.359.309-.358.314-.358.32-.358.323-.359.328-.358.332-.358.335-.359.339-.358.341-.358.345-.359.347-.358.35-.358.352-.359.356-.358.359-.358.362-.359.367-.358.37-.358.377-.359.383-.358.39-.358.396-.359.407-.358.417-.358.428-.359.441-.358.456-.358.471-.359.49-.358.508-.358.53-.358.552-.359.577-.358.603-.358.63-.359.662-.358.692-.358.726-.359.76-.358.796-.358.834-.359.872-.358.912-.358.952-.359.993-.358 1.034-.358 1.076-.359 1.117-.358 1.158-.358 1.198-.359 1.237-.358 1.276-.358 1.312-.359 1.347-.358 1.38-.358 1.409-.358 1.436-.359 1.46-.358 1.482-.358 1.498-.359 1.51-.358 1.521-.358 1.525-.359 1.524-.358 1.52-.358 1.51-.359 1.495-.358 1.476-.358 1.45-.359 1.422-.358 1.386-.358 1.347-.359 1.302-.358 1.252-.358 1.2-.359 1.14-.358 1.08-.358 1.013-.359.945-.358.873-.358.798-.358.722-.359.643-.358.563-.358.482-.359.401-.358.32-.358.238-.359.158-.358.079-.358.001-.359-.074-.358-.148-.358-.218-.359-.286-.358-.35-.358-.411-.359-.468-.358-.522-.358-.57-.359-.617-.358-.656-.358-.694-.359-.726-.358-.753-.358-.778-.358-.798-.359-.813-.358-.825-.358-.834-.359-.838-.358-.839-.358-.837-.359-.833-.358-.825-.358-.815-.359-.803-.358-.79-.358-.772-.359-.756-.358-.737-.358-.718-.359-.698-.358-.676-.358-.656-.359-.635-.358-.613-.358-.593-.359-.572-.358-.552-.358-.534-.358-.515-.359-.498-.358-.482-.358-.466-.359-.453-.358-.44-.358-.43-.359-.419-.358-.41-.358-.403-.359-.398-.358-.392-.358-.39-.359-.387-.358-.387-.358-.387-.359-.388-.358-.392-.358-.394-.359-.4-.358-.405-.358-.411-.359-.419-.358-.426-.358-.435-.358-.443-.359-.454-.358-.463-.358-.474-.359-.484-.358-.496-.358-.506-.359-.519-.358-.53-.358-.542-.359-.553-.358-.566-.358-.577-.359-.589-.358-.6-.358-.613-.359-.623-.358-.635-.358-.646-.359-.655-.358-.666-.358-.676-.359-.685-.358-.694-.358-.702-.358-.709-.359-.716-.358-.722-.358-.728-.359-.732-.358-.736-.358-.738-.359-.74-.358-.741-.358-.74-.359-.74-.358-.736-.358-.733-.359-.729-.358-.722-.358-.715-.359-.708-.358-.698-.358-.687-.359-.676-.358-.663-.358-.65-.359-.634-.358-.62-.358-.602-.358-.586-.359-.567-.358-.548-.358-.528-.359-.508-.358-.488-.358-.466-.359-.444-.358-.423-.358-.4-.359-.377-.358-.355-.358-.332-.359-.308-.358-.286-.358-.264-.359-.24-.358-.218-.358-.195-.359-.174-.358-.152-.358-.13-.359-.109-.358-.088-.358-.068-.358-.048-.359-.03-.358-.01-.358.009-.359.026-.358.043-.358.06-.359.075-.358.09-.358.105-.359.118-.358.131-.358.143-.359.155-.358.164-.358.174-.359.183-.358.19-.358.196-.359.202-.358.206-.358.21-.359.212-.358.213-.358.213-.358.212-.359.21-.358.206-.358.202-.359.196-.358.19-.358.183-.359.174-.358.164-.358.154-.359.142-.358.13-.358.117-.359.104-.358.09-.358.074-.359.06-.358.044-.358.028-.359.012-.358-.004-.358-.02-.359-.035-.358-.052-.358-.067-.359-.083-.358-.097-.358-.112-.358-.125-.359-.138-.358-.15-.358-.163-.359-.173-.358-.183-.358-.192-.359-.2-.358-.208-.358-.214-.359-.219-.358-.223-.358-.227-.359-.23-.358-.23-.358-.232-.359-.232-.358-.23-.358-.23-.359-.227-.358-.223-.358-.22-.359-.216-.358-.21-.358-.206-.358-.2-.359-.193-.358-.188-.358-.18-.359-.174-.358-.166-.358-.16-.359-.152-.358-.145-.358-.138-.359-.13-.358-.124-.358-.117-.359-.11-.358-.103-.358-.096-.359-.09-.358-.085-.358-.079-.359-.072-.358-.068-.358-.062-.359-.058-.358-.053-.358-.049-.358-.044-.359-.041-.358-.037-.358-.034-.359-.03-.358-.029-.358-.025-.359-.022-.358-.02-.358-.019-.359-.016-.358-.014-.358-.012-.359-.011-.358-.01-.358-.007-.359-.007-.358-.005-.358-.004-.359-.003-.358-.002-.358v-.717l.001-.358.003-.358.003-.359.005-.358.007-.358.007-.359.009-.358.01-.358.012-.359.014-.358.015-.358.018-.359.02-.358.02-.358.025-.359.027-.358.03-.358.033-.359.036-.358.04-.358.043-.359.047-.358.052-.358.056-.359.061-.358.066-.358.071-.358.077-.359.082-.358.089-.358.094-.359.101-.358.108-.358.114-.359.122-.358.128-.358.136-.359.143-.358.15-.358.157-.359.164-.358.172-.358.178-.359.185-.358.192-.358.198-.359.204-.358.209-.358.214-.359.219-.358.222-.358.226-.358.228-.359.23-.358.232-.358.232-.359.231-.358.23-.358.228-.359.225-.358.22-.358.216-.359.21-.358.202-.358.195-.359.185-.358.177-.358.165-.359.154-.358.142-.358.13-.359.115-.358.102-.358.087-.359.071-.358.056-.358.04-.358.025-.359.008-.358" fill="none" stroke-width="1.65" stroke="#474747"/>
      <path d="m433.517 269.217.003-.247.01-.246.015-.246.022-.247.028-.246.035-.246.04-.247.047-.246.053-.247.06-.246.065-.246.07-.247.078-.246.082-.246.089-.247.094-.246.1-.246.105-.247.11-.246.116-.246.12-.247.126-.246.13-.246.136-.247.14-.246.144-.246.148-.247.153-.246.157-.246.16-.247.165-.246.168-.246.171-.247.175-.246.178-.247.18-.246.184-.246.186-.247.188-.246.19-.246.194-.247.194-.246.197-.246.198-.247.2-.246.2-.246.202-.247.203-.246.203-.246.204-.247.205-.246.205-.246.205-.247.204-.246.205-.246.204-.247.204-.246.203-.246.202-.247.201-.246.2-.246.199-.247.197-.246.196-.247.194-.246.193-.246.19-.247.189-.246.186-.246.184-.247.181-.246.18-.246.176-.247.173-.246.171-.246.168-.247.165-.246.162-.246.158-.247.156-.246.151-.246.149-.247.145-.246.141-.246.138-.247.133-.246.13-.246.127-.247.122-.246.118-.246.114-.247.11-.246.106-.247.102-.246.098-.246.093-.247.089-.246.085-.246.08-.247.076-.246.071-.246.067-.247.062-.246.058-.246.053-.247.049-.246.044-.246.04-.247.034-.246.03-.246.026-.247.021-.246.016-.246.012-.247.007-.246.002-.246-.003-.247-.007-.246-.012-.246-.017-.247-.021-.246-.026-.247-.031-.246-.036-.246-.04-.247-.045-.246-.05-.246-.054-.247-.059-.246-.063-.246-.068-.247-.073-.246-.078-.246-.081-.247-.087-.246-.09-.246-.096-.247-.1-.246-.105-.246-.108-.247-.113-.246-.118-.246-.122-.247-.126-.246-.13-.246-.134-.247-.139-.246-.142-.246-.147-.247-.15-.246-.155-.247-.158-.246-.162-.246-.166-.247-.17-.246-.173-.246-.176-.247-.18-.246-.184-.246-.187-.247-.19-.246-.193-.246-.196-.247-.2-.246-.201-.246-.205-.247-.208-.246-.21-.246-.213-.247-.215-.246-.217-.246-.22-.247-.222-.246-.224-.246-.225-.247-.228-.246-.229-.247-.23-.246-.233-.246-.233-.247-.235-.246-.235-.246-.237-.247-.238-.246-.238-.246-.24-.247-.239-.246-.24-.246-.24-.247-.24-.246-.241-.246-.24-.247-.24-.246-.24-.246-.24-.247-.24-.246-.238-.246-.238-.247-.237-.246-.237-.246-.235-.247-.234-.246-.233-.246-.231-.247-.23-.246-.23-.247-.227-.246-.226-.246-.224-.247-.222-.246-.22-.246-.22-.247-.216-.246-.215-.246-.213-.247-.211-.246-.209-.246-.207-.247-.204-.246-.203-.246-.2-.247-.198-.246-.196-.246-.194-.247-.191-.246-.19-.246-.187-.247-.185-.246-.183-.246-.18-.247-.18-.246-.176-.246-.175-.247-.173-.246-.171-.247-.17-.246-.167-.246-.165-.247-.164-.246-.163-.246-.16-.247-.16-.246-.159-.246-.157-.247-.155-.246-.155-.246-.154-.247-.153-.246-.152-.246-.151-.247-.15-.246-.151-.246-.15-.247-.15-.246-.149-.246-.149-.247-.149-.246-.15-.246-.149-.247-.15-.246-.15-.246-.15-.247-.152-.246-.152-.247-.152-.246-.154-.246-.154-.247-.156-.246-.157-.246-.158-.247-.159-.246-.16-.246-.162-.247-.164-.246-.165-.246-.166-.247-.169-.246-.17-.246-.171-.247-.174-.246-.175-.246-.177-.247-.179-.246-.18-.246-.183-.247-.185-.246-.186-.246-.189-.247-.19-.246-.192-.247-.194-.246-.196-.246-.197-.247-.2-.246-.2-.246-.203-.247-.205-.246-.206-.246-.207-.247-.209-.246-.21-.246-.211-.247-.213-.246-.213-.246-.215-.247-.216-.246-.216-.246-.217-.247-.218-.246-.218-.246-.219-.247-.219-.246-.219-.246-.218-.247-.22-.246-.218-.246-.218-.247-.218-.246-.217-.247-.216-.246-.215-.246-.214-.247-.213-.246-.212-.246-.21-.247-.208-.246-.206-.246-.205-.247-.202-.246-.2-.246-.198-.247-.196-.246-.192-.246-.19-.247-.186-.246-.184-.246-.18-.247-.177-.246-.174-.246-.17-.247-.165-.246-.162-.246-.158-.247-.154-.246-.149-.246-.145-.247-.14-.246-.136-.247-.131-.246-.126-.246-.121-.247-.116-.246-.111-.246-.106-.247-.1-.246-.095-.246-.09-.247-.083-.246-.079-.246-.072-.247-.067-.246-.06-.246-.056-.247-.05-.246-.042-.246-.037-.247-.032-.246-.025-.246-.019-.247-.013-.246-.007-.246v-.247l.005-.246.01-.246.018-.247.024-.246.03-.247.035-.246.042-.246.047-.247.054-.246.059-.246.065-.247.071-.246.077-.246.082-.247.088-.246.093-.246.1-.247.103-.246.11-.246.114-.247.12-.246.125-.246.13-.247.134-.246.14-.246.143-.247.148-.246.153-.246.156-.247.161-.246.165-.247.169-.246.172-.246.176-.247.18-.246.182-.246.186-.247.189-.246.192-.246.194-.247.197-.246.2-.246.202-.247.204-.246.206-.246.207-.247.21-.246.211-.246.213-.247.213-.246.215-.246.216-.247.217-.246.218-.246.218-.247.218-.246.219-.246.219-.247.219-.246.219-.247.218-.246.219-.246.217-.247.218-.246.216-.246.216-.247.215-.246.214-.246.213-.247.212-.246.21-.246.21-.247.207-.246.206-.246.205-.247.203-.246.202-.246.2-.247.198-.246.196-.246.194-.247.193-.246.19-.246.19-.247.187-.246.185-.246.183-.247.181-.246.18-.247.177-.246.176-.246.174-.247.172-.246.17-.246.169-.247.167-.246.165-.246.164-.247.163-.246.16-.246.16-.247.158-.246.157-.246.156-.247.155-.246.154-.246.153-.247.152-.246.152-.246.15-.247.15-.246.15-.246.15-.247.15-.246.149-.246.149-.247.15-.246.149-.247.15-.246.15-.246.15-.247.151-.246.152-.246.153-.247.154-.246.154-.246.156-.247.156-.246.158-.246.16-.247.16-.246.162-.246.164-.247.165-.246.168-.246.168-.247.17-.246.173-.246.175-.247h48.157l.175.247.172.246.17.246.17.247.167.246.165.246.164.247.162.246.16.246.16.247.158.246.157.246.155.247.155.246.153.246.153.247.152.246.15.246.151.247.15.246.15.246.15.247.15.246.148.247.15.246.149.246.15.247.15.246.15.246.15.247.152.246.152.246.153.247.154.246.155.246.156.247.157.246.158.246.16.247.16.246.163.246.164.247.165.246.167.246.169.247.17.246.172.246.174.247.176.246.178.246.179.247.181.246.183.247.186.246.187.246.188.247.191.246.193.246.194.247.197.246.198.246.2.247.201.246.203.246.205.247.206.246.208.246.209.247.21.246.212.246.213.247.214.246.215.246.216.247.216.246.218.246.218.247.218.246.219.246.218.247.22.246.218.247.219.246.219.246.218.247.217.246.217.246.216.247.215.246.213.246.213.247.211.246.21.246.208.247.206.246.203.246.202.247.2.246.197.246.194.247.192.246.19.246.185.247.183.246.179.246.176.247.172.246.169.246.165.247.16.246.157.247.153.246.148.246.144.247.139.246.134.246.13.247.125.246.12.246.114.247.11.246.104.246.099.247.093.246.088.246.083.247.076.246.071.246.065.247.06.246.053.246.048.247.041.246.036.246.03.247.023.246.017.247.012.246.005.246-.001.247-.007.246-.013.246-.019.247-.025.246-.031.246-.038.247-.043.246-.049.246-.055.247-.06.246-.068.246-.072.247-.078.246-.084.246-.09.247-.095.246-.1.246-.106.247-.11.246-.117.246-.12.247-.127.246-.13.246-.137.247-.14.246-.145.247-.15.246-.153.246-.158.247-.162.246-.166.246-.17.247-.173.246-.177.246-.18.247-.183.246-.187.246-.19.247-.192.246-.196.246-.197.247-.2.246-.203.246-.204.247-.207.246-.208.246-.21.247-.212.246-.213.246-.214.247-.215.246-.216.246-.217.247-.218.246-.218.247-.219.246-.218.246-.22.247-.218.246-.22.246-.218.247-.218.246-.218.246-.217.247-.216.246-.216.246-.214.247-.214.246-.213.246-.211.247-.21.246-.209.246-.207.247-.206.246-.204.246-.203.247-.201.246-.2.246-.197.247-.196.246-.194.246-.192.247-.19.246-.189.247-.186.246-.185.246-.182.247-.181.246-.179.246-.177.247-.175.246-.174.246-.171.247-.17.246-.169.246-.166.247-.165.246-.163.246-.162.247-.161.246-.16.246-.157.247-.157.246-.155.246-.155.247-.154.246-.152.246-.152.247-.151.246-.151.247-.15.246-.15.246-.15.247-.149.246-.15.246-.148.247-.15.246-.15.246-.149.247-.15.246-.15.246-.152.247-.152.246-.153.246-.154.247-.154.246-.156.246-.157.247-.158.246-.16.246-.161.247-.162.246-.165.246-.165.247-.168.246-.169.246-.17.247-.174.246-.174.247-.177.246-.18.246-.18.247-.183.246-.185.246-.187.247-.19.246-.191.246-.194.247-.196.246-.198.246-.2.247-.203.246-.204.246-.207.247-.209.246-.21.246-.214.247-.214.246-.217.246-.22.247-.22.246-.222.246-.224.247-.226.246-.227.246-.23.247-.23.246-.231.247-.233.246-.234.246-.235.247-.237.246-.237.246-.238.247-.238.246-.24.246-.239.247-.24.246-.24.246-.24.247-.241.246-.24.246-.241.247-.24.246-.24.246-.239.247-.238.246-.238.246-.236.247-.236.246-.235.246-.233.247-.232.246-.231.246-.23.247-.227.246-.225.247-.224.246-.222.246-.22.247-.217.246-.215.246-.213.247-.21.246-.208.246-.205.247-.202.246-.199.246-.196.247-.193.246-.19.246-.187.247-.183.246-.18.246-.177.247-.173.246-.17.246-.166.247-.162.246-.158.246-.155.247-.15.246-.147.247-.142.246-.139.246-.134.247-.13.246-.126.246-.122.247-.117.246-.114.246-.108.247-.105.246-.1.246-.095.247-.09.246-.087.246-.082.247-.078.246-.072.246-.069.247-.063.246-.059.246-.054.247-.05.246-.045.246-.04.247-.036.246-.03.246-.027.247-.021.246-.017.247-.012.246-.007.246-.003.247.002.246.007.246.012.247.016.246.02.246.026.247.03.246.036.246.039.247.044.246.049.246.053.247.058.246.062.246.067.247.072.246.075.246.08.247.085.246.09.246.092.247.098.246.102.246.106.247.11.246.114.247.118.246.122.246.127.247.13.246.134.246.137.247.141.246.145.246.149.247.152.246.155.246.158.247.162.246.165.246.168.247.17.246.174.246.177.247.179.246.181.246.184.247.186.246.189.246.19.247.193.246.194.246.196.247.197.246.199.247.2.246.201.246.202.247.203.246.204.246.204.247.205.246.205.246.204.247.205.246.205.246.204.247.203.246.203.246.202.247.2.246.2.246.198.247.197.246.194.246.193.247.19.246.19.246.185.247.184.246.18.246.178.247.175.246.171.247.168.246.165.246.16.247.157.246.153.246.148.247.145.246.14.246.135.247.13.246.126.246.12.247.116.246.11.246.106.247.1.246.093.246.089.247.082.246.077.246.072.247.065.246.059.246.053.247.047.246.04.247.035.246.028.246.022.247.016.246.01.246.002.247Z" fill="#FFF"/>
      <path d="m433.517 269.217.003-.247.01-.246.015-.246.022-.247.028-.246.035-.246.04-.247.047-.246.053-.247.06-.246.065-.246.07-.247.078-.246.082-.246.089-.247.094-.246.1-.246.105-.247.11-.246.116-.246.12-.247.126-.246.13-.246.136-.247.14-.246.144-.246.148-.247.153-.246.157-.246.16-.247.165-.246.168-.246.171-.247.175-.246.178-.247.18-.246.184-.246.186-.247.188-.246.19-.246.194-.247.194-.246.197-.246.198-.247.2-.246.2-.246.202-.247.203-.246.203-.246.204-.247.205-.246.205-.246.205-.247.204-.246.205-.246.204-.247.204-.246.203-.246.202-.247.201-.246.2-.246.199-.247.197-.246.196-.247.194-.246.193-.246.19-.247.189-.246.186-.246.184-.247.181-.246.18-.246.176-.247.173-.246.171-.246.168-.247.165-.246.162-.246.158-.247.156-.246.151-.246.149-.247.145-.246.141-.246.138-.247.133-.246.13-.246.127-.247.122-.246.118-.246.114-.247.11-.246.106-.247.102-.246.098-.246.093-.247.089-.246.085-.246.08-.247.076-.246.071-.246.067-.247.062-.246.058-.246.053-.247.049-.246.044-.246.04-.247.034-.246.03-.246.026-.247.021-.246.016-.246.012-.247.007-.246.002-.246-.003-.247-.007-.246-.012-.246-.017-.247-.021-.246-.026-.247-.031-.246-.036-.246-.04-.247-.045-.246-.05-.246-.054-.247-.059-.246-.063-.246-.068-.247-.073-.246-.078-.246-.081-.247-.087-.246-.09-.246-.096-.247-.1-.246-.105-.246-.108-.247-.113-.246-.118-.246-.122-.247-.126-.246-.13-.246-.134-.247-.139-.246-.142-.246-.147-.247-.15-.246-.155-.247-.158-.246-.162-.246-.166-.247-.17-.246-.173-.246-.176-.247-.18-.246-.184-.246-.187-.247-.19-.246-.193-.246-.196-.247-.2-.246-.201-.246-.205-.247-.208-.246-.21-.246-.213-.247-.215-.246-.217-.246-.22-.247-.222-.246-.224-.246-.225-.247-.228-.246-.229-.247-.23-.246-.233-.246-.233-.247-.235-.246-.235-.246-.237-.247-.238-.246-.238-.246-.24-.247-.239-.246-.24-.246-.24-.247-.24-.246-.241-.246-.24-.247-.24-.246-.24-.246-.24-.247-.24-.246-.238-.246-.238-.247-.237-.246-.237-.246-.235-.247-.234-.246-.233-.246-.231-.247-.23-.246-.23-.247-.227-.246-.226-.246-.224-.247-.222-.246-.22-.246-.22-.247-.216-.246-.215-.246-.213-.247-.211-.246-.209-.246-.207-.247-.204-.246-.203-.246-.2-.247-.198-.246-.196-.246-.194-.247-.191-.246-.19-.246-.187-.247-.185-.246-.183-.246-.18-.247-.18-.246-.176-.246-.175-.247-.173-.246-.171-.247-.17-.246-.167-.246-.165-.247-.164-.246-.163-.246-.16-.247-.16-.246-.159-.246-.157-.247-.155-.246-.155-.246-.154-.247-.153-.246-.152-.246-.151-.247-.15-.246-.151-.246-.15-.247-.15-.246-.149-.246-.149-.247-.149-.246-.15-.246-.149-.247-.15-.246-.15-.246-.15-.247-.152-.246-.152-.247-.152-.246-.154-.246-.154-.247-.156-.246-.157-.246-.158-.247-.159-.246-.16-.246-.162-.247-.164-.246-.165-.246-.166-.247-.169-.246-.17-.246-.171-.247-.174-.246-.175-.246-.177-.247-.179-.246-.18-.246-.183-.247-.185-.246-.186-.246-.189-.247-.19-.246-.192-.247-.194-.246-.196-.246-.197-.247-.2-.246-.2-.246-.203-.247-.205-.246-.206-.246-.207-.247-.209-.246-.21-.246-.211-.247-.213-.246-.213-.246-.215-.247-.216-.246-.216-.246-.217-.247-.218-.246-.218-.246-.219-.247-.219-.246-.219-.246-.218-.247-.22-.246-.218-.246-.218-.247-.218-.246-.217-.247-.216-.246-.215-.246-.214-.247-.213-.246-.212-.246-.21-.247-.208-.246-.206-.246-.205-.247-.202-.246-.2-.246-.198-.247-.196-.246-.192-.246-.19-.247-.186-.246-.184-.246-.18-.247-.177-.246-.174-.246-.17-.247-.165-.246-.162-.246-.158-.247-.154-.246-.149-.246-.145-.247-.14-.246-.136-.247-.131-.246-.126-.246-.121-.247-.116-.246-.111-.246-.106-.247-.1-.246-.095-.246-.09-.247-.083-.246-.079-.246-.072-.247-.067-.246-.06-.246-.056-.247-.05-.246-.042-.246-.037-.247-.032-.246-.025-.246-.019-.247-.013-.246-.007-.246v-.247l.005-.246.01-.246.018-.247.024-.246.03-.247.035-.246.042-.246.047-.247.054-.246.059-.246.065-.247.071-.246.077-.246.082-.247.088-.246.093-.246.1-.247.103-.246.11-.246.114-.247.12-.246.125-.246.13-.247.134-.246.14-.246.143-.247.148-.246.153-.246.156-.247.161-.246.165-.247.169-.246.172-.246.176-.247.18-.246.182-.246.186-.247.189-.246.192-.246.194-.247.197-.246.2-.246.202-.247.204-.246.206-.246.207-.247.21-.246.211-.246.213-.247.213-.246.215-.246.216-.247.217-.246.218-.246.218-.247.218-.246.219-.246.219-.247.219-.246.219-.247.218-.246.219-.246.217-.247.218-.246.216-.246.216-.247.215-.246.214-.246.213-.247.212-.246.21-.246.21-.247.207-.246.206-.246.205-.247.203-.246.202-.246.2-.247.198-.246.196-.246.194-.247.193-.246.19-.246.19-.247.187-.246.185-.246.183-.247.181-.246.18-.247.177-.246.176-.246.174-.247.172-.246.17-.246.169-.247.167-.246.165-.246.164-.247.163-.246.16-.246.16-.247.158-.246.157-.246.156-.247.155-.246.154-.246.153-.247.152-.246.152-.246.15-.247.15-.246.15-.246.15-.247.15-.246.149-.246.149-.247.15-.246.149-.247.15-.246.15-.246.15-.247.151-.246.152-.246.153-.247.154-.246.154-.246.156-.247.156-.246.158-.246.16-.247.16-.246.162-.246.164-.247.165-.246.168-.246.168-.247.17-.246.173-.246.175-.247m42.966 125.883-.004-.247-.009-.246-.016-.246-.022-.247-.028-.246-.034-.246-.041-.247-.047-.246-.053-.247-.06-.246-.064-.246-.072-.247-.077-.246-.082-.246-.089-.247-.094-.246-.1-.246-.105-.247-.11-.246-.115-.246-.121-.247-.126-.246-.13-.246-.136-.247-.14-.246-.144-.246-.148-.247-.153-.246-.157-.246-.16-.247-.165-.246-.168-.246-.171-.247-.175-.246-.178-.247-.18-.246-.184-.246-.186-.247-.188-.246-.19-.246-.194-.247-.194-.246-.197-.246-.198-.247-.2-.246-.2-.246-.202-.247-.203-.246-.203-.246-.204-.247-.205-.246-.205-.246-.204-.247-.205-.246-.205-.246-.204-.247-.204-.246-.203-.246-.202-.247-.201-.246-.2-.246-.199-.247-.197-.246-.196-.247-.194-.246-.193-.246-.19-.247-.189-.246-.186-.246-.184-.247-.181-.246-.18-.246-.176-.247-.173-.246-.171-.246-.168-.247-.165-.246-.162-.246-.158-.247-.155-.246-.152-.246-.149-.247-.145-.246-.14-.246-.138-.247-.134-.246-.13-.246-.127-.247-.122-.246-.118-.246-.114-.247-.11-.246-.106-.247-.102-.246-.098-.246-.093-.247-.089-.246-.084-.246-.08-.247-.076-.246-.072-.246-.067-.247-.062-.246-.058-.246-.053-.247-.049-.246-.044-.246-.04-.247-.034-.246-.03-.246-.026-.247-.021-.246-.016-.246-.012-.247-.007-.246-.002-.246.003-.247.007-.246.012-.246.017-.247.021-.246.027-.247.03-.246.036-.246.04-.247.045-.246.05-.246.054-.247.059-.246.063-.246.069-.247.072-.246.078-.246.082-.247.086-.246.091-.246.095-.247.1-.246.105-.246.108-.247.114-.246.117-.246.122-.247.126-.246.13-.246.134-.247.139-.246.142-.246.147-.247.15-.246.155-.247.158-.246.162-.246.166-.247.17-.246.173-.246.176-.247.18-.246.184-.246.187-.247.19-.246.193-.246.196-.247.2-.246.201-.246.205-.247.208-.246.21-.246.213-.247.215-.246.217-.246.22-.247.222-.246.224-.246.225-.247.228-.246.229-.247.23-.246.233-.246.233-.247.235-.246.236-.246.236-.247.238-.246.238-.246.24-.247.239-.246.24-.246.24-.247.24-.246.241-.246.24-.247.241-.246.24-.246.24-.247.239-.246.238-.246.238-.247.237-.246.237-.246.235-.247.234-.246.233-.246.232-.247.23-.246.229-.247.227-.246.226-.246.224-.247.222-.246.22-.246.22-.247.217-.246.214-.246.213-.247.211-.246.21-.246.206-.247.204-.246.203-.246.2-.247.198-.246.196-.246.194-.247.191-.246.19-.246.187-.247.185-.246.183-.246.18-.247.18-.246.177-.246.174-.247.173-.246.171-.247.17-.246.167-.246.165-.247.165-.246.162-.246.161-.247.16-.246.158-.246.157-.247.156-.246.154-.246.154-.247.153-.246.152-.246.151-.247.15-.246.151-.246.15-.247.15-.246.149-.246.149-.247.15-.246.148-.246.15-.247.15-.246.15-.246.15-.247.152-.246.152-.247.152-.246.154-.246.155-.247.155-.246.157-.246.158-.247.159-.246.16-.246.163-.247.163-.246.165-.246.166-.247.169-.246.17-.246.171-.247.174-.246.175-.246.177-.247.179-.246.18-.246.183-.247.185-.246.186-.246.189-.247.19-.246.192-.247.194-.246.196-.246.197-.247.2-.246.2-.246.204-.247.204-.246.206-.246.207-.247.209-.246.21-.246.211-.247.213-.246.214-.246.214-.247.216-.246.216-.246.217-.247.218-.246.218-.246.219-.247.219-.246.219-.246.219-.247.218-.246.219-.246.218-.247.218-.246.217-.247.216-.246.215-.246.214-.247.213-.246.212-.246.21-.247.208-.246.207-.246.204-.247.202-.246.2-.246.198-.247.196-.246.192-.246.19-.247.187-.246.183-.246.18-.247.177-.246.174-.246.17-.247.165-.246.162-.246.158-.247.154-.246.15-.246.144-.247.14-.246.136-.247.131-.246.126-.246.121-.247.117-.246.11-.246.106-.247.1-.246.095-.246.09-.247.084-.246.078-.246.072-.247.067-.246.061-.246.055-.247.05-.246.042-.246.038-.247.03-.246.026-.246.02-.247.012-.246.007-.246v-.247l-.004-.246-.012-.246-.017-.247-.024-.246-.03-.247-.035-.246-.041-.246-.048-.247-.053-.246-.06-.246-.065-.247-.07-.246-.077-.246-.083-.247-.088-.246-.093-.246-.099-.247-.104-.246-.11-.246-.114-.247-.12-.246-.125-.246-.13-.247-.134-.246-.14-.246-.143-.247-.148-.246-.153-.246-.156-.247-.161-.246-.165-.247-.169-.246-.172-.246-.176-.247-.18-.246-.182-.246-.186-.247-.189-.246-.192-.246-.194-.247-.197-.246-.2-.246-.202-.247-.203-.246-.206-.246-.208-.247-.21-.246-.211-.246-.213-.247-.213-.246-.215-.246-.216-.247-.217-.246-.217-.246-.218-.247-.219-.246-.219-.246-.219-.247-.219-.246-.218-.247-.22-.246-.217-.246-.218-.247-.218-.246-.216-.246-.216-.247-.215-.246-.214-.246-.213-.247-.211-.246-.211-.246-.21-.247-.207-.246-.206-.246-.205-.247-.203-.246-.202-.246-.2-.247-.197-.246-.197-.246-.194-.247-.193-.246-.19-.246-.19-.247-.186-.246-.186-.246-.183-.247-.181-.246-.18-.247-.177-.246-.176-.246-.174-.247-.172-.246-.17-.246-.169-.247-.167-.246-.165-.246-.164-.247-.162-.246-.161-.246-.16-.247-.158-.246-.157-.246-.156-.247-.155-.246-.154-.246-.153-.247-.152-.246-.151-.246-.151-.247-.15-.246-.15-.246-.15-.247-.15-.246-.149-.246-.149-.247-.15-.246-.149-.247-.15-.246-.15-.246-.15-.247-.151-.246-.152-.246-.153-.247-.153-.246-.155-.246-.155-.247-.157-.246-.158-.246-.16-.247-.16-.246-.162-.246-.164-.247-.165-.246-.167-.246-.17-.247-.17-.246-.172-.246-.175-.247" fill="none" stroke-width="1.65" stroke="#474747"/>
      <path d="M124.019 303.548a9.539 9.539 0 0 0 19.077 0 9.539 9.539 0 0 0-19.077 0Zm-4.769-40.053a9.538 9.538 0 0 0 19.076 0 9.538 9.538 0 0 0-19.076 0Z" fill="#FFF" stroke-width="1.65" stroke="#000"/>
      <path d="M128.788 263.495a9.539 9.539 0 0 0 19.077 0 9.539 9.539 0 0 0-19.077 0Zm-38.154-22.888a9.539 9.539 0 0 0 19.077 0 9.539 9.539 0 0 0-19.077 0Z" fill="#FFF" stroke-width="1.65" stroke="#000"/>
      <path d="M100.173 240.607a9.539 9.539 0 0 0 19.077 0 9.539 9.539 0 0 0-19.077 0Z" fill="#FFF" stroke-width="1.65" stroke="#000"/>
      <path d="M109.711 240.607a9.539 9.539 0 0 0 19.077 0 9.539 9.539 0 0 0-19.077 0Z" fill="#FFF" stroke-width="1.65" stroke="#000"/>
      <path d="M119.25 240.607a9.538 9.538 0 0 0 19.076 0 9.538 9.538 0 0 0-19.076 0Z" fill="#FFF" stroke-width="1.65" stroke="#000"/>
      <path d="M128.788 240.607a9.539 9.539 0 0 0 19.077 0 9.539 9.539 0 0 0-19.077 0Z" fill="#FFF" stroke-width="1.65" stroke="#000"/>
      <path d="M138.326 240.607a9.539 9.539 0 0 0 19.077 0 9.539 9.539 0 0 0-19.077 0Z" fill="#FFF" stroke-width="1.65" stroke="#000"/>
      <path d="M147.865 240.607a9.539 9.539 0 0 0 19.077 0 9.539 9.539 0 0 0-19.077 0Z" fill="#FFF" stroke-width="1.65" stroke="#000"/>
      <path d="M157.403 240.607a9.539 9.539 0 0 0 19.077 0 9.539 9.539 0 0 0-19.077 0Zm-57.23-22.887a9.539 9.539 0 0 0 19.077 0 9.539 9.539 0 0 0-19.077 0Z" fill="#FFF" stroke-width="1.65" stroke="#000"/>
      <path d="M109.711 217.72a9.539 9.539 0 0 0 19.077 0 9.539 9.539 0 0 0-19.077 0Z" fill="#FFF" stroke-width="1.65" stroke="#000"/>
      <path d="M119.25 217.72a9.538 9.538 0 0 0 19.076 0 9.538 9.538 0 0 0-19.076 0Z" fill="#FFF" stroke-width="1.65" stroke="#000"/>
      <path d="M128.788 217.72a9.539 9.539 0 0 0 19.077 0 9.539 9.539 0 0 0-19.077 0Z" fill="#FFF" stroke-width="1.65" stroke="#000"/>
      <path d="M138.326 217.72a9.539 9.539 0 0 0 19.077 0 9.539 9.539 0 0 0-19.077 0Z" fill="#FFF" stroke-width="1.65" stroke="#000"/>
      <path d="M147.865 217.72a9.539 9.539 0 0 0 19.077 0 9.539 9.539 0 0 0-19.077 0Zm-28.615-45.776a9.538 9.538 0 0 0 19.076 0 9.538 9.538 0 0 0-19.076 0Z" fill="#FFF" stroke-width="1.65" stroke="#000"/>
      <path d="M128.788 171.944a9.539 9.539 0 0 0 19.077 0 9.539 9.539 0 0 0-19.077 0Z" fill="#FFF" stroke-width="1.65" stroke="#000"/>
      <path d="M124.019 154.778a9.539 9.539 0 0 0 19.077 0 9.539 9.539 0 0 0-19.077 0Zm-14.308-28.61a9.539 9.539 0 0 0 19.077 0 9.539 9.539 0 0 0-19.077 0Z" fill="#FFF" stroke-width="1.65" stroke="#000"/>
      <path d="M119.25 126.168a9.538 9.538 0 0 0 19.076 0 9.538 9.538 0 0 0-19.076 0Z" fill="#FFF" stroke-width="1.65" stroke="#000"/>
      <path d="M128.788 126.168a9.539 9.539 0 0 0 19.077 0 9.539 9.539 0 0 0-19.077 0Z" fill="#FFF" stroke-width="1.65" stroke="#000"/>
      <path d="M138.326 126.168a9.539 9.539 0 0 0 19.077 0 9.539 9.539 0 0 0-19.077 0Zm145.115 74.385a9.539 9.539 0 0 0 19.078 0 9.539 9.539 0 0 0-19.077 0Zm-4.768-40.053a9.539 9.539 0 0 0 19.077 0 9.539 9.539 0 0 0-19.077 0Z" fill="#FFF" stroke-width="1.65" stroke="#000"/>
      <path d="M288.211 160.5a9.539 9.539 0 0 0 19.077 0 9.539 9.539 0 0 0-19.077 0Zm-47.692-22.888a9.539 9.539 0 0 0 19.077 0 9.539 9.539 0 0 0-19.077 0Z" fill="#FFF" stroke-width="1.65" stroke="#000"/>
      <path d="M250.057 137.612a9.539 9.539 0 0 0 19.077 0 9.539 9.539 0 0 0-19.077 0Z" fill="#FFF" stroke-width="1.65" stroke="#000"/>
      <path d="M259.596 137.612a9.539 9.539 0 0 0 19.077 0 9.539 9.539 0 0 0-19.077 0Z" fill="#FFF" stroke-width="1.65" stroke="#000"/>
      <path d="M269.134 137.612a9.539 9.539 0 0 0 19.077 0 9.539 9.539 0 0 0-19.077 0Z" fill="#FFF" stroke-width="1.65" stroke="#000"/>
      <path d="M278.673 137.612a9.539 9.539 0 0 0 19.077 0 9.539 9.539 0 0 0-19.077 0Z" fill="#FFF" stroke-width="1.65" stroke="#000"/>
      <path d="M288.211 137.612a9.539 9.539 0 0 0 19.077 0 9.539 9.539 0 0 0-19.077 0Z" fill="#FFF" stroke-width="1.65" stroke="#000"/>
      <path d="M297.75 137.612a9.539 9.539 0 0 0 19.077 0 9.539 9.539 0 0 0-19.077 0Z" fill="#FFF" stroke-width="1.65" stroke="#000"/>
      <path d="M307.288 137.612a9.539 9.539 0 0 0 19.077 0 9.539 9.539 0 0 0-19.077 0Z" fill="#FFF" stroke-width="1.65" stroke="#000"/>
      <path d="M316.827 137.612a9.538 9.538 0 0 0 19.076 0 9.538 9.538 0 0 0-19.076 0Z" fill="#FFF" stroke-width="1.65" stroke="#000"/>
      <path d="M326.365 137.612a9.539 9.539 0 0 0 19.077 0 9.539 9.539 0 0 0-19.077 0Zm-62-22.887a9.539 9.539 0 0 0 19.077 0 9.539 9.539 0 0 0-19.077 0Z" fill="#FFF" stroke-width="1.65" stroke="#000"/>
      <path d="M273.903 114.725a9.539 9.539 0 0 0 19.077 0 9.539 9.539 0 0 0-19.077 0Z" fill="#FFF" stroke-width="1.65" stroke="#000"/>
      <path d="M283.441 114.725a9.539 9.539 0 0 0 19.078 0 9.539 9.539 0 0 0-19.077 0Z" fill="#FFF" stroke-width="1.65" stroke="#000"/>
      <path d="M292.981 114.725a9.538 9.538 0 0 0 19.076 0 9.539 9.539 0 0 0-19.077 0Z" fill="#FFF" stroke-width="1.65" stroke="#000"/>
      <path d="M302.519 114.725a9.539 9.539 0 0 0 19.077 0 9.539 9.539 0 0 0-19.077 0Zm-19.078-40.054a9.539 9.539 0 0 0 19.078 0 9.539 9.539 0 0 0-19.077 0Zm0-57.219a9.539 9.539 0 0 0 19.078 0 9.539 9.539 0 0 0-19.077 0Zm159.424 251.765a9.539 9.539 0 0 0 19.077 0 9.539 9.539 0 0 0-19.077 0Zm0-57.22a9.539 9.539 0 0 0 19.077 0 9.539 9.539 0 0 0-19.077 0Zm-4.769-28.609a9.539 9.539 0 0 0 19.077 0 9.539 9.539 0 0 0-19.077 0Z" fill="#FFF" stroke-width="1.65" stroke="#000"/>
      <path d="M447.634 183.388a9.539 9.539 0 0 0 19.077 0 9.539 9.539 0 0 0-19.077 0Z" fill="#FFF" stroke-width="1.65" stroke="#000"/>
      <path d="M442.865 166.222a9.539 9.539 0 0 0 19.077 0 9.539 9.539 0 0 0-19.077 0Zm0-22.888a9.539 9.539 0 0 0 19.077 0 9.539 9.539 0 0 0-19.077 0Z" fill="#FFF" stroke-width="1.65" stroke="#000"/>
      <defs>
        <clipPath id="cmn3ySi">
          <path d="M21.961 0H564v321H21.961z"/>
        </clipPath>
      </defs>
      <defs>
        <clipPath id="c9bOuYb">
          <path d="M21.961 0H564v321H21.961z"/>
        </clipPath>
      </defs>
    </g>
    <path stroke="#474747" d="M163.057 347.5v4"/>
    <text class="axis-text-x" text-anchor="middle" dy=".7em" transform="translate(163.057 354.5)"><tspan>4</tspan></text>
    <path stroke="#474747" d="M322.481 347.5v4"/>
    <text class="axis-text-x" text-anchor="middle" dy=".7em" transform="translate(322.481 354.5)"><tspan>f</tspan></text>
    <path stroke="#474747" d="M481.904 347.5v4"/>
    <text class="axis-text-x" text-anchor="middle" dy=".7em" transform="translate(481.904 354.5)"><tspan>r</tspan></text>
    <path stroke="#474747" d="M51.461 347.5H593.5"/>
    <text class="axis-text-y" text-anchor="end" dy=".35em" transform="translate(48.461 295.717)"><tspan>15</tspan></text>
    <text class="axis-text-y" text-anchor="end" dy=".35em" transform="translate(48.461 238.497)"><tspan>20</tspan></text>
    <text class="axis-text-y" text-anchor="end" dy=".35em" transform="translate(48.461 181.278)"><tspan>25</tspan></text>
    <text class="axis-text-y" text-anchor="end" dy=".35em" transform="translate(48.461 124.059)"><tspan>30</tspan></text>
    <text class="axis-text-y" text-anchor="end" dy=".35em" transform="translate(48.461 66.84)"><tspan>35</tspan></text>
    <text style="fill:#474747;font-family:Lucida Grande,sans-serif;font-size:16px;font-weight:400;font-style:normal" transform="translate(51.461 16.8)"><tspan>violin + ydotplot (method=&apos;dotdensity&apos;)</tspan></text>
    <text text-anchor="middle" style="fill:#474747;font-family:Lucida Grande,sans-serif;font-size:15px;font-weight:400;font-style:normal" transform="rotate(-90 101.5 85.5)"><tspan>hwy</tspan></text>
    <text text-anchor="middle" style="fill:#474747;font-family:Lucida Grande,sans-serif;font-size:15px;font-weight:400;font-style:normal" transform="translate(322.48 393)"><tspan>drv</tspan></text>
    <path fill-opacity="0" stroke="#474747" stroke-width="0" d="M0 0v400h600V0Z"/>
  </g>
  <g id="dMNuFCx">
    <g/>
    <g/>
  </g>
</svg>
