<svg xmlns="http://www.w3.org/2000/svg" version="1.1" id="Layer_1" x="0" y="0" viewBox="0 0 303 204.4" xml:space="preserve"><style>.st1{fill:none;stroke-width:.2835;stroke-miterlimit:10;stroke:#4d4d4d}.st2{font-family:&quot;Roboto&quot;,sans-serif;font-weight:300}.st3{font-size:6px}.st4,.st5,.st6{fill:#78b8ef;fill-opacity:.5;stroke:#78b8ef;stroke-width:.2835;stroke-miterlimit:10}.st5,.st6{fill:#f69490;fill-opacity:.51;stroke:#c98590}.st6{fill:#c1d8a5;stroke:#acc797}.st7{font-family:&quot;Roboto&quot;,sans-serif;font-weight:400}.st8{font-size:5px}.st9{font-size:4px}.st10{fill:none;stroke:#78b8ef;stroke-width:.2835;stroke-miterlimit:10}</style><path d="M31.7 148.8h195.6M67.9 37.2v143m31.9-143v143m32-143-.1 143m31.8-143v143m31.9-143v143m32-143-.1 143M31.7 120.9h195.6M31.7 93h195.6M31.7 65.1h195.6M31.7 37.2h195.6" style="fill:none;stroke:#d9d9d9;stroke-width:.2835;stroke-miterlimit:10"/><g id="ai2html-settings"/><path class="st1" d="M32.7 176.6h194.6"/><text transform="translate(22.372 37.799)" class="st2 st3">7.5</text><text transform="translate(22.199 65.679)" class="st2 st3">6.0</text><text transform="translate(22.372 93.56)" class="st2 st3">4.5</text><text transform="translate(22.199 121.439)" class="st2 st3">3.0</text><text transform="translate(22.372 149.319)" class="st2 st3">1.5</text><text transform="translate(22.026 177.199)" class="st2 st3">0.0</text><text transform="translate(33.709 186.068)" class="st2 st3">60</text><text transform="translate(65.508 186.068)" class="st2 st3">65</text><text transform="translate(97.135 186.068)" class="st2 st3">70</text><text transform="translate(128.935 186.068)" class="st2 st3">75</text><text transform="translate(160.562 186.068)" class="st2 st3">80</text><text transform="translate(192.362 186.069)" class="st2 st3">85</text><text transform="translate(223.989 186.069)" class="st2 st3">90</text><circle class="st4" cx="151.3" cy="137.5" r="14.3"/><circle class="st5" cx="74" cy="151.4" r="10.2"/><circle class="st6" cx="109.5" cy="144.3" r="7.4"/><circle class="st6" cx="79.5" cy="114.3" r="2.2"/><circle class="st5" cx="167.3" cy="156.1" r="7.4"/><circle class="st5" cx="173.2" cy="139.6" r="5.5"/><circle class="st5" cx="159.1" cy="149.5" r="1.4"/><circle class="st4" cx="179.4" cy="151.8" r="4.2"/><circle class="st6" cx="200.2" cy="98.1" r="4.2"/><circle class="st4" cx="240.8" cy="38.7" r="2.8"/><circle class="st5" cx="240.8" cy="46.7" r="2.8"/><circle class="st6" cx="240.8" cy="54.7" r="2.8"/><circle class="st6" cx="117.7" cy="120.7" r="7.4"/><circle class="st6" cx="54" cy="58.1" r="3.1"/><text transform="translate(113.74 195.348)" class="st7 st8">Life Expectancy</text><text transform="translate(147.607 139.595)" class="st7 st9">USA</text><text transform="translate(169.39 141.238)" class="st7 st9">GER</text><text transform="translate(163.545 157.808)" class="st7 st9">FRA</text><text transform="translate(183.943 153.525)" class="st7 st9">CAN</text><text transform="translate(58.431 60.035)" class="st7 st9">IRQ</text><text transform="translate(83.002 115.57)" class="st7 st9">IRQ</text><text transform="translate(150.25 152.936)" class="st7 st9">SWI</text><text transform="translate(205.535 99.71)" class="st7 st9">ISR</text><text transform="translate(70.654 152.937)" class="st7 st9">SPA</text><text transform="translate(106.45 145.896)" class="st7 st9">IRN</text><text transform="translate(114.527 122.328)" class="st7 st9">EGY</text><text transform="translate(238.033 110.489)" class="st7 st8">Population, mln</text><text transform="translate(246.834 40.883)" class="st7 st8">North America</text><text transform="translate(246.834 48.883)" class="st7 st8">Europe</text><text transform="translate(246.834 56.883)" class="st7 st8">Middle East</text><text transform="rotate(-90 68.745 52.325)" class="st7 st8">Fertility Rate</text><path class="st1" d="M36 37.2v143"/><text transform="translate(252.191 98.373)" class="st2 st9">1</text><circle class="st10" cx="253.3" cy="87.9" r="14.3"/><circle class="st10" cx="253.3" cy="92.1" r="10.2"/><circle class="st10" cx="253.3" cy="94.8" r="7.4"/><circle class="st10" cx="253.3" cy="100.8" r="1.4"/><circle class="st10" cx="253.3" cy="98.1" r="4.2"/><text transform="translate(252.191 92.83)" class="st2 st9">5</text><text transform="translate(251.025 86.424)" class="st2 st9">20</text><text transform="translate(251.025 80.915)" class="st2 st9">50</text><text transform="translate(249.86 72.345)" class="st2 st9">100</text><text transform="translate(13.673 20.772)" class="st3" style="font-family:&quot;Roboto&quot;,sans-serif;font-weight:700">Correlation among life expectancy, fertility rate and population of some countries in some year</text></svg>