<svg xmlns="http://www.w3.org/2000/svg" width="800" height="800" viewBox="0 0 800 800" fill="none">
<path d="M111.434 616.691H687.914" stroke="#0A3C47" stroke-opacity="0.12" stroke-width="1.1456" stroke-miterlimit="4.0009"/>
<path d="M111.434 548.382H687.914" stroke="#0A3C47" stroke-opacity="0.12" stroke-width="1.1456" stroke-miterlimit="4.0009"/>
<path d="M111.434 480.042H687.914" stroke="#0A3C47" stroke-opacity="0.12" stroke-width="1.1456" stroke-miterlimit="4.0009"/>
<path d="M111.434 411.731H687.914" stroke="#0A3C47" stroke-opacity="0.12" stroke-width="1.1456" stroke-miterlimit="4.0009"/>
<path d="M111.434 343.392H687.914" stroke="#0A3C47" stroke-opacity="0.12" stroke-width="1.1456" stroke-miterlimit="4.0009"/>
<path d="M111.434 275.051H687.914" stroke="#0A3C47" stroke-opacity="0.12" stroke-width="1.1456" stroke-miterlimit="4.0009"/>
<path d="M111.434 206.741H687.914" stroke="#0A3C47" stroke-opacity="0.12" stroke-width="1.1456" stroke-miterlimit="4.0009"/>
<path d="M111.434 138.401H687.914" stroke="#0A3C47" stroke-opacity="0.12" stroke-width="1.1456" stroke-miterlimit="4.0009"/>
<path d="M255.554 138.401V685.001" stroke="#0A3C47" stroke-opacity="0.12" stroke-width="1.1456" stroke-miterlimit="4.0009"/>
<path d="M399.674 138.401V685.001" stroke="#0A3C47" stroke-opacity="0.12" stroke-width="1.1456" stroke-miterlimit="4.0009"/>
<path d="M543.794 138.401V685.001" stroke="#0A3C47" stroke-opacity="0.12" stroke-width="1.1456" stroke-miterlimit="4.0009"/>
<path d="M687.914 138.401V685.001" stroke="#0A3C47" stroke-opacity="0.12" stroke-width="1.1456" stroke-miterlimit="4.0009"/>
<path d="M259.844 405.012C259.844 435.252 235.334 459.732 205.094 459.732C174.854 459.732 150.344 435.222 150.344 405.012C150.344 374.772 174.854 350.292 205.094 350.292C235.334 350.262 259.844 374.772 259.844 405.012Z" fill="#2A9D8F"/>
<path d="M406.184 227.231C406.184 254.711 383.924 276.971 356.444 276.971C328.964 276.971 306.704 254.711 306.704 227.231C306.704 199.751 328.964 177.491 356.414 177.491C383.894 177.491 406.184 199.751 406.184 227.231Z" fill="#E77052"/>
<path d="M626.174 391.241C626.174 416.831 605.414 437.591 579.794 437.591C554.204 437.591 533.414 416.831 533.414 391.241C533.414 365.651 554.174 344.891 579.794 344.891C605.414 344.891 626.174 365.651 626.174 391.241Z" fill="#0A3C47"/>
<path d="M323.864 603.071C323.864 620.891 309.404 635.351 291.584 635.351C273.764 635.351 259.304 620.891 259.304 603.071C259.304 585.251 273.764 570.791 291.584 570.791C309.404 570.791 323.864 585.221 323.864 603.071Z" fill="#0A3C47"/>
<path d="M381.944 589.422C381.944 603.522 370.514 614.952 356.414 614.952C342.314 614.952 330.884 603.522 330.884 589.422C330.884 575.322 342.314 563.892 356.414 563.892C370.514 563.892 381.944 575.322 381.944 589.422Z" fill="#2A9D8F"/>
<path d="M534.734 527.861C534.734 538.781 525.884 547.631 514.964 547.631C504.044 547.631 495.194 538.781 495.194 527.861C495.194 516.941 504.044 508.091 514.964 508.091C525.884 508.091 534.734 516.941 534.734 527.861Z" fill="#0A3C47"/>
<path d="M288.014 541.452C288.014 551.412 279.944 559.512 269.954 559.512C259.994 559.512 251.894 551.442 251.894 541.452C251.894 531.462 259.964 523.392 269.954 523.392C279.914 523.392 288.014 531.492 288.014 541.452Z" fill="#0A3C47"/>
<path d="M111.434 685.032V138.432" stroke="#1A202C" stroke-miterlimit="4.0009" stroke-linecap="square"/>
<path d="M111.434 685.031H687.914" stroke="#1A202C" stroke-miterlimit="4.0009" stroke-linecap="square"/>
<path d="M303.939 542.717V540.87L310.608 540.859V546.701C309.584 547.517 308.528 548.133 307.44 548.548C306.351 548.956 305.234 549.16 304.089 549.16C302.543 549.16 301.136 548.831 299.868 548.172C298.608 547.506 297.656 546.547 297.012 545.294C296.368 544.041 296.045 542.642 296.045 541.095C296.045 539.563 296.364 538.135 297.001 536.81C297.646 535.479 298.569 534.491 299.772 533.846C300.975 533.202 302.36 532.88 303.928 532.88C305.066 532.88 306.094 533.066 307.01 533.438C307.934 533.803 308.657 534.315 309.179 534.974C309.702 535.633 310.099 536.492 310.371 537.551L308.492 538.067C308.256 537.265 307.962 536.635 307.611 536.177C307.261 535.719 306.759 535.353 306.108 535.081C305.456 534.802 304.733 534.663 303.939 534.663C302.986 534.663 302.163 534.809 301.469 535.103C300.774 535.389 300.212 535.769 299.783 536.241C299.36 536.714 299.031 537.233 298.795 537.798C298.394 538.772 298.193 539.828 298.193 540.966C298.193 542.37 298.433 543.544 298.913 544.489C299.4 545.434 300.105 546.135 301.028 546.594C301.952 547.052 302.933 547.281 303.971 547.281C304.873 547.281 305.753 547.109 306.613 546.765C307.472 546.415 308.123 546.042 308.567 545.649V542.717H303.939Z" fill="black"/>
<path d="M321.25 545.219L323.247 545.466C322.932 546.633 322.349 547.539 321.497 548.183C320.645 548.827 319.557 549.149 318.232 549.149C316.564 549.149 315.24 548.638 314.259 547.614C313.285 546.583 312.798 545.14 312.798 543.286C312.798 541.367 313.292 539.878 314.28 538.819C315.268 537.759 316.55 537.229 318.125 537.229C319.65 537.229 320.895 537.748 321.862 538.786C322.829 539.824 323.312 541.285 323.312 543.168C323.312 543.282 323.308 543.454 323.301 543.683H314.796C314.867 544.936 315.222 545.896 315.859 546.561C316.496 547.227 317.291 547.56 318.243 547.56C318.952 547.56 319.557 547.374 320.058 547.002C320.559 546.629 320.956 546.035 321.25 545.219ZM314.903 542.094H321.271C321.185 541.135 320.942 540.415 320.541 539.935C319.925 539.191 319.127 538.819 318.146 538.819C317.259 538.819 316.51 539.116 315.902 539.71C315.3 540.304 314.968 541.099 314.903 542.094Z" fill="black"/>
<path d="M325.664 548.892V537.487H327.403V539.216C327.847 538.407 328.255 537.874 328.628 537.616C329.007 537.358 329.422 537.229 329.873 537.229C330.525 537.229 331.187 537.437 331.86 537.852L331.194 539.645C330.722 539.366 330.249 539.227 329.777 539.227C329.354 539.227 328.975 539.355 328.638 539.613C328.302 539.864 328.062 540.215 327.919 540.666C327.704 541.353 327.597 542.105 327.597 542.921V548.892H325.664Z" fill="black"/>
<path d="M333.009 548.892V537.487H334.738V539.087C335.096 538.529 335.572 538.081 336.166 537.745C336.761 537.401 337.437 537.229 338.196 537.229C339.041 537.229 339.732 537.405 340.269 537.755C340.813 538.106 341.196 538.597 341.418 539.227C342.32 537.895 343.494 537.229 344.94 537.229C346.071 537.229 346.941 537.544 347.55 538.174C348.158 538.797 348.463 539.76 348.463 541.063V548.892H346.54V541.707C346.54 540.934 346.476 540.379 346.347 540.043C346.225 539.699 346 539.424 345.67 539.216C345.341 539.008 344.954 538.904 344.511 538.904C343.709 538.904 343.043 539.173 342.513 539.71C341.983 540.24 341.718 541.092 341.718 542.266V548.892H339.785V541.482C339.785 540.623 339.628 539.978 339.313 539.549C338.998 539.119 338.482 538.904 337.766 538.904C337.222 538.904 336.718 539.048 336.252 539.334C335.794 539.62 335.461 540.039 335.254 540.59C335.046 541.142 334.942 541.936 334.942 542.975V548.892H333.009Z" fill="black"/>
<path d="M358.772 547.485C358.056 548.093 357.365 548.523 356.699 548.774C356.041 549.024 355.332 549.149 354.573 549.149C353.32 549.149 352.357 548.845 351.684 548.237C351.011 547.621 350.675 546.837 350.675 545.885C350.675 545.326 350.8 544.818 351.051 544.36C351.308 543.895 351.641 543.522 352.049 543.243C352.465 542.964 352.93 542.753 353.445 542.609C353.825 542.509 354.398 542.413 355.164 542.319C356.724 542.133 357.874 541.911 358.611 541.654C358.618 541.389 358.622 541.221 358.622 541.149C358.622 540.361 358.439 539.807 358.074 539.484C357.58 539.048 356.846 538.829 355.872 538.829C354.963 538.829 354.29 538.99 353.854 539.313C353.424 539.628 353.105 540.19 352.898 540.999L351.008 540.741C351.18 539.932 351.462 539.28 351.856 538.786C352.25 538.285 352.819 537.902 353.564 537.637C354.308 537.365 355.171 537.229 356.152 537.229C357.125 537.229 357.916 537.344 358.525 537.573C359.134 537.802 359.581 538.092 359.867 538.443C360.154 538.786 360.354 539.223 360.469 539.753C360.533 540.082 360.565 540.676 360.565 541.536V544.113C360.565 545.91 360.605 547.048 360.684 547.528C360.769 548 360.934 548.455 361.178 548.892H359.159C358.958 548.491 358.829 548.022 358.772 547.485ZM358.611 543.168C357.909 543.454 356.857 543.698 355.454 543.898C354.659 544.013 354.097 544.142 353.768 544.285C353.438 544.428 353.184 544.639 353.005 544.918C352.826 545.19 352.737 545.495 352.737 545.831C352.737 546.347 352.93 546.776 353.317 547.12C353.71 547.463 354.283 547.635 355.035 547.635C355.779 547.635 356.442 547.474 357.022 547.152C357.601 546.823 358.027 546.375 358.299 545.81C358.507 545.373 358.611 544.729 358.611 543.877V543.168Z" fill="black"/>
<path d="M363.572 548.892V537.487H365.312V539.108C366.15 537.856 367.36 537.229 368.942 537.229C369.629 537.229 370.259 537.354 370.832 537.605C371.412 537.848 371.845 538.171 372.131 538.572C372.418 538.972 372.618 539.449 372.733 540C372.804 540.358 372.84 540.984 372.84 541.879V548.892H370.907V541.954C370.907 541.167 370.832 540.58 370.682 540.193C370.531 539.799 370.263 539.488 369.876 539.259C369.497 539.023 369.049 538.904 368.534 538.904C367.71 538.904 366.998 539.166 366.397 539.688C365.802 540.211 365.505 541.203 365.505 542.663V548.892H363.572Z" fill="black"/>
<path d="M375.729 553.284L375.514 551.469C375.937 551.584 376.305 551.641 376.62 551.641C377.05 551.641 377.393 551.569 377.651 551.426C377.909 551.283 378.12 551.082 378.285 550.825C378.407 550.631 378.603 550.152 378.875 549.386C378.911 549.278 378.969 549.121 379.047 548.913L374.719 537.487H376.803L379.176 544.091C379.484 544.929 379.76 545.81 380.003 546.733C380.225 545.845 380.49 544.979 380.798 544.134L383.236 537.487H385.169L380.83 549.085C380.365 550.338 380.003 551.201 379.745 551.673C379.402 552.31 379.008 552.776 378.564 553.069C378.12 553.37 377.59 553.52 376.975 553.52C376.602 553.52 376.187 553.441 375.729 553.284Z" fill="black"/>
<path d="M553.629 519.648H555.712V528.744C555.712 530.327 555.533 531.583 555.175 532.514C554.817 533.445 554.17 534.203 553.232 534.79C552.301 535.37 551.077 535.66 549.559 535.66C548.084 535.66 546.878 535.406 545.94 534.898C545.002 534.39 544.333 533.656 543.932 532.696C543.531 531.73 543.33 530.413 543.33 528.744V519.648H545.414V528.734C545.414 530.101 545.539 531.111 545.79 531.762C546.047 532.406 546.484 532.904 547.1 533.255C547.723 533.606 548.481 533.781 549.376 533.781C550.908 533.781 552 533.434 552.652 532.739C553.303 532.045 553.629 530.71 553.629 528.734V519.648Z" fill="black"/>
<path d="M558.945 535.392V523.987H560.685V525.609C561.522 524.356 562.732 523.729 564.314 523.729C565.002 523.729 565.632 523.855 566.204 524.105C566.784 524.349 567.217 524.671 567.504 525.072C567.79 525.473 567.991 525.949 568.105 526.5C568.177 526.858 568.213 527.484 568.213 528.379V535.392H566.28V528.454C566.28 527.667 566.204 527.08 566.054 526.693C565.904 526.299 565.635 525.988 565.249 525.759C564.869 525.523 564.422 525.405 563.906 525.405C563.083 525.405 562.371 525.666 561.769 526.189C561.175 526.711 560.878 527.703 560.878 529.163V535.392H558.945Z" fill="black"/>
<path d="M571.198 521.871V519.648H573.131V521.871H571.198ZM571.198 535.392V523.987H573.131V535.392H571.198Z" fill="black"/>
<path d="M580.305 533.663L580.584 535.37C580.04 535.485 579.553 535.542 579.123 535.542C578.422 535.542 577.878 535.431 577.491 535.209C577.104 534.987 576.832 534.697 576.675 534.339C576.517 533.974 576.439 533.212 576.439 532.052V525.49H575.021V523.987H576.439V521.163L578.361 520.003V523.987H580.305V525.49H578.361V532.159C578.361 532.711 578.393 533.065 578.458 533.223C578.529 533.38 578.64 533.505 578.791 533.598C578.948 533.692 579.17 533.738 579.456 533.738C579.671 533.738 579.954 533.713 580.305 533.663Z" fill="black"/>
<path d="M590.013 531.719L592.01 531.966C591.695 533.133 591.112 534.039 590.26 534.683C589.408 535.327 588.32 535.65 586.995 535.65C585.327 535.65 584.002 535.138 583.022 534.114C582.048 533.083 581.561 531.64 581.561 529.786C581.561 527.867 582.055 526.378 583.043 525.319C584.031 524.259 585.313 523.729 586.888 523.729C588.413 523.729 589.658 524.248 590.625 525.286C591.591 526.325 592.075 527.785 592.075 529.668C592.075 529.783 592.071 529.954 592.064 530.183H583.559C583.63 531.436 583.985 532.396 584.622 533.062C585.259 533.727 586.054 534.06 587.006 534.06C587.715 534.06 588.32 533.874 588.821 533.502C589.322 533.13 589.719 532.535 590.013 531.719ZM583.666 528.594H590.034C589.948 527.635 589.705 526.915 589.304 526.436C588.688 525.691 587.89 525.319 586.909 525.319C586.021 525.319 585.273 525.616 584.665 526.21C584.063 526.804 583.73 527.599 583.666 528.594Z" fill="black"/>
<path d="M601.847 535.392V533.953C601.124 535.084 600.061 535.65 598.658 535.65C597.748 535.65 596.911 535.399 596.145 534.898C595.386 534.397 594.795 533.699 594.373 532.804C593.958 531.902 593.75 530.867 593.75 529.7C593.75 528.562 593.94 527.531 594.319 526.607C594.699 525.677 595.268 524.964 596.027 524.47C596.785 523.976 597.634 523.729 598.572 523.729C599.259 523.729 599.871 523.876 600.408 524.17C600.945 524.456 601.382 524.832 601.718 525.297V519.648H603.641V535.392H601.847ZM595.737 529.7C595.737 531.161 596.045 532.253 596.66 532.976C597.276 533.699 598.003 534.06 598.84 534.06C599.685 534.06 600.401 533.717 600.988 533.029C601.582 532.335 601.879 531.279 601.879 529.861C601.879 528.301 601.579 527.155 600.977 526.425C600.376 525.695 599.635 525.329 598.754 525.329C597.895 525.329 597.176 525.68 596.596 526.382C596.023 527.083 595.737 528.19 595.737 529.7Z" fill="black"/>
<path d="M612.973 535.392V519.648H615.056V527.456L622.874 519.648H625.698L619.094 526.027L625.988 535.392H623.239L617.633 527.424L615.056 529.936V535.392H612.973Z" fill="black"/>
<path d="M627.492 521.871V519.648H629.425V521.871H627.492ZM627.492 535.392V523.987H629.425V535.392H627.492Z" fill="black"/>
<path d="M632.378 535.392V523.987H634.118V525.609C634.955 524.356 636.165 523.729 637.748 523.729C638.435 523.729 639.065 523.855 639.638 524.105C640.218 524.349 640.651 524.671 640.937 525.072C641.223 525.473 641.424 525.949 641.538 526.5C641.61 526.858 641.646 527.484 641.646 528.379V535.392H639.713V528.454C639.713 527.667 639.638 527.08 639.487 526.693C639.337 526.299 639.069 525.988 638.682 525.759C638.302 525.523 637.855 525.405 637.34 525.405C636.516 525.405 635.804 525.666 635.202 526.189C634.608 526.711 634.311 527.703 634.311 529.163V535.392H632.378Z" fill="black"/>
<path d="M644.266 536.337L646.146 536.616C646.224 537.196 646.443 537.618 646.801 537.883C647.28 538.241 647.935 538.42 648.766 538.42C649.661 538.42 650.352 538.241 650.838 537.883C651.325 537.525 651.655 537.024 651.826 536.38C651.927 535.986 651.973 535.159 651.966 533.899C651.121 534.894 650.069 535.392 648.809 535.392C647.241 535.392 646.027 534.826 645.168 533.695C644.309 532.564 643.88 531.207 643.88 529.625C643.88 528.537 644.076 527.534 644.47 526.618C644.864 525.695 645.433 524.982 646.178 524.481C646.929 523.98 647.81 523.729 648.82 523.729C650.165 523.729 651.275 524.273 652.149 525.362V523.987H653.931V533.845C653.931 535.621 653.749 536.877 653.384 537.615C653.026 538.359 652.453 538.947 651.665 539.376C650.885 539.806 649.922 540.02 648.777 540.02C647.416 540.02 646.317 539.713 645.48 539.097C644.642 538.488 644.238 537.568 644.266 536.337ZM645.866 529.485C645.866 530.982 646.163 532.074 646.758 532.761C647.352 533.448 648.096 533.792 648.991 533.792C649.879 533.792 650.624 533.452 651.225 532.772C651.826 532.084 652.127 531.01 652.127 529.55C652.127 528.154 651.816 527.101 651.193 526.393C650.577 525.684 649.833 525.329 648.959 525.329C648.1 525.329 647.37 525.68 646.768 526.382C646.167 527.076 645.866 528.111 645.866 529.485Z" fill="black"/>
<path d="M664.262 535.392V533.953C663.539 535.084 662.476 535.65 661.073 535.65C660.163 535.65 659.326 535.399 658.56 534.898C657.801 534.397 657.21 533.699 656.788 532.804C656.373 531.902 656.165 530.867 656.165 529.7C656.165 528.562 656.355 527.531 656.734 526.607C657.114 525.677 657.683 524.964 658.442 524.47C659.201 523.976 660.049 523.729 660.987 523.729C661.674 523.729 662.286 523.876 662.823 524.17C663.36 524.456 663.797 524.832 664.133 525.297V519.648H666.056V535.392H664.262ZM658.152 529.7C658.152 531.161 658.46 532.253 659.075 532.976C659.691 533.699 660.418 534.06 661.255 534.06C662.1 534.06 662.816 533.717 663.403 533.029C663.997 532.335 664.294 531.279 664.294 529.861C664.294 528.301 663.994 527.155 663.392 526.425C662.791 525.695 662.05 525.329 661.169 525.329C660.31 525.329 659.591 525.68 659.011 526.382C658.438 527.083 658.152 528.19 658.152 529.7Z" fill="black"/>
<path d="M668.386 529.689C668.386 527.577 668.973 526.013 670.147 524.996C671.128 524.152 672.324 523.729 673.734 523.729C675.302 523.729 676.583 524.245 677.579 525.276C678.574 526.299 679.071 527.717 679.071 529.528C679.071 530.996 678.849 532.152 678.405 532.997C677.969 533.835 677.328 534.486 676.483 534.952C675.646 535.417 674.729 535.65 673.734 535.65C672.137 535.65 670.845 535.138 669.857 534.114C668.876 533.09 668.386 531.615 668.386 529.689ZM670.373 529.689C670.373 531.15 670.691 532.245 671.328 532.976C671.966 533.699 672.767 534.06 673.734 534.06C674.693 534.06 675.492 533.695 676.129 532.965C676.766 532.235 677.085 531.121 677.085 529.625C677.085 528.215 676.762 527.148 676.118 526.425C675.481 525.695 674.686 525.329 673.734 525.329C672.767 525.329 671.966 525.691 671.328 526.414C670.691 527.137 670.373 528.229 670.373 529.689Z" fill="black"/>
<path d="M681.348 535.392V523.987H683.077V525.587C683.435 525.029 683.911 524.581 684.505 524.245C685.099 523.901 685.776 523.729 686.535 523.729C687.38 523.729 688.071 523.905 688.608 524.255C689.152 524.606 689.535 525.097 689.757 525.727C690.659 524.395 691.833 523.729 693.279 523.729C694.41 523.729 695.28 524.044 695.889 524.674C696.497 525.297 696.801 526.26 696.801 527.563V535.392H694.879V528.207C694.879 527.434 694.815 526.879 694.686 526.543C694.564 526.199 694.339 525.924 694.009 525.716C693.68 525.508 693.293 525.405 692.849 525.405C692.048 525.405 691.382 525.673 690.852 526.21C690.322 526.74 690.057 527.592 690.057 528.766V535.392H688.124V527.982C688.124 527.123 687.967 526.478 687.652 526.049C687.337 525.619 686.821 525.405 686.105 525.405C685.561 525.405 685.057 525.548 684.591 525.834C684.133 526.121 683.8 526.539 683.592 527.091C683.385 527.642 683.281 528.437 683.281 529.475V535.392H681.348Z" fill="black"/>
<path d="M401.752 591.371L403.836 591.897C403.399 593.608 402.611 594.915 401.473 595.817C400.342 596.712 398.956 597.159 397.317 597.159C395.62 597.159 394.238 596.816 393.172 596.128C392.112 595.434 391.303 594.432 390.745 593.121C390.193 591.811 389.918 590.404 389.918 588.901C389.918 587.261 390.229 585.833 390.852 584.616C391.482 583.392 392.373 582.465 393.526 581.835C394.686 581.197 395.96 580.879 397.349 580.879C398.924 580.879 400.249 581.28 401.323 582.082C402.396 582.884 403.145 584.011 403.567 585.464L401.516 585.948C401.151 584.802 400.621 583.968 399.927 583.446C399.232 582.923 398.359 582.662 397.306 582.662C396.096 582.662 395.083 582.952 394.267 583.531C393.458 584.111 392.889 584.892 392.56 585.873C392.23 586.846 392.066 587.852 392.066 588.89C392.066 590.229 392.259 591.4 392.645 592.402C393.039 593.397 393.648 594.142 394.471 594.636C395.294 595.13 396.186 595.377 397.145 595.377C398.312 595.377 399.3 595.04 400.109 594.367C400.918 593.694 401.466 592.695 401.752 591.371Z" fill="black"/>
<path d="M406.166 596.891V581.147H408.099V586.796C409.001 585.751 410.139 585.228 411.514 585.228C412.359 585.228 413.093 585.396 413.715 585.733C414.338 586.062 414.782 586.52 415.047 587.108C415.319 587.695 415.455 588.547 415.455 589.663V596.891H413.522V589.663C413.522 588.697 413.311 587.995 412.889 587.559C412.473 587.115 411.883 586.893 411.117 586.893C410.544 586.893 410.003 587.043 409.495 587.344C408.994 587.637 408.636 588.038 408.421 588.547C408.206 589.055 408.099 589.756 408.099 590.651V596.891H406.166Z" fill="black"/>
<path d="M418.419 583.37V581.147H420.352V583.37H418.419ZM418.419 596.891V585.486H420.352V596.891H418.419Z" fill="black"/>
<path d="M423.262 596.891V581.147H425.195V596.891H423.262Z" fill="black"/>
<path d="M436.01 593.218L438.007 593.465C437.692 594.632 437.109 595.538 436.257 596.182C435.405 596.826 434.317 597.149 432.992 597.149C431.324 597.149 429.999 596.637 429.019 595.613C428.045 594.582 427.558 593.139 427.558 591.285C427.558 589.366 428.052 587.877 429.04 586.818C430.028 585.758 431.31 585.228 432.885 585.228C434.41 585.228 435.655 585.747 436.622 586.785C437.588 587.823 438.072 589.284 438.072 591.167C438.072 591.281 438.068 591.453 438.061 591.682H429.556C429.627 592.935 429.982 593.895 430.619 594.56C431.256 595.226 432.051 595.559 433.003 595.559C433.712 595.559 434.317 595.373 434.818 595.001C435.319 594.628 435.716 594.034 436.01 593.218ZM429.663 590.093H436.031C435.945 589.134 435.702 588.414 435.301 587.934C434.685 587.19 433.887 586.818 432.906 586.818C432.018 586.818 431.27 587.115 430.662 587.709C430.06 588.303 429.727 589.098 429.663 590.093Z" fill="black"/>
<path d="M185.102 610.692V594.948H195.723V596.806H187.186V601.682H194.574V603.539H187.186V610.692H185.102Z" fill="black"/>
<path d="M198.172 610.692V599.287H199.911V601.016C200.355 600.207 200.763 599.673 201.136 599.416C201.515 599.158 201.93 599.029 202.381 599.029C203.033 599.029 203.695 599.237 204.368 599.652L203.702 601.445C203.23 601.166 202.757 601.027 202.285 601.027C201.862 601.027 201.483 601.155 201.146 601.413C200.81 601.664 200.57 602.015 200.427 602.466C200.212 603.153 200.105 603.905 200.105 604.721V610.692H198.172Z" fill="black"/>
<path d="M212.959 609.285C212.243 609.893 211.552 610.323 210.887 610.574C210.228 610.824 209.519 610.949 208.76 610.949C207.507 610.949 206.545 610.645 205.872 610.037C205.199 609.421 204.862 608.637 204.862 607.685C204.862 607.126 204.987 606.618 205.238 606.16C205.496 605.694 205.829 605.322 206.237 605.043C206.652 604.764 207.117 604.553 207.633 604.409C208.012 604.309 208.585 604.212 209.351 604.119C210.912 603.933 212.061 603.711 212.798 603.454C212.805 603.189 212.809 603.02 212.809 602.949C212.809 602.161 212.626 601.606 212.261 601.284C211.767 600.848 211.033 600.629 210.06 600.629C209.151 600.629 208.478 600.79 208.041 601.112C207.611 601.427 207.293 601.989 207.085 602.798L205.195 602.541C205.367 601.732 205.65 601.08 206.043 600.586C206.437 600.085 207.006 599.702 207.751 599.437C208.495 599.165 209.358 599.029 210.339 599.029C211.313 599.029 212.104 599.144 212.712 599.373C213.321 599.602 213.768 599.892 214.055 600.243C214.341 600.586 214.542 601.023 214.656 601.553C214.72 601.882 214.753 602.476 214.753 603.335V605.913C214.753 607.71 214.792 608.848 214.871 609.328C214.957 609.8 215.121 610.255 215.365 610.692H213.346C213.145 610.291 213.017 609.822 212.959 609.285ZM212.798 604.968C212.097 605.254 211.044 605.498 209.641 605.698C208.846 605.813 208.284 605.941 207.955 606.085C207.626 606.228 207.371 606.439 207.192 606.718C207.013 606.99 206.924 607.295 206.924 607.631C206.924 608.147 207.117 608.576 207.504 608.92C207.898 609.263 208.47 609.435 209.222 609.435C209.967 609.435 210.629 609.274 211.209 608.952C211.789 608.623 212.215 608.175 212.487 607.61C212.694 607.173 212.798 606.528 212.798 605.677V604.968Z" fill="black"/>
<path d="M217.76 610.692V599.287H219.499V600.908C220.337 599.656 221.547 599.029 223.129 599.029C223.816 599.029 224.446 599.154 225.019 599.405C225.599 599.648 226.032 599.971 226.319 600.371C226.605 600.772 226.805 601.248 226.92 601.8C226.992 602.158 227.027 602.784 227.027 603.679V610.692H225.094V603.754C225.094 602.967 225.019 602.38 224.869 601.993C224.719 601.599 224.45 601.288 224.063 601.059C223.684 600.822 223.237 600.704 222.721 600.704C221.898 600.704 221.185 600.966 220.584 601.488C219.99 602.011 219.693 603.003 219.693 604.463V610.692H217.76Z" fill="black"/>
<path d="M237.444 606.514L239.345 606.761C239.137 608.071 238.604 609.099 237.745 609.843C236.893 610.581 235.844 610.949 234.598 610.949C233.038 610.949 231.781 610.441 230.829 609.424C229.884 608.401 229.411 606.937 229.411 605.032C229.411 603.801 229.616 602.723 230.024 601.8C230.432 600.876 231.051 600.185 231.881 599.727C232.719 599.262 233.628 599.029 234.609 599.029C235.848 599.029 236.861 599.344 237.648 599.974C238.436 600.597 238.941 601.485 239.162 602.637L237.283 602.927C237.104 602.161 236.786 601.585 236.327 601.198C235.876 600.812 235.329 600.618 234.684 600.618C233.711 600.618 232.92 600.969 232.311 601.671C231.702 602.365 231.398 603.468 231.398 604.978C231.398 606.511 231.692 607.624 232.279 608.318C232.866 609.013 233.632 609.36 234.577 609.36C235.336 609.36 235.969 609.127 236.478 608.662C236.986 608.197 237.308 607.481 237.444 606.514Z" fill="black"/>
<path d="M248.806 607.019L250.804 607.266C250.489 608.433 249.905 609.339 249.053 609.983C248.201 610.627 247.113 610.949 245.788 610.949C244.12 610.949 242.796 610.438 241.815 609.414C240.841 608.383 240.355 606.94 240.355 605.086C240.355 603.167 240.849 601.678 241.836 600.618C242.824 599.559 244.106 599.029 245.681 599.029C247.206 599.029 248.452 599.548 249.418 600.586C250.385 601.624 250.868 603.085 250.868 604.968C250.868 605.082 250.864 605.254 250.857 605.483H242.352C242.424 606.736 242.778 607.695 243.415 608.361C244.052 609.027 244.847 609.36 245.799 609.36C246.508 609.36 247.113 609.174 247.614 608.802C248.115 608.429 248.513 607.835 248.806 607.019ZM242.459 603.894H248.828C248.742 602.935 248.498 602.215 248.097 601.735C247.482 600.991 246.683 600.618 245.703 600.618C244.815 600.618 244.067 600.916 243.458 601.51C242.857 602.104 242.524 602.899 242.459 603.894Z" fill="black"/>
<path d="M637.039 393.533L639.004 393.362C639.097 394.149 639.312 394.797 639.649 395.305C639.992 395.806 640.522 396.215 641.238 396.53C641.954 396.837 642.759 396.991 643.654 396.991C644.449 396.991 645.151 396.873 645.759 396.637C646.368 396.401 646.819 396.079 647.112 395.67C647.413 395.255 647.563 394.804 647.563 394.317C647.563 393.823 647.42 393.394 647.134 393.029C646.847 392.656 646.375 392.345 645.716 392.094C645.294 391.93 644.359 391.676 642.913 391.332C641.467 390.981 640.454 390.652 639.874 390.344C639.122 389.95 638.56 389.463 638.188 388.883C637.823 388.296 637.64 387.641 637.64 386.918C637.64 386.123 637.866 385.382 638.317 384.695C638.768 384.001 639.427 383.475 640.293 383.117C641.159 382.759 642.122 382.58 643.182 382.58C644.349 382.58 645.376 382.769 646.264 383.149C647.159 383.521 647.846 384.072 648.326 384.803C648.805 385.533 649.063 386.36 649.099 387.283L647.101 387.434C646.994 386.438 646.629 385.687 646.006 385.178C645.39 384.67 644.478 384.416 643.268 384.416C642.008 384.416 641.088 384.649 640.508 385.114C639.935 385.572 639.649 386.127 639.649 386.779C639.649 387.344 639.853 387.809 640.261 388.175C640.662 388.54 641.707 388.916 643.397 389.302C645.093 389.682 646.257 390.015 646.887 390.301C647.803 390.723 648.48 391.26 648.916 391.912C649.353 392.556 649.571 393.301 649.571 394.145C649.571 394.983 649.332 395.774 648.852 396.519C648.372 397.256 647.681 397.833 646.779 398.248C645.884 398.656 644.875 398.86 643.751 398.86C642.326 398.86 641.131 398.652 640.164 398.237C639.205 397.822 638.449 397.199 637.898 396.368C637.354 395.531 637.068 394.586 637.039 393.533Z" fill="black"/>
<path d="M652.17 402.962V387.187H653.931V388.669C654.347 388.089 654.816 387.656 655.338 387.369C655.861 387.076 656.495 386.929 657.239 386.929C658.213 386.929 659.072 387.179 659.816 387.681C660.561 388.182 661.123 388.891 661.502 389.807C661.882 390.716 662.072 391.715 662.072 392.803C662.072 393.97 661.86 395.023 661.438 395.96C661.023 396.891 660.414 397.607 659.612 398.108C658.818 398.602 657.98 398.849 657.1 398.849C656.455 398.849 655.875 398.713 655.36 398.441C654.851 398.169 654.433 397.825 654.103 397.41V402.962H652.17ZM653.921 392.953C653.921 394.421 654.218 395.506 654.812 396.207C655.406 396.909 656.126 397.26 656.971 397.26C657.83 397.26 658.564 396.898 659.172 396.175C659.788 395.445 660.096 394.317 660.096 392.792C660.096 391.339 659.795 390.251 659.194 389.528C658.599 388.805 657.887 388.443 657.057 388.443C656.233 388.443 655.503 388.83 654.866 389.603C654.236 390.369 653.921 391.486 653.921 392.953Z" fill="black"/>
<path d="M671.855 397.185C671.139 397.793 670.448 398.223 669.782 398.473C669.124 398.724 668.415 398.849 667.656 398.849C666.403 398.849 665.44 398.545 664.767 397.936C664.094 397.321 663.758 396.537 663.758 395.585C663.758 395.026 663.883 394.518 664.134 394.06C664.391 393.594 664.724 393.222 665.132 392.943C665.548 392.664 666.013 392.452 666.528 392.309C666.908 392.209 667.481 392.112 668.247 392.019C669.807 391.833 670.956 391.611 671.694 391.353C671.701 391.088 671.705 390.92 671.705 390.849C671.705 390.061 671.522 389.506 671.157 389.184C670.663 388.747 669.929 388.529 668.955 388.529C668.046 388.529 667.373 388.69 666.936 389.012C666.507 389.327 666.188 389.889 665.981 390.698L664.091 390.441C664.262 389.632 664.545 388.98 664.939 388.486C665.333 387.985 665.902 387.602 666.646 387.337C667.391 387.065 668.254 386.929 669.235 386.929C670.208 386.929 670.999 387.043 671.608 387.273C672.216 387.502 672.664 387.792 672.95 388.142C673.237 388.486 673.437 388.923 673.552 389.453C673.616 389.782 673.648 390.376 673.648 391.235V393.813C673.648 395.61 673.688 396.748 673.766 397.228C673.852 397.7 674.017 398.155 674.26 398.591H672.241C672.041 398.191 671.912 397.722 671.855 397.185ZM671.694 392.868C670.992 393.154 669.94 393.397 668.537 393.598C667.742 393.712 667.18 393.841 666.851 393.984C666.521 394.128 666.267 394.339 666.088 394.618C665.909 394.89 665.82 395.194 665.82 395.531C665.82 396.046 666.013 396.476 666.399 396.82C666.793 397.163 667.366 397.335 668.118 397.335C668.862 397.335 669.525 397.174 670.104 396.852C670.684 396.522 671.11 396.075 671.382 395.509C671.59 395.073 671.694 394.428 671.694 393.576V392.868Z" fill="black"/>
<path d="M676.666 385.071V382.848H678.599V385.071H676.666ZM676.666 398.591V387.187H678.599V398.591H676.666Z" fill="black"/>
<path d="M681.552 398.591V387.187H683.292V388.808C684.13 387.555 685.339 386.929 686.922 386.929C687.609 386.929 688.239 387.054 688.812 387.305C689.392 387.548 689.825 387.87 690.111 388.271C690.398 388.672 690.598 389.148 690.713 389.7C690.784 390.058 690.82 390.684 690.82 391.579V398.591H688.887V391.654C688.887 390.867 688.812 390.279 688.661 389.893C688.511 389.499 688.243 389.188 687.856 388.959C687.477 388.722 687.029 388.604 686.514 388.604C685.69 388.604 684.978 388.865 684.377 389.388C683.782 389.911 683.485 390.902 683.485 392.363V398.591H681.552Z" fill="black"/>
<path d="M425.082 219.048H427.165V228.144C427.165 229.726 426.986 230.982 426.628 231.913C426.27 232.844 425.622 233.603 424.684 234.19C423.754 234.77 422.529 235.06 421.012 235.06C419.537 235.06 418.33 234.806 417.393 234.297C416.455 233.789 415.785 233.055 415.384 232.096C414.983 231.129 414.783 229.812 414.783 228.144V219.048H416.866V228.133C416.866 229.5 416.992 230.51 417.242 231.161C417.5 231.806 417.937 232.303 418.552 232.654C419.175 233.005 419.934 233.18 420.829 233.18C422.361 233.18 423.453 232.833 424.104 232.139C424.756 231.444 425.082 230.109 425.082 228.133V219.048Z" fill="black"/>
<path d="M430.397 234.791V223.386H432.137V225.008C432.975 223.755 434.185 223.129 435.767 223.129C436.454 223.129 437.084 223.254 437.657 223.504C438.237 223.748 438.67 224.07 438.956 224.471C439.243 224.872 439.443 225.348 439.558 225.899C439.629 226.257 439.665 226.884 439.665 227.779V234.791H437.732V227.854C437.732 227.066 437.657 226.479 437.507 226.093C437.356 225.699 437.088 225.387 436.701 225.158C436.322 224.922 435.874 224.804 435.359 224.804C434.536 224.804 433.823 225.065 433.222 225.588C432.628 226.11 432.331 227.102 432.331 228.563V234.791H430.397Z" fill="black"/>
<path d="M442.651 221.271V219.048H444.584V221.271H442.651ZM442.651 234.791V223.386H444.584V234.791H442.651Z" fill="black"/>
<path d="M451.757 233.062L452.037 234.77C451.492 234.884 451.006 234.942 450.576 234.942C449.874 234.942 449.33 234.831 448.944 234.609C448.557 234.387 448.285 234.097 448.128 233.739C447.97 233.374 447.891 232.611 447.891 231.451V224.89H446.474V223.386H447.891V220.562L449.814 219.402V223.386H451.757V224.89H449.814V231.559C449.814 232.11 449.846 232.464 449.91 232.622C449.982 232.779 450.093 232.905 450.243 232.998C450.401 233.091 450.623 233.137 450.909 233.137C451.124 233.137 451.407 233.112 451.757 233.062Z" fill="black"/>
<path d="M461.465 231.118L463.463 231.365C463.148 232.532 462.564 233.438 461.712 234.082C460.86 234.727 459.772 235.049 458.448 235.049C456.78 235.049 455.455 234.537 454.474 233.513C453.501 232.482 453.014 231.04 453.014 229.185C453.014 227.267 453.508 225.778 454.496 224.718C455.484 223.658 456.765 223.129 458.34 223.129C459.865 223.129 461.111 223.648 462.078 224.686C463.044 225.724 463.527 227.184 463.527 229.067C463.527 229.182 463.524 229.354 463.517 229.583H455.011C455.083 230.836 455.437 231.795 456.074 232.461C456.712 233.127 457.506 233.46 458.459 233.46C459.167 233.46 459.772 233.273 460.273 232.901C460.775 232.529 461.172 231.935 461.465 231.118ZM455.119 227.993H461.487C461.401 227.034 461.158 226.315 460.757 225.835C460.141 225.09 459.343 224.718 458.362 224.718C457.474 224.718 456.726 225.015 456.117 225.609C455.516 226.204 455.183 226.998 455.119 227.993Z" fill="black"/>
<path d="M473.3 234.791V233.352C472.577 234.483 471.514 235.049 470.11 235.049C469.201 235.049 468.363 234.798 467.597 234.297C466.839 233.796 466.248 233.098 465.825 232.203C465.41 231.301 465.203 230.266 465.203 229.1C465.203 227.961 465.392 226.93 465.772 226.007C466.151 225.076 466.72 224.364 467.479 223.87C468.238 223.376 469.087 223.129 470.024 223.129C470.712 223.129 471.324 223.275 471.861 223.569C472.398 223.855 472.834 224.231 473.171 224.697V219.048H475.093V234.791H473.3ZM467.189 229.1C467.189 230.56 467.497 231.652 468.113 232.375C468.729 233.098 469.455 233.46 470.293 233.46C471.138 233.46 471.854 233.116 472.441 232.429C473.035 231.734 473.332 230.678 473.332 229.261C473.332 227.7 473.031 226.554 472.43 225.824C471.829 225.094 471.088 224.729 470.207 224.729C469.348 224.729 468.628 225.08 468.048 225.781C467.476 226.483 467.189 227.589 467.189 229.1Z" fill="black"/>
<path d="M483.803 229.733L485.768 229.561C485.861 230.349 486.076 230.997 486.412 231.505C486.756 232.006 487.286 232.414 488.002 232.729C488.717 233.037 489.523 233.191 490.418 233.191C491.213 233.191 491.914 233.073 492.523 232.837C493.131 232.6 493.582 232.278 493.876 231.87C494.176 231.455 494.327 231.004 494.327 230.517C494.327 230.023 494.184 229.593 493.897 229.228C493.611 228.856 493.138 228.545 492.48 228.294C492.057 228.129 491.123 227.875 489.677 227.532C488.231 227.181 487.218 226.851 486.638 226.544C485.886 226.15 485.324 225.663 484.952 225.083C484.587 224.496 484.404 223.841 484.404 223.118C484.404 222.323 484.629 221.582 485.081 220.895C485.532 220.2 486.19 219.674 487.057 219.316C487.923 218.958 488.886 218.779 489.945 218.779C491.112 218.779 492.14 218.969 493.027 219.348C493.922 219.721 494.61 220.272 495.089 221.002C495.569 221.733 495.827 222.559 495.863 223.483L493.865 223.633C493.758 222.638 493.393 221.886 492.77 221.378C492.154 220.87 491.241 220.616 490.031 220.616C488.771 220.616 487.851 220.848 487.271 221.314C486.699 221.772 486.412 222.327 486.412 222.978C486.412 223.544 486.616 224.009 487.024 224.374C487.425 224.739 488.47 225.115 490.16 225.502C491.857 225.881 493.02 226.214 493.65 226.501C494.567 226.923 495.243 227.46 495.68 228.112C496.117 228.756 496.335 229.5 496.335 230.345C496.335 231.183 496.095 231.974 495.616 232.719C495.136 233.456 494.445 234.032 493.543 234.448C492.648 234.856 491.638 235.06 490.514 235.06C489.09 235.06 487.894 234.852 486.928 234.437C485.968 234.022 485.213 233.399 484.662 232.568C484.118 231.731 483.831 230.786 483.803 229.733Z" fill="black"/>
<path d="M503.154 233.062L503.434 234.77C502.889 234.884 502.403 234.942 501.973 234.942C501.271 234.942 500.727 234.831 500.341 234.609C499.954 234.387 499.682 234.097 499.524 233.739C499.367 233.374 499.288 232.611 499.288 231.451V224.89H497.871V223.386H499.288V220.562L501.211 219.402V223.386H503.154V224.89H501.211V231.559C501.211 232.11 501.243 232.464 501.307 232.622C501.379 232.779 501.49 232.905 501.64 232.998C501.798 233.091 502.02 233.137 502.306 233.137C502.521 233.137 502.803 233.112 503.154 233.062Z" fill="black"/>
<path d="M512.497 233.384C511.781 233.993 511.09 234.422 510.425 234.673C509.766 234.924 509.057 235.049 508.298 235.049C507.045 235.049 506.082 234.745 505.409 234.136C504.737 233.52 504.4 232.736 504.4 231.784C504.4 231.226 504.525 230.718 504.776 230.259C505.034 229.794 505.367 229.422 505.775 229.142C506.19 228.863 506.655 228.652 507.171 228.509C507.55 228.409 508.123 228.312 508.889 228.219C510.45 228.033 511.599 227.811 512.336 227.553C512.343 227.288 512.347 227.12 512.347 227.048C512.347 226.261 512.164 225.706 511.799 225.384C511.305 224.947 510.571 224.729 509.598 224.729C508.688 224.729 508.015 224.89 507.579 225.212C507.149 225.527 506.831 226.089 506.623 226.898L504.733 226.64C504.905 225.831 505.188 225.18 505.581 224.686C505.975 224.185 506.544 223.802 507.289 223.537C508.033 223.265 508.896 223.129 509.877 223.129C510.851 223.129 511.642 223.243 512.25 223.472C512.859 223.701 513.306 223.991 513.593 224.342C513.879 224.686 514.079 225.122 514.194 225.652C514.258 225.982 514.291 226.576 514.291 227.435V230.012C514.291 231.809 514.33 232.948 514.409 233.427C514.495 233.9 514.659 234.354 514.903 234.791H512.884C512.683 234.39 512.555 233.921 512.497 233.384ZM512.336 229.067C511.635 229.354 510.582 229.597 509.179 229.798C508.384 229.912 507.822 230.041 507.493 230.184C507.164 230.327 506.909 230.539 506.73 230.818C506.551 231.09 506.462 231.394 506.462 231.731C506.462 232.246 506.655 232.676 507.042 233.019C507.436 233.363 508.008 233.535 508.76 233.535C509.505 233.535 510.167 233.374 510.747 233.051C511.327 232.722 511.753 232.275 512.025 231.709C512.232 231.272 512.336 230.628 512.336 229.776V229.067Z" fill="black"/>
<path d="M521.518 233.062L521.797 234.77C521.253 234.884 520.766 234.942 520.337 234.942C519.635 234.942 519.091 234.831 518.704 234.609C518.318 234.387 518.046 234.097 517.888 233.739C517.731 233.374 517.652 232.611 517.652 231.451V224.89H516.234V223.386H517.652V220.562L519.574 219.402V223.386H521.518V224.89H519.574V231.559C519.574 232.11 519.606 232.464 519.671 232.622C519.742 232.779 519.853 232.905 520.004 232.998C520.161 233.091 520.383 233.137 520.67 233.137C520.884 233.137 521.167 233.112 521.518 233.062Z" fill="black"/>
<path d="M531.226 231.118L533.224 231.365C532.909 232.532 532.325 233.438 531.473 234.082C530.621 234.727 529.533 235.049 528.208 235.049C526.54 235.049 525.216 234.537 524.235 233.513C523.261 232.482 522.774 231.04 522.774 229.185C522.774 227.267 523.268 225.778 524.256 224.718C525.244 223.658 526.526 223.129 528.101 223.129C529.626 223.129 530.872 223.648 531.838 224.686C532.805 225.724 533.288 227.184 533.288 229.067C533.288 229.182 533.284 229.354 533.277 229.583H524.772C524.844 230.836 525.198 231.795 525.835 232.461C526.472 233.127 527.267 233.46 528.219 233.46C528.928 233.46 529.533 233.273 530.034 232.901C530.535 232.529 530.933 231.935 531.226 231.118ZM524.879 227.993H531.248C531.162 227.034 530.918 226.315 530.517 225.835C529.902 225.09 529.103 224.718 528.123 224.718C527.235 224.718 526.487 225.015 525.878 225.609C525.277 226.204 524.944 226.998 524.879 227.993Z" fill="black"/>
<path d="M534.888 231.387L536.8 231.086C536.907 231.852 537.204 232.439 537.691 232.847C538.185 233.256 538.872 233.46 539.753 233.46C540.641 233.46 541.299 233.281 541.729 232.923C542.158 232.557 542.373 232.131 542.373 231.645C542.373 231.208 542.183 230.864 541.804 230.614C541.539 230.442 540.88 230.224 539.828 229.959C538.41 229.601 537.426 229.293 536.875 229.035C536.331 228.77 535.915 228.409 535.629 227.95C535.35 227.485 535.21 226.973 535.21 226.415C535.21 225.906 535.325 225.437 535.554 225.008C535.79 224.571 536.109 224.21 536.51 223.923C536.81 223.701 537.218 223.515 537.734 223.365C538.257 223.207 538.815 223.129 539.409 223.129C540.304 223.129 541.088 223.257 541.761 223.515C542.441 223.773 542.942 224.124 543.265 224.568C543.587 225.004 543.809 225.591 543.93 226.329L542.04 226.587C541.954 226 541.704 225.541 541.289 225.212C540.88 224.883 540.301 224.718 539.549 224.718C538.661 224.718 538.027 224.865 537.648 225.158C537.269 225.452 537.079 225.795 537.079 226.189C537.079 226.44 537.158 226.665 537.315 226.866C537.473 227.073 537.72 227.245 538.056 227.381C538.249 227.453 538.819 227.618 539.764 227.875C541.131 228.24 542.083 228.541 542.62 228.777C543.164 229.006 543.59 229.343 543.898 229.787C544.206 230.231 544.36 230.782 544.36 231.441C544.36 232.085 544.17 232.693 543.791 233.266C543.418 233.832 542.878 234.272 542.169 234.587C541.46 234.895 540.659 235.049 539.764 235.049C538.282 235.049 537.15 234.741 536.37 234.125C535.597 233.51 535.103 232.597 534.888 231.387Z" fill="black"/>
<path d="M271.326 412.391V396.648H277.233C278.435 396.648 279.398 396.809 280.121 397.131C280.852 397.446 281.421 397.937 281.829 398.602C282.244 399.261 282.452 399.952 282.452 400.675C282.452 401.348 282.269 401.982 281.904 402.576C281.539 403.17 280.988 403.65 280.25 404.015C281.202 404.294 281.933 404.77 282.441 405.443C282.957 406.116 283.214 406.911 283.214 407.827C283.214 408.565 283.057 409.252 282.742 409.889C282.434 410.519 282.051 411.006 281.593 411.35C281.134 411.693 280.558 411.955 279.864 412.134C279.176 412.305 278.332 412.391 277.329 412.391H271.326ZM273.41 403.263H276.814C277.737 403.263 278.4 403.202 278.801 403.081C279.33 402.923 279.728 402.662 279.993 402.297C280.265 401.932 280.401 401.473 280.401 400.922C280.401 400.399 280.275 399.941 280.025 399.547C279.774 399.147 279.416 398.874 278.951 398.731C278.486 398.581 277.687 398.506 276.556 398.506H273.41V403.263ZM273.41 410.533H277.329C278.002 410.533 278.475 410.508 278.747 410.458C279.227 410.372 279.627 410.229 279.95 410.029C280.272 409.828 280.537 409.538 280.744 409.159C280.952 408.772 281.056 408.328 281.056 407.827C281.056 407.24 280.905 406.732 280.605 406.302C280.304 405.866 279.885 405.561 279.348 405.389C278.818 405.21 278.052 405.121 277.05 405.121H273.41V410.533Z" fill="black"/>
<path d="M285.813 412.391V400.986H287.553V402.715C287.997 401.906 288.405 401.373 288.777 401.115C289.157 400.858 289.572 400.729 290.023 400.729C290.674 400.729 291.337 400.936 292.009 401.352L291.344 403.145C290.871 402.866 290.399 402.726 289.926 402.726C289.504 402.726 289.124 402.855 288.788 403.113C288.451 403.363 288.211 403.714 288.068 404.165C287.854 404.853 287.746 405.604 287.746 406.42V412.391H285.813Z" fill="black"/>
<path d="M300.601 410.984C299.885 411.593 299.194 412.023 298.528 412.273C297.869 412.524 297.161 412.649 296.402 412.649C295.149 412.649 294.186 412.345 293.513 411.736C292.84 411.121 292.503 410.337 292.503 409.384C292.503 408.826 292.629 408.318 292.879 407.859C293.137 407.394 293.47 407.022 293.878 406.743C294.293 406.463 294.759 406.252 295.274 406.109C295.654 406.009 296.226 405.912 296.992 405.819C298.553 405.633 299.702 405.411 300.44 405.153C300.447 404.888 300.45 404.72 300.45 404.648C300.45 403.861 300.268 403.306 299.903 402.984C299.409 402.547 298.675 402.329 297.701 402.329C296.792 402.329 296.119 402.49 295.682 402.812C295.253 403.127 294.934 403.689 294.726 404.498L292.836 404.24C293.008 403.431 293.291 402.78 293.685 402.286C294.079 401.785 294.648 401.402 295.392 401.137C296.137 400.865 297 400.729 297.98 400.729C298.954 400.729 299.745 400.843 300.354 401.072C300.962 401.302 301.41 401.591 301.696 401.942C301.982 402.286 302.183 402.723 302.297 403.252C302.362 403.582 302.394 404.176 302.394 405.035V407.612C302.394 409.409 302.433 410.548 302.512 411.027C302.598 411.5 302.763 411.955 303.006 412.391H300.987C300.787 411.99 300.658 411.521 300.601 410.984ZM300.44 406.667C299.738 406.954 298.686 407.197 297.282 407.398C296.488 407.512 295.926 407.641 295.596 407.784C295.267 407.927 295.013 408.139 294.834 408.418C294.655 408.69 294.565 408.994 294.565 409.331C294.565 409.846 294.759 410.276 295.145 410.619C295.539 410.963 296.112 411.135 296.864 411.135C297.608 411.135 298.27 410.974 298.85 410.652C299.43 410.322 299.856 409.875 300.128 409.309C300.336 408.872 300.44 408.228 300.44 407.376V406.667Z" fill="black"/>
<path d="M304.381 412.391V410.823L311.64 402.49C310.817 402.533 310.09 402.554 309.46 402.554H304.81V400.986H314.132V402.264L307.957 409.502L306.765 410.823C307.631 410.759 308.444 410.727 309.203 410.727H314.475V412.391H304.381Z" fill="black"/>
<path d="M316.409 398.871V396.648H318.342V398.871H316.409ZM316.409 412.391V400.986H318.342V412.391H316.409Z" fill="black"/>
<path d="M321.252 412.391V396.648H323.185V412.391H321.252Z" fill="black"/>
<path d="M91.0613 682.935C91.0613 681.074 91.251 679.577 91.6304 678.446C92.0171 677.308 92.5862 676.431 93.3379 675.815C94.0968 675.199 95.049 674.892 96.1945 674.892C97.0393 674.892 97.7803 675.063 98.4175 675.407C99.0547 675.744 99.5809 676.234 99.9961 676.878C100.411 677.515 100.737 678.296 100.973 679.219C101.21 680.136 101.328 681.374 101.328 682.935C101.328 684.782 101.138 686.275 100.759 687.413C100.379 688.544 99.81 689.421 99.0511 690.044C98.2994 690.66 97.3472 690.968 96.1945 690.968C94.6767 690.968 93.4847 690.424 92.6184 689.336C91.5803 688.025 91.0613 685.892 91.0613 682.935ZM93.048 682.935C93.048 685.52 93.3487 687.241 93.9501 688.101C94.5586 688.953 95.3068 689.379 96.1945 689.379C97.0823 689.379 97.8269 688.949 98.4282 688.09C99.0368 687.231 99.3411 685.512 99.3411 682.935C99.3411 680.343 99.0368 678.622 98.4282 677.77C97.8269 676.918 97.0751 676.492 96.173 676.492C95.2853 676.492 94.5765 676.868 94.0467 677.619C93.3809 678.579 93.048 680.351 93.048 682.935Z" fill="#1A202C"/>
<path d="M87.1938 622.3H85.2608V609.982C84.7955 610.426 84.1833 610.87 83.4244 611.314C82.6727 611.758 81.9962 612.091 81.3948 612.313V610.444C82.4758 609.936 83.4209 609.32 84.2299 608.597C85.0389 607.874 85.6116 607.172 85.9481 606.492H87.1938V622.3Z" fill="#1A202C"/>
<path d="M92.1553 614.536C92.1553 612.674 92.345 611.178 92.7244 610.047C93.111 608.908 93.6802 608.031 94.4319 607.416C95.1908 606.8 96.143 606.492 97.2885 606.492C98.1333 606.492 98.8743 606.664 99.5115 607.008C100.149 607.344 100.675 607.835 101.09 608.479C101.505 609.116 101.831 609.896 102.067 610.82C102.304 611.736 102.422 612.975 102.422 614.536C102.422 616.383 102.232 617.876 101.853 619.014C101.473 620.145 100.904 621.022 100.145 621.645C99.3933 622.261 98.4412 622.569 97.2885 622.569C95.7707 622.569 94.5787 622.024 93.7124 620.936C92.6743 619.626 92.1553 617.493 92.1553 614.536ZM94.142 614.536C94.142 617.12 94.4427 618.842 95.0441 619.701C95.6526 620.553 96.4007 620.979 97.2885 620.979C98.1763 620.979 98.9208 620.55 99.5222 619.69C100.131 618.831 100.435 617.113 100.435 614.536C100.435 611.944 100.131 610.222 99.5222 609.37C98.9208 608.518 98.1691 608.092 97.267 608.092C96.3793 608.092 95.6705 608.468 95.1407 609.22C94.4749 610.179 94.142 611.951 94.142 614.536Z" fill="#1A202C"/>
<path d="M90.0719 552.042V553.9H79.6658C79.6515 553.434 79.7266 552.987 79.8913 552.557C80.1562 551.848 80.5786 551.15 81.1585 550.463C81.7456 549.776 82.5904 548.981 83.6929 548.079C85.404 546.676 86.5602 545.566 87.1616 544.75C87.763 543.927 88.0637 543.15 88.0637 542.42C88.0637 541.654 87.7881 541.009 87.2368 540.487C86.6927 539.957 85.9803 539.692 85.0997 539.692C84.169 539.692 83.4244 539.971 82.866 540.53C82.3076 541.088 82.0248 541.861 82.0176 542.849L80.0309 542.645C80.1669 541.163 80.6788 540.036 81.5666 539.262C82.4543 538.482 83.6464 538.092 85.1427 538.092C86.6533 538.092 87.8489 538.511 88.7295 539.348C89.6101 540.186 90.0504 541.224 90.0504 542.463C90.0504 543.093 89.9215 543.712 89.6638 544.32C89.4061 544.929 88.9765 545.57 88.3751 546.243C87.7809 546.916 86.7893 547.839 85.4004 549.013C84.2406 549.987 83.496 550.649 83.1667 551C82.8374 551.344 82.5653 551.691 82.3505 552.042H90.0719Z" fill="#1A202C"/>
<path d="M92.1552 546.135C92.1552 544.274 92.345 542.778 92.7244 541.646C93.111 540.508 93.6802 539.631 94.4319 539.015C95.1908 538.4 96.143 538.092 97.2885 538.092C98.1333 538.092 98.8743 538.264 99.5115 538.607C100.149 538.944 100.675 539.434 101.09 540.079C101.505 540.716 101.831 541.496 102.067 542.42C102.304 543.336 102.422 544.575 102.422 546.135C102.422 547.982 102.232 549.475 101.853 550.613C101.473 551.745 100.904 552.622 100.145 553.244C99.3933 553.86 98.4411 554.168 97.2885 554.168C95.7707 554.168 94.5787 553.624 93.7124 552.536C92.6743 551.226 92.1552 549.092 92.1552 546.135ZM94.142 546.135C94.142 548.72 94.4427 550.442 95.044 551.301C95.6526 552.153 96.4007 552.579 97.2885 552.579C98.1762 552.579 98.9208 552.149 99.5222 551.29C100.131 550.431 100.435 548.713 100.435 546.135C100.435 543.544 100.131 541.822 99.5222 540.97C98.9208 540.118 98.1691 539.692 97.267 539.692C96.3793 539.692 95.6705 540.068 95.1407 540.819C94.4749 541.779 94.142 543.551 94.142 546.135Z" fill="#1A202C"/>
<path d="M79.9236 481.644L81.8566 481.387C82.0785 482.482 82.4544 483.273 82.9842 483.76C83.5212 484.24 84.1727 484.48 84.9387 484.48C85.8479 484.48 86.614 484.165 87.2368 483.535C87.8669 482.904 88.1819 482.124 88.1819 481.193C88.1819 480.306 87.8919 479.575 87.312 479.003C86.7321 478.423 85.9947 478.133 85.0998 478.133C84.7347 478.133 84.28 478.204 83.7359 478.348L83.9507 476.651C84.0796 476.665 84.1834 476.672 84.2621 476.672C85.0855 476.672 85.8265 476.458 86.4851 476.028C87.1438 475.598 87.4731 474.936 87.4731 474.041C87.4731 473.332 87.2333 472.745 86.7536 472.28C86.2739 471.815 85.6546 471.582 84.8957 471.582C84.144 471.582 83.5176 471.818 83.0164 472.291C82.5153 472.763 82.1931 473.472 82.0499 474.417L80.1169 474.073C80.3531 472.778 80.8901 471.775 81.7277 471.067C82.5654 470.351 83.6071 469.993 84.8528 469.993C85.7119 469.993 86.503 470.179 87.2261 470.551C87.9492 470.916 88.5005 471.417 88.8799 472.055C89.2665 472.692 89.4598 473.368 89.4598 474.084C89.4598 474.764 89.2773 475.384 88.9121 475.942C88.547 476.5 88.0065 476.944 87.2905 477.274C88.2213 477.488 88.9443 477.936 89.4598 478.616C89.9753 479.289 90.233 480.134 90.233 481.15C90.233 482.525 89.7319 483.692 88.7296 484.651C87.7273 485.604 86.4601 486.08 84.928 486.08C83.5462 486.08 82.3971 485.668 81.4807 484.845C80.5715 484.021 80.0525 482.955 79.9236 481.644Z" fill="#1A202C"/>
<path d="M92.1553 478.036C92.1553 476.175 92.345 474.678 92.7245 473.547C93.1111 472.409 93.6803 471.532 94.432 470.916C95.1909 470.301 96.1431 469.993 97.2886 469.993C98.1334 469.993 98.8744 470.164 99.5115 470.508C100.149 470.845 100.675 471.335 101.09 471.979C101.505 472.617 101.831 473.397 102.067 474.32C102.304 475.237 102.422 476.475 102.422 478.036C102.422 479.883 102.232 481.376 101.853 482.514C101.473 483.645 100.904 484.522 100.145 485.145C99.3934 485.761 98.4412 486.069 97.2886 486.069C95.7708 486.069 94.5787 485.525 93.7125 484.437C92.6744 483.126 92.1553 480.993 92.1553 478.036ZM94.142 478.036C94.142 480.621 94.4427 482.342 95.0441 483.202C95.6526 484.054 96.4008 484.48 97.2886 484.48C98.1763 484.48 98.9209 484.05 99.5223 483.191C100.131 482.332 100.435 480.614 100.435 478.036C100.435 475.444 100.131 473.723 99.5223 472.871C98.9209 472.019 98.1692 471.593 97.2671 471.593C96.3793 471.593 95.6705 471.969 95.1408 472.72C94.4749 473.68 94.142 475.452 94.142 478.036Z" fill="#1A202C"/>
<path d="M86.1093 417.401V413.631H79.2793V411.859L86.4637 401.657H88.0423V411.859H90.1686V413.631H88.0423V417.401H86.1093ZM86.1093 411.859V404.761L81.1801 411.859H86.1093Z" fill="#1A202C"/>
<path d="M92.1554 409.636C92.1554 407.775 92.3451 406.279 92.7245 405.147C93.1111 404.009 93.6803 403.132 94.432 402.516C95.1909 401.901 96.1431 401.593 97.2886 401.593C98.1334 401.593 98.8744 401.765 99.5116 402.108C100.149 402.445 100.675 402.935 101.09 403.579C101.505 404.217 101.831 404.997 102.067 405.921C102.304 406.837 102.422 408.076 102.422 409.636C102.422 411.483 102.232 412.976 101.853 414.114C101.473 415.246 100.904 416.123 100.145 416.746C99.3935 417.361 98.4413 417.669 97.2886 417.669C95.7708 417.669 94.5788 417.125 93.7125 416.037C92.6744 414.727 92.1554 412.593 92.1554 409.636ZM94.1421 409.636C94.1421 412.221 94.4428 413.943 95.0442 414.802C95.6527 415.654 96.4009 416.08 97.2886 416.08C98.1764 416.08 98.9209 415.65 99.5223 414.791C100.131 413.932 100.435 412.214 100.435 409.636C100.435 407.045 100.131 405.323 99.5223 404.471C98.9209 403.619 98.1692 403.193 97.2671 403.193C96.3794 403.193 95.6706 403.569 95.1408 404.32C94.475 405.28 94.1421 407.052 94.1421 409.636Z" fill="#1A202C"/>
<path d="M79.9128 344.876L81.9425 344.705C82.0929 345.693 82.4401 346.437 82.9842 346.938C83.5355 347.432 84.1977 347.679 84.9709 347.679C85.9016 347.679 86.6892 347.328 87.3335 346.627C87.9778 345.925 88.3 344.995 88.3 343.835C88.3 342.732 87.9886 341.862 87.3657 341.225C86.75 340.588 85.941 340.269 84.9387 340.269C84.3158 340.269 83.7538 340.413 83.2527 340.699C82.7515 340.978 82.3578 341.343 82.0714 341.794L80.2565 341.558L81.7814 333.472H89.6102V335.319H83.3278L82.4795 339.55C83.4245 338.891 84.4161 338.562 85.4542 338.562C86.8288 338.562 87.9886 339.038 88.9336 339.99C89.8786 340.942 90.3512 342.167 90.3512 343.663C90.3512 345.088 89.9359 346.319 89.1054 347.357C88.096 348.631 86.7178 349.269 84.9709 349.269C83.539 349.269 82.3685 348.868 81.4593 348.066C80.5572 347.264 80.0417 346.201 79.9128 344.876Z" fill="#1A202C"/>
<path d="M92.1553 341.236C92.1553 339.374 92.345 337.878 92.7245 336.747C93.1111 335.609 93.6802 334.732 94.432 334.116C95.1909 333.5 96.1431 333.192 97.2886 333.192C98.1334 333.192 98.8744 333.364 99.5115 333.708C100.149 334.044 100.675 334.535 101.09 335.179C101.505 335.816 101.831 336.597 102.067 337.52C102.304 338.437 102.422 339.675 102.422 341.236C102.422 343.083 102.232 344.576 101.853 345.714C101.473 346.845 100.904 347.722 100.145 348.345C99.3934 348.961 98.4412 349.269 97.2886 349.269C95.7708 349.269 94.5787 348.725 93.7125 347.636C92.6744 346.326 92.1553 344.193 92.1553 341.236ZM94.142 341.236C94.142 343.82 94.4427 345.542 95.0441 346.401C95.6526 347.253 96.4008 347.679 97.2886 347.679C98.1763 347.679 98.9209 347.25 99.5223 346.391C100.131 345.531 100.435 343.813 100.435 341.236C100.435 338.644 100.131 336.922 99.5223 336.07C98.9209 335.218 98.1692 334.792 97.2671 334.792C96.3793 334.792 95.6705 335.168 95.1408 335.92C94.4749 336.879 94.142 338.651 94.142 341.236Z" fill="#1A202C"/>
<path d="M89.9431 268.712L88.0208 268.863C87.8489 268.104 87.6055 267.552 87.2905 267.209C86.7679 266.657 86.1235 266.382 85.3575 266.382C84.7418 266.382 84.2013 266.554 83.7359 266.897C83.1274 267.341 82.6477 267.989 82.2969 268.841C81.9461 269.693 81.7635 270.907 81.7492 272.482C82.2145 271.773 82.7837 271.247 83.4567 270.903C84.1297 270.559 84.8349 270.388 85.5723 270.388C86.861 270.388 87.9563 270.864 88.8584 271.816C89.7676 272.761 90.2223 273.985 90.2223 275.489C90.2223 276.477 90.0075 277.397 89.5779 278.248C89.1555 279.093 88.572 279.741 87.8275 280.192C87.0829 280.643 86.2381 280.869 85.2931 280.869C83.6822 280.869 82.3685 280.278 81.3518 279.097C80.3352 277.908 79.8269 275.954 79.8269 273.233C79.8269 270.191 80.3889 267.978 81.5129 266.597C82.4938 265.394 83.8147 264.792 85.4756 264.792C86.7142 264.792 87.7272 265.14 88.5148 265.834C89.3094 266.529 89.7855 267.488 89.9431 268.712ZM82.0499 275.499C82.0499 276.165 82.1895 276.802 82.4687 277.411C82.7551 278.019 83.1524 278.485 83.6607 278.807C84.169 279.122 84.7024 279.279 85.2608 279.279C86.077 279.279 86.7786 278.95 87.3657 278.291C87.9528 277.633 88.2463 276.738 88.2463 275.607C88.2463 274.518 87.9563 273.663 87.3764 273.04C86.7965 272.41 86.0663 272.095 85.1857 272.095C84.3122 272.095 83.5712 272.41 82.9627 273.04C82.3542 273.663 82.0499 274.483 82.0499 275.499Z" fill="#1A202C"/>
<path d="M92.1553 272.836C92.1553 270.975 92.345 269.478 92.7245 268.347C93.1111 267.209 93.6802 266.332 94.432 265.716C95.1908 265.1 96.143 264.792 97.2885 264.792C98.1333 264.792 98.8743 264.964 99.5115 265.308C100.149 265.644 100.675 266.135 101.09 266.779C101.505 267.416 101.831 268.197 102.067 269.12C102.304 270.037 102.422 271.275 102.422 272.836C102.422 274.683 102.232 276.176 101.853 277.314C101.473 278.445 100.904 279.322 100.145 279.945C99.3934 280.561 98.4412 280.869 97.2885 280.869C95.7708 280.869 94.5787 280.325 93.7124 279.236C92.6743 277.926 92.1553 275.793 92.1553 272.836ZM94.142 272.836C94.142 275.421 94.4427 277.142 95.0441 278.001C95.6526 278.853 96.4008 279.279 97.2885 279.279C98.1763 279.279 98.9209 278.85 99.5222 277.991C100.131 277.132 100.435 275.413 100.435 272.836C100.435 270.244 100.131 268.523 99.5222 267.671C98.9209 266.819 98.1691 266.393 97.2671 266.393C96.3793 266.393 95.6705 266.768 95.1407 267.52C94.4749 268.48 94.142 270.251 94.142 272.836Z" fill="#1A202C"/>
<path d="M80.0417 198.819V196.961H90.2331V198.465C89.2308 199.532 88.2356 200.949 87.2476 202.717C86.2668 204.486 85.5079 206.304 84.971 208.173C84.5843 209.49 84.3374 210.933 84.23 212.501H82.2432C82.2647 211.262 82.5081 209.766 82.9735 208.012C83.4389 206.258 84.1047 204.568 84.971 202.943C85.8444 201.311 86.7715 199.936 87.7524 198.819H80.0417Z" fill="#1A202C"/>
<path d="M92.1553 204.736C92.1553 202.875 92.3451 201.379 92.7245 200.247C93.1111 199.109 93.6803 198.232 94.432 197.616C95.1909 197.001 96.1431 196.693 97.2886 196.693C98.1334 196.693 98.8744 196.865 99.5116 197.208C100.149 197.545 100.675 198.035 101.09 198.68C101.505 199.317 101.831 200.097 102.067 201.021C102.304 201.937 102.422 203.176 102.422 204.736C102.422 206.583 102.232 208.076 101.853 209.215C101.473 210.346 100.904 211.223 100.145 211.846C99.3934 212.461 98.4412 212.769 97.2886 212.769C95.7708 212.769 94.5788 212.225 93.7125 211.137C92.6744 209.827 92.1553 207.693 92.1553 204.736ZM94.1421 204.736C94.1421 207.321 94.4428 209.043 95.0441 209.902C95.6527 210.754 96.4008 211.18 97.2886 211.18C98.1764 211.18 98.9209 210.75 99.5223 209.891C100.131 209.032 100.435 207.314 100.435 204.736C100.435 202.145 100.131 200.423 99.5223 199.571C98.9209 198.719 98.1692 198.293 97.2671 198.293C96.3794 198.293 95.6706 198.669 95.1408 199.421C94.475 200.38 94.1421 202.152 94.1421 204.736Z" fill="#1A202C"/>
<path d="M82.8875 135.562C82.0857 135.269 81.4915 134.85 81.1049 134.306C80.7183 133.762 80.525 133.11 80.525 132.351C80.525 131.206 80.9366 130.243 81.7599 129.463C82.5833 128.682 83.6786 128.292 85.0461 128.292C86.4207 128.292 87.5268 128.693 88.3644 129.495C89.2021 130.289 89.6209 131.26 89.6209 132.405C89.6209 133.135 89.4276 133.772 89.041 134.317C88.6615 134.854 88.0816 135.269 87.3013 135.562C88.2678 135.877 89.0016 136.386 89.5028 137.087C90.0111 137.789 90.2652 138.626 90.2652 139.6C90.2652 140.946 89.7891 142.077 88.8369 142.994C87.8848 143.91 86.6319 144.368 85.0783 144.368C83.5247 144.368 82.2718 143.91 81.3196 142.994C80.3675 142.07 79.8914 140.921 79.8914 139.546C79.8914 138.523 80.1491 137.667 80.6646 136.98C81.1872 136.285 81.9282 135.813 82.8875 135.562ZM82.5009 132.287C82.5009 133.031 82.7408 133.64 83.2204 134.113C83.7001 134.585 84.323 134.821 85.089 134.821C85.8336 134.821 86.4422 134.589 86.9147 134.123C87.3943 133.651 87.6342 133.074 87.6342 132.394C87.6342 131.686 87.3872 131.091 86.8932 130.612C86.4064 130.125 85.7978 129.881 85.0676 129.881C84.3301 129.881 83.718 130.118 83.2312 130.59C82.7444 131.063 82.5009 131.628 82.5009 132.287ZM81.8781 139.557C81.8781 140.108 82.0069 140.642 82.2647 141.157C82.5296 141.673 82.9198 142.074 83.4352 142.36C83.9507 142.639 84.5056 142.779 85.0998 142.779C86.0233 142.779 86.7858 142.482 87.3872 141.888C87.9886 141.293 88.2893 140.538 88.2893 139.622C88.2893 138.691 87.9778 137.921 87.355 137.313C86.7393 136.704 85.9661 136.4 85.0353 136.4C84.1261 136.4 83.3708 136.701 82.7694 137.302C82.1752 137.903 81.8781 138.655 81.8781 139.557Z" fill="#1A202C"/>
<path d="M92.1553 136.336C92.1553 134.474 92.345 132.978 92.7245 131.847C93.1111 130.708 93.6802 129.831 94.432 129.216C95.1909 128.6 96.1431 128.292 97.2885 128.292C98.1333 128.292 98.8743 128.464 99.5115 128.807C100.149 129.144 100.675 129.634 101.09 130.279C101.505 130.916 101.831 131.696 102.067 132.62C102.304 133.536 102.422 134.775 102.422 136.336C102.422 138.183 102.232 139.675 101.853 140.814C101.473 141.945 100.904 142.822 100.145 143.445C99.3934 144.06 98.4412 144.368 97.2885 144.368C95.7708 144.368 94.5787 143.824 93.7125 142.736C92.6744 141.426 92.1553 139.292 92.1553 136.336ZM94.142 136.336C94.142 138.92 94.4427 140.642 95.0441 141.501C95.6526 142.353 96.4008 142.779 97.2885 142.779C98.1763 142.779 98.9209 142.349 99.5223 141.49C100.131 140.631 100.435 138.913 100.435 136.336C100.435 133.744 100.131 132.022 99.5223 131.17C98.9209 130.318 98.1691 129.892 97.2671 129.892C96.3793 129.892 95.6705 130.268 95.1407 131.02C94.4749 131.979 94.142 133.751 94.142 136.336Z" fill="#1A202C"/>
<path d="M106.76 706.336C106.76 704.474 106.95 702.978 107.329 701.847C107.716 700.708 108.285 699.831 109.037 699.216C109.796 698.6 110.748 698.292 111.893 698.292C112.738 698.292 113.479 698.464 114.116 698.807C114.753 699.144 115.28 699.634 115.695 700.279C116.11 700.916 116.436 701.696 116.672 702.62C116.908 703.536 117.026 704.775 117.026 706.336C117.026 708.183 116.837 709.675 116.457 710.814C116.078 711.945 115.509 712.822 114.75 713.445C113.998 714.06 113.046 714.368 111.893 714.368C110.375 714.368 109.183 713.824 108.317 712.736C107.279 711.426 106.76 709.292 106.76 706.336ZM108.747 706.336C108.747 708.92 109.047 710.642 109.649 711.501C110.257 712.353 111.005 712.779 111.893 712.779C112.781 712.779 113.526 712.349 114.127 711.49C114.736 710.631 115.04 708.913 115.04 706.336C115.04 703.744 114.736 702.022 114.127 701.17C113.526 700.318 112.774 699.892 111.872 699.892C110.984 699.892 110.275 700.268 109.745 701.02C109.08 701.979 108.747 703.751 108.747 706.336Z" fill="#1A202C"/>
<path d="M255.465 712.242V714.1H245.059C245.045 713.634 245.12 713.187 245.284 712.757C245.549 712.049 245.972 711.351 246.552 710.663C247.139 709.976 247.983 709.181 249.086 708.279C250.797 706.876 251.953 705.766 252.555 704.95C253.156 704.127 253.457 703.35 253.457 702.62C253.457 701.854 253.181 701.209 252.63 700.687C252.086 700.157 251.373 699.892 250.493 699.892C249.562 699.892 248.817 700.171 248.259 700.73C247.701 701.288 247.418 702.061 247.411 703.049L245.424 702.845C245.56 701.363 246.072 700.236 246.96 699.463C247.847 698.682 249.039 698.292 250.536 698.292C252.046 698.292 253.242 698.711 254.123 699.548C255.003 700.386 255.443 701.424 255.443 702.663C255.443 703.293 255.315 703.912 255.057 704.521C254.799 705.129 254.37 705.77 253.768 706.443C253.174 707.116 252.182 708.039 250.793 709.214C249.634 710.187 248.889 710.849 248.56 711.2C248.23 711.544 247.958 711.891 247.744 712.242H255.465Z" fill="#1A202C"/>
<path d="M257.548 706.336C257.548 704.474 257.738 702.978 258.117 701.847C258.504 700.708 259.073 699.831 259.825 699.216C260.584 698.6 261.536 698.292 262.682 698.292C263.526 698.292 264.267 698.464 264.905 698.807C265.542 699.144 266.068 699.634 266.483 700.279C266.898 700.916 267.224 701.696 267.46 702.62C267.697 703.536 267.815 704.775 267.815 706.336C267.815 708.183 267.625 709.675 267.246 710.814C266.866 711.945 266.297 712.822 265.538 713.445C264.786 714.06 263.834 714.368 262.682 714.368C261.164 714.368 259.972 713.824 259.105 712.736C258.067 711.426 257.548 709.292 257.548 706.336ZM259.535 706.336C259.535 708.92 259.836 710.642 260.437 711.501C261.046 712.353 261.794 712.779 262.682 712.779C263.569 712.779 264.314 712.349 264.915 711.49C265.524 710.631 265.828 708.913 265.828 706.336C265.828 703.744 265.524 702.022 264.915 701.17C264.314 700.318 263.562 699.892 262.66 699.892C261.772 699.892 261.064 700.268 260.534 701.02C259.868 701.979 259.535 703.751 259.535 706.336Z" fill="#1A202C"/>
<path d="M395.622 714.1V710.33H388.792V708.558L395.976 698.356H397.555V708.558H399.681V710.33H397.555V714.1H395.622ZM395.622 708.558V701.46L390.693 708.558H395.622Z" fill="#1A202C"/>
<path d="M401.668 706.336C401.668 704.474 401.857 702.978 402.237 701.847C402.624 700.708 403.193 699.831 403.944 699.216C404.703 698.6 405.656 698.292 406.801 698.292C407.646 698.292 408.387 698.464 409.024 698.807C409.661 699.144 410.187 699.634 410.603 700.279C411.018 700.916 411.344 701.696 411.58 702.62C411.816 703.536 411.934 704.775 411.934 706.336C411.934 708.183 411.745 709.675 411.365 710.814C410.986 711.945 410.416 712.822 409.658 713.445C408.906 714.06 407.954 714.368 406.801 714.368C405.283 714.368 404.091 713.824 403.225 712.736C402.187 711.426 401.668 709.292 401.668 706.336ZM403.654 706.336C403.654 708.92 403.955 710.642 404.557 711.501C405.165 712.353 405.913 712.779 406.801 712.779C407.689 712.779 408.433 712.349 409.035 711.49C409.643 710.631 409.948 708.913 409.948 706.336C409.948 703.744 409.643 702.022 409.035 701.17C408.433 700.318 407.682 699.892 406.78 699.892C405.892 699.892 405.183 700.268 404.653 701.02C403.987 701.979 403.654 703.751 403.654 706.336Z" fill="#1A202C"/>
<path d="M543.575 702.212L541.653 702.362C541.481 701.603 541.238 701.052 540.923 700.708C540.4 700.157 539.756 699.881 538.99 699.881C538.374 699.881 537.834 700.053 537.368 700.397C536.76 700.841 536.28 701.489 535.929 702.341C535.578 703.193 535.396 704.406 535.382 705.981C535.847 705.272 536.416 704.746 537.089 704.402C537.762 704.059 538.467 703.887 539.205 703.887C540.493 703.887 541.589 704.363 542.491 705.315C543.4 706.26 543.855 707.485 543.855 708.988C543.855 709.976 543.64 710.896 543.21 711.748C542.788 712.593 542.204 713.241 541.46 713.692C540.715 714.143 539.87 714.368 538.925 714.368C537.315 714.368 536.001 713.778 534.984 712.596C533.968 711.408 533.459 709.453 533.459 706.733C533.459 703.69 534.021 701.478 535.145 700.096C536.126 698.893 537.447 698.292 539.108 698.292C540.346 698.292 541.36 698.639 542.147 699.334C542.942 700.028 543.418 700.987 543.575 702.212ZM535.682 708.999C535.682 709.665 535.822 710.302 536.101 710.91C536.387 711.519 536.785 711.984 537.293 712.306C537.801 712.621 538.335 712.779 538.893 712.779C539.709 712.779 540.411 712.45 540.998 711.791C541.585 711.132 541.879 710.237 541.879 709.106C541.879 708.018 541.589 707.162 541.009 706.54C540.429 705.91 539.699 705.595 538.818 705.595C537.945 705.595 537.204 705.91 536.595 706.54C535.986 707.162 535.682 707.982 535.682 708.999Z" fill="#1A202C"/>
<path d="M545.788 706.336C545.788 704.474 545.977 702.978 546.357 701.847C546.743 700.708 547.313 699.831 548.064 699.216C548.823 698.6 549.775 698.292 550.921 698.292C551.766 698.292 552.507 698.464 553.144 698.807C553.781 699.144 554.307 699.634 554.722 700.279C555.138 700.916 555.463 701.696 555.7 702.62C555.936 703.536 556.054 704.775 556.054 706.336C556.054 708.183 555.864 709.675 555.485 710.814C555.105 711.945 554.536 712.822 553.777 713.445C553.026 714.06 552.073 714.368 550.921 714.368C549.403 714.368 548.211 713.824 547.345 712.736C546.307 711.426 545.788 709.292 545.788 706.336ZM547.774 706.336C547.774 708.92 548.075 710.642 548.676 711.501C549.285 712.353 550.033 712.779 550.921 712.779C551.809 712.779 552.553 712.349 553.155 711.49C553.763 710.631 554.067 708.913 554.067 706.336C554.067 703.744 553.763 702.022 553.155 701.17C552.553 700.318 551.801 699.892 550.899 699.892C550.012 699.892 549.303 700.268 548.773 701.02C548.107 701.979 547.774 703.751 547.774 706.336Z" fill="#1A202C"/>
<path d="M680.639 705.562C679.837 705.269 679.243 704.85 678.856 704.306C678.469 703.762 678.276 703.11 678.276 702.351C678.276 701.206 678.688 700.243 679.511 699.463C680.335 698.682 681.43 698.292 682.797 698.292C684.172 698.292 685.278 698.693 686.116 699.495C686.953 700.289 687.372 701.26 687.372 702.405C687.372 703.135 687.179 703.772 686.792 704.317C686.413 704.854 685.833 705.269 685.053 705.562C686.019 705.877 686.753 706.386 687.254 707.087C687.762 707.789 688.017 708.626 688.017 709.6C688.017 710.946 687.54 712.077 686.588 712.994C685.636 713.91 684.383 714.368 682.83 714.368C681.276 714.368 680.023 713.91 679.071 712.994C678.119 712.07 677.643 710.921 677.643 709.546C677.643 708.523 677.9 707.667 678.416 706.98C678.938 706.285 679.679 705.813 680.639 705.562ZM680.252 702.287C680.252 703.031 680.492 703.64 680.972 704.113C681.451 704.585 682.074 704.821 682.84 704.821C683.585 704.821 684.193 704.589 684.666 704.123C685.146 703.651 685.385 703.074 685.385 702.394C685.385 701.686 685.138 701.091 684.644 700.612C684.158 700.125 683.549 699.881 682.819 699.881C682.081 699.881 681.469 700.118 680.982 700.59C680.496 701.063 680.252 701.628 680.252 702.287ZM679.629 709.557C679.629 710.108 679.758 710.642 680.016 711.157C680.281 711.673 680.671 712.074 681.186 712.36C681.702 712.639 682.257 712.779 682.851 712.779C683.775 712.779 684.537 712.482 685.138 711.888C685.74 711.293 686.041 710.538 686.041 709.622C686.041 708.691 685.729 707.921 685.106 707.313C684.491 706.704 683.717 706.4 682.787 706.4C681.877 706.4 681.122 706.701 680.521 707.302C679.926 707.903 679.629 708.655 679.629 709.557Z" fill="#1A202C"/>
<path d="M689.907 706.336C689.907 704.474 690.096 702.978 690.476 701.847C690.862 700.708 691.432 699.831 692.183 699.216C692.942 698.6 693.894 698.292 695.04 698.292C695.885 698.292 696.626 698.464 697.263 698.807C697.9 699.144 698.426 699.634 698.842 700.279C699.257 700.916 699.583 701.696 699.819 702.62C700.055 703.536 700.173 704.775 700.173 706.336C700.173 708.183 699.983 709.675 699.604 710.814C699.225 711.945 698.655 712.822 697.896 713.445C697.145 714.06 696.193 714.368 695.04 714.368C693.522 714.368 692.33 713.824 691.464 712.736C690.426 711.426 689.907 709.292 689.907 706.336ZM691.893 706.336C691.893 708.92 692.194 710.642 692.795 711.501C693.404 712.353 694.152 712.779 695.04 712.779C695.928 712.779 696.672 712.349 697.274 711.49C697.882 710.631 698.186 708.913 698.186 706.336C698.186 703.744 697.882 702.022 697.274 701.17C696.672 700.318 695.92 699.892 695.018 699.892C694.131 699.892 693.422 700.268 692.892 701.02C692.226 701.979 691.893 703.751 691.893 706.336Z" fill="#1A202C"/>
</svg>