<svg xmlns="http://www.w3.org/2000/svg" viewBox="0 0 85.04 85.04"><defs><style>.cls-1{fill:#441344;}.cls-2{fill:#fff;}.cls-3{fill:#653860;}.cls-4{fill:#a9869e;}.cls-5{fill:#cab0c0;}.cls-6{fill:#875e7e;}</style></defs><g id="Layer_4" data-name="Layer 4"><rect class="cls-1" x="5.86" y="22.14" width="5.63" height="5.63"/><rect class="cls-1" x="5.86" y="29.19" width="5.63" height="5.63"/><rect class="cls-1" x="5.86" y="36.27" width="5.63" height="5.63"/><rect class="cls-1" x="5.86" y="43.33" width="5.63" height="5.63"/><rect class="cls-1" x="5.86" y="50.4" width="5.63" height="5.63"/><rect class="cls-1" x="5.86" y="57.29" width="5.63" height="5.63"/><path class="cls-2" d="M8.9,26.18H8.72l.3-2-.52.07,0-.14.7-.11Z"/><path class="cls-2" d="M9.08,33H7.78l0-.14L8.62,32a3.43,3.43,0,0,0,.31-.36A.9.9,0,0,0,9,31.36.37.37,0,0,0,9,31.05a.38.38,0,0,0-.3-.11.49.49,0,0,0-.37.14.58.58,0,0,0-.17.34H8A.66.66,0,0,1,8.2,31a.73.73,0,0,1,.5-.18.5.5,0,0,1,.41.16.44.44,0,0,1,.1.41.7.7,0,0,1-.14.35c-.09.11-.21.25-.37.42L8,32.8H9.1Z"/><path class="cls-2" d="M8.31,39H8.5a.57.57,0,0,0,.37-.12.51.51,0,0,0,.17-.3A.38.38,0,0,0,9,38.25a.39.39,0,0,0-.31-.11.6.6,0,0,0-.36.12.49.49,0,0,0-.18.32H8a.59.59,0,0,1,.24-.42A.76.76,0,0,1,8.68,38a.54.54,0,0,1,.42.15.47.47,0,0,1,.11.44.55.55,0,0,1-.13.29.77.77,0,0,1-.28.19.45.45,0,0,1,.25.19.51.51,0,0,1,0,.33.66.66,0,0,1-.24.45.79.79,0,0,1-.5.16A.64.64,0,0,1,7.91,40a.43.43,0,0,1-.14-.45h.17a.34.34,0,0,0,.09.33.45.45,0,0,0,.35.13.52.52,0,0,0,.37-.13.54.54,0,0,0,.18-.33.4.4,0,0,0-.08-.34.55.55,0,0,0-.37-.1h-.2l0-.11h0Z"/><path class="cls-2" d="M8.89,46.75h.33l0,.14H8.87l-.08.55H8.61l.08-.55h-1V46.8l1.19-1.5H9.1Zm-1,0h.77l.19-1.22h0l-.09.16Z"/><path class="cls-2" d="M7.89,53.22,8.18,52h1l0,.16H8.31l-.2.77a.78.78,0,0,1,.2-.11.93.93,0,0,1,.27,0A.48.48,0,0,1,9,53a.65.65,0,0,1,.1.51,1,1,0,0,1-.24.52.69.69,0,0,1-.52.19.58.58,0,0,1-.42-.15.46.46,0,0,1-.11-.44H8A.39.39,0,0,0,8,54a.4.4,0,0,0,.31.11.5.5,0,0,0,.37-.15.69.69,0,0,0,.19-.41.55.55,0,0,0-.06-.38A.34.34,0,0,0,8.53,53a.71.71,0,0,0-.31.06.41.41,0,0,0-.19.2Z"/><path class="cls-2" d="M8.73,59.87a.77.77,0,0,0-.34.07.86.86,0,0,0-.26.2l0-.29a.9.9,0,0,1,.23-.49.58.58,0,0,1,.41-.19l.22,0,.18.08.07-.15A1,1,0,0,0,9.07,59l-.24,0a.78.78,0,0,0-.55.23,1,1,0,0,0-.29.61l-.09.6a.78.78,0,0,0,.11.62.53.53,0,0,0,.45.23.75.75,0,0,0,.52-.2.84.84,0,0,0,.26-.53.63.63,0,0,0-.09-.52A.48.48,0,0,0,8.73,59.87Zm.33.71a.69.69,0,0,1-.2.41.49.49,0,0,1-.38.16A.41.41,0,0,1,8.14,61a.67.67,0,0,1-.06-.5v-.11a.61.61,0,0,1,.23-.25.58.58,0,0,1,.33-.1.38.38,0,0,1,.35.14A.55.55,0,0,1,9.06,60.58Z"/><rect class="cls-3" x="13.07" y="22.14" width="12.32" height="5.63"/><rect class="cls-4" x="59.97" y="22.14" width="15.51" height="5.63"/><rect class="cls-5" x="25.27" y="22.14" width="22.76" height="5.63"/><rect class="cls-6" x="40.29" y="22.14" width="14.52" height="5.63"/><rect class="cls-1" x="51.92" y="22.14" width="14.51" height="5.63"/><rect class="cls-3" x="13.07" y="50.4" width="14.24" height="5.63"/><rect class="cls-4" x="59.97" y="50.4" width="13.89" height="5.63"/><rect class="cls-5" x="25.27" y="50.4" width="7.74" height="5.63"/><rect class="cls-6" x="32.04" y="50.4" width="17.36" height="5.63"/><rect class="cls-1" x="45.23" y="50.4" width="17.36" height="5.63"/><rect class="cls-3" x="13.07" y="29.19" width="10.45" height="5.63"/><rect class="cls-4" x="61.13" y="29.19" width="10.45" height="5.63"/><rect class="cls-5" x="22.51" y="29.19" width="14.26" height="5.63"/><rect class="cls-1" x="44.62" y="29.19" width="16.99" height="5.63"/><rect class="cls-6" x="33.67" y="29.19" width="12.79" height="5.63"/><rect class="cls-3" x="13.07" y="36.27" width="19.21" height="5.63"/><rect class="cls-4" x="59.97" y="36.27" width="19.21" height="5.63"/><rect class="cls-5" x="23.62" y="36.27" width="16.01" height="5.63"/><rect class="cls-6" x="37.36" y="36.27" width="16.01" height="5.63"/><rect class="cls-1" x="48.9" y="36.27" width="16" height="5.63"/><rect class="cls-3" x="13.07" y="43.33" width="17.13" height="5.63"/><rect class="cls-4" x="59.97" y="43.33" width="17.13" height="5.63"/><rect class="cls-5" x="20.42" y="43.33" width="28.2" height="5.63"/><rect class="cls-6" x="41.75" y="43.33" width="16.85" height="5.63"/><rect class="cls-1" x="51.85" y="43.33" width="8.58" height="5.63"/><rect class="cls-3" x="13.07" y="57.29" width="10.55" height="5.63"/><rect class="cls-4" x="59.97" y="57.29" width="10.08" height="5.63"/><rect class="cls-5" x="23.25" y="57.29" width="20.17" height="5.63"/><rect class="cls-6" x="37.63" y="57.29" width="20.17" height="5.63"/><rect class="cls-1" x="53.38" y="57.29" width="8.08" height="5.63"/><rect x="43.9" y="57.32" width="0.36" height="5.58"/><rect x="34.38" y="50.42" width="0.36" height="5.58"/><rect x="39.08" y="43.35" width="0.36" height="5.58"/><rect x="52.01" y="36.27" width="0.36" height="5.58"/><rect x="43.9" y="29.2" width="0.36" height="5.58"/><rect x="34.34" y="22.12" width="0.36" height="5.58"/><rect x="27.96" y="9.54" width="1.05" height="30.84" transform="translate(3.53 53.44) rotate(-90)"/><rect x="21.41" y="37.27" width="1.05" height="17.73" transform="translate(-24.2 68.07) rotate(-90)"/><rect x="29.59" y="14.94" width="1.05" height="34.08" transform="translate(-1.88 62.1) rotate(-90)"/><rect x="29.59" y="36.08" width="1.05" height="34.08" transform="translate(-23.01 83.23) rotate(-90)"/><rect x="34.17" y="38.48" width="1.05" height="43.24" transform="translate(-25.41 94.8) rotate(-90)"/><rect x="39.09" y="12.54" width="1.05" height="53.09" transform="translate(0.53 78.7) rotate(-90)"/></g></svg>