<svg class="plot-d6a7b5" fill="currentColor" font-family="system-ui, sans-serif" font-size="10" text-anchor="middle" width="640" height="424.5" viewBox="0 0 640 424.5" xmlns="http://www.w3.org/2000/svg" xmlns:xlink="http://www.w3.org/1999/xlink"><style>:where(.plot-d6a7b5) {
  --plot-background: white;
  display: block;
  height: auto;
  height: intrinsic;
  max-width: 100%;
}
:where(.plot-d6a7b5 text),
:where(.plot-d6a7b5 tspan) {
  white-space: pre;
}</style><g aria-label="x-grid" aria-hidden="true" stroke="currentColor" stroke-opacity="0.1"><line x1="97" x2="97" y1="20" y2="389.5"/><line x1="131" x2="131" y1="20" y2="389.5"/><line x1="165" x2="165" y1="20" y2="389.5"/><line x1="199" x2="199" y1="20" y2="389.5"/><line x1="233" x2="233" y1="20" y2="389.5"/><line x1="267" x2="267" y1="20" y2="389.5"/><line x1="301" x2="301" y1="20" y2="389.5"/><line x1="335" x2="335" y1="20" y2="389.5"/><line x1="369" x2="369" y1="20" y2="389.5"/><line x1="403" x2="403" y1="20" y2="389.5"/><line x1="437" x2="437" y1="20" y2="389.5"/><line x1="471" x2="471" y1="20" y2="389.5"/><line x1="505" x2="505" y1="20" y2="389.5"/><line x1="539" x2="539" y1="20" y2="389.5"/></g><g aria-label="x-axis tick" aria-hidden="true" fill="none" stroke="currentColor"><path transform="translate(97,389.5)" d="M0,0L0,6"/><path transform="translate(131,389.5)" d="M0,0L0,6"/><path transform="translate(165,389.5)" d="M0,0L0,6"/><path transform="translate(199,389.5)" d="M0,0L0,6"/><path transform="translate(233,389.5)" d="M0,0L0,6"/><path transform="translate(267,389.5)" d="M0,0L0,6"/><path transform="translate(301,389.5)" d="M0,0L0,6"/><path transform="translate(335,389.5)" d="M0,0L0,6"/><path transform="translate(369,389.5)" d="M0,0L0,6"/><path transform="translate(403,389.5)" d="M0,0L0,6"/><path transform="translate(437,389.5)" d="M0,0L0,6"/><path transform="translate(471,389.5)" d="M0,0L0,6"/><path transform="translate(505,389.5)" d="M0,0L0,6"/><path transform="translate(539,389.5)" d="M0,0L0,6"/></g><g aria-label="x-axis tick label" transform="translate(0,9)"><text y="0.71em" transform="translate(97,389.5)">Q1.13</text><text y="0.71em" transform="translate(131,389.5)">Q2.13</text><text y="0.71em" transform="translate(165,389.5)">Q3.13</text><text y="0.71em" transform="translate(199,389.5)">Q4.13</text><text y="0.71em" transform="translate(233,389.5)">Q1.14</text><text y="0.71em" transform="translate(267,389.5)">Q2.14</text><text y="0.71em" transform="translate(301,389.5)">Q3.14</text><text y="0.71em" transform="translate(335,389.5)">Q4.14</text><text y="0.71em" transform="translate(369,389.5)">Q1.15</text><text y="0.71em" transform="translate(403,389.5)">Q2.15</text><text y="0.71em" transform="translate(437,389.5)">Q3.15</text><text y="0.71em" transform="translate(471,389.5)">Q4.15</text><text y="0.71em" transform="translate(505,389.5)">Q1.16</text><text y="0.71em" transform="translate(539,389.5)">Q2.16</text></g><g aria-label="line" fill="none" stroke-width="24" stroke-linejoin="round" stroke-linecap="round"><path stroke="#9c6b4e" d="M97,367.765L131,367.765L165,367.765L199,367.765L233,367.765L267,367.765L301,367.765L335,367.765L369,367.765L403,367.765L437,367.765L471,367.765L505,367.765L539,367.765"/><path stroke="#ff8ab7" d="M97,237.353L131,193.882L165,237.353L199,150.412L233,106.941L267,237.353L301,193.882L335,237.353L369,237.353L403,193.882L437,237.353L471,193.882L505,237.353L539,237.353"/><path stroke="#3ca951" d="M97,193.882L131,237.353L165,193.882L199,237.353L233,237.353L267,193.882L301,237.353L335,193.882L369,193.882L403,237.353L437,150.412L471,237.353L505,193.882L539,63.471"/><path stroke="#efb118" d="M97,63.471L131,106.941L165,150.412L199,63.471L233,63.471L267,63.471L301,63.471L335,106.941L369,150.412L403,63.471L437,63.471L471,63.471L505,63.471L539,106.941"/><path stroke="#a463f2" d="M97,280.824L131,324.294L165,324.294L199,324.294L233,324.294L267,324.294L301,324.294L335,324.294L369,324.294L403,324.294L437,324.294L471,324.294L505,324.294L539,324.294"/><path stroke="#6cc5b0" d="M97,150.412L131,63.471L165,106.941L199,193.882L233,150.412L267,150.412L301,150.412L335,150.412L369,106.941L403,106.941L437,106.941L471,106.941L505,106.941L539,193.882"/><path stroke="#97bbf5" d="M97,324.294L131,280.824L165,280.824L199,280.824L233,280.824L267,280.824L301,280.824L335,280.824L369,280.824L403,280.824L437,280.824L471,280.824L505,280.824L539,280.824"/><path stroke="#4269d0" d="M97,20L131,20L165,20L199,20L233,20L267,20L301,20L335,20L369,20L403,20L437,20L471,20L505,20L539,20"/><path stroke="#ff725c" d="M97,106.941L131,150.412L165,63.471L199,106.941L233,193.882L267,106.941L301,106.941L335,63.471L369,63.471L403,150.412L437,193.882L471,150.412L505,150.412L539,150.412"/></g><g aria-label="dot" stroke-width="24" stroke-linejoin="round" stroke-linecap="round"><circle cx="97" cy="367.7647058823529" r="0" fill="#9c6b4e"/><circle cx="131" cy="367.7647058823529" r="0" fill="#9c6b4e"/><circle cx="165" cy="367.7647058823529" r="0" fill="#9c6b4e"/><circle cx="199" cy="367.7647058823529" r="0" fill="#9c6b4e"/><circle cx="233" cy="367.7647058823529" r="0" fill="#9c6b4e"/><circle cx="267" cy="367.7647058823529" r="0" fill="#9c6b4e"/><circle cx="301" cy="367.7647058823529" r="0" fill="#9c6b4e"/><circle cx="335" cy="367.7647058823529" r="0" fill="#9c6b4e"/><circle cx="369" cy="367.7647058823529" r="0" fill="#9c6b4e"/><circle cx="403" cy="367.7647058823529" r="0" fill="#9c6b4e"/><circle cx="437" cy="367.7647058823529" r="0" fill="#9c6b4e"/><circle cx="471" cy="367.7647058823529" r="0" fill="#9c6b4e"/><circle cx="505" cy="367.7647058823529" r="0" fill="#9c6b4e"/><circle cx="539" cy="367.7647058823529" r="0" fill="#9c6b4e"/><circle cx="97" cy="237.3529411764706" r="0" fill="#ff8ab7"/><circle cx="131" cy="193.88235294117646" r="0" fill="#ff8ab7"/><circle cx="165" cy="237.3529411764706" r="0" fill="#ff8ab7"/><circle cx="199" cy="150.41176470588235" r="0" fill="#ff8ab7"/><circle cx="233" cy="106.94117647058823" r="0" fill="#ff8ab7"/><circle cx="267" cy="237.3529411764706" r="0" fill="#ff8ab7"/><circle cx="301" cy="193.88235294117646" r="0" fill="#ff8ab7"/><circle cx="335" cy="237.3529411764706" r="0" fill="#ff8ab7"/><circle cx="369" cy="237.3529411764706" r="0" fill="#ff8ab7"/><circle cx="403" cy="193.88235294117646" r="0" fill="#ff8ab7"/><circle cx="437" cy="237.3529411764706" r="0" fill="#ff8ab7"/><circle cx="471" cy="193.88235294117646" r="0" fill="#ff8ab7"/><circle cx="505" cy="237.3529411764706" r="0" fill="#ff8ab7"/><circle cx="539" cy="237.3529411764706" r="0" fill="#ff8ab7"/><circle cx="97" cy="193.88235294117646" r="0" fill="#3ca951"/><circle cx="131" cy="237.3529411764706" r="0" fill="#3ca951"/><circle cx="165" cy="193.88235294117646" r="0" fill="#3ca951"/><circle cx="199" cy="237.3529411764706" r="0" fill="#3ca951"/><circle cx="233" cy="237.3529411764706" r="0" fill="#3ca951"/><circle cx="267" cy="193.88235294117646" r="0" fill="#3ca951"/><circle cx="301" cy="237.3529411764706" r="0" fill="#3ca951"/><circle cx="335" cy="193.88235294117646" r="0" fill="#3ca951"/><circle cx="369" cy="193.88235294117646" r="0" fill="#3ca951"/><circle cx="403" cy="237.3529411764706" r="0" fill="#3ca951"/><circle cx="437" cy="150.41176470588235" r="0" fill="#3ca951"/><circle cx="471" cy="237.3529411764706" r="0" fill="#3ca951"/><circle cx="505" cy="193.88235294117646" r="0" fill="#3ca951"/><circle cx="539" cy="63.470588235294116" r="0" fill="#3ca951"/><circle cx="97" cy="63.470588235294116" r="0" fill="#efb118"/><circle cx="131" cy="106.94117647058823" r="0" fill="#efb118"/><circle cx="165" cy="150.41176470588235" r="0" fill="#efb118"/><circle cx="199" cy="63.470588235294116" r="0" fill="#efb118"/><circle cx="233" cy="63.470588235294116" r="0" fill="#efb118"/><circle cx="267" cy="63.470588235294116" r="0" fill="#efb118"/><circle cx="301" cy="63.470588235294116" r="0" fill="#efb118"/><circle cx="335" cy="106.94117647058823" r="0" fill="#efb118"/><circle cx="369" cy="150.41176470588235" r="0" fill="#efb118"/><circle cx="403" cy="63.470588235294116" r="0" fill="#efb118"/><circle cx="437" cy="63.470588235294116" r="0" fill="#efb118"/><circle cx="471" cy="63.470588235294116" r="0" fill="#efb118"/><circle cx="505" cy="63.470588235294116" r="0" fill="#efb118"/><circle cx="539" cy="106.94117647058823" r="0" fill="#efb118"/><circle cx="97" cy="280.8235294117647" r="0" fill="#a463f2"/><circle cx="131" cy="324.2941176470588" r="0" fill="#a463f2"/><circle cx="165" cy="324.2941176470588" r="0" fill="#a463f2"/><circle cx="199" cy="324.2941176470588" r="0" fill="#a463f2"/><circle cx="233" cy="324.2941176470588" r="0" fill="#a463f2"/><circle cx="267" cy="324.2941176470588" r="0" fill="#a463f2"/><circle cx="301" cy="324.2941176470588" r="0" fill="#a463f2"/><circle cx="335" cy="324.2941176470588" r="0" fill="#a463f2"/><circle cx="369" cy="324.2941176470588" r="0" fill="#a463f2"/><circle cx="403" cy="324.2941176470588" r="0" fill="#a463f2"/><circle cx="437" cy="324.2941176470588" r="0" fill="#a463f2"/><circle cx="471" cy="324.2941176470588" r="0" fill="#a463f2"/><circle cx="505" cy="324.2941176470588" r="0" fill="#a463f2"/><circle cx="539" cy="324.2941176470588" r="0" fill="#a463f2"/><circle cx="97" cy="150.41176470588235" r="0" fill="#6cc5b0"/><circle cx="131" cy="63.470588235294116" r="0" fill="#6cc5b0"/><circle cx="165" cy="106.94117647058823" r="0" fill="#6cc5b0"/><circle cx="199" cy="193.88235294117646" r="0" fill="#6cc5b0"/><circle cx="233" cy="150.41176470588235" r="0" fill="#6cc5b0"/><circle cx="267" cy="150.41176470588235" r="0" fill="#6cc5b0"/><circle cx="301" cy="150.41176470588235" r="0" fill="#6cc5b0"/><circle cx="335" cy="150.41176470588235" r="0" fill="#6cc5b0"/><circle cx="369" cy="106.94117647058823" r="0" fill="#6cc5b0"/><circle cx="403" cy="106.94117647058823" r="0" fill="#6cc5b0"/><circle cx="437" cy="106.94117647058823" r="0" fill="#6cc5b0"/><circle cx="471" cy="106.94117647058823" r="0" fill="#6cc5b0"/><circle cx="505" cy="106.94117647058823" r="0" fill="#6cc5b0"/><circle cx="539" cy="193.88235294117646" r="0" fill="#6cc5b0"/><circle cx="97" cy="324.2941176470588" r="0" fill="#97bbf5"/><circle cx="131" cy="280.8235294117647" r="0" fill="#97bbf5"/><circle cx="165" cy="280.8235294117647" r="0" fill="#97bbf5"/><circle cx="199" cy="280.8235294117647" r="0" fill="#97bbf5"/><circle cx="233" cy="280.8235294117647" r="0" fill="#97bbf5"/><circle cx="267" cy="280.8235294117647" r="0" fill="#97bbf5"/><circle cx="301" cy="280.8235294117647" r="0" fill="#97bbf5"/><circle cx="335" cy="280.8235294117647" r="0" fill="#97bbf5"/><circle cx="369" cy="280.8235294117647" r="0" fill="#97bbf5"/><circle cx="403" cy="280.8235294117647" r="0" fill="#97bbf5"/><circle cx="437" cy="280.8235294117647" r="0" fill="#97bbf5"/><circle cx="471" cy="280.8235294117647" r="0" fill="#97bbf5"/><circle cx="505" cy="280.8235294117647" r="0" fill="#97bbf5"/><circle cx="539" cy="280.8235294117647" r="0" fill="#97bbf5"/><circle cx="97" cy="20" r="0" fill="#4269d0"/><circle cx="131" cy="20" r="0" fill="#4269d0"/><circle cx="165" cy="20" r="0" fill="#4269d0"/><circle cx="199" cy="20" r="0" fill="#4269d0"/><circle cx="233" cy="20" r="0" fill="#4269d0"/><circle cx="267" cy="20" r="0" fill="#4269d0"/><circle cx="301" cy="20" r="0" fill="#4269d0"/><circle cx="335" cy="20" r="0" fill="#4269d0"/><circle cx="369" cy="20" r="0" fill="#4269d0"/><circle cx="403" cy="20" r="0" fill="#4269d0"/><circle cx="437" cy="20" r="0" fill="#4269d0"/><circle cx="471" cy="20" r="0" fill="#4269d0"/><circle cx="505" cy="20" r="0" fill="#4269d0"/><circle cx="539" cy="20" r="0" fill="#4269d0"/><circle cx="97" cy="106.94117647058823" r="0" fill="#ff725c"/><circle cx="131" cy="150.41176470588235" r="0" fill="#ff725c"/><circle cx="165" cy="63.470588235294116" r="0" fill="#ff725c"/><circle cx="199" cy="106.94117647058823" r="0" fill="#ff725c"/><circle cx="233" cy="193.88235294117646" r="0" fill="#ff725c"/><circle cx="267" cy="106.94117647058823" r="0" fill="#ff725c"/><circle cx="301" cy="106.94117647058823" r="0" fill="#ff725c"/><circle cx="335" cy="63.470588235294116" r="0" fill="#ff725c"/><circle cx="369" cy="63.470588235294116" r="0" fill="#ff725c"/><circle cx="403" cy="150.41176470588235" r="0" fill="#ff725c"/><circle cx="437" cy="193.88235294117646" r="0" fill="#ff725c"/><circle cx="471" cy="150.41176470588235" r="0" fill="#ff725c"/><circle cx="505" cy="150.41176470588235" r="0" fill="#ff725c"/><circle cx="539" cy="150.41176470588235" r="0" fill="#ff725c"/></g><g aria-label="text" fill="white" stroke-width="24" stroke-linejoin="round" stroke-linecap="round" font-variant="tabular-nums"><text y="0.32em" transform="translate(97,367.7647058823529)">9</text><text y="0.32em" transform="translate(131,367.7647058823529)">9</text><text y="0.32em" transform="translate(165,367.7647058823529)">9</text><text y="0.32em" transform="translate(199,367.7647058823529)">9</text><text y="0.32em" transform="translate(233,367.7647058823529)">9</text><text y="0.32em" transform="translate(267,367.7647058823529)">9</text><text y="0.32em" transform="translate(301,367.7647058823529)">9</text><text y="0.32em" transform="translate(335,367.7647058823529)">9</text><text y="0.32em" transform="translate(369,367.7647058823529)">9</text><text y="0.32em" transform="translate(403,367.7647058823529)">9</text><text y="0.32em" transform="translate(437,367.7647058823529)">9</text><text y="0.32em" transform="translate(471,367.7647058823529)">9</text><text y="0.32em" transform="translate(505,367.7647058823529)">9</text><text y="0.32em" transform="translate(539,367.7647058823529)">9</text><text y="0.32em" transform="translate(97,237.3529411764706)">6</text><text y="0.32em" transform="translate(131,193.88235294117646)">5</text><text y="0.32em" transform="translate(165,237.3529411764706)">6</text><text y="0.32em" transform="translate(199,150.41176470588235)">4</text><text y="0.32em" transform="translate(233,106.94117647058823)">3</text><text y="0.32em" transform="translate(267,237.3529411764706)">6</text><text y="0.32em" transform="translate(301,193.88235294117646)">5</text><text y="0.32em" transform="translate(335,237.3529411764706)">6</text><text y="0.32em" transform="translate(369,237.3529411764706)">6</text><text y="0.32em" transform="translate(403,193.88235294117646)">5</text><text y="0.32em" transform="translate(437,237.3529411764706)">6</text><text y="0.32em" transform="translate(471,193.88235294117646)">5</text><text y="0.32em" transform="translate(505,237.3529411764706)">6</text><text y="0.32em" transform="translate(539,237.3529411764706)">6</text><text y="0.32em" transform="translate(97,193.88235294117646)">5</text><text y="0.32em" transform="translate(131,237.3529411764706)">6</text><text y="0.32em" transform="translate(165,193.88235294117646)">5</text><text y="0.32em" transform="translate(199,237.3529411764706)">6</text><text y="0.32em" transform="translate(233,237.3529411764706)">6</text><text y="0.32em" transform="translate(267,193.88235294117646)">5</text><text y="0.32em" transform="translate(301,237.3529411764706)">6</text><text y="0.32em" transform="translate(335,193.88235294117646)">5</text><text y="0.32em" transform="translate(369,193.88235294117646)">5</text><text y="0.32em" transform="translate(403,237.3529411764706)">6</text><text y="0.32em" transform="translate(437,150.41176470588235)">4</text><text y="0.32em" transform="translate(471,237.3529411764706)">6</text><text y="0.32em" transform="translate(505,193.88235294117646)">5</text><text y="0.32em" transform="translate(539,63.470588235294116)">2</text><text y="0.32em" transform="translate(97,63.470588235294116)">2</text><text y="0.32em" transform="translate(131,106.94117647058823)">3</text><text y="0.32em" transform="translate(165,150.41176470588235)">4</text><text y="0.32em" transform="translate(199,63.470588235294116)">2</text><text y="0.32em" transform="translate(233,63.470588235294116)">2</text><text y="0.32em" transform="translate(267,63.470588235294116)">2</text><text y="0.32em" transform="translate(301,63.470588235294116)">2</text><text y="0.32em" transform="translate(335,106.94117647058823)">3</text><text y="0.32em" transform="translate(369,150.41176470588235)">4</text><text y="0.32em" transform="translate(403,63.470588235294116)">2</text><text y="0.32em" transform="translate(437,63.470588235294116)">2</text><text y="0.32em" transform="translate(471,63.470588235294116)">2</text><text y="0.32em" transform="translate(505,63.470588235294116)">2</text><text y="0.32em" transform="translate(539,106.94117647058823)">3</text><text y="0.32em" transform="translate(97,280.8235294117647)">7</text><text y="0.32em" transform="translate(131,324.2941176470588)">8</text><text y="0.32em" transform="translate(165,324.2941176470588)">8</text><text y="0.32em" transform="translate(199,324.2941176470588)">8</text><text y="0.32em" transform="translate(233,324.2941176470588)">8</text><text y="0.32em" transform="translate(267,324.2941176470588)">8</text><text y="0.32em" transform="translate(301,324.2941176470588)">8</text><text y="0.32em" transform="translate(335,324.2941176470588)">8</text><text y="0.32em" transform="translate(369,324.2941176470588)">8</text><text y="0.32em" transform="translate(403,324.2941176470588)">8</text><text y="0.32em" transform="translate(437,324.2941176470588)">8</text><text y="0.32em" transform="translate(471,324.2941176470588)">8</text><text y="0.32em" transform="translate(505,324.2941176470588)">8</text><text y="0.32em" transform="translate(539,324.2941176470588)">8</text><text y="0.32em" transform="translate(97,150.41176470588235)">4</text><text y="0.32em" transform="translate(131,63.470588235294116)">2</text><text y="0.32em" transform="translate(165,106.94117647058823)">3</text><text y="0.32em" transform="translate(199,193.88235294117646)">5</text><text y="0.32em" transform="translate(233,150.41176470588235)">4</text><text y="0.32em" transform="translate(267,150.41176470588235)">4</text><text y="0.32em" transform="translate(301,150.41176470588235)">4</text><text y="0.32em" transform="translate(335,150.41176470588235)">4</text><text y="0.32em" transform="translate(369,106.94117647058823)">3</text><text y="0.32em" transform="translate(403,106.94117647058823)">3</text><text y="0.32em" transform="translate(437,106.94117647058823)">3</text><text y="0.32em" transform="translate(471,106.94117647058823)">3</text><text y="0.32em" transform="translate(505,106.94117647058823)">3</text><text y="0.32em" transform="translate(539,193.88235294117646)">5</text><text y="0.32em" transform="translate(97,324.2941176470588)">8</text><text y="0.32em" transform="translate(131,280.8235294117647)">7</text><text y="0.32em" transform="translate(165,280.8235294117647)">7</text><text y="0.32em" transform="translate(199,280.8235294117647)">7</text><text y="0.32em" transform="translate(233,280.8235294117647)">7</text><text y="0.32em" transform="translate(267,280.8235294117647)">7</text><text y="0.32em" transform="translate(301,280.8235294117647)">7</text><text y="0.32em" transform="translate(335,280.8235294117647)">7</text><text y="0.32em" transform="translate(369,280.8235294117647)">7</text><text y="0.32em" transform="translate(403,280.8235294117647)">7</text><text y="0.32em" transform="translate(437,280.8235294117647)">7</text><text y="0.32em" transform="translate(471,280.8235294117647)">7</text><text y="0.32em" transform="translate(505,280.8235294117647)">7</text><text y="0.32em" transform="translate(539,280.8235294117647)">7</text><text y="0.32em" transform="translate(97,20)">1</text><text y="0.32em" transform="translate(131,20)">1</text><text y="0.32em" transform="translate(165,20)">1</text><text y="0.32em" transform="translate(199,20)">1</text><text y="0.32em" transform="translate(233,20)">1</text><text y="0.32em" transform="translate(267,20)">1</text><text y="0.32em" transform="translate(301,20)">1</text><text y="0.32em" transform="translate(335,20)">1</text><text y="0.32em" transform="translate(369,20)">1</text><text y="0.32em" transform="translate(403,20)">1</text><text y="0.32em" transform="translate(437,20)">1</text><text y="0.32em" transform="translate(471,20)">1</text><text y="0.32em" transform="translate(505,20)">1</text><text y="0.32em" transform="translate(539,20)">1</text><text y="0.32em" transform="translate(97,106.94117647058823)">3</text><text y="0.32em" transform="translate(131,150.41176470588235)">4</text><text y="0.32em" transform="translate(165,63.470588235294116)">2</text><text y="0.32em" transform="translate(199,106.94117647058823)">3</text><text y="0.32em" transform="translate(233,193.88235294117646)">5</text><text y="0.32em" transform="translate(267,106.94117647058823)">3</text><text y="0.32em" transform="translate(301,106.94117647058823)">3</text><text y="0.32em" transform="translate(335,63.470588235294116)">2</text><text y="0.32em" transform="translate(369,63.470588235294116)">2</text><text y="0.32em" transform="translate(403,150.41176470588235)">4</text><text y="0.32em" transform="translate(437,193.88235294117646)">5</text><text y="0.32em" transform="translate(471,150.41176470588235)">4</text><text y="0.32em" transform="translate(505,150.41176470588235)">4</text><text y="0.32em" transform="translate(539,150.41176470588235)">4</text></g><g aria-label="text" stroke-width="24" stroke-linejoin="round" stroke-linecap="round" text-anchor="end" transform="translate(-17,NaN)"><text y="0.32em" transform="translate(97,367.7647058823529)">External</text><text y="0.32em" transform="translate(97,237.3529411764706)">Far West</text><text y="0.32em" transform="translate(97,193.88235294117646)">Great Lakes</text><text y="0.32em" transform="translate(97,63.470588235294116)">Mideast</text><text y="0.32em" transform="translate(97,280.8235294117647)">New England</text><text y="0.32em" transform="translate(97,150.41176470588235)">Plains</text><text y="0.32em" transform="translate(97,324.2941176470588)">Rocky Mountain</text><text y="0.32em" transform="translate(97,20)">Southeast</text><text y="0.32em" transform="translate(97,106.94117647058823)">Southwest</text></g><g aria-label="text" stroke-width="24" stroke-linejoin="round" stroke-linecap="round" text-anchor="start" transform="translate(17,NaN)"><text y="0.32em" transform="translate(539,367.7647058823529)">External</text><text y="0.32em" transform="translate(539,237.3529411764706)">Far West</text><text y="0.32em" transform="translate(539,63.470588235294116)">Great Lakes</text><text y="0.32em" transform="translate(539,106.94117647058823)">Mideast</text><text y="0.32em" transform="translate(539,324.2941176470588)">New England</text><text y="0.32em" transform="translate(539,193.88235294117646)">Plains</text><text y="0.32em" transform="translate(539,280.8235294117647)">Rocky Mountain</text><text y="0.32em" transform="translate(539,20)">Southeast</text><text y="0.32em" transform="translate(539,150.41176470588235)">Southwest</text></g></svg>