<svg xmlns="http://www.w3.org/2000/svg" width="900" height="260">
  <path fill="transparent" d="M0 0h900v260H0z"/>
  <path style="fill:#fff;stroke-width:1;stroke:#000" d="M0 84.717h10.189v10.189H0z" transform="translate(50 50)"/>
  <path style="fill:#f47560;stroke-width:1;stroke:#000" d="M0 94.906h10.189v10.189H0z" transform="translate(50 50)"/>
  <path style="fill:#f47560;stroke-width:1;stroke:#000" d="M0 105.094h10.189v10.189H0zM0 115.283h10.189v10.189H0z" transform="translate(50 50)"/>
  <path style="fill:#97e3d5;stroke-width:1;stroke:#000" d="M0 125.472h10.189v10.189H0z" transform="translate(50 50)"/>
  <path style="fill:#e8c1a0;stroke-width:1;stroke:#000" d="M10.189 64.34h10.189v10.189H10.189z" transform="translate(50 50)"/>
  <path style="fill:#e8c1a0;stroke-width:1;stroke:#000" d="M10.189 74.528h10.189v10.189H10.189z" transform="translate(50 50)"/>
  <path style="fill:#97e3d5;stroke-width:1;stroke:#000" d="M10.189 84.717h10.189v10.189H10.189zM10.189 94.906h10.189v10.189H10.189z" transform="translate(50 50)"/>
  <path style="fill:#61cdbb;stroke-width:1;stroke:#000" d="M10.189 105.094h10.189v10.189H10.189z" transform="translate(50 50)"/>
  <path style="fill:#97e3d5;stroke-width:1;stroke:#000" d="M10.189 115.283h10.189v10.189H10.189z" transform="translate(50 50)"/>
  <path style="fill:#fff;stroke-width:1;stroke:#000" d="M10.189 125.472h10.189v10.189H10.189zM20.377 64.34h10.189v10.189H20.377z" transform="translate(50 50)"/>
  <path style="fill:#fff;stroke-width:1;stroke:#000" d="M20.377 74.528h10.189v10.189H20.377z" transform="translate(50 50)"/>
  <path style="fill:#f47560;stroke-width:1;stroke:#000" d="M20.377 84.717h10.189v10.189H20.377z" transform="translate(50 50)"/>
  <path style="fill:#e8c1a0;stroke-width:1;stroke:#000" d="M20.377 94.906h10.189v10.189H20.377z" transform="translate(50 50)"/>
  <path style="fill:#e8c1a0;stroke-width:1;stroke:#000" d="M20.377 105.094h10.189v10.189H20.377z" transform="translate(50 50)"/>
  <path style="fill:#97e3d5;stroke-width:1;stroke:#000" d="M20.377 115.283h10.189v10.189H20.377z" transform="translate(50 50)"/>
  <path style="fill:#f47560;stroke-width:1;stroke:#000" d="M20.377 125.472h10.189v10.189H20.377zM30.566 64.34h10.189v10.189H30.566z" transform="translate(50 50)"/>
  <path style="fill:#97e3d5;stroke-width:1;stroke:#000" d="M30.566 74.528h10.189v10.189H30.566z" transform="translate(50 50)"/>
  <path style="fill:#e8c1a0;stroke-width:1;stroke:#000" d="M30.566 84.717h10.189v10.189H30.566z" transform="translate(50 50)"/>
  <path style="fill:#97e3d5;stroke-width:1;stroke:#000" d="M30.566 94.906h10.189v10.189H30.566z" transform="translate(50 50)"/>
  <path style="fill:#97e3d5;stroke-width:1;stroke:#000" d="M30.566 105.094h10.189v10.189H30.566z" transform="translate(50 50)"/>
  <path style="fill:#fff;stroke-width:1;stroke:#000" d="M30.566 115.283h10.189v10.189H30.566z" transform="translate(50 50)"/>
  <path style="fill:#fff;stroke-width:1;stroke:#000" d="M30.566 125.472h10.189v10.189H30.566zM40.755 64.34h10.189v10.189H40.755z" transform="translate(50 50)"/>
  <path style="fill:#61cdbb;stroke-width:1;stroke:#000" d="M40.755 74.528h10.189v10.189H40.755z" transform="translate(50 50)"/>
  <path style="fill:#61cdbb;stroke-width:1;stroke:#000" d="M40.755 84.717h10.189v10.189H40.755z" transform="translate(50 50)"/>
  <path style="fill:#fff;stroke-width:1;stroke:#000" d="M40.755 94.906h10.189v10.189H40.755z" transform="translate(50 50)"/>
  <path style="fill:#97e3d5;stroke-width:1;stroke:#000" d="M40.755 105.094h10.189v10.189H40.755z" transform="translate(50 50)"/>
  <path style="fill:#fff;stroke-width:1;stroke:#000" d="M65.755 115.283h10.189v10.189H65.755z" transform="translate(50 50)"/>
  <path style="fill:#fff;stroke-width:1;stroke:#000" d="M65.755 125.472h10.189v10.189H65.755zM75.943 64.34h10.189v10.189H75.943z" transform="translate(50 50)"/>
  <path style="fill:#97e3d5;stroke-width:1;stroke:#000" d="M75.943 74.528h10.189v10.189H75.943z" transform="translate(50 50)"/>
  <path style="fill:#f47560;stroke-width:1;stroke:#000" d="M75.943 84.717h10.189v10.189H75.943z" transform="translate(50 50)"/>
  <path style="fill:#61cdbb;stroke-width:1;stroke:#000" d="M75.943 94.906h10.189v10.189H75.943z" transform="translate(50 50)"/>
  <path style="fill:#61cdbb;stroke-width:1;stroke:#000" d="M75.943 105.094h10.189v10.189H75.943z" transform="translate(50 50)"/>
  <path style="fill:#fff;stroke-width:1;stroke:#000" d="M75.943 115.283h10.189v10.189H75.943z" transform="translate(50 50)"/>
  <path style="fill:#fff;stroke-width:1;stroke:#000" d="M75.943 125.472h10.189v10.189H75.943zM86.132 64.34h10.189v10.189H86.132z" transform="translate(50 50)"/>
  <path style="fill:#61cdbb;stroke-width:1;stroke:#000" d="M86.132 74.528h10.189v10.189H86.132z" transform="translate(50 50)"/>
  <path style="fill:#97e3d5;stroke-width:1;stroke:#000" d="M86.132 84.717h10.189v10.189H86.132z" transform="translate(50 50)"/>
  <path style="fill:#fff;stroke-width:1;stroke:#000" d="M86.132 94.906h10.189v10.189H86.132z" transform="translate(50 50)"/>
  <path style="fill:#fff;stroke-width:1;stroke:#000" d="M86.132 105.094h10.189v10.189H86.132zM86.132 115.283h10.189v10.189H86.132z" transform="translate(50 50)"/>
  <path style="fill:#61cdbb;stroke-width:1;stroke:#000" d="M86.132 125.472h10.189v10.189H86.132z" transform="translate(50 50)"/>
  <path style="fill:#e8c1a0;stroke-width:1;stroke:#000" d="M96.321 64.34h10.189v10.189H96.321z" transform="translate(50 50)"/>
  <path style="fill:#e8c1a0;stroke-width:1;stroke:#000" d="M96.321 74.528h10.189v10.189H96.321z" transform="translate(50 50)"/>
  <path style="fill:#61cdbb;stroke-width:1;stroke:#000" d="M96.321 84.717h10.189v10.189H96.321z" transform="translate(50 50)"/>
  <path style="fill:#fff;stroke-width:1;stroke:#000" d="M96.321 94.906h10.189v10.189H96.321z" transform="translate(50 50)"/>
  <path style="fill:#fff;stroke-width:1;stroke:#000" d="M96.321 105.094h10.189v10.189H96.321z" transform="translate(50 50)"/>
  <path style="fill:#e8c1a0;stroke-width:1;stroke:#000" d="M96.321 115.283h10.189v10.189H96.321z" transform="translate(50 50)"/>
  <path style="fill:#e8c1a0;stroke-width:1;stroke:#000" d="M96.321 125.472h10.189v10.189H96.321z" transform="translate(50 50)"/>
  <path style="fill:#f47560;stroke-width:1;stroke:#000" d="M106.509 64.34h10.189v10.189h-10.189z" transform="translate(50 50)"/>
  <path style="fill:#fff;stroke-width:1;stroke:#000" d="M106.509 74.528h10.189v10.189h-10.189z" transform="translate(50 50)"/>
  <path style="fill:#61cdbb;stroke-width:1;stroke:#000" d="M106.509 84.717h10.189v10.189h-10.189z" transform="translate(50 50)"/>
  <path style="fill:#fff;stroke-width:1;stroke:#000" d="M106.509 94.906h10.189v10.189h-10.189z" transform="translate(50 50)"/>
  <path style="fill:#fff;stroke-width:1;stroke:#000" d="M106.509 105.094h10.189v10.189h-10.189z" transform="translate(50 50)"/>
  <path style="fill:#e8c1a0;stroke-width:1;stroke:#000" d="M131.509 115.283h10.189v10.189h-10.189z" transform="translate(50 50)"/>
  <path style="fill:#e8c1a0;stroke-width:1;stroke:#000" d="M131.509 125.472h10.189v10.189h-10.189z" transform="translate(50 50)"/>
  <path style="fill:#fff;stroke-width:1;stroke:#000" d="M141.698 64.34h10.189v10.189h-10.189z" transform="translate(50 50)"/>
  <path style="fill:#fff;stroke-width:1;stroke:#000" d="M141.698 74.528h10.189v10.189h-10.189z" transform="translate(50 50)"/>
  <path style="fill:#61cdbb;stroke-width:1;stroke:#000" d="M141.698 84.717h10.189v10.189h-10.189z" transform="translate(50 50)"/>
  <path style="fill:#f47560;stroke-width:1;stroke:#000" d="M141.698 94.906h10.189v10.189h-10.189z" transform="translate(50 50)"/>
  <path style="fill:#97e3d5;stroke-width:1;stroke:#000" d="M141.698 105.094h10.189v10.189h-10.189z" transform="translate(50 50)"/>
  <path style="fill:#61cdbb;stroke-width:1;stroke:#000" d="M141.698 115.283h10.189v10.189h-10.189z" transform="translate(50 50)"/>
  <path style="fill:#f47560;stroke-width:1;stroke:#000" d="M141.698 125.472h10.189v10.189h-10.189z" transform="translate(50 50)"/>
  <path style="fill:#97e3d5;stroke-width:1;stroke:#000" d="M151.887 64.34h10.189v10.189h-10.189z" transform="translate(50 50)"/>
  <path style="fill:#97e3d5;stroke-width:1;stroke:#000" d="M151.887 74.528h10.189v10.189h-10.189z" transform="translate(50 50)"/>
  <path style="fill:#97e3d5;stroke-width:1;stroke:#000" d="M151.887 84.717h10.189v10.189h-10.189z" transform="translate(50 50)"/>
  <path style="fill:#f47560;stroke-width:1;stroke:#000" d="M151.887 94.906h10.189v10.189h-10.189z" transform="translate(50 50)"/>
  <path style="fill:#fff;stroke-width:1;stroke:#000" d="M151.887 105.094h10.189v10.189h-10.189z" transform="translate(50 50)"/>
  <path style="fill:#97e3d5;stroke-width:1;stroke:#000" d="M151.887 115.283h10.189v10.189h-10.189z" transform="translate(50 50)"/>
  <path style="fill:#fff;stroke-width:1;stroke:#000" d="M151.887 125.472h10.189v10.189h-10.189zM162.075 64.34h10.189v10.189h-10.189z" transform="translate(50 50)"/>
  <path style="fill:#e8c1a0;stroke-width:1;stroke:#000" d="M162.075 74.528h10.189v10.189h-10.189z" transform="translate(50 50)"/>
  <path style="fill:#fff;stroke-width:1;stroke:#000" d="M162.075 84.717h10.189v10.189h-10.189z" transform="translate(50 50)"/>
  <path style="fill:#e8c1a0;stroke-width:1;stroke:#000" d="M162.075 94.906h10.189v10.189h-10.189z" transform="translate(50 50)"/>
  <path style="fill:#fff;stroke-width:1;stroke:#000" d="M162.075 105.094h10.189v10.189h-10.189z" transform="translate(50 50)"/>
  <path style="fill:#97e3d5;stroke-width:1;stroke:#000" d="M162.075 115.283h10.189v10.189h-10.189z" transform="translate(50 50)"/>
  <path style="fill:#e8c1a0;stroke-width:1;stroke:#000" d="M162.075 125.472h10.189v10.189h-10.189z" transform="translate(50 50)"/>
  <path style="fill:#f47560;stroke-width:1;stroke:#000" d="M172.264 64.34h10.189v10.189h-10.189z" transform="translate(50 50)"/>
  <path style="fill:#e8c1a0;stroke-width:1;stroke:#000" d="M172.264 74.528h10.189v10.189h-10.189z" transform="translate(50 50)"/>
  <path style="fill:#61cdbb;stroke-width:1;stroke:#000" d="M172.264 84.717h10.189v10.189h-10.189z" transform="translate(50 50)"/>
  <path style="fill:#97e3d5;stroke-width:1;stroke:#000" d="M172.264 94.906h10.189v10.189h-10.189z" transform="translate(50 50)"/>
  <path style="fill:#61cdbb;stroke-width:1;stroke:#000" d="M172.264 105.094h10.189v10.189h-10.189z" transform="translate(50 50)"/>
  <path style="fill:#97e3d5;stroke-width:1;stroke:#000" d="M172.264 115.283h10.189v10.189h-10.189z" transform="translate(50 50)"/>
  <path style="fill:#f47560;stroke-width:1;stroke:#000" d="M172.264 125.472h10.189v10.189h-10.189z" transform="translate(50 50)"/>
  <path style="fill:#97e3d5;stroke-width:1;stroke:#000" d="M182.453 64.34h10.189v10.189h-10.189z" transform="translate(50 50)"/>
  <path style="fill:#fff;stroke-width:1;stroke:#000" d="M207.453 74.528h10.189v10.189h-10.189z" transform="translate(50 50)"/>
  <path style="fill:#e8c1a0;stroke-width:1;stroke:#000" d="M207.453 84.717h10.189v10.189h-10.189z" transform="translate(50 50)"/>
  <path style="fill:#61cdbb;stroke-width:1;stroke:#000" d="M207.453 94.906h10.189v10.189h-10.189z" transform="translate(50 50)"/>
  <path style="fill:#fff;stroke-width:1;stroke:#000" d="M207.453 105.094h10.189v10.189h-10.189z" transform="translate(50 50)"/>
  <path style="fill:#97e3d5;stroke-width:1;stroke:#000" d="M207.453 115.283h10.189v10.189h-10.189z" transform="translate(50 50)"/>
  <path style="fill:#fff;stroke-width:1;stroke:#000" d="M207.453 125.472h10.189v10.189h-10.189z" transform="translate(50 50)"/>
  <path style="fill:#e8c1a0;stroke-width:1;stroke:#000" d="M217.642 64.34h10.189v10.189h-10.189z" transform="translate(50 50)"/>
  <path style="fill:#97e3d5;stroke-width:1;stroke:#000" d="M217.642 74.528h10.189v10.189h-10.189z" transform="translate(50 50)"/>
  <path style="fill:#97e3d5;stroke-width:1;stroke:#000" d="M217.642 84.717h10.189v10.189h-10.189z" transform="translate(50 50)"/>
  <path style="fill:#f47560;stroke-width:1;stroke:#000" d="M217.642 94.906h10.189v10.189h-10.189z" transform="translate(50 50)"/>
  <path style="fill:#61cdbb;stroke-width:1;stroke:#000" d="M217.642 105.094h10.189v10.189h-10.189z" transform="translate(50 50)"/>
  <path style="fill:#97e3d5;stroke-width:1;stroke:#000" d="M217.642 115.283h10.189v10.189h-10.189z" transform="translate(50 50)"/>
  <path style="fill:#97e3d5;stroke-width:1;stroke:#000" d="M217.642 125.472h10.189v10.189h-10.189z" transform="translate(50 50)"/>
  <path style="fill:#f47560;stroke-width:1;stroke:#000" d="M227.83 64.34h10.189v10.189H227.83z" transform="translate(50 50)"/>
  <path style="fill:#fff;stroke-width:1;stroke:#000" d="M227.83 74.528h10.189v10.189H227.83z" transform="translate(50 50)"/>
  <path style="fill:#61cdbb;stroke-width:1;stroke:#000" d="M227.83 84.717h10.189v10.189H227.83z" transform="translate(50 50)"/>
  <path style="fill:#e8c1a0;stroke-width:1;stroke:#000" d="M227.83 94.906h10.189v10.189H227.83z" transform="translate(50 50)"/>
  <path style="fill:#61cdbb;stroke-width:1;stroke:#000" d="M227.83 105.094h10.189v10.189H227.83z" transform="translate(50 50)"/>
  <path style="fill:#fff;stroke-width:1;stroke:#000" d="M227.83 115.283h10.189v10.189H227.83z" transform="translate(50 50)"/>
  <path style="fill:#fff;stroke-width:1;stroke:#000" d="M227.83 125.472h10.189v10.189H227.83z" transform="translate(50 50)"/>
  <path style="fill:#97e3d5;stroke-width:1;stroke:#000" d="M238.019 64.34h10.189v10.189h-10.189z" transform="translate(50 50)"/>
  <path style="fill:#97e3d5;stroke-width:1;stroke:#000" d="M238.019 74.528h10.189v10.189h-10.189z" transform="translate(50 50)"/>
  <path style="fill:#61cdbb;stroke-width:1;stroke:#000" d="M238.019 84.717h10.189v10.189h-10.189z" transform="translate(50 50)"/>
  <path style="fill:#f47560;stroke-width:1;stroke:#000" d="M238.019 94.906h10.189v10.189h-10.189z" transform="translate(50 50)"/>
  <path style="fill:#fff;stroke-width:1;stroke:#000" d="M238.019 105.094h10.189v10.189h-10.189z" transform="translate(50 50)"/>
  <path style="fill:#f47560;stroke-width:1;stroke:#000" d="M238.019 115.283h10.189v10.189h-10.189z" transform="translate(50 50)"/>
  <path style="fill:#e8c1a0;stroke-width:1;stroke:#000" d="M238.019 125.472h10.189v10.189h-10.189z" transform="translate(50 50)"/>
  <path style="fill:#97e3d5;stroke-width:1;stroke:#000" d="M248.208 64.34h10.189v10.189h-10.189z" transform="translate(50 50)"/>
  <path style="fill:#e8c1a0;stroke-width:1;stroke:#000" d="M248.208 74.528h10.189v10.189h-10.189z" transform="translate(50 50)"/>
  <path style="fill:#fff;stroke-width:1;stroke:#000" d="M248.208 84.717h10.189v10.189h-10.189z" transform="translate(50 50)"/>
  <path style="fill:#97e3d5;stroke-width:1;stroke:#000" d="M273.208 94.906h10.189v10.189h-10.189z" transform="translate(50 50)"/>
  <path style="fill:#fff;stroke-width:1;stroke:#000" d="M273.208 105.094h10.189v10.189h-10.189z" transform="translate(50 50)"/>
  <path style="fill:#97e3d5;stroke-width:1;stroke:#000" d="M273.208 115.283h10.189v10.189h-10.189z" transform="translate(50 50)"/>
  <path style="fill:#fff;stroke-width:1;stroke:#000" d="M273.208 125.472h10.189v10.189h-10.189z" transform="translate(50 50)"/>
  <path style="fill:#f47560;stroke-width:1;stroke:#000" d="M283.396 64.34h10.189v10.189h-10.189z" transform="translate(50 50)"/>
  <path style="fill:#f47560;stroke-width:1;stroke:#000" d="M283.396 74.528h10.189v10.189h-10.189z" transform="translate(50 50)"/>
  <path style="fill:#61cdbb;stroke-width:1;stroke:#000" d="M283.396 84.717h10.189v10.189h-10.189zM283.396 94.906h10.189v10.189h-10.189z" transform="translate(50 50)"/>
  <path style="fill:#fff;stroke-width:1;stroke:#000" d="M283.396 105.094h10.189v10.189h-10.189zM283.396 115.283h10.189v10.189h-10.189z" transform="translate(50 50)"/>
  <path style="fill:#fff;stroke-width:1;stroke:#000" d="M283.396 125.472h10.189v10.189h-10.189z" transform="translate(50 50)"/>
  <path style="fill:#61cdbb;stroke-width:1;stroke:#000" d="M293.585 64.34h10.189v10.189h-10.189z" transform="translate(50 50)"/>
  <path style="fill:#e8c1a0;stroke-width:1;stroke:#000" d="M293.585 74.528h10.189v10.189h-10.189z" transform="translate(50 50)"/>
  <path style="fill:#f47560;stroke-width:1;stroke:#000" d="M293.585 84.717h10.189v10.189h-10.189z" transform="translate(50 50)"/>
  <path style="fill:#fff;stroke-width:1;stroke:#000" d="M293.585 94.906h10.189v10.189h-10.189z" transform="translate(50 50)"/>
  <path style="fill:#fff;stroke-width:1;stroke:#000" d="M293.585 105.094h10.189v10.189h-10.189z" transform="translate(50 50)"/>
  <path style="fill:#e8c1a0;stroke-width:1;stroke:#000" d="M293.585 115.283h10.189v10.189h-10.189z" transform="translate(50 50)"/>
  <path style="fill:#fff;stroke-width:1;stroke:#000" d="M293.585 125.472h10.189v10.189h-10.189z" transform="translate(50 50)"/>
  <path style="fill:#61cdbb;stroke-width:1;stroke:#000" d="M303.774 64.34h10.189v10.189h-10.189z" transform="translate(50 50)"/>
  <path style="fill:#61cdbb;stroke-width:1;stroke:#000" d="M303.774 74.528h10.189v10.189h-10.189z" transform="translate(50 50)"/>
  <path style="fill:#f47560;stroke-width:1;stroke:#000" d="M303.774 84.717h10.189v10.189h-10.189z" transform="translate(50 50)"/>
  <path style="fill:#fff;stroke-width:1;stroke:#000" d="M303.774 94.906h10.189v10.189h-10.189z" transform="translate(50 50)"/>
  <path style="fill:#fff;stroke-width:1;stroke:#000" d="M303.774 105.094h10.189v10.189h-10.189z" transform="translate(50 50)"/>
  <path style="fill:#e8c1a0;stroke-width:1;stroke:#000" d="M303.774 115.283h10.189v10.189h-10.189z" transform="translate(50 50)"/>
  <path style="fill:#e8c1a0;stroke-width:1;stroke:#000" d="M303.774 125.472h10.189v10.189h-10.189z" transform="translate(50 50)"/>
  <path style="fill:#61cdbb;stroke-width:1;stroke:#000" d="M313.962 64.34h10.189v10.189h-10.189z" transform="translate(50 50)"/>
  <path style="fill:#e8c1a0;stroke-width:1;stroke:#000" d="M313.962 74.528h10.189v10.189h-10.189z" transform="translate(50 50)"/>
  <path style="fill:#97e3d5;stroke-width:1;stroke:#000" d="M313.962 84.717h10.189v10.189h-10.189z" transform="translate(50 50)"/>
  <path style="fill:#61cdbb;stroke-width:1;stroke:#000" d="M313.962 94.906h10.189v10.189h-10.189z" transform="translate(50 50)"/>
  <path style="fill:#f47560;stroke-width:1;stroke:#000" d="M313.962 105.094h10.189v10.189h-10.189z" transform="translate(50 50)"/>
  <path style="fill:#e8c1a0;stroke-width:1;stroke:#000" d="M313.962 115.283h10.189v10.189h-10.189z" transform="translate(50 50)"/>
  <path style="fill:#fff;stroke-width:1;stroke:#000" d="M338.962 125.472h10.189v10.189h-10.189z" transform="translate(50 50)"/>
  <path style="fill:#e8c1a0;stroke-width:1;stroke:#000" d="M349.151 64.34h10.189v10.189h-10.189z" transform="translate(50 50)"/>
  <path style="fill:#fff;stroke-width:1;stroke:#000" d="M349.151 74.528h10.189v10.189h-10.189z" transform="translate(50 50)"/>
  <path style="fill:#fff;stroke-width:1;stroke:#000" d="M349.151 84.717h10.189v10.189h-10.189z" transform="translate(50 50)"/>
  <path style="fill:#97e3d5;stroke-width:1;stroke:#000" d="M349.151 94.906h10.189v10.189h-10.189z" transform="translate(50 50)"/>
  <path style="fill:#fff;stroke-width:1;stroke:#000" d="M349.151 105.094h10.189v10.189h-10.189zM349.151 115.283h10.189v10.189h-10.189z" transform="translate(50 50)"/>
  <path style="fill:#97e3d5;stroke-width:1;stroke:#000" d="M349.151 125.472h10.189v10.189h-10.189z" transform="translate(50 50)"/>
  <path style="fill:#fff;stroke-width:1;stroke:#000" d="M359.34 64.34h10.189v10.189H359.34z" transform="translate(50 50)"/>
  <path style="fill:#fff;stroke-width:1;stroke:#000" d="M359.34 74.528h10.189v10.189H359.34z" transform="translate(50 50)"/>
  <path style="fill:#fff;stroke-width:1;stroke:#000" d="M359.34 84.717h10.189v10.189H359.34z" transform="translate(50 50)"/>
  <path style="fill:#f47560;stroke-width:1;stroke:#000" d="M359.34 94.906h10.189v10.189H359.34z" transform="translate(50 50)"/>
  <path style="fill:#e8c1a0;stroke-width:1;stroke:#000" d="M359.34 105.094h10.189v10.189H359.34z" transform="translate(50 50)"/>
  <path style="fill:#fff;stroke-width:1;stroke:#000" d="M359.34 115.283h10.189v10.189H359.34z" transform="translate(50 50)"/>
  <path style="fill:#f47560;stroke-width:1;stroke:#000" d="M359.34 125.472h10.189v10.189H359.34z" transform="translate(50 50)"/>
  <path style="fill:#fff;stroke-width:1;stroke:#000" d="M369.528 64.34h10.189v10.189h-10.189z" transform="translate(50 50)"/>
  <path style="fill:#fff;stroke-width:1;stroke:#000" d="M369.528 74.528h10.189v10.189h-10.189z" transform="translate(50 50)"/>
  <path style="fill:#fff;stroke-width:1;stroke:#000" d="M369.528 84.717h10.189v10.189h-10.189z" transform="translate(50 50)"/>
  <path style="fill:#e8c1a0;stroke-width:1;stroke:#000" d="M369.528 94.906h10.189v10.189h-10.189z" transform="translate(50 50)"/>
  <path style="fill:#fff;stroke-width:1;stroke:#000" d="M369.528 105.094h10.189v10.189h-10.189zM369.528 115.283h10.189v10.189h-10.189z" transform="translate(50 50)"/>
  <path style="fill:#61cdbb;stroke-width:1;stroke:#000" d="M369.528 125.472h10.189v10.189h-10.189z" transform="translate(50 50)"/>
  <path style="fill:#e8c1a0;stroke-width:1;stroke:#000" d="M379.717 64.34h10.189v10.189h-10.189z" transform="translate(50 50)"/>
  <path style="fill:#97e3d5;stroke-width:1;stroke:#000" d="M379.717 74.528h10.189v10.189h-10.189z" transform="translate(50 50)"/>
  <path style="fill:#e8c1a0;stroke-width:1;stroke:#000" d="M379.717 84.717h10.189v10.189h-10.189z" transform="translate(50 50)"/>
  <path style="fill:#97e3d5;stroke-width:1;stroke:#000" d="M379.717 94.906h10.189v10.189h-10.189z" transform="translate(50 50)"/>
  <path style="fill:#61cdbb;stroke-width:1;stroke:#000" d="M379.717 105.094h10.189v10.189h-10.189z" transform="translate(50 50)"/>
  <path style="fill:#fff;stroke-width:1;stroke:#000" d="M379.717 115.283h10.189v10.189h-10.189z" transform="translate(50 50)"/>
  <path style="fill:#fff;stroke-width:1;stroke:#000" d="M379.717 125.472h10.189v10.189h-10.189z" transform="translate(50 50)"/>
  <path style="fill:#61cdbb;stroke-width:1;stroke:#000" d="M389.906 64.34h10.189v10.189h-10.189zM414.906 74.528h10.189v10.189h-10.189z" transform="translate(50 50)"/>
  <path style="fill:#61cdbb;stroke-width:1;stroke:#000" d="M414.906 84.717h10.189v10.189h-10.189z" transform="translate(50 50)"/>
  <path style="fill:#e8c1a0;stroke-width:1;stroke:#000" d="M414.906 94.906h10.189v10.189h-10.189z" transform="translate(50 50)"/>
  <path style="fill:#e8c1a0;stroke-width:1;stroke:#000" d="M414.906 105.094h10.189v10.189h-10.189z" transform="translate(50 50)"/>
  <path style="fill:#fff;stroke-width:1;stroke:#000" d="M414.906 115.283h10.189v10.189h-10.189z" transform="translate(50 50)"/>
  <path style="fill:#fff;stroke-width:1;stroke:#000" d="M414.906 125.472h10.189v10.189h-10.189z" transform="translate(50 50)"/>
  <path style="fill:#e8c1a0;stroke-width:1;stroke:#000" d="M425.094 64.34h10.189v10.189h-10.189z" transform="translate(50 50)"/>
  <path style="fill:#f47560;stroke-width:1;stroke:#000" d="M425.094 74.528h10.189v10.189h-10.189z" transform="translate(50 50)"/>
  <path style="fill:#97e3d5;stroke-width:1;stroke:#000" d="M425.094 84.717h10.189v10.189h-10.189z" transform="translate(50 50)"/>
  <path style="fill:#fff;stroke-width:1;stroke:#000" d="M425.094 94.906h10.189v10.189h-10.189z" transform="translate(50 50)"/>
  <path style="fill:#fff;stroke-width:1;stroke:#000" d="M425.094 105.094h10.189v10.189h-10.189z" transform="translate(50 50)"/>
  <path style="fill:#97e3d5;stroke-width:1;stroke:#000" d="M425.094 115.283h10.189v10.189h-10.189z" transform="translate(50 50)"/>
  <path style="fill:#fff;stroke-width:1;stroke:#000" d="M425.094 125.472h10.189v10.189h-10.189z" transform="translate(50 50)"/>
  <path style="fill:#61cdbb;stroke-width:1;stroke:#000" d="M435.283 64.34h10.189v10.189h-10.189z" transform="translate(50 50)"/>
  <path style="fill:#fff;stroke-width:1;stroke:#000" d="M435.283 74.528h10.189v10.189h-10.189z" transform="translate(50 50)"/>
  <path style="fill:#97e3d5;stroke-width:1;stroke:#000" d="M435.283 84.717h10.189v10.189h-10.189z" transform="translate(50 50)"/>
  <path style="fill:#fff;stroke-width:1;stroke:#000" d="M435.283 94.906h10.189v10.189h-10.189z" transform="translate(50 50)"/>
  <path style="fill:#fff;stroke-width:1;stroke:#000" d="M435.283 105.094h10.189v10.189h-10.189z" transform="translate(50 50)"/>
  <path style="fill:#f47560;stroke-width:1;stroke:#000" d="M435.283 115.283h10.189v10.189h-10.189z" transform="translate(50 50)"/>
  <path style="fill:#61cdbb;stroke-width:1;stroke:#000" d="M435.283 125.472h10.189v10.189h-10.189z" transform="translate(50 50)"/>
  <path style="fill:#e8c1a0;stroke-width:1;stroke:#000" d="M445.472 64.34h10.189v10.189h-10.189z" transform="translate(50 50)"/>
  <path style="fill:#fff;stroke-width:1;stroke:#000" d="M445.472 74.528h10.189v10.189h-10.189z" transform="translate(50 50)"/>
  <path style="fill:#fff;stroke-width:1;stroke:#000" d="M445.472 84.717h10.189v10.189h-10.189zM445.472 94.906h10.189v10.189h-10.189z" transform="translate(50 50)"/>
  <path style="fill:#fff;stroke-width:1;stroke:#000" d="M445.472 105.094h10.189v10.189h-10.189z" transform="translate(50 50)"/>
  <path style="fill:#e8c1a0;stroke-width:1;stroke:#000" d="M445.472 115.283h10.189v10.189h-10.189z" transform="translate(50 50)"/>
  <path style="fill:#e8c1a0;stroke-width:1;stroke:#000" d="M445.472 125.472h10.189v10.189h-10.189z" transform="translate(50 50)"/>
  <path style="fill:#61cdbb;stroke-width:1;stroke:#000" d="M455.66 64.34h10.189v10.189H455.66z" transform="translate(50 50)"/>
  <path style="fill:#fff;stroke-width:1;stroke:#000" d="M455.66 74.528h10.189v10.189H455.66z" transform="translate(50 50)"/>
  <path style="fill:#f47560;stroke-width:1;stroke:#000" d="M455.66 84.717h10.189v10.189H455.66z" transform="translate(50 50)"/>
  <path style="fill:#fff;stroke-width:1;stroke:#000" d="M455.66 94.906h10.189v10.189H455.66zM480.66 105.094h10.189v10.189H480.66zM480.66 115.283h10.189v10.189H480.66z" transform="translate(50 50)"/>
  <path style="fill:#61cdbb;stroke-width:1;stroke:#000" d="M480.66 125.472h10.189v10.189H480.66z" transform="translate(50 50)"/>
  <path style="fill:#fff;stroke-width:1;stroke:#000" d="M490.849 64.34h10.189v10.189h-10.189z" transform="translate(50 50)"/>
  <path style="fill:#f47560;stroke-width:1;stroke:#000" d="M490.849 74.528h10.189v10.189h-10.189z" transform="translate(50 50)"/>
  <path style="fill:#e8c1a0;stroke-width:1;stroke:#000" d="M490.849 84.717h10.189v10.189h-10.189z" transform="translate(50 50)"/>
  <path style="fill:#97e3d5;stroke-width:1;stroke:#000" d="M490.849 94.906h10.189v10.189h-10.189z" transform="translate(50 50)"/>
  <path style="fill:#97e3d5;stroke-width:1;stroke:#000" d="M490.849 105.094h10.189v10.189h-10.189zM490.849 115.283h10.189v10.189h-10.189z" transform="translate(50 50)"/>
  <path style="fill:#97e3d5;stroke-width:1;stroke:#000" d="M490.849 125.472h10.189v10.189h-10.189z" transform="translate(50 50)"/>
  <path style="fill:#f47560;stroke-width:1;stroke:#000" d="M501.038 64.34h10.189v10.189h-10.189z" transform="translate(50 50)"/>
  <path style="fill:#e8c1a0;stroke-width:1;stroke:#000" d="M501.038 74.528h10.189v10.189h-10.189z" transform="translate(50 50)"/>
  <path style="fill:#61cdbb;stroke-width:1;stroke:#000" d="M501.038 84.717h10.189v10.189h-10.189z" transform="translate(50 50)"/>
  <path style="fill:#fff;stroke-width:1;stroke:#000" d="M501.038 94.906h10.189v10.189h-10.189z" transform="translate(50 50)"/>
  <path style="fill:#61cdbb;stroke-width:1;stroke:#000" d="M501.038 105.094h10.189v10.189h-10.189zM501.038 115.283h10.189v10.189h-10.189z" transform="translate(50 50)"/>
  <path style="fill:#97e3d5;stroke-width:1;stroke:#000" d="M501.038 125.472h10.189v10.189h-10.189z" transform="translate(50 50)"/>
  <path style="fill:#f47560;stroke-width:1;stroke:#000" d="M511.226 64.34h10.189v10.189h-10.189z" transform="translate(50 50)"/>
  <path style="fill:#fff;stroke-width:1;stroke:#000" d="M511.226 74.528h10.189v10.189h-10.189z" transform="translate(50 50)"/>
  <path style="fill:#fff;stroke-width:1;stroke:#000" d="M511.226 84.717h10.189v10.189h-10.189z" transform="translate(50 50)"/>
  <path style="fill:#e8c1a0;stroke-width:1;stroke:#000" d="M511.226 94.906h10.189v10.189h-10.189z" transform="translate(50 50)"/>
  <path style="fill:#fff;stroke-width:1;stroke:#000" d="M511.226 105.094h10.189v10.189h-10.189z" transform="translate(50 50)"/>
  <path style="fill:#f47560;stroke-width:1;stroke:#000" d="M511.226 115.283h10.189v10.189h-10.189z" transform="translate(50 50)"/>
  <path style="fill:#fff;stroke-width:1;stroke:#000" d="M511.226 125.472h10.189v10.189h-10.189zM521.415 64.34h10.189v10.189h-10.189z" transform="translate(50 50)"/>
  <path style="fill:#fff;stroke-width:1;stroke:#000" d="M521.415 74.528h10.189v10.189h-10.189z" transform="translate(50 50)"/>
  <path style="fill:#97e3d5;stroke-width:1;stroke:#000" d="M521.415 84.717h10.189v10.189h-10.189z" transform="translate(50 50)"/>
  <path style="fill:#e8c1a0;stroke-width:1;stroke:#000" d="M521.415 94.906h10.189v10.189h-10.189z" transform="translate(50 50)"/>
  <path style="fill:#fff;stroke-width:1;stroke:#000" d="M521.415 105.094h10.189v10.189h-10.189z" transform="translate(50 50)"/>
  <path style="fill:#97e3d5;stroke-width:1;stroke:#000" d="M521.415 115.283h10.189v10.189h-10.189z" transform="translate(50 50)"/>
  <path style="fill:#e8c1a0;stroke-width:1;stroke:#000" d="M521.415 125.472h10.189v10.189h-10.189zM556.604 64.34h10.189v10.189h-10.189z" transform="translate(50 50)"/>
  <path style="fill:#fff;stroke-width:1;stroke:#000" d="M556.604 74.528h10.189v10.189h-10.189z" transform="translate(50 50)"/>
  <path style="fill:#f47560;stroke-width:1;stroke:#000" d="M556.604 84.717h10.189v10.189h-10.189z" transform="translate(50 50)"/>
  <path style="fill:#fff;stroke-width:1;stroke:#000" d="M556.604 94.906h10.189v10.189h-10.189z" transform="translate(50 50)"/>
  <path style="fill:#97e3d5;stroke-width:1;stroke:#000" d="M556.604 105.094h10.189v10.189h-10.189z" transform="translate(50 50)"/>
  <path style="fill:#fff;stroke-width:1;stroke:#000" d="M556.604 115.283h10.189v10.189h-10.189z" transform="translate(50 50)"/>
  <path style="fill:#97e3d5;stroke-width:1;stroke:#000" d="M556.604 125.472h10.189v10.189h-10.189z" transform="translate(50 50)"/>
  <path style="fill:#f47560;stroke-width:1;stroke:#000" d="M566.792 64.34h10.189v10.189h-10.189z" transform="translate(50 50)"/>
  <path style="fill:#97e3d5;stroke-width:1;stroke:#000" d="M566.792 74.528h10.189v10.189h-10.189z" transform="translate(50 50)"/>
  <path style="fill:#e8c1a0;stroke-width:1;stroke:#000" d="M566.792 84.717h10.189v10.189h-10.189z" transform="translate(50 50)"/>
  <path style="fill:#61cdbb;stroke-width:1;stroke:#000" d="M566.792 94.906h10.189v10.189h-10.189z" transform="translate(50 50)"/>
  <path style="fill:#fff;stroke-width:1;stroke:#000" d="M566.792 105.094h10.189v10.189h-10.189zM566.792 115.283h10.189v10.189h-10.189z" transform="translate(50 50)"/>
  <path style="fill:#61cdbb;stroke-width:1;stroke:#000" d="M566.792 125.472h10.189v10.189h-10.189zM576.981 64.34h10.189v10.189h-10.189z" transform="translate(50 50)"/>
  <path style="fill:#97e3d5;stroke-width:1;stroke:#000" d="M576.981 74.528h10.189v10.189h-10.189z" transform="translate(50 50)"/>
  <path style="fill:#fff;stroke-width:1;stroke:#000" d="M576.981 84.717h10.189v10.189h-10.189z" transform="translate(50 50)"/>
  <path style="fill:#e8c1a0;stroke-width:1;stroke:#000" d="M576.981 94.906h10.189v10.189h-10.189z" transform="translate(50 50)"/>
  <path style="fill:#fff;stroke-width:1;stroke:#000" d="M576.981 105.094h10.189v10.189h-10.189zM576.981 115.283h10.189v10.189h-10.189z" transform="translate(50 50)"/>
  <path style="fill:#e8c1a0;stroke-width:1;stroke:#000" d="M576.981 125.472h10.189v10.189h-10.189zM587.17 64.34h10.189v10.189H587.17z" transform="translate(50 50)"/>
  <path style="fill:#97e3d5;stroke-width:1;stroke:#000" d="M587.17 74.528h10.189v10.189H587.17z" transform="translate(50 50)"/>
  <path style="fill:#f47560;stroke-width:1;stroke:#000" d="M587.17 84.717h10.189v10.189H587.17z" transform="translate(50 50)"/>
  <path style="fill:#61cdbb;stroke-width:1;stroke:#000" d="M587.17 94.906h10.189v10.189H587.17z" transform="translate(50 50)"/>
  <path style="fill:#e8c1a0;stroke-width:1;stroke:#000" d="M587.17 105.094h10.189v10.189H587.17z" transform="translate(50 50)"/>
  <path style="fill:#f47560;stroke-width:1;stroke:#000" d="M587.17 115.283h10.189v10.189H587.17z" transform="translate(50 50)"/>
  <path style="fill:#e8c1a0;stroke-width:1;stroke:#000" d="M587.17 125.472h10.189v10.189H587.17z" transform="translate(50 50)"/>
  <path style="fill:#fff;stroke-width:1;stroke:#000" d="M597.358 64.34h10.189v10.189h-10.189z" transform="translate(50 50)"/>
  <path style="fill:#e8c1a0;stroke-width:1;stroke:#000" d="M597.358 74.528h10.189v10.189h-10.189z" transform="translate(50 50)"/>
  <path style="fill:#61cdbb;stroke-width:1;stroke:#000" d="M622.358 84.717h10.189v10.189h-10.189z" transform="translate(50 50)"/>
  <path style="fill:#97e3d5;stroke-width:1;stroke:#000" d="M622.358 94.906h10.189v10.189h-10.189z" transform="translate(50 50)"/>
  <path style="fill:#e8c1a0;stroke-width:1;stroke:#000" d="M622.358 105.094h10.189v10.189h-10.189zM622.358 115.283h10.189v10.189h-10.189z" transform="translate(50 50)"/>
  <path style="fill:#fff;stroke-width:1;stroke:#000" d="M622.358 125.472h10.189v10.189h-10.189z" transform="translate(50 50)"/>
  <path style="fill:#e8c1a0;stroke-width:1;stroke:#000" d="M632.547 64.34h10.189v10.189h-10.189z" transform="translate(50 50)"/>
  <path style="fill:#fff;stroke-width:1;stroke:#000" d="M632.547 74.528h10.189v10.189h-10.189z" transform="translate(50 50)"/>
  <path style="fill:#e8c1a0;stroke-width:1;stroke:#000" d="M632.547 84.717h10.189v10.189h-10.189z" transform="translate(50 50)"/>
  <path style="fill:#f47560;stroke-width:1;stroke:#000" d="M632.547 94.906h10.189v10.189h-10.189z" transform="translate(50 50)"/>
  <path style="fill:#e8c1a0;stroke-width:1;stroke:#000" d="M632.547 105.094h10.189v10.189h-10.189z" transform="translate(50 50)"/>
  <path style="fill:#fff;stroke-width:1;stroke:#000" d="M632.547 115.283h10.189v10.189h-10.189z" transform="translate(50 50)"/>
  <path style="fill:#97e3d5;stroke-width:1;stroke:#000" d="M632.547 125.472h10.189v10.189h-10.189z" transform="translate(50 50)"/>
  <path style="fill:#fff;stroke-width:1;stroke:#000" d="M642.736 64.34h10.189v10.189h-10.189z" transform="translate(50 50)"/>
  <path style="fill:#61cdbb;stroke-width:1;stroke:#000" d="M642.736 74.528h10.189v10.189h-10.189z" transform="translate(50 50)"/>
  <path style="fill:#61cdbb;stroke-width:1;stroke:#000" d="M642.736 84.717h10.189v10.189h-10.189z" transform="translate(50 50)"/>
  <path style="fill:#fff;stroke-width:1;stroke:#000" d="M642.736 94.906h10.189v10.189h-10.189z" transform="translate(50 50)"/>
  <path style="fill:#fff;stroke-width:1;stroke:#000" d="M642.736 105.094h10.189v10.189h-10.189z" transform="translate(50 50)"/>
  <path style="fill:#e8c1a0;stroke-width:1;stroke:#000" d="M642.736 115.283h10.189v10.189h-10.189z" transform="translate(50 50)"/>
  <path style="fill:#97e3d5;stroke-width:1;stroke:#000" d="M642.736 125.472h10.189v10.189h-10.189zM652.925 64.34h10.189v10.189h-10.189z" transform="translate(50 50)"/>
  <path style="fill:#fff;stroke-width:1;stroke:#000" d="M652.925 74.528h10.189v10.189h-10.189z" transform="translate(50 50)"/>
  <path style="fill:#fff;stroke-width:1;stroke:#000" d="M652.925 84.717h10.189v10.189h-10.189z" transform="translate(50 50)"/>
  <path style="fill:#f47560;stroke-width:1;stroke:#000" d="M652.925 94.906h10.189v10.189h-10.189z" transform="translate(50 50)"/>
  <path style="fill:#61cdbb;stroke-width:1;stroke:#000" d="M652.925 105.094h10.189v10.189h-10.189z" transform="translate(50 50)"/>
  <path style="fill:#fff;stroke-width:1;stroke:#000" d="M652.925 115.283h10.189v10.189h-10.189z" transform="translate(50 50)"/>
  <path style="fill:#fff;stroke-width:1;stroke:#000" d="M652.925 125.472h10.189v10.189h-10.189zM663.113 64.34h10.189v10.189h-10.189z" transform="translate(50 50)"/>
  <path style="fill:#fff;stroke-width:1;stroke:#000" d="M663.113 74.528h10.189v10.189h-10.189z" transform="translate(50 50)"/>
  <path style="fill:#97e3d5;stroke-width:1;stroke:#000" d="M663.113 84.717h10.189v10.189h-10.189z" transform="translate(50 50)"/>
  <path style="fill:#fff;stroke-width:1;stroke:#000" d="M663.113 94.906h10.189v10.189h-10.189z" transform="translate(50 50)"/>
  <path style="fill:#f47560;stroke-width:1;stroke:#000" d="M663.113 105.094h10.189v10.189h-10.189zM688.113 115.283h10.189v10.189h-10.189z" transform="translate(50 50)"/>
  <path style="fill:#e8c1a0;stroke-width:1;stroke:#000" d="M688.113 125.472h10.189v10.189h-10.189z" transform="translate(50 50)"/>
  <path style="fill:#f47560;stroke-width:1;stroke:#000" d="M698.302 64.34h10.189v10.189h-10.189z" transform="translate(50 50)"/>
  <path style="fill:#e8c1a0;stroke-width:1;stroke:#000" d="M698.302 74.528h10.189v10.189h-10.189z" transform="translate(50 50)"/>
  <path style="fill:#97e3d5;stroke-width:1;stroke:#000" d="M698.302 84.717h10.189v10.189h-10.189z" transform="translate(50 50)"/>
  <path style="fill:#f47560;stroke-width:1;stroke:#000" d="M698.302 94.906h10.189v10.189h-10.189z" transform="translate(50 50)"/>
  <path style="fill:#e8c1a0;stroke-width:1;stroke:#000" d="M698.302 105.094h10.189v10.189h-10.189z" transform="translate(50 50)"/>
  <path style="fill:#fff;stroke-width:1;stroke:#000" d="M698.302 115.283h10.189v10.189h-10.189z" transform="translate(50 50)"/>
  <path style="fill:#e8c1a0;stroke-width:1;stroke:#000" d="M698.302 125.472h10.189v10.189h-10.189zM708.491 64.34h10.189v10.189h-10.189z" transform="translate(50 50)"/>
  <path style="fill:#e8c1a0;stroke-width:1;stroke:#000" d="M708.491 74.528h10.189v10.189h-10.189z" transform="translate(50 50)"/>
  <path style="fill:#e8c1a0;stroke-width:1;stroke:#000" d="M708.491 84.717h10.189v10.189h-10.189z" transform="translate(50 50)"/>
  <path style="fill:#fff;stroke-width:1;stroke:#000" d="M708.491 94.906h10.189v10.189h-10.189z" transform="translate(50 50)"/>
  <path style="fill:#fff;stroke-width:1;stroke:#000" d="M708.491 105.094h10.189v10.189h-10.189z" transform="translate(50 50)"/>
  <path style="fill:#e8c1a0;stroke-width:1;stroke:#000" d="M708.491 115.283h10.189v10.189h-10.189z" transform="translate(50 50)"/>
  <path style="fill:#e8c1a0;stroke-width:1;stroke:#000" d="M708.491 125.472h10.189v10.189h-10.189z" transform="translate(50 50)"/>
  <path style="fill:#fff;stroke-width:1;stroke:#000" d="M718.679 64.34h10.189v10.189h-10.189z" transform="translate(50 50)"/>
  <path style="fill:#61cdbb;stroke-width:1;stroke:#000" d="M718.679 74.528h10.189v10.189h-10.189z" transform="translate(50 50)"/>
  <path style="fill:#e8c1a0;stroke-width:1;stroke:#000" d="M718.679 84.717h10.189v10.189h-10.189z" transform="translate(50 50)"/>
  <path style="fill:#fff;stroke-width:1;stroke:#000" d="M718.679 94.906h10.189v10.189h-10.189z" transform="translate(50 50)"/>
  <path style="fill:#e8c1a0;stroke-width:1;stroke:#000" d="M718.679 105.094h10.189v10.189h-10.189zM718.679 115.283h10.189v10.189h-10.189z" transform="translate(50 50)"/>
  <path style="fill:#fff;stroke-width:1;stroke:#000" d="M718.679 125.472h10.189v10.189h-10.189z" transform="translate(50 50)"/>
  <path style="fill:#61cdbb;stroke-width:1;stroke:#000" d="M728.868 64.34h10.189v10.189h-10.189z" transform="translate(50 50)"/>
  <path style="fill:#fff;stroke-width:1;stroke:#000" d="M728.868 74.528h10.189v10.189h-10.189z" transform="translate(50 50)"/>
  <path style="fill:#61cdbb;stroke-width:1;stroke:#000" d="M728.868 84.717h10.189v10.189h-10.189z" transform="translate(50 50)"/>
  <path style="fill:#97e3d5;stroke-width:1;stroke:#000" d="M728.868 94.906h10.189v10.189h-10.189z" transform="translate(50 50)"/>
  <path style="fill:#fff;stroke-width:1;stroke:#000" d="M728.868 105.094h10.189v10.189h-10.189z" transform="translate(50 50)"/>
  <path style="fill:#61cdbb;stroke-width:1;stroke:#000" d="M728.868 115.283h10.189v10.189h-10.189z" transform="translate(50 50)"/>
  <path style="fill:#e8c1a0;stroke-width:1;stroke:#000" d="M728.868 125.472h10.189v10.189h-10.189z" transform="translate(50 50)"/>
  <path style="fill:#fff;stroke-width:1;stroke:#000" d="M764.057 64.34h10.189v10.189h-10.189z" transform="translate(50 50)"/>
  <path style="fill:#97e3d5;stroke-width:1;stroke:#000" d="M764.057 74.528h10.189v10.189h-10.189z" transform="translate(50 50)"/>
  <path style="fill:#f47560;stroke-width:1;stroke:#000" d="M764.057 84.717h10.189v10.189h-10.189z" transform="translate(50 50)"/>
  <path style="fill:#fff;stroke-width:1;stroke:#000" d="M764.057 94.906h10.189v10.189h-10.189z" transform="translate(50 50)"/>
  <path style="fill:#fff;stroke-width:1;stroke:#000" d="M764.057 105.094h10.189v10.189h-10.189zM764.057 115.283h10.189v10.189h-10.189z" transform="translate(50 50)"/>
  <path style="fill:#61cdbb;stroke-width:1;stroke:#000" d="M764.057 125.472h10.189v10.189h-10.189z" transform="translate(50 50)"/>
  <path style="fill:#fff;stroke-width:1;stroke:#000" d="M774.245 64.34h10.189v10.189h-10.189z" transform="translate(50 50)"/>
  <path style="fill:#e8c1a0;stroke-width:1;stroke:#000" d="M774.245 74.528h10.189v10.189h-10.189z" transform="translate(50 50)"/>
  <path style="fill:#61cdbb;stroke-width:1;stroke:#000" d="M774.245 84.717h10.189v10.189h-10.189z" transform="translate(50 50)"/>
  <path style="fill:#f47560;stroke-width:1;stroke:#000" d="M774.245 94.906h10.189v10.189h-10.189z" transform="translate(50 50)"/>
  <path style="fill:#f47560;stroke-width:1;stroke:#000" d="M774.245 105.094h10.189v10.189h-10.189z" transform="translate(50 50)"/>
  <path style="fill:#e8c1a0;stroke-width:1;stroke:#000" d="M774.245 115.283h10.189v10.189h-10.189z" transform="translate(50 50)"/>
  <path style="fill:#61cdbb;stroke-width:1;stroke:#000" d="M774.245 125.472h10.189v10.189h-10.189zM784.434 64.34h10.189v10.189h-10.189z" transform="translate(50 50)"/>
  <path style="fill:#97e3d5;stroke-width:1;stroke:#000" d="M784.434 74.528h10.189v10.189h-10.189z" transform="translate(50 50)"/>
  <path style="fill:#fff;stroke-width:1;stroke:#000" d="M784.434 84.717h10.189v10.189h-10.189z" transform="translate(50 50)"/>
  <path style="fill:#97e3d5;stroke-width:1;stroke:#000" d="M784.434 94.906h10.189v10.189h-10.189z" transform="translate(50 50)"/>
  <path style="fill:#f47560;stroke-width:1;stroke:#000" d="M784.434 105.094h10.189v10.189h-10.189z" transform="translate(50 50)"/>
  <path style="fill:#fff;stroke-width:1;stroke:#000" d="M784.434 115.283h10.189v10.189h-10.189z" transform="translate(50 50)"/>
  <path style="fill:#61cdbb;stroke-width:1;stroke:#000" d="M784.434 125.472h10.189v10.189h-10.189z" transform="translate(50 50)"/>
  <path style="fill:#fff;stroke-width:1;stroke:#000" d="M794.623 64.34h10.189v10.189h-10.189z" transform="translate(50 50)"/>
  <path style="fill:#97e3d5;stroke-width:1;stroke:#000" d="M794.623 74.528h10.189v10.189h-10.189z" transform="translate(50 50)"/>
  <path style="fill:#61cdbb;stroke-width:1;stroke:#000" d="M794.623 84.717h10.189v10.189h-10.189z" transform="translate(50 50)"/>
  <path style="fill:#97e3d5;stroke-width:1;stroke:#000" d="M794.623 94.906h10.189v10.189h-10.189z" transform="translate(50 50)"/>
  <path style="fill:#97e3d5;stroke-width:1;stroke:#000" d="M794.623 105.094h10.189v10.189h-10.189z" transform="translate(50 50)"/>
  <path style="fill:#e8c1a0;stroke-width:1;stroke:#000" d="M794.623 115.283h10.189v10.189h-10.189z" transform="translate(50 50)"/>
  <path style="fill:#e8c1a0;stroke-width:1;stroke:#000" d="M794.623 125.472h10.189v10.189h-10.189z" transform="translate(50 50)"/>
  <path style="fill:#61cdbb;stroke-width:1;stroke:#000" d="M804.811 64.34H815v10.189h-10.189z" transform="translate(50 50)"/>
  <path style="fill:#e8c1a0;stroke-width:1;stroke:#000" d="M804.811 74.528H815v10.189h-10.189z" transform="translate(50 50)"/>
  <path style="fill:#fff;stroke-width:1;stroke:#000" d="M804.811 84.717H815v10.189h-10.189z" transform="translate(50 50)"/>
  <path d="M10.189 84.717H0v50.943h40.755v-20.377h10.188V64.34H10.19Zm65.754 30.566H65.755v20.377h40.754v-20.377h10.19V64.34H75.942Zm65.755 0H131.51v20.377h50.944V74.528h10.189V64.34h-50.944Zm75.944-40.755h-10.19v61.132h40.756V94.906h10.188V64.34h-40.754Zm65.754 20.378h-10.188v40.754h40.754v-10.188h10.189V64.34h-40.755Zm65.754 30.566h-10.188v10.188h50.944V74.528h10.188V64.34h-50.943Zm75.944-50.944h-10.188v61.132h40.754v-30.566h10.19V64.34h-40.756Zm65.756 30.566h-10.19v30.566h50.944V64.34h-40.755Zm75.942-40.754h-10.188v71.32h40.754V84.717h10.19V64.34zm65.755 20.377h-10.189v50.943h40.755v-20.377h10.189V64.34h-40.755Zm65.755 30.566h-10.189v20.377h50.944V64.34h-40.755Zm75.943-50.943h-10.188v71.32h40.754V94.906H815V64.34z" style="fill:none;stroke-width:2;stroke:#000;pointer-events:none" transform="translate(50 50)"/>
  <text transform="translate(50 50) translate(25.472 54.34)" text-anchor="middle" style="font-family:sans-serif;font-size:11px;fill:#333;outline-width:0;outline-color:transparent">Jan</text>
  <text transform="translate(50 50) translate(91.226 54.34)" text-anchor="middle" style="font-family:sans-serif;font-size:11px;fill:#333;outline-width:0;outline-color:transparent">Feb</text>
  <text transform="translate(50 50) translate(162.075 54.34)" text-anchor="middle" style="font-family:sans-serif;font-size:11px;fill:#333;outline-width:0;outline-color:transparent">Mar</text>
  <text transform="translate(50 50) translate(232.925 54.34)" text-anchor="middle" style="font-family:sans-serif;font-size:11px;fill:#333;outline-width:0;outline-color:transparent">Apr</text>
  <text transform="translate(50 50) translate(298.68 54.34)" text-anchor="middle" style="font-family:sans-serif;font-size:11px;fill:#333;outline-width:0;outline-color:transparent">May</text>
  <text transform="translate(50 50) translate(369.528 54.34)" text-anchor="middle" style="font-family:sans-serif;font-size:11px;fill:#333;outline-width:0;outline-color:transparent">Jun</text>
  <text transform="translate(50 50) translate(440.377 54.34)" text-anchor="middle" style="font-family:sans-serif;font-size:11px;fill:#333;outline-width:0;outline-color:transparent">Jul</text>
  <text transform="translate(50 50) translate(506.132 54.34)" text-anchor="middle" style="font-family:sans-serif;font-size:11px;fill:#333;outline-width:0;outline-color:transparent">Aug</text>
  <text transform="translate(50 50) translate(582.075 54.34)" text-anchor="middle" style="font-family:sans-serif;font-size:11px;fill:#333;outline-width:0;outline-color:transparent">Sep</text>
  <text transform="translate(50 50) translate(647.83 54.34)" text-anchor="middle" style="font-family:sans-serif;font-size:11px;fill:#333;outline-width:0;outline-color:transparent">Oct</text>
  <text transform="translate(50 50) translate(713.585 54.34)" text-anchor="middle" style="font-family:sans-serif;font-size:11px;fill:#333;outline-width:0;outline-color:transparent">Nov</text>
  <text transform="translate(50 50) translate(789.528 54.34)" text-anchor="middle" style="font-family:sans-serif;font-size:11px;fill:#333;outline-width:0;outline-color:transparent">Dec</text>
  <text transform="translate(50 50) rotate(-90 45 55)" text-anchor="middle" style="font-family:sans-serif;font-size:11px;fill:#333;outline-width:0;outline-color:transparent">2019</text>
</svg>
