<svg xmlns="http://www.w3.org/2000/svg" width="900" height="260">
  <path fill="transparent" d="M0 0h900v260H0z"/>
  <path style="fill:#fff;stroke-width:1;stroke:#000" d="M0 76.226h15.849v15.849H0z" transform="translate(50 50)"/>
  <path style="fill:#f47560;stroke-width:1;stroke:#000" d="M0 92.075h15.849v15.849H0zM0 107.925h15.849v15.849H0zM0 123.774h15.849v15.849H0z" transform="translate(50 50)"/>
  <path style="fill:#97e3d5;stroke-width:1;stroke:#000" d="M0 139.623h15.849v15.849H0z" transform="translate(50 50)"/>
  <path style="fill:#e8c1a0;stroke-width:1;stroke:#000" d="M15.849 44.528h15.849v15.849H15.849zM15.849 60.377h15.849v15.849H15.849z" transform="translate(50 50)"/>
  <path style="fill:#97e3d5;stroke-width:1;stroke:#000" d="M15.849 76.226h15.849v15.849H15.849zM15.849 92.075h15.849v15.849H15.849z" transform="translate(50 50)"/>
  <path style="fill:#61cdbb;stroke-width:1;stroke:#000" d="M15.849 107.925h15.849v15.849H15.849z" transform="translate(50 50)"/>
  <path style="fill:#97e3d5;stroke-width:1;stroke:#000" d="M15.849 123.774h15.849v15.849H15.849z" transform="translate(50 50)"/>
  <path style="fill:#fff;stroke-width:1;stroke:#000" d="M15.849 139.623h15.849v15.849H15.849zM31.698 44.528h15.849v15.849H31.698zM31.698 60.377h15.849v15.849H31.698z" transform="translate(50 50)"/>
  <path style="fill:#f47560;stroke-width:1;stroke:#000" d="M31.698 76.226h15.849v15.849H31.698z" transform="translate(50 50)"/>
  <path style="fill:#e8c1a0;stroke-width:1;stroke:#000" d="M31.698 92.075h15.849v15.849H31.698zM31.698 107.925h15.849v15.849H31.698z" transform="translate(50 50)"/>
  <path style="fill:#97e3d5;stroke-width:1;stroke:#000" d="M31.698 123.774h15.849v15.849H31.698z" transform="translate(50 50)"/>
  <path style="fill:#f47560;stroke-width:1;stroke:#000" d="M31.698 139.623h15.849v15.849H31.698zM47.547 44.528h15.849v15.849H47.547z" transform="translate(50 50)"/>
  <path style="fill:#97e3d5;stroke-width:1;stroke:#000" d="M47.547 60.377h15.849v15.849H47.547z" transform="translate(50 50)"/>
  <path style="fill:#e8c1a0;stroke-width:1;stroke:#000" d="M47.547 76.226h15.849v15.849H47.547z" transform="translate(50 50)"/>
  <path style="fill:#97e3d5;stroke-width:1;stroke:#000" d="M47.547 92.075h15.849v15.849H47.547zM47.547 107.925h15.849v15.849H47.547z" transform="translate(50 50)"/>
  <path style="fill:#fff;stroke-width:1;stroke:#000" d="M47.547 123.774h15.849v15.849H47.547zM47.547 139.623h15.849v15.849H47.547zM63.396 44.528h15.849v15.849H63.396z" transform="translate(50 50)"/>
  <path style="fill:#61cdbb;stroke-width:1;stroke:#000" d="M63.396 60.377h15.849v15.849H63.396zM63.396 76.226h15.849v15.849H63.396z" transform="translate(50 50)"/>
  <path style="fill:#fff;stroke-width:1;stroke:#000" d="M63.396 92.075h15.849v15.849H63.396z" transform="translate(50 50)"/>
  <path style="fill:#97e3d5;stroke-width:1;stroke:#000" d="M63.396 107.925h15.849v15.849H63.396z" transform="translate(50 50)"/>
  <path style="fill:#fff;stroke-width:1;stroke:#000" d="M63.396 123.774h15.849v15.849H63.396zM63.396 139.623h15.849v15.849H63.396zM79.245 44.528h15.849v15.849H79.245z" transform="translate(50 50)"/>
  <path style="fill:#97e3d5;stroke-width:1;stroke:#000" d="M79.245 60.377h15.849v15.849H79.245z" transform="translate(50 50)"/>
  <path style="fill:#f47560;stroke-width:1;stroke:#000" d="M79.245 76.226h15.849v15.849H79.245z" transform="translate(50 50)"/>
  <path style="fill:#61cdbb;stroke-width:1;stroke:#000" d="M79.245 92.075h15.849v15.849H79.245zM79.245 107.925h15.849v15.849H79.245z" transform="translate(50 50)"/>
  <path style="fill:#fff;stroke-width:1;stroke:#000" d="M79.245 123.774h15.849v15.849H79.245zM79.245 139.623h15.849v15.849H79.245zM95.094 44.528h15.849v15.849H95.094z" transform="translate(50 50)"/>
  <path style="fill:#61cdbb;stroke-width:1;stroke:#000" d="M95.094 60.377h15.849v15.849H95.094z" transform="translate(50 50)"/>
  <path style="fill:#97e3d5;stroke-width:1;stroke:#000" d="M95.094 76.226h15.849v15.849H95.094z" transform="translate(50 50)"/>
  <path style="fill:#fff;stroke-width:1;stroke:#000" d="M95.094 92.075h15.849v15.849H95.094zM95.094 107.925h15.849v15.849H95.094zM95.094 123.774h15.849v15.849H95.094z" transform="translate(50 50)"/>
  <path style="fill:#61cdbb;stroke-width:1;stroke:#000" d="M95.094 139.623h15.849v15.849H95.094z" transform="translate(50 50)"/>
  <path style="fill:#e8c1a0;stroke-width:1;stroke:#000" d="M110.943 44.528h15.849v15.849h-15.849zM110.943 60.377h15.849v15.849h-15.849z" transform="translate(50 50)"/>
  <path style="fill:#61cdbb;stroke-width:1;stroke:#000" d="M110.943 76.226h15.849v15.849h-15.849z" transform="translate(50 50)"/>
  <path style="fill:#fff;stroke-width:1;stroke:#000" d="M110.943 92.075h15.849v15.849h-15.849zM110.943 107.925h15.849v15.849h-15.849z" transform="translate(50 50)"/>
  <path style="fill:#e8c1a0;stroke-width:1;stroke:#000" d="M110.943 123.774h15.849v15.849h-15.849zM110.943 139.623h15.849v15.849h-15.849z" transform="translate(50 50)"/>
  <path style="fill:#f47560;stroke-width:1;stroke:#000" d="M126.792 44.528h15.849v15.849h-15.849z" transform="translate(50 50)"/>
  <path style="fill:#fff;stroke-width:1;stroke:#000" d="M126.792 60.377h15.849v15.849h-15.849z" transform="translate(50 50)"/>
  <path style="fill:#61cdbb;stroke-width:1;stroke:#000" d="M126.792 76.226h15.849v15.849h-15.849z" transform="translate(50 50)"/>
  <path style="fill:#fff;stroke-width:1;stroke:#000" d="M126.792 92.075h15.849v15.849h-15.849zM126.792 107.925h15.849v15.849h-15.849z" transform="translate(50 50)"/>
  <path style="fill:#e8c1a0;stroke-width:1;stroke:#000" d="M126.792 123.774h15.849v15.849h-15.849zM126.792 139.623h15.849v15.849h-15.849z" transform="translate(50 50)"/>
  <path style="fill:#fff;stroke-width:1;stroke:#000" d="M142.642 44.528h15.849v15.849h-15.849zM142.642 60.377h15.849v15.849h-15.849z" transform="translate(50 50)"/>
  <path style="fill:#61cdbb;stroke-width:1;stroke:#000" d="M142.642 76.226h15.849v15.849h-15.849z" transform="translate(50 50)"/>
  <path style="fill:#f47560;stroke-width:1;stroke:#000" d="M142.642 92.075h15.849v15.849h-15.849z" transform="translate(50 50)"/>
  <path style="fill:#97e3d5;stroke-width:1;stroke:#000" d="M142.642 107.925h15.849v15.849h-15.849z" transform="translate(50 50)"/>
  <path style="fill:#61cdbb;stroke-width:1;stroke:#000" d="M142.642 123.774h15.849v15.849h-15.849z" transform="translate(50 50)"/>
  <path style="fill:#f47560;stroke-width:1;stroke:#000" d="M142.642 139.623h15.849v15.849h-15.849z" transform="translate(50 50)"/>
  <path style="fill:#97e3d5;stroke-width:1;stroke:#000" d="M158.491 44.528h15.849v15.849h-15.849zM158.491 60.377h15.849v15.849h-15.849zM158.491 76.226h15.849v15.849h-15.849z" transform="translate(50 50)"/>
  <path style="fill:#f47560;stroke-width:1;stroke:#000" d="M158.491 92.075h15.849v15.849h-15.849z" transform="translate(50 50)"/>
  <path style="fill:#fff;stroke-width:1;stroke:#000" d="M158.491 107.925h15.849v15.849h-15.849z" transform="translate(50 50)"/>
  <path style="fill:#97e3d5;stroke-width:1;stroke:#000" d="M158.491 123.774h15.849v15.849h-15.849z" transform="translate(50 50)"/>
  <path style="fill:#fff;stroke-width:1;stroke:#000" d="M158.491 139.623h15.849v15.849h-15.849zM174.34 44.528h15.849v15.849H174.34z" transform="translate(50 50)"/>
  <path style="fill:#e8c1a0;stroke-width:1;stroke:#000" d="M174.34 60.377h15.849v15.849H174.34z" transform="translate(50 50)"/>
  <path style="fill:#fff;stroke-width:1;stroke:#000" d="M174.34 76.226h15.849v15.849H174.34z" transform="translate(50 50)"/>
  <path style="fill:#e8c1a0;stroke-width:1;stroke:#000" d="M174.34 92.075h15.849v15.849H174.34z" transform="translate(50 50)"/>
  <path style="fill:#fff;stroke-width:1;stroke:#000" d="M174.34 107.925h15.849v15.849H174.34z" transform="translate(50 50)"/>
  <path style="fill:#97e3d5;stroke-width:1;stroke:#000" d="M174.34 123.774h15.849v15.849H174.34z" transform="translate(50 50)"/>
  <path style="fill:#e8c1a0;stroke-width:1;stroke:#000" d="M174.34 139.623h15.849v15.849H174.34z" transform="translate(50 50)"/>
  <path style="fill:#f47560;stroke-width:1;stroke:#000" d="M190.189 44.528h15.849v15.849h-15.849z" transform="translate(50 50)"/>
  <path style="fill:#e8c1a0;stroke-width:1;stroke:#000" d="M190.189 60.377h15.849v15.849h-15.849z" transform="translate(50 50)"/>
  <path style="fill:#61cdbb;stroke-width:1;stroke:#000" d="M190.189 76.226h15.849v15.849h-15.849z" transform="translate(50 50)"/>
  <path style="fill:#97e3d5;stroke-width:1;stroke:#000" d="M190.189 92.075h15.849v15.849h-15.849z" transform="translate(50 50)"/>
  <path style="fill:#61cdbb;stroke-width:1;stroke:#000" d="M190.189 107.925h15.849v15.849h-15.849z" transform="translate(50 50)"/>
  <path style="fill:#97e3d5;stroke-width:1;stroke:#000" d="M190.189 123.774h15.849v15.849h-15.849z" transform="translate(50 50)"/>
  <path style="fill:#f47560;stroke-width:1;stroke:#000" d="M190.189 139.623h15.849v15.849h-15.849z" transform="translate(50 50)"/>
  <path style="fill:#97e3d5;stroke-width:1;stroke:#000" d="M206.038 44.528h15.849v15.849h-15.849z" transform="translate(50 50)"/>
  <path style="fill:#fff;stroke-width:1;stroke:#000" d="M206.038 60.377h15.849v15.849h-15.849z" transform="translate(50 50)"/>
  <path style="fill:#e8c1a0;stroke-width:1;stroke:#000" d="M206.038 76.226h15.849v15.849h-15.849z" transform="translate(50 50)"/>
  <path style="fill:#61cdbb;stroke-width:1;stroke:#000" d="M206.038 92.075h15.849v15.849h-15.849z" transform="translate(50 50)"/>
  <path style="fill:#fff;stroke-width:1;stroke:#000" d="M206.038 107.925h15.849v15.849h-15.849z" transform="translate(50 50)"/>
  <path style="fill:#97e3d5;stroke-width:1;stroke:#000" d="M206.038 123.774h15.849v15.849h-15.849z" transform="translate(50 50)"/>
  <path style="fill:#fff;stroke-width:1;stroke:#000" d="M206.038 139.623h15.849v15.849h-15.849z" transform="translate(50 50)"/>
  <path style="fill:#e8c1a0;stroke-width:1;stroke:#000" d="M221.887 44.528h15.849v15.849h-15.849z" transform="translate(50 50)"/>
  <path style="fill:#97e3d5;stroke-width:1;stroke:#000" d="M221.887 60.377h15.849v15.849h-15.849zM221.887 76.226h15.849v15.849h-15.849z" transform="translate(50 50)"/>
  <path style="fill:#f47560;stroke-width:1;stroke:#000" d="M221.887 92.075h15.849v15.849h-15.849z" transform="translate(50 50)"/>
  <path style="fill:#61cdbb;stroke-width:1;stroke:#000" d="M221.887 107.925h15.849v15.849h-15.849z" transform="translate(50 50)"/>
  <path style="fill:#97e3d5;stroke-width:1;stroke:#000" d="M221.887 123.774h15.849v15.849h-15.849zM221.887 139.623h15.849v15.849h-15.849z" transform="translate(50 50)"/>
  <path style="fill:#f47560;stroke-width:1;stroke:#000" d="M237.736 44.528h15.849v15.849h-15.849z" transform="translate(50 50)"/>
  <path style="fill:#fff;stroke-width:1;stroke:#000" d="M237.736 60.377h15.849v15.849h-15.849z" transform="translate(50 50)"/>
  <path style="fill:#61cdbb;stroke-width:1;stroke:#000" d="M237.736 76.226h15.849v15.849h-15.849z" transform="translate(50 50)"/>
  <path style="fill:#e8c1a0;stroke-width:1;stroke:#000" d="M237.736 92.075h15.849v15.849h-15.849z" transform="translate(50 50)"/>
  <path style="fill:#61cdbb;stroke-width:1;stroke:#000" d="M237.736 107.925h15.849v15.849h-15.849z" transform="translate(50 50)"/>
  <path style="fill:#fff;stroke-width:1;stroke:#000" d="M237.736 123.774h15.849v15.849h-15.849zM237.736 139.623h15.849v15.849h-15.849z" transform="translate(50 50)"/>
  <path style="fill:#97e3d5;stroke-width:1;stroke:#000" d="M253.585 44.528h15.849v15.849h-15.849zM253.585 60.377h15.849v15.849h-15.849z" transform="translate(50 50)"/>
  <path style="fill:#61cdbb;stroke-width:1;stroke:#000" d="M253.585 76.226h15.849v15.849h-15.849z" transform="translate(50 50)"/>
  <path style="fill:#f47560;stroke-width:1;stroke:#000" d="M253.585 92.075h15.849v15.849h-15.849z" transform="translate(50 50)"/>
  <path style="fill:#fff;stroke-width:1;stroke:#000" d="M253.585 107.925h15.849v15.849h-15.849z" transform="translate(50 50)"/>
  <path style="fill:#f47560;stroke-width:1;stroke:#000" d="M253.585 123.774h15.849v15.849h-15.849z" transform="translate(50 50)"/>
  <path style="fill:#e8c1a0;stroke-width:1;stroke:#000" d="M253.585 139.623h15.849v15.849h-15.849z" transform="translate(50 50)"/>
  <path style="fill:#97e3d5;stroke-width:1;stroke:#000" d="M269.434 44.528h15.849v15.849h-15.849z" transform="translate(50 50)"/>
  <path style="fill:#e8c1a0;stroke-width:1;stroke:#000" d="M269.434 60.377h15.849v15.849h-15.849z" transform="translate(50 50)"/>
  <path style="fill:#fff;stroke-width:1;stroke:#000" d="M269.434 76.226h15.849v15.849h-15.849z" transform="translate(50 50)"/>
  <path style="fill:#97e3d5;stroke-width:1;stroke:#000" d="M269.434 92.075h15.849v15.849h-15.849z" transform="translate(50 50)"/>
  <path style="fill:#fff;stroke-width:1;stroke:#000" d="M269.434 107.925h15.849v15.849h-15.849z" transform="translate(50 50)"/>
  <path style="fill:#97e3d5;stroke-width:1;stroke:#000" d="M269.434 123.774h15.849v15.849h-15.849z" transform="translate(50 50)"/>
  <path style="fill:#fff;stroke-width:1;stroke:#000" d="M269.434 139.623h15.849v15.849h-15.849z" transform="translate(50 50)"/>
  <path style="fill:#f47560;stroke-width:1;stroke:#000" d="M285.283 44.528h15.849v15.849h-15.849zM285.283 60.377h15.849v15.849h-15.849z" transform="translate(50 50)"/>
  <path style="fill:#61cdbb;stroke-width:1;stroke:#000" d="M285.283 76.226h15.849v15.849h-15.849zM285.283 92.075h15.849v15.849h-15.849z" transform="translate(50 50)"/>
  <path style="fill:#fff;stroke-width:1;stroke:#000" d="M285.283 107.925h15.849v15.849h-15.849zM285.283 123.774h15.849v15.849h-15.849zM285.283 139.623h15.849v15.849h-15.849z" transform="translate(50 50)"/>
  <path style="fill:#61cdbb;stroke-width:1;stroke:#000" d="M301.132 44.528h15.849v15.849h-15.849z" transform="translate(50 50)"/>
  <path style="fill:#e8c1a0;stroke-width:1;stroke:#000" d="M301.132 60.377h15.849v15.849h-15.849z" transform="translate(50 50)"/>
  <path style="fill:#f47560;stroke-width:1;stroke:#000" d="M301.132 76.226h15.849v15.849h-15.849z" transform="translate(50 50)"/>
  <path style="fill:#fff;stroke-width:1;stroke:#000" d="M301.132 92.075h15.849v15.849h-15.849zM301.132 107.925h15.849v15.849h-15.849z" transform="translate(50 50)"/>
  <path style="fill:#e8c1a0;stroke-width:1;stroke:#000" d="M301.132 123.774h15.849v15.849h-15.849z" transform="translate(50 50)"/>
  <path style="fill:#fff;stroke-width:1;stroke:#000" d="M301.132 139.623h15.849v15.849h-15.849z" transform="translate(50 50)"/>
  <path style="fill:#61cdbb;stroke-width:1;stroke:#000" d="M316.981 44.528h15.849v15.849h-15.849zM316.981 60.377h15.849v15.849h-15.849z" transform="translate(50 50)"/>
  <path style="fill:#f47560;stroke-width:1;stroke:#000" d="M316.981 76.226h15.849v15.849h-15.849z" transform="translate(50 50)"/>
  <path style="fill:#fff;stroke-width:1;stroke:#000" d="M316.981 92.075h15.849v15.849h-15.849zM316.981 107.925h15.849v15.849h-15.849z" transform="translate(50 50)"/>
  <path style="fill:#e8c1a0;stroke-width:1;stroke:#000" d="M316.981 123.774h15.849v15.849h-15.849zM316.981 139.623h15.849v15.849h-15.849z" transform="translate(50 50)"/>
  <path style="fill:#61cdbb;stroke-width:1;stroke:#000" d="M332.83 44.528h15.849v15.849H332.83z" transform="translate(50 50)"/>
  <path style="fill:#e8c1a0;stroke-width:1;stroke:#000" d="M332.83 60.377h15.849v15.849H332.83z" transform="translate(50 50)"/>
  <path style="fill:#97e3d5;stroke-width:1;stroke:#000" d="M332.83 76.226h15.849v15.849H332.83z" transform="translate(50 50)"/>
  <path style="fill:#61cdbb;stroke-width:1;stroke:#000" d="M332.83 92.075h15.849v15.849H332.83z" transform="translate(50 50)"/>
  <path style="fill:#f47560;stroke-width:1;stroke:#000" d="M332.83 107.925h15.849v15.849H332.83z" transform="translate(50 50)"/>
  <path style="fill:#e8c1a0;stroke-width:1;stroke:#000" d="M332.83 123.774h15.849v15.849H332.83z" transform="translate(50 50)"/>
  <path style="fill:#fff;stroke-width:1;stroke:#000" d="M332.83 139.623h15.849v15.849H332.83z" transform="translate(50 50)"/>
  <path style="fill:#e8c1a0;stroke-width:1;stroke:#000" d="M348.679 44.528h15.849v15.849h-15.849z" transform="translate(50 50)"/>
  <path style="fill:#fff;stroke-width:1;stroke:#000" d="M348.679 60.377h15.849v15.849h-15.849zM348.679 76.226h15.849v15.849h-15.849z" transform="translate(50 50)"/>
  <path style="fill:#97e3d5;stroke-width:1;stroke:#000" d="M348.679 92.075h15.849v15.849h-15.849z" transform="translate(50 50)"/>
  <path style="fill:#fff;stroke-width:1;stroke:#000" d="M348.679 107.925h15.849v15.849h-15.849zM348.679 123.774h15.849v15.849h-15.849z" transform="translate(50 50)"/>
  <path style="fill:#97e3d5;stroke-width:1;stroke:#000" d="M348.679 139.623h15.849v15.849h-15.849z" transform="translate(50 50)"/>
  <path style="fill:#fff;stroke-width:1;stroke:#000" d="M364.528 44.528h15.849v15.849h-15.849zM364.528 60.377h15.849v15.849h-15.849zM364.528 76.226h15.849v15.849h-15.849z" transform="translate(50 50)"/>
  <path style="fill:#f47560;stroke-width:1;stroke:#000" d="M364.528 92.075h15.849v15.849h-15.849z" transform="translate(50 50)"/>
  <path style="fill:#e8c1a0;stroke-width:1;stroke:#000" d="M364.528 107.925h15.849v15.849h-15.849z" transform="translate(50 50)"/>
  <path style="fill:#fff;stroke-width:1;stroke:#000" d="M364.528 123.774h15.849v15.849h-15.849z" transform="translate(50 50)"/>
  <path style="fill:#f47560;stroke-width:1;stroke:#000" d="M364.528 139.623h15.849v15.849h-15.849z" transform="translate(50 50)"/>
  <path style="fill:#fff;stroke-width:1;stroke:#000" d="M380.377 44.528h15.849v15.849h-15.849zM380.377 60.377h15.849v15.849h-15.849zM380.377 76.226h15.849v15.849h-15.849z" transform="translate(50 50)"/>
  <path style="fill:#e8c1a0;stroke-width:1;stroke:#000" d="M380.377 92.075h15.849v15.849h-15.849z" transform="translate(50 50)"/>
  <path style="fill:#fff;stroke-width:1;stroke:#000" d="M380.377 107.925h15.849v15.849h-15.849zM380.377 123.774h15.849v15.849h-15.849z" transform="translate(50 50)"/>
  <path style="fill:#61cdbb;stroke-width:1;stroke:#000" d="M380.377 139.623h15.849v15.849h-15.849z" transform="translate(50 50)"/>
  <path style="fill:#e8c1a0;stroke-width:1;stroke:#000" d="M396.226 44.528h15.849v15.849h-15.849z" transform="translate(50 50)"/>
  <path style="fill:#97e3d5;stroke-width:1;stroke:#000" d="M396.226 60.377h15.849v15.849h-15.849z" transform="translate(50 50)"/>
  <path style="fill:#e8c1a0;stroke-width:1;stroke:#000" d="M396.226 76.226h15.849v15.849h-15.849z" transform="translate(50 50)"/>
  <path style="fill:#97e3d5;stroke-width:1;stroke:#000" d="M396.226 92.075h15.849v15.849h-15.849z" transform="translate(50 50)"/>
  <path style="fill:#61cdbb;stroke-width:1;stroke:#000" d="M396.226 107.925h15.849v15.849h-15.849z" transform="translate(50 50)"/>
  <path style="fill:#fff;stroke-width:1;stroke:#000" d="M396.226 123.774h15.849v15.849h-15.849zM396.226 139.623h15.849v15.849h-15.849z" transform="translate(50 50)"/>
  <path style="fill:#61cdbb;stroke-width:1;stroke:#000" d="M412.075 44.528h15.849v15.849h-15.849zM412.075 60.377h15.849v15.849h-15.849zM412.075 76.226h15.849v15.849h-15.849z" transform="translate(50 50)"/>
  <path style="fill:#e8c1a0;stroke-width:1;stroke:#000" d="M412.075 92.075h15.849v15.849h-15.849zM412.075 107.925h15.849v15.849h-15.849z" transform="translate(50 50)"/>
  <path style="fill:#fff;stroke-width:1;stroke:#000" d="M412.075 123.774h15.849v15.849h-15.849zM412.075 139.623h15.849v15.849h-15.849z" transform="translate(50 50)"/>
  <path style="fill:#e8c1a0;stroke-width:1;stroke:#000" d="M427.925 44.528h15.849v15.849h-15.849z" transform="translate(50 50)"/>
  <path style="fill:#f47560;stroke-width:1;stroke:#000" d="M427.925 60.377h15.849v15.849h-15.849z" transform="translate(50 50)"/>
  <path style="fill:#97e3d5;stroke-width:1;stroke:#000" d="M427.925 76.226h15.849v15.849h-15.849z" transform="translate(50 50)"/>
  <path style="fill:#fff;stroke-width:1;stroke:#000" d="M427.925 92.075h15.849v15.849h-15.849zM427.925 107.925h15.849v15.849h-15.849z" transform="translate(50 50)"/>
  <path style="fill:#97e3d5;stroke-width:1;stroke:#000" d="M427.925 123.774h15.849v15.849h-15.849z" transform="translate(50 50)"/>
  <path style="fill:#fff;stroke-width:1;stroke:#000" d="M427.925 139.623h15.849v15.849h-15.849z" transform="translate(50 50)"/>
  <path style="fill:#61cdbb;stroke-width:1;stroke:#000" d="M443.774 44.528h15.849v15.849h-15.849z" transform="translate(50 50)"/>
  <path style="fill:#fff;stroke-width:1;stroke:#000" d="M443.774 60.377h15.849v15.849h-15.849z" transform="translate(50 50)"/>
  <path style="fill:#97e3d5;stroke-width:1;stroke:#000" d="M443.774 76.226h15.849v15.849h-15.849z" transform="translate(50 50)"/>
  <path style="fill:#fff;stroke-width:1;stroke:#000" d="M443.774 92.075h15.849v15.849h-15.849zM443.774 107.925h15.849v15.849h-15.849z" transform="translate(50 50)"/>
  <path style="fill:#f47560;stroke-width:1;stroke:#000" d="M443.774 123.774h15.849v15.849h-15.849z" transform="translate(50 50)"/>
  <path style="fill:#61cdbb;stroke-width:1;stroke:#000" d="M443.774 139.623h15.849v15.849h-15.849z" transform="translate(50 50)"/>
  <path style="fill:#e8c1a0;stroke-width:1;stroke:#000" d="M459.623 44.528h15.849v15.849h-15.849z" transform="translate(50 50)"/>
  <path style="fill:#fff;stroke-width:1;stroke:#000" d="M459.623 60.377h15.849v15.849h-15.849zM459.623 76.226h15.849v15.849h-15.849zM459.623 92.075h15.849v15.849h-15.849zM459.623 107.925h15.849v15.849h-15.849z" transform="translate(50 50)"/>
  <path style="fill:#e8c1a0;stroke-width:1;stroke:#000" d="M459.623 123.774h15.849v15.849h-15.849zM459.623 139.623h15.849v15.849h-15.849z" transform="translate(50 50)"/>
  <path style="fill:#61cdbb;stroke-width:1;stroke:#000" d="M475.472 44.528h15.849v15.849h-15.849z" transform="translate(50 50)"/>
  <path style="fill:#fff;stroke-width:1;stroke:#000" d="M475.472 60.377h15.849v15.849h-15.849z" transform="translate(50 50)"/>
  <path style="fill:#f47560;stroke-width:1;stroke:#000" d="M475.472 76.226h15.849v15.849h-15.849z" transform="translate(50 50)"/>
  <path style="fill:#fff;stroke-width:1;stroke:#000" d="M475.472 92.075h15.849v15.849h-15.849zM475.472 107.925h15.849v15.849h-15.849zM475.472 123.774h15.849v15.849h-15.849z" transform="translate(50 50)"/>
  <path style="fill:#61cdbb;stroke-width:1;stroke:#000" d="M475.472 139.623h15.849v15.849h-15.849z" transform="translate(50 50)"/>
  <path style="fill:#fff;stroke-width:1;stroke:#000" d="M491.321 44.528h15.849v15.849h-15.849z" transform="translate(50 50)"/>
  <path style="fill:#f47560;stroke-width:1;stroke:#000" d="M491.321 60.377h15.849v15.849h-15.849z" transform="translate(50 50)"/>
  <path style="fill:#e8c1a0;stroke-width:1;stroke:#000" d="M491.321 76.226h15.849v15.849h-15.849z" transform="translate(50 50)"/>
  <path style="fill:#97e3d5;stroke-width:1;stroke:#000" d="M491.321 92.075h15.849v15.849h-15.849zM491.321 107.925h15.849v15.849h-15.849zM491.321 123.774h15.849v15.849h-15.849zM491.321 139.623h15.849v15.849h-15.849z" transform="translate(50 50)"/>
  <path style="fill:#f47560;stroke-width:1;stroke:#000" d="M507.17 44.528h15.849v15.849H507.17z" transform="translate(50 50)"/>
  <path style="fill:#e8c1a0;stroke-width:1;stroke:#000" d="M507.17 60.377h15.849v15.849H507.17z" transform="translate(50 50)"/>
  <path style="fill:#61cdbb;stroke-width:1;stroke:#000" d="M507.17 76.226h15.849v15.849H507.17z" transform="translate(50 50)"/>
  <path style="fill:#fff;stroke-width:1;stroke:#000" d="M507.17 92.075h15.849v15.849H507.17z" transform="translate(50 50)"/>
  <path style="fill:#61cdbb;stroke-width:1;stroke:#000" d="M507.17 107.925h15.849v15.849H507.17zM507.17 123.774h15.849v15.849H507.17z" transform="translate(50 50)"/>
  <path style="fill:#97e3d5;stroke-width:1;stroke:#000" d="M507.17 139.623h15.849v15.849H507.17z" transform="translate(50 50)"/>
  <path style="fill:#f47560;stroke-width:1;stroke:#000" d="M523.019 44.528h15.849v15.849h-15.849z" transform="translate(50 50)"/>
  <path style="fill:#fff;stroke-width:1;stroke:#000" d="M523.019 60.377h15.849v15.849h-15.849zM523.019 76.226h15.849v15.849h-15.849z" transform="translate(50 50)"/>
  <path style="fill:#e8c1a0;stroke-width:1;stroke:#000" d="M523.019 92.075h15.849v15.849h-15.849z" transform="translate(50 50)"/>
  <path style="fill:#fff;stroke-width:1;stroke:#000" d="M523.019 107.925h15.849v15.849h-15.849z" transform="translate(50 50)"/>
  <path style="fill:#f47560;stroke-width:1;stroke:#000" d="M523.019 123.774h15.849v15.849h-15.849z" transform="translate(50 50)"/>
  <path style="fill:#fff;stroke-width:1;stroke:#000" d="M523.019 139.623h15.849v15.849h-15.849zM538.868 44.528h15.849v15.849h-15.849zM538.868 60.377h15.849v15.849h-15.849z" transform="translate(50 50)"/>
  <path style="fill:#97e3d5;stroke-width:1;stroke:#000" d="M538.868 76.226h15.849v15.849h-15.849z" transform="translate(50 50)"/>
  <path style="fill:#e8c1a0;stroke-width:1;stroke:#000" d="M538.868 92.075h15.849v15.849h-15.849z" transform="translate(50 50)"/>
  <path style="fill:#fff;stroke-width:1;stroke:#000" d="M538.868 107.925h15.849v15.849h-15.849z" transform="translate(50 50)"/>
  <path style="fill:#97e3d5;stroke-width:1;stroke:#000" d="M538.868 123.774h15.849v15.849h-15.849z" transform="translate(50 50)"/>
  <path style="fill:#e8c1a0;stroke-width:1;stroke:#000" d="M538.868 139.623h15.849v15.849h-15.849zM554.717 44.528h15.849v15.849h-15.849z" transform="translate(50 50)"/>
  <path style="fill:#fff;stroke-width:1;stroke:#000" d="M554.717 60.377h15.849v15.849h-15.849z" transform="translate(50 50)"/>
  <path style="fill:#f47560;stroke-width:1;stroke:#000" d="M554.717 76.226h15.849v15.849h-15.849z" transform="translate(50 50)"/>
  <path style="fill:#fff;stroke-width:1;stroke:#000" d="M554.717 92.075h15.849v15.849h-15.849z" transform="translate(50 50)"/>
  <path style="fill:#97e3d5;stroke-width:1;stroke:#000" d="M554.717 107.925h15.849v15.849h-15.849z" transform="translate(50 50)"/>
  <path style="fill:#fff;stroke-width:1;stroke:#000" d="M554.717 123.774h15.849v15.849h-15.849z" transform="translate(50 50)"/>
  <path style="fill:#97e3d5;stroke-width:1;stroke:#000" d="M554.717 139.623h15.849v15.849h-15.849z" transform="translate(50 50)"/>
  <path style="fill:#f47560;stroke-width:1;stroke:#000" d="M570.566 44.528h15.849v15.849h-15.849z" transform="translate(50 50)"/>
  <path style="fill:#97e3d5;stroke-width:1;stroke:#000" d="M570.566 60.377h15.849v15.849h-15.849z" transform="translate(50 50)"/>
  <path style="fill:#e8c1a0;stroke-width:1;stroke:#000" d="M570.566 76.226h15.849v15.849h-15.849z" transform="translate(50 50)"/>
  <path style="fill:#61cdbb;stroke-width:1;stroke:#000" d="M570.566 92.075h15.849v15.849h-15.849z" transform="translate(50 50)"/>
  <path style="fill:#fff;stroke-width:1;stroke:#000" d="M570.566 107.925h15.849v15.849h-15.849zM570.566 123.774h15.849v15.849h-15.849z" transform="translate(50 50)"/>
  <path style="fill:#61cdbb;stroke-width:1;stroke:#000" d="M570.566 139.623h15.849v15.849h-15.849zM586.415 44.528h15.849v15.849h-15.849z" transform="translate(50 50)"/>
  <path style="fill:#97e3d5;stroke-width:1;stroke:#000" d="M586.415 60.377h15.849v15.849h-15.849z" transform="translate(50 50)"/>
  <path style="fill:#fff;stroke-width:1;stroke:#000" d="M586.415 76.226h15.849v15.849h-15.849z" transform="translate(50 50)"/>
  <path style="fill:#e8c1a0;stroke-width:1;stroke:#000" d="M586.415 92.075h15.849v15.849h-15.849z" transform="translate(50 50)"/>
  <path style="fill:#fff;stroke-width:1;stroke:#000" d="M586.415 107.925h15.849v15.849h-15.849zM586.415 123.774h15.849v15.849h-15.849z" transform="translate(50 50)"/>
  <path style="fill:#e8c1a0;stroke-width:1;stroke:#000" d="M586.415 139.623h15.849v15.849h-15.849zM602.264 44.528h15.849v15.849h-15.849z" transform="translate(50 50)"/>
  <path style="fill:#97e3d5;stroke-width:1;stroke:#000" d="M602.264 60.377h15.849v15.849h-15.849z" transform="translate(50 50)"/>
  <path style="fill:#f47560;stroke-width:1;stroke:#000" d="M602.264 76.226h15.849v15.849h-15.849z" transform="translate(50 50)"/>
  <path style="fill:#61cdbb;stroke-width:1;stroke:#000" d="M602.264 92.075h15.849v15.849h-15.849z" transform="translate(50 50)"/>
  <path style="fill:#e8c1a0;stroke-width:1;stroke:#000" d="M602.264 107.925h15.849v15.849h-15.849z" transform="translate(50 50)"/>
  <path style="fill:#f47560;stroke-width:1;stroke:#000" d="M602.264 123.774h15.849v15.849h-15.849z" transform="translate(50 50)"/>
  <path style="fill:#e8c1a0;stroke-width:1;stroke:#000" d="M602.264 139.623h15.849v15.849h-15.849z" transform="translate(50 50)"/>
  <path style="fill:#fff;stroke-width:1;stroke:#000" d="M618.113 44.528h15.849v15.849h-15.849z" transform="translate(50 50)"/>
  <path style="fill:#e8c1a0;stroke-width:1;stroke:#000" d="M618.113 60.377h15.849v15.849h-15.849z" transform="translate(50 50)"/>
  <path style="fill:#61cdbb;stroke-width:1;stroke:#000" d="M618.113 76.226h15.849v15.849h-15.849z" transform="translate(50 50)"/>
  <path style="fill:#97e3d5;stroke-width:1;stroke:#000" d="M618.113 92.075h15.849v15.849h-15.849z" transform="translate(50 50)"/>
  <path style="fill:#e8c1a0;stroke-width:1;stroke:#000" d="M618.113 107.925h15.849v15.849h-15.849zM618.113 123.774h15.849v15.849h-15.849z" transform="translate(50 50)"/>
  <path style="fill:#fff;stroke-width:1;stroke:#000" d="M618.113 139.623h15.849v15.849h-15.849z" transform="translate(50 50)"/>
  <path style="fill:#e8c1a0;stroke-width:1;stroke:#000" d="M633.962 44.528h15.849v15.849h-15.849z" transform="translate(50 50)"/>
  <path style="fill:#fff;stroke-width:1;stroke:#000" d="M633.962 60.377h15.849v15.849h-15.849z" transform="translate(50 50)"/>
  <path style="fill:#e8c1a0;stroke-width:1;stroke:#000" d="M633.962 76.226h15.849v15.849h-15.849z" transform="translate(50 50)"/>
  <path style="fill:#f47560;stroke-width:1;stroke:#000" d="M633.962 92.075h15.849v15.849h-15.849z" transform="translate(50 50)"/>
  <path style="fill:#e8c1a0;stroke-width:1;stroke:#000" d="M633.962 107.925h15.849v15.849h-15.849z" transform="translate(50 50)"/>
  <path style="fill:#fff;stroke-width:1;stroke:#000" d="M633.962 123.774h15.849v15.849h-15.849z" transform="translate(50 50)"/>
  <path style="fill:#97e3d5;stroke-width:1;stroke:#000" d="M633.962 139.623h15.849v15.849h-15.849z" transform="translate(50 50)"/>
  <path style="fill:#fff;stroke-width:1;stroke:#000" d="M649.811 44.528h15.849v15.849h-15.849z" transform="translate(50 50)"/>
  <path style="fill:#61cdbb;stroke-width:1;stroke:#000" d="M649.811 60.377h15.849v15.849h-15.849zM649.811 76.226h15.849v15.849h-15.849z" transform="translate(50 50)"/>
  <path style="fill:#fff;stroke-width:1;stroke:#000" d="M649.811 92.075h15.849v15.849h-15.849zM649.811 107.925h15.849v15.849h-15.849z" transform="translate(50 50)"/>
  <path style="fill:#e8c1a0;stroke-width:1;stroke:#000" d="M649.811 123.774h15.849v15.849h-15.849z" transform="translate(50 50)"/>
  <path style="fill:#97e3d5;stroke-width:1;stroke:#000" d="M649.811 139.623h15.849v15.849h-15.849zM665.66 44.528h15.849v15.849H665.66z" transform="translate(50 50)"/>
  <path style="fill:#fff;stroke-width:1;stroke:#000" d="M665.66 60.377h15.849v15.849H665.66zM665.66 76.226h15.849v15.849H665.66z" transform="translate(50 50)"/>
  <path style="fill:#f47560;stroke-width:1;stroke:#000" d="M665.66 92.075h15.849v15.849H665.66z" transform="translate(50 50)"/>
  <path style="fill:#61cdbb;stroke-width:1;stroke:#000" d="M665.66 107.925h15.849v15.849H665.66z" transform="translate(50 50)"/>
  <path style="fill:#fff;stroke-width:1;stroke:#000" d="M665.66 123.774h15.849v15.849H665.66zM665.66 139.623h15.849v15.849H665.66zM681.509 44.528h15.849v15.849h-15.849zM681.509 60.377h15.849v15.849h-15.849z" transform="translate(50 50)"/>
  <path style="fill:#97e3d5;stroke-width:1;stroke:#000" d="M681.509 76.226h15.849v15.849h-15.849z" transform="translate(50 50)"/>
  <path style="fill:#fff;stroke-width:1;stroke:#000" d="M681.509 92.075h15.849v15.849h-15.849z" transform="translate(50 50)"/>
  <path style="fill:#f47560;stroke-width:1;stroke:#000" d="M681.509 107.925h15.849v15.849h-15.849zM681.509 123.774h15.849v15.849h-15.849z" transform="translate(50 50)"/>
  <path style="fill:#e8c1a0;stroke-width:1;stroke:#000" d="M681.509 139.623h15.849v15.849h-15.849z" transform="translate(50 50)"/>
  <path style="fill:#f47560;stroke-width:1;stroke:#000" d="M697.358 44.528h15.849v15.849h-15.849z" transform="translate(50 50)"/>
  <path style="fill:#e8c1a0;stroke-width:1;stroke:#000" d="M697.358 60.377h15.849v15.849h-15.849z" transform="translate(50 50)"/>
  <path style="fill:#97e3d5;stroke-width:1;stroke:#000" d="M697.358 76.226h15.849v15.849h-15.849z" transform="translate(50 50)"/>
  <path style="fill:#f47560;stroke-width:1;stroke:#000" d="M697.358 92.075h15.849v15.849h-15.849z" transform="translate(50 50)"/>
  <path style="fill:#e8c1a0;stroke-width:1;stroke:#000" d="M697.358 107.925h15.849v15.849h-15.849z" transform="translate(50 50)"/>
  <path style="fill:#fff;stroke-width:1;stroke:#000" d="M697.358 123.774h15.849v15.849h-15.849z" transform="translate(50 50)"/>
  <path style="fill:#e8c1a0;stroke-width:1;stroke:#000" d="M697.358 139.623h15.849v15.849h-15.849zM713.208 44.528h15.849v15.849h-15.849zM713.208 60.377h15.849v15.849h-15.849zM713.208 76.226h15.849v15.849h-15.849z" transform="translate(50 50)"/>
  <path style="fill:#fff;stroke-width:1;stroke:#000" d="M713.208 92.075h15.849v15.849h-15.849zM713.208 107.925h15.849v15.849h-15.849z" transform="translate(50 50)"/>
  <path style="fill:#e8c1a0;stroke-width:1;stroke:#000" d="M713.208 123.774h15.849v15.849h-15.849zM713.208 139.623h15.849v15.849h-15.849z" transform="translate(50 50)"/>
  <path style="fill:#fff;stroke-width:1;stroke:#000" d="M729.057 44.528h15.849v15.849h-15.849z" transform="translate(50 50)"/>
  <path style="fill:#61cdbb;stroke-width:1;stroke:#000" d="M729.057 60.377h15.849v15.849h-15.849z" transform="translate(50 50)"/>
  <path style="fill:#e8c1a0;stroke-width:1;stroke:#000" d="M729.057 76.226h15.849v15.849h-15.849z" transform="translate(50 50)"/>
  <path style="fill:#fff;stroke-width:1;stroke:#000" d="M729.057 92.075h15.849v15.849h-15.849z" transform="translate(50 50)"/>
  <path style="fill:#e8c1a0;stroke-width:1;stroke:#000" d="M729.057 107.925h15.849v15.849h-15.849zM729.057 123.774h15.849v15.849h-15.849z" transform="translate(50 50)"/>
  <path style="fill:#fff;stroke-width:1;stroke:#000" d="M729.057 139.623h15.849v15.849h-15.849z" transform="translate(50 50)"/>
  <path style="fill:#61cdbb;stroke-width:1;stroke:#000" d="M744.906 44.528h15.849v15.849h-15.849z" transform="translate(50 50)"/>
  <path style="fill:#fff;stroke-width:1;stroke:#000" d="M744.906 60.377h15.849v15.849h-15.849z" transform="translate(50 50)"/>
  <path style="fill:#61cdbb;stroke-width:1;stroke:#000" d="M744.906 76.226h15.849v15.849h-15.849z" transform="translate(50 50)"/>
  <path style="fill:#97e3d5;stroke-width:1;stroke:#000" d="M744.906 92.075h15.849v15.849h-15.849z" transform="translate(50 50)"/>
  <path style="fill:#fff;stroke-width:1;stroke:#000" d="M744.906 107.925h15.849v15.849h-15.849z" transform="translate(50 50)"/>
  <path style="fill:#61cdbb;stroke-width:1;stroke:#000" d="M744.906 123.774h15.849v15.849h-15.849z" transform="translate(50 50)"/>
  <path style="fill:#e8c1a0;stroke-width:1;stroke:#000" d="M744.906 139.623h15.849v15.849h-15.849z" transform="translate(50 50)"/>
  <path style="fill:#fff;stroke-width:1;stroke:#000" d="M760.755 44.528h15.849v15.849h-15.849z" transform="translate(50 50)"/>
  <path style="fill:#97e3d5;stroke-width:1;stroke:#000" d="M760.755 60.377h15.849v15.849h-15.849z" transform="translate(50 50)"/>
  <path style="fill:#f47560;stroke-width:1;stroke:#000" d="M760.755 76.226h15.849v15.849h-15.849z" transform="translate(50 50)"/>
  <path style="fill:#fff;stroke-width:1;stroke:#000" d="M760.755 92.075h15.849v15.849h-15.849zM760.755 107.925h15.849v15.849h-15.849zM760.755 123.774h15.849v15.849h-15.849z" transform="translate(50 50)"/>
  <path style="fill:#61cdbb;stroke-width:1;stroke:#000" d="M760.755 139.623h15.849v15.849h-15.849z" transform="translate(50 50)"/>
  <path style="fill:#fff;stroke-width:1;stroke:#000" d="M776.604 44.528h15.849v15.849h-15.849z" transform="translate(50 50)"/>
  <path style="fill:#e8c1a0;stroke-width:1;stroke:#000" d="M776.604 60.377h15.849v15.849h-15.849z" transform="translate(50 50)"/>
  <path style="fill:#61cdbb;stroke-width:1;stroke:#000" d="M776.604 76.226h15.849v15.849h-15.849z" transform="translate(50 50)"/>
  <path style="fill:#f47560;stroke-width:1;stroke:#000" d="M776.604 92.075h15.849v15.849h-15.849zM776.604 107.925h15.849v15.849h-15.849z" transform="translate(50 50)"/>
  <path style="fill:#e8c1a0;stroke-width:1;stroke:#000" d="M776.604 123.774h15.849v15.849h-15.849z" transform="translate(50 50)"/>
  <path style="fill:#61cdbb;stroke-width:1;stroke:#000" d="M776.604 139.623h15.849v15.849h-15.849zM792.453 44.528h15.849v15.849h-15.849z" transform="translate(50 50)"/>
  <path style="fill:#97e3d5;stroke-width:1;stroke:#000" d="M792.453 60.377h15.849v15.849h-15.849z" transform="translate(50 50)"/>
  <path style="fill:#fff;stroke-width:1;stroke:#000" d="M792.453 76.226h15.849v15.849h-15.849z" transform="translate(50 50)"/>
  <path style="fill:#97e3d5;stroke-width:1;stroke:#000" d="M792.453 92.075h15.849v15.849h-15.849z" transform="translate(50 50)"/>
  <path style="fill:#f47560;stroke-width:1;stroke:#000" d="M792.453 107.925h15.849v15.849h-15.849z" transform="translate(50 50)"/>
  <path style="fill:#fff;stroke-width:1;stroke:#000" d="M792.453 123.774h15.849v15.849h-15.849z" transform="translate(50 50)"/>
  <path style="fill:#61cdbb;stroke-width:1;stroke:#000" d="M792.453 139.623h15.849v15.849h-15.849z" transform="translate(50 50)"/>
  <path style="fill:#fff;stroke-width:1;stroke:#000" d="M808.302 44.528h15.849v15.849h-15.849z" transform="translate(50 50)"/>
  <path style="fill:#97e3d5;stroke-width:1;stroke:#000" d="M808.302 60.377h15.849v15.849h-15.849z" transform="translate(50 50)"/>
  <path style="fill:#61cdbb;stroke-width:1;stroke:#000" d="M808.302 76.226h15.849v15.849h-15.849z" transform="translate(50 50)"/>
  <path style="fill:#97e3d5;stroke-width:1;stroke:#000" d="M808.302 92.075h15.849v15.849h-15.849zM808.302 107.925h15.849v15.849h-15.849z" transform="translate(50 50)"/>
  <path style="fill:#e8c1a0;stroke-width:1;stroke:#000" d="M808.302 123.774h15.849v15.849h-15.849zM808.302 139.623h15.849v15.849h-15.849z" transform="translate(50 50)"/>
  <path style="fill:#61cdbb;stroke-width:1;stroke:#000" d="M824.151 44.528H840v15.849h-15.849z" transform="translate(50 50)"/>
  <path style="fill:#e8c1a0;stroke-width:1;stroke:#000" d="M824.151 60.377H840v15.849h-15.849z" transform="translate(50 50)"/>
  <path style="fill:#fff;stroke-width:1;stroke:#000" d="M824.151 76.226H840v15.849h-15.849z" transform="translate(50 50)"/>
  <path d="M15.85 76.226H0v79.246h63.396v-31.698h15.85V44.528H15.848Z" style="fill:none;stroke-width:2;stroke:#000;pointer-events:none" transform="translate(50 50)"/>
  <path d="M79.245 123.774H63.396v31.698h63.396v-31.698h15.85V44.528H79.245Z" style="fill:none;stroke-width:2;stroke:#000;pointer-events:none" transform="translate(50 50)"/>
  <path d="M142.642 123.774h-15.85v31.698h79.246V60.377h15.849V44.528h-79.245Z" style="fill:none;stroke-width:2;stroke:#000;pointer-events:none" transform="translate(50 50)"/>
  <path d="M221.887 60.377h-15.85v95.095h63.397V92.075h15.849V44.528h-63.396Z" style="fill:none;stroke-width:2;stroke:#000;pointer-events:none" transform="translate(50 50)"/>
  <path d="M285.283 92.075h-15.849v63.397h63.396v-15.85h15.85V44.529h-63.397Z" style="fill:none;stroke-width:2;stroke:#000;pointer-events:none" transform="translate(50 50)"/>
  <path d="M348.68 139.623h-15.85v15.849h79.245V60.377h15.85V44.528h-79.246Z" style="fill:none;stroke-width:2;stroke:#000;pointer-events:none" transform="translate(50 50)"/>
  <path d="M427.925 60.377h-15.85v95.095h63.397v-47.547h15.849V44.528h-63.396Z" style="fill:none;stroke-width:2;stroke:#000;pointer-events:none" transform="translate(50 50)"/>
  <path d="M491.32 107.925h-15.848v47.547h79.245V44.528h-63.396Zm79.246-63.397h-15.849v110.944h63.396V76.226h15.85V44.528z" style="fill:none;stroke-width:2;stroke:#000;pointer-events:none" transform="translate(50 50)"/>
  <path d="M633.962 76.226h-15.849v79.246h63.396v-31.698h15.85V44.528h-63.397Z" style="fill:none;stroke-width:2;stroke:#000;pointer-events:none" transform="translate(50 50)"/>
  <path d="M697.358 123.774H681.51v31.698h79.246V44.528h-63.397Z" style="fill:none;stroke-width:2;stroke:#000;pointer-events:none" transform="translate(50 50)"/>
  <path d="M776.604 44.528h-15.85v110.944h63.397V92.075H840V44.528z" style="fill:none;stroke-width:2;stroke:#000;pointer-events:none" transform="translate(50 50)"/>
  <text transform="translate(50 50) translate(39.623 34.528)" text-anchor="middle" style="font-family:sans-serif;font-size:11px;fill:#333;outline-width:0;outline-color:transparent">Jan</text>
  <text transform="translate(50 50) translate(103.019 34.528)" text-anchor="middle" style="font-family:sans-serif;font-size:11px;fill:#333;outline-width:0;outline-color:transparent">Feb</text>
  <text transform="translate(50 50) translate(174.34 34.528)" text-anchor="middle" style="font-family:sans-serif;font-size:11px;fill:#333;outline-width:0;outline-color:transparent">Mar</text>
  <text transform="translate(50 50) translate(245.66 34.528)" text-anchor="middle" style="font-family:sans-serif;font-size:11px;fill:#333;outline-width:0;outline-color:transparent">Apr</text>
  <text transform="translate(50 50) translate(309.057 34.528)" text-anchor="middle" style="font-family:sans-serif;font-size:11px;fill:#333;outline-width:0;outline-color:transparent">May</text>
  <text transform="translate(50 50) translate(380.377 34.528)" text-anchor="middle" style="font-family:sans-serif;font-size:11px;fill:#333;outline-width:0;outline-color:transparent">Jun</text>
  <text transform="translate(50 50) translate(451.698 34.528)" text-anchor="middle" style="font-family:sans-serif;font-size:11px;fill:#333;outline-width:0;outline-color:transparent">Jul</text>
  <text transform="translate(50 50) translate(515.094 34.528)" text-anchor="middle" style="font-family:sans-serif;font-size:11px;fill:#333;outline-width:0;outline-color:transparent">Aug</text>
  <text transform="translate(50 50) translate(594.34 34.528)" text-anchor="middle" style="font-family:sans-serif;font-size:11px;fill:#333;outline-width:0;outline-color:transparent">Sep</text>
  <text transform="translate(50 50) translate(657.736 34.528)" text-anchor="middle" style="font-family:sans-serif;font-size:11px;fill:#333;outline-width:0;outline-color:transparent">Oct</text>
  <text transform="translate(50 50) translate(721.132 34.528)" text-anchor="middle" style="font-family:sans-serif;font-size:11px;fill:#333;outline-width:0;outline-color:transparent">Nov</text>
  <text transform="translate(50 50) translate(800.377 34.528)" text-anchor="middle" style="font-family:sans-serif;font-size:11px;fill:#333;outline-width:0;outline-color:transparent">Dec</text>
  <text transform="translate(50 50) rotate(-90 45 55)" text-anchor="middle" style="font-family:sans-serif;font-size:11px;fill:#333;outline-width:0;outline-color:transparent">2019</text>
</svg>
