<svg xmlns="http://www.w3.org/2000/svg" viewBox="0 0 700 240">
  <g fill="none" font-size="10" font-family="sans-serif" text-anchor="middle">
    <g class="tick">
      <path stroke="currentColor" d="M0 0v6" transform="translate(53.718 210)"/>
      <text fill="currentColor" y="9" dy=".71em" transform="translate(53.718 210)">11/20</text>
    </g>
    <g class="tick">
      <path stroke="currentColor" d="M0 0v6" transform="translate(96.586 210)"/>
      <text fill="currentColor" y="9" dy=".71em" transform="translate(96.586 210)">11/27</text>
    </g>
    <g class="tick">
      <path stroke="currentColor" d="M0 0v6" transform="translate(139.455 210)"/>
      <text fill="currentColor" y="9" dy=".71em" transform="translate(139.455 210)">12/4</text>
    </g>
    <g class="tick">
      <path stroke="currentColor" d="M0 0v6" transform="translate(182.323 210)"/>
      <text fill="currentColor" y="9" dy=".71em" transform="translate(182.323 210)">12/11</text>
    </g>
    <g class="tick">
      <path stroke="currentColor" d="M0 0v6" transform="translate(225.192 210)"/>
      <text fill="currentColor" y="9" dy=".71em" transform="translate(225.192 210)">12/18</text>
    </g>
    <g class="tick">
      <path stroke="currentColor" d="M0 0v6" transform="translate(268.06 210)"/>
      <text fill="currentColor" y="9" dy=".71em" transform="translate(268.06 210)">12/25</text>
    </g>
    <g class="tick">
      <path stroke="currentColor" d="M0 0v6" transform="translate(310.929 210)"/>
      <text fill="currentColor" y="9" dy=".71em" transform="translate(310.929 210)">1/1</text>
    </g>
    <g class="tick">
      <path stroke="currentColor" d="M0 0v6" transform="translate(353.797 210)"/>
      <text fill="currentColor" y="9" dy=".71em" transform="translate(353.797 210)">1/8</text>
    </g>
    <g class="tick">
      <path stroke="currentColor" d="M0 0v6" transform="translate(396.666 210)"/>
      <text fill="currentColor" y="9" dy=".71em" transform="translate(396.666 210)">1/15</text>
    </g>
    <g class="tick">
      <path stroke="currentColor" d="M0 0v6" transform="translate(439.534 210)"/>
      <text fill="currentColor" y="9" dy=".71em" transform="translate(439.534 210)">1/22</text>
    </g>
    <g class="tick">
      <path stroke="currentColor" d="M0 0v6" transform="translate(482.403 210)"/>
      <text fill="currentColor" y="9" dy=".71em" transform="translate(482.403 210)">1/29</text>
    </g>
    <g class="tick">
      <path stroke="currentColor" d="M0 0v6" transform="translate(525.271 210)"/>
      <text fill="currentColor" y="9" dy=".71em" transform="translate(525.271 210)">2/5</text>
    </g>
    <g class="tick">
      <path stroke="currentColor" d="M0 0v6" transform="translate(568.14 210)"/>
      <text fill="currentColor" y="9" dy=".71em" transform="translate(568.14 210)">2/12</text>
    </g>
    <g class="tick">
      <path stroke="currentColor" d="M0 0v6" transform="translate(611.008 210)"/>
      <text fill="currentColor" y="9" dy=".71em" transform="translate(611.008 210)">2/19</text>
    </g>
    <g class="tick">
      <path stroke="currentColor" d="M0 0v6" transform="translate(653.876 210)"/>
      <text fill="currentColor" y="9" dy=".71em" transform="translate(653.876 210)">2/26</text>
    </g>
    <g class="tick">
      <path stroke="currentColor" d="M0 0v6" transform="translate(696.745 210)"/>
      <text fill="currentColor" y="9" dy=".71em" transform="translate(696.745 210)">3/5</text>
    </g>
    <g class="tick">
      <path stroke="currentColor" d="M0 0v6" transform="translate(739.613 210)"/>
      <text fill="currentColor" y="9" dy=".71em" transform="translate(739.613 210)">3/12</text>
    </g>
    <g class="tick">
      <path stroke="currentColor" d="M0 0v6" transform="translate(782.482 210)"/>
      <text fill="currentColor" y="9" dy=".71em" transform="translate(782.482 210)">3/19</text>
    </g>
    <g class="tick">
      <path stroke="currentColor" d="M0 0v6" transform="translate(825.35 210)"/>
      <text fill="currentColor" y="9" dy=".71em" transform="translate(825.35 210)">3/26</text>
    </g>
    <g class="tick">
      <path stroke="currentColor" d="M0 0v6" transform="translate(868.219 210)"/>
      <text fill="currentColor" y="9" dy=".71em" transform="translate(868.219 210)">4/2</text>
    </g>
    <g class="tick">
      <path stroke="currentColor" d="M0 0v6" transform="translate(911.087 210)"/>
      <text fill="currentColor" y="9" dy=".71em" transform="translate(911.087 210)">4/9</text>
    </g>
    <g class="tick">
      <path stroke="currentColor" d="M0 0v6" transform="translate(953.956 210)"/>
      <text fill="currentColor" y="9" dy=".71em" transform="translate(953.956 210)">4/16</text>
    </g>
    <g class="tick">
      <path stroke="currentColor" d="M0 0v6" transform="translate(996.824 210)"/>
      <text fill="currentColor" y="9" dy=".71em" transform="translate(996.824 210)">4/23</text>
    </g>
    <g class="tick">
      <path stroke="currentColor" d="M0 0v6" transform="translate(1039.693 210)"/>
      <text fill="currentColor" y="9" dy=".71em" transform="translate(1039.693 210)">4/30</text>
    </g>
    <g class="tick">
      <path stroke="currentColor" d="M0 0v6" transform="translate(1082.561 210)"/>
      <text fill="currentColor" y="9" dy=".71em" transform="translate(1082.561 210)">5/7</text>
    </g>
  </g>
  <g fill="none" font-size="10" font-family="sans-serif" text-anchor="end">
    <g class="tick">
      <path stroke="currentColor" d="M0 0h-6" transform="translate(40 185)"/>
      <path stroke="currentColor" stroke-opacity=".2" d="M0 0h1082" transform="translate(40 185)"/>
      <text fill="currentColor" x="-9" dy=".32em" transform="translate(40 185)">$155</text>
    </g>
    <g class="tick">
      <path stroke="currentColor" d="M0 0h-6" transform="translate(40 159)"/>
      <path stroke="currentColor" stroke-opacity=".2" d="M0 0h1082" transform="translate(40 159)"/>
      <text fill="currentColor" x="-9" dy=".32em" transform="translate(40 159)">$160</text>
    </g>
    <g class="tick">
      <path stroke="currentColor" d="M0 0h-6" transform="translate(40 135)"/>
      <path stroke="currentColor" stroke-opacity=".2" d="M0 0h1082" transform="translate(40 135)"/>
      <text fill="currentColor" x="-9" dy=".32em" transform="translate(40 135)">$165</text>
    </g>
    <g class="tick">
      <path stroke="currentColor" d="M0 0h-6" transform="translate(40 111)"/>
      <path stroke="currentColor" stroke-opacity=".2" d="M0 0h1082" transform="translate(40 111)"/>
      <text fill="currentColor" x="-9" dy=".32em" transform="translate(40 111)">$170</text>
    </g>
    <g class="tick">
      <path stroke="currentColor" d="M0 0h-6" transform="translate(40 88)"/>
      <path stroke="currentColor" stroke-opacity=".2" d="M0 0h1082" transform="translate(40 88)"/>
      <text fill="currentColor" x="-9" dy=".32em" transform="translate(40 88)">$175</text>
    </g>
    <g class="tick">
      <path stroke="currentColor" d="M0 0h-6" transform="translate(40 65)"/>
      <path stroke="currentColor" stroke-opacity=".2" d="M0 0h1082" transform="translate(40 65)"/>
      <text fill="currentColor" x="-9" dy=".32em" transform="translate(40 65)">$180</text>
    </g>
    <g class="tick">
      <path stroke="currentColor" d="M0 0h-6" transform="translate(40 43)"/>
      <path stroke="currentColor" stroke-opacity=".2" d="M0 0h1082" transform="translate(40 43)"/>
      <text fill="currentColor" x="-9" dy=".32em" transform="translate(40 43)">$185</text>
    </g>
    <g class="tick">
      <path stroke="currentColor" d="M0 0h-6" transform="translate(40 22)"/>
      <path stroke="currentColor" stroke-opacity=".2" d="M0 0h1082" transform="translate(40 22)"/>
      <text fill="currentColor" x="-9" dy=".32em" transform="translate(40 22)">$190</text>
    </g>
  </g>
  <g stroke-linecap="round" stroke="#000">
    <path d="M0 113v-9" transform="translate(41.715)"/>
    <path stroke-width="6.859" stroke="#e41a1c" d="M0 106v4" transform="translate(41.715)"/>
    <path d="M0 113v-5" transform="translate(50.288)"/>
    <path stroke-width="6.859" stroke="#e41a1c" d="M0 109v2" transform="translate(50.288)"/>
    <path d="M0 107V94" transform="translate(58.862)"/>
    <path stroke-width="6.859" stroke="#4daf4a" d="M0 107V96" transform="translate(58.862)"/>
    <path d="M0 97v-9" transform="translate(67.436)"/>
    <path stroke-width="6.859" stroke="#4daf4a" d="M0 95v-7" transform="translate(67.436)"/>
    <path d="M0 89v-4" transform="translate(84.583)"/>
    <path stroke-width="6.859" stroke="#e41a1c" d="M0 87v1" transform="translate(84.583)"/>
    <path d="M0 95v-8" transform="translate(93.157)"/>
    <path stroke-width="6.859" stroke="#e41a1c" d="M0 87v5" transform="translate(93.157)"/>
    <path d="M0 102V88" transform="translate(101.73)"/>
    <path stroke-width="6.859" stroke="#e41a1c" d="M0 91v5" transform="translate(101.73)"/>
    <path d="M0 124V97" transform="translate(110.304)"/>
    <path stroke-width="6.859" stroke="#e41a1c" d="M0 99v14" transform="translate(110.304)"/>
    <path d="M0 118v-17" transform="translate(118.878)"/>
    <path stroke-width="6.859" stroke="#4daf4a" d="M0 109v-7" transform="translate(118.878)"/>
    <path d="M0 118v-15" transform="translate(127.452)"/>
    <path stroke-width="6.859" stroke="#4daf4a" d="M0 111v-5" transform="translate(127.452)"/>
    <path d="M0 113V99" transform="translate(136.025)"/>
    <path stroke-width="6.859" stroke="#e41a1c" d="M0 99v13" transform="translate(136.025)"/>
    <path d="M0 118v-14" transform="translate(144.599)"/>
    <path stroke-width="6.859" stroke="#4daf4a" d="M0 115v-2" transform="translate(144.599)"/>
    <path d="M0 128v-18" transform="translate(153.173)"/>
    <path stroke-width="6.859" stroke="#4daf4a" d="M0 123v-7" transform="translate(153.173)"/>
    <path d="M0 116v-7" transform="translate(161.746)"/>
    <path stroke-width="6.859" stroke="#4daf4a" d="M0 115v-1" transform="translate(161.746)"/>
    <path d="M0 116v-10" transform="translate(170.32)"/>
    <path stroke-width="6.859" stroke="#e41a1c" d="M0 109v5" transform="translate(170.32)"/>
    <path d="M0 117V97" transform="translate(178.894)"/>
    <path stroke-width="6.859" stroke="#4daf4a" d="M0 115V98" transform="translate(178.894)"/>
    <path d="M0 104v-4" transform="translate(187.468)"/>
    <path stroke-width="6.859" stroke="#e41a1c" d="M0 101v2" transform="translate(187.468)"/>
    <path d="M0 101v-7" transform="translate(196.041)"/>
    <path stroke-width="6.859" stroke="#e41a1c" d="M0 99v1" transform="translate(196.041)"/>
    <path d="M0 103v-7" transform="translate(204.615)"/>
    <path stroke-width="6.859" stroke="#e41a1c" d="M0 100h0" transform="translate(204.615)"/>
    <path d="M0 99v-8" transform="translate(213.189)"/>
    <path stroke-width="6.859" stroke="#4daf4a" d="M0 94v-2" transform="translate(213.189)"/>
    <path d="M0 88V78" transform="translate(221.762)"/>
    <path stroke-width="6.859" stroke="#4daf4a" d="M0 88v-7" transform="translate(221.762)"/>
    <path d="M0 92v-6" transform="translate(230.336)"/>
    <path stroke-width="6.859" stroke="#e41a1c" d="M0 87v3" transform="translate(230.336)"/>
    <path d="M0 96V86" transform="translate(238.91)"/>
    <path stroke-width="6.859" stroke="#e41a1c" d="M0 88v3" transform="translate(238.91)"/>
    <path d="M0 92v-9" transform="translate(247.483)"/>
    <path stroke-width="6.859" stroke="#4daf4a" d="M0 91v-3" transform="translate(247.483)"/>
    <path d="M0 90v-4" transform="translate(256.057)"/>
    <path stroke-width="6.859" stroke="#4daf4a" d="M0 89v-1" transform="translate(256.057)"/>
    <path d="M0 112v-8" transform="translate(273.204)"/>
    <path stroke-width="6.859" stroke="#e41a1c" d="M0 107v1" transform="translate(273.204)"/>
    <path d="M0 112v-5" transform="translate(281.778)"/>
    <path stroke-width="6.859" stroke="#4daf4a" d="M0 110v-2" transform="translate(281.778)"/>
    <path d="M0 109v-7" transform="translate(290.352)"/>
    <path stroke-width="6.859" stroke="#4daf4a" d="M0 106h0" transform="translate(290.352)"/>
    <path d="M0 115v-7" transform="translate(298.926)"/>
    <path stroke-width="6.859" stroke="#e41a1c" d="M0 108v6" transform="translate(298.926)"/>
    <path d="M0 114v-14" transform="translate(316.073)"/>
    <path stroke-width="6.859" stroke="#4daf4a" d="M0 110v-10" transform="translate(316.073)"/>
    <path d="M0 102V90" transform="translate(324.647)"/>
    <path stroke-width="6.859" stroke="#e41a1c" d="M0 99v1" transform="translate(324.647)"/>
    <path d="M0 101v-6" transform="translate(333.22)"/>
    <path stroke-width="6.859" stroke="#4daf4a" d="M0 99v-2" transform="translate(333.22)"/>
    <path d="M0 97V86" transform="translate(341.794)"/>
    <path stroke-width="6.859" stroke="#4daf4a" d="M0 95v-7" transform="translate(341.794)"/>
    <path d="M0 92v-7" transform="translate(350.368)"/>
    <path stroke-width="6.859" stroke="#999" d="M0 91h0" transform="translate(350.368)"/>
    <path d="M0 95v-8" transform="translate(358.941)"/>
    <path stroke-width="6.859" stroke="#e41a1c" d="M0 90v1" transform="translate(358.941)"/>
    <path d="M0 97v-6" transform="translate(367.515)"/>
    <path stroke-width="6.859" stroke="#4daf4a" d="M0 96v-5" transform="translate(367.515)"/>
    <path d="M0 90v-5" transform="translate(376.089)"/>
    <path stroke-width="6.859" stroke="#4daf4a" d="M0 89v-3" transform="translate(376.089)"/>
    <path d="M0 85v-8" transform="translate(384.662)"/>
    <path stroke-width="6.859" stroke="#4daf4a" d="M0 82v-4" transform="translate(384.662)"/>
    <path d="M0 82V68" transform="translate(401.81)"/>
    <path stroke-width="6.859" stroke="#e41a1c" d="M0 74v8" transform="translate(401.81)"/>
    <path d="M0 87V68" transform="translate(410.384)"/>
    <path stroke-width="6.859" stroke="#4daf4a" d="M0 82V69" transform="translate(410.384)"/>
    <path d="M0 73v-8" transform="translate(418.957)"/>
    <path stroke-width="6.859" stroke="#e41a1c" d="M0 68h0" transform="translate(418.957)"/>
    <path d="M0 77V67" transform="translate(427.53)"/>
    <path stroke-width="6.859" stroke="#e41a1c" d="M0 71v1" transform="translate(427.53)"/>
    <path d="M0 80v-5" transform="translate(436.105)"/>
    <path stroke-width="6.859" stroke="#e41a1c" d="M0 77v1" transform="translate(436.105)"/>
    <path d="M0 79V67" transform="translate(444.678)"/>
    <path stroke-width="6.859" stroke="#e41a1c" d="M0 77v1" transform="translate(444.678)"/>
    <path d="M0 96V77" transform="translate(453.252)"/>
    <path stroke-width="6.859" stroke="#e41a1c" d="M0 77v14" transform="translate(453.252)"/>
    <path d="M0 108V88" transform="translate(461.826)"/>
    <path stroke-width="6.859" stroke="#e41a1c" d="M0 90v16" transform="translate(461.826)"/>
    <path d="M0 111v-10" transform="translate(470.4)"/>
    <path stroke-width="6.859" stroke="#e41a1c" d="M0 101v3" transform="translate(470.4)"/>
    <path d="M0 125v-15" transform="translate(478.973)"/>
    <path stroke-width="6.859" stroke="#e41a1c" d="M0 110v11" transform="translate(478.973)"/>
    <path d="M0 136v-13" transform="translate(487.547)"/>
    <path stroke-width="6.859" stroke="#4daf4a" d="M0 132v-7" transform="translate(487.547)"/>
    <path d="M0 128v-10" transform="translate(496.12)"/>
    <path stroke-width="6.859" stroke="#4daf4a" d="M0 126v-3" transform="translate(496.12)"/>
    <path d="M0 126v-9" transform="translate(504.694)"/>
    <path stroke-width="6.859" stroke="#4daf4a" d="M0 124v-3" transform="translate(504.694)"/>
    <path d="M0 159v-33" transform="translate(513.268)"/>
    <path stroke-width="6.859" stroke="#e41a1c" d="M0 130v27" transform="translate(513.268)"/>
    <path d="M0 180v-40" transform="translate(521.842)"/>
    <path stroke-width="6.859" stroke="#e41a1c" d="M0 164v13" transform="translate(521.842)"/>
    <path d="M0 190v-49" transform="translate(530.415)"/>
    <path stroke-width="6.859" stroke="#4daf4a" d="M0 186v-42" transform="translate(530.415)"/>
    <path d="M0 164v-21" transform="translate(538.989)"/>
    <path stroke-width="6.859" stroke="#e41a1c" d="M0 144v18" transform="translate(538.989)"/>
    <path d="M0 185v-31" transform="translate(547.563)"/>
    <path stroke-width="6.859" stroke="#e41a1c" d="M0 158v26" transform="translate(547.563)"/>
    <path d="M0 210v-40" transform="translate(556.136)"/>
    <path stroke-width="6.859" stroke="#e41a1c" d="M0 174v4" transform="translate(556.136)"/>
    <path d="M0 172v-32" transform="translate(564.71)"/>
    <path stroke-width="6.859" stroke="#4daf4a" d="M0 167v-21" transform="translate(564.71)"/>
    <path d="M0 151v-15" transform="translate(573.284)"/>
    <path stroke-width="6.859" stroke="#4daf4a" d="M0 150v-12" transform="translate(573.284)"/>
    <path d="M0 145v-22" transform="translate(581.857)"/>
    <path stroke-width="6.859" stroke="#4daf4a" d="M0 144v-21" transform="translate(581.857)"/>
    <path d="M0 116V96" transform="translate(590.431)"/>
    <path stroke-width="6.859" stroke="#4daf4a" d="M0 112V97" transform="translate(590.431)"/>
    <path d="M0 103V88" transform="translate(599.005)"/>
    <path stroke-width="6.859" stroke="#4daf4a" d="M0 100v-1" transform="translate(599.005)"/>
    <path d="M0 104V91" transform="translate(616.152)"/>
    <path stroke-width="6.859" stroke="#e41a1c" d="M0 101v1" transform="translate(616.152)"/>
    <path d="M0 106V92" transform="translate(624.726)"/>
    <path stroke-width="6.859" stroke="#e41a1c" d="M0 98v8" transform="translate(624.726)"/>
    <path d="M0 103V92" transform="translate(633.3)"/>
    <path stroke-width="6.859" stroke="#4daf4a" d="M0 102v-3" transform="translate(633.3)"/>
    <path d="M0 94v-9" transform="translate(641.873)"/>
    <path stroke-width="6.859" stroke="#4daf4a" d="M0 94v-9" transform="translate(641.873)"/>
    <path d="M0 82V68" transform="translate(650.447)"/>
    <path stroke-width="6.859" stroke="#4daf4a" d="M0 81V70" transform="translate(650.447)"/>
    <path d="M0 73V63" transform="translate(659.02)"/>
    <path stroke-width="6.859" stroke="#e41a1c" d="M0 69v3" transform="translate(659.02)"/>
    <path d="M0 74V62" transform="translate(667.594)"/>
    <path stroke-width="6.859" stroke="#e41a1c" d="M0 68v5" transform="translate(667.594)"/>
    <path d="M0 98V66" transform="translate(676.168)"/>
    <path stroke-width="6.859" stroke="#e41a1c" d="M0 71v17" transform="translate(676.168)"/>
    <path d="M0 99V82" transform="translate(684.742)"/>
    <path stroke-width="6.859" stroke="#4daf4a" d="M0 98V82" transform="translate(684.742)"/>
    <path d="M0 90V75" transform="translate(693.315)"/>
    <path stroke-width="6.859" stroke="#4daf4a" d="M0 87v-8" transform="translate(693.315)"/>
    <path d="M0 82v-9" transform="translate(701.89)"/>
    <path stroke-width="6.859" stroke="#e41a1c" d="M0 74v6" transform="translate(701.89)"/>
    <path d="M0 91v-7" transform="translate(710.463)"/>
    <path stroke-width="6.859" stroke="#4daf4a" d="M0 88v-1" transform="translate(710.463)"/>
    <path d="M0 87v-9" transform="translate(719.036)"/>
    <path stroke-width="6.859" stroke="#4daf4a" d="M0 85v-6" transform="translate(719.036)"/>
    <path d="M0 77V65" transform="translate(727.61)"/>
    <path stroke-width="6.859" stroke="#4daf4a" d="M0 74v-9" transform="translate(727.61)"/>
    <path d="M0 64V54" transform="translate(736.184)"/>
    <path stroke-width="6.859" stroke="#4daf4a" d="M0 64v-7" transform="translate(736.184)"/>
    <path d="M0 68V49" transform="translate(744.758)"/>
    <path stroke-width="6.859" stroke="#e41a1c" d="M0 53v12" transform="translate(744.758)"/>
    <path d="M0 75V63" transform="translate(753.331)"/>
    <path stroke-width="6.859" stroke="#e41a1c" d="M0 64v8" transform="translate(753.331)"/>
    <path d="M0 74V64" transform="translate(761.905)"/>
    <path stroke-width="6.859" stroke="#4daf4a" d="M0 72v-1" transform="translate(761.905)"/>
    <path d="M0 76v-7" transform="translate(770.479)"/>
    <path stroke-width="6.859" stroke="#e41a1c" d="M0 71v3" transform="translate(770.479)"/>
    <path d="M0 94V76" transform="translate(779.052)"/>
    <path stroke-width="6.859" stroke="#e41a1c" d="M0 77v9" transform="translate(779.052)"/>
    <path d="M0 88v-9" transform="translate(787.626)"/>
    <path stroke-width="6.859" stroke="#999" d="M0 86h0" transform="translate(787.626)"/>
    <path d="M0 105V87" transform="translate(796.2)"/>
    <path stroke-width="6.859" stroke="#e41a1c" d="M0 87v18" transform="translate(796.2)"/>
    <path d="M0 117V98" transform="translate(804.773)"/>
    <path stroke-width="6.859" stroke="#e41a1c" d="M0 111v5" transform="translate(804.773)"/>
    <path d="M0 135v-24" transform="translate(813.347)"/>
    <path stroke-width="6.859" stroke="#e41a1c" d="M0 118v17" transform="translate(813.347)"/>
    <path d="M0 128V96" transform="translate(821.92)"/>
    <path stroke-width="6.859" stroke="#4daf4a" d="M0 120V98" transform="translate(821.92)"/>
    <path d="M0 126V87" transform="translate(830.494)"/>
    <path stroke-width="6.859" stroke="#e41a1c" d="M0 94v25" transform="translate(830.494)"/>
    <path d="M0 134v-23" transform="translate(839.068)"/>
    <path stroke-width="6.859" stroke="#e41a1c" d="M0 124v4" transform="translate(839.068)"/>
    <path d="M0 126v-23" transform="translate(847.642)"/>
    <path stroke-width="6.859" stroke="#e41a1c" d="M0 121h0" transform="translate(847.642)"/>
    <path d="M0 137v-21" transform="translate(864.79)"/>
    <path stroke-width="6.859" stroke="#4daf4a" d="M0 127h0" transform="translate(864.79)"/>
    <path d="M0 135v-18" transform="translate(873.363)"/>
    <path stroke-width="6.859" stroke="#4daf4a" d="M0 122v-4" transform="translate(873.363)"/>
    <path d="M0 136v-35" transform="translate(881.937)"/>
    <path stroke-width="6.859" stroke="#4daf4a" d="M0 135v-32" transform="translate(881.937)"/>
    <path d="M0 101V91" transform="translate(890.51)"/>
    <path stroke-width="6.859" stroke="#4daf4a" d="M0 99v-1" transform="translate(890.51)"/>
    <path d="M0 119V99" transform="translate(899.084)"/>
    <path stroke-width="6.859" stroke="#e41a1c" d="M0 106v13" transform="translate(899.084)"/>
    <path d="M0 112V96" transform="translate(907.658)"/>
    <path stroke-width="6.859" stroke="#4daf4a" d="M0 111h0" transform="translate(907.658)"/>
    <path d="M0 104V92" transform="translate(916.231)"/>
    <path stroke-width="6.859" stroke="#4daf4a" d="M0 97v-1" transform="translate(916.231)"/>
    <path d="M0 103V93" transform="translate(924.805)"/>
    <path stroke-width="6.859" stroke="#4daf4a" d="M0 100v-1" transform="translate(924.805)"/>
    <path d="M0 97v-9" transform="translate(933.379)"/>
    <path stroke-width="6.859" stroke="#4daf4a" d="M0 95v-3" transform="translate(933.379)"/>
    <path d="M0 93v-9" transform="translate(941.952)"/>
    <path stroke-width="6.859" stroke="#e41a1c" d="M0 89h0" transform="translate(941.952)"/>
    <path d="M0 88v-6" transform="translate(950.526)"/>
    <path stroke-width="6.859" stroke="#4daf4a" d="M0 87v-3" transform="translate(950.526)"/>
    <path d="M0 81V70" transform="translate(959.1)"/>
    <path stroke-width="6.859" stroke="#4daf4a" d="M0 81v-8" transform="translate(959.1)"/>
    <path d="M0 79v-9" transform="translate(967.674)"/>
    <path stroke-width="6.859" stroke="#4daf4a" d="M0 75h0" transform="translate(967.674)"/>
    <path d="M0 98V86" transform="translate(976.247)"/>
    <path stroke-width="6.859" stroke="#e41a1c" d="M0 93v5" transform="translate(976.247)"/>
    <path d="M0 133v-28" transform="translate(984.82)"/>
    <path stroke-width="6.859" stroke="#e41a1c" d="M0 108v23" transform="translate(984.82)"/>
    <path d="M0 139v-13" transform="translate(993.395)"/>
    <path stroke-width="6.859" stroke="#e41a1c" d="M0 126v8" transform="translate(993.395)"/>
    <path d="M0 153v-25" transform="translate(1001.968)"/>
    <path stroke-width="6.859" stroke="#e41a1c" d="M0 132v13" transform="translate(1001.968)"/>
    <path d="M0 147v-14" transform="translate(1010.542)"/>
    <path stroke-width="6.859" stroke="#4daf4a" d="M0 146v-5" transform="translate(1010.542)"/>
    <path d="M0 143v-12" transform="translate(1019.116)"/>
    <path stroke-width="6.859" stroke="#4daf4a" d="M0 139h0" transform="translate(1019.116)"/>
    <path d="M0 156v-18" transform="translate(1027.69)"/>
    <path stroke-width="6.859" stroke="#e41a1c" d="M0 140v8" transform="translate(1027.69)"/>
    <path d="M0 150v-26" transform="translate(1036.263)"/>
    <path stroke-width="6.859" stroke="#4daf4a" d="M0 149v-15" transform="translate(1036.263)"/>
    <path d="M0 133v-18" transform="translate(1044.837)"/>
    <path stroke-width="6.859" stroke="#4daf4a" d="M0 128v-13" transform="translate(1044.837)"/>
    <path d="M0 93V75" transform="translate(1053.41)"/>
    <path stroke-width="6.859" stroke="#4daf4a" d="M0 87v-7" transform="translate(1053.41)"/>
    <path d="M0 90V76" transform="translate(1061.984)"/>
    <path stroke-width="6.859" stroke="#4daf4a" d="M0 84v-5" transform="translate(1061.984)"/>
    <path d="M0 73V46" transform="translate(1070.558)"/>
    <path stroke-width="6.859" stroke="#4daf4a" d="M0 73V48" transform="translate(1070.558)"/>
    <path d="M0 44V31" transform="translate(1079.132)"/>
    <path stroke-width="6.859" stroke="#e41a1c" d="M0 42h0" transform="translate(1079.132)"/>
    <path d="M0 49V38" transform="translate(1087.705)"/>
    <path stroke-width="6.859" stroke="#4daf4a" d="M0 43v-5" transform="translate(1087.705)"/>
    <path d="M0 42v-9" transform="translate(1096.279)"/>
    <path stroke-width="6.859" stroke="#4daf4a" d="M0 36v-3" transform="translate(1096.279)"/>
    <path d="M0 32V20" transform="translate(1104.853)"/>
    <path stroke-width="6.859" stroke="#4daf4a" d="M0 31V21" transform="translate(1104.853)"/>
    <path d="M0 32V21" transform="translate(1113.426)"/>
    <path stroke-width="6.859" stroke="#e41a1c" d="M0 24v4" transform="translate(1113.426)"/>
  </g>
</svg>
