<svg xmlns="http://www.w3.org/2000/svg" width="914" height="1000" viewBox="0,0,914,888" style="max-width: 100%; height: auto; height: intrinsic;"><g transform="translate(0,30)" fill="none" font-size="10" font-family="sans-serif" text-anchor="middle">
<svg width="320" height="50" viewBox="0,90,320,50" style="overflow: visible; display: block;"><g><rect x="3" y="18" width="34" height="10" fill="#d53e4f"></rect><rect x="38" y="18" width="34" height="10" fill="#f46d43"></rect><rect x="73" y="18" width="34" height="10" fill="#fdae61"></rect><rect x="108" y="18" width="34" height="10" fill="#fee08b"></rect><rect x="143" y="18" width="34" height="10" fill="#ffffbf"></rect><rect x="178" y="18" width="34" height="10" fill="#e6f598"></rect><rect x="213" y="18" width="34" height="10" fill="#abdda4"></rect><rect x="248" y="18" width="34" height="10" fill="#66c2a5"></rect><rect x="283" y="18" width="34" height="10" fill="#3288bd"></rect></g><g transform="translate(0,28)" fill="none" font-size="10" font-family="sans-serif" text-anchor="middle"><g class="tick" opacity="1" transform="translate(21,0)"><line stroke="currentColor" y2="6"></line><text fill="currentColor" y="9" dy="0.71em">&lt;10</text></g><g class="tick" opacity="1" transform="translate(56,0)"><line stroke="currentColor" y2="6"></line><text fill="currentColor" y="9" dy="0.71em">10-19</text></g><g class="tick" opacity="1" transform="translate(91,0)"><line stroke="currentColor" y2="6"></line><text fill="currentColor" y="9" dy="0.71em">20-29</text></g><g class="tick" opacity="1" transform="translate(126,0)"><line stroke="currentColor" y2="6"></line><text fill="currentColor" y="9" dy="0.71em">30-39</text></g><g class="tick" opacity="1" transform="translate(161,0)"><line stroke="currentColor" y2="6"></line><text fill="currentColor" y="9" dy="0.71em">40-49</text></g><g class="tick" opacity="1" transform="translate(196,0)"><line stroke="currentColor" y2="6"></line><text fill="currentColor" y="9" dy="0.71em">50-59</text></g><g class="tick" opacity="1" transform="translate(231,0)"><line stroke="currentColor" y2="6"></line><text fill="currentColor" y="9" dy="0.71em">60-69</text></g><g class="tick" opacity="1" transform="translate(266,0)"><line stroke="currentColor" y2="6"></line><text fill="currentColor" y="9" dy="0.71em">70-79</text></g><g class="tick" opacity="1" transform="translate(301,0)"><line stroke="currentColor" y2="6"></line><text fill="currentColor" y="9" dy="0.71em">≥80</text></g><text x="0" y="-16" fill="currentColor" text-anchor="start" font-weight="bold" class="title">Age (years)</text></g></svg>
<g class="tick" opacity="1" transform="translate(43.564700945319686,0)"><line stroke="currentColor" y2="-6"></line><line stroke="currentColor" y2="848" stroke-opacity="0.1"></line><text fill="currentColor" y="-9" dy="0em">2%</text></g><g class="tick" opacity="1" transform="translate(133.04339675180586,0)"><line stroke="currentColor" y2="-6"></line><line stroke="currentColor" y2="848" stroke-opacity="0.1"></line><text fill="currentColor" y="-9" dy="0em">4%</text></g><g class="tick" opacity="1" transform="translate(222.522092558292,0)"><line stroke="currentColor" y2="-6"></line><line stroke="currentColor" y2="848" stroke-opacity="0.1"></line><text fill="currentColor" y="-9" dy="0em">6%</text></g><g class="tick" opacity="1" transform="translate(312.00078836477826,0)"><line stroke="currentColor" y2="-6"></line><line stroke="currentColor" y2="848" stroke-opacity="0.1"></line><text fill="currentColor" y="-9" dy="0em">8%</text></g><g class="tick" opacity="1" transform="translate(401.4794841712644,0)"><line stroke="currentColor" y2="-6"></line><line stroke="currentColor" y2="848" stroke-opacity="0.1"></line><text fill="currentColor" y="-9" dy="0em">10%</text></g><g class="tick" opacity="1" transform="translate(490.9581799777505,0)"><line stroke="currentColor" y2="-6"></line><line stroke="currentColor" y2="848" stroke-opacity="0.1"></line><text fill="currentColor" y="-9" dy="0em">12%</text></g><g class="tick" opacity="1" transform="translate(580.4368757842367,0)"><line stroke="currentColor" y2="-6"></line><line stroke="currentColor" y2="848" stroke-opacity="0.1"></line><text fill="currentColor" y="-9" dy="0em">14%</text></g><g class="tick" opacity="1" transform="translate(669.9155715907228,0)"><line stroke="currentColor" y2="-6"></line><line stroke="currentColor" y2="848" stroke-opacity="0.1"></line><text fill="currentColor" y="-9" dy="0em">16%</text></g><g class="tick" opacity="1" transform="translate(759.394267397209,0)"><line stroke="currentColor" y2="-6"></line><line stroke="currentColor" y2="848" stroke-opacity="0.1"></line><text fill="currentColor" y="-9" dy="0em">18%</text></g><g class="tick" opacity="1" transform="translate(848.8729632036952,0)"><line stroke="currentColor" y2="-6"></line><line stroke="currentColor" y2="848" stroke-opacity="0.1"></line><text fill="currentColor" y="-9" dy="0em">20%</text></g><text x="884" y="-22" fill="currentColor" text-anchor="end">Population →</text></g><g text-anchor="end" font-family="sans-serif" font-size="10"><g transform="translate(0, 526)"><line stroke="currentColor" x1="115.60889438358392" x2="576.8336735811957"></line><circle cx="507.1661208803601" fill="#d53e4f" r="3.5"></circle><circle cx="544.4193073728571" fill="#f46d43" r="3.5"></circle><circle cx="565.5609597106521" fill="#fdae61" r="3.5"></circle><circle cx="511.3571159125715" fill="#fee08b" r="3.5"></circle><circle cx="532.2298422185311" fill="#ffffbf" r="3.5"></circle><circle cx="576.8336735811957" fill="#e6f598" r="3.5"></circle><circle cx="460.86463618270705" fill="#abdda4" r="3.5"></circle><circle cx="246.66828633135157" fill="#66c2a5" r="3.5"></circle><circle cx="115.60889438358392" fill="#3288bd" r="3.5"></circle><text dy="0.35em" x="109.60889438358392">AL</text></g><g transform="translate(0, 862)"><line stroke="currentColor" x1="30" x2="686.7777923800079"></line><circle cx="602.1813203012563" fill="#d53e4f" r="3.5"></circle><circle cx="560.8029411139532" fill="#f46d43" r="3.5"></circle><circle cx="686.7777923800079" fill="#fdae61" r="3.5"></circle><circle cx="573.4441422097663" fill="#fee08b" r="3.5"></circle><circle cx="509.87990864969635" fill="#ffffbf" r="3.5"></circle><circle cx="588.9936695903505" fill="#e6f598" r="3.5"></circle><circle cx="381.9742687436472" fill="#abdda4" r="3.5"></circle><circle cx="126.65479358513231" fill="#66c2a5" r="3.5"></circle><circle cx="30" fill="#3288bd" r="3.5"></circle><text dy="0.35em" x="24">AK</text></g><g transform="translate(0, 478)"><line stroke="currentColor" x1="123.45060839034517" x2="578.9762028263901"></line><circle cx="547.2457727326174" fill="#d53e4f" r="3.5"></circle><circle cx="560.9776065646117" fill="#f46d43" r="3.5"></circle><circle cx="578.9762028263901" fill="#fdae61" r="3.5"></circle><circle cx="523.9544495047983" fill="#fee08b" r="3.5"></circle><circle cx="508.15339879864354" fill="#ffffbf" r="3.5"></circle><circle cx="509.1959862210997" fill="#e6f598" r="3.5"></circle><circle cx="444.71647556722604" fill="#abdda4" r="3.5"></circle><circle cx="264.0383359680783" fill="#66c2a5" r="3.5"></circle><circle cx="123.45060839034517" fill="#3288bd" r="3.5"></circle><text dy="0.35em" x="117.45060839034517">AZ</text></g><g transform="translate(0, 462)"><line stroke="currentColor" x1="125.09938602587526" x2="556.4911441541401"></line><circle cx="545.1558633908286" fill="#d53e4f" r="3.5"></circle><circle cx="552.7036743285582" fill="#f46d43" r="3.5"></circle><circle cx="556.4911441541401" fill="#fdae61" r="3.5"></circle><circle cx="516.2502192265482" fill="#fee08b" r="3.5"></circle><circle cx="511.9684039561628" fill="#ffffbf" r="3.5"></circle><circle cx="549.5160505000241" fill="#e6f598" r="3.5"></circle><circle cx="451.0448493363855" fill="#abdda4" r="3.5"></circle><circle cx="252.4792456552872" fill="#66c2a5" r="3.5"></circle><circle cx="125.09938602587526" fill="#3288bd" r="3.5"></circle><text dy="0.35em" x="119.09938602587526">AR</text></g><g transform="translate(0, 670)"><line stroke="currentColor" x1="105.86772228823631" x2="626.4869034349596"></line><circle cx="537.2468825713715" fill="#d53e4f" r="3.5"></circle><circle cx="552.5142454638366" fill="#f46d43" r="3.5"></circle><circle cx="626.4869034349596" fill="#fdae61" r="3.5"></circle><circle cx="573.7843621065815" fill="#fee08b" r="3.5"></circle><circle cx="553.5463214176234" fill="#ffffbf" r="3.5"></circle><circle cx="537.670615897245" fill="#e6f598" r="3.5"></circle><circle cx="386.66911900179275" fill="#abdda4" r="3.5"></circle><circle cx="186.92266439216354" fill="#66c2a5" r="3.5"></circle><circle cx="105.86772228823631" fill="#3288bd" r="3.5"></circle><text dy="0.35em" x="99.86772228823631">CA</text></g><g transform="translate(0, 798)"><line stroke="currentColor" x1="83.62595975759858" x2="605.6534025906336"></line><circle cx="530.7902864295147" fill="#d53e4f" r="3.5"></circle><circle cx="536.3141522565641" fill="#f46d43" r="3.5"></circle><circle cx="605.6534025906336" fill="#fdae61" r="3.5"></circle><circle cx="593.8610301147537" fill="#fee08b" r="3.5"></circle><circle cx="542.9950496744084" fill="#ffffbf" r="3.5"></circle><circle cx="559.8671748414769" fill="#e6f598" r="3.5"></circle><circle cx="424.3917984257766" fill="#abdda4" r="3.5"></circle><circle cx="183.20998248308342" fill="#66c2a5" r="3.5"></circle><circle cx="83.62595975759858" fill="#3288bd" r="3.5"></circle><text dy="0.35em" x="77.62595975759858">CO</text></g><g transform="translate(0, 158)"><line stroke="currentColor" x1="152.9063571695781" x2="635.2440948448667"></line><circle cx="451.9865235283393" fill="#d53e4f" r="3.5"></circle><circle cx="553.8383967341941" fill="#f46d43" r="3.5"></circle><circle cx="530.4724080979803" fill="#fdae61" r="3.5"></circle><circle cx="483.80401344322644" fill="#fee08b" r="3.5"></circle><circle cx="572.7885102370461" fill="#ffffbf" r="3.5"></circle><circle cx="635.2440948448667" fill="#e6f598" r="3.5"></circle><circle cx="454.01368698594706" fill="#abdda4" r="3.5"></circle><circle cx="225.65484553263192" fill="#66c2a5" r="3.5"></circle><circle cx="152.9063571695781" fill="#3288bd" r="3.5"></circle><text dy="0.35em" x="146.9063571695781">CT</text></g><g transform="translate(0, 446)"><line stroke="currentColor" x1="126.09911589676487" x2="592.2772862826616"></line><circle cx="491.02327662761854" fill="#d53e4f" r="3.5"></circle><circle cx="518.196341429154" fill="#f46d43" r="3.5"></circle><circle cx="564.6255696438611" fill="#fdae61" r="3.5"></circle><circle cx="500.0506502784369" fill="#fee08b" r="3.5"></circle><circle cx="516.9231275420289" fill="#ffffbf" r="3.5"></circle><circle cx="592.2772862826616" fill="#e6f598" r="3.5"></circle><circle cx="484.5375442326775" fill="#abdda4" r="3.5"></circle><circle cx="266.97592464060654" fill="#66c2a5" r="3.5"></circle><circle cx="126.09911589676487" fill="#3288bd" r="3.5"></circle><text dy="0.35em" x="120.09911589676487">DE</text></g><g transform="translate(0, 766)"><line stroke="currentColor" x1="87.5418609893534" x2="884"></line><circle cx="459.02273271000644" fill="#d53e4f" r="3.5"></circle><circle cx="380.3124268431366" fill="#f46d43" r="3.5"></circle><circle cx="884" fill="#fdae61" r="3.5"></circle><circle cx="779.0710291980041" fill="#fee08b" r="3.5"></circle><circle cx="501.0662831872812" fill="#ffffbf" r="3.5"></circle><circle cx="461.75186354996526" fill="#e6f598" r="3.5"></circle><circle cx="340.9436961443287" fill="#abdda4" r="3.5"></circle><circle cx="166.99894395173433" fill="#66c2a5" r="3.5"></circle><circle cx="87.5418609893534" fill="#3288bd" r="3.5"></circle><text dy="0.35em" x="81.5418609893534">DC</text></g><g transform="translate(0, 46)"><line stroke="currentColor" x1="182.90955279669447" x2="574.1886489876472"></line><circle cx="450.30852506800187" fill="#d53e4f" r="3.5"></circle><circle cx="477.2606005964449" fill="#f46d43" r="3.5"></circle><circle cx="537.1229804911117" fill="#fdae61" r="3.5"></circle><circle cx="496.35395452688664" fill="#fee08b" r="3.5"></circle><circle cx="532.1284639717513" fill="#ffffbf" r="3.5"></circle><circle cx="574.1886489876472" fill="#e6f598" r="3.5"></circle><circle cx="493.7691676681884" fill="#abdda4" r="3.5"></circle><circle cx="316.6669424670833" fill="#66c2a5" r="3.5"></circle><circle cx="182.90955279669447" fill="#3288bd" r="3.5"></circle><text dy="0.35em" x="176.90955279669447">FL</text></g><g transform="translate(0, 830)"><line stroke="currentColor" x1="73.33192612451155" x2="583.8267519147603"></line><circle cx="558.165900821387" fill="#d53e4f" r="3.5"></circle><circle cx="583.8267519147603" fill="#f46d43" r="3.5"></circle><circle cx="582.5593470364995" fill="#fdae61" r="3.5"></circle><circle cx="555.3214384923716" fill="#fee08b" r="3.5"></circle><circle cx="576.3583217006391" fill="#ffffbf" r="3.5"></circle><circle cx="546.8048852646311" fill="#e6f598" r="3.5"></circle><circle cx="396.3057611467243" fill="#abdda4" r="3.5"></circle><circle cx="188.03450407228544" fill="#66c2a5" r="3.5"></circle><circle cx="73.33192612451155" fill="#3288bd" r="3.5"></circle><text dy="0.35em" x="67.33192612451155">GA</text></g><g transform="translate(0, 94)"><line stroke="currentColor" x1="163.15000526391464" x2="600.7602638363597"></line><circle cx="512.6153874893455" fill="#d53e4f" r="3.5"></circle><circle cx="471.7108733867618" fill="#f46d43" r="3.5"></circle><circle cx="600.7602638363597" fill="#fdae61" r="3.5"></circle><circle cx="547.7632044041071" fill="#fee08b" r="3.5"></circle><circle cx="513.9445864002224" fill="#ffffbf" r="3.5"></circle><circle cx="550.446920300354" fill="#e6f598" r="3.5"></circle><circle cx="476.1352069043952" fill="#abdda4" r="3.5"></circle><circle cx="224.18238858834982" fill="#66c2a5" r="3.5"></circle><circle cx="163.15000526391464" fill="#3288bd" r="3.5"></circle><text dy="0.35em" x="157.15000526391464">HI</text></g><g transform="translate(0, 718)"><line stroke="currentColor" x1="102.44546801215505" x2="609.2732786817469"></line><circle cx="601.4742443370214" fill="#d53e4f" r="3.5"></circle><circle cx="609.2732786817469" fill="#f46d43" r="3.5"></circle><circle cx="552.3055865635754" fill="#fdae61" r="3.5"></circle><circle cx="527.1823556193599" fill="#fee08b" r="3.5"></circle><circle cx="486.6361307657924" fill="#ffffbf" r="3.5"></circle><circle cx="515.3374525282826" fill="#e6f598" r="3.5"></circle><circle cx="444.9218288637516" fill="#abdda4" r="3.5"></circle><circle cx="221.13249120212447" fill="#66c2a5" r="3.5"></circle><circle cx="102.44546801215505" fill="#3288bd" r="3.5"></circle><text dy="0.35em" x="96.44546801215505">ID</text></g><g transform="translate(0, 494)"><line stroke="currentColor" x1="120.8176272325799" x2="577.1308588482959"></line><circle cx="517.9305292542767" fill="#d53e4f" r="3.5"></circle><circle cx="551.4552306224252" fill="#f46d43" r="3.5"></circle><circle cx="577.1308588482959" fill="#fdae61" r="3.5"></circle><circle cx="553.5335100680011" fill="#fee08b" r="3.5"></circle><circle cx="544.8705311730001" fill="#ffffbf" r="3.5"></circle><circle cx="571.4310817356637" fill="#e6f598" r="3.5"></circle><circle cx="415.7359241750985" fill="#abdda4" r="3.5"></circle><circle cx="207.80354346446876" fill="#66c2a5" r="3.5"></circle><circle cx="120.8176272325799" fill="#3288bd" r="3.5"></circle><text dy="0.35em" x="114.8176272325799">IL</text></g><g transform="translate(0, 510)"><line stroke="currentColor" x1="119.15761359484381" x2="573.1294879312546"></line><circle cx="540.031792283139" fill="#d53e4f" r="3.5"></circle><circle cx="568.9309166808096" fill="#f46d43" r="3.5"></circle><circle cx="568.9282009167407" fill="#fdae61" r="3.5"></circle><circle cx="515.6286153014526" fill="#fee08b" r="3.5"></circle><circle cx="527.1522811866084" fill="#ffffbf" r="3.5"></circle><circle cx="573.1294879312546" fill="#e6f598" r="3.5"></circle><circle cx="432.4155674087775" fill="#abdda4" r="3.5"></circle><circle cx="215.33436127018362" fill="#66c2a5" r="3.5"></circle><circle cx="119.15761359484381" fill="#3288bd" r="3.5"></circle><text dy="0.35em" x="113.15761359484381">IN</text></g><g transform="translate(0, 126)"><line stroke="currentColor" x1="160.86616788296706" x2="569.8252340301736"></line><circle cx="532.6090387589095" fill="#d53e4f" r="3.5"></circle><circle cx="557.0266763575584" fill="#f46d43" r="3.5"></circle><circle cx="558.1629497910786" fill="#fdae61" r="3.5"></circle><circle cx="506.5798802830632" fill="#fee08b" r="3.5"></circle><circle cx="487.9746629349686" fill="#ffffbf" r="3.5"></circle><circle cx="569.8252340301736" fill="#e6f598" r="3.5"></circle><circle cx="449.5487468979797" fill="#abdda4" r="3.5"></circle><circle cx="238.11547963711158" fill="#66c2a5" r="3.5"></circle><circle cx="160.86616788296706" fill="#3288bd" r="3.5"></circle><text dy="0.35em" x="154.86616788296706">IA</text></g><g transform="translate(0, 350)"><line stroke="currentColor" x1="135.67580593508893" x2="582.2817171413575"></line><circle cx="574.2470434150256" fill="#d53e4f" r="3.5"></circle><circle cx="574.7734264583837" fill="#f46d43" r="3.5"></circle><circle cx="582.2817171413575" fill="#fdae61" r="3.5"></circle><circle cx="523.2774196360142" fill="#fee08b" r="3.5"></circle><circle cx="485.75912090047194" fill="#ffffbf" r="3.5"></circle><circle cx="555.8514225126822" fill="#e6f598" r="3.5"></circle><circle cx="418.35121844485946" fill="#abdda4" r="3.5"></circle><circle cx="210.49166212992654" fill="#66c2a5" r="3.5"></circle><circle cx="135.67580593508893" fill="#3288bd" r="3.5"></circle><text dy="0.35em" x="129.67580593508893">KS</text></g><g transform="translate(0, 574)"><line stroke="currentColor" x1="111.33729558283775" x2="585.999434587016"></line><circle cx="517.5020242009937" fill="#d53e4f" r="3.5"></circle><circle cx="538.0373549642519" fill="#f46d43" r="3.5"></circle><circle cx="556.2424210445827" fill="#fdae61" r="3.5"></circle><circle cx="520.1243324995361" fill="#fee08b" r="3.5"></circle><circle cx="542.790162000319" fill="#ffffbf" r="3.5"></circle><circle cx="585.999434587016" fill="#e6f598" r="3.5"></circle><circle cx="456.7823031613833" fill="#abdda4" r="3.5"></circle><circle cx="231.8935085328895" fill="#66c2a5" r="3.5"></circle><circle cx="111.33729558283775" fill="#3288bd" r="3.5"></circle><text dy="0.35em" x="105.33729558283775">KY</text></g><g transform="translate(0, 750)"><line stroke="currentColor" x1="100.52773389293901" x2="612.4213294891294"></line><circle cx="553.1514466368154" fill="#d53e4f" r="3.5"></circle><circle cx="545.0350022029977" fill="#f46d43" r="3.5"></circle><circle cx="612.4213294891294" fill="#fdae61" r="3.5"></circle><circle cx="546.747275364285" fill="#fee08b" r="3.5"></circle><circle cx="504.93237060439424" fill="#ffffbf" r="3.5"></circle><circle cx="562.6614002182047" fill="#e6f598" r="3.5"></circle><circle cx="424.860969032282" fill="#abdda4" r="3.5"></circle><circle cx="210.3713091327625" fill="#66c2a5" r="3.5"></circle><circle cx="100.52773389293901" fill="#3288bd" r="3.5"></circle><text dy="0.35em" x="94.52773389293901">LA</text></g><g transform="translate(0, 110)"><line stroke="currentColor" x1="162.6809948815776" x2="680.0054505501178"></line><circle cx="418.17091837396043" fill="#d53e4f" r="3.5"></circle><circle cx="478.11838748576554" fill="#f46d43" r="3.5"></circle><circle cx="480.0863599566076" fill="#fdae61" r="3.5"></circle><circle cx="450.9401830551104" fill="#fee08b" r="3.5"></circle><circle cx="549.2143365435034" fill="#ffffbf" r="3.5"></circle><circle cx="680.0054505501178" fill="#e6f598" r="3.5"></circle><circle cx="558.06853063454" fill="#abdda4" r="3.5"></circle><circle cx="283.42367509262743" fill="#66c2a5" r="3.5"></circle><circle cx="162.6809948815776" fill="#3288bd" r="3.5"></circle><text dy="0.35em" x="156.6809948815776">ME</text></g><g transform="translate(0, 590)"><line stroke="currentColor" x1="110.28519721210783" x2="601.7497604365592"></line><circle cx="511.04899975698345" fill="#d53e4f" r="3.5"></circle><circle cx="528.1478189412599" fill="#f46d43" r="3.5"></circle><circle cx="566.1438603773531" fill="#fdae61" r="3.5"></circle><circle cx="542.6860940813899" fill="#fee08b" r="3.5"></circle><circle cx="566.540966152596" fill="#ffffbf" r="3.5"></circle><circle cx="601.7497604365592" fill="#e6f598" r="3.5"></circle><circle cx="431.74570029765835" fill="#abdda4" r="3.5"></circle><circle cx="202.36043931790226" fill="#66c2a5" r="3.5"></circle><circle cx="110.28519721210783" fill="#3288bd" r="3.5"></circle><text dy="0.35em" x="104.28519721210783">MD</text></g><g transform="translate(0, 206)"><line stroke="currentColor" x1="145.46708160188882" x2="603.8133727400042"></line><circle cx="443.63902169338866" fill="#d53e4f" r="3.5"></circle><circle cx="526.336047753884" fill="#f46d43" r="3.5"></circle><circle cx="598.6454307151841" fill="#fdae61" r="3.5"></circle><circle cx="516.3392518365865" fill="#fee08b" r="3.5"></circle><circle cx="561.9933878545131" fill="#ffffbf" r="3.5"></circle><circle cx="603.8133727400042" fill="#e6f598" r="3.5"></circle><circle cx="443.6768456142174" fill="#abdda4" r="3.5"></circle><circle cx="220.79839676414306" fill="#66c2a5" r="3.5"></circle><circle cx="145.46708160188882" fill="#3288bd" r="3.5"></circle><text dy="0.35em" x="139.46708160188882">MA</text></g><g transform="translate(0, 366)"><line stroke="currentColor" x1="133.90977691474203" x2="610.7389621708705"></line><circle cx="487.46918263581676" fill="#d53e4f" r="3.5"></circle><circle cx="551.8707100471544" fill="#f46d43" r="3.5"></circle><circle cx="558.2401166853533" fill="#fdae61" r="3.5"></circle><circle cx="478.78371021551135" fill="#fee08b" r="3.5"></circle><circle cx="533.3832679981324" fill="#ffffbf" r="3.5"></circle><circle cx="610.7389621708705" fill="#e6f598" r="3.5"></circle><circle cx="472.4382317423128" fill="#abdda4" r="3.5"></circle><circle cx="233.87487816391638" fill="#66c2a5" r="3.5"></circle><circle cx="133.90977691474203" fill="#3288bd" r="3.5"></circle><text dy="0.35em" x="127.90977691474203">MI</text></g><g transform="translate(0, 398)"><line stroke="currentColor" x1="131.36103834238858" x2="596.4694628415832"></line><circle cx="538.1525964659284" fill="#d53e4f" r="3.5"></circle><circle cx="540.4466618769706" fill="#f46d43" r="3.5"></circle><circle cx="551.7922311710083" fill="#fdae61" r="3.5"></circle><circle cx="541.4184591745283" fill="#fee08b" r="3.5"></circle><circle cx="522.2271040972521" fill="#ffffbf" r="3.5"></circle><circle cx="596.4694628415832" fill="#e6f598" r="3.5"></circle><circle cx="427.9299352443686" fill="#abdda4" r="3.5"></circle><circle cx="210.91134735978218" fill="#66c2a5" r="3.5"></circle><circle cx="131.36103834238858" fill="#3288bd" r="3.5"></circle><text dy="0.35em" x="125.36103834238858">MN</text></g><g transform="translate(0, 702)"><line stroke="currentColor" x1="104.7876061410322" x2="584.69068736485"></line><circle cx="553.1985443632582" fill="#d53e4f" r="3.5"></circle><circle cx="584.69068736485" fill="#f46d43" r="3.5"></circle><circle cx="574.0132030165132" fill="#fdae61" r="3.5"></circle><circle cx="514.9368104298574" fill="#fee08b" r="3.5"></circle><circle cx="518.5902642137501" fill="#ffffbf" r="3.5"></circle><circle cx="553.0129531018069" fill="#e6f598" r="3.5"></circle><circle cx="432.1975320081574" fill="#abdda4" r="3.5"></circle><circle cx="225.28123593458469" fill="#66c2a5" r="3.5"></circle><circle cx="104.7876061410322" fill="#3288bd" r="3.5"></circle><text dy="0.35em" x="98.7876061410322">MS</text></g><g transform="translate(0, 382)"><line stroke="currentColor" x1="133.1674042379437" x2="587.2167244634226"></line><circle cx="518.1207218574489" fill="#d53e4f" r="3.5"></circle><circle cx="539.522275802904" fill="#f46d43" r="3.5"></circle><circle cx="568.1615374562039" fill="#fdae61" r="3.5"></circle><circle cx="517.4222753113282" fill="#fee08b" r="3.5"></circle><circle cx="508.552890154301" fill="#ffffbf" r="3.5"></circle><circle cx="587.2167244634226" fill="#e6f598" r="3.5"></circle><circle cx="447.929058919083" fill="#abdda4" r="3.5"></circle><circle cx="240.6159483711747" fill="#66c2a5" r="3.5"></circle><circle cx="133.1674042379437" fill="#3288bd" r="3.5"></circle><text dy="0.35em" x="127.16740423794371">MO</text></g><g transform="translate(0, 318)"><line stroke="currentColor" x1="137.34670062120045" x2="608.9632041669482"></line><circle cx="505.00472757890714" fill="#d53e4f" r="3.5"></circle><circle cx="506.20256704842444" fill="#f46d43" r="3.5"></circle><circle cx="550.1466632075073" fill="#fdae61" r="3.5"></circle><circle cx="500.56310385252146" fill="#fee08b" r="3.5"></circle><circle cx="463.3951068823144" fill="#ffffbf" r="3.5"></circle><circle cx="608.9632041669482" fill="#e6f598" r="3.5"></circle><circle cx="526.6751299526211" fill="#abdda4" r="3.5"></circle><circle cx="262.41163326336545" fill="#66c2a5" r="3.5"></circle><circle cx="137.34670062120045" fill="#3288bd" r="3.5"></circle><text dy="0.35em" x="131.34670062120045">MT</text></g><g transform="translate(0, 270)"><line stroke="currentColor" x1="140.78107305857208" x2="580.7739561741142"></line><circle cx="580.7739561741142" fill="#d53e4f" r="3.5"></circle><circle cx="566.7237872493483" fill="#f46d43" r="3.5"></circle><circle cx="573.9438808268009" fill="#fdae61" r="3.5"></circle><circle cx="534.9182762134956" fill="#fee08b" r="3.5"></circle><circle cx="483.176650401693" fill="#ffffbf" r="3.5"></circle><circle cx="550.7924938121436" fill="#e6f598" r="3.5"></circle><circle cx="419.50379617155085" fill="#abdda4" r="3.5"></circle><circle cx="210.09492266609146" fill="#66c2a5" r="3.5"></circle><circle cx="140.78107305857208" fill="#3288bd" r="3.5"></circle><text dy="0.35em" x="134.78107305857208">NE</text></g><g transform="translate(0, 782)"><line stroke="currentColor" x1="83.73085828769234" x2="573.1093328633458"></line><circle cx="536.122423511432" fill="#d53e4f" r="3.5"></circle><circle cx="521.7843232987077" fill="#f46d43" r="3.5"></circle><circle cx="573.1093328633458" fill="#fdae61" r="3.5"></circle><circle cx="569.0548288686938" fill="#fee08b" r="3.5"></circle><circle cx="564.344796828268" fill="#ffffbf" r="3.5"></circle><circle cx="543.0480142834865" fill="#e6f598" r="3.5"></circle><circle cx="442.03051211435746" fill="#abdda4" r="3.5"></circle><circle cx="227.4837465178261" fill="#66c2a5" r="3.5"></circle><circle cx="83.73085828769234" fill="#3288bd" r="3.5"></circle><text dy="0.35em" x="77.73085828769234">NV</text></g><g transform="translate(0, 414)"><line stroke="currentColor" x1="131.1961292599263" x2="688.618497759327"></line><circle cx="421.7400438679224" fill="#d53e4f" r="3.5"></circle><circle cx="518.5756580476179" fill="#f46d43" r="3.5"></circle><circle cx="518.7744991444961" fill="#fdae61" r="3.5"></circle><circle cx="464.3628125495988" fill="#fee08b" r="3.5"></circle><circle cx="569.8294784090425" fill="#ffffbf" r="3.5"></circle><circle cx="688.618497759327" fill="#e6f598" r="3.5"></circle><circle cx="507.7640946783748" fill="#abdda4" r="3.5"></circle><circle cx="239.84762285750418" fill="#66c2a5" r="3.5"></circle><circle cx="131.1961292599263" fill="#3288bd" r="3.5"></circle><text dy="0.35em" x="125.1961292599263">NH</text></g><g transform="translate(0, 302)"><line stroke="currentColor" x1="138.469934337569" x2="610.0938880562891"></line><circle cx="495.61569177420165" fill="#d53e4f" r="3.5"></circle><circle cx="532.9956001710876" fill="#f46d43" r="3.5"></circle><circle cx="526.121699525079" fill="#fdae61" r="3.5"></circle><circle cx="527.8906073785744" fill="#fee08b" r="3.5"></circle><circle cx="583.6676592696439" fill="#ffffbf" r="3.5"></circle><circle cx="610.0938880562891" fill="#e6f598" r="3.5"></circle><circle cx="429.0058983701091" fill="#abdda4" r="3.5"></circle><circle cx="216.84785769125645" fill="#66c2a5" r="3.5"></circle><circle cx="138.469934337569" fill="#3288bd" r="3.5"></circle><text dy="0.35em" x="132.469934337569">NJ</text></g><g transform="translate(0, 542)"><line stroke="currentColor" x1="113.89509187157705" x2="576.628894177262"></line><circle cx="547.9872941153251" fill="#d53e4f" r="3.5"></circle><circle cx="561.2930820687968" fill="#f46d43" r="3.5"></circle><circle cx="576.628894177262" fill="#fdae61" r="3.5"></circle><circle cx="513.854962053215" fill="#fee08b" r="3.5"></circle><circle cx="478.9836582352129" fill="#ffffbf" r="3.5"></circle><circle cx="556.3544307118333" fill="#e6f598" r="3.5"></circle><circle cx="467.5940412301586" fill="#abdda4" r="3.5"></circle><circle cx="244.11738211042905" fill="#66c2a5" r="3.5"></circle><circle cx="113.89509187157705" fill="#3288bd" r="3.5"></circle><text dy="0.35em" x="107.89509187157705">NM</text></g><g transform="translate(0, 334)"><line stroke="currentColor" x1="136.72129148501838" x2="611.4681915729897"></line><circle cx="481.02116469465466" fill="#d53e4f" r="3.5"></circle><circle cx="509.55946842924783" fill="#f46d43" r="3.5"></circle><circle cx="611.4681915729897" fill="#fdae61" r="3.5"></circle><circle cx="545.8470825025455" fill="#fee08b" r="3.5"></circle><circle cx="548.5663140921746" fill="#ffffbf" r="3.5"></circle><circle cx="579.9771639271721" fill="#e6f598" r="3.5"></circle><circle cx="429.97583651305723" fill="#abdda4" r="3.5"></circle><circle cx="217.57232335695" fill="#66c2a5" r="3.5"></circle><circle cx="136.72129148501838" fill="#3288bd" r="3.5"></circle><text dy="0.35em" x="130.72129148501838">NY</text></g><g transform="translate(0, 638)"><line stroke="currentColor" x1="108.22902460177008" x2="565.1484906605293"></line><circle cx="516.7908140815999" fill="#d53e4f" r="3.5"></circle><circle cx="543.8392129572761" fill="#f46d43" r="3.5"></circle><circle cx="561.771266281776" fill="#fdae61" r="3.5"></circle><circle cx="525.1969703910821" fill="#fee08b" r="3.5"></circle><circle cx="565.1484906605293" fill="#ffffbf" r="3.5"></circle><circle cx="564.4153485345978" fill="#e6f598" r="3.5"></circle><circle cx="447.04194950664885" fill="#abdda4" r="3.5"></circle><circle cx="228.27575955852973" fill="#66c2a5" r="3.5"></circle><circle cx="108.22902460177008" fill="#3288bd" r="3.5"></circle><text dy="0.35em" x="102.22902460177008">NC</text></g><g transform="translate(0, 174)"><line stroke="currentColor" x1="149.81404306687745" x2="710.774270505002"></line><circle cx="558.64534280784" fill="#d53e4f" r="3.5"></circle><circle cx="507.54674804602575" fill="#f46d43" r="3.5"></circle><circle cx="710.774270505002" fill="#fdae61" r="3.5"></circle><circle cx="529.6927137111128" fill="#fee08b" r="3.5"></circle><circle cx="442.263552882918" fill="#ffffbf" r="3.5"></circle><circle cx="553.8502915153721" fill="#e6f598" r="3.5"></circle><circle cx="402.7484407110202" fill="#abdda4" r="3.5"></circle><circle cx="205.37343332764183" fill="#66c2a5" r="3.5"></circle><circle cx="149.81404306687745" fill="#3288bd" r="3.5"></circle><text dy="0.35em" x="143.81404306687745">ND</text></g><g transform="translate(0, 286)"><line stroke="currentColor" x1="140.15275356789525" x2="601.9136714398342"></line><circle cx="503.47038788450027" fill="#d53e4f" r="3.5"></circle><circle cx="544.9495771532968" fill="#f46d43" r="3.5"></circle><circle cx="546.9859672655939" fill="#fdae61" r="3.5"></circle><circle cx="494.15952114807" fill="#fee08b" r="3.5"></circle><circle cx="529.7731809902632" fill="#ffffbf" r="3.5"></circle><circle cx="601.9136714398342" fill="#e6f598" r="3.5"></circle><circle cx="464.062339412511" fill="#abdda4" r="3.5"></circle><circle cx="235.24143771184555" fill="#66c2a5" r="3.5"></circle><circle cx="140.15275356789525" fill="#3288bd" r="3.5"></circle><text dy="0.35em" x="134.15275356789525">OH</text></g><g transform="translate(0, 558)"><line stroke="currentColor" x1="113.45508877443638" x2="591.9178912929921"></line><circle cx="571.0846447436332" fill="#d53e4f" r="3.5"></circle><circle cx="557.0022612640729" fill="#f46d43" r="3.5"></circle><circle cx="591.9178912929921" fill="#fdae61" r="3.5"></circle><circle cx="532.8870886361511" fill="#fee08b" r="3.5"></circle><circle cx="495.9674404319292" fill="#ffffbf" r="3.5"></circle><circle cx="546.1140703484886" fill="#e6f598" r="3.5"></circle><circle cx="421.2715878679126" fill="#abdda4" r="3.5"></circle><circle cx="231.00876321419375" fill="#66c2a5" r="3.5"></circle><circle cx="113.45508877443638" fill="#3288bd" r="3.5"></circle><text dy="0.35em" x="107.45508877443638">OK</text></g><g transform="translate(0, 430)"><line stroke="currentColor" x1="130.6417895962383" x2="559.1793809294351"></line><circle cx="487.1203810051705" fill="#d53e4f" r="3.5"></circle><circle cx="499.35378372071955" fill="#f46d43" r="3.5"></circle><circle cx="559.1793809294351" fill="#fdae61" r="3.5"></circle><circle cx="558.2480290283246" fill="#fee08b" r="3.5"></circle><circle cx="524.6103845516735" fill="#ffffbf" r="3.5"></circle><circle cx="554.4889174950134" fill="#e6f598" r="3.5"></circle><circle cx="505.5878870973915" fill="#abdda4" r="3.5"></circle><circle cx="241.4782831498436" fill="#66c2a5" r="3.5"></circle><circle cx="130.6417895962383" fill="#3288bd" r="3.5"></circle><text dy="0.35em" x="124.64178959623831">OR</text></g><g transform="translate(0, 78)"><line stroke="currentColor" x1="169.33816004727726" x2="612.501026376025"></line><circle cx="464.65968323467445" fill="#d53e4f" r="3.5"></circle><circle cx="516.8348018292307" fill="#f46d43" r="3.5"></circle><circle cx="553.3815673743791" fill="#fdae61" r="3.5"></circle><circle cx="486.17478475899327" fill="#fee08b" r="3.5"></circle><circle cx="529.8790189331694" fill="#ffffbf" r="3.5"></circle><circle cx="612.501026376025" fill="#e6f598" r="3.5"></circle><circle cx="476.07026726799387" fill="#abdda4" r="3.5"></circle><circle cx="251.86952675206726" fill="#66c2a5" r="3.5"></circle><circle cx="169.33816004727726" fill="#3288bd" r="3.5"></circle><text dy="0.35em" x="163.33816004727726">PA</text></g><g transform="translate(0, 62)"><line stroke="currentColor" x1="170.5550190395084" x2="616.4928127919698"></line><circle cx="426.6300431078161" fill="#d53e4f" r="3.5"></circle><circle cx="534.8539431995121" fill="#f46d43" r="3.5"></circle><circle cx="606.0853630928585" fill="#fdae61" r="3.5"></circle><circle cx="490.8057806327884" fill="#fee08b" r="3.5"></circle><circle cx="539.1263858603375" fill="#ffffbf" r="3.5"></circle><circle cx="616.4928127919698" fill="#e6f598" r="3.5"></circle><circle cx="453.2575010416207" fill="#abdda4" r="3.5"></circle><circle cx="222.90198780739857" fill="#66c2a5" r="3.5"></circle><circle cx="170.5550190395084" fill="#3288bd" r="3.5"></circle><text dy="0.35em" x="164.5550190395084">RI</text></g><g transform="translate(0, 622)"><line stroke="currentColor" x1="108.37487171353837" x2="571.8105913339111"></line><circle cx="508.9464404516134" fill="#d53e4f" r="3.5"></circle><circle cx="527.0407515598035" fill="#f46d43" r="3.5"></circle><circle cx="571.8105913339111" fill="#fdae61" r="3.5"></circle><circle cx="506.0777060151899" fill="#fee08b" r="3.5"></circle><circle cx="527.6404095968365" fill="#ffffbf" r="3.5"></circle><circle cx="568.0025777191103" fill="#e6f598" r="3.5"></circle><circle cx="490.6837068700591" fill="#abdda4" r="3.5"></circle><circle cx="252.1317813137477" fill="#66c2a5" r="3.5"></circle><circle cx="108.37487171353837" fill="#3288bd" r="3.5"></circle><text dy="0.35em" x="102.37487171353837">SC</text></g><g transform="translate(0, 142)"><line stroke="currentColor" x1="156.6872929700963" x2="586.8391605902548"></line><circle cx="586.8391605902548" fill="#d53e4f" r="3.5"></circle><circle cx="550.1301623306359" fill="#f46d43" r="3.5"></circle><circle cx="567.8196624228052" fill="#fdae61" r="3.5"></circle><circle cx="508.6846887120144" fill="#fee08b" r="3.5"></circle><circle cx="460.26329633490593" fill="#ffffbf" r="3.5"></circle><circle cx="569.2074865013587" fill="#e6f598" r="3.5"></circle><circle cx="442.05336221327923" fill="#abdda4" r="3.5"></circle><circle cx="219.02372449845942" fill="#66c2a5" r="3.5"></circle><circle cx="156.6872929700963" fill="#3288bd" r="3.5"></circle><text dy="0.35em" x="150.6872929700963">SD</text></g><g transform="translate(0, 606)"><line stroke="currentColor" x1="109.5140303457849" x2="571.9309043618099"></line><circle cx="513.2614931597839" fill="#d53e4f" r="3.5"></circle><circle cx="529.9799659634172" fill="#f46d43" r="3.5"></circle><circle cx="565.826055185282" fill="#fdae61" r="3.5"></circle><circle cx="526.181089475281" fill="#fee08b" r="3.5"></circle><circle cx="546.0158708512863" fill="#ffffbf" r="3.5"></circle><circle cx="571.9309043618099" fill="#e6f598" r="3.5"></circle><circle cx="460.4058661371732" fill="#abdda4" r="3.5"></circle><circle cx="237.59356109399153" fill="#66c2a5" r="3.5"></circle><circle cx="109.5140303457849" fill="#3288bd" r="3.5"></circle><text dy="0.35em" x="103.5140303457849">TN</text></g><g transform="translate(0, 814)"><line stroke="currentColor" x1="75.60508215494718" x2="615.1559647951323"></line><circle cx="615.1559647951323" fill="#d53e4f" r="3.5"></circle><circle cx="603.1127502457936" fill="#f46d43" r="3.5"></circle><circle cx="609.0741937279773" fill="#fdae61" r="3.5"></circle><circle cx="579.8780744796301" fill="#fee08b" r="3.5"></circle><circle cx="542.5702163133918" fill="#ffffbf" r="3.5"></circle><circle cx="509.2409689980934" fill="#e6f598" r="3.5"></circle><circle cx="357.63883395558224" fill="#abdda4" r="3.5"></circle><circle cx="168.4327519032621" fill="#66c2a5" r="3.5"></circle><circle cx="75.60508215494718" fill="#3288bd" r="3.5"></circle><text dy="0.35em" x="69.60508215494718">TX</text></g><g transform="translate(0, 846)"><line stroke="currentColor" x1="61.38267653636927" x2="733.2922136877944"></line><circle cx="733.2922136877944" fill="#d53e4f" r="3.5"></circle><circle cx="681.1104423553305" fill="#f46d43" r="3.5"></circle><circle cx="660.007999890572" fill="#fdae61" r="3.5"></circle><circle cx="615.686345906742" fill="#fee08b" r="3.5"></circle><circle cx="452.6556763981415" fill="#ffffbf" r="3.5"></circle><circle cx="411.72692248989904" fill="#e6f598" r="3.5"></circle><circle cx="303.0979763757416" fill="#abdda4" r="3.5"></circle><circle cx="141.74858293321964" fill="#66c2a5" r="3.5"></circle><circle cx="61.38267653636927" fill="#3288bd" r="3.5"></circle><text dy="0.35em" x="55.38267653636927">UT</text></g><g transform="translate(0, 222)"><line stroke="currentColor" x1="144.5169771178463" x2="665.0659256941805"></line><circle cx="409.6458123551333" fill="#d53e4f" r="3.5"></circle><circle cx="520.9710613178041" fill="#f46d43" r="3.5"></circle><circle cx="538.2167233210057" fill="#fdae61" r="3.5"></circle><circle cx="454.82458887056225" fill="#fee08b" r="3.5"></circle><circle cx="525.4789373426675" fill="#ffffbf" r="3.5"></circle><circle cx="665.0659256941805" fill="#e6f598" r="3.5"></circle><circle cx="540.8671543910917" fill="#abdda4" r="3.5"></circle><circle cx="261.1216561635188" fill="#66c2a5" r="3.5"></circle><circle cx="144.5169771178463" fill="#3288bd" r="3.5"></circle><text dy="0.35em" x="138.5169771178463">VT</text></g><g transform="translate(0, 734)"><line stroke="currentColor" x1="101.92292910004706" x2="584.3086865238408"></line><circle cx="510.5506558642555" fill="#d53e4f" r="3.5"></circle><circle cx="527.687735766127" fill="#f46d43" r="3.5"></circle><circle cx="584.3086865238408" fill="#fdae61" r="3.5"></circle><circle cx="552.8022361877879" fill="#fee08b" r="3.5"></circle><circle cx="565.0859994486891" fill="#ffffbf" r="3.5"></circle><circle cx="579.6755591791715" fill="#e6f598" r="3.5"></circle><circle cx="428.7920551989617" fill="#abdda4" r="3.5"></circle><circle cx="209.8829793049296" fill="#66c2a5" r="3.5"></circle><circle cx="101.92292910004706" fill="#3288bd" r="3.5"></circle><text dy="0.35em" x="95.92292910004706">VA</text></g><g transform="translate(0, 654)"><line stroke="currentColor" x1="107.52937628513583" x2="589.4108483664248"></line><circle cx="520.6947031389332" fill="#d53e4f" r="3.5"></circle><circle cx="512.4858063186457" fill="#f46d43" r="3.5"></circle><circle cx="589.4108483664248" fill="#fdae61" r="3.5"></circle><circle cx="568.0220483989398" fill="#fee08b" r="3.5"></circle><circle cx="536.7703012809893" fill="#ffffbf" r="3.5"></circle><circle cx="567.8917484494116" fill="#e6f598" r="3.5"></circle><circle cx="450.11640717643394" fill="#abdda4" r="3.5"></circle><circle cx="207.78759715889618" fill="#66c2a5" r="3.5"></circle><circle cx="107.52937628513583" fill="#3288bd" r="3.5"></circle><text dy="0.35em" x="101.52937628513583">WA</text></g><g transform="translate(0, 190)"><line stroke="currentColor" x1="146.02666103706372" x2="606.8359439472414"></line><circle cx="455.78394786788897" fill="#d53e4f" r="3.5"></circle><circle cx="483.72647084747996" fill="#f46d43" r="3.5"></circle><circle cx="516.394745762041" fill="#fdae61" r="3.5"></circle><circle cx="488.4449523948576" fill="#fee08b" r="3.5"></circle><circle cx="531.3984022899375" fill="#ffffbf" r="3.5"></circle><circle cx="606.8359439472414" fill="#e6f598" r="3.5"></circle><circle cx="543.2491340653237" fill="#abdda4" r="3.5"></circle><circle cx="288.8485783619763" fill="#66c2a5" r="3.5"></circle><circle cx="146.02666103706372" fill="#3288bd" r="3.5"></circle><text dy="0.35em" x="140.02666103706372">WV</text></g><g transform="translate(0, 254)"><line stroke="currentColor" x1="142.02662681774052" x2="613.8664503211165"></line><circle cx="502.6757448521593" fill="#d53e4f" r="3.5"></circle><circle cx="541.2174610279691" fill="#f46d43" r="3.5"></circle><circle cx="545.677559174262" fill="#fdae61" r="3.5"></circle><circle cx="509.5412018383739" fill="#fee08b" r="3.5"></circle><circle cx="523.3801781504119" fill="#ffffbf" r="3.5"></circle><circle cx="613.8664503211165" fill="#e6f598" r="3.5"></circle><circle cx="455.5380194025894" fill="#abdda4" r="3.5"></circle><circle cx="226.78559498918767" fill="#66c2a5" r="3.5"></circle><circle cx="142.02662681774052" fill="#3288bd" r="3.5"></circle><text dy="0.35em" x="136.02662681774052">WI</text></g><g transform="translate(0, 686)"><line stroke="currentColor" x1="105.11791700456067" x2="590.2125893195596"></line><circle cx="554.2924399727723" fill="#d53e4f" r="3.5"></circle><circle cx="533.7118288751255" fill="#f46d43" r="3.5"></circle><circle cx="590.2125893195596" fill="#fdae61" r="3.5"></circle><circle cx="544.2783842373401" fill="#fee08b" r="3.5"></circle><circle cx="479.4517613615316" fill="#ffffbf" r="3.5"></circle><circle cx="575.7862101757954" fill="#e6f598" r="3.5"></circle><circle cx="471.93162755254815" fill="#abdda4" r="3.5"></circle><circle cx="205.92607807457682" fill="#66c2a5" r="3.5"></circle><circle cx="105.11791700456067" fill="#3288bd" r="3.5"></circle><text dy="0.35em" x="99.11791700456067">WY</text></g><g transform="translate(0, 238)"><line stroke="currentColor" x1="142.915149074981" x2="562.7789936785048"></line><circle cx="447.73446727215554" fill="#d53e4f" r="3.5"></circle><circle cx="562.2275770340211" fill="#f46d43" r="3.5"></circle><circle cx="562.7789936785048" fill="#fdae61" r="3.5"></circle><circle cx="514.175736246795" fill="#fee08b" r="3.5"></circle><circle cx="532.1341721143824" fill="#ffffbf" r="3.5"></circle><circle cx="527.6898807222909" fill="#e6f598" r="3.5"></circle><circle cx="476.25094735101794" fill="#abdda4" r="3.5"></circle><circle cx="294.8019130796613" fill="#66c2a5" r="3.5"></circle><circle cx="142.915149074981" fill="#3288bd" r="3.5"></circle><text dy="0.35em" x="136.915149074981">PR</text></g></g></svg>