<svg text-rendering="geometricPrecision" xmlns="http://www.w3.org/2000/svg" font-family="tahoma, geneva, sans-serif" font-size="12" style="user-select:none">
  <path fill="#FFF" d="M3 8V3h594v694H3v-5Z"/>
  <g transform="translate(3 3)"/>
  <path fill="none" d="m99 8 5-5h275v41H99v-5Z"/>
  <text transform="translate(104.05 8.5)" fill="#323232" font-size="16"><tspan x="0" y="15.337" style="white-space:pre">How Do Electric Cars React To Winter?</tspan></text>
  <g transform="translate(3 43.81)"/>
  <g transform="translate(3 43.81)"/>
  <g transform="translate(581.314 43.81)"/>
  <g clip-path="url(#a)" transform="translate(98.55 63.292)">
    <rect x=".451" y="-.292" width="482" height="586" fill="rgba(0,0,0,0)" rx="0" ry="0"/>
    <path d="M.45 22.208h482m-482 45h482m-482 45h482m-482 45h482m-482 45h482m-482 46h482m-482 45h482m-482 45h482m-482 45h482m-482 45h482m-482 45h482m-482 45h482m-482 45h482M-.05-.292v586m81-586v586m80-586v586m80-586v586m81-586v586m80-586v586m81-586v586" fill="none" stroke="#E0E0E0" stroke-linejoin="round"/>
    <g/>
    <path d="M47.95 22.208h258" stroke="#E0E0E0" stroke-opacity=".9" fill="none" stroke-width="8" stroke-linejoin="round" display="block"/>
    <path d="M48.276 14.52a8 8 0 1 1-.407.011Z" fill="rgba(41,182,246,0.9)" fill-rule="evenodd" display="block"/>
    <path d="M305.75 14.52a8 8 0 1 1-.407.011Z" fill="rgba(255,152,0,0.9)" fill-rule="evenodd" display="block"/>
    <text transform="translate(10.455 15.28)" fill="rgba(24,109,147,1)" display="block"><tspan x="0" y="11.503" style="white-space:pre">66%</tspan></text>
    <text transform="translate(318.75 15.28)" fill="rgba(153,91,0,1)" display="block"><tspan x="0" y="11.503" style="white-space:pre">98%</tspan></text>
    <path d="M71.95 67.208h250" stroke="#E0E0E0" stroke-opacity=".9" fill="none" stroke-width="8" stroke-linejoin="round" display="block"/>
    <path d="M72.415 59.562a8 8 0 1 1-.408.01Z" fill="rgba(41,182,246,0.9)" fill-rule="evenodd" display="block"/>
    <path d="M321.843 59.562a8 8 0 1 1-.408.01Z" fill="rgba(255,152,0,0.9)" fill-rule="evenodd" display="block"/>
    <text transform="translate(34.593 60.32)" fill="rgba(24,109,147,1)" display="block"><tspan x="0" y="11.503" style="white-space:pre">69%</tspan></text>
    <text transform="translate(334.843 60.32)" fill="rgba(153,91,0,1)" display="block"><tspan x="0" y="11.503" style="white-space:pre">100%</tspan></text>
    <path d="M63.95 112.208h210" stroke="#E0E0E0" stroke-opacity=".9" fill="none" stroke-width="8" stroke-linejoin="round" display="block"/>
    <path d="M64.369 104.603a8 8 0 1 1-.408.01Z" fill="rgba(41,182,246,0.9)" fill-rule="evenodd" display="block"/>
    <path d="M273.566 104.603a8 8 0 1 1-.407.01Z" fill="rgba(255,152,0,0.9)" fill-rule="evenodd" display="block"/>
    <text transform="translate(26.547 105.362)" fill="rgba(24,109,147,1)" display="block"><tspan x="0" y="11.503" style="white-space:pre">68%</tspan></text>
    <text transform="translate(286.566 105.362)" fill="rgba(153,91,0,1)" display="block"><tspan x="0" y="11.503" style="white-space:pre">94%</tspan></text>
    <path d="M112.95 157.208h193" stroke="#E0E0E0" stroke-opacity=".9" fill="none" stroke-width="8" stroke-linejoin="round" display="block"/>
    <path d="M112.645 149.644a8 8 0 1 1-.408.01Z" fill="rgba(41,182,246,0.9)" fill-rule="evenodd" display="block"/>
    <path d="M305.75 149.644a8 8 0 1 1-.407.01Z" fill="rgba(255,152,0,0.9)" fill-rule="evenodd" display="block"/>
    <text transform="translate(74.824 150.403)" fill="rgba(24,109,147,1)" display="block"><tspan x="0" y="11.503" style="white-space:pre">74%</tspan></text>
    <text transform="translate(318.75 150.403)" fill="rgba(153,91,0,1)" display="block"><tspan x="0" y="11.503" style="white-space:pre">98%</tspan></text>
    <path d="M224.95 202.208h185" stroke="#E0E0E0" stroke-opacity=".9" fill="none" stroke-width="8" stroke-linejoin="round" display="block"/>
    <path d="M225.29 194.686a8 8 0 1 1-.408.01Z" fill="rgba(41,182,246,0.9)" fill-rule="evenodd" display="block"/>
    <path d="M410.35 194.686a8 8 0 1 1-.408.01Z" fill="rgba(255,152,0,0.9)" fill-rule="evenodd" display="block"/>
    <text transform="translate(187.469 195.445)" fill="rgba(24,109,147,1)" display="block"><tspan x="0" y="11.503" style="white-space:pre">88%</tspan></text>
    <text transform="translate(423.35 195.445)" fill="rgba(153,91,0,1)" display="block"><tspan x="0" y="11.503" style="white-space:pre">111%</tspan></text>
    <path d="M265.95 248.208h152" stroke="#E0E0E0" stroke-opacity=".9" fill="none" stroke-width="8" stroke-linejoin="round" display="block"/>
    <path d="M265.52 239.727a8 8 0 1 1-.407.01Z" fill="rgba(41,182,246,0.9)" fill-rule="evenodd" display="block"/>
    <path d="M418.396 239.727a8 8 0 1 1-.408.01Z" fill="rgba(255,152,0,0.9)" fill-rule="evenodd" display="block"/>
    <text transform="translate(227.7 240.486)" fill="rgba(24,109,147,1)" display="block"><tspan x="0" y="11.503" style="white-space:pre">93%</tspan></text>
    <text transform="translate(431.396 240.486)" fill="rgba(153,91,0,1)" display="block"><tspan x="0" y="11.503" style="white-space:pre">112%</tspan></text>
    <path d="M248.95 293.208h113" stroke="#E0E0E0" stroke-opacity=".9" fill="none" stroke-width="8" stroke-linejoin="round" display="block"/>
    <path d="M249.428 284.768a8 8 0 1 1-.408.01Z" fill="rgba(41,182,246,0.9)" fill-rule="evenodd" display="block"/>
    <path d="M362.073 284.768a8 8 0 1 1-.408.01Z" fill="rgba(255,152,0,0.9)" fill-rule="evenodd" display="block"/>
    <text transform="translate(211.607 285.527)" fill="rgba(24,109,147,1)" display="block"><tspan x="0" y="11.503" style="white-space:pre">91%</tspan></text>
    <text transform="translate(375.073 285.527)" fill="rgba(153,91,0,1)" display="block"><tspan x="0" y="11.503" style="white-space:pre">105%</tspan></text>
    <path d="M265.95 338.208h64" stroke="#E0E0E0" stroke-opacity=".9" fill="none" stroke-width="8" stroke-linejoin="round" display="block"/>
    <path d="M265.52 329.81a8 8 0 1 1-.407.01Z" fill="rgba(41,182,246,0.9)" fill-rule="evenodd" display="block"/>
    <path d="M329.889 329.81a8 8 0 1 1-.408.01Z" fill="rgba(255,152,0,0.9)" fill-rule="evenodd" display="block"/>
    <text transform="translate(227.7 330.568)" fill="rgba(24,109,147,1)" display="block"><tspan x="0" y="11.503" style="white-space:pre">93%</tspan></text>
    <text transform="translate(342.889 330.568)" fill="rgba(153,91,0,1)" display="block"><tspan x="0" y="11.503" style="white-space:pre">101%</tspan></text>
    <path d="M273.95 383.208h32" stroke="#E0E0E0" stroke-opacity=".9" fill="none" stroke-width="8" stroke-linejoin="round" display="block"/>
    <path d="M273.566 374.85a8 8 0 1 1-.407.011Z" fill="rgba(41,182,246,0.9)" fill-rule="evenodd" display="block"/>
    <path d="M305.75 374.85a8 8 0 1 1-.407.011Z" fill="rgba(255,152,0,0.9)" fill-rule="evenodd" display="block"/>
    <text transform="translate(235.745 375.61)" fill="rgba(24,109,147,1)" display="block"><tspan x="0" y="11.503" style="white-space:pre">94%</tspan></text>
    <text transform="translate(318.75 375.61)" fill="rgba(153,91,0,1)" display="block"><tspan x="0" y="11.503" style="white-space:pre">98%</tspan></text>
    <path d="M297.95 428.208h24" stroke="#E0E0E0" stroke-opacity=".9" fill="none" stroke-width="8" stroke-linejoin="round" display="block"/>
    <path d="M297.705 419.892a8 8 0 1 1-.408.01Z" fill="rgba(41,182,246,0.9)" fill-rule="evenodd" display="block"/>
    <path d="M321.843 419.892a8 8 0 1 1-.408.01Z" fill="rgba(255,152,0,0.9)" fill-rule="evenodd" display="block"/>
    <text transform="translate(259.883 420.651)" fill="rgba(24,109,147,1)" display="block"><tspan x="0" y="11.503" style="white-space:pre">97%</tspan></text>
    <text transform="translate(334.843 420.651)" fill="rgba(153,91,0,1)" display="block"><tspan x="0" y="11.503" style="white-space:pre">100%</tspan></text>
    <path d="M281.95 473.208h8" stroke="#E0E0E0" stroke-opacity=".9" fill="none" stroke-width="8" stroke-linejoin="round" display="block"/>
    <path d="M281.613 464.933a8 8 0 1 1-.408.01Z" fill="rgba(41,182,246,0.9)" fill-rule="evenodd" display="block"/>
    <path d="M289.659 464.933a8 8 0 1 1-.408.01Z" fill="rgba(255,152,0,0.9)" fill-rule="evenodd" display="block"/>
    <text transform="translate(243.791 465.692)" fill="rgba(24,109,147,1)" display="block"><tspan x="0" y="11.503" style="white-space:pre">95%</tspan></text>
    <text transform="translate(302.659 465.692)" fill="rgba(153,91,0,1)" display="block"><tspan x="0" y="11.503" style="white-space:pre">96%</tspan></text>
    <path d="M265.52 509.975a8 8 0 1 1-.407.01Z" fill="rgba(41,182,246,0.9)" fill-rule="evenodd" display="block"/>
    <path d="M265.52 509.975a8 8 0 1 1-.407.01Z" fill="rgba(255,152,0,0.9)" fill-rule="evenodd" display="block"/>
    <text transform="translate(227.7 510.734)" fill="rgba(24,109,147,1)" display="block"><tspan x="0" y="11.503" style="white-space:pre">93%</tspan></text>
    <text transform="translate(278.52 510.734)" fill="rgba(153,91,0,1)" display="block"><tspan x="0" y="11.503" style="white-space:pre">93%</tspan></text>
    <path d="M305.95 563.208h-8" stroke="#E0E0E0" stroke-opacity=".9" fill="none" stroke-width="8" stroke-linejoin="round" display="block"/>
    <path d="M305.75 555.016a8 8 0 1 1-.407.01Z" fill="rgba(41,182,246,0.9)" fill-rule="evenodd" display="block"/>
    <path d="M297.705 555.016a8 8 0 1 1-.408.01Z" fill="rgba(255,152,0,0.9)" fill-rule="evenodd" display="block"/>
    <text transform="translate(318.75 555.775)" fill="rgba(24,109,147,1)" display="block"><tspan x="0" y="11.503" style="white-space:pre">98%</tspan></text>
    <text transform="translate(259.883 555.775)" fill="rgba(153,91,0,1)" display="block"><tspan x="0" y="11.503" style="white-space:pre">97%</tspan></text>
    <g/>
    <g/>
    <g/>
    <g/>
    <g/>
    <g/>
    <g/>
    <g/>
    <g/>
    <g/>
    <g/>
    <g/>
    <g/>
    <g/>
  </g>
  <g transform="translate(98.55 63.292)"/>
  <g transform="translate(98.55 63.292)"/>
  <path fill="none" d="M98 62h484v588H98Z"/>
  <g transform="translate(3 648.829)"/>
  <g transform="translate(581.314 648.829)"/>
  <g transform="translate(98.55 43.81)"/>
  <path fill="transparent" d="M89 49v-5h115v14H89v-5Z"/>
  <text transform="translate(89.347 43.81)" cursor="default" fill="#29B6F6" font-weight="bold"><tspan x="0" y="11.503" style="white-space:pre">Freezing (20-30°F)</tspan></text>
  <path fill="transparent" d="M365.001 49v-5h79v14h-79v-5Z"/>
  <text transform="translate(364.765 43.81)" cursor="default" fill="#FF9800" font-weight="bold"><tspan x="0" y="11.503" style="white-space:pre">Warm (70°F)</tspan></text>
  <path fill="none" d="M99 63h482m-434-5v5m257-5v5"/>
  <g transform="translate(98.55 43.81)"/>
  <g transform="rotate(-89.9 33.201 30.143)"/>
  <path fill="none" d="M99 63v586"/>
  <path fill="transparent" d="M31 81.001v-5h63v20H31v-5Z"/>
  <text transform="translate(34.284 78.572)" cursor="default" fill="#5f5f5f"><tspan x="0" y="11.503" style="white-space:pre">Chevy Bolt</tspan></text>
  <path fill="transparent" d="M32 125.999v-5h62v20H32v-5Z"/>
  <text transform="translate(34.747 123.612)" cursor="default" fill="#5f5f5f"><tspan x="0" y="11.503" style="white-space:pre">Chevy Volt</tspan></text>
  <path fill="transparent" d="M0 162.999v-5h94v35H0v-5Z"/>
  <text transform="translate(3 161.412)" cursor="default" fill="#5f5f5f"><tspan x="0" y="11.503" style="white-space:pre">Mustang Mach-E </tspan><tspan x="40.701" y="25.985" style="white-space:pre">Premium</tspan></text>
  <path fill="transparent" d="M47 216v-5h47v20H47v-5Z"/>
  <text transform="translate(50.364 213.695)" cursor="default" fill="#5f5f5f"><tspan x="0" y="11.503" style="white-space:pre">BMW i3</tspan></text>
  <path fill="transparent" d="M34 261v-5h60v20H34v-5Z"/>
  <text transform="translate(37.052 258.737)" cursor="default" fill="#5f5f5f"><tspan x="0" y="11.503" style="white-space:pre">VW e-Golf</tspan></text>
  <path fill="transparent" d="M10.001 306v-5h84v20h-84v-5Z"/>
  <text transform="translate(13.013 303.778)" cursor="default" fill="#5f5f5f"><tspan x="0" y="11.503" style="white-space:pre">Hyundai KONA</tspan></text>
  <path fill="transparent" d="M27 350.999v-5h67v20H27v-5Z"/>
  <text transform="translate(29.933 348.819)" cursor="default" fill="#5f5f5f"><tspan x="0" y="11.503" style="white-space:pre">Nissan Leaf</tspan></text>
  <path fill="transparent" d="M28 396v-5h66v20H28v-5Z"/>
  <text transform="translate(31.433 393.86)" cursor="default" fill="#5f5f5f"><tspan x="0" y="11.503" style="white-space:pre">Audi e-tron</tspan></text>
  <path fill="transparent" d="M15 441v-5h79v20H15v-5Z"/>
  <text transform="translate(18.41 438.902)" cursor="default" fill="#5f5f5f"><tspan x="0" y="11.503" style="white-space:pre">Tesla Model S</tspan></text>
  <path fill="transparent" d="M12 486v-5h82v20H12v-5Z"/>
  <text transform="translate(15.41 483.943)" cursor="default" fill="#5f5f5f"><tspan x="0" y="11.503" style="white-space:pre">Jaguar I-PACE</tspan></text>
  <path fill="transparent" d="M16 531v-5h78v20H16v-5Z"/>
  <text transform="translate(18.546 528.984)" cursor="default" fill="#5f5f5f"><tspan x="0" y="11.503" style="white-space:pre">Tesla Model 3</tspan></text>
  <path fill="transparent" d="M15 576v-5h79v21H15v-5Z"/>
  <text transform="translate(18.13 574.026)" cursor="default" fill="#5f5f5f"><tspan x="0" y="11.503" style="white-space:pre">Tesla Model X</tspan></text>
  <path fill="transparent" d="M15 621v-5h79v21H15v-5Z"/>
  <text transform="translate(18.182 619.067)" cursor="default" fill="#5f5f5f"><tspan x="0" y="11.503" style="white-space:pre">Tesla Model Y</tspan></text>
  <path fill="none" d="M99 63h-5m5 45h-5m5 0h-5m5 45h-5m5 0h-5m5 45h-5m5 0h-5m5 45h-5m5 0h-5m5 45h-5m5 0h-5m5 46h-5m5 0h-5m5 45h-5m5 0h-5m5 45h-5m5 0h-5m5 45h-5m5 0h-5m5 45h-5m5 0h-5m5 45h-5m5 0h-5m5 45h-5m5 0h-5m5 45h-5"/>
  <g transform="translate(581.314 63.292)"/>
  <path fill="transparent" d="M83.001 659v-5h31v20h-31v-5Z"/>
  <text transform="translate(86.14 656.829)" cursor="default" fill="#5f5f5f"><tspan x="0" y="11.503" style="white-space:pre">60%</tspan></text>
  <path fill="transparent" d="M164 659v-5h30v20h-30v-5Z"/>
  <text transform="translate(166.6 656.829)" cursor="default" fill="#5f5f5f"><tspan x="0" y="11.503" style="white-space:pre">70%</tspan></text>
  <path fill="transparent" d="M244 659v-5h31v20h-31v-5Z"/>
  <text transform="translate(247.06 656.829)" cursor="default" fill="#5f5f5f"><tspan x="0" y="11.503" style="white-space:pre">80%</tspan></text>
  <path fill="transparent" d="M325.002 659v-5h30v20h-30v-5Z"/>
  <text transform="translate(327.522 656.829)" cursor="default" fill="#5f5f5f"><tspan x="0" y="11.503" style="white-space:pre">90%</tspan></text>
  <path fill="transparent" d="M402.001 659v-5h37v20h-37v-5Z"/>
  <text transform="translate(404.707 656.829)" cursor="default" fill="#5f5f5f"><tspan x="0" y="11.503" style="white-space:pre">100%</tspan></text>
  <path fill="transparent" d="M482 659v-5h38v20h-38v-5Z"/>
  <text transform="translate(485.167 656.829)" cursor="default" fill="#5f5f5f"><tspan x="0" y="11.503" style="white-space:pre">110%</tspan></text>
  <path fill="transparent" d="M563 659v-5h37v20h-37v-5Z"/>
  <text transform="translate(565.628 656.829)" cursor="default" fill="#5f5f5f"><tspan x="0" y="11.503" style="white-space:pre">120%</tspan></text>
  <path fill="none" d="M99 649h482m-482 5v-5m80 5v-5m80 5v-5m81 5v-5m80 5v-5m81 5v-5m80 5v-5"/>
  <g transform="translate(98.55 648.829)"/>
  <g fill="#474747" font-size="13" transform="translate(103.55 676.311)">
    <rect x="236.451" y="-.311" fill="transparent" rx="0" ry="0"/>
    <text transform="translate(191.082)"><tspan x="0" y="12.462" style="white-space:pre">% of EPA range</tspan></text>
  </g>
  <g transform="translate(581.314 43.81)"/>
  <g transform="translate(3 697)"/>
  <g transform="translate(3 3)"/>
  <g/>
  <g/>
  <defs>
    <clipPath id="a">
      <path fill="none" d="M-.55-1.292h484v588h-484Z"/>
    </clipPath>
  </defs>
</svg>
