<svg xmlns="http://www.w3.org/2000/svg" xmlns:xlink="http://www.w3.org/1999/xlink" class="svglite" width="504.00pt" height="360.00pt" viewBox="0 0 504.00 360.00">
  <defs>
    <style type="text/css">
      <![CDATA[
    .svglite line, .svglite polyline, .svglite polygon, .svglite path, .svglite rect, .svglite circle {
      fill: none;
      stroke: #000000;
      stroke-linecap: round;
      stroke-linejoin: round;
      stroke-miterlimit: 10.00;
    }
    .svglite text {
      white-space: pre;
    }
  ]]>
    </style>
  </defs>
  <rect width="100%" height="100%" style="stroke: none; fill: #FFFFFF;"/>
  <defs>
    <clipPath id="cpMC4wMHw1MDQuMDB8MC4wMHwzNjAuMDA=">
      <rect x="0.00" y="0.00" width="504.00" height="360.00"/>
    </clipPath>
  </defs>
  <g clip-path="url(#cpMC4wMHw1MDQuMDB8MC4wMHwzNjAuMDA=)">
    <rect x="0.00" y="0.00" width="504.00" height="360.00" style="stroke-width: 1.07; stroke: #FFFFFF; fill: #FFFFFF;"/>
  </g>
  <defs>
    <clipPath id="cpMzcuNTd8NDE1LjU3fDUuNDh8MzI4LjAx">
      <rect x="37.57" y="5.48" width="377.99" height="322.53"/>
    </clipPath>
  </defs>
  <g clip-path="url(#cpMzcuNTd8NDE1LjU3fDUuNDh8MzI4LjAx)">
    <rect x="37.57" y="5.48" width="377.99" height="322.53" style="stroke-width: 1.07; stroke: none; fill: #EBEBEB;"/>
    <polyline points="37.57,282.81 415.57,282.81 " style="stroke-width: 0.53; stroke: #FFFFFF; stroke-linecap: butt;"/>
    <polyline points="37.57,221.72 415.57,221.72 " style="stroke-width: 0.53; stroke: #FFFFFF; stroke-linecap: butt;"/>
    <polyline points="37.57,160.64 415.57,160.64 " style="stroke-width: 0.53; stroke: #FFFFFF; stroke-linecap: butt;"/>
    <polyline points="37.57,99.55 415.57,99.55 " style="stroke-width: 0.53; stroke: #FFFFFF; stroke-linecap: butt;"/>
    <polyline points="37.57,38.47 415.57,38.47 " style="stroke-width: 0.53; stroke: #FFFFFF; stroke-linecap: butt;"/>
    <polyline points="73.85,328.01 73.85,5.48 " style="stroke-width: 0.53; stroke: #FFFFFF; stroke-linecap: butt;"/>
    <polyline points="169.30,328.01 169.30,5.48 " style="stroke-width: 0.53; stroke: #FFFFFF; stroke-linecap: butt;"/>
    <polyline points="264.75,328.01 264.75,5.48 " style="stroke-width: 0.53; stroke: #FFFFFF; stroke-linecap: butt;"/>
    <polyline points="360.20,328.01 360.20,5.48 " style="stroke-width: 0.53; stroke: #FFFFFF; stroke-linecap: butt;"/>
    <polyline points="37.57,313.35 415.57,313.35 " style="stroke-width: 1.07; stroke: #FFFFFF; stroke-linecap: butt;"/>
    <polyline points="37.57,252.27 415.57,252.27 " style="stroke-width: 1.07; stroke: #FFFFFF; stroke-linecap: butt;"/>
    <polyline points="37.57,191.18 415.57,191.18 " style="stroke-width: 1.07; stroke: #FFFFFF; stroke-linecap: butt;"/>
    <polyline points="37.57,130.09 415.57,130.09 " style="stroke-width: 1.07; stroke: #FFFFFF; stroke-linecap: butt;"/>
    <polyline points="37.57,69.01 415.57,69.01 " style="stroke-width: 1.07; stroke: #FFFFFF; stroke-linecap: butt;"/>
    <polyline points="37.57,7.92 415.57,7.92 " style="stroke-width: 1.07; stroke: #FFFFFF; stroke-linecap: butt;"/>
    <polyline points="121.57,328.01 121.57,5.48 " style="stroke-width: 1.07; stroke: #FFFFFF; stroke-linecap: butt;"/>
    <polyline points="217.02,328.01 217.02,5.48 " style="stroke-width: 1.07; stroke: #FFFFFF; stroke-linecap: butt;"/>
    <polyline points="312.48,328.01 312.48,5.48 " style="stroke-width: 1.07; stroke: #FFFFFF; stroke-linecap: butt;"/>
    <polyline points="407.93,328.01 407.93,5.48 " style="stroke-width: 1.07; stroke: #FFFFFF; stroke-linecap: butt;"/>
    <circle cx="131.12" cy="130.09" r="4.62" style="stroke-width: 0.71; stroke: #F8766D; fill: #F8766D;"/>
    <circle cx="112.03" cy="191.18" r="4.62" style="stroke-width: 0.71; stroke: #F8766D; fill: #F8766D;"/>
    <circle cx="92.94" cy="166.75" r="4.62" style="stroke-width: 0.71; stroke: #F8766D; fill: #F8766D;"/>
    <circle cx="83.39" cy="178.96" r="4.62" style="stroke-width: 0.71; stroke: #F8766D; fill: #F8766D;"/>
    <circle cx="121.57" cy="117.88" r="4.62" style="stroke-width: 0.71; stroke: #F8766D; fill: #F8766D;"/>
    <circle cx="159.75" cy="81.23" r="4.62" style="stroke-width: 0.71; stroke: #F8766D; fill: #F8766D;"/>
    <circle cx="83.39" cy="142.31" r="4.62" style="stroke-width: 0.71; stroke: #F8766D; fill: #F8766D;"/>
    <circle cx="121.57" cy="142.31" r="4.62" style="stroke-width: 0.71; stroke: #F8766D; fill: #F8766D;"/>
    <circle cx="64.30" cy="203.40" r="4.62" style="stroke-width: 0.71; stroke: #F8766D; fill: #F8766D;"/>
    <circle cx="112.03" cy="178.96" r="4.62" style="stroke-width: 0.71; stroke: #F8766D; fill: #F8766D;"/>
    <circle cx="159.75" cy="105.66" r="4.62" style="stroke-width: 0.71; stroke: #F8766D; fill: #F8766D;"/>
    <circle cx="102.48" cy="142.31" r="4.62" style="stroke-width: 0.71; stroke: #F8766D; fill: #F8766D;"/>
    <circle cx="102.48" cy="191.18" r="4.62" style="stroke-width: 0.71; stroke: #F8766D; fill: #F8766D;"/>
    <circle cx="54.76" cy="191.18" r="4.62" style="stroke-width: 0.71; stroke: #F8766D; fill: #F8766D;"/>
    <circle cx="197.93" cy="69.01" r="4.62" style="stroke-width: 0.71; stroke: #F8766D; fill: #F8766D;"/>
    <circle cx="188.39" cy="20.14" r="4.62" style="stroke-width: 0.71; stroke: #F8766D; fill: #F8766D;"/>
    <circle cx="159.75" cy="81.23" r="4.62" style="stroke-width: 0.71; stroke: #F8766D; fill: #F8766D;"/>
    <circle cx="131.12" cy="130.09" r="4.62" style="stroke-width: 0.71; stroke: #F8766D; fill: #F8766D;"/>
    <circle cx="188.39" cy="93.44" r="4.62" style="stroke-width: 0.71; stroke: #F8766D; fill: #F8766D;"/>
    <circle cx="131.12" cy="93.44" r="4.62" style="stroke-width: 0.71; stroke: #F8766D; fill: #F8766D;"/>
    <circle cx="159.75" cy="142.31" r="4.62" style="stroke-width: 0.71; stroke: #F8766D; fill: #F8766D;"/>
    <circle cx="131.12" cy="105.66" r="4.62" style="stroke-width: 0.71; stroke: #F8766D; fill: #F8766D;"/>
    <circle cx="83.39" cy="117.88" r="4.62" style="stroke-width: 0.71; stroke: #F8766D; fill: #F8766D;"/>
    <circle cx="131.12" cy="154.53" r="4.62" style="stroke-width: 0.71; stroke: #F8766D; fill: #F8766D;"/>
    <circle cx="102.48" cy="142.31" r="4.62" style="stroke-width: 0.71; stroke: #F8766D; fill: #F8766D;"/>
    <circle cx="121.57" cy="191.18" r="4.62" style="stroke-width: 0.71; stroke: #F8766D; fill: #F8766D;"/>
    <circle cx="121.57" cy="142.31" r="4.62" style="stroke-width: 0.71; stroke: #F8766D; fill: #F8766D;"/>
    <circle cx="140.66" cy="130.09" r="4.62" style="stroke-width: 0.71; stroke: #F8766D; fill: #F8766D;"/>
    <circle cx="140.66" cy="142.31" r="4.62" style="stroke-width: 0.71; stroke: #F8766D; fill: #F8766D;"/>
    <circle cx="92.94" cy="166.75" r="4.62" style="stroke-width: 0.71; stroke: #F8766D; fill: #F8766D;"/>
    <circle cx="102.48" cy="178.96" r="4.62" style="stroke-width: 0.71; stroke: #F8766D; fill: #F8766D;"/>
    <circle cx="159.75" cy="142.31" r="4.62" style="stroke-width: 0.71; stroke: #F8766D; fill: #F8766D;"/>
    <circle cx="140.66" cy="56.79" r="4.62" style="stroke-width: 0.71; stroke: #F8766D; fill: #F8766D;"/>
    <circle cx="169.30" cy="44.57" r="4.62" style="stroke-width: 0.71; stroke: #F8766D; fill: #F8766D;"/>
    <circle cx="112.03" cy="178.96" r="4.62" style="stroke-width: 0.71; stroke: #F8766D; fill: #F8766D;"/>
    <circle cx="121.57" cy="166.75" r="4.62" style="stroke-width: 0.71; stroke: #F8766D; fill: #F8766D;"/>
    <circle cx="169.30" cy="130.09" r="4.62" style="stroke-width: 0.71; stroke: #F8766D; fill: #F8766D;"/>
    <circle cx="112.03" cy="117.88" r="4.62" style="stroke-width: 0.71; stroke: #F8766D; fill: #F8766D;"/>
    <circle cx="64.30" cy="191.18" r="4.62" style="stroke-width: 0.71; stroke: #F8766D; fill: #F8766D;"/>
    <circle cx="131.12" cy="142.31" r="4.62" style="stroke-width: 0.71; stroke: #F8766D; fill: #F8766D;"/>
    <circle cx="121.57" cy="130.09" r="4.62" style="stroke-width: 0.71; stroke: #F8766D; fill: #F8766D;"/>
    <circle cx="73.85" cy="276.70" r="4.62" style="stroke-width: 0.71; stroke: #F8766D; fill: #F8766D;"/>
    <circle cx="64.30" cy="166.75" r="4.62" style="stroke-width: 0.71; stroke: #F8766D; fill: #F8766D;"/>
    <circle cx="121.57" cy="130.09" r="4.62" style="stroke-width: 0.71; stroke: #F8766D; fill: #F8766D;"/>
    <circle cx="131.12" cy="93.44" r="4.62" style="stroke-width: 0.71; stroke: #F8766D; fill: #F8766D;"/>
    <circle cx="102.48" cy="191.18" r="4.62" style="stroke-width: 0.71; stroke: #F8766D; fill: #F8766D;"/>
    <circle cx="131.12" cy="93.44" r="4.62" style="stroke-width: 0.71; stroke: #F8766D; fill: #F8766D;"/>
    <circle cx="83.39" cy="166.75" r="4.62" style="stroke-width: 0.71; stroke: #F8766D; fill: #F8766D;"/>
    <circle cx="150.21" cy="105.66" r="4.62" style="stroke-width: 0.71; stroke: #F8766D; fill: #F8766D;"/>
    <circle cx="121.57" cy="154.53" r="4.62" style="stroke-width: 0.71; stroke: #F8766D; fill: #F8766D;"/>
    <circle cx="312.48" cy="166.75" r="4.62" style="stroke-width: 0.71; stroke: #00BA38; fill: #00BA38;"/>
    <circle cx="255.21" cy="166.75" r="4.62" style="stroke-width: 0.71; stroke: #00BA38; fill: #00BA38;"/>
    <circle cx="302.93" cy="178.96" r="4.62" style="stroke-width: 0.71; stroke: #00BA38; fill: #00BA38;"/>
    <circle cx="169.30" cy="276.70" r="4.62" style="stroke-width: 0.71; stroke: #00BA38; fill: #00BA38;"/>
    <circle cx="264.75" cy="215.62" r="4.62" style="stroke-width: 0.71; stroke: #00BA38; fill: #00BA38;"/>
    <circle cx="188.39" cy="215.62" r="4.62" style="stroke-width: 0.71; stroke: #00BA38; fill: #00BA38;"/>
    <circle cx="245.66" cy="154.53" r="4.62" style="stroke-width: 0.71; stroke: #00BA38; fill: #00BA38;"/>
    <circle cx="112.03" cy="264.48" r="4.62" style="stroke-width: 0.71; stroke: #00BA38; fill: #00BA38;"/>
    <circle cx="274.30" cy="203.40" r="4.62" style="stroke-width: 0.71; stroke: #00BA38; fill: #00BA38;"/>
    <circle cx="140.66" cy="227.83" r="4.62" style="stroke-width: 0.71; stroke: #00BA38; fill: #00BA38;"/>
    <circle cx="121.57" cy="313.35" r="4.62" style="stroke-width: 0.71; stroke: #00BA38; fill: #00BA38;"/>
    <circle cx="207.48" cy="191.18" r="4.62" style="stroke-width: 0.71; stroke: #00BA38; fill: #00BA38;"/>
    <circle cx="217.02" cy="288.92" r="4.62" style="stroke-width: 0.71; stroke: #00BA38; fill: #00BA38;"/>
    <circle cx="226.57" cy="203.40" r="4.62" style="stroke-width: 0.71; stroke: #00BA38; fill: #00BA38;"/>
    <circle cx="178.84" cy="203.40" r="4.62" style="stroke-width: 0.71; stroke: #00BA38; fill: #00BA38;"/>
    <circle cx="283.84" cy="178.96" r="4.62" style="stroke-width: 0.71; stroke: #00BA38; fill: #00BA38;"/>
    <circle cx="178.84" cy="191.18" r="4.62" style="stroke-width: 0.71; stroke: #00BA38; fill: #00BA38;"/>
    <circle cx="197.93" cy="227.83" r="4.62" style="stroke-width: 0.71; stroke: #00BA38; fill: #00BA38;"/>
    <circle cx="236.12" cy="288.92" r="4.62" style="stroke-width: 0.71; stroke: #00BA38; fill: #00BA38;"/>
    <circle cx="178.84" cy="252.27" r="4.62" style="stroke-width: 0.71; stroke: #00BA38; fill: #00BA38;"/>
    <circle cx="207.48" cy="166.75" r="4.62" style="stroke-width: 0.71; stroke: #00BA38; fill: #00BA38;"/>
    <circle cx="226.57" cy="215.62" r="4.62" style="stroke-width: 0.71; stroke: #00BA38; fill: #00BA38;"/>
    <circle cx="245.66" cy="252.27" r="4.62" style="stroke-width: 0.71; stroke: #00BA38; fill: #00BA38;"/>
    <circle cx="226.57" cy="215.62" r="4.62" style="stroke-width: 0.71; stroke: #00BA38; fill: #00BA38;"/>
    <circle cx="255.21" cy="203.40" r="4.62" style="stroke-width: 0.71; stroke: #00BA38; fill: #00BA38;"/>
    <circle cx="274.30" cy="191.18" r="4.62" style="stroke-width: 0.71; stroke: #00BA38; fill: #00BA38;"/>
    <circle cx="293.39" cy="215.62" r="4.62" style="stroke-width: 0.71; stroke: #00BA38; fill: #00BA38;"/>
    <circle cx="283.84" cy="191.18" r="4.62" style="stroke-width: 0.71; stroke: #00BA38; fill: #00BA38;"/>
    <circle cx="217.02" cy="203.40" r="4.62" style="stroke-width: 0.71; stroke: #00BA38; fill: #00BA38;"/>
    <circle cx="188.39" cy="240.05" r="4.62" style="stroke-width: 0.71; stroke: #00BA38; fill: #00BA38;"/>
    <circle cx="169.30" cy="264.48" r="4.62" style="stroke-width: 0.71; stroke: #00BA38; fill: #00BA38;"/>
    <circle cx="169.30" cy="264.48" r="4.62" style="stroke-width: 0.71; stroke: #00BA38; fill: #00BA38;"/>
    <circle cx="197.93" cy="227.83" r="4.62" style="stroke-width: 0.71; stroke: #00BA38; fill: #00BA38;"/>
    <circle cx="217.02" cy="227.83" r="4.62" style="stroke-width: 0.71; stroke: #00BA38; fill: #00BA38;"/>
    <circle cx="159.75" cy="191.18" r="4.62" style="stroke-width: 0.71; stroke: #00BA38; fill: #00BA38;"/>
    <circle cx="217.02" cy="142.31" r="4.62" style="stroke-width: 0.71; stroke: #00BA38; fill: #00BA38;"/>
    <circle cx="283.84" cy="178.96" r="4.62" style="stroke-width: 0.71; stroke: #00BA38; fill: #00BA38;"/>
    <circle cx="245.66" cy="276.70" r="4.62" style="stroke-width: 0.71; stroke: #00BA38; fill: #00BA38;"/>
    <circle cx="178.84" cy="191.18" r="4.62" style="stroke-width: 0.71; stroke: #00BA38; fill: #00BA38;"/>
    <circle cx="169.30" cy="252.27" r="4.62" style="stroke-width: 0.71; stroke: #00BA38; fill: #00BA38;"/>
    <circle cx="169.30" cy="240.05" r="4.62" style="stroke-width: 0.71; stroke: #00BA38; fill: #00BA38;"/>
    <circle cx="226.57" cy="191.18" r="4.62" style="stroke-width: 0.71; stroke: #00BA38; fill: #00BA38;"/>
    <circle cx="197.93" cy="240.05" r="4.62" style="stroke-width: 0.71; stroke: #00BA38; fill: #00BA38;"/>
    <circle cx="121.57" cy="276.70" r="4.62" style="stroke-width: 0.71; stroke: #00BA38; fill: #00BA38;"/>
    <circle cx="178.84" cy="227.83" r="4.62" style="stroke-width: 0.71; stroke: #00BA38; fill: #00BA38;"/>
    <circle cx="188.39" cy="191.18" r="4.62" style="stroke-width: 0.71; stroke: #00BA38; fill: #00BA38;"/>
    <circle cx="188.39" cy="203.40" r="4.62" style="stroke-width: 0.71; stroke: #00BA38; fill: #00BA38;"/>
    <circle cx="236.12" cy="203.40" r="4.62" style="stroke-width: 0.71; stroke: #00BA38; fill: #00BA38;"/>
    <circle cx="131.12" cy="252.27" r="4.62" style="stroke-width: 0.71; stroke: #00BA38; fill: #00BA38;"/>
    <circle cx="188.39" cy="215.62" r="4.62" style="stroke-width: 0.71; stroke: #00BA38; fill: #00BA38;"/>
    <circle cx="245.66" cy="154.53" r="4.62" style="stroke-width: 0.71; stroke: #619CFF; fill: #619CFF;"/>
    <circle cx="197.93" cy="227.83" r="4.62" style="stroke-width: 0.71; stroke: #619CFF; fill: #619CFF;"/>
    <circle cx="322.02" cy="191.18" r="4.62" style="stroke-width: 0.71; stroke: #619CFF; fill: #619CFF;"/>
    <circle cx="245.66" cy="203.40" r="4.62" style="stroke-width: 0.71; stroke: #619CFF; fill: #619CFF;"/>
    <circle cx="264.75" cy="191.18" r="4.62" style="stroke-width: 0.71; stroke: #619CFF; fill: #619CFF;"/>
    <circle cx="369.75" cy="191.18" r="4.62" style="stroke-width: 0.71; stroke: #619CFF; fill: #619CFF;"/>
    <circle cx="112.03" cy="252.27" r="4.62" style="stroke-width: 0.71; stroke: #619CFF; fill: #619CFF;"/>
    <circle cx="341.11" cy="203.40" r="4.62" style="stroke-width: 0.71; stroke: #619CFF; fill: #619CFF;"/>
    <circle cx="283.84" cy="252.27" r="4.62" style="stroke-width: 0.71; stroke: #619CFF; fill: #619CFF;"/>
    <circle cx="331.57" cy="117.88" r="4.62" style="stroke-width: 0.71; stroke: #619CFF; fill: #619CFF;"/>
    <circle cx="264.75" cy="166.75" r="4.62" style="stroke-width: 0.71; stroke: #619CFF; fill: #619CFF;"/>
    <circle cx="255.21" cy="227.83" r="4.62" style="stroke-width: 0.71; stroke: #619CFF; fill: #619CFF;"/>
    <circle cx="293.39" cy="191.18" r="4.62" style="stroke-width: 0.71; stroke: #619CFF; fill: #619CFF;"/>
    <circle cx="188.39" cy="252.27" r="4.62" style="stroke-width: 0.71; stroke: #619CFF; fill: #619CFF;"/>
    <circle cx="197.93" cy="215.62" r="4.62" style="stroke-width: 0.71; stroke: #619CFF; fill: #619CFF;"/>
    <circle cx="255.21" cy="166.75" r="4.62" style="stroke-width: 0.71; stroke: #619CFF; fill: #619CFF;"/>
    <circle cx="264.75" cy="191.18" r="4.62" style="stroke-width: 0.71; stroke: #619CFF; fill: #619CFF;"/>
    <circle cx="379.29" cy="93.44" r="4.62" style="stroke-width: 0.71; stroke: #619CFF; fill: #619CFF;"/>
    <circle cx="379.29" cy="240.05" r="4.62" style="stroke-width: 0.71; stroke: #619CFF; fill: #619CFF;"/>
    <circle cx="217.02" cy="288.92" r="4.62" style="stroke-width: 0.71; stroke: #619CFF; fill: #619CFF;"/>
    <circle cx="302.93" cy="166.75" r="4.62" style="stroke-width: 0.71; stroke: #619CFF; fill: #619CFF;"/>
    <circle cx="178.84" cy="215.62" r="4.62" style="stroke-width: 0.71; stroke: #619CFF; fill: #619CFF;"/>
    <circle cx="379.29" cy="215.62" r="4.62" style="stroke-width: 0.71; stroke: #619CFF; fill: #619CFF;"/>
    <circle cx="245.66" cy="227.83" r="4.62" style="stroke-width: 0.71; stroke: #619CFF; fill: #619CFF;"/>
    <circle cx="283.84" cy="154.53" r="4.62" style="stroke-width: 0.71; stroke: #619CFF; fill: #619CFF;"/>
    <circle cx="331.57" cy="166.75" r="4.62" style="stroke-width: 0.71; stroke: #619CFF; fill: #619CFF;"/>
    <circle cx="236.12" cy="215.62" r="4.62" style="stroke-width: 0.71; stroke: #619CFF; fill: #619CFF;"/>
    <circle cx="226.57" cy="191.18" r="4.62" style="stroke-width: 0.71; stroke: #619CFF; fill: #619CFF;"/>
    <circle cx="255.21" cy="215.62" r="4.62" style="stroke-width: 0.71; stroke: #619CFF; fill: #619CFF;"/>
    <circle cx="331.57" cy="191.18" r="4.62" style="stroke-width: 0.71; stroke: #619CFF; fill: #619CFF;"/>
    <circle cx="350.66" cy="215.62" r="4.62" style="stroke-width: 0.71; stroke: #619CFF; fill: #619CFF;"/>
    <circle cx="398.38" cy="93.44" r="4.62" style="stroke-width: 0.71; stroke: #619CFF; fill: #619CFF;"/>
    <circle cx="255.21" cy="215.62" r="4.62" style="stroke-width: 0.71; stroke: #619CFF; fill: #619CFF;"/>
    <circle cx="245.66" cy="215.62" r="4.62" style="stroke-width: 0.71; stroke: #619CFF; fill: #619CFF;"/>
    <circle cx="226.57" cy="240.05" r="4.62" style="stroke-width: 0.71; stroke: #619CFF; fill: #619CFF;"/>
    <circle cx="379.29" cy="191.18" r="4.62" style="stroke-width: 0.71; stroke: #619CFF; fill: #619CFF;"/>
    <circle cx="245.66" cy="142.31" r="4.62" style="stroke-width: 0.71; stroke: #619CFF; fill: #619CFF;"/>
    <circle cx="255.21" cy="178.96" r="4.62" style="stroke-width: 0.71; stroke: #619CFF; fill: #619CFF;"/>
    <circle cx="217.02" cy="191.18" r="4.62" style="stroke-width: 0.71; stroke: #619CFF; fill: #619CFF;"/>
    <circle cx="302.93" cy="178.96" r="4.62" style="stroke-width: 0.71; stroke: #619CFF; fill: #619CFF;"/>
    <circle cx="283.84" cy="178.96" r="4.62" style="stroke-width: 0.71; stroke: #619CFF; fill: #619CFF;"/>
    <circle cx="302.93" cy="178.96" r="4.62" style="stroke-width: 0.71; stroke: #619CFF; fill: #619CFF;"/>
    <circle cx="197.93" cy="227.83" r="4.62" style="stroke-width: 0.71; stroke: #619CFF; fill: #619CFF;"/>
    <circle cx="293.39" cy="166.75" r="4.62" style="stroke-width: 0.71; stroke: #619CFF; fill: #619CFF;"/>
    <circle cx="283.84" cy="154.53" r="4.62" style="stroke-width: 0.71; stroke: #619CFF; fill: #619CFF;"/>
    <circle cx="283.84" cy="191.18" r="4.62" style="stroke-width: 0.71; stroke: #619CFF; fill: #619CFF;"/>
    <circle cx="245.66" cy="252.27" r="4.62" style="stroke-width: 0.71; stroke: #619CFF; fill: #619CFF;"/>
    <circle cx="264.75" cy="191.18" r="4.62" style="stroke-width: 0.71; stroke: #619CFF; fill: #619CFF;"/>
    <circle cx="236.12" cy="142.31" r="4.62" style="stroke-width: 0.71; stroke: #619CFF; fill: #619CFF;"/>
    <circle cx="207.48" cy="191.18" r="4.62" style="stroke-width: 0.71; stroke: #619CFF; fill: #619CFF;"/>
    <polyline points="54.76,191.18 64.30,203.40 64.30,191.18 64.30,166.75 73.85,276.70 83.39,178.96 83.39,142.31 83.39,117.88 83.39,166.75 92.94,166.75 92.94,166.75 102.48,142.31 102.48,191.18 102.48,142.31 102.48,178.96 102.48,191.18 112.03,191.18 112.03,178.96 112.03,178.96 112.03,117.88 121.57,117.88 121.57,142.31 121.57,191.18 121.57,142.31 121.57,166.75 121.57,130.09 121.57,130.09 121.57,154.53 131.12,130.09 131.12,130.09 131.12,93.44 131.12,105.66 131.12,154.53 131.12,142.31 131.12,93.44 131.12,93.44 140.66,130.09 140.66,142.31 140.66,56.79 150.21,105.66 159.75,81.23 159.75,105.66 159.75,81.23 159.75,142.31 159.75,142.31 169.30,44.57 169.30,130.09 188.39,20.14 188.39,93.44 197.93,69.01 " style="stroke-width: 1.07; stroke: #F8766D; stroke-linecap: butt;"/>
    <polyline points="112.03,264.48 121.57,313.35 121.57,276.70 131.12,252.27 140.66,227.83 159.75,191.18 169.30,276.70 169.30,264.48 169.30,264.48 169.30,252.27 169.30,240.05 178.84,203.40 178.84,191.18 178.84,252.27 178.84,191.18 178.84,227.83 188.39,215.62 188.39,240.05 188.39,191.18 188.39,203.40 188.39,215.62 197.93,227.83 197.93,227.83 197.93,240.05 207.48,191.18 207.48,166.75 217.02,288.92 217.02,203.40 217.02,227.83 217.02,142.31 226.57,203.40 226.57,215.62 226.57,215.62 226.57,191.18 236.12,288.92 236.12,203.40 245.66,154.53 245.66,252.27 245.66,276.70 255.21,166.75 255.21,203.40 264.75,215.62 274.30,203.40 274.30,191.18 283.84,178.96 283.84,191.18 283.84,178.96 293.39,215.62 302.93,178.96 312.48,166.75 " style="stroke-width: 1.07; stroke: #00BA38; stroke-linecap: butt;"/>
    <polyline points="112.03,252.27 178.84,215.62 188.39,252.27 197.93,227.83 197.93,215.62 197.93,227.83 207.48,191.18 217.02,288.92 217.02,191.18 226.57,191.18 226.57,240.05 236.12,215.62 236.12,142.31 245.66,154.53 245.66,203.40 245.66,227.83 245.66,215.62 245.66,142.31 245.66,252.27 255.21,227.83 255.21,166.75 255.21,215.62 255.21,215.62 255.21,178.96 264.75,191.18 264.75,166.75 264.75,191.18 264.75,191.18 283.84,252.27 283.84,154.53 283.84,178.96 283.84,154.53 283.84,191.18 293.39,191.18 293.39,166.75 302.93,166.75 302.93,178.96 302.93,178.96 322.02,191.18 331.57,117.88 331.57,166.75 331.57,191.18 341.11,203.40 350.66,215.62 369.75,191.18 379.29,93.44 379.29,240.05 379.29,215.62 379.29,191.18 398.38,93.44 " style="stroke-width: 1.07; stroke: #619CFF; stroke-linecap: butt;"/>
  </g>
  <g clip-path="url(#cpMC4wMHw1MDQuMDB8MC4wMHwzNjAuMDA=)">
    <text x="32.64" y="316.56" text-anchor="end" style="font-size: 8.80px;fill: #4D4D4D; font-family: &quot;Arimo&quot;;" textLength="13.98px" lengthAdjust="spacingAndGlyphs">2.0</text>
    <text x="32.64" y="255.47" text-anchor="end" style="font-size: 8.80px;fill: #4D4D4D; font-family: &quot;Arimo&quot;;" textLength="13.98px" lengthAdjust="spacingAndGlyphs">2.5</text>
    <text x="32.64" y="194.39" text-anchor="end" style="font-size: 8.80px;fill: #4D4D4D; font-family: &quot;Arimo&quot;;" textLength="13.98px" lengthAdjust="spacingAndGlyphs">3.0</text>
    <text x="32.64" y="133.30" text-anchor="end" style="font-size: 8.80px;fill: #4D4D4D; font-family: &quot;Arimo&quot;;" textLength="13.98px" lengthAdjust="spacingAndGlyphs">3.5</text>
    <text x="32.64" y="72.22" text-anchor="end" style="font-size: 8.80px;fill: #4D4D4D; font-family: &quot;Arimo&quot;;" textLength="13.98px" lengthAdjust="spacingAndGlyphs">4.0</text>
    <text x="32.64" y="11.13" text-anchor="end" style="font-size: 8.80px;fill: #4D4D4D; font-family: &quot;Arimo&quot;;" textLength="13.98px" lengthAdjust="spacingAndGlyphs">4.5</text>
    <polyline points="34.83,313.35 37.57,313.35 " style="stroke-width: 1.07; stroke: #333333; stroke-linecap: butt;"/>
    <polyline points="34.83,252.27 37.57,252.27 " style="stroke-width: 1.07; stroke: #333333; stroke-linecap: butt;"/>
    <polyline points="34.83,191.18 37.57,191.18 " style="stroke-width: 1.07; stroke: #333333; stroke-linecap: butt;"/>
    <polyline points="34.83,130.09 37.57,130.09 " style="stroke-width: 1.07; stroke: #333333; stroke-linecap: butt;"/>
    <polyline points="34.83,69.01 37.57,69.01 " style="stroke-width: 1.07; stroke: #333333; stroke-linecap: butt;"/>
    <polyline points="34.83,7.92 37.57,7.92 " style="stroke-width: 1.07; stroke: #333333; stroke-linecap: butt;"/>
    <polyline points="121.57,330.75 121.57,328.01 " style="stroke-width: 1.07; stroke: #333333; stroke-linecap: butt;"/>
    <polyline points="217.02,330.75 217.02,328.01 " style="stroke-width: 1.07; stroke: #333333; stroke-linecap: butt;"/>
    <polyline points="312.48,330.75 312.48,328.01 " style="stroke-width: 1.07; stroke: #333333; stroke-linecap: butt;"/>
    <polyline points="407.93,330.75 407.93,328.01 " style="stroke-width: 1.07; stroke: #333333; stroke-linecap: butt;"/>
    <text x="121.57" y="339.36" text-anchor="middle" style="font-size: 8.80px;fill: #4D4D4D; font-family: &quot;Arimo&quot;;" textLength="5.59px" lengthAdjust="spacingAndGlyphs">5</text>
    <text x="217.02" y="339.36" text-anchor="middle" style="font-size: 8.80px;fill: #4D4D4D; font-family: &quot;Arimo&quot;;" textLength="5.59px" lengthAdjust="spacingAndGlyphs">6</text>
    <text x="312.48" y="339.36" text-anchor="middle" style="font-size: 8.80px;fill: #4D4D4D; font-family: &quot;Arimo&quot;;" textLength="5.59px" lengthAdjust="spacingAndGlyphs">7</text>
    <text x="407.93" y="339.36" text-anchor="middle" style="font-size: 8.80px;fill: #4D4D4D; font-family: &quot;Arimo&quot;;" textLength="5.59px" lengthAdjust="spacingAndGlyphs">8</text>
    <text x="226.57" y="352.10" text-anchor="middle" style="font-size: 11.00px; font-family: &quot;Arimo&quot;;" textLength="71.97px" lengthAdjust="spacingAndGlyphs">Sepal.Length</text>
    <text transform="translate(13.50,166.75) rotate(-90)" text-anchor="middle" style="font-size: 11.00px; font-family: &quot;Arimo&quot;;" textLength="66.00px" lengthAdjust="spacingAndGlyphs">Sepal.Width</text>
    <rect x="426.53" y="127.45" width="72.00" height="78.60" style="stroke-width: 1.07; stroke: none; fill: #FFFFFF;"/>
    <text x="432.00" y="142.10" style="font-size: 11.00px; font-family: &quot;Arimo&quot;;" textLength="42.34px" lengthAdjust="spacingAndGlyphs">Species</text>
    <rect x="432.00" y="148.73" width="17.28" height="17.28" style="stroke-width: 1.07; stroke: none; fill: #F2F2F2;"/>
    <circle cx="440.64" cy="157.37" r="4.62" style="stroke-width: 0.71; stroke: #F8766D; fill: #F8766D;"/>
    <line x1="433.73" y1="157.37" x2="447.56" y2="157.37" style="stroke-width: 1.07; stroke: #F8766D; stroke-linecap: butt;"/>
    <rect x="432.00" y="166.01" width="17.28" height="17.28" style="stroke-width: 1.07; stroke: none; fill: #F2F2F2;"/>
    <circle cx="440.64" cy="174.65" r="4.62" style="stroke-width: 0.71; stroke: #00BA38; fill: #00BA38;"/>
    <line x1="433.73" y1="174.65" x2="447.56" y2="174.65" style="stroke-width: 1.07; stroke: #00BA38; stroke-linecap: butt;"/>
    <rect x="432.00" y="183.29" width="17.28" height="17.28" style="stroke-width: 1.07; stroke: none; fill: #F2F2F2;"/>
    <circle cx="440.64" cy="191.93" r="4.62" style="stroke-width: 0.71; stroke: #619CFF; fill: #619CFF;"/>
    <line x1="433.73" y1="191.93" x2="447.56" y2="191.93" style="stroke-width: 1.07; stroke: #619CFF; stroke-linecap: butt;"/>
    <text x="454.76" y="160.57" style="font-size: 8.80px; font-family: &quot;Arimo&quot;;" textLength="28.81px" lengthAdjust="spacingAndGlyphs">setosa</text>
    <text x="454.76" y="177.85" style="font-size: 8.80px; font-family: &quot;Arimo&quot;;" textLength="42.94px" lengthAdjust="spacingAndGlyphs">versicolor</text>
    <text x="454.76" y="195.13" style="font-size: 8.80px; font-family: &quot;Arimo&quot;;" textLength="37.40px" lengthAdjust="spacingAndGlyphs">virginica</text>
  </g>
</svg>
