<svg xmlns:xlink="http://www.w3.org/1999/xlink" xmlns="http://www.w3.org/2000/svg" width="876.237" height="441.563" viewBox="0 0 657.178 331.172">
  <defs>
    <style>
      *{stroke-linejoin:round;stroke-linecap:butt}
    </style>
  </defs>
  <g id="figure_1">
    <path d="M0 331.172h657.178V0H0z" style="fill:#fff" id="patch_1"/>
    <g id="axes_1">
      <path d="M83.978 302.572h558v-277.2h-558z" style="fill:#fff" id="patch_2"/>
      <path d="M362.978 302.572v-277.2" clip-path="url(#p88414deb6a)" style="fill:none;stroke-dasharray:1.11,.48;stroke-dashoffset:0;stroke:#000;stroke-width:.3" id="line2d_1"/>
      <path d="M259.128 37.972h31v22.91h-31z" clip-path="url(#p88414deb6a)" style="fill:#e36c55;stroke:#000;stroke-width:.8;stroke-linejoin:miter" id="patch_3"/>
      <path d="M169.228 83.79h80.6v22.91h-80.6z" clip-path="url(#p88414deb6a)" style="fill:#e36c55;stroke:#000;stroke-width:.8;stroke-linejoin:miter" id="patch_4"/>
      <path d="M128.928 129.609h108.5v22.909h-108.5z" clip-path="url(#p88414deb6a)" style="fill:#e36c55;stroke:#000;stroke-width:.8;stroke-linejoin:miter" id="patch_5"/>
      <path d="M215.728 175.427h99.2v22.91h-99.2z" clip-path="url(#p88414deb6a)" style="fill:#e36c55;stroke:#000;stroke-width:.8;stroke-linejoin:miter" id="patch_6"/>
      <path d="M200.228 221.245h65.1v22.91h-65.1z" clip-path="url(#p88414deb6a)" style="fill:#e36c55;stroke:#000;stroke-width:.8;stroke-linejoin:miter" id="patch_7"/>
      <path d="M271.528 267.063h24.8v22.91h-24.8z" clip-path="url(#p88414deb6a)" style="fill:#e36c55;stroke:#000;stroke-width:.8;stroke-linejoin:miter" id="patch_8"/>
      <path d="M290.128 37.972h46.5v22.91h-46.5z" clip-path="url(#p88414deb6a)" style="fill:#f7b599;stroke:#000;stroke-width:.8;stroke-linejoin:miter" id="patch_9"/>
      <path d="M249.828 83.79h68.2v22.91h-68.2z" clip-path="url(#p88414deb6a)" style="fill:#f7b599;stroke:#000;stroke-width:.8;stroke-linejoin:miter" id="patch_10"/>
      <path d="M237.428 129.609h114.7v22.909h-114.7z" clip-path="url(#p88414deb6a)" style="fill:#f7b599;stroke:#000;stroke-width:.8;stroke-linejoin:miter" id="patch_11"/>
      <path d="M314.928 175.427h34.1v22.91h-34.1z" clip-path="url(#p88414deb6a)" style="fill:#f7b599;stroke:#000;stroke-width:.8;stroke-linejoin:miter" id="patch_12"/>
      <path d="M265.328 221.245h89.9v22.91h-89.9z" clip-path="url(#p88414deb6a)" style="fill:#f7b599;stroke:#000;stroke-width:.8;stroke-linejoin:miter" id="patch_13"/>
      <path d="M296.328 267.063h58.9v22.91h-58.9z" clip-path="url(#p88414deb6a)" style="fill:#f7b599;stroke:#000;stroke-width:.8;stroke-linejoin:miter" id="patch_14"/>
      <path d="M336.628 37.972h52.7v22.91h-52.7z" clip-path="url(#p88414deb6a)" style="fill:#dcdddd;stroke:#000;stroke-width:.8;stroke-linejoin:miter" id="patch_15"/>
      <path d="M318.028 83.79h89.9v22.91h-89.9z" clip-path="url(#p88414deb6a)" style="fill:#dcdddd;stroke:#000;stroke-width:.8;stroke-linejoin:miter" id="patch_16"/>
      <path d="M352.128 129.609h21.7v22.909h-21.7z" clip-path="url(#p88414deb6a)" style="fill:#dcdddd;stroke:#000;stroke-width:.8;stroke-linejoin:miter" id="patch_17"/>
      <path d="M349.028 175.427h27.9v22.91h-27.9z" clip-path="url(#p88414deb6a)" style="fill:#dcdddd;stroke:#000;stroke-width:.8;stroke-linejoin:miter" id="patch_18"/>
      <path d="M355.228 221.245h15.5v22.91h-15.5z" clip-path="url(#p88414deb6a)" style="fill:#dcdddd;stroke:#000;stroke-width:.8;stroke-linejoin:miter" id="patch_19"/>
      <path d="M355.228 267.063h15.5v22.91h-15.5z" clip-path="url(#p88414deb6a)" style="fill:#dcdddd;stroke:#000;stroke-width:.8;stroke-linejoin:miter" id="patch_20"/>
      <path d="M389.328 37.972h99.2v22.91h-99.2z" clip-path="url(#p88414deb6a)" style="fill:#a7c5fe;stroke:#000;stroke-width:.8;stroke-linejoin:miter" id="patch_21"/>
      <path d="M407.928 83.79h31v22.91h-31z" clip-path="url(#p88414deb6a)" style="fill:#a7c5fe;stroke:#000;stroke-width:.8;stroke-linejoin:miter" id="patch_22"/>
      <path d="M373.828 129.609h6.2v22.909h-6.2z" clip-path="url(#p88414deb6a)" style="fill:#a7c5fe;stroke:#000;stroke-width:.8;stroke-linejoin:miter" id="patch_23"/>
      <path d="M376.928 175.427h46.5v22.91h-46.5z" clip-path="url(#p88414deb6a)" style="fill:#a7c5fe;stroke:#000;stroke-width:.8;stroke-linejoin:miter" id="patch_24"/>
      <path d="M370.728 221.245h15.5v22.91h-15.5z" clip-path="url(#p88414deb6a)" style="fill:#a7c5fe;stroke:#000;stroke-width:.8;stroke-linejoin:miter" id="patch_25"/>
      <path d="M370.728 267.063h93v22.91h-93z" clip-path="url(#p88414deb6a)" style="fill:#a7c5fe;stroke:#000;stroke-width:.8;stroke-linejoin:miter" id="patch_26"/>
      <path d="M488.528 37.972h80.6v22.91h-80.6z" clip-path="url(#p88414deb6a)" style="fill:#6a8bef;stroke:#000;stroke-width:.8;stroke-linejoin:miter" id="patch_27"/>
      <path d="M438.928 83.79h40.3v22.91h-40.3z" clip-path="url(#p88414deb6a)" style="fill:#6a8bef;stroke:#000;stroke-width:.8;stroke-linejoin:miter" id="patch_28"/>
      <path d="M380.028 129.609h58.9v22.909h-58.9z" clip-path="url(#p88414deb6a)" style="fill:#6a8bef;stroke:#000;stroke-width:.8;stroke-linejoin:miter" id="patch_29"/>
      <path d="M423.428 175.427h102.3v22.91h-102.3z" clip-path="url(#p88414deb6a)" style="fill:#6a8bef;stroke:#000;stroke-width:.8;stroke-linejoin:miter" id="patch_30"/>
      <path d="M386.228 221.245h124v22.91h-124z" clip-path="url(#p88414deb6a)" style="fill:#6a8bef;stroke:#000;stroke-width:.8;stroke-linejoin:miter" id="patch_31"/>
      <path d="M463.728 267.063h117.8v22.91h-117.8z" clip-path="url(#p88414deb6a)" style="fill:#6a8bef;stroke:#000;stroke-width:.8;stroke-linejoin:miter" id="patch_32"/>
      <g id="matplotlib.axis_1">
        <g id="xtick_1">
          <g id="line2d_2">
            <defs>
              <path id="m53cf217a16" d="M0 0v3.5" style="stroke:#323034;stroke-width:.8"/>
            </defs>
            <use xlink:href="#m53cf217a16" x="83.978" y="302.572" style="fill:#323034;stroke:#323034;stroke-width:.8"/>
          </g>
          <g style="fill:#323034" transform="matrix(.16 0 0 -.16 75.978 320.5)" id="text_1">
            <defs>
              <path id="STIXGeneral-Regular-39" d="M378-141 358-13q736 128 1245 621t701 1274q-371-365-960-365-518 0-835 358-317 359-317 941 0 646 381 1078t950 432q608 0 1005-486 410-512 410-1318 0-564-196-1060-195-496-572-841-397-359-775-516Q1018-51 378-141m1939 2413v250q0 1625-845 1625-301 0-467-217-96-128-160-384t-64-512q0-570 214-906 215-336 573-336 256 0 502 125 247 125 247 355" transform="scale(.01563)"/>
              <path id="STIXGeneral-Regular-30" d="M3046 2112q0-429-83-810-83-380-246-700T2266 96 1600-90q-390 0-685 198-294 199-454 532t-234 710q-73 378-73 800 0 596 147 1072 147 477 489 790 343 314 836 314 627 0 1023-614 397-614 397-1600m-614-32q0 1011-215 1545-214 535-630 535-397 0-608-538-211-537-211-1516 0-986 211-1508 211-521 621-521 403 0 617 521 215 522 215 1482" transform="scale(.01563)"/>
            </defs>
            <use xlink:href="#STIXGeneral-Regular-39"/>
            <use xlink:href="#STIXGeneral-Regular-30" x="50"/>
          </g>
        </g>
        <g id="xtick_2">
          <use xlink:href="#m53cf217a16" x="114.978" y="302.572" style="fill:#323034;stroke:#323034;stroke-width:.8" id="line2d_3"/>
          <g style="fill:#323034" transform="matrix(.16 0 0 -.16 106.978 320.5)" id="text_2">
            <defs>
              <path id="STIXGeneral-Regular-38" d="M2848 992q0-493-343-788-342-294-918-294-537 0-883 294-346 295-346 750 0 339 166 579 167 240 666 592-480 397-637 640-156 243-156 563 0 454 348 726 349 272 893 272 468 0 772-266 304-265 304-649 0-352-183-563-182-211-675-474 576-384 784-685 208-300 208-697m-576 2419q0 333-186 534-185 202-512 202-326 0-515-170-189-169-189-464 0-294 189-534t611-489q327 192 464 406 138 214 138 515m-538-1670-377 256q-282-231-397-452-115-220-115-534 0-435 220-678 221-243 593-243 313 0 508 195 196 195 196 509 0 288-148 505-147 218-480 442" transform="scale(.01563)"/>
            </defs>
            <use xlink:href="#STIXGeneral-Regular-38"/>
            <use xlink:href="#STIXGeneral-Regular-30" x="50"/>
          </g>
        </g>
        <g id="xtick_3">
          <use xlink:href="#m53cf217a16" x="145.977" y="302.572" style="fill:#323034;stroke:#323034;stroke-width:.8" id="line2d_4"/>
          <g style="fill:#323034" transform="matrix(.16 0 0 -.16 137.977 320.5)" id="text_3">
            <defs>
              <path id="STIXGeneral-Regular-37" d="M2874 4134 1517-51h-416l1267 3814H992q-275 0-410-96-134-96-339-429l-115 58 384 941h2362z" transform="scale(.01563)"/>
            </defs>
            <use xlink:href="#STIXGeneral-Regular-37"/>
            <use xlink:href="#STIXGeneral-Regular-30" x="50"/>
          </g>
        </g>
        <g id="xtick_4">
          <use xlink:href="#m53cf217a16" x="176.977" y="302.572" style="fill:#323034;stroke:#323034;stroke-width:.8" id="line2d_5"/>
          <g style="fill:#323034" transform="matrix(.16 0 0 -.16 168.977 320.5)" id="text_4">
            <defs>
              <path id="STIXGeneral-Regular-36" d="m2854 4378 13-103q-755-121-1261-611-505-490-633-1213 371 288 813 288 563 0 886-359 323-358 323-978 0-628-326-1024Q2291-90 1651-90 870-90 518 557q-300 550-300 1229 0 1049 697 1766 397 410 816 579 419 170 1123 247m-435-3175q0 1242-864 1242-320 0-531-170-211-169-211-573 0-748 233-1180 234-432 676-432 339 0 518 304t179 809" transform="scale(.01563)"/>
            </defs>
            <use xlink:href="#STIXGeneral-Regular-36"/>
            <use xlink:href="#STIXGeneral-Regular-30" x="50"/>
          </g>
        </g>
        <g id="xtick_5">
          <use xlink:href="#m53cf217a16" x="207.977" y="302.572" style="fill:#323034;stroke:#323034;stroke-width:.8" id="line2d_6"/>
          <g style="fill:#323034" transform="matrix(.16 0 0 -.16 199.977 320.5)" id="text_5">
            <defs>
              <path id="STIXGeneral-Regular-35" d="m2803 4358-230-544q-39-83-173-83H1158l-256-544q704-134 1018-291t582-528q224-307 224-813 0-461-150-775-150-313-477-556Q1664-90 1011-90 646-90 422 19T198 307q0 243 288 243 231 0 474-198 250-205 454-205 333 0 598 333 266 333 266 749 0 614-428 960-557 448-1364 448-76 0-76 51l6 32 698 1517h1324q109 0 170 32t138 134z" transform="scale(.01563)"/>
            </defs>
            <use xlink:href="#STIXGeneral-Regular-35"/>
            <use xlink:href="#STIXGeneral-Regular-30" x="50"/>
          </g>
        </g>
        <g id="xtick_6">
          <use xlink:href="#m53cf217a16" x="238.977" y="302.572" style="fill:#323034;stroke:#323034;stroke-width:.8" id="line2d_7"/>
          <g style="fill:#323034" transform="matrix(.16 0 0 -.16 230.977 320.5)" id="text_6">
            <defs>
              <path id="STIXGeneral-Regular-34" d="M3027 1069h-659V0h-499v1069H77v409l2009 2848h282V1478h659zm-1158 409v2196L333 1478z" transform="scale(.01563)"/>
            </defs>
            <use xlink:href="#STIXGeneral-Regular-34"/>
            <use xlink:href="#STIXGeneral-Regular-30" x="50"/>
          </g>
        </g>
        <g id="xtick_7">
          <use xlink:href="#m53cf217a16" x="269.978" y="302.572" style="fill:#323034;stroke:#323034;stroke-width:.8" id="line2d_8"/>
          <g style="fill:#323034" transform="matrix(.16 0 0 -.16 261.978 320.5)" id="text_7">
            <defs>
              <path id="STIXGeneral-Regular-33" d="m390 3264-102 26q147 480 460 758 314 278 794 278 448 0 723-243 276-243 276-633 0-525-595-884 352-153 531-339 281-313 281-825t-294-896q-218-295-624-446Q1434-90 979-90q-717 0-717 365 0 103 77 167t186 64q160 0 390-167 282-198 551-198 352 0 592 284 240 285 240 695 0 736-666 928-198 64-653 64v90q359 121 538 230 518 294 518 858 0 320-183 486-182 166-508 166-576 0-954-678" transform="scale(.01563)"/>
            </defs>
            <use xlink:href="#STIXGeneral-Regular-33"/>
            <use xlink:href="#STIXGeneral-Regular-30" x="50"/>
          </g>
        </g>
        <g id="xtick_8">
          <use xlink:href="#m53cf217a16" x="300.978" y="302.572" style="fill:#323034;stroke:#323034;stroke-width:.8" id="line2d_9"/>
          <g style="fill:#323034" transform="matrix(.16 0 0 -.16 292.978 320.5)" id="text_8">
            <defs>
              <path id="STIXGeneral-Regular-32" d="M3034 877 2688 0H186v77l1139 1209q448 468 640 858t192 806q0 429-237 666t-653 237q-345 0-547-180-202-179-394-652l-134 32q109 595 438 934 330 339 893 339 531 0 857-320 327-320 327-806 0-723-819-1587L832 486h1498q211 0 335 83 125 84 279 346z" transform="scale(.01563)"/>
            </defs>
            <use xlink:href="#STIXGeneral-Regular-32"/>
            <use xlink:href="#STIXGeneral-Regular-30" x="50"/>
          </g>
        </g>
        <g id="xtick_9">
          <use xlink:href="#m53cf217a16" x="331.978" y="302.572" style="fill:#323034;stroke:#323034;stroke-width:.8" id="line2d_10"/>
          <g style="fill:#323034" transform="matrix(.16 0 0 -.16 323.978 320.5)" id="text_9">
            <defs>
              <path id="STIXGeneral-Regular-31" d="M2522 0H755v96q352 19 480 131t128 381v2874q0 313-192 313-89 0-288-77l-173-64v90l1146 582 58-19V486q0-211 128-301 128-89 480-89z" transform="scale(.01563)"/>
            </defs>
            <use xlink:href="#STIXGeneral-Regular-31"/>
            <use xlink:href="#STIXGeneral-Regular-30" x="50"/>
          </g>
        </g>
        <g id="xtick_10">
          <use xlink:href="#m53cf217a16" x="362.978" y="302.572" style="fill:#323034;stroke:#323034;stroke-width:.8" id="line2d_11"/>
          <use xlink:href="#STIXGeneral-Regular-30" style="fill:#323034" transform="matrix(.16 0 0 -.16 358.978 320.5)" id="text_10"/>
        </g>
        <g id="xtick_11">
          <use xlink:href="#m53cf217a16" x="393.978" y="302.572" style="fill:#323034;stroke:#323034;stroke-width:.8" id="line2d_12"/>
          <g style="fill:#323034" transform="matrix(.16 0 0 -.16 385.978 320.5)" id="text_11">
            <use xlink:href="#STIXGeneral-Regular-31"/>
            <use xlink:href="#STIXGeneral-Regular-30" x="50"/>
          </g>
        </g>
        <g id="xtick_12">
          <use xlink:href="#m53cf217a16" x="424.978" y="302.572" style="fill:#323034;stroke:#323034;stroke-width:.8" id="line2d_13"/>
          <g style="fill:#323034" transform="matrix(.16 0 0 -.16 416.978 320.5)" id="text_12">
            <use xlink:href="#STIXGeneral-Regular-32"/>
            <use xlink:href="#STIXGeneral-Regular-30" x="50"/>
          </g>
        </g>
        <g id="xtick_13">
          <use xlink:href="#m53cf217a16" x="455.978" y="302.572" style="fill:#323034;stroke:#323034;stroke-width:.8" id="line2d_14"/>
          <g style="fill:#323034" transform="matrix(.16 0 0 -.16 447.978 320.5)" id="text_13">
            <use xlink:href="#STIXGeneral-Regular-33"/>
            <use xlink:href="#STIXGeneral-Regular-30" x="50"/>
          </g>
        </g>
        <g id="xtick_14">
          <use xlink:href="#m53cf217a16" x="486.978" y="302.572" style="fill:#323034;stroke:#323034;stroke-width:.8" id="line2d_15"/>
          <g style="fill:#323034" transform="matrix(.16 0 0 -.16 478.978 320.5)" id="text_14">
            <use xlink:href="#STIXGeneral-Regular-34"/>
            <use xlink:href="#STIXGeneral-Regular-30" x="50"/>
          </g>
        </g>
        <g id="xtick_15">
          <use xlink:href="#m53cf217a16" x="517.977" y="302.572" style="fill:#323034;stroke:#323034;stroke-width:.8" id="line2d_16"/>
          <g style="fill:#323034" transform="matrix(.16 0 0 -.16 509.978 320.5)" id="text_15">
            <use xlink:href="#STIXGeneral-Regular-35"/>
            <use xlink:href="#STIXGeneral-Regular-30" x="50"/>
          </g>
        </g>
        <g id="xtick_16">
          <use xlink:href="#m53cf217a16" x="548.977" y="302.572" style="fill:#323034;stroke:#323034;stroke-width:.8" id="line2d_17"/>
          <g style="fill:#323034" transform="matrix(.16 0 0 -.16 540.977 320.5)" id="text_16">
            <use xlink:href="#STIXGeneral-Regular-36"/>
            <use xlink:href="#STIXGeneral-Regular-30" x="50"/>
          </g>
        </g>
        <g id="xtick_17">
          <use xlink:href="#m53cf217a16" x="579.977" y="302.572" style="fill:#323034;stroke:#323034;stroke-width:.8" id="line2d_18"/>
          <g style="fill:#323034" transform="matrix(.16 0 0 -.16 571.977 320.5)" id="text_17">
            <use xlink:href="#STIXGeneral-Regular-37"/>
            <use xlink:href="#STIXGeneral-Regular-30" x="50"/>
          </g>
        </g>
        <g id="xtick_18">
          <use xlink:href="#m53cf217a16" x="610.977" y="302.572" style="fill:#323034;stroke:#323034;stroke-width:.8" id="line2d_19"/>
          <g style="fill:#323034" transform="matrix(.16 0 0 -.16 602.977 320.5)" id="text_18">
            <use xlink:href="#STIXGeneral-Regular-38"/>
            <use xlink:href="#STIXGeneral-Regular-30" x="50"/>
          </g>
        </g>
        <g id="xtick_19">
          <use xlink:href="#m53cf217a16" x="641.977" y="302.572" style="fill:#323034;stroke:#323034;stroke-width:.8" id="line2d_20"/>
          <g style="fill:#323034" transform="matrix(.16 0 0 -.16 633.977 320.5)" id="text_19">
            <use xlink:href="#STIXGeneral-Regular-39"/>
            <use xlink:href="#STIXGeneral-Regular-30" x="50"/>
          </g>
        </g>
      </g>
      <g id="matplotlib.axis_2">
        <g id="ytick_1">
          <g id="line2d_21">
            <defs>
              <path id="m3477445cc6" d="M0 0h-3.5" style="stroke:#323034;stroke-width:.8"/>
            </defs>
            <use xlink:href="#m3477445cc6" x="83.978" y="49.427" style="fill:#323034;stroke:#323034;stroke-width:.8"/>
          </g>
          <g style="fill:#323034" transform="matrix(.16 0 0 -.16 7.2 54.89)" id="text_20">
            <defs>
              <path id="STIXGeneral-Regular-51" d="M4486-1133h-307q-1593 0-2221 794L1696-6q-384 134-599 271-214 138-393 375-486 646-486 1485 0 998 588 1599 589 602 1504 602 922 0 1507-605 586-604 586-1590 0-563-167-973-166-409-524-748-198-199-419-295T2726-45q340-486 765-713 426-228 995-260zm-812 3296q0 551-154 983t-429 662q-345 288-800 288-550 0-921-454-192-224-308-634-115-410-115-864 0-986 371-1504 154-224 432-362 279-137 560-137 557 0 954 461 192 217 301 646t109 915" transform="scale(.01563)"/>
              <path id="STIXGeneral-Regular-75" d="M3072 320v-90Q2573 96 2195-58l-32 20v524h-13Q1747-64 1235-64q-365 0-573 224T454 755v1607q0 236-83 326T58 2790v90h934V813q0-218 131-362t323-144q314 0 538 199 83 76 115 143 32 68 32 228v1478q0 250-90 323-89 74-383 93v109h1011V685q0-224 73-295 74-70 292-70z" transform="scale(.01563)"/>
              <path id="STIXGeneral-Regular-65" d="m2611 1050 103-45Q2330-64 1376-64q-563 0-890 393-326 394-326 1060 0 685 365 1120t960 435q576 0 889-442 186-256 218-729H621q25-403 79-615 55-211 215-428 269-352 711-352 313 0 527 153 215 154 458 519M634 1978h1305q-57 403-189 569-131 167-438 167-269 0-448-189t-230-547" transform="scale(.01563)"/>
              <path id="STIXGeneral-Regular-73" d="m998 1926 666-403q320-192 441-359 122-166 122-428 0-320-266-560-265-240-630-240-301 0-467 58-173 57-294 57-109 0-154-77h-83V979h102q103-467 295-685Q922 77 1248 77q237 0 384 134 147 135 147 339 0 295-339 480l-346 192q-768 429-768 928 0 372 240 580t644 208q281 0 428-71 116-51 180-51 44 0 102 64h70l32-870h-96q-108 435-272 611-163 176-451 176-217 0-349-109-131-109-131-326 0-109 73-234 74-125 202-202" transform="scale(.01563)"/>
              <path id="STIXGeneral-Regular-74" d="m1702 493 84-71Q1478-64 1011-64q-563 0-563 813v1926H109q-26 19-26 45 0 51 109 122 243 140 621 684 13 20 61 80 48 61 67 100 45 0 45-84v-742h646v-205H986V845q0-307 76-442 77-134 256-134 192 0 384 224" transform="scale(.01563)"/>
              <path id="STIXGeneral-Regular-69" d="M1152 4045q0-141-96-234t-237-93q-134 0-227 93t-93 234q0 134 96 230t231 96q140 0 233-96t93-230M1619 0H102v96q333 19 419 115 87 96 87 455v1452q0 224-45 314t-166 90q-154 0-269-32v102l992 352 26-26V672q0-358 80-454t393-122z" transform="scale(.01563)"/>
              <path id="STIXGeneral-Regular-6f" d="M3008 1478q0-672-400-1107T1568-64q-589 0-986 432-396 432-396 1091 0 666 396 1075 397 410 1044 410 595 0 988-407 394-406 394-1059m-576-172q0 729-320 1139-256 320-608 320-333 0-538-272-204-272-204-746 0-819 339-1312 217-320 576-320 352 0 553 317 202 317 202 874" transform="scale(.01563)"/>
              <path id="STIXGeneral-Regular-6e" d="M3104 0H1773l6 96q237 19 317 137 80 119 80 439v1274q0 646-467 646-160 0-301-77t-358-288V461q0-192 86-269t330-96V0H115v96q243 19 320 118 77 100 77 388v1555q0 237-45 326-45 90-179 90-128 0-186-26v109q448 128 877 288l51-19v-499h7q454 518 921 518 365 0 560-256 196-256 196-730V544q0-256 76-339 77-83 314-109z" transform="scale(.01563)"/>
            </defs>
            <use xlink:href="#STIXGeneral-Regular-51"/>
            <use xlink:href="#STIXGeneral-Regular-75" x="72.2"/>
            <use xlink:href="#STIXGeneral-Regular-65" x="122.2"/>
            <use xlink:href="#STIXGeneral-Regular-73" x="166.6"/>
            <use xlink:href="#STIXGeneral-Regular-74" x="205.5"/>
            <use xlink:href="#STIXGeneral-Regular-69" x="233.3"/>
            <use xlink:href="#STIXGeneral-Regular-6f" x="261.1"/>
            <use xlink:href="#STIXGeneral-Regular-6e" x="311.1"/>
            <use xlink:href="#STIXGeneral-Regular-31" x="386.1"/>
          </g>
        </g>
        <g id="ytick_2">
          <use xlink:href="#m3477445cc6" x="83.978" y="95.245" style="fill:#323034;stroke:#323034;stroke-width:.8" id="line2d_22"/>
          <g style="fill:#323034" transform="matrix(.16 0 0 -.16 7.2 100.709)" id="text_21">
            <use xlink:href="#STIXGeneral-Regular-51"/>
            <use xlink:href="#STIXGeneral-Regular-75" x="72.2"/>
            <use xlink:href="#STIXGeneral-Regular-65" x="122.2"/>
            <use xlink:href="#STIXGeneral-Regular-73" x="166.6"/>
            <use xlink:href="#STIXGeneral-Regular-74" x="205.5"/>
            <use xlink:href="#STIXGeneral-Regular-69" x="233.3"/>
            <use xlink:href="#STIXGeneral-Regular-6f" x="261.1"/>
            <use xlink:href="#STIXGeneral-Regular-6e" x="311.1"/>
            <use xlink:href="#STIXGeneral-Regular-32" x="386.1"/>
          </g>
        </g>
        <g id="ytick_3">
          <use xlink:href="#m3477445cc6" x="83.978" y="141.063" style="fill:#323034;stroke:#323034;stroke-width:.8" id="line2d_23"/>
          <g style="fill:#323034" transform="matrix(.16 0 0 -.16 7.2 146.527)" id="text_22">
            <use xlink:href="#STIXGeneral-Regular-51"/>
            <use xlink:href="#STIXGeneral-Regular-75" x="72.2"/>
            <use xlink:href="#STIXGeneral-Regular-65" x="122.2"/>
            <use xlink:href="#STIXGeneral-Regular-73" x="166.6"/>
            <use xlink:href="#STIXGeneral-Regular-74" x="205.5"/>
            <use xlink:href="#STIXGeneral-Regular-69" x="233.3"/>
            <use xlink:href="#STIXGeneral-Regular-6f" x="261.1"/>
            <use xlink:href="#STIXGeneral-Regular-6e" x="311.1"/>
            <use xlink:href="#STIXGeneral-Regular-33" x="386.1"/>
          </g>
        </g>
        <g id="ytick_4">
          <use xlink:href="#m3477445cc6" x="83.978" y="186.882" style="fill:#323034;stroke:#323034;stroke-width:.8" id="line2d_24"/>
          <g style="fill:#323034" transform="matrix(.16 0 0 -.16 7.2 192.345)" id="text_23">
            <use xlink:href="#STIXGeneral-Regular-51"/>
            <use xlink:href="#STIXGeneral-Regular-75" x="72.2"/>
            <use xlink:href="#STIXGeneral-Regular-65" x="122.2"/>
            <use xlink:href="#STIXGeneral-Regular-73" x="166.6"/>
            <use xlink:href="#STIXGeneral-Regular-74" x="205.5"/>
            <use xlink:href="#STIXGeneral-Regular-69" x="233.3"/>
            <use xlink:href="#STIXGeneral-Regular-6f" x="261.1"/>
            <use xlink:href="#STIXGeneral-Regular-6e" x="311.1"/>
            <use xlink:href="#STIXGeneral-Regular-34" x="386.1"/>
          </g>
        </g>
        <g id="ytick_5">
          <use xlink:href="#m3477445cc6" x="83.978" y="232.7" style="fill:#323034;stroke:#323034;stroke-width:.8" id="line2d_25"/>
          <g style="fill:#323034" transform="matrix(.16 0 0 -.16 7.2 238.163)" id="text_24">
            <use xlink:href="#STIXGeneral-Regular-51"/>
            <use xlink:href="#STIXGeneral-Regular-75" x="72.2"/>
            <use xlink:href="#STIXGeneral-Regular-65" x="122.2"/>
            <use xlink:href="#STIXGeneral-Regular-73" x="166.6"/>
            <use xlink:href="#STIXGeneral-Regular-74" x="205.5"/>
            <use xlink:href="#STIXGeneral-Regular-69" x="233.3"/>
            <use xlink:href="#STIXGeneral-Regular-6f" x="261.1"/>
            <use xlink:href="#STIXGeneral-Regular-6e" x="311.1"/>
            <use xlink:href="#STIXGeneral-Regular-35" x="386.1"/>
          </g>
        </g>
        <g id="ytick_6">
          <use xlink:href="#m3477445cc6" x="83.978" y="278.518" style="fill:#323034;stroke:#323034;stroke-width:.8" id="line2d_26"/>
          <g style="fill:#323034" transform="matrix(.16 0 0 -.16 7.2 283.982)" id="text_25">
            <use xlink:href="#STIXGeneral-Regular-51"/>
            <use xlink:href="#STIXGeneral-Regular-75" x="72.2"/>
            <use xlink:href="#STIXGeneral-Regular-65" x="122.2"/>
            <use xlink:href="#STIXGeneral-Regular-73" x="166.6"/>
            <use xlink:href="#STIXGeneral-Regular-74" x="205.5"/>
            <use xlink:href="#STIXGeneral-Regular-69" x="233.3"/>
            <use xlink:href="#STIXGeneral-Regular-6f" x="261.1"/>
            <use xlink:href="#STIXGeneral-Regular-6e" x="311.1"/>
            <use xlink:href="#STIXGeneral-Regular-36" x="386.1"/>
          </g>
        </g>
      </g>
      <path d="M83.978 302.572h558" style="fill:none;stroke:#000;stroke-width:.6;stroke-linejoin:miter;stroke-linecap:square" id="patch_33"/>
      <g id="legend_1">
        <path d="M90.975 16.196h19.992V9.2H90.975z" style="fill:#e36c55;stroke:#000;stroke-width:.8;stroke-linejoin:miter" id="patch_34"/>
        <g style="fill:#323034" transform="matrix(.09996 0 0 -.09996 118.963 16.196)" id="text_26">
          <defs>
            <path id="STIXGeneral-Regular-53" d="M3002 2963h-160q-109 397-263 602-390 499-928 499-294 0-470-170-176-169-176-438 0-128 64-250 64-121 137-208 74-86 259-214 186-128 301-195 116-67 384-227 519-301 755-599 237-297 237-656 0-531-371-864T1837-90q-416 0-755 148-167 70-301 70-77 0-128-58-51-57-51-153H461L275 1274h141Q845 141 1734 141q340 0 551 201 211 202 211 516 0 300-186 505-307 333-1075 743-781 416-781 1100 0 512 314 816t800 304q339 0 672-140 173-77 282-77 166 0 204 217h135z" transform="scale(.01563)"/>
            <path id="STIXGeneral-Regular-72" d="M1024 2931v-589q243 346 406 474 164 128 362 128 166 0 259-90 93-89 93-249 0-135-67-212-67-76-183-76-121 0-256 128-102 96-166 96-134 0-291-186-157-185-157-339V576q0-275 109-371t435-109V0H32v96q307 58 380 128 74 70 74 314v1600q0 211-48 297-48 87-169 87-103 0-224-26v102q403 128 947 346z" transform="scale(.01563)"/>
            <path id="STIXGeneral-Regular-67" d="M3008 2483h-531q121-275 121-537 0-493-333-743-332-249-665-249-70 0-243 19l-122 13q-128-39-256-174-128-134-128-230 0-147 499-172l826-39q352-13 563-199 211-185 211-486 0-371-384-672-531-409-1280-409-460 0-784 183-323 182-323 438 0 179 141 355T806 6q-204 96-272 166-67 71-67 174 0 185 295 441 147 128 275 256-320 160-458 358-137 199-137 500 0 435 310 739t758 304q256 0 512-96l141-51q186-64 352-64h493zM973 2163v-19q0-461 182-746 183-284 477-284 218 0 346 156 128 157 128 420 0 422-192 774-160 301-468 301-224 0-349-160-124-160-124-442M2771-410q0 180-176 247t-617 67q-634 0-1037 83-192-230-253-335-61-106-61-215 0-211 253-339t675-128q544 0 880 170 336 169 336 450" transform="scale(.01563)"/>
            <path id="STIXGeneral-Regular-6c" d="M1645 0H134v96q301 26 397 125t96 368v3001q0 231-58 320-57 90-211 90-134 0-236-13v103q608 147 1011 281l32-25V557q0-269 89-356 90-86 391-105z" transform="scale(.01563)"/>
            <path id="STIXGeneral-Regular-79" d="M3040 2880v-96q-115-13-186-84-70-70-134-242L1760-160q-250-678-503-956-252-279-617-279-205 0-327 106-121 105-121 265 0 122 80 208t195 86q186 0 333-83 83-45 166-45 135 0 320 282 90 128 173 365t83 326q0 83-268 647L429 2566q-83 186-339 224v90h1312v-96q-205-6-285-45-80-38-80-128 0-70 83-262l717-1600 621 1766q25 58 25 115 0 154-294 154v96z" transform="scale(.01563)"/>
            <path id="STIXGeneral-Regular-64" d="M3142 269 2202-64l-26 19v410Q1869-64 1357-64q-531 0-858 381-326 381-326 995 0 678 390 1155 391 477 941 477 346 0 672-275v998q0 199-58 263-57 64-236 64-90 0-141-7v103q582 153 941 281l32-13V730q0-224 54-295 54-70 227-70 39 0 147 6zm-966 384v1472q0 256-195 448t-458 192q-365 0-583-327-217-326-217-870 0-589 240-944t643-355q301 0 474 205 96 108 96 179" transform="scale(.01563)"/>
            <path id="STIXGeneral-Regular-61" d="M2829 422V243Q2586-64 2253-64q-365 0-410 467h-6Q1427-64 909-64q-301 0-487 176-185 176-185 490 0 448 448 748 307 205 1152 519v345q0 288-138 432-137 144-361 144-192 0-320-93-128-92-128-220 0-58 19-129 19-70 19-140 0-96-87-179-86-83-207-83-109 0-193 83-83 83-83 211 0 307 327 512 301 192 736 192 518 0 755-288 115-134 147-272t32-438V723q0-422 199-422 128 0 275 121m-992 391v902q-589-205-819-422-218-199-218-493 0-243 121-368 122-125 321-125 211 0 371 103 134 96 179 179t45 224" transform="scale(.01563)"/>
          </defs>
          <use xlink:href="#STIXGeneral-Regular-53"/>
          <use xlink:href="#STIXGeneral-Regular-74" x="55.6"/>
          <use xlink:href="#STIXGeneral-Regular-72" x="83.4"/>
          <use xlink:href="#STIXGeneral-Regular-6f" x="116.7"/>
          <use xlink:href="#STIXGeneral-Regular-6e" x="166.7"/>
          <use xlink:href="#STIXGeneral-Regular-67" x="216.7"/>
          <use xlink:href="#STIXGeneral-Regular-6c" x="266.7"/>
          <use xlink:href="#STIXGeneral-Regular-79" x="294.5"/>
          <use xlink:href="#STIXGeneral-Regular-64" x="369.5"/>
          <use xlink:href="#STIXGeneral-Regular-69" x="419.5"/>
          <use xlink:href="#STIXGeneral-Regular-73" x="447.3"/>
          <use xlink:href="#STIXGeneral-Regular-61" x="486.2"/>
          <use xlink:href="#STIXGeneral-Regular-67" x="530.6"/>
          <use xlink:href="#STIXGeneral-Regular-72" x="580.6"/>
          <use xlink:href="#STIXGeneral-Regular-65" x="613.9"/>
          <use xlink:href="#STIXGeneral-Regular-65" x="658.3"/>
        </g>
        <path d="M204.2 16.196h19.992V9.2H204.2z" style="fill:#f7b599;stroke:#000;stroke-width:.8;stroke-linejoin:miter" id="patch_35"/>
        <g style="fill:#323034" transform="matrix(.09996 0 0 -.09996 232.189 16.196)" id="text_27">
          <defs>
            <path id="STIXGeneral-Regular-44" d="M102 4237h1728q1248 0 1920-583 634-544 634-1516 0-1172-870-1728Q2880 0 1901 0H102v122q372 25 468 130 96 106 96 484v2784q0 371-96 470-96 100-468 125zm1216-506V538q0-173 61-237t247-64q499 0 806 70 307 71 589 263 665 448 665 1529 0 928-608 1459-275 244-602 343-326 99-818 99-186 0-263-58-77-57-77-211" transform="scale(.01563)"/>
          </defs>
          <use xlink:href="#STIXGeneral-Regular-44"/>
          <use xlink:href="#STIXGeneral-Regular-69" x="72.2"/>
          <use xlink:href="#STIXGeneral-Regular-73" x="100"/>
          <use xlink:href="#STIXGeneral-Regular-61" x="138.9"/>
          <use xlink:href="#STIXGeneral-Regular-67" x="183.3"/>
          <use xlink:href="#STIXGeneral-Regular-72" x="233.3"/>
          <use xlink:href="#STIXGeneral-Regular-65" x="266.6"/>
          <use xlink:href="#STIXGeneral-Regular-65" x="311"/>
        </g>
        <path d="M282.71 16.196h19.992V9.2H282.71z" style="fill:#dcdddd;stroke:#000;stroke-width:.8;stroke-linejoin:miter" id="patch_36"/>
        <g style="fill:#323034" transform="matrix(.09996 0 0 -.09996 310.7 16.196)" id="text_28">
          <defs>
            <path id="STIXGeneral-Regular-4e" d="M4525 4237v-122q-327-32-423-115-102-90-144-244-41-153-41-511V-70h-115L979 3443V960q0-486 109-637 109-150 486-201V0H77v122q397 44 509 188t112 650v2816q-167 205-282 272t-339 67v122h1088l2470-3091v2176q0 486-121 627-77 83-170 112t-336 54v122z" transform="scale(.01563)"/>
            <path id="STIXGeneral-Regular-68" d="M3117 0H1760v96q282 32 358 128 77 96 77 429v1267q0 678-473 678-192 0-352-90-160-89-365-313V653q0-333 76-429 77-96 359-128V0H58v96q275 38 342 128t67 429v3014q0 205-61 266-60 61-265 61-58 0-77-7v103l173 51q493 147 736 230l32-19V2406q224 288 441 413 218 125 500 125 787 0 787-1018V653q0-333 60-420 61-86 324-137z" transform="scale(.01563)"/>
          </defs>
          <use xlink:href="#STIXGeneral-Regular-4e"/>
          <use xlink:href="#STIXGeneral-Regular-65" x="72.2"/>
          <use xlink:href="#STIXGeneral-Regular-69" x="116.6"/>
          <use xlink:href="#STIXGeneral-Regular-74" x="144.4"/>
          <use xlink:href="#STIXGeneral-Regular-68" x="172.2"/>
          <use xlink:href="#STIXGeneral-Regular-65" x="222.2"/>
          <use xlink:href="#STIXGeneral-Regular-72" x="266.6"/>
          <use xlink:href="#STIXGeneral-Regular-61" x="324.9"/>
          <use xlink:href="#STIXGeneral-Regular-67" x="369.3"/>
          <use xlink:href="#STIXGeneral-Regular-72" x="419.3"/>
          <use xlink:href="#STIXGeneral-Regular-65" x="452.6"/>
          <use xlink:href="#STIXGeneral-Regular-65" x="497"/>
          <use xlink:href="#STIXGeneral-Regular-6e" x="566.4"/>
          <use xlink:href="#STIXGeneral-Regular-6f" x="616.4"/>
          <use xlink:href="#STIXGeneral-Regular-72" x="666.4"/>
          <use xlink:href="#STIXGeneral-Regular-64" x="724.7"/>
          <use xlink:href="#STIXGeneral-Regular-69" x="774.7"/>
          <use xlink:href="#STIXGeneral-Regular-73" x="802.5"/>
          <use xlink:href="#STIXGeneral-Regular-61" x="841.4"/>
          <use xlink:href="#STIXGeneral-Regular-67" x="885.8"/>
          <use xlink:href="#STIXGeneral-Regular-72" x="935.8"/>
          <use xlink:href="#STIXGeneral-Regular-65" x="969.1"/>
          <use xlink:href="#STIXGeneral-Regular-65" x="1013.5"/>
        </g>
        <path d="M431.445 16.196h19.992V9.2h-19.992z" style="fill:#a7c5fe;stroke:#000;stroke-width:.8;stroke-linejoin:miter" id="patch_37"/>
        <g style="fill:#323034" transform="matrix(.09996 0 0 -.09996 459.434 16.196)" id="text_29">
          <defs>
            <path id="STIXGeneral-Regular-41" d="M4525 0H2893v122q256 0 352 57 89 45 89 154 0 166-121 448l-263 601H1274L979 653q-57-147-57-269 0-147 105-205 106-57 343-57V0H96v122q269 25 390 194 122 170 416 874l1319 3124h128L3923 710q141-332 253-448 112-115 349-140zM2861 1645l-743 1760-736-1760z" transform="scale(.01563)"/>
          </defs>
          <use xlink:href="#STIXGeneral-Regular-41"/>
          <use xlink:href="#STIXGeneral-Regular-67" x="72.2"/>
          <use xlink:href="#STIXGeneral-Regular-72" x="122.2"/>
          <use xlink:href="#STIXGeneral-Regular-65" x="155.5"/>
          <use xlink:href="#STIXGeneral-Regular-65" x="199.9"/>
        </g>
        <path d="M498.849 16.196h19.992V9.2h-19.992z" style="fill:#6a8bef;stroke:#000;stroke-width:.8;stroke-linejoin:miter" id="patch_38"/>
        <g style="fill:#323034" transform="matrix(.09996 0 0 -.09996 526.838 16.196)" id="text_30">
          <use xlink:href="#STIXGeneral-Regular-53"/>
          <use xlink:href="#STIXGeneral-Regular-74" x="55.6"/>
          <use xlink:href="#STIXGeneral-Regular-72" x="83.4"/>
          <use xlink:href="#STIXGeneral-Regular-6f" x="116.7"/>
          <use xlink:href="#STIXGeneral-Regular-6e" x="166.7"/>
          <use xlink:href="#STIXGeneral-Regular-67" x="216.7"/>
          <use xlink:href="#STIXGeneral-Regular-6c" x="266.7"/>
          <use xlink:href="#STIXGeneral-Regular-79" x="294.5"/>
          <use xlink:href="#STIXGeneral-Regular-61" x="369.5"/>
          <use xlink:href="#STIXGeneral-Regular-67" x="413.9"/>
          <use xlink:href="#STIXGeneral-Regular-72" x="463.9"/>
          <use xlink:href="#STIXGeneral-Regular-65" x="497.2"/>
          <use xlink:href="#STIXGeneral-Regular-65" x="541.6"/>
        </g>
      </g>
    </g>
  </g>
  <defs>
    <clipPath id="p88414deb6a">
      <path d="M83.978 25.372h558v277.2h-558z"/>
    </clipPath>
  </defs>
</svg>
