<svg xmlns="http://www.w3.org/2000/svg" xmlns:xlink="http://www.w3.org/1999/xlink" width="1280" height="720"><defs><clipPath id="clip0"><rect x="0" y="0" width="1280" height="720"/></clipPath><clipPath id="clip1"><rect x="27" y="51" width="1230" height="653"/></clipPath><clipPath id="clip2"><rect x="98" y="71" width="1034" height="588"/></clipPath><clipPath id="clip3"><rect x="98" y="71" width="1034" height="588"/></clipPath><clipPath id="clip4"><rect x="98" y="71" width="1034" height="588"/></clipPath><clipPath id="clip5"><rect x="27" y="51" width="1230" height="653"/></clipPath><clipPath id="clip6"><rect x="27" y="51" width="1230" height="653"/></clipPath><clipPath id="clip7"><rect x="27" y="51" width="1230" height="653"/></clipPath><clipPath id="clip8"><rect x="27" y="51" width="1230" height="653"/></clipPath><clipPath id="clip9"><rect x="27" y="51" width="1230" height="653"/></clipPath><clipPath id="clip10"><rect x="27" y="51" width="1230" height="653"/></clipPath><clipPath id="clip11"><rect x="27" y="51" width="1230" height="653"/></clipPath><clipPath id="clip12"><rect x="27" y="51" width="1230" height="653"/></clipPath><clipPath id="clip13"><rect x="27" y="51" width="1230" height="653"/></clipPath><clipPath id="clip14"><rect x="27" y="51" width="1230" height="653"/></clipPath><clipPath id="clip15"><rect x="27" y="51" width="1230" height="653"/></clipPath><clipPath id="clip16"><rect x="27" y="51" width="1230" height="653"/></clipPath><clipPath id="clip17"><rect x="27" y="51" width="1230" height="653"/></clipPath><clipPath id="clip18"><rect x="27" y="51" width="1230" height="653"/></clipPath><clipPath id="clip19"><rect x="27" y="51" width="1230" height="653"/></clipPath><clipPath id="clip20"><rect x="27" y="51" width="1230" height="653"/></clipPath><clipPath id="clip21"><rect x="27" y="51" width="1230" height="653"/></clipPath><clipPath id="clip22"><rect x="27" y="51" width="1230" height="653"/></clipPath><clipPath id="clip23"><rect x="27" y="51" width="1230" height="653"/></clipPath><clipPath id="clip24"><rect x="27" y="51" width="1230" height="653"/></clipPath><clipPath id="clip25"><rect x="27" y="51" width="1230" height="653"/></clipPath><clipPath id="clip26"><rect x="27" y="51" width="1230" height="653"/></clipPath><clipPath id="clip27"><rect x="27" y="51" width="1230" height="653"/></clipPath><clipPath id="clip28"><rect x="27" y="51" width="1230" height="653"/></clipPath><clipPath id="clip29"><rect x="27" y="51" width="1230" height="653"/></clipPath><clipPath id="clip30"><rect x="27" y="51" width="1230" height="653"/></clipPath><clipPath id="clip31"><rect x="27" y="51" width="1230" height="653"/></clipPath><clipPath id="clip32"><rect x="27" y="51" width="1230" height="653"/></clipPath><clipPath id="clip33"><rect x="27" y="51" width="1230" height="653"/></clipPath><clipPath id="clip34"><rect x="27" y="51" width="1230" height="653"/></clipPath><clipPath id="clip35"><rect x="27" y="51" width="1230" height="653"/></clipPath></defs><g clip-path="url(#clip0)"><rect x="0" y="0" width="1280" height="720" fill="#FFFFFF"/><g clip-path="url(#clip1)"><path d="M98.5001 658.5 1131.5 658.5M98.5001 585.5 1131.5 585.5M98.5001 511.5 1131.5 511.5M98.5001 438.5 1131.5 438.5M98.5001 291.5 1131.5 291.5M98.5001 218.5 1131.5 218.5M98.5001 145.5 1131.5 145.5M98.5001 71.5001 1131.5 71.5001" stroke="#D9D9D9" stroke-linejoin="round" stroke-miterlimit="10" fill="none"/></g><g clip-path="url(#clip2)"><path d="M113 307 153 307 153 365 113 365ZM182 233 222 233 222 365 182 365ZM251 336 290 336 290 365 251 365ZM320 351 359 351 359 365 320 365ZM389 483 428 483 428 365 389 365ZM458 351 497 351 497 365 458 365ZM527 233 566 233 566 365 527 365ZM595 277 635 277 635 365 595 365ZM664 219 704 219 704 365 664 365ZM733 263 773 263 773 365 733 365ZM871 277 910 277 910 365 871 365ZM940 321 979 321 979 365 940 365ZM1078 453 1117 453 1117 365 1078 365Z" fill="#12436D"/></g><g clip-path="url(#clip3)"><path d="M113 439 153 439 153 365 113 365ZM182 439 222 439 222 365 182 365ZM251 395 290 395 290 365 251 365ZM320 468 359 468 359 365 320 365ZM389 556 428 556 428 483 389 483ZM595 160 635 160 635 277 595 277ZM664 175 704 175 704 219 664 219ZM733 395 773 395 773 365 733 365ZM802 321 841 321 841 365 802 365ZM871 219 910 219 910 277 871 277ZM1009 263 1048 263 1048 365 1009 365ZM1078 351 1117 351 1117 365 1078 365Z" fill="#F46A25"/></g><g clip-path="url(#clip4)"><path d="M113 453 153 453 153 439 113 439ZM182 219 222 219 222 233 182 233ZM251 409 290 409 290 395 251 395ZM320 336 359 336 359 351 320 351ZM389 585 428 585 428 556 389 556ZM595 380 635 380 635 365 595 365ZM733 409 773 409 773 395 733 395ZM1009 380 1048 380 1048 365 1009 365ZM1078 336 1117 336 1117 351 1078 351Z" fill="#28A197"/></g><g clip-path="url(#clip5)"><path d="M98.5001 365.5 1131.5 365.5" stroke="#D9D9D9" stroke-linejoin="round" stroke-miterlimit="10" fill="none" fill-rule="evenodd"/></g><g clip-path="url(#clip6)"><text fill="#595959" font-family="Arial,Arial_MSFontService,sans-serif" font-weight="400" font-size="24" transform="translate(56.5509 667)">-2</text></g><g clip-path="url(#clip7)"><text fill="#595959" font-family="Arial,Arial_MSFontService,sans-serif" font-weight="400" font-size="24" transform="translate(36.5375 593)">-1.5</text></g><g clip-path="url(#clip8)"><text fill="#595959" font-family="Arial,Arial_MSFontService,sans-serif" font-weight="400" font-size="24" transform="translate(56.5509 520)">-1</text></g><g clip-path="url(#clip9)"><text fill="#595959" font-family="Arial,Arial_MSFontService,sans-serif" font-weight="400" font-size="24" transform="translate(36.5375 446)">-0.5</text></g><g clip-path="url(#clip10)"><text fill="#595959" font-family="Arial,Arial_MSFontService,sans-serif" font-weight="400" font-size="24" transform="translate(64.5443 373)">0</text></g><g clip-path="url(#clip11)"><text fill="#595959" font-family="Arial,Arial_MSFontService,sans-serif" font-weight="400" font-size="24" transform="translate(44.5309 300)">0.5</text></g><g clip-path="url(#clip12)"><text fill="#595959" font-family="Arial,Arial_MSFontService,sans-serif" font-weight="400" font-size="24" transform="translate(64.5443 226)">1</text></g><g clip-path="url(#clip13)"><text fill="#595959" font-family="Arial,Arial_MSFontService,sans-serif" font-weight="400" font-size="24" transform="translate(44.5309 153)">1.5</text></g><g clip-path="url(#clip14)"><text fill="#595959" font-family="Arial,Arial_MSFontService,sans-serif" font-weight="400" font-size="24" transform="translate(64.5443 80)">2</text></g><g clip-path="url(#clip15)"><text fill="#595959" font-family="Arial,Arial_MSFontService,sans-serif" font-weight="400" font-size="21" transform="translate(109.248 691)">2005</text></g><g clip-path="url(#clip16)"><text fill="#595959" font-family="Arial,Arial_MSFontService,sans-serif" font-weight="400" font-size="21" transform="translate(178.131 691)">2006</text></g><g clip-path="url(#clip17)"><text fill="#595959" font-family="Arial,Arial_MSFontService,sans-serif" font-weight="400" font-size="21" transform="translate(247.014 691)">2007</text></g><g clip-path="url(#clip18)"><text fill="#595959" font-family="Arial,Arial_MSFontService,sans-serif" font-weight="400" font-size="21" transform="translate(315.897 691)">2008</text></g><g clip-path="url(#clip19)"><text fill="#595959" font-family="Arial,Arial_MSFontService,sans-serif" font-weight="400" font-size="21" transform="translate(384.78 691)">2009</text></g><g clip-path="url(#clip20)"><text fill="#595959" font-family="Arial,Arial_MSFontService,sans-serif" font-weight="400" font-size="21" transform="translate(453.663 691)">2010</text></g><g clip-path="url(#clip21)"><text fill="#595959" font-family="Arial,Arial_MSFontService,sans-serif" font-weight="400" font-size="21" transform="translate(522.546 691)">2011</text></g><g clip-path="url(#clip22)"><text fill="#595959" font-family="Arial,Arial_MSFontService,sans-serif" font-weight="400" font-size="21" transform="translate(591.429 691)">2012</text></g><g clip-path="url(#clip23)"><text fill="#595959" font-family="Arial,Arial_MSFontService,sans-serif" font-weight="400" font-size="21" transform="translate(660.312 691)">2013</text></g><g clip-path="url(#clip24)"><text fill="#595959" font-family="Arial,Arial_MSFontService,sans-serif" font-weight="400" font-size="21" transform="translate(729.195 691)">2014</text></g><g clip-path="url(#clip25)"><text fill="#595959" font-family="Arial,Arial_MSFontService,sans-serif" font-weight="400" font-size="21" transform="translate(798.078 691)">2015</text></g><g clip-path="url(#clip26)"><text fill="#595959" font-family="Arial,Arial_MSFontService,sans-serif" font-weight="400" font-size="21" transform="translate(866.961 691)">2016</text></g><g clip-path="url(#clip27)"><text fill="#595959" font-family="Arial,Arial_MSFontService,sans-serif" font-weight="400" font-size="21" transform="translate(935.844 691)">2017</text></g><g clip-path="url(#clip28)"><text fill="#595959" font-family="Arial,Arial_MSFontService,sans-serif" font-weight="400" font-size="21" transform="translate(1004.73 691)">2018</text></g><g clip-path="url(#clip29)"><text fill="#595959" font-family="Arial,Arial_MSFontService,sans-serif" font-weight="400" font-size="21" transform="translate(1073.61 691)">2019</text></g><g clip-path="url(#clip30)"><rect x="1152" y="321" width="12" height="12" fill="#28A197"/></g><g clip-path="url(#clip31)"><text font-family="Arial,Arial_MSFontService,sans-serif" font-weight="400" font-size="24" transform="translate(1169.87 335)">Area 3</text></g><g clip-path="url(#clip32)"><rect x="1152" y="358" width="12" height="12" fill="#F46A25"/></g><g clip-path="url(#clip33)"><text font-family="Arial,Arial_MSFontService,sans-serif" font-weight="400" font-size="24" transform="translate(1169.87 372)">Area 2</text></g><g clip-path="url(#clip34)"><rect x="1152" y="394" width="12" height="12" fill="#12436D"/></g><g clip-path="url(#clip35)"><text font-family="Arial,Arial_MSFontService,sans-serif" font-weight="400" font-size="24" transform="translate(1169.87 408)">Area 1</text></g><text fill="#595959" font-family="Arial,Arial_MSFontService,sans-serif" font-weight="400" font-size="27" transform="translate(45.1171 41)">%</text></g></svg>