<svg style="display:block;background:#fff">
  <g class="collection214">
    <path class="ring0" d="m311.729 130.99 8.377-49.294A120 120 9.646 0 0 300 80v50a70 70 9.646 0 1 11.729.99" style="fill:#8dd3c7;stroke:#888;stroke-width:1;opacity:1;stroke-dasharray:none"/>
    <g/>
    <path class="ring0" d="m345.703 146.979 32.645-37.872a120 120 31.115 0 0-58.242-27.41l-8.377 49.293a70 70 31.115 0 1 33.974 15.989" style="fill:#ffffb3;stroke:#888;stroke-width:1;opacity:1;stroke-dasharray:none"/>
    <g/>
    <path class="ring0" d="m351.697 152.804 36.926-33.711a120 120 6.845 0 0-10.275-9.986l-32.645 37.872a70 70 6.845 0 1 5.994 5.825" style="fill:#bebada;stroke:#888;stroke-width:1;opacity:1;stroke-dasharray:none"/>
    <g/>
    <path class="ring0" d="m364.825 173.586 46.304-18.868a120 120 20.225 0 0-22.506-35.625l-36.926 33.711a70 70 20.225 0 1 13.128 20.782" style="fill:#fb8072;stroke:#888;stroke-width:1;opacity:1;stroke-dasharray:none"/>
    <g/>
    <path class="ring0" d="m244.75 242.983-39.463 30.702A120 120 164.287 0 0 411.13 154.718l-46.304 18.868a70 70 164.287 0 1-120.074 69.397" style="fill:#80b1d3;stroke:#888;stroke-width:1;opacity:1;stroke-dasharray:none"/>
    <g/>
    <path class="ring0" d="m233.533 221.956-47.477 15.683a120 120 19.602 0 0 19.231 36.046l39.464-30.702a70 70 19.602 0 1-11.218-21.027" style="fill:#fdb462;stroke:#888;stroke-width:1;opacity:1;stroke-dasharray:none"/>
    <g/>
    <path class="ring0" d="m230.003 200.665-49.998.475a120 120 17.736 0 0 6.05 36.5l47.478-15.684a70 70 17.736 0 1-3.53-21.29" style="fill:#b3de69;stroke:#888;stroke-width:1;opacity:1;stroke-dasharray:none"/>
    <g/>
    <path class="ring0" d="m230.272 193.83-49.805-4.406a120 120 5.6 0 0-.462 11.716l49.998-.475a70 70 5.6 0 1 .27-6.834" style="fill:#fccde5;stroke:#888;stroke-width:1;opacity:1;stroke-dasharray:none"/>
    <g/>
    <path class="ring0" d="m230.606 190.808-49.567-6.565a120 120 2.49 0 0-.572 5.181l49.805 4.407a70 70 2.49 0 1 .334-3.023" style="fill:#d9d9d9;stroke:#888;stroke-width:1;opacity:1;stroke-dasharray:none"/>
    <g/>
    <path class="ring0" d="m234.753 174.645-46.605-18.11a120 120 13.69 0 0-7.109 27.708l49.567 6.565a70 70 13.69 0 1 4.147-16.163" style="fill:#bc80bd;stroke:#888;stroke-width:1;opacity:1;stroke-dasharray:none"/>
    <g/>
    <path class="ring0" d="m272.97 135.429-19.306-46.122a120 120 46.05 0 0-65.516 67.228l46.605 18.11a70 70 46.05 0 1 38.218-39.216" style="fill:#ccebc5;stroke:#888;stroke-width:1;opacity:1;stroke-dasharray:none"/>
    <g/>
    <path class="ring0" d="M300 130V80a120 120 22.714 0 0-46.336 9.307l19.307 46.122A70 70 22.714 0 1 300 130" style="fill:#ffed6f;stroke:#888;stroke-width:1;opacity:1;stroke-dasharray:none"/>
    <g/>
  </g>
  <text alignment-baseline="text-before-edge" dominant-baseline="text-before-edge" x="450" y="80" style="fill:#555;font-size:12px;font-family:Arial,sans-serif;font-weight:400">category</text>
  <g class="collection215">
    <g class="glyph62">
      <path class="rect4147" style="fill:#8dd3c7;stroke:#888;stroke-width:1;opacity:1;stroke-dasharray:none" d="M450 99h10v10h-10z"/>
      <g/>
      <text class="pointText484" alignment-baseline="text-before-edge" dominant-baseline="text-before-edge" x="470" y="97" style="fill:#555;font-size:12px;font-family:Arial,sans-serif;font-weight:400">Care for household members</text>
    </g>
    <g class="glyph62">
      <path class="rect4147" style="fill:#ffffb3;stroke:#888;stroke-width:1;opacity:1;stroke-dasharray:none" d="M450 118h10v10h-10z"/>
      <g/>
      <text class="pointText484" alignment-baseline="text-before-edge" dominant-baseline="text-before-edge" x="470" y="116" style="fill:#555;font-size:12px;font-family:Arial,sans-serif;font-weight:400">Housework</text>
    </g>
    <g class="glyph62">
      <path class="rect4147" style="fill:#bebada;stroke:#888;stroke-width:1;opacity:1;stroke-dasharray:none" d="M450 137h10v10h-10z"/>
      <g/>
      <text class="pointText484" alignment-baseline="text-before-edge" dominant-baseline="text-before-edge" x="470" y="135" style="fill:#555;font-size:12px;font-family:Arial,sans-serif;font-weight:400">Shopping</text>
    </g>
    <g class="glyph62">
      <path class="rect4147" style="fill:#fb8072;stroke:#888;stroke-width:1;opacity:1;stroke-dasharray:none" d="M450 156h10v10h-10z"/>
      <g/>
      <text class="pointText484" alignment-baseline="text-before-edge" dominant-baseline="text-before-edge" x="470" y="154" style="fill:#555;font-size:12px;font-family:Arial,sans-serif;font-weight:400">Other unpaid work &amp; volunteering</text>
    </g>
    <g class="glyph62">
      <path class="rect4147" style="fill:#80b1d3;stroke:#888;stroke-width:1;opacity:1;stroke-dasharray:none" d="M450 175h10v10h-10z"/>
      <g/>
      <text class="pointText484" alignment-baseline="text-before-edge" dominant-baseline="text-before-edge" x="470" y="173" style="fill:#555;font-size:12px;font-family:Arial,sans-serif;font-weight:400">Sleep</text>
    </g>
    <g class="glyph62">
      <path class="rect4147" style="fill:#fdb462;stroke:#888;stroke-width:1;opacity:1;stroke-dasharray:none" d="M450 194h10v10h-10z"/>
      <g/>
      <text class="pointText484" alignment-baseline="text-before-edge" dominant-baseline="text-before-edge" x="470" y="192" style="fill:#555;font-size:12px;font-family:Arial,sans-serif;font-weight:400">Eating and drinking</text>
    </g>
    <g class="glyph62">
      <path class="rect4147" style="fill:#b3de69;stroke:#888;stroke-width:1;opacity:1;stroke-dasharray:none" d="M450 213h10v10h-10z"/>
      <g/>
      <text class="pointText484" alignment-baseline="text-before-edge" dominant-baseline="text-before-edge" x="470" y="211" style="fill:#555;font-size:12px;font-family:Arial,sans-serif;font-weight:400">Personal care</text>
    </g>
    <g class="glyph62">
      <path class="rect4147" style="fill:#fccde5;stroke:#888;stroke-width:1;opacity:1;stroke-dasharray:none" d="M450 232h10v10h-10z"/>
      <g/>
      <text class="pointText484" alignment-baseline="text-before-edge" dominant-baseline="text-before-edge" x="470" y="230" style="fill:#555;font-size:12px;font-family:Arial,sans-serif;font-weight:400">Sports</text>
    </g>
    <g class="glyph62">
      <path class="rect4147" style="fill:#d9d9d9;stroke:#888;stroke-width:1;opacity:1;stroke-dasharray:none" d="M450 251h10v10h-10z"/>
      <g/>
      <text class="pointText484" alignment-baseline="text-before-edge" dominant-baseline="text-before-edge" x="470" y="249" style="fill:#555;font-size:12px;font-family:Arial,sans-serif;font-weight:400">Attending events</text>
    </g>
    <g class="glyph62">
      <path class="rect4147" style="fill:#bc80bd;stroke:#888;stroke-width:1;opacity:1;stroke-dasharray:none" d="M450 270h10v10h-10z"/>
      <g/>
      <text class="pointText484" alignment-baseline="text-before-edge" dominant-baseline="text-before-edge" x="470" y="268" style="fill:#555;font-size:12px;font-family:Arial,sans-serif;font-weight:400">Seeing friends</text>
    </g>
    <g class="glyph62">
      <path class="rect4147" style="fill:#ccebc5;stroke:#888;stroke-width:1;opacity:1;stroke-dasharray:none" d="M450 289h10v10h-10z"/>
      <g/>
      <text class="pointText484" alignment-baseline="text-before-edge" dominant-baseline="text-before-edge" x="470" y="287" style="fill:#555;font-size:12px;font-family:Arial,sans-serif;font-weight:400">TV and Radio</text>
    </g>
    <g class="glyph62">
      <path class="rect4147" style="fill:#ffed6f;stroke:#888;stroke-width:1;opacity:1;stroke-dasharray:none" d="M450 308h10v10h-10z"/>
      <g/>
      <text class="pointText484" alignment-baseline="text-before-edge" dominant-baseline="text-before-edge" x="470" y="306" style="fill:#555;font-size:12px;font-family:Arial,sans-serif;font-weight:400">Other leisure activities</text>
    </g>
  </g>
</svg>
