<svg xmlns="http://www.w3.org/2000/svg" width="600" height="600" aria-label="Nuclear energy production from 1965 to 2021 in US, UK,​France, Germany, and Japan" class="highcharts-root" style="font-family:Helvetica,Arial,sans-serif;font-size:1rem"><rect width="600" height="600" fill="#fff" class="highcharts-background" filter="none" rx="0" ry="0"/><path fill="none" d="M10 70H590V585H10z" class="highcharts-plot-background" filter="none"/><path fill="none" d="M10 70H590V585H10z" class="highcharts-plot-border" data-z-index="1"/><g class="highcharts-series-group" data-z-index="3" filter="none"><g class="highcharts-series highcharts-series-0 highcharts-pie-series highcharts-tracker" data-z-index=".1" filter="none"><path fill="#FCE700" d="M 289.9502056504242 13.018410671636133 A 3 3 0 0 1 292.9864044297731 10.018018052663393 A 247.5 247.5 0 0 1 296.0693963727644 10.074430529764612 A 3 3 0 0 1 298.99379729571 13.183889990439468 L 297.3934068369994 56.658426775374494 A 3 3 0 0 1 294.32983392879606 59.547347736512904 A 198 198 0 0 0 292.91490101701055 59.521457344334834 A 3 3 0 0 1 289.95906624615907 56.52239347522371 Z" class="highcharts-point highcharts-color-0" transform="translate(10 70)"/><path fill="#F8C4B4" d="M 298.9939947228667 13.183897258234225 A 3 3 0 0 1 302.13910466005836 10.297871898213316 A 247.5 247.5 0 0 1 364.4465553461575 21.461951378402745 A 3 3 0 0 1 366.3939525584137 25.260438313144334 L 352.8001224155002 66.58602821009094 A 3 3 0 0 1 349.0555614796594 68.51206213537813 A 198 198 0 0 0 300.2364408196862 59.764784928569014 A 3 3 0 0 1 297.3935691332178 56.65843274991025 Z" class="highcharts-point highcharts-color-1" transform="translate(10 70)"/><path fill="#f6e1ea" d="M 366.3941402267214 25.26050004570706 A 3 3 0 0 1 370.21623719714216 23.35985972086752 A 247.5 247.5 0 1 1 56.928230844727636 174.2305552868795 A 3 3 0 0 1 60.79725777534094 172.4273665818643 L 101.5824644801464 187.5655141677247 A 3 3 0 0 1 103.36633274020002 191.3798499309154 A 198 198 0 1 0 354.6702040565703 70.35897107453545 A 3 3 0 0 1 352.80027668939624 66.58607895772695 Z" class="highcharts-point highcharts-color-2" transform="translate(10 70)"/><path fill="#B8E8FC" d="M 58.893835168771915 171.72066528675765 A 0.9860531578884512 0.9860531578884512 0 0 1 58.313904616416664 170.4494215647643 A 247.5 247.5 0 0 1 58.313834272590555 170.4496087858799 A 0.9860531578884512 0.9860531578884512 0 0 1 59.58738707615282 169.8747668051571 L 104.01173894354235 186.76921603913337 A 0.9860531578884512 0.9860531578884512 0 0 1 104.58461706999469 188.03680274476642 A 198 198 0 0 0 104.71774337180298 187.68248515764154 A 0.9860531578884512 0.9860531578884512 0 0 1 103.45190625222699 188.259218883696 Z" class="highcharts-point highcharts-color-3" transform="translate(10 70)"/><path fill="#BCE29E" d="M 61.4852362569479 170.5963018539655 A 3 3 0 0 1 59.76084190355772 166.6915197845407 A 247.5 247.5 0 0 1 286.86672503429884 10.019833950295492 A 3 3 0 0 1 289.9047038968896 13.01842417340987 L 289.921661247512 56.52240457444054 A 3 3 0 0 1 286.96760682652786 59.523222089959546 A 198 198 0 0 0 106.00224948238798 184.36431921108135 A 3 3 0 0 1 102.14802145706955 186.06027605382005 Z" class="highcharts-point highcharts-color-4" transform="translate(10 70)"/></g></g><text x="300" y="25" class="highcharts-title" data-z-index="4" style="font-size:1.2em;color:#333;font-weight:700;fill:#333" text-anchor="middle">Nuclear energy production from 1965 to 2021 in US, UK,<tspan x="300" dy="22">​</tspan>France, Germany, and Japan</text><text x="300" y="281" class="highcharts-subtitle" data-z-index="4" style="color:#666;font-size:.8em;fill:#666" text-anchor="middle"><tspan style="font-size:80px">1965</tspan>
        <tspan x="300" class="highcharts-br" dy="15">​</tspan>
<tspan style="font-size:22px">
            Total: <tspan style="font-weight:700"> 20.02</tspan> TWh
        </tspan></text><g class="highcharts-data-labels highcharts-series-0 highcharts-pie-series highcharts-tracker" data-z-index="6"><g class="highcharts-label highcharts-data-label highcharts-data-label-color-0" data-z-index="1" filter="none"><text x="5" y="20" data-z-index="1" style="color:#000;font-size:16px;font-weight:700;fill:#000" transform="translate(288 91)"><tspan fill="#FFF" stroke="#FFF" stroke-linejoin="round" stroke-width="2" class="highcharts-text-outline">DE<tspan x="5" dy="0">​</tspan></tspan>DE</text></g><g class="highcharts-label highcharts-data-label highcharts-data-label-color-1" data-z-index="1" filter="none"><text x="5" y="20" data-z-index="1" style="color:#000;font-size:16px;font-weight:700;fill:#000" transform="translate(324 94)"><tspan fill="#FFF" stroke="#FFF" stroke-linejoin="round" stroke-width="2" class="highcharts-text-outline">FR<tspan x="5" dy="0">​</tspan></tspan>FR</text></g><g class="highcharts-label highcharts-data-label highcharts-data-label-color-2" data-z-index="1" filter="none"><text x="5" y="20" data-z-index="1" style="color:#000;font-size:16px;font-weight:700;fill:#000" transform="translate(380 514)"><tspan fill="#FFF" stroke="#FFF" stroke-linejoin="round" stroke-width="2" class="highcharts-text-outline">UK<tspan x="5" dy="0">​</tspan></tspan>UK</text></g><g class="highcharts-label highcharts-data-label highcharts-data-label-color-3" data-z-index="1" filter="none"><text x="5" y="20" data-z-index="1" style="color:#000;font-size:16px;font-weight:700;fill:#000" transform="translate(77 235)"><tspan fill="#FFF" stroke="#FFF" stroke-linejoin="round" stroke-width="2" class="highcharts-text-outline">JP<tspan x="5" dy="0">​</tspan></tspan>JP</text></g><g class="highcharts-label highcharts-data-label highcharts-data-label-color-4" data-z-index="1" filter="none"><text x="5" y="20" data-z-index="1" style="color:#000;font-size:16px;font-weight:700;fill:#000" transform="translate(157 130)"><tspan fill="#FFF" stroke="#FFF" stroke-linejoin="round" stroke-width="2" class="highcharts-text-outline">US<tspan x="5" dy="0">​</tspan></tspan>US</text></g></g></svg>