<svg xmlns="http://www.w3.org/2000/svg" width="800" height="400" viewBox="0 0 800 400" fill="none">
  <path d="M665.108 369.43q.966 0 1.764.294.811.28 1.372.868.573.574.882 1.456.322.882.322 2.072v1.288q0 1.19-.322 2.058-.309.869-.882 1.428a3.55 3.55 0 0 1-1.372.84 5.6 5.6 0 0 1-1.764.266h-3.024v-10.57zm-2.002.924v8.722h2.002q.714 0 1.316-.182.615-.182 1.05-.602.433-.42.672-1.106.252-.685.252-1.68v-1.484q0-.952-.238-1.638-.238-.7-.672-1.148a2.6 2.6 0 0 0-1.05-.658 3.8 3.8 0 0 0-1.33-.224zm12.69 9.646v-.952a2.3 2.3 0 0 1-.994.868q-.617.28-1.4.28-1.191 0-1.806-.56-.603-.56-.602-1.568 0-1.204.77-1.736.77-.546 2.338-.546h1.694v-.448a4.3 4.3 0 0 0-.084-.896 1.6 1.6 0 0 0-.308-.672 1.34 1.34 0 0 0-.63-.42q-.393-.154-1.008-.154-.714 0-1.274.196-.56.181-1.12.672v-.966q.433-.35 1.008-.56.573-.21 1.54-.21.812 0 1.358.182.546.168.882.546.335.365.476.924.14.546.14 1.302V380zm-2.268-.644q.35 0 .714-.084.377-.084.686-.28.321-.21.546-.532.237-.322.322-.784v-1.05h-1.736q-1.176 0-1.638.336-.448.322-.448 1.064 0 .658.406.994.42.336 1.148.336m4.581-6.846h1.4v-2.31h.98v2.31h2.03v.84h-2.03v4.326q0 .84.28 1.246.294.392 1.05.392.224 0 .476-.028.253-.042.406-.098v.868a2 2 0 0 1-.406.084 3 3 0 0 1-.546.042q-1.19 0-1.722-.644-.518-.659-.518-1.806v-4.382h-1.4zm10.388 7.49v-.952a2.3 2.3 0 0 1-.994.868q-.617.28-1.4.28-1.191 0-1.806-.56-.603-.56-.602-1.568 0-1.204.77-1.736.77-.546 2.338-.546h1.694v-.448a4.3 4.3 0 0 0-.084-.896 1.6 1.6 0 0 0-.308-.672 1.34 1.34 0 0 0-.63-.42q-.393-.154-1.008-.154-.714 0-1.274.196-.56.181-1.12.672v-.966q.433-.35 1.008-.56.573-.21 1.54-.21.812 0 1.358.182.546.168.882.546.335.365.476.924.14.546.14 1.302V380zm-2.268-.644q.35 0 .714-.084.377-.084.686-.28.321-.21.546-.532.237-.322.322-.784v-1.05h-1.736q-1.176 0-1.638.336-.448.322-.448 1.064 0 .658.406.994.42.336 1.148.336m8.736-.714q.643.322 1.26.504.63.182 1.302.182.938 0 1.498-.336.574-.35.574-1.05 0-1.218-1.736-1.33l-.742-.056a4.2 4.2 0 0 1-.868-.14 2 2 0 0 1-.714-.35 1.7 1.7 0 0 1-.49-.616q-.182-.392-.182-.966 0-.518.224-.91.238-.406.616-.686.392-.28.896-.42a3.8 3.8 0 0 1 1.078-.154q.84 0 1.47.168.644.154 1.092.392v.98a4.4 4.4 0 0 0-1.288-.504 5.8 5.8 0 0 0-1.176-.14q-.924 0-1.442.336t-.518.98q0 .35.14.574t.364.364q.238.126.532.182t.616.084l.84.07q1.021.07 1.638.56.616.476.616 1.54 0 .588-.28 1.022a2.4 2.4 0 0 1-.714.714 3 3 0 0 1-.98.406q-.546.14-1.092.14-.63 0-1.344-.154a4.6 4.6 0 0 1-1.19-.42zm7.082-2.856q0-.854.224-1.498.237-.644.658-1.078.42-.434.994-.658a3.6 3.6 0 0 1 1.288-.224q.686 0 1.274.224a2.74 2.74 0 0 1 1.008.658q.433.434.672 1.078.237.644.238 1.498v.952q0 .854-.238 1.498a2.95 2.95 0 0 1-.672 1.078 2.74 2.74 0 0 1-1.008.658 3.6 3.6 0 0 1-1.274.224q-.7 0-1.288-.224a2.8 2.8 0 0 1-.994-.658q-.42-.434-.658-1.078-.225-.644-.224-1.498zm.966 1.022q0 1.218.588 1.862.602.644 1.61.644 1.035 0 1.624-.644.588-.658.588-1.862v-1.092q0-1.232-.602-1.876t-1.61-.644-1.61.644q-.588.644-.588 1.876zm13.36 3.192h-.98v-1.106q-.364.588-.952.938t-1.428.35q-1.414 0-2.058-.798-.63-.812-.63-2.296v-4.578h.966v4.578q0 1.204.518 1.694.517.476 1.372.476.447 0 .826-.14.392-.154.686-.434t.476-.686a2.8 2.8 0 0 0 .224-.924v-4.564h.98zm2.334-7.49h.966v1.316q.378-.672.994-1.078.617-.42 1.484-.42v.938a1 1 0 0 0-.126-.014h-.126a2 2 0 0 0-.84.182 2.2 2.2 0 0 0-.672.504 2.9 2.9 0 0 0-.49.756q-.182.42-.224.924V380h-.966zm7.561-.182q1.232 0 2.156.504v1.022a3.1 3.1 0 0 0-1.106-.518 4.2 4.2 0 0 0-1.05-.14q-.49 0-.91.14-.42.126-.728.434a2.05 2.05 0 0 0-.49.784q-.182.476-.182 1.176v1.064q0 .532.14.994t.42.812q.28.336.7.532.434.196 1.022.196.518 0 1.036-.154a4.8 4.8 0 0 0 1.134-.518v.924a3.4 3.4 0 0 1-.98.448 4.3 4.3 0 0 1-1.232.168q-.742 0-1.344-.252a3 3 0 0 1-1.008-.7 3.2 3.2 0 0 1-.644-1.092 4.3 4.3 0 0 1-.224-1.428v-.924q0-.756.196-1.386.196-.644.602-1.106.42-.462 1.036-.714.616-.266 1.456-.266m9.664 4.354h-5.152v.112q0 .546.14 1.008.154.462.462.798t.756.532q.462.196 1.092.196t1.232-.112 1.302-.56v.882q-.63.378-1.246.518-.615.14-1.386.14-1.568 0-2.45-.91-.867-.91-.868-2.562v-.924q0-.798.21-1.442a3.3 3.3 0 0 1 .616-1.092q.406-.448.966-.686a3.1 3.1 0 0 1 1.274-.252q1.386 0 2.212.826.84.826.84 2.506zm-5.152-.84h4.172v-.224q0-1.19-.504-1.806-.489-.616-1.554-.616-.447 0-.84.14a1.65 1.65 0 0 0-.672.448 2.3 2.3 0 0 0-.448.798q-.153.476-.154 1.148zm6.983 2.632h1.036V380h-1.036zm0-5.95h1.036v1.526h-1.036zm9.716 7.476h-1.134l-2.94-7.49h1.064l2.45 6.496 2.478-6.496h1.008zm4.41-7.49h.966V380h-.966zm-.042-3.08h1.05v1.526h-1.05zm3.028 9.212q.643.322 1.26.504.63.182 1.302.182.938 0 1.498-.336.574-.35.574-1.05 0-1.218-1.736-1.33l-.742-.056a4.2 4.2 0 0 1-.868-.14 2 2 0 0 1-.714-.35 1.7 1.7 0 0 1-.49-.616q-.182-.392-.182-.966 0-.518.224-.91.238-.406.616-.686.392-.28.896-.42a3.8 3.8 0 0 1 1.078-.154q.84 0 1.47.168.644.154 1.092.392v.98a4.4 4.4 0 0 0-1.288-.504 5.8 5.8 0 0 0-1.176-.14q-.924 0-1.442.336t-.518.98q0 .35.14.574t.364.364q.238.126.532.182t.616.084l.84.07q1.021.07 1.638.56.616.476.616 1.54 0 .588-.28 1.022a2.4 2.4 0 0 1-.714.714 3 3 0 0 1-.98.406q-.546.14-1.092.14-.63 0-1.344-.154a4.6 4.6 0 0 1-1.19-.42zm7.432-6.132h.966v1.12q.35-.602.924-.952t1.414-.35q.98 0 1.568.392t.854 1.148q.364-.714.98-1.12.616-.42 1.54-.42 1.414 0 2.044.812.644.798.644 2.282V380h-.98v-4.48q0-1.204-.546-1.736-.532-.532-1.386-.532-.882 0-1.442.574t-.63 1.61V380h-.98v-4.48q0-1.204-.518-1.736t-1.372-.532q-.895 0-1.47.574-.574.574-.644 1.61V380h-.966zm18.989 4.172h-5.152v.112q0 .546.14 1.008.153.462.462.798.307.336.756.532.462.196 1.092.196t1.232-.112 1.302-.56v.882q-.63.378-1.246.518-.617.14-1.386.14-1.569 0-2.45-.91-.868-.91-.868-2.562v-.924q0-.798.21-1.442.223-.644.616-1.092.405-.448.966-.686a3.1 3.1 0 0 1 1.274-.252q1.386 0 2.212.826.84.826.84 2.506zm-5.152-.84h4.172v-.224q0-1.19-.504-1.806-.49-.616-1.554-.616-.448 0-.84.14a1.6 1.6 0 0 0-.672.448 2.25 2.25 0 0 0-.448.798q-.154.476-.154 1.148zm6.968 2.632h1.036V380h-1.036zm6.17-6.146q1.232 0 2.156.504v1.022a3.1 3.1 0 0 0-1.106-.518 4.2 4.2 0 0 0-1.05-.14q-.49 0-.91.14-.42.126-.728.434a2 2 0 0 0-.49.784q-.183.476-.182 1.176v1.064q0 .532.14.994t.42.812q.28.336.7.532.434.196 1.022.196.517 0 1.036-.154a4.8 4.8 0 0 0 1.134-.518v.924a3.4 3.4 0 0 1-.98.448 4.3 4.3 0 0 1-1.232.168q-.742 0-1.344-.252a3 3 0 0 1-1.008-.7 3.2 3.2 0 0 1-.644-1.092 4.3 4.3 0 0 1-.224-1.428v-.924q0-.756.196-1.386.195-.644.602-1.106.42-.462 1.036-.714.615-.266 1.456-.266m3.546 3.458q0-.854.224-1.498.238-.644.658-1.078t.994-.658a3.6 3.6 0 0 1 1.288-.224q.686 0 1.274.224a2.74 2.74 0 0 1 1.008.658q.433.434.672 1.078.238.644.238 1.498v.952q0 .854-.238 1.498a2.95 2.95 0 0 1-.672 1.078 2.74 2.74 0 0 1-1.008.658 3.6 3.6 0 0 1-1.274.224q-.7 0-1.288-.224a2.8 2.8 0 0 1-.994-.658 3.05 3.05 0 0 1-.658-1.078q-.224-.644-.224-1.498zm.966 1.022q0 1.218.588 1.862.602.644 1.61.644 1.036 0 1.624-.644.588-.658.588-1.862v-1.092q0-1.232-.602-1.876t-1.61-.644-1.61.644q-.588.644-.588 1.876z" fill="#6E6D71"/>
  <path d="M698.538 229.008h-4.032V240h-1.168v-10.992h-4.208v-1.088h9.408zm6.336 7.2h-5.888v.128q0 .624.16 1.152.176.528.528.912.351.384.864.608.528.224 1.248.224c.72 0 .949-.043 1.408-.128q.687-.128 1.488-.64v1.008a4.9 4.9 0 0 1-1.424.592q-.705.16-1.584.16-1.792 0-2.8-1.04-.993-1.04-.992-2.928V235.2a5.3 5.3 0 0 1 .24-1.648q.255-.737.704-1.248a3.1 3.1 0 0 1 1.104-.784 3.6 3.6 0 0 1 1.456-.288q1.583 0 2.528.944.96.944.96 2.864zm-5.888-.96h4.768v-.256q0-1.36-.576-2.064-.561-.704-1.776-.704a2.8 2.8 0 0 0-.96.16 1.9 1.9 0 0 0-.768.512 2.6 2.6 0 0 0-.512.912q-.177.544-.176 1.312zm7.74 3.2q.735.368 1.44.576.72.208 1.488.208 1.071 0 1.712-.384.656-.4.656-1.2 0-1.392-1.984-1.52l-.848-.064a5 5 0 0 1-.992-.16 2.3 2.3 0 0 1-.816-.4 1.9 1.9 0 0 1-.56-.704q-.208-.448-.208-1.104 0-.592.256-1.04.272-.464.704-.784.447-.32 1.024-.48a4.3 4.3 0 0 1 1.232-.176q.96 0 1.68.192.735.176 1.248.448v1.12a5 5 0 0 0-1.472-.576 6.5 6.5 0 0 0-1.344-.16q-1.057 0-1.648.384-.592.384-.592 1.12 0 .4.16.656t.416.416q.272.144.608.208.335.065.704.096l.96.08q1.167.08 1.872.64.704.544.704 1.76 0 .672-.32 1.168-.304.48-.816.816a3.5 3.5 0 0 1-1.12.464q-.624.16-1.248.16-.72 0-1.536-.176a5.2 5.2 0 0 1-1.36-.48zm8.429-10.528h1.12v9.888q0 .72.192 1.056t.704.336q.257 0 .48-.048.24-.048.368-.112v.976a1.6 1.6 0 0 1-.432.128 2.4 2.4 0 0 1-.544.064q-.545 0-.912-.144a1.37 1.37 0 0 1-.576-.432 2.1 2.1 0 0 1-.304-.736 5 5 0 0 1-.096-1.024zm9.35 12.08v-1.088a2.6 2.6 0 0 1-1.136.992q-.703.32-1.6.32-1.359 0-2.064-.64-.687-.64-.688-1.792 0-1.376.88-1.984.88-.624 2.672-.624h1.936v-.512q0-.576-.096-1.024a1.8 1.8 0 0 0-.352-.768q-.255-.32-.72-.48-.447-.176-1.152-.176-.816 0-1.456.224-.64.209-1.28.768v-1.104q.496-.4 1.152-.64.657-.24 1.76-.24.928 0 1.552.208.624.192 1.008.624.384.415.544 1.056.16.624.16 1.488V240zm-2.592-.736q.4 0 .816-.096a2.4 2.4 0 0 0 .784-.32q.369-.24.624-.608.273-.368.368-.896v-1.2h-1.984q-1.344 0-1.872.384-.512.368-.512 1.216 0 .752.464 1.136.48.384 1.312.384m11.745-9.024V240h-1.12v-12.08h1.12l3.984 7.36 4.048-7.36h1.12V240h-1.12v-9.872l-3.568 6.544h-.944zm11.692 4.944q0-.976.256-1.712.273-.736.752-1.232.48-.496 1.136-.752a4.1 4.1 0 0 1 1.472-.256q.784 0 1.456.256t1.152.752q.496.496.768 1.232.273.736.272 1.712v1.088q0 .976-.272 1.712a3.35 3.35 0 0 1-.768 1.232q-.48.496-1.152.752a4 4 0 0 1-1.456.256 4.1 4.1 0 0 1-1.472-.256 3.2 3.2 0 0 1-1.136-.752 3.5 3.5 0 0 1-.752-1.232q-.255-.736-.256-1.712zm1.104 1.168q0 1.392.672 2.128.688.736 1.84.736 1.184 0 1.856-.736.672-.752.672-2.128v-1.248q0-1.408-.688-2.144t-1.84-.736c-1.153 0-1.381.245-1.84.736q-.672.736-.672 2.144zm14.149-8.432h1.12V240h-1.12v-1.424a3.8 3.8 0 0 1-1.104 1.184q-.672.464-1.632.464-.848 0-1.488-.288a2.9 2.9 0 0 1-1.056-.816 3.8 3.8 0 0 1-.64-1.264 6 6 0 0 1-.208-1.632v-1.008q0-.864.208-1.584a3.8 3.8 0 0 1 .64-1.264q.416-.544 1.04-.832.64-.304 1.488-.304.96 0 1.648.432t1.104 1.12zm-2.576 4.304q-.511 0-.96.176a2 2 0 0 0-.768.512 2.6 2.6 0 0 0-.512.912q-.192.544-.192 1.312v1.168q0 .607.144 1.152.144.528.448.928c.304.4.453.475.752.624q.448.224 1.056.224.576 0 1.056-.24t.816-.624q.352-.384.544-.864a2.7 2.7 0 0 0 .192-.992v-1.888a2.8 2.8 0 0 0-.288-.912 2.9 2.9 0 0 0-.576-.768 2.5 2.5 0 0 0-.784-.528 2.3 2.3 0 0 0-.928-.192m12.972 3.984h-5.888v.128q0 .624.16 1.152.176.528.528.912.351.384.864.608.528.224 1.248.224c.72 0 .949-.043 1.408-.128q.687-.128 1.488-.64v1.008a4.9 4.9 0 0 1-1.424.592q-.705.16-1.584.16-1.792 0-2.8-1.04-.993-1.04-.992-2.928V235.2a5.3 5.3 0 0 1 .24-1.648q.255-.737.704-1.248a3.1 3.1 0 0 1 1.104-.784 3.6 3.6 0 0 1 1.456-.288q1.583 0 2.528.944.96.944.96 2.864zm-5.888-.96h4.768v-.256q0-1.36-.576-2.064-.561-.704-1.776-.704a2.8 2.8 0 0 0-.96.16 1.9 1.9 0 0 0-.768.512 2.6 2.6 0 0 0-.512.912q-.177.544-.176 1.312zm8.06-7.328h1.12v9.888q0 .72.192 1.056t.704.336q.255 0 .48-.048.24-.048.368-.112v.976a1.6 1.6 0 0 1-.432.128 2.4 2.4 0 0 1-.544.064q-.544 0-.912-.144a1.37 1.37 0 0 1-.576-.432 2.1 2.1 0 0 1-.304-.736 5 5 0 0 1-.096-1.024zm8.181 10.16a9 9 0 0 0 1.728.8q.864.272 1.872.272 1.488 0 2.256-.672.784-.688.784-1.792 0-.544-.144-.944a1.4 1.4 0 0 0-.48-.656 2.4 2.4 0 0 0-.832-.432 6.6 6.6 0 0 0-1.232-.24l-.8-.096q-1.44-.16-2.32-.928-.88-.784-.88-2.24 0-.8.304-1.424a3 3 0 0 1 .848-1.072 3.7 3.7 0 0 1 1.28-.672 5.1 5.1 0 0 1 1.6-.24q1.104 0 1.888.24a4.9 4.9 0 0 1 1.456.672v1.216a6.4 6.4 0 0 0-1.584-.816 5.1 5.1 0 0 0-1.728-.288q-1.488 0-2.192.672-.688.672-.688 1.728 0 .528.144.896t.448.624q.303.24.784.384.48.144 1.152.224l.8.096q.752.096 1.376.304t1.056.592q.448.368.688.944.255.56.256 1.376 0 .864-.32 1.536a3.3 3.3 0 0 1-.896 1.12 4.2 4.2 0 0 1-1.376.688 6.4 6.4 0 0 1-1.744.224 7.3 7.3 0 0 1-1.808-.208 7.8 7.8 0 0 1-1.696-.672zM19.056 299.728a4.5 4.5 0 0 0-1.296-.672q-.752-.272-1.76-.272-.832 0-1.536.272a3.14 3.14 0 0 0-1.184.816q-.496.544-.768 1.376-.272.816-.272 1.92v1.696q0 2.176.976 3.232.992 1.056 2.752 1.056.816 0 1.584-.144a5 5 0 0 0 1.472-.56v1.088a6 6 0 0 1-1.376.512 7.2 7.2 0 0 1-1.664.176q-1.136 0-2.048-.336a4.25 4.25 0 0 1-1.568-1.04q-.64-.688-.992-1.712c-.352-1.024-.352-1.477-.352-2.384v-1.472q0-1.36.352-2.4.367-1.04 1.008-1.728a4.2 4.2 0 0 1 1.568-1.056q.912-.368 2.032-.368 1.152 0 1.872.24t1.2.56zm1.913-1.808h1.12v4.848q.432-.72 1.136-1.12.72-.416 1.696-.416 1.6 0 2.304.928.72.928.72 2.608V310h-1.12v-5.12q0-1.376-.592-1.984t-1.568-.608q-.512 0-.96.176a2.4 2.4 0 0 0-.8.48q-.336.32-.56.784a3.2 3.2 0 0 0-.256 1.056V310h-1.12zm16.154 8.288h-5.887v.128q0 .624.16 1.152a2.5 2.5 0 0 0 .527.912q.352.384.865.608.528.224 1.248.224c.72 0 .949-.043 1.407-.128q.689-.128 1.489-.64v1.008q-.72.432-1.425.592-.703.16-1.584.16-1.792 0-2.8-1.04-.991-1.04-.992-2.928V305.2a5.3 5.3 0 0 1 .24-1.648q.256-.736.705-1.248a3.1 3.1 0 0 1 1.103-.784 3.6 3.6 0 0 1 1.456-.288q1.585 0 2.529.944.96.944.96 2.864v1.168zm-5.887-.96h4.768v-.256q0-1.36-.576-2.064-.561-.704-1.776-.704a2.8 2.8 0 0 0-.96.16 1.9 1.9 0 0 0-.768.512 2.6 2.6 0 0 0-.512.912q-.177.544-.177 1.312zM42.788 310h-1.296l-3.36-8.56h1.216l2.8 7.424 2.832-7.424h1.152L42.789 310zm5.04-8.56h1.103v1.504a3.5 3.5 0 0 1 1.136-1.232q.705-.48 1.696-.48v1.072a.7.7 0 0 0-.144-.016h-.144q-.512 0-.96.208a2.5 2.5 0 0 0-.768.576q-.335.368-.56.864-.207.48-.256 1.056V310h-1.104v-8.56zm4.896 3.744q0-.976.256-1.712.273-.736.752-1.232.48-.496 1.136-.752a4.1 4.1 0 0 1 1.472-.256 4 4 0 0 1 1.456.256q.672.256 1.152.752.496.496.768 1.232.273.736.272 1.712v1.088q0 .976-.272 1.712a3.4 3.4 0 0 1-.768 1.232q-.48.496-1.152.752a4 4 0 0 1-1.456.256 4.1 4.1 0 0 1-1.472-.256 3.2 3.2 0 0 1-1.136-.752 3.5 3.5 0 0 1-.752-1.232q-.255-.736-.256-1.712zm1.104 1.168q0 1.392.672 2.128.688.736 1.84.736 1.185 0 1.856-.736.672-.752.672-2.128v-1.248q0-1.408-.688-2.144t-1.84-.736c-1.153 0-1.381.245-1.84.736q-.672.736-.672 2.144zm8.373-8.432h1.12v9.888q0 .72.192 1.056t.704.336q.255 0 .48-.048.24-.048.368-.112v.976q-.16.08-.432.128a2.4 2.4 0 0 1-.544.064q-.544 0-.912-.144a1.4 1.4 0 0 1-.576-.432 2.1 2.1 0 0 1-.304-.736 5 5 0 0 1-.096-1.024zm11.062 8.288h-5.888v.128q0 .624.16 1.152.176.528.528.912t.864.608q.528.224 1.248.224c.72 0 .95-.043 1.408-.128q.689-.128 1.488-.64v1.008q-.72.432-1.424.592t-1.584.16q-1.791 0-2.8-1.04-.992-1.04-.992-2.928V305.2a5.3 5.3 0 0 1 .24-1.648q.256-.736.704-1.248a3.1 3.1 0 0 1 1.104-.784 3.6 3.6 0 0 1 1.456-.288q1.584 0 2.528.944.96.944.96 2.864zm-5.888-.96h4.768v-.256q0-1.36-.576-2.064-.56-.704-1.776-.704-.511 0-.96.16a1.9 1.9 0 0 0-.768.512 2.6 2.6 0 0 0-.512.912q-.176.544-.176 1.312zm7.024-3.808H76v-2.64h1.12v2.64h2.32v.96h-2.32v4.944q0 .96.32 1.424.336.448 1.2.448.255 0 .544-.032a2.7 2.7 0 0 0 .464-.112v.992a2.3 2.3 0 0 1-.464.096 3.5 3.5 0 0 1-.624.048q-1.36 0-1.968-.736-.592-.751-.592-2.064V302.4h-1.6v-.96zM20.144 220H19.04l-6.32-10.064V220H11.6v-12.08h1.12l6.32 10.048V207.92h1.104zm2.95-8.56h1.104V220h-1.104zm-.048-3.52h1.2v1.744h-1.2zm3.46 10.528q.736.368 1.44.576.72.208 1.489.208 1.072 0 1.712-.384.656-.4.656-1.2 0-1.392-1.984-1.52l-.848-.064a5 5 0 0 1-.992-.16 2.3 2.3 0 0 1-.816-.4 1.9 1.9 0 0 1-.56-.704q-.208-.448-.208-1.104 0-.592.256-1.04.272-.464.704-.784.448-.32 1.024-.48a4.3 4.3 0 0 1 1.232-.176q.96 0 1.68.192.735.176 1.248.448v1.12a5 5 0 0 0-1.472-.576 6.5 6.5 0 0 0-1.344-.16q-1.056 0-1.648.384c-.592.384-.592.629-.592 1.12q0 .4.16.656t.416.416q.272.144.608.208.336.065.704.096l.96.08q1.168.08 1.872.64.705.544.704 1.76 0 .672-.32 1.168-.305.48-.816.816a3.5 3.5 0 0 1-1.12.464q-.624.16-1.248.16-.72 0-1.536-.176a5.2 5.2 0 0 1-1.36-.48v-1.104zm8.11 0q.735.368 1.44.576.72.208 1.488.208 1.073 0 1.712-.384.656-.4.656-1.2 0-1.392-1.984-1.52l-.848-.064a5 5 0 0 1-.992-.16 2.3 2.3 0 0 1-.816-.4 1.9 1.9 0 0 1-.56-.704q-.207-.448-.208-1.104 0-.592.256-1.04.273-.464.704-.784.448-.32 1.024-.48a4.3 4.3 0 0 1 1.232-.176q.96 0 1.68.192.736.176 1.248.448v1.12a5 5 0 0 0-1.472-.576 6.5 6.5 0 0 0-1.344-.16q-1.056 0-1.648.384t-.592 1.12q0 .4.16.656t.416.416q.273.144.608.208.336.065.704.096l.96.08q1.168.08 1.872.64.704.544.704 1.76 0 .672-.32 1.168a2.7 2.7 0 0 1-.816.816 3.5 3.5 0 0 1-1.12.464q-.624.16-1.248.16-.72 0-1.536-.176a5.2 5.2 0 0 1-1.36-.48zM47.99 220v-1.088a2.6 2.6 0 0 1-1.136.992q-.705.32-1.6.32-1.36 0-2.064-.64-.688-.64-.688-1.792 0-1.376.88-1.984.88-.624 2.672-.624h1.936v-.512q0-.576-.096-1.024a1.8 1.8 0 0 0-.352-.768 1.54 1.54 0 0 0-.72-.48q-.448-.176-1.152-.176a4.4 4.4 0 0 0-1.456.224q-.64.209-1.28.768v-1.104a4 4 0 0 1 1.152-.64q.656-.24 1.76-.24.928 0 1.552.208.624.192 1.008.624.384.415.544 1.056.16.624.16 1.488V220zm-2.592-.736q.399 0 .816-.096.432-.096.784-.32a2.3 2.3 0 0 0 .624-.608 2.1 2.1 0 0 0 .368-.896v-1.2h-1.984q-1.344 0-1.872.384-.513.368-.512 1.216 0 .752.464 1.136.48.384 1.312.384m6.321-7.824h1.104v1.344a3.2 3.2 0 0 1 1.136-1.136q.72-.416 1.712-.416 1.6 0 2.304.928.705.928.704 2.608V220h-1.12v-5.12q0-1.376-.592-1.984-.576-.608-1.552-.608-.512 0-.976.176a2.4 2.4 0 0 0-.8.48q-.335.32-.56.784a3.2 3.2 0 0 0-.256 1.056V220h-1.104zM741.556 83.28q0-2.736 1.248-4.144 1.247-1.424 3.44-1.424 2.24 0 3.456 1.44 1.232 1.44 1.232 4.128v1.584q0 1.36-.352 2.368-.336 1.008-.96 1.68a4.05 4.05 0 0 1-1.488.992 5.4 5.4 0 0 1-1.888.32 5.4 5.4 0 0 1-1.904-.32 4.1 4.1 0 0 1-1.472-.992q-.625-.672-.976-1.68-.336-1.008-.336-2.368zm1.2 1.696q0 2.096.896 3.136.912 1.04 2.592 1.04 1.647 0 2.56-1.024.928-1.04.928-3.152v-1.808q0-2.111-.912-3.248-.912-1.136-2.592-1.136c-1.68 0-1.979.384-2.576 1.152q-.896 1.136-.896 3.232zm9.597-3.536h1.6V78.8h1.12v2.64h2.32v.96h-2.32v4.944q0 .96.32 1.424.336.448 1.2.448.255 0 .544-.032.288-.048.464-.112v.992a2.4 2.4 0 0 1-.464.096 3.5 3.5 0 0 1-.624.048q-1.36 0-1.968-.736-.592-.752-.592-2.064V82.4h-1.6zm6.991-3.52h1.12v4.848q.432-.72 1.136-1.12.72-.416 1.696-.416 1.6 0 2.304.928.72.928.72 2.608V90h-1.12v-5.12q0-1.376-.592-1.984t-1.568-.608q-.511 0-.96.176a2.4 2.4 0 0 0-.8.48 2.7 2.7 0 0 0-.56.784 3.2 3.2 0 0 0-.256 1.056V90h-1.12zm16.155 8.288h-5.888v.128q0 .624.16 1.152.176.528.528.912.351.384.864.608.528.225 1.248.224c.72-.001.949-.043 1.408-.128q.687-.128 1.488-.64v1.008a4.9 4.9 0 0 1-1.424.592q-.705.16-1.584.16-1.792 0-2.8-1.04-.993-1.04-.992-2.928V85.2a5.3 5.3 0 0 1 .24-1.648q.255-.736.704-1.248a3.1 3.1 0 0 1 1.104-.784 3.6 3.6 0 0 1 1.456-.288q1.583 0 2.528.944.96.945.96 2.864zm-5.888-.96h4.768v-.256q0-1.36-.576-2.064-.561-.704-1.776-.704a2.8 2.8 0 0 0-.96.16 1.9 1.9 0 0 0-.768.512 2.6 2.6 0 0 0-.512.912q-.177.544-.176 1.312zm8.124-3.808h1.104v1.504a3.5 3.5 0 0 1 1.136-1.232q.703-.48 1.696-.48v1.072a1 1 0 0 0-.144-.016h-.144q-.513 0-.96.208a2.5 2.5 0 0 0-.768.576 3.3 3.3 0 0 0-.56.864q-.208.48-.256 1.056V90h-1.104zm5.116 7.008q.735.368 1.44.576.72.208 1.488.208 1.071 0 1.712-.384.656-.4.656-1.2 0-1.392-1.984-1.52l-.848-.064a5 5 0 0 1-.992-.16 2.3 2.3 0 0 1-.816-.4 1.9 1.9 0 0 1-.56-.704q-.208-.449-.208-1.104 0-.592.256-1.04.272-.464.704-.784.447-.32 1.024-.48a4.3 4.3 0 0 1 1.232-.176q.96 0 1.68.192.735.176 1.248.448v1.12a5 5 0 0 0-1.472-.576 6.5 6.5 0 0 0-1.344-.16q-1.057 0-1.648.384-.592.385-.592 1.12 0 .4.16.656t.416.416q.272.144.608.208t.704.096l.96.08q1.167.08 1.872.64.704.545.704 1.76 0 .672-.32 1.168-.304.48-.816.816a3.5 3.5 0 0 1-1.12.464q-.624.16-1.248.16-.72 0-1.536-.176a5.2 5.2 0 0 1-1.36-.48zM18.16 124.336h-5.392V130H11.6v-12.08h7.024v1.056h-5.856v4.336h5.392zm2.45-2.896h1.104V130H20.61zm-.048-3.52h1.2v1.744h-1.2zM29.286 130v-1.088a2.6 2.6 0 0 1-1.136.992q-.703.32-1.6.32-1.359 0-2.064-.64-.687-.64-.688-1.792 0-1.376.88-1.984.88-.624 2.672-.624h1.936v-.512q0-.576-.096-1.024a1.8 1.8 0 0 0-.352-.768 1.54 1.54 0 0 0-.72-.48q-.447-.176-1.151-.176a4.4 4.4 0 0 0-1.456.224q-.64.208-1.28.768v-1.104a4 4 0 0 1 1.151-.64q.656-.24 1.76-.24.93 0 1.553.208.623.192 1.008.624.384.416.544 1.056.16.624.16 1.488V130h-1.12zm-2.591-.736q.399 0 .816-.096.432-.096.784-.32.368-.24.623-.608.273-.368.369-.896v-1.2h-1.985q-1.343 0-1.872.384-.51.368-.511 1.216 0 .752.463 1.136.48.384 1.313.384m5.236-7.824h1.6v-2.64h1.12v2.64h2.32v.96h-2.32v4.944q0 .96.32 1.424.336.448 1.2.448.255 0 .544-.032a2.7 2.7 0 0 0 .464-.112v.992a2.3 2.3 0 0 1-.464.096q-.256.048-.624.048-1.36 0-1.968-.736-.592-.751-.592-2.064V122.4h-1.6zM15.808 90h-1.264l-4.192-12.08h1.312l3.552 10.688 3.68-10.688h1.248zm16.438 0h-1.233l-1.488-5.04-1.423-5.088-1.473 5.072L25.078 90H23.83l-2.832-12.08h1.265l2.271 10.48 3.056-10.48h1.184l2.864 10.48 2.544-10.48h1.233L32.245 90zm216.218 29.648 3.056-1.728h1.424V130h-1.904v-9.792l-2.576 1.312zm6.967 2.352q0-2.032.96-3.168t2.944-1.136c1.984 0 2.293.379 2.912 1.136q.944 1.136.944 3.168v3.984q0 1.968-.976 3.12-.96 1.136-2.912 1.136-1.984 0-2.928-1.088t-.944-3.168zm1.904 4.096q0 .576.096 1.024t.32.768.608.496q.384.16.944.16 1.12 0 1.552-.64t.432-1.808v-4.208q0-1.296-.464-1.888-.464-.608-1.536-.608-1.008 0-1.488.592-.464.576-.464 1.904zm17.539-8.176h1.664L269.226 130h-1.68zm-3.776 3.968q0 .72-.256 1.28-.24.56-.672.944a3 3 0 0 1-.992.576 3.8 3.8 0 0 1-1.216.192q-.64 0-1.216-.192a3 3 0 0 1-.992-.56 2.9 2.9 0 0 1-.672-.944q-.24-.56-.24-1.296v-1.12q0-.72.24-1.296.257-.576.672-.976.432-.4.992-.608a3.5 3.5 0 0 1 1.216-.208q.64 0 1.216.208t.992.608q.432.4.672.976.256.576.256 1.296zm-1.536-1.12q0-.737-.4-1.2-.4-.464-1.184-.464-.8 0-1.2.48-.4.464-.4 1.184v1.104q0 .72.4 1.184.4.448 1.2.448.816 0 1.2-.448.384-.464.384-1.184zm9.68 6.464q0 .72-.256 1.28-.24.56-.672.944a2.8 2.8 0 0 1-.992.56 3.5 3.5 0 0 1-1.216.208q-.64 0-1.216-.192a3 3 0 0 1-.992-.56 2.9 2.9 0 0 1-.672-.944q-.24-.56-.24-1.296v-1.12q0-.72.24-1.296.257-.576.672-.976.432-.4.992-.608a3.5 3.5 0 0 1 1.216-.208q.64 0 1.216.208t.992.608q.432.4.672.976.256.576.256 1.296zm-1.536-1.12q0-.737-.416-1.2-.4-.464-1.168-.464-.8 0-1.2.48-.4.464-.4 1.184v1.104q0 .72.4 1.184.4.448 1.2.448.816 0 1.2-.448.384-.464.384-1.184zm202.758-46.464 3.056-1.728h1.424V90h-1.904v-9.792l-2.576 1.312zm11.559 8h-5.152v-1.536l3.552-8.192h1.936L488.855 86h3.168v-3.152h1.792V86h1.456v1.648h-1.456V90h-1.792zm14.335-9.728h1.664L500.71 90h-1.68zm-3.776 3.968q0 .72-.256 1.28a2.6 2.6 0 0 1-.672.944 3 3 0 0 1-.992.576 3.8 3.8 0 0 1-1.216.192q-.64 0-1.216-.192a3 3 0 0 1-.992-.56 2.9 2.9 0 0 1-.672-.944q-.24-.56-.24-1.296v-1.12q0-.72.24-1.296a3.1 3.1 0 0 1 .672-.976q.432-.4.992-.608.577-.208 1.216-.208.64 0 1.216.208t.992.608q.432.4.672.976.256.576.256 1.296zm-1.536-1.12q0-.735-.4-1.2t-1.184-.464q-.8 0-1.2.48-.4.464-.4 1.184v1.104q0 .72.4 1.184.4.448 1.2.448.816 0 1.2-.448.384-.464.384-1.184zm9.68 6.464q0 .72-.256 1.28a2.6 2.6 0 0 1-.672.944 2.8 2.8 0 0 1-.992.56 3.6 3.6 0 0 1-1.216.208q-.64 0-1.216-.192a3 3 0 0 1-.992-.56 2.9 2.9 0 0 1-.672-.944q-.24-.56-.24-1.296v-1.12q0-.72.24-1.296a3.1 3.1 0 0 1 .672-.976q.432-.4.992-.608.577-.208 1.216-.208.64 0 1.216.208t.992.608q.432.4.672.976.256.576.256 1.296zm-1.536-1.12q0-.735-.416-1.2-.4-.464-1.168-.464-.8 0-1.2.48-.4.464-.4 1.184v1.104q0 .72.4 1.184.4.448 1.2.448.816 0 1.2-.448.384-.465.384-1.184zM230.464 209.648l3.056-1.728h1.424V220h-1.904v-9.792l-2.576 1.312zm14.199 6.512q0 1.056-.384 1.824a3.7 3.7 0 0 1-.992 1.28 4.2 4.2 0 0 1-1.44.736q-.8.24-1.68.24a5.8 5.8 0 0 1-1.552-.192 8 8 0 0 1-1.28-.448v-1.808q.608.288 1.296.528t1.552.24q1.2 0 1.904-.512.72-.512.72-1.632 0-.576-.176-.992a1.7 1.7 0 0 0-.496-.672 2 2 0 0 0-.752-.368 3.3 3.3 0 0 0-.928-.128q-.4 0-.752.048a3.7 3.7 0 0 0-.672.128 5 5 0 0 0-.672.224q-.336.144-.736.352v-7.088h6.496v1.68h-4.784v3.232a4.8 4.8 0 0 1 1.408-.192q.864 0 1.584.224.72.208 1.232.656.528.432.816 1.104.288.656.288 1.536m11.352-8.24h1.664L250.367 220h-1.68zm-3.776 3.968q0 .72-.256 1.28-.24.56-.672.944a3 3 0 0 1-.992.576q-.576.192-1.216.192t-1.216-.192a3 3 0 0 1-.992-.56 2.9 2.9 0 0 1-.672-.944q-.24-.56-.24-1.296v-1.12q0-.72.24-1.296.255-.576.672-.976.432-.4.992-.608a3.5 3.5 0 0 1 1.216-.208q.64 0 1.216.208t.992.608q.432.4.672.976.255.576.256 1.296zm-1.536-1.12q0-.736-.4-1.2t-1.184-.464q-.801 0-1.2.48-.4.464-.4 1.184v1.104q0 .72.4 1.184.399.448 1.2.448.816 0 1.2-.448.384-.464.384-1.184zm9.68 6.464q0 .72-.256 1.28-.24.56-.672.944a2.8 2.8 0 0 1-.992.56q-.577.208-1.216.208-.64 0-1.216-.192a3 3 0 0 1-.992-.56 2.9 2.9 0 0 1-.672-.944q-.24-.56-.24-1.296v-1.12q0-.72.24-1.296.255-.576.672-.976.431-.4.992-.608a3.5 3.5 0 0 1 1.216-.208q.64 0 1.216.208t.992.608q.432.4.672.976.255.576.256 1.296zm-1.536-1.12q0-.737-.416-1.2-.4-.464-1.168-.464-.801 0-1.2.48-.4.464-.4 1.184v1.104q0 .72.4 1.184.399.448 1.2.448.816 0 1.2-.448.384-.464.384-1.184zm13.617 83.536 3.056-1.728h1.424V310h-1.904v-9.792l-2.576 1.312zm14.583 6.784q0 .816-.288 1.52a3.6 3.6 0 0 1-.816 1.2 3.8 3.8 0 0 1-1.264.8 4.5 4.5 0 0 1-1.648.288 4.6 4.6 0 0 1-1.664-.288 4 4 0 0 1-1.264-.816 3.6 3.6 0 0 1-.816-1.2 3.8 3.8 0 0 1-.16-2.432q.128-.48.304-.912a9 9 0 0 1 .368-.8q.208-.384.352-.656l2.512-5.216h2.048l-2.368 4.784q.208-.031.4-.048.209-.032.432-.032a4.5 4.5 0 0 1 1.584.304q.72.288 1.216.8.512.497.784 1.2.288.688.288 1.504m-1.936-.016a2.4 2.4 0 0 0-.144-.832 1.95 1.95 0 0 0-.416-.688 1.76 1.76 0 0 0-.672-.464 2.1 2.1 0 0 0-.88-.176q-.511 0-.912.176a1.8 1.8 0 0 0-.656.464 2.1 2.1 0 0 0-.4.688 2.4 2.4 0 0 0-.144.832q0 .928.576 1.536t1.552.608q.496 0 .88-.176.4-.176.656-.464.272-.288.416-.672a2.4 2.4 0 0 0 .144-.832m13.06-8.496h1.664L292.523 310h-1.68zm-3.776 3.968q0 .72-.256 1.28-.24.56-.672.944a3 3 0 0 1-.992.576 3.8 3.8 0 0 1-1.216.192q-.64 0-1.216-.192a3 3 0 0 1-.992-.56 2.9 2.9 0 0 1-.672-.944q-.24-.56-.24-1.296v-1.12q0-.72.24-1.296.257-.576.672-.976.432-.4.992-.608a3.5 3.5 0 0 1 1.216-.208q.64 0 1.216.208t.992.608q.432.4.672.976.256.576.256 1.296zm-1.536-1.12q0-.736-.4-1.2t-1.184-.464q-.8 0-1.2.48-.4.464-.4 1.184v1.104q0 .72.4 1.184.4.448 1.2.448.816 0 1.2-.448.384-.464.384-1.184zm9.68 6.464q0 .72-.256 1.28-.24.56-.672.944a2.8 2.8 0 0 1-.992.56 3.5 3.5 0 0 1-1.216.208q-.64 0-1.216-.192a3 3 0 0 1-.992-.56 2.9 2.9 0 0 1-.672-.944q-.24-.56-.24-1.296v-1.12q0-.72.24-1.296.257-.576.672-.976.432-.4.992-.608a3.5 3.5 0 0 1 1.216-.208q.64 0 1.216.208t.992.608q.432.4.672.976.256.576.256 1.296zm-1.536-1.12q0-.737-.416-1.2-.4-.464-1.168-.464-.8 0-1.2.48-.4.464-.4 1.184v1.104q0 .72.4 1.184.4.448 1.2.448.816 0 1.2-.448.384-.464.384-1.184zm238.093-78.4q.864 0 1.552.24a3.3 3.3 0 0 1 1.184.64q.496.416.752 1.008.256.576.256 1.296 0 1.04-.528 1.712a3.36 3.36 0 0 1-1.264 1.024q.944.336 1.472 1.104.544.752.544 1.888a3.2 3.2 0 0 1-.336 1.456 3.3 3.3 0 0 1-.912 1.136 4.3 4.3 0 0 1-1.376.752 5.5 5.5 0 0 1-1.76.272q-.96 0-1.648-.192a5.5 5.5 0 0 1-1.184-.448v-1.776q.4.208.736.352.336.128.656.224.336.08.656.112.336.032.736.032 1.152 0 1.856-.496.72-.496.72-1.456 0-.576-.192-.96a1.37 1.37 0 0 0-.528-.624 2.25 2.25 0 0 0-.848-.336 5.5 5.5 0 0 0-1.072-.096h-.976v-1.584h.96q.528 0 .976-.112.464-.113.8-.336t.528-.576.192-.832q0-.88-.592-1.296-.592-.432-1.648-.432-.672 0-1.36.224-.672.224-1.472.864v-1.792a5.4 5.4 0 0 1 1.456-.736 5.4 5.4 0 0 1 1.664-.256m5.306 3.792q0-.816.288-1.504.288-.704.816-1.216a3.8 3.8 0 0 1 1.264-.8 4.6 4.6 0 0 1 1.664-.288q.912 0 1.648.304.752.288 1.28.816.528.512.8 1.216.288.689.288 1.488 0 .416-.096.832a5 5 0 0 1-.256.784q-.144.368-.32.704-.16.336-.304.608L548.802 240h-2.048l2.336-4.768a5 5 0 0 1-.816.064 4.2 4.2 0 0 1-1.584-.288 4 4 0 0 1-1.232-.8 3.8 3.8 0 0 1-.784-1.2 4.1 4.1 0 0 1-.272-1.504m1.952.016q0 .448.144.848.144.384.4.688.272.288.656.464.4.16.896.16.512 0 .896-.16a2 2 0 0 0 .672-.464 1.9 1.9 0 0 0 .4-.704q.144-.4.144-.848a2.4 2.4 0 0 0-.144-.832 1.8 1.8 0 0 0-.432-.688 1.9 1.9 0 0 0-.672-.448 2.1 2.1 0 0 0-.864-.176q-.512 0-.896.176a2 2 0 0 0-.656.48q-.272.288-.416.688a2.6 2.6 0 0 0-.128.816m17.364-3.6h1.664L558.07 240h-1.68zm-3.776 3.968q0 .72-.256 1.28-.24.56-.672.944a3 3 0 0 1-.992.576q-.577.192-1.216.192-.64 0-1.216-.192a3 3 0 0 1-.992-.56 2.9 2.9 0 0 1-.672-.944q-.24-.56-.24-1.296v-1.12q0-.72.24-1.296.255-.576.672-.976.432-.4.992-.608a3.5 3.5 0 0 1 1.216-.208q.64 0 1.216.208t.992.608q.432.4.672.976.255.576.256 1.296zm-1.536-1.12q0-.736-.4-1.2t-1.184-.464q-.801 0-1.2.48-.4.464-.4 1.184v1.104q0 .72.4 1.184.399.448 1.2.448.816 0 1.2-.448.384-.464.384-1.184zm9.68 6.464q0 .72-.256 1.28-.24.56-.672.944a2.8 2.8 0 0 1-.992.56q-.577.208-1.216.208-.64 0-1.216-.192a3 3 0 0 1-.992-.56 2.9 2.9 0 0 1-.672-.944q-.24-.56-.24-1.296v-1.12q0-.72.24-1.296.255-.576.672-.976.432-.4.992-.608a3.5 3.5 0 0 1 1.216-.208q.64 0 1.216.208t.992.608q.432.4.672.976.255.576.256 1.296zm-1.536-1.12q0-.737-.416-1.2-.4-.464-1.168-.464-.801 0-1.2.48-.4.464-.4 1.184v1.104q0 .72.4 1.184.399.448 1.2.448.816 0 1.2-.448.384-.464.384-1.184zM312.672 86.432q0 .816-.288 1.52a3.6 3.6 0 0 1-.816 1.2 3.8 3.8 0 0 1-1.264.8 4.5 4.5 0 0 1-1.648.288 4.6 4.6 0 0 1-1.664-.288 4 4 0 0 1-1.264-.816 3.6 3.6 0 0 1-.816-1.2 3.8 3.8 0 0 1-.16-2.432q.128-.48.304-.912a9 9 0 0 1 .368-.8q.208-.384.352-.656l2.512-5.216h2.048l-2.368 4.784a6 6 0 0 1 .4-.048 3 3 0 0 1 .432-.032q.864.016 1.584.304c.72.288.885.459 1.216.8q.512.495.784 1.2.288.688.288 1.504m-1.936-.016a2.4 2.4 0 0 0-.144-.832 2 2 0 0 0-.416-.688 1.76 1.76 0 0 0-.672-.464 2.1 2.1 0 0 0-.88-.176q-.511 0-.912.176a1.8 1.8 0 0 0-.656.464 2.1 2.1 0 0 0-.4.688 2.4 2.4 0 0 0-.144.832q0 .928.576 1.536t1.552.608q.496 0 .88-.176.4-.176.656-.464.272-.288.416-.672a2.4 2.4 0 0 0 .144-.832m13.06-8.496h1.664L318.148 90h-1.68zm-3.776 3.968q0 .72-.256 1.28a2.6 2.6 0 0 1-.672.944 3 3 0 0 1-.992.576 3.8 3.8 0 0 1-1.216.192q-.64 0-1.216-.192a3 3 0 0 1-.992-.56 2.9 2.9 0 0 1-.672-.944q-.24-.56-.24-1.296v-1.12q0-.72.24-1.296a3.1 3.1 0 0 1 .672-.976q.432-.4.992-.608a3.6 3.6 0 0 1 1.216-.208q.64 0 1.216.208t.992.608q.432.4.672.976.256.576.256 1.296zm-1.536-1.12q0-.735-.4-1.2t-1.184-.464q-.8 0-1.2.48-.4.465-.4 1.184v1.104q0 .72.4 1.184.4.448 1.2.448.816 0 1.2-.448.384-.465.384-1.184zm9.68 6.464q0 .72-.256 1.28a2.6 2.6 0 0 1-.672.944 2.8 2.8 0 0 1-.992.56 3.6 3.6 0 0 1-1.216.208q-.64 0-1.216-.192a3 3 0 0 1-.992-.56 2.9 2.9 0 0 1-.672-.944q-.24-.56-.24-1.296v-1.12q0-.72.24-1.296a3.1 3.1 0 0 1 .672-.976q.432-.4.992-.608a3.6 3.6 0 0 1 1.216-.208q.64 0 1.216.208t.992.608q.432.4.672.976.256.576.256 1.296zm-1.536-1.12q0-.735-.416-1.2-.4-.465-1.168-.464-.8 0-1.2.48-.4.465-.4 1.184v1.104q0 .72.4 1.184.4.448 1.2.448.816 0 1.2-.448.384-.465.384-1.184z" fill="#323232"/>
  <path d="M800 100H470m330 150H525M340 100H0m290 40H0m270 90H0m340 90H0" stroke="#C4C4C4"/>
  <mask id="b" fill="#fff">
    <path d="M400 330a120 120 0 0 1-101.319-55.701l20.264-12.86A96 96 0 0 0 400 306z"/>
  </mask>
  <path d="M400 330a120 120 0 0 1-101.319-55.701l20.264-12.86A96 96 0 0 0 400 306z" fill="url(#a)" stroke="#EEE" stroke-width="4" mask="url(#b)"/>
  <path d="M400 330a120 120 0 0 1-101.319-55.701l20.264-12.86A96 96 0 0 0 400 306z" fill="url(#c)"/>
  <path fill-rule="evenodd" clip-rule="evenodd" d="M343.153 313.404A118 118 0 0 0 398 327.983V307.98a98 98 0 0 1-79.655-43.791l-16.89 10.718a118 118 0 0 0 41.698 38.497m-43.387-37.425a123 123 0 0 1-1.085-1.68l20.264-12.86A96 96 0 0 0 400 306v24a120 120 0 0 1-100.234-54.021" fill="#EEE"/>
  <mask id="d" fill="#fff">
    <path d="M298.793 274.476A119.99 119.99 0 0 1 288.35 166.02l22.33 8.796a96 96 0 0 0 8.354 86.765z"/>
  </mask>
  <path d="M298.793 274.476A119.99 119.99 0 0 1 288.35 166.02l22.33 8.796a96 96 0 0 0 8.354 86.765z" fill="#FF04D5" stroke="#EEE" stroke-width="4" mask="url(#d)"/>
  <mask id="e" fill="#fff">
    <path d="M288.35 166.02a120 120 0 0 1 47.174-57.227l12.895 20.241a96 96 0 0 0-37.739 45.782z"/>
  </mask>
  <path d="M288.35 166.02a120 120 0 0 1 47.174-57.227l12.895 20.241a96 96 0 0 0-37.739 45.782z" fill="#091E6C" stroke="#EEE" stroke-width="4" mask="url(#e)"/>
  <mask id="f" fill="#fff">
    <path d="M335.576 108.76a120 120 0 0 1 41.793-16.607l4.526 23.57a96 96 0 0 0-33.434 13.285z"/>
  </mask>
  <path d="M335.576 108.76a120 120 0 0 1 41.793-16.607l4.526 23.57a96 96 0 0 0-33.434 13.285z" fill="#082EB5" stroke="#EEE" stroke-width="4" mask="url(#f)"/>
  <mask id="g" fill="#fff">
    <path d="M377.333 92.16a120 120 0 0 1 99.016 25.261l-15.27 18.516a96 96 0 0 0-79.212-20.209z"/>
  </mask>
  <path d="M377.333 92.16a120 120 0 0 1 99.016 25.261l-15.27 18.516a96 96 0 0 0-79.212-20.209z" fill="#63C693" stroke="#EEE" stroke-width="4" mask="url(#g)"/>
  <mask id="h" fill="#fff">
    <path d="M377.333 92.16a120 120 0 0 1 99.016 25.261l-15.27 18.516a96 96 0 0 0-79.212-20.209z"/>
  </mask>
  <path d="M377.333 92.16a120 120 0 0 1 99.016 25.261l-15.27 18.516a96 96 0 0 0-79.212-20.209z" fill="#6E6D71" stroke="#EEE" stroke-width="4" mask="url(#h)"/>
  <mask id="i" fill="#fff">
    <path d="M476.328 117.404A120.001 120.001 0 0 1 400.211 330l-.042-24a96.002 96.002 0 0 0 60.894-170.077z"/>
  </mask>
  <path d="M476.328 117.404A120.001 120.001 0 0 1 400.211 330l-.042-24a96.002 96.002 0 0 0 60.894-170.077z" fill="#0B75FD" stroke="#EEE" stroke-width="4" mask="url(#i)"/>
  <path d="M386.647 230.474h24.01m14.188 0h12.278c2.455 0 2.728-1.364 2.728-2.728 0-9.823-6.548-18.826-20.19-19.099h-43.655c-8.185.273-15.006 7.639-15.006 16.37v5.457h12.278" stroke="#091E6C" stroke-width="3" stroke-miterlimit="10" stroke-linecap="round" stroke-linejoin="round"/>
  <path d="M374.369 208.647c2.183-9.277 11.732-16.371 23.192-16.371 11.186 0 20.736 6.821 23.191 16.098" stroke="#091E6C" stroke-width="3" stroke-miterlimit="10"/>
  <path d="M379.826 237.295a6.821 6.821 0 1 0 0-13.642 6.821 6.821 0 0 0 0 13.642m8.185-42.29v13.642m30.013 28.648a6.821 6.821 0 1 0 0-13.642 6.821 6.821 0 0 0 0 13.642" stroke="#091E6C" stroke-width="3" stroke-miterlimit="10" stroke-linecap="round" stroke-linejoin="round"/>
  <path d="M384.146 190.888h-21.294a1.86 1.86 0 0 1-1.852-1.852v-10.184c0-1.019.833-1.852 1.852-1.852h21.294c1.018 0 1.852.833 1.852 1.852v10.184a1.86 1.86 0 0 1-1.852 1.852zm1.852-9.259h.925c.463 0 .926.463.926.926v2.778c0 .463-.37.925-.926.925h-.925" stroke="#091E6C" stroke-width="2" stroke-miterlimit="10"/>
  <path d="M366.555 179.778h-2.778v8.332h2.778zm5.555 0h-2.777v8.332h2.777zm5.555 0h-2.777v8.332h2.777zm5.463 0h-2.778v8.332h2.778z" stroke="#091E6C" stroke-width="2" stroke-miterlimit="10" stroke-linecap="round" stroke-linejoin="round"/>
  <path d="M11.62 32H1.68V16.9h9.72v2.4H4.52v3.86h6.22v2.38H4.52v4.06h7.1zm2.337-15.1h2.74v11.46q0 .92.2 1.28.201.36.84.36.62 0 .98-.16v2.22q-.32.1-.78.16a5 5 0 0 1-.86.08q-1.58 0-2.36-.76-.76-.76-.76-2.44zm15.827 10.66h-7.06q.1 1.32.86 1.9c.76.58 1.2.58 2.08.58q.5 0 .96-.02.46-.04.92-.12a9 9 0 0 0 .94-.26 8 8 0 0 0 1.06-.48v2.14a9 9 0 0 1-.98.48q-.48.18-1 .3t-1.1.16q-.56.06-1.24.06-2.54 0-3.92-1.28-1.36-1.3-1.36-3.78v-1.32q0-1.2.36-2.14.36-.96 1-1.6a4.2 4.2 0 0 1 1.54-1 5.7 5.7 0 0 1 2-.34q1.08 0 1.98.32.92.3 1.58.92t1.02 1.56q.36.92.36 2.16zm-4.94-4.54q-2.06 0-2.12 2.66h4.28q-.02-1.38-.56-2.02-.52-.64-1.6-.64m12.14-2.18q.78 0 1.64.16.858.16 1.66.58v2.4q-.841-.52-1.64-.7a6.3 6.3 0 0 0-1.52-.2q-1.26 0-1.96.68-.701.66-.7 2.08v1.5q0 1.34.7 2.04.72.68 1.94.68.76 0 1.52-.18.76-.2 1.6-.7v2.26a5 5 0 0 1-1.46.62q-.84.24-1.92.24-2.542 0-3.88-1.32-1.32-1.32-1.32-3.74v-1.32q0-1.16.34-2.1a4.3 4.3 0 0 1 1-1.6q.679-.66 1.68-1.02t2.32-.36m4.588.28h1.74V18h2.74v3.12h2.62v2.14h-2.62v4.94q0 1.02.36 1.4t1.16.38q.3 0 .64-.02a4 4 0 0 0 .62-.12v2.24q-.34.1-.88.16a9 9 0 0 1-.98.06q-1.82 0-2.74-.96t-.92-2.74v-5.34h-1.74zm9.281 0h2.74v1.76q.52-.9 1.36-1.46.84-.58 2-.58v2.74a2.7 2.7 0 0 0-.56-.06q-.62 0-1.12.24a2.7 2.7 0 0 0-.88.68q-.36.44-.58 1.06a4.8 4.8 0 0 0-.22 1.36V32h-2.74zm7.93 0h2.74V32h-2.74zm-.02-4.42h2.8v2.58h-2.8zm10.447 4.14q.78 0 1.64.16t1.66.58v2.4q-.84-.52-1.64-.7a6.3 6.3 0 0 0-1.52-.2q-1.26 0-1.96.68-.7.66-.7 2.08v1.5q0 1.34.7 2.04.72.68 1.94.68.76 0 1.52-.18.76-.2 1.6-.7v2.26a5 5 0 0 1-1.46.62q-.84.24-1.92.24-2.54 0-3.88-1.32-1.32-1.32-1.32-3.74v-1.32q0-1.16.34-2.1a4.3 4.3 0 0 1 1-1.6q.68-.66 1.68-1.02t2.32-.36M85.798 32h-3.02l-4.98-15.1h3.16l3.5 11.74 3.72-11.74h3zm15.138-4.44h-7.06q.1 1.32.86 1.9t2.08.58q.501 0 .96-.02.46-.04.92-.12a9 9 0 0 0 .94-.26 8 8 0 0 0 1.06-.48v2.14q-.5.28-.98.48-.48.18-1 .3a7 7 0 0 1-1.1.16q-.56.06-1.24.06-2.54 0-3.92-1.28-1.36-1.3-1.36-3.78v-1.32q0-1.2.36-2.14.36-.96 1-1.6a4.2 4.2 0 0 1 1.54-1 5.7 5.7 0 0 1 2-.34q1.08 0 1.98.32.92.3 1.58.92t1.02 1.56q.36.92.36 2.16zm-4.94-4.54q-2.06 0-2.12 2.66h4.28q-.02-1.38-.56-2.02-.52-.64-1.6-.64m7.259-6.12h2.74v5.68a3.8 3.8 0 0 1 1.34-1.26q.82-.48 2.04-.48 1.92 0 2.86 1.14.96 1.12.96 3.24V32h-2.74v-6.02q0-1.4-.58-2.04-.56-.64-1.54-.64-1.08 0-1.72.72-.62.7-.62 2.08V32h-2.74zm12.637 4.22h2.74V32h-2.74zm-.02-4.42h2.8v2.58h-2.8zm10.447 4.14q.78 0 1.64.16t1.66.58v2.4q-.84-.52-1.64-.7a6.3 6.3 0 0 0-1.52-.2q-1.26 0-1.96.68-.7.66-.7 2.08v1.5q0 1.34.7 2.04.72.68 1.94.68.76 0 1.52-.18.76-.2 1.6-.7v2.26q-.62.4-1.46.62-.84.24-1.92.24-2.54 0-3.88-1.32-1.32-1.32-1.32-3.74v-1.32q0-1.16.34-2.1t1-1.6q.68-.66 1.68-1.02c1-.36 1.44-.36 2.32-.36m5.509-3.94h2.74v11.46q0 .92.2 1.28.201.36.84.36.62 0 .98-.16v2.22q-.32.1-.78.16a5 5 0 0 1-.86.08q-1.58 0-2.36-.76-.76-.76-.76-2.44zm15.827 10.66h-7.06q.1 1.32.86 1.9c.76.58 1.2.58 2.08.58q.5 0 .96-.02.46-.04.92-.12a9 9 0 0 0 .94-.26 8 8 0 0 0 1.06-.48v2.14a9 9 0 0 1-.98.48q-.48.18-1 .3t-1.1.16q-.56.06-1.24.06-2.54 0-3.92-1.28-1.36-1.3-1.36-3.78v-1.32q0-1.2.36-2.14.36-.96 1-1.6a4.2 4.2 0 0 1 1.54-1 5.7 5.7 0 0 1 2-.34q1.08 0 1.98.32.92.3 1.58.92t1.02 1.56q.36.92.36 2.16zm-4.94-4.54q-2.06 0-2.12 2.66h4.28q-.02-1.38-.56-2.02-.52-.64-1.6-.64" fill="#323232"/>
  <path d="M789.003 10c-14.844 0-20.989 6.423-20.989 19.094l-.014 8.9 10.601.006c14.844 0 20.989-6.423 20.989-19.098l.042-8.902zm-.02 6.965 3.71.022-.008 1.915c0 6.638-2.057 8.572-2.733 9.208-2.061 1.939-5.873 2.922-11.332 2.925l-3.705-.021.005-1.92c0-6.635 2.056-8.569 2.732-9.204 2.061-1.939 5.873-2.922 11.331-2.925" fill="#DBDBDB"/>
  <defs>
    <linearGradient id="a" x1="522.915" y1="311.778" x2="251.466" y2="268.35" gradientUnits="userSpaceOnUse">
      <stop stop-color="#007AFF"/>
      <stop offset=".157" stop-color="#2767F8"/>
      <stop offset=".51" stop-color="#8938E5"/>
      <stop offset=".909" stop-color="#FF00CF"/>
    </linearGradient>
    <linearGradient id="c" x1="401.231" y1="324.794" x2="289.924" y2="298.478" gradientUnits="userSpaceOnUse">
      <stop stop-color="#007AFF"/>
      <stop offset=".157" stop-color="#2767F8"/>
      <stop offset=".51" stop-color="#8938E5"/>
      <stop offset=".909" stop-color="#FF00CF"/>
    </linearGradient>
  </defs>
</svg>
