<svg class="plot-d6a7b5" fill="currentColor" font-family="system-ui, sans-serif" font-size="10" text-anchor="middle" width="900" height="325" viewBox="0 0 900 325" xmlns="http://www.w3.org/2000/svg" xmlns:xlink="http://www.w3.org/1999/xlink"><style>:where(.plot-d6a7b5) {
  --plot-background: white;
  display: block;
  height: auto;
  height: intrinsic;
  max-width: 100%;
}
:where(.plot-d6a7b5 text),
:where(.plot-d6a7b5 tspan) {
  white-space: pre;
}</style><g aria-label="x-grid" aria-hidden="true" stroke="currentColor" stroke-opacity="0.1"><line x1="40" x2="40" y1="20" y2="295"/><line x1="87.63705103969755" x2="87.63705103969755" y1="20" y2="295"/><line x1="136.86200378071834" x2="136.86200378071834" y1="20" y2="295"/><line x1="184.4990548204159" x2="184.4990548204159" y1="20" y2="295"/><line x1="233.72400756143668" x2="233.72400756143668" y1="20" y2="295"/><line x1="282.94896030245746" x2="282.94896030245746" y1="20" y2="295"/><line x1="330.58601134215496" x2="330.58601134215496" y1="20" y2="295"/><line x1="379.8109640831758" x2="379.8109640831758" y1="20" y2="295"/><line x1="427.44801512287336" x2="427.44801512287336" y1="20" y2="295"/><line x1="476.6729678638941" x2="476.6729678638941" y1="20" y2="295"/><line x1="525.8979206049149" x2="525.8979206049149" y1="20" y2="295"/><line x1="571.9470699432893" x2="571.9470699432893" y1="20" y2="295"/><line x1="621.1720226843099" x2="621.1720226843099" y1="20" y2="295"/><line x1="668.8090737240076" x2="668.8090737240076" y1="20" y2="295"/><line x1="718.0340264650283" x2="718.0340264650283" y1="20" y2="295"/><line x1="765.6710775047259" x2="765.6710775047259" y1="20" y2="295"/><line x1="814.8960302457467" x2="814.8960302457467" y1="20" y2="295"/><line x1="864.1209829867676" x2="864.1209829867676" y1="20" y2="295"/></g><g aria-label="x-axis tick" aria-hidden="true" fill="none" stroke="currentColor"><path transform="translate(40,295)" d="M0,0L0,6"/><path transform="translate(87.63705103969755,295)" d="M0,0L0,6"/><path transform="translate(136.86200378071834,295)" d="M0,0L0,6"/><path transform="translate(184.4990548204159,295)" d="M0,0L0,6"/><path transform="translate(233.72400756143668,295)" d="M0,0L0,6"/><path transform="translate(282.94896030245746,295)" d="M0,0L0,6"/><path transform="translate(330.58601134215496,295)" d="M0,0L0,6"/><path transform="translate(379.8109640831758,295)" d="M0,0L0,6"/><path transform="translate(427.44801512287336,295)" d="M0,0L0,6"/><path transform="translate(476.6729678638941,295)" d="M0,0L0,6"/><path transform="translate(525.8979206049149,295)" d="M0,0L0,6"/><path transform="translate(571.9470699432893,295)" d="M0,0L0,6"/><path transform="translate(621.1720226843099,295)" d="M0,0L0,6"/><path transform="translate(668.8090737240076,295)" d="M0,0L0,6"/><path transform="translate(718.0340264650283,295)" d="M0,0L0,6"/><path transform="translate(765.6710775047259,295)" d="M0,0L0,6"/><path transform="translate(814.8960302457467,295)" d="M0,0L0,6"/><path transform="translate(864.1209829867676,295)" d="M0,0L0,6"/></g><g aria-label="x-axis tick label" font-variant="tabular-nums" transform="translate(0,9)"><text transform="translate(40,295)"><tspan x="0" y="0.71em">Apr</tspan><tspan x="0" dy="1em">2023</tspan></text><text y="0.71em" transform="translate(87.63705103969755,295)">May</text><text y="0.71em" transform="translate(136.86200378071834,295)">Jun</text><text y="0.71em" transform="translate(184.4990548204159,295)">Jul</text><text y="0.71em" transform="translate(233.72400756143668,295)">Aug</text><text y="0.71em" transform="translate(282.94896030245746,295)">Sep</text><text y="0.71em" transform="translate(330.58601134215496,295)">Oct</text><text y="0.71em" transform="translate(379.8109640831758,295)">Nov</text><text y="0.71em" transform="translate(427.44801512287336,295)">Dec</text><text transform="translate(476.6729678638941,295)"><tspan x="0" y="0.71em">Jan</tspan><tspan x="0" dy="1em">2024</tspan></text><text y="0.71em" transform="translate(525.8979206049149,295)">Feb</text><text y="0.71em" transform="translate(571.9470699432893,295)">Mar</text><text y="0.71em" transform="translate(621.1720226843099,295)">Apr</text><text y="0.71em" transform="translate(668.8090737240076,295)">May</text><text y="0.71em" transform="translate(718.0340264650283,295)">Jun</text><text y="0.71em" transform="translate(765.6710775047259,295)">Jul</text><text y="0.71em" transform="translate(814.8960302457467,295)">Aug</text><text y="0.71em" transform="translate(864.1209829867676,295)">Sep</text></g><rect aria-label="frame" fill="none" x="40" y="20" width="840" height="275"/><g aria-label="bar"><rect x="40" width="144.4990548204159" y="28" height="48" rx="3" fill="#56B4e9"/><rect x="187.67485822306242" width="11.115311909262743" y="81" height="48" rx="3" fill="gold"/><rect x="330.58601134215496" width="338.2230623818526" y="134" height="48" rx="3" fill="#56B4e9"/><rect x="476.6729678638941" width="352.5141776937618" y="187" height="48" rx="3" fill="gold"/><rect x="648.1663516068053" width="231.83364839319472" y="240" height="48" rx="3" fill="tomato"/></g><g aria-label="text" fill="dimgray" stroke="white" stroke-width="3" stroke-linejoin="round" paint-order="stroke" text-anchor="start" font-size="14" font-weight="500" transform="translate(0,24)"><text y="0.32em" transform="translate(40,28)">Develop survey</text><text y="0.32em" transform="translate(187.67485822306242,81)">Distributing surveys</text><text y="0.32em" transform="translate(330.58601134215496,134)">Collect responses</text><text y="0.32em" transform="translate(476.6729678638941,187)">Content creation</text><text y="0.32em" transform="translate(648.1663516068053,240)">Feedback and interviews</text></g><g aria-label="tip" fill="var(--plot-background)" stroke="currentColor" pointer-events="none" text-anchor="start" transform="translate(0,24)"/></svg>