<svg xmlns="http://www.w3.org/2000/svg" width="900" height="760" viewBox="0 0 900 760" font-family="sans-serif" font-size="10" text-anchor="end">
  <g fill="none" text-anchor="middle">
    <path class="domain" stroke="currentColor" d="M70 34v6h760v-6"/>
    <g class="tick">
      <path stroke="currentColor" d="M0 0v-6" transform="translate(70 40)"/>
      <text fill="currentColor" y="-9" dy="0em" transform="translate(70 40) rotate(-45)" dx="1em">N+0</text>
    </g>
    <g class="tick">
      <path stroke="currentColor" d="M0 0v-6" transform="translate(127.358 40)"/>
      <text fill="currentColor" y="-9" dy="0em" transform="translate(127.358 40) rotate(-45)" dx="1em">N+1</text>
    </g>
    <g class="tick">
      <path stroke="currentColor" d="M0 0v-6" transform="translate(184.717 40)"/>
      <text fill="currentColor" y="-9" dy="0em" transform="translate(184.717 40) rotate(-45)" dx="1em">N+2</text>
    </g>
    <g class="tick">
      <path stroke="currentColor" d="M0 0v-6" transform="translate(242.075 40)"/>
      <text fill="currentColor" y="-9" dy="0em" transform="translate(242.075 40) rotate(-45)" dx="1em">N+3</text>
    </g>
    <g class="tick">
      <path stroke="currentColor" d="M0 0v-6" transform="translate(299.434 40)"/>
      <text fill="currentColor" y="-9" dy="0em" transform="translate(299.434 40) rotate(-45)" dx="1em">N+4</text>
    </g>
    <g class="tick">
      <path stroke="currentColor" d="M0 0v-6" transform="translate(356.792 40)"/>
      <text fill="currentColor" y="-9" dy="0em" transform="translate(356.792 40) rotate(-45)" dx="1em">N+5</text>
    </g>
    <g class="tick">
      <path stroke="currentColor" d="M0 0v-6" transform="translate(414.15 40)"/>
      <text fill="currentColor" y="-9" dy="0em" transform="translate(414.15 40) rotate(-45)" dx="1em">N+6</text>
    </g>
    <g class="tick">
      <path stroke="currentColor" d="M0 0v-6" transform="translate(471.51 40)"/>
      <text fill="currentColor" y="-9" dy="0em" transform="translate(471.51 40) rotate(-45)" dx="1em">N+7</text>
    </g>
    <g class="tick">
      <path stroke="currentColor" d="M0 0v-6" transform="translate(528.868 40)"/>
      <text fill="currentColor" y="-9" dy="0em" transform="translate(528.868 40) rotate(-45)" dx="1em">N+8</text>
    </g>
    <g class="tick">
      <path stroke="currentColor" d="M0 0v-6" transform="translate(586.226 40)"/>
      <text fill="currentColor" y="-9" dy="0em" transform="translate(586.226 40) rotate(-45)" dx="1em">N+9</text>
    </g>
    <g class="tick">
      <path stroke="currentColor" d="M0 0v-6" transform="translate(643.585 40)"/>
      <text fill="currentColor" y="-9" dy="0em" transform="translate(643.585 40) rotate(-45)" dx="1em">N+10</text>
    </g>
    <g class="tick">
      <path stroke="currentColor" d="M0 0v-6" transform="translate(700.943 40)"/>
      <text fill="currentColor" y="-9" dy="0em" transform="translate(700.943 40) rotate(-45)" dx="1em">N+11</text>
    </g>
    <g class="tick">
      <path stroke="currentColor" d="M0 0v-6" transform="translate(758.302 40)"/>
      <text fill="currentColor" y="-9" dy="0em" transform="translate(758.302 40) rotate(-45)" dx="1em">N+12</text>
    </g>
    <g class="tick">
      <path stroke="currentColor" d="M0 0v-6" transform="translate(815.66 40)"/>
      <text fill="currentColor" y="-9" dy="0em" transform="translate(815.66 40) rotate(-45)" dx="1em">N+13</text>
    </g>
  </g>
  <g fill="none">
    <path class="domain" stroke="currentColor" d="M64 730h6V40h-6"/>
    <g class="tick">
      <path stroke="currentColor" d="M0 0h-6" transform="translate(70 695.81)"/>
      <text fill="currentColor" x="-9" dy=".32em" transform="translate(70 695.81)">Test 1</text>
    </g>
    <g class="tick">
      <path stroke="currentColor" d="M0 0h-6" transform="translate(70 633.649)"/>
      <text fill="currentColor" x="-9" dy=".32em" transform="translate(70 633.649)">TestTest 2</text>
    </g>
    <g class="tick">
      <path stroke="currentColor" d="M0 0h-6" transform="translate(70 571.486)"/>
      <text fill="currentColor" x="-9" dy=".32em" transform="translate(70 571.486)">Test 3</text>
    </g>
    <g class="tick">
      <path stroke="currentColor" d="M0 0h-6" transform="translate(70 509.324)"/>
      <text fill="currentColor" x="-9" dy=".32em" transform="translate(70 509.324)">TestTestTest 4</text>
    </g>
    <g class="tick">
      <path stroke="currentColor" d="M0 0h-6" transform="translate(70 447.162)"/>
      <text fill="currentColor" x="-9" dy=".32em" transform="translate(70 447.162)">TestTest 4</text>
    </g>
    <g class="tick">
      <path stroke="currentColor" d="M0 0h-6" transform="translate(70 385)"/>
      <text fill="currentColor" x="-9" dy=".32em" transform="translate(70 385)">E</text>
    </g>
    <g class="tick">
      <path stroke="currentColor" d="M0 0h-6" transform="translate(70 322.838)"/>
      <text fill="currentColor" x="-9" dy=".32em" transform="translate(70 322.838)">F</text>
    </g>
    <g class="tick">
      <path stroke="currentColor" d="M0 0h-6" transform="translate(70 260.676)"/>
      <text fill="currentColor" x="-9" dy=".32em" transform="translate(70 260.676)">G</text>
    </g>
    <g class="tick">
      <path stroke="currentColor" d="M0 0h-6" transform="translate(70 198.514)"/>
      <text fill="currentColor" x="-9" dy=".32em" transform="translate(70 198.514)">H</text>
    </g>
    <g class="tick">
      <path stroke="currentColor" d="M0 0h-6" transform="translate(70 136.351)"/>
      <text fill="currentColor" x="-9" dy=".32em" transform="translate(70 136.351)">I</text>
    </g>
    <g class="tick">
      <path stroke="currentColor" d="M0 0h-6" transform="translate(70 74.19)"/>
      <text fill="currentColor" x="-9" dy=".32em" transform="translate(70 74.19)">J</text>
    </g>
  </g>
  <path fill="brown" stroke="#000" d="M156.038 0h43.019v55.946h-43.019z" transform="translate(0 667.838)"/>
  <text fill="#fff" x="196.057" y="27.973" dy=".35em" transform="translate(0 667.838)">3/1/2021, 2:15:00 AM</text>
  <path fill="#00f" stroke="#000" d="M184.717 0h28.679v55.946h-28.679z" transform="translate(0 605.676)"/>
  <text fill="#fff" x="210.396" y="27.973" dy=".35em" transform="translate(0 605.676)">3/1/2021, 2:30:00 AM</text>
  <path fill="red" stroke="#000" d="M299.434 0h57.358v55.946h-57.358z" transform="translate(0 543.514)"/>
  <text fill="#fff" x="353.792" y="27.973" dy=".35em" transform="translate(0 543.514)">3/1/2021, 5:00:00 AM</text>
  <path fill="brown" stroke="#000" d="M270.755 0h14.34v55.946h-14.34z" transform="translate(0 481.351)"/>
  <text fill="#fff" x="282.094" y="27.973" dy=".35em" transform="translate(0 481.351)">3/1/2021, 3:45:00 AM</text>
  <path fill="#00f" stroke="#000" d="M356.792 0h57.358v55.946h-57.358z" transform="translate(0 419.19)"/>
  <text fill="#fff" x="411.151" y="27.973" dy=".35em" transform="translate(0 419.19)">3/1/2021, 6:00:00 AM</text>
  <path fill="green" stroke="#000" d="M471.509 0h57.358v55.946h-57.358z" transform="translate(0 357.027)"/>
  <text fill="#fff" x="525.868" y="27.973" dy=".35em" transform="translate(0 357.027)">3/1/2021, 8:00:00 AM</text>
  <path fill="#00f" stroke="#000" d="M414.151 0h129.057v55.946H414.151z" transform="translate(0 294.865)"/>
  <text fill="#fff" x="540.208" y="27.973" dy=".35em" transform="translate(0 294.865)">3/1/2021, 8:15:00 AM</text>
  <path fill="red" stroke="#000" d="M586.226 0h43.019v55.946h-43.019z" transform="translate(0 232.703)"/>
  <text fill="#fff" x="626.245" y="27.973" dy=".35em" transform="translate(0 232.703)">3/1/2021, 9:45:00 AM</text>
  <path fill="brown" stroke="#000" d="M643.585 0h71.698v55.946h-71.698z" transform="translate(0 170.54)"/>
  <text fill="#fff" x="712.283" y="27.973" dy=".35em" transform="translate(0 170.54)">3/1/2021, 11:15:00 AM</text>
  <path fill="green" stroke="#000" d="M700.943 0H815.66v55.946H700.943z" transform="translate(0 108.378)"/>
  <text fill="#fff" x="812.66" y="27.973" dy=".35em" transform="translate(0 108.378)">3/1/2021, 1:00:00 PM</text>
  <path fill="#00f" stroke="#000" d="M758.302 0h57.358v55.946h-57.358z" transform="translate(0 46.216)"/>
  <text fill="#fff" x="812.66" y="27.973" dy=".35em" transform="translate(0 46.216)">3/1/2021, 1:00:00 PM</text>
  <g transform="translate(0 667.838)">
    <rect fill="green" stroke="#000" width="NaN" height="55.946"/>
    <text fill="#fff" x="NaN" y="27.973" dy=".35em">Invalid Date</text>
  </g>
</svg>
