<svg xmlns="http://www.w3.org/2000/svg" xmlns:xlink="http://www.w3.org/1999/xlink" width="1280" height="720" overflow="hidden"><defs><clipPath id="clip0"><rect x="0" y="0" width="1280" height="720"/></clipPath><linearGradient x1="640" y1="0" x2="640" y2="720" gradientUnits="userSpaceOnUse" spreadMethod="reflect" id="fill1"><stop offset="0" stop-color="#FEFEFE"/><stop offset="0.166667" stop-color="#FDFDFD"/><stop offset="0.333333" stop-color="#FDFDFD"/><stop offset="0.5" stop-color="#FCFCFC"/><stop offset="0.666667" stop-color="#FAFAFA"/><stop offset="0.833333" stop-color="#F9F9F9"/><stop offset="1" stop-color="#F7F7F7"/></linearGradient></defs><g clip-path="url(#clip0)"><rect x="0" y="0" width="1280" height="720" fill="url(#fill1)"/><path d="M1184 401 1184 468.236" stroke="#4E8542" stroke-width="2" stroke-miterlimit="8" fill="none" fill-rule="evenodd"/><path d="M1032 401 1032 468.236" stroke="#4E8542" stroke-width="2" stroke-miterlimit="8" fill="none" fill-rule="evenodd"/><path d="M1096 411 1096 468.469" stroke="#ED7D31" stroke-width="2" stroke-miterlimit="8" fill="none" fill-rule="evenodd"/><path d="M1096 358 1096 386" stroke="#ED7D31" stroke-width="2" stroke-miterlimit="8" fill="none" fill-rule="evenodd"/><path d="M680 358 680 467.902" stroke="#ED7D31" stroke-width="2" stroke-miterlimit="8" fill="none" fill-rule="evenodd"/><path d="M685 373 685 468.236" stroke="#5B9BD5" stroke-width="2" stroke-miterlimit="8" fill="none" fill-rule="evenodd"/><path d="M685 330 685 343.333" stroke="#5B9BD5" stroke-width="2" stroke-miterlimit="8" fill="none" fill-rule="evenodd"/><path d="M685 273 685 301" stroke="#5B9BD5" stroke-width="2" stroke-miterlimit="8" fill="none" fill-rule="evenodd"/><path d="M435 273 435 301" stroke="#5B9BD5" stroke-width="2" stroke-miterlimit="8" fill="none" fill-rule="evenodd"/><path d="M383 325 383 467.802" stroke="#B20E12" stroke-width="2" stroke-miterlimit="8" fill="none" fill-rule="evenodd"/><path d="M383 283 383 306.133" stroke="#B20E12" stroke-width="2" stroke-miterlimit="8" fill="none" fill-rule="evenodd"/><path d="M383 230 383 262.9" stroke="#B20E12" stroke-width="2" stroke-miterlimit="8" fill="none" fill-rule="evenodd"/><path d="M486 330 486 467.902" stroke="#9F2936" stroke-width="2" stroke-miterlimit="8" fill="none" fill-rule="evenodd"/><path d="M486 287 486 300.333" stroke="#9F2936" stroke-width="2" stroke-miterlimit="8" fill="none" fill-rule="evenodd"/><path d="M486 245 486 258.333" stroke="#9F2936" stroke-width="2" stroke-miterlimit="8" fill="none" fill-rule="evenodd"/><path d="M486 187 486 215" stroke="#9F2936" stroke-width="2" stroke-miterlimit="8" fill="none" fill-rule="evenodd"/><path d="M142 187 142 467.569" stroke="#9F2936" stroke-width="2" stroke-miterlimit="8" fill="none" fill-rule="evenodd"/><path d="M144.5 515.5 144.5 544.163" stroke="#9F2936" stroke-miterlimit="8" fill="none" fill-rule="evenodd"/><path d="M1185.5 515.5 1185.5 544.163" stroke="#4E8542" stroke-miterlimit="8" fill="none" fill-rule="evenodd"/><path d="M435 330 435 467.902" stroke="#5B9BD5" stroke-width="2" stroke-miterlimit="8" fill="none" fill-rule="evenodd"/><path d="M78 488C78 476.954 86.9543 468 98 468L1183 468C1194.05 468 1203 476.954 1203 488L1203 488C1203 499.046 1194.05 508 1183 508L98 508C86.9543 508 78 499.046 78 488Z" fill="#323232" fill-rule="evenodd"/><path d="M78 488C78 476.954 86.9543 468 98 468L149 468C160.046 468 169 476.954 169 488L169 488C169 499.046 160.046 508 149 508L98 508C86.9543 508 78 499.046 78 488Z" fill="#E3DED1" fill-rule="evenodd" fill-opacity="0.301961"/><path d="M0 13 6 0 12 13Z" fill="#FF0000" fill-rule="evenodd" transform="matrix(1 0 0 -1 162 468)"/><text font-family="Calibri,Calibri_MSFontService,sans-serif" font-weight="400" font-size="15" transform="translate(150.201 451)">Today<tspan fill="#FFFFFF" font-weight="700" font-size="19" x="-48.3519" y="43">Jan</tspan><tspan fill="#FFFFFF" font-weight="700" font-size="19" x="52.7819" y="43">Feb</tspan><tspan fill="#FFFFFF" font-weight="700" font-size="19" x="144.129" y="43">Mar</tspan><tspan fill="#FFFFFF" font-weight="700" font-size="19" x="245.263" y="43">Apr</tspan><tspan fill="#FFFFFF" font-weight="700" font-size="19" x="343.134" y="43">May</tspan><tspan fill="#FFFFFF" font-weight="700" font-size="19" x="444.268" y="43">Jun</tspan><tspan fill="#FFFFFF" font-weight="700" font-size="19" x="542.139" y="43">Jul</tspan><tspan fill="#FFFFFF" font-weight="700" font-size="19" x="643.273" y="43">Aug</tspan><tspan fill="#FFFFFF" font-weight="700" font-size="19" x="744.407" y="43">Sep</tspan><tspan fill="#FFFFFF" font-weight="700" font-size="19" x="842.278" y="43">Oct</tspan><tspan fill="#FFFFFF" font-weight="700" font-size="19" x="943.412" y="43">Nov</tspan></text><path d="M196.5 472.5 196.5 504.5" stroke="#FFFFFF" stroke-miterlimit="8" stroke-opacity="0.298039" fill="none" fill-rule="evenodd"/><path d="M288.5 472.5 288.5 504.5" stroke="#FFFFFF" stroke-miterlimit="8" stroke-opacity="0.298039" fill="none" fill-rule="evenodd"/><path d="M389.5 472.5 389.5 504.5" stroke="#FFFFFF" stroke-miterlimit="8" stroke-opacity="0.298039" fill="none" fill-rule="evenodd"/><path d="M487.5 472.5 487.5 504.5" stroke="#FFFFFF" stroke-miterlimit="8" stroke-opacity="0.298039" fill="none" fill-rule="evenodd"/><path d="M588.5 472.5 588.5 504.5" stroke="#FFFFFF" stroke-miterlimit="8" stroke-opacity="0.298039" fill="none" fill-rule="evenodd"/><path d="M686.5 472.5 686.5 504.5" stroke="#FFFFFF" stroke-miterlimit="8" stroke-opacity="0.298039" fill="none" fill-rule="evenodd"/><path d="M787.5 472.5 787.5 504.5" stroke="#FFFFFF" stroke-miterlimit="8" stroke-opacity="0.298039" fill="none" fill-rule="evenodd"/><path d="M888.5 472.5 888.5 504.5" stroke="#FFFFFF" stroke-miterlimit="8" stroke-opacity="0.298039" fill="none" fill-rule="evenodd"/><path d="M986.5 472.5 986.5 504.5" stroke="#FFFFFF" stroke-miterlimit="8" stroke-opacity="0.298039" fill="none" fill-rule="evenodd"/><path d="M1087.5 472.5 1087.5 504.5" stroke="#FFFFFF" stroke-miterlimit="8" stroke-opacity="0.298039" fill="none" fill-rule="evenodd"/><path d="M141 173 473.5 173 488 187.5 473.5 202 141 202Z" fill="#9F2936" fill-rule="evenodd"/><path d="M382 215 473 215 488 230 473 245 382 245Z" fill="#9F2936" fill-rule="evenodd"/><path d="M434 258 671.5 258 686 272.5 671.5 287 434 287Z" fill="#2F5597" fill-rule="evenodd"/><path d="M434 301 671.5 301 686 315.5 671.5 330 434 330Z" fill="#2F5597" fill-rule="evenodd"/><path d="M679 343 1083 343 1098 358 1083 373 679 373Z" fill="#F07F09" fill-rule="evenodd"/><path d="M1031 386 1170.5 386 1185 400.5 1170.5 415 1031 415Z" fill="#4E8542" fill-rule="evenodd"/><text fill="#323232" font-family="Calibri,Calibri_MSFontService,sans-serif" font-weight="700" font-size="16" transform="translate(61.2311 193)">1/15 <tspan font-size="16" x="34.2" y="0">-</tspan><tspan font-size="16" x="42.38" y="0">4/30</tspan><tspan fill="#9F2936" font-size="16" x="430.768" y="0">Recruit</tspan><tspan fill="#FFFFFF" font-size="16" x="227.583" y="0">76 days</tspan><tspan font-size="16" x="242.456" y="42">3/30 </tspan><tspan font-size="16" x="276.79" y="42">-</tspan><tspan font-size="16" x="285.023" y="42">4/30</tspan><tspan fill="#9F2936" font-size="16" x="430.768" y="42">Legal Agreements</tspan><tspan fill="#FFFFFF" font-size="16" x="348.291" y="42">24 days</tspan><tspan font-size="16" x="294.654" y="85">4/15 </tspan>-<tspan font-size="16" x="337.221" y="85">6/30</tspan><tspan fill="#2F5597" font-size="16" x="629.773" y="85">Architecture Review</tspan><tspan fill="#FFFFFF" font-size="16" x="473.893" y="85">55 days</tspan><tspan font-size="16" x="294.654" y="128">4/15 </tspan>-<tspan font-size="16" x="337.221" y="128">6/30</tspan><tspan fill="#2F5597" font-size="16" x="629.773" y="128">Training Calls</tspan><tspan fill="#FFFFFF" font-size="16" x="473.893" y="128">55 days</tspan><tspan font-size="16" x="539.333" y="170">6/29 </tspan>-<tspan font-size="16" x="581.9" y="170">11/3</tspan><tspan fill="#ED7D31" font-size="16" x="1040.83" y="170">Partner Development</tspan><tspan fill="#FFFFFF" font-size="16" x="801.762" y="170">92 days</tspan><tspan font-size="16" x="876.368" y="213">10/15 </tspan><tspan font-size="16" x="918.895" y="213">-</tspan><tspan font-size="16" x="927.181" y="213">11/30</tspan><tspan fill="#4E8542" font-size="16" x="1128.92" y="213">Marketing</tspan><tspan fill="#FFFFFF" font-size="16" x="1021.97" y="213">33 days</tspan></text><path d="M674 528 686 501 698 528Z" fill="#96D642" fill-rule="evenodd"/><path d="M824 528 836 501 848 528Z" fill="#96D642" fill-rule="evenodd"/><path d="M1010 528 1022 501 1034 528Z" fill="#96D642" fill-rule="evenodd"/><path d="M132 514.5 144 501 156 514.5 144 528Z" fill="#9F2936" fill-rule="evenodd"/><path d="M1173 514.5 1185 501 1197 514.5 1185 528Z" fill="#4E8542" fill-rule="evenodd"/><text font-family="Calibri,Calibri_MSFontService,sans-serif" font-weight="700" font-size="16" transform="translate(633.443 561)">Validation Call 1<tspan fill="#323232" font-weight="400" font-size="15" x="35.5056" y="-19">06.30</tspan><tspan font-size="16" x="150.07" y="0">Validation Call 2</tspan><tspan fill="#323232" font-weight="400" font-size="15" x="185.575" y="-19">08.15</tspan><tspan font-size="16" x="336.025" y="0">Validation Call 3</tspan><tspan fill="#323232" font-weight="400" font-size="15" x="371.531" y="-19">10.11</tspan><tspan fill="#9F2936" font-size="16" x="-529.313" y="15">Project Start</tspan></text><path d="M103.77 578.399 124.27 578.399 144.77 578.399 165.27 578.399 185.77 578.399 185.77 579.399 165.27 579.399 144.77 579.399 124.27 579.399 103.77 579.399Z" fill="#9F2936" fill-rule="evenodd"/><text fill="#323232" font-family="Calibri,Calibri_MSFontService,sans-serif" font-weight="700" font-size="15" transform="translate(110.458 557)">01.15.2021<tspan fill="#385723" font-size="16" x="1037.25" y="19">Project End</tspan></text><path d="M1148.03 578.399 1166.53 578.399 1185.03 578.399 1203.53 578.399 1222.03 578.399 1222.03 579.399 1203.53 579.399 1185.03 579.399 1166.53 579.399 1148.03 579.399Z" fill="#385723" fill-rule="evenodd"/><text fill="#323232" font-family="Calibri,Calibri_MSFontService,sans-serif" font-weight="700" font-size="15" transform="translate(1151.16 557)">11.30.2021</text></g></svg>