<svg xmlns="http://www.w3.org/2000/svg" xmlns:xlink="http://www.w3.org/1999/xlink" version="1.1" id="Layer_1" x="0px" y="0px" viewBox="0 0 799.9 578.6" style="enable-background:new 0 0 799.9 578.6;" xml:space="preserve">
<style type="text/css">
	.st0{fill:#FFFFFF;}
	.st1{fill:#455264;}
	.st2{fill:#F7F6F4;}
	.st3{fill:#E3E3E3;}
	.st4{fill:none;stroke:#E3E3E3;stroke-width:1.3046;stroke-miterlimit:10;}
	.st5{fill:#444444;}
	.st6{fill:#009689;}
	.st7{fill:#FFB41F;}
	.st8{fill:#6392F8;}
	.st9{fill:#4EA99A;}
	.st10{fill:#E5A807;}
	.st11{fill:#6391F7;}
	.st12{fill:#D171A1;}
</style>
<g>
	
		<rect x="254.5" y="-0.1" transform="matrix(-1.836970e-16 1 -1 -1.836970e-16 787.4551 -176.2741)" class="st0" width="454.7" height="611.5"/>
</g>
<g>
	<path class="st1" d="M337.1,560.4l0.7-0.6c0,0,0.6,1.3,2.3,1.3c1.1,0,1.9-0.7,1.9-1.6c0-1.7-3.8-1.3-3.8-3.8c0-1.2,1.1-2.4,2.8-2.4   c1.9,0,2.6,1.3,2.6,1.3l-0.7,0.6c0,0-0.5-1-2-1c-1.1,0-1.9,0.8-1.9,1.6c0,1.7,3.8,1.3,3.8,3.8c0,1.3-1.2,2.5-2.9,2.5   C337.9,562,337.1,560.4,337.1,560.4z"/>
	<path class="st1" d="M345.4,556.1h0.8l-0.1,0.6c0,0,0.6-0.8,1.7-0.8c1.3,0,1.7,1.1,1.7,1.1s0.7-1.1,2.1-1.1c1.3,0,1.9,0.9,1.9,2   c0,0.2,0,0.5-0.1,0.7l-0.7,3.2h-0.8l0.7-3.3c0-0.2,0.1-0.4,0.1-0.6c0-0.7-0.3-1.3-1.2-1.3c-0.8,0-1.6,0.7-1.9,1.8l-0.7,3.3h-0.8   l0.7-3.3c0-0.2,0.1-0.4,0.1-0.5c0-0.7-0.3-1.3-1.2-1.3c-0.8,0-1.7,0.7-1.9,1.8l-0.7,3.3h-0.8L345.4,556.1z"/>
	<path class="st1" d="M354.5,560.4c0-0.9,0.7-1.6,1.8-1.8l2.5-0.4c0-0.1,0-0.2,0-0.2c0-0.7-0.5-1.2-1.3-1.2c-0.9,0-1.6,0.7-1.6,0.7   l-0.4-0.6c0,0,0.8-0.8,2.1-0.8c1.2,0,2.1,0.7,2.1,1.9c0,0.2,0,0.4-0.1,0.6l-0.7,3.4h-0.8l0.1-0.7c0,0-0.6,0.8-1.9,0.8   C355.2,562,354.5,561.2,354.5,560.4z M358.6,559.4l0.1-0.5l-2.1,0.3c-0.9,0.2-1.3,0.6-1.3,1.1c0,0.5,0.4,0.8,1.1,0.8   C357.6,561.2,358.4,560.4,358.6,559.4z"/>
	<path class="st1" d="M362.1,556.1h0.8l-0.1,0.7c0,0,0.7-0.8,1.9-0.8h0.5l-0.2,0.8h-0.6c-0.8,0-1.7,0.5-2,1.9l-0.7,3.2h-0.8   L362.1,556.1z"/>
	<path class="st1" d="M366.2,560.6c0-0.2,0-0.3,0.1-0.5l0.7-3.2h-1.1l0.2-0.8h0.7c0.3,0,0.5-0.2,0.6-0.6l0.3-1.3h0.8l-0.4,1.9h1.3   l-0.2,0.8h-1.3l-0.7,3.3c0,0.1,0,0.2,0,0.3c0,0.5,0.3,0.7,0.8,0.7c0.3,0,0.6-0.1,0.6-0.1l-0.2,0.8c0,0-0.3,0.1-0.6,0.1   C366.7,562,366.2,561.4,366.2,560.6z"/>
	<path class="st1" d="M369.3,560.7l0.7-0.5c0,0,0.4,1,1.5,1c0.8,0,1.2-0.4,1.2-1c0-1.1-2.6-1-2.6-2.5c0-0.9,0.9-1.7,2-1.7   c1.4,0,1.9,1,1.9,1l-0.7,0.5c0,0-0.3-0.7-1.3-0.7c-0.6,0-1.1,0.4-1.1,0.9c0,1,2.6,0.9,2.6,2.5c0,1-0.9,1.8-2.2,1.8   C369.8,562,369.3,560.7,369.3,560.7z"/>
	<path class="st1" d="M376.6,553.5h0.8l-0.7,3.4c0,0,0.6-0.8,1.9-0.8c1.2,0,2,0.8,2,2c0,0.2,0,0.4-0.1,0.7l-0.7,3.2H379l0.7-3.3   c0-0.2,0-0.3,0-0.4c0-0.8-0.5-1.4-1.3-1.4c-0.9,0-1.8,0.7-2.1,1.8l-0.7,3.3h-0.8L376.6,553.5z"/>
	<path class="st1" d="M381.9,559.3c0-1.9,1.7-3.3,3.2-3.3c1.4,0,2.5,1,2.5,2.5c0,0.5-0.1,0.8-0.1,0.8h-4.8c0,1.1,0.9,1.9,1.9,1.9   c1,0,1.7-0.7,1.7-0.7l0.4,0.6c0,0-0.9,0.9-2.2,0.9C383,562,381.9,560.8,381.9,559.3z M386.8,558.6c0,0,0,0,0-0.1   c0-0.8-0.6-1.7-1.8-1.7c-1,0-2,0.8-2.2,1.8H386.8z"/>
	<path class="st1" d="M388.7,559.3c0-1.9,1.7-3.3,3.2-3.3c1.4,0,2.5,1,2.5,2.5c0,0.5-0.1,0.8-0.1,0.8h-4.8c0,1.1,0.9,1.9,1.9,1.9   c1,0,1.7-0.7,1.7-0.7l0.4,0.6c0,0-0.9,0.9-2.2,0.9C389.7,562,388.7,560.8,388.7,559.3z M393.5,558.6c0,0,0,0,0-0.1   c0-0.8-0.6-1.7-1.8-1.7c-1,0-2,0.8-2.2,1.8H393.5z"/>
	<path class="st1" d="M396,560.6c0-0.2,0-0.3,0.1-0.5l0.7-3.2h-1.1l0.2-0.8h0.7c0.3,0,0.5-0.2,0.6-0.6l0.3-1.3h0.8l-0.4,1.9h1.3   l-0.2,0.8h-1.3l-0.7,3.3c0,0.1,0,0.2,0,0.3c0,0.5,0.3,0.7,0.8,0.7c0.3,0,0.6-0.1,0.6-0.1l-0.2,0.8c0,0-0.3,0.1-0.6,0.1   C396.5,562,396,561.4,396,560.6z"/>
	<path class="st1" d="M404.2,553.5h0.9l-1.8,8.4h-0.9L404.2,553.5z"/>
	<path class="st1" d="M406.8,556.1h0.8l-0.1,0.7c0,0,0.6-0.8,1.9-0.8c1.2,0,2,0.8,2,2c0,0.2,0,0.4-0.1,0.7l-0.7,3.2h-0.8l0.7-3.3   c0-0.2,0-0.3,0-0.4c0-0.8-0.5-1.4-1.3-1.4c-0.9,0-1.8,0.7-2.1,1.8l-0.7,3.3h-0.8L406.8,556.1z"/>
	<path class="st1" d="M412.7,559.3c0-1.9,1.5-3.3,3.3-3.3c1.6,0,2.3,1.3,2.3,1.3l-0.7,0.5c0,0-0.6-1-1.7-1c-1.3,0-2.4,1.1-2.4,2.5   c0,1.1,0.8,1.9,1.8,1.9c1,0,1.8-0.8,1.8-0.8l0.5,0.6c0,0-1,0.9-2.3,0.9C413.8,562,412.7,560.8,412.7,559.3z"/>
	<path class="st1" d="M418.7,561.4c0-0.4,0.3-0.6,0.6-0.6c0.3,0,0.6,0.2,0.6,0.6c0,0.3-0.3,0.6-0.6,0.6   C419,562,418.7,561.7,418.7,561.4z"/>
	<path class="st1" d="M424.7,557.7c0-2.4,1.9-4.3,4.4-4.3s4.4,1.9,4.4,4.3c0,2.4-1.9,4.3-4.4,4.3S424.7,560.1,424.7,557.7z    M432.7,557.7c0-2-1.6-3.6-3.6-3.6s-3.6,1.6-3.6,3.6c0,2,1.6,3.6,3.6,3.6S432.7,559.7,432.7,557.7z M426.9,557.7   c0-1.3,1-2.3,2.3-2.3c1.2,0,1.8,0.9,1.8,0.9l-0.5,0.5c0,0-0.4-0.7-1.3-0.7c-0.9,0-1.6,0.7-1.6,1.6c0,0.9,0.7,1.6,1.6,1.6   c0.9,0,1.3-0.7,1.3-0.7l0.5,0.5c0,0-0.6,0.9-1.8,0.9C427.9,559.9,426.9,559,426.9,557.7z"/>
	<path class="st1" d="M442.3,555.6c0-0.8-0.6-1.4-1.7-1.4c-1.3,0-1.8,1.2-1.8,1.2L438,555c0,0,0.7-1.7,2.6-1.7c1.6,0,2.6,1,2.6,2.3   c0,3.1-4.7,3.2-5.5,5.4h4.4l-0.2,0.8h-5.4C437,557.9,442.3,558.5,442.3,555.6z"/>
	<path class="st1" d="M444,558.6c0-3,2-5.2,4-5.2c1.6,0,2.8,1.3,2.8,3.4c0,3-2,5.2-4,5.2C445.3,562,444,560.7,444,558.6z M450,556.8   c0-1.7-0.9-2.6-2-2.6c-1.4,0-3.1,1.8-3.1,4.4c0,1.7,0.9,2.6,2,2.6C448.3,561.1,450,559.4,450,556.8z"/>
	<path class="st1" d="M456.9,555.6c0-0.8-0.6-1.4-1.7-1.4c-1.3,0-1.8,1.2-1.8,1.2l-0.7-0.4c0,0,0.7-1.7,2.6-1.7c1.6,0,2.6,1,2.6,2.3   c0,3.1-4.7,3.2-5.5,5.4h4.4l-0.2,0.8h-5.4C451.6,557.9,456.9,558.5,456.9,555.6z"/>
	<path class="st1" d="M457.6,560.4l0.7-0.6c0,0,0.5,1.3,2.2,1.3c1.2,0,2-0.9,2-1.8c0-0.8-0.7-1.4-1.7-1.4h-0.8l0.2-0.8h1.1   c1,0,1.7-0.8,1.7-1.6c0-0.7-0.6-1.3-1.6-1.3c-1.1,0-1.8,0.7-1.8,0.7l-0.5-0.7c0,0,1-0.9,2.4-0.9c1.6,0,2.5,0.9,2.5,2   c0,1.8-1.8,2.2-1.8,2.2s1.2,0.4,1.2,1.8c0,1.4-1.2,2.6-2.9,2.6C458.4,562,457.6,560.4,457.6,560.4z"/>
</g>
<g>
	<g>
		<path class="st2" d="M787.9,78.7H176V14.7c0-1.7,1.4-3.1,3.1-3.1h605.7c1.7,0,3.1,1.4,3.1,3.1V78.7z"/>
		<g>
			<rect x="176" y="78.1" class="st3" width="611.8" height="1.3"/>
			<rect x="176" y="532.2" class="st3" width="611.8" height="1.3"/>
		</g>
		<g>
			<rect x="391.2" y="78.7" class="st3" width="1.3" height="453.6"/>
			<rect x="642.9" y="78.7" class="st3" width="1.3" height="453.6"/>
			<rect x="427.1" y="78.7" class="st3" width="1.3" height="453.6"/>
			<rect x="211.4" y="78.7" class="st3" width="1.3" height="453.6"/>
			<rect x="463.1" y="78.7" class="st3" width="1.3" height="453.6"/>
			<rect x="247.3" y="78.7" class="st3" width="1.3" height="453.6"/>
			<rect x="499.1" y="78.7" class="st3" width="1.3" height="453.6"/>
			<rect x="283.3" y="78.7" class="st3" width="1.3" height="453.6"/>
			<rect x="535" y="78.7" class="st3" width="1.3" height="453.6"/>
			<rect x="319.3" y="78.7" class="st3" width="1.3" height="453.6"/>
			<rect x="571" y="78.7" class="st3" width="1.3" height="453.6"/>
			<rect x="355.2" y="78.7" class="st3" width="1.3" height="453.6"/>
			<rect x="607" y="78.7" class="st3" width="1.3" height="453.6"/>
			<rect x="750.6" y="78.7" class="st3" width="1.3" height="453.6"/>
			<rect x="678.7" y="78.7" class="st3" width="1.3" height="453.6"/>
			<rect x="714.7" y="78.7" class="st3" width="1.3" height="453.6"/>
		</g>
		<g>
			<g>
				<path class="st5" d="M203.8,25.9l4,9.6h0.2l4-9.6h3v13.3h-2.3v-9.1h-0.1l-3.7,9.1h-1.7l-3.7-9.1h-0.1v9.2h-2.3V25.9H203.8z"/>
				<path class="st5" d="M216.8,36.4c0-2.2,1.9-2.8,3.8-3c1.8-0.2,2.5-0.2,2.5-0.9v0c0-1-0.6-1.5-1.7-1.5c-1.2,0-1.8,0.6-2,1.3      l-2.2-0.3c0.5-1.8,2.1-2.8,4.2-2.8c1.9,0,4.1,0.8,4.1,3.4v6.7h-2.3v-1.4h-0.1c-0.4,0.8-1.4,1.6-2.9,1.6      C218.3,39.4,216.8,38.4,216.8,36.4z M223.1,35.7v-1.2c-0.3,0.2-1.5,0.4-2.2,0.5c-1.1,0.1-1.8,0.5-1.8,1.4c0,0.9,0.7,1.3,1.7,1.3      C222.2,37.7,223.1,36.8,223.1,35.7z"/>
				<path class="st5" d="M227.8,29.2h2.3v1.7h0.1c0.4-1.2,1.3-1.8,2.5-1.8c0.3,0,0.6,0,0.8,0.1v2.2c-0.2-0.1-0.7-0.1-1.1-0.1      c-1.3,0-2.2,0.9-2.2,2.2v5.9h-2.4V29.2z"/>
				<path class="st5" d="M239.6,37.5l4.6-4.5c1.3-1.3,2-2.1,2-3.2c0-1.3-0.9-2-2.2-2c-1.3,0-2.2,0.9-2.2,2.2h-2.3      c0-2.5,1.9-4.2,4.5-4.2c2.7,0,4.5,1.6,4.5,3.9c0,1.5-0.7,2.7-3.3,5.2l-2.3,2.3v0.1h5.8v2h-9.1V37.5z"/>
				<path class="st5" d="M250.7,35.7c0-1.7,1.2-3.1,2.8-3.3v-0.1c-1.4-0.3-2.3-1.5-2.3-3c0-2.1,1.9-3.6,4.5-3.6      c2.6,0,4.4,1.5,4.5,3.6c0,1.4-0.9,2.7-2.3,3v0.1c1.5,0.3,2.8,1.7,2.8,3.3c0,2.2-2.1,3.8-4.9,3.8      C252.8,39.4,250.7,37.8,250.7,35.7z M258.1,35.5c0-1.3-1.1-2.2-2.5-2.2c-1.4,0-2.5,0.9-2.5,2.2c0,1.2,1,2.1,2.5,2.1      C257.2,37.6,258.1,36.7,258.1,35.5z M257.8,29.5c0-1.1-0.9-1.9-2.1-1.9c-1.3,0-2.1,0.8-2.1,1.9c0,1.2,0.9,2,2.1,2      C256.9,31.5,257.8,30.7,257.8,29.5z"/>
			</g>
			<g>
				<path class="st5" d="M222.3,48.1h1.6l2.8,10.8h0.1l2.8-10.8h1.8l2.8,10.8h0.1l2.8-10.8h1.6l-3.6,13.3h-1.7l-2.9-10.6h-0.1      l-2.9,10.6h-1.7L222.3,48.1z"/>
			</g>
			<g>
				<path class="st5" d="M261.3,48.1h10v1.4h-4.2v11.9h-1.6V49.6h-4.2V48.1z"/>
			</g>
			<g>
				<path class="st5" d="M188.1,48.1h10v1.4h-4.2v11.9h-1.6V49.6h-4.2V48.1z"/>
			</g>
			<g>
				<path class="st5" d="M298.5,48.1h8v1.4h-6.4v4.5h5.8v1.4h-5.8v6h-1.6V48.1z"/>
			</g>
			<g>
				<path class="st5" d="M338.2,49.4c-1.8,0-2.9,0.9-2.9,2.2c0,1.4,1.6,2,2.6,2.2l1.4,0.4c1.4,0.4,3.7,1.2,3.7,3.7      c0,2.2-1.7,3.8-4.8,3.8c-2.9,0-4.6-1.5-4.8-3.7h1.7c0.1,1.5,1.5,2.2,3.1,2.2c1.8,0,3.2-1,3.2-2.4c0-1.3-1.2-1.8-2.7-2.2      l-1.6-0.5c-2.1-0.6-3.4-1.7-3.4-3.5c0-2.2,2-3.7,4.6-3.7c2.6,0,4.4,1.5,4.5,3.5h-1.6C341,50.1,339.8,49.4,338.2,49.4z"/>
			</g>
		</g>
		<g>
			<g>
				<path class="st5" d="M458.5,39.2l4.7-13.3h3l4.7,13.3h-2.6l-1.1-3.3h-5l-1.1,3.3H458.5z M466.6,34l-1.8-5.4h-0.1l-1.8,5.4H466.6      z"/>
				<path class="st5" d="M472.5,29.2h2.3v1.7h0.1c0.4-0.7,1.1-1.8,2.9-1.8c2.3,0,4.1,1.8,4.1,5.1c0,3.3-1.8,5.2-4.1,5.2      c-1.7,0-2.5-1-2.9-1.7h-0.1V43h-2.4V29.2z M477.2,37.5c1.6,0,2.4-1.4,2.4-3.2c0-1.9-0.8-3.2-2.4-3.2c-1.5,0-2.3,1.3-2.3,3.2      S475.7,37.5,477.2,37.5z"/>
				<path class="st5" d="M484,29.2h2.3v1.7h0.1c0.4-1.2,1.3-1.8,2.5-1.8c0.3,0,0.6,0,0.8,0.1v2.2c-0.2-0.1-0.7-0.1-1.1-0.1      c-1.3,0-2.2,0.9-2.2,2.2v5.9H484V29.2z"/>
				<path class="st5" d="M495.5,34.8l5.6-8.9h3v8.9h1.7v2h-1.7v2.5h-2.3v-2.5h-6.4V34.8z M501.9,28.7h-0.1l-3.8,6v0.1h3.9V28.7z"/>
			</g>
			<g>
				<path class="st5" d="M474.1,48.1h1.6l2.8,10.8h0.1l2.8-10.8h1.8l2.8,10.8h0.1l2.8-10.8h1.6l-3.6,13.3h-1.7l-2.9-10.6h-0.1      l-2.9,10.6h-1.7L474.1,48.1z"/>
			</g>
			<g>
				<path class="st5" d="M513.1,48.1h10v1.4h-4.2v11.9h-1.6V49.6h-4.2V48.1z"/>
			</g>
			<g>
				<path class="st5" d="M550.4,48.1h8v1.4H552v4.5h5.8v1.4H552v6h-1.6V48.1z"/>
			</g>
			<g>
				<path class="st5" d="M441.1,48.1h10v1.4h-4.2v11.9h-1.6V49.6h-4.2V48.1z"/>
			</g>
			<g>
				<path class="st5" d="M405.6,48.1l4.5,11.1h0.2l4.5-11.1h1.9v13.3h-1.5V51.3H415l-4.2,10.1h-1.5l-4.2-10.1h-0.1v10.1h-1.5V48.1      H405.6z"/>
			</g>
			<g>
				<path class="st5" d="M374.3,49.4c-1.8,0-2.9,0.9-2.9,2.2c0,1.4,1.6,2,2.6,2.2l1.4,0.4c1.4,0.4,3.7,1.2,3.7,3.7      c0,2.2-1.7,3.8-4.8,3.8c-2.9,0-4.6-1.5-4.8-3.7h1.7c0.1,1.5,1.5,2.2,3.1,2.2c1.8,0,3.2-1,3.2-2.4c0-1.3-1.2-1.8-2.7-2.2      l-1.6-0.5c-2.1-0.6-3.4-1.7-3.4-3.5c0-2.2,2-3.7,4.5-3.7c2.6,0,4.4,1.5,4.5,3.5h-1.6C377.1,50.1,375.9,49.4,374.3,49.4z"/>
			</g>
			<g>
				<path class="st5" d="M590,49.4c-1.8,0-2.9,0.9-2.9,2.2c0,1.4,1.6,2,2.6,2.2l1.4,0.4c1.4,0.4,3.7,1.2,3.7,3.7      c0,2.2-1.7,3.8-4.8,3.8c-2.9,0-4.6-1.5-4.8-3.7h1.7c0.1,1.5,1.5,2.2,3.1,2.2c1.8,0,3.2-1,3.2-2.4c0-1.3-1.2-1.8-2.7-2.2      l-1.6-0.5c-2.1-0.6-3.4-1.7-3.4-3.5c0-2.2,2-3.7,4.5-3.7c2.6,0,4.4,1.5,4.5,3.5H593C592.9,50.1,591.6,49.4,590,49.4z"/>
			</g>
		</g>
		<g>
			<g>
				<path class="st5" d="M708,39.2l4.7-13.3h3l4.7,13.3h-2.6l-1.1-3.3h-5l-1.1,3.3H708z M716,34l-1.8-5.4h-0.1l-1.8,5.4H716z"/>
				<path class="st5" d="M722,29.2h2.3v1.7h0.1c0.4-0.7,1.1-1.8,2.9-1.8c2.3,0,4.1,1.8,4.1,5.1c0,3.3-1.8,5.2-4.1,5.2      c-1.7,0-2.5-1-2.9-1.7h-0.1V43H722V29.2z M726.6,37.5c1.6,0,2.4-1.4,2.4-3.2c0-1.9-0.8-3.2-2.4-3.2c-1.5,0-2.3,1.3-2.3,3.2      S725.1,37.5,726.6,37.5z"/>
				<path class="st5" d="M733.4,29.2h2.3v1.7h0.1c0.4-1.2,1.3-1.8,2.5-1.8c0.3,0,0.6,0,0.8,0.1v2.2c-0.2-0.1-0.7-0.1-1.1-0.1      c-1.3,0-2.2,0.9-2.2,2.2v5.9h-2.4V29.2z"/>
				<path class="st5" d="M750.6,39.2h-2.4v-11h-0.1l-3.1,2V28l3.3-2.1h2.3V39.2z"/>
				<path class="st5" d="M759.4,39.2H757v-11h-0.1l-3.1,2V28l3.3-2.1h2.3V39.2z"/>
			</g>
			<g>
				<path class="st5" d="M726.3,48.1h1.6l2.8,10.8h0.1l2.8-10.8h1.8l2.8,10.8h0.1l2.8-10.8h1.6l-3.6,13.3h-1.7l-2.9-10.6h-0.1      l-2.9,10.6h-1.7L726.3,48.1z"/>
			</g>
			<g>
				<path class="st5" d="M765.3,48.1h10v1.4h-4.2v11.9h-1.6V49.6h-4.2V48.1z"/>
			</g>
			<g>
				<path class="st5" d="M693.3,48.1h10v1.4h-4.2v11.9h-1.6V49.6h-4.2V48.1z"/>
			</g>
			<g>
				<path class="st5" d="M657.7,48.1l4.5,11.1h0.2l4.5-11.1h1.9v13.3h-1.5V51.3h-0.1l-4.2,10.1h-1.5l-4.2-10.1h-0.1v10.1h-1.5V48.1      H657.7z"/>
			</g>
			<g>
				<path class="st5" d="M626.5,49.4c-1.8,0-2.9,0.9-2.9,2.2c0,1.4,1.6,2,2.6,2.2l1.4,0.4c1.4,0.4,3.7,1.2,3.7,3.7      c0,2.2-1.7,3.8-4.8,3.8c-2.9,0-4.6-1.5-4.8-3.7h1.7c0.1,1.5,1.5,2.2,3.1,2.2c1.8,0,3.2-1,3.2-2.4c0-1.3-1.2-1.8-2.7-2.2      l-1.6-0.5c-2.1-0.6-3.4-1.7-3.4-3.5c0-2.2,2-3.7,4.5-3.7c2.6,0,4.4,1.5,4.5,3.5h-1.6C629.3,50.1,628.1,49.4,626.5,49.4z"/>
			</g>
		</g>
	</g>
</g>
<rect x="212.9" y="161.8" class="st6" width="106.2" height="14.9"/>
<rect x="284.5" y="228.3" class="st7" width="107.4" height="14.9"/>
<rect x="355.6" y="260.8" class="st7" width="72" height="14.9"/>
<rect x="175.7" y="129.3" class="st6" width="71.6" height="14.9"/>
<rect x="392.6" y="325.9" class="st8" width="142.3" height="14.9"/>
<rect x="428.1" y="358.4" class="st8" width="107" height="14.9"/>
<g>
	<g>
		<path class="st9" d="M11.5,96.1h5.2c2.5,0,4.3,1.8,4.3,4.1c0,2.3-1.8,4.1-4.3,4.1h-3v4.3h-2.3V96.1z M16.7,102.3    c1.2,0,2.1-0.9,2.1-2.1s-0.9-2.1-2.1-2.1h-2.9v4.1H16.7z"/>
		<path class="st9" d="M23.1,96.1h2.1v12.6h-2.1V96.1z"/>
		<path class="st9" d="M27.2,106.4c0-1.4,1.1-2.5,2.6-2.8l3-0.5c0-0.6-0.7-1.4-1.7-1.4c-1.3,0-2.2,1.1-2.2,1.1l-1.3-1.3    c0,0,1.3-1.8,3.5-1.8c2.2,0,3.7,1.6,3.7,3.5v5.5h-2.1v-1.2h-0.1c0,0-0.8,1.4-2.6,1.4C28.4,108.9,27.2,107.7,27.2,106.4z     M32.8,104.9v-0.3l-2.1,0.4c-1.1,0.2-1.4,0.5-1.4,1.1s0.5,1.1,1.4,1.1C31.8,107.2,32.8,106.2,32.8,104.9z"/>
		<path class="st9" d="M37.4,99.9h2.1v1.3h0.1c0,0,0.9-1.4,2.6-1.4c1.9,0,3.3,1.4,3.3,3.8v5.2h-2.1v-4.9c0-1.3-0.7-2-1.8-2    c-1.3,0-2.2,0.9-2.2,2.3v4.7h-2.1V99.9z"/>
		<path class="st9" d="M48,99.9H50v1.3h0.1c0,0,0.9-1.4,2.6-1.4c1.9,0,3.3,1.4,3.3,3.8v5.2H54v-4.9c0-1.3-0.7-2-1.8-2    c-1.3,0-2.2,0.9-2.2,2.3v4.7H48V99.9z"/>
		<path class="st9" d="M58.4,97.3c0-0.7,0.5-1.3,1.3-1.3s1.3,0.5,1.3,1.3s-0.5,1.3-1.3,1.3S58.4,98.1,58.4,97.3z M58.6,99.9h2.1v8.8    h-2.1V99.9z"/>
		<path class="st9" d="M63.2,99.9h2.1v1.3h0.1c0,0,0.9-1.4,2.6-1.4c1.9,0,3.3,1.4,3.3,3.8v5.2h-2.1v-4.9c0-1.3-0.7-2-1.8-2    c-1.3,0-2.2,0.9-2.2,2.3v4.7h-2.1V99.9z"/>
		<path class="st9" d="M73.5,110.7l1.4-1.4c0,0,0.9,1.2,2.4,1.2s2.5-1,2.5-2.6v-0.8h-0.1c0,0-0.8,1.4-2.7,1.4c-2,0-3.9-1.9-3.9-4.4    c0-2.5,1.9-4.4,3.9-4.4c1.9,0,2.7,1.4,2.7,1.4h0.1v-1.3h2.1v8c0,2.6-2,4.6-4.6,4.6C74.8,112.5,73.5,110.7,73.5,110.7z M79.8,104.1    c0-1.4-1-2.4-2.3-2.4c-1.4,0-2.3,1-2.3,2.4s1,2.4,2.3,2.4C78.8,106.5,79.8,105.5,79.8,104.1z"/>
	</g>
</g>
<g>
	<g>
		<path class="st9" d="M11.5,131.1h4.2c2.1,0,3.6,1.5,3.6,3.5s-1.5,3.5-3.6,3.5h-3v4.2h-1.2V131.1z M15.7,137.1c1.4,0,2.4-1,2.4-2.4    s-1-2.4-2.4-2.4h-3v4.8H15.7z"/>
		<path class="st9" d="M21.6,131.1h1.1v11.2h-1.1V131.1z"/>
		<path class="st9" d="M24.8,140.3c0-1.3,0.8-2.1,2.2-2.3l3-0.5c0-1.1-0.8-1.9-1.9-1.9c-1.4,0-2.2,1.1-2.2,1.1l-0.7-0.7    c0,0,1-1.4,2.9-1.4c1.8,0,3,1.3,3,3v4.9H30v-1c0,0-0.8,1.2-2.5,1.2C25.9,142.5,24.8,141.4,24.8,140.3z M30,138.9v-0.5l-2.6,0.5    c-1,0.2-1.4,0.6-1.4,1.4c0,0.6,0.6,1.2,1.6,1.2C28.9,141.5,30,140.4,30,138.9z"/>
		<path class="st9" d="M33.7,134.7h1.1v1.1c0,0,0.8-1.3,2.5-1.3c1.8,0,3.1,1.3,3.1,3.3v4.6h-1.1v-4.6c0-1.4-0.9-2.2-2.1-2.2    c-1.4,0-2.4,1-2.4,2.6v4.2h-1.1V134.7z"/>
		<path class="st9" d="M46.1,132.1c0-0.4,0.3-0.7,0.7-0.7c0.4,0,0.7,0.3,0.7,0.7s-0.3,0.7-0.7,0.7C46.5,132.8,46.1,132.5,46.1,132.1    z M46.3,134.7h1.1v7.7h-1.1V134.7z"/>
		<path class="st9" d="M50,134.7h1.1v1.1c0,0,0.8-1.3,2.5-1.3c1.8,0,3.1,1.3,3.1,3.3v4.6h-1.1v-4.6c0-1.4-0.9-2.2-2.1-2.2    c-1.4,0-2.4,1-2.4,2.6v4.2H50V134.7z"/>
		<path class="st9" d="M59.1,132.1c0-0.4,0.3-0.7,0.7-0.7c0.4,0,0.7,0.3,0.7,0.7s-0.3,0.7-0.7,0.7C59.4,132.8,59.1,132.5,59.1,132.1    z M59.3,134.7h1.1v7.7h-1.1V134.7z"/>
		<path class="st9" d="M63.6,140.3v-4.6h-1.4v-1H63c0.4,0,0.6-0.2,0.6-0.8v-1.8h1v2.6h1.7v1h-1.7v4.6c0,0.8,0.4,1.2,1,1.2    c0.6,0,1-0.2,1-0.2v1c0,0-0.5,0.2-1.1,0.2C64.4,142.5,63.6,141.7,63.6,140.3z"/>
		<path class="st9" d="M68.5,132.1c0-0.4,0.3-0.7,0.7-0.7c0.4,0,0.7,0.3,0.7,0.7s-0.3,0.7-0.7,0.7C68.9,132.8,68.5,132.5,68.5,132.1    z M68.7,134.7h1.1v7.7h-1.1V134.7z"/>
		<path class="st9" d="M71.8,140.3c0-1.3,0.8-2.1,2.2-2.3l3-0.5c0-1.1-0.8-1.9-1.9-1.9c-1.4,0-2.2,1.1-2.2,1.1l-0.7-0.7    c0,0,1-1.4,2.9-1.4c1.8,0,3,1.3,3,3v4.9H77v-1c0,0-0.8,1.2-2.5,1.2C72.9,142.5,71.8,141.4,71.8,140.3z M77,138.9v-0.5l-2.6,0.5    c-1,0.2-1.4,0.6-1.4,1.4c0,0.6,0.6,1.2,1.6,1.2C76,141.5,77,140.4,77,138.9z"/>
		<path class="st9" d="M81.3,140.3v-4.6h-1.4v-1h0.9c0.4,0,0.6-0.2,0.6-0.8v-1.8h1v2.6h1.7v1h-1.7v4.6c0,0.8,0.4,1.2,1,1.2    c0.6,0,1-0.2,1-0.2v1c0,0-0.5,0.2-1.1,0.2C82.1,142.5,81.3,141.7,81.3,140.3z"/>
		<path class="st9" d="M85.9,138.5c0-2.2,1.8-4,3.8-4c2.1,0,3.7,1.6,3.7,3.8c0,0.3-0.1,0.6-0.1,0.6l-6.2,0c0.1,1.4,1.3,2.6,2.7,2.6    c1.6,0,2.5-1.3,2.5-1.3l0.7,0.7c0,0-1.1,1.6-3.2,1.6C87.7,142.5,85.9,140.7,85.9,138.5z M92.2,137.9c-0.2-1.4-1.2-2.4-2.6-2.4    c-1.4,0-2.5,1.1-2.6,2.4H92.2z"/>
		<path class="st9" d="M94.8,138.5c0-2.3,1.7-4,3.8-4c1.8,0,2.6,1.3,2.6,1.3v-4.6h1.1v11.2h-1.1v-1.1c0,0-0.9,1.3-2.6,1.3    C96.5,142.5,94.8,140.8,94.8,138.5z M101.2,138.5c0-1.7-1.3-3-2.6-3c-1.4,0-2.6,1.2-2.6,3c0,1.8,1.2,3,2.6,3    C99.9,141.5,101.2,140.2,101.2,138.5z"/>
	</g>
</g>
<g>
	<g>
		<path class="st9" d="M11.5,163.3h4.2c2.1,0,3.6,1.5,3.6,3.5s-1.5,3.5-3.6,3.5h-3v4.2h-1.2V163.3z M15.7,169.2c1.4,0,2.4-1,2.4-2.4    s-1-2.4-2.4-2.4h-3v4.8H15.7z"/>
		<path class="st9" d="M21.5,166.8h1.1v1c0,0,0.8-1.2,2.6-1.2h0.3v1.1H25c-1.3,0-2.4,1-2.4,2.5v4.2h-1.1V166.8z"/>
		<path class="st9" d="M26.5,170.6c0-2.2,1.8-4,3.9-4c2.2,0,3.9,1.8,3.9,4c0,2.2-1.8,4-3.9,4C28.2,174.6,26.5,172.9,26.5,170.6z     M33.2,170.6c0-1.7-1.3-3-2.8-3c-1.5,0-2.8,1.3-2.8,3c0,1.7,1.3,3,2.8,3C31.9,173.6,33.2,172.3,33.2,170.6z"/>
		<path class="st9" d="M34.4,177.6v-1c0,0,0.4,0.2,0.9,0.2c0.6,0,1-0.4,1-1.2v-8.8h1.1v8.8c0,1.5-0.7,2.2-2.1,2.2    C34.8,177.8,34.4,177.6,34.4,177.6z M36.1,164.2c0-0.4,0.3-0.7,0.7-0.7c0.4,0,0.7,0.3,0.7,0.7s-0.3,0.7-0.7,0.7    C36.5,164.9,36.1,164.6,36.1,164.2z"/>
		<path class="st9" d="M39.4,170.6c0-2.2,1.8-4,3.8-4c2.1,0,3.7,1.6,3.7,3.8c0,0.3-0.1,0.6-0.1,0.6l-6.2,0c0.1,1.4,1.3,2.6,2.7,2.6    c1.6,0,2.5-1.3,2.5-1.3l0.7,0.7c0,0-1.1,1.6-3.2,1.6C41.2,174.6,39.4,172.9,39.4,170.6z M45.7,170.1c-0.2-1.4-1.2-2.4-2.6-2.4    c-1.4,0-2.5,1.1-2.6,2.4H45.7z"/>
		<path class="st9" d="M48.3,170.6c0-2.2,1.8-4,3.8-4c2,0,3.1,1.5,3.1,1.5l-0.8,0.8c0,0-0.8-1.3-2.3-1.3c-1.4,0-2.7,1.3-2.7,3    c0,1.7,1.3,3,2.7,3c1.5,0,2.4-1.3,2.4-1.3l0.8,0.7c0,0-1.2,1.6-3.2,1.6C50.1,174.6,48.3,172.9,48.3,170.6z"/>
		<path class="st9" d="M57.7,172.4v-4.6h-1.4v-1h0.9c0.4,0,0.6-0.2,0.6-0.8v-1.8h1v2.6h1.7v1h-1.7v4.6c0,0.8,0.4,1.2,1,1.2    c0.6,0,1-0.2,1-0.2v1c0,0-0.5,0.2-1.1,0.2C58.5,174.6,57.7,173.8,57.7,172.4z"/>
		<path class="st9" d="M66.2,166.8h1.1v1.1c0,0,0.9-1.3,2.6-1.3c2.1,0,3.8,1.7,3.8,4c0,2.3-1.7,4-3.8,4c-1.8,0-2.6-1.3-2.6-1.3v4.5    h-1.1V166.8z M72.6,170.6c0-1.8-1.2-3-2.6-3c-1.4,0-2.6,1.3-2.6,3c0,1.7,1.3,3,2.6,3C71.4,173.6,72.6,172.4,72.6,170.6z"/>
		<path class="st9" d="M75.8,163.3h1.1v11.2h-1.1V163.3z"/>
		<path class="st9" d="M79,172.4c0-1.3,0.8-2.1,2.2-2.3l3-0.5c0-1.1-0.8-1.9-1.9-1.9c-1.4,0-2.2,1.1-2.2,1.1l-0.7-0.7    c0,0,1-1.4,2.9-1.4c1.8,0,3,1.3,3,3v4.9h-1.1v-1c0,0-0.8,1.2-2.5,1.2C80.1,174.6,79,173.5,79,172.4z M84.2,171v-0.5l-2.6,0.5    c-1,0.2-1.4,0.6-1.4,1.4c0,0.6,0.6,1.2,1.6,1.2C83.2,173.6,84.2,172.5,84.2,171z"/>
		<path class="st9" d="M87.9,166.8H89v1.1c0,0,0.8-1.3,2.5-1.3c1.8,0,3.1,1.3,3.1,3.3v4.6h-1.1v-4.6c0-1.4-0.9-2.2-2.1-2.2    c-1.4,0-2.4,1-2.4,2.6v4.2h-1.1V166.8z"/>
		<path class="st9" d="M100,172.4c0-1.3,0.8-2.1,2.2-2.3l3-0.5c0-1.1-0.8-1.9-1.9-1.9c-1.4,0-2.2,1.1-2.2,1.1l-0.7-0.7    c0,0,1-1.4,2.9-1.4c1.8,0,3,1.3,3,3v4.9h-1.1v-1c0,0-0.8,1.2-2.5,1.2C101.1,174.6,100,173.5,100,172.4z M105.2,171v-0.5l-2.6,0.5    c-1,0.2-1.4,0.6-1.4,1.4c0,0.6,0.6,1.2,1.6,1.2C104.1,173.6,105.2,172.5,105.2,171z"/>
		<path class="st9" d="M108.9,166.8h1.1v1.1c0,0,0.9-1.3,2.6-1.3c2.1,0,3.8,1.7,3.8,4c0,2.3-1.7,4-3.8,4c-1.8,0-2.6-1.3-2.6-1.3v4.5    h-1.1V166.8z M115.3,170.6c0-1.8-1.2-3-2.6-3c-1.4,0-2.6,1.3-2.6,3c0,1.7,1.3,3,2.6,3C114.1,173.6,115.3,172.4,115.3,170.6z"/>
		<path class="st9" d="M118.4,166.8h1.1v1.1c0,0,0.9-1.3,2.6-1.3c2.1,0,3.8,1.7,3.8,4c0,2.3-1.7,4-3.8,4c-1.8,0-2.6-1.3-2.6-1.3v4.5    h-1.1V166.8z M124.8,170.6c0-1.8-1.2-3-2.6-3c-1.4,0-2.6,1.3-2.6,3c0,1.7,1.3,3,2.6,3C123.6,173.6,124.8,172.4,124.8,170.6z"/>
		<path class="st9" d="M127.9,166.8h1.1v1c0,0,0.8-1.2,2.6-1.2h0.3v1.1h-0.5c-1.3,0-2.4,1-2.4,2.5v4.2h-1.1V166.8z"/>
		<path class="st9" d="M132.9,170.6c0-2.2,1.8-4,3.9-4c2.2,0,3.9,1.8,3.9,4c0,2.2-1.8,4-3.9,4C134.6,174.6,132.9,172.9,132.9,170.6z     M139.6,170.6c0-1.7-1.3-3-2.8-3c-1.5,0-2.8,1.3-2.8,3c0,1.7,1.3,3,2.8,3C138.3,173.6,139.6,172.3,139.6,170.6z"/>
		<path class="st9" d="M141.6,166.8h1.2l2.5,6.2l2.5-6.2h1.2l-3.1,7.7h-1.1L141.6,166.8z"/>
		<path class="st9" d="M150,172.4c0-1.3,0.8-2.1,2.2-2.3l3-0.5c0-1.1-0.8-1.9-1.9-1.9c-1.4,0-2.2,1.1-2.2,1.1l-0.7-0.7    c0,0,1-1.4,2.9-1.4c1.8,0,3,1.3,3,3v4.9h-1.1v-1c0,0-0.8,1.2-2.5,1.2C151.1,174.6,150,173.5,150,172.4z M155.2,171v-0.5l-2.6,0.5    c-1,0.2-1.4,0.6-1.4,1.4c0,0.6,0.6,1.2,1.6,1.2C154.1,173.6,155.2,172.5,155.2,171z"/>
		<path class="st9" d="M158.9,163.3h1.1v11.2h-1.1V163.3z"/>
	</g>
</g>
<g>
	<g>
		<path class="st10" d="M11.5,229.3H15c3.3,0,5.8,2.6,5.8,5.6c0,3-2.6,5.6-5.8,5.6h-3.5V229.3z M15,239.4c2.6,0,4.6-2,4.6-4.5    c0-2.5-2-4.5-4.6-4.5h-2.3v9H15z"/>
		<path class="st10" d="M22.5,236.7c0-2.2,1.8-4,3.8-4c2.1,0,3.7,1.6,3.7,3.8c0,0.3-0.1,0.6-0.1,0.6l-6.2,0c0.1,1.4,1.3,2.6,2.7,2.6    c1.6,0,2.5-1.3,2.5-1.3l0.7,0.7c0,0-1.1,1.6-3.2,1.6C24.3,240.7,22.5,238.9,22.5,236.7z M28.9,236.1c-0.2-1.4-1.2-2.4-2.6-2.4    c-1.4,0-2.5,1.1-2.6,2.4H28.9z"/>
		<path class="st10" d="M31.3,239.3l0.8-0.8c0,0,0.7,1.1,2,1.1c1.1,0,1.7-0.6,1.7-1.3c0-1.8-4.2-0.9-4.2-3.5c0-1.1,1-2.2,2.6-2.2    c1.6,0,2.5,1,2.5,1l-0.8,0.8c0,0-0.6-0.8-1.7-0.8c-0.9,0-1.4,0.6-1.4,1.1c0,1.7,4.2,0.8,4.2,3.5c0,1.3-1,2.3-2.8,2.3    C32.1,240.7,31.3,239.3,31.3,239.3z"/>
		<path class="st10" d="M38.7,230.3c0-0.4,0.3-0.7,0.7-0.7c0.4,0,0.7,0.3,0.7,0.7s-0.3,0.7-0.7,0.7C39,231,38.7,230.7,38.7,230.3z     M38.9,232.8H40v7.7h-1.1V232.8z"/>
		<path class="st10" d="M42.3,242.3l0.7-0.7c0,0,0.9,1.3,2.5,1.3c1.4,0,2.6-1.2,2.6-2.8v-0.9c0,0-0.7,1.2-2.6,1.2    c-2,0-3.6-1.7-3.6-3.8c0-2.2,1.6-3.8,3.6-3.8c1.8,0,2.6,1.2,2.6,1.2v-1h1.1v7.2c0,2.2-1.7,3.8-3.8,3.8    C43.3,243.9,42.3,242.3,42.3,242.3z M48.1,236.5c0-1.6-1.1-2.8-2.6-2.8c-1.4,0-2.5,1.2-2.5,2.8s1.1,2.8,2.5,2.8    C47,239.3,48.1,238.1,48.1,236.5z"/>
		<path class="st10" d="M51.8,232.8h1.1v1.1c0,0,0.8-1.3,2.5-1.3c1.8,0,3.1,1.3,3.1,3.3v4.6h-1.1v-4.6c0-1.4-0.9-2.2-2.1-2.2    c-1.4,0-2.4,1-2.4,2.6v4.2h-1.1V232.8z"/>
		<path class="st10" d="M64.5,232.8h1.1v1.1c0,0,0.9-1.3,2.6-1.3c2.1,0,3.8,1.7,3.8,4c0,2.3-1.7,4-3.8,4c-1.8,0-2.6-1.3-2.6-1.3v4.5    h-1.1V232.8z M70.9,236.7c0-1.8-1.2-3-2.6-3c-1.4,0-2.6,1.3-2.6,3c0,1.7,1.3,3,2.6,3C69.7,239.6,70.9,238.4,70.9,236.7z"/>
		<path class="st10" d="M74.1,229.3h1.1v4.6c0,0,0.8-1.3,2.5-1.3c1.8,0,3.1,1.3,3.1,3.3v4.6h-1.1v-4.6c0-1.4-0.9-2.2-2.1-2.2    c-1.4,0-2.4,1-2.4,2.6v4.2h-1.1V229.3z"/>
		<path class="st10" d="M82.8,238.4c0-1.3,0.8-2.1,2.2-2.3l3-0.5c0-1.1-0.8-1.9-1.9-1.9c-1.4,0-2.2,1.1-2.2,1.1l-0.7-0.7    c0,0,1-1.4,2.9-1.4c1.8,0,3,1.3,3,3v4.9H88v-1c0,0-0.8,1.2-2.5,1.2C83.9,240.7,82.8,239.5,82.8,238.4z M88,237.1v-0.5l-2.6,0.5    c-1,0.2-1.4,0.6-1.4,1.4c0,0.6,0.6,1.2,1.6,1.2C86.9,239.6,88,238.6,88,237.1z"/>
		<path class="st10" d="M90.9,239.3l0.8-0.8c0,0,0.7,1.1,2,1.1c1.1,0,1.7-0.6,1.7-1.3c0-1.8-4.2-0.9-4.2-3.5c0-1.1,1-2.2,2.6-2.2    c1.6,0,2.5,1,2.5,1l-0.8,0.8c0,0-0.6-0.8-1.7-0.8c-0.9,0-1.4,0.6-1.4,1.1c0,1.7,4.2,0.8,4.2,3.5c0,1.3-1,2.3-2.8,2.3    C91.8,240.7,90.9,239.3,90.9,239.3z"/>
		<path class="st10" d="M98,236.7c0-2.2,1.8-4,3.8-4c2.1,0,3.7,1.6,3.7,3.8c0,0.3-0.1,0.6-0.1,0.6l-6.2,0c0.1,1.4,1.3,2.6,2.7,2.6    c1.6,0,2.5-1.3,2.5-1.3l0.7,0.7c0,0-1.1,1.6-3.2,1.6C99.7,240.7,98,238.9,98,236.7z M104.3,236.1c-0.2-1.4-1.2-2.4-2.6-2.4    c-1.4,0-2.5,1.1-2.6,2.4H104.3z"/>
	</g>
</g>
<g>
	<g>
		<path class="st10" d="M11.5,261.4h1.2v11.2h-1.2V261.4z"/>
		<path class="st10" d="M15.7,264.9h1.1v1c0,0,0.6-1.1,2.2-1.1c1.8,0,2.5,1.4,2.5,1.4s0.7-1.4,2.6-1.4c1.7,0,3,1.1,3,3.3v4.6h-1.1    v-4.6c0-1.5-0.8-2.2-1.9-2.2c-1.1,0-2.1,1-2.1,2.6v4.2h-1.1v-4.6c0-1.4-0.8-2.2-1.9-2.2c-1.1,0-2.1,1-2.1,2.6v4.2h-1.1V264.9z"/>
		<path class="st10" d="M29.6,264.9h1.1v1.1c0,0,0.9-1.3,2.6-1.3c2.1,0,3.8,1.7,3.8,4c0,2.3-1.7,4-3.8,4c-1.8,0-2.6-1.3-2.6-1.3v4.5    h-1.1V264.9z M36,268.8c0-1.8-1.2-3-2.6-3c-1.4,0-2.6,1.3-2.6,3c0,1.7,1.3,3,2.6,3C34.8,271.7,36,270.5,36,268.8z"/>
		<path class="st10" d="M39.2,261.4h1.1v11.2h-1.1V261.4z"/>
		<path class="st10" d="M42.4,268.8c0-2.2,1.8-4,3.8-4c2.1,0,3.7,1.6,3.7,3.8c0,0.3-0.1,0.6-0.1,0.6l-6.2,0c0.1,1.4,1.3,2.6,2.7,2.6    c1.6,0,2.5-1.3,2.5-1.3l0.7,0.7c0,0-1.1,1.6-3.2,1.6C44.1,272.8,42.4,271,42.4,268.8z M48.7,268.2c-0.2-1.4-1.2-2.4-2.6-2.4    c-1.4,0-2.5,1.1-2.6,2.4H48.7z"/>
		<path class="st10" d="M51.8,264.9h1.1v1c0,0,0.6-1.1,2.2-1.1c1.8,0,2.5,1.4,2.5,1.4s0.7-1.4,2.6-1.4c1.7,0,3,1.1,3,3.3v4.6h-1.1    v-4.6c0-1.5-0.8-2.2-1.9-2.2c-1.1,0-2.1,1-2.1,2.6v4.2h-1.1v-4.6c0-1.4-0.8-2.2-1.9-2.2c-1.1,0-2.1,1-2.1,2.6v4.2h-1.1V264.9z"/>
		<path class="st10" d="M65.2,268.8c0-2.2,1.8-4,3.8-4c2.1,0,3.7,1.6,3.7,3.8c0,0.3-0.1,0.6-0.1,0.6l-6.2,0c0.1,1.4,1.3,2.6,2.7,2.6    c1.6,0,2.5-1.3,2.5-1.3l0.7,0.7c0,0-1.1,1.6-3.2,1.6C66.9,272.8,65.2,271,65.2,268.8z M71.5,268.2c-0.2-1.4-1.2-2.4-2.6-2.4    c-1.4,0-2.5,1.1-2.6,2.4H71.5z"/>
		<path class="st10" d="M74.6,264.9h1.1v1.1c0,0,0.8-1.3,2.5-1.3c1.8,0,3.1,1.3,3.1,3.3v4.6h-1.1v-4.6c0-1.4-0.9-2.2-2.1-2.2    c-1.4,0-2.4,1-2.4,2.6v4.2h-1.1V264.9z"/>
		<path class="st10" d="M84.5,270.5V266h-1.4v-1H84c0.4,0,0.6-0.2,0.6-0.8v-1.8h1v2.6h1.7v1h-1.7v4.6c0,0.8,0.4,1.2,1,1.2    c0.6,0,1-0.2,1-0.2v1c0,0-0.5,0.2-1.1,0.2C85.3,272.8,84.5,272,84.5,270.5z"/>
		<path class="st10" d="M89.1,270.5c0-1.3,0.8-2.1,2.2-2.3l3-0.5c0-1.1-0.8-1.9-1.9-1.9c-1.4,0-2.2,1.1-2.2,1.1l-0.7-0.7    c0,0,1-1.4,2.9-1.4c1.8,0,3,1.3,3,3v4.9h-1.1v-1c0,0-0.8,1.2-2.5,1.2C90.2,272.8,89.1,271.7,89.1,270.5z M94.3,269.2v-0.5    l-2.6,0.5c-1,0.2-1.4,0.6-1.4,1.4c0,0.6,0.6,1.2,1.6,1.2C93.3,271.7,94.3,270.7,94.3,269.2z"/>
		<path class="st10" d="M98.6,270.5V266h-1.4v-1h0.9c0.4,0,0.6-0.2,0.6-0.8v-1.8h1v2.6h1.7v1h-1.7v4.6c0,0.8,0.4,1.2,1,1.2    c0.6,0,1-0.2,1-0.2v1c0,0-0.5,0.2-1.1,0.2C99.4,272.8,98.6,272,98.6,270.5z"/>
		<path class="st10" d="M103.6,262.4c0-0.4,0.3-0.7,0.7-0.7c0.4,0,0.7,0.3,0.7,0.7s-0.3,0.7-0.7,0.7    C103.9,263.1,103.6,262.8,103.6,262.4z M103.7,264.9h1.1v7.7h-1.1V264.9z"/>
		<path class="st10" d="M106.9,268.8c0-2.2,1.8-4,3.9-4c2.2,0,3.9,1.8,3.9,4c0,2.2-1.8,4-3.9,4C108.6,272.8,106.9,271,106.9,268.8z     M113.6,268.8c0-1.7-1.3-3-2.8-3c-1.5,0-2.8,1.3-2.8,3c0,1.7,1.3,3,2.8,3C112.3,271.7,113.6,270.5,113.6,268.8z"/>
		<path class="st10" d="M116.7,264.9h1.1v1.1c0,0,0.8-1.3,2.5-1.3c1.8,0,3.1,1.3,3.1,3.3v4.6h-1.1v-4.6c0-1.4-0.9-2.2-2.1-2.2    c-1.4,0-2.4,1-2.4,2.6v4.2h-1.1V264.9z"/>
	</g>
</g>
<g>
	<g>
		<path class="st11" d="M13.7,329.1h-3.5V328h8.2v1.1h-3.5v10.1h-1.2V329.1z"/>
		<path class="st11" d="M20,331.5h1.1v1c0,0,0.8-1.2,2.6-1.2H24v1.1h-0.5c-1.3,0-2.4,1-2.4,2.5v4.2H20V331.5z"/>
		<path class="st11" d="M24.9,337.1c0-1.3,0.8-2.1,2.2-2.3l3-0.5c0-1.1-0.8-1.9-1.9-1.9c-1.4,0-2.2,1.1-2.2,1.1l-0.7-0.7    c0,0,1-1.4,2.9-1.4c1.8,0,3,1.3,3,3v4.9h-1.1v-1c0,0-0.8,1.2-2.5,1.2C26.1,339.4,24.9,338.2,24.9,337.1z M30.1,335.8v-0.5    l-2.6,0.5c-1,0.2-1.4,0.6-1.4,1.4c0,0.6,0.6,1.2,1.6,1.2C29.1,338.3,30.1,337.3,30.1,335.8z"/>
		<path class="st11" d="M33.3,335.4c0-2.2,1.8-4,3.8-4c2,0,3.1,1.5,3.1,1.5l-0.8,0.8c0,0-0.8-1.3-2.3-1.3c-1.4,0-2.7,1.3-2.7,3    s1.3,3,2.7,3c1.5,0,2.4-1.3,2.4-1.3l0.8,0.7c0,0-1.2,1.6-3.2,1.6C35,339.4,33.3,337.6,33.3,335.4z"/>
		<path class="st11" d="M42.1,328h1.1v7.6l3.8-4.1h1.4l-3,3.1l3.3,4.6h-1.3l-2.7-3.8l-1.5,1.6v2.2h-1.1V328z"/>
		<path class="st11" d="M52.9,338l0.8-0.8c0,0,0.7,1.1,2,1.1c1.1,0,1.7-0.6,1.7-1.3c0-1.8-4.2-0.9-4.2-3.5c0-1.1,1-2.2,2.6-2.2    c1.6,0,2.5,1,2.5,1l-0.8,0.8c0,0-0.6-0.8-1.7-0.8c-0.9,0-1.4,0.6-1.4,1.1c0,1.7,4.2,0.8,4.2,3.5c0,1.3-1,2.3-2.8,2.3    C53.7,339.4,52.9,338,52.9,338z"/>
		<path class="st11" d="M59.9,337.1c0-1.3,0.8-2.1,2.2-2.3l3-0.5c0-1.1-0.8-1.9-1.9-1.9c-1.4,0-2.2,1.1-2.2,1.1l-0.7-0.7    c0,0,1-1.4,2.9-1.4c1.8,0,3,1.3,3,3v4.9h-1.1v-1c0,0-0.8,1.2-2.5,1.2C61,339.4,59.9,338.2,59.9,337.1z M65.1,335.8v-0.5l-2.6,0.5    c-1,0.2-1.4,0.6-1.4,1.4c0,0.6,0.6,1.2,1.6,1.2C64.1,338.3,65.1,337.3,65.1,335.8z"/>
		<path class="st11" d="M68.9,328H70v11.2h-1.1V328z"/>
		<path class="st11" d="M72.1,335.4c0-2.2,1.8-4,3.8-4c2.1,0,3.7,1.6,3.7,3.8c0,0.3-0.1,0.6-0.1,0.6l-6.2,0c0.1,1.4,1.3,2.6,2.7,2.6    c1.6,0,2.5-1.3,2.5-1.3l0.7,0.7c0,0-1.1,1.6-3.2,1.6C73.8,339.4,72.1,337.6,72.1,335.4z M78.4,334.8c-0.2-1.4-1.2-2.4-2.6-2.4    c-1.4,0-2.5,1.1-2.6,2.4H78.4z"/>
		<path class="st11" d="M80.8,338l0.8-0.8c0,0,0.7,1.1,2,1.1c1.1,0,1.7-0.6,1.7-1.3c0-1.8-4.2-0.9-4.2-3.5c0-1.1,1-2.2,2.6-2.2    c1.6,0,2.5,1,2.5,1l-0.8,0.8c0,0-0.6-0.8-1.7-0.8c-0.9,0-1.4,0.6-1.4,1.1c0,1.7,4.2,0.8,4.2,3.5c0,1.3-1,2.3-2.8,2.3    C81.7,339.4,80.8,338,80.8,338z"/>
	</g>
</g>
<g>
	<g>
		<path class="st11" d="M14.8,360.1h1.1l4.6,11.2h-1.3l-1.3-3.1h-5.3l-1.3,3.1h-1.3L14.8,360.1z M17.5,367.1l-2.2-5.3l-2.2,5.3H17.5    z"/>
		<path class="st11" d="M21.6,367.5c0-2.3,1.7-4,3.8-4c1.8,0,2.6,1.3,2.6,1.3v-4.6h1.1v11.2H28v-1.1c0,0-0.9,1.3-2.6,1.3    C23.3,371.5,21.6,369.8,21.6,367.5z M28,367.5c0-1.7-1.3-3-2.6-3c-1.4,0-2.6,1.2-2.6,3s1.2,3,2.6,3C26.7,370.4,28,369.2,28,367.5z    "/>
		<path class="st11" d="M31.2,367.5c0-2.3,1.7-4,3.8-4c1.8,0,2.6,1.3,2.6,1.3v-4.6h1.1v11.2h-1.1v-1.1c0,0-0.9,1.3-2.6,1.3    C32.9,371.5,31.2,369.8,31.2,367.5z M37.6,367.5c0-1.7-1.3-3-2.6-3c-1.4,0-2.6,1.2-2.6,3s1.2,3,2.6,3    C36.3,370.4,37.6,369.2,37.6,367.5z"/>
		<path class="st11" d="M41.3,363.6h1.1v1c0,0,0.8-1.2,2.6-1.2h0.3v1.1h-0.5c-1.3,0-2.4,1-2.4,2.5v4.2h-1.1V363.6z"/>
		<path class="st11" d="M46.3,367.5c0-2.2,1.8-4,3.8-4c2.1,0,3.7,1.6,3.7,3.8c0,0.3-0.1,0.6-0.1,0.6l-6.2,0c0.1,1.4,1.3,2.6,2.7,2.6    c1.6,0,2.5-1.3,2.5-1.3l0.7,0.7c0,0-1.1,1.6-3.2,1.6C48.1,371.5,46.3,369.7,46.3,367.5z M52.6,366.9c-0.2-1.4-1.2-2.4-2.6-2.4    c-1.4,0-2.5,1.1-2.6,2.4H52.6z"/>
		<path class="st11" d="M55,370.1l0.8-0.8c0,0,0.7,1.1,2,1.1c1.1,0,1.7-0.6,1.7-1.3c0-1.8-4.2-0.9-4.2-3.5c0-1.1,1-2.2,2.6-2.2    c1.6,0,2.5,1,2.5,1l-0.8,0.8c0,0-0.6-0.8-1.7-0.8c-0.9,0-1.4,0.6-1.4,1.1c0,1.7,4.2,0.8,4.2,3.5c0,1.3-1,2.3-2.8,2.3    C55.9,371.5,55,370.1,55,370.1z"/>
		<path class="st11" d="M61.9,370.1l0.8-0.8c0,0,0.7,1.1,2,1.1c1.1,0,1.7-0.6,1.7-1.3c0-1.8-4.2-0.9-4.2-3.5c0-1.1,1-2.2,2.6-2.2    c1.6,0,2.5,1,2.5,1l-0.8,0.8c0,0-0.6-0.8-1.7-0.8c-0.9,0-1.4,0.6-1.4,1.1c0,1.7,4.2,0.8,4.2,3.5c0,1.3-1,2.3-2.8,2.3    C62.8,371.5,61.9,370.1,61.9,370.1z"/>
		<path class="st11" d="M74.1,370.2v1.1h-1.1v-11.2h1.1v4.6c0,0,0.9-1.3,2.6-1.3c2.1,0,3.8,1.7,3.8,4c0,2.3-1.7,4-3.8,4    C74.9,371.5,74.1,370.2,74.1,370.2z M79.3,367.5c0-1.8-1.2-3-2.6-3c-1.4,0-2.6,1.3-2.6,3s1.3,3,2.6,3    C78.1,370.4,79.3,369.2,79.3,367.5z"/>
		<path class="st11" d="M82.5,368.1v-4.5h1.1v4.5c0,1.4,1,2.3,2.2,2.3c1.3,0,2.3-1,2.3-2.6v-4.2h1.1v7.7h-1.1v-1    c0,0-0.8,1.2-2.5,1.2C83.8,371.5,82.5,370.1,82.5,368.1z"/>
		<path class="st11" d="M91.6,373.1l0.7-0.7c0,0,0.9,1.3,2.5,1.3c1.4,0,2.6-1.2,2.6-2.8V370c0,0-0.7,1.2-2.6,1.2    c-2,0-3.6-1.7-3.6-3.8c0-2.2,1.6-3.8,3.6-3.8c1.8,0,2.6,1.2,2.6,1.2v-1h1.1v7.2c0,2.2-1.7,3.8-3.8,3.8    C92.6,374.7,91.6,373.1,91.6,373.1z M97.4,367.3c0-1.6-1.1-2.8-2.6-2.8c-1.4,0-2.5,1.2-2.5,2.8s1.1,2.8,2.5,2.8    C96.3,370.1,97.4,368.9,97.4,367.3z"/>
		<path class="st11" d="M100.4,370.1l0.8-0.8c0,0,0.7,1.1,2,1.1c1.1,0,1.7-0.6,1.7-1.3c0-1.8-4.2-0.9-4.2-3.5c0-1.1,1-2.2,2.6-2.2    c1.6,0,2.5,1,2.5,1l-0.8,0.8c0,0-0.6-0.8-1.7-0.8c-0.9,0-1.4,0.6-1.4,1.1c0,1.7,4.2,0.8,4.2,3.5c0,1.3-1,2.3-2.8,2.3    C101.3,371.5,100.4,370.1,100.4,370.1z"/>
	</g>
</g>
<g>
	<g>
		<path class="st10" d="M11.6,197.5h8.9v1.9h-6.9v3.2h5.5v1.9h-5.5v3.7h7.1v1.9h-9.1V197.5z"/>
		<path class="st10" d="M24.9,205.6l-3-4.1H24l2,2.8l2-2.8h2.1l-3,4.1l3.2,4.5h-2.1l-2.3-3.2l-2.3,3.2h-2.1L24.9,205.6z"/>
		<path class="st10" d="M31.2,205.7c0-2.5,2-4.5,4.4-4.5s4.2,1.8,4.2,4.2c0,0.5-0.1,0.9-0.1,0.9h-6.7c0.2,1.2,1.3,2.2,2.7,2.2    c1.5,0,2.5-1.2,2.5-1.2l1.1,1.3c0,0-1.2,1.6-3.7,1.6C33.2,210.2,31.2,208.3,31.2,205.7z M38,204.8c-0.3-1.2-1.1-2-2.3-2    c-1.4,0-2.2,0.8-2.5,2H38z"/>
		<path class="st10" d="M41.3,205.7c0-2.5,2-4.5,4.5-4.5c2.4,0,3.6,1.7,3.6,1.7l-1.3,1.2c0,0-0.8-1.2-2.3-1.2    c-1.5,0-2.7,1.2-2.7,2.8s1.2,2.8,2.7,2.8c1.5,0,2.4-1.3,2.4-1.3l1.3,1.2c0,0-1.3,1.8-3.7,1.8C43.3,210.2,41.3,208.3,41.3,205.7z"/>
		<path class="st10" d="M51.2,206.5v-5H53v5c0,1.3,0.8,2.1,2,2.1c1.4,0,2.3-1,2.3-2.4v-4.7h1.8v8.6h-1.8v-1.3c0,0-0.9,1.4-2.7,1.4    C52.7,210.2,51.2,208.8,51.2,206.5z"/>
		<path class="st10" d="M62.6,207.4v-4.2h-1.6v-1.7h1c0.5,0,0.8-0.3,0.8-1v-1.9h1.6v2.9h2v1.7h-2v4.1c0,0.9,0.4,1.4,1.3,1.4    c0.5,0,1-0.3,1-0.3v1.7c0,0-0.5,0.3-1.4,0.3C63.5,210.2,62.6,209.2,62.6,207.4z"/>
		<path class="st10" d="M68.7,198.7c0-0.6,0.5-1.1,1.1-1.1c0.5,0,1.1,0.5,1.1,1.1c0,0.6-0.5,1.1-1.1,1.1    C69.2,199.8,68.7,199.3,68.7,198.7z M68.9,201.4h1.8v8.6h-1.8V201.4z"/>
		<path class="st10" d="M72.7,205.7c0-2.5,2-4.5,4.5-4.5c2.5,0,4.5,2,4.5,4.5s-2,4.5-4.5,4.5C74.7,210.2,72.7,208.3,72.7,205.7z     M79.9,205.7c0-1.6-1.2-2.8-2.7-2.8c-1.5,0-2.7,1.2-2.7,2.8s1.2,2.8,2.7,2.8C78.8,208.5,79.9,207.4,79.9,205.7z"/>
		<path class="st10" d="M83.7,201.4h1.8v1.3c0,0,0.9-1.4,2.7-1.4c2,0,3.4,1.4,3.4,3.8v5h-1.8v-5c0-1.3-0.8-2.1-2-2.1    c-1.4,0-2.3,1-2.3,2.4v4.7h-1.8V201.4z"/>
	</g>
</g>
<g>
	<g>
		<path class="st11" d="M11.6,295h1.8l4.8,6.1L23,295h1.8v12.6h-2v-9.3l-4.6,5.9l-4.6-5.9v9.3h-2V295z"/>
		<path class="st11" d="M27.3,303.3c0-2.5,2-4.5,4.5-4.5c2.5,0,4.5,2,4.5,4.5s-2,4.5-4.5,4.5C29.3,307.8,27.3,305.8,27.3,303.3z     M34.5,303.3c0-1.6-1.2-2.8-2.7-2.8c-1.5,0-2.7,1.2-2.7,2.8c0,1.6,1.2,2.8,2.7,2.8C33.3,306.1,34.5,304.9,34.5,303.3z"/>
		<path class="st11" d="M38.3,299h1.8v1.3c0,0,0.9-1.4,2.7-1.4c2,0,3.4,1.4,3.4,3.8v5h-1.8v-5c0-1.3-0.8-2.1-2-2.1    c-1.4,0-2.3,1-2.3,2.4v4.7h-1.8V299z"/>
		<path class="st11" d="M48.6,296.3c0-0.6,0.5-1.1,1.1-1.1c0.5,0,1.1,0.5,1.1,1.1c0,0.6-0.5,1.1-1.1,1.1    C49.1,297.4,48.6,296.9,48.6,296.3z M48.8,299h1.8v8.6h-1.8V299z"/>
		<path class="st11" d="M54.1,304.9v-4.2h-1.6V299h1c0.5,0,0.8-0.3,0.8-1v-1.9h1.6v2.9h2v1.7h-2v4.1c0,0.9,0.5,1.4,1.3,1.4    c0.5,0,1-0.3,1-0.3v1.7c0,0-0.5,0.3-1.4,0.3C55.1,307.8,54.1,306.8,54.1,304.9z"/>
		<path class="st11" d="M59.8,303.3c0-2.5,2-4.5,4.5-4.5c2.5,0,4.5,2,4.5,4.5s-2,4.5-4.5,4.5C61.7,307.8,59.8,305.8,59.8,303.3z     M67,303.3c0-1.6-1.2-2.8-2.7-2.8c-1.5,0-2.7,1.2-2.7,2.8c0,1.6,1.2,2.8,2.7,2.8C65.8,306.1,67,304.9,67,303.3z"/>
		<path class="st11" d="M70.7,299h1.8v1.2c0,0,0.9-1.4,2.6-1.4h0.5v1.9c0,0-0.4-0.1-0.7-0.1c-1.3,0-2.3,1.1-2.3,2.6v4.4h-1.8V299z"/>
		<path class="st11" d="M77.1,296.3c0-0.6,0.5-1.1,1.1-1.1c0.5,0,1.1,0.5,1.1,1.1c0,0.6-0.5,1.1-1.1,1.1    C77.7,297.4,77.1,296.9,77.1,296.3z M77.3,299h1.8v8.6h-1.8V299z"/>
		<path class="st11" d="M81.7,299h1.8v1.3c0,0,0.9-1.4,2.7-1.4c2,0,3.4,1.4,3.4,3.8v5h-1.8v-5c0-1.3-0.8-2.1-2-2.1    c-1.4,0-2.3,1-2.3,2.4v4.7h-1.8V299z"/>
		<path class="st11" d="M91.9,309.6l1.3-1.2c0,0,0.9,1.3,2.4,1.3c1.6,0,2.7-1.1,2.7-2.8v-0.8c0,0-0.9,1.4-2.8,1.4    c-2.1,0-3.9-1.8-3.9-4.3c0-2.5,1.8-4.3,3.9-4.3c1.9,0,2.8,1.4,2.8,1.4V299h1.8v7.9c0,2.6-1.9,4.5-4.5,4.5    C93.2,311.4,91.9,309.6,91.9,309.6z M98.3,303.1c0-1.5-1.1-2.6-2.4-2.6c-1.4,0-2.4,1.1-2.4,2.6c0,1.5,1.1,2.6,2.4,2.6    C97.2,305.8,98.3,304.7,98.3,303.1z"/>
	</g>
</g>
<rect x="535.9" y="425.3" class="st12" width="107.6" height="14.9"/>
<rect x="608.4" y="457.8" class="st12" width="106.7" height="14.9"/>
<rect x="716" y="490.7" class="st12" width="72" height="14.9"/>
<g>
	<g>
		<path class="st12" d="M11.5,427.4h7.6v1.1h-6.4v3.8h5.1v1.1h-5.1v5.1h-1.2V427.4z"/>
		<path class="st12" d="M20.8,428.3c0-0.4,0.3-0.7,0.7-0.7c0.4,0,0.7,0.3,0.7,0.7s-0.3,0.7-0.7,0.7C21.1,429,20.8,428.7,20.8,428.3z     M20.9,430.9h1.1v7.7h-1.1V430.9z"/>
		<path class="st12" d="M24.6,430.9h1.1v1.1c0,0,0.8-1.3,2.5-1.3c1.8,0,3.1,1.3,3.1,3.3v4.6h-1.1V434c0-1.4-0.9-2.2-2.1-2.2    c-1.4,0-2.4,1-2.4,2.6v4.2h-1.1V430.9z"/>
		<path class="st12" d="M33.3,436.5c0-1.3,0.8-2.1,2.2-2.3l3-0.5c0-1.1-0.8-1.9-1.9-1.9c-1.4,0-2.2,1.1-2.2,1.1l-0.7-0.7    c0,0,1-1.4,2.9-1.4c1.8,0,3,1.3,3,3v4.9h-1.1v-1c0,0-0.8,1.2-2.5,1.2C34.5,438.7,33.3,437.6,33.3,436.5z M38.5,435.1v-0.5    l-2.6,0.5c-1,0.2-1.4,0.6-1.4,1.4c0,0.6,0.6,1.2,1.6,1.2C37.5,437.7,38.5,436.6,38.5,435.1z"/>
		<path class="st12" d="M42.3,427.4h1.1v11.2h-1.1V427.4z"/>
		<path class="st12" d="M45.9,428.3c0-0.4,0.3-0.7,0.7-0.7c0.4,0,0.7,0.3,0.7,0.7S47,429,46.6,429C46.2,429,45.9,428.7,45.9,428.3z     M46.1,430.9h1.1v7.7h-1.1V430.9z"/>
		<path class="st12" d="M49.1,437.5l4.6-5.6h-4.5v-1h5.8v1l-4.6,5.6h4.8v1h-6.2V437.5z"/>
		<path class="st12" d="M56.6,434.7c0-2.2,1.8-4,3.8-4c2.1,0,3.7,1.6,3.7,3.8c0,0.3-0.1,0.6-0.1,0.6l-6.2,0c0.1,1.4,1.3,2.6,2.7,2.6    c1.6,0,2.5-1.3,2.5-1.3l0.7,0.7c0,0-1.1,1.6-3.2,1.6C58.4,438.7,56.6,437,56.6,434.7z M62.9,434.2c-0.2-1.4-1.2-2.4-2.6-2.4    c-1.4,0-2.5,1.1-2.6,2.4H62.9z"/>
		<path class="st12" d="M69.4,430.9h1.1v1c0,0,0.8-1.2,2.6-1.2h0.3v1.1h-0.5c-1.3,0-2.4,1-2.4,2.5v4.2h-1.1V430.9z"/>
		<path class="st12" d="M74.4,434.7c0-2.2,1.8-4,3.8-4c2.1,0,3.7,1.6,3.7,3.8c0,0.3-0.1,0.6-0.1,0.6l-6.2,0c0.1,1.4,1.3,2.6,2.7,2.6    c1.6,0,2.5-1.3,2.5-1.3l0.7,0.7c0,0-1.1,1.6-3.2,1.6C76.1,438.7,74.4,437,74.4,434.7z M80.7,434.2c-0.2-1.4-1.2-2.4-2.6-2.4    c-1.4,0-2.5,1.1-2.6,2.4H80.7z"/>
		<path class="st12" d="M83.8,430.9h1.1v1.1c0,0,0.9-1.3,2.6-1.3c2.1,0,3.8,1.7,3.8,4c0,2.3-1.7,4-3.8,4c-1.8,0-2.6-1.3-2.6-1.3v4.5    h-1.1V430.9z M90.2,434.7c0-1.8-1.2-3-2.6-3c-1.4,0-2.6,1.3-2.6,3s1.3,3,2.6,3C89,437.7,90.2,436.5,90.2,434.7z"/>
		<path class="st12" d="M92.8,434.7c0-2.2,1.8-4,3.9-4c2.2,0,3.9,1.8,3.9,4c0,2.2-1.8,4-3.9,4C94.5,438.7,92.8,437,92.8,434.7z     M99.5,434.7c0-1.7-1.3-3-2.8-3c-1.5,0-2.8,1.3-2.8,3c0,1.7,1.3,3,2.8,3C98.2,437.7,99.5,436.4,99.5,434.7z"/>
		<path class="st12" d="M102.6,430.9h1.1v1c0,0,0.8-1.2,2.6-1.2h0.3v1.1h-0.5c-1.3,0-2.4,1-2.4,2.5v4.2h-1.1V430.9z"/>
		<path class="st12" d="M108.8,436.5v-4.6h-1.4v-1h0.9c0.4,0,0.6-0.2,0.6-0.8v-1.8h1v2.6h1.7v1h-1.7v4.6c0,0.8,0.4,1.2,1,1.2    c0.6,0,1-0.2,1-0.2v1c0,0-0.5,0.2-1.1,0.2C109.6,438.7,108.8,437.9,108.8,436.5z"/>
		<path class="st12" d="M113.2,437.4l0.8-0.8c0,0,0.7,1.1,2,1.1c1.1,0,1.7-0.6,1.7-1.3c0-1.8-4.2-0.9-4.2-3.5c0-1.1,1-2.2,2.6-2.2    c1.6,0,2.5,1,2.5,1l-0.8,0.8c0,0-0.6-0.8-1.7-0.8c-0.9,0-1.4,0.6-1.4,1.1c0,1.7,4.2,0.8,4.2,3.5c0,1.3-1,2.3-2.8,2.3    C114.1,438.7,113.2,437.4,113.2,437.4z"/>
	</g>
</g>
<g>
	<g>
		<path class="st12" d="M11.5,459.5h1.2v10.1h5.8v1.1h-7V459.5z"/>
		<path class="st12" d="M19.5,466.8c0-2.2,1.8-4,3.8-4c2.1,0,3.7,1.6,3.7,3.8c0,0.3-0.1,0.6-0.1,0.6l-6.2,0c0.1,1.4,1.3,2.6,2.7,2.6    c1.6,0,2.5-1.3,2.5-1.3l0.7,0.7c0,0-1.1,1.6-3.2,1.6C21.3,470.8,19.5,469.1,19.5,466.8z M25.8,466.3c-0.2-1.4-1.2-2.4-2.6-2.4    c-1.4,0-2.5,1.1-2.6,2.4H25.8z"/>
		<path class="st12" d="M28.2,469.5l0.8-0.8c0,0,0.7,1.1,2,1.1c1.1,0,1.7-0.6,1.7-1.3c0-1.8-4.2-0.9-4.2-3.5c0-1.1,1-2.2,2.6-2.2    c1.6,0,2.5,1,2.5,1l-0.8,0.8c0,0-0.6-0.8-1.7-0.8c-0.9,0-1.4,0.6-1.4,1.1c0,1.7,4.2,0.8,4.2,3.5c0,1.3-1,2.3-2.8,2.3    C29.1,470.8,28.2,469.5,28.2,469.5z"/>
		<path class="st12" d="M35.1,469.5l0.8-0.8c0,0,0.7,1.1,2,1.1c1.1,0,1.7-0.6,1.7-1.3c0-1.8-4.2-0.9-4.2-3.5c0-1.1,1-2.2,2.6-2.2    c1.6,0,2.5,1,2.5,1l-0.8,0.8c0,0-0.6-0.8-1.7-0.8c-0.9,0-1.4,0.6-1.4,1.1c0,1.7,4.2,0.8,4.2,3.5c0,1.3-1,2.3-2.8,2.3    C36,470.8,35.1,469.5,35.1,469.5z"/>
		<path class="st12" d="M42.1,466.8c0-2.2,1.8-4,3.9-4c2.2,0,3.9,1.8,3.9,4c0,2.2-1.8,4-3.9,4C43.9,470.8,42.1,469.1,42.1,466.8z     M48.9,466.8c0-1.7-1.3-3-2.8-3c-1.5,0-2.8,1.3-2.8,3c0,1.7,1.3,3,2.8,3C47.6,469.8,48.9,468.5,48.9,466.8z"/>
		<path class="st12" d="M52,463h1.1v1.1c0,0,0.8-1.3,2.5-1.3c1.8,0,3.1,1.3,3.1,3.3v4.6h-1.1v-4.6c0-1.4-0.9-2.2-2.1-2.2    c-1.4,0-2.4,1-2.4,2.6v4.2H52V463z"/>
		<path class="st12" d="M60.5,469.5l0.8-0.8c0,0,0.7,1.1,2,1.1c1.1,0,1.7-0.6,1.7-1.3c0-1.8-4.2-0.9-4.2-3.5c0-1.1,1-2.2,2.6-2.2    c1.6,0,2.5,1,2.5,1l-0.8,0.8c0,0-0.6-0.8-1.7-0.8c-0.9,0-1.4,0.6-1.4,1.1c0,1.7,4.2,0.8,4.2,3.5c0,1.3-1,2.3-2.8,2.3    C61.4,470.8,60.5,469.5,60.5,469.5z"/>
		<path class="st12" d="M71.6,459.5h1.1v11.2h-1.1V459.5z"/>
		<path class="st12" d="M74.8,466.8c0-2.2,1.8-4,3.8-4c2.1,0,3.7,1.6,3.7,3.8c0,0.3-0.1,0.6-0.1,0.6l-6.2,0c0.1,1.4,1.3,2.6,2.7,2.6    c1.6,0,2.5-1.3,2.5-1.3l0.7,0.7c0,0-1.1,1.6-3.2,1.6C76.5,470.8,74.8,469.1,74.8,466.8z M81.1,466.3c-0.2-1.4-1.2-2.4-2.6-2.4    c-1.4,0-2.5,1.1-2.6,2.4H81.1z"/>
		<path class="st12" d="M83.7,468.6c0-1.3,0.8-2.1,2.2-2.3l3-0.5c0-1.1-0.8-1.9-1.9-1.9c-1.4,0-2.2,1.1-2.2,1.1l-0.7-0.7    c0,0,1-1.4,2.9-1.4c1.8,0,3,1.3,3,3v4.9h-1.1v-1c0,0-0.8,1.2-2.5,1.2C84.8,470.8,83.7,469.7,83.7,468.6z M88.9,467.2v-0.5    l-2.6,0.5c-1,0.2-1.4,0.6-1.4,1.4c0,0.6,0.6,1.2,1.6,1.2C87.8,469.8,88.9,468.8,88.9,467.2z"/>
		<path class="st12" d="M92.5,463h1.1v1c0,0,0.8-1.2,2.6-1.2h0.3v1.1h-0.5c-1.3,0-2.4,1-2.4,2.5v4.2h-1.1V463z"/>
		<path class="st12" d="M98.1,463h1.1v1.1c0,0,0.8-1.3,2.5-1.3c1.8,0,3.1,1.3,3.1,3.3v4.6h-1.1v-4.6c0-1.4-0.9-2.2-2.1-2.2    c-1.4,0-2.4,1-2.4,2.6v4.2h-1.1V463z"/>
		<path class="st12" d="M106.8,466.8c0-2.2,1.8-4,3.8-4c2.1,0,3.7,1.6,3.7,3.8c0,0.3-0.1,0.6-0.1,0.6l-6.2,0    c0.1,1.4,1.3,2.6,2.7,2.6c1.6,0,2.5-1.3,2.5-1.3l0.7,0.7c0,0-1.1,1.6-3.2,1.6C108.5,470.8,106.8,469.1,106.8,466.8z M113.1,466.3    c-0.2-1.4-1.2-2.4-2.6-2.4c-1.4,0-2.5,1.1-2.6,2.4H113.1z"/>
		<path class="st12" d="M115.7,466.8c0-2.3,1.7-4,3.8-4c1.8,0,2.6,1.3,2.6,1.3v-4.6h1.1v11.2h-1.1v-1.1c0,0-0.9,1.3-2.6,1.3    C117.3,470.8,115.7,469.2,115.7,466.8z M122.1,466.8c0-1.7-1.3-3-2.6-3c-1.4,0-2.6,1.2-2.6,3s1.2,3,2.6,3    C120.8,469.8,122.1,468.5,122.1,466.8z"/>
	</g>
</g>
<g>
	<g>
		<path class="st12" d="M11.5,491.3h4.2c2.1,0,3.6,1.5,3.6,3.5c0,2-1.5,3.5-3.6,3.5h-3v4.2h-1.2V491.3z M15.7,497.2    c1.4,0,2.4-1,2.4-2.4c0-1.4-1-2.4-2.4-2.4h-3v4.8H15.7z"/>
		<path class="st12" d="M21.5,494.8h1.1v1c0,0,0.8-1.2,2.6-1.2h0.3v1.1H25c-1.3,0-2.4,1-2.4,2.5v4.2h-1.1V494.8z"/>
		<path class="st12" d="M26.5,498.6c0-2.2,1.8-4,3.9-4c2.2,0,3.9,1.8,3.9,4c0,2.2-1.8,4-3.9,4C28.2,502.6,26.5,500.9,26.5,498.6z     M33.2,498.6c0-1.7-1.3-3-2.8-3c-1.5,0-2.8,1.3-2.8,3c0,1.7,1.3,3,2.8,3C31.9,501.6,33.2,500.3,33.2,498.6z"/>
		<path class="st12" d="M34.4,505.6v-1c0,0,0.4,0.2,0.9,0.2c0.6,0,1-0.4,1-1.2v-8.8h1.1v8.8c0,1.5-0.7,2.2-2.1,2.2    C34.8,505.8,34.4,505.6,34.4,505.6z M36.1,492.2c0-0.4,0.3-0.7,0.7-0.7c0.4,0,0.7,0.3,0.7,0.7s-0.3,0.7-0.7,0.7    C36.5,492.9,36.1,492.6,36.1,492.2z"/>
		<path class="st12" d="M39.4,498.6c0-2.2,1.8-4,3.8-4c2.1,0,3.7,1.6,3.7,3.8c0,0.3-0.1,0.6-0.1,0.6l-6.2,0c0.1,1.4,1.3,2.6,2.7,2.6    c1.6,0,2.5-1.3,2.5-1.3l0.7,0.7c0,0-1.1,1.6-3.2,1.6C41.2,502.6,39.4,500.9,39.4,498.6z M45.7,498.1c-0.2-1.4-1.2-2.4-2.6-2.4    c-1.4,0-2.5,1.1-2.6,2.4H45.7z"/>
		<path class="st12" d="M48.3,498.6c0-2.2,1.8-4,3.8-4c2,0,3.1,1.5,3.1,1.5l-0.8,0.8c0,0-0.8-1.3-2.3-1.3c-1.4,0-2.7,1.3-2.7,3    s1.3,3,2.7,3c1.5,0,2.4-1.3,2.4-1.3l0.8,0.7c0,0-1.2,1.6-3.2,1.6C50.1,502.6,48.3,500.9,48.3,498.6z"/>
		<path class="st12" d="M57.7,500.4v-4.6h-1.4v-1h0.9c0.4,0,0.6-0.2,0.6-0.8v-1.8h1v2.6h1.7v1h-1.7v4.6c0,0.8,0.4,1.2,1,1.2    c0.6,0,1-0.2,1-0.2v1c0,0-0.5,0.2-1.1,0.2C58.5,502.6,57.7,501.8,57.7,500.4z"/>
		<path class="st12" d="M66.2,494.8h1.1v1.1c0,0,0.9-1.3,2.6-1.3c2.1,0,3.8,1.7,3.8,4c0,2.3-1.7,4-3.8,4c-1.8,0-2.6-1.3-2.6-1.3v4.5    h-1.1V494.8z M72.6,498.6c0-1.8-1.2-3-2.6-3c-1.4,0-2.6,1.3-2.6,3s1.3,3,2.6,3C71.4,501.6,72.6,500.4,72.6,498.6z"/>
		<path class="st12" d="M75.2,498.6c0-2.2,1.8-4,3.9-4c2.2,0,3.9,1.8,3.9,4c0,2.2-1.8,4-3.9,4C76.9,502.6,75.2,500.9,75.2,498.6z     M81.9,498.6c0-1.7-1.3-3-2.8-3c-1.5,0-2.8,1.3-2.8,3c0,1.7,1.3,3,2.8,3C80.6,501.6,81.9,500.3,81.9,498.6z"/>
		<path class="st12" d="M84.3,501.3l0.8-0.8c0,0,0.7,1.1,2,1.1c1.1,0,1.7-0.6,1.7-1.3c0-1.8-4.2-0.9-4.2-3.5c0-1.1,1-2.2,2.6-2.2    c1.6,0,2.5,1,2.5,1l-0.8,0.8c0,0-0.6-0.8-1.7-0.8c-0.9,0-1.4,0.6-1.4,1.1c0,1.7,4.2,0.8,4.2,3.5c0,1.3-1,2.3-2.8,2.3    C85.2,502.6,84.3,501.3,84.3,501.3z"/>
		<path class="st12" d="M92.5,500.4v-4.6h-1.4v-1H92c0.4,0,0.6-0.2,0.6-0.8v-1.8h1v2.6h1.7v1h-1.7v4.6c0,0.8,0.4,1.2,1,1.2    c0.6,0,1-0.2,1-0.2v1c0,0-0.5,0.2-1.1,0.2C93.3,502.6,92.5,501.8,92.5,500.4z"/>
		<path class="st12" d="M101,494.8h1.1v1c0,0,0.6-1.1,2.2-1.1c1.8,0,2.5,1.4,2.5,1.4s0.7-1.4,2.6-1.4c1.7,0,3,1.1,3,3.3v4.6h-1.1    v-4.6c0-1.5-0.8-2.2-1.9-2.2c-1.1,0-2.1,1-2.1,2.6v4.2h-1.1v-4.6c0-1.4-0.8-2.2-1.9-2.2c-1.1,0-2.1,1-2.1,2.6v4.2H101V494.8z"/>
		<path class="st12" d="M114.4,498.6c0-2.2,1.8-4,3.9-4c2.2,0,3.9,1.8,3.9,4c0,2.2-1.8,4-3.9,4C116.1,502.6,114.4,500.9,114.4,498.6    z M121.1,498.6c0-1.7-1.3-3-2.8-3c-1.5,0-2.8,1.3-2.8,3c0,1.7,1.3,3,2.8,3C119.8,501.6,121.1,500.3,121.1,498.6z"/>
		<path class="st12" d="M124.2,494.8h1.1v1c0,0,0.8-1.2,2.6-1.2h0.3v1.1h-0.5c-1.3,0-2.4,1-2.4,2.5v4.2h-1.1V494.8z"/>
		<path class="st12" d="M130.4,500.4v-4.6h-1.4v-1h0.9c0.4,0,0.6-0.2,0.6-0.8v-1.8h1v2.6h1.7v1h-1.7v4.6c0,0.8,0.4,1.2,1,1.2    c0.6,0,1-0.2,1-0.2v1c0,0-0.5,0.2-1.1,0.2C131.2,502.6,130.4,501.8,130.4,500.4z"/>
		<path class="st12" d="M134.9,498.6c0-2.2,1.8-4,3.8-4c2.1,0,3.7,1.6,3.7,3.8c0,0.3-0.1,0.6-0.1,0.6l-6.2,0    c0.1,1.4,1.3,2.6,2.7,2.6c1.6,0,2.5-1.3,2.5-1.3l0.7,0.7c0,0-1.1,1.6-3.2,1.6C136.7,502.6,134.9,500.9,134.9,498.6z M141.3,498.1    c-0.2-1.4-1.2-2.4-2.6-2.4c-1.4,0-2.5,1.1-2.6,2.4H141.3z"/>
		<path class="st12" d="M144.4,494.8h1.1v1c0,0,0.6-1.1,2.2-1.1c1.8,0,2.5,1.4,2.5,1.4s0.7-1.4,2.6-1.4c1.7,0,3,1.1,3,3.3v4.6h-1.1    v-4.6c0-1.5-0.8-2.2-1.9-2.2c-1.1,0-2.1,1-2.1,2.6v4.2h-1.1v-4.6c0-1.4-0.8-2.2-1.9-2.2c-1.1,0-2.1,1-2.1,2.6v4.2h-1.1V494.8z"/>
	</g>
</g>
<g>
	<g>
		<path class="st12" d="M10.8,400.7c0-3.6,2.9-6.5,6.7-6.5c3.4,0,5.1,2.4,5.1,2.4l-1.3,1.3c0,0-1.3-1.9-3.9-1.9s-4.7,2.1-4.7,4.7    c0,2.6,2.1,4.7,4.7,4.7s4-2,4-2l1.3,1.3c0,0-1.8,2.5-5.2,2.5C13.7,407.2,10.8,404.3,10.8,400.7z"/>
		<path class="st12" d="M24.6,394.4h1.8V407h-1.8V394.4z"/>
		<path class="st12" d="M28.4,402.7c0-2.5,2-4.5,4.5-4.5c2.5,0,4.5,2,4.5,4.5s-2,4.5-4.5,4.5C30.4,407.2,28.4,405.2,28.4,402.7z     M35.6,402.7c0-1.6-1.2-2.8-2.7-2.8c-1.5,0-2.7,1.2-2.7,2.8s1.2,2.8,2.7,2.8C34.5,405.5,35.6,404.3,35.6,402.7z"/>
		<path class="st12" d="M38.6,405.6l1.2-1.2c0,0,0.9,1.2,2.3,1.2c1,0,1.5-0.5,1.5-1.1c0-1.4-4.6-0.7-4.6-3.8c0-1.4,1.2-2.5,3.2-2.5    c2.1,0,3.1,1.2,3.1,1.2l-1.2,1.2c0,0-0.7-0.7-1.9-0.7c-0.9,0-1.4,0.5-1.4,0.9c0,1.4,4.6,0.7,4.6,3.8c0,1.4-1.3,2.7-3.3,2.7    C39.8,407.2,38.6,405.6,38.6,405.6z"/>
		<path class="st12" d="M46.7,402.7c0-2.5,2-4.5,4.4-4.5c2.4,0,4.2,1.8,4.2,4.2c0,0.5-0.1,0.9-0.1,0.9h-6.7c0.2,1.2,1.3,2.2,2.7,2.2    c1.5,0,2.5-1.2,2.5-1.2l1.1,1.3c0,0-1.2,1.6-3.7,1.6C48.7,407.2,46.7,405.2,46.7,402.7z M53.5,401.8c-0.3-1.2-1.1-2-2.3-2    c-1.4,0-2.2,0.8-2.5,2H53.5z"/>
		<path class="st12" d="M56.8,402.7c0-2.5,2-4.5,4.5-4.5c2.5,0,4.5,2,4.5,4.5s-2,4.5-4.5,4.5C58.8,407.2,56.8,405.2,56.8,402.7z     M64,402.7c0-1.6-1.2-2.8-2.7-2.8c-1.5,0-2.7,1.2-2.7,2.8s1.2,2.8,2.7,2.8C62.8,405.5,64,404.3,64,402.7z"/>
		<path class="st12" d="M67.8,403.4v-5h1.8v5c0,1.3,0.8,2.1,2,2.1c1.4,0,2.3-1,2.3-2.4v-4.7h1.8v8.6h-1.8v-1.3c0,0-0.9,1.4-2.7,1.4    C69.2,407.2,67.8,405.7,67.8,403.4z"/>
		<path class="st12" d="M79.1,404.3v-4.2h-1.6v-1.7h1c0.5,0,0.8-0.3,0.8-1v-1.9h1.6v2.9h2v1.7h-2v4.1c0,0.9,0.4,1.4,1.3,1.4    c0.5,0,1-0.3,1-0.3v1.7c0,0-0.5,0.3-1.4,0.3C80.1,407.2,79.1,406.2,79.1,404.3z"/>
	</g>
</g>
</svg>