<?xml version="1.0" encoding="utf-8"?>
<!-- Generator: Adobe Illustrator 25.4.1, SVG Export Plug-In . SVG Version: 6.00 Build 0)  -->
<svg version="1.1" id="Layer_1" xmlns="http://www.w3.org/2000/svg" xmlns:xlink="http://www.w3.org/1999/xlink" x="0px" y="0px"
	 width="820px" height="428.4px" viewBox="0 0 820 428.4" style="enable-background:new 0 0 820 428.4;" xml:space="preserve">
<style type="text/css">
	.st0{fill:#F5F5F5;}
	.st1{fill:#00A9D7;}
	.st2{fill:#1CD0BB;}
	.st3{fill:#FFA400;}
	.st4{fill:#318DDE;}
	.st5{display:none;}
</style>
<g id="GUIDE">
	<rect x="79.2" y="19.7" class="st0" width="675.9" height="387.8"/>
</g>
<g id="bubble_chart">
	<polygon class="st1" points="276.6,99.3 271.7,102.3 259.6,142 229.2,133.8 189.1,121.1 189.1,114 187.3,109.7 191.2,109 
		200.1,94.3 204.6,82 210,75.3 210,70.2 220.5,75.4 220.5,80.3 231.8,85 253.6,85.7 272.1,90.5 	"/>
	<polygon class="st2" points="284,53.5 272.1,90.5 253.6,85.7 231.8,85 220.5,80.3 220.5,75.4 219.9,73.2 213,69.7 209.9,68.4 
		210.4,63.3 211.5,63.1 211.5,67.2 213.9,64.1 213.6,62.2 211.9,60.5 215,50.5 214.5,46.9 215,41 222.9,48.2 231.6,50.5 229.8,61.8 
		233.7,55.3 236.1,55.7 235.4,50.8 235.9,44.7 234.8,40.8 	"/>
	<polygon class="st3" points="322.9,122.4 316,154.3 287.2,148 259.6,142 271.7,102.3 276.6,99.3 272.1,90.5 284,53.5 292.2,55.6 
		288.7,66.5 295.1,76.7 296.4,82.6 297.5,85 298.5,89.7 296,95.4 295.1,101.2 298.1,99.8 300.4,111.5 305.1,118.9 312.6,119.9 
		318.4,120.9 320,122.6 	"/>
	<polygon class="st1" points="394,73.5 389.2,112.5 387.6,125.2 324.1,116 322.9,122.4 320,122.6 318.4,120.9 312.6,119.9 
		305.1,118.9 300.4,111.5 298.1,99.8 295.1,101.2 296,95.4 298.5,89.7 297.5,85 296.4,82.6 295.1,76.7 288.7,66.5 292.2,55.6 	"/>
	<polygon class="st3" points="458.2,149.5 455.8,149.3 457.9,153 457.8,157.8 458.2,162.1 448.7,158.4 442.6,160.4 433.5,157.4 
		424.9,154.1 384.7,151.4 384.6,151.4 387.6,125.2 389.2,112.5 457.6,116.9 458.2,125.5 	"/>
	<polygon class="st2" points="507.2,145.4 507.6,149.6 458.2,149.5 458.2,125.5 457.6,116.9 456.4,101.3 453.5,87 453.5,85.1 
		452.4,80.8 453.3,77.3 469.4,77.5 476.2,81.6 480.3,82 490.2,84.6 492.3,82.9 493.7,84.9 493.4,87.4 496.9,87.4 502.6,89.1 
		514.8,87.5 520.4,88.7 506.1,97.3 503.5,101.5 499.2,103.7 497.8,108.6 497.4,116.1 495.2,118.9 492,119.4 493.6,125.7 
		491.6,131.7 496.7,136.8 498.4,136.8 501.8,141.3 504.8,142.6 505,144.5 	"/>
	<polygon class="st3" points="546.2,121.7 546,124.6 541.7,135.4 541.7,137.1 538.6,147.7 541,157.9 540.4,160.9 513,161.8 
		508.3,157.9 509,152.4 507.6,149.6 507.2,145.4 505,144.5 504.8,142.6 501.8,141.3 498.4,136.8 496.7,136.8 491.6,131.7 
		493.6,125.7 492,119.4 495.2,118.9 497.4,116.1 497.8,108.6 509.5,104.5 511.2,105.8 510,108.9 514.3,108.7 518.6,112.2 522.9,112 
		535.1,117.8 540,127.6 537.6,132.4 535.3,136.1 535.9,137.5 537.6,133.6 541.9,129.2 	"/>
	<polygon class="st2" points="400.8,191.7 401.9,179 381.7,177 384.6,151.4 384.7,151.4 424.9,154.1 433.5,157.4 442.6,160.4 
		448.7,158.4 458.2,162.1 460,169.5 462.6,176.9 463,184.4 466.3,188 468,194.1 	"/>
	<polygon class="st2" points="575.7,201.6 575,205.6 569.8,208.8 569.5,211.5 564.4,217.4 560.9,215.1 559.4,219 555.7,219.4 
		553.9,220.4 550.1,219.4 547,220.1 546.4,222 543.8,222.1 545.9,213.5 547.9,206.8 545,169.4 547.6,170.6 550.3,169 571.6,167.3 
		571.6,168.6 	"/>
	<polygon class="st3" points="617,186.5 614.8,187.4 610.8,195 608.5,195.4 607.7,200 604.9,200.4 604.5,203.8 602.8,205.5 
		602.6,207.7 599.3,207.5 595.4,204.6 593.1,205.7 588.1,205.1 585.8,203.8 575.7,201.6 571.6,168.6 588.2,166.6 593.2,167.7 
		590.4,169.5 592.8,169.8 596.2,167.2 599.4,165.5 601.3,165.9 610.7,160.1 613.2,160.1 	"/>
	<polygon class="st2" points="673,171.7 673,174.1 670.5,176.1 668.9,178.9 668,180.3 628.2,186.7 617.3,188.5 617,186.5 
		613.2,160.1 619.6,156 620.1,158.6 662.1,150.3 666,153.4 667,156 670.3,157.3 670.8,159.1 669.3,161 669.2,168.1 	"/>
	<polygon class="st3" points="699,150.6 688.1,154.7 684.5,157.7 681.2,159.7 680.9,158.1 681.9,156.6 679.5,145.3 696.8,141.4 	"/>
	<polygon class="st1" points="716.3,142.7 714.9,141.8 709.8,144.6 708.5,142.6 705.4,146.5 704.1,143.8 702.1,143.1 700.5,140.3 
		696.8,141.4 679.5,145.3 679.1,135.1 687.2,133.2 699.1,130.4 699.4,129.4 701.1,128.1 702.5,128.3 703.3,129.9 705.1,130.7 
		702.4,135.4 703.4,136.3 704.4,135.8 706.1,136.1 707.9,138.3 708,139.4 709.6,141.1 711.5,141.8 714.5,140 713,137.4 711.6,136.9 
		712.4,136 715.3,138.5 	"/>
	<polygon class="st2" points="689.2,110.7 686.7,113.1 687.2,117 686.3,123.6 686.9,127.9 687.2,130.1 687.2,133.2 679.1,135.1 
		676.5,125.2 675.5,126.2 673.7,119.6 673.8,115 671.3,107 688.5,102.3 688.6,106.5 689.6,108.4 	"/>
	<polygon class="st3" points="703.4,127.2 702.5,128.3 701.1,128.1 699.4,129.4 699.1,130.4 687.2,133.2 687.2,130.1 686.9,127.9 
		686.3,123.6 687.2,117 686.7,113.1 689.2,110.7 689.6,108.4 688.6,106.5 688.5,102.3 688.4,100.1 689.1,99.1 691.2,98.5 
		701.5,126.4 	"/>
	<polygon class="st2" points="730.7,94.8 728.7,97.6 726.8,97.7 726.2,99.4 724.1,99.3 725.4,101.3 723.4,101.6 723.3,102.9 
		720.6,101.6 720.9,103.7 718.3,102.7 716.6,104.7 714.5,101.9 714.7,111.4 712,110 710.2,114 711.5,116.6 710,116.5 708.8,114.4 
		707,115.6 708.5,117.8 705.7,120.4 707.4,120.2 707,122.1 705,122.8 705.3,125.2 703.4,127.2 701.5,126.4 691.2,98.5 693.7,97.4 
		693.5,94.1 695.4,92.6 694.6,90.6 695.5,88.1 693.3,80.2 698.2,66.8 700.3,68.6 702.1,68.2 704,66.6 712.5,68.8 719.2,86.5 
		725.7,87.3 	"/>
	<polygon class="st1" points="680.3,167.6 680,174.7 676.1,185 675.2,184.4 675.6,182.4 673,182.6 670.8,181.4 668.9,178.9 
		670.5,176.1 673,174.1 673,171.7 669.2,168.1 669.3,161 670.8,159.1 670.3,157.3 678.9,159.9 676.3,166.9 679.3,166.5 	"/>
	<polygon class="st3" points="680.6,195.9 680.2,197.3 673.2,198.5 668.9,183.7 668,180.3 668.9,178.9 670.8,181.4 670.4,182.4 
		671.6,182.9 671.5,183.6 673.9,186.2 674.8,189.1 676.2,190.2 676.7,191.6 679.1,192.3 679.7,193.6 678.5,193.8 679.2,194.7 
		677.9,195.7 	"/>
	<polygon class="st2" points="673.5,221.5 613.4,231.2 590.4,233.7 596.3,228.5 596.6,226.9 604.3,220.2 604.9,216.8 610.5,220.9 
		613.4,216.4 616,217.9 617.9,215.9 622.2,215.9 623.3,211 626.1,208.2 629.3,206.9 629.1,203.2 633.6,204.2 636.6,199.9 
		639.5,197.1 640.6,194.2 642.4,193.8 646.1,189.3 648.2,189.9 649.8,192.5 653.2,193.6 655.2,196.3 653.8,199.2 654.5,201.7 
		656.9,201.9 662.3,203.6 664.5,205.1 664.6,208.5 666,209.8 662,210 665.9,212.2 665.8,213.6 668.4,217.2 664.1,215.1 660.1,213.9 
		657.1,215.3 662.1,215.7 667.9,219.2 670.5,218.3 672.3,218.9 673.3,217.7 	"/>
	<polygon class="st3" points="675.2,228.5 676.7,232.3 675.8,234.3 670.7,234.6 671.3,235.3 674.5,235.4 674.7,237.1 672.2,238.6 
		671.3,239.3 668.5,236.7 667.5,236.8 668.2,238.9 665.3,238.6 663.8,240.2 666.2,240.6 671,240 670,242.1 667.9,243 665,242.1 
		666.2,243.7 669.1,244.4 672.5,241.4 673.9,242.3 673.1,245.2 668.8,246.2 665.5,247.7 662.8,248.2 659.9,250.9 662.3,251.1 
		660.1,253.5 660.4,254.4 658.7,256.9 659.2,260.9 655.6,257.1 656.3,260.4 653.1,259.9 652.4,261.4 650.7,262.2 636.7,251.2 
		626.3,252.8 620.1,249.4 606.6,250.6 600,253.9 583.4,255.5 589,251.1 593.5,249.5 601.8,242.6 607.8,238.1 608.7,236.7 
		611.3,234.8 613.4,231.2 673.5,221.5 677.9,229.5 672.8,223.7 672,224.5 673.6,227 672.4,227.9 669.4,226.8 668.8,228 669.6,228.8 
		665.6,230.4 665.6,232.2 670.4,230.4 672.4,229.1 673,232.5 674.5,232.5 674.3,228.9 	"/>
	<polygon class="st1" points="650.7,262.2 646.1,267.7 645.6,270.6 643,275 640.9,273.3 640.3,277.2 633.9,283 632.6,282.4 
		628.7,283.5 632.2,286 625.9,287 623.5,284.1 620.2,279.4 598.3,257.1 600,253.9 606.6,250.6 620.1,249.4 626.3,252.8 636.7,251.2 
			"/>
	<polygon class="st2" points="628.5,289.7 626,293.1 625.9,295.7 623.6,297.3 623.3,302.2 622.4,305.7 623.7,308.1 617.9,307.8 
		616.3,312.7 615,310.7 584,311.9 582.6,309 581.3,299.5 583.4,290.6 578.9,282.9 573.2,256.7 583.4,255.5 600,253.9 598.3,257.1 
		620.2,279.4 623.5,284.1 623.5,288.9 627.5,288.3 	"/>
	<polygon class="st1" points="547.9,206.8 545.9,213.5 543.8,222.1 542.1,228.1 539.8,230.8 534.8,230.1 533,233.3 529.3,231.2 
		528,224.3 519.9,216.6 521.6,213.5 521,209.6 516.3,207.5 508.3,199.3 507.5,191.3 511.1,183.2 511.2,179 519.7,170.3 518.9,168.5 
		513,161.8 540.4,160.9 545,169.4 	"/>
	<polygon class="st3" points="534,235.8 532.6,237.5 529.6,237.6 529.3,239.9 528.4,244.3 523.6,244.5 522.6,239.4 475.1,240.5 
		475.2,234.2 474.5,206.9 471.1,203 473.2,198.4 468,194.1 466.3,188 503.5,187.5 507.5,191.3 508.3,199.3 516.3,207.5 521,209.6 
		521.6,213.5 519.9,216.6 528,224.3 529.3,231.2 533,233.3 	"/>
	<polygon class="st1" points="646.1,189.3 642.4,193.8 640.6,194.2 639.5,197.1 636.6,199.9 633.6,204.2 629.1,203.2 629.3,206.9 
		626.1,208.2 623.3,211 622.2,215.9 617.9,215.9 616,217.9 613.4,216.4 610.5,220.9 604.9,216.8 601.7,213.6 601.5,210.4 
		602.6,207.7 602.8,205.5 604.5,203.8 604.9,200.4 607.7,200 608.5,195.4 610.8,195 614.8,187.4 617,186.5 617.3,188.5 628.2,186.7 
		629.2,195.5 630.7,194.8 632.9,190.6 637.3,187.2 644.7,186.7 	"/>
	<polygon class="st3" points="582.6,309 554.5,310.8 555.4,319.8 549.2,321.8 551.8,319.5 549.2,309.4 548.1,318.9 544.9,320.1 
		543.9,300.4 545.3,261 544.1,258.3 573.2,256.7 578.9,282.9 583.4,290.6 581.3,299.5 	"/>
	<polygon class="st2" points="543.9,300.4 544.9,320.1 536.9,320.2 533.2,322.2 529.7,316.6 529.5,311.6 509.1,313.1 516.7,294.8 
		515,285.9 516,281.7 514.5,275.7 523.7,258.3 544.1,258.3 545.3,261 	"/>
	<polygon class="st1" points="537.7,334.5 532.5,337.2 531.2,333.7 527.4,331.4 528.1,335.6 525.1,336.3 523.1,333.1 521.7,337.3 
		517.1,336 516.4,334.4 512.5,333.9 513.9,331.2 510.3,330.6 509.6,326.9 503.1,327.6 506.8,331.2 501.3,331.3 493.4,329.3 
		491.4,327.8 491.2,325.1 490.1,328.8 484.3,330.1 486,325.7 486,316.8 486.9,312.9 485.2,310.2 484,303.7 480.8,297.2 480.9,286.2 
		515,285.9 516.7,294.8 509.1,313.1 529.5,311.6 529.7,316.6 533.2,322.2 527.3,320 522.3,320.4 519.2,322.7 522.7,323.8 
		524.1,325.3 528.8,323.5 532.3,323.6 529.2,325.1 529.2,326.9 532,326.8 534.7,324.5 534.8,328 532,328.7 533.2,332.6 	"/>
	<polygon class="st1" points="475.2,234.2 397.1,230.7 400.8,191.7 468,194.1 473.2,198.4 471.1,203 474.5,206.9 	"/>
	<polygon class="st3" points="486.9,312.9 486,316.8 486,325.7 484.3,330.1 474.3,333.8 474.3,328.9 470.2,330.9 471.8,335.8 
		473.9,335.8 472.7,338.5 470.3,337.7 461.7,342.2 453.5,346.6 446.3,352.3 440.6,352.7 443.9,353.8 443.1,359.9 439.2,359.4 
		440.3,362.7 444.6,375.6 444,379 438.8,375.8 429.4,376 423.9,370.7 419.7,364.9 418,355.5 414,352.3 407.3,337.9 400.5,329.1 
		384.3,324 380.2,327.9 376.6,335.2 362,325.7 357.7,311.6 342.8,294 343.4,291 381.1,295.1 386,236.5 417.4,239.2 416.2,264.9 
		424.2,266.7 434.6,272.9 436.9,271.6 440.8,276.2 448.2,274.8 450,276.4 451.2,274.6 456.1,275.7 456.9,277.6 470,275.2 
		476.2,279.4 477.4,278.3 481,279.8 480.9,286.2 480.8,297.2 484,303.7 485.2,310.2 	"/>
	<polygon class="st1" points="325.4,222.1 314.4,295.2 291.8,291.8 251.8,268.8 253.7,265.7 257.4,265.2 255.1,259.3 257.6,253 
		263.2,245.8 260.4,236.8 261.7,234.2 260.5,228.5 263,220.7 267.7,221 270,223.4 272.4,212.6 	"/>
	<polygon class="st1" points="613.4,231.2 611.3,234.8 608.7,236.7 607.8,238.1 601.8,242.6 593.5,249.5 589,251.1 583.4,255.5 
		573.2,256.7 544.1,258.3 523.7,258.3 524.6,255 528.4,247.7 528.4,244.3 529.3,239.9 544.1,238.7 542.8,237 590.4,233.7 	"/>
	<polygon class="st2" points="477.4,278.3 476.2,279.4 470,275.2 456.9,277.6 456.1,275.7 451.2,274.6 450,276.4 448.2,274.8 
		440.8,276.2 436.9,271.6 434.6,272.9 424.2,266.7 416.2,264.9 417.4,239.2 386,236.5 386.6,230.3 397.1,231.3 397.1,230.7 
		475.2,234.2 475.1,240.5 	"/>
	<polygon class="st3" points="401.9,179 400.8,191.7 397.1,230.7 397.1,231.3 386.6,230.3 325.4,222.1 333.1,170.6 381.7,177 	"/>
	<polygon class="st2" points="333.1,170.6 325.4,222.1 272.4,212.6 287.2,148 316,154.3 313.5,166.9 	"/>
	<polygon class="st3" points="257.6,253 255.1,259.3 257.4,265.2 253.7,265.7 226.4,262.8 226.4,260.7 224.2,260.6 226.6,254.6 
		222.1,249.1 222.9,245.6 215.3,245.5 217.4,241 204.9,231.5 196.2,228.9 194.6,225.2 195.5,214.1 191.7,209.4 187.7,198.5 
		187.5,195.2 185.2,193.8 186.6,182.4 187.9,180.6 190.7,182.3 190,177.1 198.4,176.5 190.3,175.4 186,177.7 183.6,176.8 
		182.3,174.9 185.1,172 180.5,162.7 177.4,161.8 180.8,158.7 182.3,150.6 179.1,141.7 184.5,135.6 185.2,131.5 187.8,125.9 
		186.4,122.1 189.1,121.1 229.2,133.8 219.1,166.1 220.6,167.3 218,172.5 260.4,236.8 263.2,245.8 	"/>
	<path class="st1" d="M280.1,331.6l-0.8,2.1l-2,1.2l-0.5-0.9l2.6-3.1L280.1,331.6z M286.3,328.4l-2.3,1.5l0.1,2l2.1,1.9l3.9-1.2
		l0.4-4L286.3,328.4z M313.3,340.6l-2.4-1.4l-1.6-3l-1.4,1.7l-2.3,0.1l0.7,2.7l0.9,2.6l2.3-1.6l1.6,1.3l2.8-0.4L313.3,340.6z
		 M318.9,344.2l-1.4,2.1l8.3,0.3l2.2-1.9L318.9,344.2z M325.7,349l-2.9-0.6l0.5,1.4l1.4,2.1l1.6-1L325.7,349z M333.4,348.3l-2.3,0.6
		l-2.1-2l-1.4,1.9l3.3,1.5l1.1,2.6l5-0.1l0.8-1.6L333.4,348.3z M329.5,353.2l-2.2,1l1.4,1.2l1.7-0.9L329.5,353.2z M353.1,369l-2.6-4
		l-10.6-6.4l0.1,5.1l-3.3,1.9l0.1,1.8l1.7,2.9l0.3,6.1l3.2,3.4l4.1-5l5.2-1.6l4.2-2.5L353.1,369z"/>
	<g>
		<polygon class="st4" points="387.6,125.2 384.6,151.4 381.7,177 333.1,170.6 313.5,166.9 316,154.3 322.9,122.4 324.1,116 		"/>
		<polygon class="st4" points="457.6,116.9 389.2,112.5 394,73.5 453.3,77.3 452.4,80.8 453.5,85.1 453.5,87 456.4,101.3 		"/>
		<polygon class="st4" points="519.7,170.3 511.2,179 511.1,183.2 507.5,191.3 503.5,187.5 466.3,188 463,184.4 462.6,176.9 
			460,169.5 458.2,162.1 457.8,157.8 457.9,153 455.8,149.3 458.2,149.5 507.6,149.6 509,152.4 508.3,157.9 513,161.8 518.9,168.5 
					"/>
		<path class="st4" d="M575.3,111.3l-10.1,0.6l-0.3,2.7l-1.9-2.2l-5.4-1.6l-7.2,3.4l-2.2,5.6l-0.7-4.3l-3.8,1.8l-2.9,4.7l-0.9,5.5
			l-5-9.8l-12.1-5.9l-4.3,0.3l-4.3-3.5l1.4-2.7l10.6-4.2v-2.6l8.9-5l1,2.2l-6,4l0.3,5.2l2.1-2.2l7.3,3.8l3.8-0.1l3.8,1.6l0.4-2.2
			l5.5-2.9l8.1-2l-0.1,3.7l1.7,0.6l4-0.8l5.9,5.9L575.3,111.3z M593,148.2l-1.2-6l-3.1-5.9l-2.1-0.6l-2.7,1.9l-1.6-0.3l0.2,2.2
			l-2.9,2.9l-2.8-1.2l0.9-3.7l2.8-1.1l1.2-6.3l-2.1-7l1.5-0.4l-2.9-4.3l-3.8-0.4l-4-1.3l-3-2.3l-1.8,1.4l-1.3,0.9l0.8,3l-3.4,2.2
			l0.5,3l-0.6,2.8H560l0.1-5.1l-3.8,4.7l-3.8,3.2l0.6,3.9l-1.4,5.7l0.6,4.8l4,5.9l-1.3,12.9l-4.6,5.3l21.3-1.7v1.3l16.6-2l1.9-4.2
			l1.3-7.4h1.7l1-2.9L593,148.2z"/>
		<polygon class="st4" points="698.6,154.3 698.6,155.3 687.7,163.5 686.8,162.7 691.3,159.3 690.2,159.2 680,165.7 678.8,164.5 
			679.4,161.2 678.9,159.9 670.3,157.3 667,156 666,153.4 662.1,150.3 620.1,158.6 619.6,156 627.1,147 625.9,144.7 624.4,142.9 
			624.4,140.6 635.2,137.5 638.3,138.5 644,137.1 649.7,132.1 648.1,128.4 648.9,126.7 646.7,125.6 655.7,111.5 658.5,110.5 
			671.3,107 673.8,115 673.7,119.6 675.5,126.2 676.5,125.2 679.1,135.1 679.5,145.3 681.9,156.6 680.9,158.1 681.2,159.7 
			680.1,161.2 680.2,162.9 689.5,157.6 694.3,154.2 694,155.6 692.8,156.8 694.5,156.6 		"/>
		<polygon class="st4" points="705.4,146.5 703.4,147.6 702.4,145.3 701.7,145.8 702.2,148.5 699,150.6 696.8,141.4 700.5,140.3 
			702.1,143.1 704.1,143.8 		"/>
		<polygon class="st4" points="643,369.6 641.8,375.2 642.7,377.1 638.4,380.8 633,380.4 633.6,378.7 635.2,377.4 631.9,376.4 
			634.4,373.9 634.1,371.8 628.6,371.1 625.2,363 619.8,365.5 618.6,361.4 622.1,361.7 622,357.6 616,358.9 613.5,354.8 
			613.5,352.2 616.5,350.3 616,345.4 613.5,347 613.6,348.6 610.8,346.7 610.9,342.3 611.8,333.4 609.2,329.5 606.5,330.9 
			605.4,326.8 602.3,325.2 602.2,323.4 597.6,322.6 596.9,320.2 593.8,319.2 588.3,323.5 580.4,326.2 576.3,320.2 578.4,319.8 
			576.4,317.1 574.6,319.7 572.1,318.3 567.2,318.7 569,316.3 565.7,316.1 561.4,318.2 565,318.4 565,319.7 559,320.6 559.7,316.2 
			555.4,319.8 554.5,310.8 582.6,309 584,311.9 615,310.7 616.3,312.7 617.9,307.8 623.7,308.1 625,315.4 630.2,327.5 629,328.5 
			634.3,334.6 631.9,334.7 638.7,346.6 641.7,353.1 643.3,357.7 644.8,361.4 645.1,367.6 		"/>
		<polygon class="st4" points="680.2,197.3 673.2,198.5 668.9,183.7 668,180.3 628.2,186.7 629.2,195.5 630.7,194.8 632.9,190.6 
			637.3,187.2 644.7,186.7 646.1,189.3 648.2,189.9 649.8,192.5 653.2,193.6 655.2,196.3 653.8,199.2 654.5,201.7 656.9,201.9 
			662.3,203.6 664.5,205.1 665.5,204.3 665.8,205.3 667.5,204.9 666.5,204 666.1,202.9 665.1,202.8 662.5,200.9 662.8,200 
			664.9,201.9 665.6,201 664.1,199.3 663,196.4 663.2,195 662.8,194.3 664.3,192 662.7,191.2 663,190.5 661.5,188.8 663,188.8 
			664.3,187.2 665.7,185.7 665.9,184.5 666.9,183.3 668.1,183.9 667.7,185 667.7,185.8 666.3,186.7 665.2,189.7 666.8,190.3 
			666.6,192.9 666.9,194.4 665.4,194.4 665.4,195.3 668.4,197.7 666.5,197.6 667.2,198.8 666.8,200.6 669.4,202.4 670.1,201.1 
			671.5,201.4 671.6,203.4 672.8,203.3 672.6,204.5 673.2,204.7 672.4,206.8 678.2,204.2 679.2,201 680.3,203.5 		"/>
		<polygon class="st4" points="604.9,216.8 604.3,220.2 596.6,226.9 596.3,228.5 590.4,233.7 542.8,237 544.1,238.7 529.3,239.9 
			529.6,237.6 532.6,237.5 534,235.8 533,233.3 534.8,230.1 539.8,230.8 542.1,228.1 543.8,222.1 546.4,222 547,220.1 550.1,219.4 
			553.9,220.4 555.7,219.4 559.4,219 560.9,215.1 564.4,217.4 569.5,211.5 569.8,208.8 575,205.6 575.7,201.6 585.8,203.8 
			588.1,205.1 593.1,205.7 595.4,204.6 599.3,207.5 602.6,207.7 601.5,210.4 601.7,213.6 		"/>
		<polygon class="st4" points="386.6,230.3 386,236.5 381.1,295.1 343.4,291 342.8,294 323.9,291 322.7,296.5 314.4,295.2 
			325.4,222.1 		"/>
		<polygon class="st4" points="528.4,244.3 528.4,247.7 524.6,255 523.7,258.3 514.5,275.7 516,281.7 515,285.9 480.9,286.2 
			481,279.8 477.4,278.3 475.1,240.5 522.6,239.4 523.6,244.5 		"/>
		<polygon class="st4" points="287.2,148 272.4,212.6 270,223.4 267.7,221 263,220.7 260.5,228.5 261.7,234.2 260.4,236.8 
			218,172.5 220.6,167.3 219.1,166.1 229.2,133.8 259.6,142 		"/>
		<path class="st4" d="M119.7,372l1,1.3l-1.1,0.1l-1.2-1.4H119.7z M118.1,369.7l-1.4,0.4l-2.4-0.6l-0.2,0.5l0.9,0.8l2.2,0.6l1.8-0.9
			L118.1,369.7z M111.5,368.2h0.8l0.2-0.4l-0.8-0.7L111.5,368.2z M128.6,375.3l1.1,0.1l0.9-0.8l-1.8-0.4L128.6,375.3z M135.3,374.5
			l1.8,0.7l4.1-2.2l-0.7-0.7L135.3,374.5z M131.4,375.5l0.6,0.2l1.2,0.3l0-1.2l-1.4,0L131.4,375.5z M108.3,368.2l1.9,0.4l0.4-1.2
			l-0.9-0.4L108.3,368.2z M122.8,372.8l0.1,1.2l0.8-0.2l0-0.7L122.8,372.8z M95.6,359.4l0.3,2.1l1.2-0.3l-1.2-3.1L95.6,359.4z
			 M109.1,366h-1.4l-0.4,1.2l1.1-0.1L109.1,366z M145,355l0.6-0.9l-1.6-0.9l-0.7,1.2L145,355z M161.8,321.7l2.9,0.5l-1.7-5l-2-0.1
			l-1-2.6l-2.2,3.3l2.7,0.9L161.8,321.7z M93.1,355l1.3,0l0.4-0.8l-2.4-0.1L93.1,355z M145.9,348.1l-0.4-0.7l-3.8,0.8l2.1,1.7
			L145.9,348.1z M105.2,365.2l-0.8,0.4l1.6,1.1l0.6-1.6l-1.3-1.1L105.2,365.2z M99.1,359.6l0.7,0.7l0.5-1.2l-1-0.5L99.1,359.6z
			 M143.9,371.5v0.9l-0.5,1.3l-2,0.5l2.2,0.8l3-2.4l-1-1.3L143.9,371.5z M248.9,374.5l-1.5-0.2l-1.2,1.6l2.1,1.3l1.9,2.2l-0.3-3.2
			L248.9,374.5z M253,376.3l1.8-0.1l-0.5-1l-2.7,0.5l-0.1,2.7l1.6-0.3l0.9-0.9L253,376.3z M248.3,372.8l0.2-2.2l-2.3-1.4l-1.2,1.6
			l1.9,2.3L248.3,372.8z M249.3,369.1l1,5.6l0.4,0.2l0.4-1.6l0.9-1.8L249.3,369.1z M194.7,363l0.6,0.8l1.1-0.5l1.4-0.7l-1.6-1.2
			L194.7,363z M257.8,379.8l-1.9-2.1l-1.3,1l2.5,2.1L257.8,379.8z M260.2,374.5l-12.7-13.5l-5.5,2.2l-4.1-5.4l-6.5-2l3.5-51.7l-5-2
			l-12.2-3.5l-5.5-3.9l-4.8-4.4l-12.7,2.4l-6.4,4.2l-5.7,1.3l2.4,4.6v4.2l1.9,2.2l1.1,4.3l-3.9-0.7l-1.1-4.4l-10.3,2.2l1.7,3.5
			l0.2,3.9l6.5,3.5l4.4-1.3l-0.6,6.8l-8.1,2.2l-1.1,3.3l-3.5-3.5l-6.3,3.5l3,5.9l-1.9,5l5,2.8l-1.7,6.6l4.8-0.7l3.9,5.2l5.9-2
			l-6.5,7.2l-12.4,5L162,371l4.2,0.2l18.5-5.2l10.2-7.4l0.4-4.3l5.4-5l2.4,0.9l-2.4,8.5l10.9-3.5l1.7-5.7l7.6,6.4l9.6,2.6l7.7,4.6
			l3.9,5l4.6-0.6l1.3-3.3l8.9,11.4l4.2,7.2l4.1,1.3L260.2,374.5z M192.3,365.4l-0.4,1.2l-1.2-1.1l-2.4,1.2l0.3,1.9l1.2,0.1l0,1.6
			l5.1-3l2-1.3l-4.7-1.8L192.3,365.4z M257,383.1l-0.6-2l-2.7-1.8l-0.2,1.9l1.2,2.6l1.8,1.9l1.4,1.6l1.3-0.3l-0.5-2.1L257,383.1z
			 M154.6,369.7l0.8,1.6l2.1,0.8l0.7-1.5l-0.2-1.4L154.6,369.7z M152.4,371.7l0.8,1.2l1.3-1.4l-1.7-1.3L152.4,371.7z M148.7,371.6
			l-1.1-0.2l-0.4,0.6l0.8,0.7l1-0.4l0.5,0.4l1-0.6l-0.1-0.9L148.7,371.6z M149.3,330.6l-1.2-1.1l-0.2-2.5l-1.2,3l1.1,2L149.3,330.6z
			 M163.5,338.6l-3.3,0.3l1,2.7l3.3-0.4L163.5,338.6z M159.3,369.6v0.7l0.9,1.2l1.1-0.8l-0.1-0.9L159.3,369.6z M182.1,374.4l0.1,0.8
			l1.8-0.1l0.6-1.1l-0.2-1L182.1,374.4z M186.5,370.8l0.6,0.9l1.1-0.3l0.6-0.8l-0.3-0.6L186.5,370.8z"/>
	</g>
	<circle class="st3" cx="653.8" cy="196.2" r="2.3"/>
</g>
<g id="resources" class="st5">
</g>
</svg>
