<svg xmlns="http://www.w3.org/2000/svg" xmlns:xlink="http://www.w3.org/1999/xlink" width="1280" height="720" overflow=""><defs><clipPath id="clip0"><rect x="0" y="0" width="1280" height="720"/></clipPath><clipPath id="clip1"><rect x="7" y="0" width="1039" height="720"/></clipPath><clipPath id="clip2"><rect x="55" y="55" width="978" height="622"/></clipPath><clipPath id="clip3"><rect x="55" y="55" width="978" height="622"/></clipPath><clipPath id="clip4"><rect x="55" y="55" width="978" height="622"/></clipPath><clipPath id="clip5"><rect x="7" y="0" width="1039" height="720"/></clipPath><clipPath id="clip6"><rect x="7" y="0" width="1039" height="720"/></clipPath><clipPath id="clip7"><rect x="7" y="0" width="1039" height="720"/></clipPath><clipPath id="clip8"><rect x="7" y="0" width="1039" height="720"/></clipPath><clipPath id="clip9"><rect x="7" y="0" width="1039" height="720"/></clipPath><clipPath id="clip10"><rect x="7" y="0" width="1039" height="720"/></clipPath><clipPath id="clip11"><rect x="7" y="0" width="1039" height="720"/></clipPath><clipPath id="clip12"><rect x="7" y="0" width="1039" height="720"/></clipPath><clipPath id="clip13"><rect x="7" y="0" width="1039" height="720"/></clipPath><clipPath id="clip14"><rect x="7" y="0" width="1039" height="720"/></clipPath><clipPath id="clip15"><rect x="7" y="0" width="1039" height="720"/></clipPath><clipPath id="clip16"><rect x="7" y="0" width="1039" height="720"/></clipPath><clipPath id="clip17"><rect x="7" y="0" width="1039" height="720"/></clipPath><clipPath id="clip18"><rect x="7" y="0" width="1039" height="720"/></clipPath><clipPath id="clip19"><rect x="7" y="0" width="1039" height="720"/></clipPath><clipPath id="clip20"><rect x="7" y="0" width="1039" height="720"/></clipPath><clipPath id="clip21"><rect x="7" y="0" width="1039" height="720"/></clipPath><clipPath id="clip22"><rect x="7" y="0" width="1039" height="720"/></clipPath></defs><g clip-path="url(#clip0)"><rect x="0" y="0" width="1280" height="720" fill="#FFFFFF"/><g clip-path="url(#clip1)"><path d="M55.5001 573.5 1032.5 573.5M55.5001 469.5 1032.5 469.5M55.5001 366.5 1032.5 366.5M55.5001 262.5 1032.5 262.5M55.5001 159.5 1032.5 159.5M55.5001 55.5001 1032.5 55.5001" stroke="#D9D9D9" stroke-linejoin="round" stroke-miterlimit="10" fill="none"/></g><g clip-path="url(#clip2)"><path d="M102.5 366.5 145.5 366.5 145.5 676.5 102.5 676.5ZM346.5 563.5 389.5 563.5 389.5 676.5 346.5 676.5ZM590.5 418.5 633.5 418.5 633.5 676.5 590.5 676.5ZM834.5 625.5 877.5 625.5 877.5 676.5 834.5 676.5Z" stroke="#12436D" stroke-width="3" stroke-linejoin="round" stroke-miterlimit="10" fill="#12436D"/></g><g clip-path="url(#clip3)"><path d="M156.5 532.5 199.5 532.5 199.5 676.5 156.5 676.5ZM400.5 614.5 443.5 614.5 443.5 676.5 400.5 676.5ZM644.5 449.5 687.5 449.5 687.5 676.5 644.5 676.5ZM888.5 387.5 931.5 387.5 931.5 676.5 888.5 676.5Z" stroke="#12436D" stroke-width="3" stroke-linejoin="round" stroke-miterlimit="10" fill="#2073BC"/></g><g clip-path="url(#clip4)"><path d="M210.5 459.5 253.5 459.5 253.5 676.5 210.5 676.5ZM454.5 521.5 497.5 521.5 497.5 676.5 454.5 676.5ZM698.5 169.5 741.5 169.5 741.5 676.5 698.5 676.5ZM942.5 594.5 985.5 594.5 985.5 676.5 942.5 676.5Z" stroke="#12436D" stroke-width="3" stroke-linejoin="round" stroke-miterlimit="10" fill="#6BACE6"/></g><g clip-path="url(#clip5)"><path d="M55.5001 676.5 1032.5 676.5" stroke="#D9D9D9" stroke-linejoin="round" stroke-miterlimit="10" fill="none" fill-rule="evenodd"/></g><g clip-path="url(#clip6)"><text font-family="Arial,Arial_MSFontService,sans-serif" font-weight="400" font-size="20" transform="translate(27.4774 683)">0</text></g><g clip-path="url(#clip7)"><text font-family="Arial,Arial_MSFontService,sans-serif" font-weight="400" font-size="20" transform="translate(16.3574 580)">10</text></g><g clip-path="url(#clip8)"><text font-family="Arial,Arial_MSFontService,sans-serif" font-weight="400" font-size="20" transform="translate(16.3574 476)">20</text></g><g clip-path="url(#clip9)"><text font-family="Arial,Arial_MSFontService,sans-serif" font-weight="400" font-size="20" transform="translate(16.3574 373)">30</text></g><g clip-path="url(#clip10)"><text font-family="Arial,Arial_MSFontService,sans-serif" font-weight="400" font-size="20" transform="translate(16.3574 269)">40</text></g><g clip-path="url(#clip11)"><text font-family="Arial,Arial_MSFontService,sans-serif" font-weight="400" font-size="20" transform="translate(16.3574 166)">50</text></g><g clip-path="url(#clip12)"><text font-family="Arial,Arial_MSFontService,sans-serif" font-weight="400" font-size="20" transform="translate(16.3574 62)">60</text></g><g clip-path="url(#clip13)"><text font-family="Arial,Arial_MSFontService,sans-serif" font-weight="400" font-size="20" transform="translate(146.144 707)">Shop 1</text></g><g clip-path="url(#clip14)"><text font-family="Arial,Arial_MSFontService,sans-serif" font-weight="400" font-size="20" transform="translate(390.192 707)">Shop 2</text></g><g clip-path="url(#clip15)"><text font-family="Arial,Arial_MSFontService,sans-serif" font-weight="400" font-size="20" transform="translate(634.241 707)">Shop 3</text></g><g clip-path="url(#clip16)"><text font-family="Arial,Arial_MSFontService,sans-serif" font-weight="400" font-size="20" transform="translate(878.289 707)">Shop 4</text></g><g clip-path="url(#clip17)"><rect x="105.5" y="29.5001" width="10" height="10" stroke="#12436D" stroke-width="3" stroke-linejoin="round" stroke-miterlimit="10" fill="#12436D"/></g><g clip-path="url(#clip18)"><text font-family="Arial,Arial_MSFontService,sans-serif" font-weight="400" font-size="20" transform="translate(119.934 40)">0 to 25</text></g><g clip-path="url(#clip19)"><rect x="216.5" y="29.5001" width="10" height="10" stroke="#12436D" stroke-width="3" stroke-linejoin="round" stroke-miterlimit="10" fill="#2073BC"/></g><g clip-path="url(#clip20)"><text font-family="Arial,Arial_MSFontService,sans-serif" font-weight="400" font-size="20" transform="translate(230.853 40)">26 to 64</text></g><g clip-path="url(#clip21)"><rect x="338.5" y="29.5001" width="10" height="10" stroke="#12436D" stroke-width="3" stroke-linejoin="round" stroke-miterlimit="10" fill="#6BACE6"/></g><g clip-path="url(#clip22)"><text font-family="Arial,Arial_MSFontService,sans-serif" font-weight="400" font-size="20" transform="translate(352.893 40)">65 and over</text></g></g></svg>