<svg xmlns="http://www.w3.org/2000/svg" style="width:100%;height:100%;overflow:hidden">
  <defs>
    <clipPath clip-rule="evenodd" id="a">
      <path d="M30.5 44.5h802v328h-802Z" stroke="#000" fill="none"/>
    </clipPath>
  </defs>
  <path d="M0 0h847v400H0Z" fill="#FFF"/>
  <path d="M30 44h802v328H30Z" fill="none"/>
  <path d="M30.5 44.5h802m-802 82h802m-802 82h802m-802 82h802m-702-246v328m101-328v328m100-328v328m100-328v328m100-328v328m101-328v328m100-328v328m100-328v328m-802-328v328m-4-328h4m-4 82h4m-4 82h4m-4 82h4m-4 82h4" stroke="color(srgb 0.258824 0.258824 0.258824 / 0.08)" fill="none"/>
  <g clip-path="url(#a)">
    <path d="M30.5 56.5h201v12h-201Z" stroke="#0e5d8a" fill="#1274AC" class="k-chart-point" aria-label="100" aria-roledescription="Point"/>
    <path d="M30.5 71.5h241v12h-241Z" stroke="#ccb44e" fill="#FFE162" class="k-chart-point" aria-label="120" aria-roledescription="Point"/>
    <path d="M30.5 87.5h90v12h-90Z" stroke="#3da766" fill="#4CD180" class="k-chart-point" aria-label="45" aria-roledescription="Point"/>
    <path d="M30.5 102.5h174v12h-174Z" stroke="#005db8" fill="#0074E6" class="k-chart-point" aria-label="87" aria-roledescription="Point"/>
    <path d="M30.5 138.5h247v12h-247Z" stroke="#0e5d8a" fill="#1274AC" class="k-chart-point" aria-label="123" aria-roledescription="Point"/>
    <path d="M30.5 153.5h134v12h-134Z" stroke="#ccb44e" fill="#FFE162" class="k-chart-point" aria-label="67" aria-roledescription="Point"/>
    <path d="M30.5 169.5h249v12h-249Z" stroke="#3da766" fill="#4CD180" class="k-chart-point" aria-label="124" aria-roledescription="Point"/>
    <path d="M30.5 184.5h309v12h-309Z" stroke="#005db8" fill="#0074E6" class="k-chart-point" aria-label="154" aria-roledescription="Point"/>
    <path d="M30.5 220.5h469v12h-469Z" stroke="#0e5d8a" fill="#1274AC" class="k-chart-point" aria-label="234" aria-roledescription="Point"/>
    <path d="M30.5 235.5h463v12h-463Z" stroke="#ccb44e" fill="#FFE162" class="k-chart-point" aria-label="231" aria-roledescription="Point"/>
    <path d="M30.5 251.5h379v12h-379Z" stroke="#3da766" fill="#4CD180" class="k-chart-point" aria-label="189" aria-roledescription="Point"/>
    <path d="M30.5 266.5h421v12h-421Z" stroke="#005db8" fill="#0074E6" class="k-chart-point" aria-label="210" aria-roledescription="Point"/>
    <path d="M30.5 302.5h688v12h-688Z" stroke="#0e5d8a" fill="#1274AC" class="k-chart-point" aria-label="343" aria-roledescription="Point"/>
    <path d="M30.5 317.5h393v12h-393Z" stroke="#ccb44e" fill="#FFE162" class="k-chart-point" aria-label="196" aria-roledescription="Point"/>
    <path d="M30.5 333.5h287v12h-287Z" stroke="#3da766" fill="#4CD180" class="k-chart-point" aria-label="143" aria-roledescription="Point"/>
    <path d="M30.5 348.5h431v12h-431Z" stroke="#005db8" fill="#0074E6" class="k-chart-point" aria-label="215" aria-roledescription="Point"/>
  </g>
  <text x="5" y="89" fill="#424242" style="font:400 11.998px sans-serif;white-space:pre">Q1</text>
  <text x="5" y="171" fill="#424242" style="font:400 11.998px sans-serif;white-space:pre">Q2</text>
  <text x="5" y="253" fill="#424242" style="font:400 11.998px sans-serif;white-space:pre">Q3</text>
  <text x="5" y="335" fill="#424242" style="font:400 11.998px sans-serif;white-space:pre">Q4</text>
  <path d="M30.5 372.5h802m-802 0v4m100-4v4m101-4v4m100-4v4m100-4v4m100-4v4m101-4v4m100-4v4m100-4v4" stroke="color(srgb 0.258824 0.258824 0.258824 / 0.08)" fill="none"/>
  <text x="26.5" y="392" fill="#424242" style="font:400 11.998px sans-serif;white-space:pre">0</text>
  <text x="123.75" y="392" fill="#424242" style="font:400 11.998px sans-serif;white-space:pre">50</text>
  <text x="220.5" y="392" fill="#424242" style="font:400 11.998px sans-serif;white-space:pre">100</text>
  <text x="320.75" y="392" fill="#424242" style="font:400 11.998px sans-serif;white-space:pre">150</text>
  <text x="421" y="392" fill="#424242" style="font:400 11.998px sans-serif;white-space:pre">200</text>
  <text x="521.25" y="392" fill="#424242" style="font:400 11.998px sans-serif;white-space:pre">250</text>
  <text x="621.5" y="392" fill="#424242" style="font:400 11.998px sans-serif;white-space:pre">300</text>
  <text x="721.75" y="392" fill="#424242" style="font:400 11.998px sans-serif;white-space:pre">350</text>
  <text x="822" y="392" fill="#424242" style="font:400 11.998px sans-serif;white-space:pre">400</text>
  <text x="388.5" y="30" fill="#424242" style="font:400 16.002px sans-serif;white-space:pre">Units sold</text>
  <g/>
</svg>
