<?xml version="1.0" encoding="utf-8"?>
<!-- Generator: Adobe Illustrator 24.2.1, SVG Export Plug-In . SVG Version: 6.00 Build 0)  -->
<svg version="1.1" xmlns="http://www.w3.org/2000/svg" xmlns:xlink="http://www.w3.org/1999/xlink" x="0px" y="0px"
	 viewBox="0 0 2900 2450" style="enable-background:new 0 0 2900 2450;" xml:space="preserve">
<style type="text/css">
	.st0{fill:#95A4CF;}
	.st1{fill:#D4DAEB;}
	.st2{fill:#B4BFDD;}
	.st3{fill:#7689C0;}
	.st4{fill:#F3F4F9;}
	.st5{fill:#576EB2;}
	.st6{fill:#FFFFFF;}
	.st7{fill:#3853A4;}
	.st8{fill:none;}
	.st9{font-family:'DegularDisplay-Regular';}
	.st10{font-size:52px;}
	.st11{fill:url(#SVGID_1_);stroke:#000000;stroke-miterlimit:10;}
</style>
<g id="Layer_1">
	<g id="Layer_1_1_">
		<rect x="117.6" y="354.1" class="st0" width="130.1" height="130.1"/>
		<rect x="256.3" y="354.1" class="st1" width="130.1" height="130.1"/>
		<rect x="395" y="354.1" class="st0" width="130.1" height="130.1"/>
		<rect x="533.8" y="354.1" class="st2" width="130.1" height="130.1"/>
		<rect x="672.5" y="354.1" class="st0" width="130.1" height="130.1"/>
		<rect x="811.3" y="354.1" class="st3" width="130.1" height="130.1"/>
		<rect x="950" y="354.1" class="st1" width="130.1" height="130.1"/>
		<rect x="1088.7" y="354.1" class="st4" width="130.1" height="130.1"/>
		<rect x="1227.5" y="354.1" class="st3" width="130.1" height="130.1"/>
		<rect x="1366.2" y="354.1" class="st5" width="130.1" height="130.1"/>
		<rect x="1504.9" y="354.1" class="st1" width="130.1" height="130.1"/>
		<rect x="1643.7" y="354.1" class="st3" width="130.1" height="130.1"/>
		<rect x="1782.4" y="354.1" class="st3" width="130.1" height="130.1"/>
		<rect x="1921.1" y="354.1" class="st6" width="130.1" height="130.1"/>
		<rect x="2059.9" y="354.1" class="st3" width="130.1" height="130.1"/>
		<rect x="2198.6" y="354.1" class="st0" width="130.1" height="130.1"/>
		<rect x="117.6" y="492.8" class="st2" width="130.1" height="130.1"/>
		<rect x="256.3" y="492.8" class="st3" width="130.1" height="130.1"/>
		<rect x="395" y="492.8" class="st0" width="130.1" height="130.1"/>
		<rect x="533.8" y="492.8" class="st0" width="130.1" height="130.1"/>
		<rect x="672.5" y="492.8" class="st6" width="130.1" height="130.1"/>
		<rect x="811.3" y="492.8" class="st2" width="130.1" height="130.1"/>
		<rect x="950" y="492.8" class="st4" width="130.1" height="130.1"/>
		<rect x="1088.7" y="492.8" class="st0" width="130.1" height="130.1"/>
		<rect x="1227.5" y="492.8" class="st0" width="130.1" height="130.1"/>
		<rect x="1366.2" y="492.8" class="st3" width="130.1" height="130.1"/>
		<rect x="1504.9" y="492.8" class="st2" width="130.1" height="130.1"/>
		<rect x="1643.7" y="492.8" class="st0" width="130.1" height="130.1"/>
		<rect x="1782.4" y="492.8" class="st0" width="130.1" height="130.1"/>
		<rect x="1921.1" y="492.8" class="st0" width="130.1" height="130.1"/>
		<rect x="2059.9" y="492.8" class="st0" width="130.1" height="130.1"/>
		<rect x="2198.6" y="492.8" class="st0" width="130.1" height="130.1"/>
		<rect x="117.6" y="631.6" class="st0" width="130.1" height="130.1"/>
		<rect x="256.3" y="631.6" class="st0" width="130.1" height="130.1"/>
		<rect x="395" y="631.6" class="st0" width="130.1" height="130.1"/>
		<rect x="533.8" y="631.6" class="st0" width="130.1" height="130.1"/>
		<rect x="672.5" y="631.6" class="st0" width="130.1" height="130.1"/>
		<rect x="811.3" y="631.6" class="st4" width="130.1" height="130.1"/>
		<rect x="950" y="631.6" class="st0" width="130.1" height="130.1"/>
		<rect x="1088.7" y="631.6" class="st0" width="130.1" height="130.1"/>
		<rect x="1227.5" y="631.6" class="st0" width="130.1" height="130.1"/>
		<rect x="1366.2" y="631.6" class="st5" width="130.1" height="130.1"/>
		<rect x="1504.9" y="631.6" class="st2" width="130.1" height="130.1"/>
		<rect x="1643.7" y="631.6" class="st1" width="130.1" height="130.1"/>
		<rect x="1782.4" y="631.6" class="st0" width="130.1" height="130.1"/>
		<rect x="1921.1" y="631.6" class="st4" width="130.1" height="130.1"/>
		<rect x="2059.9" y="631.6" class="st3" width="130.1" height="130.1"/>
		<rect x="2198.6" y="631.6" class="st2" width="130.1" height="130.1"/>
		<rect x="117.6" y="770.3" class="st1" width="130.1" height="130.1"/>
		<rect x="256.3" y="770.3" class="st4" width="130.1" height="130.1"/>
		<rect x="395" y="770.3" class="st4" width="130.1" height="130.1"/>
		<rect x="533.8" y="770.3" class="st2" width="130.1" height="130.1"/>
		<rect x="672.5" y="770.3" class="st2" width="130.1" height="130.1"/>
		<rect x="811.3" y="770.3" class="st0" width="130.1" height="130.1"/>
		<rect x="950" y="770.3" class="st3" width="130.1" height="130.1"/>
		<rect x="1088.7" y="770.3" class="st2" width="130.1" height="130.1"/>
		<rect x="1227.5" y="770.3" class="st2" width="130.1" height="130.1"/>
		<rect x="1366.2" y="770.3" class="st1" width="130.1" height="130.1"/>
		<rect x="1504.9" y="770.3" class="st1" width="130.1" height="130.1"/>
		<rect x="1643.7" y="770.3" class="st4" width="130.1" height="130.1"/>
		<rect x="1782.4" y="770.3" class="st6" width="130.1" height="130.1"/>
		<rect x="1921.1" y="770.3" class="st1" width="130.1" height="130.1"/>
		<rect x="2059.9" y="770.3" class="st0" width="130.1" height="130.1"/>
		<rect x="2198.6" y="770.3" class="st1" width="130.1" height="130.1"/>
		<rect x="117.6" y="909" class="st2" width="130.1" height="130.1"/>
		<rect x="256.3" y="909" class="st1" width="130.1" height="130.1"/>
		<rect x="395" y="909" class="st6" width="130.1" height="130.1"/>
		<rect x="533.8" y="909" class="st4" width="130.1" height="130.1"/>
		<rect x="672.5" y="909" class="st0" width="130.1" height="130.1"/>
		<rect x="811.3" y="909" class="st0" width="130.1" height="130.1"/>
		<rect x="950" y="909" class="st0" width="130.1" height="130.1"/>
		<rect x="1088.7" y="909" class="st3" width="130.1" height="130.1"/>
		<rect x="1227.5" y="909" class="st4" width="130.1" height="130.1"/>
		<rect x="1366.2" y="909" class="st5" width="130.1" height="130.1"/>
		<rect x="1504.9" y="909" class="st3" width="130.1" height="130.1"/>
		<rect x="1643.7" y="909" class="st6" width="130.1" height="130.1"/>
		<rect x="1782.4" y="909" class="st0" width="130.1" height="130.1"/>
		<rect x="1921.1" y="909" class="st1" width="130.1" height="130.1"/>
		<rect x="2059.9" y="909" class="st4" width="130.1" height="130.1"/>
		<rect x="2198.6" y="909" class="st0" width="130.1" height="130.1"/>
		<rect x="117.6" y="1047.8" class="st0" width="130.1" height="130.1"/>
		<rect x="256.3" y="1047.8" class="st1" width="130.1" height="130.1"/>
		<rect x="395" y="1047.8" class="st3" width="130.1" height="130.1"/>
		<rect x="533.8" y="1047.8" class="st2" width="130.1" height="130.1"/>
		<rect x="672.5" y="1047.8" class="st6" width="130.1" height="130.1"/>
		<rect x="811.3" y="1047.8" class="st0" width="130.1" height="130.1"/>
		<rect x="950" y="1047.8" class="st1" width="130.1" height="130.1"/>
		<rect x="1088.7" y="1047.8" class="st2" width="130.1" height="130.1"/>
		<rect x="1227.5" y="1047.8" class="st0" width="130.1" height="130.1"/>
		<rect x="1366.2" y="1047.8" class="st6" width="130.1" height="130.1"/>
		<rect x="1504.9" y="1047.8" class="st0" width="130.1" height="130.1"/>
		<rect x="1643.7" y="1047.8" class="st2" width="130.1" height="130.1"/>
		<rect x="1782.4" y="1047.8" class="st2" width="130.1" height="130.1"/>
		<rect x="1921.1" y="1047.8" class="st0" width="130.1" height="130.1"/>
		<rect x="2059.9" y="1047.8" class="st1" width="130.1" height="130.1"/>
		<rect x="2198.6" y="1047.8" class="st4" width="130.1" height="130.1"/>
		<rect x="117.6" y="1186.5" class="st5" width="130.1" height="130.1"/>
		<rect x="256.3" y="1186.5" class="st0" width="130.1" height="130.1"/>
		<rect x="395" y="1186.5" class="st0" width="130.1" height="130.1"/>
		<rect x="533.8" y="1186.5" class="st0" width="130.1" height="130.1"/>
		<rect x="672.5" y="1186.5" class="st5" width="130.1" height="130.1"/>
		<rect x="811.3" y="1186.5" class="st6" width="130.1" height="130.1"/>
		<rect x="950" y="1186.5" class="st2" width="130.1" height="130.1"/>
		<rect x="1088.7" y="1186.5" class="st2" width="130.1" height="130.1"/>
		<rect x="1227.5" y="1186.5" class="st6" width="130.1" height="130.1"/>
		<rect x="1366.2" y="1186.5" class="st2" width="130.1" height="130.1"/>
		<rect x="1504.9" y="1186.5" class="st1" width="130.1" height="130.1"/>
		<rect x="1643.7" y="1186.5" class="st1" width="130.1" height="130.1"/>
		<rect x="1782.4" y="1186.5" class="st4" width="130.1" height="130.1"/>
		<rect x="1921.1" y="1186.5" class="st4" width="130.1" height="130.1"/>
		<rect x="2059.9" y="1186.5" class="st3" width="130.1" height="130.1"/>
		<rect x="2198.6" y="1186.5" class="st2" width="130.1" height="130.1"/>
		<rect x="117.6" y="1325.2" class="st4" width="130.1" height="130.1"/>
		<rect x="256.3" y="1325.2" class="st6" width="130.1" height="130.1"/>
		<rect x="395" y="1325.2" class="st4" width="130.1" height="130.1"/>
		<rect x="533.8" y="1325.2" class="st1" width="130.1" height="130.1"/>
		<rect x="672.5" y="1325.2" class="st6" width="130.1" height="130.1"/>
		<rect x="811.3" y="1325.2" class="st4" width="130.1" height="130.1"/>
		<rect x="950" y="1325.2" class="st6" width="130.1" height="130.1"/>
		<rect x="1088.7" y="1325.2" class="st2" width="130.1" height="130.1"/>
		<rect x="1227.5" y="1325.2" class="st2" width="130.1" height="130.1"/>
		<rect x="1366.2" y="1325.2" class="st4" width="130.1" height="130.1"/>
		<rect x="1504.9" y="1325.2" class="st1" width="130.1" height="130.1"/>
		<rect x="1643.7" y="1325.2" class="st0" width="130.1" height="130.1"/>
		<rect x="1782.4" y="1325.2" class="st1" width="130.1" height="130.1"/>
		<rect x="1921.1" y="1325.2" class="st4" width="130.1" height="130.1"/>
		<rect x="2059.9" y="1325.2" class="st6" width="130.1" height="130.1"/>
		<rect x="2198.6" y="1325.2" class="st4" width="130.1" height="130.1"/>
		<rect x="117.6" y="1464" class="st3" width="130.1" height="130.1"/>
		<rect x="256.3" y="1464" class="st2" width="130.1" height="130.1"/>
		<rect x="395" y="1464" class="st6" width="130.1" height="130.1"/>
		<rect x="533.8" y="1464" class="st0" width="130.1" height="130.1"/>
		<rect x="672.5" y="1464" class="st2" width="130.1" height="130.1"/>
		<rect x="811.3" y="1464" class="st1" width="130.1" height="130.1"/>
		<rect x="950" y="1464" class="st6" width="130.1" height="130.1"/>
		<rect x="1088.7" y="1464" class="st6" width="130.1" height="130.1"/>
		<rect x="1227.5" y="1464" class="st2" width="130.1" height="130.1"/>
		<rect x="1366.2" y="1464" class="st1" width="130.1" height="130.1"/>
		<rect x="1504.9" y="1464" class="st2" width="130.1" height="130.1"/>
		<rect x="1643.7" y="1464" class="st2" width="130.1" height="130.1"/>
		<rect x="1782.4" y="1464" class="st1" width="130.1" height="130.1"/>
		<rect x="1921.1" y="1464" class="st4" width="130.1" height="130.1"/>
		<rect x="2059.9" y="1464" class="st3" width="130.1" height="130.1"/>
		<rect x="2198.6" y="1464" class="st0" width="130.1" height="130.1"/>
		<rect x="117.6" y="1602.7" class="st5" width="130.1" height="130.1"/>
		<rect x="256.3" y="1602.7" class="st0" width="130.1" height="130.1"/>
		<rect x="395" y="1602.7" class="st4" width="130.1" height="130.1"/>
		<rect x="533.8" y="1602.7" class="st4" width="130.1" height="130.1"/>
		<rect x="672.5" y="1602.7" class="st4" width="130.1" height="130.1"/>
		<rect x="811.3" y="1602.7" class="st3" width="130.1" height="130.1"/>
		<rect x="950" y="1602.7" class="st5" width="130.1" height="130.1"/>
		<rect x="1088.7" y="1602.7" class="st3" width="130.1" height="130.1"/>
		<rect x="1227.5" y="1602.7" class="st1" width="130.1" height="130.1"/>
		<rect x="1366.2" y="1602.7" class="st1" width="130.1" height="130.1"/>
		<rect x="1504.9" y="1602.7" class="st5" width="130.1" height="130.1"/>
		<rect x="1643.7" y="1602.7" class="st2" width="130.1" height="130.1"/>
		<rect x="1782.4" y="1602.7" class="st2" width="130.1" height="130.1"/>
		<rect x="1921.1" y="1602.7" class="st1" width="130.1" height="130.1"/>
		<rect x="2059.9" y="1602.7" class="st1" width="130.1" height="130.1"/>
		<rect x="2198.6" y="1602.7" class="st1" width="130.1" height="130.1"/>
		<rect x="117.6" y="1741.4" class="st3" width="130.1" height="130.1"/>
		<rect x="256.3" y="1741.4" class="st0" width="130.1" height="130.1"/>
		<rect x="395" y="1741.4" class="st0" width="130.1" height="130.1"/>
		<rect x="533.8" y="1741.4" class="st0" width="130.1" height="130.1"/>
		<rect x="672.5" y="1741.4" class="st1" width="130.1" height="130.1"/>
		<rect x="811.3" y="1741.4" class="st3" width="130.1" height="130.1"/>
		<rect x="950" y="1741.4" class="st5" width="130.1" height="130.1"/>
		<rect x="1088.7" y="1741.4" class="st3" width="130.1" height="130.1"/>
		<rect x="1227.5" y="1741.4" class="st2" width="130.1" height="130.1"/>
		<rect x="1366.2" y="1741.4" class="st3" width="130.1" height="130.1"/>
		<rect x="1504.9" y="1741.4" class="st3" width="130.1" height="130.1"/>
		<rect x="1643.7" y="1741.4" class="st5" width="130.1" height="130.1"/>
		<rect x="1782.4" y="1741.4" class="st7" width="130.1" height="130.1"/>
		<rect x="1921.1" y="1741.4" class="st3" width="130.1" height="130.1"/>
		<rect x="2059.9" y="1741.4" class="st2" width="130.1" height="130.1"/>
		<rect x="2198.6" y="1741.4" class="st4" width="130.1" height="130.1"/>
		<rect x="117.6" y="1880.2" class="st3" width="130.1" height="130.1"/>
		<rect x="256.3" y="1880.2" class="st2" width="130.1" height="130.1"/>
		<rect x="395" y="1880.2" class="st5" width="130.1" height="130.1"/>
		<rect x="533.8" y="1880.2" class="st0" width="130.1" height="130.1"/>
		<rect x="672.5" y="1880.2" class="st5" width="130.1" height="130.1"/>
		<rect x="811.3" y="1880.2" class="st0" width="130.1" height="130.1"/>
		<rect x="950" y="1880.2" class="st0" width="130.1" height="130.1"/>
		<rect x="1088.7" y="1880.2" class="st7" width="130.1" height="130.1"/>
		<rect x="1227.5" y="1880.2" class="st2" width="130.1" height="130.1"/>
		<rect x="1366.2" y="1880.2" class="st5" width="130.1" height="130.1"/>
		<rect x="1504.9" y="1880.2" class="st6" width="130.1" height="130.1"/>
		<rect x="1643.7" y="1880.2" class="st0" width="130.1" height="130.1"/>
		<rect x="1782.4" y="1880.2" class="st4" width="130.1" height="130.1"/>
		<rect x="1921.1" y="1880.2" class="st3" width="130.1" height="130.1"/>
		<rect x="2059.9" y="1880.2" class="st2" width="130.1" height="130.1"/>
		<rect x="2198.6" y="1880.2" class="st1" width="130.1" height="130.1"/>
		<rect x="117.6" y="2018.9" class="st3" width="130.1" height="130.1"/>
		<rect x="256.3" y="2018.9" class="st4" width="130.1" height="130.1"/>
		<rect x="395" y="2018.9" class="st0" width="130.1" height="130.1"/>
		<rect x="533.8" y="2018.9" class="st2" width="130.1" height="130.1"/>
		<rect x="672.5" y="2018.9" class="st4" width="130.1" height="130.1"/>
		<rect x="811.3" y="2018.9" class="st3" width="130.1" height="130.1"/>
		<rect x="950" y="2018.9" class="st2" width="130.1" height="130.1"/>
		<rect x="1139.1" y="2064.4" class="st8" width="79.7" height="39.1"/>
		<text transform="matrix(1 0 0 1 1139.0697 2096.2822)" class="st9 st10">199</text>
		<rect x="42.7" y="402" class="st8" width="37.5" height="34.2"/>
		<text transform="matrix(1 0 0 1 42.6606 433.8937)" class="st9 st10">1</text>
	</g>
	<rect x="507.6" y="2677.6" class="st8" width="32.5" height="39.1"/>
	<g>
		
			<linearGradient id="SVGID_1_" gradientUnits="userSpaceOnUse" x1="3708.2021" y1="61.3514" x2="3708.2021" y2="65.4264" gradientTransform="matrix(4.898587e-16 8 -100 6.123234e-15 6660.2363 -27393.8672)">
			<stop  offset="2.000000e-02" style="stop-color:#3853A4"/>
			<stop  offset="0.5137" style="stop-color:#A8B4D7"/>
			<stop  offset="0.8977" style="stop-color:#FFFFFF"/>
			<stop  offset="0.98" style="stop-color:#FFFFFF"/>
		</linearGradient>
		<rect x="117.6" y="2207.3" class="st11" width="407.5" height="128.9"/>
	</g>
</g>
<g id="Isolation_Mode">
	<text transform="matrix(1 0 0 1 507.6001 2397.3438)" class="st9 st10">7</text>
	<text transform="matrix(1 0 0 1 102.9266 2397.344)" class="st9 st10">0</text>
	<text transform="matrix(1 0 0 1 1139.0697 2096.2822)" class="st9 st10">199</text>
</g>
</svg>
