<svg xmlns="http://www.w3.org/2000/svg" style="width:100%;height:100%;overflow:hidden">
  <defs>
    <clipPath clip-rule="evenodd" id="a">
      <path d="M38.5 44.5h357v170h-357Z" stroke="#000" fill="none"/>
    </clipPath>
  </defs>
  <path d="M0 0h400v220H0Z" fill="#FFF"/>
  <path d="M38 44h357v170H38Z" fill="none"/>
  <g/>
  <g/>
  <g/>
  <g clip-path="url(#a)">
    <path d="M43.5 45.5h13.8c1.047 0 2.088.431 2.828 1.172A4.05 4.05 0 0 1 61.3 49.5v14.286a4.05 4.05 0 0 1-1.172 2.828 4.05 4.05 0 0 1-2.828 1.172H43.5a4.05 4.05 0 0 1-2.828-1.172 4.05 4.05 0 0 1-1.172-2.828V49.5c0-1.047.431-2.088 1.172-2.828A4.05 4.05 0 0 1 43.5 45.5" fill="#f1fbf4" class="k-chart-point" aria-label="0" aria-roledescription="Point"/>
    <path d="M43.5 69.786h13.8c1.047 0 2.088.431 2.828 1.171a4.05 4.05 0 0 1 1.172 2.829v14.285a4.05 4.05 0 0 1-1.172 2.829 4.05 4.05 0 0 1-2.828 1.171H43.5a4.05 4.05 0 0 1-2.828-1.171 4.05 4.05 0 0 1-1.172-2.829V73.786a4.05 4.05 0 0 1 1.172-2.829 4.05 4.05 0 0 1 2.828-1.171" fill="#a0e3b5" class="k-chart-point" aria-label="4" aria-roledescription="Point"/>
    <path d="M43.5 94.071h13.8a4.05 4.05 0 0 1 2.828 1.172 4.05 4.05 0 0 1 1.172 2.828v14.286a4.05 4.05 0 0 1-1.172 2.829 4.05 4.05 0 0 1-2.828 1.171H43.5a4.05 4.05 0 0 1-2.828-1.171 4.05 4.05 0 0 1-1.172-2.829V98.071c0-1.047.431-2.088 1.172-2.828a4.05 4.05 0 0 1 2.828-1.172" fill="#64d086" class="k-chart-point" aria-label="7" aria-roledescription="Point"/>
    <path d="M43.5 118.357h13.8c1.047 0 2.088.431 2.828 1.172a4.05 4.05 0 0 1 1.172 2.828v14.286a4.05 4.05 0 0 1-1.172 2.828 4.05 4.05 0 0 1-2.828 1.172H43.5a4.05 4.05 0 0 1-2.828-1.172 4.05 4.05 0 0 1-1.172-2.828v-14.286c0-1.047.431-2.088 1.172-2.828a4.05 4.05 0 0 1 2.828-1.172" fill="#1d6032" class="k-chart-point" aria-label="14" aria-roledescription="Point"/>
    <path d="M43.5 142.643h13.8c1.047 0 2.088.431 2.828 1.171a4.05 4.05 0 0 1 1.172 2.829v14.286a4.05 4.05 0 0 1-1.172 2.828 4.05 4.05 0 0 1-2.828 1.172H43.5a4.05 4.05 0 0 1-2.828-1.172 4.05 4.05 0 0 1-1.172-2.828v-14.286a4.05 4.05 0 0 1 1.172-2.829 4.05 4.05 0 0 1 2.828-1.171" fill="#35b15b" class="k-chart-point" aria-label="10" aria-roledescription="Point"/>
    <path d="M43.5 166.929h13.8c1.047 0 2.088.431 2.828 1.171a4.05 4.05 0 0 1 1.172 2.829v14.285a4.05 4.05 0 0 1-1.172 2.829 4.05 4.05 0 0 1-2.828 1.171H43.5a4.05 4.05 0 0 1-2.828-1.171 4.05 4.05 0 0 1-1.172-2.829v-14.285c0-1.048.431-2.088 1.172-2.829a4.05 4.05 0 0 1 2.828-1.171" fill="#50ca76" class="k-chart-point" aria-label="8" aria-roledescription="Point"/>
    <path d="M43.5 191.214h13.8c1.047 0 2.088.431 2.828 1.172a4.05 4.05 0 0 1 1.172 2.828V209.5a4.05 4.05 0 0 1-1.172 2.828A4.05 4.05 0 0 1 57.3 213.5H43.5a4.05 4.05 0 0 1-2.828-1.172A4.05 4.05 0 0 1 39.5 209.5v-14.286c0-1.047.431-2.088 1.172-2.828a4.05 4.05 0 0 1 2.828-1.172M67.3 45.5h13.8c1.047 0 2.088.431 2.828 1.172A4.05 4.05 0 0 1 85.1 49.5v14.286a4.05 4.05 0 0 1-1.172 2.828 4.05 4.05 0 0 1-2.828 1.172H67.3a4.05 4.05 0 0 1-2.828-1.172 4.05 4.05 0 0 1-1.172-2.828V49.5c0-1.047.431-2.088 1.172-2.828A4.05 4.05 0 0 1 67.3 45.5" fill="#f1fbf4" class="k-chart-point" aria-label="0" aria-roledescription="Point"/>
    <path d="M67.3 69.786h13.8c1.047 0 2.088.431 2.828 1.171a4.05 4.05 0 0 1 1.172 2.829v14.285a4.05 4.05 0 0 1-1.172 2.829 4.05 4.05 0 0 1-2.828 1.171H67.3a4.05 4.05 0 0 1-2.828-1.171 4.05 4.05 0 0 1-1.172-2.829V73.786a4.05 4.05 0 0 1 1.172-2.829 4.05 4.05 0 0 1 2.828-1.171" fill="#78d695" class="k-chart-point" aria-label="6" aria-roledescription="Point"/>
    <path d="M67.3 94.071h13.8a4.05 4.05 0 0 1 2.828 1.172 4.05 4.05 0 0 1 1.172 2.828v14.286a4.05 4.05 0 0 1-1.172 2.829 4.05 4.05 0 0 1-2.828 1.171H67.3a4.05 4.05 0 0 1-2.828-1.171 4.05 4.05 0 0 1-1.172-2.829V98.071c0-1.047.431-2.088 1.172-2.828a4.05 4.05 0 0 1 2.828-1.172" fill="#3bc466" class="k-chart-point" aria-label="9" aria-roledescription="Point"/>
    <path d="M67.3 118.357h13.8c1.047 0 2.088.431 2.828 1.172a4.05 4.05 0 0 1 1.172 2.828v14.286a4.05 4.05 0 0 1-1.172 2.828 4.05 4.05 0 0 1-2.828 1.172H67.3a4.05 4.05 0 0 1-2.828-1.172 4.05 4.05 0 0 1-1.172-2.828v-14.286c0-1.047.431-2.088 1.172-2.828a4.05 4.05 0 0 1 2.828-1.172m0 24.286h13.8c1.047 0 2.088.431 2.828 1.171a4.05 4.05 0 0 1 1.172 2.829v14.286a4.05 4.05 0 0 1-1.172 2.828 4.05 4.05 0 0 1-2.828 1.172H67.3a4.05 4.05 0 0 1-2.828-1.172 4.05 4.05 0 0 1-1.172-2.828v-14.286a4.05 4.05 0 0 1 1.172-2.829 4.05 4.05 0 0 1 2.828-1.171" fill="#298847" class="k-chart-point" aria-label="12" aria-roledescription="Point"/>
    <path d="M67.3 166.929h13.8c1.047 0 2.088.431 2.828 1.171a4.05 4.05 0 0 1 1.172 2.829v14.285a4.05 4.05 0 0 1-1.172 2.829 4.05 4.05 0 0 1-2.828 1.171H67.3a4.05 4.05 0 0 1-2.828-1.171 4.05 4.05 0 0 1-1.172-2.829v-14.285c0-1.048.431-2.088 1.172-2.829a4.05 4.05 0 0 1 2.828-1.171" fill="#78d695" class="k-chart-point" aria-label="6" aria-roledescription="Point"/>
    <path d="M67.3 191.214h13.8c1.047 0 2.088.431 2.828 1.172a4.05 4.05 0 0 1 1.172 2.828V209.5a4.05 4.05 0 0 1-1.172 2.828A4.05 4.05 0 0 1 81.1 213.5H67.3a4.05 4.05 0 0 1-2.828-1.172A4.05 4.05 0 0 1 63.3 209.5v-14.286c0-1.047.431-2.088 1.172-2.828a4.05 4.05 0 0 1 2.828-1.172M91.1 45.5h13.8c1.047 0 2.088.431 2.828 1.172A4.05 4.05 0 0 1 108.9 49.5v14.286a4.05 4.05 0 0 1-1.172 2.828 4.05 4.05 0 0 1-2.828 1.172H91.1a4.05 4.05 0 0 1-2.828-1.172 4.05 4.05 0 0 1-1.172-2.828V49.5c0-1.047.431-2.088 1.172-2.828A4.05 4.05 0 0 1 91.1 45.5" fill="#f1fbf4" class="k-chart-point" aria-label="0" aria-roledescription="Point"/>
    <path d="M91.1 69.786h13.8c1.047 0 2.088.431 2.828 1.171a4.05 4.05 0 0 1 1.172 2.829v14.285a4.05 4.05 0 0 1-1.172 2.829 4.05 4.05 0 0 1-2.828 1.171H91.1a4.05 4.05 0 0 1-2.828-1.171 4.05 4.05 0 0 1-1.172-2.829V73.786a4.05 4.05 0 0 1 1.172-2.829 4.05 4.05 0 0 1 2.828-1.171" fill="#8cdda5" class="k-chart-point" aria-label="5" aria-roledescription="Point"/>
    <path d="M91.1 94.071h13.8a4.05 4.05 0 0 1 2.828 1.172 4.05 4.05 0 0 1 1.172 2.828v14.286a4.05 4.05 0 0 1-1.172 2.829 4.05 4.05 0 0 1-2.828 1.171H91.1a4.05 4.05 0 0 1-2.828-1.171 4.05 4.05 0 0 1-1.172-2.829V98.071c0-1.047.431-2.088 1.172-2.828a4.05 4.05 0 0 1 2.828-1.172" fill="#50ca76" class="k-chart-point" aria-label="8" aria-roledescription="Point"/>
    <path d="M91.1 118.357h13.8c1.047 0 2.088.431 2.828 1.172a4.05 4.05 0 0 1 1.172 2.828v14.286a4.05 4.05 0 0 1-1.172 2.828 4.05 4.05 0 0 1-2.828 1.172H91.1a4.05 4.05 0 0 1-2.828-1.172 4.05 4.05 0 0 1-1.172-2.828v-14.286c0-1.047.431-2.088 1.172-2.828a4.05 4.05 0 0 1 2.828-1.172" fill="#2f9c51" class="k-chart-point" aria-label="11" aria-roledescription="Point"/>
    <path d="M91.1 142.643h13.8c1.047 0 2.088.431 2.828 1.171a4.05 4.05 0 0 1 1.172 2.829v14.286a4.05 4.05 0 0 1-1.172 2.828 4.05 4.05 0 0 1-2.828 1.172H91.1a4.05 4.05 0 0 1-2.828-1.172 4.05 4.05 0 0 1-1.172-2.828v-14.286a4.05 4.05 0 0 1 1.172-2.829 4.05 4.05 0 0 1 2.828-1.171" fill="#f1fbf4" class="k-chart-point" aria-label="0" aria-roledescription="Point"/>
    <path d="M91.1 166.929h13.8c1.047 0 2.088.431 2.828 1.171a4.05 4.05 0 0 1 1.172 2.829v14.285a4.05 4.05 0 0 1-1.172 2.829 4.05 4.05 0 0 1-2.828 1.171H91.1a4.05 4.05 0 0 1-2.828-1.171 4.05 4.05 0 0 1-1.172-2.829v-14.285c0-1.048.431-2.088 1.172-2.829a4.05 4.05 0 0 1 2.828-1.171" fill="#8cdda5" class="k-chart-point" aria-label="5" aria-roledescription="Point"/>
    <path d="M91.1 191.214h13.8c1.047 0 2.088.431 2.828 1.172a4.05 4.05 0 0 1 1.172 2.828V209.5a4.05 4.05 0 0 1-1.172 2.828 4.05 4.05 0 0 1-2.828 1.172H91.1a4.05 4.05 0 0 1-2.828-1.172A4.05 4.05 0 0 1 87.1 209.5v-14.286c0-1.047.431-2.088 1.172-2.828a4.05 4.05 0 0 1 2.828-1.172M114.9 45.5h13.8c1.047 0 2.088.431 2.828 1.172A4.05 4.05 0 0 1 132.7 49.5v14.286a4.05 4.05 0 0 1-1.172 2.828 4.05 4.05 0 0 1-2.828 1.172h-13.8a4.05 4.05 0 0 1-2.828-1.172 4.05 4.05 0 0 1-1.172-2.828V49.5c0-1.047.431-2.088 1.172-2.828A4.05 4.05 0 0 1 114.9 45.5m0 24.286h13.8c1.047 0 2.088.431 2.828 1.171a4.05 4.05 0 0 1 1.172 2.829v14.285a4.05 4.05 0 0 1-1.172 2.829 4.05 4.05 0 0 1-2.828 1.171h-13.8a4.05 4.05 0 0 1-2.828-1.171 4.05 4.05 0 0 1-1.172-2.829V73.786a4.05 4.05 0 0 1 1.172-2.829 4.05 4.05 0 0 1 2.828-1.171m0 24.285h13.8a4.05 4.05 0 0 1 2.828 1.172 4.05 4.05 0 0 1 1.172 2.828v14.286a4.05 4.05 0 0 1-1.172 2.829 4.05 4.05 0 0 1-2.828 1.171h-13.8a4.05 4.05 0 0 1-2.828-1.171 4.05 4.05 0 0 1-1.172-2.829V98.071c0-1.047.431-2.088 1.172-2.828a4.05 4.05 0 0 1 2.828-1.172m0 24.286h13.8c1.047 0 2.088.431 2.828 1.172a4.05 4.05 0 0 1 1.172 2.828v14.286a4.05 4.05 0 0 1-1.172 2.828 4.05 4.05 0 0 1-2.828 1.172h-13.8a4.05 4.05 0 0 1-2.828-1.172 4.05 4.05 0 0 1-1.172-2.828v-14.286c0-1.047.431-2.088 1.172-2.828a4.05 4.05 0 0 1 2.828-1.172m0 24.286h13.8c1.047 0 2.088.431 2.828 1.171a4.05 4.05 0 0 1 1.172 2.829v14.286a4.05 4.05 0 0 1-1.172 2.828 4.05 4.05 0 0 1-2.828 1.172h-13.8a4.05 4.05 0 0 1-2.828-1.172 4.05 4.05 0 0 1-1.172-2.828v-14.286a4.05 4.05 0 0 1 1.172-2.829 4.05 4.05 0 0 1 2.828-1.171m0 24.286h13.8c1.047 0 2.088.431 2.828 1.171a4.05 4.05 0 0 1 1.172 2.829v14.285a4.05 4.05 0 0 1-1.172 2.829 4.05 4.05 0 0 1-2.828 1.171h-13.8a4.05 4.05 0 0 1-2.828-1.171 4.05 4.05 0 0 1-1.172-2.829v-14.285c0-1.048.431-2.088 1.172-2.829a4.05 4.05 0 0 1 2.828-1.171m0 24.285h13.8c1.047 0 2.088.431 2.828 1.172a4.05 4.05 0 0 1 1.172 2.828V209.5a4.05 4.05 0 0 1-1.172 2.828 4.05 4.05 0 0 1-2.828 1.172h-13.8a4.05 4.05 0 0 1-2.828-1.172 4.05 4.05 0 0 1-1.172-2.828v-14.286c0-1.047.431-2.088 1.172-2.828a4.05 4.05 0 0 1 2.828-1.172M138.7 45.5h13.8c1.047 0 2.088.431 2.828 1.172A4.05 4.05 0 0 1 156.5 49.5v14.286a4.05 4.05 0 0 1-1.172 2.828 4.05 4.05 0 0 1-2.828 1.172h-13.8a4.05 4.05 0 0 1-2.828-1.172 4.05 4.05 0 0 1-1.172-2.828V49.5c0-1.047.431-2.088 1.172-2.828A4.05 4.05 0 0 1 138.7 45.5m0 24.286h13.8c1.047 0 2.088.431 2.828 1.171a4.05 4.05 0 0 1 1.172 2.829v14.285a4.05 4.05 0 0 1-1.172 2.829 4.05 4.05 0 0 1-2.828 1.171h-13.8a4.05 4.05 0 0 1-2.828-1.171 4.05 4.05 0 0 1-1.172-2.829V73.786a4.05 4.05 0 0 1 1.172-2.829 4.05 4.05 0 0 1 2.828-1.171m0 24.285h13.8a4.05 4.05 0 0 1 2.828 1.172 4.05 4.05 0 0 1 1.172 2.828v14.286a4.05 4.05 0 0 1-1.172 2.829 4.05 4.05 0 0 1-2.828 1.171h-13.8a4.05 4.05 0 0 1-2.828-1.171 4.05 4.05 0 0 1-1.172-2.829V98.071c0-1.047.431-2.088 1.172-2.828a4.05 4.05 0 0 1 2.828-1.172m0 24.286h13.8c1.047 0 2.088.431 2.828 1.172a4.05 4.05 0 0 1 1.172 2.828v14.286a4.05 4.05 0 0 1-1.172 2.828 4.05 4.05 0 0 1-2.828 1.172h-13.8a4.05 4.05 0 0 1-2.828-1.172 4.05 4.05 0 0 1-1.172-2.828v-14.286c0-1.047.431-2.088 1.172-2.828a4.05 4.05 0 0 1 2.828-1.172m0 24.286h13.8c1.047 0 2.088.431 2.828 1.171a4.05 4.05 0 0 1 1.172 2.829v14.286a4.05 4.05 0 0 1-1.172 2.828 4.05 4.05 0 0 1-2.828 1.172h-13.8a4.05 4.05 0 0 1-2.828-1.172 4.05 4.05 0 0 1-1.172-2.828v-14.286a4.05 4.05 0 0 1 1.172-2.829 4.05 4.05 0 0 1 2.828-1.171m0 24.286h13.8c1.047 0 2.088.431 2.828 1.171a4.05 4.05 0 0 1 1.172 2.829v14.285a4.05 4.05 0 0 1-1.172 2.829 4.05 4.05 0 0 1-2.828 1.171h-13.8a4.05 4.05 0 0 1-2.828-1.171 4.05 4.05 0 0 1-1.172-2.829v-14.285c0-1.048.431-2.088 1.172-2.829a4.05 4.05 0 0 1 2.828-1.171m0 24.285h13.8c1.047 0 2.088.431 2.828 1.172a4.05 4.05 0 0 1 1.172 2.828V209.5a4.05 4.05 0 0 1-1.172 2.828 4.05 4.05 0 0 1-2.828 1.172h-13.8a4.05 4.05 0 0 1-2.828-1.172 4.05 4.05 0 0 1-1.172-2.828v-14.286c0-1.047.431-2.088 1.172-2.828a4.05 4.05 0 0 1 2.828-1.172M162.5 45.5h13.8c1.047 0 2.088.431 2.828 1.172A4.05 4.05 0 0 1 180.3 49.5v14.286a4.05 4.05 0 0 1-1.172 2.828 4.05 4.05 0 0 1-2.828 1.172h-13.8a4.05 4.05 0 0 1-2.828-1.172 4.05 4.05 0 0 1-1.172-2.828V49.5c0-1.047.431-2.088 1.172-2.828A4.05 4.05 0 0 1 162.5 45.5" fill="#f1fbf4" class="k-chart-point" aria-label="0" aria-roledescription="Point"/>
    <path d="M162.5 69.786h13.8c1.047 0 2.088.431 2.828 1.171a4.05 4.05 0 0 1 1.172 2.829v14.285a4.05 4.05 0 0 1-1.172 2.829 4.05 4.05 0 0 1-2.828 1.171h-13.8a4.05 4.05 0 0 1-2.828-1.171 4.05 4.05 0 0 1-1.172-2.829V73.786a4.05 4.05 0 0 1 1.172-2.829 4.05 4.05 0 0 1 2.828-1.171" fill="#a0e3b5" class="k-chart-point" aria-label="4" aria-roledescription="Point"/>
    <path d="M162.5 94.071h13.8a4.05 4.05 0 0 1 2.828 1.172 4.05 4.05 0 0 1 1.172 2.828v14.286a4.05 4.05 0 0 1-1.172 2.829 4.05 4.05 0 0 1-2.828 1.171h-13.8a4.05 4.05 0 0 1-2.828-1.171 4.05 4.05 0 0 1-1.172-2.829V98.071c0-1.047.431-2.088 1.172-2.828a4.05 4.05 0 0 1 2.828-1.172" fill="#64d086" class="k-chart-point" aria-label="7" aria-roledescription="Point"/>
    <path d="M162.5 118.357h13.8c1.047 0 2.088.431 2.828 1.172a4.05 4.05 0 0 1 1.172 2.828v14.286a4.05 4.05 0 0 1-1.172 2.828 4.05 4.05 0 0 1-2.828 1.172h-13.8a4.05 4.05 0 0 1-2.828-1.172 4.05 4.05 0 0 1-1.172-2.828v-14.286c0-1.047.431-2.088 1.172-2.828a4.05 4.05 0 0 1 2.828-1.172" fill="#1d6032" class="k-chart-point" aria-label="14" aria-roledescription="Point"/>
    <path d="M162.5 142.643h13.8c1.047 0 2.088.431 2.828 1.171a4.05 4.05 0 0 1 1.172 2.829v14.286a4.05 4.05 0 0 1-1.172 2.828 4.05 4.05 0 0 1-2.828 1.172h-13.8a4.05 4.05 0 0 1-2.828-1.172 4.05 4.05 0 0 1-1.172-2.828v-14.286a4.05 4.05 0 0 1 1.172-2.829 4.05 4.05 0 0 1 2.828-1.171" fill="#35b15b" class="k-chart-point" aria-label="10" aria-roledescription="Point"/>
    <path d="M162.5 166.929h13.8c1.047 0 2.088.431 2.828 1.171a4.05 4.05 0 0 1 1.172 2.829v14.285a4.05 4.05 0 0 1-1.172 2.829 4.05 4.05 0 0 1-2.828 1.171h-13.8a4.05 4.05 0 0 1-2.828-1.171 4.05 4.05 0 0 1-1.172-2.829v-14.285c0-1.048.431-2.088 1.172-2.829a4.05 4.05 0 0 1 2.828-1.171" fill="#50ca76" class="k-chart-point" aria-label="8" aria-roledescription="Point"/>
    <path d="M162.5 191.214h13.8c1.047 0 2.088.431 2.828 1.172a4.05 4.05 0 0 1 1.172 2.828V209.5a4.05 4.05 0 0 1-1.172 2.828 4.05 4.05 0 0 1-2.828 1.172h-13.8a4.05 4.05 0 0 1-2.828-1.172 4.05 4.05 0 0 1-1.172-2.828v-14.286c0-1.047.431-2.088 1.172-2.828a4.05 4.05 0 0 1 2.828-1.172M186.3 45.5h13.8c1.047 0 2.088.431 2.828 1.172A4.05 4.05 0 0 1 204.1 49.5v14.286a4.05 4.05 0 0 1-1.172 2.828 4.05 4.05 0 0 1-2.828 1.172h-13.8a4.05 4.05 0 0 1-2.828-1.172 4.05 4.05 0 0 1-1.172-2.828V49.5c0-1.047.431-2.088 1.172-2.828A4.05 4.05 0 0 1 186.3 45.5" fill="#f1fbf4" class="k-chart-point" aria-label="0" aria-roledescription="Point"/>
    <path d="M186.3 69.786h13.8c1.047 0 2.088.431 2.828 1.171a4.05 4.05 0 0 1 1.172 2.829v14.285a4.05 4.05 0 0 1-1.172 2.829 4.05 4.05 0 0 1-2.828 1.171h-13.8a4.05 4.05 0 0 1-2.828-1.171 4.05 4.05 0 0 1-1.172-2.829V73.786a4.05 4.05 0 0 1 1.172-2.829 4.05 4.05 0 0 1 2.828-1.171" fill="#78d695" class="k-chart-point" aria-label="6" aria-roledescription="Point"/>
    <path d="M186.3 94.071h13.8a4.05 4.05 0 0 1 2.828 1.172 4.05 4.05 0 0 1 1.172 2.828v14.286a4.05 4.05 0 0 1-1.172 2.829 4.05 4.05 0 0 1-2.828 1.171h-13.8a4.05 4.05 0 0 1-2.828-1.171 4.05 4.05 0 0 1-1.172-2.829V98.071c0-1.047.431-2.088 1.172-2.828a4.05 4.05 0 0 1 2.828-1.172" fill="#3bc466" class="k-chart-point" aria-label="9" aria-roledescription="Point"/>
    <path d="M186.3 118.357h13.8c1.047 0 2.088.431 2.828 1.172a4.05 4.05 0 0 1 1.172 2.828v14.286a4.05 4.05 0 0 1-1.172 2.828 4.05 4.05 0 0 1-2.828 1.172h-13.8a4.05 4.05 0 0 1-2.828-1.172 4.05 4.05 0 0 1-1.172-2.828v-14.286c0-1.047.431-2.088 1.172-2.828a4.05 4.05 0 0 1 2.828-1.172" fill="#c9efd4" class="k-chart-point" aria-label="2" aria-roledescription="Point"/>
    <path d="M186.3 142.643h13.8c1.047 0 2.088.431 2.828 1.171a4.05 4.05 0 0 1 1.172 2.829v14.286a4.05 4.05 0 0 1-1.172 2.828 4.05 4.05 0 0 1-2.828 1.172h-13.8a4.05 4.05 0 0 1-2.828-1.172 4.05 4.05 0 0 1-1.172-2.828v-14.286a4.05 4.05 0 0 1 1.172-2.829 4.05 4.05 0 0 1 2.828-1.171" fill="#a0e3b5" class="k-chart-point" aria-label="4" aria-roledescription="Point"/>
    <path d="M186.3 166.929h13.8c1.047 0 2.088.431 2.828 1.171a4.05 4.05 0 0 1 1.172 2.829v14.285a4.05 4.05 0 0 1-1.172 2.829 4.05 4.05 0 0 1-2.828 1.171h-13.8a4.05 4.05 0 0 1-2.828-1.171 4.05 4.05 0 0 1-1.172-2.829v-14.285c0-1.048.431-2.088 1.172-2.829a4.05 4.05 0 0 1 2.828-1.171" fill="#78d695" class="k-chart-point" aria-label="6" aria-roledescription="Point"/>
    <path d="M186.3 191.214h13.8c1.047 0 2.088.431 2.828 1.172a4.05 4.05 0 0 1 1.172 2.828V209.5a4.05 4.05 0 0 1-1.172 2.828 4.05 4.05 0 0 1-2.828 1.172h-13.8a4.05 4.05 0 0 1-2.828-1.172 4.05 4.05 0 0 1-1.172-2.828v-14.286c0-1.047.431-2.088 1.172-2.828a4.05 4.05 0 0 1 2.828-1.172M210.1 45.5h13.8c1.047 0 2.088.431 2.828 1.172A4.05 4.05 0 0 1 227.9 49.5v14.286a4.05 4.05 0 0 1-1.172 2.828 4.05 4.05 0 0 1-2.828 1.172h-13.8a4.05 4.05 0 0 1-2.828-1.172 4.05 4.05 0 0 1-1.172-2.828V49.5c0-1.047.431-2.088 1.172-2.828A4.05 4.05 0 0 1 210.1 45.5" fill="#f1fbf4" class="k-chart-point" aria-label="0" aria-roledescription="Point"/>
    <path d="M210.1 69.786h13.8c1.047 0 2.088.431 2.828 1.171a4.05 4.05 0 0 1 1.172 2.829v14.285a4.05 4.05 0 0 1-1.172 2.829 4.05 4.05 0 0 1-2.828 1.171h-13.8a4.05 4.05 0 0 1-2.828-1.171 4.05 4.05 0 0 1-1.172-2.829V73.786a4.05 4.05 0 0 1 1.172-2.829 4.05 4.05 0 0 1 2.828-1.171" fill="#a0e3b5" class="k-chart-point" aria-label="4" aria-roledescription="Point"/>
    <path d="M210.1 94.071h13.8a4.05 4.05 0 0 1 2.828 1.172 4.05 4.05 0 0 1 1.172 2.828v14.286a4.05 4.05 0 0 1-1.172 2.829 4.05 4.05 0 0 1-2.828 1.171h-13.8a4.05 4.05 0 0 1-2.828-1.171 4.05 4.05 0 0 1-1.172-2.829V98.071c0-1.047.431-2.088 1.172-2.828a4.05 4.05 0 0 1 2.828-1.172" fill="#64d086" class="k-chart-point" aria-label="7" aria-roledescription="Point"/>
    <path d="M210.1 118.357h13.8c1.047 0 2.088.431 2.828 1.172a4.05 4.05 0 0 1 1.172 2.828v14.286a4.05 4.05 0 0 1-1.172 2.828 4.05 4.05 0 0 1-2.828 1.172h-13.8a4.05 4.05 0 0 1-2.828-1.172 4.05 4.05 0 0 1-1.172-2.828v-14.286c0-1.047.431-2.088 1.172-2.828a4.05 4.05 0 0 1 2.828-1.172" fill="#1d6032" class="k-chart-point" aria-label="14" aria-roledescription="Point"/>
    <path d="M210.1 142.643h13.8c1.047 0 2.088.431 2.828 1.171a4.05 4.05 0 0 1 1.172 2.829v14.286a4.05 4.05 0 0 1-1.172 2.828 4.05 4.05 0 0 1-2.828 1.172h-13.8a4.05 4.05 0 0 1-2.828-1.172 4.05 4.05 0 0 1-1.172-2.828v-14.286a4.05 4.05 0 0 1 1.172-2.829 4.05 4.05 0 0 1 2.828-1.171" fill="#35b15b" class="k-chart-point" aria-label="10" aria-roledescription="Point"/>
    <path d="M210.1 166.929h13.8c1.047 0 2.088.431 2.828 1.171a4.05 4.05 0 0 1 1.172 2.829v14.285a4.05 4.05 0 0 1-1.172 2.829 4.05 4.05 0 0 1-2.828 1.171h-13.8a4.05 4.05 0 0 1-2.828-1.171 4.05 4.05 0 0 1-1.172-2.829v-14.285c0-1.048.431-2.088 1.172-2.829a4.05 4.05 0 0 1 2.828-1.171" fill="#50ca76" class="k-chart-point" aria-label="8" aria-roledescription="Point"/>
    <path d="M210.1 191.214h13.8c1.047 0 2.088.431 2.828 1.172a4.05 4.05 0 0 1 1.172 2.828V209.5a4.05 4.05 0 0 1-1.172 2.828 4.05 4.05 0 0 1-2.828 1.172h-13.8a4.05 4.05 0 0 1-2.828-1.172 4.05 4.05 0 0 1-1.172-2.828v-14.286c0-1.047.431-2.088 1.172-2.828a4.05 4.05 0 0 1 2.828-1.172M233.9 45.5h13.8c1.047 0 2.088.431 2.828 1.172A4.05 4.05 0 0 1 251.7 49.5v14.286a4.05 4.05 0 0 1-1.172 2.828 4.05 4.05 0 0 1-2.828 1.172h-13.8a4.05 4.05 0 0 1-2.828-1.172 4.05 4.05 0 0 1-1.172-2.828V49.5c0-1.047.431-2.088 1.172-2.828A4.05 4.05 0 0 1 233.9 45.5" fill="#f1fbf4" class="k-chart-point" aria-label="0" aria-roledescription="Point"/>
    <path d="M233.9 69.786h13.8c1.047 0 2.088.431 2.828 1.171a4.05 4.05 0 0 1 1.172 2.829v14.285a4.05 4.05 0 0 1-1.172 2.829 4.05 4.05 0 0 1-2.828 1.171h-13.8a4.05 4.05 0 0 1-2.828-1.171 4.05 4.05 0 0 1-1.172-2.829V73.786a4.05 4.05 0 0 1 1.172-2.829 4.05 4.05 0 0 1 2.828-1.171" fill="#a0e3b5" class="k-chart-point" aria-label="4" aria-roledescription="Point"/>
    <path d="M233.9 94.071h13.8a4.05 4.05 0 0 1 2.828 1.172 4.05 4.05 0 0 1 1.172 2.828v14.286a4.05 4.05 0 0 1-1.172 2.829 4.05 4.05 0 0 1-2.828 1.171h-13.8a4.05 4.05 0 0 1-2.828-1.171 4.05 4.05 0 0 1-1.172-2.829V98.071c0-1.047.431-2.088 1.172-2.828a4.05 4.05 0 0 1 2.828-1.172" fill="#64d086" class="k-chart-point" aria-label="7" aria-roledescription="Point"/>
    <path d="M233.9 118.357h13.8c1.047 0 2.088.431 2.828 1.172a4.05 4.05 0 0 1 1.172 2.828v14.286a4.05 4.05 0 0 1-1.172 2.828 4.05 4.05 0 0 1-2.828 1.172h-13.8a4.05 4.05 0 0 1-2.828-1.172 4.05 4.05 0 0 1-1.172-2.828v-14.286c0-1.047.431-2.088 1.172-2.828a4.05 4.05 0 0 1 2.828-1.172" fill="#a0e3b5" class="k-chart-point" aria-label="4" aria-roledescription="Point"/>
    <path d="M233.9 142.643h13.8c1.047 0 2.088.431 2.828 1.171a4.05 4.05 0 0 1 1.172 2.829v14.286a4.05 4.05 0 0 1-1.172 2.828 4.05 4.05 0 0 1-2.828 1.172h-13.8a4.05 4.05 0 0 1-2.828-1.172 4.05 4.05 0 0 1-1.172-2.828v-14.286a4.05 4.05 0 0 1 1.172-2.829 4.05 4.05 0 0 1 2.828-1.171" fill="#ddf5e4" class="k-chart-point" aria-label="1" aria-roledescription="Point"/>
    <path d="M233.9 166.929h13.8c1.047 0 2.088.431 2.828 1.171a4.05 4.05 0 0 1 1.172 2.829v14.285a4.05 4.05 0 0 1-1.172 2.829 4.05 4.05 0 0 1-2.828 1.171h-13.8a4.05 4.05 0 0 1-2.828-1.171 4.05 4.05 0 0 1-1.172-2.829v-14.285c0-1.048.431-2.088 1.172-2.829a4.05 4.05 0 0 1 2.828-1.171" fill="#50ca76" class="k-chart-point" aria-label="8" aria-roledescription="Point"/>
    <path d="M233.9 191.214h13.8c1.047 0 2.088.431 2.828 1.172a4.05 4.05 0 0 1 1.172 2.828V209.5a4.05 4.05 0 0 1-1.172 2.828 4.05 4.05 0 0 1-2.828 1.172h-13.8a4.05 4.05 0 0 1-2.828-1.172 4.05 4.05 0 0 1-1.172-2.828v-14.286c0-1.047.431-2.088 1.172-2.828a4.05 4.05 0 0 1 2.828-1.172M257.7 45.5h13.8c1.047 0 2.088.431 2.828 1.172A4.05 4.05 0 0 1 275.5 49.5v14.286a4.05 4.05 0 0 1-1.172 2.828 4.05 4.05 0 0 1-2.828 1.172h-13.8a4 4 0 0 1-2-.536 4 4 0 0 1-1.464-1.464 4 4 0 0 1-.536-2V49.5c0-1.047.431-2.088 1.172-2.828A4.05 4.05 0 0 1 257.7 45.5" fill="#f1fbf4" class="k-chart-point" aria-label="0" aria-roledescription="Point"/>
    <path d="M257.7 69.786h13.8c1.047 0 2.088.431 2.828 1.171a4.05 4.05 0 0 1 1.172 2.829v14.285a4.05 4.05 0 0 1-1.172 2.829 4.05 4.05 0 0 1-2.828 1.171h-13.8a4 4 0 0 1-2-.535 4 4 0 0 1-1.464-1.465 4 4 0 0 1-.536-2V73.786a4.05 4.05 0 0 1 1.172-2.829 4.05 4.05 0 0 1 2.828-1.171" fill="#78d695" class="k-chart-point" aria-label="6" aria-roledescription="Point"/>
    <path d="M257.7 94.071h13.8a4.05 4.05 0 0 1 2.828 1.172 4.05 4.05 0 0 1 1.172 2.828v14.286a4.05 4.05 0 0 1-1.172 2.829 4.05 4.05 0 0 1-2.828 1.171h-13.8a4 4 0 0 1-2-.536 4 4 0 0 1-1.464-1.464 4 4 0 0 1-.536-2V98.071c0-1.047.431-2.088 1.172-2.828a4.05 4.05 0 0 1 2.828-1.172" fill="#3bc466" class="k-chart-point" aria-label="9" aria-roledescription="Point"/>
    <path d="M257.7 118.357h13.8c1.047 0 2.088.431 2.828 1.172a4.05 4.05 0 0 1 1.172 2.828v14.286a4.05 4.05 0 0 1-1.172 2.828 4.05 4.05 0 0 1-2.828 1.172h-13.8a4 4 0 0 1-2-.536 4 4 0 0 1-1.464-1.464 4 4 0 0 1-.536-2v-14.286c0-1.047.431-2.088 1.172-2.828a4.05 4.05 0 0 1 2.828-1.172m0 24.286h13.8c1.047 0 2.088.431 2.828 1.171a4.05 4.05 0 0 1 1.172 2.829v14.286a4.05 4.05 0 0 1-1.172 2.828 4.05 4.05 0 0 1-2.828 1.172h-13.8a4 4 0 0 1-2-.536 4 4 0 0 1-1.464-1.464 4 4 0 0 1-.536-2v-14.286a4.05 4.05 0 0 1 1.172-2.829 4.05 4.05 0 0 1 2.828-1.171" fill="#298847" class="k-chart-point" aria-label="12" aria-roledescription="Point"/>
    <path d="M257.7 166.929h13.8c1.047 0 2.088.431 2.828 1.171a4.05 4.05 0 0 1 1.172 2.829v14.285a4.05 4.05 0 0 1-1.172 2.829 4.05 4.05 0 0 1-2.828 1.171h-13.8a4 4 0 0 1-2-.536 4 4 0 0 1-1.464-1.464 4 4 0 0 1-.536-2v-14.285c0-1.048.431-2.088 1.172-2.829a4.05 4.05 0 0 1 2.828-1.171" fill="#78d695" class="k-chart-point" aria-label="6" aria-roledescription="Point"/>
    <path d="M257.7 191.214h13.8c1.047 0 2.088.431 2.828 1.172a4.05 4.05 0 0 1 1.172 2.828V209.5a4.05 4.05 0 0 1-1.172 2.828 4.05 4.05 0 0 1-2.828 1.172h-13.8a4 4 0 0 1-2-.536 4 4 0 0 1-1.464-1.464 4 4 0 0 1-.536-2v-14.286c0-1.047.431-2.088 1.172-2.828a4.05 4.05 0 0 1 2.828-1.172M281.5 45.5h13.8c1.047 0 2.088.431 2.828 1.172A4.05 4.05 0 0 1 299.3 49.5v14.286a4.05 4.05 0 0 1-1.172 2.828 4.05 4.05 0 0 1-2.828 1.172h-13.8a4.05 4.05 0 0 1-2.828-1.172 4.05 4.05 0 0 1-1.172-2.828V49.5c0-1.047.431-2.088 1.172-2.828A4.05 4.05 0 0 1 281.5 45.5" fill="#f1fbf4" class="k-chart-point" aria-label="0" aria-roledescription="Point"/>
    <path d="M281.5 69.786h13.8c1.047 0 2.088.431 2.828 1.171a4.05 4.05 0 0 1 1.172 2.829v14.285a4.05 4.05 0 0 1-1.172 2.829 4.05 4.05 0 0 1-2.828 1.171h-13.8a4.05 4.05 0 0 1-2.828-1.171 4.05 4.05 0 0 1-1.172-2.829V73.786a4.05 4.05 0 0 1 1.172-2.829 4.05 4.05 0 0 1 2.828-1.171" fill="#a0e3b5" class="k-chart-point" aria-label="4" aria-roledescription="Point"/>
    <path d="M281.5 94.071h13.8a4.05 4.05 0 0 1 2.828 1.172 4.05 4.05 0 0 1 1.172 2.828v14.286a4.05 4.05 0 0 1-1.172 2.829 4.05 4.05 0 0 1-2.828 1.171h-13.8a4.05 4.05 0 0 1-2.828-1.171 4.05 4.05 0 0 1-1.172-2.829V98.071c0-1.047.431-2.088 1.172-2.828a4.05 4.05 0 0 1 2.828-1.172" fill="#64d086" class="k-chart-point" aria-label="7" aria-roledescription="Point"/>
    <path d="M281.5 118.357h13.8c1.047 0 2.088.431 2.828 1.172a4.05 4.05 0 0 1 1.172 2.828v14.286a4.05 4.05 0 0 1-1.172 2.828 4.05 4.05 0 0 1-2.828 1.172h-13.8a4.05 4.05 0 0 1-2.828-1.172 4.05 4.05 0 0 1-1.172-2.828v-14.286c0-1.047.431-2.088 1.172-2.828a4.05 4.05 0 0 1 2.828-1.172m0 24.286h13.8c1.047 0 2.088.431 2.828 1.171a4.05 4.05 0 0 1 1.172 2.829v14.286a4.05 4.05 0 0 1-1.172 2.828 4.05 4.05 0 0 1-2.828 1.172h-13.8a4.05 4.05 0 0 1-2.828-1.172 4.05 4.05 0 0 1-1.172-2.828v-14.286a4.05 4.05 0 0 1 1.172-2.829 4.05 4.05 0 0 1 2.828-1.171" fill="#35b15b" class="k-chart-point" aria-label="10" aria-roledescription="Point"/>
    <path d="M281.5 166.929h13.8c1.047 0 2.088.431 2.828 1.171a4.05 4.05 0 0 1 1.172 2.829v14.285a4.05 4.05 0 0 1-1.172 2.829 4.05 4.05 0 0 1-2.828 1.171h-13.8a4.05 4.05 0 0 1-2.828-1.171 4.05 4.05 0 0 1-1.172-2.829v-14.285c0-1.048.431-2.088 1.172-2.829a4.05 4.05 0 0 1 2.828-1.171" fill="#50ca76" class="k-chart-point" aria-label="8" aria-roledescription="Point"/>
    <path d="M281.5 191.214h13.8c1.047 0 2.088.431 2.828 1.172a4.05 4.05 0 0 1 1.172 2.828V209.5a4.05 4.05 0 0 1-1.172 2.828 4.05 4.05 0 0 1-2.828 1.172h-13.8a4.05 4.05 0 0 1-2.828-1.172 4.05 4.05 0 0 1-1.172-2.828v-14.286c0-1.047.431-2.088 1.172-2.828a4.05 4.05 0 0 1 2.828-1.172M305.3 45.5h13.8c1.047 0 2.088.431 2.828 1.172A4.05 4.05 0 0 1 323.1 49.5v14.286a4.05 4.05 0 0 1-1.172 2.828 4.05 4.05 0 0 1-2.828 1.172h-13.8a4.05 4.05 0 0 1-2.828-1.172 4.05 4.05 0 0 1-1.172-2.828V49.5c0-1.047.431-2.088 1.172-2.828A4.05 4.05 0 0 1 305.3 45.5" fill="#f1fbf4" class="k-chart-point" aria-label="0" aria-roledescription="Point"/>
    <path d="M305.3 69.786h13.8c1.047 0 2.088.431 2.828 1.171a4.05 4.05 0 0 1 1.172 2.829v14.285a4.05 4.05 0 0 1-1.172 2.829 4.05 4.05 0 0 1-2.828 1.171h-13.8a4.05 4.05 0 0 1-2.828-1.171 4.05 4.05 0 0 1-1.172-2.829V73.786a4.05 4.05 0 0 1 1.172-2.829 4.05 4.05 0 0 1 2.828-1.171" fill="#a0e3b5" class="k-chart-point" aria-label="4" aria-roledescription="Point"/>
    <path d="M305.3 94.071h13.8a4.05 4.05 0 0 1 2.828 1.172 4.05 4.05 0 0 1 1.172 2.828v14.286a4.05 4.05 0 0 1-1.172 2.829 4.05 4.05 0 0 1-2.828 1.171h-13.8a4.05 4.05 0 0 1-2.828-1.171 4.05 4.05 0 0 1-1.172-2.829V98.071c0-1.047.431-2.088 1.172-2.828a4.05 4.05 0 0 1 2.828-1.172" fill="#64d086" class="k-chart-point" aria-label="7" aria-roledescription="Point"/>
    <path d="M305.3 118.357h13.8c1.047 0 2.088.431 2.828 1.172a4.05 4.05 0 0 1 1.172 2.828v14.286a4.05 4.05 0 0 1-1.172 2.828 4.05 4.05 0 0 1-2.828 1.172h-13.8a4.05 4.05 0 0 1-2.828-1.172 4.05 4.05 0 0 1-1.172-2.828v-14.286c0-1.047.431-2.088 1.172-2.828a4.05 4.05 0 0 1 2.828-1.172" fill="#50ca76" class="k-chart-point" aria-label="8" aria-roledescription="Point"/>
    <path d="M305.3 142.643h13.8c1.047 0 2.088.431 2.828 1.171a4.05 4.05 0 0 1 1.172 2.829v14.286a4.05 4.05 0 0 1-1.172 2.828 4.05 4.05 0 0 1-2.828 1.172h-13.8a4.05 4.05 0 0 1-2.828-1.172 4.05 4.05 0 0 1-1.172-2.828v-14.286a4.05 4.05 0 0 1 1.172-2.829 4.05 4.05 0 0 1 2.828-1.171" fill="#35b15b" class="k-chart-point" aria-label="10" aria-roledescription="Point"/>
    <path d="M305.3 166.929h13.8c1.047 0 2.088.431 2.828 1.171a4.05 4.05 0 0 1 1.172 2.829v14.285a4.05 4.05 0 0 1-1.172 2.829 4.05 4.05 0 0 1-2.828 1.171h-13.8a4.05 4.05 0 0 1-2.828-1.171 4.05 4.05 0 0 1-1.172-2.829v-14.285c0-1.048.431-2.088 1.172-2.829a4.05 4.05 0 0 1 2.828-1.171" fill="#a0e3b5" class="k-chart-point" aria-label="4" aria-roledescription="Point"/>
    <path d="M305.3 191.214h13.8c1.047 0 2.088.431 2.828 1.172a4.05 4.05 0 0 1 1.172 2.828V209.5a4.05 4.05 0 0 1-1.172 2.828 4.05 4.05 0 0 1-2.828 1.172h-13.8a4.05 4.05 0 0 1-2.828-1.172 4.05 4.05 0 0 1-1.172-2.828v-14.286c0-1.047.431-2.088 1.172-2.828a4.05 4.05 0 0 1 2.828-1.172M329.1 45.5h13.8c1.047 0 2.088.431 2.828 1.172A4.05 4.05 0 0 1 346.9 49.5v14.286a4.05 4.05 0 0 1-1.172 2.828 4.05 4.05 0 0 1-2.828 1.172h-13.8a4.05 4.05 0 0 1-2.828-1.172 4.05 4.05 0 0 1-1.172-2.828V49.5c0-1.047.431-2.088 1.172-2.828A4.05 4.05 0 0 1 329.1 45.5" fill="#f1fbf4" class="k-chart-point" aria-label="0" aria-roledescription="Point"/>
    <path d="M329.1 69.786h13.8c1.047 0 2.088.431 2.828 1.171a4.05 4.05 0 0 1 1.172 2.829v14.285a4.05 4.05 0 0 1-1.172 2.829 4.05 4.05 0 0 1-2.828 1.171h-13.8a4.05 4.05 0 0 1-2.828-1.171 4.05 4.05 0 0 1-1.172-2.829V73.786a4.05 4.05 0 0 1 1.172-2.829 4.05 4.05 0 0 1 2.828-1.171" fill="#a0e3b5" class="k-chart-point" aria-label="4" aria-roledescription="Point"/>
    <path d="M329.1 94.071h13.8a4.05 4.05 0 0 1 2.828 1.172 4.05 4.05 0 0 1 1.172 2.828v14.286a4.05 4.05 0 0 1-1.172 2.829 4.05 4.05 0 0 1-2.828 1.171h-13.8a4.05 4.05 0 0 1-2.828-1.171 4.05 4.05 0 0 1-1.172-2.829V98.071c0-1.047.431-2.088 1.172-2.828a4.05 4.05 0 0 1 2.828-1.172" fill="#64d086" class="k-chart-point" aria-label="7" aria-roledescription="Point"/>
    <path d="M329.1 118.357h13.8c1.047 0 2.088.431 2.828 1.172a4.05 4.05 0 0 1 1.172 2.828v14.286a4.05 4.05 0 0 1-1.172 2.828 4.05 4.05 0 0 1-2.828 1.172h-13.8a4.05 4.05 0 0 1-2.828-1.172 4.05 4.05 0 0 1-1.172-2.828v-14.286c0-1.047.431-2.088 1.172-2.828a4.05 4.05 0 0 1 2.828-1.172" fill="#2f9c51" class="k-chart-point" aria-label="11" aria-roledescription="Point"/>
    <path d="M329.1 142.643h13.8c1.047 0 2.088.431 2.828 1.171a4.05 4.05 0 0 1 1.172 2.829v14.286a4.05 4.05 0 0 1-1.172 2.828 4.05 4.05 0 0 1-2.828 1.172h-13.8a4.05 4.05 0 0 1-2.828-1.172 4.05 4.05 0 0 1-1.172-2.828v-14.286a4.05 4.05 0 0 1 1.172-2.829 4.05 4.05 0 0 1 2.828-1.171" fill="#f1fbf4" class="k-chart-point" aria-label="0" aria-roledescription="Point"/>
    <path d="M329.1 166.929h13.8c1.047 0 2.088.431 2.828 1.171a4.05 4.05 0 0 1 1.172 2.829v14.285a4.05 4.05 0 0 1-1.172 2.829 4.05 4.05 0 0 1-2.828 1.171h-13.8a4.05 4.05 0 0 1-2.828-1.171 4.05 4.05 0 0 1-1.172-2.829v-14.285c0-1.048.431-2.088 1.172-2.829a4.05 4.05 0 0 1 2.828-1.171" fill="#50ca76" class="k-chart-point" aria-label="8" aria-roledescription="Point"/>
    <path d="M329.1 191.214h13.8c1.047 0 2.088.431 2.828 1.172a4.05 4.05 0 0 1 1.172 2.828V209.5a4.05 4.05 0 0 1-1.172 2.828 4.05 4.05 0 0 1-2.828 1.172h-13.8a4.05 4.05 0 0 1-2.828-1.172 4.05 4.05 0 0 1-1.172-2.828v-14.286c0-1.047.431-2.088 1.172-2.828a4.05 4.05 0 0 1 2.828-1.172M352.9 45.5h13.8c1.047 0 2.088.431 2.828 1.172A4.05 4.05 0 0 1 370.7 49.5v14.286a4.05 4.05 0 0 1-1.172 2.828 4.05 4.05 0 0 1-2.828 1.172h-13.8a4.05 4.05 0 0 1-2.828-1.172 4.05 4.05 0 0 1-1.172-2.828V49.5c0-1.047.431-2.088 1.172-2.828A4.05 4.05 0 0 1 352.9 45.5" fill="#f1fbf4" class="k-chart-point" aria-label="0" aria-roledescription="Point"/>
    <path d="M352.9 69.786h13.8c1.047 0 2.088.431 2.828 1.171a4.05 4.05 0 0 1 1.172 2.829v14.285a4.05 4.05 0 0 1-1.172 2.829 4.05 4.05 0 0 1-2.828 1.171h-13.8a4.05 4.05 0 0 1-2.828-1.171 4.05 4.05 0 0 1-1.172-2.829V73.786a4.05 4.05 0 0 1 1.172-2.829 4.05 4.05 0 0 1 2.828-1.171" fill="#78d695" class="k-chart-point" aria-label="6" aria-roledescription="Point"/>
    <path d="M352.9 94.071h13.8a4.05 4.05 0 0 1 2.828 1.172 4.05 4.05 0 0 1 1.172 2.828v14.286a4.05 4.05 0 0 1-1.172 2.829 4.05 4.05 0 0 1-2.828 1.171h-13.8a4.05 4.05 0 0 1-2.828-1.171 4.05 4.05 0 0 1-1.172-2.829V98.071c0-1.047.431-2.088 1.172-2.828a4.05 4.05 0 0 1 2.828-1.172" fill="#3bc466" class="k-chart-point" aria-label="9" aria-roledescription="Point"/>
    <path d="M352.9 118.357h13.8c1.047 0 2.088.431 2.828 1.172a4.05 4.05 0 0 1 1.172 2.828v14.286a4.05 4.05 0 0 1-1.172 2.828 4.05 4.05 0 0 1-2.828 1.172h-13.8a4.05 4.05 0 0 1-2.828-1.172 4.05 4.05 0 0 1-1.172-2.828v-14.286c0-1.047.431-2.088 1.172-2.828a4.05 4.05 0 0 1 2.828-1.172" fill="#78d695" class="k-chart-point" aria-label="6" aria-roledescription="Point"/>
    <path d="M352.9 142.643h13.8c1.047 0 2.088.431 2.828 1.171a4.05 4.05 0 0 1 1.172 2.829v14.286a4.05 4.05 0 0 1-1.172 2.828 4.05 4.05 0 0 1-2.828 1.172h-13.8a4.05 4.05 0 0 1-2.828-1.172 4.05 4.05 0 0 1-1.172-2.828v-14.286a4.05 4.05 0 0 1 1.172-2.829 4.05 4.05 0 0 1 2.828-1.171" fill="#50ca76" class="k-chart-point" aria-label="8" aria-roledescription="Point"/>
    <path d="M352.9 166.929h13.8c1.047 0 2.088.431 2.828 1.171a4.05 4.05 0 0 1 1.172 2.829v14.285a4.05 4.05 0 0 1-1.172 2.829 4.05 4.05 0 0 1-2.828 1.171h-13.8a4.05 4.05 0 0 1-2.828-1.171 4.05 4.05 0 0 1-1.172-2.829v-14.285c0-1.048.431-2.088 1.172-2.829a4.05 4.05 0 0 1 2.828-1.171" fill="#78d695" class="k-chart-point" aria-label="6" aria-roledescription="Point"/>
    <path d="M352.9 191.214h13.8c1.047 0 2.088.431 2.828 1.172a4.05 4.05 0 0 1 1.172 2.828V209.5a4.05 4.05 0 0 1-1.172 2.828 4.05 4.05 0 0 1-2.828 1.172h-13.8a4.05 4.05 0 0 1-2.828-1.172 4.05 4.05 0 0 1-1.172-2.828v-14.286c0-1.047.431-2.088 1.172-2.828a4.05 4.05 0 0 1 2.828-1.172M376.7 45.5h13.8c1.047 0 2.088.431 2.828 1.172A4.05 4.05 0 0 1 394.5 49.5v14.286a4.05 4.05 0 0 1-1.172 2.828 4.05 4.05 0 0 1-2.828 1.172h-13.8a4.05 4.05 0 0 1-2.828-1.172 4.05 4.05 0 0 1-1.172-2.828V49.5c0-1.047.431-2.088 1.172-2.828A4.05 4.05 0 0 1 376.7 45.5" fill="#f1fbf4" class="k-chart-point" aria-label="0" aria-roledescription="Point"/>
    <path d="M376.7 69.786h13.8c1.047 0 2.088.431 2.828 1.171a4.05 4.05 0 0 1 1.172 2.829v14.285a4.05 4.05 0 0 1-1.172 2.829 4.05 4.05 0 0 1-2.828 1.171h-13.8a4.05 4.05 0 0 1-2.828-1.171 4.05 4.05 0 0 1-1.172-2.829V73.786a4.05 4.05 0 0 1 1.172-2.829 4.05 4.05 0 0 1 2.828-1.171" fill="#a0e3b5" class="k-chart-point" aria-label="4" aria-roledescription="Point"/>
    <path d="M376.7 94.071h13.8a4.05 4.05 0 0 1 2.828 1.172 4.05 4.05 0 0 1 1.172 2.828v14.286a4.05 4.05 0 0 1-1.172 2.829 4.05 4.05 0 0 1-2.828 1.171h-13.8a4.05 4.05 0 0 1-2.828-1.171 4.05 4.05 0 0 1-1.172-2.829V98.071c0-1.047.431-2.088 1.172-2.828a4.05 4.05 0 0 1 2.828-1.172m0 24.286h13.8c1.047 0 2.088.431 2.828 1.172a4.05 4.05 0 0 1 1.172 2.828v14.286a4.05 4.05 0 0 1-1.172 2.828 4.05 4.05 0 0 1-2.828 1.172h-13.8a4.05 4.05 0 0 1-2.828-1.172 4.05 4.05 0 0 1-1.172-2.828v-14.286c0-1.047.431-2.088 1.172-2.828a4.05 4.05 0 0 1 2.828-1.172" fill="#64d086" class="k-chart-point" aria-label="7" aria-roledescription="Point"/>
    <path d="M376.7 142.643h13.8c1.047 0 2.088.431 2.828 1.171a4.05 4.05 0 0 1 1.172 2.829v14.286a4.05 4.05 0 0 1-1.172 2.828 4.05 4.05 0 0 1-2.828 1.172h-13.8a4.05 4.05 0 0 1-2.828-1.172 4.05 4.05 0 0 1-1.172-2.828v-14.286a4.05 4.05 0 0 1 1.172-2.829 4.05 4.05 0 0 1 2.828-1.171" fill="#35b15b" class="k-chart-point" aria-label="10" aria-roledescription="Point"/>
    <path d="M376.7 166.929h13.8c1.047 0 2.088.431 2.828 1.171a4.05 4.05 0 0 1 1.172 2.829v14.285a4.05 4.05 0 0 1-1.172 2.829 4.05 4.05 0 0 1-2.828 1.171h-13.8a4.05 4.05 0 0 1-2.828-1.171 4.05 4.05 0 0 1-1.172-2.829v-14.285c0-1.048.431-2.088 1.172-2.829a4.05 4.05 0 0 1 2.828-1.171" fill="#50ca76" class="k-chart-point" aria-label="8" aria-roledescription="Point"/>
    <path d="M376.7 191.214h13.8c1.047 0 2.088.431 2.828 1.172a4.05 4.05 0 0 1 1.172 2.828V209.5a4.05 4.05 0 0 1-1.172 2.828 4.05 4.05 0 0 1-2.828 1.172h-13.8a4.05 4.05 0 0 1-2.828-1.172 4.05 4.05 0 0 1-1.172-2.828v-14.286c0-1.047.431-2.088 1.172-2.828a4.05 4.05 0 0 1 2.828-1.172" fill="#f1fbf4" class="k-chart-point" aria-label="0" aria-roledescription="Point"/>
  </g>
  <g/>
  <text x="6" y="84.428" fill="#424242" style="font:400 11.998px sans-serif;white-space:pre">Mon</text>
  <g/>
  <text x="5" y="133" fill="#424242" style="font:400 11.998px sans-serif;white-space:pre">Wed</text>
  <g/>
  <text x="15" y="181.572" fill="#424242" style="font:400 11.998px sans-serif;white-space:pre">Fri</text>
  <g/>
  <text x="141.5" y="30" fill="#424242" style="font:400 16.002px sans-serif;white-space:pre">Contributions per day</text>
  <g/>
</svg>
