<svg viewBox="0,0,1152,500" width="1112" height="600" xmlns="http://www.w3.org/2000/svg" xmlns:xlink="http://www.w3.org/1999/xlink"><g transform="translate(40, 0)"><g transform="translate(0,500)" fill="none" font-size="10" font-family="sans-serif" text-anchor="middle"><path class="domain" stroke="currentColor" d="M0.5,6V0.5H1152.5V6"/><g class="tick" opacity="1" transform="translate(57.6,0)"><line stroke="currentColor" y2="6"/><text fill="currentColor" y="9" dy="0.71em">A</text></g><g class="tick" opacity="1" transform="translate(172.8,0)"><line stroke="currentColor" y2="6"/><text fill="currentColor" y="9" dy="0.71em">B</text></g><g class="tick" opacity="1" transform="translate(288,0)"><line stroke="currentColor" y2="6"/><text fill="currentColor" y="9" dy="0.71em">C</text></g><g class="tick" opacity="1" transform="translate(403.20000000000005,0)"><line stroke="currentColor" y2="6"/><text fill="currentColor" y="9" dy="0.71em">D</text></g><g class="tick" opacity="1" transform="translate(518.4,0)"><line stroke="currentColor" y2="6"/><text fill="currentColor" y="9" dy="0.71em">E</text></g><g class="tick" opacity="1" transform="translate(633.6,0)"><line stroke="currentColor" y2="6"/><text fill="currentColor" y="9" dy="0.71em">F</text></g><g class="tick" opacity="1" transform="translate(748.8000000000001,0)"><line stroke="currentColor" y2="6"/><text fill="currentColor" y="9" dy="0.71em">G</text></g><g class="tick" opacity="1" transform="translate(864,0)"><line stroke="currentColor" y2="6"/><text fill="currentColor" y="9" dy="0.71em">H</text></g><g class="tick" opacity="1" transform="translate(979.2,0)"><line stroke="currentColor" y2="6"/><text fill="currentColor" y="9" dy="0.71em">I</text></g><g class="tick" opacity="1" transform="translate(1094.3999999999999,0)"><line stroke="currentColor" y2="6"/><text fill="currentColor" y="9" dy="0.71em">J</text></g></g><g fill="none" font-size="10" font-family="sans-serif" text-anchor="end"><path class="domain" stroke="currentColor" d="M-6,500.5H0.5V0.5H-6"/><g class="tick" opacity="1" transform="translate(0,475)"><line stroke="currentColor" x2="-6"/><text fill="currentColor" x="-9" dy="0.32em">0</text></g><g class="tick" opacity="1" transform="translate(0,425)"><line stroke="currentColor" x2="-6"/><text fill="currentColor" x="-9" dy="0.32em">1</text></g><g class="tick" opacity="1" transform="translate(0,375)"><line stroke="currentColor" x2="-6"/><text fill="currentColor" x="-9" dy="0.32em">2</text></g><g class="tick" opacity="1" transform="translate(0,325)"><line stroke="currentColor" x2="-6"/><text fill="currentColor" x="-9" dy="0.32em">3</text></g><g class="tick" opacity="1" transform="translate(0,275)"><line stroke="currentColor" x2="-6"/><text fill="currentColor" x="-9" dy="0.32em">4</text></g><g class="tick" opacity="1" transform="translate(0,225)"><line stroke="currentColor" x2="-6"/><text fill="currentColor" x="-9" dy="0.32em">5</text></g><g class="tick" opacity="1" transform="translate(0,175)"><line stroke="currentColor" x2="-6"/><text fill="currentColor" x="-9" dy="0.32em">6</text></g><g class="tick" opacity="1" transform="translate(0,125)"><line stroke="currentColor" x2="-6"/><text fill="currentColor" x="-9" dy="0.32em">7</text></g><g class="tick" opacity="1" transform="translate(0,75)"><line stroke="currentColor" x2="-6"/><text fill="currentColor" x="-9" dy="0.32em">8</text></g><g class="tick" opacity="1" transform="translate(0,25)"><line stroke="currentColor" x2="-6"/><text fill="currentColor" x="-9" dy="0.32em">9</text></g></g></g><rect x="40" y="450" width="115.2" height="50" fill="rgb(226, 191, 179)"/><rect x="155.2" y="450" width="115.2" height="50" fill="rgb(254, 254, 253)"/><rect x="270.4" y="450" width="115.2" height="50" fill="rgb(250, 244, 242)"/><rect x="385.6" y="450" width="115.2" height="50" fill="rgb(205, 144, 123)"/><rect x="500.8" y="450" width="115.2" height="50" fill="rgb(167, 59, 22)"/><rect x="616" y="450" width="115.2" height="50" fill="rgb(210, 155, 136)"/><rect x="731.2" y="450" width="115.2" height="50" fill="rgb(215, 166, 149)"/><rect x="846.4" y="450" width="115.2" height="50" fill="rgb(181, 89, 58)"/><rect x="961.6" y="450" width="115.2" height="50" fill="rgb(255, 255, 255)"/><rect x="1076.8" y="450" width="115.2" height="50" fill="rgb(190, 110, 83)"/><rect x="40" y="400" width="115.2" height="50" fill="rgb(168, 60, 23)"/><rect x="155.2" y="400" width="115.2" height="50" fill="rgb(172, 69, 34)"/><rect x="270.4" y="400" width="115.2" height="50" fill="rgb(234, 209, 200)"/><rect x="385.6" y="400" width="115.2" height="50" fill="rgb(211, 157, 139)"/><rect x="500.8" y="400" width="115.2" height="50" fill="rgb(175, 76, 42)"/><rect x="616" y="400" width="115.2" height="50" fill="rgb(229, 197, 185)"/><rect x="731.2" y="400" width="115.2" height="50" fill="rgb(172, 71, 36)"/><rect x="846.4" y="400" width="115.2" height="50" fill="rgb(210, 155, 135)"/><rect x="961.6" y="400" width="115.2" height="50" fill="rgb(209, 153, 134)"/><rect x="1076.8" y="400" width="115.2" height="50" fill="rgb(252, 248, 247)"/><rect x="40" y="350" width="115.2" height="50" fill="rgb(174, 75, 41)"/><rect x="155.2" y="350" width="115.2" height="50" fill="rgb(210, 155, 136)"/><rect x="270.4" y="350" width="115.2" height="50" fill="rgb(227, 192, 179)"/><rect x="385.6" y="350" width="115.2" height="50" fill="rgb(166, 56, 18)"/><rect x="500.8" y="350" width="115.2" height="50" fill="rgb(206, 146, 125)"/><rect x="616" y="350" width="115.2" height="50" fill="rgb(237, 214, 206)"/><rect x="731.2" y="350" width="115.2" height="50" fill="rgb(229, 197, 187)"/><rect x="846.4" y="350" width="115.2" height="50" fill="rgb(218, 173, 157)"/><rect x="961.6" y="350" width="115.2" height="50" fill="rgb(231, 203, 193)"/><rect x="1076.8" y="350" width="115.2" height="50" fill="rgb(201, 135, 112)"/><rect x="40" y="300" width="115.2" height="50" fill="rgb(170, 66, 30)"/><rect x="155.2" y="300" width="115.2" height="50" fill="rgb(171, 68, 33)"/><rect x="270.4" y="300" width="115.2" height="50" fill="rgb(174, 76, 41)"/><rect x="385.6" y="300" width="115.2" height="50" fill="rgb(216, 168, 152)"/><rect x="500.8" y="300" width="115.2" height="50" fill="rgb(243, 228, 222)"/><rect x="616" y="300" width="115.2" height="50" fill="rgb(240, 222, 216)"/><rect x="731.2" y="300" width="115.2" height="50" fill="rgb(196, 122, 97)"/><rect x="846.4" y="300" width="115.2" height="50" fill="rgb(196, 124, 99)"/><rect x="961.6" y="300" width="115.2" height="50" fill="rgb(235, 209, 201)"/><rect x="1076.8" y="300" width="115.2" height="50" fill="rgb(253, 251, 250)"/><rect x="40" y="250" width="115.2" height="50" fill="rgb(203, 139, 116)"/><rect x="155.2" y="250" width="115.2" height="50" fill="rgb(233, 206, 197)"/><rect x="270.4" y="250" width="115.2" height="50" fill="rgb(228, 195, 184)"/><rect x="385.6" y="250" width="115.2" height="50" fill="rgb(247, 236, 233)"/><rect x="500.8" y="250" width="115.2" height="50" fill="rgb(181, 89, 58)"/><rect x="616" y="250" width="115.2" height="50" fill="rgb(244, 230, 225)"/><rect x="731.2" y="250" width="115.2" height="50" fill="rgb(172, 71, 36)"/><rect x="846.4" y="250" width="115.2" height="50" fill="rgb(190, 110, 82)"/><rect x="961.6" y="250" width="115.2" height="50" fill="rgb(237, 216, 208)"/><rect x="1076.8" y="250" width="115.2" height="50" fill="rgb(184, 96, 66)"/><rect x="40" y="200" width="115.2" height="50" fill="rgb(201, 134, 111)"/><rect x="155.2" y="200" width="115.2" height="50" fill="rgb(197, 125, 101)"/><rect x="270.4" y="200" width="115.2" height="50" fill="rgb(228, 196, 185)"/><rect x="385.6" y="200" width="115.2" height="50" fill="rgb(176, 78, 44)"/><rect x="500.8" y="200" width="115.2" height="50" fill="rgb(174, 75, 41)"/><rect x="616" y="200" width="115.2" height="50" fill="rgb(191, 113, 86)"/><rect x="731.2" y="200" width="115.2" height="50" fill="rgb(165, 55, 17)"/><rect x="846.4" y="200" width="115.2" height="50" fill="rgb(205, 143, 122)"/><rect x="961.6" y="200" width="115.2" height="50" fill="rgb(167, 59, 21)"/><rect x="1076.8" y="200" width="115.2" height="50" fill="rgb(202, 136, 114)"/><rect x="40" y="150" width="115.2" height="50" fill="rgb(255, 254, 254)"/><rect x="155.2" y="150" width="115.2" height="50" fill="rgb(240, 223, 216)"/><rect x="270.4" y="150" width="115.2" height="50" fill="rgb(179, 85, 52)"/><rect x="385.6" y="150" width="115.2" height="50" fill="rgb(174, 73, 39)"/><rect x="500.8" y="150" width="115.2" height="50" fill="rgb(195, 121, 96)"/><rect x="616" y="150" width="115.2" height="50" fill="rgb(253, 250, 249)"/><rect x="731.2" y="150" width="115.2" height="50" fill="rgb(194, 119, 93)"/><rect x="846.4" y="150" width="115.2" height="50" fill="rgb(230, 198, 188)"/><rect x="961.6" y="150" width="115.2" height="50" fill="rgb(196, 122, 97)"/><rect x="1076.8" y="150" width="115.2" height="50" fill="rgb(207, 149, 128)"/><rect x="40" y="100" width="115.2" height="50" fill="rgb(245, 232, 228)"/><rect x="155.2" y="100" width="115.2" height="50" fill="rgb(218, 172, 156)"/><rect x="270.4" y="100" width="115.2" height="50" fill="rgb(201, 134, 111)"/><rect x="385.6" y="100" width="115.2" height="50" fill="rgb(217, 170, 154)"/><rect x="500.8" y="100" width="115.2" height="50" fill="rgb(225, 188, 175)"/><rect x="616" y="100" width="115.2" height="50" fill="rgb(223, 184, 171)"/><rect x="731.2" y="100" width="115.2" height="50" fill="rgb(227, 193, 181)"/><rect x="846.4" y="100" width="115.2" height="50" fill="rgb(234, 208, 199)"/><rect x="961.6" y="100" width="115.2" height="50" fill="rgb(249, 242, 240)"/><rect x="1076.8" y="100" width="115.2" height="50" fill="rgb(247, 236, 233)"/><rect x="40" y="50" width="115.2" height="50" fill="rgb(211, 156, 137)"/><rect x="155.2" y="50" width="115.2" height="50" fill="rgb(175, 77, 44)"/><rect x="270.4" y="50" width="115.2" height="50" fill="rgb(255, 255, 255)"/><rect x="385.6" y="50" width="115.2" height="50" fill="rgb(200, 132, 109)"/><rect x="500.8" y="50" width="115.2" height="50" fill="rgb(248, 239, 236)"/><rect x="616" y="50" width="115.2" height="50" fill="rgb(190, 111, 84)"/><rect x="731.2" y="50" width="115.2" height="50" fill="rgb(210, 155, 136)"/><rect x="846.4" y="50" width="115.2" height="50" fill="rgb(224, 185, 171)"/><rect x="961.6" y="50" width="115.2" height="50" fill="rgb(236, 213, 205)"/><rect x="1076.8" y="50" width="115.2" height="50" fill="rgb(215, 165, 148)"/><rect x="40" y="0" width="115.2" height="50" fill="rgb(249, 241, 238)"/><rect x="155.2" y="0" width="115.2" height="50" fill="rgb(214, 164, 147)"/><rect x="270.4" y="0" width="115.2" height="50" fill="rgb(207, 147, 127)"/><rect x="385.6" y="0" width="115.2" height="50" fill="rgb(194, 118, 92)"/><rect x="500.8" y="0" width="115.2" height="50" fill="rgb(164, 51, 12)"/><rect x="616" y="0" width="115.2" height="50" fill="rgb(245, 232, 228)"/><rect x="731.2" y="0" width="115.2" height="50" fill="rgb(253, 251, 250)"/><rect x="846.4" y="0" width="115.2" height="50" fill="rgb(243, 229, 224)"/><rect x="961.6" y="0" width="115.2" height="50" fill="rgb(235, 210, 201)"/><rect x="1076.8" y="0" width="115.2" height="50" fill="rgb(243, 229, 224)"/></svg>