<svg height="390" version="1.1" width="680" xmlns="http://www.w3.org/2000/svg" id="raphael-paper-179" style="overflow: hidden; -webkit-tap-highlight-color: rgba(0, 0, 0, 0); user-select: none; cursor: default; vertical-align: middle; position: relative; left: -0.666687px; top: -0.03125px; background-color: rgb(255, 255, 255);"><desc></desc><defs><clipPath id="rr-CAD101CA-5B79-41F0-8E2D-9E0171633686"><rect x="84" y="67.19999999999999" width="581" height="185.8" transform="matrix(1,0,0,1,0,0)"></rect></clipPath><clipPath id="rr-F035770A-B3D1-411B-B9C4-62CDC3B2BCB5"><rect x="84" y="67.19999999999999" width="581" height="185.8" transform="matrix(1,0,0,1,0,0)"></rect></clipPath><clipPath id="rr-4C968F93-D47D-473A-BD73-FC6E595B87BB"><rect x="82" y="65.19999999999999" width="585" height="189.8" transform="matrix(1,0,0,1,0,0)"></rect></clipPath><clipPath id="rr-17105ADA-C8A1-49CF-B69B-0EB4955F615D"><rect x="82" y="65.19999999999999" width="585" height="189.8" transform="matrix(1,0,0,1,0,0)"></rect></clipPath><clipPath id="rr-F1D8646D-95C9-4A1E-81E0-FD4DE6DD7D3D"><rect x="82" y="65.19999999999999" width="585" height="189.8" transform="matrix(1,0,0,1,0,0)"></rect></clipPath><clipPath id="rr-C49BA6E3-65BD-42F0-A2B6-890040D475D0"><rect x="84" y="0" width="581" height="253" transform="matrix(1,0,0,1,0,0)"></rect></clipPath><clipPath id="rr-1CD886F5-43CF-4F0F-81EE-37EC71A3E06E"><rect x="84" y="67.19999999999999" width="665" height="253" transform="matrix(1,0,0,1,0,0)"></rect></clipPath><clipPath id="rr-5AC746FA-C0B5-4482-8B12-C4CCCD380B3D"><rect x="84" y="67.19999999999999" width="665" height="253" transform="matrix(1,0,0,1,0,0)"></rect></clipPath></defs><g class="raphael-group-180-parentgroup"><g class="raphael-group-181-background"><rect x="0" y="0" width="680" height="390" stroke="none" fill-opacity="1" fill="#ffffff" ry="0" rx="0"></rect><rect x="0" y="0" width="680" height="390" stroke="#767575" stroke-opacity="0.5" stroke-width="0" stroke-dasharray="none" fill="none" ry="0" rx="0"></rect></g><g class="raphael-group-203-canvas"><rect x="84" y="67.19999999999999" width="581" height="185.8" ry="0" rx="0" stroke-width="0" stroke="none" fill-opacity="0" fill="#ffffff"></rect></g><g class="raphael-group-182-axisbottom"><g class="raphael-group-306-dataset-Name-group"><g class="raphael-group-315-dataset-axis-name"><text font-family="Source Sans Pro" font-size="15px" font-weight="normal" font-style="normal" transform="matrix(0,-1,1,0,-136.1,184.1)" fill-opacity="1" fill="#999999" x="24" stroke="none" text-anchor="middle" y="165" style="font-family: &quot;Source Sans Pro&quot;; font-size: 15px; font-weight: normal; font-style: normal; text-anchor: middle;">Amount (In USD)</text></g></g><g class="raphael-group-309-dataset-Label-group"><g class="raphael-group-311-dataset-axis" transform="matrix(1,0,0,1,0,0)" font-family="Source Sans Pro" font-size="14px" font-weight="normal" font-style="normal" style="font-family: &quot;Source Sans Pro&quot;; font-size: 14px; font-weight: normal; font-style: normal;"><text transform="matrix(1,0,0,1,0,0)" opacity="1" fill-opacity="1" fill="#5a5a5a" font-size="14px" text-anchor="end" x="69" stroke="none" y="257" style="font-size: 14px; text-anchor: end;">$16</text><text transform="matrix(1,0,0,1,0,0)" opacity="1" fill-opacity="1" fill="#5a5a5a" font-size="14px" text-anchor="end" x="69" stroke="none" y="220" style="font-size: 14px; text-anchor: end;">$18</text><text transform="matrix(1,0,0,1,0,0)" opacity="1" fill-opacity="1" fill="#5a5a5a" font-size="14px" text-anchor="end" x="69" stroke="none" y="183" style="font-size: 14px; text-anchor: end;">$20</text><text transform="matrix(1,0,0,1,0,0)" opacity="1" fill-opacity="1" fill="#5a5a5a" font-size="14px" text-anchor="end" x="69" stroke="none" y="146" style="font-size: 14px; text-anchor: end;">$22</text><text transform="matrix(1,0,0,1,0,0)" opacity="1" fill-opacity="1" fill="#5a5a5a" font-size="14px" text-anchor="end" x="69" stroke="none" y="109" style="font-size: 14px; text-anchor: end;">$24</text><text transform="matrix(1,0,0,1,0,0)" opacity="1" fill-opacity="1" fill="#5a5a5a" font-size="14px" text-anchor="end" x="69" stroke="none" y="71" style="font-size: 14px; text-anchor: end;">$26</text></g></g><g class="raphael-group-316-axis-line-tick-bottom"></g><g class="raphael-group-324-dataset-Name-group"><g class="raphael-group-333-dataset-axis-name"><text font-family="Source Sans Pro" font-size="15px" font-weight="normal" font-style="normal" transform="matrix(1,0,0,1,0,0)" fill-opacity="1" fill="#999999" x="374.5" stroke="none" text-anchor="middle" y="349" style="font-family: &quot;Source Sans Pro&quot;; font-size: 15px; font-weight: normal; font-style: normal; text-anchor: middle;">Day</text></g></g><g class="raphael-group-327-dataset-Label-group"><g class="raphael-group-329-dataset-axis" transform="matrix(1,0,0,1,0,0)" font-family="Source Sans Pro" font-size="14px" font-weight="normal" font-style="normal" style="font-family: &quot;Source Sans Pro&quot;; font-size: 14px; font-weight: normal; font-style: normal;"><text transform="matrix(0,-1,1,0,-161.9118,364.0882)" opacity="1" fill-opacity="1" fill="#5a5a5a" x="101.08823529411765" text-anchor="end" stroke="none" y="267" style="text-anchor: end;">Day 54</text><text transform="matrix(0,-1,1,0,-127.7353,398.2647)" opacity="1" fill-opacity="1" fill="#5a5a5a" x="135.26470588235296" text-anchor="end" stroke="none" y="267" style="text-anchor: end;">Day 46</text><text transform="matrix(0,-1,1,0,-93.5588,432.4412)" opacity="1" fill-opacity="1" fill="#5a5a5a" x="169.44117647058823" text-anchor="end" stroke="none" y="267" style="text-anchor: end;">Day 44</text><text transform="matrix(0,-1,1,0,-59.3824,466.6176)" opacity="1" fill-opacity="1" fill="#5a5a5a" x="203.61764705882354" text-anchor="end" stroke="none" y="267" style="text-anchor: end;">Day 41</text><text transform="matrix(0,-1,1,0,-25.2059,500.7941)" opacity="1" fill-opacity="1" fill="#5a5a5a" x="237.79411764705884" text-anchor="end" stroke="none" y="267" style="text-anchor: end;">Day 32</text><text transform="matrix(0,-1,1,0,8.9706,534.9706)" opacity="1" fill-opacity="1" fill="#5a5a5a" x="271.97058823529414" text-anchor="end" stroke="none" y="267" style="text-anchor: end;">Day 24</text><text transform="matrix(0,-1,1,0,43.1471,569.1471)" opacity="1" fill-opacity="1" fill="#5a5a5a" x="306.1470588235294" text-anchor="end" stroke="none" y="267" style="text-anchor: end;">Day 22</text><text transform="matrix(0,-1,1,0,77.3235,603.3235)" opacity="1" fill-opacity="1" fill="#5a5a5a" x="340.32352941176475" text-anchor="end" stroke="none" y="267" style="text-anchor: end;">Day 20</text><text transform="matrix(0,-1,1,0,111.5,637.5)" opacity="1" fill-opacity="1" fill="#5a5a5a" x="374.5" text-anchor="end" stroke="none" y="267" style="text-anchor: end;">Day 17</text><text transform="matrix(0,-1,1,0,145.6765,671.6765)" opacity="1" fill-opacity="1" fill="#5a5a5a" x="408.67647058823536" text-anchor="end" stroke="none" y="267" style="text-anchor: end;">Day 13</text><text transform="matrix(0,-1,1,0,179.8529,705.8529)" opacity="1" fill-opacity="1" fill="#5a5a5a" x="442.8529411764706" text-anchor="end" stroke="none" y="267" style="text-anchor: end;">Day 8</text><text transform="matrix(0,-1,1,0,214.0294,740.0294)" opacity="1" fill-opacity="1" fill="#5a5a5a" x="477.02941176470597" text-anchor="end" stroke="none" y="267" style="text-anchor: end;">Day 55</text><text transform="matrix(0,-1,1,0,248.2059,774.2059)" opacity="1" fill-opacity="1" fill="#5a5a5a" x="511.2058823529412" text-anchor="end" stroke="none" y="267" style="text-anchor: end;">Day 5</text><text transform="matrix(0,-1,1,0,282.3824,808.3824)" opacity="1" fill-opacity="1" fill="#5a5a5a" x="545.3823529411765" text-anchor="end" stroke="none" y="267" style="text-anchor: end;">Day 4</text><text transform="matrix(0,-1,1,0,316.5588,842.5588)" opacity="1" fill-opacity="1" fill="#5a5a5a" x="579.5588235294118" text-anchor="end" stroke="none" y="267" style="text-anchor: end;">Day 3</text><text transform="matrix(0,-1,1,0,350.7353,876.7353)" opacity="1" fill-opacity="1" fill="#5a5a5a" x="613.7352941176472" text-anchor="end" stroke="none" y="267" style="text-anchor: end;">Day 2</text><text transform="matrix(0,-1,1,0,384.9118,910.9118)" opacity="1" fill-opacity="1" fill="#5a5a5a" x="647.9117647058824" text-anchor="end" stroke="none" y="267" style="text-anchor: end;">Yesterday</text></g></g><g class="raphael-group-334-axis-line-tick-bottom"></g></g><g class="raphael-group-205-axisReferenceVisualsFloor" clip-path="url('#rr-CAD101CA-5B79-41F0-8E2D-9E0171633686')"></g><g class="raphael-group-204-axisReferenceVisualsBottom"><path stroke-dasharray="none" stroke="#dfdfdf" stroke-opacity="0.4" stroke-width="1" d="M84,253.5L665,253.5" stroke-linecap="butt" fill="none"></path><path stroke-dasharray="none" stroke="#dfdfdf" stroke-opacity="0.4" stroke-width="1" d="M84,215.5L665,215.5" stroke-linecap="butt" fill="none"></path><path stroke-dasharray="none" stroke="#dfdfdf" stroke-opacity="0.4" stroke-width="1" d="M84,178.5L665,178.5" stroke-linecap="butt" fill="none"></path><path stroke-dasharray="none" stroke="#dfdfdf" stroke-opacity="0.4" stroke-width="1" d="M84,141.5L665,141.5" stroke-linecap="butt" fill="none"></path><path stroke-dasharray="none" stroke="#dfdfdf" stroke-opacity="0.4" stroke-width="1" d="M84,104.5L665,104.5" stroke-linecap="butt" fill="none"></path><path stroke-dasharray="none" stroke="#dfdfdf" stroke-opacity="0.4" stroke-width="1" d="M84,67.5L665,67.5" stroke-linecap="butt" fill="none"></path></g><g class="raphael-group-183-belowplot"></g><g class="raphael-group-206-crossline"></g><g class="raphael-group-207-crosslineBottom"></g><g class="raphael-group-210-axisReferenceVisualsMiddle" clip-path="url('#rr-F035770A-B3D1-411B-B9C4-62CDC3B2BCB5')"></g><g class="raphael-group-212-quadrant" clip-path="url('#rr-F1D8646D-95C9-4A1E-81E0-FD4DE6DD7D3D')"></g><g class="raphael-group-184-plots" clip-path="url('#rr-4C968F93-D47D-473A-BD73-FC6E595B87BB')"><g class="raphael-group-214-column-shadow-group"><g class="raphael-group-229-vcanvas-column-shadow" transform="matrix(1,0,0,1,0,0)"></g></g><g class="raphael-group-215-column"><g class="raphael-group-230-vcanvas-column-plot" transform="matrix(1,0,0,1,0,0)"><g class="raphael-group-238-columnTrendGroup"></g></g></g><g class="raphael-group-216-area-shadow-group"><g class="raphael-group-231-vcanvas-area-shadow" transform="matrix(1,0,0,1,0,0)"></g></g><g class="raphael-group-217-area"><g class="raphael-group-232-vcanvas-area-plot" transform="matrix(1,0,0,1,0,0)"></g></g><g class="raphael-group-218-line-shadow-group"><g class="raphael-group-233-vcanvas-line-shadow" transform="matrix(1,0,0,1,0,0)"><g class="raphael-group-240-shadow-group"></g><g class="raphael-group-241-error-shadow-group"></g></g></g><g class="raphael-group-219-line"><g class="raphael-group-234-vcanvas-line-plot" transform="matrix(1,0,0,1,0,0)"><g class="raphael-group-242-common-elems-group"><path clip-path="" stroke="#62b58f" stroke-opacity="1" stroke-linecap="round" stroke-linejoin="round" stroke-width="3" stroke-dasharray="none" d="M84,197.5H101.08823529411765M101.5,197.45V189.83M101.5,189.83V180.17M101.5,180.17V175.71M101.5,175.71V169.76M101.08823529411765,170.5H135.26470588235296M135.5,169.76V175.89M135.5,175.89V189.08M135.5,189.08V193.17M135.5,193.17V198.19M135.5,198.19V202.83M135.26470588235296,203.5H169.44117647058826M169.5,202.83V196.33M169.5,196.33V191.13M169.44117647058826,191.5H203.61764705882356M204.5,191.13V202.83M238.5,191.13V182.95M238.5,182.95V180.91M238.5,180.91V166.6M238.5,166.6V153.97M237.79411764705887,154.5H271.97058823529414M272.5,153.97V168.28M272.5,168.28V171.99M272.5,171.99V178.12M272.5,178.12V180.91M272.5,180.91V187.97M272.5,187.97V189.27M272.5,189.27V189.64M271.97058823529414,190.5H306.14705882352945M306.5,189.64V181.84M306.5,181.84V160.1M306.14705882352945,160.5H340.32352941176475M340.5,160.1V170.5M340.5,170.5V173.11M340.32352941176475,173.5H374.50000000000006M375.5,173.11V148.39M375.5,148.39V117.74M375.5,117.74V105.47M374.50000000000006,105.5H408.67647058823536M409.5,105.47V114.02M409.5,114.02V127.77M409.5,127.77V137.06M408.67647058823536,137.5H442.85294117647067M443.5,137.06V128.89M443.5,128.89V114.39M443.5,114.39V111.79M443.5,111.79V101.57M442.85294117647067,102.5H477.02941176470597M477.5,101.57V114.21M477.02941176470597,114.5H511.2058823529413M511.5,114.21V108.26M511.2058823529413,108.5H545.3823529411766M545.5,108.26V114.21M580.5,108.26V106.59M579.5588235294119,107.5H613.7352941176473M614.5,106.59V115.69" fill="none"></path><path clip-path="" stroke="#f2726f" stroke-opacity="1" stroke-linecap="round" stroke-linejoin="round" stroke-width="3" stroke-dasharray="none" d="M204.5,202.83V206.18M204.5,206.18V211.01M203.61764705882356,211.5H237.79411764705887M238.5,211.01V203.58M238.5,203.58V193.54M238.5,193.54V191.13M238.5,191.13V191.13M545.5,114.21V115.69M545.3823529411766,116.5H579.5588235294119M580.5,115.69V108.26M614.5,115.69V122.75M613.7352941176473,123.5H647.9117647058827M648.5,122.75V116.99" fill="none"></path></g><g class="raphael-group-243-plot-group"><path d="M101.08823529411765,197.45L101.08823529411765,197.45Z" fill-opacity="0" fill="#ffffff" stroke="#5d62b5" stroke-opacity="0" stroke-width="1" stroke-linecap="round" style=""></path><path d="M101.08823529411765,189.83L101.08823529411765,189.83Z" fill-opacity="0" fill="#ffffff" stroke="#5d62b5" stroke-opacity="0" stroke-width="1" stroke-linecap="round" style=""></path><path d="M101.08823529411765,180.17L101.08823529411765,180.17Z" fill-opacity="0" fill="#ffffff" stroke="#5d62b5" stroke-opacity="0" stroke-width="1" stroke-linecap="round" style=""></path><path d="M101.08823529411765,175.71L101.08823529411765,175.71Z" fill-opacity="0" fill="#ffffff" stroke="#5d62b5" stroke-opacity="0" stroke-width="1" stroke-linecap="round" style=""></path><path d="M101.08823529411765,169.76L101.08823529411765,169.76Z" fill-opacity="0" fill="#ffffff" stroke="#5d62b5" stroke-opacity="0" stroke-width="1" stroke-linecap="round" style=""></path><path d="M135.26470588235296,175.89L135.26470588235296,175.89Z" fill-opacity="0" fill="#ffffff" stroke="#5d62b5" stroke-opacity="0" stroke-width="1" stroke-linecap="round" style=""></path><path d="M135.26470588235296,174.59L135.26470588235296,174.59Z" fill-opacity="0" fill="#ffffff" stroke="#5d62b5" stroke-opacity="0" stroke-width="1" stroke-linecap="round" style=""></path><path d="M135.26470588235296,189.08L135.26470588235296,189.08Z" fill-opacity="0" fill="#ffffff" stroke="#5d62b5" stroke-opacity="0" stroke-width="1" stroke-linecap="round" style=""></path><path d="M135.26470588235296,193.17L135.26470588235296,193.17Z" fill-opacity="0" fill="#ffffff" stroke="#5d62b5" stroke-opacity="0" stroke-width="1" stroke-linecap="round" style=""></path><path d="M135.26470588235296,192.8L135.26470588235296,192.8Z" fill-opacity="0" fill="#ffffff" stroke="#5d62b5" stroke-opacity="0" stroke-width="1" stroke-linecap="round" style=""></path><path d="M135.26470588235296,198.19L135.26470588235296,198.19Z" fill-opacity="0" fill="#ffffff" stroke="#5d62b5" stroke-opacity="0" stroke-width="1" stroke-linecap="round" style=""></path><path d="M135.26470588235296,197.82L135.26470588235296,197.82Z" fill-opacity="0" fill="#ffffff" stroke="#5d62b5" stroke-opacity="0" stroke-width="1" stroke-linecap="round" style=""></path><path d="M135.26470588235296,202.83L135.26470588235296,202.83Z" fill-opacity="0" fill="#ffffff" stroke="#5d62b5" stroke-opacity="0" stroke-width="1" stroke-linecap="round" style=""></path><path d="M169.44117647058823,196.33L169.44117647058823,196.33Z" fill-opacity="0" fill="#ffffff" stroke="#5d62b5" stroke-opacity="0" stroke-width="1" stroke-linecap="round" style=""></path><path d="M169.44117647058823,191.13L169.44117647058823,191.13Z" fill-opacity="0" fill="#ffffff" stroke="#5d62b5" stroke-opacity="0" stroke-width="1" stroke-linecap="round" style=""></path><path d="M203.61764705882354,206.18L203.61764705882354,206.18Z" fill-opacity="0" fill="#ffffff" stroke="#5d62b5" stroke-opacity="0" stroke-width="1" stroke-linecap="round" style=""></path><path d="M203.61764705882354,211.01L203.61764705882354,211.01Z" fill-opacity="0" fill="#ffffff" stroke="#5d62b5" stroke-opacity="0" stroke-width="1" stroke-linecap="round" style=""></path><path d="M203.61764705882354,206.36L203.61764705882354,206.36Z" fill-opacity="0" fill="#ffffff" stroke="#5d62b5" stroke-opacity="0" stroke-width="1" stroke-linecap="round" style=""></path><path d="M237.79411764705884,203.58L237.79411764705884,203.58Z" fill-opacity="0" fill="#ffffff" stroke="#5d62b5" stroke-opacity="0" stroke-width="1" stroke-linecap="round" style=""></path><path d="M237.79411764705884,193.54L237.79411764705884,193.54Z" fill-opacity="0" fill="#ffffff" stroke="#5d62b5" stroke-opacity="0" stroke-width="1" stroke-linecap="round" style=""></path><path d="M237.79411764705884,191.13L237.79411764705884,191.13Z" fill-opacity="0" fill="#ffffff" stroke="#5d62b5" stroke-opacity="0" stroke-width="1" stroke-linecap="round" style=""></path><path d="M237.79411764705884,192.24L237.79411764705884,192.24Z" fill-opacity="0" fill="#ffffff" stroke="#5d62b5" stroke-opacity="0" stroke-width="1" stroke-linecap="round" style=""></path><path d="M237.79411764705884,182.95L237.79411764705884,182.95Z" fill-opacity="0" fill="#ffffff" stroke="#5d62b5" stroke-opacity="0" stroke-width="1" stroke-linecap="round" style=""></path><path d="M237.79411764705884,180.91L237.79411764705884,180.91Z" fill-opacity="0" fill="#ffffff" stroke="#5d62b5" stroke-opacity="0" stroke-width="1" stroke-linecap="round" style=""></path><path d="M237.79411764705884,166.6L237.79411764705884,166.6Z" fill-opacity="0" fill="#ffffff" stroke="#5d62b5" stroke-opacity="0" stroke-width="1" stroke-linecap="round" style=""></path><path d="M237.79411764705884,153.97L237.79411764705884,153.97Z" fill-opacity="0" fill="#ffffff" stroke="#5d62b5" stroke-opacity="0" stroke-width="1" stroke-linecap="round" style=""></path><path d="M271.97058823529414,168.28L271.97058823529414,168.28Z" fill-opacity="0" fill="#ffffff" stroke="#5d62b5" stroke-opacity="0" stroke-width="1" stroke-linecap="round" style=""></path><path d="M271.97058823529414,171.99L271.97058823529414,171.99Z" fill-opacity="0" fill="#ffffff" stroke="#5d62b5" stroke-opacity="0" stroke-width="1" stroke-linecap="round" style=""></path><path d="M271.97058823529414,178.12L271.97058823529414,178.12Z" fill-opacity="0" fill="#ffffff" stroke="#5d62b5" stroke-opacity="0" stroke-width="1" stroke-linecap="round" style=""></path><path d="M271.97058823529414,180.91L271.97058823529414,180.91Z" fill-opacity="0" fill="#ffffff" stroke="#5d62b5" stroke-opacity="0" stroke-width="1" stroke-linecap="round" style=""></path><path d="M271.97058823529414,180.54L271.97058823529414,180.54Z" fill-opacity="0" fill="#ffffff" stroke="#5d62b5" stroke-opacity="0" stroke-width="1" stroke-linecap="round" style=""></path><path d="M271.97058823529414,187.97L271.97058823529414,187.97Z" fill-opacity="0" fill="#ffffff" stroke="#5d62b5" stroke-opacity="0" stroke-width="1" stroke-linecap="round" style=""></path><path d="M271.97058823529414,189.27L271.97058823529414,189.27Z" fill-opacity="0" fill="#ffffff" stroke="#5d62b5" stroke-opacity="0" stroke-width="1" stroke-linecap="round" style=""></path><path d="M271.97058823529414,189.64L271.97058823529414,189.64Z" fill-opacity="0" fill="#ffffff" stroke="#5d62b5" stroke-opacity="0" stroke-width="1" stroke-linecap="round" style=""></path><path d="M306.1470588235294,181.84L306.1470588235294,181.84Z" fill-opacity="0" fill="#ffffff" stroke="#5d62b5" stroke-opacity="0" stroke-width="1" stroke-linecap="round" style=""></path><path d="M306.1470588235294,160.1L306.1470588235294,160.1Z" fill-opacity="0" fill="#ffffff" stroke="#5d62b5" stroke-opacity="0" stroke-width="1" stroke-linecap="round" style=""></path><path d="M340.32352941176475,170.5L340.32352941176475,170.5Z" fill-opacity="0" fill="#ffffff" stroke="#5d62b5" stroke-opacity="0" stroke-width="1" stroke-linecap="round" style=""></path><path d="M340.32352941176475,173.11L340.32352941176475,173.11Z" fill-opacity="0" fill="#ffffff" stroke="#5d62b5" stroke-opacity="0" stroke-width="1" stroke-linecap="round" style=""></path><path d="M374.5,148.39L374.5,148.39Z" fill-opacity="0" fill="#ffffff" stroke="#5d62b5" stroke-opacity="0" stroke-width="1" stroke-linecap="round" style=""></path><path d="M374.5,117.74L374.5,117.74Z" fill-opacity="0" fill="#ffffff" stroke="#5d62b5" stroke-opacity="0" stroke-width="1" stroke-linecap="round" style=""></path><path d="M374.5,105.47L374.5,105.47Z" fill-opacity="0" fill="#ffffff" stroke="#5d62b5" stroke-opacity="0" stroke-width="1" stroke-linecap="round" style=""></path><path d="M408.67647058823536,114.02L408.67647058823536,114.02Z" fill-opacity="0" fill="#ffffff" stroke="#5d62b5" stroke-opacity="0" stroke-width="1" stroke-linecap="round" style=""></path><path d="M408.67647058823536,127.77L408.67647058823536,127.77Z" fill-opacity="0" fill="#ffffff" stroke="#5d62b5" stroke-opacity="0" stroke-width="1" stroke-linecap="round" style=""></path><path d="M408.67647058823536,137.06L408.67647058823536,137.06Z" fill-opacity="0" fill="#ffffff" stroke="#5d62b5" stroke-opacity="0" stroke-width="1" stroke-linecap="round" style=""></path><path d="M408.67647058823536,133.72L408.67647058823536,133.72Z" fill-opacity="0" fill="#ffffff" stroke="#5d62b5" stroke-opacity="0" stroke-width="1" stroke-linecap="round" style=""></path><path d="M442.8529411764706,128.89L442.8529411764706,128.89Z" fill-opacity="0" fill="#ffffff" stroke="#5d62b5" stroke-opacity="0" stroke-width="1" stroke-linecap="round" style=""></path><path d="M442.8529411764706,114.39L442.8529411764706,114.39Z" fill-opacity="0" fill="#ffffff" stroke="#5d62b5" stroke-opacity="0" stroke-width="1" stroke-linecap="round" style=""></path><path d="M442.8529411764706,111.79L442.8529411764706,111.79Z" fill-opacity="0" fill="#ffffff" stroke="#5d62b5" stroke-opacity="0" stroke-width="1" stroke-linecap="round" style=""></path><path d="M442.8529411764706,101.57L442.8529411764706,101.57Z" fill-opacity="0" fill="#ffffff" stroke="#5d62b5" stroke-opacity="0" stroke-width="1" stroke-linecap="round" style=""></path><path d="M442.8529411764706,102.5L442.8529411764706,102.5Z" fill-opacity="0" fill="#ffffff" stroke="#5d62b5" stroke-opacity="0" stroke-width="1" stroke-linecap="round" style=""></path><path d="M477.02941176470597,114.21L477.02941176470597,114.21Z" fill-opacity="0" fill="#ffffff" stroke="#5d62b5" stroke-opacity="0" stroke-width="1" stroke-linecap="round" style=""></path><path d="M477.02941176470597,108.82L477.02941176470597,108.82Z" fill-opacity="0" fill="#ffffff" stroke="#5d62b5" stroke-opacity="0" stroke-width="1" stroke-linecap="round" style=""></path><path d="M477.02941176470597,110.68L477.02941176470597,110.68Z" fill-opacity="0" fill="#ffffff" stroke="#5d62b5" stroke-opacity="0" stroke-width="1" stroke-linecap="round" style=""></path><path d="M511.2058823529412,108.26L511.2058823529412,108.26Z" fill-opacity="0" fill="#ffffff" stroke="#5d62b5" stroke-opacity="0" stroke-width="1" stroke-linecap="round" style=""></path><path d="M545.3823529411765,115.69L545.3823529411765,115.69Z" fill-opacity="0" fill="#ffffff" stroke="#5d62b5" stroke-opacity="0" stroke-width="1" stroke-linecap="round" style=""></path><path d="M579.5588235294118,106.59L579.5588235294118,106.59Z" fill-opacity="0" fill="#ffffff" stroke="#5d62b5" stroke-opacity="0" stroke-width="1" stroke-linecap="round" style=""></path><path d="M613.7352941176472,122.75L613.7352941176472,122.75Z" fill-opacity="0" fill="#ffffff" stroke="#5d62b5" stroke-opacity="0" stroke-width="1" stroke-linecap="round" style=""></path><path d="M647.9117647058824,116.99L647.9117647058824,116.99Z" fill-opacity="0" fill="#ffffff" stroke="#5d62b5" stroke-opacity="0" stroke-width="1" stroke-linecap="round" style=""></path></g><g class="raphael-group-244-error-plot-group"></g></g></g><g class="raphael-group-220-default-shadow-group"><g class="raphael-group-235-vcanvas-default-shadow" transform="matrix(1,0,0,1,0,0)"></g></g><g class="raphael-group-221-default"><g class="raphael-group-236-vcanvas-default-plot" transform="matrix(1,0,0,1,0,0)"></g></g></g><g class="raphael-group-185-scrollbar-container"></g><g class="raphael-group-186-axistop"><g class="raphael-group-307-axis-Line-group"><g class="raphael-group-313-axis-line-tick"></g></g><g class="raphael-group-308-dataset-Trend-group-top"><g class="raphael-group-314-dataset-axis-trend-label"></g></g><g class="raphael-group-310-dataset-Label-group"><g class="raphael-group-312-dataset-top-label" transform="matrix(1,0,0,1,0,0)"></g></g><g class="raphael-group-325-axis-Line-group"><g class="raphael-group-331-axis-line-tick"></g></g><g class="raphael-group-326-dataset-Trend-group-top"><g class="raphael-group-332-dataset-axis-trend-label"></g></g><g class="raphael-group-328-dataset-Label-group"><g class="raphael-group-330-dataset-top-label" transform="matrix(1,0,0,1,0,0)"></g></g></g><g class="raphael-group-187-sumlabels fusioncharts-datalabels" clip-path="url('#rr-C49BA6E3-65BD-42F0-A2B6-890040D475D0')"><g class="raphael-group-239-vcanvas-sumLabelsLayer" transform="matrix(1,0,0,1,0,0)"></g></g><g class="raphael-group-211-axisReferenceVisualsTop"></g><g class="raphael-group-213-axisReferenceVisualsCeil"></g><g class="raphael-group-188-datalabel" font-family="Source Sans Pro" font-size="14px" font-weight="normal" font-style="normal" clip-path="url('#rr-17105ADA-C8A1-49CF-B69B-0EB4955F615D')" style="font-family: &quot;Source Sans Pro&quot;; font-size: 14px; font-weight: normal; font-style: normal;"><g class="raphael-group-209-canvasdatalabel"><g class="raphael-group-237-vcanvas-label" transform="matrix(1,0,0,1,0,0)"><g class="raphael-group-245-label-group fusioncharts-datalabels"></g></g></g></g><g class="raphael-group-208-crosslineTop"></g><g class="raphael-group-189-aboveplot"></g><g class="raphael-group-190-caption"><text fill-opacity="1" fill="#5a5a5a" x="374.5" text-anchor="middle" stroke="none" y="31" font-family="Source Sans Pro" font-size="18px" font-weight="bold" style="text-anchor: middle; font-family: &quot;Source Sans Pro&quot;; font-size: 18px; font-weight: bold;">Stock Price HRYS</text><text fill-opacity="1" fill="#999999" x="374.5" text-anchor="middle" stroke="none" y="50" font-family="Source Sans Pro" font-size="13px" font-weight="normal" style="text-anchor: middle; font-family: &quot;Source Sans Pro&quot;; font-size: 13px; font-weight: normal;">Last 2 months</text></g><g class="raphael-group-191-chartdefault"></g><g class="raphael-group-192-chartdefault-shadow"></g><g class="raphael-group-193-tracker"></g><g class="raphael-group-194-logo"></g><g class="raphael-group-195-selectorGroup"></g><g class="raphael-group-196-toolbar-master"><g class="raphael-group-201-toolbar"><rect fill-opacity="0" fill="#eeeeee" stroke="#eeeeee" stroke-opacity="0" stroke-width="1" width="0" height="0" x="670" y="6" ry="0" rx="0"></rect></g></g></g><g class="raphael-group-cfgKqmcT"><g transform="translate(18,362.68)" fill="#b1b2b7" cursor="pointer" pointer-events="bounding-box" style="transition:0.5s;"><path d="M23,11.46V1.87h5.8V3.31h-4.1V6h3.48V7.46H24.71v4Zm7-2.68V4.26h1.69v4.3c0,1.19.34,1.63,1.12,1.63.63,0,1-.3,1.59-1V4.26h1.69v7.2H34.67l-.13-1.05h0a3,3,0,0,1-2.32,1.23C30.64,11.64,30,10.6,30,8.78Zm7.51,1.86.8-1.08a3.23,3.23,0,0,0,2,.8c.78,0,1.14-.36,1.14-.86s-.77-.87-1.54-1.16c-1-.35-2-.9-2-2.1s1-2.15,2.63-2.15A3.94,3.94,0,0,1,42.86,5l-.78,1a2.66,2.66,0,0,0-1.58-.62c-.72,0-1.06.34-1.06.79s.72.8,1.5,1.07c1,.37,2.06.84,2.06,2.19s-1,2.23-2.8,2.23A4.6,4.6,0,0,1,37.47,10.64ZM45.36,3a1,1,0,1,1,1-1A1,1,0,0,1,45.36,3Zm-.85,8.46V4.26H46.2v7.2Zm3.38-3.59a3.44,3.44,0,1,1,6.85,0,3.44,3.44,0,1,1-6.85,0Zm1.73,0c0,1.44.63,2.39,1.69,2.39S53,9.31,53,7.87s-.65-2.41-1.7-2.41S49.62,6.42,49.62,7.87Zm6.79,3.59V4.26H57.8l.12,1H58a3.34,3.34,0,0,1,2.36-1.14c1.54,0,2.21,1,2.21,2.86v4.51H60.87V7.17c0-1.19-.34-1.63-1.13-1.63a2.29,2.29,0,0,0-1.64.89v5ZM64.24,6.7c0-3.14,2-5,4.43-5A3.79,3.79,0,0,1,71.4,2.91L70.46,4a2.42,2.42,0,0,0-1.77-.79C67.12,3.18,66,4.5,66,6.65s1,3.51,2.64,3.51a2.57,2.57,0,0,0,2-1l.94,1.05a3.84,3.84,0,0,1-3,1.39C66.16,11.64,64.24,9.88,64.24,6.7ZM73,11.46V1.11h1.68V3.78l0,1.39A3.3,3.3,0,0,1,77,4.09c1.54,0,2.21,1,2.21,2.86v4.51H77.49V7.17c0-1.19-.34-1.63-1.13-1.63a2.33,2.33,0,0,0-1.65.89v5ZM80.9,9.53c0-1.54,1.29-2.35,4.24-2.67,0-.77-.33-1.41-1.3-1.41a4,4,0,0,0-2,.7L81.2,5a5.64,5.64,0,0,1,3-.93c1.8,0,2.68,1.1,2.68,3.1v4.27H85.45l-.13-.79h0a3.49,3.49,0,0,1-2.22,1A2,2,0,0,1,80.9,9.53Zm1.65-.14c0,.65.42.93,1,.93a2.25,2.25,0,0,0,1.57-.79V7.91C83.19,8.16,82.55,8.68,82.55,9.39Zm6.33,2.07V4.26h1.4l.11,1.28h.06a2.45,2.45,0,0,1,2-1.45,1.86,1.86,0,0,1,.82.14L93,5.7a2.46,2.46,0,0,0-.75-.12c-.57,0-1.26.4-1.7,1.48v4.4ZM94.6,9V5.6h-1V4.33l1.11-.07.21-2h1.4v2h1.84V5.6H96.3V9c0,.85.33,1.26,1,1.26a2,2,0,0,0,.74-.16l.3,1.24a4.43,4.43,0,0,1-1.47.27C95.22,11.64,94.6,10.58,94.6,9Zm4.33,1.61.79-1.08a3.26,3.26,0,0,0,2,.8c.77,0,1.14-.36,1.14-.86s-.78-.87-1.54-1.16c-.95-.35-2-.9-2-2.1s1-2.15,2.62-2.15a3.89,3.89,0,0,1,2.39.86l-.77,1A2.69,2.69,0,0,0,102,5.36c-.72,0-1,.34-1,.79s.71.8,1.49,1.07c1,.37,2.07.84,2.07,2.19s-1,2.23-2.8,2.23A4.58,4.58,0,0,1,98.93,10.64Z" fill="" stroke="" stroke-linecap=""></path><rect x="0" y="1.63" width="3.33" height="9.76" fill="" stroke="" stroke-linecap=""></rect><rect x="4.8" y="6.43" width="3.41" height="4.96" fill="" stroke="" stroke-linecap=""></rect><path d="M9.76,0L12.93,0L12.93,11.39,L9.76,11.39L9.76,0" fill="" stroke="" stroke-linecap=""></path><path d="M9.76,12.86L12.93,12.86L12.93,16.19L9.76,16.19L9.76,12.86" fill="" stroke="" stroke-linecap=""></path><path d="M111.54,4.59h-2.39V3.32h6.28V4.59H113v7h-1.5Z" fill="" stroke="" stroke-linecap=""></path><path d="M116.11,5.38h1.24l.11,1.11h0a2.15,2.15,0,0,1,1.77-1.27,1.7,1.7,0,0,1,.71.13l-.3,1.28a2.1,2.1,0,0,0-.6-.07c-.49,0-1.09.33-1.46,1.28v3.78h-1.51Z" fill="" stroke="" stroke-linecap=""></path><path d="M120.75,3.46a.9.9,0,0,1,1.8,0,.9.9,0,0,1-1.8,0Zm.13,1.92h1.51v6.24h-1.51Z" fill="" stroke="" stroke-linecap=""></path><path d="M123.89,9.94c0-1.37,1.09-2,3.65-2.33,0-.64-.27-1.17-1.11-1.17a3.6,3.6,0,0,0-1.75.58l-.53-1a4.78,4.78,0,0,1,2.56-.82c1.55,0,2.33,1,2.33,2.71v3.69h-1.22l-.12-.69h0a2.93,2.93,0,0,1-1.91.84A1.75,1.75,0,0,1,123.89,9.94Zm3.65,0V8.62c-1.69.21-2.2.59-2.2,1.22s.35.74.86.74A1.85,1.85,0,0,0,127.54,9.94Z" fill="" stroke="" stroke-linecap=""></path><path d="M130.77,10V2.66h1.51v7.4c0,.36.16.49.31.49a1,1,0,0,0,.23,0l.18,1.1a1.77,1.77,0,0,1-.79.14C131.16,11.77,130.77,11.08,130.77,10Z" fill="" stroke="" stroke-linecap=""></path></g></g><rect x="0" y="0" width="10" height="30" ry="0" rx="0" fill="none" stroke="#000000" style="display: none;"></rect></svg>