<?xml version="1.0" encoding="utf-8"?>
<!-- Generator: Adobe Illustrator 27.8.1, SVG Export Plug-In . SVG Version: 6.00 Build 0)  -->
<svg version="1.1" id="GUIDE" xmlns="http://www.w3.org/2000/svg" xmlns:xlink="http://www.w3.org/1999/xlink" x="0px" y="0px"
	 width="820px" height="386.984px" viewBox="0 0 820 386.984" style="enable-background:new 0 0 820 386.984;" xml:space="preserve"
	>
<style type="text/css">
	.st0{fill:#F5F5F5;}
	.st1{fill:#FFFFFF;}
	.st2{fill:#318DDE;}
	.st3{fill:#1CD0BB;}
	.st4{fill:#333333;}
</style>
<rect x="84.882" y="19.722" class="st0" width="670.26" height="298.491"/>
<g>
	<path class="st1" d="M754.244,275.898H86.013c-0.552,0-1-0.447-1-1s0.448-1,1-1h668.231c0.553,0,1,0.447,1,1
		S754.797,275.898,754.244,275.898z"/>
	<path class="st1" d="M754.244,233.256H86.013c-0.552,0-1-0.448-1-1s0.448-1,1-1h668.231c0.553,0,1,0.448,1,1
		S754.797,233.256,754.244,233.256z"/>
	<path class="st1" d="M754.244,190.616H86.013c-0.552,0-1-0.448-1-1s0.448-1,1-1h668.231c0.553,0,1,0.448,1,1
		S754.797,190.616,754.244,190.616z"/>
	<path class="st1" d="M754.244,147.975H86.013c-0.552,0-1-0.448-1-1s0.448-1,1-1h668.231c0.553,0,1,0.448,1,1
		S754.797,147.975,754.244,147.975z"/>
	<path class="st1" d="M754.244,105.335H86.013c-0.552,0-1-0.448-1-1s0.448-1,1-1h668.231c0.553,0,1,0.448,1,1
		S754.797,105.335,754.244,105.335z"/>
	<path class="st1" d="M754.244,62.694H86.013c-0.552,0-1-0.448-1-1s0.448-1,1-1h668.231c0.553,0,1,0.448,1,1
		S754.797,62.694,754.244,62.694z"/>
</g>
<g>
	<path class="st1" d="M658.925,318.716c-0.553,0-1-0.447-1-1V19.875c0-0.552,0.447-1,1-1s1,0.448,1,1v297.841
		C659.925,318.269,659.478,318.716,658.925,318.716z"/>
	<path class="st1" d="M563.187,318.716c-0.553,0-1-0.447-1-1V19.875c0-0.552,0.447-1,1-1s1,0.448,1,1v297.841
		C564.187,318.269,563.739,318.716,563.187,318.716z"/>
	<path class="st1" d="M467.448,318.716c-0.553,0-1-0.447-1-1V19.875c0-0.552,0.447-1,1-1s1,0.448,1,1v297.841
		C468.448,318.269,468.001,318.716,467.448,318.716z"/>
	<path class="st1" d="M371.71,318.716c-0.552,0-1-0.447-1-1V19.875c0-0.552,0.448-1,1-1s1,0.448,1,1v297.841
		C372.71,318.269,372.263,318.716,371.71,318.716z"/>
	<path class="st1" d="M275.972,318.716c-0.552,0-1-0.447-1-1V19.875c0-0.552,0.448-1,1-1s1,0.448,1,1v297.841
		C276.972,318.269,276.524,318.716,275.972,318.716z"/>
	<path class="st1" d="M180.234,318.716c-0.552,0-1-0.447-1-1V19.875c0-0.552,0.448-1,1-1s1,0.448,1,1v297.841
		C181.234,318.269,180.786,318.716,180.234,318.716z"/>
</g>
<g id="Layer_3">
	<polygon class="st2" points="107.93,286.051 97.68,286.051 97.68,242.801 100.68,242.801 100.68,283.051 104.93,283.051 
		104.93,243.426 107.93,243.426 	"/>
	<polygon class="st2" points="147.805,292.801 138.555,292.801 138.555,273.926 134.305,273.926 134.305,286.176 124.555,286.176 
		124.555,275.676 127.555,275.676 127.555,283.176 131.305,283.176 131.305,270.926 141.555,270.926 141.555,289.801 
		144.805,289.801 144.805,272.801 147.805,272.801 	"/>
	<polygon class="st2" points="214.305,223.301 204.805,223.301 204.805,195.051 207.805,195.051 207.805,220.301 211.305,220.301 
		211.305,180.551 214.305,180.551 	"/>
	<polygon class="st2" points="281.367,200.989 271.305,200.989 271.305,197.739 274.305,197.739 274.305,197.989 278.367,197.989 
		278.367,185.551 281.367,185.551 	"/>
	<polygon class="st2" points="334.367,225.426 325.055,225.426 325.055,181.676 321.93,181.676 321.93,203.739 311.867,203.739 
		311.867,179.926 307.993,179.926 307.993,194.426 298.555,194.426 298.555,172.239 294.741,172.239 294.678,225.426 
		284.68,225.426 284.68,199.863 287.68,199.863 287.68,222.426 291.682,222.426 291.745,169.239 301.555,169.239 301.555,191.426 
		304.993,191.426 304.993,176.926 314.867,176.926 314.867,200.739 318.93,200.739 318.93,178.676 328.055,178.676 328.055,222.426 
		331.367,222.426 331.367,178.613 341.555,178.613 341.555,197.926 344.743,197.926 344.743,180.426 347.743,180.426 
		347.743,200.926 338.555,200.926 338.555,181.613 334.367,181.613 	"/>
	<polygon class="st2" points="374.972,223.218 364.972,223.218 364.972,183.301 367.972,183.301 367.972,220.218 371.972,220.218 
		371.972,159.717 381.972,159.717 381.972,178.55 385.222,178.55 385.222,159.717 394.555,159.717 394.555,200.8 398.638,200.8 
		398.638,161.551 401.638,161.551 401.638,203.8 391.555,203.8 391.555,162.717 388.222,162.717 388.222,181.55 378.972,181.55 
		378.972,162.717 374.972,162.717 	"/>
	<polygon class="st2" points="428.138,123.801 418.638,123.801 418.638,120.384 421.638,120.384 421.638,120.801 425.138,120.801 
		425.138,93.884 428.138,93.884 	"/>
	<polygon class="st2" points="454.805,143.218 445.471,143.218 445.471,122.718 448.471,122.718 448.471,140.218 451.805,140.218 
		451.805,91.468 454.805,91.468 	"/>
	<polygon class="st2" points="481.388,106.967 471.805,106.967 471.805,62.634 474.805,62.634 474.805,103.967 478.388,103.967 
		478.388,72.468 488.221,72.468 488.221,94.552 492.388,94.552 492.388,74.385 495.388,74.385 495.388,97.552 485.221,97.552 
		485.221,75.468 481.388,75.468 	"/>
	<polygon class="st2" points="548.386,121.468 538.47,121.468 538.47,102.218 535.137,102.218 535.137,116.551 525.137,116.551 
		525.137,102.051 521.221,102.051 521.221,114.218 511.887,114.218 511.887,83.634 514.887,83.634 514.887,111.218 518.221,111.218 
		518.221,99.051 528.137,99.051 528.137,113.551 532.137,113.551 532.137,99.218 541.47,99.218 541.47,118.468 545.386,118.468 
		545.386,100.968 548.386,100.968 	"/>
	<polygon class="st2" points="615.556,160.387 605.473,160.387 605.473,141.052 601.556,141.052 601.556,155.385 592.222,155.385 
		592.222,114.385 588.306,114.385 588.306,133.218 578.139,133.218 578.139,103.301 581.139,103.301 581.139,130.218 
		585.306,130.218 585.306,111.385 595.222,111.385 595.222,152.385 598.556,152.385 598.556,138.052 608.473,138.052 
		608.473,157.387 612.556,157.387 612.556,139.887 615.556,139.887 	"/>
	<polygon class="st2" points="655.387,133.222 645.387,133.222 645.387,130.472 646.887,130.472 646.887,130.222 652.387,130.222 
		652.387,115.388 655.387,115.388 	"/>
	<polygon class="st2" points="708.552,205.972 698.636,205.972 698.636,172.055 695.136,172.055 695.136,184.221 685.887,184.221 
		685.887,125.471 688.887,125.471 688.887,181.221 692.136,181.221 692.136,169.055 701.636,169.055 701.636,202.972 
		705.552,202.972 705.552,181.305 715.552,181.305 715.552,197.889 718.802,197.889 718.802,183.389 721.802,183.389 
		721.802,200.889 712.552,200.889 712.552,184.305 708.552,184.305 	"/>
</g>
<polygon class="st3" points="735.93,182.297 726.013,182.297 726.013,170.422 721.69,170.422 721.69,181.7 718.69,181.7 
	718.69,167.422 729.013,167.422 729.013,179.297 732.93,179.297 732.93,155.547 742.18,155.547 742.18,176.964 739.18,176.964 
	739.18,158.547 735.93,158.547 "/>
<polygon class="st3" points="668.684,131.211 658.684,131.211 658.684,105.461 655.257,105.461 655.257,113.627 652.257,113.627 
	652.257,102.461 661.684,102.461 661.684,128.211 665.684,128.211 665.684,107.294 675.684,107.294 675.684,121.461 
	679.017,121.461 679.017,109.544 688.851,109.544 688.851,123.794 685.851,123.794 685.851,112.544 682.017,112.544 
	682.017,124.461 672.684,124.461 672.684,110.294 668.684,110.294 "/>
<polygon class="st3" points="628.848,141.211 618.766,141.211 618.766,124.795 615.454,124.795 615.454,138.128 612.454,138.128 
	612.454,121.795 621.766,121.795 621.766,138.211 625.848,138.211 625.848,82.794 635.099,82.794 635.099,126.544 638.433,126.544 
	638.433,111.794 648.308,111.794 648.308,128.71 645.308,128.71 645.308,114.794 641.433,114.794 641.433,129.544 632.099,129.544 
	632.099,85.794 628.848,85.794 "/>
<polygon class="st3" points="561.683,105.044 552.349,105.044 552.349,78.544 548.297,78.544 548.297,99.231 545.297,99.231 
	545.297,75.544 555.349,75.544 555.349,102.044 558.683,102.044 558.683,78.461 568.849,78.461 568.849,99.294 572.099,99.294 
	572.099,78.377 581.026,78.377 581.026,101.544 578.026,101.544 578.026,81.377 575.099,81.377 575.099,102.294 565.849,102.294 
	565.849,81.461 561.683,81.461 "/>
<polygon class="st3" points="508.685,82.878 498.518,82.878 498.518,51.877 495.268,51.877 495.268,72.648 492.268,72.648 
	492.268,48.877 501.518,48.877 501.518,79.878 505.685,79.878 505.685,53.795 514.768,53.795 514.768,81.888 511.768,81.888 
	511.768,56.795 508.685,56.795 "/>
<polygon class="st3" points="454.662,89.732 451.662,89.732 451.662,46.544 461.683,46.544 461.683,58.794 465.183,58.794 
	465.183,36.711 474.703,36.711 474.703,60.877 471.703,60.877 471.703,39.711 468.183,39.711 468.183,61.794 458.683,61.794 
	458.683,49.544 454.662,49.544 "/>
<polygon class="st3" points="442.266,121.627 432.183,121.627 432.183,87.877 428.006,87.877 428.006,92.127 425.006,92.127 
	425.006,84.877 435.183,84.877 435.183,118.627 439.266,118.627 439.266,87.794 448.339,87.794 448.339,120.95 445.339,120.95 
	445.339,90.794 442.266,90.794 "/>
<polygon class="st3" points="401.518,159.815 398.518,159.815 398.518,63.377 407.851,63.377 407.851,116.544 411.934,116.544 
	411.934,90.044 421.559,90.044 421.559,118.669 418.559,118.669 418.559,93.044 414.934,93.044 414.934,119.544 404.851,119.544 
	404.851,66.377 401.518,66.377 "/>
<polygon class="st3" points="361.767,182.461 351.767,182.461 351.767,144.128 347.626,144.128 347.626,178.69 344.626,178.69 
	344.626,141.128 354.767,141.128 354.767,179.461 358.767,179.461 358.767,150.544 367.841,150.544 367.841,181.575 
	364.841,181.575 364.841,153.544 361.767,153.544 "/>
<polygon class="st3" points="287.558,198.171 284.558,198.171 284.558,165.211 281.266,165.211 281.266,183.796 278.266,183.796 
	278.266,162.211 287.558,162.211 "/>
<polygon class="st3" points="227.6,209.044 218.267,209.044 218.267,160.879 214.266,160.879 214.266,178.879 211.266,178.879 
	211.266,157.879 221.267,157.879 221.267,206.044 224.6,206.044 224.6,179.294 234.517,179.294 234.517,203.711 238.433,203.711 
	238.433,189.462 247.766,189.462 247.766,201.128 251.85,201.128 251.85,181.795 261.766,181.795 261.766,193.628 265.1,193.628 
	265.1,181.795 274.141,181.795 274.141,196.003 271.141,196.003 271.141,184.795 268.1,184.795 268.1,196.628 258.766,196.628 
	258.766,184.795 254.85,184.795 254.85,204.128 244.766,204.128 244.766,192.462 241.433,192.462 241.433,206.711 231.517,206.711 
	231.517,182.294 227.6,182.294 "/>
<polygon class="st3" points="161.102,271.959 151.102,271.959 151.102,255.291 147.686,255.291 147.686,271.294 144.686,271.294 
	144.686,252.291 154.102,252.291 154.102,268.959 158.102,268.959 158.102,239.459 167.269,239.459 167.269,258.792 
	171.352,258.792 171.352,176.628 181.102,176.628 181.102,196.045 184.601,196.045 184.601,179.379 194.601,179.379 
	194.601,191.046 198.518,191.046 198.518,176.712 207.725,176.712 207.725,193.377 204.725,193.377 204.725,179.712 
	201.518,179.712 201.518,194.046 191.601,194.046 191.601,182.379 187.601,182.379 187.601,199.045 178.102,199.045 
	178.102,179.628 174.352,179.628 174.352,261.792 164.269,261.792 164.269,242.459 161.102,242.459 "/>
<polygon class="st3" points="121.185,274.791 111.185,274.791 111.185,221.457 107.852,221.457 107.852,241.877 104.852,241.877 
	104.852,218.457 114.185,218.457 114.185,271.791 118.185,271.791 118.185,247.458 127.435,247.458 127.435,274.211 
	124.435,274.211 124.435,250.458 121.185,250.458 "/>
<g>
	<g>
		<path class="st4" d="M180.008,334.114l-1.511,0.419l-0.312-1.199l2.267-0.72h1.02v8.456h-1.463V334.114z"/>
	</g>
</g>
<g>
	<g>
		<path class="st4" d="M271.275,339.906l2.89-2.458c1.151-0.983,1.571-1.512,1.571-2.267c0-0.828-0.588-1.308-1.355-1.308
			s-1.295,0.42-1.931,1.26l-1.056-0.828c0.804-1.115,1.595-1.751,3.094-1.751c1.643,0,2.771,1.008,2.771,2.507v0.023
			c0,1.319-0.695,2.039-2.183,3.251l-1.727,1.438h3.994v1.296h-6.068V339.906z"/>
	</g>
</g>
<g>
	<g>
		<path class="st4" d="M367.391,339.739l1.032-0.96c0.6,0.708,1.271,1.104,2.207,1.104c0.828,0,1.451-0.504,1.451-1.271v-0.023
			c0-0.828-0.755-1.296-1.931-1.296h-0.684l-0.24-0.923l2.267-2.411h-3.634v-1.283h5.553v1.104l-2.339,2.398
			c1.271,0.156,2.471,0.804,2.471,2.351v0.024c0,1.547-1.188,2.662-2.938,2.662C369.142,341.214,368.098,340.603,367.391,339.739z"
			/>
	</g>
</g>
<g>
	<g>
		<path class="st4" d="M400.581,360.95h1.595l2.003,6.225l2.063-6.249h1.247l2.063,6.249l2.003-6.225h1.548l-2.915,8.455h-1.283
			l-2.063-6.032l-2.063,6.032h-1.271L400.581,360.95z"/>
		<path class="st4" d="M415.221,360.95h6.225v1.319h-4.749v2.183h4.209v1.319h-4.209v2.255h4.809v1.319h-6.284V360.95z"/>
		<path class="st4" d="M423.86,360.95h6.225v1.319h-4.749v2.183h4.209v1.319h-4.209v2.255h4.809v1.319h-6.284V360.95z"/>
		<path class="st4" d="M432.501,360.95h1.475v4.222l3.994-4.222h1.823l-3.503,3.61l3.658,4.785h-1.799l-2.866-3.778l-1.308,1.344
			v2.435h-1.475V360.95z"/>
	</g>
</g>
<g>
	<g>
		<path class="st4" d="M466.555,339.188h-4.233l-0.276-1.056l4.666-5.518h1.259v5.361h1.199v1.212h-1.199v1.883h-1.415V339.188z
			 M466.555,337.976v-3.322l-2.759,3.322H466.555z"/>
	</g>
</g>
<g>
	<g>
		<path class="st4" d="M558.861,339.931l0.912-1.067c0.672,0.624,1.379,1.008,2.158,1.008c1.008,0,1.668-0.576,1.668-1.451v-0.024
			c0-0.852-0.72-1.392-1.739-1.392c-0.6,0-1.115,0.168-1.547,0.372l-0.888-0.588l0.239-4.113h5.025v1.308h-3.754l-0.132,1.967
			c0.396-0.145,0.768-0.24,1.331-0.24c1.632,0,2.927,0.863,2.927,2.639v0.023c0,1.716-1.26,2.843-3.118,2.843
			C560.661,341.214,559.653,340.698,558.861,339.931z"/>
	</g>
</g>
<g>
	<g>
		<path class="st4" d="M654.926,340.326c-0.636-0.636-1.02-1.511-1.02-3.202v-0.023c0-2.567,1.223-4.569,3.598-4.569
			c1.092,0,1.835,0.348,2.566,0.935l-0.791,1.14c-0.588-0.456-1.08-0.731-1.823-0.731c-1.463,0-1.991,1.523-2.015,2.675
			c0.491-0.516,1.115-0.852,2.015-0.852c1.619,0,2.927,0.959,2.927,2.639v0.023c0,1.667-1.355,2.854-3.118,2.854
			C656.232,341.214,655.489,340.891,654.926,340.326z M658.907,338.42v-0.024c0-0.84-0.672-1.463-1.715-1.463
			c-1.044,0-1.703,0.671-1.703,1.475v0.024c0,0.852,0.695,1.499,1.739,1.499C658.271,339.931,658.907,339.283,658.907,338.42z"/>
	</g>
</g>
<g>
	<g>
		<path class="st4" d="M755.644,333.97h-4.222v-1.295h5.901v1.115l-3.778,7.28h-1.667L755.644,333.97z"/>
	</g>
</g>
<g>
	<g>
		<path class="st4" d="M43.091,172.147l0.912-1.068c0.672,0.624,1.379,1.008,2.159,1.008c1.008,0,1.667-0.576,1.667-1.451v-0.024
			c0-0.852-0.72-1.392-1.739-1.392c-0.6,0-1.115,0.168-1.547,0.372l-0.887-0.588l0.24-4.114h5.025v1.308h-3.754l-0.132,1.967
			c0.396-0.144,0.768-0.24,1.331-0.24c1.631,0,2.926,0.863,2.926,2.638v0.024c0,1.715-1.259,2.843-3.118,2.843
			C44.89,173.43,43.883,172.914,43.091,172.147z"/>
		<path class="st4" d="M51.287,169.112v-0.024c0-2.398,1.463-4.341,3.67-4.341c2.195,0,3.646,1.919,3.646,4.317v0.024
			c0,2.399-1.463,4.342-3.67,4.342C52.726,173.43,51.287,171.511,51.287,169.112z M57.08,169.112v-0.024
			c0-1.655-0.852-3.01-2.147-3.01s-2.123,1.319-2.123,2.986v0.024c0,1.655,0.84,3.01,2.147,3.01S57.08,170.755,57.08,169.112z"/>
	</g>
</g>
<g>
	<g>
		<path class="st4" d="M41.38,19.28L39.869,19.7l-0.312-1.199l2.267-0.72h1.02v8.456H41.38V19.28z"/>
		<path class="st4" d="M45.281,22.063v-0.024c0-2.398,1.463-4.341,3.67-4.341c2.195,0,3.646,1.919,3.646,4.317v0.024
			c0,2.399-1.463,4.342-3.67,4.342C46.72,26.38,45.281,24.462,45.281,22.063z M51.074,22.063v-0.024c0-1.655-0.852-3.01-2.147-3.01
			s-2.123,1.319-2.123,2.986v0.024c0,1.655,0.84,3.01,2.147,3.01S51.074,23.706,51.074,22.063z"/>
		<path class="st4" d="M54.569,22.063v-0.024c0-2.398,1.463-4.341,3.67-4.341c2.195,0,3.646,1.919,3.646,4.317v0.024
			c0,2.399-1.463,4.342-3.67,4.342C56.008,26.38,54.569,24.462,54.569,22.063z M60.362,22.063v-0.024c0-1.655-0.852-3.01-2.147-3.01
			s-2.123,1.319-2.123,2.986v0.024c0,1.655,0.84,3.01,2.147,3.01S60.362,23.706,60.362,22.063z"/>
	</g>
</g>
<g>
	<g>
		<path class="st4" d="M47.249,316.144v-0.024c0-2.398,1.463-4.341,3.67-4.341c2.195,0,3.646,1.919,3.646,4.317v0.023
			c0,2.399-1.463,4.342-3.67,4.342C48.688,320.461,47.249,318.542,47.249,316.144z M53.042,316.144v-0.024
			c0-1.654-0.852-3.01-2.147-3.01s-2.123,1.319-2.123,2.986v0.023c0,1.655,0.839,3.011,2.146,3.011
			C52.227,319.13,53.042,317.786,53.042,316.144z"/>
	</g>
</g>
</svg>
