<svg height="400" version="1.1" width="700" xmlns="http://www.w3.org/2000/svg" id="raphael-paper-3" style="overflow: hidden; -webkit-tap-highlight-color: rgba(0, 0, 0, 0); user-select: none; cursor: default; vertical-align: middle; position: relative; left: -0.666687px; top: -0.395836px; background-color: rgb(255, 255, 255);"><desc></desc><defs><clipPath id="rr-DE26A07B-3EEF-4751-99E2-A6794240DFF0"><rect x="47" y="69.6" width="638" height="249.39999999999998" transform="matrix(1,0,0,1,0,0)"></rect></clipPath><clipPath id="rr-8D17DB26-ECC5-488F-9164-78BB896937A9"><rect x="47" y="69.6" width="638" height="249.39999999999998" transform="matrix(1,0,0,1,0,0)"></rect></clipPath><clipPath id="rr-EF5AAAB0-F768-43D2-AB49-D35C8AEFD99C"><rect x="45" y="67.6" width="642" height="253.39999999999998" transform="matrix(1,0,0,1,0,0)"></rect></clipPath><clipPath id="rr-551C7949-CFA5-4C60-B260-329A89C9CD2D"><rect x="45" y="67.6" width="642" height="253.39999999999998" transform="matrix(1,0,0,1,0,0)"></rect></clipPath><clipPath id="rr-33B9569D-CD1B-4ED8-A0CB-F0FB5428A3DA"><rect x="45" y="67.6" width="642" height="253.39999999999998" transform="matrix(1,0,0,1,0,0)"></rect></clipPath><clipPath id="rr-B4417F0D-2F79-4825-B6E1-678A2C808C38"><rect x="47" y="0" width="638" height="319" transform="matrix(1,0,0,1,0,0)"></rect></clipPath><clipPath id="rr-9C50130F-53DD-4EA7-92FF-B90CD444132B"><rect x="47" y="69.6" width="685" height="319" transform="matrix(1,0,0,1,0,0)"></rect></clipPath><clipPath id="rr-A5B8E60D-E8D1-43B6-A00E-9B29C87E003E"><rect x="47" y="69.6" width="685" height="319" transform="matrix(1,0,0,1,0,0)"></rect></clipPath></defs><g class="raphael-group-4-parentgroup"><g class="raphael-group-5-background"><rect x="0" y="0" width="700" height="400" stroke="none" fill-opacity="1" fill="#262a33" ry="0" rx="0"></rect><rect x="0" y="0" width="700" height="400" stroke="#767575" stroke-opacity="0.5" stroke-width="0" stroke-dasharray="none" fill="none" ry="0" rx="0"></rect></g><g class="raphael-group-27-canvas"><rect x="47" y="69.6" width="638" height="249.39999999999998" ry="0" rx="0" stroke-width="0" stroke="none" fill-opacity="0" fill="#ffffff"></rect></g><g class="raphael-group-6-axisbottom"><g class="raphael-group-102-dataset-Name-group"><g class="raphael-group-111-dataset-axis-name"></g></g><g class="raphael-group-105-dataset-Label-group"><g class="raphael-group-107-dataset-axis" transform="matrix(1,0,0,1,0,0)" font-family="Fira Sans Light" font-size="13px" font-weight="normal" font-style="normal" style="font-family: &quot;Fira Sans Light&quot;; font-size: 13px; font-weight: normal; font-style: normal;"><text transform="matrix(1,0,0,1,0,0)" opacity="1" fill-opacity="1" fill="#999ca5" font-size="13px" text-anchor="end" x="41" stroke="none" y="323" style="font-size: 13px; text-anchor: end;">$0</text><text transform="matrix(1,0,0,1,0,0)" opacity="1" fill-opacity="1" fill="#999ca5" font-size="13px" text-anchor="end" x="41" stroke="none" y="273" style="font-size: 13px; text-anchor: end;">$100</text><text transform="matrix(1,0,0,1,0,0)" opacity="1" fill-opacity="1" fill="#999ca5" font-size="13px" text-anchor="end" x="41" stroke="none" y="223" style="font-size: 13px; text-anchor: end;">$200</text><text transform="matrix(1,0,0,1,0,0)" opacity="1" fill-opacity="1" fill="#999ca5" font-size="13px" text-anchor="end" x="41" stroke="none" y="173" style="font-size: 13px; text-anchor: end;">$300</text><text transform="matrix(1,0,0,1,0,0)" opacity="1" fill-opacity="1" fill="#999ca5" font-size="13px" text-anchor="end" x="41" stroke="none" y="123" style="font-size: 13px; text-anchor: end;">$400</text><text transform="matrix(1,0,0,1,0,0)" opacity="1" fill-opacity="1" fill="#999ca5" font-size="13px" text-anchor="end" x="41" stroke="none" y="74" style="font-size: 13px; text-anchor: end;">$500</text></g></g><g class="raphael-group-112-axis-line-tick-bottom"></g><g class="raphael-group-119-dataset-Name-group"><g class="raphael-group-128-dataset-axis-name"></g></g><g class="raphael-group-122-dataset-Label-group"><g class="raphael-group-124-dataset-axis" transform="matrix(1,0,0,1,0,0)" font-family="Fira Sans Light" font-size="13px" font-weight="normal" font-style="normal" style="font-family: &quot;Fira Sans Light&quot;; font-size: 13px; font-weight: normal; font-style: normal;"><text transform="matrix(0,-1,1,0,-261.2105,388.7895)" opacity="1" fill-opacity="1" fill="#f6f6f6" x="63.78947368421053" text-anchor="end" stroke="none" y="329" style="text-anchor: end;">Day 2</text><text transform="matrix(0,-1,1,0,-227.6316,422.3684)" opacity="1" fill-opacity="1" fill="#f6f6f6" x="97.36842105263159" text-anchor="end" stroke="none" y="329" style="text-anchor: end;">Day 3</text><text transform="matrix(0,-1,1,0,-194.0526,455.9474)" opacity="1" fill-opacity="1" fill="#f6f6f6" x="130.94736842105263" text-anchor="end" stroke="none" y="329" style="text-anchor: end;">Day 5</text><text transform="matrix(0,-1,1,0,-160.4737,489.5263)" opacity="1" fill-opacity="1" fill="#f6f6f6" x="164.52631578947367" text-anchor="end" stroke="none" y="329" style="text-anchor: end;">Day 6</text><text transform="matrix(0,-1,1,0,-126.8947,523.1053)" opacity="1" fill-opacity="1" fill="#f6f6f6" x="198.10526315789474" text-anchor="end" stroke="none" y="329" style="text-anchor: end;">Day 7</text><text transform="matrix(0,-1,1,0,-93.3158,556.6842)" opacity="1" fill-opacity="1" fill="#f6f6f6" x="231.68421052631578" text-anchor="end" stroke="none" y="329" style="text-anchor: end;">Day 8</text><text transform="matrix(0,-1,1,0,-59.7368,590.2632)" opacity="1" fill-opacity="1" fill="#f6f6f6" x="265.2631578947368" text-anchor="end" stroke="none" y="329" style="text-anchor: end;">Day 9</text><text transform="matrix(0,-1,1,0,-26.1579,623.8421)" opacity="1" fill-opacity="1" fill="#f6f6f6" x="298.8421052631579" text-anchor="end" stroke="none" y="329" style="text-anchor: end;">Day 10</text><text transform="matrix(0,-1,1,0,7.4211,657.4211)" opacity="1" fill-opacity="1" fill="#f6f6f6" x="332.42105263157896" text-anchor="end" stroke="none" y="329" style="text-anchor: end;">Day 12</text><text transform="matrix(0,-1,1,0,41,691)" opacity="1" fill-opacity="1" fill="#f6f6f6" x="366" text-anchor="end" stroke="none" y="329" style="text-anchor: end;">Day 13</text><text transform="matrix(0,-1,1,0,74.5789,724.5789)" opacity="1" fill-opacity="1" fill="#f6f6f6" x="399.57894736842104" text-anchor="end" stroke="none" y="329" style="text-anchor: end;">Day 15</text><text transform="matrix(0,-1,1,0,108.1579,758.1579)" opacity="1" fill-opacity="1" fill="#f6f6f6" x="433.15789473684214" text-anchor="end" stroke="none" y="329" style="text-anchor: end;">Day 17</text><text transform="matrix(0,-1,1,0,141.7368,791.7368)" opacity="1" fill-opacity="1" fill="#f6f6f6" x="466.7368421052631" text-anchor="end" stroke="none" y="329" style="text-anchor: end;">Day 19</text><text transform="matrix(0,-1,1,0,175.3158,825.3158)" opacity="1" fill-opacity="1" fill="#f6f6f6" x="500.3157894736842" text-anchor="end" stroke="none" y="329" style="text-anchor: end;">Day 21</text><text transform="matrix(0,-1,1,0,208.8947,858.8947)" opacity="1" fill-opacity="1" fill="#f6f6f6" x="533.8947368421053" text-anchor="end" stroke="none" y="329" style="text-anchor: end;">Day 23</text><text transform="matrix(0,-1,1,0,242.4737,892.4737)" opacity="1" fill-opacity="1" fill="#f6f6f6" x="567.4736842105264" text-anchor="end" stroke="none" y="329" style="text-anchor: end;">Day 25</text><text transform="matrix(0,-1,1,0,276.0526,926.0526)" opacity="1" fill-opacity="1" fill="#f6f6f6" x="601.0526315789474" text-anchor="end" stroke="none" y="329" style="text-anchor: end;">Day 26</text><text transform="matrix(0,-1,1,0,309.6316,959.6316)" opacity="1" fill-opacity="1" fill="#f6f6f6" x="634.6315789473684" text-anchor="end" stroke="none" y="329" style="text-anchor: end;">Day 28</text><text transform="matrix(0,-1,1,0,343.2105,993.2105)" opacity="1" fill-opacity="1" fill="#f6f6f6" x="668.2105263157895" text-anchor="end" stroke="none" y="329" style="text-anchor: end;">Day 30</text></g></g><g class="raphael-group-129-axis-line-tick-bottom"></g></g><g class="raphael-group-29-axisReferenceVisualsFloor" clip-path="url('#rr-DE26A07B-3EEF-4751-99E2-A6794240DFF0')"></g><g class="raphael-group-28-axisReferenceVisualsBottom"><path stroke-dasharray="none" stroke="#4b4b4b" stroke-opacity="0.5" stroke-width="0.5" d="M47,319.5L685,319.5" stroke-linecap="butt" fill="none"></path><path stroke-dasharray="none" stroke="#4b4b4b" stroke-opacity="0.5" stroke-width="0.5" d="M47,269.5L685,269.5" stroke-linecap="butt" fill="none"></path><path stroke-dasharray="none" stroke="#4b4b4b" stroke-opacity="0.5" stroke-width="0.5" d="M47,219.5L685,219.5" stroke-linecap="butt" fill="none"></path><path stroke-dasharray="none" stroke="#4b4b4b" stroke-opacity="0.5" stroke-width="0.5" d="M47,169.5L685,169.5" stroke-linecap="butt" fill="none"></path><path stroke-dasharray="none" stroke="#4b4b4b" stroke-opacity="0.5" stroke-width="0.5" d="M47,119.5L685,119.5" stroke-linecap="butt" fill="none"></path><path stroke-dasharray="none" stroke="#4b4b4b" stroke-opacity="0.5" stroke-width="0.5" d="M47,69.5L685,69.5" stroke-linecap="butt" fill="none"></path></g><g class="raphael-group-7-belowplot"></g><g class="raphael-group-30-crossline"></g><g class="raphael-group-31-crosslineBottom"></g><g class="raphael-group-34-axisReferenceVisualsMiddle" clip-path="url('#rr-8D17DB26-ECC5-488F-9164-78BB896937A9')"></g><g class="raphael-group-36-quadrant" clip-path="url('#rr-33B9569D-CD1B-4ED8-A0CB-F0FB5428A3DA')"></g><g class="raphael-group-8-plots" clip-path="url('#rr-EF5AAAB0-F768-43D2-AB49-D35C8AEFD99C')"><g class="raphael-group-38-column-shadow-group"><g class="raphael-group-53-vcanvas-column-shadow" transform="matrix(1,0,0,1,0,0)"></g></g><g class="raphael-group-39-column"><g class="raphael-group-54-vcanvas-column-plot" transform="matrix(1,0,0,1,0,0)"><g class="raphael-group-62-columnTrendGroup"></g></g></g><g class="raphael-group-40-area-shadow-group"><g class="raphael-group-55-vcanvas-area-shadow" transform="matrix(1,0,0,1,0,0)"></g></g><g class="raphael-group-41-area"><g class="raphael-group-56-vcanvas-area-plot" transform="matrix(1,0,0,1,0,0)"></g></g><g class="raphael-group-42-line-shadow-group"><g class="raphael-group-57-vcanvas-line-shadow" transform="matrix(1,0,0,1,0,0)"><g class="raphael-group-64-shadow-group"></g><g class="raphael-group-65-error-shadow-group"></g></g></g><g class="raphael-group-43-line"><g class="raphael-group-58-vcanvas-line-plot" transform="matrix(1,0,0,1,0,0)"><g class="raphael-group-66-common-elems-group"><path clip-path="" stroke="#6ec85a" stroke-opacity="1" stroke-linecap="round" stroke-linejoin="round" stroke-width="2" stroke-dasharray="none" d="M97,166.37V118.98M97.36842105263159,119H130.94736842105266M131,118.98V168.86M131,168.86V184.82M232,199.29V179.34M231.68421052631587,179H265.26315789473693M265,179.34V224.23M265.26315789473693,224H298.842105263158M299,224.23V142.92M298.842105263158,143H332.421052631579M332,142.92V224.23M567,213.25V209.26M567.4736842105264,209H601.0526315789474M601,209.26V223.73M635,209.26V129.46M634.6315789473684,129H668.2105263157895M668,129.46V232.71" fill="none"></path><path clip-path="" stroke="#e64141" stroke-opacity="1" stroke-linecap="round" stroke-linejoin="round" stroke-width="2" stroke-dasharray="none" d="M47,166H63.78947368421053M64,166.37V184.82M63.78947368421053,185H97.36842105263159M97,184.82V166.37M131,184.82V214.75M130.94736842105266,215H164.52631578947373M165,214.75V199.29M164.52631578947373,199H198.1052631578948M198,199.29V239.19M198.1052631578948,239H231.68421052631587M232,239.19V199.29M332,224.23V255.15M332.421052631579,255H366.00000000000006M366,255.15V144.42M366.00000000000006,144H399.5789473684211M400,144.42V273.11M399.5789473684211,273H433.15789473684214M433,273.11V156.39M433.15789473684214,156H466.7368421052632M467,156.39V226.22M466.7368421052632,226H500.3157894736842M500,226.22V213.25M500.3157894736842,213H533.8947368421053M534,213.25V223.73M533.8947368421053,224H567.4736842105264M567,223.73V213.25M601,223.73V232.71M601.0526315789474,233H634.6315789473684M635,232.71V209.26M668,232.71V286.58" fill="none"></path></g><g class="raphael-group-67-plot-group"><path d="M63.78947368421053,166.37L63.78947368421053,166.37Z" fill-opacity="0" fill="#ffffff" stroke="#36b5d8" stroke-opacity="0" stroke-width="1" stroke-linecap="round" style=""></path><path d="M63.78947368421053,184.82L63.78947368421053,184.82Z" fill-opacity="0" fill="#ffffff" stroke="#36b5d8" stroke-opacity="0" stroke-width="1" stroke-linecap="round" style=""></path><path d="M97.36842105263159,118.98L97.36842105263159,118.98Z" fill-opacity="0" fill="#ffffff" stroke="#36b5d8" stroke-opacity="0" stroke-width="1" stroke-linecap="round" style=""></path><path d="M130.94736842105263,168.86L130.94736842105263,168.86Z" fill-opacity="0" fill="#ffffff" stroke="#36b5d8" stroke-opacity="0" stroke-width="1" stroke-linecap="round" style=""></path><path d="M130.94736842105263,214.75L130.94736842105263,214.75Z" fill-opacity="0" fill="#ffffff" stroke="#36b5d8" stroke-opacity="0" stroke-width="1" stroke-linecap="round" style=""></path><path d="M164.52631578947367,199.29L164.52631578947367,199.29Z" fill-opacity="0" fill="#ffffff" stroke="#36b5d8" stroke-opacity="0" stroke-width="1" stroke-linecap="round" style=""></path><path d="M198.10526315789474,239.19L198.10526315789474,239.19Z" fill-opacity="0" fill="#ffffff" stroke="#36b5d8" stroke-opacity="0" stroke-width="1" stroke-linecap="round" style=""></path><path d="M231.68421052631578,179.34L231.68421052631578,179.34Z" fill-opacity="0" fill="#ffffff" stroke="#36b5d8" stroke-opacity="0" stroke-width="1" stroke-linecap="round" style=""></path><path d="M265.2631578947368,224.23L265.2631578947368,224.23Z" fill-opacity="0" fill="#ffffff" stroke="#36b5d8" stroke-opacity="0" stroke-width="1" stroke-linecap="round" style=""></path><path d="M298.8421052631579,142.92L298.8421052631579,142.92Z" fill-opacity="0" fill="#ffffff" stroke="#36b5d8" stroke-opacity="0" stroke-width="1" stroke-linecap="round" style=""></path><path d="M332.42105263157896,255.15L332.42105263157896,255.15Z" fill-opacity="0" fill="#ffffff" stroke="#36b5d8" stroke-opacity="0" stroke-width="1" stroke-linecap="round" style=""></path><path d="M332.42105263157896,255.15L332.42105263157896,255.15Z" fill-opacity="0" fill="#ffffff" stroke="#36b5d8" stroke-opacity="0" stroke-width="1" stroke-linecap="round" style=""></path><path d="M366,144.42L366,144.42Z" fill-opacity="0" fill="#ffffff" stroke="#36b5d8" stroke-opacity="0" stroke-width="1" stroke-linecap="round" style=""></path><path d="M399.57894736842104,273.11L399.57894736842104,273.11Z" fill-opacity="0" fill="#ffffff" stroke="#36b5d8" stroke-opacity="0" stroke-width="1" stroke-linecap="round" style=""></path><path d="M399.57894736842104,273.11L399.57894736842104,273.11Z" fill-opacity="0" fill="#ffffff" stroke="#36b5d8" stroke-opacity="0" stroke-width="1" stroke-linecap="round" style=""></path><path d="M433.15789473684214,156.39L433.15789473684214,156.39Z" fill-opacity="0" fill="#ffffff" stroke="#36b5d8" stroke-opacity="0" stroke-width="1" stroke-linecap="round" style=""></path><path d="M433.15789473684214,156.39L433.15789473684214,156.39Z" fill-opacity="0" fill="#ffffff" stroke="#36b5d8" stroke-opacity="0" stroke-width="1" stroke-linecap="round" style=""></path><path d="M466.7368421052631,226.22L466.7368421052631,226.22Z" fill-opacity="0" fill="#ffffff" stroke="#36b5d8" stroke-opacity="0" stroke-width="1" stroke-linecap="round" style=""></path><path d="M466.7368421052631,226.22L466.7368421052631,226.22Z" fill-opacity="0" fill="#ffffff" stroke="#36b5d8" stroke-opacity="0" stroke-width="1" stroke-linecap="round" style=""></path><path d="M500.3157894736842,213.25L500.3157894736842,213.25Z" fill-opacity="0" fill="#ffffff" stroke="#36b5d8" stroke-opacity="0" stroke-width="1" stroke-linecap="round" style=""></path><path d="M500.3157894736842,213.25L500.3157894736842,213.25Z" fill-opacity="0" fill="#ffffff" stroke="#36b5d8" stroke-opacity="0" stroke-width="1" stroke-linecap="round" style=""></path><path d="M533.8947368421053,223.73L533.8947368421053,223.73Z" fill-opacity="0" fill="#ffffff" stroke="#36b5d8" stroke-opacity="0" stroke-width="1" stroke-linecap="round" style=""></path><path d="M533.8947368421053,223.73L533.8947368421053,223.73Z" fill-opacity="0" fill="#ffffff" stroke="#36b5d8" stroke-opacity="0" stroke-width="1" stroke-linecap="round" style=""></path><path d="M567.4736842105264,209.26L567.4736842105264,209.26Z" fill-opacity="0" fill="#ffffff" stroke="#36b5d8" stroke-opacity="0" stroke-width="1" stroke-linecap="round" style=""></path><path d="M567.4736842105264,209.26L567.4736842105264,209.26Z" fill-opacity="0" fill="#ffffff" stroke="#36b5d8" stroke-opacity="0" stroke-width="1" stroke-linecap="round" style=""></path><path d="M601.0526315789474,232.71L601.0526315789474,232.71Z" fill-opacity="0" fill="#ffffff" stroke="#36b5d8" stroke-opacity="0" stroke-width="1" stroke-linecap="round" style=""></path><path d="M634.6315789473684,129.46L634.6315789473684,129.46Z" fill-opacity="0" fill="#ffffff" stroke="#36b5d8" stroke-opacity="0" stroke-width="1" stroke-linecap="round" style=""></path><path d="M634.6315789473684,129.46L634.6315789473684,129.46Z" fill-opacity="0" fill="#ffffff" stroke="#36b5d8" stroke-opacity="0" stroke-width="1" stroke-linecap="round" style=""></path><path d="M668.2105263157895,286.58L668.2105263157895,286.58Z" fill-opacity="0" fill="#ffffff" stroke="#36b5d8" stroke-opacity="0" stroke-width="1" stroke-linecap="round" style=""></path><path d="M668.2105263157895,286.58L668.2105263157895,286.58Z" fill-opacity="0" fill="#ffffff" stroke="#36b5d8" stroke-opacity="0" stroke-width="1" stroke-linecap="round" style=""></path></g><g class="raphael-group-68-error-plot-group"></g></g></g><g class="raphael-group-44-default-shadow-group"><g class="raphael-group-59-vcanvas-default-shadow" transform="matrix(1,0,0,1,0,0)"></g></g><g class="raphael-group-45-default"><g class="raphael-group-60-vcanvas-default-plot" transform="matrix(1,0,0,1,0,0)"></g></g></g><g class="raphael-group-9-scrollbar-container"></g><g class="raphael-group-10-axistop"><g class="raphael-group-103-axis-Line-group"><g class="raphael-group-109-axis-line-tick"></g></g><g class="raphael-group-104-dataset-Trend-group-top"><g class="raphael-group-110-dataset-axis-trend-label"></g></g><g class="raphael-group-106-dataset-Label-group"><g class="raphael-group-108-dataset-top-label" transform="matrix(1,0,0,1,0,0)"></g></g><g class="raphael-group-120-axis-Line-group"><g class="raphael-group-126-axis-line-tick"></g></g><g class="raphael-group-121-dataset-Trend-group-top"><g class="raphael-group-127-dataset-axis-trend-label"></g></g><g class="raphael-group-123-dataset-Label-group"><g class="raphael-group-125-dataset-top-label" transform="matrix(1,0,0,1,0,0)"></g></g></g><g class="raphael-group-11-sumlabels fusioncharts-datalabels" clip-path="url('#rr-B4417F0D-2F79-4825-B6E1-678A2C808C38')"><g class="raphael-group-63-vcanvas-sumLabelsLayer" transform="matrix(1,0,0,1,0,0)"></g></g><g class="raphael-group-35-axisReferenceVisualsTop"></g><g class="raphael-group-37-axisReferenceVisualsCeil"></g><g class="raphael-group-12-datalabel" font-family="Fira Sans Regular" font-size="14px" font-weight="bold" font-style="normal" clip-path="url('#rr-551C7949-CFA5-4C60-B260-329A89C9CD2D')" style="font-family: &quot;Fira Sans Regular&quot;; font-size: 14px; font-weight: bold; font-style: normal;"><g class="raphael-group-33-canvasdatalabel"><g class="raphael-group-61-vcanvas-label" transform="matrix(1,0,0,1,0,0)"><g class="raphael-group-69-label-group fusioncharts-datalabels"></g></g></g></g><g class="raphael-group-32-crosslineTop"></g><g class="raphael-group-13-aboveplot"></g><g class="raphael-group-14-caption"><text fill-opacity="1" fill="#f6f6f6" x="366" text-anchor="middle" stroke="none" y="31" font-family="Fira Sans Regular" font-size="18px" font-weight="normal" style="text-anchor: middle; font-family: &quot;Fira Sans Regular&quot;; font-size: 18px; font-weight: normal;">S&amp;P 500 Index Daily Price Chart</text><text fill-opacity="1" fill="#999ca5" x="366" text-anchor="middle" stroke="none" y="52" font-family="Fira Sans Light" font-size="15px" font-weight="normal" style="text-anchor: middle; font-family: &quot;Fira Sans Light&quot;; font-size: 15px; font-weight: normal;">Last 30 days</text></g><g class="raphael-group-15-chartdefault"></g><g class="raphael-group-16-chartdefault-shadow"></g><g class="raphael-group-17-tracker"></g><g class="raphael-group-18-logo"></g><g class="raphael-group-19-selectorGroup"></g><g class="raphael-group-20-toolbar-master"><g class="raphael-group-25-toolbar"><rect fill-opacity="0" fill="#eeeeee" stroke="#eeeeee" stroke-opacity="0" stroke-width="1" width="0" height="0" x="690" y="6" ry="0" rx="0"></rect></g></g></g><rect x="0" y="0" width="10" height="30" ry="0" rx="0" fill="none" stroke="#000000" style="display: none;"></rect></svg>