<svg aria-label="Disabled Worker Incidence Rates, 1991–2013Awards per thousand, adjusted for distributions of age and​sex" role="img" viewBox="0 0 745 500" height="500" width="745" xmlns="http://www.w3.org/2000/svg" style="font-family: Lato, sans-serif; font-size: 1rem;" class="highcharts-root" version="1.1" xmlns:xlink="http://www.w3.org/1999/xlink"><desc>Created with Highcharts 11.4.6</desc><defs><filter id="highcharts-drop-shadow-1"><fedropshadow stdDeviation="2.5" flood-opacity="0.75" flood-color="#000000" dy="1" dx="1"></fedropshadow></filter><clipPath id="highcharts-7kilz1g-99-"><rect fill="none" height="359" width="703" y="0" x="0"></rect></clipPath></defs><rect ry="0" rx="0" height="500" width="745" y="0" x="0" filter="none" class="highcharts-background" fill="#ffffff"></rect><rect filter="none" height="360" width="703" y="90" x="32" class="highcharts-plot-background" fill="none"></rect><g data-z-index="0" class="highcharts-plot-lines-0"><path visibility="hidden" d="M 32.5 90 L 32.5 450" stroke-width="0" stroke="#999999" class="highcharts-plot-line" fill="none"></path></g><g data-z-index="0" class="highcharts-plot-bands-0"><path d="M 32.5 90 L 32.5 450 L 37.5 450 L 37.5 90 Z" class="highcharts-plot-band" fill="#cfe8f3"></path><path d="M 356.5 90 L 356.5 450 L 375.5 450 L 375.5 90 Z" class="highcharts-plot-band" fill="#cfe8f3"></path><path d="M 572.5 90 L 572.5 450 L 620.5 450 L 620.5 90 Z" class="highcharts-plot-band" fill="#cfe8f3"></path></g><g data-z-index="1" class="highcharts-grid highcharts-xaxis-grid"><path opacity="1" d="M 319 90 L 319 450" class="highcharts-grid-line" data-z-index="1" stroke-dasharray="none" stroke-width="0" stroke-opacity="0.5" stroke="rgb(219,219,216)" fill="none"></path><path opacity="1" d="M 639 90 L 639 450" class="highcharts-grid-line" data-z-index="1" stroke-dasharray="none" stroke-width="0" stroke-opacity="0.5" stroke="rgb(219,219,216)" fill="none"></path><path opacity="1" d="M 64 90 L 64 450" class="highcharts-grid-line" data-z-index="1" stroke-dasharray="none" stroke-width="0" stroke-opacity="0.5" stroke="rgb(219,219,216)" fill="none"></path><path opacity="1" d="M 128 90 L 128 450" class="highcharts-grid-line" data-z-index="1" stroke-dasharray="none" stroke-width="0" stroke-opacity="0.5" stroke="rgb(219,219,216)" fill="none"></path><path opacity="1" d="M 192 90 L 192 450" class="highcharts-grid-line" data-z-index="1" stroke-dasharray="none" stroke-width="0" stroke-opacity="0.5" stroke="rgb(219,219,216)" fill="none"></path><path opacity="1" d="M 256 90 L 256 450" class="highcharts-grid-line" data-z-index="1" stroke-dasharray="none" stroke-width="0" stroke-opacity="0.5" stroke="rgb(219,219,216)" fill="none"></path><path opacity="1" d="M 383 90 L 383 450" class="highcharts-grid-line" data-z-index="1" stroke-dasharray="none" stroke-width="0" stroke-opacity="0.5" stroke="rgb(219,219,216)" fill="none"></path><path opacity="1" d="M 447 90 L 447 450" class="highcharts-grid-line" data-z-index="1" stroke-dasharray="none" stroke-width="0" stroke-opacity="0.5" stroke="rgb(219,219,216)" fill="none"></path><path opacity="1" d="M 511 90 L 511 450" class="highcharts-grid-line" data-z-index="1" stroke-dasharray="none" stroke-width="0" stroke-opacity="0.5" stroke="rgb(219,219,216)" fill="none"></path><path opacity="1" d="M 575 90 L 575 450" class="highcharts-grid-line" data-z-index="1" stroke-dasharray="none" stroke-width="0" stroke-opacity="0.5" stroke="rgb(219,219,216)" fill="none"></path><path opacity="1" d="M 703 90 L 703 450" class="highcharts-grid-line" data-z-index="1" stroke-dasharray="none" stroke-width="0" stroke-opacity="0.5" stroke="rgb(219,219,216)" fill="none"></path></g><g data-z-index="1" class="highcharts-grid highcharts-yaxis-grid"><path opacity="1" d="M 32 450.5 L 735 450.5" class="highcharts-grid-line" data-z-index="1" stroke-dasharray="none" stroke-width="1" stroke-opacity="0.5" stroke="rgb(219,219,216)" fill="none"></path><path opacity="1" d="M 32 360.5 L 735 360.5" class="highcharts-grid-line" data-z-index="1" stroke-dasharray="none" stroke-width="1" stroke-opacity="0.5" stroke="rgb(219,219,216)" fill="none"></path><path opacity="1" d="M 32 270.5 L 735 270.5" class="highcharts-grid-line" data-z-index="1" stroke-dasharray="none" stroke-width="1" stroke-opacity="0.5" stroke="rgb(219,219,216)" fill="none"></path><path opacity="1" d="M 32 180.5 L 735 180.5" class="highcharts-grid-line" data-z-index="1" stroke-dasharray="none" stroke-width="1" stroke-opacity="0.5" stroke="rgb(219,219,216)" fill="none"></path><path opacity="1" d="M 32 90.5 L 735 90.5" class="highcharts-grid-line" data-z-index="1" stroke-dasharray="none" stroke-width="1" stroke-opacity="0.5" stroke="rgb(219,219,216)" fill="none"></path><path opacity="1" d="M 32 405.5 L 735 405.5" class="highcharts-grid-line" data-z-index="1" stroke-dasharray="none" stroke-width="1" stroke-opacity="0.5" stroke="rgb(219,219,216)" fill="none"></path><path opacity="1" d="M 32 315.5 L 735 315.5" class="highcharts-grid-line" data-z-index="1" stroke-dasharray="none" stroke-width="1" stroke-opacity="0.5" stroke="rgb(219,219,216)" fill="none"></path><path opacity="1" d="M 32 225.5 L 735 225.5" class="highcharts-grid-line" data-z-index="1" stroke-dasharray="none" stroke-width="1" stroke-opacity="0.5" stroke="rgb(219,219,216)" fill="none"></path><path opacity="1" d="M 32 135.5 L 735 135.5" class="highcharts-grid-line" data-z-index="1" stroke-dasharray="none" stroke-width="1" stroke-opacity="0.5" stroke="rgb(219,219,216)" fill="none"></path></g><rect height="360" width="703" y="90" x="32" stroke-width="0" stroke="#cccccc" data-z-index="1" class="highcharts-plot-border" fill="none"></rect><g data-z-index="2" class="highcharts-axis highcharts-xaxis"><path opacity="1" d="M 319.5 450 L 319.5 460" stroke-width="1" stroke="#333333" class="highcharts-tick" fill="none"></path><path opacity="1" d="M 639.5 450 L 639.5 460" stroke-width="1" stroke="#333333" class="highcharts-tick" fill="none"></path><path opacity="1" d="M 63.5 450 L 63.5 460" stroke-width="1" stroke="#333333" class="highcharts-tick" fill="none"></path><path opacity="1" d="M 127.5 450 L 127.5 460" stroke-width="1" stroke="#333333" class="highcharts-tick" fill="none"></path><path opacity="1" d="M 191.5 450 L 191.5 460" stroke-width="1" stroke="#333333" class="highcharts-tick" fill="none"></path><path opacity="1" d="M 255.5 450 L 255.5 460" stroke-width="1" stroke="#333333" class="highcharts-tick" fill="none"></path><path opacity="1" d="M 383.5 450 L 383.5 460" stroke-width="1" stroke="#333333" class="highcharts-tick" fill="none"></path><path opacity="1" d="M 447.5 450 L 447.5 460" stroke-width="1" stroke="#333333" class="highcharts-tick" fill="none"></path><path opacity="1" d="M 511.5 450 L 511.5 460" stroke-width="1" stroke="#333333" class="highcharts-tick" fill="none"></path><path opacity="1" d="M 575.5 450 L 575.5 460" stroke-width="1" stroke="#333333" class="highcharts-tick" fill="none"></path><path opacity="1" d="M 702.5 450 L 702.5 460" stroke-width="1" stroke="#333333" class="highcharts-tick" fill="none"></path><path d="M 32 450 L 735 450" data-z-index="7" stroke-width="2" stroke="#333333" class="highcharts-axis-line" fill="none"></path></g><g data-z-index="2" class="highcharts-axis highcharts-yaxis"><path d="M 32 90 L 32 450" data-z-index="7" stroke-width="0" stroke="#333333" class="highcharts-axis-line" fill="none"></path></g><g filter="none" data-z-index="3" class="highcharts-series-group"><g clip-path="url(#highcharts-7kilz1g-99-)" transform="translate(32,90) scale(1 1)" opacity="1" data-z-index="0.1" class="highcharts-series highcharts-series-0 highcharts-line-series highcharts-color-0"><path filter="none" stroke-linecap="round" stroke-linejoin="round" stroke-width="2" stroke="#1696d2" data-z-index="1" class="highcharts-graph" d="M 0 130.5 L 31.93068690891 94.5 L 63.948855151817 99 L 95.879542060727 108 L 127.81022896964 108 L 159.74091587855 121.5 L 191.75908412145 139.5 L 223.68977103036 139.5 L 255.62045793927 139.5 L 287.55114484818 148.5 L 319.56931309109 130.5 L 351.5 117 L 383.43068690891 117 L 415.36137381782 117 L 447.37954206073 112.5 L 479.31022896964 126 L 511.24091587855 126 L 543.17160278746 112.5 L 575.18977103036 85.5 L 607.12045793927 72 L 639.05114484818 85.5 L 670.98183175709 99 L 703 126" fill="none"></path></g><g clip-path="none" transform="translate(32,90) scale(1 1)" opacity="1" data-z-index="0.1" class="highcharts-markers highcharts-series-0 highcharts-line-series highcharts-color-0"><path class="highcharts-point highcharts-color-0" opacity="1" stroke-width="2" stroke="#1696d2" d="M 0.5000000000000002 133.5 A 3 3 0 1 1 0.5001999999998541 133.49999999333335 Z" fill="#ffffff"></path><path class="highcharts-point highcharts-color-0" opacity="1" stroke-width="2" stroke="#1696d2" d="M 31.5 97.5 A 3 3 0 1 1 31.500199999999854 97.49999999333333 Z" fill="#ffffff"></path><path class="highcharts-point highcharts-color-0" opacity="1" stroke-width="2" stroke="#1696d2" d="M 63.5 102 A 3 3 0 1 1 63.50019999999986 101.99999999333333 Z" fill="#ffffff"></path><path class="highcharts-point highcharts-color-0" opacity="1" stroke-width="2" stroke="#1696d2" d="M 95.5 111 A 3 3 0 1 1 95.50019999999985 110.99999999333333 Z" fill="#ffffff"></path><path class="highcharts-point highcharts-color-0" opacity="1" stroke-width="2" stroke="#1696d2" d="M 127.5 111 A 3 3 0 1 1 127.50019999999985 110.99999999333333 Z" fill="#ffffff"></path><path class="highcharts-point highcharts-color-0" opacity="1" stroke-width="2" stroke="#1696d2" d="M 159.5 124.5 A 3 3 0 1 1 159.50019999999986 124.49999999333333 Z" fill="#ffffff"></path><path class="highcharts-point highcharts-color-0" opacity="1" stroke-width="2" stroke="#1696d2" d="M 191.5 142.5 A 3 3 0 1 1 191.50019999999986 142.49999999333335 Z" fill="#ffffff"></path><path class="highcharts-point highcharts-color-0" opacity="1" stroke-width="2" stroke="#1696d2" d="M 223.5 142.5 A 3 3 0 1 1 223.50019999999986 142.49999999333335 Z" fill="#ffffff"></path><path class="highcharts-point highcharts-color-0" opacity="1" stroke-width="2" stroke="#1696d2" d="M 255.5 142.5 A 3 3 0 1 1 255.50019999999986 142.49999999333335 Z" fill="#ffffff"></path><path class="highcharts-point highcharts-color-0" opacity="1" stroke-width="2" stroke="#1696d2" d="M 287.5 151.5 A 3 3 0 1 1 287.50019999999984 151.49999999333335 Z" fill="#ffffff"></path><path class="highcharts-point highcharts-color-0" opacity="1" stroke-width="2" stroke="#1696d2" d="M 319.5 133.5 A 3 3 0 1 1 319.50019999999984 133.49999999333335 Z" fill="#ffffff"></path><path class="highcharts-point highcharts-color-0" opacity="1" stroke-width="2" stroke="#1696d2" d="M 351.5 120 A 3 3 0 1 1 351.50019999999984 119.99999999333333 Z" fill="#ffffff"></path><path class="highcharts-point highcharts-color-0" opacity="1" stroke-width="2" stroke="#1696d2" d="M 383.5 120 A 3 3 0 1 1 383.50019999999984 119.99999999333333 Z" fill="#ffffff"></path><path class="highcharts-point highcharts-color-0" opacity="1" stroke-width="2" stroke="#1696d2" d="M 415.5 120 A 3 3 0 1 1 415.50019999999984 119.99999999333333 Z" fill="#ffffff"></path><path class="highcharts-point highcharts-color-0" opacity="1" stroke-width="2" stroke="#1696d2" d="M 447.5 115.5 A 3 3 0 1 1 447.50019999999984 115.49999999333333 Z" fill="#ffffff"></path><path class="highcharts-point highcharts-color-0" opacity="1" stroke-width="2" stroke="#1696d2" d="M 479.5 129 A 3 3 0 1 1 479.50019999999984 128.99999999333335 Z" fill="#ffffff"></path><path class="highcharts-point highcharts-color-0" opacity="1" stroke-width="2" stroke="#1696d2" d="M 511.5 129 A 3 3 0 1 1 511.50019999999984 128.99999999333335 Z" fill="#ffffff"></path><path class="highcharts-point highcharts-color-0" opacity="1" stroke-width="2" stroke="#1696d2" d="M 543.5 115.5 A 3 3 0 1 1 543.5001999999998 115.49999999333333 Z" fill="#ffffff"></path><path class="highcharts-point highcharts-color-0" opacity="1" stroke-width="2" stroke="#1696d2" d="M 575.5 88.5 A 3 3 0 1 1 575.5001999999998 88.49999999333333 Z" fill="#ffffff"></path><path class="highcharts-point highcharts-color-0" opacity="1" stroke-width="2" stroke="#1696d2" d="M 607.5 75 A 3 3 0 1 1 607.5001999999998 74.99999999333333 Z" fill="#ffffff"></path><path class="highcharts-point highcharts-color-0" opacity="1" stroke-width="2" stroke="#1696d2" d="M 639.5 88.5 A 3 3 0 1 1 639.5001999999998 88.49999999333333 Z" fill="#ffffff"></path><path class="highcharts-point highcharts-color-0" opacity="1" stroke-width="2" stroke="#1696d2" d="M 670.5 102 A 3 3 0 1 1 670.5001999999998 101.99999999333333 Z" fill="#ffffff"></path><path class="highcharts-point highcharts-color-0" opacity="1" stroke-width="2" stroke="#1696d2" d="M 703.5 129 A 3 3 0 1 1 703.5001999999998 128.99999999333335 Z" fill="#ffffff"></path></g><g clip-path="url(#highcharts-7kilz1g-99-)" transform="translate(32,90) scale(1 1)" opacity="1" data-z-index="0.1" class="highcharts-series highcharts-series-1 highcharts-line-series highcharts-color-1"><path filter="none" stroke-linecap="round" stroke-linejoin="round" stroke-width="2" stroke="#fdbf11" data-z-index="1" class="highcharts-graph" d="M 0 99 L 31.93068690891 58.5 L 63.948855151817 67.5 L 95.879542060727 81 L 127.81022896964 90 L 159.74091587855 108 L 191.75908412145 135 L 223.68977103036 135 L 255.62045793927 139.5 L 287.55114484818 144 L 319.56931309109 126 L 351.5 112.5 L 383.43068690891 112.5 L 415.36137381782 112.5 L 447.37954206073 112.5 L 479.31022896964 126 L 511.24091587855 126 L 543.17160278746 112.5 L 575.18977103036 85.5 L 607.12045793927 67.5 L 639.05114484818 81 L 670.98183175709 94.5 L 703 126" fill="none"></path></g><g clip-path="none" transform="translate(32,90) scale(1 1)" opacity="1" data-z-index="0.1" class="highcharts-markers highcharts-series-1 highcharts-line-series highcharts-color-1"><path class="highcharts-point highcharts-color-1" opacity="1" stroke-width="2" stroke="#fdbf11" d="M 0.5000000000000002 102 A 3 3 0 1 1 0.5001999999998541 101.99999999333333 Z" fill="#ffffff"></path><path class="highcharts-point highcharts-color-1" opacity="1" stroke-width="2" stroke="#fdbf11" d="M 31.5 61.5 A 3 3 0 1 1 31.500199999999854 61.49999999333333 Z" fill="#ffffff"></path><path class="highcharts-point highcharts-color-1" opacity="1" stroke-width="2" stroke="#fdbf11" d="M 63.5 70.5 A 3 3 0 1 1 63.50019999999986 70.49999999333333 Z" fill="#ffffff"></path><path class="highcharts-point highcharts-color-1" opacity="1" stroke-width="2" stroke="#fdbf11" d="M 95.5 84 A 3 3 0 1 1 95.50019999999985 83.99999999333333 Z" fill="#ffffff"></path><path class="highcharts-point highcharts-color-1" opacity="1" stroke-width="2" stroke="#fdbf11" d="M 127.5 93 A 3 3 0 1 1 127.50019999999985 92.99999999333333 Z" fill="#ffffff"></path><path class="highcharts-point highcharts-color-1" opacity="1" stroke-width="2" stroke="#fdbf11" d="M 159.5 111 A 3 3 0 1 1 159.50019999999986 110.99999999333333 Z" fill="#ffffff"></path><path class="highcharts-point highcharts-color-1" opacity="1" stroke-width="2" stroke="#fdbf11" d="M 191.5 138 A 3 3 0 1 1 191.50019999999986 137.99999999333335 Z" fill="#ffffff"></path><path class="highcharts-point highcharts-color-1" opacity="1" stroke-width="2" stroke="#fdbf11" d="M 223.5 138 A 3 3 0 1 1 223.50019999999986 137.99999999333335 Z" fill="#ffffff"></path><path class="highcharts-point highcharts-color-1" opacity="1" stroke-width="2" stroke="#fdbf11" d="M 255.5 142.5 A 3 3 0 1 1 255.50019999999986 142.49999999333335 Z" fill="#ffffff"></path><path class="highcharts-point highcharts-color-1" opacity="1" stroke-width="2" stroke="#fdbf11" d="M 287.5 147 A 3 3 0 1 1 287.50019999999984 146.99999999333335 Z" fill="#ffffff"></path><path class="highcharts-point highcharts-color-1" opacity="1" stroke-width="2" stroke="#fdbf11" d="M 319.5 129 A 3 3 0 1 1 319.50019999999984 128.99999999333335 Z" fill="#ffffff"></path><path class="highcharts-point highcharts-color-1" opacity="1" stroke-width="2" stroke="#fdbf11" d="M 351.5 115.5 A 3 3 0 1 1 351.50019999999984 115.49999999333333 Z" fill="#ffffff"></path><path class="highcharts-point highcharts-color-1" opacity="1" stroke-width="2" stroke="#fdbf11" d="M 383.5 115.5 A 3 3 0 1 1 383.50019999999984 115.49999999333333 Z" fill="#ffffff"></path><path class="highcharts-point highcharts-color-1" opacity="1" stroke-width="2" stroke="#fdbf11" d="M 415.5 115.5 A 3 3 0 1 1 415.50019999999984 115.49999999333333 Z" fill="#ffffff"></path><path class="highcharts-point highcharts-color-1" opacity="1" stroke-width="2" stroke="#fdbf11" d="M 447.5 115.5 A 3 3 0 1 1 447.50019999999984 115.49999999333333 Z" fill="#ffffff"></path><path class="highcharts-point highcharts-color-1" opacity="1" stroke-width="2" stroke="#fdbf11" d="M 479.5 129 A 3 3 0 1 1 479.50019999999984 128.99999999333335 Z" fill="#ffffff"></path><path class="highcharts-point highcharts-color-1" opacity="1" stroke-width="2" stroke="#fdbf11" d="M 511.5 129 A 3 3 0 1 1 511.50019999999984 128.99999999333335 Z" fill="#ffffff"></path><path class="highcharts-point highcharts-color-1" opacity="1" stroke-width="2" stroke="#fdbf11" d="M 543.5 115.5 A 3 3 0 1 1 543.5001999999998 115.49999999333333 Z" fill="#ffffff"></path><path class="highcharts-point highcharts-color-1" opacity="1" stroke-width="2" stroke="#fdbf11" d="M 575.5 88.5 A 3 3 0 1 1 575.5001999999998 88.49999999333333 Z" fill="#ffffff"></path><path class="highcharts-point highcharts-color-1" opacity="1" stroke-width="2" stroke="#fdbf11" d="M 607.5 70.5 A 3 3 0 1 1 607.5001999999998 70.49999999333333 Z" fill="#ffffff"></path><path class="highcharts-point highcharts-color-1" opacity="1" stroke-width="2" stroke="#fdbf11" d="M 639.5 84 A 3 3 0 1 1 639.5001999999998 83.99999999333333 Z" fill="#ffffff"></path><path class="highcharts-point highcharts-color-1" opacity="1" stroke-width="2" stroke="#fdbf11" d="M 670.5 97.5 A 3 3 0 1 1 670.5001999999998 97.49999999333333 Z" fill="#ffffff"></path><path class="highcharts-point highcharts-color-1" opacity="1" stroke-width="2" stroke="#fdbf11" d="M 703.5 129 A 3 3 0 1 1 703.5001999999998 128.99999999333335 Z" fill="#ffffff"></path></g><g clip-path="url(#highcharts-7kilz1g-99-)" transform="translate(32,90) scale(1 1)" opacity="1" data-z-index="0.1" class="highcharts-series highcharts-series-2 highcharts-line-series highcharts-color-2"><path filter="none" stroke-linecap="round" stroke-linejoin="round" stroke-width="2" stroke="#062635" data-z-index="1" class="highcharts-graph" d="M 0 166.5 L 31.93068690891 135 L 63.948855151817 135 L 95.879542060727 135 L 127.81022896964 130.5 L 159.74091587855 135 L 191.75908412145 148.5 L 223.68977103036 144 L 255.62045793927 144 L 287.55114484818 153 L 319.56931309109 135 L 351.5 121.5 L 383.43068690891 121.5 L 415.36137381782 121.5 L 447.37954206073 117 L 479.31022896964 126 L 511.24091587855 130.5 L 543.17160278746 112.5 L 575.18977103036 94.5 L 607.12045793927 81 L 639.05114484818 94.5 L 670.98183175709 103.5 L 703 130.5" fill="none"></path></g><g clip-path="none" transform="translate(32,90) scale(1 1)" opacity="1" data-z-index="0.1" class="highcharts-markers highcharts-series-2 highcharts-line-series highcharts-color-2"><path class="highcharts-point highcharts-color-2" opacity="1" stroke-width="2" stroke="#062635" d="M 0.5000000000000002 169.5 A 3 3 0 1 1 0.5001999999998541 169.49999999333335 Z" fill="#ffffff"></path><path class="highcharts-point highcharts-color-2" opacity="1" stroke-width="2" stroke="#062635" d="M 31.5 138 A 3 3 0 1 1 31.500199999999854 137.99999999333335 Z" fill="#ffffff"></path><path class="highcharts-point highcharts-color-2" opacity="1" stroke-width="2" stroke="#062635" d="M 63.5 138 A 3 3 0 1 1 63.50019999999986 137.99999999333335 Z" fill="#ffffff"></path><path class="highcharts-point highcharts-color-2" opacity="1" stroke-width="2" stroke="#062635" d="M 95.5 138 A 3 3 0 1 1 95.50019999999985 137.99999999333335 Z" fill="#ffffff"></path><path class="highcharts-point highcharts-color-2" opacity="1" stroke-width="2" stroke="#062635" d="M 127.5 133.5 A 3 3 0 1 1 127.50019999999985 133.49999999333335 Z" fill="#ffffff"></path><path class="highcharts-point highcharts-color-2" opacity="1" stroke-width="2" stroke="#062635" d="M 159.5 138 A 3 3 0 1 1 159.50019999999986 137.99999999333335 Z" fill="#ffffff"></path><path class="highcharts-point highcharts-color-2" opacity="1" stroke-width="2" stroke="#062635" d="M 191.5 151.5 A 3 3 0 1 1 191.50019999999986 151.49999999333335 Z" fill="#ffffff"></path><path class="highcharts-point highcharts-color-2" opacity="1" stroke-width="2" stroke="#062635" d="M 223.5 147 A 3 3 0 1 1 223.50019999999986 146.99999999333335 Z" fill="#ffffff"></path><path class="highcharts-point highcharts-color-2" opacity="1" stroke-width="2" stroke="#062635" d="M 255.5 147 A 3 3 0 1 1 255.50019999999986 146.99999999333335 Z" fill="#ffffff"></path><path class="highcharts-point highcharts-color-2" opacity="1" stroke-width="2" stroke="#062635" d="M 287.5 156 A 3 3 0 1 1 287.50019999999984 155.99999999333335 Z" fill="#ffffff"></path><path class="highcharts-point highcharts-color-2" opacity="1" stroke-width="2" stroke="#062635" d="M 319.5 138 A 3 3 0 1 1 319.50019999999984 137.99999999333335 Z" fill="#ffffff"></path><path class="highcharts-point highcharts-color-2" opacity="1" stroke-width="2" stroke="#062635" d="M 351.5 124.5 A 3 3 0 1 1 351.50019999999984 124.49999999333333 Z" fill="#ffffff"></path><path class="highcharts-point highcharts-color-2" opacity="1" stroke-width="2" stroke="#062635" d="M 383.5 124.5 A 3 3 0 1 1 383.50019999999984 124.49999999333333 Z" fill="#ffffff"></path><path class="highcharts-point highcharts-color-2" opacity="1" stroke-width="2" stroke="#062635" d="M 415.5 124.5 A 3 3 0 1 1 415.50019999999984 124.49999999333333 Z" fill="#ffffff"></path><path class="highcharts-point highcharts-color-2" opacity="1" stroke-width="2" stroke="#062635" d="M 447.5 120 A 3 3 0 1 1 447.50019999999984 119.99999999333333 Z" fill="#ffffff"></path><path class="highcharts-point highcharts-color-2" opacity="1" stroke-width="2" stroke="#062635" d="M 479.5 129 A 3 3 0 1 1 479.50019999999984 128.99999999333335 Z" fill="#ffffff"></path><path class="highcharts-point highcharts-color-2" opacity="1" stroke-width="2" stroke="#062635" d="M 511.5 133.5 A 3 3 0 1 1 511.50019999999984 133.49999999333335 Z" fill="#ffffff"></path><path class="highcharts-point highcharts-color-2" opacity="1" stroke-width="2" stroke="#062635" d="M 543.5 115.5 A 3 3 0 1 1 543.5001999999998 115.49999999333333 Z" fill="#ffffff"></path><path class="highcharts-point highcharts-color-2" opacity="1" stroke-width="2" stroke="#062635" d="M 575.5 97.5 A 3 3 0 1 1 575.5001999999998 97.49999999333333 Z" fill="#ffffff"></path><path class="highcharts-point highcharts-color-2" opacity="1" stroke-width="2" stroke="#062635" d="M 607.5 84 A 3 3 0 1 1 607.5001999999998 83.99999999333333 Z" fill="#ffffff"></path><path class="highcharts-point highcharts-color-2" opacity="1" stroke-width="2" stroke="#062635" d="M 639.5 97.5 A 3 3 0 1 1 639.5001999999998 97.49999999333333 Z" fill="#ffffff"></path><path class="highcharts-point highcharts-color-2" opacity="1" stroke-width="2" stroke="#062635" d="M 670.5 106.5 A 3 3 0 1 1 670.5001999999998 106.49999999333333 Z" fill="#ffffff"></path><path class="highcharts-point highcharts-color-2" opacity="1" stroke-width="2" stroke="#062635" d="M 703.5 133.5 A 3 3 0 1 1 703.5001999999998 133.49999999333335 Z" fill="#ffffff"></path></g><g clip-path="url(#highcharts-7kilz1g-99-)" transform="translate(32,90) scale(1 1)" opacity="1" data-z-index="0.1" class="highcharts-series highcharts-series-3 highcharts-area-series"><path style="pointer-events: none;" fill-opacity="0.1" data-z-index="0" class="highcharts-area" d="M 0 0" fill="#cfe8f3"></path></g><g clip-path="none" transform="translate(32,90) scale(1 1)" opacity="1" data-z-index="0.1" class="highcharts-markers highcharts-series-3 highcharts-area-series"></g></g><text y="24" style="font-size: 18px; color: rgb(90, 90, 90); font-weight: bold; fill: rgb(90, 90, 90);" data-z-index="4" class="highcharts-title" text-anchor="start" x="10"><tspan class="chartSubtitle">Disabled Worker Incidence Rates, 1991–2013</tspan><tspan class="chartTitle">Awards per thousand, adjusted for distributions of age and<tspan x="10" dy="17">​</tspan>sex</tspan></text><text y="10" style="color: rgb(102, 102, 102); font-size: 0.8em; fill: rgb(102, 102, 102);" data-z-index="4" class="highcharts-subtitle" text-anchor="start" x="10"></text><text y="497" style="color: rgb(102, 102, 102); font-size: 0.8em; fill: rgb(102, 102, 102);" data-z-index="4" class="highcharts-caption" text-anchor="start" x="10"></text><g transform="translate(10,30)" data-z-index="7" class="highcharts-legend highcharts-no-tooltip"><rect height="31" width="280" y="0" x="0" filter="none" stroke-width="0" stroke="#999999" ry="0" rx="0" class="highcharts-legend-box" fill="none"></rect><g data-z-index="1"><g><g transform="translate(8,3)" data-z-index="1" class="highcharts-legend-item highcharts-line-series highcharts-color-0 highcharts-series-0"><path stroke="#1696d2" d="M 1 14 L 15 14" stroke-linecap="round" stroke-width="2" class="highcharts-graph" fill="none"></path><path opacity="1" stroke-width="2" stroke="#1696d2" class="highcharts-point" d="M 8 17 A 3 3 0 1 1 8.000199999999854 16.999999993333333 Z" fill="#ffffff"></path><text y="18" style="color: rgb(51, 51, 51); cursor: pointer; font-size: 13px; text-decoration: none; font-weight: bold; fill: rgb(51, 51, 51);" data-z-index="2" text-anchor="start" x="21">All</text></g><g transform="translate(54.28125,3)" data-z-index="1" class="highcharts-legend-item highcharts-line-series highcharts-color-1 highcharts-series-1"><path stroke="#fdbf11" d="M 1 14 L 15 14" stroke-linecap="round" stroke-width="2" class="highcharts-graph" fill="none"></path><path opacity="1" stroke-width="2" stroke="#fdbf11" class="highcharts-point" d="M 8 17 A 3 3 0 1 1 8.000199999999854 16.999999993333333 Z" fill="#ffffff"></path><text style="color: rgb(51, 51, 51); cursor: pointer; font-size: 13px; text-decoration: none; font-weight: bold; fill: rgb(51, 51, 51);" data-z-index="2" text-anchor="start" y="18" x="21">Men</text></g><g transform="translate(110.7109375,3)" data-z-index="1" class="highcharts-legend-item highcharts-line-series highcharts-color-2 highcharts-series-2"><path stroke="#062635" d="M 1 14 L 15 14" stroke-linecap="round" stroke-width="2" class="highcharts-graph" fill="none"></path><path opacity="1" stroke-width="2" stroke="#062635" class="highcharts-point" d="M 8 17 A 3 3 0 1 1 8.000199999999854 16.999999993333333 Z" fill="#ffffff"></path><text style="color: rgb(51, 51, 51); cursor: pointer; font-size: 13px; text-decoration: none; font-weight: bold; fill: rgb(51, 51, 51);" data-z-index="2" text-anchor="start" y="18" x="21">Women</text></g><g transform="translate(186.7265625,3)" data-z-index="1" class="highcharts-legend-item highcharts-area-series highcharts-color-undefined highcharts-series-3"><path stroke="#cfe8f3" d="M 1 13 L 15 13" stroke-linecap="round" stroke-width="2" class="highcharts-graph" fill="none"></path><path fill-opacity="0.1" d="M 1 13 L 15 13 L 15 18 L 1 18" class="highcharts-area" fill="#cfe8f3"></path><path opacity="1" stroke-width="2" stroke="#cfe8f3" class="highcharts-point" d="M 8 16 A 3 3 0 1 1 8.000199999999854 15.999999993333333 Z" fill="#ffffff"></path><text style="color: rgb(51, 51, 51); cursor: pointer; font-size: 13px; text-decoration: none; font-weight: bold; fill: rgb(51, 51, 51);" data-z-index="2" text-anchor="start" y="18" x="21">Recessions</text></g></g></g></g><g data-z-index="7" class="highcharts-axis-labels highcharts-xaxis-labels"><text opacity="1" y="477" style="color: rgb(51, 51, 51); cursor: default; font-size: 12px; fill: rgb(51, 51, 51);" transform="translate(0,0)" text-anchor="middle" x="319.46366351419">2000</text><text opacity="1" y="477" style="color: rgb(51, 51, 51); cursor: default; font-size: 12px; fill: rgb(51, 51, 51);" transform="translate(0,0)" text-anchor="middle" x="639.03297660528">2010</text><text opacity="1" y="477" style="color: rgb(51, 51, 51); cursor: default; font-size: 12px; fill: rgb(51, 51, 51);" transform="translate(0,0)" text-anchor="middle" x="63.843205574913">1992</text><text opacity="1" y="477" style="color: rgb(51, 51, 51); cursor: default; font-size: 12px; fill: rgb(51, 51, 51);" transform="translate(0,0)" text-anchor="middle" x="127.79206072673">1994</text><text opacity="1" y="477" style="color: rgb(51, 51, 51); cursor: default; font-size: 12px; fill: rgb(51, 51, 51);" transform="translate(0,0)" text-anchor="middle" x="191.65343454455">1996</text><text opacity="1" y="477" style="color: rgb(51, 51, 51); cursor: default; font-size: 12px; fill: rgb(51, 51, 51);" transform="translate(0,0)" text-anchor="middle" x="255.60228969637">1998</text><text opacity="1" y="477" style="color: rgb(51, 51, 51); cursor: default; font-size: 12px; fill: rgb(51, 51, 51);" transform="translate(0,0)" text-anchor="middle" x="383.412518666">2002</text><text opacity="1" y="477" style="color: rgb(51, 51, 51); cursor: default; font-size: 12px; fill: rgb(51, 51, 51);" transform="translate(0,0)" text-anchor="middle" x="447.27389248382">2004</text><text opacity="1" y="477" style="color: rgb(51, 51, 51); cursor: default; font-size: 12px; fill: rgb(51, 51, 51);" transform="translate(0,0)" text-anchor="middle" x="511.22274763564">2006</text><text opacity="1" y="477" style="color: rgb(51, 51, 51); cursor: default; font-size: 12px; fill: rgb(51, 51, 51);" transform="translate(0,0)" text-anchor="middle" x="575.08412145346">2008</text><text opacity="1" y="477" style="color: rgb(51, 51, 51); cursor: default; font-size: 12px; fill: rgb(51, 51, 51);" transform="translate(0,0)" text-anchor="middle" x="702.8943504231">2012</text></g><g data-z-index="7" class="highcharts-axis-labels highcharts-yaxis-labels"><text opacity="1" y="455" style="color: rgb(51, 51, 51); cursor: default; font-size: 12px; fill: rgb(51, 51, 51);" transform="translate(0,0)" text-anchor="end" x="17">0</text><text opacity="1" y="365" style="color: rgb(51, 51, 51); cursor: default; font-size: 12px; fill: rgb(51, 51, 51);" transform="translate(0,0)" text-anchor="end" x="17">2</text><text opacity="1" y="275" style="color: rgb(51, 51, 51); cursor: default; font-size: 12px; fill: rgb(51, 51, 51);" transform="translate(0,0)" text-anchor="end" x="17">4</text><text opacity="1" y="185" style="color: rgb(51, 51, 51); cursor: default; font-size: 12px; fill: rgb(51, 51, 51);" transform="translate(0,0)" text-anchor="end" x="17">6</text><text opacity="1" y="95" style="color: rgb(51, 51, 51); cursor: default; font-size: 12px; fill: rgb(51, 51, 51);" transform="translate(0,0)" text-anchor="end" x="17">8</text><text style="color: rgb(51, 51, 51); cursor: default; font-size: 12px; fill: rgb(51, 51, 51);" opacity="1" y="410" transform="translate(0,0)" text-anchor="end" x="17">1</text><text style="color: rgb(51, 51, 51); cursor: default; font-size: 12px; fill: rgb(51, 51, 51);" opacity="1" y="320" transform="translate(0,0)" text-anchor="end" x="17">3</text><text style="color: rgb(51, 51, 51); cursor: default; font-size: 12px; fill: rgb(51, 51, 51);" opacity="1" y="230" transform="translate(0,0)" text-anchor="end" x="17">5</text><text style="color: rgb(51, 51, 51); cursor: default; font-size: 12px; fill: rgb(51, 51, 51);" opacity="1" y="140" transform="translate(0,0)" text-anchor="end" x="17">7</text></g></svg>