<svg xmlns="http://www.w3.org/2000/svg" width="793" height="393" class="bkg-svg"><rect width="100%" height="100%" fill="none" class="zoom-bkg" style="cursor:inherit;pointer-events:none"/><g class="x-axis"><text class="x-axis-label" style="text-anchor:middle;font-family:Roboto;font-style:normal;font-weight:400;font-size:10px;fill:#444;text-decoration:none" transform="translate(430 383)">Year</text><g class="tick" style="opacity:1;font-family:Roboto;font-style:normal;font-weight:400;font-size:10px;fill:#444;text-decoration:none"><path stroke="#888" d="M67 340v5"/><text y="10" dx="0" dy=".71em" style="text-anchor:middle" transform="translate(67 340)">1950</text></g><g class="tick" style="opacity:1;font-family:Roboto;font-style:normal;font-weight:400;font-size:10px;fill:#444;text-decoration:none"><path stroke="#888" d="M127.245 340v5"/><text y="10" dx="0" dy=".71em" style="text-anchor:middle" transform="translate(127.245 340)">1955</text></g><g class="tick" style="opacity:1;font-family:Roboto;font-style:normal;font-weight:400;font-size:10px;fill:#444;text-decoration:none"><path stroke="#888" d="M187.49 340v5"/><text y="10" dx="0" dy=".71em" style="text-anchor:middle" transform="translate(187.49 340)">1960</text></g><g class="tick" style="opacity:1;font-family:Roboto;font-style:normal;font-weight:400;font-size:10px;fill:#444;text-decoration:none"><path stroke="#888" d="M247.769 340v5"/><text y="10" dx="0" dy=".71em" style="text-anchor:middle" transform="translate(247.769 340)">1965</text></g><g class="tick" style="opacity:1;font-family:Roboto;font-style:normal;font-weight:400;font-size:10px;fill:#444;text-decoration:none"><path stroke="#888" d="M308.014 340v5"/><text y="10" dx="0" dy=".71em" style="text-anchor:middle" transform="translate(308.014 340)">1970</text></g><g class="tick" style="opacity:1;font-family:Roboto;font-style:normal;font-weight:400;font-size:10px;fill:#444;text-decoration:none"><path stroke="#888" d="M368.26 340v5"/><text y="10" dx="0" dy=".71em" style="text-anchor:middle" transform="translate(368.26 340)">1975</text></g><g class="tick" style="opacity:1;font-family:Roboto;font-style:normal;font-weight:400;font-size:10px;fill:#444;text-decoration:none"><path stroke="#888" d="M428.505 340v5"/><text y="10" dx="0" dy=".71em" style="text-anchor:middle" transform="translate(428.505 340)">1980</text></g><g class="tick" style="opacity:1;font-family:Roboto;font-style:normal;font-weight:400;font-size:10px;fill:#444;text-decoration:none"><path stroke="#888" d="M488.783 340v5"/><text y="10" dx="0" dy=".71em" style="text-anchor:middle" transform="translate(488.783 340)">1985</text></g><g class="tick" style="opacity:1;font-family:Roboto;font-style:normal;font-weight:400;font-size:10px;fill:#444;text-decoration:none"><path stroke="#888" d="M549.028 340v5"/><text y="10" dx="0" dy=".71em" style="text-anchor:middle" transform="translate(549.028 340)">1990</text></g><g class="tick" style="opacity:1;font-family:Roboto;font-style:normal;font-weight:400;font-size:10px;fill:#444;text-decoration:none"><path stroke="#888" d="M609.274 340v5"/><text y="10" dx="0" dy=".71em" style="text-anchor:middle" transform="translate(609.274 340)">1995</text></g><g class="tick" style="opacity:1;font-family:Roboto;font-style:normal;font-weight:400;font-size:10px;fill:#444;text-decoration:none"><path stroke="#888" d="M669.519 340v5"/><text y="10" dx="0" dy=".71em" style="text-anchor:middle" transform="translate(669.519 340)">2000</text></g><g class="tick" style="opacity:1;font-family:Roboto;font-style:normal;font-weight:400;font-size:10px;fill:#444;text-decoration:none"><path stroke="#888" d="M729.797 340v5"/><text y="10" dx="0" dy=".71em" style="text-anchor:middle" transform="translate(729.797 340)">2005</text></g><path stroke="#888" d="M67 345v-5h711v5" class="domain"/></g><g class="dimension"><g class="tick" style="opacity:1;font-family:Roboto;font-style:normal;font-weight:400;font-size:10px;fill:#444;text-decoration:none"><path stroke="#888" d="M67 313.068h-5"/><text x="-10" dx="0" dy=".32em" style="text-anchor:end" transform="translate(67 313.068)">500</text></g><g class="tick" style="opacity:1;font-family:Roboto;font-style:normal;font-weight:400;font-size:10px;fill:#444;text-decoration:none"><path stroke="#888" d="M67 275.258h-5"/><text x="-10" dx="0" dy=".32em" style="text-anchor:end" transform="translate(67 275.258)">600</text></g><g class="tick" style="opacity:1;font-family:Roboto;font-style:normal;font-weight:400;font-size:10px;fill:#444;text-decoration:none"><path stroke="#888" d="M67 237.448h-5"/><text x="-10" dx="0" dy=".32em" style="text-anchor:end" transform="translate(67 237.448)">700</text></g><g class="tick" style="opacity:1;font-family:Roboto;font-style:normal;font-weight:400;font-size:10px;fill:#444;text-decoration:none"><path stroke="#888" d="M67 199.638h-5"/><text x="-10" dx="0" dy=".32em" style="text-anchor:end" transform="translate(67 199.638)">800</text></g><g class="tick" style="opacity:1;font-family:Roboto;font-style:normal;font-weight:400;font-size:10px;fill:#444;text-decoration:none"><path stroke="#888" d="M67 161.828h-5"/><text x="-10" dx="0" dy=".32em" style="text-anchor:end" transform="translate(67 161.828)">900</text></g><g class="tick" style="opacity:1;font-family:Roboto;font-style:normal;font-weight:400;font-size:10px;fill:#444;text-decoration:none"><path stroke="#888" d="M67 124.018h-5"/><text x="-10" dx="0" dy=".32em" style="text-anchor:end" transform="translate(67 124.018)">1,000</text></g><g class="tick" style="opacity:1;font-family:Roboto;font-style:normal;font-weight:400;font-size:10px;fill:#444;text-decoration:none"><path stroke="#888" d="M67 86.208h-5"/><text x="-10" dx="0" dy=".32em" style="text-anchor:end" transform="translate(67 86.208)">1,100</text></g><g class="tick" style="opacity:1;font-family:Roboto;font-style:normal;font-weight:400;font-size:10px;fill:#444;text-decoration:none"><path stroke="#888" d="M67 48.398h-5"/><text x="-10" dx="0" dy=".32em" style="text-anchor:end" transform="translate(67 48.398)">1,200</text></g><path stroke="#888" d="M62 15h5v325h-5" class="domain"/><text class="y-axis-label" style="text-anchor:middle;font-family:Roboto;font-style:normal;font-weight:400;font-size:10px;fill:#444;text-decoration:none" transform="rotate(-90 100.25 77.25)">GDP per Capita</text></g><g class="graph-wrapper" clip-path="url(#a)" transform="translate(67 15)"><g class="graph"><g fill="#1A237E" stroke="#1eaaf1" stroke-width="2" aria-describedby="qtip-5" class="item selected" data-hasqtip="5" style="pointer-events:all;z-index:1000"><path fill="none" d="M0 200.783h6.021v-3.592h12.043v-4.764h12.059V179.76h12.059v-.945h12.042v-.378h12.043v-7.827h12.058v6.125h12.06v-10.889h12.042v-2.457h12.042v-4.651h12.06v4.197h12.058v1.626h12.043v1.399h12.042v1.172h12.06v.416h12.058v4.386h12.043v-.983h12.042v-3.366h12.059v2.836h12.059v1.626h12.042v22.535h12.043v12.742h12.059v-24.01h12.059v-8.356h12.042v-7.864h12.043v-7.486h12.059v30.285h12.059v-15.502h12.042v6.806h12.043v-.491h12.058V148h12.06v-30.664h12.042v-13.271h12.042v6.994h12.06v12.364h12.058V97.334h12.043v67.491h12.042v31.156h12.06v7.032h12.058v15.843h12.043v1.55h12.042v21.212h12.059v34.18h12.059v22.119h12.042v-38.378h12.043v-6.05h12.059v-6.578h12.059v-6.806h12.042v-6.692h12.043v2.684h12.059v26.051h12.059v-49.795h12.042V190.27H644.7v-7.41h12.06v-26.203h12.058v-13.763h12.043v-38.641h12.042v-2.571h12.06v-74.6H711" class="line-path" pointer-events="stroke"/><path fill="none" stroke="rgba(255,0,0,0)" stroke-width="5" d="M0 200.783h6.021v-3.592h12.043v-4.764h12.059V179.76h12.059v-.945h12.042v-.378h12.043v-7.827h12.058v6.125h12.06v-10.889h12.042v-2.457h12.042v-4.651h12.06v4.197h12.058v1.626h12.043v1.399h12.042v1.172h12.06v.416h12.058v4.386h12.043v-.983h12.042v-3.366h12.059v2.836h12.059v1.626h12.042v22.535h12.043v12.742h12.059v-24.01h12.059v-8.356h12.042v-7.864h12.043v-7.486h12.059v30.285h12.059v-15.502h12.042v6.806h12.043v-.491h12.058V148h12.06v-30.664h12.042v-13.271h12.042v6.994h12.06v12.364h12.058V97.334h12.043v67.491h12.042v31.156h12.06v7.032h12.058v15.843h12.043v1.55h12.042v21.212h12.059v34.18h12.059v22.119h12.042v-38.378h12.043v-6.05h12.059v-6.578h12.059v-6.806h12.042v-6.692h12.043v2.684h12.059v26.051h12.059v-49.795h12.042V190.27H644.7v-7.41h12.06v-26.203h12.058v-13.763h12.043v-38.641h12.042v-2.571h12.06v-74.6H711" class="hit-area-path dont-render" pointer-events="stroke"/></g></g></g><defs><clipPath id="a"><path d="M0-15h808v340H0z" class="clip-path-rect"/></clipPath></defs></svg>