<svg xmlns="http://www.w3.org/2000/svg" xmlns:xlink="http://www.w3.org/1999/xlink" viewBox="0 0 576.00 306.00">
<defs>
  <style type="text/css"><![CDATA[
    line, polyline, path, rect, circle {
      fill: none;
      stroke: #000000;
      stroke-linecap: round;
      stroke-linejoin: round;
      stroke-miterlimit: 10.00;
    }
  ]]></style>
</defs>
<rect width="100%" height="100%" style="stroke: none; fill: #FFFFFF;"/>
<rect x="0.00" y="0.00" width="576.00" height="306.00" style="stroke-width: 1.07; stroke: #FFFFFF; fill: #FFFFFF;"/>
<defs>
  <clipPath id="cpNDAuNzkyMXw1NzAuNTIxfDI3My4zOTZ8NS40Nzk0NQ==">
    <rect x="40.79" y="5.48" width="529.73" height="267.92"/>
  </clipPath>
</defs>
<rect x="40.79" y="5.48" width="529.73" height="267.92" style="stroke-width: 1.07; stroke: none; fill: #FFFFFF;" clip-path="url(#cpNDAuNzkyMXw1NzAuNTIxfDI3My4zOTZ8NS40Nzk0NQ==)"/>
<polyline points="40.79,226.89 570.52,226.89 " style="stroke-width: 0.53; stroke: #EBEBEB; stroke-linecap: butt;" clip-path="url(#cpNDAuNzkyMXw1NzAuNTIxfDI3My4zOTZ8NS40Nzk0NQ==)"/>
<polyline points="40.79,176.11 570.52,176.11 " style="stroke-width: 0.53; stroke: #EBEBEB; stroke-linecap: butt;" clip-path="url(#cpNDAuNzkyMXw1NzAuNTIxfDI3My4zOTZ8NS40Nzk0NQ==)"/>
<polyline points="40.79,125.34 570.52,125.34 " style="stroke-width: 0.53; stroke: #EBEBEB; stroke-linecap: butt;" clip-path="url(#cpNDAuNzkyMXw1NzAuNTIxfDI3My4zOTZ8NS40Nzk0NQ==)"/>
<polyline points="40.79,74.57 570.52,74.57 " style="stroke-width: 0.53; stroke: #EBEBEB; stroke-linecap: butt;" clip-path="url(#cpNDAuNzkyMXw1NzAuNTIxfDI3My4zOTZ8NS40Nzk0NQ==)"/>
<polyline points="40.79,23.80 570.52,23.80 " style="stroke-width: 0.53; stroke: #EBEBEB; stroke-linecap: butt;" clip-path="url(#cpNDAuNzkyMXw1NzAuNTIxfDI3My4zOTZ8NS40Nzk0NQ==)"/>
<polyline points="122.66,273.40 122.66,5.48 " style="stroke-width: 0.53; stroke: #EBEBEB; stroke-linecap: butt;" clip-path="url(#cpNDAuNzkyMXw1NzAuNTIxfDI3My4zOTZ8NS40Nzk0NQ==)"/>
<polyline points="243.05,273.40 243.05,5.48 " style="stroke-width: 0.53; stroke: #EBEBEB; stroke-linecap: butt;" clip-path="url(#cpNDAuNzkyMXw1NzAuNTIxfDI3My4zOTZ8NS40Nzk0NQ==)"/>
<polyline points="363.44,273.40 363.44,5.48 " style="stroke-width: 0.53; stroke: #EBEBEB; stroke-linecap: butt;" clip-path="url(#cpNDAuNzkyMXw1NzAuNTIxfDI3My4zOTZ8NS40Nzk0NQ==)"/>
<polyline points="483.84,273.40 483.84,5.48 " style="stroke-width: 0.53; stroke: #EBEBEB; stroke-linecap: butt;" clip-path="url(#cpNDAuNzkyMXw1NzAuNTIxfDI3My4zOTZ8NS40Nzk0NQ==)"/>
<polyline points="40.79,252.27 570.52,252.27 " style="stroke-width: 1.07; stroke: #EBEBEB; stroke-linecap: butt;" clip-path="url(#cpNDAuNzkyMXw1NzAuNTIxfDI3My4zOTZ8NS40Nzk0NQ==)"/>
<polyline points="40.79,201.50 570.52,201.50 " style="stroke-width: 1.07; stroke: #EBEBEB; stroke-linecap: butt;" clip-path="url(#cpNDAuNzkyMXw1NzAuNTIxfDI3My4zOTZ8NS40Nzk0NQ==)"/>
<polyline points="40.79,150.73 570.52,150.73 " style="stroke-width: 1.07; stroke: #EBEBEB; stroke-linecap: butt;" clip-path="url(#cpNDAuNzkyMXw1NzAuNTIxfDI3My4zOTZ8NS40Nzk0NQ==)"/>
<polyline points="40.79,99.96 570.52,99.96 " style="stroke-width: 1.07; stroke: #EBEBEB; stroke-linecap: butt;" clip-path="url(#cpNDAuNzkyMXw1NzAuNTIxfDI3My4zOTZ8NS40Nzk0NQ==)"/>
<polyline points="40.79,49.19 570.52,49.19 " style="stroke-width: 1.07; stroke: #EBEBEB; stroke-linecap: butt;" clip-path="url(#cpNDAuNzkyMXw1NzAuNTIxfDI3My4zOTZ8NS40Nzk0NQ==)"/>
<polyline points="62.46,273.40 62.46,5.48 " style="stroke-width: 1.07; stroke: #EBEBEB; stroke-linecap: butt;" clip-path="url(#cpNDAuNzkyMXw1NzAuNTIxfDI3My4zOTZ8NS40Nzk0NQ==)"/>
<polyline points="182.86,273.40 182.86,5.48 " style="stroke-width: 1.07; stroke: #EBEBEB; stroke-linecap: butt;" clip-path="url(#cpNDAuNzkyMXw1NzAuNTIxfDI3My4zOTZ8NS40Nzk0NQ==)"/>
<polyline points="303.25,273.40 303.25,5.48 " style="stroke-width: 1.07; stroke: #EBEBEB; stroke-linecap: butt;" clip-path="url(#cpNDAuNzkyMXw1NzAuNTIxfDI3My4zOTZ8NS40Nzk0NQ==)"/>
<polyline points="423.64,273.40 423.64,5.48 " style="stroke-width: 1.07; stroke: #EBEBEB; stroke-linecap: butt;" clip-path="url(#cpNDAuNzkyMXw1NzAuNTIxfDI3My4zOTZ8NS40Nzk0NQ==)"/>
<polyline points="544.03,273.40 544.03,5.48 " style="stroke-width: 1.07; stroke: #EBEBEB; stroke-linecap: butt;" clip-path="url(#cpNDAuNzkyMXw1NzAuNTIxfDI3My4zOTZ8NS40Nzk0NQ==)"/>
<circle cx="64.87" cy="230.32" r="1.95pt" style="stroke-width: 0.71; fill: #000000;" clip-path="url(#cpNDAuNzkyMXw1NzAuNTIxfDI3My4zOTZ8NS40Nzk0NQ==)"/>
<circle cx="74.50" cy="141.32" r="1.95pt" style="stroke-width: 0.71; fill: #000000;" clip-path="url(#cpNDAuNzkyMXw1NzAuNTIxfDI3My4zOTZ8NS40Nzk0NQ==)"/>
<circle cx="84.13" cy="118.66" r="1.95pt" style="stroke-width: 0.71; fill: #000000;" clip-path="url(#cpNDAuNzkyMXw1NzAuNTIxfDI3My4zOTZ8NS40Nzk0NQ==)"/>
<circle cx="93.76" cy="107.02" r="1.95pt" style="stroke-width: 0.71; fill: #000000;" clip-path="url(#cpNDAuNzkyMXw1NzAuNTIxfDI3My4zOTZ8NS40Nzk0NQ==)"/>
<circle cx="103.40" cy="99.99" r="1.95pt" style="stroke-width: 0.71; fill: #000000;" clip-path="url(#cpNDAuNzkyMXw1NzAuNTIxfDI3My4zOTZ8NS40Nzk0NQ==)"/>
<circle cx="113.03" cy="94.85" r="1.95pt" style="stroke-width: 0.71; fill: #000000;" clip-path="url(#cpNDAuNzkyMXw1NzAuNTIxfDI3My4zOTZ8NS40Nzk0NQ==)"/>
<circle cx="122.66" cy="89.72" r="1.95pt" style="stroke-width: 0.71; fill: #000000;" clip-path="url(#cpNDAuNzkyMXw1NzAuNTIxfDI3My4zOTZ8NS40Nzk0NQ==)"/>
<circle cx="132.29" cy="84.14" r="1.95pt" style="stroke-width: 0.71; fill: #000000;" clip-path="url(#cpNDAuNzkyMXw1NzAuNTIxfDI3My4zOTZ8NS40Nzk0NQ==)"/>
<circle cx="141.92" cy="83.39" r="1.95pt" style="stroke-width: 0.71; fill: #000000;" clip-path="url(#cpNDAuNzkyMXw1NzAuNTIxfDI3My4zOTZ8NS40Nzk0NQ==)"/>
<circle cx="151.55" cy="77.22" r="1.95pt" style="stroke-width: 0.71; fill: #000000;" clip-path="url(#cpNDAuNzkyMXw1NzAuNTIxfDI3My4zOTZ8NS40Nzk0NQ==)"/>
<circle cx="161.18" cy="74.19" r="1.95pt" style="stroke-width: 0.71; fill: #000000;" clip-path="url(#cpNDAuNzkyMXw1NzAuNTIxfDI3My4zOTZ8NS40Nzk0NQ==)"/>
<circle cx="170.82" cy="72.34" r="1.95pt" style="stroke-width: 0.71; fill: #000000;" clip-path="url(#cpNDAuNzkyMXw1NzAuNTIxfDI3My4zOTZ8NS40Nzk0NQ==)"/>
<circle cx="180.45" cy="71.22" r="1.95pt" style="stroke-width: 0.71; fill: #000000;" clip-path="url(#cpNDAuNzkyMXw1NzAuNTIxfDI3My4zOTZ8NS40Nzk0NQ==)"/>
<circle cx="190.08" cy="64.36" r="1.95pt" style="stroke-width: 0.71; fill: #000000;" clip-path="url(#cpNDAuNzkyMXw1NzAuNTIxfDI3My4zOTZ8NS40Nzk0NQ==)"/>
<circle cx="199.71" cy="65.23" r="1.95pt" style="stroke-width: 0.71; fill: #000000;" clip-path="url(#cpNDAuNzkyMXw1NzAuNTIxfDI3My4zOTZ8NS40Nzk0NQ==)"/>
<circle cx="209.34" cy="62.30" r="1.95pt" style="stroke-width: 0.71; fill: #000000;" clip-path="url(#cpNDAuNzkyMXw1NzAuNTIxfDI3My4zOTZ8NS40Nzk0NQ==)"/>
<circle cx="218.97" cy="64.33" r="1.95pt" style="stroke-width: 0.71; fill: #000000;" clip-path="url(#cpNDAuNzkyMXw1NzAuNTIxfDI3My4zOTZ8NS40Nzk0NQ==)"/>
<circle cx="228.60" cy="60.71" r="1.95pt" style="stroke-width: 0.71; fill: #000000;" clip-path="url(#cpNDAuNzkyMXw1NzAuNTIxfDI3My4zOTZ8NS40Nzk0NQ==)"/>
<circle cx="238.24" cy="60.48" r="1.95pt" style="stroke-width: 0.71; fill: #000000;" clip-path="url(#cpNDAuNzkyMXw1NzAuNTIxfDI3My4zOTZ8NS40Nzk0NQ==)"/>
<circle cx="247.87" cy="59.66" r="1.95pt" style="stroke-width: 0.71; fill: #000000;" clip-path="url(#cpNDAuNzkyMXw1NzAuNTIxfDI3My4zOTZ8NS40Nzk0NQ==)"/>
<circle cx="257.50" cy="56.26" r="1.95pt" style="stroke-width: 0.71; fill: #000000;" clip-path="url(#cpNDAuNzkyMXw1NzAuNTIxfDI3My4zOTZ8NS40Nzk0NQ==)"/>
<circle cx="267.13" cy="57.37" r="1.95pt" style="stroke-width: 0.71; fill: #000000;" clip-path="url(#cpNDAuNzkyMXw1NzAuNTIxfDI3My4zOTZ8NS40Nzk0NQ==)"/>
<circle cx="276.76" cy="55.29" r="1.95pt" style="stroke-width: 0.71; fill: #000000;" clip-path="url(#cpNDAuNzkyMXw1NzAuNTIxfDI3My4zOTZ8NS40Nzk0NQ==)"/>
<circle cx="286.39" cy="55.52" r="1.95pt" style="stroke-width: 0.71; fill: #000000;" clip-path="url(#cpNDAuNzkyMXw1NzAuNTIxfDI3My4zOTZ8NS40Nzk0NQ==)"/>
<circle cx="296.02" cy="56.09" r="1.95pt" style="stroke-width: 0.71; fill: #000000;" clip-path="url(#cpNDAuNzkyMXw1NzAuNTIxfDI3My4zOTZ8NS40Nzk0NQ==)"/>
<circle cx="305.66" cy="52.80" r="1.95pt" style="stroke-width: 0.71; fill: #000000;" clip-path="url(#cpNDAuNzkyMXw1NzAuNTIxfDI3My4zOTZ8NS40Nzk0NQ==)"/>
<circle cx="315.29" cy="52.34" r="1.95pt" style="stroke-width: 0.71; fill: #000000;" clip-path="url(#cpNDAuNzkyMXw1NzAuNTIxfDI3My4zOTZ8NS40Nzk0NQ==)"/>
<circle cx="324.92" cy="52.17" r="1.95pt" style="stroke-width: 0.71; fill: #000000;" clip-path="url(#cpNDAuNzkyMXw1NzAuNTIxfDI3My4zOTZ8NS40Nzk0NQ==)"/>
<circle cx="334.55" cy="52.14" r="1.95pt" style="stroke-width: 0.71; fill: #000000;" clip-path="url(#cpNDAuNzkyMXw1NzAuNTIxfDI3My4zOTZ8NS40Nzk0NQ==)"/>
<circle cx="344.18" cy="50.11" r="1.95pt" style="stroke-width: 0.71; fill: #000000;" clip-path="url(#cpNDAuNzkyMXw1NzAuNTIxfDI3My4zOTZ8NS40Nzk0NQ==)"/>
<circle cx="353.81" cy="49.41" r="1.95pt" style="stroke-width: 0.71; fill: #000000;" clip-path="url(#cpNDAuNzkyMXw1NzAuNTIxfDI3My4zOTZ8NS40Nzk0NQ==)"/>
<circle cx="363.44" cy="48.50" r="1.95pt" style="stroke-width: 0.71; fill: #000000;" clip-path="url(#cpNDAuNzkyMXw1NzAuNTIxfDI3My4zOTZ8NS40Nzk0NQ==)"/>
<circle cx="373.08" cy="49.86" r="1.95pt" style="stroke-width: 0.71; fill: #000000;" clip-path="url(#cpNDAuNzkyMXw1NzAuNTIxfDI3My4zOTZ8NS40Nzk0NQ==)"/>
<circle cx="382.71" cy="48.94" r="1.95pt" style="stroke-width: 0.71; fill: #000000;" clip-path="url(#cpNDAuNzkyMXw1NzAuNTIxfDI3My4zOTZ8NS40Nzk0NQ==)"/>
<circle cx="392.34" cy="48.40" r="1.95pt" style="stroke-width: 0.71; fill: #000000;" clip-path="url(#cpNDAuNzkyMXw1NzAuNTIxfDI3My4zOTZ8NS40Nzk0NQ==)"/>
<circle cx="401.97" cy="49.21" r="1.95pt" style="stroke-width: 0.71; fill: #000000;" clip-path="url(#cpNDAuNzkyMXw1NzAuNTIxfDI3My4zOTZ8NS40Nzk0NQ==)"/>
<circle cx="411.60" cy="47.03" r="1.95pt" style="stroke-width: 0.71; fill: #000000;" clip-path="url(#cpNDAuNzkyMXw1NzAuNTIxfDI3My4zOTZ8NS40Nzk0NQ==)"/>
<circle cx="421.23" cy="47.63" r="1.95pt" style="stroke-width: 0.71; fill: #000000;" clip-path="url(#cpNDAuNzkyMXw1NzAuNTIxfDI3My4zOTZ8NS40Nzk0NQ==)"/>
<circle cx="430.86" cy="45.00" r="1.95pt" style="stroke-width: 0.71; fill: #000000;" clip-path="url(#cpNDAuNzkyMXw1NzAuNTIxfDI3My4zOTZ8NS40Nzk0NQ==)"/>
<circle cx="440.50" cy="46.70" r="1.95pt" style="stroke-width: 0.71; fill: #000000;" clip-path="url(#cpNDAuNzkyMXw1NzAuNTIxfDI3My4zOTZ8NS40Nzk0NQ==)"/>
<circle cx="450.13" cy="45.49" r="1.95pt" style="stroke-width: 0.71; fill: #000000;" clip-path="url(#cpNDAuNzkyMXw1NzAuNTIxfDI3My4zOTZ8NS40Nzk0NQ==)"/>
<circle cx="459.76" cy="45.31" r="1.95pt" style="stroke-width: 0.71; fill: #000000;" clip-path="url(#cpNDAuNzkyMXw1NzAuNTIxfDI3My4zOTZ8NS40Nzk0NQ==)"/>
<circle cx="469.39" cy="44.09" r="1.95pt" style="stroke-width: 0.71; fill: #000000;" clip-path="url(#cpNDAuNzkyMXw1NzAuNTIxfDI3My4zOTZ8NS40Nzk0NQ==)"/>
<circle cx="479.02" cy="44.74" r="1.95pt" style="stroke-width: 0.71; fill: #000000;" clip-path="url(#cpNDAuNzkyMXw1NzAuNTIxfDI3My4zOTZ8NS40Nzk0NQ==)"/>
<circle cx="488.65" cy="46.52" r="1.95pt" style="stroke-width: 0.71; fill: #000000;" clip-path="url(#cpNDAuNzkyMXw1NzAuNTIxfDI3My4zOTZ8NS40Nzk0NQ==)"/>
<circle cx="498.28" cy="46.13" r="1.95pt" style="stroke-width: 0.71; fill: #000000;" clip-path="url(#cpNDAuNzkyMXw1NzAuNTIxfDI3My4zOTZ8NS40Nzk0NQ==)"/>
<circle cx="507.92" cy="42.99" r="1.95pt" style="stroke-width: 0.71; fill: #000000;" clip-path="url(#cpNDAuNzkyMXw1NzAuNTIxfDI3My4zOTZ8NS40Nzk0NQ==)"/>
<circle cx="517.55" cy="42.92" r="1.95pt" style="stroke-width: 0.71; fill: #000000;" clip-path="url(#cpNDAuNzkyMXw1NzAuNTIxfDI3My4zOTZ8NS40Nzk0NQ==)"/>
<circle cx="527.18" cy="46.62" r="1.95pt" style="stroke-width: 0.71; fill: #000000;" clip-path="url(#cpNDAuNzkyMXw1NzAuNTIxfDI3My4zOTZ8NS40Nzk0NQ==)"/>
<circle cx="536.81" cy="43.60" r="1.95pt" style="stroke-width: 0.71; fill: #000000;" clip-path="url(#cpNDAuNzkyMXw1NzAuNTIxfDI3My4zOTZ8NS40Nzk0NQ==)"/>
<circle cx="546.44" cy="42.62" r="1.95pt" style="stroke-width: 0.71; fill: #000000;" clip-path="url(#cpNDAuNzkyMXw1NzAuNTIxfDI3My4zOTZ8NS40Nzk0NQ==)"/>
<polyline points="64.87,230.32 74.50,141.32 84.13,118.66 93.76,107.02 103.40,99.99 113.03,94.85 122.66,89.72 132.29,84.14 141.92,83.39 151.55,77.22 161.18,74.19 170.82,72.34 180.45,71.22 190.08,64.36 199.71,65.23 209.34,62.30 218.97,64.33 228.60,60.71 238.24,60.48 247.87,59.66 257.50,56.26 267.13,57.37 276.76,55.29 286.39,55.52 296.02,56.09 305.66,52.80 315.29,52.34 324.92,52.17 334.55,52.14 344.18,50.11 353.81,49.41 363.44,48.50 373.08,49.86 382.71,48.94 392.34,48.40 401.97,49.21 411.60,47.03 421.23,47.63 430.86,45.00 440.50,46.70 450.13,45.49 459.76,45.31 469.39,44.09 479.02,44.74 488.65,46.52 498.28,46.13 507.92,42.99 517.55,42.92 527.18,46.62 536.81,43.60 546.44,42.62 " style="stroke-width: 1.07; stroke-linecap: butt;" clip-path="url(#cpNDAuNzkyMXw1NzAuNTIxfDI3My4zOTZ8NS40Nzk0NQ==)"/>
<polyline points="64.87,222.03 74.50,141.91 84.13,116.85 93.76,113.57 103.40,106.87 113.03,101.83 122.66,94.94 132.29,93.59 141.92,98.24 151.55,89.39 161.18,79.27 170.82,82.52 180.45,80.21 190.08,72.84 199.71,82.44 209.34,76.89 218.97,77.35 228.60,73.29 238.24,72.53 247.87,73.14 257.50,66.60 267.13,69.83 276.76,67.36 286.39,69.77 296.02,64.85 305.66,63.11 315.29,69.54 324.92,60.39 334.55,67.78 344.18,64.98 353.81,55.08 363.44,58.36 373.08,58.01 382.71,61.70 392.34,66.75 401.97,50.35 411.60,60.67 421.23,58.44 430.86,53.79 440.50,53.46 450.13,53.24 459.76,56.71 469.39,58.63 479.02,57.86 488.65,63.76 498.28,59.14 507.92,60.77 517.55,50.83 527.18,58.89 536.81,58.83 546.44,55.49 " style="stroke-width: 1.07; stroke: #F8766D; stroke-opacity: 0.40; stroke-linecap: butt;" clip-path="url(#cpNDAuNzkyMXw1NzAuNTIxfDI3My4zOTZ8NS40Nzk0NQ==)"/>
<polyline points="64.87,212.17 74.50,124.76 84.13,108.19 93.76,90.81 103.40,80.89 113.03,86.31 122.66,76.13 132.29,62.26 141.92,72.65 151.55,69.14 161.18,61.56 170.82,55.04 180.45,53.75 190.08,46.66 199.71,47.16 209.34,53.22 218.97,50.26 228.60,39.55 238.24,40.81 247.87,42.71 257.50,38.42 267.13,34.84 276.76,36.91 286.39,32.79 296.02,36.63 305.66,31.69 315.29,30.78 324.92,35.60 334.55,31.55 344.18,30.13 353.81,33.29 363.44,27.71 373.08,31.23 382.71,35.78 392.34,29.52 401.97,27.38 411.60,25.05 421.23,21.50 430.86,28.25 440.50,29.52 450.13,30.44 459.76,26.55 469.39,25.88 479.02,24.35 488.65,20.25 498.28,28.27 507.92,23.41 517.55,18.60 527.18,28.13 536.81,17.66 546.44,24.29 " style="stroke-width: 1.07; stroke: #D89000; stroke-opacity: 0.40; stroke-linecap: butt;" clip-path="url(#cpNDAuNzkyMXw1NzAuNTIxfDI3My4zOTZ8NS40Nzk0NQ==)"/>
<polyline points="64.87,201.82 74.50,142.87 84.13,106.22 93.76,98.66 103.40,96.01 113.03,90.60 122.66,80.56 132.29,75.05 141.92,71.31 151.55,66.79 161.18,63.36 170.82,66.52 180.45,62.11 190.08,50.88 199.71,52.56 209.34,56.83 218.97,56.31 228.60,56.72 238.24,48.40 247.87,55.79 257.50,52.26 267.13,54.99 276.76,48.27 286.39,46.84 296.02,52.02 305.66,46.06 315.29,49.50 324.92,48.52 334.55,47.64 344.18,49.09 353.81,44.87 363.44,45.51 373.08,39.78 382.71,41.84 392.34,39.73 401.97,45.43 411.60,35.09 421.23,41.25 430.86,42.16 440.50,41.03 450.13,37.50 459.76,44.74 469.39,34.32 479.02,41.46 488.65,40.18 498.28,42.38 507.92,34.99 517.55,31.95 527.18,44.26 536.81,40.00 546.44,39.93 " style="stroke-width: 1.07; stroke: #A3A500; stroke-opacity: 0.40; stroke-linecap: butt;" clip-path="url(#cpNDAuNzkyMXw1NzAuNTIxfDI3My4zOTZ8NS40Nzk0NQ==)"/>
<polyline points="64.87,236.80 74.50,146.50 84.13,135.83 93.76,129.51 103.40,118.43 113.03,101.95 122.66,104.77 132.29,93.49 141.92,90.18 151.55,89.07 161.18,84.20 170.82,84.39 180.45,83.02 190.08,81.10 199.71,76.30 209.34,71.20 218.97,76.41 228.60,69.74 238.24,68.44 247.87,66.61 257.50,64.89 267.13,56.84 276.76,58.95 286.39,61.19 296.02,61.58 305.66,55.12 315.29,58.78 324.92,60.04 334.55,62.43 344.18,54.64 353.81,54.24 363.44,57.31 373.08,61.10 382.71,56.18 392.34,58.24 401.97,53.53 411.60,55.24 421.23,55.47 430.86,51.16 440.50,50.38 450.13,55.36 459.76,44.89 469.39,46.27 479.02,48.58 488.65,49.36 498.28,46.33 507.92,46.98 517.55,45.81 527.18,47.11 536.81,45.52 546.44,39.39 " style="stroke-width: 1.07; stroke: #39B600; stroke-opacity: 0.40; stroke-linecap: butt;" clip-path="url(#cpNDAuNzkyMXw1NzAuNTIxfDI3My4zOTZ8NS40Nzk0NQ==)"/>
<polyline points="64.87,218.83 74.50,145.41 84.13,116.81 93.76,109.99 103.40,100.14 113.03,105.99 122.66,90.40 132.29,93.04 141.92,90.11 151.55,83.22 161.18,85.50 170.82,85.52 180.45,75.41 190.08,75.62 199.71,72.50 209.34,68.21 218.97,72.28 228.60,68.06 238.24,74.38 247.87,67.50 257.50,67.27 267.13,69.75 276.76,65.18 286.39,67.97 296.02,69.49 305.66,63.52 315.29,60.63 324.92,58.82 334.55,64.89 344.18,57.41 353.81,57.80 363.44,58.23 373.08,54.30 382.71,52.46 392.34,52.73 401.97,59.81 411.60,51.56 421.23,52.94 430.86,50.68 440.50,56.07 450.13,53.76 459.76,47.36 469.39,53.91 479.02,48.01 488.65,50.86 498.28,51.02 507.92,43.28 517.55,51.25 527.18,50.53 536.81,48.70 546.44,49.89 " style="stroke-width: 1.07; stroke: #00BF7D; stroke-opacity: 0.40; stroke-linecap: butt;" clip-path="url(#cpNDAuNzkyMXw1NzAuNTIxfDI3My4zOTZ8NS40Nzk0NQ==)"/>
<polyline points="64.87,232.01 74.50,135.76 84.13,108.77 93.76,96.09 103.40,94.90 113.03,82.95 122.66,78.80 132.29,69.74 141.92,68.03 151.55,70.79 161.18,64.07 170.82,57.93 180.45,55.88 190.08,54.23 199.71,54.46 209.34,51.55 218.97,48.04 228.60,42.20 238.24,47.94 247.87,50.29 257.50,45.21 267.13,50.05 276.76,38.80 286.39,41.73 296.02,45.63 305.66,41.50 315.29,47.80 324.92,41.72 334.55,44.72 344.18,39.94 353.81,39.24 363.44,34.15 373.08,40.14 382.71,40.21 392.34,40.59 401.97,41.61 411.60,44.72 421.23,41.69 430.86,34.90 440.50,41.43 450.13,36.90 459.76,36.44 469.39,36.89 479.02,35.96 488.65,39.35 498.28,33.62 507.92,38.52 517.55,39.81 527.18,38.92 536.81,32.23 546.44,29.51 " style="stroke-width: 1.07; stroke: #00BFC4; stroke-opacity: 0.40; stroke-linecap: butt;" clip-path="url(#cpNDAuNzkyMXw1NzAuNTIxfDI3My4zOTZ8NS40Nzk0NQ==)"/>
<polyline points="64.87,230.48 74.50,131.27 84.13,107.09 93.76,108.80 103.40,96.74 113.03,89.90 122.66,90.01 132.29,75.08 141.92,79.78 151.55,69.59 161.18,71.68 170.82,74.43 180.45,74.14 190.08,55.99 199.71,61.78 209.34,59.47 218.97,61.41 228.60,57.78 238.24,59.32 247.87,56.10 257.50,56.78 267.13,65.72 276.76,58.97 286.39,54.78 296.02,65.70 305.66,57.89 315.29,48.42 324.92,47.74 334.55,49.85 344.18,49.27 353.81,54.48 363.44,49.62 373.08,47.78 382.71,42.39 392.34,42.32 401.97,53.56 411.60,47.52 421.23,44.60 430.86,46.94 440.50,38.02 450.13,39.69 459.76,36.42 469.39,40.99 479.02,43.93 488.65,47.52 498.28,40.15 507.92,38.30 517.55,50.74 527.18,41.07 536.81,50.08 546.44,47.53 " style="stroke-width: 1.07; stroke: #00B0F6; stroke-opacity: 0.40; stroke-linecap: butt;" clip-path="url(#cpNDAuNzkyMXw1NzAuNTIxfDI3My4zOTZ8NS40Nzk0NQ==)"/>
<polyline points="64.87,239.16 74.50,149.58 84.13,138.93 93.76,117.35 103.40,108.17 113.03,101.59 122.66,94.71 132.29,95.87 141.92,92.45 151.55,79.23 161.18,81.04 170.82,73.51 180.45,82.85 190.08,67.61 199.71,70.22 209.34,66.21 218.97,66.66 228.60,62.21 238.24,57.99 247.87,59.06 257.50,53.13 267.13,52.22 276.76,56.19 286.39,55.73 296.02,54.38 305.66,47.84 315.29,51.54 324.92,56.81 334.55,51.43 344.18,46.73 353.81,49.90 363.44,52.64 373.08,46.82 382.71,47.48 392.34,47.67 401.97,52.23 411.60,46.13 421.23,45.28 430.86,39.57 440.50,48.30 450.13,44.15 459.76,48.73 469.39,41.46 479.02,49.85 488.65,44.52 498.28,49.80 507.92,43.39 517.55,37.61 527.18,46.34 536.81,40.83 546.44,42.86 " style="stroke-width: 1.07; stroke: #9590FF; stroke-opacity: 0.40; stroke-linecap: butt;" clip-path="url(#cpNDAuNzkyMXw1NzAuNTIxfDI3My4zOTZ8NS40Nzk0NQ==)"/>
<polyline points="64.87,248.66 74.50,145.18 84.13,120.11 93.76,103.85 103.40,97.57 113.03,95.97 122.66,94.83 132.29,91.10 141.92,82.12 151.55,79.74 161.18,80.01 170.82,71.12 180.45,71.14 190.08,68.08 199.71,72.03 209.34,57.02 218.97,68.79 228.60,70.17 238.24,65.99 247.87,63.78 257.50,56.39 267.13,57.87 276.76,60.82 286.39,57.99 296.02,53.57 305.66,62.88 315.29,52.58 324.92,56.23 334.55,47.04 344.18,50.00 353.81,49.02 363.44,52.96 373.08,60.87 382.71,52.32 392.34,47.91 401.97,52.00 411.60,47.70 421.23,53.35 430.86,49.61 440.50,58.64 450.13,53.13 459.76,55.11 469.39,48.46 479.02,47.85 488.65,52.19 498.28,54.26 507.92,50.19 517.55,48.26 527.18,55.71 536.81,50.45 546.44,47.98 " style="stroke-width: 1.07; stroke: #E76BF3; stroke-opacity: 0.40; stroke-linecap: butt;" clip-path="url(#cpNDAuNzkyMXw1NzAuNTIxfDI3My4zOTZ8NS40Nzk0NQ==)"/>
<polyline points="64.87,261.22 74.50,149.97 84.13,127.79 93.76,101.56 103.40,100.18 113.03,91.42 122.66,92.09 132.29,92.19 141.92,89.05 151.55,75.20 161.18,71.17 170.82,72.46 180.45,73.74 190.08,70.56 199.71,62.83 209.34,62.42 218.97,65.82 228.60,67.40 238.24,69.02 247.87,61.59 257.50,61.69 267.13,61.53 276.76,61.46 286.39,66.43 296.02,57.04 305.66,58.39 315.29,53.78 324.92,55.86 334.55,54.03 344.18,58.90 353.81,56.17 363.44,48.49 373.08,58.53 382.71,58.98 392.34,58.49 401.97,56.16 411.60,56.57 421.23,61.77 430.86,52.89 440.50,50.20 450.13,50.75 459.76,56.11 469.39,54.08 479.02,49.52 488.65,57.26 498.28,56.36 507.92,50.07 517.55,54.35 527.18,55.27 536.81,51.66 546.44,49.31 " style="stroke-width: 1.07; stroke: #FF62BC; stroke-opacity: 0.40; stroke-linecap: butt;" clip-path="url(#cpNDAuNzkyMXw1NzAuNTIxfDI3My4zOTZ8NS40Nzk0NQ==)"/>
<rect x="40.79" y="5.48" width="529.73" height="267.92" style="stroke-width: 1.07; stroke: #333333;" clip-path="url(#cpNDAuNzkyMXw1NzAuNTIxfDI3My4zOTZ8NS40Nzk0NQ==)"/>
<defs>
  <clipPath id="cpMHw1NzZ8MzA2fDA=">
    <rect x="0.00" y="0.00" width="576.00" height="306.00"/>
  </clipPath>
</defs>
<g clip-path="url(#cpMHw1NzZ8MzA2fDA=)"><text x="18.73" y="255.42" style="font-size: 8.80px; fill: #4D4D4D; font-family: Arial;" textLength="17.13px" lengthAdjust="spacingAndGlyphs">0.60</text></g>
<g clip-path="url(#cpMHw1NzZ8MzA2fDA=)"><text x="18.73" y="204.65" style="font-size: 8.80px; fill: #4D4D4D; font-family: Arial;" textLength="17.13px" lengthAdjust="spacingAndGlyphs">0.65</text></g>
<g clip-path="url(#cpMHw1NzZ8MzA2fDA=)"><text x="18.73" y="153.88" style="font-size: 8.80px; fill: #4D4D4D; font-family: Arial;" textLength="17.13px" lengthAdjust="spacingAndGlyphs">0.70</text></g>
<g clip-path="url(#cpMHw1NzZ8MzA2fDA=)"><text x="18.73" y="103.11" style="font-size: 8.80px; fill: #4D4D4D; font-family: Arial;" textLength="17.13px" lengthAdjust="spacingAndGlyphs">0.75</text></g>
<g clip-path="url(#cpMHw1NzZ8MzA2fDA=)"><text x="18.73" y="52.34" style="font-size: 8.80px; fill: #4D4D4D; font-family: Arial;" textLength="17.13px" lengthAdjust="spacingAndGlyphs">0.80</text></g>
<polyline points="38.05,252.27 40.79,252.27 " style="stroke-width: 1.07; stroke: #333333; stroke-linecap: butt;" clip-path="url(#cpMHw1NzZ8MzA2fDA=)"/>
<polyline points="38.05,201.50 40.79,201.50 " style="stroke-width: 1.07; stroke: #333333; stroke-linecap: butt;" clip-path="url(#cpMHw1NzZ8MzA2fDA=)"/>
<polyline points="38.05,150.73 40.79,150.73 " style="stroke-width: 1.07; stroke: #333333; stroke-linecap: butt;" clip-path="url(#cpMHw1NzZ8MzA2fDA=)"/>
<polyline points="38.05,99.96 40.79,99.96 " style="stroke-width: 1.07; stroke: #333333; stroke-linecap: butt;" clip-path="url(#cpMHw1NzZ8MzA2fDA=)"/>
<polyline points="38.05,49.19 40.79,49.19 " style="stroke-width: 1.07; stroke: #333333; stroke-linecap: butt;" clip-path="url(#cpMHw1NzZ8MzA2fDA=)"/>
<polyline points="62.46,276.14 62.46,273.40 " style="stroke-width: 1.07; stroke: #333333; stroke-linecap: butt;" clip-path="url(#cpMHw1NzZ8MzA2fDA=)"/>
<polyline points="182.86,276.14 182.86,273.40 " style="stroke-width: 1.07; stroke: #333333; stroke-linecap: butt;" clip-path="url(#cpMHw1NzZ8MzA2fDA=)"/>
<polyline points="303.25,276.14 303.25,273.40 " style="stroke-width: 1.07; stroke: #333333; stroke-linecap: butt;" clip-path="url(#cpMHw1NzZ8MzA2fDA=)"/>
<polyline points="423.64,276.14 423.64,273.40 " style="stroke-width: 1.07; stroke: #333333; stroke-linecap: butt;" clip-path="url(#cpMHw1NzZ8MzA2fDA=)"/>
<polyline points="544.03,276.14 544.03,273.40 " style="stroke-width: 1.07; stroke: #333333; stroke-linecap: butt;" clip-path="url(#cpMHw1NzZ8MzA2fDA=)"/>
<g clip-path="url(#cpMHw1NzZ8MzA2fDA=)"><text x="60.02" y="284.63" style="font-size: 8.80px; fill: #4D4D4D; font-family: Arial;" textLength="4.89px" lengthAdjust="spacingAndGlyphs">0</text></g>
<g clip-path="url(#cpMHw1NzZ8MzA2fDA=)"><text x="177.96" y="284.63" style="font-size: 8.80px; fill: #4D4D4D; font-family: Arial;" textLength="9.79px" lengthAdjust="spacingAndGlyphs">50</text></g>
<g clip-path="url(#cpMHw1NzZ8MzA2fDA=)"><text x="295.91" y="284.63" style="font-size: 8.80px; fill: #4D4D4D; font-family: Arial;" textLength="14.68px" lengthAdjust="spacingAndGlyphs">100</text></g>
<g clip-path="url(#cpMHw1NzZ8MzA2fDA=)"><text x="416.30" y="284.63" style="font-size: 8.80px; fill: #4D4D4D; font-family: Arial;" textLength="14.68px" lengthAdjust="spacingAndGlyphs">150</text></g>
<g clip-path="url(#cpMHw1NzZ8MzA2fDA=)"><text x="536.69" y="284.63" style="font-size: 8.80px; fill: #4D4D4D; font-family: Arial;" textLength="14.68px" lengthAdjust="spacingAndGlyphs">200</text></g>
<g clip-path="url(#cpMHw1NzZ8MzA2fDA=)"><text x="277.53" y="297.88" style="font-size: 11.00px; font-family: Arial;" textLength="56.26px" lengthAdjust="spacingAndGlyphs">#Neighbors</text></g>
<g clip-path="url(#cpMHw1NzZ8MzA2fDA=)"><text transform="translate(13.35,197.20) rotate(-90)" style="font-size: 11.00px; font-family: Arial;" textLength="115.53px" lengthAdjust="spacingAndGlyphs">ROC (Cross-Validation)</text></g>
</svg>