<svg preserveAspectRatio="xMidYMid meet" viewBox="0 0 450 280" class="svg-content" xmlns="http://www.w3.org/2000/svg" xmlns:xlink="http://www.w3.org/1999/xlink"><g transform="translate(40,20)"><g transform="translate(0, 200)" fill="none" font-size="10" font-family="sans-serif" text-anchor="middle"><path class="domain" stroke="#000" d="M0.5,6V0.5H400.5V6"></path><g class="tick" opacity="1" transform="translate(33.333333333333336,0)"><line stroke="#939599" y2="-200" stroke-width="0.2"></line><text fill="#000" y="9" dy="-.15em" dx="-.8em" transform="rotate(-25)" style="text-anchor: end;">2021</text></g><g class="tick" opacity="1" transform="translate(100,0)"><line stroke="#939599" y2="-200" stroke-width="0.2"></line><text fill="#000" y="9" dy="-.15em" dx="-.8em" transform="rotate(-25)" style="text-anchor: end;">2022</text></g><g class="tick" opacity="1" transform="translate(166.66666666666669,0)"><line stroke="#939599" y2="-200" stroke-width="0.2"></line><text fill="#000" y="9" dy="-.15em" dx="-.8em" transform="rotate(-25)" style="text-anchor: end;">2023</text></g><g class="tick" opacity="1" transform="translate(233.33333333333334,0)"><line stroke="#939599" y2="-200" stroke-width="0.2"></line><text fill="#000" y="9" dy="-.15em" dx="-.8em" transform="rotate(-25)" style="text-anchor: end;">2024</text></g><g class="tick" opacity="1" transform="translate(300,0)"><line stroke="#939599" y2="-200" stroke-width="0.2"></line><text fill="#000" y="9" dy="-.15em" dx="-.8em" transform="rotate(-25)" style="text-anchor: end;">2025</text></g><g class="tick" opacity="1" transform="translate(366.6666666666667,0)"><line stroke="#939599" y2="-200" stroke-width="0.2"></line><text fill="#000" y="9" dy="-.15em" dx="-.8em" transform="rotate(-25)" style="text-anchor: end;">2026</text></g></g><text y="240" x="200" style="text-anchor: middle;">X label</text><g fill="none" font-size="10" font-family="sans-serif" text-anchor="end"><path class="domain" stroke="#000" d="M-6,200.5H0.5V0.5H-6"></path><g class="tick" opacity="1" transform="translate(0,200.5)"><line stroke="#000" x2="-6"></line><text fill="#000" x="-9" dy="0.32em">0</text></g><g class="tick" opacity="1" transform="translate(0,182.3181818181818)"><line stroke="#000" x2="-6"></line><text fill="#000" x="-9" dy="0.32em">2</text></g><g class="tick" opacity="1" transform="translate(0,164.13636363636363)"><line stroke="#000" x2="-6"></line><text fill="#000" x="-9" dy="0.32em">4</text></g><g class="tick" opacity="1" transform="translate(0,145.95454545454547)"><line stroke="#000" x2="-6"></line><text fill="#000" x="-9" dy="0.32em">6</text></g><g class="tick" opacity="1" transform="translate(0,127.77272727272727)"><line stroke="#000" x2="-6"></line><text fill="#000" x="-9" dy="0.32em">8</text></g><g class="tick" opacity="1" transform="translate(0,109.5909090909091)"><line stroke="#000" x2="-6"></line><text fill="#000" x="-9" dy="0.32em">10</text></g><g class="tick" opacity="1" transform="translate(0,91.40909090909092)"><line stroke="#000" x2="-6"></line><text fill="#000" x="-9" dy="0.32em">12</text></g><g class="tick" opacity="1" transform="translate(0,73.22727272727273)"><line stroke="#000" x2="-6"></line><text fill="#000" x="-9" dy="0.32em">14</text></g><g class="tick" opacity="1" transform="translate(0,55.04545454545453)"><line stroke="#000" x2="-6"></line><text fill="#000" x="-9" dy="0.32em">16</text></g><g class="tick" opacity="1" transform="translate(0,36.863636363636346)"><line stroke="#000" x2="-6"></line><text fill="#000" x="-9" dy="0.32em">18</text></g><g class="tick" opacity="1" transform="translate(0,18.681818181818187)"><line stroke="#000" x2="-6"></line><text fill="#000" x="-9" dy="0.32em">20</text></g><g class="tick" opacity="1" transform="translate(0,0.5)"><line stroke="#000" x2="-6"></line><text fill="#000" x="-9" dy="0.32em">22</text></g></g><text transform="rotate(-90)" y="-40" x="-100" dy="1em" style="text-anchor: middle;">Y label</text><g data-groupName="Valuea" transform="translate(33.333333333333336,0)" style="fill: rgb(0, 133, 173); display: block;"><path d="M0,172.72727272727272L66.66666666666667,190.9090909090909L133.33333333333334,181.8181818181818" stroke="white" stroke-width="4" stroke-linejoin="round" stroke-linecap="round" stroke-opacity="1" style="fill: none;"></path><path d="M0,172.72727272727272L66.66666666666667,190.9090909090909L133.33333333333334,181.8181818181818" stroke="#0085ad" stroke-linejoin="round" stroke-linecap="round" stroke-opacity="1" style="stroke-width: 2; fill: none;"></path><path d="M4.51351666838205,0A4.51351666838205,4.51351666838205,0,1,1,-4.51351666838205,0A4.51351666838205,4.51351666838205,0,1,1,4.51351666838205,0" transform="translate(0,172.72727272727272)"></path><path d="M4.51351666838205,0A4.51351666838205,4.51351666838205,0,1,1,-4.51351666838205,0A4.51351666838205,4.51351666838205,0,1,1,4.51351666838205,0" transform="translate(66.66666666666667,190.9090909090909)"></path><path d="M4.51351666838205,0A4.51351666838205,4.51351666838205,0,1,1,-4.51351666838205,0A4.51351666838205,4.51351666838205,0,1,1,4.51351666838205,0" transform="translate(133.33333333333334,181.8181818181818)"></path></g><g data-groupName="Valueb" transform="translate(33.333333333333336,0)" style="fill: rgb(60, 16, 83); display: block;"><path d="M0,181.8181818181818ZM200,190.9090909090909L266.6666666666667,136.36363636363637" stroke="white" stroke-width="4" stroke-linejoin="round" stroke-linecap="round" stroke-opacity="1" style="fill: none;"></path><path d="M0,181.8181818181818ZM200,190.9090909090909L266.6666666666667,136.36363636363637" stroke="#3c1053" stroke-linejoin="round" stroke-linecap="round" stroke-opacity="1" style="stroke-width: 2; fill: none;"></path><path d="M-5.366563145999495,-1.7888543819998317L-1.7888543819998317,-1.7888543819998317L-1.7888543819998317,-5.366563145999495L1.7888543819998317,-5.366563145999495L1.7888543819998317,-1.7888543819998317L5.366563145999495,-1.7888543819998317L5.366563145999495,1.7888543819998317L1.7888543819998317,1.7888543819998317L1.7888543819998317,5.366563145999495L-1.7888543819998317,5.366563145999495L-1.7888543819998317,1.7888543819998317L-5.366563145999495,1.7888543819998317Z" transform="translate(0,181.8181818181818)"></path><path d="M-5.366563145999495,-1.7888543819998317L-1.7888543819998317,-1.7888543819998317L-1.7888543819998317,-5.366563145999495L1.7888543819998317,-5.366563145999495L1.7888543819998317,-1.7888543819998317L5.366563145999495,-1.7888543819998317L5.366563145999495,1.7888543819998317L1.7888543819998317,1.7888543819998317L1.7888543819998317,5.366563145999495L-1.7888543819998317,5.366563145999495L-1.7888543819998317,1.7888543819998317L-5.366563145999495,1.7888543819998317Z" transform="translate(200,190.9090909090909)"></path><path d="M-5.366563145999495,-1.7888543819998317L-1.7888543819998317,-1.7888543819998317L-1.7888543819998317,-5.366563145999495L1.7888543819998317,-5.366563145999495L1.7888543819998317,-1.7888543819998317L5.366563145999495,-1.7888543819998317L5.366563145999495,1.7888543819998317L1.7888543819998317,1.7888543819998317L1.7888543819998317,5.366563145999495L-1.7888543819998317,5.366563145999495L-1.7888543819998317,1.7888543819998317L-5.366563145999495,1.7888543819998317Z" transform="translate(266.6666666666667,136.36363636363637)"></path></g><g data-groupName="Valuec" transform="translate(33.333333333333336,0)" style="fill: rgb(229, 114, 0); display: block;"><path d="M0,172.72727272727272L66.66666666666667,172.72727272727272L133.33333333333334,181.8181818181818L200,163.63636363636363L266.6666666666667,163.63636363636363" stroke="white" stroke-width="4" stroke-linejoin="round" stroke-linecap="round" stroke-opacity="1" style="fill: none;"></path><path d="M0,172.72727272727272L66.66666666666667,172.72727272727272L133.33333333333334,181.8181818181818L200,163.63636363636363L266.6666666666667,163.63636363636363" stroke="#e57200" stroke-linejoin="round" stroke-linecap="round" stroke-opacity="1" style="stroke-width: 2; fill: none;"></path><path d="M0,-7.444838872816797L4.298279727294168,0L0,7.444838872816797L-4.298279727294168,0Z" transform="translate(0,172.72727272727272)"></path><path d="M0,-7.444838872816797L4.298279727294168,0L0,7.444838872816797L-4.298279727294168,0Z" transform="translate(66.66666666666667,172.72727272727272)"></path><path d="M0,-7.444838872816797L4.298279727294168,0L0,7.444838872816797L-4.298279727294168,0Z" transform="translate(133.33333333333334,181.8181818181818)"></path><path d="M0,-7.444838872816797L4.298279727294168,0L0,7.444838872816797L-4.298279727294168,0Z" transform="translate(200,163.63636363636363)"></path><path d="M0,-7.444838872816797L4.298279727294168,0L0,7.444838872816797L-4.298279727294168,0Z" transform="translate(266.6666666666667,163.63636363636363)"></path></g><g data-groupName="Valuee" transform="translate(33.333333333333336,0)" style="fill: rgb(172, 20, 90); display: block;"><path d="M0,163.63636363636363L66.66666666666667,0L133.33333333333334,172.72727272727272L200,163.63636363636363L266.6666666666667,154.54545454545456" stroke="white" stroke-width="4" stroke-linejoin="round" stroke-linecap="round" stroke-opacity="1" style="fill: none;"></path><path d="M0,163.63636363636363L66.66666666666667,0L133.33333333333334,172.72727272727272L200,163.63636363636363L266.6666666666667,154.54545454545456" stroke="#ac145a" stroke-linejoin="round" stroke-linecap="round" stroke-opacity="1" style="stroke-width: 2; fill: none;"></path><path d="M-4,-4h8v8h-8Z" transform="translate(0,163.63636363636363)"></path><path d="M-4,-4h8v8h-8Z" transform="translate(66.66666666666667,0)"></path><path d="M-4,-4h8v8h-8Z" transform="translate(133.33333333333334,172.72727272727272)"></path><path d="M-4,-4h8v8h-8Z" transform="translate(200,163.63636363636363)"></path><path d="M-4,-4h8v8h-8Z" transform="translate(266.6666666666667,154.54545454545456)"></path></g><g data-groupName="Target" transform="translate(33.333333333333336,0)" style="fill: rgb(4, 30, 66); display: none;"><path d="M333.33333333333337,36.363636363636346Z" stroke="white" stroke-width="4" stroke-linejoin="round" stroke-linecap="round" stroke-opacity="1" style="fill: none;"></path><path d="M333.33333333333337,36.363636363636346Z" stroke="#041e42" stroke-linejoin="round" stroke-linecap="round" stroke-opacity="1" style="stroke-width: 2; fill: none;"></path><path d="M0,-7.550631619796734L1.6952224190675822,-2.3332734887820274L7.181077404151914,-2.333273488782028L2.7429274925421656,0.8912311676656879L4.43814991160975,6.108589298680394L4.440892098500626e-16,2.884084642232679L-4.438149911609748,6.108589298680395L-2.742927492542166,0.8912311676656884L-7.181077404151915,-2.333273488782026L-1.6952224190675829,-2.333273488782027Z" transform="translate(333.33333333333337,36.363636363636346)"></path></g></g></svg>