<svg class="plot-d6a7b5 a2a6b6665" fill="currentColor" font-family="system-ui, sans-serif" font-size="10" text-anchor="middle" width="1152" height="630" viewBox="0 0 1152 630" style="overflow: visible;" xmlns="http://www.w3.org/2000/svg" xmlns:xlink="http://www.w3.org/1999/xlink"><style>:where(.plot-d6a7b5) {
  --plot-background: white;
  display: block;
  height: auto;
  height: intrinsic;
  max-width: 100%;
}
:where(.plot-d6a7b5 text),
:where(.plot-d6a7b5 tspan) {
  white-space: pre;
}</style><g aria-label="y-grid" aria-hidden="true" stroke="currentColor" stroke-opacity="0.1" transform="translate(0,9)"><line x1="250" x2="1052" y1="26" y2="26"/><line x1="250" x2="1052" y1="46" y2="46"/><line x1="250" x2="1052" y1="66" y2="66"/><line x1="250" x2="1052" y1="86" y2="86"/><line x1="250" x2="1052" y1="106" y2="106"/><line x1="250" x2="1052" y1="126" y2="126"/><line x1="250" x2="1052" y1="146" y2="146"/><line x1="250" x2="1052" y1="166" y2="166"/><line x1="250" x2="1052" y1="186" y2="186"/><line x1="250" x2="1052" y1="206" y2="206"/><line x1="250" x2="1052" y1="226" y2="226"/><line x1="250" x2="1052" y1="246" y2="246"/><line x1="250" x2="1052" y1="266" y2="266"/><line x1="250" x2="1052" y1="286" y2="286"/><line x1="250" x2="1052" y1="306" y2="306"/><line x1="250" x2="1052" y1="326" y2="326"/><line x1="250" x2="1052" y1="346" y2="346"/><line x1="250" x2="1052" y1="366" y2="366"/><line x1="250" x2="1052" y1="386" y2="386"/><line x1="250" x2="1052" y1="406" y2="406"/></g><g aria-label="y-axis tick" aria-hidden="true" fill="none" stroke="currentColor" transform="translate(0,9)"><path transform="translate(250,26)" d="M0,0L-6,0" style="pointer-events: visiblestroke;"/><path transform="translate(250,46)" d="M0,0L-6,0" style="pointer-events: visiblestroke;"/><path transform="translate(250,66)" d="M0,0L-6,0" style="pointer-events: visiblestroke;"/><path transform="translate(250,86)" d="M0,0L-6,0" style="pointer-events: visiblestroke;"/><path transform="translate(250,106)" d="M0,0L-6,0" style="pointer-events: visiblestroke;"/><path transform="translate(250,126)" d="M0,0L-6,0" style="pointer-events: visiblestroke;"/><path transform="translate(250,146)" d="M0,0L-6,0" style="pointer-events: visiblestroke;"/><path transform="translate(250,166)" d="M0,0L-6,0" style="pointer-events: visiblestroke;"/><path transform="translate(250,186)" d="M0,0L-6,0" style="pointer-events: visiblestroke;"/><path transform="translate(250,206)" d="M0,0L-6,0" style="pointer-events: visiblestroke;"/><path transform="translate(250,226)" d="M0,0L-6,0" style="pointer-events: visiblestroke;"/><path transform="translate(250,246)" d="M0,0L-6,0" style="pointer-events: visiblestroke;"/><path transform="translate(250,266)" d="M0,0L-6,0" style="pointer-events: visiblestroke;"/><path transform="translate(250,286)" d="M0,0L-6,0" style="pointer-events: visiblestroke;"/><path transform="translate(250,306)" d="M0,0L-6,0" style="pointer-events: visiblestroke;"/><path transform="translate(250,326)" d="M0,0L-6,0" style="pointer-events: visiblestroke;"/><path transform="translate(250,346)" d="M0,0L-6,0" style="pointer-events: visiblestroke;"/><path transform="translate(250,366)" d="M0,0L-6,0" style="pointer-events: visiblestroke;"/><path transform="translate(250,386)" d="M0,0L-6,0" style="pointer-events: visiblestroke;"/><path transform="translate(250,406)" d="M0,0L-6,0" style="pointer-events: visiblestroke;"/></g><g aria-label="y-axis tick label" text-anchor="end" transform="translate(-9,9)"><text y="0.32em" transform="translate(250,26)">Google Land &amp; Sea Journal Set</text><text y="0.32em" transform="translate(250,46)">Android SM S/F18 Sticker Sheet</text><text y="0.32em" transform="translate(250,66)">Google Flat Front Bag Grey</text><text y="0.32em" transform="translate(250,86)">Google Small Standard Journal Navy</text><text y="0.32em" transform="translate(250,106)">Google See-No Hear-No Set</text><text y="0.32em" transform="translate(250,126)">Google Crew Combed Cotton Sock</text><text y="0.32em" transform="translate(250,146)">Google Confetti Slim Task Pad</text><text y="0.32em" transform="translate(250,166)">Keyboard DOT Sticker</text><text y="0.32em" transform="translate(250,186)">Google Phone Stand Bamboo</text><text y="0.32em" transform="translate(250,206)">Google Magnet</text><text y="0.32em" transform="translate(250,226)">Google Recycled Pen Black</text><text y="0.32em" transform="translate(250,246)">Google Mountain View Campus Zip Hoodie</text><text y="0.32em" transform="translate(250,266)">Google Light Pen Red</text><text y="0.32em" transform="translate(250,286)">Google Metallic Notebook Set</text><text y="0.32em" transform="translate(250,306)">Google Youth FC Tee Charcoal</text><text y="0.32em" transform="translate(250,326)">Google Light Pen Green</text><text y="0.32em" transform="translate(250,346)">Google Sunglasses</text><text y="0.32em" transform="translate(250,366)">Google Speckled Beanie Navy</text><text y="0.32em" transform="translate(250,386)">Google Crewneck Sweatshirt Navy</text><text y="0.32em" transform="translate(250,406)">Google Crew Socks</text></g><g aria-label="x-grid" aria-hidden="true" stroke="currentColor" stroke-opacity="0.1" transform="translate(17.5,0)"><line x1="263" x2="263" y1="20" y2="430"/><line x1="302" x2="302" y1="20" y2="430"/><line x1="341" x2="341" y1="20" y2="430"/><line x1="380" x2="380" y1="20" y2="430"/><line x1="419" x2="419" y1="20" y2="430"/><line x1="458" x2="458" y1="20" y2="430"/><line x1="497" x2="497" y1="20" y2="430"/><line x1="536" x2="536" y1="20" y2="430"/><line x1="575" x2="575" y1="20" y2="430"/><line x1="614" x2="614" y1="20" y2="430"/><line x1="653" x2="653" y1="20" y2="430"/><line x1="692" x2="692" y1="20" y2="430"/><line x1="731" x2="731" y1="20" y2="430"/><line x1="770" x2="770" y1="20" y2="430"/><line x1="809" x2="809" y1="20" y2="430"/><line x1="848" x2="848" y1="20" y2="430"/><line x1="887" x2="887" y1="20" y2="430"/><line x1="926" x2="926" y1="20" y2="430"/><line x1="965" x2="965" y1="20" y2="430"/><line x1="1004" x2="1004" y1="20" y2="430"/></g><g aria-label="x-axis tick" aria-hidden="true" fill="none" stroke="currentColor" transform="translate(17.5,0)"><path transform="translate(263,430)" d="M0,0L0,6" style="pointer-events: visiblestroke;"/><path transform="translate(302,430)" d="M0,0L0,6" style="pointer-events: visiblestroke;"/><path transform="translate(341,430)" d="M0,0L0,6" style="pointer-events: visiblestroke;"/><path transform="translate(380,430)" d="M0,0L0,6" style="pointer-events: visiblestroke;"/><path transform="translate(419,430)" d="M0,0L0,6" style="pointer-events: visiblestroke;"/><path transform="translate(458,430)" d="M0,0L0,6" style="pointer-events: visiblestroke;"/><path transform="translate(497,430)" d="M0,0L0,6" style="pointer-events: visiblestroke;"/><path transform="translate(536,430)" d="M0,0L0,6" style="pointer-events: visiblestroke;"/><path transform="translate(575,430)" d="M0,0L0,6" style="pointer-events: visiblestroke;"/><path transform="translate(614,430)" d="M0,0L0,6" style="pointer-events: visiblestroke;"/><path transform="translate(653,430)" d="M0,0L0,6" style="pointer-events: visiblestroke;"/><path transform="translate(692,430)" d="M0,0L0,6" style="pointer-events: visiblestroke;"/><path transform="translate(731,430)" d="M0,0L0,6" style="pointer-events: visiblestroke;"/><path transform="translate(770,430)" d="M0,0L0,6" style="pointer-events: visiblestroke;"/><path transform="translate(809,430)" d="M0,0L0,6" style="pointer-events: visiblestroke;"/><path transform="translate(848,430)" d="M0,0L0,6" style="pointer-events: visiblestroke;"/><path transform="translate(887,430)" d="M0,0L0,6" style="pointer-events: visiblestroke;"/><path transform="translate(926,430)" d="M0,0L0,6" style="pointer-events: visiblestroke;"/><path transform="translate(965,430)" d="M0,0L0,6" style="pointer-events: visiblestroke;"/><path transform="translate(1004,430)" d="M0,0L0,6" style="pointer-events: visiblestroke;"/></g><g aria-label="x-axis tick label" text-anchor="start" transform="translate(17.5,9)"><text y="0.32em" transform="translate(263,430) rotate(90)">Android SM S/F18 Sticker Sheet</text><text y="0.32em" transform="translate(302,430) rotate(90)">Android Iconic Crewneck Sweatshirt</text><text y="0.32em" transform="translate(341,430) rotate(90)">Google Camp Mug Ivory</text><text y="0.32em" transform="translate(380,430) rotate(90)">Google Confetti Slim Task Pad</text><text y="0.32em" transform="translate(419,430) rotate(90)">Google Campus Bike</text><text y="0.32em" transform="translate(458,430) rotate(90)">Google Crew Combed Cotton Sock</text><text y="0.32em" transform="translate(497,430) rotate(90)">Google See-No Hear-No Set</text><text y="0.32em" transform="translate(536,430) rotate(90)">Google Phone Stand Bamboo</text><text y="0.32em" transform="translate(575,430) rotate(90)">#IamRemarkable Water Bottle</text><text y="0.32em" transform="translate(614,430) rotate(90)">Google Canteen Bottle Black</text><text y="0.32em" transform="translate(653,430) rotate(90)">Google Mountain View Campus Zip Hoodie</text><text y="0.32em" transform="translate(692,430) rotate(90)">Google Magnet</text><text y="0.32em" transform="translate(731,430) rotate(90)">Google Light Pen Green</text><text y="0.32em" transform="translate(770,430) rotate(90)">Google Light Pen Blue</text><text y="0.32em" transform="translate(809,430) rotate(90)">Google Clear Pen 4-Pack</text><text y="0.32em" transform="translate(848,430) rotate(90)">Google Toddler FC Tee Charcoal</text><text y="0.32em" transform="translate(887,430) rotate(90)">Google Heathered Pom Beanie</text><text y="0.32em" transform="translate(926,430) rotate(90)">Android Large Removable Sticker Sheet</text><text y="0.32em" transform="translate(965,430) rotate(90)">Google Crewneck Sweatshirt Grey</text><text y="0.32em" transform="translate(1004,430) rotate(90)">Google Crew Socks</text></g><g aria-label="cell" stroke="gray"><rect x="1004" width="35" y="386" height="18" fill="rgb(239, 249, 236)" __title="Google Crew Socks + Google Crewneck Sweatshirt Navy = 14" class="has-title"/><rect x="380" width="35" y="126" height="18" fill="rgb(60, 164, 88)" __title="Google Confetti Slim Task Pad + Google Crew Combed Cotton Sock = 105" class="has-title"/><rect x="419" width="35" y="146" height="18" fill="rgb(58, 162, 87)" __title="Google Campus Bike + Google Confetti Slim Task Pad = 106" class="has-title"/><rect x="497" width="35" y="166" height="18" fill="rgb(247, 252, 245)" __title="Google See-No Hear-No Set + Keyboard DOT Sticker = 6" class="has-title"/><rect x="575" width="35" y="186" height="18" fill="rgb(118, 197, 122)" __title="#IamRemarkable Water Bottle + Google Phone Stand Bamboo = 81" class="has-title"/><rect x="887" width="35" y="286" height="18" fill="rgb(246, 252, 244)" __title="Google Heathered Pom Beanie + Google Metallic Notebook Set = 7" class="has-title"/><rect x="263" width="35" y="26" height="18" fill="rgb(0, 68, 27)" __title="Android SM S/F18 Sticker Sheet + Google Land &amp; Sea Journal Set = 158" class="has-title"/><rect x="302" width="35" y="26" height="18" fill="rgb(2, 95, 39)" __title="Android Iconic Crewneck Sweatshirt + Google Land &amp; Sea Journal Set = 145" class="has-title"/><rect x="302" width="35" y="46" height="18" fill="rgb(14, 120, 54)" __title="Android Iconic Crewneck Sweatshirt + Android SM S/F18 Sticker Sheet = 132" class="has-title"/><rect x="341" width="35" y="66" height="18" fill="rgb(43, 148, 75)" __title="Google Camp Mug Ivory + Google Flat Front Bag Grey = 115" class="has-title"/><rect x="380" width="35" y="86" height="18" fill="rgb(53, 157, 83)" __title="Google Confetti Slim Task Pad + Google Small Standard Journal Navy = 109" class="has-title"/><rect x="380" width="35" y="106" height="18" fill="rgb(53, 157, 83)" __title="Google Confetti Slim Task Pad + Google See-No Hear-No Set = 109" class="has-title"/><rect x="419" width="35" y="106" height="18" fill="rgb(55, 159, 84)" __title="Google Campus Bike + Google See-No Hear-No Set = 108" class="has-title"/><rect x="458" width="35" y="106" height="18" fill="rgb(58, 162, 87)" __title="Google Crew Combed Cotton Sock + Google See-No Hear-No Set = 106" class="has-title"/><rect x="419" width="35" y="126" height="18" fill="rgb(58, 162, 87)" __title="Google Campus Bike + Google Crew Combed Cotton Sock = 106" class="has-title"/><rect x="497" width="35" y="86" height="18" fill="rgb(60, 164, 88)" __title="Google See-No Hear-No Set + Google Small Standard Journal Navy = 105" class="has-title"/><rect x="419" width="35" y="86" height="18" fill="rgb(62, 165, 89)" __title="Google Campus Bike + Google Small Standard Journal Navy = 104" class="has-title"/><rect x="458" width="35" y="86" height="18" fill="rgb(62, 165, 89)" __title="Google Crew Combed Cotton Sock + Google Small Standard Journal Navy = 104" class="has-title"/><rect x="536" width="35" y="166" height="18" fill="rgb(110, 193, 117)" __title="Google Phone Stand Bamboo + Keyboard DOT Sticker = 84" class="has-title"/><rect x="575" width="35" y="166" height="18" fill="rgb(118, 197, 122)" __title="#IamRemarkable Water Bottle + Keyboard DOT Sticker = 81" class="has-title"/><rect x="614" width="35" y="206" height="18" fill="rgb(173, 222, 167)" __title="Google Canteen Bottle Black + Google Magnet = 57" class="has-title"/><rect x="653" width="35" y="166" height="18" fill="rgb(175, 223, 169)" __title="Google Mountain View Campus Zip Hoodie + Keyboard DOT Sticker = 56" class="has-title"/><rect x="653" width="35" y="186" height="18" fill="rgb(177, 224, 171)" __title="Google Mountain View Campus Zip Hoodie + Google Phone Stand Bamboo = 55" class="has-title"/><rect x="692" width="35" y="226" height="18" fill="rgb(177, 224, 171)" __title="Google Magnet + Google Recycled Pen Black = 55" class="has-title"/><rect x="575" width="35" y="246" height="18" fill="rgb(179, 224, 172)" __title="#IamRemarkable Water Bottle + Google Mountain View Campus Zip Hoodie = 54" class="has-title"/><rect x="614" width="35" y="226" height="18" fill="rgb(185, 227, 178)" __title="Google Canteen Bottle Black + Google Recycled Pen Black = 51" class="has-title"/><rect x="731" width="35" y="266" height="18" fill="rgb(194, 231, 188)" __title="Google Light Pen Green + Google Light Pen Red = 46" class="has-title"/><rect x="809" width="35" y="286" height="18" fill="rgb(196, 232, 189)" __title="Google Clear Pen 4-Pack + Google Metallic Notebook Set = 45" class="has-title"/><rect x="770" width="35" y="266" height="18" fill="rgb(196, 232, 189)" __title="Google Light Pen Blue + Google Light Pen Red = 45" class="has-title"/><rect x="770" width="35" y="326" height="18" fill="rgb(203, 234, 197)" __title="Google Light Pen Blue + Google Light Pen Green = 41" class="has-title"/><rect x="848" width="35" y="306" height="18" fill="rgb(203, 234, 197)" __title="Google Toddler FC Tee Charcoal + Google Youth FC Tee Charcoal = 41" class="has-title"/><rect x="809" width="35" y="346" height="18" fill="rgb(210, 237, 203)" __title="Google Clear Pen 4-Pack + Google Sunglasses = 37" class="has-title"/><rect x="887" width="35" y="366" height="18" fill="rgb(210, 237, 203)" __title="Google Heathered Pom Beanie + Google Speckled Beanie Navy = 37" class="has-title"/><rect x="926" width="35" y="46" height="18" fill="rgb(210, 237, 203)" __title="Android Large Removable Sticker Sheet + Android SM S/F18 Sticker Sheet = 37" class="has-title"/><rect x="458" width="35" y="406" height="18" fill="rgb(213, 238, 207)" __title="Google Crew Combed Cotton Sock + Google Crew Socks = 35" class="has-title"/><rect x="965" width="35" y="386" height="18" fill="rgb(213, 238, 207)" __title="Google Crewneck Sweatshirt Grey + Google Crewneck Sweatshirt Navy = 35" class="has-title"/><rect x="1004" width="35" y="286" height="18" fill="rgb(219, 241, 213)" __title="Google Crew Socks + Google Metallic Notebook Set = 31" class="has-title"/><rect x="302" width="35" y="386" height="18" fill="rgb(220, 241, 215)" __title="Android Iconic Crewneck Sweatshirt + Google Crewneck Sweatshirt Navy = 30" class="has-title"/><rect x="263" width="35" y="386" height="18" fill="rgb(222, 242, 216)" __title="Android SM S/F18 Sticker Sheet + Google Crewneck Sweatshirt Navy = 29" class="has-title"/><rect x="809" width="35" y="86" height="18" fill="rgb(223, 243, 218)" __title="Google Clear Pen 4-Pack + Google Small Standard Journal Navy = 28" class="has-title"/><rect x="341" width="35" y="206" height="18" fill="rgb(227, 244, 222)" __title="Google Camp Mug Ivory + Google Magnet = 25" class="has-title"/><rect x="809" width="35" y="406" height="18" fill="rgb(232, 246, 228)" __title="Google Clear Pen 4-Pack + Google Crew Socks = 21" class="has-title"/><rect x="770" width="35" y="286" height="18" fill="rgb(237, 248, 234)" __title="Google Light Pen Blue + Google Metallic Notebook Set = 16" class="has-title"/><rect x="809" width="35" y="206" height="18" fill="rgb(238, 249, 235)" __title="Google Clear Pen 4-Pack + Google Magnet = 15" class="has-title"/><rect x="809" width="35" y="326" height="18" fill="rgb(239, 249, 236)" __title="Google Clear Pen 4-Pack + Google Light Pen Green = 14" class="has-title"/><rect x="692" width="35" y="286" height="18" fill="rgb(239, 249, 236)" __title="Google Magnet + Google Metallic Notebook Set = 14" class="has-title"/><rect x="419" width="35" y="206" height="18" fill="rgb(240, 249, 237)" __title="Google Campus Bike + Google Magnet = 13" class="has-title"/><rect x="809" width="35" y="146" height="18" fill="rgb(240, 249, 237)" __title="Google Clear Pen 4-Pack + Google Confetti Slim Task Pad = 13" class="has-title"/><rect x="887" width="35" y="346" height="18" fill="rgb(240, 249, 237)" __title="Google Heathered Pom Beanie + Google Sunglasses = 13" class="has-title"/><rect x="809" width="35" y="126" height="18" fill="rgb(241, 250, 238)" __title="Google Clear Pen 4-Pack + Google Crew Combed Cotton Sock = 12" class="has-title"/><rect x="341" width="35" y="146" height="18" fill="rgb(241, 250, 238)" __title="Google Camp Mug Ivory + Google Confetti Slim Task Pad = 12" class="has-title"/><rect x="809" width="35" y="266" height="18" fill="rgb(241, 250, 238)" __title="Google Clear Pen 4-Pack + Google Light Pen Red = 12" class="has-title"/><rect x="770" width="35" y="86" height="18" fill="rgb(241, 250, 238)" __title="Google Light Pen Blue + Google Small Standard Journal Navy = 12" class="has-title"/><rect x="458" width="35" y="346" height="18" fill="rgb(242, 250, 239)" __title="Google Crew Combed Cotton Sock + Google Sunglasses = 11" class="has-title"/><rect x="341" width="35" y="126" height="18" fill="rgb(242, 250, 239)" __title="Google Camp Mug Ivory + Google Crew Combed Cotton Sock = 11" class="has-title"/><rect x="887" width="35" y="226" height="18" fill="rgb(242, 250, 239)" __title="Google Heathered Pom Beanie + Google Recycled Pen Black = 11" class="has-title"/><rect x="341" width="35" y="286" height="18" fill="rgb(242, 250, 239)" __title="Google Camp Mug Ivory + Google Metallic Notebook Set = 11" class="has-title"/><rect x="1004" width="35" y="306" height="18" fill="rgb(243, 251, 241)" __title="Google Crew Socks + Google Youth FC Tee Charcoal = 10" class="has-title"/><rect x="341" width="35" y="86" height="18" fill="rgb(243, 251, 241)" __title="Google Camp Mug Ivory + Google Small Standard Journal Navy = 10" class="has-title"/><rect x="263" width="35" y="166" height="18" fill="rgb(243, 251, 241)" __title="Android SM S/F18 Sticker Sheet + Keyboard DOT Sticker = 10" class="has-title"/><rect x="341" width="35" y="406" height="18" fill="rgb(243, 251, 241)" __title="Google Camp Mug Ivory + Google Crew Socks = 10" class="has-title"/><rect x="614" width="35" y="366" height="18" fill="rgb(243, 251, 241)" __title="Google Canteen Bottle Black + Google Speckled Beanie Navy = 10" class="has-title"/><rect x="263" width="35" y="406" height="18" fill="rgb(244, 251, 242)" __title="Android SM S/F18 Sticker Sheet + Google Crew Socks = 9" class="has-title"/><rect x="263" width="35" y="286" height="18" fill="rgb(244, 251, 242)" __title="Android SM S/F18 Sticker Sheet + Google Metallic Notebook Set = 9" class="has-title"/><rect x="692" width="35" y="166" height="18" fill="rgb(244, 251, 242)" __title="Google Magnet + Keyboard DOT Sticker = 9" class="has-title"/><rect x="770" width="35" y="346" height="18" fill="rgb(244, 251, 242)" __title="Google Light Pen Blue + Google Sunglasses = 9" class="has-title"/><rect x="263" width="35" y="206" height="18" fill="rgb(245, 251, 243)" __title="Android SM S/F18 Sticker Sheet + Google Magnet = 8" class="has-title"/><rect x="458" width="35" y="366" height="18" fill="rgb(245, 251, 243)" __title="Google Crew Combed Cotton Sock + Google Speckled Beanie Navy = 8" class="has-title"/><rect x="809" width="35" y="226" height="18" fill="rgb(245, 251, 243)" __title="Google Clear Pen 4-Pack + Google Recycled Pen Black = 8" class="has-title"/><rect x="263" width="35" y="86" height="18" fill="rgb(245, 251, 243)" __title="Android SM S/F18 Sticker Sheet + Google Small Standard Journal Navy = 8" class="has-title"/><rect x="770" width="35" y="206" height="18" fill="rgb(245, 251, 243)" __title="Google Light Pen Blue + Google Magnet = 8" class="has-title"/><rect x="809" width="35" y="26" height="18" fill="rgb(245, 251, 243)" __title="Google Clear Pen 4-Pack + Google Land &amp; Sea Journal Set = 8" class="has-title"/><rect x="692" width="35" y="106" height="18" fill="rgb(245, 251, 243)" __title="Google Magnet + Google See-No Hear-No Set = 8" class="has-title"/><rect x="263" width="35" y="346" height="18" fill="rgb(245, 251, 243)" __title="Android SM S/F18 Sticker Sheet + Google Sunglasses = 8" class="has-title"/><rect x="731" width="35" y="286" height="18" fill="rgb(246, 252, 244)" __title="Google Light Pen Green + Google Metallic Notebook Set = 7" class="has-title"/><rect x="341" width="35" y="266" height="18" fill="rgb(246, 252, 244)" __title="Google Camp Mug Ivory + Google Light Pen Red = 7" class="has-title"/><rect x="731" width="35" y="206" height="18" fill="rgb(246, 252, 244)" __title="Google Light Pen Green + Google Magnet = 7" class="has-title"/><rect x="731" width="35" y="86" height="18" fill="rgb(246, 252, 244)" __title="Google Light Pen Green + Google Small Standard Journal Navy = 7" class="has-title"/><rect x="731" width="35" y="226" height="18" fill="rgb(246, 252, 244)" __title="Google Light Pen Green + Google Recycled Pen Black = 7" class="has-title"/><rect x="770" width="35" y="226" height="18" fill="rgb(246, 252, 244)" __title="Google Light Pen Blue + Google Recycled Pen Black = 7" class="has-title"/><rect x="341" width="35" y="106" height="18" fill="rgb(246, 252, 244)" __title="Google Camp Mug Ivory + Google See-No Hear-No Set = 7" class="has-title"/><rect x="731" width="35" y="346" height="18" fill="rgb(246, 252, 244)" __title="Google Light Pen Green + Google Sunglasses = 7" class="has-title"/><rect x="965" width="35" y="166" height="18" fill="rgb(247, 252, 245)" __title="Google Crewneck Sweatshirt Grey + Keyboard DOT Sticker = 6" class="has-title"/><rect x="926" width="35" y="166" height="18" fill="rgb(247, 252, 245)" __title="Android Large Removable Sticker Sheet + Keyboard DOT Sticker = 6" class="has-title"/><rect x="341" width="35" y="326" height="18" fill="rgb(247, 252, 245)" __title="Google Camp Mug Ivory + Google Light Pen Green = 6" class="has-title"/><rect x="887" width="35" y="26" height="18" fill="rgb(247, 252, 245)" __title="Google Heathered Pom Beanie + Google Land &amp; Sea Journal Set = 6" class="has-title"/><rect x="263" width="35" y="106" height="18" fill="rgb(247, 252, 245)" __title="Android SM S/F18 Sticker Sheet + Google See-No Hear-No Set = 6" class="has-title"/><rect x="926" width="35" y="206" height="18" fill="rgb(247, 252, 245)" __title="Android Large Removable Sticker Sheet + Google Magnet = 6" class="has-title"/><rect x="614" width="35" y="326" height="18" fill="rgb(247, 252, 245)" __title="Google Canteen Bottle Black + Google Light Pen Green = 6" class="has-title"/><rect x="614" width="35" y="386" height="18" fill="rgb(247, 252, 245)" __title="Google Canteen Bottle Black + Google Crewneck Sweatshirt Navy = 6" class="has-title"/><rect x="614" width="35" y="66" height="18" fill="rgb(247, 252, 245)" __title="Google Canteen Bottle Black + Google Flat Front Bag Grey = 6" class="has-title"/><rect x="341" width="35" y="366" height="18" fill="rgb(247, 252, 245)" __title="Google Camp Mug Ivory + Google Speckled Beanie Navy = 6" class="has-title"/><rect x="614" width="35" y="286" height="18" fill="rgb(247, 252, 245)" __title="Google Canteen Bottle Black + Google Metallic Notebook Set = 6" class="has-title"/><rect x="263" width="35" y="266" height="18" fill="rgb(247, 252, 245)" __title="Android SM S/F18 Sticker Sheet + Google Light Pen Red = 6" class="has-title"/></g><g aria-label="text" font-variant="tabular-nums" transform="translate(17.5,9)"><text y="0.32em" transform="translate(263,26)" fill="white" __title="Android SM S/F18 Sticker Sheet + Google Land &amp; Sea Journal Set = 158" class="has-title">158</text><text y="0.32em" transform="translate(302,26)" fill="white" __title="Android Iconic Crewneck Sweatshirt + Google Land &amp; Sea Journal Set = 145" class="has-title">145</text><text y="0.32em" transform="translate(302,46)" fill="white" __title="Android Iconic Crewneck Sweatshirt + Android SM S/F18 Sticker Sheet = 132" class="has-title">132</text><text y="0.32em" transform="translate(341,66)" fill="white" __title="Google Camp Mug Ivory + Google Flat Front Bag Grey = 115" class="has-title">115</text><text y="0.32em" transform="translate(380,86)" fill="white" __title="Google Confetti Slim Task Pad + Google Small Standard Journal Navy = 109" class="has-title">109</text><text y="0.32em" transform="translate(380,106)" fill="white" __title="Google Confetti Slim Task Pad + Google See-No Hear-No Set = 109" class="has-title">109</text><text y="0.32em" transform="translate(419,106)" fill="white" __title="Google Campus Bike + Google See-No Hear-No Set = 108" class="has-title">108</text><text y="0.32em" transform="translate(458,106)" fill="white" __title="Google Crew Combed Cotton Sock + Google See-No Hear-No Set = 106" class="has-title">106</text><text y="0.32em" transform="translate(419,146)" fill="white" __title="Google Campus Bike + Google Confetti Slim Task Pad = 106" class="has-title">106</text><text y="0.32em" transform="translate(419,126)" fill="white" __title="Google Campus Bike + Google Crew Combed Cotton Sock = 106" class="has-title">106</text><text y="0.32em" transform="translate(380,126)" fill="black" __title="Google Confetti Slim Task Pad + Google Crew Combed Cotton Sock = 105" class="has-title">105</text><text y="0.32em" transform="translate(497,86)" fill="black" __title="Google See-No Hear-No Set + Google Small Standard Journal Navy = 105" class="has-title">105</text><text y="0.32em" transform="translate(419,86)" fill="black" __title="Google Campus Bike + Google Small Standard Journal Navy = 104" class="has-title">104</text><text y="0.32em" transform="translate(458,86)" fill="black" __title="Google Crew Combed Cotton Sock + Google Small Standard Journal Navy = 104" class="has-title">104</text><text y="0.32em" transform="translate(536,166)" fill="black" __title="Google Phone Stand Bamboo + Keyboard DOT Sticker = 84" class="has-title">84</text><text y="0.32em" transform="translate(575,166)" fill="black" __title="#IamRemarkable Water Bottle + Keyboard DOT Sticker = 81" class="has-title">81</text><text y="0.32em" transform="translate(575,186)" fill="black" __title="#IamRemarkable Water Bottle + Google Phone Stand Bamboo = 81" class="has-title">81</text><text y="0.32em" transform="translate(614,206)" fill="black" __title="Google Canteen Bottle Black + Google Magnet = 57" class="has-title">57</text><text y="0.32em" transform="translate(653,166)" fill="black" __title="Google Mountain View Campus Zip Hoodie + Keyboard DOT Sticker = 56" class="has-title">56</text><text y="0.32em" transform="translate(653,186)" fill="black" __title="Google Mountain View Campus Zip Hoodie + Google Phone Stand Bamboo = 55" class="has-title">55</text><text y="0.32em" transform="translate(692,226)" fill="black" __title="Google Magnet + Google Recycled Pen Black = 55" class="has-title">55</text><text y="0.32em" transform="translate(575,246)" fill="black" __title="#IamRemarkable Water Bottle + Google Mountain View Campus Zip Hoodie = 54" class="has-title">54</text><text y="0.32em" transform="translate(614,226)" fill="black" __title="Google Canteen Bottle Black + Google Recycled Pen Black = 51" class="has-title">51</text><text y="0.32em" transform="translate(731,266)" fill="black" __title="Google Light Pen Green + Google Light Pen Red = 46" class="has-title">46</text><text y="0.32em" transform="translate(809,286)" fill="black" __title="Google Clear Pen 4-Pack + Google Metallic Notebook Set = 45" class="has-title">45</text><text y="0.32em" transform="translate(770,266)" fill="black" __title="Google Light Pen Blue + Google Light Pen Red = 45" class="has-title">45</text><text y="0.32em" transform="translate(770,326)" fill="black" __title="Google Light Pen Blue + Google Light Pen Green = 41" class="has-title">41</text><text y="0.32em" transform="translate(848,306)" fill="black" __title="Google Toddler FC Tee Charcoal + Google Youth FC Tee Charcoal = 41" class="has-title">41</text><text y="0.32em" transform="translate(809,346)" fill="black" __title="Google Clear Pen 4-Pack + Google Sunglasses = 37" class="has-title">37</text><text y="0.32em" transform="translate(887,366)" fill="black" __title="Google Heathered Pom Beanie + Google Speckled Beanie Navy = 37" class="has-title">37</text><text y="0.32em" transform="translate(926,46)" fill="black" __title="Android Large Removable Sticker Sheet + Android SM S/F18 Sticker Sheet = 37" class="has-title">37</text><text y="0.32em" transform="translate(458,406)" fill="black" __title="Google Crew Combed Cotton Sock + Google Crew Socks = 35" class="has-title">35</text><text y="0.32em" transform="translate(965,386)" fill="black" __title="Google Crewneck Sweatshirt Grey + Google Crewneck Sweatshirt Navy = 35" class="has-title">35</text><text y="0.32em" transform="translate(1004,286)" fill="black" __title="Google Crew Socks + Google Metallic Notebook Set = 31" class="has-title">31</text><text y="0.32em" transform="translate(302,386)" fill="black" __title="Android Iconic Crewneck Sweatshirt + Google Crewneck Sweatshirt Navy = 30" class="has-title">30</text><text y="0.32em" transform="translate(263,386)" fill="black" __title="Android SM S/F18 Sticker Sheet + Google Crewneck Sweatshirt Navy = 29" class="has-title">29</text><text y="0.32em" transform="translate(809,86)" fill="black" __title="Google Clear Pen 4-Pack + Google Small Standard Journal Navy = 28" class="has-title">28</text><text y="0.32em" transform="translate(341,206)" fill="black" __title="Google Camp Mug Ivory + Google Magnet = 25" class="has-title">25</text><text y="0.32em" transform="translate(809,406)" fill="black" __title="Google Clear Pen 4-Pack + Google Crew Socks = 21" class="has-title">21</text><text y="0.32em" transform="translate(770,286)" fill="black" __title="Google Light Pen Blue + Google Metallic Notebook Set = 16" class="has-title">16</text><text y="0.32em" transform="translate(809,206)" fill="black" __title="Google Clear Pen 4-Pack + Google Magnet = 15" class="has-title">15</text><text y="0.32em" transform="translate(809,326)" fill="black" __title="Google Clear Pen 4-Pack + Google Light Pen Green = 14" class="has-title">14</text><text y="0.32em" transform="translate(1004,386)" fill="black" __title="Google Crew Socks + Google Crewneck Sweatshirt Navy = 14" class="has-title">14</text><text y="0.32em" transform="translate(692,286)" fill="black" __title="Google Magnet + Google Metallic Notebook Set = 14" class="has-title">14</text><text y="0.32em" transform="translate(419,206)" fill="black" __title="Google Campus Bike + Google Magnet = 13" class="has-title">13</text><text y="0.32em" transform="translate(809,146)" fill="black" __title="Google Clear Pen 4-Pack + Google Confetti Slim Task Pad = 13" class="has-title">13</text><text y="0.32em" transform="translate(887,346)" fill="black" __title="Google Heathered Pom Beanie + Google Sunglasses = 13" class="has-title">13</text><text y="0.32em" transform="translate(809,126)" fill="black" __title="Google Clear Pen 4-Pack + Google Crew Combed Cotton Sock = 12" class="has-title">12</text><text y="0.32em" transform="translate(341,146)" fill="black" __title="Google Camp Mug Ivory + Google Confetti Slim Task Pad = 12" class="has-title">12</text><text y="0.32em" transform="translate(809,266)" fill="black" __title="Google Clear Pen 4-Pack + Google Light Pen Red = 12" class="has-title">12</text><text y="0.32em" transform="translate(770,86)" fill="black" __title="Google Light Pen Blue + Google Small Standard Journal Navy = 12" class="has-title">12</text><text y="0.32em" transform="translate(458,346)" fill="black" __title="Google Crew Combed Cotton Sock + Google Sunglasses = 11" class="has-title">11</text><text y="0.32em" transform="translate(341,126)" fill="black" __title="Google Camp Mug Ivory + Google Crew Combed Cotton Sock = 11" class="has-title">11</text><text y="0.32em" transform="translate(887,226)" fill="black" __title="Google Heathered Pom Beanie + Google Recycled Pen Black = 11" class="has-title">11</text><text y="0.32em" transform="translate(341,286)" fill="black" __title="Google Camp Mug Ivory + Google Metallic Notebook Set = 11" class="has-title">11</text><text y="0.32em" transform="translate(1004,306)" fill="black" __title="Google Crew Socks + Google Youth FC Tee Charcoal = 10" class="has-title">10</text><text y="0.32em" transform="translate(341,86)" fill="black" __title="Google Camp Mug Ivory + Google Small Standard Journal Navy = 10" class="has-title">10</text><text y="0.32em" transform="translate(263,166)" fill="black" __title="Android SM S/F18 Sticker Sheet + Keyboard DOT Sticker = 10" class="has-title">10</text><text y="0.32em" transform="translate(341,406)" fill="black" __title="Google Camp Mug Ivory + Google Crew Socks = 10" class="has-title">10</text><text y="0.32em" transform="translate(614,366)" fill="black" __title="Google Canteen Bottle Black + Google Speckled Beanie Navy = 10" class="has-title">10</text><text y="0.32em" transform="translate(263,406)" fill="black" __title="Android SM S/F18 Sticker Sheet + Google Crew Socks = 9" class="has-title">9</text><text y="0.32em" transform="translate(263,286)" fill="black" __title="Android SM S/F18 Sticker Sheet + Google Metallic Notebook Set = 9" class="has-title">9</text><text y="0.32em" transform="translate(692,166)" fill="black" __title="Google Magnet + Keyboard DOT Sticker = 9" class="has-title">9</text><text y="0.32em" transform="translate(770,346)" fill="black" __title="Google Light Pen Blue + Google Sunglasses = 9" class="has-title">9</text><text y="0.32em" transform="translate(263,206)" fill="black" __title="Android SM S/F18 Sticker Sheet + Google Magnet = 8" class="has-title">8</text><text y="0.32em" transform="translate(458,366)" fill="black" __title="Google Crew Combed Cotton Sock + Google Speckled Beanie Navy = 8" class="has-title">8</text><text y="0.32em" transform="translate(809,226)" fill="black" __title="Google Clear Pen 4-Pack + Google Recycled Pen Black = 8" class="has-title">8</text><text y="0.32em" transform="translate(263,86)" fill="black" __title="Android SM S/F18 Sticker Sheet + Google Small Standard Journal Navy = 8" class="has-title">8</text><text y="0.32em" transform="translate(770,206)" fill="black" __title="Google Light Pen Blue + Google Magnet = 8" class="has-title">8</text><text y="0.32em" transform="translate(809,26)" fill="black" __title="Google Clear Pen 4-Pack + Google Land &amp; Sea Journal Set = 8" class="has-title">8</text><text y="0.32em" transform="translate(692,106)" fill="black" __title="Google Magnet + Google See-No Hear-No Set = 8" class="has-title">8</text><text y="0.32em" transform="translate(263,346)" fill="black" __title="Android SM S/F18 Sticker Sheet + Google Sunglasses = 8" class="has-title">8</text><text y="0.32em" transform="translate(731,286)" fill="black" __title="Google Light Pen Green + Google Metallic Notebook Set = 7" class="has-title">7</text><text y="0.32em" transform="translate(341,266)" fill="black" __title="Google Camp Mug Ivory + Google Light Pen Red = 7" class="has-title">7</text><text y="0.32em" transform="translate(731,206)" fill="black" __title="Google Light Pen Green + Google Magnet = 7" class="has-title">7</text><text y="0.32em" transform="translate(731,86)" fill="black" __title="Google Light Pen Green + Google Small Standard Journal Navy = 7" class="has-title">7</text><text y="0.32em" transform="translate(731,226)" fill="black" __title="Google Light Pen Green + Google Recycled Pen Black = 7" class="has-title">7</text><text y="0.32em" transform="translate(770,226)" fill="black" __title="Google Light Pen Blue + Google Recycled Pen Black = 7" class="has-title">7</text><text y="0.32em" transform="translate(341,106)" fill="black" __title="Google Camp Mug Ivory + Google See-No Hear-No Set = 7" class="has-title">7</text><text y="0.32em" transform="translate(887,286)" fill="black" __title="Google Heathered Pom Beanie + Google Metallic Notebook Set = 7" class="has-title">7</text><text y="0.32em" transform="translate(731,346)" fill="black" __title="Google Light Pen Green + Google Sunglasses = 7" class="has-title">7</text><text y="0.32em" transform="translate(965,166)" fill="black" __title="Google Crewneck Sweatshirt Grey + Keyboard DOT Sticker = 6" class="has-title">6</text><text y="0.32em" transform="translate(926,166)" fill="black" __title="Android Large Removable Sticker Sheet + Keyboard DOT Sticker = 6" class="has-title">6</text><text y="0.32em" transform="translate(341,326)" fill="black" __title="Google Camp Mug Ivory + Google Light Pen Green = 6" class="has-title">6</text><text y="0.32em" transform="translate(887,26)" fill="black" __title="Google Heathered Pom Beanie + Google Land &amp; Sea Journal Set = 6" class="has-title">6</text><text y="0.32em" transform="translate(263,106)" fill="black" __title="Android SM S/F18 Sticker Sheet + Google See-No Hear-No Set = 6" class="has-title">6</text><text y="0.32em" transform="translate(497,166)" fill="black" __title="Google See-No Hear-No Set + Keyboard DOT Sticker = 6" class="has-title">6</text><text y="0.32em" transform="translate(926,206)" fill="black" __title="Android Large Removable Sticker Sheet + Google Magnet = 6" class="has-title">6</text><text y="0.32em" transform="translate(614,326)" fill="black" __title="Google Canteen Bottle Black + Google Light Pen Green = 6" class="has-title">6</text><text y="0.32em" transform="translate(614,386)" fill="black" __title="Google Canteen Bottle Black + Google Crewneck Sweatshirt Navy = 6" class="has-title">6</text><text y="0.32em" transform="translate(614,66)" fill="black" __title="Google Canteen Bottle Black + Google Flat Front Bag Grey = 6" class="has-title">6</text><text y="0.32em" transform="translate(341,366)" fill="black" __title="Google Camp Mug Ivory + Google Speckled Beanie Navy = 6" class="has-title">6</text><text y="0.32em" transform="translate(614,286)" fill="black" __title="Google Canteen Bottle Black + Google Metallic Notebook Set = 6" class="has-title">6</text><text y="0.32em" transform="translate(263,266)" fill="black" __title="Android SM S/F18 Sticker Sheet + Google Light Pen Red = 6" class="has-title">6</text></g><g class="hover" transform="translate(998.3975524902344, 411.0113525390625)" style="pointer-events: none; text-anchor: middle;"/><style xmlns="http://www.w3.org/1999/xhtml">
  .a2a6b6665 .has-title { cursor: pointer;  pointer-events: all; }
  .a2a6b6665 .has-title:hover { stroke: blue; stroke-width: 3; }</style></svg>