<svg xmlns="http://www.w3.org/2000/svg" xmlns:xlink="http://www.w3.org/1999/xlink" width="500" height="400"><g transform="translate(0,30)"><path d="M98,280L196,135.00000000000003L294,335.59322033898303L392,345" style="fill: none; stroke: rgb(105, 179, 162); opacity: 0.5;"></path><path d="M98,299.99999999999994L196,210L294,335.59322033898303L392,345" style="fill: none; stroke: rgb(105, 179, 162); opacity: 0.5;"></path><path d="M98,320L196,180L294,341.6949152542373L392,345" style="fill: none; stroke: rgb(105, 179, 162); opacity: 0.5;"></path><path d="M98,330L196,195L294,329.49152542372883L392,345" style="fill: none; stroke: rgb(105, 179, 162); opacity: 0.5;"></path><path d="M98,290L196,120L294,335.59322033898303L392,345" style="fill: none; stroke: rgb(105, 179, 162); opacity: 0.5;"></path><path d="M98,249.99999999999997L196,75.00000000000006L294,317.2881355932203L392,315" style="fill: none; stroke: rgb(105, 179, 162); opacity: 0.5;"></path><path d="M98,330L196,150.00000000000003L294,335.59322033898303L392,330" style="fill: none; stroke: rgb(105, 179, 162); opacity: 0.5;"></path><path d="M98,290L196,150.00000000000003L294,329.49152542372883L392,345" style="fill: none; stroke: rgb(105, 179, 162); opacity: 0.5;"></path><path d="M98,349.99999999999994L196,225.00000000000003L294,335.59322033898303L392,345" style="fill: none; stroke: rgb(105, 179, 162); opacity: 0.5;"></path><path d="M98,299.99999999999994L196,195L294,329.49152542372883L392,360" style="fill: none; stroke: rgb(105, 179, 162); opacity: 0.5;"></path><path d="M98,249.99999999999997L196,105.00000000000003L294,329.49152542372883L392,345" style="fill: none; stroke: rgb(105, 179, 162); opacity: 0.5;"></path><path d="M98,310L196,150.00000000000003L294,323.3898305084746L392,345" style="fill: none; stroke: rgb(105, 179, 162); opacity: 0.5;"></path><path d="M98,310L196,210L294,335.59322033898303L392,360" style="fill: none; stroke: rgb(105, 179, 162); opacity: 0.5;"></path><path d="M98,360L196,210L294,353.89830508474574L392,360" style="fill: none; stroke: rgb(105, 179, 162); opacity: 0.5;"></path><path d="M98,210L196,60L294,347.79661016949154L392,345" style="fill: none; stroke: rgb(105, 179, 162); opacity: 0.5;"></path><path d="M98,219.99999999999997L196,0L294,329.49152542372883L392,315" style="fill: none; stroke: rgb(105, 179, 162); opacity: 0.5;"></path><path d="M98,249.99999999999997L196,75.00000000000006L294,341.6949152542373L392,315" style="fill: none; stroke: rgb(105, 179, 162); opacity: 0.5;"></path><path d="M98,280L196,135.00000000000003L294,335.59322033898303L392,330" style="fill: none; stroke: rgb(105, 179, 162); opacity: 0.5;"></path><path d="M98,219.99999999999997L196,90.00000000000006L294,317.2881355932203L392,330" style="fill: none; stroke: rgb(105, 179, 162); opacity: 0.5;"></path><path d="M98,280L196,90.00000000000006L294,329.49152542372883L392,330" style="fill: none; stroke: rgb(105, 179, 162); opacity: 0.5;"></path><path d="M98,249.99999999999997L196,150.00000000000003L294,317.2881355932203L392,345" style="fill: none; stroke: rgb(105, 179, 162); opacity: 0.5;"></path><path d="M98,280L196,105.00000000000003L294,329.49152542372883L392,315" style="fill: none; stroke: rgb(105, 179, 162); opacity: 0.5;"></path><path d="M98,330L196,120L294,360L392,345" style="fill: none; stroke: rgb(105, 179, 162); opacity: 0.5;"></path><path d="M98,280L196,165.00000000000006L294,317.2881355932203L392,300" style="fill: none; stroke: rgb(105, 179, 162); opacity: 0.5;"></path><path d="M98,310L196,150.00000000000003L294,305.08474576271186L392,345" style="fill: none; stroke: rgb(105, 179, 162); opacity: 0.5;"></path><path d="M98,290L196,210L294,323.3898305084746L392,345" style="fill: none; stroke: rgb(105, 179, 162); opacity: 0.5;"></path><path d="M98,290L196,150.00000000000003L294,323.3898305084746L392,315" style="fill: none; stroke: rgb(105, 179, 162); opacity: 0.5;"></path><path d="M98,270L196,135.00000000000003L294,329.49152542372883L392,345" style="fill: none; stroke: rgb(105, 179, 162); opacity: 0.5;"></path><path d="M98,270L196,150.00000000000003L294,335.59322033898303L392,345" style="fill: none; stroke: rgb(105, 179, 162); opacity: 0.5;"></path><path d="M98,320L196,180L294,323.3898305084746L392,345" style="fill: none; stroke: rgb(105, 179, 162); opacity: 0.5;"></path><path d="M98,310L196,195L294,323.3898305084746L392,345" style="fill: none; stroke: rgb(105, 179, 162); opacity: 0.5;"></path><path d="M98,249.99999999999997L196,150.00000000000003L294,329.49152542372883L392,315" style="fill: none; stroke: rgb(105, 179, 162); opacity: 0.5;"></path><path d="M98,270L196,45.00000000000006L294,329.49152542372883L392,360" style="fill: none; stroke: rgb(105, 179, 162); opacity: 0.5;"></path><path d="M98,240L196,30L294,335.59322033898303L392,345" style="fill: none; stroke: rgb(105, 179, 162); opacity: 0.5;"></path><path d="M98,299.99999999999994L196,195L294,329.49152542372883L392,345" style="fill: none; stroke: rgb(105, 179, 162); opacity: 0.5;"></path><path d="M98,290L196,180L294,347.79661016949154L392,345" style="fill: none; stroke: rgb(105, 179, 162); opacity: 0.5;"></path><path d="M98,240L196,135.00000000000003L294,341.6949152542373L392,345" style="fill: none; stroke: rgb(105, 179, 162); opacity: 0.5;"></path><path d="M98,299.99999999999994L196,120L294,335.59322033898303L392,360" style="fill: none; stroke: rgb(105, 179, 162); opacity: 0.5;"></path><path d="M98,349.99999999999994L196,210L294,341.6949152542373L392,345" style="fill: none; stroke: rgb(105, 179, 162); opacity: 0.5;"></path><path d="M98,280L196,150.00000000000003L294,329.49152542372883L392,345" style="fill: none; stroke: rgb(105, 179, 162); opacity: 0.5;"></path><path d="M98,290L196,135.00000000000003L294,341.6949152542373L392,330" style="fill: none; stroke: rgb(105, 179, 162); opacity: 0.5;"></path><path d="M98,340L196,315.00000000000006L294,341.6949152542373L392,330" style="fill: none; stroke: rgb(105, 179, 162); opacity: 0.5;"></path><path d="M98,349.99999999999994L196,180L294,341.6949152542373L392,345" style="fill: none; stroke: rgb(105, 179, 162); opacity: 0.5;"></path><path d="M98,290L196,135.00000000000003L294,323.3898305084746L392,285" style="fill: none; stroke: rgb(105, 179, 162); opacity: 0.5;"></path><path d="M98,280L196,90.00000000000006L294,305.08474576271186L392,315" style="fill: none; stroke: rgb(105, 179, 162); opacity: 0.5;"></path><path d="M98,310L196,210L294,335.59322033898303L392,330" style="fill: none; stroke: rgb(105, 179, 162); opacity: 0.5;"></path><path d="M98,280L196,90.00000000000006L294,323.3898305084746L392,345" style="fill: none; stroke: rgb(105, 179, 162); opacity: 0.5;"></path><path d="M98,330L196,180L294,335.59322033898303L392,345" style="fill: none; stroke: rgb(105, 179, 162); opacity: 0.5;"></path><path d="M98,260L196,105.00000000000003L294,329.49152542372883L392,345" style="fill: none; stroke: rgb(105, 179, 162); opacity: 0.5;"></path><path d="M98,290L196,165.00000000000006L294,335.59322033898303L392,345" style="fill: none; stroke: rgb(105, 179, 162); opacity: 0.5;"></path><path d="M98,90.00000000000006L196,180L294,134.23728813559322L392,165" style="fill: none; stroke: rgb(105, 179, 162); opacity: 0.5;"></path><path d="M98,150L196,180L294,146.4406779661017L392,150" style="fill: none; stroke: rgb(105, 179, 162); opacity: 0.5;"></path><path d="M98,100L196,195L294,122.03389830508473L392,150" style="fill: none; stroke: rgb(105, 179, 162); opacity: 0.5;"></path><path d="M98,240L196,315.00000000000006L294,176.9491525423729L392,180" style="fill: none; stroke: rgb(105, 179, 162); opacity: 0.5;"></path><path d="M98,140.00000000000003L196,240.00000000000006L294,140.33898305084747L392,150" style="fill: none; stroke: rgb(105, 179, 162); opacity: 0.5;"></path><path d="M98,219.99999999999997L196,240.00000000000006L294,146.4406779661017L392,180" style="fill: none; stroke: rgb(105, 179, 162); opacity: 0.5;"></path><path d="M98,160.00000000000003L196,165.00000000000006L294,134.23728813559322L392,135" style="fill: none; stroke: rgb(105, 179, 162); opacity: 0.5;"></path><path d="M98,299.99999999999994L196,300L294,219.66101694915255L392,225" style="fill: none; stroke: rgb(105, 179, 162); opacity: 0.5;"></path><path d="M98,130.00000000000006L196,225.00000000000003L294,140.33898305084747L392,180" style="fill: none; stroke: rgb(105, 179, 162); opacity: 0.5;"></path><path d="M98,270L196,255L294,183.05084745762713L392,165" style="fill: none; stroke: rgb(105, 179, 162); opacity: 0.5;"></path><path d="M98,290L196,360L294,207.45762711864407L392,225" style="fill: none; stroke: rgb(105, 179, 162); opacity: 0.5;"></path><path d="M98,199.99999999999997L196,210L294,164.74576271186442L392,150" style="fill: none; stroke: rgb(105, 179, 162); opacity: 0.5;"></path><path d="M98,190L196,330L294,176.9491525423729L392,225" style="fill: none; stroke: rgb(105, 179, 162); opacity: 0.5;"></path><path d="M98,180.00000000000003L196,225.00000000000003L294,134.23728813559322L392,165" style="fill: none; stroke: rgb(105, 179, 162); opacity: 0.5;"></path><path d="M98,230.00000000000003L196,225.00000000000003L294,201.35593220338984L392,180" style="fill: none; stroke: rgb(105, 179, 162); opacity: 0.5;"></path><path d="M98,120L196,195L294,152.54237288135593L392,165" style="fill: none; stroke: rgb(105, 179, 162); opacity: 0.5;"></path><path d="M98,230.00000000000003L196,210L294,146.4406779661017L392,150" style="fill: none; stroke: rgb(105, 179, 162); opacity: 0.5;"></path><path d="M98,210L196,255L294,170.84745762711867L392,225" style="fill: none; stroke: rgb(105, 179, 162); opacity: 0.5;"></path><path d="M98,170L196,330L294,146.4406779661017L392,150" style="fill: none; stroke: rgb(105, 179, 162); opacity: 0.5;"></path><path d="M98,230.00000000000003L196,285L294,183.05084745762713L392,210" style="fill: none; stroke: rgb(105, 179, 162); opacity: 0.5;"></path><path d="M98,199.99999999999997L196,180L294,128.135593220339L392,105" style="fill: none; stroke: rgb(105, 179, 162); opacity: 0.5;"></path><path d="M98,180.00000000000003L196,240.00000000000006L294,176.9491525423729L392,180" style="fill: none; stroke: rgb(105, 179, 162); opacity: 0.5;"></path><path d="M98,160.00000000000003L196,285L294,122.03389830508473L392,150" style="fill: none; stroke: rgb(105, 179, 162); opacity: 0.5;"></path><path d="M98,180.00000000000003L196,240.00000000000006L294,134.23728813559322L392,195" style="fill: none; stroke: rgb(105, 179, 162); opacity: 0.5;"></path><path d="M98,150L196,225.00000000000003L294,158.6440677966102L392,180" style="fill: none; stroke: rgb(105, 179, 162); opacity: 0.5;"></path><path d="M98,130.00000000000006L196,210L294,152.54237288135593L392,165" style="fill: none; stroke: rgb(105, 179, 162); opacity: 0.5;"></path><path d="M98,110.00000000000006L196,240.00000000000006L294,128.135593220339L392,165" style="fill: none; stroke: rgb(105, 179, 162); opacity: 0.5;"></path><path d="M98,120L196,210L294,115.93220338983053L392,120" style="fill: none; stroke: rgb(105, 179, 162); opacity: 0.5;"></path><path d="M98,190L196,225.00000000000003L294,146.4406779661017L392,150" style="fill: none; stroke: rgb(105, 179, 162); opacity: 0.5;"></path><path d="M98,219.99999999999997L196,270L294,207.45762711864407L392,225" style="fill: none; stroke: rgb(105, 179, 162); opacity: 0.5;"></path><path d="M98,240L196,300L294,189.15254237288138L392,210" style="fill: none; stroke: rgb(105, 179, 162); opacity: 0.5;"></path><path d="M98,240L196,300L294,195.25423728813558L392,225" style="fill: none; stroke: rgb(105, 179, 162); opacity: 0.5;"></path><path d="M98,210L196,255L294,183.05084745762713L392,195" style="fill: none; stroke: rgb(105, 179, 162); opacity: 0.5;"></path><path d="M98,190L196,255L294,109.8305084745763L392,135" style="fill: none; stroke: rgb(105, 179, 162); opacity: 0.5;"></path><path d="M98,249.99999999999997L196,210L294,146.4406779661017L392,150" style="fill: none; stroke: rgb(105, 179, 162); opacity: 0.5;"></path><path d="M98,190L196,150.00000000000003L294,146.4406779661017L392,135" style="fill: none; stroke: rgb(105, 179, 162); opacity: 0.5;"></path><path d="M98,120L196,195L294,134.23728813559322L392,150" style="fill: none; stroke: rgb(105, 179, 162); opacity: 0.5;"></path><path d="M98,160.00000000000003L196,315.00000000000006L294,152.54237288135593L392,180" style="fill: none; stroke: rgb(105, 179, 162); opacity: 0.5;"></path><path d="M98,230.00000000000003L196,210L294,170.84745762711867L392,180" style="fill: none; stroke: rgb(105, 179, 162); opacity: 0.5;"></path><path d="M98,240L196,285L294,176.9491525423729L392,180" style="fill: none; stroke: rgb(105, 179, 162); opacity: 0.5;"></path><path d="M98,240L196,270L294,152.54237288135593L392,195" style="fill: none; stroke: rgb(105, 179, 162); opacity: 0.5;"></path><path d="M98,180.00000000000003L196,210L294,140.33898305084747L392,165" style="fill: none; stroke: rgb(105, 179, 162); opacity: 0.5;"></path><path d="M98,210L196,270L294,176.9491525423729L392,195" style="fill: none; stroke: rgb(105, 179, 162); opacity: 0.5;"></path><path d="M98,290L196,315.00000000000006L294,219.66101694915255L392,225" style="fill: none; stroke: rgb(105, 179, 162); opacity: 0.5;"></path><path d="M98,230.00000000000003L196,255L294,164.74576271186442L392,180" style="fill: none; stroke: rgb(105, 179, 162); opacity: 0.5;"></path><path d="M98,219.99999999999997L196,210L294,164.74576271186442L392,195" style="fill: none; stroke: rgb(105, 179, 162); opacity: 0.5;"></path><path d="M98,219.99999999999997L196,225.00000000000003L294,164.74576271186442L392,180" style="fill: none; stroke: rgb(105, 179, 162); opacity: 0.5;"></path><path d="M98,170L196,225.00000000000003L294,158.6440677966102L392,180" style="fill: none; stroke: rgb(105, 179, 162); opacity: 0.5;"></path><path d="M98,280L196,285L294,237.96610169491527L392,210" style="fill: none; stroke: rgb(105, 179, 162); opacity: 0.5;"></path><path d="M98,219.99999999999997L196,240.00000000000006L294,170.84745762711867L392,180" style="fill: none; stroke: rgb(105, 179, 162); opacity: 0.5;"></path><path d="M98,160.00000000000003L196,165.00000000000006L294,54.91525423728814L392,0" style="fill: none; stroke: rgb(105, 179, 162); opacity: 0.5;"></path><path d="M98,210L196,255L294,109.8305084745763L392,90" style="fill: none; stroke: rgb(105, 179, 162); opacity: 0.5;"></path><path d="M98,80.00000000000006L196,210L294,61.016949152542395L392,60" style="fill: none; stroke: rgb(105, 179, 162); opacity: 0.5;"></path><path d="M98,160.00000000000003L196,225.00000000000003L294,79.32203389830511L392,105" style="fill: none; stroke: rgb(105, 179, 162); opacity: 0.5;"></path><path d="M98,140.00000000000003L196,210L294,67.11864406779665L392,44.99999999999994" style="fill: none; stroke: rgb(105, 179, 162); opacity: 0.5;"></path><path d="M98,30.000000000000057L196,210L294,18.30508474576277L392,60" style="fill: none; stroke: rgb(105, 179, 162); opacity: 0.5;"></path><path d="M98,299.99999999999994L196,285L294,146.4406779661017L392,120" style="fill: none; stroke: rgb(105, 179, 162); opacity: 0.5;"></path><path d="M98,60L196,225.00000000000003L294,36.610169491525426L392,105" style="fill: none; stroke: rgb(105, 179, 162); opacity: 0.5;"></path><path d="M98,120L196,285L294,67.11864406779665L392,105" style="fill: none; stroke: rgb(105, 179, 162); opacity: 0.5;"></path><path d="M98,70L196,120L294,48.81355932203394L392,0" style="fill: none; stroke: rgb(105, 179, 162); opacity: 0.5;"></path><path d="M98,140.00000000000003L196,180L294,109.8305084745763L392,75" style="fill: none; stroke: rgb(105, 179, 162); opacity: 0.5;"></path><path d="M98,150L196,255L294,97.62711864406782L392,90" style="fill: none; stroke: rgb(105, 179, 162); opacity: 0.5;"></path><path d="M98,110.00000000000006L196,210L294,85.42372881355931L392,60" style="fill: none; stroke: rgb(105, 179, 162); opacity: 0.5;"></path><path d="M98,219.99999999999997L196,285L294,115.93220338983053L392,75" style="fill: none; stroke: rgb(105, 179, 162); opacity: 0.5;"></path><path d="M98,210L196,240.00000000000006L294,109.8305084745763L392,15" style="fill: none; stroke: rgb(105, 179, 162); opacity: 0.5;"></path><path d="M98,150L196,180L294,97.62711864406782L392,30" style="fill: none; stroke: rgb(105, 179, 162); opacity: 0.5;"></path><path d="M98,140.00000000000003L196,210L294,85.42372881355931L392,105" style="fill: none; stroke: rgb(105, 179, 162); opacity: 0.5;"></path><path d="M98,20L196,90.00000000000006L294,12.203389830508456L392,44.99999999999994" style="fill: none; stroke: rgb(105, 179, 162); opacity: 0.5;"></path><path d="M98,20L196,270L294,0L392,30" style="fill: none; stroke: rgb(105, 179, 162); opacity: 0.5;"></path><path d="M98,190L196,330L294,115.93220338983053L392,150" style="fill: none; stroke: rgb(105, 179, 162); opacity: 0.5;"></path><path d="M98,100L196,180L294,73.22033898305085L392,30" style="fill: none; stroke: rgb(105, 179, 162); opacity: 0.5;"></path><path d="M98,230.00000000000003L196,240.00000000000006L294,122.03389830508473L392,75" style="fill: none; stroke: rgb(105, 179, 162); opacity: 0.5;"></path><path d="M98,20L196,240.00000000000006L294,12.203389830508456L392,75" style="fill: none; stroke: rgb(105, 179, 162); opacity: 0.5;"></path><path d="M98,160.00000000000003L196,255L294,122.03389830508473L392,105" style="fill: none; stroke: rgb(105, 179, 162); opacity: 0.5;"></path><path d="M98,120L196,165.00000000000006L294,73.22033898305085L392,60" style="fill: none; stroke: rgb(105, 179, 162); opacity: 0.5;"></path><path d="M98,70L196,180L294,54.91525423728814L392,105" style="fill: none; stroke: rgb(105, 179, 162); opacity: 0.5;"></path><path d="M98,170L196,240.00000000000006L294,128.135593220339L392,105" style="fill: none; stroke: rgb(105, 179, 162); opacity: 0.5;"></path><path d="M98,180.00000000000003L196,210L294,122.03389830508473L392,105" style="fill: none; stroke: rgb(105, 179, 162); opacity: 0.5;"></path><path d="M98,150L196,240.00000000000006L294,79.32203389830511L392,60" style="fill: none; stroke: rgb(105, 179, 162); opacity: 0.5;"></path><path d="M98,70L196,210L294,67.11864406779665L392,135" style="fill: none; stroke: rgb(105, 179, 162); opacity: 0.5;"></path><path d="M98,50L196,240.00000000000006L294,48.81355932203394L392,90" style="fill: none; stroke: rgb(105, 179, 162); opacity: 0.5;"></path><path d="M98,0L196,90.00000000000006L294,30.50847457627117L392,75" style="fill: none; stroke: rgb(105, 179, 162); opacity: 0.5;"></path><path d="M98,150L196,240.00000000000006L294,79.32203389830511L392,44.99999999999994" style="fill: none; stroke: rgb(105, 179, 162); opacity: 0.5;"></path><path d="M98,160.00000000000003L196,240.00000000000006L294,109.8305084745763L392,150" style="fill: none; stroke: rgb(105, 179, 162); opacity: 0.5;"></path><path d="M98,180.00000000000003L196,270L294,79.32203389830511L392,165" style="fill: none; stroke: rgb(105, 179, 162); opacity: 0.5;"></path><path d="M98,20L196,210L294,48.81355932203394L392,30" style="fill: none; stroke: rgb(105, 179, 162); opacity: 0.5;"></path><path d="M98,160.00000000000003L196,150.00000000000003L294,79.32203389830511L392,15" style="fill: none; stroke: rgb(105, 179, 162); opacity: 0.5;"></path><path d="M98,150L196,195L294,85.42372881355931L392,105" style="fill: none; stroke: rgb(105, 179, 162); opacity: 0.5;"></path><path d="M98,190L196,210L294,128.135593220339L392,105" style="fill: none; stroke: rgb(105, 179, 162); opacity: 0.5;"></path><path d="M98,100L196,195L294,91.52542372881356L392,60" style="fill: none; stroke: rgb(105, 179, 162); opacity: 0.5;"></path><path d="M98,120L196,195L294,79.32203389830511L392,15" style="fill: none; stroke: rgb(105, 179, 162); opacity: 0.5;"></path><path d="M98,100L196,195L294,109.8305084745763L392,30" style="fill: none; stroke: rgb(105, 179, 162); opacity: 0.5;"></path><path d="M98,210L196,255L294,109.8305084745763L392,90" style="fill: none; stroke: rgb(105, 179, 162); opacity: 0.5;"></path><path d="M98,110.00000000000006L196,180L294,61.016949152542395L392,30" style="fill: none; stroke: rgb(105, 179, 162); opacity: 0.5;"></path><path d="M98,120L196,165.00000000000006L294,73.22033898305085L392,0" style="fill: none; stroke: rgb(105, 179, 162); opacity: 0.5;"></path><path d="M98,120L196,210L294,103.72881355932202L392,30" style="fill: none; stroke: rgb(105, 179, 162); opacity: 0.5;"></path><path d="M98,160.00000000000003L196,285L294,115.93220338983053L392,90" style="fill: none; stroke: rgb(105, 179, 162); opacity: 0.5;"></path><path d="M98,140.00000000000003L196,210L294,103.72881355932202L392,75" style="fill: none; stroke: rgb(105, 179, 162); opacity: 0.5;"></path><path d="M98,170L196,150.00000000000003L294,91.52542372881356L392,30" style="fill: none; stroke: rgb(105, 179, 162); opacity: 0.5;"></path><path d="M98,199.99999999999997L196,210L294,109.8305084745763L392,105" style="fill: none; stroke: rgb(105, 179, 162); opacity: 0.5;"></path><g transform="translate(98)" fill="none" font-size="10" font-family="sans-serif" text-anchor="end"><path class="domain" stroke="#000" d="M-6,360.5H0.5V0.5H-6"></path><g class="tick" opacity="1" transform="translate(0,340.5)"><line stroke="#000" x2="-6"></line><text fill="#000" x="-9" dy="0.32em">4.5</text></g><g class="tick" opacity="1" transform="translate(0,290.5)"><line stroke="#000" x2="-6"></line><text fill="#000" x="-9" dy="0.32em">5.0</text></g><g class="tick" opacity="1" transform="translate(0,240.5)"><line stroke="#000" x2="-6"></line><text fill="#000" x="-9" dy="0.32em">5.5</text></g><g class="tick" opacity="1" transform="translate(0,190.5)"><line stroke="#000" x2="-6"></line><text fill="#000" x="-9" dy="0.32em">6.0</text></g><g class="tick" opacity="1" transform="translate(0,140.50000000000003)"><line stroke="#000" x2="-6"></line><text fill="#000" x="-9" dy="0.32em">6.5</text></g><g class="tick" opacity="1" transform="translate(0,90.50000000000006)"><line stroke="#000" x2="-6"></line><text fill="#000" x="-9" dy="0.32em">7.0</text></g><g class="tick" opacity="1" transform="translate(0,40.5)"><line stroke="#000" x2="-6"></line><text fill="#000" x="-9" dy="0.32em">7.5</text></g><text y="-9" style="text-anchor: middle; fill: black;">Sepal_Length</text></g><g transform="translate(196)" fill="none" font-size="10" font-family="sans-serif" text-anchor="end"><path class="domain" stroke="#000" d="M-6,360.5H0.5V0.5H-6"></path><g class="tick" opacity="1" transform="translate(0,360.5)"><line stroke="#000" x2="-6"></line><text fill="#000" x="-9" dy="0.32em">2.0</text></g><g class="tick" opacity="1" transform="translate(0,330.5)"><line stroke="#000" x2="-6"></line><text fill="#000" x="-9" dy="0.32em">2.2</text></g><g class="tick" opacity="1" transform="translate(0,300.5)"><line stroke="#000" x2="-6"></line><text fill="#000" x="-9" dy="0.32em">2.4</text></g><g class="tick" opacity="1" transform="translate(0,270.5)"><line stroke="#000" x2="-6"></line><text fill="#000" x="-9" dy="0.32em">2.6</text></g><g class="tick" opacity="1" transform="translate(0,240.50000000000006)"><line stroke="#000" x2="-6"></line><text fill="#000" x="-9" dy="0.32em">2.8</text></g><g class="tick" opacity="1" transform="translate(0,210.5)"><line stroke="#000" x2="-6"></line><text fill="#000" x="-9" dy="0.32em">3.0</text></g><g class="tick" opacity="1" transform="translate(0,180.5)"><line stroke="#000" x2="-6"></line><text fill="#000" x="-9" dy="0.32em">3.2</text></g><g class="tick" opacity="1" transform="translate(0,150.50000000000003)"><line stroke="#000" x2="-6"></line><text fill="#000" x="-9" dy="0.32em">3.4</text></g><g class="tick" opacity="1" transform="translate(0,120.5)"><line stroke="#000" x2="-6"></line><text fill="#000" x="-9" dy="0.32em">3.6</text></g><g class="tick" opacity="1" transform="translate(0,90.50000000000006)"><line stroke="#000" x2="-6"></line><text fill="#000" x="-9" dy="0.32em">3.8</text></g><g class="tick" opacity="1" transform="translate(0,60.5)"><line stroke="#000" x2="-6"></line><text fill="#000" x="-9" dy="0.32em">4.0</text></g><g class="tick" opacity="1" transform="translate(0,30.5)"><line stroke="#000" x2="-6"></line><text fill="#000" x="-9" dy="0.32em">4.2</text></g><g class="tick" opacity="1" transform="translate(0,0.5)"><line stroke="#000" x2="-6"></line><text fill="#000" x="-9" dy="0.32em">4.4</text></g><text y="-9" style="text-anchor: middle; fill: black;">Sepal_Width</text></g><g transform="translate(294)" fill="none" font-size="10" font-family="sans-serif" text-anchor="end"><path class="domain" stroke="#000" d="M-6,360.5H0.5V0.5H-6"></path><g class="tick" opacity="1" transform="translate(0,360.5)"><line stroke="#000" x2="-6"></line><text fill="#000" x="-9" dy="0.32em">1.0</text></g><g class="tick" opacity="1" transform="translate(0,329.99152542372883)"><line stroke="#000" x2="-6"></line><text fill="#000" x="-9" dy="0.32em">1.5</text></g><g class="tick" opacity="1" transform="translate(0,299.48305084745766)"><line stroke="#000" x2="-6"></line><text fill="#000" x="-9" dy="0.32em">2.0</text></g><g class="tick" opacity="1" transform="translate(0,268.97457627118644)"><line stroke="#000" x2="-6"></line><text fill="#000" x="-9" dy="0.32em">2.5</text></g><g class="tick" opacity="1" transform="translate(0,238.46610169491527)"><line stroke="#000" x2="-6"></line><text fill="#000" x="-9" dy="0.32em">3.0</text></g><g class="tick" opacity="1" transform="translate(0,207.95762711864407)"><line stroke="#000" x2="-6"></line><text fill="#000" x="-9" dy="0.32em">3.5</text></g><g class="tick" opacity="1" transform="translate(0,177.4491525423729)"><line stroke="#000" x2="-6"></line><text fill="#000" x="-9" dy="0.32em">4.0</text></g><g class="tick" opacity="1" transform="translate(0,146.9406779661017)"><line stroke="#000" x2="-6"></line><text fill="#000" x="-9" dy="0.32em">4.5</text></g><g class="tick" opacity="1" transform="translate(0,116.43220338983053)"><line stroke="#000" x2="-6"></line><text fill="#000" x="-9" dy="0.32em">5.0</text></g><g class="tick" opacity="1" transform="translate(0,85.92372881355931)"><line stroke="#000" x2="-6"></line><text fill="#000" x="-9" dy="0.32em">5.5</text></g><g class="tick" opacity="1" transform="translate(0,55.41525423728814)"><line stroke="#000" x2="-6"></line><text fill="#000" x="-9" dy="0.32em">6.0</text></g><g class="tick" opacity="1" transform="translate(0,24.90677966101697)"><line stroke="#000" x2="-6"></line><text fill="#000" x="-9" dy="0.32em">6.5</text></g><text y="-9" style="text-anchor: middle; fill: black;">Petal_Length</text></g><g transform="translate(392)" fill="none" font-size="10" font-family="sans-serif" text-anchor="end"><path class="domain" stroke="#000" d="M-6,360.5H0.5V0.5H-6"></path><g class="tick" opacity="1" transform="translate(0,345.5)"><line stroke="#000" x2="-6"></line><text fill="#000" x="-9" dy="0.32em">0.2</text></g><g class="tick" opacity="1" transform="translate(0,315.5)"><line stroke="#000" x2="-6"></line><text fill="#000" x="-9" dy="0.32em">0.4</text></g><g class="tick" opacity="1" transform="translate(0,285.5)"><line stroke="#000" x2="-6"></line><text fill="#000" x="-9" dy="0.32em">0.6</text></g><g class="tick" opacity="1" transform="translate(0,255.5)"><line stroke="#000" x2="-6"></line><text fill="#000" x="-9" dy="0.32em">0.8</text></g><g class="tick" opacity="1" transform="translate(0,225.5)"><line stroke="#000" x2="-6"></line><text fill="#000" x="-9" dy="0.32em">1.0</text></g><g class="tick" opacity="1" transform="translate(0,195.5)"><line stroke="#000" x2="-6"></line><text fill="#000" x="-9" dy="0.32em">1.2</text></g><g class="tick" opacity="1" transform="translate(0,165.5)"><line stroke="#000" x2="-6"></line><text fill="#000" x="-9" dy="0.32em">1.4</text></g><g class="tick" opacity="1" transform="translate(0,135.5)"><line stroke="#000" x2="-6"></line><text fill="#000" x="-9" dy="0.32em">1.6</text></g><g class="tick" opacity="1" transform="translate(0,105.5)"><line stroke="#000" x2="-6"></line><text fill="#000" x="-9" dy="0.32em">1.8</text></g><g class="tick" opacity="1" transform="translate(0,75.5)"><line stroke="#000" x2="-6"></line><text fill="#000" x="-9" dy="0.32em">2.0</text></g><g class="tick" opacity="1" transform="translate(0,45.49999999999994)"><line stroke="#000" x2="-6"></line><text fill="#000" x="-9" dy="0.32em">2.2</text></g><g class="tick" opacity="1" transform="translate(0,15.5)"><line stroke="#000" x2="-6"></line><text fill="#000" x="-9" dy="0.32em">2.4</text></g><text y="-9" style="text-anchor: middle; fill: black;">Petal_Width</text></g></g></svg>