<svg width="1152" height="500" viewBox="-576,-250,1152,500" style="max-width: 100%; height: auto; height: intrinsic;" xmlns="http://www.w3.org/2000/svg" xmlns:xlink="http://www.w3.org/1999/xlink"><g stroke="white" stroke-width="1" stroke-linejoin="round"><path fill="#FF8080" d="M0,-250A250,250,0,0,1,231.569,-94.213L0,0Z"><title>Samsung
1,538</title></path><path fill="#00FF80" d="M231.569,-94.213A250,250,0,0,1,212.52,131.663L0,0Z"><title>LG
1,222</title></path><path fill="#0000FF" d="M212.52,131.663A250,250,0,0,1,198.18,152.397L0,0Z"><title>Panasonic
131</title></path><path fill="#FFFF00" d="M198.18,152.397A250,250,0,0,1,191.301,160.947L0,0Z"><title>Nokia
57</title></path><path fill="#FF00FF" d="M191.301,160.947A250,250,0,0,1,170.07,183.238L0,0Z"><title>Oppo
160</title></path><path fill="#00FFFF" d="M170.07,183.238A250,250,0,0,1,-72.027,239.4L0,0Z"><title>MI
1,351</title></path><path fill="#808080" d="M-72.027,239.4A250,250,0,0,1,0,-250L0,0Z"><title>Apple
3,700</title></path></g><g font-family="sans-serif" font-size="10" text-anchor="middle"><text transform="translate(111.63774621733631,-165.94280225280522)"><tspan x="0" y="0em" font-weight="bold">Samsung</tspan><tspan x="0" y="1.1em">1,538</tspan></text><text transform="translate(199.29258775249565,16.80667923516789)"><tspan x="0" y="0em" font-weight="bold">LG</tspan><tspan x="0" y="1.1em">1,222</tspan></text><text transform="translate(164.4890162003759,113.76890414094916)"><tspan x="0" y="0em" font-weight="bold">Panasonic</tspan></text><text transform="translate(155.82984033577196,125.36770262283592)"><tspan x="0" y="0em" font-weight="bold">Nokia</tspan></text><text transform="translate(144.82327833822174,137.93555760343287)"><tspan x="0" y="0em" font-weight="bold">Oppo</tspan></text><text transform="translate(45.195699750601506,194.8264579672214)"><tspan x="0" y="0em" font-weight="bold">MI</tspan><tspan x="0" y="1.1em">1,351</tspan></text><text transform="translate(-197.86854323352955,-29.12111946063979)"><tspan x="0" y="0em" font-weight="bold">Apple</tspan><tspan x="0" y="1.1em">3,700</tspan></text></g></svg>