<svg width="641" height="368">
  <defs>
    <linearGradient x1="0%" y1="0%" x2="100%" y2="0%" id="c">
      <stop stop-color="#89f7fe" offset="0%"/>
      <stop stop-color="#66a6ff" offset="100%"/>
    </linearGradient>
    <linearGradient x1="0%" y1="0%" x2="0%" y2="100%" id="d">
      <stop stop-color="#13547a" offset="0%"/>
      <stop stop-color="#80d0c7" offset="100%"/>
    </linearGradient>
    <linearGradient x1="0%" y1="0%" x2="100%" y2="100%" id="e">
      <stop stop-color="#ff0844" offset="0%"/>
      <stop stop-color="#ffb199" offset="100%"/>
    </linearGradient>
    <linearGradient x1="0%" y1="0%" x2="100%" y2="0%" id="f">
      <stop stop-color="#b224ef" offset="0%"/>
      <stop stop-color="#7579ff" offset="50%"/>
      <stop stop-color="#b224ef" offset="100%"/>
    </linearGradient>
    <linearGradient x1="0%" y1="0%" x2="0%" y2="100%" id="g">
      <stop stop-color="#e27f00" offset="0%"/>
      <stop stop-color="#ae1a73" offset="100%"/>
    </linearGradient>
    <radialGradient cx="50%" cy="50%" r="70%" id="h">
      <stop stop-color="#cc208e" offset="0%"/>
      <stop stop-color="#6713d2" offset="100%"/>
    </radialGradient>
  </defs>
  <clipPath id="a">
    <path d="M-1-1h643v370H-1z"/>
  </clipPath>
  <g class="wj-header" clip-path="url(#a)">
    <text x="114.3" y="20.5" fill="#666" class="wj-title">Best-selling Mobile Phones Brands of 2017</text>
  </g>
  <g class="wj-footer" clip-path="url(#a)"/>
  <clipPath id="b">
    <path d="M558.9 122H642v149h-83.1z"/>
  </clipPath>
  <g class="wj-legend" clip-path="url(#b)">
    <path fill="transparent" d="M559.9 123H641v147h-81.1z"/>
    <path fill="url(#c)" stroke="url(#c)" d="M563.9 130.3h10v10h-10z"/>
    <text x="577.9" y="140.5" class="wj-label">Samsung</text>
    <path fill="url(#d)" stroke="url(#d)" d="M563.9 154.8h10v10h-10z"/>
    <text x="577.9" y="165" class="wj-label">Apple</text>
    <path fill="url(#e)" stroke="url(#e)" d="M563.9 179.3h10v10h-10z"/>
    <text x="577.9" y="189.5" class="wj-label">Huawei</text>
    <path fill="url(#f)" stroke="url(#f)" d="M563.9 203.8h10v10h-10z"/>
    <text x="577.9" y="214" class="wj-label">OPPO</text>
    <path fill="url(#g)" stroke="url(#g)" d="M563.9 228.3h10v10h-10z"/>
    <text x="577.9" y="238.5" class="wj-label">Vivo</text>
    <path fill="url(#h)" stroke="url(#h)" d="M563.9 252.8h10v10h-10z"/>
    <text x="577.9" y="263" class="wj-label">Others</text>
  </g>
  <g class="wj-slice-group">
    <path fill="url(#c)" stroke="url(#c)" d="M120.4 196.5A159.5 159.5 0 0 1 238 42.6l41.9 153.9z" class="wj-slice"/>
    <path fill="url(#d)" stroke="url(#d)" d="M238 42.6a159.5 159.5 0 0 1 133 22.9l-91.1 131z" class="wj-slice"/>
    <path fill="url(#e)" stroke="url(#e)" d="M371 65.5a159.5 159.5 0 0 1 60.7 81.9l-151.8 49.1z" class="wj-slice"/>
    <path fill="url(#f)" stroke="url(#f)" d="M431.7 147.4a159.5 159.5 0 0 1 6.1 71.7l-157.9-22.6z" class="wj-slice"/>
    <path fill="url(#g)" stroke="url(#g)" d="M437.8 219.1a159.5 159.5 0 0 1-21.8 60.6l-136.1-83.2z" class="wj-slice"/>
    <path fill="url(#h)" stroke="url(#h)" d="M416 279.7a159.5 159.5 0 0 1-295.6-83.2h159.5z" class="wj-slice"/>
  </g>
</svg>
