<svg width="600" height="450" xmlns="http://www.w3.org/2000/svg" xmlns:xlink="http://www.w3.org/1999/xlink" version="1.1" baseProfile="full" viewBox="0 0 600 450">
<rect width="600" height="450" x="0" y="0" id="0" fill="none" fill-opacity="1"></rect>
<path d="M300 247.5A0 0 0 1 1 300 247.5M330 247.5A30 30 0 1 1 330 247.497M360 247.5A60 60 0 1 1 360 247.494M390 247.5A90 90 0 1 1 390 247.491M420 247.5A120 120 0 1 1 420 247.488M450 247.5A150 150 0 1 1 450 247.485M480 247.5A180 180 0 1 1 480 247.482" fill="none" stroke="#E0E6F1"></path>
<text dominant-baseline="central" text-anchor="start" style="font-size:12px;font-family:Microsoft YaHei;" x="381.57014295410096" y="72.11785283434526" fill="#6E7079">Mon</text>
<text dominant-baseline="central" text-anchor="start" style="font-size:12px;font-family:Microsoft YaHei;" x="483.2864474901828" y="205.66606441621292" fill="#6E7079">Tue</text>
<text dominant-baseline="central" text-anchor="start" style="font-size:12px;font-family:Microsoft YaHei;" x="446.98431870398963" y="370.7160827494419" fill="#6E7079">Wed</text>
<text dominant-baseline="central" text-anchor="middle" style="font-size:12px;font-family:Microsoft YaHei;" x="300" y="441.5" fill="#6E7079">Thu</text>
<text dominant-baseline="central" text-anchor="end" style="font-size:12px;font-family:Microsoft YaHei;" x="153.01568129601043" y="370.71608274944197" fill="#6E7079">Fri</text>
<text dominant-baseline="central" text-anchor="end" style="font-size:12px;font-family:Microsoft YaHei;" x="116.71355250981719" y="205.66606441621286" fill="#6E7079">Sat</text>
<text dominant-baseline="central" text-anchor="end" style="font-size:12px;font-family:Microsoft YaHei;" x="218.42985704589904" y="72.11785283434526" fill="#6E7079">Sun</text>
<path d="M300 62.5L300 67.5M444.6388 132.1544L440.7297 135.2718M480.3617 288.6664L475.487 287.5538M380.2685 414.1792L378.0991 409.6744M219.7315 414.1792L221.9009 409.6744M119.6383 288.6664L124.513 287.5538M155.3612 132.1544L159.2703 135.2718" fill="#000" stroke="#6E7079"></path>
<path d="M300.5 247.5L300.5 67.5" fill="none" stroke="#6E7079" stroke-linecap="round"></path>
<circle cx="300" cy="247.5" r="180" fill="none" stroke="#6E7079"></circle>
<path d="M300 247.5L295 247.5" fill="none" stroke="#6E7079"></path>
<path d="M300 217.5L295 217.5" fill="none" stroke="#6E7079"></path>
<path d="M300 187.5L295 187.5" fill="none" stroke="#6E7079"></path>
<path d="M300 157.5L295 157.5" fill="none" stroke="#6E7079"></path>
<path d="M300 127.5L295 127.5" fill="none" stroke="#6E7079"></path>
<path d="M300 97.5L295 97.5" fill="none" stroke="#6E7079"></path>
<path d="M300 67.5L295 67.5" fill="none" stroke="#6E7079"></path>
<text dominant-baseline="central" text-anchor="end" style="font-size:12px;font-family:Microsoft YaHei;" transform="translate(292 247.5)" fill="#6E7079">0</text>
<text dominant-baseline="central" text-anchor="end" style="font-size:12px;font-family:Microsoft YaHei;" transform="translate(292 217.5)" fill="#6E7079">2</text>
<text dominant-baseline="central" text-anchor="end" style="font-size:12px;font-family:Microsoft YaHei;" transform="translate(292 187.5)" fill="#6E7079">4</text>
<text dominant-baseline="central" text-anchor="end" style="font-size:12px;font-family:Microsoft YaHei;" transform="translate(292 157.5)" fill="#6E7079">6</text>
<text dominant-baseline="central" text-anchor="end" style="font-size:12px;font-family:Microsoft YaHei;" transform="translate(292 127.5)" fill="#6E7079">8</text>
<text dominant-baseline="central" text-anchor="end" style="font-size:12px;font-family:Microsoft YaHei;" transform="translate(292 97.5)" fill="#6E7079">10</text>
<text dominant-baseline="central" text-anchor="end" style="font-size:12px;font-family:Microsoft YaHei;" transform="translate(292 67.5)" fill="#6E7079">12</text>
<path d="M301.3446 232.5604A15 15 0 0 1 310.8419 237.1341L300 247.5Z" fill="#5470c6"></path>
<path d="M325.0372 230.9731A30 30 0 0 1 329.7285 251.527L300 247.5Z" fill="#5470c6"></path>
<path d="M342.7975 261.4058A45 45 0 0 1 323.0805 286.1302L300 247.5Z" fill="#5470c6"></path>
<path d="M321.0825 303.6741A60 60 0 0 1 278.9175 303.6741L300 247.5Z" fill="#5470c6"></path>
<path d="M276.9195 286.1302A45 45 0 0 1 257.2025 261.4058L300 247.5Z" fill="#5470c6"></path>
<path d="M225.6788 257.5675A75 75 0 0 1 237.407 206.1827L300 247.5Z" fill="#5470c6"></path>
<path d="M289.1581 237.1341A15 15 0 0 1 298.6554 232.5604L300 247.5Z" fill="#5470c6"></path>
<path d="M304.0338 202.6812A45 45 0 0 1 332.5258 216.4022L310.8419 237.1341A15 15 0 0 0 301.3446 232.5604Z" fill="#91cc75"></path>
<path d="M375.1116 197.9193A90 90 0 0 1 389.1855 259.581L329.7285 251.527A30 30 0 0 0 325.0372 230.9731Z" fill="#91cc75"></path>
<path d="M428.3926 289.2173A135 135 0 0 1 369.2414 363.3906L323.0805 286.1302A45 45 0 0 0 342.7975 261.4058Z" fill="#91cc75"></path>
<path d="M326.3531 317.7176A75 75 0 0 1 273.6469 317.7176L278.9175 303.6741A60 60 0 0 0 321.0825 303.6741Z" fill="#91cc75"></path>
<path d="M253.8391 324.7604A90 90 0 0 1 214.4049 275.3115L257.2025 261.4058A45 45 0 0 0 276.9195 286.1302Z" fill="#91cc75"></path>
<path d="M195.9503 261.5945A105 105 0 0 1 212.3698 189.6558L237.407 206.1827A75 75 0 0 0 225.6788 257.5675Z" fill="#91cc75"></path>
<path d="M278.3162 226.7681A30 30 0 0 1 297.3108 217.6208L298.6554 232.5604A15 15 0 0 0 289.1581 237.1341Z" fill="#91cc75"></path>
<path d="M305.3784 187.7415A60 60 0 0 1 343.3677 206.0362L332.5258 216.4022A45 45 0 0 0 304.0338 202.6812Z" fill="#fac858"></path>
<path d="M400.1488 181.3924A120 120 0 0 1 418.914 263.608L389.1855 259.581A90 90 0 0 0 375.1116 197.9193Z" fill="#fac858"></path>
<path d="M471.1902 303.1231A180 180 0 0 1 392.3219 402.0208L369.2414 363.3906A135 135 0 0 0 428.3926 289.2173Z" fill="#fac858"></path>
<path d="M347.4356 373.8917A135 135 0 0 1 252.5644 373.8917L273.6469 317.7176A75 75 0 0 0 326.3531 317.7176Z" fill="#fac858"></path>
<path d="M246.1456 337.6371A105 105 0 0 1 200.1391 279.9468L214.4049 275.3115A90 90 0 0 0 253.8391 324.7604Z" fill="#fac858"></path>
<path d="M166.2218 265.6215A135 135 0 0 1 187.3326 173.1289L212.3698 189.6558A105 105 0 0 0 195.9503 261.5945Z" fill="#fac858"></path>
<path d="M224.1065 174.9384A105 105 0 0 1 290.5879 142.9227L297.3108 217.6208A30 30 0 0 0 278.3162 226.7681Z" fill="#fac858"></path>
<path d="M-5 -5l144 0l0 24l-144 0Z" transform="translate(233 23)" fill="rgb(0,0,0)" fill-opacity="0" stroke="#ccc" stroke-width="0"></path>
<path d="M3.5 0L21.5 0A3.5 3.5 0 0 1 25 3.5L25 10.5A3.5 3.5 0 0 1 21.5 14L3.5 14A3.5 3.5 0 0 1 0 10.5L0 3.5A3.5 3.5 0 0 1 3.5 0" transform="translate(233 23)" fill="#5470c6"></path>
<text dominant-baseline="central" text-anchor="start" style="font-size:12px;font-family:Microsoft YaHei;" x="30" y="7" transform="translate(233 23)" fill="#333">A</text>
<path d="M3.5 0L21.5 0A3.5 3.5 0 0 1 25 3.5L25 10.5A3.5 3.5 0 0 1 21.5 14L3.5 14A3.5 3.5 0 0 1 0 10.5L0 3.5A3.5 3.5 0 0 1 3.5 0" transform="translate(281.4434 23)" fill="#91cc75"></path>
<text dominant-baseline="central" text-anchor="start" style="font-size:12px;font-family:Microsoft YaHei;" x="30" y="7" transform="translate(281.4434 23)" fill="#333">B</text>
<path d="M3.5 0L21.5 0A3.5 3.5 0 0 1 25 3.5L25 10.5A3.5 3.5 0 0 1 21.5 14L3.5 14A3.5 3.5 0 0 1 0 10.5L0 3.5A3.5 3.5 0 0 1 3.5 0" transform="translate(328.9727 23)" fill="#fac858"></path>
<text dominant-baseline="central" text-anchor="start" style="font-size:12px;font-family:Microsoft YaHei;" x="30" y="7" transform="translate(328.9727 23)" fill="#333">C</text>
<path d="M-5 -5l10 0l0 10l-10 0Z" transform="translate(5 5)" fill="rgb(0,0,0)" fill-opacity="0" stroke="#ccc" stroke-width="0"></path>
</svg>