<svg class="d3ez" width="1152" height="1152" xmlns="http://www.w3.org/2000/svg" xmlns:xlink="http://www.w3.org/1999/xlink"><g class="title"/><g class="chart roseChart" width="1072" height="1072" transform="translate(40,40)"><g class="axis" transform="translate(536,536)"><g class="circularSectorLabels" transform="rotate(15)"><def><path id="uid-6654-path" d="m0 -484.73043478260877 a484.73043478260877 484.73043478260877 0 1,1 -0.01 0"/></def><text class="sectorLabel" font-size="0.71em" color="currentColor" style="text-anchor: start;"><textPath xlink:href="#uid-6654-path" startOffset="0%" fill="currentColor">APRIL</textPath></text><text class="sectorLabel" font-size="0.71em" color="currentColor" style="text-anchor: start;"><textPath xlink:href="#uid-6654-path" startOffset="8.333333333333332%" fill="currentColor">MAY</textPath></text><text class="sectorLabel" font-size="0.71em" color="currentColor" style="text-anchor: start;"><textPath xlink:href="#uid-6654-path" startOffset="16.666666666666664%" fill="currentColor">JUNE</textPath></text><text class="sectorLabel" font-size="0.71em" color="currentColor" style="text-anchor: start;"><textPath xlink:href="#uid-6654-path" startOffset="25%" fill="currentColor">JULY</textPath></text><text class="sectorLabel" font-size="0.71em" color="currentColor" style="text-anchor: start;"><textPath xlink:href="#uid-6654-path" startOffset="33.33333333333333%" fill="currentColor">AUGUST</textPath></text><text class="sectorLabel" font-size="0.71em" color="currentColor" style="text-anchor: start;"><textPath xlink:href="#uid-6654-path" startOffset="41.66666666666667%" fill="currentColor">SEPTEMBER</textPath></text><text class="sectorLabel" font-size="0.71em" color="currentColor" style="text-anchor: start;"><textPath xlink:href="#uid-6654-path" startOffset="50%" fill="currentColor">OCTOBER</textPath></text><text class="sectorLabel" font-size="0.71em" color="currentColor" style="text-anchor: start;"><textPath xlink:href="#uid-6654-path" startOffset="58.333333333333336%" fill="currentColor">NOVEMBER</textPath></text><text class="sectorLabel" font-size="0.71em" color="currentColor" style="text-anchor: start;"><textPath xlink:href="#uid-6654-path" startOffset="66.66666666666666%" fill="currentColor">DECEMBER</textPath></text><text class="sectorLabel" font-size="0.71em" color="currentColor" style="text-anchor: start;"><textPath xlink:href="#uid-6654-path" startOffset="75%" fill="currentColor">JANUARY</textPath></text><text class="sectorLabel" font-size="0.71em" color="currentColor" style="text-anchor: start;"><textPath xlink:href="#uid-6654-path" startOffset="83.33333333333334%" fill="currentColor">FEBRUARY</textPath></text><text class="sectorLabel" font-size="0.71em" color="currentColor" style="text-anchor: start;"><textPath xlink:href="#uid-6654-path" startOffset="91.66666666666666%" fill="currentColor">MARCH</textPath></text></g><g class="circularAxis"><circle class="outerCircle" r="466.0869565217392" stroke-width="2" stroke="currentColor" style="fill: none;"/><g class="tickCircles"><circle stroke="currentColor" stroke-width="1" stroke-dasharray="1,1" opacity="0.5" style="fill: none;" r="0"/><circle stroke="currentColor" stroke-width="1" stroke-dasharray="1,1" opacity="0.5" style="fill: none;" r="49.62733371218501"/><circle stroke="currentColor" stroke-width="1" stroke-dasharray="1,1" opacity="0.5" style="fill: none;" r="99.25466742437003"/><circle stroke="currentColor" stroke-width="1" stroke-dasharray="1,1" opacity="0.5" style="fill: none;" r="148.88200113655503"/><circle stroke="currentColor" stroke-width="1" stroke-dasharray="1,1" opacity="0.5" style="fill: none;" r="198.50933484874005"/><circle stroke="currentColor" stroke-width="1" stroke-dasharray="1,1" opacity="0.5" style="fill: none;" r="248.13666856092505"/><circle stroke="currentColor" stroke-width="1" stroke-dasharray="1,1" opacity="0.5" style="fill: none;" r="297.76400227311007"/><circle stroke="currentColor" stroke-width="1" stroke-dasharray="1,1" opacity="0.5" style="fill: none;" r="347.3913359852951"/><circle stroke="currentColor" stroke-width="1" stroke-dasharray="1,1" opacity="0.5" style="fill: none;" r="397.0186696974801"/><circle stroke="currentColor" stroke-width="1" stroke-dasharray="1,1" opacity="0.5" style="fill: none;" r="446.64600340966507"/></g><g class="spokes"><line stroke="currentColor" stroke-width="1" stroke-dasharray="2,2" opacity="0.5" transform="rotate(0)" y2="-466.0869565217392"/><line stroke="currentColor" stroke-width="1" stroke-dasharray="2,2" opacity="0.5" transform="rotate(30)" y2="-466.0869565217392"/><line stroke="currentColor" stroke-width="1" stroke-dasharray="2,2" opacity="0.5" transform="rotate(60)" y2="-466.0869565217392"/><line stroke="currentColor" stroke-width="1" stroke-dasharray="2,2" opacity="0.5" transform="rotate(90)" y2="-466.0869565217392"/><line stroke="currentColor" stroke-width="1" stroke-dasharray="2,2" opacity="0.5" transform="rotate(120)" y2="-466.0869565217392"/><line stroke="currentColor" stroke-width="1" stroke-dasharray="2,2" opacity="0.5" transform="rotate(150)" y2="-466.0869565217392"/><line stroke="currentColor" stroke-width="1" stroke-dasharray="2,2" opacity="0.5" transform="rotate(180)" y2="-466.0869565217392"/><line stroke="currentColor" stroke-width="1" stroke-dasharray="2,2" opacity="0.5" transform="rotate(210)" y2="-466.0869565217392"/><line stroke="currentColor" stroke-width="1" stroke-dasharray="2,2" opacity="0.5" transform="rotate(240)" y2="-466.0869565217392"/><line stroke="currentColor" stroke-width="1" stroke-dasharray="2,2" opacity="0.5" transform="rotate(270)" y2="-466.0869565217392"/><line stroke="currentColor" stroke-width="1" stroke-dasharray="2,2" opacity="0.5" transform="rotate(300)" y2="-466.0869565217392"/><line stroke="currentColor" stroke-width="1" stroke-dasharray="2,2" opacity="0.5" transform="rotate(330)" y2="-466.0869565217392"/><line stroke="currentColor" stroke-width="1" stroke-dasharray="2,2" opacity="0.5" transform="rotate(360)" y2="-466.0869565217392"/></g></g></g><g class="seriesGroup"><g class="series" data-name="April" transform="translate(536,536)"><g class="roseChartSector"><path class="arc" stroke-width="1px" data-name="Zymotic Diseases" d="M0,-20.017A2,2,0,0,1,2.199,-22.007A22.116,22.116,0,0,1,9.099,-20.158A2,2,0,0,1,10.008,-17.335L0,0Z" fill="rgb(89, 154, 211)" stroke="rgb(89, 154, 211)" fill-opacity="1"/><path class="arc" stroke-width="1px" data-name="Other Causes" d="M0,-69.541A2,2,0,0,1,2.057,-71.54A71.569,71.569,0,0,1,33.988,-62.984A2,2,0,0,1,34.77,-60.224L12.017,-20.813A2,2,0,0,1,9.432,-20.004A22.116,22.116,0,0,0,1.834,-22.04A2,2,0,0,1,0,-24.033Z" fill="rgb(114, 114, 114)" stroke="rgb(114, 114, 114)" fill-opacity="1"/><path class="arc" stroke-width="1px" data-name="Wounds &amp; Injuries" d="M0,-71.569A71.569,71.569,0,0,1,35.785,-61.981A71.569,71.569,0,0,0,0,-71.569Z" fill="rgb(241, 89, 95)" stroke="rgb(241, 89, 95)" fill-opacity="1"/></g></g><g class="series" data-name="May" transform="translate(536,536)"><g class="roseChartSector"><path class="arc" stroke-width="1px" data-name="Zymotic Diseases" d="M13.066,-22.631A2,2,0,0,1,15.927,-23.281A28.208,28.208,0,0,1,23.281,-15.927A2,2,0,0,1,22.631,-13.066L0,0Z" fill="rgb(89, 154, 211)" stroke="rgb(89, 154, 211)" fill-opacity="1"/><path class="arc" stroke-width="1px" data-name="Other Causes" d="M25.233,-43.704A2,2,0,0,1,28.033,-44.396A52.505,52.505,0,0,1,44.396,-28.033A2,2,0,0,1,43.704,-25.233L26.103,-15.071A2,2,0,0,1,23.441,-15.69A28.208,28.208,0,0,0,15.69,-23.441A2,2,0,0,1,15.071,-26.103Z" fill="rgb(114, 114, 114)" stroke="rgb(114, 114, 114)" fill-opacity="1"/><path class="arc" stroke-width="1px" data-name="Wounds &amp; Injuries" d="M26.253,-45.471A52.505,52.505,0,0,1,45.471,-26.253A52.505,52.505,0,0,0,26.253,-45.471Z" fill="rgb(241, 89, 95)" stroke="rgb(241, 89, 95)" fill-opacity="1"/></g></g><g class="series" data-name="June" transform="translate(536,536)"><g class="roseChartSector"><path class="arc" stroke-width="1px" data-name="Zymotic Diseases" d="M17.484,-10.094A2,2,0,0,1,20.306,-9.187A22.288,22.288,0,0,1,22.179,-2.197A2,2,0,0,1,20.189,0L0,0Z" fill="rgb(89, 154, 211)" stroke="rgb(89, 154, 211)" fill-opacity="1"/><path class="arc" stroke-width="1px" data-name="Other Causes" d="M31.599,-18.244A2,2,0,0,1,34.384,-17.416A38.543,38.543,0,0,1,38.485,-2.109A2,2,0,0,1,36.488,0L24.205,0A2,2,0,0,1,22.212,-1.835A22.288,22.288,0,0,0,20.154,-9.517A2,2,0,0,1,20.962,-12.103Z" fill="rgb(114, 114, 114)" stroke="rgb(114, 114, 114)" fill-opacity="1"/><path class="arc" stroke-width="1px" data-name="Wounds &amp; Injuries" d="M33.379,-19.271A38.543,38.543,0,0,1,38.543,0A38.543,38.543,0,0,0,33.379,-19.271Z" fill="rgb(241, 89, 95)" stroke="rgb(241, 89, 95)" fill-opacity="1"/></g></g><g class="series" data-name="July" transform="translate(536,536)"><g class="roseChartSector"><path class="arc" stroke-width="1px" data-name="Zymotic Diseases" d="M123.038,0A2,2,0,0,1,125.038,2.033A125.055,125.055,0,0,1,109.302,60.759A2,2,0,0,1,106.554,61.519L0,0Z" fill="rgb(89, 154, 211)" stroke="rgb(89, 154, 211)" fill-opacity="1"/><path class="arc" stroke-width="1px" data-name="Other Causes" d="M154.678,0A2,2,0,0,1,156.678,2.026A156.691,156.691,0,0,1,136.7,76.585A2,2,0,0,1,133.955,77.339L110.019,63.519A2,2,0,0,1,109.271,60.815A125.055,125.055,0,0,0,125.039,1.969A2,2,0,0,1,127.039,0Z" fill="rgb(114, 114, 114)" stroke="rgb(114, 114, 114)" fill-opacity="1"/><path class="arc" stroke-width="1px" data-name="Wounds &amp; Injuries" d="M156.691,0A156.691,156.691,0,0,1,135.699,78.346A156.691,156.691,0,0,0,156.691,0Z" fill="rgb(241, 89, 95)" stroke="rgb(241, 89, 95)" fill-opacity="1"/></g></g><g class="series" data-name="August" transform="translate(536,536)"><g class="roseChartSector"><path class="arc" stroke-width="1px" data-name="Zymotic Diseases" d="M153.962,88.89A2,2,0,0,1,154.683,91.642A179.792,179.792,0,0,1,91.642,154.683A2,2,0,0,1,88.89,153.962L0,0Z" fill="rgb(89, 154, 211)" stroke="rgb(89, 154, 211)" fill-opacity="1"/><path class="arc" stroke-width="1px" data-name="Other Causes" d="M183.69,106.053A2,2,0,0,1,184.412,108.802A214.116,214.116,0,0,1,108.802,184.412A2,2,0,0,1,106.053,183.69L90.89,157.427A2,2,0,0,1,91.603,154.706A179.792,179.792,0,0,0,154.706,91.603A2,2,0,0,1,157.427,90.89Z" fill="rgb(114, 114, 114)" stroke="rgb(114, 114, 114)" fill-opacity="1"/><path class="arc" stroke-width="1px" data-name="Wounds &amp; Injuries" d="M189.14,109.2A2,2,0,0,1,189.862,111.948A220.409,220.409,0,0,1,111.948,189.862A2,2,0,0,1,109.2,189.14L108.053,187.154A2,2,0,0,1,108.769,184.431A214.116,214.116,0,0,0,184.431,108.769A2,2,0,0,1,187.154,108.053Z" fill="rgb(241, 89, 95)" stroke="rgb(241, 89, 95)" fill-opacity="1"/></g></g><g class="series" data-name="September" transform="translate(536,536)"><g class="roseChartSector"><path class="arc" stroke-width="1px" data-name="Zymotic Diseases" d="M86.835,150.403A2,2,0,0,1,86.083,153.147A175.683,175.683,0,0,1,2.023,175.671A2,2,0,0,1,0,173.671L0,0Z" fill="rgb(89, 154, 211)" stroke="rgb(89, 154, 211)" fill-opacity="1"/><path class="arc" stroke-width="1px" data-name="Other Causes" d="M113.002,195.725A2,2,0,0,1,112.254,198.466A228.013,228.013,0,0,1,2.018,228.004A2,2,0,0,1,0,226.004L0,177.671A2,2,0,0,1,1.977,175.671A175.683,175.683,0,0,0,86.123,153.125A2,2,0,0,1,88.836,153.868Z" fill="rgb(114, 114, 114)" stroke="rgb(114, 114, 114)" fill-opacity="1"/><path class="arc" stroke-width="1px" data-name="Wounds &amp; Injuries" d="M141.169,244.513A2,2,0,0,1,140.425,247.252A284.346,284.346,0,0,1,2.014,284.339A2,2,0,0,1,0,282.339L0,230.004A2,2,0,0,1,1.983,228.004A228.013,228.013,0,0,0,112.285,198.449A2,2,0,0,1,115.002,199.189Z" fill="rgb(241, 89, 95)" stroke="rgb(241, 89, 95)" fill-opacity="1"/></g></g><g class="series" data-name="October" transform="translate(536,536)"><g class="roseChartSector"><path class="arc" stroke-width="1px" data-name="Zymotic Diseases" d="M0,136.734A2,2,0,0,1,-2.029,138.734A138.749,138.749,0,0,1,-67.61,121.162A2,2,0,0,1,-68.367,118.415L0,0Z" fill="rgb(89, 154, 211)" stroke="rgb(89, 154, 211)" fill-opacity="1"/><path class="arc" stroke-width="1px" data-name="Other Causes" d="M0,206.71A2,2,0,0,1,-2.019,208.709A208.719,208.719,0,0,1,-102.606,181.757A2,2,0,0,1,-103.355,179.016L-70.367,121.88A2,2,0,0,1,-67.66,121.134A138.749,138.749,0,0,0,-1.972,138.735A2,2,0,0,1,0,140.735Z" fill="rgb(114, 114, 114)" stroke="rgb(114, 114, 114)" fill-opacity="1"/><path class="arc" stroke-width="1px" data-name="Wounds &amp; Injuries" d="M0,277.791A2,2,0,0,1,-2.014,279.791A279.798,279.798,0,0,1,-138.151,243.313A2,2,0,0,1,-138.896,240.574L-105.355,182.48A2,2,0,0,1,-102.639,181.739A208.719,208.719,0,0,0,-1.981,208.71A2,2,0,0,1,0,210.71Z" fill="rgb(241, 89, 95)" stroke="rgb(241, 89, 95)" fill-opacity="1"/></g></g><g class="series" data-name="November" transform="translate(536,536)"><g class="roseChartSector"><path class="arc" stroke-width="1px" data-name="Zymotic Diseases" d="M-91.595,158.647A2,2,0,0,1,-94.346,159.368A185.201,185.201,0,0,1,-159.368,94.346A2,2,0,0,1,-158.647,91.595L0,0Z" fill="rgb(89, 154, 211)" stroke="rgb(89, 154, 211)" fill-opacity="1"/><path class="arc" stroke-width="1px" data-name="Other Causes" d="M-124.422,215.505A2,2,0,0,1,-127.168,216.229A250.852,250.852,0,0,1,-216.229,127.168A2,2,0,0,1,-215.505,124.422L-162.111,93.595A2,2,0,0,1,-159.39,94.309A185.201,185.201,0,0,0,-94.309,159.39A2,2,0,0,1,-93.595,162.111Z" fill="rgb(114, 114, 114)" stroke="rgb(114, 114, 114)" fill-opacity="1"/><path class="arc" stroke-width="1px" data-name="Wounds &amp; Injuries" d="M-178.417,309.027A2,2,0,0,1,-181.159,309.754A358.84,358.84,0,0,1,-309.754,181.159A2,2,0,0,1,-309.027,178.417L-218.969,126.422A2,2,0,0,1,-216.245,127.14A250.852,250.852,0,0,0,-127.14,216.245A2,2,0,0,1,-126.422,218.969Z" fill="rgb(241, 89, 95)" stroke="rgb(241, 89, 95)" fill-opacity="1"/></g></g><g class="series" data-name="December" transform="translate(536,536)"><g class="roseChartSector"><path class="arc" stroke-width="1px" data-name="Zymotic Diseases" d="M-206.269,119.09A2,2,0,0,1,-209.01,118.343A240.188,240.188,0,0,1,-240.179,2.017A2,2,0,0,1,-238.179,0L0,0Z" fill="rgb(89, 154, 211)" stroke="rgb(89, 154, 211)" fill-opacity="1"/><path class="arc" stroke-width="1px" data-name="Other Causes" d="M-263.618,152.2A2,2,0,0,1,-266.357,151.457A306.407,306.407,0,0,1,-306.4,2.013A2,2,0,0,1,-304.4,0L-242.179,0A2,2,0,0,1,-240.179,1.983A240.188,240.188,0,0,0,-208.993,118.372A2,2,0,0,1,-209.733,121.09Z" fill="rgb(114, 114, 114)" stroke="rgb(114, 114, 114)" fill-opacity="1"/><path class="arc" stroke-width="1px" data-name="Wounds &amp; Injuries" d="M-317.071,183.061A2,2,0,0,1,-319.809,182.32A368.128,368.128,0,0,1,-368.122,2.011A2,2,0,0,1,-366.122,0L-308.4,0A2,2,0,0,1,-306.4,1.987A306.407,306.407,0,0,0,-266.344,151.479A2,2,0,0,1,-267.083,154.2Z" fill="rgb(241, 89, 95)" stroke="rgb(241, 89, 95)" fill-opacity="1"/></g></g><g class="series" data-name="January" transform="translate(536,536)"><g class="roseChartSector"><path class="arc" stroke-width="1px" data-name="Zymotic Diseases" d="M-305.484,0A2,2,0,0,1,-307.484,-2.013A307.49,307.49,0,0,1,-267.295,-151.998A2,2,0,0,1,-264.557,-152.742L0,0Z" fill="rgb(89, 154, 211)" stroke="rgb(89, 154, 211)" fill-opacity="1"/><path class="arc" stroke-width="1px" data-name="Other Causes" d="M-410.809,0A2,2,0,0,1,-412.809,-2.01A412.814,412.814,0,0,1,-358.508,-204.664A2,2,0,0,1,-355.771,-205.405L-268.021,-154.742A2,2,0,0,1,-267.282,-152.021A307.49,307.49,0,0,0,-307.484,-1.987A2,2,0,0,1,-309.484,0Z" fill="rgb(114, 114, 114)" stroke="rgb(114, 114, 114)" fill-opacity="1"/><path class="arc" stroke-width="1px" data-name="Wounds &amp; Injuries" d="M-464.083,0A2,2,0,0,1,-466.083,-2.009A466.087,466.087,0,0,1,-404.644,-231.302A2,2,0,0,1,-401.907,-232.041L-359.235,-207.405A2,2,0,0,1,-358.499,-204.681A412.814,412.814,0,0,0,-412.809,-1.99A2,2,0,0,1,-414.809,0Z" fill="rgb(241, 89, 95)" stroke="rgb(241, 89, 95)" fill-opacity="1"/></g></g><g class="series" data-name="February" transform="translate(536,536)"><g class="roseChartSector"><path class="arc" stroke-width="1px" data-name="Zymotic Diseases" d="M-242.732,-140.142A2,2,0,0,1,-243.457,-142.886A282.29,282.29,0,0,1,-142.886,-243.457A2,2,0,0,1,-140.142,-242.732L0,0Z" fill="rgb(89, 154, 211)" stroke="rgb(89, 154, 211)" fill-opacity="1"/><path class="arc" stroke-width="1px" data-name="Other Causes" d="M-343.613,-198.385A2,2,0,0,1,-344.34,-201.126A398.775,398.775,0,0,1,-201.126,-344.34A2,2,0,0,1,-198.385,-343.613L-142.142,-246.197A2,2,0,0,1,-142.862,-243.472A282.29,282.29,0,0,0,-243.472,-142.862A2,2,0,0,1,-246.197,-142.142Z" fill="rgb(114, 114, 114)" stroke="rgb(114, 114, 114)" fill-opacity="1"/><path class="arc" stroke-width="1px" data-name="Wounds &amp; Injuries" d="M-378.022,-218.251A2,2,0,0,1,-378.75,-220.991A438.507,438.507,0,0,1,-220.991,-378.75A2,2,0,0,1,-218.251,-378.022L-200.385,-347.077A2,2,0,0,1,-201.108,-344.35A398.775,398.775,0,0,0,-344.35,-201.108A2,2,0,0,1,-347.077,-200.385Z" fill="rgb(241, 89, 95)" stroke="rgb(241, 89, 95)" fill-opacity="1"/></g></g><g class="series" data-name="March" transform="translate(536,536)"><g class="roseChartSector"><path class="arc" stroke-width="1px" data-name="Zymotic Diseases" d="M-108.279,-187.544A2,2,0,0,1,-107.531,-190.286A218.567,218.567,0,0,1,-2.018,-218.558A2,2,0,0,1,0,-216.558L0,0Z" fill="rgb(89, 154, 211)" stroke="rgb(89, 154, 211)" fill-opacity="1"/><path class="arc" stroke-width="1px" data-name="Other Causes" d="M-149.581,-259.082A2,2,0,0,1,-148.837,-261.821A301.169,301.169,0,0,1,-2.013,-301.162A2,2,0,0,1,0,-299.162L0,-220.558A2,2,0,0,1,-1.982,-218.558A218.567,218.567,0,0,0,-107.563,-190.268A2,2,0,0,1,-110.279,-191.009Z" fill="rgb(114, 114, 114)" stroke="rgb(114, 114, 114)" fill-opacity="1"/><path class="arc" stroke-width="1px" data-name="Wounds &amp; Injuries" d="M-167.422,-289.983A2,2,0,0,1,-166.679,-292.721A336.849,336.849,0,0,1,-2.012,-336.843A2,2,0,0,1,0,-334.843L0,-303.162A2,2,0,0,1,-1.987,-301.162A301.169,301.169,0,0,0,-148.86,-261.807A2,2,0,0,1,-151.581,-262.546Z" fill="rgb(241, 89, 95)" stroke="rgb(241, 89, 95)" fill-opacity="1"/></g></g></g></g><g class="legend"/></svg>