<svg width="500" height="500" xmlns="http://www.w3.org/2000/svg" xmlns:xlink="http://www.w3.org/1999/xlink"><g transform="translate(250,250)"><g><path d="M0.1,-58.375A58.375,58.375,0,0,1,17.944,-55.549L0.212,-0.977A1,1,0,0,0,0.1,-0.995Z" stroke="black" style="fill: rgb(29, 85, 207);"/><path d="M55.68,-171.04A179.875,179.875,0,0,1,105.647,-145.581L0.504,-0.864A1,1,0,0,0,0.403,-0.915Z" stroke="black" style="fill: rgb(29, 85, 207);"/><path d="M101.841,-140.002A173.125,173.125,0,0,1,140.002,-101.841L0.746,-0.666A1,1,0,0,0,0.666,-0.746Z" stroke="black" style="fill: rgb(29, 85, 207);"/><path d="M126.468,-91.761A156.25,156.25,0,0,1,148.572,-48.379L0.915,-0.403A1,1,0,0,0,0.864,-0.504Z" stroke="black" style="fill: rgb(29, 85, 207);"/><path d="M180.732,-58.618A190,190,0,0,1,190,-0.1L0.995,-0.1A1,1,0,0,0,0.977,-0.212Z" stroke="black" style="fill: rgb(29, 85, 207);"/><path d="M125.875,0.1A125.875,125.875,0,0,1,119.745,38.802L0.977,0.212A1,1,0,0,0,0.995,0.1Z" stroke="black" style="fill: rgb(29, 85, 207);"/><path d="M116.473,37.95A122.5,122.5,0,0,1,99.163,71.923L0.864,0.504A1,1,0,0,0,0.915,0.403Z" stroke="black" style="fill: rgb(29, 85, 207);"/><path d="M109.968,80.02A136,136,0,0,1,80.02,109.968L0.666,0.746A1,1,0,0,0,0.746,0.666Z" stroke="black" style="fill: rgb(29, 85, 207);"/><path d="M87.793,121.007A149.5,149.5,0,0,1,46.293,142.152L0.403,0.915A1,1,0,0,0,0.504,0.864Z" stroke="black" style="fill: rgb(29, 85, 207);" stroke-width="1"/><path d="M21.073,65.178A68.5,68.5,0,0,1,0.1,68.5L0.1,0.995A1,1,0,0,0,0.212,0.977Z" stroke="black" style="fill: rgb(29, 85, 207);"/><path d="M-0.1,58.375A58.375,58.375,0,0,1,-17.944,55.549L-0.212,0.977A1,1,0,0,0,-0.1,0.995Z" stroke="black" style="fill: rgb(29, 85, 207);"/><path d="M-55.68,171.04A179.875,179.875,0,0,1,-105.647,145.581L-0.504,0.864A1,1,0,0,0,-0.403,0.915Z" stroke="black" style="fill: rgb(29, 85, 207);"/><path d="M-101.841,140.002A173.125,173.125,0,0,1,-140.002,101.841L-0.746,0.666A1,1,0,0,0,-0.666,0.746Z" stroke="black" style="fill: rgb(29, 85, 207);"/><path d="M-126.468,91.761A156.25,156.25,0,0,1,-148.572,48.379L-0.915,0.403A1,1,0,0,0,-0.864,0.504Z" stroke="black" style="fill: rgb(29, 85, 207);"/><path d="M-180.732,58.618A190,190,0,0,1,-190,0.1L-0.995,0.1A1,1,0,0,0,-0.977,0.212Z" stroke="black" style="fill: rgb(29, 85, 207);"/><path d="M-125.875,-0.1A125.875,125.875,0,0,1,-119.745,-38.802L-0.977,-0.212A1,1,0,0,0,-0.995,-0.1Z" stroke="black" style="fill: rgb(29, 85, 207);"/><path d="M-116.473,-37.95A122.5,122.5,0,0,1,-99.163,-71.923L-0.864,-0.504A1,1,0,0,0,-0.915,-0.403Z" stroke="black" style="fill: rgb(29, 85, 207);"/><path d="M-109.968,-80.02A136,136,0,0,1,-80.02,-109.968L-0.666,-0.746A1,1,0,0,0,-0.746,-0.666Z" stroke="black" style="fill: rgb(29, 85, 207);"/><path d="M-87.793,-121.007A149.5,149.5,0,0,1,-46.293,-142.152L-0.403,-0.915A1,1,0,0,0,-0.504,-0.864Z" stroke="black" style="fill: rgb(29, 85, 207);" stroke-width="1"/><path d="M-21.073,-65.178A68.5,68.5,0,0,1,-0.1,-68.5L-0.1,-0.995A1,1,0,0,0,-0.212,-0.977Z" stroke="black" style="fill: rgb(29, 85, 207);"/></g><circle cx="0" cy="0" r="190" stroke="black" style="fill: none;"/><circle cx="0" cy="0" r="1" stroke="black" style="fill: none;"/><g><g text-anchor="middle" transform="rotate(-90)translate(220,0)" font-family="Aldrich"><text transform="rotate(-90)translate(0,5)" style="font-size: 14px;">N</text></g><g text-anchor="middle" transform="rotate(0)translate(220,0)" font-family="Aldrich"><text transform="rotate(0)translate(0,5)" style="font-size: 14px;">E</text></g><g text-anchor="middle" transform="rotate(90)translate(220,0)" font-family="Aldrich"><text transform="rotate(-90)translate(0,0)" style="font-size: 14px;">S</text></g><g text-anchor="middle" transform="rotate(180)translate(220,0)" font-family="Aldrich"><text transform="rotate(180)translate(0,5)" style="font-size: 14px;">W</text></g></g><g class="axis" stroke-width="0.5" transform="rotate(0)" fill="none" font-size="10" font-family="sans-serif" text-anchor="end" style="opacity: 0.2;"><path class="domain" stroke="currentColor" d="M0,-1V-190"/></g><g class="axis" stroke-width="0.5" transform="rotate(29.999999999999996)" fill="none" font-size="10" font-family="sans-serif" text-anchor="end" style="opacity: 0.2;"><path class="domain" stroke="currentColor" d="M0,-1V-190"/></g><g class="axis" stroke-width="0.5" transform="rotate(59.99999999999999)" fill="none" font-size="10" font-family="sans-serif" text-anchor="end" style="opacity: 0.2;"><path class="domain" stroke="currentColor" d="M0,-1V-190"/></g><g class="axis" stroke-width="0.5" transform="rotate(90)" fill="none" font-size="10" font-family="sans-serif" text-anchor="end" style="opacity: 0.2;"><path class="domain" stroke="currentColor" d="M0,-1V-190"/></g><g class="axis" stroke-width="0.5" transform="rotate(119.99999999999999)" fill="none" font-size="10" font-family="sans-serif" text-anchor="end" style="opacity: 0.2;"><path class="domain" stroke="currentColor" d="M0,-1V-190"/></g><g class="axis" stroke-width="0.5" transform="rotate(150.00000000000003)" fill="none" font-size="10" font-family="sans-serif" text-anchor="end" style="opacity: 0.2;"><path class="domain" stroke="currentColor" d="M0,-1V-190"/></g><g class="axis" stroke-width="0.5" transform="rotate(180)" fill="none" font-size="10" font-family="sans-serif" text-anchor="end" style="opacity: 0.2;"><path class="domain" stroke="currentColor" d="M0,-1V-190"/></g><g class="axis" stroke-width="0.5" transform="rotate(210)" fill="none" font-size="10" font-family="sans-serif" text-anchor="end" style="opacity: 0.2;"><path class="domain" stroke="currentColor" d="M0,-1V-190"/></g><g class="axis" stroke-width="0.5" transform="rotate(239.99999999999997)" fill="none" font-size="10" font-family="sans-serif" text-anchor="end" style="opacity: 0.2;"><path class="domain" stroke="currentColor" d="M0,-1V-190"/></g><g class="axis" stroke-width="0.5" transform="rotate(270)" fill="none" font-size="10" font-family="sans-serif" text-anchor="end" style="opacity: 0.2;"><path class="domain" stroke="currentColor" d="M0,-1V-190"/></g><g class="axis" stroke-width="0.5" transform="rotate(300.00000000000006)" fill="none" font-size="10" font-family="sans-serif" text-anchor="end" style="opacity: 0.2;"><path class="domain" stroke="currentColor" d="M0,-1V-190"/></g><g class="axis" stroke-width="0.5" transform="rotate(329.99999999999994)" fill="none" font-size="10" font-family="sans-serif" text-anchor="end" style="opacity: 0.2;"><path class="domain" stroke="currentColor" d="M0,-1V-190"/></g><g text-anchor="middle"><g><circle fill="none" stroke="gray" r="34.75" style="opacity: 0.2;"/><text y="-34.75" dy="-0.25em" x="-15" style="font-size: 12px;">10</text></g><g><circle fill="none" stroke="gray" r="68.5" style="opacity: 0.2;"/><text y="-68.5" dy="-0.25em" x="-15" style="font-size: 12px;">20</text></g><g><circle fill="none" stroke="gray" r="102.24999999999999" style="opacity: 0.2;"/><text y="-102.24999999999999" dy="-0.25em" x="-15" style="font-size: 12px;">30</text></g><g><circle fill="none" stroke="gray" r="136" style="opacity: 0.2;"/><text y="-136" dy="-0.25em" x="-15" style="font-size: 12px;">40</text></g><g><circle fill="none" stroke="gray" r="169.75" style="opacity: 0.2;"/><text y="-169.75" dy="-0.25em" x="-15" style="font-size: 12px;">50</text></g></g></g></svg>