<svg viewBox="0,0,1152,500" xmlns="http://www.w3.org/2000/svg" xmlns:xlink="http://www.w3.org/1999/xlink"><g transform="translate(576,250)"><g fill="rgb(247, 252, 253)"><path d="M2.635020365602177e-15,-43.03314829119352A43.03314829119352,43.03314829119352,0,0,1,16.468072893549838,-39.757444925756744L0,0Z" transform="rotate(-11.25)"/><path d="M18.039870004873237,-43.552098829212554A47.14045207910317,47.14045207910317,0,0,1,33.333333333333336,-33.33333333333333L0,0Z" transform="rotate(-11.25)"/><path d="M30.42903097250923,-30.429030972509224A43.03314829119352,43.03314829119352,0,0,1,39.757444925756744,-16.468072893549834L0,0Z" transform="rotate(-11.25)"/><path d="M35.56013978627846,-14.729492179359633A38.49001794597505,38.49001794597505,0,0,1,38.49001794597505,0L0,0Z" transform="rotate(-11.25)"/><path d="M38.49001794597505,0A38.49001794597505,38.49001794597505,0,0,1,35.56013978627846,14.729492179359633L0,0Z" transform="rotate(-11.25)"/><path d="M30.795984417042895,12.75611441216966A33.333333333333336,33.333333333333336,0,0,1,23.57022603955159,23.570226039551585L0,0Z" transform="rotate(-11.25)"/><path d="M27.216552697590867,27.216552697590863A38.49001794597505,38.49001794597505,0,0,1,14.729492179359637,35.56013978627846L0,0Z" transform="rotate(-11.25)"/><path d="M14.729492179359637,35.56013978627846A38.49001794597505,38.49001794597505,0,0,1,2.356833863833126e-15,38.49001794597505L0,0Z" transform="rotate(-11.25)"/><path d="M2.8865201874516446e-15,47.14045207910317A47.14045207910317,47.14045207910317,0,0,1,-18.039870004873233,43.552098829212554L0,0Z" transform="rotate(-11.25)"/><path d="M-14.729492179359632,35.56013978627846A38.49001794597505,38.49001794597505,0,0,1,-27.216552697590863,27.216552697590867L0,0Z" transform="rotate(-11.25)"/><path d="M-30.429030972509224,30.42903097250923A43.03314829119352,43.03314829119352,0,0,1,-39.75744492575674,16.468072893549856L0,0Z" transform="rotate(-11.25)"/><path d="M-43.55209882921254,18.039870004873258A47.14045207910317,47.14045207910317,0,0,1,-47.14045207910317,5.773040374903289e-15L0,0Z" transform="rotate(-11.25)"/><path d="M-47.14045207910317,5.773040374903289e-15A47.14045207910317,47.14045207910317,0,0,1,-43.55209882921255,-18.039870004873247L0,0Z" transform="rotate(-11.25)"/><path d="M-39.757444925756744,-16.468072893549845A43.03314829119352,43.03314829119352,0,0,1,-30.429030972509207,-30.42903097250925L0,0Z" transform="rotate(-11.25)"/><path d="M-27.21655269759087,-27.216552697590863A38.49001794597505,38.49001794597505,0,0,1,-14.729492179359655,-35.560139786278455L0,0Z" transform="rotate(-11.25)"/><path d="M-7.364746089679827,-17.780069893139228A19.245008972987524,19.245008972987524,0,0,1,-3.535250795749689e-15,-19.245008972987524L0,0Z" transform="rotate(-11.25)"/></g><g fill="rgb(228, 245, 247)"><path d="M5.400184790725273e-15,-88.19171036881968A88.19171036881968,88.19171036881968,0,0,1,33.7495064300878,-81.47851614691594L16.468072893549838,-39.757444925756744A43.03314829119352,43.03314829119352,0,0,0,2.635020365602177e-15,-43.03314829119352Z" transform="rotate(-11.25)"/><path d="M36.07974000974647,-87.10419765842511A94.28090415820634,94.28090415820634,0,0,1,66.66666666666667,-66.66666666666666L33.333333333333336,-33.33333333333333A47.14045207910317,47.14045207910317,0,0,0,18.039870004873237,-43.552098829212554Z" transform="rotate(-11.25)"/><path d="M60.85806194501846,-60.85806194501845A86.06629658238704,86.06629658238704,0,0,1,79.51488985151349,-32.93614578709967L39.757444925756744,-16.468072893549834A43.03314829119352,43.03314829119352,0,0,0,30.42903097250923,-30.429030972509224Z" transform="rotate(-11.25)"/><path d="M79.51488985151349,-32.93614578709967A86.06629658238704,86.06629658238704,0,0,1,86.06629658238704,0L38.49001794597505,0A38.49001794597505,38.49001794597505,0,0,0,35.56013978627846,-14.729492179359633Z" transform="rotate(-11.25)"/><path d="M86.06629658238704,0A86.06629658238704,86.06629658238704,0,0,1,79.51488985151349,32.93614578709967L35.56013978627846,14.729492179359633A38.49001794597505,38.49001794597505,0,0,0,38.49001794597505,0Z" transform="rotate(-11.25)"/><path d="M68.86191459053214,28.523538954376125A74.53559924999298,74.53559924999298,0,0,1,52.70462766947299,52.70462766947298L23.57022603955159,23.570226039551585A33.333333333333336,33.333333333333336,0,0,0,30.795984417042895,12.75611441216966Z" transform="rotate(-11.25)"/><path d="M59.317101400173954,59.31710140017394A83.8870492807861,83.8870492807861,0,0,1,32.10218394975067,77.50152787328393L14.729492179359637,35.56013978627846A38.49001794597505,38.49001794597505,0,0,0,27.216552697590867,27.216552697590863Z" transform="rotate(-11.25)"/><path d="M33.7495064300878,81.47851614691594A88.19171036881968,88.19171036881968,0,0,1,5.400184790725273e-15,88.19171036881968L2.356833863833126e-15,38.49001794597505A38.49001794597505,38.49001794597505,0,0,0,14.729492179359637,35.56013978627846Z" transform="rotate(-11.25)"/><path d="M6.2355962851979186e-15,101.8350154434631A101.8350154434631,101.8350154434631,0,0,1,-38.97057324485638,94.08328646118636L-18.039870004873233,43.552098829212554A47.14045207910317,47.14045207910317,0,0,0,2.8865201874516446e-15,47.14045207910317Z" transform="rotate(-11.25)"/><path d="M-36.079740009746466,87.10419765842511A94.28090415820634,94.28090415820634,0,0,1,-66.66666666666666,66.66666666666667L-27.216552697590863,27.216552697590867A38.49001794597505,38.49001794597505,0,0,0,-14.729492179359632,35.56013978627846Z" transform="rotate(-11.25)"/><path d="M-72.00822998230954,72.00822998230956A101.8350154434631,101.8350154434631,0,0,1,-94.08328646118633,38.97057324485644L-39.75744492575674,16.468072893549856A43.03314829119352,43.03314829119352,0,0,0,-30.429030972509224,30.42903097250923Z" transform="rotate(-11.25)"/><path d="M-97.38545354490823,40.33837563615606A105.40925533894597,105.40925533894597,0,0,1,-105.40925533894597,1.2908910715134624e-14L-47.14045207910317,5.773040374903289e-15A47.14045207910317,47.14045207910317,0,0,0,-43.55209882921254,18.039870004873258Z" transform="rotate(-11.25)"/><path d="M-103.63754503432015,1.2691938779776985e-14A103.63754503432015,103.63754503432015,0,0,1,-95.74860665692512,-39.66037145562523L-43.55209882921255,-18.039870004873247A47.14045207910317,47.14045207910317,0,0,0,-47.14045207910317,5.773040374903289e-15Z" transform="rotate(-11.25)"/><path d="M-98.99523951964761,-41.00517081941108A107.15167512214394,107.15167512214394,0,0,1,-75.76767609436581,-75.76767609436591L-30.429030972509207,-30.42903097250925A43.03314829119352,43.03314829119352,0,0,0,-39.757444925756744,-16.468072893549845Z" transform="rotate(-11.25)"/><path d="M-70.71067811865476,-70.71067811865474A99.99999999999999,99.99999999999999,0,0,1,-38.268343236509025,-92.38795325112864L-14.729492179359655,-35.560139786278455A38.49001794597505,38.49001794597505,0,0,0,-27.21655269759087,-27.216552697590863Z" transform="rotate(-11.25)"/><path d="M-22.094238269039483,-53.34020967941769A57.735026918962575,57.735026918962575,0,0,1,-1.0605752387249068e-14,-57.735026918962575L-3.535250795749689e-15,-19.245008972987524A19.245008972987524,19.245008972987524,0,0,0,-7.364746089679827,-17.780069893139228Z" transform="rotate(-11.25)"/></g><g fill="rgb(200, 234, 228)"><path d="M6.454455357567312e-15,-105.40925533894597A105.40925533894597,105.40925533894597,0,0,1,40.338375636156016,-97.38545354490826L33.7495064300878,-81.47851614691594A88.19171036881968,88.19171036881968,0,0,0,5.400184790725273e-15,-88.19171036881968Z" transform="rotate(-11.25)"/><path d="M44.79800155946473,-108.1519429320708A117.06281947614154,117.06281947614154,0,0,1,82.77591347639634,-82.77591347639633L66.66666666666667,-66.66666666666666A94.28090415820634,94.28090415820634,0,0,0,36.07974000974647,-87.10419765842511Z" transform="rotate(-11.25)"/><path d="M81.64965809277261,-81.6496580927726A115.47005383792515,115.47005383792515,0,0,1,106.6804193588354,-44.1884765380789L79.51488985151349,-32.93614578709967A86.06629658238704,86.06629658238704,0,0,0,60.85806194501846,-60.85806194501845Z" transform="rotate(-11.25)"/><path d="M95.74860665692513,-39.6603714556252A103.63754503432015,103.63754503432015,0,0,1,103.63754503432015,0L86.06629658238704,0A86.06629658238704,86.06629658238704,0,0,0,79.51488985151349,-32.93614578709967Z" transform="rotate(-11.25)"/><path d="M105.40925533894597,0A105.40925533894597,105.40925533894597,0,0,1,97.38545354490826,40.33837563615601L79.51488985151349,32.93614578709967A86.06629658238704,86.06629658238704,0,0,0,86.06629658238704,0Z" transform="rotate(-11.25)"/><path d="M81.47851614691594,33.7495064300878A88.19171036881968,88.19171036881968,0,0,1,62.36095644623236,62.36095644623235L52.70462766947299,52.70462766947298A74.53559924999298,74.53559924999298,0,0,0,68.86191459053214,28.523538954376125Z" transform="rotate(-11.25)"/><path d="M68.04138174397717,68.04138174397715A96.22504486493762,96.22504486493762,0,0,1,36.82373044839909,88.90034946569615L32.10218394975067,77.50152787328393A83.8870492807861,83.8870492807861,0,0,0,59.317101400173954,59.31710140017394Z" transform="rotate(-11.25)"/><path d="M40.338375636156016,97.38545354490826A105.40925533894597,105.40925533894597,0,0,1,6.454455357567312e-15,105.40925533894597L5.400184790725273e-15,88.19171036881968A88.19171036881968,88.19171036881968,0,0,0,33.7495064300878,81.47851614691594Z" transform="rotate(-11.25)"/><path d="M7.637014570364596e-15,124.72191289246472A124.72191289246472,124.72191289246472,0,0,1,-47.72900971682813,115.22802257700373L-38.97057324485638,94.08328646118636A101.8350154434631,101.8350154434631,0,0,0,6.2355962851979186e-15,101.8350154434631Z" transform="rotate(-11.25)"/><path d="M-47.157384189367626,113.8479964760099A123.22818340454907,123.22818340454907,0,0,1,-87.13548411865622,87.13548411865624L-66.66666666666666,66.66666666666667A94.28090415820634,94.28090415820634,0,0,0,-36.079740009746466,87.10419765842511Z" transform="rotate(-11.25)"/><path d="M-93.29364235414812,93.29364235414813A131.9371343004213,131.9371343004213,0,0,1,-121.89401795835205,50.490155410499106L-94.08328646118633,38.97057324485644A101.8350154434631,101.8350154434631,0,0,0,-72.00822998230954,72.00822998230956Z" transform="rotate(-11.25)"/><path d="M-128.21390736209403,53.10793931422705A138.77773329774217,138.77773329774217,0,0,1,-138.77773329774217,1.6995370687600502e-14L-105.40925533894597,1.2908910715134624e-14A105.40925533894597,105.40925533894597,0,0,0,-97.38545354490823,40.33837563615606Z" transform="rotate(-11.25)"/><path d="M-131.93713430042132,1.6157638920968544e-14A131.93713430042132,131.93713430042132,0,0,1,-121.8940179583521,-50.490155410499085L-95.74860665692512,-39.66037145562523A103.63754503432015,103.63754503432015,0,0,0,-103.63754503432015,1.2691938779776985e-14Z" transform="rotate(-11.25)"/><path d="M-123.18393766817155,-51.02445764867868A133.33333333333334,133.33333333333334,0,0,1,-94.28090415820627,-94.28090415820641L-75.76767609436581,-75.76767609436591A107.15167512214394,107.15167512214394,0,0,0,-98.99523951964761,-41.00517081941108Z" transform="rotate(-11.25)"/><path d="M-91.2870929175277,-91.28709291752767A129.09944487358055,129.09944487358055,0,0,1,-49.40421868064957,-119.2723347772702L-38.268343236509025,-92.38795325112864A99.99999999999999,99.99999999999999,0,0,0,-70.71067811865476,-70.71067811865474Z" transform="rotate(-11.25)"/><path d="M-30.365626033604567,-73.30910620027755A79.34920476158722,79.34920476158722,0,0,1,-1.4576212443924854e-14,-79.34920476158722L-1.0605752387249068e-14,-57.735026918962575A57.735026918962575,57.735026918962575,0,0,0,-22.094238269039483,-53.34020967941769Z" transform="rotate(-11.25)"/></g><g fill="rgb(153, 216, 200)"><path d="M7.359211381097719e-15,-120.18504251546631A120.18504251546631,120.18504251546631,0,0,1,45.9928245887629,-111.03650089403813L40.338375636156016,-97.38545354490826A105.40925533894597,105.40925533894597,0,0,0,6.454455357567312e-15,-105.40925533894597Z" transform="rotate(-11.25)"/><path d="M49.40421868064951,-119.27233477727023A129.09944487358055,129.09944487358055,0,0,1,91.28709291752769,-91.28709291752767L82.77591347639634,-82.77591347639633A117.06281947614154,117.06281947614154,0,0,0,44.79800155946473,-108.1519429320708Z" transform="rotate(-11.25)"/><path d="M94.28090415820635,-94.28090415820634A133.33333333333334,133.33333333333334,0,0,1,123.18393766817158,-51.02445764867864L106.6804193588354,-44.1884765380789A115.47005383792515,115.47005383792515,0,0,0,81.64965809277261,-81.6496580927726Z" transform="rotate(-11.25)"/><path d="M111.03650089403813,-45.99282458876289A120.18504251546631,120.18504251546631,0,0,1,120.18504251546631,0L103.63754503432015,0A103.63754503432015,103.63754503432015,0,0,0,95.74860665692513,-39.6603714556252Z" transform="rotate(-11.25)"/><path d="M118.6342028003479,0A118.6342028003479,118.6342028003479,0,0,1,109.6037118230346,45.39934392353328L97.38545354490826,40.33837563615601A105.40925533894597,105.40925533894597,0,0,0,105.40925533894597,0Z" transform="rotate(-11.25)"/><path d="M88.90034946569615,36.82373044839908A96.22504486493762,96.22504486493762,0,0,1,68.04138174397717,68.04138174397715L62.36095644623236,62.36095644623235A88.19171036881968,88.19171036881968,0,0,0,81.47851614691594,33.7495064300878Z" transform="rotate(-11.25)"/><path d="M74.53559924999298,74.53559924999297A105.40925533894597,105.40925533894597,0,0,1,40.338375636156016,97.38545354490826L36.82373044839909,88.90034946569615A96.22504486493762,96.22504486493762,0,0,0,68.04138174397717,68.04138174397715Z" transform="rotate(-11.25)"/><path d="M43.57042544881673,105.18831203689916A113.8550085106622,113.8550085106622,0,0,1,6.971608586973856e-15,113.8550085106622L6.454455357567312e-15,105.40925533894597A105.40925533894597,105.40925533894597,0,0,0,40.338375636156016,97.38545354490826Z" transform="rotate(-11.25)"/><path d="M8.33266603623248e-15,136.08276348795434A136.08276348795434,136.08276348795434,0,0,1,-52.07661901729708,125.72407991409526L-47.72900971682813,115.22802257700373A124.72191289246472,124.72191289246472,0,0,0,7.637014570364596e-15,124.72191289246472Z" transform="rotate(-11.25)"/><path d="M-52.07661901729708,125.72407991409526A136.08276348795434,136.08276348795434,0,0,1,-96.22504486493762,96.22504486493763L-87.13548411865622,87.13548411865624A123.22818340454907,123.22818340454907,0,0,0,-47.157384189367626,113.8479964760099Z" transform="rotate(-11.25)"/><path d="M-105.40925533894595,105.40925533894598A149.07119849998597,149.07119849998597,0,0,1,-137.72382918106422,57.04707790875233L-121.89401795835205,50.490155410499106A131.9371343004213,131.9371343004213,0,0,0,-93.29364235414812,93.29364235414813Z" transform="rotate(-11.25)"/><path d="M-141.12492969177953,58.455859867284666A152.75252316519467,152.75252316519467,0,0,1,-152.75252316519467,1.8706788855593758e-14L-138.77773329774217,1.6995370687600502e-14A138.77773329774217,138.77773329774217,0,0,0,-128.21390736209403,53.10793931422705Z" transform="rotate(-11.25)"/><path d="M-147.82371884055632,1.810318441161456e-14A147.82371884055632,147.82371884055632,0,0,1,-136.57130825649304,-56.56968811087612L-121.8940179583521,-50.490155410499085A131.93713430042132,131.93713430042132,0,0,0,-131.93713430042132,1.6157638920968544e-14Z" transform="rotate(-11.25)"/><path d="M-137.72382918106425,-57.04707790875229A149.07119849998597,149.07119849998597,0,0,1,-105.4092553389459,-105.40925533894604L-94.28090415820627,-94.28090415820641A133.33333333333334,133.33333333333334,0,0,0,-123.18393766817155,-51.02445764867868Z" transform="rotate(-11.25)"/><path d="M-103.63754503432018,-103.63754503432015A146.56562175858798,146.56562175858798,0,0,1,-56.088235201300016,-135.4089781125503L-49.40421868064957,-119.2723347772702A129.09944487358055,129.09944487358055,0,0,0,-91.2870929175277,-91.28709291752767Z" transform="rotate(-11.25)"/><path d="M-38.26834323650903,-92.38795325112865A100,100,0,0,1,-1.8369701987210297e-14,-100L-1.4576212443924854e-14,-79.34920476158722A79.34920476158722,79.34920476158722,0,0,0,-30.365626033604567,-73.30910620027755Z" transform="rotate(-11.25)"/></g><g fill="rgb(104, 194, 163)"><path d="M7.727396587039439e-15,-126.19796324000608A126.19796324000608,126.19796324000608,0,0,1,48.29386973016896,-116.59171528205336L45.9928245887629,-111.03650089403813A120.18504251546631,120.18504251546631,0,0,0,7.359211381097719e-15,-120.18504251546631Z" transform="rotate(-11.25)"/><path d="M52.07661901729709,-125.72407991409526A136.08276348795434,136.08276348795434,0,0,1,96.22504486493763,-96.22504486493762L91.28709291752769,-91.28709291752767A129.09944487358055,129.09944487358055,0,0,0,49.40421868064951,-119.27233477727023Z" transform="rotate(-11.25)"/><path d="M105.40925533894598,-105.40925533894595A149.07119849998597,149.07119849998597,0,0,1,137.72382918106427,-57.04707790875225L123.18393766817158,-51.02445764867864A133.33333333333334,133.33333333333334,0,0,0,94.28090415820635,-94.28090415820634Z" transform="rotate(-11.25)"/><path d="M117.93964116367454,-48.85219891141015A127.65694770084508,127.65694770084508,0,0,1,127.65694770084508,0L120.18504251546631,0A120.18504251546631,120.18504251546631,0,0,0,111.03650089403813,-45.99282458876289Z" transform="rotate(-11.25)"/><path d="M124.72191289246472,0A124.72191289246472,124.72191289246472,0,0,1,115.22802257700373,47.72900971682814L109.6037118230346,45.39934392353328A118.6342028003479,118.6342028003479,0,0,0,118.6342028003479,0Z" transform="rotate(-11.25)"/><path d="M92.38795325112868,38.268343236508976A100,100,0,0,1,70.71067811865476,70.71067811865474L68.04138174397717,68.04138174397715A96.22504486493762,96.22504486493762,0,0,0,88.90034946569615,36.82373044839908Z" transform="rotate(-11.25)"/><path d="M79.34920476158723,79.34920476158722A112.21672153735642,112.21672153735642,0,0,1,42.943480166673055,103.6747322338821L40.338375636156016,97.38545354490826A105.40925533894597,105.40925533894597,0,0,0,74.53559924999298,74.53559924999297Z" transform="rotate(-11.25)"/><path d="M45.9928245887629,111.03650089403813A120.18504251546631,120.18504251546631,0,0,1,7.359211381097719e-15,120.18504251546631L6.971608586973856e-15,113.8550085106622A113.8550085106622,113.8550085106622,0,0,0,43.57042544881673,105.18831203689916Z" transform="rotate(-11.25)"/><path d="M8.896852731689775e-15,145.29663145135578A145.29663145135578,145.29663145135578,0,0,1,-55.602613634890275,134.2365839407433L-52.07661901729708,125.72407991409526A136.08276348795434,136.08276348795434,0,0,0,8.33266603623248e-15,136.08276348795434Z" transform="rotate(-11.25)"/><path d="M-55.11271321632997,133.05385970604274A144.01645996461912,144.01645996461912,0,0,1,-101.8350154434631,101.83501544346312L-96.22504486493762,96.22504486493763A136.08276348795434,136.08276348795434,0,0,0,-52.07661901729708,125.72407991409526Z" transform="rotate(-11.25)"/><path d="M-111.38854253201899,111.388542532019A157.5271875417536,157.5271875417536,0,0,1,-145.53614438389306,60.28304481929755L-137.72382918106422,57.04707790875233A149.07119849998597,149.07119849998597,0,0,0,-105.40925533894595,105.40925533894598Z" transform="rotate(-11.25)"/><path d="M-149.81753189713493,62.05645359305715A162.16132799251582,162.16132799251582,0,0,1,-162.16132799251582,1.985903512715186e-14L-152.75252316519467,1.8706788855593758e-14A152.75252316519467,152.75252316519467,0,0,0,-141.12492969177953,58.455859867284666Z" transform="rotate(-11.25)"/><path d="M-158.69840952317443,1.943494992523314e-14A158.69840952317443,158.69840952317443,0,0,1,-146.6182124005551,-60.731252067209084L-136.57130825649304,-56.56968811087612A147.82371884055632,147.82371884055632,0,0,0,-147.82371884055632,1.810318441161456e-14Z" transform="rotate(-11.25)"/><path d="M-148.75873748571587,-61.6178865880825A161.01529717988265,161.01529717988265,0,0,1,-113.85500851066212,-113.85500851066229L-105.4092553389459,-105.40925533894604A149.07119849998597,149.07119849998597,0,0,0,-137.72382918106425,-57.04707790875229Z" transform="rotate(-11.25)"/><path d="M-112.21672153735643,-112.2167215373564A158.69840952317443,158.69840952317443,0,0,1,-60.731252067209134,-146.6182124005551L-56.088235201300016,-135.4089781125503A146.56562175858798,146.56562175858798,0,0,0,-103.63754503432018,-103.63754503432015Z" transform="rotate(-11.25)"/><path d="M-42.94348016667311,-103.67473223388207A112.21672153735642,112.21672153735642,0,0,1,-2.0613877326230006e-14,-112.21672153735642L-1.8369701987210297e-14,-100A100,100,0,0,0,-38.26834323650903,-92.38795325112865Z" transform="rotate(-11.25)"/></g><g fill="rgb(66, 172, 118)"><path d="M7.992412489960194e-15,-130.52600138300812A130.52600138300812,130.52600138300812,0,0,1,49.95013822214001,-120.59030113830111L48.29386973016896,-116.59171528205336A126.19796324000608,126.19796324000608,0,0,0,7.727396587039439e-15,-126.19796324000608Z" transform="rotate(-11.25)"/><path d="M53.61616083951807,-129.44086266114175A140.1057801435388,140.1057801435388,0,0,1,99.06974722292783,-99.06974722292782L96.22504486493763,-96.22504486493762A136.08276348795434,136.08276348795434,0,0,0,52.07661901729709,-125.72407991409526Z" transform="rotate(-11.25)"/><path d="M110.55415967851332,-110.5541596785133A156.3471919941143,156.3471919941143,0,0,1,144.4459706489747,-59.831480072951344L137.72382918106427,-57.04707790875225A149.07119849998597,149.07119849998597,0,0,0,105.40925533894598,-105.40925533894595Z" transform="rotate(-11.25)"/><path d="M120.59030113830111,-49.950138222140005A130.52600138300812,130.52600138300812,0,0,1,130.52600138300812,0L127.65694770084508,0A127.65694770084508,127.65694770084508,0,0,0,117.93964116367454,-48.85219891141015Z" transform="rotate(-11.25)"/><path d="M126.19796324000608,0A126.19796324000608,126.19796324000608,0,0,1,116.59171528205336,48.29386973016895L115.22802257700373,47.72900971682814A124.72191289246472,124.72191289246472,0,0,0,124.72191289246472,0Z" transform="rotate(-11.25)"/><path d="M94.08328646118636,38.97057324485639A101.8350154434631,101.8350154434631,0,0,1,72.00822998230956,72.00822998230954L70.71067811865476,70.71067811865474A100,100,0,0,0,92.38795325112868,38.268343236508976Z" transform="rotate(-11.25)"/><path d="M79.93052538854532,79.93052538854532A113.0388330520878,113.0388330520878,0,0,1,43.25808862291732,104.43426423578425L42.943480166673055,103.6747322338821A112.21672153735642,112.21672153735642,0,0,0,79.34920476158723,79.34920476158722Z" transform="rotate(-11.25)"/><path d="M46.57874406441383,112.45103563861316A121.71612389003691,121.71612389003691,0,0,1,7.45296307632782e-15,121.71612389003691L7.359211381097719e-15,120.18504251546631A120.18504251546631,120.18504251546631,0,0,0,45.9928245887629,111.03650089403813Z" transform="rotate(-11.25)"/><path d="M8.974555977584822e-15,146.56562175858798A146.56562175858798,146.56562175858798,0,0,1,-56.08823520129992,135.40897811255033L-55.602613634890275,134.2365839407433A145.29663145135578,145.29663145135578,0,0,0,8.896852731689775e-15,145.29663145135578Z" transform="rotate(-11.25)"/><path d="M-56.08823520129992,135.40897811255033A146.56562175858798,146.56562175858798,0,0,1,-103.63754503432015,103.63754503432017L-101.8350154434631,101.83501544346312A144.01645996461912,144.01645996461912,0,0,0,-55.11271321632997,133.05385970604274Z" transform="rotate(-11.25)"/><path d="M-113.85500851066217,113.85500851066219A161.01529717988262,161.01529717988262,0,0,1,-148.75873748571584,61.61788658808253L-145.53614438389306,60.28304481929755A157.5271875417536,157.5271875417536,0,0,0,-111.38854253201899,111.388542532019Z" transform="rotate(-11.25)"/><path d="M-153.97992208521444,63.780572060848385A166.66666666666669,166.66666666666669,0,0,1,-166.66666666666669,2.0410779985789223e-14L-162.16132799251582,1.985903512715186e-14A162.16132799251582,162.16132799251582,0,0,0,-149.81753189713493,62.05645359305715Z" transform="rotate(-11.25)"/><path d="M-168.8742683730074,2.068113322213546e-14A168.8742683730074,168.8742683730074,0,0,1,-156.01948011763963,-64.62538465912584L-146.6182124005551,-60.731252067209084A158.69840952317443,158.69840952317443,0,0,0,-158.69840952317443,1.943494992523314e-14Z" transform="rotate(-11.25)"/><path d="M-158.0327179636811,-65.45929507923901A171.05338131489614,171.05338131489614,0,0,1,-120.95300587265126,-120.95300587265143L-113.85500851066212,-113.85500851066229A161.01529717988265,161.01529717988265,0,0,0,-148.75873748571587,-61.6178865880825Z" transform="rotate(-11.25)"/><path d="M-119.41214033447045,-119.41214033447041A168.87426837300737,168.87426837300737,0,0,1,-64.62538465912588,-156.01948011763957L-60.731252067209134,-146.6182124005551A158.69840952317443,158.69840952317443,0,0,0,-112.21672153735643,-112.2167215373564Z" transform="rotate(-11.25)"/><path d="M-44.798001559464794,-108.15194293207077A117.06281947614154,117.06281947614154,0,0,1,-2.1504091075593175e-14,-117.06281947614154L-2.0613877326230006e-14,-112.21672153735642A112.21672153735642,112.21672153735642,0,0,0,-42.94348016667311,-103.67473223388207Z" transform="rotate(-11.25)"/></g><g fill="rgb(34, 140, 73)"><path d="M8.164311994315689e-15,-133.33333333333334A133.33333333333334,133.33333333333334,0,0,1,51.02445764867865,-123.18393766817158L49.95013822214001,-120.59030113830111A130.52600138300812,130.52600138300812,0,0,0,7.992412489960194e-15,-130.52600138300812Z" transform="rotate(-11.25)"/><path d="M54.119610014619695,-130.65629648763763A141.42135623730948,141.42135623730948,0,0,1,99.99999999999999,-99.99999999999997L99.06974722292783,-99.06974722292782A140.1057801435388,140.1057801435388,0,0,0,53.61616083951807,-129.44086266114175Z" transform="rotate(-11.25)"/><path d="M111.388542532019,-111.38854253201899A157.5271875417536,157.5271875417536,0,0,1,145.5361443838931,-60.28304481929747L144.4459706489747,-59.831480072951344A156.3471919941143,156.3471919941143,0,0,0,110.55415967851332,-110.5541596785133Z" transform="rotate(-11.25)"/><path d="M121.89401795835211,-50.49015541049905A131.93713430042132,131.93713430042132,0,0,1,131.93713430042132,0L130.52600138300812,0A130.52600138300812,130.52600138300812,0,0,0,120.59030113830111,-49.950138222140005Z" transform="rotate(-11.25)"/><path d="M127.65694770084507,0A127.65694770084507,127.65694770084507,0,0,1,117.93964116367452,48.85219891141015L116.59171528205336,48.29386973016895A126.19796324000608,126.19796324000608,0,0,0,126.19796324000608,0Z" transform="rotate(-11.25)"/><path d="M95.74860665692516,39.66037145562522A103.63754503432018,103.63754503432018,0,0,1,73.28281087929402,73.282810879294L72.00822998230956,72.00822998230954A101.8350154434631,101.8350154434631,0,0,0,94.08328646118636,38.97057324485639Z" transform="rotate(-11.25)"/><path d="M80.50764858994133,80.50764858994131A113.85500851066219,113.85500851066219,0,0,1,43.57042544881672,105.18831203689915L43.25808862291732,104.43426423578425A113.0388330520878,113.0388330520878,0,0,0,79.93052538854532,79.93052538854532Z" transform="rotate(-11.25)"/><path d="M46.868957115567376,113.15167192268572A122.4744871391589,122.4744871391589,0,0,1,7.49939943260923e-15,122.4744871391589L7.45296307632782e-15,121.71612389003691A121.71612389003691,121.71612389003691,0,0,0,46.57874406441383,112.45103563861316Z" transform="rotate(-11.25)"/><path d="M9.05159220580728e-15,147.82371884055632A147.82371884055632,147.82371884055632,0,0,1,-56.56968811087608,136.57130825649307L-56.08823520129992,135.40897811255033A146.56562175858798,146.56562175858798,0,0,0,8.974555977584822e-15,146.56562175858798Z" transform="rotate(-11.25)"/><path d="M-56.32947603590031,135.9913850072408A147.19601443879745,147.19601443879745,0,0,1,-104.08329997330662,104.08329997330664L-103.63754503432015,103.63754503432017A146.56562175858798,146.56562175858798,0,0,0,-56.08823520129992,135.40897811255033Z" transform="rotate(-11.25)"/><path d="M-115.47005383792514,115.47005383792515A163.2993161855452,163.2993161855452,0,0,1,-150.86889589691427,62.49194282075658L-148.75873748571584,61.61788658808253A161.01529717988262,161.01529717988262,0,0,0,-113.85500851066217,113.85500851066219Z" transform="rotate(-11.25)"/><path d="M-156.0194801176396,64.62538465912588A168.8742683730074,168.8742683730074,0,0,1,-168.8742683730074,2.068113322213546e-14L-166.66666666666669,2.0410779985789223e-14A166.66666666666669,166.66666666666669,0,0,0,-153.97992208521444,63.780572060848385Z" transform="rotate(-11.25)"/><path d="M-173.20508075688775,2.121150477449814e-14A173.20508075688775,173.20508075688775,0,0,1,-160.0206290382531,-66.28271480711841L-156.01948011763963,-64.62538465912584A168.8742683730074,168.8742683730074,0,0,0,-168.8742683730074,2.068113322213546e-14Z" transform="rotate(-11.25)"/><path d="M-164.8855850122223,-68.29784555188446A178.4708711578779,178.4708711578779,0,0,1,-126.19796324000599,-126.19796324000617L-120.95300587265126,-120.95300587265143A171.05338131489614,171.05338131489614,0,0,0,-158.0327179636811,-65.45929507923901Z" transform="rotate(-11.25)"/><path d="M-124.72191289246474,-124.7219128924647A176.38342073763937,176.38342073763937,0,0,1,-67.49901286017568,-162.95703229383182L-64.62538465912588,-156.01948011763957A168.87426837300737,168.87426837300737,0,0,0,-119.41214033447045,-119.41214033447041Z" transform="rotate(-11.25)"/><path d="M-47.157384189367704,-113.84799647600988A123.22818340454909,123.22818340454909,0,0,1,-2.2636650055668604e-14,-123.22818340454909L-2.1504091075593175e-14,-117.06281947614154A117.06281947614154,117.06281947614154,0,0,0,-44.798001559464794,-108.15194293207077Z" transform="rotate(-11.25)"/></g><g fill="rgb(6, 107, 45)"><path d="M8.248918523415943e-15,-134.71506281091268A134.71506281091268,134.71506281091268,0,0,1,51.553222627758736,-124.46048925197464L51.02445764867865,-123.18393766817158A133.33333333333334,133.33333333333334,0,0,0,8.164311994315689e-15,-133.33333333333334Z" transform="rotate(-11.25)"/><path d="M54.61841880812717,-131.8605274419543A142.72480642961253,142.72480642961253,0,0,1,100.92167846991639,-100.92167846991637L99.99999999999999,-99.99999999999997A141.42135623730948,141.42135623730948,0,0,0,54.119610014619695,-130.65629648763763Z" transform="rotate(-11.25)"/><path d="M112.21672153735642,-112.2167215373564A158.69840952317443,158.69840952317443,0,0,1,146.61821240055514,-60.73125206720904L145.5361443838931,-60.28304481929747A157.5271875417536,157.5271875417536,0,0,0,111.388542532019,-111.38854253201899Z" transform="rotate(-11.25)"/><path d="M123.18393766817158,-51.02445764867864A133.33333333333334,133.33333333333334,0,0,1,133.33333333333334,0L131.93713430042132,0A131.93713430042132,131.93713430042132,0,0,0,121.89401795835211,-50.49015541049905Z" transform="rotate(-11.25)"/><path d="M129.09944487358055,0A129.09944487358055,129.09944487358055,0,0,1,119.27233477727023,49.4042186806495L117.93964116367452,48.85219891141015A127.65694770084507,127.65694770084507,0,0,0,127.65694770084507,0Z" transform="rotate(-11.25)"/><path d="M96.57049818368458,40.0008100728085A104.52715401237099,104.52715401237099,0,0,1,73.91185942027816,73.91185942027816L73.28281087929402,73.282810879294A103.63754503432018,103.63754503432018,0,0,0,95.74860665692516,39.66037145562522Z" transform="rotate(-11.25)"/><path d="M81.08066399625791,81.0806639962579A114.66537466972383,114.66537466972383,0,0,1,43.88053915203894,105.93699274509599L43.57042544881672,105.18831203689915A113.85500851066219,113.85500851066219,0,0,0,80.50764858994133,80.50764858994131Z" transform="rotate(-11.25)"/><path d="M47.15738418936764,113.8479964760099A123.22818340454907,123.22818340454907,0,0,1,7.545550018556201e-15,123.22818340454907L7.49939943260923e-15,122.4744871391589A122.4744871391589,122.4744871391589,0,0,0,46.868957115567376,113.15167192268572Z" transform="rotate(-11.25)"/><path d="M9.08986549366628e-15,148.4487690654154A148.4487690654154,148.4487690654154,0,0,1,-56.80888447632572,137.14877936603196L-56.56968811087608,136.57130825649307A147.82371884055632,147.82371884055632,0,0,0,9.05159220580728e-15,147.82371884055632Z" transform="rotate(-11.25)"/><path d="M-56.80888447632572,137.14877936603196A148.4487690654154,148.4487690654154,0,0,1,-104.969131264951,104.96913126495102L-104.08329997330662,104.08329997330664A147.19601443879745,147.19601443879745,0,0,0,-56.32947603590031,135.9913850072408Z" transform="rotate(-11.25)"/><path d="M-116.26916409142414,116.26916409142416A164.4294287438749,164.4294287438749,0,0,1,-151.91298375898904,62.92441817353708L-150.86889589691427,62.49194282075658A163.2993161855452,163.2993161855452,0,0,0,-115.47005383792514,115.47005383792515Z" transform="rotate(-11.25)"/><path d="M-157.02932548280097,65.04367630527533A169.96731711975949,169.96731711975949,0,0,1,-169.96731711975949,2.0814993087037657e-14L-168.8742683730074,2.068113322213546e-14A168.8742683730074,168.8742683730074,0,0,0,-156.0194801176396,64.62538465912588Z" transform="rotate(-11.25)"/><path d="M-182.57418583505537,2.235888922898346e-14A182.57418583505537,182.57418583505537,0,0,1,-168.67655345791974,-69.8681160966208L-160.0206290382531,-66.28271480711841A173.20508075688775,173.20508075688775,0,0,0,-173.20508075688775,2.121150477449814e-14Z" transform="rotate(-11.25)"/><path d="M-184.77590650225733,-76.53668647301801A200,200,0,0,1,-141.4213562373094,-141.4213562373096L-126.19796324000599,-126.19796324000617A178.4708711578779,178.4708711578779,0,0,0,-164.8855850122223,-68.29784555188446Z" transform="rotate(-11.25)"/><path d="M-135.40064007726605,-135.400640077266A191.48542155126762,191.48542155126762,0,0,1,-73.27829836711534,-176.90946174551175L-67.49901286017568,-162.95703229383182A176.38342073763937,176.38342073763937,0,0,0,-124.72191289246474,-124.7219128924647Z" transform="rotate(-11.25)"/><path d="M-48.29386973016903,-116.59171528205334A126.19796324000609,126.19796324000609,0,0,1,-2.318218976111832e-14,-126.19796324000609L-2.2636650055668604e-14,-123.22818340454909A123.22818340454909,123.22818340454909,0,0,0,-47.157384189367704,-113.84799647600988Z" transform="rotate(-11.25)"/></g><g><g text-anchor="middle" transform="rotate(-90) translate(230 ,0)"><text transform="rotate(90) translate(0,16)" style="font-size: 14px;">N</text></g><g text-anchor="middle" transform="rotate(-67.5) translate(230 ,0)"><text transform="rotate(90) translate(0,16)" style="font-size: 14px;">NNE</text></g><g text-anchor="middle" transform="rotate(-45) translate(230 ,0)"><text transform="rotate(90) translate(0,16)" style="font-size: 14px;">NE</text></g><g text-anchor="middle" transform="rotate(-22.5) translate(230 ,0)"><text transform="rotate(90) translate(0,16)" style="font-size: 14px;">ENE</text></g><g text-anchor="middle" transform="rotate(-1.4210854715202004e-14) translate(230 ,0)"><text transform="rotate(-90) translate(0,-9)" style="font-size: 14px;">E</text></g><g text-anchor="middle" transform="rotate(22.499999999999986) translate(230 ,0)"><text transform="rotate(-90) translate(0,-9)" style="font-size: 14px;">ESE</text></g><g text-anchor="middle" transform="rotate(45.00000000000003) translate(230 ,0)"><text transform="rotate(-90) translate(0,-9)" style="font-size: 14px;">SE</text></g><g text-anchor="middle" transform="rotate(67.49999999999997) translate(230 ,0)"><text transform="rotate(-90) translate(0,-9)" style="font-size: 14px;">SSE</text></g><g text-anchor="middle" transform="rotate(90.00000000000003) translate(230 ,0)"><text transform="rotate(-90) translate(0,-9)" style="font-size: 14px;">S</text></g><g text-anchor="middle" transform="rotate(112.49999999999997) translate(230 ,0)"><text transform="rotate(-90) translate(0,-9)" style="font-size: 14px;">SSW</text></g><g text-anchor="middle" transform="rotate(135.00000000000003) translate(230 ,0)"><text transform="rotate(-90) translate(0,-9)" style="font-size: 14px;">SW</text></g><g text-anchor="middle" transform="rotate(157.5) translate(230 ,0)"><text transform="rotate(-90) translate(0,-9)" style="font-size: 14px;">WSW</text></g><g text-anchor="middle" transform="rotate(180) translate(230 ,0)"><text transform="rotate(90) translate(0,16)" style="font-size: 14px;">W</text></g><g text-anchor="middle" transform="rotate(202.5) translate(230 ,0)"><text transform="rotate(90) translate(0,16)" style="font-size: 14px;">WNW</text></g><g text-anchor="middle" transform="rotate(225) translate(230 ,0)"><text transform="rotate(90) translate(0,16)" style="font-size: 14px;">NW</text></g><g text-anchor="middle" transform="rotate(247.5) translate(230 ,0)"><text transform="rotate(90) translate(0,16)" style="font-size: 14px;">NNW</text></g></g><g class="axis" transform="rotate(0)" fill="none" font-size="10" font-family="sans-serif" text-anchor="end"><path class="domain" stroke="currentColor" d="M-6,0H0V200H-6"/></g><g class="axis" transform="rotate(22.5)" fill="none" font-size="10" font-family="sans-serif" text-anchor="end"><path class="domain" stroke="currentColor" d="M-6,0H0V200H-6"/></g><g class="axis" transform="rotate(45)" fill="none" font-size="10" font-family="sans-serif" text-anchor="end"><path class="domain" stroke="currentColor" d="M-6,0H0V200H-6"/></g><g class="axis" transform="rotate(67.5)" fill="none" font-size="10" font-family="sans-serif" text-anchor="end"><path class="domain" stroke="currentColor" d="M-6,0H0V200H-6"/></g><g class="axis" transform="rotate(90)" fill="none" font-size="10" font-family="sans-serif" text-anchor="end"><path class="domain" stroke="currentColor" d="M-6,0H0V200H-6"/></g><g class="axis" transform="rotate(112.5)" fill="none" font-size="10" font-family="sans-serif" text-anchor="end"><path class="domain" stroke="currentColor" d="M-6,0H0V200H-6"/></g><g class="axis" transform="rotate(135)" fill="none" font-size="10" font-family="sans-serif" text-anchor="end"><path class="domain" stroke="currentColor" d="M-6,0H0V200H-6"/></g><g class="axis" transform="rotate(157.5)" fill="none" font-size="10" font-family="sans-serif" text-anchor="end"><path class="domain" stroke="currentColor" d="M-6,0H0V200H-6"/></g><g class="axis" transform="rotate(180)" fill="none" font-size="10" font-family="sans-serif" text-anchor="end"><path class="domain" stroke="currentColor" d="M-6,0H0V200H-6"/></g><g class="axis" transform="rotate(202.49999999999997)" fill="none" font-size="10" font-family="sans-serif" text-anchor="end"><path class="domain" stroke="currentColor" d="M-6,0H0V200H-6"/></g><g class="axis" transform="rotate(225)" fill="none" font-size="10" font-family="sans-serif" text-anchor="end"><path class="domain" stroke="currentColor" d="M-6,0H0V200H-6"/></g><g class="axis" transform="rotate(247.49999999999997)" fill="none" font-size="10" font-family="sans-serif" text-anchor="end"><path class="domain" stroke="currentColor" d="M-6,0H0V200H-6"/></g><g class="axis" transform="rotate(270)" fill="none" font-size="10" font-family="sans-serif" text-anchor="end"><path class="domain" stroke="currentColor" d="M-6,0H0V200H-6"/></g><g class="axis" transform="rotate(292.50000000000006)" fill="none" font-size="10" font-family="sans-serif" text-anchor="end"><path class="domain" stroke="currentColor" d="M-6,0H0V200H-6"/></g><g class="axis" transform="rotate(315)" fill="none" font-size="10" font-family="sans-serif" text-anchor="end"><path class="domain" stroke="currentColor" d="M-6,0H0V200H-6"/></g><g class="axis" transform="rotate(337.49999999999994)" fill="none" font-size="10" font-family="sans-serif" text-anchor="end"><path class="domain" stroke="currentColor" d="M-6,0H0V200H-6"/></g><g text-anchor="middle"><g><circle fill="none" stroke="gray" stroke-dasharray="4,4" r="86.06629658238704"/><text y="-86.06629658238704" dy="-0.35em" x="-10" style="font-size: 14px;">2</text></g><g><circle fill="none" stroke="gray" stroke-dasharray="4,4" r="121.71612389003691"/><text y="-121.71612389003691" dy="-0.35em" x="-10" style="font-size: 14px;">4</text></g><g><circle fill="none" stroke="gray" stroke-dasharray="4,4" r="149.07119849998597"/><text y="-149.07119849998597" dy="-0.35em" x="-10" style="font-size: 14px;">6</text></g><g><circle fill="none" stroke="gray" stroke-dasharray="4,4" r="172.13259316477408"/><text y="-172.13259316477408" dy="-0.35em" x="-10" style="font-size: 14px;">8</text></g><g><circle fill="none" stroke="gray" stroke-dasharray="4,4" r="192.45008972987523"/><text y="-192.45008972987523" dy="-0.35em" x="-10" style="font-size: 14px;">10</text></g></g></g></svg>