<svg xmlns="http://www.w3.org/2000/svg" width="212" height="200" class="marks"><g fill="none" stroke-miterlimit="10" aria-roledescription="group mark container" class="mark-group role-frame root"><path d="M12 0h200v200H12Z" aria-hidden="true" class="background"/><g fill="#ccc" stroke="#fff" aria-roledescription="arc mark container" class="mark-arc role-mark"><path d="M112 41.569a58.431 58.431 0 0 1 26.681 6.448l-17.548 34.19A20 20 0 0 0 112 80Z"/><path d="M145.428 34.873a73.205 73.205 0 0 1 38.491 51.467l-52.27 9.928a20 20 0 0 0-10.516-14.061Z"/><path d="M206.369 82.075a96.057 96.057 0 0 1-103.843 113.513l7.501-75.686a20 20 0 0 0 21.622-23.634Z"/><path d="M107.347 146.945a47.175 47.175 0 0 1-10.896-2.407l8.957-25.656a20 20 0 0 0 4.619 1.02Z"/><path d="M79.039 194.412A100 100 0 0 1 43.776 26.887l54.579 58.49a20 20 0 0 0 7.053 33.505Z"/><path d="M65.364 50.022A68.358 68.358 0 0 1 112 31.642V80a20 20 0 0 0-13.645 5.377Z"/></g><g fill="#000" aria-roledescription="text mark container" class="mark-text role-mark" font-family="sans-serif" font-size="11" text-anchor="middle"><text transform="translate(127.604 38.428)">12</text><text transform="translate(177.03 54.365)">23</text><text transform="translate(188.776 173.236)">47</text><text transform="translate(100.102 156.877)">6</text><text transform="translate(6.316 125.246)">52</text><text transform="translate(84.003 31.96)">19</text></g></g></svg>