<svg xmlns="http://www.w3.org/2000/svg" xmlns:xlink="http://www.w3.org/1999/xlink" version="1.1" x="0px" y="0px" width="820px" height="501.623px" viewBox="0 0 820 501.623" style="enable-background:new 0 0 820 501.623;" xml:space="preserve">
<style type="text/css">
	.st0{fill:none;}
	.st1{fill:#D1D3D4;}
	.st2{opacity:0.5;fill:#1CD0BB;}
	.st3{fill:none;stroke:#1CD0BB;stroke-width:2;stroke-miterlimit:10;}
	.st4{opacity:0.5;fill:#F540DA;}
	.st5{fill:none;stroke:#F540DA;stroke-width:2;stroke-miterlimit:10;}
	.st6{opacity:0.47;fill:#FFA400;}
	.st7{fill:none;stroke:#FFA400;stroke-width:2;stroke-miterlimit:10;}
	.st8{opacity:0.5;fill:#00A9D7;}
	.st9{fill:none;stroke:#00A9D7;stroke-width:2;stroke-miterlimit:10;}
	.st10{fill:#4D5858;}
	.st11{font-family:'Gotham-Medium';}
	.st12{font-size:18px;}
	.st13{fill:#1CD0BB;}
	.st14{fill:#F540DA;}
	.st15{fill:#FFA400;}
	.st16{fill:#00A9D7;}
</style>
<g id="REF">
</g>
<g id="candlestick">
	<g>
		<polygon class="st0" points="444.164,66.899 455.628,15.756 248.764,80.447 287.323,115.947   "/>
		<polygon class="st0" points="373.974,389.166 528.61,340.809 493.705,308.673 384.352,342.87   "/>
		<polygon class="st0" points="384.857,340.616 492.005,307.108 459.773,277.433 394.44,297.864   "/>
		<polygon class="st0" points="506.624,142.449 484.136,119.961 491.894,112.202 445.61,69.59 435.232,115.887 465.883,144.106     470.734,139.255 491.772,160.293 487.79,164.275 519.524,193.491 564.807,179.33 515.311,133.762   "/>
		<polygon class="st0" points="458.074,275.869 409.413,231.069 394.946,295.61   "/>
		<polygon class="st0" points="300.313,264.139 382.906,340.178 392.489,297.426 342.129,251.062   "/>
		<polygon class="st0" points="392.994,295.173 407.462,230.631 344.333,250.373   "/>
		<polygon class="st0" points="474.979,177.087 453.94,156.049 464.467,145.522 434.727,118.141 425.144,160.892 437.944,172.677     443.339,167.282 463.862,187.806 459.315,192.353 475.504,207.257 517.319,194.181 486.374,165.691   "/>
		<polygon class="st0" points="252.826,278.989 372.023,388.729 382.401,342.432 298.109,264.828   "/>
		<polygon class="st0" points="473.896,209.856 410.768,229.597 459.429,274.397   "/>
		<polygon class="st0" points="529.966,339.337 565.404,181.24 520.121,195.401 495.06,307.201   "/>
		<polygon class="st0" points="493.361,305.637 517.916,196.09 476.1,209.167 461.129,275.962   "/>
		<polygon class="st0" points="432.776,117.704 325.627,151.211 357.86,180.887 423.192,160.455   "/>
		<polygon class="st0" points="443.659,69.153 289.022,117.511 323.928,149.647 433.281,115.45   "/>
		<polygon class="st0" points="359.559,182.451 408.22,227.251 422.687,162.709   "/>
		<polygon class="st0" points="447.703,203.965 427.18,183.441 436.528,174.093 424.638,163.146 410.171,227.688 473.299,207.947     457.899,193.769   "/>
		<polygon class="st0" points="516.842,88.39 526.024,79.208 457.579,16.194 446.115,67.336 493.31,110.786 503.379,100.717     525.867,123.206 516.727,132.346 567.012,178.641 617.034,162.998 553.661,104.653 543.383,114.931   "/>
		<polygon class="st0" points="250.621,279.678 200.598,295.322 360.054,442.126 371.518,390.982   "/>
		<polygon class="st0" points="297.513,262.919 322.573,151.119 287.668,118.983 252.229,277.08   "/>
		<polygon class="st0" points="285.969,117.418 247.41,81.918 200.001,293.413 250.025,277.769   "/>
		<polygon class="st0" points="406.864,228.722 358.204,183.923 343.737,248.463   "/>
		<polygon class="st0" points="373.469,391.42 362.005,442.563 568.868,377.873 530.31,342.373   "/>
		<polygon class="st0" points="531.665,340.902 570.223,376.401 617.631,164.907 567.608,180.55   "/>
		<polygon class="st0" points="341.532,249.153 356.505,182.358 324.272,152.683 299.717,262.229   "/>
		<polygon class="st1" points="555.077,103.237 553.661,104.653 617.034,162.998 618.688,162.481 619.285,164.39 617.631,164.907     570.223,376.401 571.498,377.574 570.143,379.046 568.868,377.873 362.005,442.563 361.626,444.253 359.675,443.816     360.054,442.126 200.598,295.322 198.945,295.839 198.348,293.929 200.001,293.413 247.41,81.918 246.135,80.745 247.49,79.274     248.764,80.447 455.628,15.756 456.007,14.066 457.958,14.504 457.579,16.194 526.024,79.208 527.44,77.792 457.235,13.158     245.963,79.227 197.671,294.665 197.544,295.229 359.973,444.77 360.398,445.161 571.67,379.092 619.962,163.654 620.089,163.091       "/>
		<polygon class="st1" points="531.665,340.902 567.608,180.55 565.404,181.24 529.966,339.337   "/>
		<polygon class="st1" points="373.469,391.42 530.31,342.373 528.61,340.809 373.974,389.166   "/>
		<polygon class="st1" points="250.621,279.678 371.518,390.982 372.023,388.729 252.826,278.989   "/>
		<polygon class="st1" points="252.229,277.08 287.668,118.983 285.969,117.418 250.025,277.769   "/>
		<polygon class="st1" points="564.807,179.33 567.012,178.641 516.727,132.346 515.311,133.762   "/>
		<polygon class="st1" points="444.164,66.899 287.323,115.947 289.022,117.511 443.659,69.153   "/>
		<polygon class="st1" points="491.894,112.202 493.31,110.786 446.115,67.336 445.61,69.59   "/>
		<polygon class="st1" points="384.352,342.87 493.705,308.673 492.005,307.108 384.857,340.616   "/>
		<polygon class="st1" points="486.374,165.691 517.319,194.181 519.524,193.491 487.79,164.275   "/>
		<polygon class="st1" points="299.717,262.229 324.272,152.683 322.573,151.119 297.513,262.919   "/>
		<polygon class="st1" points="298.109,264.828 382.401,342.432 382.906,340.178 300.313,264.139   "/>
		<polygon class="st1" points="465.883,144.106 435.232,115.887 434.727,118.141 464.467,145.522   "/>
		<polygon class="st1" points="495.06,307.201 520.121,195.401 517.916,196.09 493.361,305.637   "/>
		<polygon class="st1" points="433.281,115.45 323.928,149.647 325.627,151.211 432.776,117.704   "/>
		<polygon class="st1" points="342.129,251.062 392.489,297.426 392.994,295.173 344.333,250.373   "/>
		<polygon class="st1" points="423.192,160.455 357.86,180.887 359.559,182.451 422.687,162.709   "/>
		<polygon class="st1" points="457.899,193.769 473.299,207.947 475.504,207.257 459.315,192.353   "/>
		<polygon class="st1" points="461.129,275.962 476.1,209.167 473.896,209.856 459.429,274.397   "/>
		<polygon class="st1" points="394.44,297.864 459.773,277.433 458.074,275.869 394.946,295.61   "/>
		<polygon class="st1" points="437.944,172.677 425.144,160.892 424.638,163.146 436.528,174.093   "/>
		<polygon class="st1" points="343.737,248.463 358.204,183.923 356.505,182.358 341.532,249.153   "/>
		<polygon class="st1" points="443.659,69.153 433.281,115.45 432.776,117.704 423.192,160.455 422.687,162.709 408.22,227.251     409.069,228.033 410.171,227.688 424.638,163.146 425.144,160.892 434.727,118.141 435.232,115.887 445.61,69.59 446.115,67.336     457.579,16.194 457.958,14.504 456.007,14.066 455.628,15.756 444.164,66.899   "/>
		<polygon class="st1" points="373.974,389.166 384.352,342.87 384.857,340.616 394.44,297.864 394.946,295.61 409.413,231.069     408.564,230.287 407.462,230.631 392.994,295.173 392.489,297.426 382.906,340.178 382.401,342.432 372.023,388.729     371.518,390.982 360.054,442.126 359.675,443.816 361.626,444.253 362.005,442.563 373.469,391.42   "/>
		<polygon class="st1" points="564.807,179.33 519.524,193.491 517.319,194.181 475.504,207.257 473.299,207.947 410.171,227.688     409.069,228.033 410.768,229.597 473.896,209.856 476.1,209.167 517.916,196.09 520.121,195.401 565.404,181.24 567.608,180.55     617.631,164.907 619.285,164.39 618.688,162.481 617.034,162.998 567.012,178.641   "/>
		<polygon class="st1" points="252.826,278.989 298.109,264.828 300.313,264.139 342.129,251.062 344.333,250.373 407.462,230.631     408.564,230.287 406.864,228.722 343.737,248.463 341.532,249.153 299.717,262.229 297.513,262.919 252.229,277.08     250.025,277.769 200.001,293.413 198.348,293.929 198.945,295.839 200.598,295.322 250.621,279.678   "/>
		<polygon class="st1" points="529.966,339.337 495.06,307.201 493.361,305.637 461.129,275.962 459.429,274.397 410.768,229.597     409.069,228.033 408.22,227.251 359.559,182.451 357.86,180.887 325.627,151.211 323.928,149.647 289.022,117.511     287.323,115.947 248.764,80.447 247.49,79.274 246.135,80.745 247.41,81.918 285.969,117.418 287.668,118.983 322.573,151.119     324.272,152.683 356.505,182.358 358.204,183.923 406.864,228.722 408.564,230.287 409.413,231.069 458.074,275.869     459.773,277.433 492.005,307.108 493.705,308.673 528.61,340.809 530.31,342.373 568.868,377.873 570.143,379.046     571.498,377.574 570.223,376.401 531.665,340.902   "/>
	</g>
	<path class="st2" d="M244.123,329.324l169.953-62.62l124.033,29.423c0,0,55.475-169.389,52.947-170.217   c-2.528-0.828-173.333-45.569-173.333-45.569l-34.48,122.377L244.123,329.324z"/>
	<path class="st3" d="M244.123,329.324l169.953-62.62l124.033,29.423c0,0,55.475-169.389,52.947-170.217   c-2.528-0.828-173.333-45.569-173.333-45.569l-34.48,122.377L244.123,329.324z"/>
	<path class="st4" d="M283.866,261.488l113.309,41.446l42.793-56.501c0,0,121.525-63.227,119.25-64.605   c-2.275-1.379-125.667-32.603-125.667-32.603l-87.85,5.089L283.866,261.488z"/>
	<path class="st5" d="M283.866,261.488l113.309,41.446l42.793-56.501c0,0,121.525-63.227,119.25-64.605   c-2.275-1.379-125.667-32.603-125.667-32.603l-87.85,5.089L283.866,261.488z"/>
	<path class="st6" d="M332.176,247.214l50.817,116.338l177.837-3.439c0,0-59.506-163.598-61.781-164.977   c-2.275-1.379-65.498-45.912-65.498-45.912L307.54,117.19L332.176,247.214z"/>
	<path class="st7" d="M332.176,247.214l50.817,116.338l177.837-3.439c0,0-59.506-163.598-61.781-164.977   c-2.275-1.379-65.498-45.912-65.498-45.912L307.54,117.19L332.176,247.214z"/>
	<path class="st8" d="M319.256,249.271l49.306,158.742l112.603-121.2c0,0-17.004-72.83-19.236-74.276s-35.164-22.783-35.164-22.783   l-98.143-56.455L319.256,249.271z"/>
	<path class="st9" d="M319.256,249.271l49.306,158.742l112.603-121.2c0,0-17.004-72.83-19.236-74.276s-35.164-22.783-35.164-22.783   l-98.143-56.455L319.256,249.271z"/>
</g>
<g id="Layer_4">
</g>
<g id="Layer_3">
	<text transform="matrix(1 0 0 1 238.9466 474.8806)" class="st10 st11 st12">A</text>
	<polygon class="st13" points="221.363,455.406 199.415,477.354 228.679,481.344 236.66,453.411  "/>
	<text transform="matrix(1 0 0 1 351.4903 474.8806)" class="st10 st11 st12">B</text>
	<polygon class="st14" points="333.906,455.406 311.959,477.354 341.222,481.344 349.203,453.411  "/>
	<text transform="matrix(1 0 0 1 463.2778 474.8806)" class="st10 st11 st12">c</text>
	<polygon class="st15" points="445.694,455.406 423.746,477.354 453.01,481.344 460.991,453.411  "/>
	<text transform="matrix(1 0 0 1 574.8131 474.8806)" class="st10 st11 st12">d</text>
	<polygon class="st16" points="557.229,455.406 535.282,477.354 564.545,481.344 572.526,453.411  "/>
	<text transform="matrix(1 0 0 1 435.7156 190.2255)" class="st10 st11 st12">10</text>
	<text transform="matrix(1 0 0 1 529.4922 97.4434)" class="st10 st11 st12">40</text>
	<text transform="matrix(1 0 0 1 466.9745 155.6221)" class="st10 st11 st12">20</text>
	<text transform="matrix(1 0 0 1 492.2476 129.0379)" class="st10 st11 st12">30</text>
</g>
</svg>