<svg width="641" height="368">
  <clipPath id="a">
    <path d="M-1-1h643v370H-1z"/>
  </clipPath>
  <g class="wj-header" clip-path="url(#a)"/>
  <g class="wj-footer" clip-path="url(#a)"/>
  <clipPath id="b">
    <path d="M547.7 158.5H642v51h-94.3z"/>
  </clipPath>
  <g class="wj-legend" clip-path="url(#b)">
    <path fill="transparent" d="M548.7 159.5H641v49h-92.3z"/>
    <path stroke="#9c88d9" d="M552.7 171.8h10"/>
    <text x="566.7" y="177" class="wj-label">Sales</text>
    <path stroke="#a3d767" d="M552.7 196.3h10"/>
    <text x="566.7" y="201.5" class="wj-label">Downloads</text>
  </g>
  <path fill="transparent" class="wj-plot-area" d="M28.5 47h491.7v290.5H28.5z"/>
  <g class="wj-axis-x" clip-path="url(#a)">
    <path stroke="#666" class="wj-gridline" d="M274.4 192.3V47"/>
    <text x="264.8" y="39" fill="#666" class="wj-label">US</text>
    <path stroke="#666" class="wj-tick" d="M274.4 47v-4"/>
    <path stroke="#666" class="wj-gridline" d="m274.4 192.3 125.8-72.7"/>
    <text x="404.5" y="122.4" fill="#666" class="wj-label">Germany</text>
    <path stroke="#666" class="wj-tick" d="m400.2 119.6 3.4-2"/>
    <path stroke="#666" class="wj-gridline" d="m274.4 192.3 125.8 72.6"/>
    <text x="404.5" y="272.6" fill="#666" class="wj-label">UK</text>
    <path stroke="#666" class="wj-tick" d="m400.2 264.9 3.4 2"/>
    <path stroke="#666" class="wj-gridline" d="M274.4 192.3v145.2"/>
    <text x="255.2" y="356" fill="#666" class="wj-label">Japan</text>
    <path stroke="#666" class="wj-tick" d="M274.4 337.5v4"/>
    <path stroke="#666" class="wj-gridline" d="m274.4 192.3-125.8 72.6"/>
    <text x="118.6" y="272.6" fill="#666" class="wj-label">Italy</text>
    <path stroke="#666" class="wj-tick" d="m148.6 264.9-3.5 2"/>
    <path stroke="#666" class="wj-gridline" d="m274.4 192.3-125.8-72.7"/>
    <text x="99.1" y="122.4" fill="#666" class="wj-label">Greece</text>
    <path stroke="#666" class="wj-tick" d="m148.6 119.6-3.5-2"/>
    <path stroke="#666" fill="transparent" class="wj-line" d="m274.4 47 125.8 72.6v145.3l-125.8 72.6-125.8-72.6V119.6z"/>
  </g>
  <g class="wj-axis-y" clip-path="url(#a)" stroke="#666">
    <path class="wj-tick" d="M270.4 192.3h4"/>
    <path fill="transparent" class="wj-gridline" d="m274.4 163.2 25.1 14.5v29.1l-25.1 14.5-25.2-14.5v-29.1z"/>
    <path class="wj-tick" d="M270.4 163.2h4"/>
    <path fill="transparent" class="wj-gridline" d="m274.4 134.2 50.3 29v58.1l-50.3 29-50.3-29v-58.1z"/>
    <path class="wj-tick" d="M270.4 134.2h4"/>
    <path fill="transparent" class="wj-gridline" d="m274.4 105.1 75.4 43.6v87.1l-75.4 43.6-75.5-43.6v-87.1z"/>
    <path class="wj-tick" d="M270.4 105.1h4"/>
    <path fill="transparent" class="wj-gridline" d="M274.4 76 375 134.1v116.2l-100.6 58.1-100.7-58V134.1z"/>
    <path class="wj-tick" d="M270.4 76h4m-4-29h4"/>
  </g>
  <g class="wj-series-group" stroke-width="2" stroke-linejoin="round" fill="none">
    <path stroke="#9c88d9" clip-path="url(#c)" d="m274.4 54.3 60.4 103.1-15.1 61-45.3 52.3-70.5-37.8-55.3-113.3z"/>
    <path stroke="#a3d767" clip-path="url(#c)" d="m274.4 153 54.1 8 23.9 76.3-78-14.5-76.8 13.8 22.7-75.6z"/>
  </g>
  <clipPath id="c">
    <path d="M27.5 46h493.7v292.5H27.5z"/>
  </clipPath>
  <g class="wj-axis-y-labels wj-axis-y">
    <text x="257.6" y="197.5" class="wj-label">0</text>
    <text x="249.8" y="168.5" class="wj-label">20</text>
    <text x="249.8" y="139.4" class="wj-label">40</text>
    <text x="249.8" y="110.3" class="wj-label">60</text>
    <text x="249.8" y="81.3" class="wj-label">80</text>
    <text x="242" y="52.2" class="wj-label">100</text>
  </g>
</svg>
