<?xml version="1.0" encoding="utf-8"?>
<!-- Generator: Adobe Illustrator 25.4.1, SVG Export Plug-In . SVG Version: 6.00 Build 0)  -->
<svg version="1.1" xmlns="http://www.w3.org/2000/svg" xmlns:xlink="http://www.w3.org/1999/xlink" x="0px" y="0px" width="820px"
	 height="630.404px" viewBox="0 0 820 630.404" style="enable-background:new 0 0 820 630.404;" xml:space="preserve">
<style type="text/css">
	.st0{fill:#D1D3D4;}
	.st1{fill:#FFFFFF;}
	.st2{fill:#00A9D7;}
	.st3{opacity:0.47;fill:#FFA400;}
	.st4{fill:#318DDE;}
	.st5{fill:#1CD0BB;}
	.st6{opacity:0.3;fill:#00A9D7;}
	.st7{fill:#FFA400;}
	.st8{opacity:0.5;fill:#318DDE;}
	.st9{opacity:0.5;fill:#1CD0BB;}
	.st10{fill:#4D5858;}
	.st11{fill:#A7A9AC;}
</style>
<g id="REF">
</g>
<g id="candlestick">
	<g>
		<path class="st0" d="M360.398,456.414l-0.425-0.392L197.544,306.481l0.126-0.563L245.963,90.48l211.272-66.069l162.854,149.933
			l-0.127,0.563L571.67,390.345L360.398,456.414z M199.749,305.792L360.903,454.16l209.068-65.379l47.913-213.748L456.729,26.665
			l-209.067,65.38L199.749,305.792z"/>
		<path class="st0" d="M372.367,403.018l-0.425-0.392l-122.17-112.477l36.449-162.605l159.045-49.737l122.595,112.869l-0.127,0.563
			l-36.322,162.042L372.367,403.018z M251.976,289.459l120.896,111.304l156.841-49.047l35.943-160.352L444.761,80.061
			l-156.84,49.047L251.976,289.459z"/>
		<path class="st0" d="M383.25,354.467l-85.991-79.168l25.566-114.055l111.557-34.886l85.991,79.168l-0.127,0.563l-25.439,113.491
			L383.25,354.467z M299.464,274.609l84.292,77.604l109.353-34.197l25.061-111.8l-84.292-77.604l-109.352,34.197L299.464,274.609z"
			/>
		<path class="st0" d="M393.339,309.461l-52.059-47.929l15.478-69.049l67.538-21.121l52.059,47.929l-0.127,0.563l-15.351,68.486
			L393.339,309.461z M343.484,260.843l50.36,46.364l65.333-20.431l14.972-66.795l-50.359-46.364l-65.333,20.431L343.484,260.843z"/>
		
			<rect x="188.609" y="239.413" transform="matrix(0.2188 -0.9758 0.9758 0.2188 84.7832 586.7236)" class="st0" width="440.414" height="2"/>
		
			<rect x="188.609" y="239.412" transform="matrix(0.9545 -0.2983 0.2983 0.9545 -53.1028 132.8967)" class="st0" width="440.414" height="2"/>
		
			<rect x="407.816" y="20.206" transform="matrix(0.6773 -0.7357 0.7357 0.6773 -44.9519 378.3381)" class="st0" width="2" height="440.414"/>
	</g>
	
		<rect x="457.98" y="157.549" transform="matrix(0.7071 0.7071 -0.7071 0.7071 258.2971 -284.7369)" class="st1" width="29.753" height="23.75"/>
	
		<rect x="431.009" y="185.45" transform="matrix(0.7071 0.7071 -0.7071 0.7071 269.7026 -257.3672)" class="st1" width="29.025" height="22.853"/>
	<path class="st2" d="M378.227,379.868h-0.92l-10.695-127.667L257.384,102.694L419.06,201.61l127.707-5.349l0.059,0.98
		c0.435,7.197,10.644,176.307,10.644,178.967c0,1.338,0,1.892-28.828,2.538c-14.789,0.331-35.408,0.597-61.285,0.79
		C423.301,379.864,378.673,379.868,378.227,379.868z M264.96,109.675l103.598,141.799l10.588,126.394
		c67.396-0.006,167.519-0.628,176.295-2.319c-0.557-11.496-9.725-163.466-10.555-177.208l-126.354,5.292l-0.259-0.159
		L264.96,109.675z"/>
	<path class="st3" d="M306.398,146.755l23.278,118.385l70.499,7.316c0,0,117.054,71.164,117.054,68.503
		c0-2.66-37.245-124.37-37.245-124.37l-49.881-72.494L306.398,146.755z"/>
	<path class="st4" d="M365.493,436.452l-96.212-152.056l0.385-0.546l73.224-103.845l0.084-0.075l99.6-89.505l38.421,126.048
		l-0.013,0.184c-0.054,0.771-5.318,77.145-5.318,79.741c0,0.752,0,2.012-54.755,70.789c-26.958,33.862-54.267,67.835-54.54,68.175
		L365.493,436.452z M271.686,284.457l94.002,148.562c30.143-37.503,105.414-131.591,107.98-136.796
		c0.151-4.697,4.959-74.478,5.306-79.519L441.576,94.011l-97.181,87.332L271.686,284.457z"/>
	<path class="st5" d="M390.549,328.069l-0.524-0.092L225.38,299.08l107.642-129.171l0.17-0.092l103.812-55.951l6.07,114.641
		l0.001,41.953c0,0.77,0,2.059-26.21,29.948c-12.825,13.647-25.817,27.143-25.947,27.277L390.549,328.069z M229.127,297.707
		l160.72,28.208c20.024-20.802,49.774-52.333,51.228-55.581V228.56l-5.901-111.435l-100.863,54.361L229.127,297.707z
		 M441.102,270.269L441.102,270.269L441.102,270.269z"/>
	<g>
		<path class="st1" d="M439.922,192.035l-2.269,0.63l-0.469-1.8l3.403-1.081h1.53v12.694h-2.196V192.035z"/>
		<path class="st1" d="M444.871,196.213v-0.036c0-3.601,2.196-6.518,5.51-6.518c3.295,0,5.474,2.881,5.474,6.482v0.036
			c0,3.601-2.197,6.518-5.51,6.518C447.031,202.695,444.871,199.814,444.871,196.213z M453.567,196.213v-0.036
			c0-2.485-1.278-4.52-3.223-4.52c-1.945,0-3.188,1.98-3.188,4.483v0.036c0,2.484,1.261,4.519,3.224,4.519
			C452.343,200.696,453.567,198.68,453.567,196.213z"/>
	</g>
	<path class="st6" d="M261.172,106.185l106.413,145.653l10.641,127.031c0,0,178.242,0,178.242-2.66
		c0-2.66-10.641-178.907-10.641-178.907l-127.031,5.321L261.172,106.185z"/>
	<path class="st7" d="M517.265,342.007c-1.53,0-8.484-3.251-59.919-33.947c-27.421-16.365-54.933-33.074-57.498-34.633l-71.01-7.369
		l-0.143-0.726L305.187,145.78l125.434-2.697l0.307,0.444l49.968,72.621l0.045,0.147c6.227,20.348,37.289,121.988,37.289,124.663
		v0.585l-0.542,0.343C517.581,341.946,517.474,342.007,517.265,342.007z M330.514,264.221l69.988,7.263l0.192,0.117
		c42.12,25.607,104.902,63.211,115.21,67.947c-3.093-11.86-27.172-90.952-36.831-122.52l-49.487-71.923l-121.978,2.623
		L330.514,264.221z"/>
	<path class="st8" d="M343.643,180.674l-73.159,103.753l95.107,150.309c0,0,109.073-135.677,109.073-138.337
		c0-2.66,5.321-79.81,5.321-79.81l-37.91-124.37L343.643,180.674z"/>
	<path class="st9" d="M333.666,170.697L227.253,298.393l162.945,28.599c0,0,51.876-53.872,51.876-56.532c0-2.66,0-41.9,0-41.9
		l-5.986-113.064L333.666,170.697z"/>
</g>
<g id="Layer_4">
</g>
<g id="Layer_3">
	<g>
		<g>
			<path class="st10" d="M245.033,473.439h2.053l5.545,12.694h-2.341l-1.278-3.043h-5.959l-1.297,3.043h-2.269L245.033,473.439z
				 M248.202,481.128l-2.179-5.041l-2.161,5.041H248.202z"/>
		</g>
		<polygon class="st9" points="221.363,466.659 199.415,488.607 228.679,492.597 236.66,464.664 		"/>
	</g>
	<g>
		<g>
			<path class="st10" d="M353.111,473.53h5.654c1.44,0,2.575,0.396,3.295,1.116c0.558,0.558,0.846,1.242,0.846,2.088v0.036
				c0,1.513-0.864,2.323-1.801,2.81c1.477,0.504,2.503,1.35,2.503,3.061v0.036c0,2.25-1.854,3.457-4.664,3.457h-5.833V473.53z
				 M360.691,477.095c0-0.99-0.792-1.603-2.214-1.603h-3.187v3.35h3.025c1.422,0,2.376-0.559,2.376-1.711V477.095z M358.8,480.714
				h-3.511v3.457h3.673c1.513,0,2.431-0.594,2.431-1.729v-0.036C361.393,481.344,360.547,480.714,358.8,480.714z"/>
		</g>
		<polygon class="st8" points="333.906,466.659 311.959,488.607 341.222,492.597 349.203,464.664 		"/>
	</g>
	<g>
		<g>
			<path class="st10" d="M464.341,479.868v-0.036c0-3.583,2.683-6.519,6.5-6.519c2.322,0,3.727,0.811,4.933,1.963l-1.422,1.639
				c-1.009-0.937-2.089-1.566-3.529-1.566c-2.395,0-4.159,1.98-4.159,4.447v0.036c0,2.467,1.746,4.465,4.159,4.465
				c1.549,0,2.539-0.612,3.619-1.62l1.423,1.44c-1.314,1.368-2.755,2.232-5.114,2.232
				C467.077,486.35,464.341,483.486,464.341,479.868z"/>
		</g>
		<polygon class="st3" points="445.694,466.659 423.746,488.607 453.01,492.597 460.991,464.664 		"/>
	</g>
	<g>
		<g>
			<path class="st10" d="M576.434,473.53h4.699c3.962,0,6.698,2.719,6.698,6.266v0.036c0,3.547-2.736,6.302-6.698,6.302h-4.699
				V473.53z M578.648,475.547v8.57h2.484c2.647,0,4.376-1.783,4.376-4.249v-0.036c0-2.467-1.729-4.285-4.376-4.285H578.648z"/>
		</g>
		<polygon class="st6" points="557.229,466.659 535.282,488.607 564.545,492.597 572.526,464.664 		"/>
	</g>
	
		<rect x="489.1" y="119.229" transform="matrix(0.7071 0.7071 -0.7071 0.7071 241.8407 -318.1834)" class="st1" width="31.803" height="27.214"/>
	
		<rect x="521.643" y="88.051" transform="matrix(0.7071 0.7071 -0.7071 0.7071 230.8423 -352.0729)" class="st1" width="37.535" height="29.128"/>
	<g>
		<path class="st11" d="M493.022,138.292l1.548-1.44c0.9,1.062,1.909,1.656,3.313,1.656c1.242,0,2.179-0.756,2.179-1.908v-0.036
			c0-1.243-1.135-1.945-2.899-1.945h-1.026l-0.359-1.386l3.402-3.619h-5.455v-1.926h8.336v1.656l-3.511,3.601
			c1.908,0.234,3.709,1.207,3.709,3.529v0.036c0,2.323-1.782,3.997-4.411,3.997C495.65,140.506,494.084,139.588,493.022,138.292z"/>
		<path class="st11" d="M504.398,134.025v-0.036c0-3.601,2.196-6.518,5.51-6.518c3.295,0,5.474,2.881,5.474,6.482v0.036
			c0,3.601-2.197,6.518-5.51,6.518C506.559,140.506,504.398,137.625,504.398,134.025z M513.095,134.025v-0.036
			c0-2.485-1.278-4.52-3.223-4.52c-1.945,0-3.188,1.98-3.188,4.483v0.036c0,2.484,1.261,4.519,3.224,4.519
			C511.87,138.508,513.095,136.491,513.095,134.025z"/>
	</g>
	<g>
		<path class="st11" d="M536.91,105.87h-6.355l-0.414-1.584l7.004-8.283h1.891v8.048h1.801v1.819h-1.801v2.827h-2.125V105.87z
			 M536.91,104.051v-4.987l-4.141,4.987H536.91z"/>
		<path class="st11" d="M542.795,102.431v-0.036c0-3.601,2.196-6.518,5.51-6.518c3.295,0,5.474,2.881,5.474,6.482v0.036
			c0,3.601-2.197,6.518-5.51,6.518C544.955,108.912,542.795,106.031,542.795,102.431z M551.491,102.431v-0.036
			c0-2.485-1.278-4.52-3.223-4.52c-1.945,0-3.188,1.98-3.188,4.483v0.036c0,2.484,1.261,4.519,3.224,4.519
			C550.267,106.914,551.491,104.897,551.491,102.431z"/>
	</g>
	<g>
		<path class="st11" d="M467.856,171.133l4.34-3.691c1.729-1.477,2.358-2.269,2.358-3.403c0-1.242-0.882-1.962-2.034-1.962
			s-1.945,0.63-2.899,1.891l-1.584-1.243c1.206-1.674,2.395-2.628,4.645-2.628c2.467,0,4.16,1.512,4.16,3.763v0.036
			c0,1.981-1.045,3.061-3.277,4.879l-2.593,2.161h5.996v1.944h-9.111V171.133z"/>
		<path class="st11" d="M479.034,166.614v-0.036c0-3.601,2.197-6.518,5.51-6.518c3.295,0,5.474,2.881,5.474,6.482v0.036
			c0,3.601-2.196,6.518-5.51,6.518C481.195,173.096,479.034,170.215,479.034,166.614z M487.731,166.614v-0.036
			c0-2.485-1.279-4.52-3.224-4.52s-3.187,1.98-3.187,4.483v0.036c0,2.484,1.26,4.519,3.223,4.519S487.731,169.081,487.731,166.614z"
			/>
	</g>
</g>
</svg>
