<svg xmlns="http://www.w3.org/2000/svg" data-name="Layer 1" viewBox="0 0 324 319" style="stroke-width:.5;stroke:#000">
  <defs>
    <linearGradient id="a" x1="-.003" y1="715.689" x2="1.042" y2="715.689" gradientTransform="matrix(285.72 0 0 -285.72 14.67 204644.66)" gradientUnits="userSpaceOnUse">
      <stop offset="0" stop-color="#ffb32f"/>
      <stop offset=".031" stop-color="#ffb32f"/>
      <stop offset=".039" stop-color="#feb22e"/>
      <stop offset=".047" stop-color="#feb12e"/>
      <stop offset=".055" stop-color="#fdb12e"/>
      <stop offset=".063" stop-color="#fdb02d"/>
      <stop offset=".07" stop-color="#fcaf2d"/>
      <stop offset=".078" stop-color="#fbaf2c"/>
      <stop offset=".086" stop-color="#fbae2c"/>
      <stop offset=".094" stop-color="#faad2c"/>
      <stop offset=".102" stop-color="#faad2b"/>
      <stop offset=".109" stop-color="#f9ac2b"/>
      <stop offset=".117" stop-color="#f9ab2a"/>
      <stop offset=".125" stop-color="#f8ab2a"/>
      <stop offset=".133" stop-color="#f8aa2a"/>
      <stop offset=".141" stop-color="#f7a929"/>
      <stop offset=".148" stop-color="#f7a929"/>
      <stop offset=".156" stop-color="#f6a829"/>
      <stop offset=".164" stop-color="#f6a828"/>
      <stop offset=".172" stop-color="#f5a728"/>
      <stop offset=".18" stop-color="#f5a627"/>
      <stop offset=".188" stop-color="#f4a627"/>
      <stop offset=".195" stop-color="#f4a527"/>
      <stop offset=".203" stop-color="#f3a426"/>
      <stop offset=".211" stop-color="#f3a426"/>
      <stop offset=".219" stop-color="#f2a326"/>
      <stop offset=".227" stop-color="#f2a225"/>
      <stop offset=".234" stop-color="#f1a225"/>
      <stop offset=".242" stop-color="#f1a124"/>
      <stop offset=".25" stop-color="#f0a024"/>
      <stop offset=".258" stop-color="#efa024"/>
      <stop offset=".266" stop-color="#ef9f23"/>
      <stop offset=".273" stop-color="#ee9f23"/>
      <stop offset=".281" stop-color="#ee9e22"/>
      <stop offset=".289" stop-color="#ed9d22"/>
      <stop offset=".297" stop-color="#ed9d22"/>
      <stop offset=".305" stop-color="#ec9c21"/>
      <stop offset=".313" stop-color="#ec9b21"/>
      <stop offset=".32" stop-color="#eb9b21"/>
      <stop offset=".328" stop-color="#eb9a20"/>
      <stop offset=".336" stop-color="#ea9920"/>
      <stop offset=".344" stop-color="#ea991f"/>
      <stop offset=".352" stop-color="#e9981f"/>
      <stop offset=".359" stop-color="#e9971f"/>
      <stop offset=".367" stop-color="#e8971e"/>
      <stop offset=".375" stop-color="#e8961e"/>
      <stop offset=".383" stop-color="#e7951d"/>
      <stop offset=".391" stop-color="#e7951d"/>
      <stop offset=".398" stop-color="#e6941d"/>
      <stop offset=".406" stop-color="#e6941c"/>
      <stop offset=".414" stop-color="#e5931c"/>
      <stop offset=".422" stop-color="#e4921c"/>
      <stop offset=".43" stop-color="#e4921b"/>
      <stop offset=".438" stop-color="#e3911b"/>
      <stop offset=".445" stop-color="#e3901a"/>
      <stop offset=".453" stop-color="#e2901a"/>
      <stop offset=".461" stop-color="#e28f1a"/>
      <stop offset=".469" stop-color="#e18e19"/>
      <stop offset=".477" stop-color="#e18e19"/>
      <stop offset=".484" stop-color="#e08d18"/>
      <stop offset=".492" stop-color="#e08c18"/>
      <stop offset=".5" stop-color="#df8c18"/>
      <stop offset=".508" stop-color="#df8b17"/>
      <stop offset=".516" stop-color="#de8b17"/>
      <stop offset=".523" stop-color="#de8a17"/>
      <stop offset=".531" stop-color="#dd8916"/>
      <stop offset=".539" stop-color="#dd8916"/>
      <stop offset=".547" stop-color="#dc8815"/>
      <stop offset=".555" stop-color="#dc8715"/>
      <stop offset=".563" stop-color="#db8715"/>
      <stop offset=".57" stop-color="#db8614"/>
      <stop offset=".578" stop-color="#da8514"/>
      <stop offset=".586" stop-color="#da8513"/>
      <stop offset=".594" stop-color="#d98413"/>
      <stop offset=".602" stop-color="#d88313"/>
      <stop offset=".609" stop-color="#d88312"/>
      <stop offset=".617" stop-color="#d78212"/>
      <stop offset=".625" stop-color="#d78112"/>
      <stop offset=".633" stop-color="#d68111"/>
      <stop offset=".641" stop-color="#d68011"/>
      <stop offset=".648" stop-color="#d58010"/>
      <stop offset=".656" stop-color="#d57f10"/>
      <stop offset=".664" stop-color="#d47e10"/>
      <stop offset=".672" stop-color="#d47e0f"/>
      <stop offset=".68" stop-color="#d37d0f"/>
      <stop offset=".688" stop-color="#d37c0e"/>
      <stop offset=".695" stop-color="#d27c0e"/>
      <stop offset=".703" stop-color="#d27b0e"/>
      <stop offset=".711" stop-color="#d17a0d"/>
      <stop offset=".719" stop-color="#d17a0d"/>
      <stop offset=".727" stop-color="#d0790d"/>
      <stop offset=".734" stop-color="#d0780c"/>
      <stop offset=".742" stop-color="#cf780c"/>
      <stop offset=".75" stop-color="#cf770b"/>
      <stop offset=".758" stop-color="#ce770b"/>
      <stop offset=".766" stop-color="#cd760b"/>
      <stop offset=".773" stop-color="#cd750a"/>
      <stop offset=".781" stop-color="#cc750a"/>
      <stop offset=".789" stop-color="#cc7409"/>
      <stop offset=".797" stop-color="#cb7309"/>
      <stop offset=".805" stop-color="#cb7309"/>
      <stop offset=".813" stop-color="#ca7208"/>
      <stop offset=".82" stop-color="#ca7108"/>
      <stop offset=".828" stop-color="#c97108"/>
      <stop offset=".836" stop-color="#c97007"/>
      <stop offset=".844" stop-color="#c86f07"/>
      <stop offset=".852" stop-color="#c86f06"/>
      <stop offset=".859" stop-color="#c76e06"/>
      <stop offset=".867" stop-color="#c76e06"/>
      <stop offset=".875" stop-color="#c66d05"/>
      <stop offset=".883" stop-color="#c66c05"/>
      <stop offset=".891" stop-color="#c56c05"/>
      <stop offset=".898" stop-color="#c56b04"/>
      <stop offset=".906" stop-color="#c46a04"/>
      <stop offset=".914" stop-color="#c46a03"/>
      <stop offset=".922" stop-color="#c36903"/>
      <stop offset=".93" stop-color="#c36803"/>
      <stop offset=".938" stop-color="#c26802"/>
      <stop offset=".945" stop-color="#c16702"/>
      <stop offset=".953" stop-color="#c16601"/>
      <stop offset=".961" stop-color="#c06601"/>
      <stop offset=".969" stop-color="#c06501"/>
      <stop offset="1" stop-color="#bf6400"/>
    </linearGradient>
    <linearGradient id="b" x1="-1.117" y1="715.72" x2=".029" y2="715.72" gradientTransform="matrix(135.3077 0 0 -245.0067 295.137 175514.326)" gradientUnits="userSpaceOnUse">
      <stop offset="0" stop-color="#69cb69"/>
      <stop offset=".031" stop-color="#69cb69"/>
      <stop offset=".047" stop-color="#69cb69"/>
      <stop offset=".055" stop-color="#68ca68"/>
      <stop offset=".063" stop-color="#67c968"/>
      <stop offset=".07" stop-color="#66c967"/>
      <stop offset=".078" stop-color="#65c866"/>
      <stop offset=".086" stop-color="#64c766"/>
      <stop offset=".094" stop-color="#63c665"/>
      <stop offset=".102" stop-color="#62c664"/>
      <stop offset=".109" stop-color="#61c563"/>
      <stop offset=".117" stop-color="#60c463"/>
      <stop offset=".125" stop-color="#5fc462"/>
      <stop offset=".133" stop-color="#5ec361"/>
      <stop offset=".141" stop-color="#5ec261"/>
      <stop offset=".148" stop-color="#5dc160"/>
      <stop offset=".156" stop-color="#5cc15f"/>
      <stop offset=".164" stop-color="#5bc05f"/>
      <stop offset=".172" stop-color="#5abf5e"/>
      <stop offset=".18" stop-color="#59be5d"/>
      <stop offset=".188" stop-color="#58be5d"/>
      <stop offset=".195" stop-color="#57bd5c"/>
      <stop offset=".203" stop-color="#56bc5b"/>
      <stop offset=".211" stop-color="#55bb5b"/>
      <stop offset=".219" stop-color="#54bb5a"/>
      <stop offset=".227" stop-color="#53ba59"/>
      <stop offset=".234" stop-color="#52b959"/>
      <stop offset=".242" stop-color="#51b858"/>
      <stop offset=".25" stop-color="#50b857"/>
      <stop offset=".258" stop-color="#4fb757"/>
      <stop offset=".266" stop-color="#4eb656"/>
      <stop offset=".273" stop-color="#4eb655"/>
      <stop offset=".281" stop-color="#4db555"/>
      <stop offset=".289" stop-color="#4cb454"/>
      <stop offset=".297" stop-color="#4bb353"/>
      <stop offset=".305" stop-color="#4ab353"/>
      <stop offset=".313" stop-color="#49b252"/>
      <stop offset=".32" stop-color="#48b151"/>
      <stop offset=".328" stop-color="#47b051"/>
      <stop offset=".336" stop-color="#46b050"/>
      <stop offset=".344" stop-color="#45af4f"/>
      <stop offset=".352" stop-color="#44ae4f"/>
      <stop offset=".359" stop-color="#43ad4e"/>
      <stop offset=".367" stop-color="#42ad4d"/>
      <stop offset=".375" stop-color="#41ac4d"/>
      <stop offset=".383" stop-color="#40ab4c"/>
      <stop offset=".391" stop-color="#3fab4b"/>
      <stop offset=".398" stop-color="#3faa4b"/>
      <stop offset=".406" stop-color="#3ea94a"/>
      <stop offset=".414" stop-color="#3da849"/>
      <stop offset=".422" stop-color="#3ca849"/>
      <stop offset=".43" stop-color="#3ba748"/>
      <stop offset=".438" stop-color="#3aa647"/>
      <stop offset=".445" stop-color="#39a547"/>
      <stop offset=".453" stop-color="#38a546"/>
      <stop offset=".461" stop-color="#37a445"/>
      <stop offset=".469" stop-color="#36a345"/>
      <stop offset=".477" stop-color="#35a244"/>
      <stop offset=".484" stop-color="#34a243"/>
      <stop offset=".492" stop-color="#33a143"/>
      <stop offset=".5" stop-color="#32a042"/>
      <stop offset=".508" stop-color="#31a041"/>
      <stop offset=".516" stop-color="#309f41"/>
      <stop offset=".523" stop-color="#2f9e40"/>
      <stop offset=".531" stop-color="#2f9d3f"/>
      <stop offset=".539" stop-color="#2e9d3f"/>
      <stop offset=".547" stop-color="#2d9c3e"/>
      <stop offset=".555" stop-color="#2c9b3d"/>
      <stop offset=".563" stop-color="#2b9a3d"/>
      <stop offset=".57" stop-color="#2a9a3c"/>
      <stop offset=".578" stop-color="#29993b"/>
      <stop offset=".586" stop-color="#28983b"/>
      <stop offset=".594" stop-color="#27973a"/>
      <stop offset=".602" stop-color="#269739"/>
      <stop offset=".609" stop-color="#259639"/>
      <stop offset=".617" stop-color="#249538"/>
      <stop offset=".625" stop-color="#239537"/>
      <stop offset=".633" stop-color="#229436"/>
      <stop offset=".641" stop-color="#219336"/>
      <stop offset=".648" stop-color="#209235"/>
      <stop offset=".656" stop-color="#1f9234"/>
      <stop offset=".664" stop-color="#1f9134"/>
      <stop offset=".672" stop-color="#1e9033"/>
      <stop offset=".68" stop-color="#1d8f32"/>
      <stop offset=".688" stop-color="#1c8f32"/>
      <stop offset=".695" stop-color="#1b8e31"/>
      <stop offset=".703" stop-color="#1a8d30"/>
      <stop offset=".711" stop-color="#198c30"/>
      <stop offset=".719" stop-color="#188c2f"/>
      <stop offset=".727" stop-color="#178b2e"/>
      <stop offset=".734" stop-color="#168a2e"/>
      <stop offset=".742" stop-color="#15892d"/>
      <stop offset=".75" stop-color="#14892c"/>
      <stop offset=".758" stop-color="#13882c"/>
      <stop offset=".766" stop-color="#12872b"/>
      <stop offset=".773" stop-color="#11872a"/>
      <stop offset=".781" stop-color="#10862a"/>
      <stop offset=".789" stop-color="#0f8529"/>
      <stop offset=".797" stop-color="#0f8428"/>
      <stop offset=".805" stop-color="#0e8428"/>
      <stop offset=".813" stop-color="#0d8327"/>
      <stop offset=".82" stop-color="#0c8226"/>
      <stop offset=".828" stop-color="#0b8126"/>
      <stop offset=".836" stop-color="#0a8125"/>
      <stop offset=".844" stop-color="#098024"/>
      <stop offset=".852" stop-color="#087f24"/>
      <stop offset=".859" stop-color="#077e23"/>
      <stop offset=".867" stop-color="#067e22"/>
      <stop offset=".875" stop-color="#057d22"/>
      <stop offset=".883" stop-color="#047c21"/>
      <stop offset=".891" stop-color="#037c20"/>
      <stop offset=".898" stop-color="#027b20"/>
      <stop offset=".906" stop-color="#017a1f"/>
      <stop offset=".938" stop-color="#00791e"/>
      <stop offset="1" stop-color="#00791e"/>
    </linearGradient>
    <linearGradient id="c" x1="-3.889" y1="718.423" x2="-2.669" y2="718.423" gradientTransform="matrix(58.5879 0 0 -18.4727 384.662 13336.307)" gradientUnits="userSpaceOnUse">
      <stop offset="0" stop-color="#51b0ff"/>
      <stop offset=".063" stop-color="#51b0ff"/>
      <stop offset=".094" stop-color="#51b0ff"/>
      <stop offset=".102" stop-color="#50affe"/>
      <stop offset=".109" stop-color="#4faffe"/>
      <stop offset=".117" stop-color="#4faefd"/>
      <stop offset=".125" stop-color="#4eadfc"/>
      <stop offset=".133" stop-color="#4dacfc"/>
      <stop offset=".141" stop-color="#4cacfb"/>
      <stop offset=".148" stop-color="#4cabfa"/>
      <stop offset=".156" stop-color="#4baafa"/>
      <stop offset=".164" stop-color="#4aa9f9"/>
      <stop offset=".172" stop-color="#49a9f8"/>
      <stop offset=".18" stop-color="#49a8f8"/>
      <stop offset=".188" stop-color="#48a7f7"/>
      <stop offset=".195" stop-color="#47a7f6"/>
      <stop offset=".203" stop-color="#46a6f6"/>
      <stop offset=".211" stop-color="#45a5f5"/>
      <stop offset=".219" stop-color="#45a4f4"/>
      <stop offset=".227" stop-color="#44a4f4"/>
      <stop offset=".234" stop-color="#43a3f3"/>
      <stop offset=".242" stop-color="#42a2f3"/>
      <stop offset=".25" stop-color="#42a2f2"/>
      <stop offset=".258" stop-color="#41a1f1"/>
      <stop offset=".266" stop-color="#40a0f1"/>
      <stop offset=".273" stop-color="#3f9ff0"/>
      <stop offset=".281" stop-color="#3e9fef"/>
      <stop offset=".289" stop-color="#3e9eef"/>
      <stop offset=".297" stop-color="#3d9dee"/>
      <stop offset=".305" stop-color="#3c9ced"/>
      <stop offset=".313" stop-color="#3b9ced"/>
      <stop offset=".32" stop-color="#3b9bec"/>
      <stop offset=".328" stop-color="#3a9aeb"/>
      <stop offset=".336" stop-color="#399aeb"/>
      <stop offset=".344" stop-color="#3899ea"/>
      <stop offset=".352" stop-color="#3898e9"/>
      <stop offset=".359" stop-color="#3797e9"/>
      <stop offset=".367" stop-color="#3697e8"/>
      <stop offset=".375" stop-color="#3596e7"/>
      <stop offset=".383" stop-color="#3495e7"/>
      <stop offset=".391" stop-color="#3494e6"/>
      <stop offset=".398" stop-color="#3394e5"/>
      <stop offset=".406" stop-color="#3293e5"/>
      <stop offset=".414" stop-color="#3192e4"/>
      <stop offset=".422" stop-color="#3192e3"/>
      <stop offset=".43" stop-color="#3091e3"/>
      <stop offset=".438" stop-color="#2f90e2"/>
      <stop offset=".445" stop-color="#2e8fe1"/>
      <stop offset=".453" stop-color="#2e8fe1"/>
      <stop offset=".461" stop-color="#2d8ee0"/>
      <stop offset=".469" stop-color="#2c8ddf"/>
      <stop offset=".477" stop-color="#2b8ddf"/>
      <stop offset=".484" stop-color="#2a8cde"/>
      <stop offset=".492" stop-color="#2a8bdd"/>
      <stop offset=".5" stop-color="#298add"/>
      <stop offset=".508" stop-color="#288adc"/>
      <stop offset=".516" stop-color="#2789dc"/>
      <stop offset=".523" stop-color="#2788db"/>
      <stop offset=".531" stop-color="#2687da"/>
      <stop offset=".539" stop-color="#2587da"/>
      <stop offset=".547" stop-color="#2486d9"/>
      <stop offset=".555" stop-color="#2385d8"/>
      <stop offset=".563" stop-color="#2385d8"/>
      <stop offset=".57" stop-color="#2284d7"/>
      <stop offset=".578" stop-color="#2183d6"/>
      <stop offset=".586" stop-color="#2082d6"/>
      <stop offset=".594" stop-color="#2082d5"/>
      <stop offset=".602" stop-color="#1f81d4"/>
      <stop offset=".609" stop-color="#1e80d4"/>
      <stop offset=".617" stop-color="#1d80d3"/>
      <stop offset=".625" stop-color="#1d7fd2"/>
      <stop offset=".633" stop-color="#1c7ed2"/>
      <stop offset=".641" stop-color="#1b7dd1"/>
      <stop offset=".648" stop-color="#1a7dd0"/>
      <stop offset=".656" stop-color="#197cd0"/>
      <stop offset=".664" stop-color="#197bcf"/>
      <stop offset=".672" stop-color="#187ace"/>
      <stop offset=".68" stop-color="#177ace"/>
      <stop offset=".688" stop-color="#1679cd"/>
      <stop offset=".695" stop-color="#1678cc"/>
      <stop offset=".703" stop-color="#1578cc"/>
      <stop offset=".711" stop-color="#1477cb"/>
      <stop offset=".719" stop-color="#1376ca"/>
      <stop offset=".727" stop-color="#1375ca"/>
      <stop offset=".734" stop-color="#1275c9"/>
      <stop offset=".742" stop-color="#1174c8"/>
      <stop offset=".75" stop-color="#1073c8"/>
      <stop offset=".758" stop-color="#0f72c7"/>
      <stop offset=".766" stop-color="#0f72c6"/>
      <stop offset=".773" stop-color="#0e71c6"/>
      <stop offset=".781" stop-color="#0d70c5"/>
      <stop offset=".789" stop-color="#0c70c5"/>
      <stop offset=".797" stop-color="#0c6fc4"/>
      <stop offset=".805" stop-color="#0b6ec3"/>
      <stop offset=".813" stop-color="#0a6dc3"/>
      <stop offset=".82" stop-color="#096dc2"/>
      <stop offset=".828" stop-color="#086cc1"/>
      <stop offset=".836" stop-color="#086bc1"/>
      <stop offset=".844" stop-color="#076bc0"/>
      <stop offset=".852" stop-color="#066abf"/>
      <stop offset=".859" stop-color="#0569bf"/>
      <stop offset=".867" stop-color="#0568be"/>
      <stop offset=".875" stop-color="#0468bd"/>
      <stop offset=".883" stop-color="#0367bd"/>
      <stop offset=".891" stop-color="#0266bc"/>
      <stop offset=".898" stop-color="#0265bb"/>
      <stop offset=".906" stop-color="#0165bb"/>
      <stop offset=".938" stop-color="#0064ba"/>
      <stop offset="1" stop-color="#0064ba"/>
    </linearGradient>
    <linearGradient id="d" x1="-17.354" y1="751.437" x2="-15.53" y2="751.437" gradientTransform="matrix(15.6058 0 0 -1.5027 427.644 1206.121)" gradientUnits="userSpaceOnUse">
      <stop offset="0" stop-color="#ff6f6a"/>
      <stop offset=".125" stop-color="#ff6f6a"/>
      <stop offset=".188" stop-color="#ff6f6a"/>
      <stop offset=".219" stop-color="#ff6f6a"/>
      <stop offset=".227" stop-color="#ff6f6a"/>
      <stop offset=".231" stop-color="#fe6e69"/>
      <stop offset=".234" stop-color="#fe6d69"/>
      <stop offset=".238" stop-color="#fe6c68"/>
      <stop offset=".242" stop-color="#fd6c68"/>
      <stop offset=".246" stop-color="#fd6b67"/>
      <stop offset=".25" stop-color="#fc6a67"/>
      <stop offset=".254" stop-color="#fc6966"/>
      <stop offset=".258" stop-color="#fb6966"/>
      <stop offset=".262" stop-color="#fb6865"/>
      <stop offset=".266" stop-color="#fa6765"/>
      <stop offset=".27" stop-color="#fa6665"/>
      <stop offset=".273" stop-color="#f96564"/>
      <stop offset=".277" stop-color="#f96564"/>
      <stop offset=".281" stop-color="#f96463"/>
      <stop offset=".285" stop-color="#f86363"/>
      <stop offset=".289" stop-color="#f86262"/>
      <stop offset=".293" stop-color="#f76162"/>
      <stop offset=".297" stop-color="#f76161"/>
      <stop offset=".301" stop-color="#f66061"/>
      <stop offset=".305" stop-color="#f65f60"/>
      <stop offset=".309" stop-color="#f55e60"/>
      <stop offset=".313" stop-color="#f55d5f"/>
      <stop offset=".316" stop-color="#f45d5f"/>
      <stop offset=".32" stop-color="#f45c5e"/>
      <stop offset=".324" stop-color="#f45b5e"/>
      <stop offset=".328" stop-color="#f35a5d"/>
      <stop offset=".332" stop-color="#f35a5d"/>
      <stop offset=".336" stop-color="#f2595c"/>
      <stop offset=".34" stop-color="#f2585c"/>
      <stop offset=".344" stop-color="#f1575b"/>
      <stop offset=".348" stop-color="#f1565b"/>
      <stop offset=".352" stop-color="#f0565a"/>
      <stop offset=".355" stop-color="#f0555a"/>
      <stop offset=".359" stop-color="#ef5459"/>
      <stop offset=".363" stop-color="#ef5359"/>
      <stop offset=".367" stop-color="#ef5258"/>
      <stop offset=".371" stop-color="#ee5258"/>
      <stop offset=".375" stop-color="#ee5157"/>
      <stop offset=".379" stop-color="#ed5057"/>
      <stop offset=".383" stop-color="#ed4f56"/>
      <stop offset=".387" stop-color="#ec4e56"/>
      <stop offset=".391" stop-color="#ec4e55"/>
      <stop offset=".395" stop-color="#eb4d55"/>
      <stop offset=".398" stop-color="#eb4c54"/>
      <stop offset=".402" stop-color="#ea4b54"/>
      <stop offset=".406" stop-color="#ea4a53"/>
      <stop offset=".41" stop-color="#e94a53"/>
      <stop offset=".414" stop-color="#e94952"/>
      <stop offset=".418" stop-color="#e94852"/>
      <stop offset=".422" stop-color="#e84751"/>
      <stop offset=".426" stop-color="#e84751"/>
      <stop offset=".43" stop-color="#e74650"/>
      <stop offset=".434" stop-color="#e74550"/>
      <stop offset=".438" stop-color="#e6444f"/>
      <stop offset=".441" stop-color="#e6434f"/>
      <stop offset=".445" stop-color="#e5434e"/>
      <stop offset=".449" stop-color="#e5424e"/>
      <stop offset=".453" stop-color="#e4414d"/>
      <stop offset=".457" stop-color="#e4404d"/>
      <stop offset=".461" stop-color="#e43f4c"/>
      <stop offset=".465" stop-color="#e33f4c"/>
      <stop offset=".469" stop-color="#e33e4b"/>
      <stop offset=".473" stop-color="#e23d4b"/>
      <stop offset=".477" stop-color="#e23c4a"/>
      <stop offset=".48" stop-color="#e13b4a"/>
      <stop offset=".484" stop-color="#e13b49"/>
      <stop offset=".488" stop-color="#e03a49"/>
      <stop offset=".492" stop-color="#e03948"/>
      <stop offset=".496" stop-color="#df3848"/>
      <stop offset=".5" stop-color="#df3848"/>
      <stop offset=".504" stop-color="#df3747"/>
      <stop offset=".508" stop-color="#de3647"/>
      <stop offset=".512" stop-color="#de3546"/>
      <stop offset=".516" stop-color="#dd3446"/>
      <stop offset=".519" stop-color="#dd3445"/>
      <stop offset=".523" stop-color="#dc3345"/>
      <stop offset=".527" stop-color="#dc3244"/>
      <stop offset=".531" stop-color="#db3144"/>
      <stop offset=".535" stop-color="#db3043"/>
      <stop offset=".539" stop-color="#da3043"/>
      <stop offset=".543" stop-color="#da2f42"/>
      <stop offset=".547" stop-color="#da2e42"/>
      <stop offset=".551" stop-color="#d92d41"/>
      <stop offset=".555" stop-color="#d92c41"/>
      <stop offset=".559" stop-color="#d82c40"/>
      <stop offset=".563" stop-color="#d82b40"/>
      <stop offset=".566" stop-color="#d72a3f"/>
      <stop offset=".57" stop-color="#d7293f"/>
      <stop offset=".574" stop-color="#d6283e"/>
      <stop offset=".578" stop-color="#d6283e"/>
      <stop offset=".582" stop-color="#d5273d"/>
      <stop offset=".586" stop-color="#d5263d"/>
      <stop offset=".59" stop-color="#d5253c"/>
      <stop offset=".594" stop-color="#d4253c"/>
      <stop offset=".598" stop-color="#d4243b"/>
      <stop offset=".602" stop-color="#d3233b"/>
      <stop offset=".606" stop-color="#d3223a"/>
      <stop offset=".609" stop-color="#d2213a"/>
      <stop offset=".613" stop-color="#d22139"/>
      <stop offset=".617" stop-color="#d12039"/>
      <stop offset=".621" stop-color="#d11f38"/>
      <stop offset=".625" stop-color="#d01e38"/>
      <stop offset=".629" stop-color="#d01d37"/>
      <stop offset=".633" stop-color="#cf1d37"/>
      <stop offset=".637" stop-color="#cf1c36"/>
      <stop offset=".641" stop-color="#cf1b36"/>
      <stop offset=".644" stop-color="#ce1a35"/>
      <stop offset=".648" stop-color="#ce1935"/>
      <stop offset=".652" stop-color="#cd1934"/>
      <stop offset=".656" stop-color="#cd1834"/>
      <stop offset=".66" stop-color="#cc1733"/>
      <stop offset=".664" stop-color="#cc1633"/>
      <stop offset=".668" stop-color="#cb1532"/>
      <stop offset=".672" stop-color="#cb1532"/>
      <stop offset=".676" stop-color="#ca1431"/>
      <stop offset=".68" stop-color="#ca1331"/>
      <stop offset=".684" stop-color="#ca1230"/>
      <stop offset=".688" stop-color="#c91230"/>
      <stop offset=".691" stop-color="#c9112f"/>
      <stop offset=".695" stop-color="#c8102f"/>
      <stop offset=".699" stop-color="#c80f2e"/>
      <stop offset=".703" stop-color="#c70e2e"/>
      <stop offset=".707" stop-color="#c70e2d"/>
      <stop offset=".711" stop-color="#c60d2d"/>
      <stop offset=".715" stop-color="#c60c2c"/>
      <stop offset=".719" stop-color="#c50b2c"/>
      <stop offset=".723" stop-color="#c50a2b"/>
      <stop offset=".727" stop-color="#c50a2b"/>
      <stop offset=".731" stop-color="#c4092a"/>
      <stop offset=".734" stop-color="#c4082a"/>
      <stop offset=".738" stop-color="#c3072a"/>
      <stop offset=".742" stop-color="#c30629"/>
      <stop offset=".746" stop-color="#c20629"/>
      <stop offset=".75" stop-color="#c20528"/>
      <stop offset=".754" stop-color="#c10428"/>
      <stop offset=".758" stop-color="#c10327"/>
      <stop offset=".762" stop-color="#c00327"/>
      <stop offset=".766" stop-color="#c00226"/>
      <stop offset=".769" stop-color="#c00126"/>
      <stop offset=".773" stop-color="#bf0025"/>
      <stop offset=".781" stop-color="#bf0025"/>
      <stop offset=".813" stop-color="#bf0025"/>
      <stop offset=".875" stop-color="#bf0025"/>
      <stop offset="1" stop-color="#bf0025"/>
    </linearGradient>
  </defs>
  <path d="M80.397 17.963h-.985v-7.47h.985Zm1.597-2.813a3.27 3.27 0 0 1 .609-2.062 2.047 2.047 0 0 1 3.125-.11v-2.89h.953v7.875h-.875l-.047-.594a2.037 2.037 0 0 1-3.156-.094 3.3 3.3 0 0 1-.61-2.062Zm.953.094a2.45 2.45 0 0 0 .39 1.484 1.25 1.25 0 0 0 1.079.531 1.39 1.39 0 0 0 1.312-.812V13.9a1.4 1.4 0 0 0-1.312-.781 1.25 1.25 0 0 0-1.079.547 2.65 2.65 0 0 0-.39 1.578Zm6.423 2.719h-.953v-7.876h.953Zm4.013.109a2.4 2.4 0 0 1-1.828-.734 2.8 2.8 0 0 1-.703-2v-.172a3.3 3.3 0 0 1 .312-1.47 2.4 2.4 0 0 1 .875-1.015 2.2 2.2 0 0 1 1.235-.375 2.06 2.06 0 0 1 1.672.719 3.1 3.1 0 0 1 .609 2.047v.39h-3.766a2.04 2.04 0 0 0 .485 1.329 1.5 1.5 0 0 0 1.172.5 1.63 1.63 0 0 0 .843-.204 2.2 2.2 0 0 0 .61-.546l.578.453a2.32 2.32 0 0 1-2.094 1.078Zm-.11-4.984a1.26 1.26 0 0 0-.968.421 2.04 2.04 0 0 0-.484 1.172h2.78v-.078a1.84 1.84 0 0 0-.39-1.11 1.17 1.17 0 0 0-.937-.405Zm24.577 4.875h-.953v-6.329l-1.906.703v-.859l2.719-1.016h.14Zm6.601-3.282a2.25 2.25 0 0 1-.719.578 1.96 1.96 0 0 1-.89.203 1.97 1.97 0 0 1-1.875-1.203 3.2 3.2 0 0 1-.25-1.28 3.1 3.1 0 0 1 .281-1.345 2.06 2.06 0 0 1 .797-.922 2.4 2.4 0 0 1 1.234-.312 2.06 2.06 0 0 1 1.735.828 3.6 3.6 0 0 1 .64 2.25v.281a4.9 4.9 0 0 1-.86 3.188 3.26 3.26 0 0 1-2.593 1.016h-.187v-.797h.203a2.54 2.54 0 0 0 1.797-.61 2.58 2.58 0 0 0 .687-1.875Zm-1.453 0a1.5 1.5 0 0 0 .875-.281 1.74 1.74 0 0 0 .594-.734v-.375a2.6 2.6 0 0 0-.406-1.516 1.22 1.22 0 0 0-1.032-.594 1.2 1.2 0 0 0-1 .485 2 2 0 0 0-.375 1.265 2.1 2.1 0 0 0 .36 1.266 1.15 1.15 0 0 0 .984.484Zm4.351-.468.375-3.72h3.828v.876h-3.031l-.22 2.047a2.4 2.4 0 0 1 1.25-.328 2.05 2.05 0 0 1 1.61.671 2.62 2.62 0 0 1 .61 1.829 2.58 2.58 0 0 1-.625 1.828 2.3 2.3 0 0 1-1.735.656 2.36 2.36 0 0 1-1.625-.547 2.2 2.2 0 0 1-.703-1.531h.89a1.55 1.55 0 0 0 .454.969 1.44 1.44 0 0 0 .984.328 1.26 1.26 0 0 0 1.031-.453 1.9 1.9 0 0 0 .375-1.25 1.75 1.75 0 0 0-.406-1.204 1.39 1.39 0 0 0-1.078-.453 1.55 1.55 0 0 0-.984.282l-.25.203Zm5.71 3.25a.6.6 0 0 1 .14-.407.56.56 0 0 1 .438-.172.6.6 0 0 1 .453.172.57.57 0 0 1 .156.406.6.6 0 0 1-.156.407.63.63 0 0 1-.453.156.6.6 0 0 1-.438-.156.62.62 0 0 1-.14-.407Zm0-4.532a.6.6 0 0 1 .14-.406.56.56 0 0 1 .438-.172.6.6 0 0 1 .453.172.57.57 0 0 1 .156.406.6.6 0 0 1-.156.406.6.6 0 0 1-.453.157.58.58 0 0 1-.438-.157.62.62 0 0 1-.14-.406Zm4.044.844h.719a1.53 1.53 0 0 0 1.047-.36 1.17 1.17 0 0 0 .39-.921 1.16 1.16 0 0 0-1.312-1.313 1.37 1.37 0 0 0-.985.36 1.2 1.2 0 0 0-.359.921h-.953a1.89 1.89 0 0 1 .64-1.468 2.38 2.38 0 0 1 1.657-.594 2.32 2.32 0 0 1 1.656.563 2 2 0 0 1 .594 1.546 1.63 1.63 0 0 1-.313.938 1.95 1.95 0 0 1-.859.687 1.77 1.77 0 0 1 .953.641 1.8 1.8 0 0 1 .344 1.11 2.04 2.04 0 0 1-.656 1.593 2.45 2.45 0 0 1-1.72.594 2.52 2.52 0 0 1-1.702-.563 1.92 1.92 0 0 1-.657-1.515h.954a1.25 1.25 0 0 0 .375.953 1.5 1.5 0 0 0 1.03.344 1.4 1.4 0 0 0 1.048-.36 1.36 1.36 0 0 0 .375-1.031 1.24 1.24 0 0 0-.407-1 1.76 1.76 0 0 0-1.14-.36h-.719Zm9.601 4.188h-4.89v-.688l2.577-2.86a6.5 6.5 0 0 0 .797-1.062 1.76 1.76 0 0 0 .219-.844 1.3 1.3 0 0 0-.36-.953 1.25 1.25 0 0 0-.937-.375 1.47 1.47 0 0 0-1.11.406 1.5 1.5 0 0 0-.39 1.11h-.938a2.18 2.18 0 0 1 .657-1.656 2.47 2.47 0 0 1 1.781-.641 2.37 2.37 0 0 1 1.64.547 1.87 1.87 0 0 1 .61 1.453 4.3 4.3 0 0 1-1.406 2.625l-2 2.156h3.75Zm2.241-4.875a2 2 0 0 1 1.64-.782q1.748.002 1.766 1.985v3.671h-.953v-3.671a1.25 1.25 0 0 0-.265-.875 1.1 1.1 0 0 0-.844-.297 1.4 1.4 0 0 0-.813.25 1.53 1.53 0 0 0-.531.64v3.953h-.953v-7.875h.953ZM46.244 36.166v2.922h-.985v-7.47h2.766a2.75 2.75 0 0 1 1.906.626 2.357 2.357 0 0 1 .016 3.344 2.88 2.88 0 0 1-1.938.578Zm0-.813h1.781a1.8 1.8 0 0 0 1.203-.36 1.37 1.37 0 0 0 .422-1.077 1.38 1.38 0 0 0-.422-1.063 1.67 1.67 0 0 0-1.156-.422h-1.828Zm8.376-.969a4 4 0 0 0-.47-.03 1.24 1.24 0 0 0-1.265.796v3.938h-.953V33.54h.922l.015.64a1.48 1.48 0 0 1 1.328-.75 1 1 0 0 1 .422.078Zm.699 1.876a3.25 3.25 0 0 1 .312-1.454 2.5 2.5 0 0 1 .89-1.015 2.43 2.43 0 0 1 1.313-.36 2.32 2.32 0 0 1 1.828.797 3 3 0 0 1 .704 2.078v.063a3.4 3.4 0 0 1-.313 1.468 2.38 2.38 0 0 1-2.203 1.36 2.35 2.35 0 0 1-1.844-.781 3.07 3.07 0 0 1-.687-2.094Zm.953.109a2.4 2.4 0 0 0 .422 1.484 1.39 1.39 0 0 0 1.156.563 1.36 1.36 0 0 0 1.14-.563 2.65 2.65 0 0 0 .422-1.594 2.35 2.35 0 0 0-.437-1.468 1.35 1.35 0 0 0-1.14-.578 1.37 1.37 0 0 0-1.141.562 2.6 2.6 0 0 0-.422 1.594Zm5.24-.094a3.27 3.27 0 0 1 .609-2.062 2.046 2.046 0 0 1 3.125-.11v-2.89h.953v7.874h-.875l-.047-.593a2.037 2.037 0 0 1-3.156-.094 3.3 3.3 0 0 1-.61-2.062Zm.953.094a2.45 2.45 0 0 0 .39 1.484 1.25 1.25 0 0 0 1.078.531 1.39 1.39 0 0 0 1.313-.812v-2.547a1.4 1.4 0 0 0-1.312-.781 1.25 1.25 0 0 0-1.079.547 2.65 2.65 0 0 0-.39 1.578Zm8.814 2.171a2 2 0 0 1-1.626.657 1.74 1.74 0 0 1-1.359-.516 2.24 2.24 0 0 1-.453-1.531v-3.61h.938v3.579q0 1.265 1.03 1.265a1.4 1.4 0 0 0 1.438-.812V33.54h.953v5.547h-.906Zm4.774-.124a1.4 1.4 0 0 0 .89-.297 1.13 1.13 0 0 0 .422-.782h.89a1.67 1.67 0 0 1-.327.922 2.2 2.2 0 0 1-.813.688 2.4 2.4 0 0 1-1.062.25 2.29 2.29 0 0 1-1.797-.75 3.03 3.03 0 0 1-.672-2.078v-.157a3.3 3.3 0 0 1 .297-1.437 2.2 2.2 0 0 1 .844-.984 2.4 2.4 0 0 1 1.328-.36 2.2 2.2 0 0 1 1.547.563 1.98 1.98 0 0 1 .656 1.453h-.89a1.3 1.3 0 0 0-.423-.875 1.22 1.22 0 0 0-.89-.36 1.34 1.34 0 0 0-1.125.532 2.44 2.44 0 0 0-.39 1.5v.172a2.4 2.4 0 0 0 .39 1.484 1.32 1.32 0 0 0 1.125.516Zm4.747-6.219v1.344h1.047v.734H80.8v3.438a.77.77 0 0 0 .14.5.56.56 0 0 0 .47.171 2 2 0 0 0 .453-.062v.765a2.7 2.7 0 0 1-.72.11 1.19 1.19 0 0 1-.968-.39 1.7 1.7 0 0 1-.312-1.095v-3.437h-1.016v-.734h1.016v-1.344Zm3.359 6.891h-.953V33.54h.953Zm-1.032-7.016a.56.56 0 0 1 .141-.39.65.65 0 0 1 .844 0 .56.56 0 0 1 .14.39.56.56 0 0 1-.14.39.7.7 0 0 1-.844 0 .56.56 0 0 1-.14-.39Zm4.566 5.734 1.375-4.265h.969l-1.985 5.547h-.734l-2-5.547h.969Zm5.68 1.391a2.4 2.4 0 0 1-1.828-.735 2.8 2.8 0 0 1-.703-2v-.171a3.3 3.3 0 0 1 .313-1.47 2.4 2.4 0 0 1 .875-1.015 2.2 2.2 0 0 1 1.234-.375 2.06 2.06 0 0 1 1.672.719 3.1 3.1 0 0 1 .61 2.047v.39H91.78a2.04 2.04 0 0 0 .484 1.329 1.5 1.5 0 0 0 1.172.5 1.63 1.63 0 0 0 .844-.203 2.2 2.2 0 0 0 .61-.547l.578.453a2.32 2.32 0 0 1-2.095 1.078Zm-.109-4.985a1.26 1.26 0 0 0-.969.422 2.04 2.04 0 0 0-.484 1.172h2.781v-.078a1.84 1.84 0 0 0-.39-1.11 1.17 1.17 0 0 0-.938-.406Zm24.587 4.876h-.953v-6.329l-1.906.703v-.859l2.719-1.016h.14Zm4.351-4.188h.719a1.53 1.53 0 0 0 1.047-.36 1.304 1.304 0 0 0-.922-2.234 1.37 1.37 0 0 0-.985.36 1.2 1.2 0 0 0-.359.922h-.953a1.89 1.89 0 0 1 .64-1.47 2.38 2.38 0 0 1 1.657-.593 2.32 2.32 0 0 1 1.656.563 2 2 0 0 1 .594 1.546 1.63 1.63 0 0 1-.313.938 1.95 1.95 0 0 1-.86.687 1.77 1.77 0 0 1 .954.641 1.8 1.8 0 0 1 .344 1.11 2.04 2.04 0 0 1-.656 1.593 2.45 2.45 0 0 1-1.72.594 2.52 2.52 0 0 1-1.702-.563 1.92 1.92 0 0 1-.657-1.515h.954a1.25 1.25 0 0 0 .375.953 1.5 1.5 0 0 0 1.03.344 1.4 1.4 0 0 0 1.048-.36 1.36 1.36 0 0 0 .375-1.031 1.24 1.24 0 0 0-.407-1 1.76 1.76 0 0 0-1.14-.36h-.719Zm5.148.438.375-3.72h3.828v.876h-3.031l-.219 2.047a2.4 2.4 0 0 1 1.25-.328 2.05 2.05 0 0 1 1.61.671 2.62 2.62 0 0 1 .609 1.828 2.58 2.58 0 0 1-.625 1.829 2.3 2.3 0 0 1-1.735.656 2.36 2.36 0 0 1-1.625-.547 2.2 2.2 0 0 1-.703-1.531h.891a1.55 1.55 0 0 0 .453.968 1.44 1.44 0 0 0 .985.329 1.26 1.26 0 0 0 1.03-.453 1.9 1.9 0 0 0 .376-1.25 1.75 1.75 0 0 0-.407-1.204 1.39 1.39 0 0 0-1.078-.453 1.55 1.55 0 0 0-.984.281l-.25.204Zm5.71 3.25a.6.6 0 0 1 .14-.407.56.56 0 0 1 .438-.172.6.6 0 0 1 .453.172.57.57 0 0 1 .157.406.6.6 0 0 1-.157.407.63.63 0 0 1-.453.156.6.6 0 0 1-.437-.156.62.62 0 0 1-.141-.407Zm0-4.532a.6.6 0 0 1 .14-.406.56.56 0 0 1 .438-.172.6.6 0 0 1 .453.172.57.57 0 0 1 .156.406.6.6 0 0 1-.156.406.6.6 0 0 1-.454.157.58.58 0 0 1-.437-.157.62.62 0 0 1-.14-.406Zm6.669 2.532h1.031v.765h-1.031v1.734h-.953v-1.734h-3.406v-.562l3.344-5.172h1.015Zm-3.281 0h2.328v-3.672l-.11.203Zm9.366 0h1.031v.765h-1.031v1.734h-.953v-1.734h-3.406v-.562l3.343-5.172h1.016Zm-3.281 0h2.328v-3.672l-.11.203Zm6.413-2.375a2 2 0 0 1 1.64-.782q1.747.002 1.766 1.985v3.672h-.953v-3.672a1.25 1.25 0 0 0-.266-.875 1.1 1.1 0 0 0-.843-.297 1.4 1.4 0 0 0-.813.25 1.53 1.53 0 0 0-.531.64v3.953h-.953v-7.875h.953Zm-75.324 26h-1l-3.75-5.75v5.75h-1v-7.47h1l3.765 5.782v-5.781h.985Zm4.081.109a2.4 2.4 0 0 1-1.829-.735 2.8 2.8 0 0 1-.703-2v-.171a3.3 3.3 0 0 1 .313-1.47 2.4 2.4 0 0 1 .875-1.015 2.2 2.2 0 0 1 1.234-.375 2.06 2.06 0 0 1 1.672.719 3.1 3.1 0 0 1 .61 2.047v.39h-3.766a2.04 2.04 0 0 0 .484 1.329 1.5 1.5 0 0 0 1.172.5 1.6 1.6 0 0 0 .844-.203 2.2 2.2 0 0 0 .61-.547l.577.453a2.32 2.32 0 0 1-2.094 1.078Zm-.11-4.985a1.26 1.26 0 0 0-.969.422 2.04 2.04 0 0 0-.484 1.172h2.781v-.078a1.84 1.84 0 0 0-.39-1.11 1.17 1.17 0 0 0-.938-.406Zm6.987 4.329a2 2 0 0 1-1.626.656 1.74 1.74 0 0 1-1.36-.516 2.24 2.24 0 0 1-.452-1.531v-3.61h.937v3.579q0 1.265 1.032 1.265a1.4 1.4 0 0 0 1.437-.812v-4.031h.953v5.547h-.906Zm3.836-6.344v1.344h1.047v.734h-1.047v3.438a.77.77 0 0 0 .14.5.56.56 0 0 0 .47.171 2 2 0 0 0 .452-.062v.765a2.7 2.7 0 0 1-.718.11 1.19 1.19 0 0 1-.97-.39 1.7 1.7 0 0 1-.312-1.095V55.4h-1.015v-.734h1.015v-1.344Zm5.014 2.188a4 4 0 0 0-.468-.032 1.24 1.24 0 0 0-1.266.797v3.938h-.953v-5.547h.922l.016.64a1.48 1.48 0 0 1 1.328-.75 1 1 0 0 1 .422.078Zm4.288 4.703a2 2 0 0 1-.125-.579 2.13 2.13 0 0 1-1.578.688 1.97 1.97 0 0 1-1.36-.469 1.52 1.52 0 0 1-.515-1.172 1.55 1.55 0 0 1 .656-1.344 3.1 3.1 0 0 1 1.86-.484h.921v-.437a1.1 1.1 0 0 0-.297-.797 1.23 1.23 0 0 0-.89-.297 1.34 1.34 0 0 0-.844.265.74.74 0 0 0-.344.61h-.953a1.3 1.3 0 0 1 .297-.797 2 2 0 0 1 .797-.61 2.6 2.6 0 0 1 1.11-.234 2.2 2.2 0 0 1 1.5.485 1.74 1.74 0 0 1 .562 1.328v2.547a3 3 0 0 0 .203 1.218v.078Zm-1.578-.72a1.6 1.6 0 0 0 .844-.234 1.47 1.47 0 0 0 .594-.593v-1.141h-.75q-1.753 0-1.75 1.016a.86.86 0 0 0 .296.703 1.17 1.17 0 0 0 .766.25Zm5.077.72h-.953v-7.876h.953Zm24.5 0h-4.89v-.688l2.577-2.86a6.5 6.5 0 0 0 .797-1.062 1.8 1.8 0 0 0 .22-.844 1.3 1.3 0 0 0-.36-.953 1.25 1.25 0 0 0-.938-.375 1.47 1.47 0 0 0-1.11.406 1.5 1.5 0 0 0-.39 1.11h-.937a2.18 2.18 0 0 1 .656-1.656 2.47 2.47 0 0 1 1.781-.641 2.37 2.37 0 0 1 1.64.547 1.87 1.87 0 0 1 .61 1.453 4.3 4.3 0 0 1-1.406 2.625l-2 2.156h3.75Zm1.632-3.75.375-3.72h3.828v.876h-3.031l-.219 2.047a2.4 2.4 0 0 1 1.25-.328 2.05 2.05 0 0 1 1.61.671 2.62 2.62 0 0 1 .609 1.828 2.58 2.58 0 0 1-.625 1.829 2.3 2.3 0 0 1-1.735.656 2.36 2.36 0 0 1-1.625-.547 2.2 2.2 0 0 1-.703-1.531h.89a1.55 1.55 0 0 0 .454.968 1.44 1.44 0 0 0 .984.329 1.26 1.26 0 0 0 1.032-.453 1.9 1.9 0 0 0 .375-1.25 1.75 1.75 0 0 0-.407-1.204 1.39 1.39 0 0 0-1.078-.453 1.55 1.55 0 0 0-.984.281l-.25.204Zm5.71 3.25a.6.6 0 0 1 .14-.407.56.56 0 0 1 .438-.172.6.6 0 0 1 .453.172.57.57 0 0 1 .156.406.6.6 0 0 1-.156.407.63.63 0 0 1-.453.156.6.6 0 0 1-.437-.156.62.62 0 0 1-.141-.407Zm0-4.532a.6.6 0 0 1 .14-.406.56.56 0 0 1 .438-.172.6.6 0 0 1 .453.172.57.57 0 0 1 .156.406.6.6 0 0 1-.156.406.6.6 0 0 1-.453.157.58.58 0 0 1-.437-.157.62.62 0 0 1-.141-.406Zm7.341 1.844a4.3 4.3 0 0 1-.578 2.484 2 2 0 0 1-1.766.813 2.03 2.03 0 0 1-1.765-.797 4.07 4.07 0 0 1-.594-2.375v-1.266a4.25 4.25 0 0 1 .562-2.437 2.404 2.404 0 0 1 3.547-.031 4.05 4.05 0 0 1 .594 2.375Zm-.937-1.297a3.44 3.44 0 0 0-.344-1.75 1.19 1.19 0 0 0-1.078-.547 1.17 1.17 0 0 0-1.063.547 3.45 3.45 0 0 0-.344 1.688v1.515a3.56 3.56 0 0 0 .344 1.781 1.18 1.18 0 0 0 1.078.579 1.15 1.15 0 0 0 1.047-.547 3.4 3.4 0 0 0 .36-1.703Zm6.35 1.985h1.032v.765h-1.032v1.734h-.953v-1.734h-3.406v-.562l3.344-5.172h1.015Zm-3.28 0h2.327V54.04l-.11.203Zm6.412-2.375a2 2 0 0 1 1.64-.782q1.748.002 1.766 1.985v3.672h-.953V56.54a1.25 1.25 0 0 0-.265-.875 1.1 1.1 0 0 0-.844-.297 1.4 1.4 0 0 0-.813.25 1.53 1.53 0 0 0-.53.64v3.953h-.954v-7.875h.953ZM44.375 73.881v5.078a2.43 2.43 0 0 1-.672 1.735 2.65 2.65 0 0 1-1.781.75l-.266.015a2.82 2.82 0 0 1-1.953-.656 2.4 2.4 0 0 1-.734-1.828v-5.094h.969v5.063a1.74 1.74 0 0 0 .437 1.265 1.76 1.76 0 0 0 1.281.438 1.73 1.73 0 0 0 1.282-.438 1.75 1.75 0 0 0 .437-1.265V73.88Zm2.482 1.922.031.703a2.03 2.03 0 0 1 1.672-.812c1.164 0 1.754.664 1.766 1.984v3.672h-.953v-3.672a1.25 1.25 0 0 0-.266-.875 1.1 1.1 0 0 0-.844-.297 1.4 1.4 0 0 0-.812.25 1.53 1.53 0 0 0-.532.64v3.954h-.953v-5.547Zm9.779 2.828a3.37 3.37 0 0 1-.578 2.047 1.86 1.86 0 0 1-1.578.781 2 2 0 0 1-1.578-.64v2.672h-.953v-7.688h.86l.046.61a1.95 1.95 0 0 1 1.61-.72 1.88 1.88 0 0 1 1.577.766 3.3 3.3 0 0 1 .594 2.094Zm-.953-.094a2.4 2.4 0 0 0-.406-1.484 1.27 1.27 0 0 0-1.094-.547 1.38 1.38 0 0 0-1.281.766v2.64a1.38 1.38 0 0 0 1.297.766 1.26 1.26 0 0 0 1.078-.531 2.68 2.68 0 0 0 .406-1.61Zm5.023-1.89a4 4 0 0 0-.47-.031 1.244 1.244 0 0 0-1.265.797v3.937h-.953v-5.547h.922l.016.64a1.48 1.48 0 0 1 1.328-.75 1 1 0 0 1 .422.079Zm.699 1.875a3.25 3.25 0 0 1 .313-1.453 2.5 2.5 0 0 1 .89-1.016 2.43 2.43 0 0 1 1.313-.36 2.32 2.32 0 0 1 1.828.798 3 3 0 0 1 .703 2.078v.062a3.4 3.4 0 0 1-.312 1.469 2.38 2.38 0 0 1-2.203 1.36 2.35 2.35 0 0 1-1.844-.782 3.07 3.07 0 0 1-.687-2.094Zm.953.11a2.4 2.4 0 0 0 .422 1.484 1.39 1.39 0 0 0 1.156.562 1.36 1.36 0 0 0 1.141-.562 2.65 2.65 0 0 0 .422-1.594 2.35 2.35 0 0 0-.438-1.469 1.35 1.35 0 0 0-1.14-.578 1.37 1.37 0 0 0-1.14.563 2.6 2.6 0 0 0-.423 1.593Zm5.24-.094a3.27 3.27 0 0 1 .61-2.063 2.047 2.047 0 0 1 3.124-.11v-2.89h.954v7.875h-.875l-.047-.594a2.037 2.037 0 0 1-3.157-.094 3.3 3.3 0 0 1-.609-2.062Zm.953.093a2.45 2.45 0 0 0 .39 1.485 1.25 1.25 0 0 0 1.079.53 1.39 1.39 0 0 0 1.312-.812v-2.547a1.4 1.4 0 0 0-1.312-.78 1.25 1.25 0 0 0-1.078.546 2.65 2.65 0 0 0-.39 1.578Zm8.814 2.172a2 2 0 0 1-1.625.656 1.74 1.74 0 0 1-1.36-.515 2.24 2.24 0 0 1-.453-1.532v-3.609h.938v3.578q0 1.266 1.031 1.266a1.4 1.4 0 0 0 1.438-.813v-4.03h.953v5.546h-.906Zm4.775-.125a1.4 1.4 0 0 0 .89-.297 1.13 1.13 0 0 0 .422-.781h.89a1.67 1.67 0 0 1-.328.922 2.2 2.2 0 0 1-.812.687 2.4 2.4 0 0 1-1.063.25 2.29 2.29 0 0 1-1.797-.75 3.03 3.03 0 0 1-.672-2.078v-.156a3.3 3.3 0 0 1 .297-1.437 2.2 2.2 0 0 1 .844-.985 2.4 2.4 0 0 1 1.328-.36 2.2 2.2 0 0 1 1.547.563 1.98 1.98 0 0 1 .656 1.453h-.89a1.3 1.3 0 0 0-.422-.875 1.22 1.22 0 0 0-.89-.359 1.34 1.34 0 0 0-1.126.531 2.44 2.44 0 0 0-.39 1.5v.172a2.4 2.4 0 0 0 .39 1.485 1.32 1.32 0 0 0 1.125.515Zm4.747-6.218v1.343h1.047v.735h-1.047v3.437a.77.77 0 0 0 .14.5.56.56 0 0 0 .47.172 2 2 0 0 0 .452-.063v.766a2.7 2.7 0 0 1-.718.11 1.19 1.19 0 0 1-.97-.391 1.7 1.7 0 0 1-.312-1.094v-3.437h-1.015v-.735h1.015V74.46Zm3.358 6.89h-.953v-5.547h.953Zm-1.031-7.016a.56.56 0 0 1 .14-.39.65.65 0 0 1 .844 0 .56.56 0 0 1 .14.39.56.56 0 0 1-.14.391.7.7 0 0 1-.843 0 .56.56 0 0 1-.141-.39Zm4.566 5.735 1.374-4.266h.969l-1.985 5.547h-.734l-2-5.547h.969Zm5.69 1.391a2.4 2.4 0 0 1-1.828-.735 2.8 2.8 0 0 1-.703-2v-.172a3.3 3.3 0 0 1 .312-1.469 2.4 2.4 0 0 1 .875-1.015 2.2 2.2 0 0 1 1.235-.375 2.06 2.06 0 0 1 1.671.719 3.1 3.1 0 0 1 .61 2.046v.391h-3.765a2.04 2.04 0 0 0 .484 1.328 1.5 1.5 0 0 0 1.172.5 1.63 1.63 0 0 0 .844-.203 2.2 2.2 0 0 0 .609-.547l.578.453a2.32 2.32 0 0 1-2.094 1.078Zm-.109-4.985a1.26 1.26 0 0 0-.969.422 2.04 2.04 0 0 0-.484 1.172h2.781v-.078a1.84 1.84 0 0 0-.39-1.11 1.17 1.17 0 0 0-.938-.406Zm26.139 1.688a4.3 4.3 0 0 1-.578 2.484 2 2 0 0 1-1.766.812 2.03 2.03 0 0 1-1.765-.797 4.07 4.07 0 0 1-.594-2.375v-1.265a4.25 4.25 0 0 1 .562-2.438 2.404 2.404 0 0 1 3.547-.03 4.05 4.05 0 0 1 .594 2.374Zm-.937-1.297a3.44 3.44 0 0 0-.344-1.75 1.19 1.19 0 0 0-1.078-.547 1.17 1.17 0 0 0-1.063.547 3.45 3.45 0 0 0-.344 1.687v1.516a3.56 3.56 0 0 0 .344 1.781 1.18 1.18 0 0 0 1.078.578 1.15 1.15 0 0 0 1.047-.547 3.4 3.4 0 0 0 .36-1.703Zm7.163-2.453-3.094 6.937h-.984l3.078-6.687h-4.047v-.782h5.047Zm1.334 6.437a.6.6 0 0 1 .142-.406.56.56 0 0 1 .437-.172.6.6 0 0 1 .453.172.57.57 0 0 1 .156.406.6.6 0 0 1-.156.406.63.63 0 0 1-.453.156.6.6 0 0 1-.437-.156.62.62 0 0 1-.141-.406Zm0-4.531a.6.6 0 0 1 .142-.407.56.56 0 0 1 .437-.171.6.6 0 0 1 .453.172.57.57 0 0 1 .156.406.6.6 0 0 1-.156.406.6.6 0 0 1-.453.156.58.58 0 0 1-.437-.156.62.62 0 0 1-.141-.406Zm4.035.844h.719a1.53 1.53 0 0 0 1.046-.36 1.304 1.304 0 0 0-.921-2.234 1.37 1.37 0 0 0-.985.36 1.2 1.2 0 0 0-.36.921h-.952a1.89 1.89 0 0 1 .64-1.469 2.38 2.38 0 0 1 1.657-.594 2.32 2.32 0 0 1 1.656.563 2 2 0 0 1 .594 1.547 1.63 1.63 0 0 1-.313.937 1.95 1.95 0 0 1-.86.688 1.77 1.77 0 0 1 .954.64 1.8 1.8 0 0 1 .344 1.11 2.04 2.04 0 0 1-.657 1.594 2.45 2.45 0 0 1-1.718.593 2.52 2.52 0 0 1-1.704-.562 1.92 1.92 0 0 1-.656-1.516h.953a1.25 1.25 0 0 0 .375.953 1.5 1.5 0 0 0 1.032.344 1.4 1.4 0 0 0 1.046-.36 1.36 1.36 0 0 0 .375-1.03 1.24 1.24 0 0 0-.406-1 1.76 1.76 0 0 0-1.14-.36h-.72Zm8.72 1.687h1.032v.766h-1.032v1.734h-.953v-1.734h-3.406v-.563l3.344-5.172h1.016Zm-3.28 0h2.327v-3.672l-.11.203Zm6.412-2.375a2 2 0 0 1 1.64-.781q1.748.002 1.767 1.984v3.672h-.954v-3.672a1.25 1.25 0 0 0-.266-.875 1.1 1.1 0 0 0-.843-.297 1.4 1.4 0 0 0-.813.25 1.53 1.53 0 0 0-.531.64v3.954h-.953v-7.875h.953Z" style="fill:#fff"/>
  <path d="M102.113 9.213v3l2 2-2 1.984v3.016h6v-3.016l-1.985-1.984 1.985-2v-3Z" style="fill:#ff9800"/>
  <path d="M105.113 30.338a4.97 4.97 0 0 0-4.985 5 4.93 4.93 0 0 0 2.469 4.328 4.94 4.94 0 0 0 2.516.672 4.87 4.87 0 0 0 2.5-.672 4.96 4.96 0 0 0 2.5-4.328 4.87 4.87 0 0 0-.672-2.5 5 5 0 0 0-1.828-1.829 4.87 4.87 0 0 0-2.5-.672Zm-1 7.5-2.485-2.5.703-.704 1.782 1.782 3.796-3.797.703.718Z" style="fill:#4caf50"/>
  <path d="M111.2 60.463a3.9 3.9 0 0 1-2-.532 4.07 4.07 0 0 1-1.469-1.469 4.004 4.004 0 0 1 1.469-5.468 3.998 3.998 0 0 1 5.469 5.468 3.99 3.99 0 0 1-3.469 2Zm0-9a5 5 0 0 0-1.906.374 4.88 4.88 0 0 0-2.703 2.72 5.03 5.03 0 0 0 0 3.812 5.04 5.04 0 0 0 4.609 3.093 4.9 4.9 0 0 0 1.906-.39 4.88 4.88 0 0 0 2.719-2.703 5.03 5.03 0 0 0 0-3.813 4.85 4.85 0 0 0-2.719-2.719 5 5 0 0 0-1.906-.375Z" style="fill:#2196f3"/>
  <path d="M111.7 78.084h-.984v-3h.984Zm0 2.016h-.984v-1h.984Zm-.5-7.5a5 5 0 0 0-1.906.375 4.88 4.88 0 0 0-2.703 2.719 5.03 5.03 0 0 0 0 3.812A5.04 5.04 0 0 0 111.2 82.6a4.9 4.9 0 0 0 1.906-.39 4.88 4.88 0 0 0 2.719-2.704 5.03 5.03 0 0 0 0-3.812 4.84 4.84 0 0 0-2.719-2.719 5 5 0 0 0-1.906-.375Z" style="fill:#ff5252"/>
  <path d="M163.25 15.14A142.86 142.86 0 1 1 20.39 158" style="fill:none;stroke-linecap:round;stroke-width:12.857562065124512px;stroke:url(#a)"/>
  <path d="M163.25 35.496a122.503 122.503 0 1 1-12.805 244.336" style="fill:none;stroke-linecap:round;stroke-width:12.857562065124512px;stroke:url(#b)"/>
  <path d="M163.25 55.856a102.13 102.13 0 0 1 58.586 18.472" style="fill:none;stroke-linecap:round;stroke-width:12.857562065124512px;stroke:url(#c)"/>
  <path d="M163.25 76.21a81.7 81.7 0 0 1 15.606 1.505" style="fill:none;stroke-linecap:round;stroke-width:12.857562065124512px;stroke:url(#d)"/>
</svg>
