<svg xmlns="http://www.w3.org/2000/svg" version="1.1" id="Layer_1" x="0" y="0" viewBox="0 0 584 700.3" xml:space="preserve">
  <style>
    .st1{enable-background:new}.st2{fill:#4d4d4d}.st3{stroke:#000;stroke-miterlimit:10}.st3,.st4{fill:none;stroke-width:12}.st4,.st6,.st7{stroke-miterlimit:10}.st4,.st6{stroke:#00a9f4}.st6,.st7{fill:#fff;stroke-width:2}.st7{stroke:#051c2c}
  </style>
  <g id="a"/>
  <g id="b">
    <g id="c">
      <g id="d">
        <g id="e"/>
      </g>
      <g id="f">
        <g id="g">
          <g id="h">
            <g id="i">
              <g id="j">
                <g id="k"/>
              </g>
            </g>
          </g>
        </g>
      </g>
    </g>
    <g id="l"/>
    <g id="m"/>
    <g id="n"/>
    <g id="o">
      <g id="p"/>
      <g id="q"/>
    </g>
    <g id="r">
      <g id="s"/>
    </g>
    <g id="t"/>
    <g id="u"/>
    <g id="v">
      <g id="w">
        <g id="x">
          <g id="y"/>
        </g>
        <g id="a_x60_"/>
      </g>
      <g id="aa"/>
      <path d="m45.52 198.99 246.21 142.15M45.52 483.29l246.21-142.15m0 284.3v-284.3m246.21 142.15L291.73 341.14m246.21-142.15L291.73 341.14m0 0V56.84" style="fill:none;stroke:#828d95;stroke-width:.5;stroke-miterlimit:10"/>
      <path d="M2.225 15.96H.064L4.331 3.716H6.78l4.231 12.244H8.778l-.954-2.863H3.197zm4.159-7.49c-.27-.918-.613-1.999-.864-2.899h-.019c-.252.899-.612 2.07-.9 3.043l-.81 2.646h3.421zm12.348-1.08-2.827 8.57h-2.143l-2.791-8.57h2.125l1.314 4.447c.27.882.468 1.71.468 1.71h.018s.18-.828.45-1.765l1.278-4.393zm9 6.626c-.378.594-1.53 2.16-4.033 2.16-2.539 0-4.267-1.8-4.267-4.573 0-2.646 1.818-4.411 4.213-4.411 2.737 0 4.051 1.891 4.051 4.52 0 .144-.018.378-.018.521H21.43c.144 1.171.864 2.179 2.376 2.179 1.548 0 2.233-1.044 2.503-1.477zm-6.248-3.314h4.177c-.054-1.116-.846-1.872-2.017-1.872-1.313 0-2.105.846-2.16 1.872M31.672 7.39v1.26c.162-.432.846-1.458 2.503-1.458.108 0 .144 0 .324.018v2.089a7 7 0 0 0-.576-.036c-1.099 0-1.71.396-2.017 1.152-.162.433-.234.937-.234 1.692v3.854H29.62V7.39zm11.108 6.679c0 .504.09.702.504.702h.126v1.242c-.234.055-.504.108-1.044.108-.756 0-1.278-.252-1.423-.883-.36.379-1.08.937-2.575.937-1.782 0-3.061-.864-3.061-2.61 0-2.053 1.584-2.467 4.159-2.899l.648-.107c.504-.09.685-.198.685-.576V9.91c0-.685-.468-1.099-1.549-1.099-1.134 0-1.71.505-1.729 1.459l-1.926-.055c0-2.124 1.62-2.971 3.745-2.971 1.98 0 3.439.666 3.439 2.593v4.232zm-1.98-1.17v-1.062a3.5 3.5 0 0 1-.738.252l-1.17.234c-.99.197-1.477.504-1.477 1.188 0 .721.504 1.135 1.477 1.135 1.061 0 1.908-.541 1.908-1.747m6.136 3.475c.09.792.45 1.549 1.927 1.549 1.548 0 2.125-.631 2.125-2.251v-.811h-.018c-.288.396-1.026 1.135-2.539 1.135-2.323 0-3.781-1.692-3.781-4.304 0-2.683 1.404-4.501 3.763-4.501 1.188 0 2.089.522 2.557 1.134V7.39h2.053v8.084c0 .918-.072 1.513-.27 2.053-.54 1.44-1.854 1.999-3.961 1.999-2.629 0-3.872-1.152-3.943-2.989zm1.945-7.418c-1.387 0-2.179.954-2.179 2.665 0 1.71.792 2.646 2.179 2.646 1.368 0 2.179-.99 2.179-2.646 0-1.639-.811-2.665-2.179-2.665m14.293 5.06c-.378.594-1.53 2.16-4.033 2.16-2.539 0-4.267-1.8-4.267-4.573 0-2.646 1.818-4.411 4.213-4.411 2.737 0 4.051 1.891 4.051 4.52 0 .144-.018.378-.018.521h-6.248c.144 1.171.864 2.179 2.376 2.179 1.549 0 2.233-1.044 2.503-1.477zm-6.248-3.314h4.177c-.053-1.116-.846-1.872-2.016-1.872-1.315 0-2.107.846-2.161 1.872m11.537 1.009c0-2.647 1.477-4.52 3.799-4.52 1.116 0 2.053.522 2.521 1.134V3.716h2.052V15.96h-2.052v-.9c-.541.666-1.369 1.116-2.521 1.116-2.286 0-3.799-1.891-3.799-4.465m4.231-2.755c-1.314 0-2.179 1.008-2.179 2.719 0 1.692.864 2.719 2.179 2.719 1.296 0 2.179-1.062 2.179-2.719 0-1.639-.882-2.719-2.179-2.719m8.64-3.151h-2.053V3.716h2.053zm0 10.155h-2.053V7.39h2.053zm7.885-6.14c-.594-.576-1.422-.954-2.413-.954-.811 0-1.405.288-1.405.828 0 .612.594.738 1.801.99l1.026.234c1.296.306 2.466.792 2.466 2.358 0 1.962-1.782 2.898-3.745 2.898-2.052 0-3.439-1.008-3.961-1.746l1.386-1.225c.486.648 1.314 1.278 2.629 1.278 1.026 0 1.621-.36 1.621-.973 0-.594-.486-.702-1.314-.882l-1.278-.271c-1.495-.323-2.665-.954-2.665-2.521 0-1.854 1.819-2.646 3.457-2.646 1.711 0 3.025.738 3.583 1.351zm8.028 6.212c-.396.09-.918.144-1.53.144-.828 0-1.692-.162-2.161-.738-.342-.414-.36-.9-.36-1.729V8.992H91.36V7.39h1.836V4.4l2.053-.45v3.44h1.999v1.603h-1.999v4.375c0 .486.072.72.234.882.162.181.504.234.864.234s.684-.036.9-.072zm8.64-1.963c0 .504.09.702.504.702h.126v1.242c-.234.055-.504.108-1.044.108-.756 0-1.279-.252-1.422-.883-.36.379-1.081.937-2.575.937-1.782 0-3.061-.864-3.061-2.61 0-2.053 1.584-2.467 4.159-2.899l.648-.107c.504-.09.684-.198.684-.576V9.91c0-.685-.468-1.099-1.548-1.099-1.134 0-1.71.505-1.729 1.459l-1.926-.055c0-2.124 1.62-2.971 3.745-2.971 1.98 0 3.439.666 3.439 2.593zm-1.981-1.17v-1.062a3.5 3.5 0 0 1-.738.252l-1.17.234c-.99.197-1.477.504-1.477 1.188 0 .721.504 1.135 1.477 1.135 1.062 0 1.908-.541 1.908-1.747m12.043 3.061h-2.052v-4.321c0-.648-.018-1.206-.144-1.639-.18-.612-.63-.99-1.513-.99-1.278 0-1.891.99-1.891 2.377v4.573h-2.053V7.39h2.053v1.116c.396-.757 1.369-1.314 2.665-1.314.972 0 1.782.288 2.358 1.062.396.558.576 1.206.576 2.862v4.844zm8.028-5.456c-.306-.918-.954-1.548-1.999-1.548-1.369 0-2.233 1.008-2.233 2.719s.882 2.719 2.233 2.719c1.17 0 1.747-.685 2.053-1.459l1.656.883c-.396.918-1.566 2.358-3.763 2.358-2.484 0-4.213-1.584-4.213-4.465s1.854-4.52 4.213-4.52c1.999 0 3.241 1.062 3.763 2.413zm11.088 3.512c-.378.594-1.53 2.16-4.033 2.16-2.539 0-4.267-1.8-4.267-4.573 0-2.646 1.818-4.411 4.213-4.411 2.737 0 4.051 1.891 4.051 4.52 0 .144-.018.378-.018.521h-6.248c.144 1.171.864 2.179 2.376 2.179 1.549 0 2.233-1.044 2.503-1.477zm-6.248-3.314h4.177c-.054-1.116-.846-1.872-2.017-1.872-1.314 0-2.106.846-2.16 1.872m16.813-1.71h-2.053v6.968h-2.053V8.992h-1.512V7.39h1.512V6.327c0-.756.09-1.206.252-1.603.36-.828 1.152-1.188 2.503-1.188.594 0 1.044.054 1.351.09v1.657c-.234-.019-.396-.036-.738-.036-.594 0-.937.071-1.134.342-.126.18-.18.45-.18.9v.9h2.053v1.603zm3.545-1.602v1.26c.162-.432.846-1.458 2.503-1.458.108 0 .144 0 .324.018v2.089a7 7 0 0 0-.576-.036c-1.099 0-1.711.396-2.017 1.152-.162.433-.234.937-.234 1.692v3.854h-2.053V7.39zm7.938-.199c2.611 0 4.285 1.765 4.285 4.52 0 2.736-1.656 4.465-4.285 4.465s-4.285-1.729-4.285-4.465c0-2.755 1.674-4.52 4.285-4.52m0 7.22c1.314 0 2.25-1.044 2.25-2.736 0-1.729-.9-2.737-2.25-2.737s-2.251 1.026-2.251 2.737c0 1.71.937 2.736 2.251 2.736m13.375-5.888c.522-.63 1.387-1.332 2.935-1.332 1.098 0 1.818.324 2.269.828.54.612.756 1.206.756 3.097v4.844h-2.053v-4.321c0-1.549-.108-2.629-1.656-2.629-1.278 0-1.854.99-1.854 2.377v4.573h-2.053v-4.321c0-1.549-.108-2.629-1.657-2.629-1.26 0-1.854.99-1.854 2.377v4.573h-2.053V7.39h2.053v1.116c.414-.721 1.333-1.314 2.683-1.314.882 0 1.62.271 2.125.828.143.162.251.324.359.503M3.287 27.39v1.26c.162-.432.846-1.458 2.503-1.458.108 0 .144 0 .324.018v2.089a7 7 0 0 0-.576-.036c-1.099 0-1.71.396-2.017 1.152-.162.433-.234.937-.234 1.692v3.854H1.234v-8.57zm11.936 6.626c-.378.594-1.53 2.16-4.033 2.16-2.539 0-4.267-1.8-4.267-4.573 0-2.646 1.818-4.411 4.213-4.411 2.737 0 4.051 1.891 4.051 4.52 0 .144-.018.378-.018.521H8.921c.144 1.171.864 2.179 2.376 2.179 1.548 0 2.233-1.044 2.503-1.477zm-6.248-3.314h4.177c-.054-1.116-.846-1.872-2.017-1.872-1.314 0-2.106.846-2.16 1.872m13.573-.882c-.594-.576-1.422-.954-2.413-.954-.81 0-1.404.288-1.404.828 0 .612.594.738 1.801.99l1.026.234c1.296.306 2.467.792 2.467 2.358 0 1.962-1.783 2.898-3.745 2.898-2.053 0-3.439-1.008-3.961-1.746l1.386-1.225c.486.648 1.314 1.278 2.629 1.278 1.026 0 1.621-.36 1.621-.973 0-.594-.486-.702-1.314-.882l-1.278-.271c-1.495-.323-2.665-.954-2.665-2.521 0-1.854 1.819-2.646 3.457-2.646 1.71 0 3.025.738 3.583 1.351zm5.308-4.015h-2.052v-2.089h2.052zm0 10.155h-2.052v-8.57h2.052zm1.889-4.249c0-2.647 1.477-4.52 3.799-4.52 1.116 0 2.053.522 2.521 1.134v-4.609h2.052V35.96h-2.052v-.9c-.541.666-1.369 1.116-2.521 1.116-2.286 0-3.799-1.891-3.799-4.465m4.232-2.755c-1.314 0-2.179 1.008-2.179 2.719 0 1.692.864 2.719 2.179 2.719 1.296 0 2.179-1.062 2.179-2.719-.001-1.639-.883-2.719-2.179-2.719m14.293 5.06c-.378.594-1.53 2.16-4.033 2.16-2.539 0-4.267-1.8-4.267-4.573 0-2.646 1.818-4.411 4.213-4.411 2.737 0 4.051 1.891 4.051 4.52 0 .144-.018.378-.018.521h-6.248c.144 1.171.864 2.179 2.376 2.179 1.549 0 2.233-1.044 2.503-1.477zm-6.248-3.314h4.177c-.054-1.116-.846-1.872-2.017-1.872-1.314 0-2.106.846-2.16 1.872M57.81 35.96h-2.052v-4.321c0-.648-.018-1.206-.144-1.639-.18-.612-.63-.99-1.513-.99-1.278 0-1.891.99-1.891 2.377v4.573h-2.053v-8.57h2.053v1.116c.396-.757 1.369-1.314 2.665-1.314.972 0 1.782.288 2.358 1.062.396.558.576 1.206.576 2.862zm8.027-5.456c-.306-.918-.954-1.548-1.999-1.548-1.369 0-2.233 1.008-2.233 2.719s.882 2.719 2.233 2.719c1.17 0 1.747-.685 2.053-1.459l1.656.883c-.396.918-1.566 2.358-3.763 2.358-2.484 0-4.213-1.584-4.213-4.465s1.854-4.52 4.213-4.52c1.999 0 3.241 1.062 3.763 2.413zm11.088 3.512c-.378.594-1.53 2.16-4.033 2.16-2.539 0-4.267-1.8-4.267-4.573 0-2.646 1.818-4.411 4.213-4.411 2.737 0 4.051 1.891 4.051 4.52 0 .144-.018.378-.018.521h-6.248c.144 1.171.864 2.179 2.376 2.179 1.549 0 2.233-1.044 2.503-1.477zm-6.248-3.314h4.177c-.054-1.116-.846-1.872-2.017-1.872-1.314 0-2.106.846-2.16 1.872m16.705 5.33c-.396.09-.918.144-1.53.144-.828 0-1.692-.162-2.161-.738-.342-.414-.36-.9-.36-1.729v-4.717h-1.836V27.39h1.836V24.4l2.053-.45v3.439h1.999v1.603h-1.999v4.375c0 .486.072.72.234.882.162.181.504.234.864.234s.684-.036.9-.072zm5.346-8.841c2.611 0 4.285 1.765 4.285 4.52 0 2.736-1.657 4.465-4.285 4.465s-4.286-1.729-4.286-4.465c0-2.755 1.675-4.52 4.286-4.52m0 7.22c1.314 0 2.25-1.044 2.25-2.736 0-1.729-.9-2.737-2.25-2.737s-2.251 1.026-2.251 2.737c0 1.71.937 2.736 2.251 2.736m17.767 1.549h-2.052v-4.321c0-.648-.018-1.206-.144-1.639-.18-.612-.63-.99-1.513-.99-1.278 0-1.891.99-1.891 2.377v4.573h-2.052v-8.57h2.052v1.116c.396-.757 1.369-1.314 2.665-1.314.972 0 1.782.288 2.358 1.062.396.558.576 1.206.576 2.862v4.844zm10.044-1.944c-.378.594-1.53 2.16-4.033 2.16-2.539 0-4.267-1.8-4.267-4.573 0-2.646 1.818-4.411 4.213-4.411 2.737 0 4.051 1.891 4.051 4.52 0 .144-.018.378-.018.521h-6.248c.144 1.171.864 2.179 2.376 2.179 1.549 0 2.233-1.044 2.503-1.477zm-6.248-3.314h4.177c-.054-1.116-.846-1.872-2.017-1.872-1.314 0-2.106.846-2.16 1.872m15.013 3.367c0 .504.09.702.504.702h.126v1.242c-.234.055-.504.108-1.044.108-.756 0-1.279-.252-1.422-.883-.36.379-1.081.937-2.575.937-1.782 0-3.061-.864-3.061-2.61 0-2.053 1.584-2.467 4.159-2.899l.648-.107c.504-.09.684-.198.684-.576v-.073c0-.685-.468-1.099-1.548-1.099-1.134 0-1.71.505-1.729 1.459l-1.926-.055c0-2.124 1.62-2.971 3.745-2.971 1.98 0 3.439.666 3.439 2.593zm-1.981-1.17v-1.062a3.5 3.5 0 0 1-.738.252l-1.17.234c-.99.197-1.477.504-1.477 1.188 0 .721.504 1.135 1.477 1.135 1.062 0 1.908-.541 1.908-1.747m6.444-5.509v1.26c.162-.432.846-1.458 2.503-1.458.108 0 .144 0 .324.018v2.089a7 7 0 0 0-.576-.036c-1.099 0-1.711.396-2.017 1.152-.162.433-.234.937-.234 1.692v3.854h-2.053v-8.57zm11.935 6.626c-.378.594-1.53 2.16-4.033 2.16-2.539 0-4.267-1.8-4.267-4.573 0-2.646 1.818-4.411 4.213-4.411 2.737 0 4.051 1.891 4.051 4.52 0 .144-.018.378-.018.521H139.4c.144 1.171.864 2.179 2.376 2.179 1.548 0 2.233-1.044 2.503-1.477zm-6.248-3.314h4.177c-.054-1.116-.846-1.872-2.017-1.872-1.313 0-2.106.846-2.16 1.872m13.574-.882c-.594-.576-1.422-.954-2.413-.954-.811 0-1.405.288-1.405.828 0 .612.594.738 1.801.99l1.026.234c1.296.306 2.466.792 2.466 2.358 0 1.962-1.782 2.898-3.745 2.898-2.052 0-3.439-1.008-3.961-1.746l1.386-1.225c.486.648 1.314 1.278 2.629 1.278 1.026 0 1.621-.36 1.621-.973 0-.594-.486-.702-1.314-.882l-1.278-.271c-1.495-.323-2.665-.954-2.665-2.521 0-1.854 1.819-2.646 3.457-2.646 1.711 0 3.025.738 3.583 1.351zm8.027 6.212c-.396.09-.918.144-1.53.144-.828 0-1.692-.162-2.161-.738-.342-.414-.36-.9-.36-1.729v-4.717h-1.836V27.39h1.836V24.4l2.053-.45v3.439h1.999v1.603h-1.999v4.375c0 .486.072.72.234.882.162.181.504.234.864.234s.684-.036.9-.072zM6.672 49.82c-.594-.576-1.422-.954-2.413-.954-.81 0-1.404.288-1.404.828 0 .612.594.738 1.801.99l1.026.234c1.296.306 2.467.792 2.467 2.358 0 1.962-1.783 2.898-3.745 2.898-2.053 0-3.439-1.008-3.961-1.746l1.386-1.225c.486.648 1.314 1.278 2.629 1.278 1.026 0 1.621-.36 1.621-.973 0-.594-.486-.702-1.314-.882l-1.278-.271C1.99 52.035.82 51.404.82 49.838c0-1.854 1.819-2.646 3.457-2.646 1.71 0 3.025.738 3.583 1.351zm8.028 6.212c-.396.09-.918.144-1.53.144-.828 0-1.692-.162-2.161-.738-.342-.414-.36-.9-.36-1.729v-4.717H8.812V47.39h1.836V44.4l2.053-.45v3.439H14.7v1.603h-1.999v4.375c0 .486.072.72.234.882.162.181.504.234.864.234s.684-.036.9-.072zm5.345-8.841c2.611 0 4.285 1.765 4.285 4.52 0 2.736-1.657 4.465-4.285 4.465s-4.286-1.729-4.286-4.465c.001-2.755 1.676-4.52 4.286-4.52m0 7.22c1.314 0 2.25-1.044 2.25-2.736 0-1.729-.9-2.737-2.25-2.737s-2.251 1.026-2.251 2.737c0 1.71.937 2.736 2.251 2.736m8.207-7.021v1.26c.162-.432.846-1.458 2.503-1.458.108 0 .144 0 .324.018v2.089a7 7 0 0 0-.576-.036c-1.099 0-1.71.396-2.017 1.152-.162.433-.234.937-.234 1.692v3.854H26.2v-8.57zm11.936 6.626c-.378.594-1.53 2.16-4.033 2.16-2.539 0-4.267-1.8-4.267-4.573 0-2.646 1.818-4.411 4.213-4.411 2.737 0 4.051 1.891 4.051 4.52 0 .144-.018.378-.018.521h-6.248c.144 1.171.864 2.179 2.376 2.179 1.548 0 2.233-1.044 2.503-1.477zm-6.248-3.314h4.177c-.054-1.116-.846-1.872-2.017-1.872-1.313 0-2.105.846-2.16 1.872m10.314 2.9v1.836c0 .324-.018.738-.036 1.026-.126 1.297-.594 2.125-2.287 2.161v-1.171c.667-.054 1.026-.306 1.026-1.278v-.216h-1.026v-2.358zm13.412-.685c.18-.414.27-.864.27-2.07v-7.131h2.143v7.167c0 1.782-.18 2.61-.63 3.385-.81 1.332-2.323 1.908-4.123 1.908s-3.313-.576-4.123-1.908c-.45-.774-.63-1.603-.63-3.385v-7.167h2.143v7.131c0 1.206.09 1.656.27 2.07.396.883 1.188 1.261 2.341 1.261s1.943-.378 2.339-1.261m12.366-6.05c-.684-.847-1.801-1.477-3.169-1.477-1.422 0-2.25.702-2.25 1.639 0 .9.594 1.242 1.98 1.549l1.477.323c2.287.522 3.943 1.261 3.943 3.493 0 2.269-1.854 3.781-4.916 3.781-2.665 0-4.483-1.314-5.33-2.503l1.801-1.296c.558.918 1.909 1.872 3.637 1.872 1.638 0 2.484-.684 2.484-1.656 0-.954-.846-1.314-2.088-1.584l-1.639-.36c-1.999-.433-3.673-1.278-3.673-3.511s1.962-3.638 4.645-3.638c2.539 0 4.016 1.242 4.735 2.035zm5.938 6.735v1.836c0 .324-.018.738-.036 1.026-.126 1.297-.594 2.125-2.287 2.161v-1.171c.666-.054 1.026-.306 1.026-1.278v-.216h-1.026v-2.358zm4.516-3.642h-.876v-4.905h-1.9v-.679h.303c.689 0 .939-.094 1.179-.25.366-.25.512-.688.533-1.263h.762zm16.568 1.354c0-1.296 0-2.089-.396-2.61-.216-.288-.612-.54-1.261-.54-1.44 0-2.287 1.224-2.287 3.223v4.573h-1.062v-4.646c0-1.296 0-2.089-.396-2.61-.216-.288-.612-.54-1.26-.54-1.44 0-2.287 1.188-2.287 3.223v4.573h-1.062v-8.57h1.044v1.44h.018c.36-1.062 1.422-1.639 2.539-1.639 1.044 0 2.107.54 2.269 1.782.396-1.08 1.404-1.782 2.701-1.782.63 0 1.224.162 1.71.594.63.576.792 1.314.792 2.989v5.186h-1.062zm4.821-5.834h-1.062v-1.765h1.062zm0 10.48h-1.062v-8.57h1.062zm3.87 0h-1.062V43.716h1.062zm9.901-2.106c-.486.972-1.548 2.322-3.727 2.322-2.413 0-3.961-1.639-3.961-4.555 0-2.611 1.567-4.43 3.872-4.43 2.484 0 3.745 1.908 3.745 4.447v.144h-6.518v.127c0 2.25 1.296 3.349 2.899 3.349 1.638 0 2.484-1.099 2.881-1.927zm-6.554-2.935h5.33c0-1.369-.937-2.81-2.593-2.81-1.566 0-2.592 1.099-2.737 2.81m13.556-1.693c-.432-.594-1.152-1.116-2.287-1.116-1.044 0-1.944.45-1.944 1.368 0 .9.576 1.225 1.71 1.477l1.134.271c1.44.324 2.557.847 2.557 2.377 0 1.674-1.422 2.574-3.259 2.574-1.782 0-3.025-.864-3.565-1.765l.864-.611c.54.863 1.458 1.458 2.737 1.458 1.44 0 2.143-.666 2.143-1.585 0-.954-.774-1.188-1.801-1.44l-1.206-.288c-1.513-.359-2.395-.918-2.395-2.34 0-1.549 1.404-2.413 3.042-2.413 1.495 0 2.467.594 3.079 1.332z" class="st1" id="ab"/>
      <g id="ac">
        <g class="st1">
          <path class="st2" d="M1.216 654.4v-3.632c-.216.216-.647.285-1.009.285q-.105.002-.223-.007v-.369h.111c.376 0 .626-.069.807-.201.237-.175.348-.445.362-.808h.376v4.731z"/>
        </g>
        <g class="st1">
          <path class="st2" d="M3.906 658.39h-.828l3.167-8.155h.768l3.142 8.155h-.84l-.924-2.459H4.805zm3.058-6.249c-.192-.491-.276-.707-.36-.995h-.012c-.096.288-.144.444-.372 1.008l-1.163 3.082h3.058zm8.711 6.249h-.708v-3.07c0-.899-.06-1.427-.36-1.751-.216-.24-.563-.372-1.02-.372-.527 0-.923.18-1.187.468-.336.348-.48.852-.48 1.331v3.395h-.708v-5.709h.696v.947h.012c.216-.552.852-1.079 1.823-1.079.587 0 1.091.18 1.427.552.36.408.504.792.504 2.062zm5.82-4.018v2.854c0 .539.156.707.492.707.132 0 .264-.036.336-.06v.504c-.108.036-.288.096-.563.096-.576 0-.899-.192-.936-.924h-.012c-.264.444-.875.983-1.883.983-1.115 0-1.919-.552-1.919-1.631 0-1.151 1.055-1.511 2.375-1.751l.6-.107c.648-.12.828-.217.828-.672v-.048c0-.731-.396-1.164-1.427-1.164-1.007 0-1.463.54-1.463 1.319l-.708-.096c.012-1.14.912-1.811 2.207-1.811 1.138.002 2.073.337 2.073 1.801m-.683 2.003v-1.08c-.096.072-.24.133-.468.181l-1.355.312c-.78.18-1.188.408-1.188 1.092 0 .743.576 1.103 1.319 1.103.888-.002 1.692-.625 1.692-1.608m3.229 2.015h-.708v-8.155h.708zm3.036-2.795c.264.732.468 1.403.636 1.896h.012c.216-.624.432-1.199.708-1.931l1.104-2.879h.731l-2.531 6.44c-.167.432-.324.815-.479 1.079-.228.372-.516.564-1.043.564a2.6 2.6 0 0 1-.744-.108v-.684c.216.096.456.132.72.132.228 0 .396-.071.516-.252.084-.119.168-.287.312-.671l.288-.792-2.039-5.709h.768zm7.439-1.691c-.288-.396-.768-.744-1.523-.744-.696 0-1.295.3-1.295.912 0 .6.384.815 1.139.983l.756.18c.959.216 1.703.563 1.703 1.583 0 1.115-.948 1.715-2.171 1.715-1.188 0-2.015-.575-2.375-1.175l.576-.408c.359.576.971.972 1.823.972.959 0 1.427-.443 1.427-1.056 0-.636-.516-.791-1.199-.959l-.804-.192c-1.007-.239-1.595-.611-1.595-1.559 0-1.031.936-1.607 2.027-1.607.996 0 1.643.396 2.051.888zm2.869-2.495h-.708v-1.175h.708zm0 6.981h-.708v-5.709h.708zm5.098-4.486c-.288-.396-.768-.744-1.523-.744-.696 0-1.295.3-1.295.912 0 .6.384.815 1.139.983l.756.18c.959.216 1.703.563 1.703 1.583 0 1.115-.948 1.715-2.171 1.715-1.188 0-2.015-.575-2.375-1.175l.576-.408c.359.576.971.972 1.823.972.959 0 1.427-.443 1.427-1.056 0-.636-.516-.791-1.199-.959l-.804-.192c-1.007-.239-1.595-.611-1.595-1.559 0-1.031.936-1.607 2.027-1.607.996 0 1.643.396 2.051.888zm9.012.468v2.854c0 .539.156.707.492.707.132 0 .264-.036.336-.06v.504c-.108.036-.288.096-.563.096-.576 0-.9-.192-.936-.924h-.012c-.264.444-.875.983-1.883.983-1.115 0-1.919-.552-1.919-1.631 0-1.151 1.055-1.511 2.375-1.751l.6-.107c.648-.12.828-.217.828-.672v-.048c0-.731-.396-1.164-1.427-1.164-1.007 0-1.463.54-1.463 1.319l-.708-.096c.012-1.14.911-1.811 2.207-1.811 1.137.002 2.073.337 2.073 1.801m-.684 2.003v-1.08c-.096.072-.24.133-.468.181l-1.355.312c-.78.18-1.188.408-1.188 1.092 0 .743.576 1.103 1.319 1.103.889-.002 1.692-.625 1.692-1.608m3.23.995v3.298h-.708v-7.987h.708v1.02c.276-.636.947-1.151 1.859-1.151 1.439 0 2.411 1.092 2.411 3.011 0 1.895-.971 2.974-2.387 2.974-.96-.002-1.608-.517-1.883-1.165m1.751.552c1.127 0 1.775-.863 1.775-2.387 0-1.547-.695-2.375-1.799-2.375-1.067 0-1.751.828-1.751 2.387 0 1.535.683 2.375 1.775 2.375m4.716-.552v3.298H59.8v-7.987h.708v1.02c.276-.636.947-1.151 1.859-1.151 1.439 0 2.411 1.092 2.411 3.011 0 1.895-.971 2.974-2.387 2.974-.959-.002-1.607-.517-1.883-1.165m1.751.552c1.127 0 1.775-.863 1.775-2.387 0-1.547-.695-2.375-1.799-2.375-1.067 0-1.751.828-1.751 2.387 0 1.535.684 2.375 1.775 2.375m4.717.468h-.708v-8.155h.708zm2.58-6.981h-.708v-1.175h.708zm0 6.981h-.708v-5.709h.708zm6.598-1.404c-.324.647-1.032 1.547-2.483 1.547-1.607 0-2.639-1.091-2.639-3.034 0-1.739 1.043-2.95 2.579-2.95 1.655 0 2.495 1.271 2.495 2.962v.097h-4.341v.084c0 1.499.863 2.23 1.931 2.23 1.091 0 1.655-.731 1.919-1.283zm-4.366-1.955h3.55c0-.911-.624-1.871-1.727-1.871-1.044 0-1.727.733-1.823 1.871m5.412.529c0-1.907.996-3.011 2.411-3.011.912 0 1.583.516 1.859 1.151v-3.466h.708v8.155h-.708v-1.02c-.3.672-.924 1.163-1.895 1.163-1.403.001-2.375-1.053-2.375-2.972m2.543-2.4c-1.104 0-1.799.828-1.799 2.375 0 1.523.648 2.387 1.775 2.387 1.092 0 1.775-.84 1.775-2.375 0-1.559-.683-2.387-1.751-2.387m7.849 4.21v3.298h-.708v-7.987h.708v1.02c.276-.636.948-1.151 1.859-1.151 1.439 0 2.411 1.092 2.411 3.011 0 1.895-.971 2.974-2.387 2.974-.96-.002-1.607-.517-1.883-1.165m1.751.552c1.127 0 1.775-.863 1.775-2.387 0-1.547-.695-2.375-1.799-2.375-1.067 0-1.751.828-1.751 2.387 0 1.535.683 2.375 1.775 2.375m8.735-.936c-.324.647-1.032 1.547-2.483 1.547-1.607 0-2.639-1.091-2.639-3.034 0-1.739 1.043-2.95 2.579-2.95 1.655 0 2.495 1.271 2.495 2.962v.097h-4.341v.084c0 1.499.863 2.23 1.931 2.23 1.091 0 1.655-.731 1.919-1.283zm-4.366-1.955h3.55c0-.911-.624-1.871-1.727-1.871-1.044 0-1.727.733-1.823 1.871m8.626-1.751a2.3 2.3 0 0 0-.396-.036c-.996 0-1.715.768-1.715 1.919v3.227h-.707v-5.709h.695v1.128h.012a1.82 1.82 0 0 1 1.727-1.271c.132 0 .252.012.384.036zm9.191 5.11H105.4v-.516l5.109-6.969h-4.833v-.671h5.793v.563l-5.049 6.92h5.109zm2.15 0h-.756v-8.155h.756zm2.88-3.611v3.61h-.768v-8.155h2.999c.684 0 1.367.048 1.955.42.636.384 1.02.983 1.02 1.858s-.384 1.463-1.02 1.848c-.588.371-1.271.419-1.955.419zm0-.671h2.063c.804 0 1.151-.072 1.487-.229.528-.239.839-.707.839-1.379s-.312-1.128-.839-1.367c-.336-.156-.684-.229-1.487-.229h-2.063zm12.802.288c-.288-.803-.803-1.247-1.607-1.247-1.127 0-1.847.911-1.847 2.398s.744 2.375 1.847 2.375c.792 0 1.295-.359 1.655-1.092l.564.349c-.408.839-1.151 1.354-2.219 1.354-1.595 0-2.591-1.151-2.591-2.974 0-1.835 1.02-3.011 2.591-3.011 1.115 0 1.859.552 2.219 1.487zm4.13-1.847c1.607 0 2.59 1.199 2.59 3.011 0 1.799-.971 2.974-2.59 2.974s-2.591-1.175-2.591-2.974c0-1.812.983-3.011 2.591-3.011m0 5.385c1.104 0 1.847-.911 1.847-2.387 0-1.499-.719-2.398-1.847-2.398s-1.847.911-1.847 2.398.743 2.387 1.847 2.387m3.673-2.374c0-1.907.996-3.011 2.411-3.011.912 0 1.583.516 1.859 1.151v-3.466h.708v8.155h-.708v-1.02c-.3.672-.924 1.163-1.895 1.163-1.404.001-2.375-1.053-2.375-2.972m2.543-2.4c-1.104 0-1.799.828-1.799 2.375 0 1.523.648 2.387 1.775 2.387 1.092 0 1.775-.84 1.775-2.375 0-1.559-.684-2.387-1.751-2.387m9.034 3.826c-.324.647-1.031 1.547-2.482 1.547-1.607 0-2.639-1.091-2.639-3.034 0-1.739 1.043-2.95 2.579-2.95 1.655 0 2.495 1.271 2.495 2.962v.097h-4.341v.084c0 1.499.863 2.23 1.931 2.23 1.091 0 1.655-.731 1.919-1.283zm-4.366-1.955h3.55c0-.911-.624-1.871-1.727-1.871-1.043 0-1.727.733-1.823 1.871m6.672 1.991v1.271c0 .468-.06.779-.18 1.055-.168.372-.432.624-.852.732v-.516c.42-.156.516-.6.516-1.067v-.108h-.468v-1.367zm8.578-2.65v2.854c0 .539.156.707.492.707.132 0 .264-.036.336-.06v.504c-.108.036-.288.096-.563.096-.576 0-.9-.192-.936-.924h-.012c-.264.444-.875.983-1.883.983-1.115 0-1.919-.552-1.919-1.631 0-1.151 1.055-1.511 2.375-1.751l.6-.107c.648-.12.828-.217.828-.672v-.048c0-.731-.396-1.164-1.427-1.164-1.007 0-1.463.54-1.463 1.319l-.708-.096c.012-1.14.911-1.811 2.207-1.811 1.137.002 2.073.337 2.073 1.801m-.684 2.003v-1.08c-.096.072-.24.133-.468.181l-1.355.312c-.78.18-1.188.408-1.188 1.092 0 .743.576 1.103 1.319 1.103.889-.002 1.692-.625 1.692-1.608m6.983 2.015h-.708v-3.07c0-.899-.06-1.427-.36-1.751-.216-.24-.563-.372-1.02-.372-.527 0-.923.18-1.187.468-.336.348-.48.852-.48 1.331v3.395h-.708v-5.709h.696v.947h.012c.216-.552.852-1.079 1.823-1.079.587 0 1.091.18 1.427.552.36.408.504.792.504 2.062v3.226zm1.407-2.83c0-1.907.996-3.011 2.411-3.011.912 0 1.583.516 1.859 1.151v-3.466h.708v8.155h-.708v-1.02c-.3.672-.924 1.163-1.895 1.163-1.403.001-2.375-1.053-2.375-2.972m2.543-2.4c-1.104 0-1.799.828-1.799 2.375 0 1.523.648 2.387 1.775 2.387 1.092 0 1.775-.84 1.775-2.375 0-1.559-.684-2.387-1.751-2.387m9.455.072h-1.295v5.157h-.708v-5.157h-1.295v-.552h1.295v-1.271c0-.479.096-.743.264-.936.228-.264.587-.359 1.007-.359.324 0 .563.06.731.107v.648a2.4 2.4 0 0 0-.684-.12c-.204 0-.336.048-.432.132-.132.12-.18.3-.18.624v1.175h1.295v.552zm3.205-.683c1.607 0 2.59 1.199 2.59 3.011 0 1.799-.971 2.974-2.59 2.974s-2.591-1.175-2.591-2.974c0-1.812.983-3.011 2.591-3.011m0 5.385c1.104 0 1.847-.911 1.847-2.387 0-1.499-.719-2.398-1.847-2.398s-1.847.911-1.847 2.398.743 2.387 1.847 2.387m6.887-4.654a2.3 2.3 0 0 0-.396-.036c-.995 0-1.715.768-1.715 1.919v3.227h-.708v-5.709h.696v1.128h.012a1.82 1.82 0 0 1 1.727-1.271c.132 0 .252.012.384.036zm3.662-.599h.708v3.263c0 .72.084 1.235.36 1.559.216.24.54.372 1.019.372 1.176 0 1.619-.96 1.619-1.799v-3.395h.708v5.709h-.696v-.936h-.012c-.216.552-.815 1.079-1.787 1.079-.587 0-1.079-.18-1.415-.552-.324-.359-.504-.852-.504-1.727zm9.106.599a2.3 2.3 0 0 0-.396-.036c-.996 0-1.715.768-1.715 1.919v3.227h-.708v-5.709h.695v1.128h.012a1.82 1.82 0 0 1 1.727-1.271c.132 0 .252.012.384.036zm1.885 4.09v1.02h-.708v-8.155h.708v3.466c.276-.636.947-1.151 1.859-1.151 1.439 0 2.411 1.092 2.411 3.011 0 1.895-.971 2.974-2.387 2.974-.96-.002-1.607-.517-1.883-1.165m1.751.552c1.127 0 1.775-.863 1.775-2.387 0-1.547-.695-2.375-1.799-2.375-1.067 0-1.751.828-1.751 2.387 0 1.535.683 2.375 1.775 2.375m8.027-3.55v2.854c0 .539.156.707.492.707.132 0 .264-.036.336-.06v.504c-.108.036-.288.096-.563.096-.576 0-.9-.192-.936-.924h-.012c-.264.444-.875.983-1.883.983-1.115 0-1.919-.552-1.919-1.631 0-1.151 1.055-1.511 2.375-1.751l.6-.107c.648-.12.828-.217.828-.672v-.048c0-.731-.396-1.164-1.427-1.164-1.007 0-1.463.54-1.463 1.319l-.708-.096c.012-1.14.911-1.811 2.207-1.811 1.138.002 2.073.337 2.073 1.801m-.684 2.003v-1.08c-.096.072-.24.133-.468.181l-1.355.312c-.78.18-1.188.408-1.188 1.092 0 .743.576 1.103 1.319 1.103.889-.002 1.692-.625 1.692-1.608m6.983 2.015h-.708v-3.07c0-.899-.06-1.427-.36-1.751-.216-.24-.563-.372-1.02-.372-.528 0-.923.18-1.187.468-.336.348-.48.852-.48 1.331v3.395h-.708v-5.709h.695v.947h.012c.216-.552.852-1.079 1.823-1.079.587 0 1.091.18 1.427.552.359.408.503.792.503 2.062v3.226zm8.652-4.018v2.854c0 .539.156.707.492.707.132 0 .264-.036.336-.06v.504c-.108.036-.288.096-.563.096-.576 0-.9-.192-.936-.924h-.012c-.264.444-.875.983-1.883.983-1.115 0-1.919-.552-1.919-1.631 0-1.151 1.055-1.511 2.375-1.751l.6-.107c.648-.12.828-.217.828-.672v-.048c0-.731-.396-1.164-1.427-1.164-1.007 0-1.463.54-1.463 1.319l-.708-.096c.012-1.14.911-1.811 2.207-1.811 1.138.002 2.073.337 2.073 1.801m-.683 2.003v-1.08c-.096.072-.24.133-.468.181l-1.355.312c-.78.18-1.188.408-1.188 1.092 0 .743.576 1.103 1.319 1.103.888-.002 1.692-.625 1.692-1.608m5.34-3.095a2.3 2.3 0 0 0-.396-.036c-.995 0-1.715.768-1.715 1.919v3.227h-.708v-5.709h.696v1.128h.012a1.82 1.82 0 0 1 1.727-1.271c.132 0 .252.012.384.036zm5.687 3.706c-.324.647-1.031 1.547-2.482 1.547-1.607 0-2.639-1.091-2.639-3.034 0-1.739 1.043-2.95 2.579-2.95 1.655 0 2.495 1.271 2.495 2.962v.097h-4.341v.084c0 1.499.863 2.23 1.931 2.23 1.091 0 1.655-.731 1.919-1.283zm-4.365-1.955h3.55c0-.911-.624-1.871-1.727-1.871-1.044 0-1.728.733-1.823 1.871m9.825-.659v2.854c0 .539.156.707.492.707.132 0 .264-.036.336-.06v.504c-.108.036-.288.096-.563.096-.576 0-.899-.192-.936-.924h-.012c-.264.444-.875.983-1.883.983-1.115 0-1.919-.552-1.919-1.631 0-1.151 1.055-1.511 2.375-1.751l.6-.107c.648-.12.828-.217.828-.672v-.048c0-.731-.396-1.164-1.427-1.164-1.007 0-1.463.54-1.463 1.319l-.708-.096c.012-1.14.912-1.811 2.207-1.811 1.138.002 2.073.337 2.073 1.801m-.683 2.003v-1.08c-.096.072-.24.133-.468.181l-1.355.312c-.78.18-1.188.408-1.188 1.092 0 .743.576 1.103 1.319 1.103.889-.002 1.692-.625 1.692-1.608m5.748-2.471c-.288-.396-.768-.744-1.523-.744-.696 0-1.295.3-1.295.912 0 .6.384.815 1.139.983l.756.18c.959.216 1.703.563 1.703 1.583 0 1.115-.948 1.715-2.171 1.715-1.188 0-2.015-.575-2.375-1.175l.576-.408c.359.576.971.972 1.823.972.959 0 1.427-.443 1.427-1.056 0-.636-.516-.791-1.199-.959l-.804-.192c-1.007-.239-1.595-.611-1.595-1.559 0-1.031.936-1.607 2.027-1.607.996 0 1.643.396 2.051.888zm7.188-1.355c1.607 0 2.59 1.199 2.59 3.011 0 1.799-.971 2.974-2.59 2.974s-2.591-1.175-2.591-2.974c.001-1.812.984-3.011 2.591-3.011m0 5.385c1.104 0 1.847-.911 1.847-2.387 0-1.499-.719-2.398-1.847-2.398s-1.847.911-1.847 2.398.744 2.387 1.847 2.387m8.531.456h-.708v-3.07c0-.899-.06-1.427-.36-1.751-.216-.24-.563-.372-1.02-.372-.528 0-.923.18-1.187.468-.336.348-.48.852-.48 1.331v3.395h-.708v-5.709h.695v.947h.012c.216-.552.852-1.079 1.823-1.079.587 0 1.091.18 1.427.552.359.408.503.792.503 2.062v3.226zm2.509 0h-.708v-8.155h.708zm3.036-2.795c.264.732.468 1.403.636 1.896h.012c.216-.624.432-1.199.708-1.931l1.104-2.879h.731l-2.531 6.44c-.167.432-.324.815-.479 1.079-.228.372-.516.564-1.043.564a2.6 2.6 0 0 1-.744-.108v-.684c.216.096.456.132.72.132.228 0 .396-.071.516-.252.084-.119.168-.287.312-.671l.288-.792-2.039-5.709h.768zm6.001-2.914h1.151v-2.135l.708-.156v2.291h1.367v.552h-1.367v3.85c0 .636.168.804.648.804.288 0 .552-.096.719-.18v.647c-.192.084-.54.18-.887.18-.731 0-1.188-.275-1.188-1.271v-4.03h-1.151zm6.635-.132c1.607 0 2.59 1.199 2.59 3.011 0 1.799-.971 2.974-2.59 2.974s-2.591-1.175-2.591-2.974c0-1.812.983-3.011 2.591-3.011m0 5.385c1.104 0 1.847-.911 1.847-2.387 0-1.499-.719-2.398-1.847-2.398s-1.847.911-1.847 2.398.743 2.387 1.847 2.387m7.608-.564v3.298h-.708v-7.987h.708v1.02c.276-.636.947-1.151 1.859-1.151 1.439 0 2.41 1.092 2.41 3.011 0 1.895-.971 2.974-2.387 2.974-.958-.002-1.606-.517-1.882-1.165m1.751.552c1.127 0 1.775-.863 1.775-2.387 0-1.547-.695-2.375-1.799-2.375-1.067 0-1.751.828-1.751 2.387 0 1.535.684 2.375 1.775 2.375m6.828-4.642a2.3 2.3 0 0 0-.396-.036c-.995 0-1.715.768-1.715 1.919v3.227h-.707v-5.709h.695v1.128h.012a1.82 1.82 0 0 1 1.728-1.271c.132 0 .252.012.384.036v.706zm5.686 3.706c-.324.647-1.031 1.547-2.482 1.547-1.607 0-2.639-1.091-2.639-3.034 0-1.739 1.043-2.95 2.578-2.95 1.655 0 2.495 1.271 2.495 2.962v.097h-4.342v.084c0 1.499.863 2.23 1.931 2.23 1.092 0 1.655-.731 1.919-1.283zm-4.365-1.955h3.55c0-.911-.624-1.871-1.728-1.871-1.043 0-1.726.733-1.822 1.871m9.034-1.127c-.288-.396-.768-.744-1.523-.744-.695 0-1.295.3-1.295.912 0 .6.384.815 1.139.983l.756.18c.959.216 1.703.563 1.703 1.583 0 1.115-.947 1.715-2.171 1.715-1.188 0-2.015-.575-2.374-1.175l.575-.408c.359.576.972.972 1.823.972.959 0 1.427-.443 1.427-1.056 0-.636-.516-.791-1.199-.959l-.804-.192c-1.007-.239-1.595-.611-1.595-1.559 0-1.031.936-1.607 2.026-1.607.996 0 1.644.396 2.051.888zm6.887 3.082c-.324.647-1.031 1.547-2.482 1.547-1.607 0-2.639-1.091-2.639-3.034 0-1.739 1.043-2.95 2.578-2.95 1.655 0 2.495 1.271 2.495 2.962v.097h-4.342v.084c0 1.499.863 2.23 1.931 2.23 1.092 0 1.655-.731 1.919-1.283zm-4.366-1.955h3.551c0-.911-.624-1.871-1.728-1.871-1.043 0-1.727.733-1.823 1.871m8.627-1.751a2.3 2.3 0 0 0-.396-.036c-.996 0-1.715.768-1.715 1.919v3.227h-.708v-5.709h.695v1.128h.013a1.815 1.815 0 0 1 1.727-1.271c.132 0 .252.012.384.036zm3.169 5.11h-.624l-2.003-5.709h.743l1.284 3.73.323.959h.012c.036-.12.168-.504.36-.995l1.427-3.694h.708zm7.99-1.404c-.324.647-1.031 1.547-2.482 1.547-1.607 0-2.639-1.091-2.639-3.034 0-1.739 1.043-2.95 2.578-2.95 1.655 0 2.495 1.271 2.495 2.962v.097h-4.342v.084c0 1.499.863 2.23 1.931 2.23 1.092 0 1.655-.731 1.919-1.283zm-4.366-1.955h3.551c0-.911-.624-1.871-1.728-1.871-1.043 0-1.727.733-1.823 1.871m12.442-.635c-.288-.803-.804-1.247-1.607-1.247-1.127 0-1.847.911-1.847 2.398s.744 2.375 1.847 2.375c.792 0 1.296-.359 1.655-1.092l.563.349c-.407.839-1.151 1.354-2.219 1.354-1.595 0-2.59-1.151-2.59-2.974 0-1.835 1.02-3.011 2.59-3.011 1.116 0 1.859.552 2.219 1.487zm4.129-1.847c1.607 0 2.591 1.199 2.591 3.011 0 1.799-.972 2.974-2.591 2.974s-2.59-1.175-2.59-2.974c0-1.812.984-3.011 2.59-3.011m0 5.385c1.104 0 1.848-.911 1.848-2.387 0-1.499-.72-2.398-1.848-2.398-1.127 0-1.847.911-1.847 2.398s.744 2.387 1.847 2.387m8.531.456h-.708v-3.07c0-.899-.06-1.427-.359-1.751-.217-.24-.564-.372-1.02-.372-.528 0-.924.18-1.188.468-.336.348-.479.852-.479 1.331v3.395h-.708v-5.709h.695v.947h.013c.216-.552.852-1.079 1.822-1.079.588 0 1.092.18 1.428.552.359.408.504.792.504 2.062zm5.029-4.486c-.288-.396-.768-.744-1.523-.744-.695 0-1.296.3-1.296.912 0 .6.385.815 1.14.983l.756.18c.959.216 1.703.563 1.703 1.583 0 1.115-.947 1.715-2.171 1.715-1.188 0-2.015-.575-2.375-1.175l.576-.408c.359.576.972.972 1.823.972.959 0 1.427-.443 1.427-1.056 0-.636-.516-.791-1.199-.959l-.804-.192c-1.008-.239-1.595-.611-1.595-1.559 0-1.031.936-1.607 2.026-1.607.995 0 1.644.396 2.051.888zm2.869-2.495h-.708v-1.175h.708zm0 6.981h-.708v-5.709h.708zm5.098-4.486c-.288-.396-.768-.744-1.523-.744-.695 0-1.295.3-1.295.912 0 .6.383.815 1.139.983l.756.18c.959.216 1.703.563 1.703 1.583 0 1.115-.947 1.715-2.171 1.715-1.188 0-2.015-.575-2.375-1.175l.576-.408c.359.576.972.972 1.823.972.959 0 1.427-.443 1.427-1.056 0-.636-.516-.791-1.199-.959l-.804-.192c-1.008-.239-1.595-.611-1.595-1.559 0-1.031.936-1.607 2.026-1.607.996 0 1.644.396 2.051.888zm1.359-1.223h1.151v-2.135l.708-.156v2.291h1.367v.552h-1.367v3.85c0 .636.168.804.647.804.288 0 .552-.096.72-.18v.647c-.192.084-.54.18-.888.18-.731 0-1.188-.275-1.188-1.271v-4.03h-1.151zm9.165 4.305c-.324.647-1.031 1.547-2.482 1.547-1.607 0-2.639-1.091-2.639-3.034 0-1.739 1.043-2.95 2.578-2.95 1.655 0 2.495 1.271 2.495 2.962v.097h-4.342v.084c0 1.499.863 2.23 1.931 2.23 1.092 0 1.655-.731 1.919-1.283zm-4.366-1.955h3.551c0-.911-.624-1.871-1.728-1.871-1.043 0-1.727.733-1.823 1.871m10.27 3.359h-.708v-3.07c0-.899-.06-1.427-.359-1.751-.217-.24-.564-.372-1.02-.372-.528 0-.924.18-1.188.468-.336.348-.479.852-.479 1.331v3.395h-.708v-5.709h.695v.947h.013c.216-.552.852-1.079 1.822-1.079.588 0 1.092.18 1.428.552.359.408.504.792.504 2.062zm1.01-5.709h1.151v-2.135l.708-.156v2.291h1.367v.552h-1.367v3.85c0 .636.168.804.647.804.288 0 .552-.096.72-.18v.647c-.192.084-.54.18-.888.18-.731 0-1.188-.275-1.188-1.271v-4.03h-1.151zm8.076 4.689v3.298h-.708v-7.987h.708v1.02c.275-.636.947-1.151 1.858-1.151 1.439 0 2.411 1.092 2.411 3.011 0 1.895-.972 2.974-2.387 2.974-.959-.002-1.607-.517-1.882-1.165m1.751.552c1.127 0 1.774-.863 1.774-2.387 0-1.547-.695-2.375-1.799-2.375-1.067 0-1.751.828-1.751 2.387.001 1.535.684 2.375 1.776 2.375m6.203-5.373c1.607 0 2.591 1.199 2.591 3.011 0 1.799-.972 2.974-2.591 2.974s-2.59-1.175-2.59-2.974c0-1.812.984-3.011 2.59-3.011m0 5.385c1.104 0 1.848-.911 1.848-2.387 0-1.499-.72-2.398-1.848-2.398-1.127 0-1.847.911-1.847 2.398s.745 2.387 1.847 2.387m4.777-.564v3.298h-.708v-7.987h.708v1.02c.275-.636.947-1.151 1.858-1.151 1.439 0 2.411 1.092 2.411 3.011 0 1.895-.972 2.974-2.387 2.974-.959-.002-1.606-.517-1.882-1.165m1.751.552c1.127 0 1.774-.863 1.774-2.387 0-1.547-.695-2.375-1.799-2.375-1.067 0-1.751.828-1.751 2.387.001 1.535.685 2.375 1.776 2.375m3.937-5.241h.708v3.263c0 .72.084 1.235.359 1.559.216.24.54.372 1.02.372 1.176 0 1.619-.96 1.619-1.799v-3.395h.708v5.709h-.696v-.936h-.012c-.216.552-.815 1.079-1.787 1.079-.588 0-1.079-.18-1.415-.552-.324-.359-.504-.852-.504-1.727zm6.996 5.709h-.708v-8.155h.708zm5.89-4.018v2.854c0 .539.156.707.492.707.132 0 .264-.036.336-.06v.504c-.108.036-.288.096-.564.096-.575 0-.899-.192-.936-.924h-.012c-.264.444-.875.983-1.883.983-1.115 0-1.919-.552-1.919-1.631 0-1.151 1.056-1.511 2.375-1.751l.6-.107c.647-.12.827-.217.827-.672v-.048c0-.731-.396-1.164-1.427-1.164-1.008 0-1.464.54-1.464 1.319l-.707-.096c.012-1.14.911-1.811 2.207-1.811 1.139.002 2.075.337 2.075 1.801m-.684 2.003v-1.08c-.096.072-.24.133-.468.181l-1.355.312c-.779.18-1.187.408-1.187 1.092 0 .743.575 1.103 1.318 1.103.888-.002 1.692-.625 1.692-1.608m1.754-3.694h1.151v-2.135l.708-.156v2.291h1.367v.552h-1.367v3.85c0 .636.168.804.647.804.288 0 .552-.096.72-.18v.647c-.192.084-.54.18-.888.18-.731 0-1.188-.275-1.188-1.271v-4.03h-1.151zm5.244-1.272h-.708v-1.175h.708zm0 6.981h-.708v-5.709h.708zm4.066-5.841c1.607 0 2.591 1.199 2.591 3.011 0 1.799-.972 2.974-2.591 2.974s-2.59-1.175-2.59-2.974c0-1.812.983-3.011 2.59-3.011m0 5.385c1.104 0 1.848-.911 1.848-2.387 0-1.499-.72-2.398-1.848-2.398-1.127 0-1.847.911-1.847 2.398s.744 2.387 1.847 2.387m8.532.456h-.708v-3.07c0-.899-.06-1.427-.359-1.751-.217-.24-.564-.372-1.02-.372-.528 0-.924.18-1.188.468-.336.348-.479.852-.479 1.331v3.395h-.708v-5.709h.695v.947h.013c.216-.552.852-1.079 1.822-1.079.588 0 1.092.18 1.428.552.359.408.504.792.504 2.062zm4.238-2.83c0-1.907.995-3.011 2.41-3.011.912 0 1.583.516 1.859 1.151v-3.466h.707v8.155h-.707v-1.02c-.3.672-.924 1.163-1.896 1.163-1.402.001-2.373-1.053-2.373-2.972m2.542-2.4c-1.104 0-1.799.828-1.799 2.375 0 1.523.647 2.387 1.775 2.387 1.091 0 1.774-.84 1.774-2.375.001-1.559-.683-2.387-1.75-2.387m9.035 3.826c-.324.647-1.031 1.547-2.482 1.547-1.607 0-2.639-1.091-2.639-3.034 0-1.739 1.043-2.95 2.578-2.95 1.655 0 2.495 1.271 2.495 2.962v.097h-4.342v.084c0 1.499.863 2.23 1.931 2.23 1.092 0 1.655-.731 1.919-1.283zm-4.366-1.955h3.551c0-.911-.624-1.871-1.728-1.871-1.043 0-1.726.733-1.823 1.871m10.271 3.359h-.708v-3.07c0-.899-.06-1.427-.359-1.751-.217-.24-.564-.372-1.02-.372-.528 0-.924.18-1.188.468-.336.348-.479.852-.479 1.331v3.395h-.708v-5.709h.695v.947h.013c.216-.552.851-1.079 1.822-1.079.588 0 1.092.18 1.428.552.359.408.504.792.504 2.062zm5.028-4.486c-.288-.396-.768-.744-1.523-.744-.695 0-1.295.3-1.295.912 0 .6.383.815 1.139.983l.756.18c.959.216 1.703.563 1.703 1.583 0 1.115-.947 1.715-2.171 1.715-1.188 0-2.015-.575-2.375-1.175l.576-.408c.359.576.972.972 1.823.972.959 0 1.427-.443 1.427-1.056 0-.636-.516-.791-1.199-.959l-.804-.192c-1.008-.239-1.595-.611-1.595-1.559 0-1.031.936-1.607 2.026-1.607.996 0 1.644.396 2.051.888zm2.869-2.495h-.708v-1.175h.708zm0 6.981h-.708v-5.709h.708zm1.152-5.709h1.151v-2.135l.708-.156v2.291h1.367v.552h-1.367v3.85c0 .636.168.804.647.804.288 0 .552-.096.72-.18v.647c-.192.084-.54.18-.888.18-.731 0-1.188-.275-1.188-1.271v-4.03h-1.151zm5.699 2.914c.264.732.468 1.403.636 1.896H479c.216-.624.433-1.199.708-1.931l1.104-2.879h.731l-2.53 6.44c-.168.432-.324.815-.48 1.079-.228.372-.516.564-1.043.564-.288 0-.552-.048-.743-.108v-.684c.216.096.455.132.719.132.229 0 .396-.071.516-.252.084-.119.168-.287.312-.671l.288-.792-2.039-5.709h.768zm4.644 1.427v1.367h-.983v-1.367z"/>
        </g>
      </g>
      <path d="M211.96 75.48v-10.2h2.64c1.36 0 2.29.04 3.13.51 1.53.83 2.21 2.7 2.21 4.56 0 1.71-.54 3.17-1.49 4.08-1.06 1.05-2.17 1.05-4.17 1.05h-2.33zm.95-.84h1.63c1.36 0 2.31 0 3.09-.71.73-.63 1.3-1.93 1.3-3.54 0-1.44-.45-2.8-1.3-3.54-.81-.71-1.69-.73-3.44-.73h-1.29v8.52zm14.86-.92c-.4.81-1.29 1.93-3.1 1.93-2.01 0-3.3-1.36-3.3-3.79 0-2.17 1.31-3.69 3.23-3.69 2.07 0 3.12 1.59 3.12 3.71V72h-5.43v.1c0 1.88 1.08 2.79 2.42 2.79s2.07-.92 2.4-1.6l.67.43zm-5.46-2.45h4.44c0-1.14-.78-2.34-2.16-2.34-1.31 0-2.16.92-2.28 2.34m8.14 2.93v4.12h-.88v-9.99h.88v1.27c.35-.79 1.19-1.44 2.33-1.44 1.8 0 3.01 1.37 3.01 3.76s-1.21 3.72-2.98 3.72c-1.2 0-2.01-.64-2.35-1.46zm2.19.69c1.41 0 2.22-1.08 2.22-2.99s-.87-2.97-2.25-2.97-2.19 1.04-2.19 2.99.85 2.97 2.22 2.97m10.04-4.44v3.57c0 .67.19.88.61.88.17 0 .33-.04.42-.07v.63c-.13.04-.36.12-.7.12-.72 0-1.12-.24-1.17-1.16h-.02c-.33.55-1.1 1.23-2.35 1.23-1.4 0-2.4-.69-2.4-2.04 0-1.44 1.32-1.89 2.97-2.19l.75-.13c.81-.15 1.04-.27 1.04-.84v-.06c0-.92-.5-1.46-1.79-1.46s-1.83.67-1.83 1.65l-.89-.12c.02-1.42 1.14-2.26 2.76-2.26 1.43 0 2.6.42 2.6 2.25m-.85 2.5V71.6c-.12.09-.3.17-.58.23l-1.69.39c-.98.22-1.49.51-1.49 1.37 0 .93.72 1.38 1.65 1.38 1.11 0 2.11-.78 2.11-2.01zm6.67-3.86a3 3 0 0 0-.5-.04c-1.24 0-2.15.96-2.15 2.4v4.04h-.88v-7.14h.87v1.41h.01c.26-.84 1.08-1.59 2.16-1.59.17 0 .31.01.48.04v.88zm.56-.75h1.44v-2.67l.88-.2v2.87h1.71v.69h-1.71v4.82c0 .79.21 1 .81 1 .36 0 .69-.12.9-.22v.81c-.24.1-.67.22-1.11.22-.92 0-1.48-.34-1.48-1.59v-5.04h-1.44zm14.01 3.26c0-1.08 0-1.74-.33-2.17-.18-.24-.51-.45-1.05-.45-1.2 0-1.91 1.02-1.91 2.69v3.81h-.88v-3.87c0-1.08 0-1.74-.33-2.17-.18-.24-.51-.45-1.05-.45-1.2 0-1.91.99-1.91 2.69v3.81h-.88v-7.14h.87v1.2h.01c.3-.89 1.19-1.37 2.12-1.37.87 0 1.75.45 1.89 1.49.33-.9 1.17-1.49 2.25-1.49.52 0 1.02.13 1.42.5.53.48.66 1.09.66 2.49v4.32h-.88zm9.05 2.12c-.4.81-1.29 1.93-3.1 1.93-2.01 0-3.3-1.36-3.3-3.79 0-2.17 1.31-3.69 3.23-3.69 2.07 0 3.12 1.59 3.12 3.71V72h-5.43v.1c0 1.88 1.08 2.79 2.42 2.79s2.07-.92 2.4-1.6l.67.43zm-5.46-2.45h4.44c0-1.14-.78-2.34-2.16-2.34-1.31 0-2.16.92-2.28 2.34m12.84 4.21h-.88v-3.84c0-1.12-.08-1.79-.45-2.19-.27-.3-.7-.47-1.27-.47-.66 0-1.15.23-1.48.58-.42.44-.6 1.07-.6 1.67v4.25h-.88v-7.14h.87v1.18h.01c.27-.69 1.07-1.35 2.28-1.35.73 0 1.36.22 1.78.69.45.51.63.99.63 2.58v4.04zm1.26-7.14h1.44v-2.67l.88-.2v2.87h1.71v.69h-1.71v4.82c0 .79.21 1 .81 1 .36 0 .69-.12.9-.22v.81c-.24.1-.67.22-1.11.22-.92 0-1.48-.34-1.48-1.59v-5.04h-1.44zm-21.84 17.08c-.36-.5-.96-.93-1.9-.93-.87 0-1.62.38-1.62 1.14s.48 1.02 1.43 1.23l.94.22c1.2.27 2.13.71 2.13 1.98 0 1.39-1.19 2.14-2.71 2.14s-2.52-.72-2.97-1.47l.72-.51c.45.72 1.21 1.21 2.28 1.21 1.2 0 1.79-.55 1.79-1.32s-.65-.99-1.5-1.2l-1-.24c-1.26-.3-2-.76-2-1.95 0-1.29 1.17-2.01 2.54-2.01 1.24 0 2.05.5 2.56 1.11l-.68.58zm1.69-1.53h1.44v-2.67l.88-.2v2.87h1.71v.69h-1.71v4.82c0 .79.21 1 .81 1 .36 0 .69-.12.9-.22v.81c-.24.1-.67.22-1.11.22-.92 0-1.48-.34-1.48-1.59v-5.04h-1.44zm8.3-.17c2.01 0 3.24 1.5 3.24 3.76s-1.21 3.72-3.24 3.72-3.24-1.47-3.24-3.72 1.23-3.76 3.24-3.76m0 6.73c1.38 0 2.31-1.14 2.31-2.98s-.9-3-2.31-3-2.31 1.14-2.31 3 .93 2.98 2.31 2.98m8.61-5.81a3 3 0 0 0-.5-.04c-1.24 0-2.15.96-2.15 2.4v4.04h-.88V83.9h.87v1.41h.01c.26-.84 1.08-1.59 2.16-1.59.17 0 .31.01.48.04v.88zm7.11 4.63c-.4.81-1.29 1.93-3.1 1.93-2.01 0-3.3-1.36-3.3-3.79 0-2.17 1.31-3.69 3.23-3.69 2.07 0 3.12 1.59 3.12 3.71v.12h-5.43v.1c0 1.88 1.08 2.79 2.42 2.79s2.07-.92 2.4-1.6l.67.43zm-5.46-2.45h4.44c0-1.14-.78-2.34-2.16-2.34-1.31 0-2.16.92-2.28 2.34"/>
      <path d="M367.726 297.48v-7.639c-.453.454-1.36.601-2.122.601-.146 0-.307 0-.468-.015v-.776h.234c.79 0 1.316-.146 1.697-.424.497-.366.731-.937.761-1.697h.79v9.95z" class="st1"/>
      <path d="M235.48 113c-.65-.84-1.54-1.33-2.71-1.33-1.38 0-2.4.72-2.4 1.81s.71 1.53 2.05 1.83l1.4.32c1.79.39 2.83 1.03 2.83 2.71s-1.42 3.03-3.76 3.03-3.51-1.18-4.04-2.32l.84-.56c.4 1.05 1.45 2.04 3.21 2.04s2.75-.85 2.75-2.13c0-1.11-.75-1.58-2.21-1.89l-1.27-.29c-1.53-.34-2.79-.85-2.79-2.67 0-1.62 1.38-2.75 3.43-2.75 1.77 0 2.81.74 3.42 1.54l-.75.65zm3.76 6.92v4.12h-.88v-9.99h.88v1.27c.35-.79 1.19-1.44 2.33-1.44 1.8 0 3.01 1.37 3.01 3.76s-1.21 3.72-2.98 3.72c-1.2 0-2.01-.64-2.35-1.46zm2.19.69c1.41 0 2.22-1.08 2.22-2.99s-.87-2.97-2.25-2.97-2.19 1.04-2.19 2.99.85 2.97 2.22 2.97m10.92-1.17c-.4.81-1.29 1.93-3.1 1.93-2.01 0-3.3-1.36-3.3-3.79 0-2.17 1.31-3.69 3.23-3.69 2.07 0 3.12 1.59 3.12 3.71v.12h-5.43v.1c0 1.88 1.08 2.79 2.42 2.79s2.07-.92 2.4-1.6l.67.43zm-5.46-2.45h4.44c0-1.14-.78-2.34-2.16-2.34-1.31 0-2.16.92-2.28 2.34m12.02-.79c-.36-1-1-1.56-2.01-1.56-1.41 0-2.31 1.14-2.31 3s.93 2.97 2.31 2.97c.99 0 1.62-.45 2.07-1.37l.71.44c-.51 1.05-1.44 1.69-2.77 1.69-2 0-3.24-1.44-3.24-3.72s1.27-3.76 3.24-3.76c1.39 0 2.32.69 2.77 1.86zm3.3-3.74h-.88v-1.47h.88zm0 8.73h-.88v-7.14h.88zm7.36-5.02v3.57c0 .67.19.88.61.88.17 0 .33-.04.42-.07v.63c-.13.04-.36.12-.7.12-.72 0-1.12-.24-1.17-1.16h-.02c-.33.55-1.1 1.23-2.35 1.23-1.4 0-2.4-.69-2.4-2.04 0-1.44 1.32-1.89 2.97-2.19l.75-.13c.81-.15 1.04-.27 1.04-.84v-.06c0-.92-.5-1.46-1.79-1.46s-1.83.67-1.83 1.65l-.89-.12c.02-1.42 1.14-2.26 2.76-2.26 1.42 0 2.59.42 2.59 2.25zm-.85 2.5v-1.35c-.12.09-.3.17-.58.23l-1.69.39c-.98.22-1.49.51-1.49 1.37 0 .93.72 1.38 1.65 1.38 1.11 0 2.11-.78 2.11-2.01zm4.03 2.52h-.88v-10.2h.88zm1.44-7.14h1.44v-2.67l.88-.2v2.87h1.71v.69h-1.71v4.82c0 .79.21 1 .81 1 .36 0 .69-.12.9-.22v.81c-.24.1-.67.22-1.11.22-.92 0-1.48-.34-1.48-1.59v-5.04h-1.44zm7.12 3.65c.33.92.58 1.75.79 2.37h.02c.27-.78.54-1.5.88-2.42l1.38-3.6h.92l-3.17 8.05c-.21.54-.4 1.02-.6 1.35-.29.46-.65.71-1.31.71-.36 0-.69-.06-.93-.13v-.86c.27.12.57.17.9.17.28 0 .49-.09.64-.31.11-.15.21-.36.39-.84l.36-.99-2.55-7.14h.96l1.31 3.64zm-36.22 17.77v1.28h-.88v-10.2h.88v4.33c.35-.79 1.19-1.44 2.33-1.44 1.8 0 3.01 1.37 3.01 3.76s-1.21 3.72-2.98 3.72c-1.2 0-2.01-.64-2.35-1.46zm2.19.69c1.41 0 2.22-1.08 2.22-2.99s-.87-2.97-2.25-2.97-2.19 1.04-2.19 2.99.85 2.97 2.22 2.97m10.92-1.17c-.4.81-1.29 1.93-3.1 1.93-2.01 0-3.3-1.36-3.3-3.79 0-2.17 1.31-3.69 3.23-3.69 2.07 0 3.12 1.59 3.12 3.71v.12h-5.43v.1c0 1.88 1.08 2.79 2.42 2.79s2.07-.92 2.4-1.6l.67.43zm-5.46-2.45h4.44c0-1.14-.78-2.34-2.16-2.34-1.31 0-2.16.92-2.28 2.34m12.28-.82v3.57c0 .67.19.88.61.88.17 0 .33-.04.42-.07v.63c-.13.04-.36.12-.7.12-.72 0-1.12-.24-1.17-1.16h-.02c-.33.55-1.1 1.23-2.35 1.23-1.4 0-2.4-.69-2.4-2.04 0-1.44 1.32-1.89 2.97-2.19l.75-.13c.81-.15 1.04-.27 1.04-.84v-.06c0-.92-.5-1.46-1.79-1.46s-1.83.67-1.83 1.65l-.89-.12c.02-1.42 1.14-2.26 2.76-2.26 1.43 0 2.6.42 2.6 2.25m-.85 2.5v-1.35c-.12.09-.3.17-.58.23l-1.69.39c-.98.22-1.49.51-1.49 1.37 0 .93.72 1.38 1.65 1.38 1.11 0 2.11-.78 2.11-2.01zm3.06-4.61h.88v4.08c0 .9.1 1.54.45 1.95.27.3.67.47 1.27.47 1.47 0 2.02-1.2 2.02-2.25v-4.25h.88v7.14h-.87v-1.17h-.02c-.27.69-1.02 1.35-2.23 1.35-.73 0-1.35-.22-1.77-.69-.4-.45-.63-1.07-.63-2.16v-4.47zm6.96 0h1.44v-2.67l.88-.2v2.87h1.71v.69h-1.71v4.82c0 .79.21 1 .81 1 .36 0 .69-.12.9-.22v.81c-.24.1-.67.22-1.11.22-.92 0-1.48-.34-1.48-1.59v-5.04h-1.44zm7.12 3.64c.33.92.58 1.75.79 2.37h.02c.27-.78.54-1.5.88-2.42l1.38-3.6h.92l-3.17 8.05c-.21.54-.4 1.02-.6 1.35-.29.46-.65.71-1.31.71-.36 0-.69-.06-.93-.13v-.86c.27.12.57.17.9.17.28 0 .49-.09.64-.31.11-.15.21-.36.39-.84l.36-.99-2.55-7.14h.96l1.31 3.64z"/>
      <path d="M243.895 175.02c.405-.57.63-1.35.63-2.52v-.091h-3.705v-.84h4.53v5.16h-.84v-1.395c-.375.689-1.32 1.574-2.97 1.574-2.76 0-4.32-2.069-4.32-5.279s1.635-5.28 4.32-5.28c2.145 0 3.27 1.261 3.78 2.46l-.825.54c-.465-1.154-1.395-2.16-2.955-2.16-2.055 0-3.33 1.801-3.33 4.44s1.275 4.439 3.33 4.439c.975.002 1.86-.343 2.355-1.048m7.06-4.68a3 3 0 0 0-.495-.045c-1.245 0-2.146.96-2.146 2.399v4.035h-.885v-7.14h.87V171h.015a2.27 2.27 0 0 1 2.16-1.59 2.6 2.6 0 0 1 .48.045v.885zm3.95-.915c2.01 0 3.239 1.5 3.239 3.765 0 2.25-1.215 3.72-3.239 3.72s-3.24-1.47-3.24-3.72c0-2.265 1.23-3.765 3.24-3.765m0 6.735c1.38 0 2.31-1.14 2.31-2.984 0-1.875-.9-3-2.31-3s-2.311 1.14-2.311 3c.001 1.859.93 2.984 2.311 2.984m9.839-4.425c-.359-1.005-1.005-1.56-2.01-1.56-1.41 0-2.31 1.14-2.31 3 0 1.859.93 2.97 2.31 2.97.99 0 1.62-.45 2.07-1.365l.705.436c-.511 1.05-1.44 1.694-2.775 1.694-1.995 0-3.24-1.439-3.24-3.72 0-2.295 1.275-3.765 3.24-3.765 1.395 0 2.325.69 2.775 1.86zm8.325 3.24c-.404.81-1.29 1.935-3.104 1.935-2.01 0-3.3-1.364-3.3-3.795 0-2.175 1.305-3.689 3.225-3.689 2.07 0 3.12 1.59 3.12 3.705v.12h-5.43v.104c0 1.875 1.08 2.79 2.415 2.79 1.364 0 2.069-.915 2.399-1.604zm-5.459-2.445h4.439c0-1.14-.78-2.34-2.16-2.34-1.304 0-2.16.915-2.279 2.34m10.785-2.19a3 3 0 0 0-.495-.045c-1.245 0-2.146.96-2.146 2.399v4.035h-.885v-7.14h.87V171h.015a2.27 2.27 0 0 1 2.16-1.59 2.6 2.6 0 0 1 .48.045zm2.92 2.895c.33.915.585 1.755.795 2.37h.015c.27-.78.54-1.5.885-2.415l1.38-3.6h.915l-3.165 8.055c-.21.54-.405 1.02-.6 1.35-.285.465-.645.705-1.305.705-.36 0-.69-.06-.93-.135v-.855c.27.12.57.165.9.165.285 0 .495-.09.645-.314.105-.15.21-.36.39-.84l.36-.99-2.55-7.14h.96zM224.12 219.08v-10.199h2.64c1.365 0 2.295.045 3.135.51 1.53.825 2.205 2.7 2.205 4.56 0 1.71-.54 3.165-1.485 4.08-1.065 1.05-2.175 1.05-4.169 1.05h-2.326zm.945-.84h1.635c1.365 0 2.31 0 3.09-.705.735-.63 1.305-1.935 1.305-3.54 0-1.439-.45-2.805-1.305-3.54-.81-.705-1.695-.734-3.435-.734h-1.29zm12.479-5.55a3 3 0 0 0-.495-.045c-1.245 0-2.145.96-2.145 2.399v4.035h-.885v-7.14h.87v1.41h.015a2.27 2.27 0 0 1 2.16-1.59 2.6 2.6 0 0 1 .48.045zm1.381-.75h.885v4.08c0 .899.105 1.545.45 1.949.27.301.675.466 1.275.466 1.47 0 2.025-1.2 2.025-2.25v-4.245h.885v7.14h-.87v-1.17h-.015c-.27.689-1.02 1.35-2.235 1.35-.735 0-1.35-.225-1.77-.689-.405-.45-.63-1.065-.63-2.16zm13.619 6.855c0 2.235-.96 3.255-3.075 3.255-2.025 0-2.805-1.02-2.88-2.354l.855-.24c.09 1.035.57 1.845 2.025 1.845 1.95 0 2.19-1.274 2.19-2.819v-.735c-.375.84-1.17 1.41-2.34 1.41-1.815 0-3-1.365-3-3.675 0-2.311 1.245-3.705 3.015-3.705 1.14 0 1.95.57 2.325 1.335v-1.17h.885zm-3.044-6.255c-1.38 0-2.25 1.021-2.25 2.91 0 1.86.81 2.91 2.22 2.91 1.365 0 2.22-1.035 2.22-2.896-.001-1.903-.856-2.924-2.19-2.924m9.415.931c-.36-.495-.96-.931-1.905-.931-.87 0-1.62.375-1.62 1.141 0 .75.48 1.02 1.425 1.229l.945.225c1.2.271 2.13.705 2.13 1.98 0 1.395-1.185 2.145-2.715 2.145-1.485 0-2.52-.72-2.97-1.47l.72-.51c.45.72 1.215 1.215 2.28 1.215 1.2 0 1.785-.555 1.785-1.32 0-.795-.645-.989-1.5-1.199l-1.005-.24c-1.26-.3-1.995-.765-1.995-1.95 0-1.29 1.17-2.01 2.535-2.01 1.245 0 2.055.495 2.565 1.11zm1.695-1.531h1.44v-2.67l.885-.195v2.865h1.71v.689h-1.71v4.815c0 .795.21 1.005.81 1.005.36 0 .69-.12.9-.225v.81c-.24.104-.675.225-1.11.225-.915 0-1.485-.345-1.485-1.59v-5.04h-1.44zm8.295-.165c2.01 0 3.239 1.5 3.239 3.765 0 2.25-1.215 3.72-3.239 3.72s-3.24-1.47-3.24-3.72c0-2.265 1.23-3.765 3.24-3.765m0 6.735c1.38 0 2.31-1.14 2.31-2.984 0-1.875-.9-3-2.31-3s-2.311 1.14-2.311 3c.001 1.859.93 2.984 2.311 2.984m8.61-5.82a3 3 0 0 0-.495-.045c-1.245 0-2.145.96-2.145 2.399v4.035h-.885v-7.14h.87v1.41h.015a2.27 2.27 0 0 1 2.16-1.59 2.6 2.6 0 0 1 .48.045zm7.114 4.635c-.405.81-1.29 1.935-3.105 1.935-2.01 0-3.3-1.364-3.3-3.795 0-2.175 1.305-3.689 3.225-3.689 2.07 0 3.12 1.59 3.12 3.705v.12h-5.43v.104c0 1.875 1.08 2.79 2.415 2.79 1.365 0 2.07-.915 2.4-1.604zm-5.459-2.445h4.439c0-1.14-.78-2.34-2.16-2.34-1.304 0-2.159.915-2.279 2.34" class="st1"/>
      <path class="st3" d="M291.63 88.06c139.77 0 253.08 113.31 253.08 253.08S431.4 594.22 291.63 594.22 44.05 486.33 38.75 351.23"/>
      <path class="st4" d="M291.64 72.73c148.24 0 268.41 120.17 268.41 268.41S439.88 609.55 291.64 609.55 23.23 489.38 23.23 341.14c0-72.89 29.05-138.99 76.21-187.36"/>
      <path class="st3" d="M291.64 133.25c114.82 0 207.89 93.08 207.89 207.89 0 97.47-67.08 179.27-157.59 201.76"/>
      <path class="st4" d="M291.64 118.45c122.99 0 222.69 99.7 222.69 222.69s-99.7 222.69-222.69 222.69c-27.28 0-53.42-4.91-77.57-13.88"/>
      <path class="st3" d="M291.64 177.51c90.37 0 163.63 73.26 163.63 163.63 0 72.85-47.61 134.58-113.41 155.78"/>
      <path class="st4" d="M291.64 162.39c98.72 0 178.75 80.03 178.75 178.75s-80.03 178.75-178.75 178.75c-6.17 0-12.27-.31-18.28-.92"/>
      <path class="st3" d="M291.66 221.31c52.11 0 96.45 33.26 112.95 79.71"/>
      <path class="st4" d="M291.66 206.24c55.88 0 103.82 33.97 124.3 82.39"/>
      <circle cx="291.73" cy="341.14" r="102.04" style="fill:#fff"/>
      <path d="M287.92 253.755c0-2.97 1.215-5.295 3.81-5.295 2.58 0 3.809 2.325 3.809 5.295 0 2.745-1.034 5.265-3.809 5.265-2.79 0-3.81-2.52-3.81-5.265m1.02-.03c0 2.311.63 4.471 2.79 4.471s2.775-2.16 2.775-4.471c0-2.489-.9-4.454-2.775-4.454s-2.79 1.964-2.79 4.454m78.8 43.755v-7.83c-.465.466-1.396.615-2.175.615-.15 0-.315 0-.48-.015v-.795h.24c.81 0 1.35-.15 1.74-.436.51-.375.75-.96.779-1.739h.811v10.199zm-155.835-5.85c.33-.495 1.125-1.065 2.31-1.065 1.875 0 3.285 1.306 3.285 3.45 0 2.01-1.215 3.645-3.465 3.645-1.74 0-3-.899-3.33-2.505l.84-.479c.15 1.005.915 2.175 2.49 2.175 1.5 0 2.46-1.095 2.46-2.835 0-1.455-.825-2.625-2.415-2.625-1.365 0-2.115.84-2.31 1.995l-.81-.18.33-5.925h5.52v.824h-4.68zm156.985 90.09a3.7 3.7 0 0 1-.345-1.619c0-1.681 1.245-3.061 3.255-3.061 2.25 0 3.33 1.516 3.33 3.315 0 2.145-1.485 3.465-2.925 4.635-.945.75-1.875 1.395-2.235 1.604h5.205v.825h-6.51v-.825c.795-.524 2.25-1.62 3.524-2.715 1.095-.96 1.965-1.92 1.965-3.495 0-1.604-1.064-2.55-2.385-2.55-1.515 0-2.28 1.065-2.28 2.295 0 .811.301 1.5.48 1.755zm-80.42 45.485c0-.795.81-2.505 3.18-2.505 2.1 0 3.15 1.215 3.15 2.641 0 1.335-.825 2.114-1.935 2.279 1.065.21 2.205.99 2.205 2.61 0 1.755-1.334 3.029-3.45 3.029-1.95 0-3.3-1.064-3.36-2.864l.9-.285c.075 1.755 1.215 2.34 2.475 2.34 1.305 0 2.445-.84 2.445-2.235 0-.975-.45-1.5-1.095-1.8-.45-.21-.9-.3-2.25-.3h-.765v-.795h.645c.735 0 1.575 0 2.28-.345.556-.255.96-.795.96-1.605 0-1.005-.765-1.875-2.205-1.875-1.485 0-2.25.945-2.31 2.025zM215.9 387.42h-.915v-2.685h-4.695v-.646l4.77-6.869h.84v6.689h1.86v.825h-1.86zm-.915-3.51v-3.39c0-.811.015-1.605.06-2.04h-.015c-.195.405-.66 1.125-1.245 1.979l-2.415 3.45h3.615z" class="st1"/>
      <path d="m4.363 695.55-1.331-3.729c-.288-.804-.912-2.831-1.043-3.406h-.024c.036.336.084 2.435.084 3.31v3.826H1.017v-8.155h1.439l1.511 4.197c.348.947.768 2.327.852 2.579h.024c.096-.348.492-1.619.755-2.399l1.499-4.377h1.451v8.155h-1.03v-3.85c0-.888.084-2.891.108-3.395h-.024c-.192.695-.744 2.53-.959 3.154l-1.391 4.09zm9.78-3.85c-.251-.72-.731-1.151-1.487-1.151-1.032 0-1.691.815-1.691 2.158 0 1.332.672 2.135 1.691 2.135.779 0 1.235-.407 1.523-1.043l.804.443c-.348.744-1.104 1.451-2.339 1.451-1.631 0-2.687-1.103-2.687-2.974s1.115-3.011 2.687-3.011c1.199 0 1.991.624 2.339 1.535zm8.926 3.85h-1.332l-2.89-4.102-1.451 1.451v2.65H16.34v-8.155h1.056v4.174l4.078-4.174h1.427l-3.25 3.286zm1.876-6.884h-.996v-1.271h.996zm0 6.884h-.996v-5.709h.996zm6.477 0h-.996v-3.143c0-1.427-.42-1.871-1.271-1.871-1.031 0-1.463.828-1.463 1.716v3.298h-.996v-5.709h.996v.852c.24-.54.839-.983 1.787-.983 1.403 0 1.943.899 1.943 2.303zm5.101-4.306a1.97 1.97 0 0 0-1.559-.708c-.624 0-1.14.276-1.14.78 0 .516.396.671 1.175.839l.72.181c.912.228 1.679.516 1.679 1.547 0 1.175-1.08 1.811-2.315 1.811-1.271 0-2.135-.623-2.495-1.175l.732-.588c.348.516.935.924 1.799.924.828 0 1.271-.348 1.271-.876 0-.527-.432-.623-1.056-.768l-.828-.191c-1.007-.229-1.679-.624-1.679-1.607 0-1.127 1.055-1.703 2.146-1.703s1.823.432 2.219.876zm2.785 1.631c.048 1.283.72 1.955 1.763 1.955s1.559-.672 1.799-1.115l.732.527a2.9 2.9 0 0 1-2.555 1.451c-1.619 0-2.758-1.079-2.758-3.022 0-1.774 1.127-2.962 2.71-2.962 1.703 0 2.579 1.235 2.579 2.998v.168zm3.214-.755c-.012-.888-.54-1.644-1.535-1.644-1.02 0-1.607.672-1.667 1.644zm6.744-2.279-2.339 6.656c-.36 1.008-.695 1.428-1.595 1.428-.359 0-.551-.024-.779-.061v-.875c.204.048.396.071.636.071.396 0 .624-.155.852-.839l.204-.6-2.039-5.781h1.067l.983 2.986.516 1.619h.024c.132-.396.276-.924.492-1.595l.983-3.011h.995zm8.412 4.701c-.624.792-1.439 1.151-2.435 1.151-1.343 0-2.53-.815-2.53-2.29 0-1.296.875-1.955 1.943-2.507-.228-.276-.888-1.02-.888-1.907 0-.899.72-1.739 1.967-1.739 1.295 0 1.943.792 1.943 1.667 0 .9-.54 1.607-1.571 2.184l1.499 1.787c.156-.408.288-.9.372-1.548l.912.252a6.6 6.6 0 0 1-.624 2.099l1.583 1.859h-1.307zm-2.471-2.974c-.768.443-1.475.899-1.475 1.763 0 .947.792 1.439 1.595 1.439a2.07 2.07 0 0 0 1.751-.947zm1.452-2.567c0-.575-.42-.887-.936-.887-.552 0-.936.323-.936.852 0 .719.708 1.319.779 1.463.661-.348 1.093-.84 1.093-1.428m11.819.78c-.36-.948-1.092-1.596-2.219-1.596-1.644 0-2.555 1.38-2.555 3.274 0 1.943.911 3.286 2.566 3.286 1.199 0 1.907-.72 2.219-1.69l1.007.348c-.359 1.115-1.331 2.29-3.25 2.29-2.375 0-3.67-1.715-3.67-4.222 0-2.494 1.379-4.222 3.694-4.222 1.763 0 2.783 1.044 3.154 2.075zm4.538-.072c1.667 0 2.71 1.188 2.71 3.011 0 1.811-1.032 2.974-2.71 2.974-1.679 0-2.699-1.163-2.699-2.974 0-1.824 1.031-3.011 2.699-3.011m0 5.182c1.007 0 1.703-.816 1.703-2.184 0-1.403-.672-2.206-1.703-2.206-1.02 0-1.691.815-1.691 2.206-.001 1.38.695 2.184 1.691 2.184m7.582.659v-3.082c0-1.199-.192-1.943-1.139-1.943-.899 0-1.367.744-1.367 1.859v3.166h-.996v-5.709h.996v.852c.264-.575.911-.983 1.727-.983.828 0 1.403.432 1.583 1.056.3-.588.936-1.056 1.871-1.056 1.283 0 1.823.768 1.823 2.146v3.694h-.995v-3.082c0-1.199-.192-1.943-1.14-1.943-.899 0-1.367.744-1.367 1.859v3.166zm7.19-.84v3.118h-.996v-7.987h.996v.84c.288-.528.936-.972 1.775-.972 1.487 0 2.471 1.151 2.471 3.011 0 1.811-.996 2.974-2.458 2.974-.877-.001-1.476-.42-1.788-.984m1.595.144c1.007 0 1.631-.804 1.631-2.159 0-1.379-.647-2.159-1.643-2.159-.983 0-1.619.792-1.619 2.171 0 1.355.636 2.147 1.631 2.147m3.793-3.202c.012-1.235.888-1.919 2.291-1.919 1.151 0 2.195.335 2.219 1.703 0 .312.012.647.012.971v1.907c0 .456.12.611.42.611.072 0 .156-.012.228-.023v.659a2.2 2.2 0 0 1-.612.072c-.528 0-.887-.204-.912-.768-.24.288-.768.827-1.883.827-1.139 0-1.991-.575-1.991-1.679 0-1.176.995-1.547 2.267-1.751l.731-.12c.54-.084.804-.18.804-.611 0-.6-.288-1.008-1.283-1.008-1.007 0-1.355.492-1.355 1.199zm3.191 2.867c.24-.24.396-.54.396-1.104v-.804c-.048.036-.096.108-.468.18l-1.067.216c-.804.168-1.224.432-1.224.983 0 .672.528.96 1.199.96.48 0 .876-.143 1.164-.431m7.787 1.031h-.996v-3.143c0-1.427-.42-1.871-1.271-1.871-1.031 0-1.463.828-1.463 1.716v3.298h-.996v-5.709h.996v.852c.24-.54.839-.983 1.787-.983 1.403 0 1.943.899 1.943 2.303zm6.012-5.709-2.339 6.656c-.36 1.008-.695 1.428-1.595 1.428-.359 0-.551-.024-.779-.061v-.875c.204.048.396.071.636.071.396 0 .624-.155.852-.839l.204-.6-2.039-5.781h1.067l.983 2.986.516 1.619h.024c.132-.396.276-.924.492-1.595l.983-3.011h.995z" class="st1" id="ad"/>
      <path d="M482 10.745c1.305.3 2.055 1.229 2.055 2.52 0 1.11-.51 1.95-1.38 2.415-.51.285-1.11.45-2.385.45h-4.08V5.931h3.899c1.05 0 1.98.045 2.73.659.54.45.885 1.096.885 1.936.001 1.094-.615 1.889-1.724 2.219m-.285-3.734c-.391-.165-.735-.24-1.68-.24h-2.865v3.659h2.865c.944 0 1.289-.06 1.68-.239.585-.255 1.005-.811 1.005-1.575 0-.781-.42-1.336-1.005-1.605m-4.545 8.279h3.075c.645 0 1.454 0 2.039-.436.48-.345.78-.914.78-1.59 0-.675-.3-1.215-.78-1.56-.585-.435-1.425-.435-2.069-.435h-3.045zm9.675.84h-.885V5.931h.885zm7.365-5.025v3.569c0 .675.194.885.614.885.165 0 .33-.045.42-.074v.63c-.135.045-.359.12-.704.12-.721 0-1.125-.24-1.17-1.155h-.016c-.33.555-1.095 1.229-2.354 1.229-1.396 0-2.4-.689-2.4-2.04 0-1.439 1.32-1.89 2.97-2.189l.75-.135c.811-.15 1.035-.271 1.035-.84v-.061c0-.915-.495-1.455-1.785-1.455-1.26 0-1.829.675-1.829 1.65l-.886-.12c.016-1.425 1.141-2.265 2.76-2.265 1.425.001 2.595.421 2.595 2.251m-.856 2.505v-1.35c-.12.09-.3.165-.585.226l-1.694.39c-.976.225-1.485.51-1.485 1.365 0 .93.72 1.38 1.65 1.38 1.11-.001 2.114-.781 2.114-2.011m7.906-2.475c-.36-1.005-1.005-1.56-2.01-1.56-1.41 0-2.311 1.14-2.311 3 0 1.859.93 2.97 2.311 2.97.989 0 1.619-.45 2.069-1.365l.705.436c-.51 1.05-1.439 1.694-2.774 1.694-1.995 0-3.24-1.439-3.24-3.72 0-2.295 1.274-3.765 3.24-3.765 1.395 0 2.324.69 2.774 1.86zm8.67 4.995h-1.096l-2.624-3.899-1.65 1.515v2.385h-.885v-10.2h.885v6.794l4.005-3.734h1.185l-2.88 2.64zm9.539-4.995c-.359-1.005-1.005-1.56-2.01-1.56-1.41 0-2.31 1.14-2.31 3 0 1.859.93 2.97 2.31 2.97.99 0 1.62-.45 2.07-1.365l.705.436c-.511 1.05-1.44 1.694-2.775 1.694-1.995 0-3.24-1.439-3.24-3.72 0-2.295 1.275-3.765 3.24-3.765 1.395 0 2.325.69 2.775 1.86zm5.16-2.31c2.01 0 3.24 1.5 3.24 3.765 0 2.25-1.215 3.72-3.24 3.72-2.024 0-3.24-1.47-3.24-3.72 0-2.265 1.23-3.765 3.24-3.765m0 6.735c1.38 0 2.31-1.14 2.31-2.984 0-1.875-.899-3-2.31-3s-2.31 1.14-2.31 3c0 1.859.93 2.984 2.31 2.984m10.665.57h-.885v-3.84c0-1.125-.075-1.785-.45-2.189-.27-.301-.705-.466-1.275-.466-.659 0-1.154.226-1.484.585-.42.436-.601 1.065-.601 1.665v4.245h-.885V8.99h.87v1.185h.015c.271-.689 1.065-1.35 2.28-1.35.735 0 1.365.225 1.785.69.45.51.63.989.63 2.579zm6.284-5.609c-.359-.495-.96-.931-1.904-.931-.87 0-1.62.375-1.62 1.141 0 .75.479 1.02 1.425 1.229l.945.225c1.2.271 2.13.705 2.13 1.98 0 1.395-1.186 2.145-2.715 2.145-1.485 0-2.521-.72-2.97-1.47l.72-.51c.45.72 1.215 1.215 2.279 1.215 1.2 0 1.785-.555 1.785-1.32 0-.795-.645-.989-1.5-1.199l-1.005-.24c-1.26-.3-1.995-.765-1.995-1.95 0-1.29 1.17-2.01 2.535-2.01 1.245 0 2.055.495 2.565 1.11zm2.61-1.531h.885v4.08c0 .899.105 1.545.45 1.949.271.301.675.466 1.275.466 1.47 0 2.024-1.2 2.024-2.25V8.99h.885v7.14h-.869v-1.17h-.016c-.27.689-1.02 1.35-2.234 1.35-.735 0-1.351-.225-1.771-.689-.404-.45-.63-1.065-.63-2.16zm16.201 3.27c0-1.08 0-1.739-.33-2.175-.181-.24-.511-.45-1.05-.45-1.2 0-1.905 1.021-1.905 2.686v3.81h-.885v-3.87c0-1.08 0-1.739-.33-2.175-.181-.24-.51-.45-1.05-.45-1.2 0-1.905.99-1.905 2.686v3.81h-.885V8.99h.87v1.2h.015c.3-.886 1.185-1.365 2.115-1.365.869 0 1.755.45 1.89 1.485.33-.9 1.17-1.485 2.25-1.485.524 0 1.02.135 1.425.495.525.479.66 1.095.66 2.489v4.32h-.885zm9.045 2.115c-.405.81-1.29 1.935-3.105 1.935-2.01 0-3.3-1.364-3.3-3.795 0-2.175 1.306-3.689 3.226-3.689 2.069 0 3.119 1.59 3.119 3.705v.12h-5.43v.104c0 1.875 1.08 2.79 2.415 2.79 1.365 0 2.07-.915 2.4-1.604zm-5.46-2.445h4.439c0-1.14-.779-2.34-2.159-2.34-1.306 0-2.16.915-2.28 2.34m10.781-2.19a3 3 0 0 0-.495-.045c-1.245 0-2.146.96-2.146 2.399v4.035h-.885V8.99h.87v1.41h.015a2.27 2.27 0 0 1 2.16-1.59 2.6 2.6 0 0 1 .48.045zm5.43.781c-.36-.495-.96-.931-1.905-.931-.869 0-1.619.375-1.619 1.141 0 .75.48 1.02 1.425 1.229l.944.225c1.201.271 2.131.705 2.131 1.98 0 1.395-1.186 2.145-2.715 2.145-1.485 0-2.521-.72-2.971-1.47l.721-.51c.449.72 1.215 1.215 2.279 1.215 1.2 0 1.785-.555 1.785-1.32 0-.795-.645-.989-1.5-1.199l-1.005-.24c-1.26-.3-1.995-.765-1.995-1.95 0-1.29 1.17-2.01 2.535-2.01 1.244 0 2.055.495 2.564 1.11z" class="st1"/>
      <path class="st4" d="M464.87 10.83h-23.32"/>
      <path d="m483.77 40.65-1.755-6.12c-.225-.75-.54-1.89-.63-2.234-.12.495-.36 1.395-.615 2.265L479 40.65h-1.005l-2.73-10.199h1.005l1.846 7.004c.18.69.39 1.396.449 1.681.105-.48.436-1.575.63-2.235l1.815-6.449h.78l1.979 6.989c.21.705.465 1.68.465 1.68.105-.479.375-1.455.601-2.234l1.77-6.435h.975l-2.895 10.199zm10.83 0h-.885v-3.84c0-1.125-.075-1.785-.45-2.189-.271-.301-.69-.466-1.275-.466-.645 0-1.125.226-1.455.585-.42.436-.6 1.065-.6 1.665v4.245h-.885V30.451h.885v4.244c.27-.689 1.05-1.35 2.265-1.35.735 0 1.351.225 1.771.69.449.51.63.989.63 2.579zm3.134-8.73h-.885v-1.47h.885zm0 8.73h-.885v-7.14h.885zm1.436-7.14h1.44v-2.67l.885-.195v2.865h1.71v.69h-1.71v4.815c0 .795.21 1.005.81 1.005.36 0 .69-.12.9-.225v.81c-.24.104-.675.225-1.11.225-.915 0-1.484-.345-1.484-1.59V34.2h-1.44zm11.46 5.385c-.405.81-1.29 1.935-3.105 1.935-2.01 0-3.3-1.364-3.3-3.795 0-2.175 1.306-3.689 3.226-3.689 2.069 0 3.119 1.59 3.119 3.705v.12h-5.43v.104c0 1.875 1.08 2.79 2.415 2.79 1.365 0 2.07-.915 2.4-1.604zm-5.46-2.445h4.439c0-1.14-.779-2.34-2.159-2.34-1.305 0-2.16.915-2.28 2.34m15.555-.795c-.359-1.005-1.005-1.56-2.01-1.56-1.41 0-2.31 1.14-2.31 3 0 1.859.93 2.97 2.31 2.97.99 0 1.62-.45 2.07-1.365l.705.436c-.511 1.05-1.44 1.694-2.775 1.694-1.995 0-3.24-1.439-3.24-3.72 0-2.295 1.275-3.765 3.24-3.765 1.395 0 2.325.69 2.775 1.86zm5.16-2.31c2.01 0 3.24 1.5 3.24 3.765 0 2.25-1.215 3.72-3.24 3.72-2.024 0-3.24-1.47-3.24-3.72 0-2.265 1.23-3.765 3.24-3.765m0 6.735c1.38 0 2.31-1.14 2.31-2.984 0-1.875-.899-3-2.31-3s-2.31 1.14-2.31 3c0 1.859.93 2.984 2.31 2.984m10.664.57h-.885v-3.84c0-1.125-.075-1.785-.45-2.189-.27-.301-.704-.466-1.274-.466-.66 0-1.155.226-1.485.585-.42.436-.6 1.065-.6 1.665v4.245h-.885v-7.14h.87v1.185h.015c.27-.689 1.064-1.35 2.28-1.35.734 0 1.364.225 1.784.69.45.51.63.989.63 2.579zm6.285-5.609c-.359-.495-.96-.931-1.904-.931-.87 0-1.62.375-1.62 1.141 0 .75.479 1.02 1.425 1.229l.945.225c1.2.271 2.13.705 2.13 1.98 0 1.395-1.186 2.145-2.715 2.145-1.485 0-2.521-.72-2.97-1.47l.72-.51c.45.72 1.215 1.215 2.279 1.215 1.2 0 1.785-.555 1.785-1.32 0-.795-.645-.989-1.5-1.199l-1.005-.24c-1.26-.3-1.995-.765-1.995-1.95 0-1.29 1.17-2.01 2.535-2.01 1.245 0 2.055.495 2.565 1.11zm2.61-1.531h.885v4.08c0 .899.105 1.545.45 1.949.271.301.675.466 1.275.466 1.47 0 2.024-1.2 2.024-2.25V33.51h.885v7.14h-.869v-1.17h-.016c-.27.689-1.02 1.35-2.234 1.35-.735 0-1.351-.225-1.771-.689-.404-.45-.63-1.065-.63-2.16zm16.2 3.27c0-1.08 0-1.739-.33-2.175-.18-.24-.51-.45-1.05-.45-1.2 0-1.905 1.021-1.905 2.686v3.81h-.885v-3.87c0-1.08 0-1.739-.33-2.175-.18-.24-.51-.45-1.05-.45-1.2 0-1.905.99-1.905 2.686v3.81h-.885v-7.14h.87v1.2h.015c.301-.886 1.186-1.365 2.115-1.365.87 0 1.755.45 1.89 1.485.33-.9 1.17-1.485 2.25-1.485.525 0 1.021.135 1.425.495.525.479.66 1.095.66 2.489v4.32h-.885zm9.044 2.115c-.404.81-1.29 1.935-3.104 1.935-2.01 0-3.3-1.364-3.3-3.795 0-2.175 1.305-3.689 3.225-3.689 2.07 0 3.12 1.59 3.12 3.705v.12h-5.43v.104c0 1.875 1.08 2.79 2.415 2.79 1.364 0 2.069-.915 2.399-1.604zm-5.459-2.445h4.439c0-1.14-.78-2.34-2.16-2.34-1.304 0-2.159.915-2.279 2.34m10.786-2.19a3 3 0 0 0-.495-.045c-1.244 0-2.145.96-2.145 2.399v4.035h-.885v-7.14h.87v1.41h.015a2.27 2.27 0 0 1 2.16-1.59c.165 0 .314.015.479.045zm5.429.781c-.359-.495-.96-.931-1.904-.931-.87 0-1.62.375-1.62 1.141 0 .75.48 1.02 1.425 1.229l.945.225c1.2.271 2.13.705 2.13 1.98 0 1.395-1.186 2.145-2.715 2.145-1.485 0-2.521-.72-2.97-1.47l.72-.51c.45.72 1.215 1.215 2.279 1.215 1.2 0 1.785-.555 1.785-1.32 0-.795-.645-.989-1.5-1.199l-1.005-.24c-1.26-.3-1.995-.765-1.995-1.95 0-1.29 1.17-2.01 2.535-2.01 1.245 0 2.055.495 2.565 1.11z" class="st1"/>
      <path class="st3" d="M464.87 35.35h-23.32"/>
      <circle class="st6" cx="273.37" cy="518.97" r="5.77"/>
      <circle class="st6" cx="214.06" cy="549.95" r="5.77"/>
      <circle class="st6" cx="99.44" cy="153.78" r="5.77"/>
      <circle class="st6" cx="415.97" cy="288.63" r="5.77"/>
      <circle class="st7" cx="404.61" cy="301.03" r="5.77"/>
      <circle class="st7" cx="341.87" cy="496.92" r="5.77"/>
      <circle class="st7" cx="341.94" cy="542.91" r="5.77"/>
      <circle class="st7" cx="38.75" cy="351.23" r="5.77"/>
    </g>
    <g id="ae"/>
    <g id="af"/>
  </g>
  <g id="ag"/>
</svg>
