<svg xmlns="http://www.w3.org/2000/svg" version="1.1" id="Warstwa_1" x="0" y="0" viewBox="0 0 1080 1080" xml:space="preserve">
  <style>
    .st3{fill:#394a90}.st4{font-family:&quot;EuclidCircularA-Light&quot;}.st5{font-size:27.5641px}.st6{letter-spacing:-2}
  </style>
  <g/>
  <path d="M540.01 965.16c244.31 0 443.08-198.77 443.08-443.09C983.09 277.76 784.32 79 540.01 79H540v66.54h.01c207.61 0 376.52 168.92 376.52 376.53 0 207.62-168.91 376.53-376.52 376.53-207.63 0-376.53-168.92-376.53-376.53 0-24.56 2.39-48.58 6.91-71.84l-65.35-12.7a443.7 443.7 0 0 0-8.13 84.54c-.01 244.32 198.78 443.09 443.1 443.09" style="fill:#85c9e4"/>
  <path d="M540 160.96v66.55c127.33 0 236.04 81.2 277.07 194.54l62.16-23.86C828.58 259.9 695.63 160.96 540 160.96" style="fill:#b7dcee"/>
  <path d="M540 242.93v66.54c11.66 0 23.09.94 34.24 2.76l10.41-65.73a280 280 0 0 0-44.65-3.57" style="fill:#d9ecf7"/>
  <text transform="translate(464.905 113.62)"><tspan x="0" y="0" class="st3 st4 st5 st6">Y</tspan><tspan x="15.46" y="0" class="st3 st4 st5">es</tspan></text>
  <text transform="translate(364.709 193.857)"><tspan x="0" y="0" class="st3 st4 st5">I</tspan><tspan x="7.55" y="0" class="st3 st4 st5">’</tspan><tspan x="13.84" y="0" class="st3 st4 st5">m n</tspan><tspan x="61.05" y="0" class="st3 st4 st5">o</tspan><tspan x="77.67" y="0" class="st3 st4 st5">t su</tspan><tspan x="123.02" y="0" class="st3 st4 st5">r</tspan><tspan x="132.39" y="0" class="st3 st4 st5">e</tspan></text>
  <text transform="translate(474.386 274.098)"><tspan x="0" y="0" class="st3 st4 st5">N</tspan><tspan x="21.69" y="0" class="st3 st4 st5">o</tspan></text>
  <text transform="translate(598.206 301.33)" class="st3 st4 st5">2.7%</text>
  <text transform="translate(109.054 424.21)"><tspan x="0" y="0" class="st3 st4 st5">7</tspan><tspan x="13.51" y="0" class="st3 st4 st5">8.2%</tspan></text>
  <text transform="translate(818.992 452.767)"><tspan x="0" y="0" class="st3 st4 st5">1</tspan><tspan x="8.6" y="0" class="st3 st4 st5 st6">9</tspan><tspan x="21.53" y="0" class="st3 st4 st5">.2%</tspan></text>
  <text transform="translate(491.107 1013.736)" class="st3 st4" style="font-size:30.4197px">N = 671</text>
</svg>
