<svg version="1.1" xmlns="http://www.w3.org/2000/svg" xmlns:xlink="http://www.w3.org/1999/xlink" role="group" style="width: 100%; height: 100%; overflow: visible;"><defs><clipPath id="id-46"><rect width="341" height="500"></rect></clipPath><linearGradient id="gradient-id-69" x1="1%" x2="99%" y1="59%" y2="41%"><stop stop-color="#474758" offset="0"></stop><stop stop-color="#474758" stop-opacity="1" offset="0.75"></stop><stop stop-color="#3cabff" stop-opacity="1" offset="0.755"></stop></linearGradient><filter id="filter-id-78" filterUnits="objectBoundingBox" width="200%" height="200%" x="-50%" y="-50%"></filter><filter id="filter-id-99" filterUnits="objectBoundingBox" width="200%" height="200%" x="-50%" y="-50%"></filter><clipPath id="id-132"><path d="M0,0 L260,0 L260,396 L0,396 L0,0"></path></clipPath><clipPath id="id-149"><path d="M0,0 L260,0 L260,396 L0,396 L0,0"></path></clipPath><clipPath id="id-167"><rect width="260" height="396"></rect></clipPath><clipPath id="id-554"><rect width="260" height="396"></rect></clipPath><filter id="filter-id-51" filterUnits="objectBoundingBox" width="200%" height="200%" x="-50%" y="-50%"><feGaussianBlur result="blurOut" in="SourceGraphic" stdDeviation="1.5"></feGaussianBlur><feOffset result="offsetBlur" dx="1" dy="1"></feOffset><feFlood flood-color="#000000" flood-opacity="0.5"></feFlood><feComposite in2="offsetBlur" operator="in"></feComposite><feMerge><feMergeNode></feMergeNode><feMergeNode in="SourceGraphic"></feMergeNode></feMerge></filter><filter id="filter-id-66" filterUnits="objectBoundingBox" width="120%" height="120%" x="-10%" y="-10%"><feColorMatrix type="saturate" values="0"></feColorMatrix></filter><filter id="filter-id-137" filterUnits="objectBoundingBox" width="200%" height="200%" x="-50%" y="-50%"><feGaussianBlur result="blurOut" in="SourceGraphic" stdDeviation="1.5"></feGaussianBlur><feOffset result="offsetBlur" dx="1" dy="1"></feOffset><feFlood flood-color="#000000" flood-opacity="0.5"></feFlood><feComposite in2="offsetBlur" operator="in"></feComposite><feMerge><feMergeNode></feMergeNode><feMergeNode in="SourceGraphic"></feMergeNode></feMerge></filter><filter id="filter-id-154" filterUnits="objectBoundingBox" width="200%" height="200%" x="-50%" y="-50%"><feGaussianBlur result="blurOut" in="SourceGraphic" stdDeviation="1.5"></feGaussianBlur><feOffset result="offsetBlur" dx="1" dy="1"></feOffset><feFlood flood-color="#000000" flood-opacity="0.5"></feFlood><feComposite in2="offsetBlur" operator="in"></feComposite><feMerge><feMergeNode></feMergeNode><feMergeNode in="SourceGraphic"></feMergeNode></feMerge></filter></defs><g><g fill="#ffffff" fill-opacity="0"><rect width="341" height="500"></rect></g><g><g role="region" clip-path="url(&quot;#id-46&quot;)" opacity="1" aria-label="Chart" id="id-22"><g transform="translate(15,15)"><g><g><g><g><g transform="translate(0,32)"><g><g transform="translate(51,0)" style="touch-action: none; user-select: none; -webkit-user-drag: none;"><g fill="#ffffff" fill-opacity="0"><rect width="260" height="396"></rect></g><g><g><g><g stroke="#000000" stroke-opacity="0.15" fill="none" transform="translate(0,462)" display="none"><path d=" M0,0  L260,0 " transform="translate(-0.5,-0.5)"></path></g><g stroke="#000000" stroke-opacity="0.15" fill="none" transform="translate(0,429)" display="none"><path d=" M0,0  L260,0 " transform="translate(-0.5,-0.5)"></path></g><g stroke="#000000" stroke-opacity="0.15" fill="none" transform="translate(0,396)"><path d=" M0,0  L260,0 " transform="translate(-0.5,-0.5)"></path></g><g stroke="#000000" stroke-opacity="0.15" fill="none" transform="translate(0,363)" display="none"><path d=" M0,0  L260,0 " transform="translate(-0.5,-0.5)"></path></g><g stroke="#000000" stroke-opacity="0.15" fill="none" transform="translate(0,330)"><path d=" M0,0  L260,0 " transform="translate(-0.5,-0.5)"></path></g><g stroke="#000000" stroke-opacity="0.15" fill="none" transform="translate(0,297)" display="none"><path d=" M0,0  L260,0 " transform="translate(-0.5,-0.5)"></path></g><g stroke="#000000" stroke-opacity="0.15" fill="none" transform="translate(0,264)"><path d=" M0,0  L260,0 " transform="translate(-0.5,-0.5)"></path></g><g stroke="#000000" stroke-opacity="0.15" fill="none" transform="translate(0,231)" display="none"><path d=" M0,0  L260,0 " transform="translate(-0.5,-0.5)"></path></g><g stroke="#000000" stroke-opacity="0.15" fill="none" transform="translate(0,198)"><path d=" M0,0  L260,0 " transform="translate(-0.5,-0.5)"></path></g><g stroke="#000000" stroke-opacity="0.15" fill="none" transform="translate(0,165)" display="none"><path d=" M0,0  L260,0 " transform="translate(-0.5,-0.5)"></path></g><g stroke="#000000" stroke-opacity="0.15" fill="none" transform="translate(0,132)"><path d=" M0,0  L260,0 " transform="translate(-0.5,-0.5)"></path></g><g stroke="#000000" stroke-opacity="0.15" fill="none" transform="translate(0,99)" display="none"><path d=" M0,0  L260,0 " transform="translate(-0.5,-0.5)"></path></g><g stroke="#000000" stroke-opacity="0.15" fill="none" transform="translate(0,66)"><path d=" M0,0  L260,0 " transform="translate(-0.5,-0.5)"></path></g><g stroke="#000000" stroke-opacity="0.15" fill="none" transform="translate(0,-66)" display="none"><path d=" M0,0  L260,0 " transform="translate(-0.5,-0.5)"></path></g><g stroke="#000000" stroke-opacity="0.15" fill="none"><path d=" M0,0  L260,0 " transform="translate(-0.5,-0.5)"></path></g><g stroke="#000000" stroke-opacity="0.15" fill="none" transform="translate(0,528)" display="none"><path d=" M0,0  L260,0 " transform="translate(-0.5,-0.5)"></path></g></g></g><g><g><g stroke="#000000" stroke-opacity="0.15" fill="none"><path d=" M0,0  L0,396 " transform="translate(-0.5,-0.5)"></path></g><g stroke="#000000" stroke-opacity="0.15" fill="none" transform="translate(68,0)" display="none"><path d=" M0,0  L0,396 " transform="translate(-0.5,-0.5)"></path></g><g stroke="#000000" stroke-opacity="0.15" fill="none" transform="translate(129,0)"><path d=" M0,0  L0,396 " transform="translate(-0.5,-0.5)"></path></g><g stroke="#000000" stroke-opacity="0.15" fill="none" transform="translate(197,0)" display="none"><path d=" M0,0  L0,396 " transform="translate(-0.5,-0.5)"></path></g><g stroke="#000000" stroke-opacity="0.15" fill="none" transform="translate(262,0)" display="none"><path d=" M0,0  L0,396 " transform="translate(-0.5,-0.5)"></path></g></g></g><g><g><g role="group" stroke-opacity="1" fill-opacity="0.3" stroke="#67b7dc" aria-label="Series" id="id-127"><g><g clip-path="url(&quot;#id-132&quot;)"><g><g><g><g fill="#67b7dc" fill-opacity="0.3" stroke="#67b7dc" stroke-opacity="1" style="pointer-events: none;"><g><g stroke-opacity="0"><path d=" M0.8928,151.6  M1.0928,151.8  C1.53,151.7999 2.4042,138.6 3.2785,138.6 C4.1528,138.6 4.5898,151.7999 5.4641,151.8 C6.3384,151.8001 6.7754,151.7997 7.6497,151.8 C8.524,151.8003 8.9611,178.1997 9.8354,178.2 C10.7097,178.2003 11.1467,178.1999 12.021,178.2 C12.8953,178.2001 13.3324,191.4001 14.2067,191.4 C15.081,191.3999 15.518,171.6003 16.3923,171.6 C17.2666,171.5997 17.7036,158.3999 18.5779,158.4 C19.4522,158.4001 19.8893,178.2002 20.7636,178.2 C21.6379,178.1998 22.0749,138.6001 22.9492,138.6 C23.8235,138.5999 24.2606,171.5997 25.1349,171.6 C26.0092,171.6003 26.4462,171.6001 27.3205,171.6 C28.1948,171.5999 28.6318,158.4001 29.5061,158.4 C30.3804,158.3999 30.8175,164.9999 31.6918,165 C32.5661,165.0001 33.0031,165.0001 33.8774,165 C34.7517,164.9999 35.1887,158.4004 36.063,158.4 C36.9373,158.3996 37.3744,125.4004 38.2487,125.4 C39.123,125.3996 39.56,118.8 40.4343,118.8 C41.3086,118.8 41.7457,125.4 42.62,125.4 C43.4943,125.4 43.9313,118.8001 44.8056,118.8 C45.6799,118.7999 46.1169,112.1998 46.9912,112.2 C47.8655,112.2002 48.3026,138.5998 49.1769,138.6 C50.0512,138.6002 50.4882,131.9998 51.3625,132 C52.2368,132.0002 52.6739,158.3997 53.5482,158.4 C54.4225,158.4003 54.8595,158.4003 55.7338,158.4 C56.6081,158.3997 57.0451,132.0003 57.9194,132 C58.7937,131.9997 59.2308,125.3997 60.1051,125.4 C60.9794,125.4003 61.4164,158.3995 62.2907,158.4 C63.165,158.4005 63.6021,178.2 64.4764,178.2 C65.3507,178.2 65.7877,158.4002 66.662,158.4 C67.5363,158.3998 67.9733,158.3999 68.8476,158.4 C69.7219,158.4001 70.159,171.5998 71.0333,171.6 C71.9076,171.6002 72.3446,178.1998 73.2189,178.2 C74.0932,178.2002 74.5303,191.3999 75.4046,191.4 C76.2789,191.4001 76.7159,184.8001 77.5902,184.8 C78.4645,184.7999 78.9015,184.7999 79.7758,184.8 C80.6501,184.8001 81.0872,191.3998 81.9615,191.4 C82.8358,191.4002 83.2728,204.5996 84.1471,204.6 C85.0214,204.6004 85.4585,230.9999 86.3327,231 C87.207,231.0001 87.6441,211.1998 88.5184,211.2 C89.3927,211.2002 89.8297,250.7996 90.704,250.8 C91.5783,250.8004 92.0154,250.7999 92.8897,250.8 C93.764,250.8001 94.201,263.9997 95.0753,264 C95.9496,264.0003 96.3866,277.2002 97.2609,277.2 C98.1352,277.1998 98.5723,244.2001 99.4466,244.2 C100.3209,244.1999 100.7579,270.5995 101.6322,270.6 C102.5065,270.6005 102.9436,296.9999 103.8179,297 C104.6922,297.0001 105.1292,277.1999 106.0035,277.2 C106.8778,277.2001 107.3148,310.1999 108.1891,310.2 C109.0634,310.2001 109.5005,283.8003 110.3748,283.8 C111.2491,283.7997 111.6861,277.2 112.5604,277.2 C113.4347,277.2 113.8718,283.8003 114.7461,283.8 C115.6204,283.7997 116.0574,250.8004 116.9317,250.8 C117.806,250.7996 118.243,244.1999 119.1173,244.2 C119.9916,244.2001 120.4287,257.3999 121.303,257.4 C122.1773,257.4001 122.6143,257.3999 123.4886,257.4 C124.3629,257.4001 124.8,270.5999 125.6743,270.6 C126.5486,270.6001 126.9856,270.6003 127.8599,270.6 C128.7342,270.5997 129.1712,244.2003 130.0455,244.2 C130.9198,244.1997 131.3569,237.5998 132.2312,237.6 C133.1055,237.6002 133.5425,263.9999 134.4168,264 C135.2911,264.0001 135.7282,244.2001 136.6025,244.2 C137.4768,244.1999 137.9138,257.3999 138.7881,257.4 C139.6624,257.4001 140.0994,250.7999 140.9737,250.8 C141.848,250.8001 142.2851,270.6 143.1594,270.6 C144.0337,270.6 144.4707,250.7999 145.345,250.8 C146.2193,250.8001 146.6563,283.7997 147.5306,283.8 C148.4049,283.8003 148.8511,277.2002 149.7163,277.2 C150.5815,277.1998 151.0003,264.0001 151.8564,264 C152.7125,263.9999 153.1313,270.6002 153.9965,270.6 C154.8617,270.5998 155.3078,244.2001 156.1821,244.2 C157.0564,244.1999 157.4935,257.4003 158.3678,257.4 C159.2421,257.3997 159.6791,217.8005 160.5534,217.8 C161.4277,217.7995 161.8648,204.6001 162.7391,204.6 C163.6134,204.5999 164.0504,211.2003 164.9247,211.2 C165.799,211.1997 166.236,171.6003 167.1103,171.6 C167.9846,171.5997 168.4217,184.7999 169.296,184.8 C170.1703,184.8001 170.6073,178.2001 171.4816,178.2 C172.3559,178.1999 172.793,178.2 173.6673,178.2 C174.5415,178.2 174.9786,178.2002 175.8529,178.2 C176.7272,178.1998 177.1642,158.4003 178.0385,158.4 C178.9128,158.3997 179.3499,151.7999 180.2242,151.8 C181.0985,151.8001 181.5355,164.9997 182.4098,165 C183.2841,165.0003 183.7211,184.8003 184.5954,184.8 C185.4697,184.7997 185.9068,132.0005 186.7811,132 C187.6554,131.9995 188.0924,132.0001 188.9667,132 C189.841,131.9999 190.2781,118.8001 191.1524,118.8 C192.0267,118.7999 192.4637,125.4001 193.338,125.4 C194.2123,125.3999 194.6493,112.2003 195.5236,112.2 C196.3979,112.1997 196.835,92.4 197.7093,92.4 C198.5836,92.4 199.0206,112.1993 199.8949,112.2 C200.7692,112.2007 201.2063,158.3999 202.0806,158.4 C202.9549,158.4001 203.3919,125.4002 204.2662,125.4 C205.1405,125.3998 205.5775,138.6 206.4518,138.6 C207.3261,138.6 207.7632,125.4002 208.6375,125.4 C209.5118,125.3998 209.9488,118.8005 210.8231,118.8 C211.6974,118.7995 212.1345,72.6002 213.0088,72.6 C213.8831,72.5998 214.3201,98.9997 215.1944,99 C216.0687,99.0003 216.5057,99 217.38,99 C218.2543,99 218.6914,99.0001 219.5657,99 C220.44,98.9999 220.877,92.4001 221.7513,92.4 C222.6256,92.3999 223.0627,85.7998 223.937,85.8 C224.8113,85.8002 225.2483,112.1999 226.1226,112.2 C226.9969,112.2001 227.4339,99.0003 228.3082,99 C229.1825,98.9997 229.6196,85.8001 230.4939,85.8 C231.3682,85.7999 231.8052,85.8001 232.6795,85.8 C233.5538,85.7999 233.9908,72.6 234.8651,72.6 C235.7394,72.6 236.1765,85.7997 237.0508,85.8 C237.9251,85.8003 238.3621,105.6 239.2364,105.6 C240.1107,105.6 240.5478,85.8007 241.4221,85.8 C242.2964,85.7993 242.7334,39.6007 243.6077,39.6 C244.482,39.5993 244.919,13.1998 245.7933,13.2 C246.6676,13.2002 247.1047,59.3998 247.979,59.4 C248.8533,59.4002 249.2903,33 250.1646,33 C251.0389,33 251.476,59.3995 252.3503,59.4 C253.2246,59.4005 253.6616,79.1995 254.5359,79.2 C255.4102,79.2005 255.8472,112.1999 256.7215,112.2 C257.5958,112.2001 258.47,85.8003 258.9072,85.8 L258.9072,270.6  C258.47,270.5999 257.5958,264.0001 256.7215,264 C255.8472,263.9999 255.4102,257.4002 254.5359,257.4 C253.6616,257.3998 253.2246,244.2003 252.3503,244.2 C251.476,244.1997 251.0389,224.4002 250.1646,224.4 C249.2903,224.3998 248.8533,224.4002 247.979,224.4 C247.1047,224.3998 246.6676,204.6001 245.7933,204.6 C244.919,204.5999 244.482,211.1997 243.6077,211.2 C242.7334,211.2003 242.2964,237.5997 241.4221,237.6 C240.5478,237.6003 240.1107,244.1998 239.2364,244.2 C238.3621,244.2002 237.9251,257.3999 237.0508,257.4 C236.1765,257.4001 235.7394,257.4001 234.8651,257.4 C233.9908,257.3999 233.5538,250.8001 232.6795,250.8 C231.8052,250.7999 231.3682,244.2 230.4939,244.2 C229.6196,244.2 229.1825,250.7997 228.3082,250.8 C227.4339,250.8003 226.9969,270.6 226.1226,270.6 C225.2483,270.6 224.8113,250.8001 223.937,250.8 C223.0627,250.7999 222.6256,257.3999 221.7513,257.4 C220.877,257.4001 220.44,264 219.5657,264 C218.6914,264 218.2543,257.4003 217.38,257.4 C216.5057,257.3997 216.0687,231.0004 215.1944,231 C214.3201,230.9996 213.8831,217.7999 213.0088,217.8 C212.1345,217.8001 211.6974,244.1995 210.8231,244.2 C209.9488,244.2005 209.5118,263.9996 208.6375,264 C207.7632,264.0004 207.3261,283.7997 206.4518,283.8 C205.5775,283.8003 205.1405,290.4 204.2662,290.4 C203.3919,290.4 202.9549,283.8002 202.0806,283.8 C201.2063,283.7998 200.7692,270.6004 199.8949,270.6 C199.0206,270.5996 198.5836,244.2001 197.7093,244.2 C196.835,244.1999 196.3979,257.3998 195.5236,257.4 C194.6493,257.4002 194.2123,263.9999 193.338,264 C192.4637,264.0001 192.0267,264.0001 191.1524,264 C190.2781,263.9999 189.841,257.3999 188.9667,257.4 C188.0924,257.4001 187.6554,277.1997 186.7811,277.2 C185.9068,277.2003 185.4697,290.3998 184.5954,290.4 C183.7211,290.4002 183.2841,297.0001 182.4098,297 C181.5355,296.9999 181.0985,283.8001 180.2242,283.8 C179.3499,283.7999 178.9128,290.3997 178.0385,290.4 C177.1642,290.4003 176.7272,316.7997 175.8529,316.8 C174.9786,316.8003 174.5415,316.8001 173.6673,316.8 C172.793,316.7999 172.3559,303.6003 171.4816,303.6 C170.6073,303.5997 170.1703,290.3999 169.296,290.4 C168.4217,290.4001 167.9846,310.1996 167.1103,310.2 C166.236,310.2004 165.799,329.9999 164.9247,330 C164.0504,330.0001 163.6134,323.3999 162.7391,323.4 C161.8648,323.4001 161.4277,343.1997 160.5534,343.2 C159.6791,343.2003 159.2421,356.3999 158.3678,356.4 C157.4935,356.4001 157.0564,349.7999 156.1821,349.8 C155.3078,349.8001 154.8617,369.5997 153.9965,369.6 C153.1313,369.6003 152.7125,382.7998 151.8564,382.8 C151.0003,382.8002 150.5815,389.4001 149.7163,389.4 C148.8511,389.3999 148.4049,376.2003 147.5306,376.2 C146.6563,376.1997 146.2193,362.9999 145.345,363 C144.4707,363.0001 144.0337,382.8001 143.1594,382.8 C142.2851,382.7999 141.848,356.4003 140.9737,356.4 C140.0994,356.3997 139.6624,349.8001 138.7881,349.8 C137.9138,349.7999 137.4768,349.8001 136.6025,349.8 C135.7282,349.7999 135.2911,343.2003 134.4168,343.2 C133.5425,343.1997 133.1055,323.3999 132.2312,323.4 C131.3569,323.4001 130.9198,349.7995 130.0455,349.8 C129.1712,349.8005 128.7342,376.1998 127.8599,376.2 C126.9856,376.2002 126.5486,369.6003 125.6743,369.6 C124.8,369.5997 124.3629,349.8003 123.4886,349.8 C122.6143,349.7997 122.1773,336.5999 121.303,336.6 C120.4287,336.6001 119.9916,356.3998 119.1173,356.4 C118.243,356.4002 117.806,356.3998 116.9317,356.4 C116.0574,356.4002 115.6204,376.1998 114.7461,376.2 C113.8718,376.2002 113.4347,376.2001 112.5604,376.2 C111.6861,376.1999 111.2491,363 110.3748,363 C109.5005,363 109.0634,376.1999 108.1891,376.2 C107.3148,376.2001 106.8778,376.2002 106.0035,376.2 C105.1292,376.1998 104.6922,356.4003 103.8179,356.4 C102.9436,356.3997 102.5065,349.8003 101.6322,349.8 C100.7579,349.7997 100.3209,330.0001 99.4466,330 C98.5723,329.9999 98.1352,336.5999 97.2609,336.6 C96.3866,336.6001 95.9496,336.6003 95.0753,336.6 C94.201,336.5997 93.764,310.2003 92.8897,310.2 C92.0154,310.1997 91.5783,303.6001 90.704,303.6 C89.8297,303.5999 89.3927,297 88.5184,297 C87.6441,297 87.207,303.6001 86.3327,303.6 C85.4585,303.5999 85.0214,283.8003 84.1471,283.8 C83.2728,283.7997 82.8358,270.6003 81.9615,270.6 C81.0872,270.5997 80.6501,257.4003 79.7758,257.4 C78.9015,257.3997 78.4645,244.2001 77.5902,244.2 C76.7159,244.1999 76.2789,250.7999 75.4046,250.8 C74.5303,250.8001 74.0932,250.8002 73.2189,250.8 C72.3446,250.7998 71.9076,231.0004 71.0333,231 C70.159,230.9996 69.7219,211.2 68.8476,211.2 C67.9733,211.2 67.5363,231 66.662,231 C65.7877,231 65.3507,211.2003 64.4764,211.2 C63.6021,211.1997 63.165,198.0003 62.2907,198 C61.4164,197.9997 60.9794,178.2001 60.1051,178.2 C59.2308,178.1999 58.7937,191.3998 57.9194,191.4 C57.0451,191.4002 56.6081,197.9998 55.7338,198 C54.8595,198.0002 54.4225,211.2001 53.5482,211.2 C52.6739,211.1999 52.2368,191.4003 51.3625,191.4 C50.4882,191.3997 50.0512,178.2003 49.1769,178.2 C48.3026,178.1997 47.8655,165.0001 46.9912,165 C46.1169,164.9999 45.6799,165 44.8056,165 C43.9313,165 43.4943,165.0001 42.62,165 C41.7457,164.9999 41.3086,158.3999 40.4343,158.4 C39.56,158.4001 39.123,178.1996 38.2487,178.2 C37.3744,178.2004 36.9373,197.9998 36.063,198 C35.1887,198.0002 34.7517,197.9999 33.8774,198 C33.0031,198.0001 32.5661,204.6 31.6918,204.6 C30.8175,204.6 30.3804,198 29.5061,198 C28.6318,198 28.1948,204.6 27.3205,204.6 C26.4462,204.6 26.0092,198.0003 25.1349,198 C24.2606,197.9997 23.8235,178.2 22.9492,178.2 C22.0749,178.2 21.6379,197.9997 20.7636,198 C19.8893,198.0003 19.4522,204.6 18.5779,204.6 C17.7036,204.6 17.2666,197.9999 16.3923,198 C15.518,198.0001 15.081,211.2001 14.2067,211.2 C13.3324,211.1999 12.8953,191.4003 12.021,191.4 C11.1467,191.3997 10.7097,184.8002 9.8354,184.8 C8.9611,184.7998 8.524,171.6001 7.6497,171.6 C6.7754,171.5999 6.3384,171.6 5.4641,171.6 C4.5898,171.6 4.1528,171.6001 3.2785,171.6 C2.4042,171.5999 1.53,158.4001 1.0928,158.4 L1.0928,151.8  Z"></path></g><g fill="none" fill-opacity="0"><path d=" M0.8928,151.6  M1.0928,151.8  C1.53,151.7999 2.4042,138.6 3.2785,138.6 C4.1528,138.6 4.5898,151.7999 5.4641,151.8 C6.3384,151.8001 6.7754,151.7997 7.6497,151.8 C8.524,151.8003 8.9611,178.1997 9.8354,178.2 C10.7097,178.2003 11.1467,178.1999 12.021,178.2 C12.8953,178.2001 13.3324,191.4001 14.2067,191.4 C15.081,191.3999 15.518,171.6003 16.3923,171.6 C17.2666,171.5997 17.7036,158.3999 18.5779,158.4 C19.4522,158.4001 19.8893,178.2002 20.7636,178.2 C21.6379,178.1998 22.0749,138.6001 22.9492,138.6 C23.8235,138.5999 24.2606,171.5997 25.1349,171.6 C26.0092,171.6003 26.4462,171.6001 27.3205,171.6 C28.1948,171.5999 28.6318,158.4001 29.5061,158.4 C30.3804,158.3999 30.8175,164.9999 31.6918,165 C32.5661,165.0001 33.0031,165.0001 33.8774,165 C34.7517,164.9999 35.1887,158.4004 36.063,158.4 C36.9373,158.3996 37.3744,125.4004 38.2487,125.4 C39.123,125.3996 39.56,118.8 40.4343,118.8 C41.3086,118.8 41.7457,125.4 42.62,125.4 C43.4943,125.4 43.9313,118.8001 44.8056,118.8 C45.6799,118.7999 46.1169,112.1998 46.9912,112.2 C47.8655,112.2002 48.3026,138.5998 49.1769,138.6 C50.0512,138.6002 50.4882,131.9998 51.3625,132 C52.2368,132.0002 52.6739,158.3997 53.5482,158.4 C54.4225,158.4003 54.8595,158.4003 55.7338,158.4 C56.6081,158.3997 57.0451,132.0003 57.9194,132 C58.7937,131.9997 59.2308,125.3997 60.1051,125.4 C60.9794,125.4003 61.4164,158.3995 62.2907,158.4 C63.165,158.4005 63.6021,178.2 64.4764,178.2 C65.3507,178.2 65.7877,158.4002 66.662,158.4 C67.5363,158.3998 67.9733,158.3999 68.8476,158.4 C69.7219,158.4001 70.159,171.5998 71.0333,171.6 C71.9076,171.6002 72.3446,178.1998 73.2189,178.2 C74.0932,178.2002 74.5303,191.3999 75.4046,191.4 C76.2789,191.4001 76.7159,184.8001 77.5902,184.8 C78.4645,184.7999 78.9015,184.7999 79.7758,184.8 C80.6501,184.8001 81.0872,191.3998 81.9615,191.4 C82.8358,191.4002 83.2728,204.5996 84.1471,204.6 C85.0214,204.6004 85.4585,230.9999 86.3327,231 C87.207,231.0001 87.6441,211.1998 88.5184,211.2 C89.3927,211.2002 89.8297,250.7996 90.704,250.8 C91.5783,250.8004 92.0154,250.7999 92.8897,250.8 C93.764,250.8001 94.201,263.9997 95.0753,264 C95.9496,264.0003 96.3866,277.2002 97.2609,277.2 C98.1352,277.1998 98.5723,244.2001 99.4466,244.2 C100.3209,244.1999 100.7579,270.5995 101.6322,270.6 C102.5065,270.6005 102.9436,296.9999 103.8179,297 C104.6922,297.0001 105.1292,277.1999 106.0035,277.2 C106.8778,277.2001 107.3148,310.1999 108.1891,310.2 C109.0634,310.2001 109.5005,283.8003 110.3748,283.8 C111.2491,283.7997 111.6861,277.2 112.5604,277.2 C113.4347,277.2 113.8718,283.8003 114.7461,283.8 C115.6204,283.7997 116.0574,250.8004 116.9317,250.8 C117.806,250.7996 118.243,244.1999 119.1173,244.2 C119.9916,244.2001 120.4287,257.3999 121.303,257.4 C122.1773,257.4001 122.6143,257.3999 123.4886,257.4 C124.3629,257.4001 124.8,270.5999 125.6743,270.6 C126.5486,270.6001 126.9856,270.6003 127.8599,270.6 C128.7342,270.5997 129.1712,244.2003 130.0455,244.2 C130.9198,244.1997 131.3569,237.5998 132.2312,237.6 C133.1055,237.6002 133.5425,263.9999 134.4168,264 C135.2911,264.0001 135.7282,244.2001 136.6025,244.2 C137.4768,244.1999 137.9138,257.3999 138.7881,257.4 C139.6624,257.4001 140.0994,250.7999 140.9737,250.8 C141.848,250.8001 142.2851,270.6 143.1594,270.6 C144.0337,270.6 144.4707,250.7999 145.345,250.8 C146.2193,250.8001 146.6563,283.7997 147.5306,283.8 C148.4049,283.8003 148.8511,277.2002 149.7163,277.2 C150.5815,277.1998 151.0003,264.0001 151.8564,264 C152.7125,263.9999 153.1313,270.6002 153.9965,270.6 C154.8617,270.5998 155.3078,244.2001 156.1821,244.2 C157.0564,244.1999 157.4935,257.4003 158.3678,257.4 C159.2421,257.3997 159.6791,217.8005 160.5534,217.8 C161.4277,217.7995 161.8648,204.6001 162.7391,204.6 C163.6134,204.5999 164.0504,211.2003 164.9247,211.2 C165.799,211.1997 166.236,171.6003 167.1103,171.6 C167.9846,171.5997 168.4217,184.7999 169.296,184.8 C170.1703,184.8001 170.6073,178.2001 171.4816,178.2 C172.3559,178.1999 172.793,178.2 173.6673,178.2 C174.5415,178.2 174.9786,178.2002 175.8529,178.2 C176.7272,178.1998 177.1642,158.4003 178.0385,158.4 C178.9128,158.3997 179.3499,151.7999 180.2242,151.8 C181.0985,151.8001 181.5355,164.9997 182.4098,165 C183.2841,165.0003 183.7211,184.8003 184.5954,184.8 C185.4697,184.7997 185.9068,132.0005 186.7811,132 C187.6554,131.9995 188.0924,132.0001 188.9667,132 C189.841,131.9999 190.2781,118.8001 191.1524,118.8 C192.0267,118.7999 192.4637,125.4001 193.338,125.4 C194.2123,125.3999 194.6493,112.2003 195.5236,112.2 C196.3979,112.1997 196.835,92.4 197.7093,92.4 C198.5836,92.4 199.0206,112.1993 199.8949,112.2 C200.7692,112.2007 201.2063,158.3999 202.0806,158.4 C202.9549,158.4001 203.3919,125.4002 204.2662,125.4 C205.1405,125.3998 205.5775,138.6 206.4518,138.6 C207.3261,138.6 207.7632,125.4002 208.6375,125.4 C209.5118,125.3998 209.9488,118.8005 210.8231,118.8 C211.6974,118.7995 212.1345,72.6002 213.0088,72.6 C213.8831,72.5998 214.3201,98.9997 215.1944,99 C216.0687,99.0003 216.5057,99 217.38,99 C218.2543,99 218.6914,99.0001 219.5657,99 C220.44,98.9999 220.877,92.4001 221.7513,92.4 C222.6256,92.3999 223.0627,85.7998 223.937,85.8 C224.8113,85.8002 225.2483,112.1999 226.1226,112.2 C226.9969,112.2001 227.4339,99.0003 228.3082,99 C229.1825,98.9997 229.6196,85.8001 230.4939,85.8 C231.3682,85.7999 231.8052,85.8001 232.6795,85.8 C233.5538,85.7999 233.9908,72.6 234.8651,72.6 C235.7394,72.6 236.1765,85.7997 237.0508,85.8 C237.9251,85.8003 238.3621,105.6 239.2364,105.6 C240.1107,105.6 240.5478,85.8007 241.4221,85.8 C242.2964,85.7993 242.7334,39.6007 243.6077,39.6 C244.482,39.5993 244.919,13.1998 245.7933,13.2 C246.6676,13.2002 247.1047,59.3998 247.979,59.4 C248.8533,59.4002 249.2903,33 250.1646,33 C251.0389,33 251.476,59.3995 252.3503,59.4 C253.2246,59.4005 253.6616,79.1995 254.5359,79.2 C255.4102,79.2005 255.8472,112.1999 256.7215,112.2 C257.5958,112.2001 258.47,85.8003 258.9072,85.8"></path></g></g></g></g></g></g></g><g></g></g></g><g role="group" stroke-opacity="1" fill-opacity="0" stroke="#dc67ce" aria-label="Series"><g><g clip-path="url(&quot;#id-149&quot;)"><g><g><g><g fill="#6794dc" fill-opacity="0" stroke="#dc67ce" stroke-opacity="1" style="pointer-events: none;"><g><g stroke-opacity="0"><path></path></g><g fill="none" fill-opacity="0"><path d=" M0.8928,158.2  M1.0928,158.4  C1.53,158.4001 2.4042,171.5999 3.2785,171.6 C4.1528,171.6001 4.5898,171.6 5.4641,171.6 C6.3384,171.6 6.7754,171.5999 7.6497,171.6 C8.524,171.6001 8.9611,184.7998 9.8354,184.8 C10.7097,184.8002 11.1467,191.3997 12.021,191.4 C12.8953,191.4003 13.3324,211.1999 14.2067,211.2 C15.081,211.2001 15.518,198.0001 16.3923,198 C17.2666,197.9999 17.7036,204.6 18.5779,204.6 C19.4522,204.6 19.8893,198.0003 20.7636,198 C21.6379,197.9997 22.0749,178.2 22.9492,178.2 C23.8235,178.2 24.2606,197.9997 25.1349,198 C26.0092,198.0003 26.4462,204.6 27.3205,204.6 C28.1948,204.6 28.6318,198 29.5061,198 C30.3804,198 30.8175,204.6 31.6918,204.6 C32.5661,204.6 33.0031,198.0001 33.8774,198 C34.7517,197.9999 35.1887,198.0002 36.063,198 C36.9373,197.9998 37.3744,178.2004 38.2487,178.2 C39.123,178.1996 39.56,158.4001 40.4343,158.4 C41.3086,158.3999 41.7457,164.9999 42.62,165 C43.4943,165.0001 43.9313,165 44.8056,165 C45.6799,165 46.1169,164.9999 46.9912,165 C47.8655,165.0001 48.3026,178.1997 49.1769,178.2 C50.0512,178.2003 50.4882,191.3997 51.3625,191.4 C52.2368,191.4003 52.6739,211.1999 53.5482,211.2 C54.4225,211.2001 54.8595,198.0002 55.7338,198 C56.6081,197.9998 57.0451,191.4002 57.9194,191.4 C58.7937,191.3998 59.2308,178.1999 60.1051,178.2 C60.9794,178.2001 61.4164,197.9997 62.2907,198 C63.165,198.0003 63.6021,211.1997 64.4764,211.2 C65.3507,211.2003 65.7877,231 66.662,231 C67.5363,231 67.9733,211.2 68.8476,211.2 C69.7219,211.2 70.159,230.9996 71.0333,231 C71.9076,231.0004 72.3446,250.7998 73.2189,250.8 C74.0932,250.8002 74.5303,250.8001 75.4046,250.8 C76.2789,250.7999 76.7159,244.1999 77.5902,244.2 C78.4645,244.2001 78.9015,257.3997 79.7758,257.4 C80.6501,257.4003 81.0872,270.5997 81.9615,270.6 C82.8358,270.6003 83.2728,283.7997 84.1471,283.8 C85.0214,283.8003 85.4585,303.5999 86.3327,303.6 C87.207,303.6001 87.6441,297 88.5184,297 C89.3927,297 89.8297,303.5999 90.704,303.6 C91.5783,303.6001 92.0154,310.1997 92.8897,310.2 C93.764,310.2003 94.201,336.5997 95.0753,336.6 C95.9496,336.6003 96.3866,336.6001 97.2609,336.6 C98.1352,336.5999 98.5723,329.9999 99.4466,330 C100.3209,330.0001 100.7579,349.7997 101.6322,349.8 C102.5065,349.8003 102.9436,356.3997 103.8179,356.4 C104.6922,356.4003 105.1292,376.1998 106.0035,376.2 C106.8778,376.2002 107.3148,376.2001 108.1891,376.2 C109.0634,376.1999 109.5005,363 110.3748,363 C111.2491,363 111.6861,376.1999 112.5604,376.2 C113.4347,376.2001 113.8718,376.2002 114.7461,376.2 C115.6204,376.1998 116.0574,356.4002 116.9317,356.4 C117.806,356.3998 118.243,356.4002 119.1173,356.4 C119.9916,356.3998 120.4287,336.6001 121.303,336.6 C122.1773,336.5999 122.6143,349.7997 123.4886,349.8 C124.3629,349.8003 124.8,369.5997 125.6743,369.6 C126.5486,369.6003 126.9856,376.2002 127.8599,376.2 C128.7342,376.1998 129.1712,349.8005 130.0455,349.8 C130.9198,349.7995 131.3569,323.4001 132.2312,323.4 C133.1055,323.3999 133.5425,343.1997 134.4168,343.2 C135.2911,343.2003 135.7282,349.7999 136.6025,349.8 C137.4768,349.8001 137.9138,349.7999 138.7881,349.8 C139.6624,349.8001 140.0994,356.3997 140.9737,356.4 C141.848,356.4003 142.2851,382.7999 143.1594,382.8 C144.0337,382.8001 144.4707,363.0001 145.345,363 C146.2193,362.9999 146.6563,376.1997 147.5306,376.2 C148.4049,376.2003 148.8511,389.3999 149.7163,389.4 C150.5815,389.4001 151.0003,382.8002 151.8564,382.8 C152.7125,382.7998 153.1313,369.6003 153.9965,369.6 C154.8617,369.5997 155.3078,349.8001 156.1821,349.8 C157.0564,349.7999 157.4935,356.4001 158.3678,356.4 C159.2421,356.3999 159.6791,343.2003 160.5534,343.2 C161.4277,343.1997 161.8648,323.4001 162.7391,323.4 C163.6134,323.3999 164.0504,330.0001 164.9247,330 C165.799,329.9999 166.236,310.2004 167.1103,310.2 C167.9846,310.1996 168.4217,290.4001 169.296,290.4 C170.1703,290.3999 170.6073,303.5997 171.4816,303.6 C172.3559,303.6003 172.793,316.7999 173.6673,316.8 C174.5415,316.8001 174.9786,316.8003 175.8529,316.8 C176.7272,316.7997 177.1642,290.4003 178.0385,290.4 C178.9128,290.3997 179.3499,283.7999 180.2242,283.8 C181.0985,283.8001 181.5355,296.9999 182.4098,297 C183.2841,297.0001 183.7211,290.4002 184.5954,290.4 C185.4697,290.3998 185.9068,277.2003 186.7811,277.2 C187.6554,277.1997 188.0924,257.4001 188.9667,257.4 C189.841,257.3999 190.2781,263.9999 191.1524,264 C192.0267,264.0001 192.4637,264.0001 193.338,264 C194.2123,263.9999 194.6493,257.4002 195.5236,257.4 C196.3979,257.3998 196.835,244.1999 197.7093,244.2 C198.5836,244.2001 199.0206,270.5996 199.8949,270.6 C200.7692,270.6004 201.2063,283.7998 202.0806,283.8 C202.9549,283.8002 203.3919,290.4 204.2662,290.4 C205.1405,290.4 205.5775,283.8003 206.4518,283.8 C207.3261,283.7997 207.7632,264.0004 208.6375,264 C209.5118,263.9996 209.9488,244.2005 210.8231,244.2 C211.6974,244.1995 212.1345,217.8001 213.0088,217.8 C213.8831,217.7999 214.3201,230.9996 215.1944,231 C216.0687,231.0004 216.5057,257.3997 217.38,257.4 C218.2543,257.4003 218.6914,264 219.5657,264 C220.44,264 220.877,257.4001 221.7513,257.4 C222.6256,257.3999 223.0627,250.7999 223.937,250.8 C224.8113,250.8001 225.2483,270.6 226.1226,270.6 C226.9969,270.6 227.4339,250.8003 228.3082,250.8 C229.1825,250.7997 229.6196,244.2 230.4939,244.2 C231.3682,244.2 231.8052,250.7999 232.6795,250.8 C233.5538,250.8001 233.9908,257.3999 234.8651,257.4 C235.7394,257.4001 236.1765,257.4001 237.0508,257.4 C237.9251,257.3999 238.3621,244.2002 239.2364,244.2 C240.1107,244.1998 240.5478,237.6003 241.4221,237.6 C242.2964,237.5997 242.7334,211.2003 243.6077,211.2 C244.482,211.1997 244.919,204.5999 245.7933,204.6 C246.6676,204.6001 247.1047,224.3998 247.979,224.4 C248.8533,224.4002 249.2903,224.3998 250.1646,224.4 C251.0389,224.4002 251.476,244.1997 252.3503,244.2 C253.2246,244.2003 253.6616,257.3998 254.5359,257.4 C255.4102,257.4002 255.8472,263.9999 256.7215,264 C257.5958,264.0001 258.47,270.5999 258.9072,270.6"></path></g></g></g></g></g></g></g><g></g></g></g></g></g><g clip-path="url(&quot;#id-554&quot;)"><g><g fill="#67b7dc" stroke="#67b7dc"><g></g></g><g fill="#6794dc" stroke="#dc67ce"><g></g></g></g></g><g><g><g><g></g></g><g><g></g></g></g></g><g><g></g></g><g><g></g></g><g opacity="0" clip-path="url(&quot;#id-167&quot;)" style="touch-action: none; user-select: none; -webkit-user-drag: none;" aria-hidden="true" visibility="hidden"><g><g fill-opacity="0.2" fill="#000000" style="pointer-events: none;" transform="translate(486.09,0)" opacity="0" visibility="hidden" aria-hidden="true"><path d=" M0,0  L4.21,0  L4.21,400  L0,400  Z"></path></g><g stroke="#000000" fill="none" stroke-dasharray="3,3" stroke-opacity="0.4" style="pointer-events: none;" transform="translate(569.281,0)"><path d=" M0,0  L0,396 "></path></g><g stroke="#000000" fill="none" stroke-dasharray="3,3" stroke-opacity="0.4" style="pointer-events: none;" transform="translate(0,128.3)"><path d=" M0,0  L260,0 "></path></g></g></g><g role="button" focusable="true" tabindex="0" opacity="0" visibility="hidden" aria-hidden="true" transform="translate(220,-3)" aria-labelledby="id-37-title"><g fill="#6794dc" stroke="#ffffff" fill-opacity="1" stroke-opacity="0" transform="translate(0,8)"><path d="M17,0 L18,0 a17,17 0 0 1 17,17 L35,17 a17,17 0 0 1 -17,17 L17,34 a17,17 0 0 1 -17,-17 L0,17 a17,17 0 0 1 17,-17 Z"></path></g><g transform="translate(9,9)"><g stroke="#ffffff" style="pointer-events: none;" transform="translate(0,8)"><path d=" M0,0  L11,0 " transform="translate(2.5,7.5)"></path></g><g fill="#000000" style="pointer-events: none;" transform="translate(17,8)"><g display="none"></g></g></g><title id="id-37-title">Zoom Out</title></g></g></g><g><g><g aria-hidden="true"><g><g fill="#000000" transform="translate(0,198) rotate(-90)"><g display="none"></g></g><g stroke="#000000" stroke-opacity="0.15" fill="none" transform="translate(0,500)" opacity="0" visibility="hidden" aria-hidden="true"><path transform="translate(-0.5,-0.5)" d=" M0,0  L1136,0 "></path></g><g><g><g fill="#000000" aria-label="L" fill-opacity="0" opacity="0" stroke-opacity="0" style="pointer-events: none;" transform="translate(51,198)"><g transform="translate(-41,-11)" style="user-select: none;"><text x="0" y="22" dy="-5.94"><tspan>100</tspan></text></g></g><g fill="#000000" transform="translate(51,462)" display="none"><g transform="translate(-27,-9)" style="user-select: none;"><text x="0" y="18" dy="-4.86"><tspan>50</tspan></text></g></g><g fill="#000000" transform="translate(51,429)" display="none"><g transform="translate(-27,-9)" style="user-select: none;"><text x="0" y="18" dy="-4.86"><tspan>55</tspan></text></g></g><g fill="#000000" transform="translate(51,396)"><g transform="translate(-27,-9)" style="user-select: none;"><text x="0" y="18" dy="-4.86"><tspan>60</tspan></text></g></g><g fill="#000000" transform="translate(51,363)" display="none"><g transform="translate(-31,-11)" style="user-select: none;"><text x="0" y="22" dy="-5.94"><tspan>65</tspan></text></g></g><g fill="#000000" transform="translate(51,330)"><g transform="translate(-27,-9)" style="user-select: none;"><text x="0" y="18" dy="-4.86"><tspan>70</tspan></text></g></g><g fill="#000000" transform="translate(51,297)" display="none"><g transform="translate(-31,-11)" style="user-select: none;"><text x="0" y="22" dy="-5.94"><tspan>75</tspan></text></g></g><g fill="#000000" transform="translate(51,264)"><g transform="translate(-27,-9)" style="user-select: none;"><text x="0" y="18" dy="-4.86"><tspan>80</tspan></text></g></g><g fill="#000000" transform="translate(51,231)" display="none"><g transform="translate(-31,-11)" style="user-select: none;"><text x="0" y="22" dy="-5.94"><tspan>85</tspan></text></g></g><g fill="#000000" transform="translate(51,198)"><g transform="translate(-27,-9)" style="user-select: none;"><text x="0" y="18" dy="-4.86"><tspan>90</tspan></text></g></g><g fill="#000000" transform="translate(51,165)" display="none"><g transform="translate(-31,-11)" style="user-select: none;"><text x="0" y="22" dy="-5.94"><tspan>95</tspan></text></g></g><g fill="#000000" transform="translate(51,132)"><g transform="translate(-35,-9)" style="user-select: none;"><text x="0" y="18" dy="-4.86"><tspan>100</tspan></text></g></g><g fill="#000000" transform="translate(51,99)" display="none"><g transform="translate(-41,-11)" style="user-select: none;"><text x="0" y="22" dy="-5.94"><tspan>105</tspan></text></g></g><g fill="#000000" transform="translate(51,66)"><g transform="translate(-35,-9)" style="user-select: none;"><text x="0" y="18" dy="-4.86"><tspan>110</tspan></text></g></g><g fill="#000000" transform="translate(51,-66)" display="none"><g transform="translate(-35,-9)" style="user-select: none;"><text x="0" y="18" dy="-4.86"><tspan>130</tspan></text></g></g><g fill="#000000" transform="translate(51,0)"><g transform="translate(-35,-9)" style="user-select: none;"><text x="0" y="18" dy="-4.86"><tspan>120</tspan></text></g></g><g fill="#000000" transform="translate(51,528)" display="none"><g transform="translate(-27,-9)" style="user-select: none;"><text x="0" y="18" dy="-4.86"><tspan>40</tspan></text></g></g></g></g><g stroke="#000000" stroke-opacity="0" fill="none" style="pointer-events: none;" transform="translate(51,0)"><path d=" M0,0  L0,396 " transform="translate(-0.5,-0.5)"></path></g></g></g></g></g><g transform="translate(311,0)"><g></g></g></g></g><g><g transform="translate(51,0)"><g role="scrollbar" aria-valuemin="0" aria-valuemax="100" aria-valuenow="0" aria-valuetext="From Jan to Apr" aria-labelledby="id-168-title" aria-orientation="horizontal" aria-controls="id-22" transform="translate(0,10)"><g fill="#f3f3f3" fill-opacity="0.5"><path d="M6,0 L254,0 a6,6 0 0 1 6,6 L260,6 a6,6 0 0 1 -6,6 L6,12 a6,6 0 0 1 -6,-6 L0,6 a6,6 0 0 1 6,-6 Z"></path></g><g><g role="slider" focusable="true" tabindex="0" aria-valuemin="0" aria-valuemax="100" aria-live="polite" aria-labelledby="id-182-title" aria-valuenow="0" aria-valuetext="From Jan to Apr" aria-describedby="id-182-description" transform="translate(0,6)" style="touch-action: none; user-select: none; -webkit-user-drag: none; cursor: -webkit-grab;"><g fill="#d9d9d9" stroke="#ffffff" fill-opacity="1" stroke-opacity="1" transform="translate(0,-6)"><path d="M6,0 L254,0 a6,6 0 0 1 6,6 L260,6 a6,6 0 0 1 -6,6 L6,12 a6,6 0 0 1 -6,-6 L0,6 a6,6 0 0 1 6,-6 Z"></path></g><g transform="translate(0,-6)"><g fill="#000000" style="pointer-events: none;" transform="translate(130,6)"><g display="none"></g></g></g><title id="id-182-title">From Jan to Apr</title><desc id="id-182-description">Use left and right arrows to move selection</desc></g><g role="slider" focusable="true" tabindex="0" aria-valuemin="0" aria-valuemax="100" aria-labelledby="id-170-title" aria-valuenow="0" aria-valuetext="From Jan" aria-describedby="id-170-description" transform="translate(0,6)" style="touch-action: none; user-select: none; -webkit-user-drag: none; cursor: ew-resize;"><g fill="#d9d9d9" stroke="#ffffff" fill-opacity="1" stroke-opacity="1" transform="translate(-14,-14)"><path d="M14,0 L14,0 a14,14 0 0 1 14,14 L28,14 a14,14 0 0 1 -14,14 L14,28 a14,14 0 0 1 -14,-14 L0,14 a14,14 0 0 1 14,-14 Z"></path></g><g transform="translate(-6,-12)"><g stroke="#ffffff" stroke-opacity="0.7" style="pointer-events: none;" transform="translate(2,12)"><path d=" M-2,-6  L-2,6  M2,-6  L2,6 " transform="translate(3.5,-0.5)"></path></g></g><title id="id-170-title">From Jan</title><desc id="id-170-description">Use left and right arrows to move left selection</desc></g><g role="slider" focusable="true" tabindex="0" aria-valuemin="0" aria-valuemax="100" aria-labelledby="id-176-title" aria-valuenow="100" aria-valuetext="To Apr" aria-describedby="id-176-description" transform="translate(260,6)" style="touch-action: none; user-select: none; -webkit-user-drag: none; cursor: ew-resize;"><g fill="#d9d9d9" stroke="#ffffff" fill-opacity="1" stroke-opacity="1" transform="translate(-14,-14)"><path d="M14,0 L14,0 a14,14 0 0 1 14,14 L28,14 a14,14 0 0 1 -14,14 L14,28 a14,14 0 0 1 -14,-14 L0,14 a14,14 0 0 1 14,-14 Z"></path></g><g transform="translate(-6,-12)"><g stroke="#ffffff" stroke-opacity="0.7" style="pointer-events: none;" transform="translate(2,12)"><path d=" M-2,-6  L-2,6  M2,-6  L2,6 " transform="translate(3.5,-0.5)"></path></g></g><title id="id-176-title">To Apr</title><desc id="id-176-description">Use left and right arrows to move right selection</desc></g></g><title id="id-168-title">Use TAB to select grip buttons or left and right arrows to change selection</title></g></g></g><g transform="translate(0,428)"><g transform="translate(51,0)"><g aria-hidden="true"><g><g stroke="#000000" stroke-opacity="0" fill="none" style="pointer-events: none;"><path d=" M0,0  L260,0 " transform="translate(-0.5,-0.5)"></path></g><g><g><g fill="#000000" aria-label="L" fill-opacity="0" opacity="0" stroke-opacity="0" style="pointer-events: none;"><g transform="translate(-4.5,10)" style="user-select: none;"><text x="0" y="22" dy="-5.94"><tspan>L</tspan></text></g></g><g fill="#000000" transform="translate(0,0)"><g transform="translate(-36.5,10)" style="user-select: none;"><text x="0" y="22" dy="-5.94"><tspan>Jan 2018</tspan></text></g></g><g fill="#000000" transform="translate(67.755,0)" display="none"><g transform="translate(-14.5,10)" style="user-select: none;"><text x="0" y="22" dy="-5.94"><tspan>Feb</tspan></text></g></g><g fill="#000000" transform="translate(128.953,0)"><g transform="translate(-15,10)" style="user-select: none;"><text x="0" y="22" dy="-5.94"><tspan>Mar</tspan></text></g></g><g fill="#000000" transform="translate(196.616,0)" display="none"><g transform="translate(-14,10)" style="user-select: none;"><text x="0" y="22" dy="-5.94"><tspan>Apr</tspan></text></g></g><g fill="#000000" transform="translate(262.186,0)" display="none"><g transform="translate(-12.5,10)" style="user-select: none;"><text x="0" y="18" dy="-4.86"><tspan>May</tspan></text></g></g></g></g><g stroke="#000000" stroke-opacity="0.15" fill="none" display="none" transform="translate(0,-396)"><path transform="translate(-0.5,-0.5)" d=" M0,0  L0,396 "></path></g><g fill="#000000" transform="translate(130,42)"><g display="none"></g></g></g></g></g></g></g></g></g></g></g></g><g><g><g role="tooltip" opacity="0" aria-describedby="id-127" transform="translate(635.2813,300.3333)" visibility="hidden" aria-hidden="true"><g fill="#67b7dc" fill-opacity="0.9" stroke-width="1" stroke-opacity="1" stroke="#ffffff" filter="url(&quot;#filter-id-137&quot;)" style="pointer-events: none;" transform="translate(-143,-14.5)"><path d="M3,0 L134,0 a3,3 0 0 1 3,3 L137,3 L137,9.5 L143,14.5 L137,19.5 L137,26 a3,3 0 0 1 -3,3 L3,29 a3,3 0 0 1 -3,-3 L0,3 a3,3 0 0 1 3,-3"></path></g><g><g fill="#000000" style="pointer-events: none;" transform="translate(-74.5,-14.5)"><g transform="translate(-56.5,7)" style="user-select: none;"><text x="0" y="18" dy="-4.86"><tspan>open: 66 close: 82</tspan></text></g></g></g></g><g role="tooltip" visibility="hidden" opacity="0"><g fill="#ffffff" fill-opacity="0.9" stroke-width="1" stroke-opacity="1" stroke="#ffffff" filter="url(&quot;#filter-id-51&quot;)" style="pointer-events: none;" transform="translate(0,6)"><path d="M3,0 L3,0 L0,-6 L13,0 L21,0 a3,3 0 0 1 3,3 L24,8 a3,3 0 0 1 -3,3 L3,11 a3,3 0 0 1 -3,-3 L0,3 a3,3 0 0 1 3,-3"></path></g><g><g fill="#ffffff" style="pointer-events: none;" transform="translate(12,6)"><g transform="translate(0,7)" display="none"></g></g></g></g><g visibility="hidden" display="none" style="pointer-events: none;"><g fill="#ffffff" opacity="1"><rect width="1136" height="500"></rect></g><g><g transform="translate(568,250)"><g><g stroke-opacity="1" fill="#f3f3f3" fill-opacity="0.8"><g><g><path d=" M53,0  a53,53,0,0,1,-106,0 a53,53,0,0,1,106,0 M42,0  a42,42,0,0,0,-84,0 a42,42,0,0,0,84,0 L42,0 "></path></g></g></g><g stroke-opacity="1" fill="#000000" fill-opacity="0.2"><g><g><path d=" M50,0  a50,50,0,0,1,-100,0 a50,50,0,0,1,100,0 M45,0  a45,45,0,0,0,-90,0 a45,45,0,0,0,90,0 L45,0 "></path></g></g></g><g fill="#000000" fill-opacity="0.4"><g transform="translate(-18.5,-9)" style="user-select: none;"><text x="18.5px" y="18" dy="-4.86" text-anchor="middle"><tspan>100%</tspan></text></g></g></g></g></g></g><g opacity="0.3" aria-labelledby="id-66-title" filter="url(&quot;#filter-id-66&quot;)" style="cursor: pointer;" transform="translate(0,479)"><g fill="#ffffff" opacity="0"><rect width="66" height="21"></rect></g><g><g shape-rendering="auto" fill="none" stroke-opacity="1" stroke-width="1.7999999999999998" stroke="#3cabff"><path d=" M15,15  C17.4001,15 22.7998,15.0001 27,15 C31.2002,14.9999 33.2999,6 36,6 C38.7001,6 38.6999,10.5 40.5,10.5 C42.3001,10.5 42.2999,6 45,6 C47.7001,6 50.9999,14.9999 54,15 C57.0002,15.0001 58.7999,15 60,15"></path></g><g shape-rendering="auto" fill="none" stroke-opacity="1" stroke-width="1.7999999999999998" stroke="url(&quot;#gradient-id-69&quot;)"><path d=" M6,15  C8.2501,15 9.7498,15.0001 15,15 C20.2502,14.9999 20.7748,3.6 27,3.6 C33.2252,3.6 33.8998,14.9999 39.9,15 C45.9002,15.0001 45.9748,15 51,15 C56.0252,15 57.7499,15 60,15"></path></g></g><title id="id-66-title">Chart created using amCharts library</title></g><g role="tooltip" opacity="0" transform="translate(635.2813,447)" visibility="hidden" aria-hidden="true"><g fill="#000000" fill-opacity="1" stroke-width="1" stroke-opacity="1" stroke="#000000" style="pointer-events: none;" transform="translate(-372.3,5)"><path d="M0,0 L53,0 L63.018739054290734,-5 L63,0 L63,0 a0,0 0 0 1 0,0 L63,28 a0,0 0 0 1 -0,0 L0,28 a0,0 0 0 1 -0,-0 L0,0 a0,0 0 0 1 0,-0"></path></g><g><g fill="#ffffff" style="pointer-events: none;" transform="translate(-340.8,5)"><g transform="translate(-21.5,5)" style="user-select: none;"><text x="0" y="18" dy="-4.86"><tspan>Mar 06</tspan></text></g></g></g></g><g role="tooltip" visibility="hidden" opacity="0" display="none" transform="translate(60,175.3)"><g fill="#000000" fill-opacity="1" stroke-width="1" stroke-opacity="1" stroke="#000000" style="pointer-events: none;"><path></path></g><g><g fill="#ffffff" style="pointer-events: none;"><g transform="translate(0,5)"></g></g></g></g><g role="tooltip" visibility="hidden" opacity="0"><g fill="#ffffff" fill-opacity="0.9" stroke-width="1" stroke-opacity="1" stroke="#ffffff" filter="url(&quot;#filter-id-154&quot;)" style="pointer-events: none;" transform="translate(6,0)"><path d="M3,0 L21,0 a3,3 0 0 1 3,3 L24,8 a3,3 0 0 1 -3,3 L3,11 a3,3 0 0 1 -3,-3 L0,8 L0,8 L-6,0 L0,-2 L0,3 a3,3 0 0 1 3,-3"></path></g><g><g fill="#ffffff" style="pointer-events: none;" transform="translate(18,0)"><g transform="translate(0,7)" display="none"></g></g></g></g></g></g></g></g></svg>