<?xml version="1.0" encoding="utf-8"?>
<!-- Generator: Adobe Illustrator 26.2.1, SVG Export Plug-In . SVG Version: 6.00 Build 0)  -->
<svg version="1.1" id="Layer_1" xmlns="http://www.w3.org/2000/svg" xmlns:xlink="http://www.w3.org/1999/xlink" x="0px" y="0px"
	 viewBox="0 0 245.1 250.3" style="enable-background:new 0 0 245.1 250.3;" xml:space="preserve">
<style type="text/css">
	.Arched_x0020_Green{fill:url(#SVGID_1_);stroke:#FFFFFF;stroke-width:0.25;stroke-miterlimit:1;}
	.st0{fill:#B7DFE1;}
	.st1{fill:#1D1D1B;}
	.st2{font-family:'ArialMT';}
	.st3{font-size:6.5px;}
	.st4{fill:#414142;}
	.st5{font-family:'Arial-BoldMT';}
	.st6{font-size:8px;}
	.st7{fill:#3C3C3B;}
	.st8{fill:#979B9D;}
	.st9{font-size:6px;}
	.st10{fill:none;}
	.st11{letter-spacing:15;}
	.st12{letter-spacing:20;}
	.st13{fill:none;stroke:#4E55A2;stroke-width:2;stroke-linecap:round;stroke-miterlimit:10;}
	.st14{fill:none;stroke:#B7DFE1;stroke-width:4;stroke-miterlimit:10;}
	.st15{fill:none;stroke:#1D1D1B;stroke-width:0.5;stroke-linejoin:round;stroke-miterlimit:10;}
	.st16{font-family:'SabonLTStd-Italic';}
	.st17{font-size:7px;}
	.st18{letter-spacing:6.9;}
	.st19{letter-spacing:24.5;}
	.st20{letter-spacing:23.6;}
	.st21{letter-spacing:26.5;}
	.st22{fill:none;stroke:#000000;stroke-width:0.3;stroke-linejoin:round;stroke-miterlimit:10;}
	.st23{fill:none;stroke:#4E55A2;stroke-width:1.5;stroke-linecap:round;stroke-linejoin:round;stroke-miterlimit:10;}
	.st24{fill:none;stroke:#3C3C3B;stroke-width:0.3;stroke-miterlimit:10;}
</style>
<linearGradient id="SVGID_1_" gradientUnits="userSpaceOnUse" x1="-118.871" y1="613.179" x2="-118.1639" y2="612.4719">
	<stop  offset="0" style="stop-color:#1DA238"/>
	<stop  offset="0.9831" style="stop-color:#24391D"/>
</linearGradient>
<polygon class="st0" points="213.5,132.4 211.8,142.4 210,148.8 208.2,153.2 206.4,155.2 204.7,153.6 202.9,157.6 201.1,158.3 
	199.4,158.8 197.6,155.5 195.8,155 194.1,154.5 192.3,154.1 190.5,153.2 188.7,154.3 187,152.7 185.2,154.2 183.4,150.4 
	181.7,147.4 179.9,144.7 178.1,145.6 176.4,142.7 174.6,137.8 172.9,137 171.1,136.2 169.3,154.8 167.6,153 165.8,150.6 164,151.3 
	162.2,152.2 160.5,156.1 158.7,159.4 156.9,157.8 155.2,154.6 153.4,153.6 151.6,152.2 149.9,149.5 148.1,146.9 146.3,149.7 
	144.5,149.1 142.8,154.1 141,155.9 139.2,156.6 137.5,156.2 135.7,151.3 133.9,155.4 132.1,155.9 130.4,155 128.6,154 126.9,154.8 
	125.1,154.7 123.3,155.7 121.6,157.3 119.8,156.1 118,158.2 116.3,158 114.5,156.2 112.7,154.5 111,156.2 109.2,153.2 107.4,153.4 
	105.6,154.9 103.9,152.4 102.1,154.3 100.3,152.8 98.6,153.4 96.8,153.5 95,152.3 93.3,151.8 91.5,147.2 89.7,145.6 87.9,145.6 
	86.2,145.6 84.4,141.8 82.6,141.7 80.9,139.7 79.1,140.3 77.3,141 75.6,139.7 73.8,139.2 72.1,139.6 70.3,140.4 68.5,140.6 
	66.8,141.2 65,140.9 63.2,141.1 61.4,141.3 59.7,138 57.9,134.2 56.1,136.8 54.4,135.3 52.6,135.6 50.8,134.2 49,130.1 47.3,126.8 
	45.5,125.9 43.7,123.9 42,124.5 40.2,126.5 38.4,124.2 36.7,123.9 34.9,119.1 33.1,117.7 31.3,116.4 29.6,116.8 27.8,117.9 
	26.1,120.2 24.3,119.5 22.5,121.4 20.8,121.8 20.8,89.7 22.5,82 24.3,79.2 26.1,79 27.8,85.5 29.6,80.7 31.3,81.3 33.1,87.1 
	34.9,92.4 36.7,91.7 38.4,88.5 40.2,95.8 42,95.8 43.7,95 45.5,96.4 47.3,98.3 49,98.3 50.8,100.1 52.6,100.9 54.4,96.7 56.1,93.6 
	57.9,96.2 59.7,102.3 61.4,101.2 63.2,104.9 65,107.8 66.8,106.7 68.5,108.4 70.3,104.3 72.1,105.5 73.8,101.2 75.6,102.5 
	77.3,106.1 79.1,102.5 80.9,99.8 82.6,105.8 84.4,101.9 86.2,107.1 87.9,108.4 89.7,101.4 91.5,99.7 93.3,100.3 95,100.1 
	96.8,111.7 98.6,110.5 100.3,107.7 102.1,111.1 103.9,112.1 105.6,115.3 107.4,118.4 109.2,118 111,119.2 112.7,118.1 114.5,117.2 
	116.3,121.9 118,119.8 119.8,119.6 121.6,118.9 123.3,115 125.1,115 126.9,109.7 128.6,108.4 130.4,109.7 132.1,109.7 133.9,109.2 
	135.7,105.9 137.5,114.8 139.2,110.6 141,111.5 142.8,107.1 144.5,103.8 146.3,107 148.1,105.9 149.9,109.6 151.6,108.8 
	153.4,112.3 155.2,115.4 156.9,117.3 158.7,120 160.5,119 162.2,115.9 164,114.5 165.8,115.4 167.6,114.9 169.3,117.1 171.1,102.7 
	172.9,100.1 174.6,106.4 176.4,112.3 178.1,114.4 179.9,116.1 181.7,115.9 183.4,112.5 185.2,119.6 187,119.1 188.7,120.2 
	190.5,123.6 192.3,121.4 194.1,124.2 195.8,124.2 197.6,126.7 199.4,129.2 201.1,129.2 202.9,122.3 204.7,122 206.4,124.8 
	208.2,121.8 210,115.9 211.8,107.3 213.5,96.3 "/>
<g>
	<text transform="matrix(1 0 0 1 11.5783 64.7317)"><tspan x="0" y="0" class="st1 st2 st3">5</tspan><tspan x="0" y="19.5" class="st1 st2 st3">4</tspan><tspan x="0" y="39" class="st1 st2 st3">3</tspan><tspan x="0" y="58.5" class="st1 st2 st3">2</tspan><tspan x="0" y="78" class="st1 st2 st3">1</tspan><tspan x="0" y="97.5" class="st1 st2 st3">0</tspan></text>
</g>
<text transform="matrix(0.9928 0 0 1 16.782 17.2821)"><tspan x="0" y="0" class="st4 st5 st6">The price of domestic companies’ market-based funding </tspan><tspan x="0" y="9.6" class="st4 st5 st6">has increased in 2022</tspan></text>
<g>
	<text transform="matrix(0.9928 0 0 1 17.7282 59.2)" class="st1 st2 st3">%</text>
</g>
<g>
	<text transform="matrix(1.3005 0 0 1 218.8842 131.9281)" class="st7 st2 st3">1</text>
</g>
<g>
	<text transform="matrix(1 0 0 1 17.7314 185.7901)"><tspan x="0" y="0" class="st1 st2 st3">The chart shows the average return requirement (median) for domestic </tspan><tspan x="0" y="7.8" class="st1 st2 st3">companies’ euro-denominated bonds and the quartile range of the return </tspan><tspan x="0" y="15.6" class="st1 st2 st3">requirement (range of the 25th and the 27th percentile).</tspan><tspan x="0" y="23.4" class="st1 st2 st3">Sources: European Central Bank and Bank of Finland.</tspan></text>
</g>
<text transform="matrix(1 0 0 1 17.2754 224.6552)"><tspan x="0" y="0" class="st8 st2 st9">4.5.2022</tspan><tspan x="0" y="7.2" class="st8 st2 st9">© Suomen Pankki / (© Bank of Finland)</tspan></text>
<rect x="17.7" y="40.1" class="st10" width="222.9" height="7.6"/>
<text transform="matrix(1 0 0 1 17.7462 44.7603)"><tspan x="0" y="0" class="st7 st2 st3">1.</tspan><tspan x="5.4" y="0" class="st7 st2 st3 st11">	</tspan><tspan x="22.7" y="0" class="st7 st2 st3">Median</tspan><tspan x="44" y="0" class="st7 st2 st3 st12">	</tspan><tspan x="66.3" y="0" class="st7 st2 st3">2.</tspan><tspan x="71.7" y="0" class="st7 st2 st3 st11">	</tspan><tspan x="89.2" y="0" class="st7 st2 st3">25th – 27th percentile</tspan></text>
<line class="st13" x1="26.2" y1="42.3" x2="37.1" y2="42.3"/>
<line class="st14" x1="93.1" y1="42.3" x2="104" y2="42.3"/>
<rect x="18.3" y="62.4" class="st15" width="212.6" height="99.2"/>
<g>
	<text transform="matrix(1 0 0 1 159.5165 111.6816)" class="st1 st2 st3">2</text>
</g>
<g>
	<text transform="matrix(1.0188 0 0 1 12.5355 173.132)"><tspan x="0" y="0" class="st1 st16 st17 st18">	</tspan><tspan x="9.5" y="0" class="st1 st2 st3">2013</tspan><tspan x="23.9" y="0" class="st1 st2 st3 st19">	</tspan><tspan x="51.2" y="0" class="st1 st2 st3">2015</tspan><tspan x="65.6" y="0" class="st1 st2 st3 st20">	</tspan><tspan x="91.8" y="0" class="st1 st2 st3">2017</tspan><tspan x="106.3" y="0" class="st1 st2 st3 st19">	</tspan><tspan x="132.9" y="0" class="st1 st2 st3">2019</tspan><tspan x="147.3" y="0" class="st1 st2 st3 st21">	</tspan><tspan x="176.6" y="0" class="st1 st2 st3">2021</tspan></text>
</g>
<rect x="16.8" y="55.3" class="st10" width="3.3" height="0"/>
<path class="st22" d="M18.1,81.4h212.2 M18.1,101.4h212.2 M18.1,121.5h212.2 M18.1,141.5h212.2"/>
<path class="st22" d="M209.1,62.4v99.2 M187.9,62.4v99.2 M166.7,62.4v99.2 M145.4,62.4v99.2 M124.2,62.4v99.2 M103,62.4v99.2
	 M81.7,62.4v99.2 M60.6,62.4v99.2 M39.3,62.4v99.2"/>
<polyline class="st23" points="20.8,108.5 22.5,107.6 24.3,106.3 26.1,102.7 27.8,103.8 29.6,102.6 31.3,103.8 33.1,103.4 
	34.9,104.9 36.7,107.6 38.4,104.6 40.2,110.7 42,109.7 43.7,109.2 45.5,108.9 47.3,113.9 49,113.7 50.8,115.7 52.6,119.2 54.4,116 
	56.1,117.3 57.9,117.5 59.7,121.9 61.4,124.3 63.2,126.3 65,127.1 66.8,124.2 68.5,127.7 70.3,122.7 72.1,125.3 73.8,120.4 
	75.6,120.5 77.3,122.7 79.1,124.7 80.9,121.4 82.6,125.3 84.4,125.3 86.2,128.7 87.9,128.9 89.7,128.9 91.5,127.5 93.3,134.3 
	95,131.5 96.8,134.5 98.6,135.7 100.3,134.9 102.1,138.3 103.9,135.2 105.6,139.3 107.4,137.1 109.2,134.5 111,139.1 112.7,135.8 
	114.5,137.3 116.3,140.9 118,139.1 119.8,138.8 121.6,138.9 123.3,135.9 125.1,136.1 126.9,135.1 128.6,133.4 130.4,134.7 
	132.1,135.5 133.9,136.5 135.7,132.7 137.5,138 139.2,135.9 141,135.8 142.8,134.3 144.5,130.4 146.3,129.5 148.1,131.3 
	149.9,132.7 151.6,134.4 153.4,135.5 155.2,140.3 156.9,142.3 158.7,147 160.5,143.2 162.2,141 164,139.7 165.8,139.9 167.6,142.7 
	169.3,145 171.1,123.9 172.9,119.1 174.6,121.1 176.4,126.3 178.1,131.5 179.9,133.2 181.7,133.9 183.4,136.3 185.2,140 187,140.5 
	188.7,142.3 190.5,142.6 192.3,144.8 194.1,144.9 195.8,145.4 197.6,146.6 199.4,150.5 201.1,150 202.9,147.1 204.7,145.2 
	206.4,146.1 208.2,144.1 210,139.3 211.8,127.9 213.5,120.3 "/>
<line class="st24" x1="150.2" y1="113.8" x2="156.9" y2="109.6"/>
<line class="st24" x1="210.9" y1="133.6" x2="218.3" y2="130.3"/>
</svg>
