<svg xmlns="http://www.w3.org/2000/svg" xmlns:xlink="http://www.w3.org/1999/xlink" class="plot" fill="currentColor" font-family="system-ui, sans-serif" font-size="10" text-anchor="middle" width="688" height="400" viewBox="0 0 688 400"><style>:where(.plot) {
  --plot-background: white;
  display: block;
  height: auto;
  height: intrinsic;
  max-width: 100%;
}
:where(.plot text),
:where(.plot tspan) {
  white-space: pre;
}</style><g aria-label="y-grid" aria-hidden="true" stroke="currentColor" stroke-opacity="0.1"><line x1="40" x2="668" y1="349.6875" y2="349.6875"></line><line x1="40" x2="668" y1="310.625" y2="310.625"></line><line x1="40" x2="668" y1="271.5625" y2="271.5625"></line><line x1="40" x2="668" y1="232.50000000000003" y2="232.50000000000003"></line><line x1="40" x2="668" y1="193.4375" y2="193.4375"></line><line x1="40" x2="668" y1="154.375" y2="154.375"></line><line x1="40" x2="668" y1="115.31250000000001" y2="115.31250000000001"></line><line x1="40" x2="668" y1="76.25000000000003" y2="76.25000000000003"></line><line x1="40" x2="668" y1="37.187500000000014" y2="37.187500000000014"></line></g><g aria-label="y-axis tick" aria-hidden="true" fill="none" stroke="currentColor"><path transform="translate(40,349.6875)" d="M0,0L-6,0"></path><path transform="translate(40,310.625)" d="M0,0L-6,0"></path><path transform="translate(40,271.5625)" d="M0,0L-6,0"></path><path transform="translate(40,232.50000000000003)" d="M0,0L-6,0"></path><path transform="translate(40,193.4375)" d="M0,0L-6,0"></path><path transform="translate(40,154.375)" d="M0,0L-6,0"></path><path transform="translate(40,115.31250000000001)" d="M0,0L-6,0"></path><path transform="translate(40,76.25000000000003)" d="M0,0L-6,0"></path><path transform="translate(40,37.187500000000014)" d="M0,0L-6,0"></path></g><g aria-label="y-axis tick label" text-anchor="end" font-variant="tabular-nums" transform="translate(-9,0)"><text y="0.32em" transform="translate(40,349.6875)">40</text><text y="0.32em" transform="translate(40,310.625)">45</text><text y="0.32em" transform="translate(40,271.5625)">50</text><text y="0.32em" transform="translate(40,232.50000000000003)">55</text><text y="0.32em" transform="translate(40,193.4375)">60</text><text y="0.32em" transform="translate(40,154.375)">65</text><text y="0.32em" transform="translate(40,115.31250000000001)">70</text><text y="0.32em" transform="translate(40,76.25000000000003)">75</text><text y="0.32em" transform="translate(40,37.187500000000014)">80</text></g><g aria-label="y-axis label" text-anchor="start" transform="translate(-37,-17)"><text y="0.71em" transform="translate(40,20)">↑ Temperature (°F)</text></g><g aria-label="x-axis tick" aria-hidden="true" fill="none" stroke="currentColor"><path transform="translate(40,370)" d="M0,0L0,6"></path><path transform="translate(119.03693570451436,370)" d="M0,0L0,6"></path><path transform="translate(196.35567715458276,370)" d="M0,0L0,6"></path><path transform="translate(274.5335157318741,370)" d="M0,0L0,6"></path><path transform="translate(353.57045143638845,370)" d="M0,0L0,6"></path><path transform="translate(432.6073871409029,370)" d="M0,0L0,6"></path><path transform="translate(510.7852257181943,370)" d="M0,0L0,6"></path><path transform="translate(588.9630642954857,370)" d="M0,0L0,6"></path><path transform="translate(668,370)" d="M0,0L0,6"></path></g><g aria-label="x-axis tick label" font-variant="tabular-nums" transform="translate(0,9)"><text transform="translate(40,370)"><tspan x="0" y="0.71em">Oct</tspan><tspan x="0" dy="1em">2010</tspan></text><text transform="translate(119.03693570451436,370)"><tspan x="0" y="0.71em">Jan</tspan><tspan x="0" dy="1em">2011</tspan></text><text y="0.71em" transform="translate(196.35567715458276,370)">Apr</text><text y="0.71em" transform="translate(274.5335157318741,370)">Jul</text><text y="0.71em" transform="translate(353.57045143638845,370)">Oct</text><text transform="translate(432.6073871409029,370)"><tspan x="0" y="0.71em">Jan</tspan><tspan x="0" dy="1em">2012</tspan></text><text y="0.71em" transform="translate(510.7852257181943,370)">Apr</text><text y="0.71em" transform="translate(588.9630642954857,370)">Jul</text><text y="0.71em" transform="translate(668,370)">Oct</text></g><g aria-label="area"><path d="M40,197.344L40.859,197.344L41.718,201.25L42.577,198.125L43.436,206.719L44.295,177.031L45.155,187.188L46.014,185.625L46.873,174.688L47.732,152.031L48.591,112.969L49.45,20L50.309,71.563L51.168,70.781L52.027,127.812L52.886,222.344L53.746,237.969L54.605,233.281L55.464,234.844L56.323,220.781L57.182,173.125L58.041,194.219L58.9,176.25L59.759,170L60.618,205.156L61.477,197.344L62.337,198.125L63.196,141.875L64.055,155.156L64.914,194.219L65.773,190.313L66.632,159.063L67.491,141.875L68.35,132.5L69.209,90.312L70.068,98.906L70.927,201.25L71.787,199.688L72.646,213.75L73.505,218.438L74.364,198.125L75.223,184.063L76.082,199.688L76.941,169.219L77.8,98.906L78.659,73.125L79.518,150.469L80.378,192.656L81.237,232.5L82.096,232.5L82.955,237.969L83.814,239.531L84.673,236.406L85.532,245L86.391,274.688L87.25,273.125L88.109,264.531L88.969,252.031L89.828,267.656L90.687,261.406L91.546,257.5L92.405,254.375L93.264,245L94.123,246.563L94.982,230.938L95.841,222.344L96.7,197.344L97.56,215.312L98.419,236.406L99.278,220.781L100.137,209.844L100.996,223.906L101.855,227.813L102.714,226.25L103.573,213.75L104.432,248.906L105.291,254.375L106.15,254.375L107.01,212.187L107.869,212.187L108.728,245L109.587,215.312L110.446,212.187L111.305,243.438L112.164,209.844L113.023,212.187L113.882,219.219L114.741,222.344L115.601,243.438L116.46,227.813L117.319,268.438L118.178,270L119.037,285.625L119.896,287.187L120.755,261.406L121.614,264.531L122.473,253.594L123.332,252.031L124.192,309.844L125.051,324.688L125.91,313.75L126.769,294.219L127.628,294.219L128.487,259.062L129.346,245L130.205,240.313L131.064,195.781L131.923,191.094L132.782,252.031L133.642,245L134.501,209.844L135.36,208.281L136.219,205.156L137.078,199.688L137.937,194.219L138.796,185.625L139.655,204.375L140.514,201.25L141.373,191.094L142.233,206.719L143.092,241.875L143.951,240.313L144.81,247.344L145.669,194.219L146.528,187.188L147.387,199.688L148.246,233.281L149.105,155.938L149.964,90.312L150.824,120.781L151.683,212.187L152.542,206.719L153.401,195.781L154.26,199.688L155.119,191.094L155.978,225.469L156.837,216.875L157.696,205.156L158.555,211.406L159.415,266.094L160.274,271.563L161.133,302.813L161.992,271.563L162.851,270L163.71,257.5L164.569,257.5L165.428,261.406L166.287,262.969L167.146,301.25L168.005,270L168.865,280.156L169.724,230.938L170.583,222.344L171.442,236.406L172.301,223.906L173.16,206.719L174.019,222.344L174.878,227.813L175.737,230.938L176.596,223.906L177.456,213.75L178.315,236.406L179.174,233.281L180.033,180.156L180.892,198.125L181.751,205.156L182.61,222.344L183.469,234.844L184.328,236.406L185.187,262.969L186.047,247.344L186.906,252.031L187.765,233.281L188.624,233.281L189.483,239.531L190.342,236.406L191.201,246.563L192.06,237.969L192.919,234.844L193.778,215.312L194.637,83.281L195.497,106.719L196.356,113.75L197.215,191.094L198.074,198.125L198.933,146.563L199.792,162.969L200.651,219.219L201.51,240.313L202.369,262.969L203.228,240.313L204.088,237.969L204.947,233.281L205.806,243.438L206.665,246.563L207.524,243.438L208.383,218.438L209.242,212.187L210.101,230.938L210.96,223.906L211.819,222.344L212.679,198.125L213.538,205.156L214.397,230.938L215.256,226.25L216.115,219.219L216.974,216.875L217.833,225.469L218.692,223.906L219.551,234.844L220.41,218.438L221.269,176.25L222.129,157.5L222.988,191.094L223.847,213.75L224.706,120L225.565,139.531L226.424,208.281L227.283,236.406L228.142,245L229.001,222.344L229.86,227.813L230.72,237.969L231.579,219.219L232.438,232.5L233.297,239.531L234.156,232.5L235.015,227.813L235.874,229.375L236.733,218.438L237.592,226.25L238.451,226.25L239.311,219.219L240.17,223.906L241.029,216.875L241.888,227.813L242.747,226.25L243.606,216.875L244.465,213.75L245.324,218.438L246.183,216.875L247.042,222.344L247.902,229.375L248.761,219.219L249.62,220.781L250.479,222.344L251.338,185.625L252.197,180.156L253.056,205.156L253.915,206.719L254.774,209.844L255.633,218.438L256.492,204.375L257.352,212.187L258.211,227.813L259.07,209.844L259.929,212.187L260.788,187.188L261.647,209.844L262.506,225.469L263.365,216.875L264.224,195.781L265.083,92.656L265.943,171.563L266.802,190.313L267.661,211.406L268.52,213.75L269.379,219.219L270.238,206.719L271.097,216.875L271.956,211.406L272.815,215.312L273.674,195.781L274.534,185.625L275.393,183.281L276.252,136.406L277.111,181.719L277.97,223.906L278.829,225.469L279.688,218.438L280.547,220.781L281.406,232.5L282.265,201.25L283.124,206.719L283.984,215.312L284.843,216.875L285.702,208.281L286.561,213.75L287.42,197.344L288.279,191.094L289.138,191.094L289.997,194.219L290.856,178.594L291.715,187.188L292.575,195.781L293.434,190.313L294.293,190.313L295.152,188.75L296.011,197.344L296.87,208.281L297.729,211.406L298.588,201.25L299.447,190.313L300.306,190.313L301.166,190.313L302.025,194.219L302.884,199.688L303.743,199.688L304.602,198.125L305.461,202.813L306.32,208.281L307.179,205.156L308.038,205.156L308.897,198.125L309.756,219.219L310.616,218.438L311.475,198.125L312.334,194.219L313.193,194.219L314.052,192.656L314.911,215.312L315.77,213.75L316.629,222.344L317.488,188.75L318.347,202.813L319.207,202.813L320.066,199.688L320.925,202.813L321.784,202.813L322.643,209.844L323.502,216.875L324.361,216.875L325.22,192.656L326.079,197.344L326.938,184.063L327.798,206.719L328.657,199.688L329.516,215.312L330.375,209.844L331.234,211.406L332.093,206.719L332.952,208.281L333.811,209.844L334.67,209.844L335.529,201.25L336.389,152.031L337.248,170L338.107,171.563L338.966,211.406L339.825,209.844L340.684,202.813L341.543,198.125L342.402,160.625L343.261,125.469L344.12,123.906L344.979,155.156L345.839,213.75L346.698,211.406L347.557,195.781L348.416,174.688L349.275,178.594L350.134,155.156L350.993,64.531L351.852,94.219L352.711,150.469L353.57,129.375L354.43,145L355.289,170L356.148,181.719L357.007,183.281L357.866,199.688L358.725,194.219L359.584,181.719L360.443,197.344L361.302,173.125L362.161,177.031L363.021,122.344L363.88,80.156L364.739,56.719L365.598,102.813L366.457,169.219L367.316,94.219L368.175,141.094L369.034,188.75L369.893,191.094L370.752,195.781L371.611,87.188L372.471,64.531L373.33,91.875L374.189,209.844L375.048,167.656L375.907,150.469L376.766,157.5L377.625,159.063L378.484,171.563L379.343,194.219L380.202,129.375L381.062,129.375L381.921,92.656L382.78,248.906L383.639,234.844L384.498,237.969L385.357,237.969L386.216,220.781L387.075,204.375L387.934,195.781L388.793,208.281L389.653,218.438L390.512,218.438L391.371,212.187L392.23,195.781L393.089,208.281L393.948,222.344L394.807,227.813L395.666,250.469L396.525,243.438L397.384,240.313L398.244,202.813L399.103,197.344L399.962,204.375L400.821,234.844L401.68,222.344L402.539,223.906L403.398,226.25L404.257,234.844L405.116,176.25L405.975,162.188L406.834,150.469L407.694,141.875L408.553,194.219L409.412,220.781L410.271,209.844L411.13,236.406L411.989,252.031L412.848,220.781L413.707,218.438L414.566,247.344L415.425,264.531L416.285,255.937L417.144,266.094L418.003,259.062L418.862,222.344L419.721,237.969L420.58,225.469L421.439,253.594L422.298,223.906L423.157,218.438L424.016,213.75L424.876,206.719L425.735,246.563L426.594,240.313L427.453,252.031L428.312,254.375L429.171,234.844L430.03,236.406L430.889,234.844L431.748,232.5L432.607,215.312L433.466,225.469L434.326,239.531L435.185,195.781L436.044,202.813L436.903,222.344L437.762,155.938L438.621,155.156L439.48,184.063L440.339,206.719L441.198,202.813L442.057,215.312L442.917,198.125L443.776,194.219L444.635,226.25L445.494,280.156L446.353,282.5L447.212,254.375L448.071,260.625L448.93,212.187L449.789,209.844L450.648,260.625L451.508,230.938L452.367,243.438L453.226,216.875L454.085,212.187L454.944,209.844L455.803,209.844L456.662,198.125L457.521,216.875L458.38,253.594L459.239,233.281L460.098,202.813L460.958,202.813L461.817,206.719L462.676,192.656L463.535,197.344L464.394,209.844L465.253,213.75L466.112,201.25L466.971,159.063L467.83,225.469L468.689,248.906L469.549,248.906L470.408,245L471.267,230.938L472.126,213.75L472.985,243.438L473.844,236.406L474.703,248.906L475.562,248.906L476.421,233.281L477.28,176.25L478.14,183.281L478.999,183.281L479.858,240.313L480.717,247.344L481.576,277.031L482.435,267.656L483.294,254.375L484.153,266.094L485.012,230.938L485.871,174.688L486.731,171.563L487.59,192.656L488.449,261.406L489.308,240.313L490.167,180.156L491.026,171.563L491.885,233.281L492.744,239.531L493.603,232.5L494.462,227.813L495.321,219.219L496.181,218.438L497.04,225.469L497.899,237.969L498.758,268.438L499.617,273.125L500.476,250.469L501.335,215.312L502.194,243.438L503.053,246.563L503.912,241.875L504.772,262.969L505.631,230.938L506.49,206.719L507.349,225.469L508.208,233.281L509.067,205.156L509.926,198.125L510.785,225.469L511.644,233.281L512.503,216.875L513.363,233.281L514.222,257.5L515.081,261.406L515.94,219.219L516.799,215.312L517.658,195.781L518.517,195.781L519.376,216.875L520.235,219.219L521.094,225.469L521.953,232.5L522.813,236.406L523.672,237.969L524.531,232.5L525.39,223.906L526.249,201.25L527.108,183.281L527.967,155.156L528.826,202.813L529.685,194.219L530.544,187.188L531.404,195.781L532.263,202.813L533.122,206.719L533.981,204.375L534.84,213.75L535.699,215.312L536.558,213.75L537.417,236.406L538.276,198.125L539.135,205.156L539.995,204.375L540.854,115.313L541.713,169.219L542.572,185.625L543.431,223.906L544.29,187.188L545.149,215.312L546.008,245L546.867,215.312L547.726,201.25L548.585,208.281L549.445,237.969L550.304,230.938L551.163,218.438L552.022,218.438L552.881,208.281L553.74,212.187L554.599,209.844L555.458,202.813L556.317,213.75L557.176,222.344L558.036,233.281L558.895,233.281L559.754,229.375L560.613,223.906L561.472,226.25L562.331,215.312L563.19,201.25L564.049,213.75L564.908,220.781L565.767,212.187L566.627,216.875L567.486,213.75L568.345,206.719L569.204,212.187L570.063,198.125L570.922,125.469L571.781,170L572.64,181.719L573.499,199.688L574.358,219.219L575.218,202.813L576.077,141.094L576.936,190.313L577.795,236.406L578.654,222.344L579.513,197.344L580.372,212.187L581.231,209.844L582.09,208.281L582.949,205.156L583.808,190.313L584.668,181.719L585.527,171.563L586.386,195.781L587.245,191.094L588.104,177.031L588.963,176.25L589.822,202.813L590.681,190.313L591.54,202.813L592.399,201.25L593.259,202.813L594.118,205.156L594.977,225.469L595.836,226.25L596.695,215.312L597.554,239.531L598.413,227.813L599.272,226.25L600.131,220.781L600.99,218.438L601.85,212.187L602.709,192.656L603.568,190.313L604.427,192.656L605.286,184.063L606.145,184.063L607.004,191.094L607.863,199.688L608.722,185.625L609.581,202.813L610.44,195.781L611.3,208.281L612.159,192.656L613.018,194.219L613.877,197.344L614.736,201.25L615.595,216.875L616.454,215.312L617.313,226.25L618.172,208.281L619.031,185.625L619.891,178.594L620.75,180.156L621.609,188.75L622.468,195.781L623.327,209.844L624.186,230.938L625.045,230.938L625.904,226.25L626.763,213.75L627.622,204.375L628.482,204.375L629.341,198.125L630.2,199.688L631.059,215.312L631.918,220.781L632.777,229.375L633.636,212.187L634.495,216.875L635.354,205.156L636.213,226.25L637.073,187.188L637.932,174.688L638.791,169.219L639.65,173.125L640.509,183.281L641.368,208.281L642.227,211.406L643.086,234.844L643.945,225.469L644.804,230.938L645.663,218.438L646.523,209.844L647.382,192.656L648.241,198.125L649.1,184.063L649.959,191.094L650.818,198.125L651.677,205.156L652.536,212.187L653.395,206.719L654.254,205.156L655.114,220.781L655.973,209.844L656.832,199.688L657.691,198.125L658.55,199.688L659.409,194.219L660.268,188.75L661.127,211.406L661.986,215.312L662.845,226.25L663.705,233.281L664.564,237.969L665.423,226.25L666.282,227.813L667.141,150.469L668,50.469L668,227.813L667.141,268.438L666.282,252.031L665.423,274.688L664.564,266.094L663.705,253.594L662.845,264.531L661.986,250.469L661.127,271.563L660.268,253.594L659.409,264.531L658.55,264.531L657.691,232.5L656.832,255.937L655.973,248.906L655.114,266.094L654.254,260.625L653.395,243.438L652.536,255.937L651.677,241.875L650.818,240.313L649.959,247.344L649.1,248.906L648.241,234.844L647.382,248.906L646.523,232.5L645.663,247.344L644.804,266.094L643.945,262.969L643.086,259.062L642.227,250.469L641.368,243.438L640.509,247.344L639.65,245L638.791,226.25L637.932,225.469L637.073,247.344L636.213,257.5L635.354,261.406L634.495,233.281L633.636,259.062L632.777,255.937L631.918,261.406L631.059,253.594L630.2,234.844L629.341,241.875L628.482,225.469L627.622,232.5L626.763,257.5L625.904,260.625L625.045,266.094L624.186,259.062L623.327,252.031L622.468,259.062L621.609,241.875L620.75,232.5L619.891,226.25L619.031,218.438L618.172,257.5L617.313,254.375L616.454,250.469L615.595,246.563L614.736,245L613.877,246.563L613.018,248.906L612.159,245L611.3,252.031L610.44,236.406L609.581,222.344L608.722,227.813L607.863,233.281L607.004,247.344L606.145,236.406L605.286,232.5L604.427,245L603.568,225.469L602.709,230.938L601.85,255.937L600.99,254.375L600.131,257.5L599.272,260.625L598.413,268.438L597.554,266.094L596.695,274.688L595.836,254.375L594.977,261.406L594.118,259.062L593.259,253.594L592.399,252.031L591.54,243.438L590.681,253.594L589.822,240.313L588.963,222.344L588.104,226.25L587.245,236.406L586.386,236.406L585.527,245L584.668,253.594L583.808,250.469L582.949,254.375L582.09,252.031L581.231,254.375L580.372,267.656L579.513,252.031L578.654,257.5L577.795,267.656L576.936,252.031L576.077,252.031L575.218,268.438L574.358,268.438L573.499,274.688L572.64,260.625L571.781,245L570.922,233.281L570.063,274.688L569.204,268.438L568.345,273.125L567.486,277.031L566.627,264.531L565.767,240.313L564.908,274.688L564.049,260.625L563.19,261.406L562.331,262.969L561.472,273.125L560.613,273.125L559.754,268.438L558.895,266.094L558.036,281.719L557.176,275.469L556.317,271.563L555.458,246.563L554.599,259.062L553.74,271.563L552.881,262.969L552.022,281.719L551.163,284.063L550.304,274.688L549.445,273.125L548.585,275.469L547.726,241.875L546.867,275.469L546.008,289.531L545.149,273.125L544.29,287.187L543.431,270L542.572,280.156L541.713,274.688L540.854,266.094L539.995,285.625L539.135,271.563L538.276,273.125L537.417,292.656L536.558,280.156L535.699,270L534.84,267.656L533.981,262.969L533.122,288.75L532.263,254.375L531.404,222.344L530.544,223.906L529.685,250.469L528.826,273.125L527.967,240.313L527.108,255.937L526.249,246.563L525.39,266.094L524.531,257.5L523.672,277.031L522.813,274.688L521.953,289.531L521.094,298.125L520.235,277.031L519.376,268.438L518.517,254.375L517.658,294.219L516.799,316.875L515.94,309.844L515.081,330.938L514.222,324.688L513.363,305.156L512.503,273.125L511.644,298.125L510.785,281.719L509.926,284.063L509.067,253.594L508.208,271.563L507.349,250.469L506.49,254.375L505.631,319.219L504.772,313.75L503.912,326.25L503.053,319.219L502.194,278.594L501.335,282.5L500.476,284.063L499.617,331.719L498.758,312.188L497.899,322.344L497.04,241.875L496.181,233.281L495.321,239.531L494.462,252.031L493.603,316.875L492.744,282.5L491.885,296.563L491.026,310.625L490.167,316.875L489.308,298.125L488.449,301.25L487.59,316.875L486.731,271.563L485.871,308.281L485.012,322.344L484.153,292.656L483.294,287.187L482.435,338.75L481.576,347.344L480.717,341.875L479.858,275.469L478.999,260.625L478.14,275.469L477.28,277.031L476.421,291.094L475.562,298.125L474.703,326.25L473.844,270L472.985,299.688L472.126,287.187L471.267,319.219L470.408,319.219L469.549,299.688L468.689,302.813L467.83,267.656L466.971,280.156L466.112,267.656L465.253,285.625L464.394,259.062L463.535,271.563L462.676,275.469L461.817,280.156L460.958,296.563L460.098,301.25L459.239,301.25L458.38,287.187L457.521,284.063L456.662,270L455.803,303.594L454.944,305.156L454.085,255.937L453.226,273.125L452.367,305.156L451.508,266.094L450.648,301.25L449.789,278.594L448.93,277.031L448.071,309.844L447.212,345.781L446.353,361.406L445.494,333.281L444.635,287.187L443.776,291.094L442.917,291.094L442.057,299.688L441.198,313.75L440.339,294.219L439.48,288.75L438.621,259.062L437.762,308.281L436.903,306.719L436.044,294.219L435.185,275.469L434.326,301.25L433.466,274.688L432.607,261.406L431.748,301.25L430.889,257.5L430.03,285.625L429.171,306.719L428.312,323.906L427.453,322.344L426.594,308.281L425.735,317.656L424.876,327.813L424.016,284.063L423.157,322.344L422.298,324.688L421.439,312.188L420.58,298.125L419.721,302.813L418.862,324.688L418.003,298.125L417.144,323.906L416.285,316.875L415.425,308.281L414.566,305.156L413.707,287.187L412.848,294.219L411.989,333.281L411.13,312.188L410.271,303.594L409.412,303.594L408.553,295.781L407.694,240.313L406.834,201.25L405.975,208.281L405.116,302.813L404.257,303.594L403.398,291.094L402.539,268.438L401.68,268.438L400.821,282.5L399.962,252.031L399.103,260.625L398.244,284.063L397.384,278.594L396.525,294.219L395.666,312.188L394.807,264.531L393.948,281.719L393.089,275.469L392.23,280.156L391.371,273.125L390.512,254.375L389.653,255.937L388.793,273.125L387.934,267.656L387.075,264.531L386.216,298.125L385.357,295.781L384.498,268.438L383.639,289.531L382.78,303.594L381.921,261.406L381.062,212.187L380.202,253.594L379.343,253.594L378.484,243.438L377.625,252.031L376.766,239.531L375.907,262.969L375.048,274.688L374.189,237.969L373.33,232.5L372.471,183.281L371.611,220.781L370.752,246.563L369.893,225.469L369.034,216.875L368.175,232.5L367.316,227.813L366.457,191.094L365.598,211.406L364.739,171.563L363.88,202.813L363.021,213.75L362.161,192.656L361.302,202.813L360.443,232.5L359.584,240.313L358.725,248.906L357.866,232.5L357.007,219.219L356.148,220.781L355.289,215.312L354.43,215.312L353.57,192.656L352.711,197.344L351.852,230.938L350.993,192.656L350.134,225.469L349.275,240.313L348.416,202.813L347.557,232.5L346.698,245L345.839,245L344.979,246.563L344.12,212.187L343.261,227.813L342.402,229.375L341.543,240.313L340.684,232.5L339.825,230.938L338.966,233.281L338.107,219.219L337.248,206.719L336.389,206.719L335.529,243.438L334.67,245L333.811,255.937L332.952,264.531L332.093,267.656L331.234,240.313L330.375,236.406L329.516,243.438L328.657,245L327.798,240.313L326.938,248.906L326.079,239.531L325.22,241.875L324.361,252.031L323.502,252.031L322.643,232.5L321.784,239.531L320.925,245L320.066,236.406L319.207,219.219L318.347,237.969L317.488,241.875L316.629,246.563L315.77,250.469L314.911,245L314.052,250.469L313.193,232.5L312.334,237.969L311.475,243.438L310.616,246.563L309.756,246.563L308.897,234.844L308.038,243.438L307.179,250.469L306.32,239.531L305.461,236.406L304.602,236.406L303.743,227.813L302.884,239.531L302.025,232.5L301.166,222.344L300.306,218.438L299.447,213.75L298.588,232.5L297.729,247.344L296.87,245L296.011,243.438L295.152,236.406L294.293,216.875L293.434,240.313L292.575,243.438L291.715,233.281L290.856,223.906L289.997,223.906L289.138,232.5L288.279,232.5L287.42,232.5L286.561,241.875L285.702,243.438L284.843,237.969L283.984,254.375L283.124,257.5L282.265,247.344L281.406,253.594L280.547,259.062L279.688,261.406L278.829,260.625L277.97,270L277.111,241.875L276.252,234.844L275.393,254.375L274.534,240.313L273.674,250.469L272.815,245L271.956,255.937L271.097,268.438L270.238,253.594L269.379,257.5L268.52,255.937L267.661,252.031L266.802,261.406L265.943,234.844L265.083,225.469L264.224,255.937L263.365,253.594L262.506,261.406L261.647,257.5L260.788,247.344L259.929,264.531L259.07,248.906L258.211,254.375L257.352,261.406L256.492,250.469L255.633,248.906L254.774,243.438L253.915,252.031L253.056,236.406L252.197,248.906L251.338,243.438L250.479,268.438L249.62,254.375L248.761,280.156L247.902,248.906L247.042,277.031L246.183,298.125L245.324,253.594L244.465,246.563L243.606,260.625L242.747,267.656L241.888,281.719L241.029,266.094L240.17,275.469L239.311,264.531L238.451,261.406L237.592,273.125L236.733,261.406L235.874,270L235.015,271.563L234.156,309.844L233.297,270L232.438,289.531L231.579,261.406L230.72,274.688L229.86,280.156L229.001,299.688L228.142,270L227.283,275.469L226.424,267.656L225.565,261.406L224.706,264.531L223.847,280.156L222.988,281.719L222.129,278.594L221.269,230.938L220.41,298.125L219.551,273.125L218.692,278.594L217.833,289.531L216.974,247.344L216.115,250.469L215.256,275.469L214.397,289.531L213.538,280.156L212.679,270L211.819,266.094L210.96,261.406L210.101,260.625L209.242,266.094L208.383,285.625L207.524,305.156L206.665,289.531L205.806,306.719L204.947,273.125L204.088,287.187L203.228,306.719L202.369,313.75L201.51,303.594L200.651,288.75L199.792,262.969L198.933,275.469L198.074,303.594L197.215,246.563L196.356,213.75L195.497,225.469L194.637,260.625L193.778,296.563L192.919,301.25L192.06,302.813L191.201,274.688L190.342,294.219L189.483,296.563L188.624,281.719L187.765,294.219L186.906,295.781L186.047,282.5L185.187,299.688L184.328,295.781L183.469,308.281L182.61,252.031L181.751,243.438L180.892,250.469L180.033,262.969L179.174,298.125L178.315,306.719L177.456,285.625L176.596,281.719L175.737,280.156L174.878,277.031L174.019,248.906L173.16,289.531L172.301,298.125L171.442,262.969L170.583,282.5L169.724,278.594L168.865,324.688L168.005,355.938L167.146,370L166.287,315.313L165.428,315.313L164.569,330.938L163.71,313.75L162.851,337.969L161.992,352.031L161.133,350.469L160.274,331.719L159.415,313.75L158.555,282.5L157.696,262.969L156.837,287.187L155.978,315.313L155.119,277.031L154.26,308.281L153.401,312.188L152.542,280.156L151.683,257.5L150.824,262.969L149.964,212.187L149.105,281.719L148.246,313.75L147.387,313.75L146.528,257.5L145.669,303.594L144.81,313.75L143.951,267.656L143.092,285.625L142.233,327.813L141.373,262.969L140.514,262.969L139.655,275.469L138.796,278.594L137.937,257.5L137.078,262.969L136.219,270L135.36,278.594L134.501,260.625L133.642,292.656L132.782,289.531L131.923,298.125L131.064,275.469L130.205,261.406L129.346,281.719L128.487,296.563L127.628,322.344L126.769,348.906L125.91,345.781L125.051,345L124.192,352.031L123.332,347.344L122.473,312.188L121.614,323.906L120.755,299.688L119.896,317.656L119.037,323.906L118.178,329.375L117.319,337.969L116.46,281.719L115.601,274.688L114.741,303.594L113.882,277.031L113.023,296.563L112.164,299.688L111.305,315.313L110.446,257.5L109.587,282.5L108.728,270L107.869,257.5L107.01,295.781L106.15,301.25L105.291,324.688L104.432,292.656L103.573,245L102.714,241.875L101.855,259.062L100.996,239.531L100.137,245L99.278,248.906L98.419,267.656L97.56,275.469L96.7,239.531L95.841,253.594L94.982,268.438L94.123,278.594L93.264,277.031L92.405,308.281L91.546,316.875L90.687,334.844L89.828,313.75L88.969,289.531L88.109,315.313L87.25,326.25L86.391,331.719L85.532,270L84.673,285.625L83.814,288.75L82.955,312.188L82.096,280.156L81.237,285.625L80.378,252.031L79.518,226.25L78.659,174.688L77.8,216.875L76.941,266.094L76.082,274.688L75.223,257.5L74.364,247.344L73.505,294.219L72.646,246.563L71.787,223.906L70.927,246.563L70.068,239.531L69.209,174.688L68.35,215.312L67.491,234.844L66.632,239.531L65.773,246.563L64.914,253.594L64.055,246.563L63.196,226.25L62.337,273.125L61.477,261.406L60.618,237.969L59.759,209.844L58.9,254.375L58.041,241.875L57.182,229.375L56.323,271.563L55.464,270L54.605,260.625L53.746,257.5L52.886,250.469L52.027,234.844L51.168,211.406L50.309,213.75L49.45,204.375L48.591,232.5L47.732,240.313L46.873,248.906L46.014,252.031L45.155,245L44.295,236.406L43.436,250.469L42.577,234.844L41.718,245L40.859,245L40,216.875Z"></path></g></svg>