<svg class="visualization-layer" width="700" height="400" style="position:absolute">
  <g class="data-visualization" data-testid="data-visualization" aria-label="Visualization with a complex title. Use arrow keys to navigate elements.">
    <g class="axis axis-tick-lines" aria-hidden="true">
      <g class="axis axis y left">
        <g class="tick-line tick left axis y left">
          <path fill="none" stroke="#000" d="M80 310h610" class="tick-line tick left axis y left"/>
        </g>
        <g class="tick-line tick left axis y left">
          <path fill="none" stroke="#000" d="M80 252.357h610" class="tick-line tick left axis y left"/>
        </g>
        <g class="tick-line tick left axis y left">
          <path fill="none" stroke="#000" d="M80 194.714h610" class="tick-line tick left axis y left"/>
        </g>
        <g class="tick-line tick left axis y left">
          <path fill="none" stroke="#000" d="M80 137.07h610" class="tick-line tick left axis y left"/>
        </g>
        <g class="tick-line tick left axis y left">
          <path fill="none" stroke="#000" d="M80 79.428h610" class="tick-line tick left axis y left"/>
        </g>
      </g>
      <g class="axis axis x bottom">
        <g class="tick-line tick bottom axis x bottom">
          <path fill="none" stroke="#000" d="M80 40v270" class="tick-line tick bottom axis x bottom"/>
        </g>
        <g class="tick-line tick bottom axis x bottom">
          <path fill="none" stroke="#000" d="M123.571 40v270" class="tick-line tick bottom axis x bottom"/>
        </g>
        <g class="tick-line tick bottom axis x bottom">
          <path fill="none" stroke="#000" d="M167.143 40v270" class="tick-line tick bottom axis x bottom"/>
        </g>
        <g class="tick-line tick bottom axis x bottom">
          <path fill="none" stroke="#000" d="M210.714 40v270" class="tick-line tick bottom axis x bottom"/>
        </g>
        <g class="tick-line tick bottom axis x bottom">
          <path fill="none" stroke="#000" d="M254.286 40v270" class="tick-line tick bottom axis x bottom"/>
        </g>
        <g class="tick-line tick bottom axis x bottom">
          <path fill="none" stroke="#000" d="M297.857 40v270" class="tick-line tick bottom axis x bottom"/>
        </g>
        <g class="tick-line tick bottom axis x bottom">
          <path fill="none" stroke="#000" d="M341.429 40v270" class="tick-line tick bottom axis x bottom"/>
        </g>
        <g class="tick-line tick bottom axis x bottom">
          <path fill="none" stroke="#000" d="M385 40v270" class="tick-line tick bottom axis x bottom"/>
        </g>
        <g class="tick-line tick bottom axis x bottom">
          <path fill="none" stroke="#000" d="M428.571 40v270" class="tick-line tick bottom axis x bottom"/>
        </g>
        <g class="tick-line tick bottom axis x bottom">
          <path fill="none" stroke="#000" d="M472.143 40v270" class="tick-line tick bottom axis x bottom"/>
        </g>
        <g class="tick-line tick bottom axis x bottom">
          <path fill="none" stroke="#000" d="M515.714 40v270" class="tick-line tick bottom axis x bottom"/>
        </g>
        <g class="tick-line tick bottom axis x bottom">
          <path fill="none" stroke="#000" d="M559.286 40v270" class="tick-line tick bottom axis x bottom"/>
        </g>
        <g class="tick-line tick bottom axis x bottom">
          <path fill="none" stroke="#000" d="M602.857 40v270" class="tick-line tick bottom axis x bottom"/>
        </g>
        <g class="tick-line tick bottom axis x bottom">
          <path fill="none" stroke="#000" d="M646.429 40v270" class="tick-line tick bottom axis x bottom"/>
        </g>
        <g class="tick-line tick bottom axis x bottom">
          <path fill="none" stroke="#000" d="M690 40v270" class="tick-line tick bottom axis x bottom"/>
        </g>
      </g>
    </g>
    <g class="lines" data-testid="lines" tabindex="0" aria-label="3 ranked areas in a ranked area chart">
      <g class="xyframe-line" aria-label="15 point ranked area starting value 0.004k at 1 ending value 0.031k at 15">
        <path tabindex="-1" d="m0 269.77 43.571-2.018 43.572-86.753 43.571-34.586L174.286 18.1l43.571 71.42 43.572 88.77L305 212.818l43.571 23.807 43.572 9.453 43.571 8.531 43.572 5.073 43.571 3.574 43.572 2.94 43.571.98v1.786l-43.571-.518-43.572-1.672-43.571-2.421-43.572-2.594-43.571-4.496-43.572-3.228L305 241.985l-43.571-12.047-43.572-41.388-43.571-54.933-43.572 86.522-43.571 33.202L43.57 270H0Z" class="xyframe-line" data-testid="xyframe-line" style="stroke:#ac58e5;stroke-width:2;fill:#ac58e5;fill-opacity:.6" transform="translate(80 40)"/>
      </g>
      <g class="xyframe-line" aria-label="15 point ranked area starting value 0.01k at 1 ending value 0.018k at 15">
        <path tabindex="-1" d="m0 269.193 43.571-7.148 43.572-8.704 43.571-33.202 43.572-2.133 43.571 16.832 43.572-4.9L305 241.985l43.571 20.983 43.572.98 43.571-2.191 43.572 2.594 43.571 2.421 43.572 1.672 43.571.518V270h-43.571l-43.572-.519-43.571-.864-43.572-1.21L392.143 270H348.57L305 256.742l-43.571-5.707L217.857 270H87.143l-43.572-2.248L0 269.769Z" class="xyframe-line" data-testid="xyframe-line" style="stroke:#e0488b;stroke-width:2;fill:#e0488b;fill-opacity:.6" transform="translate(80 40)"/>
      </g>
      <g class="xyframe-line" aria-label="13 point ranked area starting value 3.366k at 1 ending value 0.009k at 13">
        <path tabindex="-1" d="m0 75.167 43.571-7.436L87.143 0l43.571 24.498 43.572 109.119 43.571 54.933 43.572 62.485L305 256.742l43.571-2.71 43.572 3.229 43.571 10.145 43.572 1.21 43.571.865V270h-87.143l-43.571-6.053-43.572-.98L305 270h-43.571l-43.572-35.162-43.571-16.832-43.572-71.593L87.143 181 43.57 262.045 0 269.193Z" class="xyframe-line" data-testid="xyframe-line" style="stroke:#9fd0cb;stroke-width:2;fill:#9fd0cb;fill-opacity:.6" transform="translate(80 40)"/>
      </g>
    </g>
    <g class="axis axis-labels">
      <g class="axis y left" aria-label="left axis from 0k to 4k">
        <g pointer-events="none" class="axis-label">
          <text text-anchor="end" class="axis-label" transform="translate(70 315)">0k</text>
        </g>
        <g pointer-events="none" class="axis-label">
          <text text-anchor="end" class="axis-label" transform="translate(70 257.357)">1k</text>
        </g>
        <g pointer-events="none" class="axis-label">
          <text text-anchor="end" class="axis-label" transform="translate(70 199.714)">2k</text>
        </g>
        <g pointer-events="none" class="axis-label">
          <text text-anchor="end" class="axis-label" transform="translate(70 142.07)">3k</text>
        </g>
        <g pointer-events="none" class="axis-label">
          <text text-anchor="end" class="axis-label" transform="translate(70 84.428)">4k</text>
        </g>
        <path class="axis-baseline axis y left" stroke="#000" stroke-linecap="square" d="M80 40v270"/>
        <text text-anchor="middle" transform="rotate(-90 105 70)" class="axis-title axis y left">Number of Theaters</text>
      </g>
      <g class="axis x bottom" aria-label="bottom axis from 1 to 15">
        <g pointer-events="none" class="axis-label">
          <text text-anchor="middle" class="axis-label" transform="translate(80 335)">1</text>
        </g>
        <g pointer-events="none" class="axis-label">
          <text text-anchor="middle" class="axis-label" transform="translate(123.571 335)">2</text>
        </g>
        <g pointer-events="none" class="axis-label">
          <text text-anchor="middle" class="axis-label" transform="translate(167.143 335)">3</text>
        </g>
        <g pointer-events="none" class="axis-label">
          <text text-anchor="middle" class="axis-label" transform="translate(210.714 335)">4</text>
        </g>
        <g pointer-events="none" class="axis-label">
          <text text-anchor="middle" class="axis-label" transform="translate(254.286 335)">5</text>
        </g>
        <g pointer-events="none" class="axis-label">
          <text text-anchor="middle" class="axis-label" transform="translate(297.857 335)">6</text>
        </g>
        <g pointer-events="none" class="axis-label">
          <text text-anchor="middle" class="axis-label" transform="translate(341.429 335)">7</text>
        </g>
        <g pointer-events="none" class="axis-label">
          <text text-anchor="middle" class="axis-label" transform="translate(385 335)">8</text>
        </g>
        <g pointer-events="none" class="axis-label">
          <text text-anchor="middle" class="axis-label" transform="translate(428.571 335)">9</text>
        </g>
        <g pointer-events="none" class="axis-label">
          <text text-anchor="middle" class="axis-label" transform="translate(472.143 335)">10</text>
        </g>
        <g pointer-events="none" class="axis-label">
          <text text-anchor="middle" class="axis-label" transform="translate(515.714 335)">11</text>
        </g>
        <g pointer-events="none" class="axis-label">
          <text text-anchor="middle" class="axis-label" transform="translate(559.286 335)">12</text>
        </g>
        <g pointer-events="none" class="axis-label">
          <text text-anchor="middle" class="axis-label" transform="translate(602.857 335)">13</text>
        </g>
        <g pointer-events="none" class="axis-label">
          <text text-anchor="middle" class="axis-label" transform="translate(646.429 335)">14</text>
        </g>
        <g pointer-events="none" class="axis-label">
          <text text-anchor="middle" class="axis-label" transform="translate(690 335)">15</text>
        </g>
        <path class="axis-baseline axis x bottom" stroke="#000" stroke-linecap="square" d="M80 310h610"/>
        <text text-anchor="middle" transform="translate(385 365)" class="axis-title axis x bottom">Weeks from Opening Day</text>
      </g>
    </g>
  </g>
  <text text-anchor="middle" transform="translate(350 25)" class="frame-title">Theaters showing <tspan fill="#ac58e5">Ex Machina</tspan> vs <tspan fill="#E0488B">Far from the Madding Crowd</tspan></text>
</svg>
