<svg width="1031" height="468">
  <clipPath id="a">
    <path d="M-1-1h1033v470H-1z"/>
  </clipPath>
  <g class="wj-header" clip-path="url(#a)"/>
  <g class="wj-footer" clip-path="url(#a)"/>
  <clipPath id="b">
    <path d="M962.4 208.5h69.6v51h-69.6z"/>
  </clipPath>
  <g class="wj-legend" clip-path="url(#b)">
    <path fill="transparent" d="M963.4 209.5h67.6v49h-67.6z"/>
    <circle stroke="#ddca9a" fill="rgba(221,202,154,0.7)" cx="972.4" cy="221.8" r="3"/>
    <text x="981.4" y="227" class="wj-label">Male</text>
    <circle stroke="#778deb" fill="rgba(119,141,235,0.7)" cx="972.4" cy="246.3" r="3"/>
    <text x="981.4" y="251.5" class="wj-label">Female</text>
  </g>
  <path fill="transparent" class="wj-plot-area" d="M55.9 16.5h895.8V421H55.9z"/>
  <g class="wj-axis-x" clip-path="url(#a)">
    <text x="44.2" y="443.5" fill="#666" class="wj-label">140</text>
    <path stroke="#666" class="wj-tick" d="M55.9 421v4"/>
    <text x="193.5" y="443.5" fill="#666" class="wj-label">150</text>
    <path stroke="#666" class="wj-tick" d="M205.2 421v4"/>
    <text x="342.8" y="443.5" fill="#666" class="wj-label">160</text>
    <path stroke="#666" class="wj-tick" d="M354.5 421v4"/>
    <text x="492.1" y="443.5" fill="#666" class="wj-label">170</text>
    <path stroke="#666" class="wj-tick" d="M503.8 421v4"/>
    <text x="641.4" y="443.5" fill="#666" class="wj-label">180</text>
    <path stroke="#666" class="wj-tick" d="M653.1 421v4"/>
    <text x="790.7" y="443.5" fill="#666" class="wj-label">190</text>
    <path stroke="#666" class="wj-tick" d="M802.4 421v4"/>
    <text x="940" y="443.5" fill="#666" class="wj-label">200</text>
    <path stroke="#666" class="wj-tick" d="M951.7 421v4"/>
    <path stroke="#666" class="wj-line" d="M55.9 421h895.8"/>
    <text x="471.1" y="465" fill="#666" class="wj-title">height(cm)</text>
  </g>
  <g class="wj-axis-y" clip-path="url(#a)">
    <text x="27.3" y="426.3" fill="#666" class="wj-label">40</text>
    <text x="27.3" y="375.7" fill="#666" class="wj-label">50</text>
    <text x="27.3" y="325.1" fill="#666" class="wj-label">60</text>
    <text x="27.3" y="274.6" fill="#666" class="wj-label">70</text>
    <text x="27.3" y="224" fill="#666" class="wj-label">80</text>
    <text x="27.3" y="173.4" fill="#666" class="wj-label">90</text>
    <text x="19.5" y="122.9" fill="#666" class="wj-label">100</text>
    <text x="19.5" y="72.3" fill="#666" class="wj-label">110</text>
    <text x="19.5" y="21.8" fill="#666" class="wj-label">120</text>
    <text x="-23.5" y="224" fill="#666" class="wj-title" transform="rotate(-90 8.3 218.8)">weight(kg)</text>
    <path stroke="#666" class="wj-line" d="M55.9 16.5V421"/>
  </g>
  <g class="wj-series-group" stroke-width="2">
    <g stroke="#ddca9a" fill="rgba(221,202,154,0.7)">
      <circle cx="563.5" cy="291.6" r="5"/>
      <circle cx="582.9" cy="260.2" r="5"/>
      <circle cx="854.6" cy="215.2" r="5"/>
      <circle cx="750.1" cy="256.2" r="5"/>
      <circle cx="760.6" cy="224.8" r="5"/>
      <circle cx="675.5" cy="245" r="5"/>
      <circle cx="712.8" cy="186.4" r="5"/>
      <circle cx="720.3" cy="226.8" r="5"/>
      <circle cx="578.4" cy="309.8" r="5"/>
      <circle cx="712.8" cy="210.7" r="5"/>
      <circle cx="653.1" cy="235.9" r="5"/>
      <circle cx="620.2" cy="200.5" r="5"/>
      <circle cx="832.2" cy="168.2" r="5"/>
      <circle cx="593.4" cy="246.1" r="5"/>
      <circle cx="563.5" cy="264.3" r="5"/>
      <circle cx="712.8" cy="220.8" r="5"/>
      <circle cx="842.7" cy="149" r="5"/>
      <circle cx="526.2" cy="269.3" r="5"/>
      <circle cx="548.6" cy="257.2" r="5"/>
      <circle cx="593.4" cy="188.9" r="5"/>
      <circle cx="593.4" cy="224.8" r="5"/>
      <circle cx="660.5" cy="229.9" r="5"/>
      <circle cx="544.1" cy="288.5" r="5"/>
      <circle cx="593.4" cy="186.4" r="5"/>
      <circle cx="556" cy="209.6" r="5"/>
      <circle cx="623.2" cy="170.2" r="5"/>
      <circle cx="657.6" cy="204.6" r="5"/>
      <circle cx="657.6" cy="237" r="5"/>
      <circle cx="421.7" cy="303.7" r="5"/>
      <circle cx="548.6" cy="315.3" r="5"/>
      <circle cx="705.3" cy="245" r="5"/>
      <circle cx="585.9" cy="269.3" r="5"/>
      <circle cx="772.5" cy="257.2" r="5"/>
      <circle cx="790.4" cy="198" r="5"/>
      <circle cx="545.6" cy="273.9" r="5"/>
      <circle cx="503.8" cy="322.4" r="5"/>
      <circle cx="682.9" cy="283.5" r="5"/>
      <circle cx="503.8" cy="313.3" r="5"/>
      <circle cx="620.2" cy="276.4" r="5"/>
      <circle cx="715.8" cy="218.2" r="5"/>
      <circle cx="753.1" cy="179.3" r="5"/>
      <circle cx="524.7" cy="195" r="5"/>
      <circle cx="544.1" cy="252.1" r="5"/>
      <circle cx="582.9" cy="258.7" r="5"/>
      <circle cx="657.6" cy="205.6" r="5"/>
      <circle cx="696.4" cy="174.8" r="5"/>
      <circle cx="772.5" cy="198" r="5"/>
      <circle cx="611.3" cy="147.5" r="5"/>
      <circle cx="535.1" cy="244.5" r="5"/>
      <circle cx="459" cy="324.4" r="5"/>
      <circle cx="496.3" cy="241" r="5"/>
      <circle cx="563.5" cy="187.4" r="5"/>
      <circle cx="544.1" cy="242.5" r="5"/>
      <circle cx="685.9" cy="182.9" r="5"/>
      <circle cx="415.7" cy="344.1" r="5"/>
      <circle cx="399.3" cy="335" r="5"/>
      <circle cx="526.2" cy="312.8" r="5"/>
      <circle cx="715.8" cy="234.9" r="5"/>
      <circle cx="563.5" cy="184.4" r="5"/>
      <circle cx="563.5" cy="258.2" r="5"/>
      <circle cx="608.3" cy="261.2" r="5"/>
      <circle cx="742.7" cy="194.5" r="5"/>
      <circle cx="459" cy="278.4" r="5"/>
      <circle cx="530.6" cy="289" r="5"/>
      <circle cx="682.9" cy="259.2" r="5"/>
      <circle cx="459" cy="296.6" r="5"/>
      <circle cx="620.2" cy="245" r="5"/>
      <circle cx="421.7" cy="269.3" r="5"/>
      <circle cx="832.2" cy="109.5" r="5"/>
      <circle cx="585.9" cy="303.7" r="5"/>
      <circle cx="521.7" cy="223.3" r="5"/>
      <circle cx="677" cy="224.3" r="5"/>
      <circle cx="465" cy="280.9" r="5"/>
      <circle cx="669.5" cy="289.5" r="5"/>
      <circle cx="608.3" cy="278.4" r="5"/>
      <circle cx="571" cy="300.2" r="5"/>
      <circle cx="615.7" cy="259.2" r="5"/>
      <circle cx="511.2" cy="336.1" r="5"/>
      <circle cx="688.9" cy="246.6" r="5"/>
      <circle cx="908.4" cy="163.6" r="5"/>
      <circle cx="654.6" cy="153" r="5"/>
      <circle cx="585.9" cy="214.2" r="5"/>
      <circle cx="662" cy="255.7" r="5"/>
      <circle cx="718.8" cy="279.4" r="5"/>
      <circle cx="585.9" cy="264.8" r="5"/>
      <circle cx="662" cy="256.7" r="5"/>
      <circle cx="608.3" cy="256.7" r="5"/>
      <circle cx="609.8" cy="201.6" r="5"/>
      <circle cx="677" cy="241.5" r="5"/>
      <circle cx="600.8" cy="254.1" r="5"/>
      <circle cx="578.4" cy="268.3" r="5"/>
      <circle cx="563.5" cy="252.1" r="5"/>
      <circle cx="430.6" cy="266.8" r="5"/>
      <circle cx="608.3" cy="274.9" r="5"/>
      <circle cx="832.2" cy="106" r="5"/>
      <circle cx="600.8" cy="277.4" r="5"/>
      <circle cx="494.8" cy="290" r="5"/>
      <circle cx="684.4" cy="240.5" r="5"/>
      <circle cx="650.1" cy="196" r="5"/>
      <circle cx="582.9" cy="179.8" r="5"/>
      <circle cx="726.2" cy="186.4" r="5"/>
      <circle cx="612.8" cy="253.1" r="5"/>
      <circle cx="465" cy="350.7" r="5"/>
      <circle cx="624.7" cy="259.2" r="5"/>
      <circle cx="487.3" cy="342.6" r="5"/>
      <circle cx="312.7" cy="328" r="5"/>
      <circle cx="657.6" cy="202.6" r="5"/>
      <circle cx="506.8" cy="255.7" r="5"/>
      <circle cx="620.2" cy="299.1" r="5"/>
      <circle cx="544.1" cy="257.7" r="5"/>
      <circle cx="430.6" cy="294.6" r="5"/>
      <circle cx="753.1" cy="186.4" r="5"/>
      <circle cx="430.6" cy="294.6" r="5"/>
      <circle cx="563.5" cy="175.3" r="5"/>
      <circle cx="582.9" cy="198" r="5"/>
      <circle cx="733.7" cy="285.5" r="5"/>
      <circle cx="620.2" cy="241.5" r="5"/>
      <circle cx="657.6" cy="152" r="5"/>
      <circle cx="657.6" cy="205.1" r="5"/>
      <circle cx="620.2" cy="330" r="5"/>
      <circle cx="620.2" cy="221.3" r="5"/>
      <circle cx="620.2" cy="225.8" r="5"/>
      <circle cx="620.2" cy="260.2" r="5"/>
      <circle cx="620.2" cy="34.7" r="5"/>
      <circle cx="411.2" cy="258.2" r="5"/>
      <circle cx="772.5" cy="200.5" r="5"/>
      <circle cx="923.3" cy="190.9" r="5"/>
      <circle cx="582.9" cy="163.6" r="5"/>
      <circle cx="450" cy="188.9" r="5"/>
      <circle cx="809.8" cy="172.7" r="5"/>
      <circle cx="450" cy="244" r="5"/>
      <circle cx="620.2" cy="230.4" r="5"/>
      <circle cx="648.6" cy="186.4" r="5"/>
      <circle cx="544.1" cy="163.6" r="5"/>
      <circle cx="809.8" cy="251.1" r="5"/>
      <circle cx="733.7" cy="237" r="5"/>
      <circle cx="487.3" cy="273.9" r="5"/>
      <circle cx="467.9" cy="196" r="5"/>
      <circle cx="582.9" cy="297.1" r="5"/>
      <circle cx="506.8" cy="273.9" r="5"/>
      <circle cx="809.8" cy="74.1" r="5"/>
      <circle cx="620.2" cy="186.4" r="5"/>
      <circle cx="809.8" cy="214.2" r="5"/>
      <circle cx="620.2" cy="179.8" r="5"/>
      <circle cx="715.8" cy="145.4" r="5"/>
      <circle cx="600.8" cy="217.7" r="5"/>
      <circle cx="620.2" cy="259.2" r="5"/>
      <circle cx="657.6" cy="262.2" r="5"/>
      <circle cx="524.7" cy="255.7" r="5"/>
      <circle cx="544.1" cy="198" r="5"/>
      <circle cx="544.1" cy="234.9" r="5"/>
      <circle cx="620.2" cy="301.7" r="5"/>
      <circle cx="620.2" cy="214.2" r="5"/>
      <circle cx="696.4" cy="214.2" r="5"/>
      <circle cx="506.8" cy="190.9" r="5"/>
      <circle cx="467.9" cy="276.4" r="5"/>
      <circle cx="582.9" cy="280.9" r="5"/>
      <circle cx="430.6" cy="287.5" r="5"/>
      <circle cx="733.7" cy="106" r="5"/>
      <circle cx="677" cy="266.8" r="5"/>
      <circle cx="544.1" cy="138.4" r="5"/>
      <circle cx="809.8" cy="198" r="5"/>
      <circle cx="639.6" cy="181.8" r="5"/>
      <circle cx="582.9" cy="260.2" r="5"/>
      <circle cx="506.8" cy="290" r="5"/>
      <circle cx="847.2" cy="138.4" r="5"/>
      <circle cx="524.7" cy="161.1" r="5"/>
      <circle cx="620.2" cy="209.6" r="5"/>
      <circle cx="620.2" cy="133.8" r="5"/>
      <circle cx="467.9" cy="273.9" r="5"/>
      <circle cx="467.9" cy="205.1" r="5"/>
      <circle cx="657.6" cy="241.5" r="5"/>
      <circle cx="696.4" cy="221.3" r="5"/>
      <circle cx="600.8" cy="251.1" r="5"/>
      <circle cx="753.1" cy="159.1" r="5"/>
      <circle cx="772.5" cy="198" r="5"/>
      <circle cx="772.5" cy="188.9" r="5"/>
      <circle cx="620.2" cy="209.6" r="5"/>
      <circle cx="563.5" cy="206.1" r="5"/>
      <circle cx="620.2" cy="216.2" r="5"/>
      <circle cx="524.7" cy="269.3" r="5"/>
      <circle cx="733.7" cy="209.6" r="5"/>
      <circle cx="733.7" cy="198" r="5"/>
      <circle cx="772.5" cy="165.7" r="5"/>
      <circle cx="772.5" cy="161.1" r="5"/>
      <circle cx="696.4" cy="172.7" r="5"/>
      <circle cx="600.8" cy="193.5" r="5"/>
      <circle cx="582.9" cy="273.9" r="5"/>
      <circle cx="582.9" cy="251.1" r="5"/>
      <circle cx="772.5" cy="216.2" r="5"/>
      <circle cx="772.5" cy="205.1" r="5"/>
      <circle cx="582.9" cy="186.4" r="5"/>
      <circle cx="511.2" cy="280.9" r="5"/>
      <circle cx="639.6" cy="154.5" r="5"/>
      <circle cx="620.2" cy="150" r="5"/>
      <circle cx="582.9" cy="264.8" r="5"/>
      <circle cx="696.4" cy="244" r="5"/>
      <circle cx="515.7" cy="152" r="5"/>
      <circle cx="772.5" cy="152" r="5"/>
      <circle cx="657.6" cy="230.4" r="5"/>
      <circle cx="620.2" cy="312.8" r="5"/>
      <circle cx="733.7" cy="147.5" r="5"/>
      <circle cx="487.3" cy="244" r="5"/>
      <circle cx="733.7" cy="200.5" r="5"/>
      <circle cx="657.6" cy="190.9" r="5"/>
      <circle cx="563.5" cy="249.6" r="5"/>
      <circle cx="467.9" cy="285.5" r="5"/>
      <circle cx="696.4" cy="181.8" r="5"/>
      <circle cx="354.5" cy="257.7" r="5"/>
      <circle cx="657.6" cy="175.3" r="5"/>
      <circle cx="467.9" cy="241.5" r="5"/>
      <circle cx="753.1" cy="110.5" r="5"/>
      <circle cx="582.9" cy="162.6" r="5"/>
      <circle cx="582.9" cy="283" r="5"/>
      <circle cx="591.9" cy="230.4" r="5"/>
      <circle cx="582.9" cy="209.6" r="5"/>
      <circle cx="639.6" cy="241.5" r="5"/>
      <circle cx="677" cy="196" r="5"/>
      <circle cx="620.2" cy="235.9" r="5"/>
      <circle cx="696.4" cy="193.5" r="5"/>
      <circle cx="620.2" cy="105" r="5"/>
      <circle cx="715.8" cy="232.4" r="5"/>
      <circle cx="639.6" cy="260.2" r="5"/>
      <circle cx="600.8" cy="178.8" r="5"/>
      <circle cx="772.5" cy="146.4" r="5"/>
      <circle cx="563.5" cy="264.8" r="5"/>
      <circle cx="467.9" cy="297.1" r="5"/>
      <circle cx="506.8" cy="232.4" r="5"/>
      <circle cx="467.9" cy="257.7" r="5"/>
      <circle cx="772.5" cy="181.8" r="5"/>
      <circle cx="563.5" cy="218.8" r="5"/>
      <circle cx="600.8" cy="207.1" r="5"/>
      <circle cx="657.6" cy="251.1" r="5"/>
      <circle cx="467.9" cy="248.6" r="5"/>
      <circle cx="772.5" cy="188.9" r="5"/>
      <circle cx="657.6" cy="253.1" r="5"/>
      <circle cx="467.9" cy="237.5" r="5"/>
      <circle cx="697.9" cy="290" r="5"/>
      <circle cx="697.9" cy="163.6" r="5"/>
      <circle cx="639.6" cy="172.7" r="5"/>
      <circle cx="506.8" cy="308.2" r="5"/>
      <circle cx="620.2" cy="205.1" r="5"/>
      <circle cx="639.6" cy="223.3" r="5"/>
      <circle cx="809.8" cy="126.7" r="5"/>
      <circle cx="620.2" cy="198" r="5"/>
      <circle cx="657.6" cy="202.6" r="5"/>
      <circle cx="657.6" cy="202.6" r="5"/>
    </g>
    <g stroke="#778deb" fill="rgba(119,141,235,0.7)">
      <circle cx="372.4" cy="362.3" r="5"/>
      <circle cx="466.4" cy="324.9" r="5"/>
      <circle cx="347" cy="374.5" r="5"/>
      <circle cx="309.7" cy="304.7" r="5"/>
      <circle cx="291.8" cy="352.2" r="5"/>
      <circle cx="503.8" cy="324.9" r="5"/>
      <circle cx="341" cy="382.6" r="5"/>
      <circle cx="444" cy="270.3" r="5"/>
      <circle cx="596.3" cy="285.5" r="5"/>
      <circle cx="357.5" cy="243" r="5"/>
      <circle cx="541.1" cy="344.1" r="5"/>
      <circle cx="517.2" cy="349.2" r="5"/>
      <circle cx="547.1" cy="307.2" r="5"/>
      <circle cx="255.9" cy="410.9" r="5"/>
      <circle cx="354.5" cy="370.4" r="5"/>
      <circle cx="163.4" cy="371.4" r="5"/>
      <circle cx="476.9" cy="374.5" r="5"/>
      <circle cx="578.4" cy="253.1" r="5"/>
      <circle cx="309.7" cy="381.6" r="5"/>
      <circle cx="467.9" cy="275.4" r="5"/>
      <circle cx="347" cy="367.4" r="5"/>
      <circle cx="578.4" cy="206.1" r="5"/>
      <circle cx="456" cy="334" r="5"/>
      <circle cx="600.8" cy="179.3" r="5"/>
      <circle cx="506.8" cy="255.2" r="5"/>
      <circle cx="563.5" cy="347.7" r="5"/>
      <circle cx="548.6" cy="320.9" r="5"/>
      <circle cx="651.6" cy="283" r="5"/>
      <circle cx="511.2" cy="280.4" r="5"/>
      <circle cx="354.5" cy="385.6" r="5"/>
      <circle cx="270.9" cy="389.7" r="5"/>
      <circle cx="384.3" cy="345.2" r="5"/>
      <circle cx="600.8" cy="203.6" r="5"/>
      <circle cx="354.5" cy="348.2" r="5"/>
      <circle cx="235" cy="391.7" r="5"/>
      <circle cx="385.8" cy="352.2" r="5"/>
      <circle cx="503.8" cy="253.1" r="5"/>
      <circle cx="357.5" cy="359.8" r="5"/>
      <circle cx="373.9" cy="279.9" r="5"/>
      <circle cx="450" cy="337.1" r="5"/>
      <circle cx="487.3" cy="308.2" r="5"/>
      <circle cx="411.2" cy="327.5" r="5"/>
      <circle cx="467.9" cy="347.7" r="5"/>
      <circle cx="354.5" cy="369.4" r="5"/>
      <circle cx="373.9" cy="318.4" r="5"/>
      <circle cx="467.9" cy="328.5" r="5"/>
      <circle cx="430.6" cy="339.1" r="5"/>
      <circle cx="354.5" cy="369.4" r="5"/>
      <circle cx="503.8" cy="254.6" r="5"/>
      <circle cx="317.1" cy="320.9" r="5"/>
      <circle cx="467.9" cy="314.8" r="5"/>
      <circle cx="364.9" cy="273.9" r="5"/>
      <circle cx="402.2" cy="340.6" r="5"/>
      <circle cx="241" cy="388.1" r="5"/>
      <circle cx="317.1" cy="348.7" r="5"/>
      <circle cx="478.4" cy="346.2" r="5"/>
      <circle cx="657.6" cy="316.3" r="5"/>
      <circle cx="436.6" cy="319.9" r="5"/>
      <circle cx="429.1" cy="309.8" r="5"/>
      <circle cx="421.7" cy="318.4" r="5"/>
      <circle cx="294.7" cy="356.8" r="5"/>
      <circle cx="354.5" cy="247.6" r="5"/>
      <circle cx="399.3" cy="309.8" r="5"/>
      <circle cx="439.6" cy="253.6" r="5"/>
      <circle cx="369.4" cy="218.8" r="5"/>
      <circle cx="384.3" cy="346.7" r="5"/>
      <circle cx="444" cy="354.3" r="5"/>
      <circle cx="563.5" cy="240.5" r="5"/>
      <circle cx="544.1" cy="314.3" r="5"/>
      <circle cx="467.9" cy="341.6" r="5"/>
      <circle cx="221.6" cy="377" r="5"/>
      <circle cx="421.7" cy="358.8" r="5"/>
      <circle cx="406.7" cy="370.4" r="5"/>
      <circle cx="235" cy="323.4" r="5"/>
      <circle cx="488.8" cy="307.2" r="5"/>
      <circle cx="414.2" cy="341.6" r="5"/>
      <circle cx="372.4" cy="346.2" r="5"/>
      <circle cx="279.8" cy="391.2" r="5"/>
      <circle cx="503.8" cy="266.3" r="5"/>
      <circle cx="596.3" cy="283.5" r="5"/>
      <circle cx="503.8" cy="272.3" r="5"/>
      <circle cx="391.8" cy="329" r="5"/>
      <circle cx="508.2" cy="295.6" r="5"/>
      <circle cx="415.7" cy="261.2" r="5"/>
      <circle cx="496.3" cy="356.3" r="5"/>
      <circle cx="402.2" cy="320.9" r="5"/>
      <circle cx="272.3" cy="375.5" r="5"/>
      <circle cx="351.5" cy="370.4" r="5"/>
      <circle cx="551.5" cy="273.4" r="5"/>
      <circle cx="503.8" cy="340.6" r="5"/>
      <circle cx="375.4" cy="302.7" r="5"/>
      <circle cx="488.8" cy="329" r="5"/>
      <circle cx="447" cy="327" r="5"/>
      <circle cx="345.5" cy="392.2" r="5"/>
      <circle cx="391.8" cy="359.3" r="5"/>
      <circle cx="339.5" cy="377.5" r="5"/>
      <circle cx="396.3" cy="331" r="5"/>
      <circle cx="339.5" cy="342.1" r="5"/>
      <circle cx="650.1" cy="285.5" r="5"/>
      <circle cx="397.8" cy="322.9" r="5"/>
      <circle cx="369.4" cy="352.2" r="5"/>
      <circle cx="221.6" cy="253.1" r="5"/>
      <circle cx="476.9" cy="353.2" r="5"/>
      <circle cx="487.3" cy="274.4" r="5"/>
      <circle cx="551.5" cy="328" r="5"/>
      <circle cx="530.6" cy="339.1" r="5"/>
      <circle cx="623.2" cy="266.3" r="5"/>
      <circle cx="418.7" cy="320.9" r="5"/>
      <circle cx="399.3" cy="259.2" r="5"/>
      <circle cx="481.4" cy="293.6" r="5"/>
      <circle cx="456" cy="337.1" r="5"/>
      <circle cx="544.1" cy="91.3" r="5"/>
      <circle cx="406.7" cy="361.3" r="5"/>
      <circle cx="494.8" cy="302.7" r="5"/>
      <circle cx="470.9" cy="324.9" r="5"/>
      <circle cx="347" cy="382.6" r="5"/>
      <circle cx="467.9" cy="304.7" r="5"/>
      <circle cx="372.4" cy="344.1" r="5"/>
      <circle cx="354.5" cy="395.7" r="5"/>
      <circle cx="402.2" cy="350.2" r="5"/>
      <circle cx="387.3" cy="369.4" r="5"/>
      <circle cx="373.9" cy="318.9" r="5"/>
      <circle cx="197.7" cy="396.7" r="5"/>
      <circle cx="317.1" cy="325.9" r="5"/>
      <circle cx="402.2" cy="338.1" r="5"/>
      <circle cx="544.1" cy="309.8" r="5"/>
      <circle cx="279.8" cy="374.5" r="5"/>
      <circle cx="302.2" cy="283.5" r="5"/>
      <circle cx="414.2" cy="351.2" r="5"/>
      <circle cx="367.9" cy="348.2" r="5"/>
      <circle cx="396.3" cy="330" r="5"/>
      <circle cx="459" cy="320.9" r="5"/>
      <circle cx="354.5" cy="346.2" r="5"/>
      <circle cx="354.5" cy="404.8" r="5"/>
      <circle cx="487.3" cy="317.3" r="5"/>
      <circle cx="327.6" cy="388.6" r="5"/>
      <circle cx="294.7" cy="297.6" r="5"/>
      <circle cx="354.5" cy="376.5" r="5"/>
      <circle cx="460.5" cy="308.8" r="5"/>
      <circle cx="324.6" cy="342.6" r="5"/>
      <circle cx="467.9" cy="331" r="5"/>
      <circle cx="294.7" cy="347.2" r="5"/>
      <circle cx="385.8" cy="323.9" r="5"/>
      <circle cx="554.5" cy="356.8" r="5"/>
      <circle cx="351.5" cy="354.3" r="5"/>
      <circle cx="511.2" cy="297.1" r="5"/>
      <circle cx="342.5" cy="361.3" r="5"/>
      <circle cx="317.1" cy="340.1" r="5"/>
      <circle cx="373.9" cy="301.7" r="5"/>
      <circle cx="393.3" cy="303.7" r="5"/>
      <circle cx="354.5" cy="322.4" r="5"/>
      <circle cx="487.3" cy="336.1" r="5"/>
      <circle cx="430.6" cy="299.1" r="5"/>
      <circle cx="393.3" cy="370.4" r="5"/>
      <circle cx="430.6" cy="257.7" r="5"/>
      <circle cx="450" cy="345.2" r="5"/>
      <circle cx="354.5" cy="340.6" r="5"/>
      <circle cx="241" cy="317.9" r="5"/>
      <circle cx="506.8" cy="273.9" r="5"/>
      <circle cx="393.3" cy="196" r="5"/>
      <circle cx="506.8" cy="340.6" r="5"/>
      <circle cx="336.5" cy="342.6" r="5"/>
      <circle cx="544.1" cy="271.8" r="5"/>
      <circle cx="467.9" cy="237" r="5"/>
      <circle cx="393.3" cy="312.8" r="5"/>
      <circle cx="467.9" cy="290" r="5"/>
      <circle cx="297.7" cy="327" r="5"/>
      <circle cx="581.4" cy="285.5" r="5"/>
      <circle cx="535.1" cy="337.1" r="5"/>
      <circle cx="393.3" cy="327" r="5"/>
      <circle cx="354.5" cy="340.6" r="5"/>
      <circle cx="430.6" cy="324.4" r="5"/>
      <circle cx="696.4" cy="209.6" r="5"/>
      <circle cx="450" cy="265.8" r="5"/>
      <circle cx="430.6" cy="336.1" r="5"/>
      <circle cx="620.2" cy="319.9" r="5"/>
      <circle cx="430.6" cy="329" r="5"/>
      <circle cx="582.9" cy="255.7" r="5"/>
      <circle cx="278.3" cy="349.7" r="5"/>
      <circle cx="336.5" cy="375" r="5"/>
      <circle cx="544.1" cy="239.5" r="5"/>
      <circle cx="487.3" cy="345.2" r="5"/>
      <circle cx="373.9" cy="333.5" r="5"/>
      <circle cx="467.9" cy="345.2" r="5"/>
      <circle cx="430.6" cy="292.1" r="5"/>
      <circle cx="582.9" cy="292.1" r="5"/>
      <circle cx="317.1" cy="377.5" r="5"/>
      <circle cx="411.2" cy="327" r="5"/>
      <circle cx="467.9" cy="301.7" r="5"/>
      <circle cx="430.6" cy="344.1" r="5"/>
      <circle cx="430.6" cy="306.2" r="5"/>
      <circle cx="487.3" cy="337.1" r="5"/>
      <circle cx="393.3" cy="350.7" r="5"/>
      <circle cx="421.7" cy="303.7" r="5"/>
      <circle cx="600.8" cy="251.1" r="5"/>
      <circle cx="487.3" cy="309.8" r="5"/>
      <circle cx="582.9" cy="301.7" r="5"/>
      <circle cx="345.5" cy="354.3" r="5"/>
      <circle cx="354.5" cy="353.2" r="5"/>
      <circle cx="506.8" cy="345.2" r="5"/>
      <circle cx="393.3" cy="266.8" r="5"/>
      <circle cx="467.9" cy="347.7" r="5"/>
      <circle cx="393.3" cy="347.7" r="5"/>
      <circle cx="364.9" cy="340.6" r="5"/>
      <circle cx="354.5" cy="324.9" r="5"/>
      <circle cx="317.1" cy="301.7" r="5"/>
      <circle cx="393.3" cy="347.7" r="5"/>
      <circle cx="241" cy="384.1" r="5"/>
      <circle cx="506.8" cy="280.9" r="5"/>
      <circle cx="430.6" cy="214.2" r="5"/>
      <circle cx="544.1" cy="266.8" r="5"/>
      <circle cx="430.6" cy="315.3" r="5"/>
      <circle cx="506.8" cy="301.7" r="5"/>
      <circle cx="506.8" cy="347.7" r="5"/>
      <circle cx="506.8" cy="324.4" r="5"/>
      <circle cx="373.9" cy="266.8" r="5"/>
      <circle cx="467.9" cy="356.8" r="5"/>
      <circle cx="467.9" cy="306.2" r="5"/>
      <circle cx="430.6" cy="186.9" r="5"/>
      <circle cx="393.3" cy="287.5" r="5"/>
      <circle cx="241" cy="283" r="5"/>
      <circle cx="487.3" cy="304.7" r="5"/>
      <circle cx="506.8" cy="251.1" r="5"/>
      <circle cx="581.4" cy="308.2" r="5"/>
      <circle cx="581.4" cy="331.5" r="5"/>
      <circle cx="354.5" cy="343.1" r="5"/>
      <circle cx="430.6" cy="96.9" r="5"/>
      <circle cx="563.5" cy="342.6" r="5"/>
      <circle cx="506.8" cy="232.4" r="5"/>
      <circle cx="354.5" cy="216.2" r="5"/>
      <circle cx="467.9" cy="297.1" r="5"/>
      <circle cx="467.9" cy="257.7" r="5"/>
      <circle cx="467.9" cy="312.8" r="5"/>
      <circle cx="278.3" cy="329" r="5"/>
      <circle cx="393.3" cy="209.6" r="5"/>
      <circle cx="582.9" cy="301.7" r="5"/>
      <circle cx="524.7" cy="353.2" r="5"/>
      <circle cx="317.1" cy="347.7" r="5"/>
      <circle cx="430.6" cy="352.2" r="5"/>
      <circle cx="354.5" cy="319.9" r="5"/>
      <circle cx="563.5" cy="251.1" r="5"/>
      <circle cx="393.3" cy="312.8" r="5"/>
      <circle cx="563.5" cy="342.6" r="5"/>
      <circle cx="393.3" cy="301.7" r="5"/>
      <circle cx="373.9" cy="315.3" r="5"/>
      <circle cx="297.7" cy="319.9" r="5"/>
      <circle cx="203.7" cy="386.6" r="5"/>
      <circle cx="496.3" cy="333.5" r="5"/>
      <circle cx="354.5" cy="299.1" r="5"/>
      <circle cx="582.9" cy="301.7" r="5"/>
      <circle cx="496.3" cy="283" r="5"/>
      <circle cx="354.5" cy="241.5" r="5"/>
      <circle cx="544.1" cy="278.4" r="5"/>
      <circle cx="393.3" cy="312.8" r="5"/>
      <circle cx="317.1" cy="234.9" r="5"/>
      <circle cx="600.8" cy="260.2" r="5"/>
      <circle cx="420.2" cy="342.6" r="5"/>
      <circle cx="364.9" cy="377.5" r="5"/>
      <circle cx="563.5" cy="287.5" r="5"/>
      <circle cx="411.2" cy="283" r="5"/>
    </g>
  </g>
  <clipPath id="c">
    <path d="M-1-1h897.8v406.5H-1z"/>
  </clipPath>
  <g class="wj-chart-annotationlayer" clip-path="url(#c)" transform="translate(55.86 16.5)">
    <g class="gcchart-annotation gcchart-anno-shape gcchart-anno-polygon">
      <path stroke="#000" fill="red" class="anno-shape" opacity=".1" d="M104.5 75.8H642v318.6H104.5z"/>
    </g>
    <g class="gcchart-annotation gcchart-anno-shape gcchart-anno-polygon">
      <path stroke="#000" fill="green" class="anno-shape" opacity=".1" d="M253.8 15.2h627.1v318.5H253.8z"/>
    </g>
  </g>
</svg>
