<svg shape-rendering="geometricPrecision" width="600" height="400" style="font-family:Lucida Grande,sans-serif;user-select:none;-webkit-user-select:none;-moz-user-select:none;-ms-user-select:none;cursor:crosshair">
  <style>
    text{text-rendering:optimizeLegibility}#pt88eDM .axis-text-x,#pt88eDM .axis-text-y,#pt88eDM .legend-item{fill:#474747;font-family:Lucida Grande,sans-serif;font-size:13px;font-weight:400;font-style:normal}
  </style>
  <g id="pt88eDM">
    <path fill-rule="evenodd" fill="#FFF" d="M0 0v400h600V0Z"/>
    <path stroke="#E9E9E9" fill="none" d="M104.117 354V10m53.306 344V10m53.307 344V10m53.307 344V10m53.307 344V10m53.306 344V10m53.307 344V10"/>
    <path stroke="#474747" d="M104.117 354v4"/>
    <text class="axis-text-x" text-anchor="middle" dy=".7em" transform="translate(104.117 361)"><tspan>3,000</tspan></text>
    <path stroke="#474747" d="M157.423 354v4"/>
    <text class="axis-text-x" text-anchor="middle" dy=".7em" transform="translate(157.423 361)"><tspan>3,500</tspan></text>
    <path stroke="#474747" d="M210.73 354v4"/>
    <text class="axis-text-x" text-anchor="middle" dy=".7em" transform="translate(210.73 361)"><tspan>4,000</tspan></text>
    <path stroke="#474747" d="M264.037 354v4"/>
    <text class="axis-text-x" text-anchor="middle" dy=".7em" transform="translate(264.037 361)"><tspan>4,500</tspan></text>
    <path stroke="#474747" d="M317.344 354v4"/>
    <text class="axis-text-x" text-anchor="middle" dy=".7em" transform="translate(317.344 361)"><tspan>5,000</tspan></text>
    <path stroke="#474747" d="M370.65 354v4"/>
    <text class="axis-text-x" text-anchor="middle" dy=".7em" transform="translate(370.65 361)"><tspan>5,500</tspan></text>
    <path stroke="#474747" d="M423.957 354v4"/>
    <text class="axis-text-x" text-anchor="middle" dy=".7em" transform="translate(423.957 361)"><tspan>6,000</tspan></text>
    <path stroke="#474747" d="M52.942 354h422.19"/>
    <path stroke="#E9E9E9" fill="none" d="M52.942 295.96h422.19m-422.19-53.005h422.19m-422.19-53.004h422.19m-422.19-53.005h422.19M52.942 83.941h422.19M52.942 30.937h422.19"/>
    <text class="axis-text-y" text-anchor="end" dy=".35em" transform="translate(49.942 348.965)"><tspan>170</tspan></text>
    <text class="axis-text-y" text-anchor="end" dy=".35em" transform="translate(49.942 295.96)"><tspan>180</tspan></text>
    <text class="axis-text-y" text-anchor="end" dy=".35em" transform="translate(49.942 242.955)"><tspan>190</tspan></text>
    <text class="axis-text-y" text-anchor="end" dy=".35em" transform="translate(49.942 189.95)"><tspan>200</tspan></text>
    <text class="axis-text-y" text-anchor="end" dy=".35em" transform="translate(49.942 136.946)"><tspan>210</tspan></text>
    <text class="axis-text-y" text-anchor="end" dy=".35em" transform="translate(49.942 83.941)"><tspan>220</tspan></text>
    <text class="axis-text-y" text-anchor="end" dy=".35em" transform="translate(49.942 30.937)"><tspan>230</tspan></text>
    <g transform="translate(52.942 10)" clip-path="url(#cgYQAmx)">
      <defs>
        <clipPath id="cgYQAmx">
          <path d="M0 0h422.19v344H0z"/>
        </clipPath>
      </defs>
      <circle fill="#474747" stroke="#474747" stroke-opacity="0" stroke-width="0" cx="131.135" cy="280.659" r="3.3"/>
      <circle fill="#474747" stroke="#474747" stroke-opacity="0" stroke-width="0" cx="136.465" cy="254.157" r="3.3"/>
      <circle fill="#474747" stroke="#474747" stroke-opacity="0" stroke-width="0" cx="77.828" cy="206.453" r="3.3"/>
      <circle fill="#474747" stroke="#474747" stroke-opacity="0" stroke-width="0" cx="99.151" cy="217.054" r="3.3"/>
      <circle fill="#474747" stroke="#474747" stroke-opacity="0" stroke-width="0" cx="120.473" cy="232.955" r="3.3"/>
      <circle fill="#474747" stroke="#474747" stroke-opacity="0" stroke-width="0" cx="117.808" cy="280.659" r="3.3"/>
      <circle fill="#474747" stroke="#474747" stroke-opacity="0" stroke-width="0" cx="229.752" cy="206.453" r="3.3"/>
      <circle fill="#474747" stroke="#474747" stroke-opacity="0" stroke-width="0" cx="101.816" cy="217.054" r="3.3"/>
      <circle fill="#474747" stroke="#474747" stroke-opacity="0" stroke-width="0" cx="184.441" cy="232.955" r="3.3"/>
      <circle fill="#474747" stroke="#474747" stroke-opacity="0" stroke-width="0" cx="83.159" cy="254.157" r="3.3"/>
      <circle fill="#474747" stroke="#474747" stroke-opacity="0" stroke-width="0" cx="125.804" cy="285.96" r="3.3"/>
      <circle fill="#474747" stroke="#474747" stroke-opacity="0" stroke-width="0" cx="72.497" cy="275.359" r="3.3"/>
      <circle fill="#474747" stroke="#474747" stroke-opacity="0" stroke-width="0" cx="136.465" cy="227.655" r="3.3"/>
      <circle fill="#474747" stroke="#474747" stroke-opacity="0" stroke-width="0" cx="200.433" cy="190.552" r="3.3"/>
      <circle fill="#474747" stroke="#474747" stroke-opacity="0" stroke-width="0" cx="125.804" cy="259.458" r="3.3"/>
      <circle fill="#474747" stroke="#474747" stroke-opacity="0" stroke-width="0" cx="99.151" cy="206.453" r="3.3"/>
      <circle fill="#474747" stroke="#474747" stroke-opacity="0" stroke-width="0" cx="211.095" cy="195.852" r="3.3"/>
      <circle fill="#474747" stroke="#474747" stroke-opacity="0" stroke-width="0" cx="85.824" cy="264.758" r="3.3"/>
      <circle fill="#474747" stroke="#474747" stroke-opacity="0" stroke-width="0" cx="179.111" cy="211.753" r="3.3"/>
      <path fill="#474747" stroke="#474747" stroke-opacity="0" stroke-width="0" d="m93.82 314.905 3.3 5.716h-6.6Zm21.323-31.803 3.3 5.716h-6.6Zm21.322-47.704 3.3 5.716h-6.6Zm15.992 21.202 3.3 5.716h-6.6Zm-15.992 26.502 3.3 5.716h-6.6Zm0-37.103 3.3 5.716h-6.6ZM109.812 267.2l3.3 5.716h-6.6Zm-37.315-21.201 3.3 5.716h-6.6Zm-5.33 79.507 3.3 5.716h-6.6Zm85.29-42.404 3.3 5.716h-6.6Zm-77.929 10.159h6.6v6.6h-6.6zm69.299 0h6.6v6.6h-6.6zm-63.968-53.005h6.6v6.6h-6.6z"/>
      <path fill="#474747" stroke="#474747" stroke-opacity="0" stroke-width="0" d="M143.827 261.458h6.6v6.6h-6.6zm-61.303-58.305h6.6v6.6h-6.6zm87.956-5.3h6.6v6.6h-6.6zm-21.323 31.802h6.6v6.6h-6.6zm-42.645 53.005h6.6v6.6h-6.6zm-26.653-5.301h6.6v6.6h-6.6zm143.928-15.901h6.6v6.6h-6.6zm-159.92 10.601h6.6v6.6h-6.6zm79.96-68.906h6.6v6.6h-6.6zm-85.291 47.704h6.6v6.6h-6.6zm138.597-53.004h6.6v6.6h-6.6zM47.875 256.158h6.6v6.6h-6.6zm170.581-26.503h6.6v6.6h-6.6zM93.185 272.059h6.6v6.6h-6.6zM45.209 287.96h6.6v6.6h-6.6zm50.642-58.305h6.6v6.6h-6.6zm74.629-5.3h6.6v6.6h-6.6z"/>
      <path fill="#474747" stroke="#474747" stroke-opacity="0" stroke-width="0" d="m104.481 251.3 3.3 5.715h-6.6Zm85.291-10.602 3.3 5.716h-6.6ZM99.15 230.097l3.3 5.716h-6.6Zm63.969-53.004 3.3 5.716h-6.6ZM40.513 245.999l3.3 5.716h-6.6Zm85.291-21.202 3.3 5.716h-6.6Z"/>
      <path fill="#474747" stroke="#474747" stroke-opacity="0" stroke-width="0" d="m109.812 251.3 3.3 5.715h-6.6Zm26.653-37.104 3.3 5.716h-6.6ZM35.182 277.802l3.3 5.715h-6.6Zm95.953-68.906 3.3 5.715h-6.6ZM67.167 256.6l3.3 5.716h-6.6Zm133.266-53.005 3.3 5.716h-6.6Zm-85.29 53.005 3.3 5.716h-6.6Zm47.976-37.103 3.3 5.715h-6.6ZM35.182 261.9l3.3 5.716h-6.6Zm117.275-42.403 3.3 5.715h-6.6ZM88.49 203.595l3.3 5.716h-6.6Zm79.96 37.103 3.3 5.716h-6.6Z"/>
      <circle fill="#474747" stroke="#474747" stroke-opacity="0" stroke-width="0" cx="56.505" cy="232.955" r="3.3"/>
      <circle fill="#474747" stroke="#474747" stroke-opacity="0" stroke-width="0" cx="205.764" cy="190.552" r="3.3"/>
      <circle fill="#474747" stroke="#474747" stroke-opacity="0" stroke-width="0" cx="115.143" cy="232.955" r="3.3"/>
      <circle fill="#474747" stroke="#474747" stroke-opacity="0" stroke-width="0" cx="147.127" cy="232.955" r="3.3"/>
      <circle fill="#474747" stroke="#474747" stroke-opacity="0" stroke-width="0" cx="109.812" cy="201.153" r="3.3"/>
      <circle fill="#474747" stroke="#474747" stroke-opacity="0" stroke-width="0" cx="173.78" cy="195.852" r="3.3"/>
      <circle fill="#474747" stroke="#474747" stroke-opacity="0" stroke-width="0" cx="125.804" cy="232.955" r="3.3"/>
      <circle fill="#474747" stroke="#474747" stroke-opacity="0" stroke-width="0" cx="184.441" cy="206.453" r="3.3"/>
      <circle fill="#474747" stroke="#474747" stroke-opacity="0" stroke-width="0" cx="125.804" cy="227.655" r="3.3"/>
      <circle fill="#474747" stroke="#474747" stroke-opacity="0" stroke-width="0" cx="147.127" cy="264.758" r="3.3"/>
      <circle fill="#474747" stroke="#474747" stroke-opacity="0" stroke-width="0" cx="109.812" cy="248.857" r="3.3"/>
      <circle fill="#474747" stroke="#474747" stroke-opacity="0" stroke-width="0" cx="157.788" cy="206.453" r="3.3"/>
      <circle fill="#474747" stroke="#474747" stroke-opacity="0" stroke-width="0" cx="72.497" cy="238.256" r="3.3"/>
      <circle fill="#474747" stroke="#474747" stroke-opacity="0" stroke-width="0" cx="232.418" cy="201.153" r="3.3"/>
      <circle fill="#474747" stroke="#474747" stroke-opacity="0" stroke-width="0" cx="136.465" cy="248.857" r="3.3"/>
      <circle fill="#474747" stroke="#474747" stroke-opacity="0" stroke-width="0" cx="179.111" cy="217.054" r="3.3"/>
      <path fill="#474747" stroke="#474747" stroke-opacity="0" stroke-width="0" d="M85.189 224.355h6.6v6.6h-6.6zm21.323-15.902h6.6v6.6h-6.6zm26.653 21.202h6.6v6.6h-6.6zm-31.984 5.301h6.6v6.6h-6.6zm47.976 0h6.6v6.6h-6.6zm-37.314-5.301h6.6v6.6h-6.6zm-5.331-63.605h6.6v6.6h-6.6zm79.96-15.902h6.6v6.6h-6.6zM90.52 256.158h6.6v6.6h-6.6zm111.944-5.301h6.6v6.6h-6.6zm-122.605-5.3h6.6v6.6h-6.6zm106.613-111.31h6.6v6.6h-6.6zm-63.968 95.408h6.6v6.6h-6.6zm69.299-31.802h6.6v6.6h-6.6zm-154.59 95.408h6.6v6.6h-6.6zm127.936-74.207h6.6v6.6h-6.6z"/>
      <path fill="#474747" stroke="#474747" stroke-opacity="0" stroke-width="0" d="m128.47 219.497 3.3 5.715h-6.6Zm106.613-58.306 3.3 5.716h-6.6ZM59.17 267.2l3.3 5.716h-6.6Zm125.271-37.103 3.3 5.716h-6.6ZM43.178 214.196l3.3 5.716h-6.6Zm66.634 47.704 3.3 5.716h-6.6Zm21.323-79.507 3.3 5.716h-6.6Zm15.992 47.704 3.3 5.716h-6.6Zm-77.295 47.705 3.3 5.715h-6.6Zm170.582-84.808 3.3 5.716h-6.6Zm-101.284-5.3 3.3 5.716h-6.6Zm82.626 37.103 3.3 5.716h-6.6ZM72.497 214.196l3.3 5.716h-6.6Zm114.61-21.202 3.3 5.716h-6.6Z"/>
      <path fill="#474747" stroke="#474747" stroke-opacity="0" stroke-width="0" d="m147.127 224.797 3.3 5.716h-6.6Zm18.657-26.502 3.3 5.715h-6.6Z"/>
      <circle fill="#474747" stroke="#474747" stroke-opacity="0" stroke-width="0" cx="40.513" cy="243.556" r="3.3"/>
      <circle fill="#474747" stroke="#474747" stroke-opacity="0" stroke-width="0" cx="133.8" cy="185.251" r="3.3"/>
      <circle fill="#474747" stroke="#474747" stroke-opacity="0" stroke-width="0" cx="88.489" cy="238.256" r="3.3"/>
      <circle fill="#474747" stroke="#474747" stroke-opacity="0" stroke-width="0" cx="85.824" cy="238.256" r="3.3"/>
      <circle fill="#474747" stroke="#474747" stroke-opacity="0" stroke-width="0" cx="67.167" cy="248.857" r="3.3"/>
      <circle fill="#474747" stroke="#474747" stroke-opacity="0" stroke-width="0" cx="104.481" cy="190.552" r="3.3"/>
      <circle fill="#474747" stroke="#474747" stroke-opacity="0" stroke-width="0" cx="99.151" cy="307.162" r="3.3"/>
      <circle fill="#474747" stroke="#474747" stroke-opacity="0" stroke-width="0" cx="144.461" cy="169.35" r="3.3"/>
      <circle fill="#474747" stroke="#474747" stroke-opacity="0" stroke-width="0" cx="56.505" cy="254.157" r="3.3"/>
      <circle fill="#474747" stroke="#474747" stroke-opacity="0" stroke-width="0" cx="157.788" cy="185.251" r="3.3"/>
      <circle fill="#474747" stroke="#474747" stroke-opacity="0" stroke-width="0" cx="80.493" cy="227.655" r="3.3"/>
      <circle fill="#474747" stroke="#474747" stroke-opacity="0" stroke-width="0" cx="189.772" cy="206.453" r="3.3"/>
      <circle fill="#474747" stroke="#474747" stroke-opacity="0" stroke-width="0" cx="56.505" cy="227.655" r="3.3"/>
      <circle fill="#474747" stroke="#474747" stroke-opacity="0" stroke-width="0" cx="157.788" cy="126.946" r="3.3"/>
      <circle fill="#474747" stroke="#474747" stroke-opacity="0" stroke-width="0" cx="85.824" cy="232.955" r="3.3"/>
      <circle fill="#474747" stroke="#474747" stroke-opacity="0" stroke-width="0" cx="104.481" cy="195.852" r="3.3"/>
      <path fill="#474747" stroke="#474747" stroke-opacity="0" stroke-width="0" d="M101.181 213.754h6.6v6.6h-6.6zm103.949-31.803h6.6v6.6h-6.6zM93.185 245.557h6.6v6.6h-6.6zm50.642-15.902h6.6v6.6h-6.6zm-77.295-5.3h6.6v6.6h-6.6zm85.291-47.704h6.6v6.6h-6.6zM90.52 256.158h6.6v6.6h-6.6zm90.621-42.404h6.6v6.6h-6.6zm-90.621 0h6.6v6.6h-6.6z"/>
      <path fill="#474747" stroke="#474747" stroke-opacity="0" stroke-width="0" d="M98.516 245.557h6.6v6.6h-6.6zm-45.311-5.301h6.6v6.6h-6.6zm71.964-10.601h6.6v6.6h-6.6zm-77.294-10.601h6.6v6.6h-6.6zm69.298 37.104h6.6v6.6h-6.6zm63.968-26.503h6.6v6.6h-6.6zm-82.625 31.803h6.6v6.6h-6.6zm-2.665-58.305h6.6v6.6h-6.6zm31.984 10.601h6.6v6.6h-6.6zm-5.331 31.803h6.6v6.6h-6.6zm31.984-74.207h6.6v6.6h-6.6zm56.607-52.562 3.3 5.715h-6.6ZM339.031 18.079l3.3 5.716h-6.6ZM205.764 124.088l3.3 5.716h-6.6Zm133.267-42.404 3.3 5.716h-6.6Zm-31.984 15.902 3.3 5.716h-6.6Zm-90.621 26.502 3.3 5.716h-6.6Zm26.653-5.3 3.3 5.715h-6.6Zm42.645-42.404 3.3 5.716h-6.6Zm-85.291 53.005 3.3 5.715h-6.6Zm79.961-31.803 3.3 5.716h-6.6Zm-53.307 5.3 3.3 5.716h-6.6Zm95.953-10.601 3.3 5.716h-6.6Z"/>
      <path fill="#474747" stroke="#474747" stroke-opacity="0" stroke-width="0" d="m227.087 102.886 3.3 5.716h-6.6Zm127.936 5.301 3.3 5.716h-6.6ZM179.11 124.088l3.3 5.716h-6.6Zm175.913-37.103 3.3 5.716h-6.6Z"/>
      <path fill="#474747" stroke="#474747" stroke-opacity="0" stroke-width="0" d="m173.78 124.088 3.3 5.716h-6.6ZM403 65.783l3.3 5.716h-6.6Zm-159.921 63.606 3.3 5.715h-6.6Zm58.637-68.906 3.3 5.715h-6.6Zm37.315 21.201 3.3 5.716h-6.6Zm-74.629 15.902 3.3 5.716h-6.6Zm-63.969 10.601 3.3 5.716h-6.6Z"/>
      <path fill="#474747" stroke="#474747" stroke-opacity="0" stroke-width="0" d="m269.732 97.586 3.3 5.716h-6.6Z"/>
      <path fill="#474747" stroke="#474747" stroke-opacity="0" stroke-width="0" d="m264.402 97.586 3.3 5.716h-6.6Zm10.661 0 3.3 5.716h-6.6ZM168.45 92.285l3.3 5.716h-6.6Zm165.25 5.301 3.3 5.716h-6.6Zm-111.944 26.502 3.3 5.716h-6.6ZM323.04 71.084l3.3 5.715h-6.6Zm-31.985-10.601 3.3 5.715h-6.6Zm-58.637 68.906 3.3 5.715h-6.6Zm37.314 10.601 3.3 5.715h-6.6ZM376.346 18.079l3.3 5.716h-6.6Zm-95.952 53.005 3.3 5.715h-6.6Zm26.653 0 3.3 5.715h-6.6Zm-47.976 37.103 3.3 5.716h-6.6Zm31.984-31.803 3.3 5.716h-6.6Zm-95.952 58.306 3.3 5.715h-6.6Zm106.613 0 3.3 5.715h-6.6Zm-149.259 0 3.3 5.715h-6.6Zm186.574-90.109 3.3 5.716h-6.6Zm-149.259 79.507 3.3 5.716h-6.6Zm47.976-31.803 3.3 5.716h-6.6Zm85.292-31.802 3.3 5.715h-6.6Zm-69.3 26.502 3.3 5.716h-6.6Zm-74.63 37.103 3.3 5.716h-6.6Zm127.937-79.507 3.3 5.716h-6.6Zm-31.984 63.606 3.3 5.716h-6.6Zm21.323-10.601 3.3 5.716h-6.6Zm-47.976 26.502 3.3 5.716h-6.6Zm47.976-53.004 3.3 5.715h-6.6Zm-95.953 53.004 3.3 5.716h-6.6Zm63.969-79.507 3.3 5.716h-6.6Z"/>
      <path fill="#474747" stroke="#474747" stroke-opacity="0" stroke-width="0" d="m253.74 86.985 3.3 5.716h-6.6Zm15.992-15.901 3.3 5.715h-6.6Zm-79.96 63.606 3.3 5.715h-6.6Z"/>
      <path fill="#474747" stroke="#474747" stroke-opacity="0" stroke-width="0" d="m264.402 71.084 3.3 5.715h-6.6Zm-58.638 63.606 3.3 5.715h-6.6ZM323.04 49.882l3.3 5.715h-6.6ZM179.11 134.69l3.3 5.715h-6.6Zm117.276-68.907 3.3 5.716h-6.6Zm-95.953 37.103 3.3 5.716h-6.6ZM333.7 12.778l3.3 5.716h-6.6ZM232.418 76.384l3.3 5.716h-6.6Zm106.613-58.305 3.3 5.716h-6.6Zm-111.944 84.807 3.3 5.716h-6.6ZM349.692 23.38l3.3 5.715h-6.6Z"/>
      <path fill="#474747" stroke="#474747" stroke-opacity="0" stroke-width="0" d="m232.418 71.084 3.3 5.715h-6.6Zm90.622-15.902 3.3 5.716h-6.6Zm-85.292 37.103 3.3 5.716h-6.6Zm26.654-26.502 3.3 5.716h-6.6Zm10.661 0 3.3 5.716h-6.6Zm10.661 21.202 3.3 5.716h-6.6Z"/>
      <path fill="#474747" stroke="#474747" stroke-opacity="0" stroke-width="0" d="m232.418 92.285 3.3 5.716h-6.6Zm117.274-74.206 3.3 5.716h-6.6Zm-127.936 111.31 3.3 5.715h-6.6Zm149.259-58.305 3.3 5.715h-6.6ZM237.748 97.586l3.3 5.716h-6.6Zm127.937-42.404 3.3 5.716h-6.6Zm-141.263 58.305 3.3 5.716h-6.6Zm87.956-47.704 3.3 5.716h-6.6Zm-77.295 47.704 3.3 5.716h-6.6Zm66.633-63.605 3.3 5.715h-6.6Z"/>
      <path fill="#474747" stroke="#474747" stroke-opacity="0" stroke-width="0" d="m237.748 113.487 3.3 5.716h-6.6ZM328.37 28.68l3.3 5.716h-6.6ZM221.756 81.684l3.3 5.716h-6.6Zm74.63 0 3.3 5.716h-6.6Zm-45.311 31.803 3.3 5.716h-6.6Zm71.965-95.408 3.3 5.716h-6.6Zm-63.969 63.605 3.3 5.716h-6.6Zm47.976-53.004 3.3 5.716h-6.6Z"/>
      <path fill="#474747" stroke="#474747" stroke-opacity="0" stroke-width="0" d="m237.748 113.487 3.3 5.716h-6.6ZM333.7 49.882l3.3 5.715h-6.6Zm-85.29 53.004 3.3 5.716h-6.6Zm37.314-63.606 3.3 5.717h-6.6Zm-29.318 53.005 3.3 5.716h-6.6Zm-5.331-31.802 3.3 5.715h-6.6Zm-26.653 100.708 3.3 5.716h-6.6Zm66.633-116.61 3.3 5.716h-6.6ZM248.41 76.384l3.3 5.716h-6.6Zm79.96-47.704 3.3 5.716h-6.6Zm-66.634 68.906 3.3 5.716h-6.6Zm55.972-68.906 3.3 5.716h-6.6Zm-82.625 63.605 3.3 5.716h-6.6Zm82.625 5.301 3.3 5.716h-6.6Zm-85.29 26.502 3.3 5.716h-6.6Zm85.29-47.704 3.3 5.716h-6.6ZM219.09 134.69l3.3 5.715h-6.6Zm98.618-5.301 3.3 5.715h-6.6Z"/>
      <path fill="#474747" stroke="#474747" stroke-opacity="0" stroke-width="0" d="m264.402 92.285 3.3 5.716h-6.6ZM365.685 23.38l3.3 5.715h-6.6Zm-138.598 84.807 3.3 5.716h-6.6Zm90.621-90.108 3.3 5.716h-6.6Zm-119.94 68.906 3.3 5.716h-6.6Zm157.255-68.906 3.3 5.716h-6.6ZM251.075 86.985l3.3 5.716h-6.6Zm119.94-26.502 3.3 5.715h-6.6Zm-114.609 42.403 3.3 5.716h-6.6Zm-7.996-5.3 3.3 5.716h-6.6Zm95.952-37.103 3.3 5.715h-6.6Zm-58.638 53.004 3.3 5.716h-6.6Zm21.323-5.3 3.3 5.716h-6.6ZM101.181 219.054h6.6v6.6h-6.6zm42.646-21.201h6.6v6.6h-6.6zm-26.654 15.901h6.6v6.6h-6.6zm-13.326 26.502h6.6v6.6h-6.6zm21.322-47.704h6.6v6.6h-6.6zm23.988-5.3h6.6v6.6h-6.6zM74.528 293.261h6.6v6.6h-6.6z"/>
      <path fill="#474747" stroke="#474747" stroke-opacity="0" stroke-width="0" d="M127.835 192.552h6.6v6.6h-6.6zm42.645 10.601h6.6v6.6h-6.6z"/>
      <path fill="#474747" stroke="#474747" stroke-opacity="0" stroke-width="0" d="M122.504 187.252h6.6v6.6h-6.6zm10.661 26.502h6.6v6.6h-6.6z"/>
      <path fill="#474747" stroke="#474747" stroke-opacity="0" stroke-width="0" d="M130.5 208.453h6.6v6.6h-6.6zm-7.996 47.705h6.6v6.6h-6.6zm37.315-84.808h6.6v6.6h-6.6zm-50.642 58.305h6.6v6.6h-6.6z"/>
      <path fill="#474747" stroke="#474747" stroke-opacity="0" stroke-width="0" d="M159.819 171.35h6.6v6.6h-6.6zm-79.96 21.202h6.6v6.6h-6.6zm42.645 84.807h6.6v6.6h-6.6zm-26.653-47.704h6.6v6.6h-6.6zm101.282-26.502h6.6v6.6h-6.6zm-85.29 74.206h6.6v6.6h-6.6z"/>
      <path fill="#474747" stroke="#474747" stroke-opacity="0" stroke-width="0" d="M90.52 224.355h6.6v6.6h-6.6zm-53.307 21.202h6.6v6.6h-6.6zm95.952-31.803h6.6v6.6h-6.6zm-53.306-10.601h6.6v6.6h-6.6zm90.621-10.601h6.6v6.6h-6.6zm-79.96-15.901h6.6v6.6h-6.6zm42.645 0h6.6v6.6h-6.6zm-10.661 47.704h6.6v6.6h-6.6zm90.622-74.207h6.6v6.6h-6.6zM69.197 245.557h6.6v6.6h-6.6zm117.275-74.207h6.6v6.6h-6.6zM85.189 245.557h6.6v6.6h-6.6zm79.96-84.808h6.6v6.6h-6.6zm-53.306 42.404h6.6v6.6h-6.6zm31.984-21.202h6.6v6.6h-6.6zm-5.331 21.202h6.6v6.6h-6.6zm101.283-79.507h6.6v6.6h-6.6zM15.89 219.054h6.6v6.6h-6.6z"/>
      <path fill="#474747" stroke="#474747" stroke-opacity="0" stroke-width="0" d="M207.795 150.148h6.6v6.6h-6.6zm-58.638-26.502h6.6v6.6h-6.6zm-31.984 121.911h6.6v6.6h-6.6zm-10.661-47.704h6.6v6.6h-6.6z"/>
      <path fill="#474747" stroke="#474747" stroke-opacity="0" stroke-width="0" d="M101.181 197.853h6.6v6.6h-6.6zm18.658 0h6.6v6.6h-6.6zm82.625-26.503h6.6v6.6h-6.6zM90.52 229.655h6.6v6.6h-6.6zm95.952-116.61h6.6v6.6h-6.6zM74.528 245.557h6.6v6.6h-6.6zm45.311-58.305h6.6v6.6h-6.6zm-37.315-5.301h6.6v6.6h-6.6zm66.633-10.601h6.6v6.6h-6.6zm-37.314 42.404h6.6v6.6h-6.6zm47.976-53.005h6.6v6.6h-6.6zm-74.63 84.808h6.6v6.6h-6.6z"/>
      <path fill="#474747" stroke="#474747" stroke-opacity="0" stroke-width="0" d="M95.851 192.552h6.6v6.6h-6.6zm-21.323 31.803h6.6v6.6h-6.6zm85.291-63.606h6.6v6.6h-6.6zm-26.654 5.301h6.6v6.6h-6.6zm-29.318 42.403h6.6v6.6h-6.6zm45.31-63.605h6.6v6.6h-6.6zm-31.984 90.108h6.6v6.6h-6.6zm0-31.803h6.6v6.6h-6.6z"/>
      <path fill="#474747" stroke="#474747" stroke-opacity="0" stroke-width="0" d="M154.488 139.547h6.6v6.6h-6.6zM90.52 166.05h6.6v6.6h-6.6zm39.98 47.704h6.6v6.6h-6.6zm34.649-90.108h6.6v6.6h-6.6zM130.5 187.252h6.6v6.6h-6.6z"/>
    </g>
    <text text-anchor="middle" style="fill:#474747;font-family:Lucida Grande,sans-serif;font-size:15px;font-weight:400;font-style:normal" transform="rotate(-90 98.25 83.75)"><tspan>flipper_length_mm</tspan></text>
    <text text-anchor="middle" style="fill:#474747;font-family:Lucida Grande,sans-serif;font-size:15px;font-weight:400;font-style:normal" transform="translate(264.037 391.5)"><tspan>body_mass_g</tspan></text>
    <path stroke="#474747" stroke-width="0" fill="#FFF" d="M490.132 131.25H595v101.5H490.132z"/>
    <text style="fill:#474747;font-family:Lucida Grande,sans-serif;font-size:15px;font-weight:400;font-style:normal" transform="translate(495.132 146.75)"><tspan>island</tspan></text>
    <g transform="translate(495.132 158.75)">
      <path stroke-width="0" fill="#FFF" d="M0 0h23v23H0z"/>
      <circle fill="#474747" stroke="#474747" stroke-opacity="0" stroke-width="0" cx="10.5" cy="10.5" r="5.5" transform="translate(1 1)"/>
      <path stroke="#FFF" fill-opacity="0" d="M0 0h23v23H0z"/>
    </g>
    <text class="legend-item" transform="translate(522.122 174.8)"><tspan>Torgersen</tspan></text>
    <path stroke-width="0" fill="#FFF" d="M495.132 181.75h23v23h-23z"/>
    <path fill="#474747" stroke="#474747" stroke-opacity="0" stroke-width="0" d="m506.632 188.487 5.5 9.526h-11Z"/>
    <path stroke="#FFF" fill-opacity="0" d="M495.132 181.75h23v23h-23z"/>
    <text class="legend-item" transform="translate(522.122 197.8)"><tspan>Biscoe</tspan></text>
    <path stroke-width="0" fill="#FFF" d="M495.132 204.75h23v23h-23z"/>
    <path fill="#474747" stroke="#474747" stroke-opacity="0" stroke-width="0" d="M501.132 210.75h11v11h-11z"/>
    <path stroke="#FFF" fill-opacity="0" d="M495.132 204.75h23v23h-23z"/>
    <text class="legend-item" transform="translate(522.122 220.8)"><tspan>Dream</tspan></text>
    <path fill-opacity="0" stroke="#474747" stroke-width="0" d="M0 0v400h600V0Z"/>
  </g>
  <g id="dWogKsx">
    <g/>
    <g/>
  </g>
</svg>
