<svg xmlns="http://www.w3.org/2000/svg" xmlns:xlink="http://www.w3.org/1999/xlink" width="1280" height="720" overflow=""><defs><clipPath id="clip0"><rect x="0" y="0" width="1280" height="720"/></clipPath><clipPath id="clip1"><rect x="-68" y="4" width="1348" height="711"/></clipPath><clipPath id="clip2"><rect x="206" y="29" width="913" height="450"/></clipPath><clipPath id="clip3"><rect x="206" y="29" width="913" height="450"/></clipPath><clipPath id="clip4"><rect x="206" y="29" width="913" height="450"/></clipPath><clipPath id="clip5"><rect x="206" y="29" width="913" height="450"/></clipPath><clipPath id="clip6"><rect x="206" y="29" width="913" height="450"/></clipPath><clipPath id="clip7"><rect x="206" y="29" width="913" height="450"/></clipPath><clipPath id="clip8"><rect x="206" y="29" width="913" height="450"/></clipPath><clipPath id="clip9"><rect x="206" y="29" width="913" height="450"/></clipPath><clipPath id="clip10"><rect x="-68" y="4" width="1348" height="711"/></clipPath><clipPath id="clip11"><rect x="-68" y="4" width="1348" height="711"/></clipPath><clipPath id="clip12"><rect x="-68" y="4" width="1348" height="711"/></clipPath><clipPath id="clip13"><rect x="-68" y="4" width="1348" height="711"/></clipPath><clipPath id="clip14"><rect x="-68" y="4" width="1348" height="711"/></clipPath><clipPath id="clip15"><rect x="-68" y="4" width="1348" height="711"/></clipPath><clipPath id="clip16"><rect x="-68" y="4" width="1348" height="711"/></clipPath><clipPath id="clip17"><rect x="-68" y="4" width="1348" height="711"/></clipPath><clipPath id="clip18"><rect x="-68" y="4" width="1348" height="711"/></clipPath><clipPath id="clip19"><rect x="-68" y="4" width="1348" height="711"/></clipPath><clipPath id="clip20"><rect x="-68" y="4" width="1348" height="711"/></clipPath><clipPath id="clip21"><rect x="-68" y="4" width="1348" height="711"/></clipPath><clipPath id="clip22"><rect x="-68" y="4" width="1348" height="711"/></clipPath><clipPath id="clip23"><rect x="-68" y="4" width="1348" height="711"/></clipPath><clipPath id="clip24"><rect x="-68" y="4" width="1348" height="711"/></clipPath><clipPath id="clip25"><rect x="-68" y="4" width="1348" height="711"/></clipPath><clipPath id="clip26"><rect x="-68" y="4" width="1348" height="711"/></clipPath><clipPath id="clip27"><rect x="-68" y="4" width="1348" height="711"/></clipPath><clipPath id="clip28"><rect x="-68" y="4" width="1348" height="711"/></clipPath><clipPath id="clip29"><rect x="-68" y="4" width="1348" height="711"/></clipPath><clipPath id="clip30"><rect x="-68" y="4" width="1348" height="711"/></clipPath><clipPath id="clip31"><rect x="-68" y="4" width="1348" height="711"/></clipPath><clipPath id="clip32"><rect x="-68" y="4" width="1348" height="711"/></clipPath><clipPath id="clip33"><rect x="-68" y="4" width="1348" height="711"/></clipPath><clipPath id="clip34"><rect x="-68" y="4" width="1348" height="711"/></clipPath><clipPath id="clip35"><rect x="-68" y="4" width="1348" height="711"/></clipPath><clipPath id="clip36"><rect x="-68" y="4" width="1348" height="711"/></clipPath><clipPath id="clip37"><rect x="-68" y="4" width="1348" height="711"/></clipPath></defs><g clip-path="url(#clip0)"><rect x="0" y="0" width="1280" height="720" fill="#FFFFFF"/><g clip-path="url(#clip1)"><path d="M336.5 29.5001 336.5 478.5M466.5 29.5001 466.5 478.5M597.5 29.5001 597.5 478.5M727.5 29.5001 727.5 478.5M857.5 29.5001 857.5 478.5M987.5 29.5001 987.5 478.5M1118.5 29.5001 1118.5 478.5" stroke="#D9D9D9" stroke-linejoin="round" stroke-miterlimit="10" fill="none"/></g><g clip-path="url(#clip2)"><path d="M284 434 206 434 206 374 284 374ZM311 284 206 284 206 224 311 224ZM415 134 206 134 206 74 415 74Z" fill="#12436D"/></g><g clip-path="url(#clip3)"><path d="M363 434 284 434 284 374 363 374ZM337 284 311 284 311 224 337 224ZM467 134 415 134 415 74 467 74Z" fill="#28A197"/></g><g clip-path="url(#clip4)"><path d="M467 434 363 434 363 374 467 374ZM467 284 337 284 337 224 467 224ZM545 134 467 134 467 74 545 74Z" fill="#801650"/></g><g clip-path="url(#clip5)"><path d="M545 434 467 434 467 374 545 374ZM493 284 467 284 467 224 493 224ZM597 134 545 134 545 74 597 74Z" fill="#F46A25"/></g><g clip-path="url(#clip6)"><path d="M571 434 545 434 545 374 571 374ZM623 284 493 284 493 224 623 224ZM675 134 597 134 597 74 675 74Z" fill="#3D3D3D"/></g><g clip-path="url(#clip7)"><path d="M597 434 571 434 571 374 597 374ZM675 284 623 284 623 224 675 224ZM727 134 675 134 675 74 727 74Z" fill="#A285D1"/></g><g clip-path="url(#clip8)"><path d="M806 434 597 434 597 374 806 374ZM806 284 675 284 675 224 806 224ZM806 134 727 134 727 74 806 74Z" fill="#8B0000"/></g><g clip-path="url(#clip9)"><path d="M936 434 806 434 806 374 936 374ZM936 284 806 284 806 224 936 224ZM1014 134 806 134 806 74 1014 74Z" fill="#B78C01"/></g><g clip-path="url(#clip10)"><path d="M0 0 0.000104987 449" stroke="#D9D9D9" stroke-linejoin="round" stroke-miterlimit="10" fill="none" fill-rule="evenodd" transform="matrix(1 0 0 -1 206.5 478.5)"/></g><g clip-path="url(#clip11)"><text fill="#595959" font-family="Arial,Arial_MSFontService,sans-serif" font-weight="400" font-size="24" transform="translate(199.673 515)">0</text></g><g clip-path="url(#clip12)"><text fill="#595959" font-family="Arial,Arial_MSFontService,sans-serif" font-weight="400" font-size="24" transform="translate(329.927 515)">5</text></g><g clip-path="url(#clip13)"><text fill="#595959" font-family="Arial,Arial_MSFontService,sans-serif" font-weight="400" font-size="24" transform="translate(453.507 515)">10</text></g><g clip-path="url(#clip14)"><text fill="#595959" font-family="Arial,Arial_MSFontService,sans-serif" font-weight="400" font-size="24" transform="translate(583.76 515)">15</text></g><g clip-path="url(#clip15)"><text fill="#595959" font-family="Arial,Arial_MSFontService,sans-serif" font-weight="400" font-size="24" transform="translate(714.013 515)">20</text></g><g clip-path="url(#clip16)"><text fill="#595959" font-family="Arial,Arial_MSFontService,sans-serif" font-weight="400" font-size="24" transform="translate(844.267 515)">25</text></g><g clip-path="url(#clip17)"><text fill="#595959" font-family="Arial,Arial_MSFontService,sans-serif" font-weight="400" font-size="24" transform="translate(974.52 515)">30</text></g><g clip-path="url(#clip18)"><text fill="#595959" font-family="Arial,Arial_MSFontService,sans-serif" font-weight="400" font-size="24" transform="translate(1104.77 515)">35</text></g><g clip-path="url(#clip19)"><text font-family="Arial,Arial_MSFontService,sans-serif" font-weight="400" font-size="27" transform="translate(60.3297 412)">Shopper 3</text></g><g clip-path="url(#clip20)"><text font-family="Arial,Arial_MSFontService,sans-serif" font-weight="400" font-size="27" transform="translate(60.3297 262)">Shopper 2</text></g><g clip-path="url(#clip21)"><text font-family="Arial,Arial_MSFontService,sans-serif" font-weight="400" font-size="27" transform="translate(60.3297 113)">Shopper 1</text></g><g clip-path="url(#clip22)"><rect x="137" y="562" width="14" height="14" fill="#12436D"/></g><g clip-path="url(#clip23)"><text font-family="Arial,Arial_MSFontService,sans-serif" font-weight="400" font-size="27" transform="translate(156.987 577)">apples</text></g><g clip-path="url(#clip24)"><rect x="511" y="562" width="13" height="14" fill="#28A197"/></g><g clip-path="url(#clip25)"><text font-family="Arial,Arial_MSFontService,sans-serif" font-weight="400" font-size="27" transform="translate(530.555 577)">pineapples</text></g><g clip-path="url(#clip26)"><rect x="885" y="562" width="13" height="14" fill="#801650"/></g><g clip-path="url(#clip27)"><text font-family="Arial,Arial_MSFontService,sans-serif" font-weight="400" font-size="27" transform="translate(904.124 577)">limes</text></g><g clip-path="url(#clip28)"><rect x="137" y="614" width="14" height="14" fill="#F46A25"/></g><g clip-path="url(#clip29)"><text font-family="Arial,Arial_MSFontService,sans-serif" font-weight="400" font-size="27" transform="translate(156.987 629)">pints of milk</text></g><g clip-path="url(#clip30)"><rect x="511" y="614" width="13" height="14" fill="#3D3D3D"/></g><g clip-path="url(#clip31)"><text font-family="Arial,Arial_MSFontService,sans-serif" font-weight="400" font-size="27" transform="translate(530.555 629)">packets of cheese slices</text></g><g clip-path="url(#clip32)"><rect x="885" y="614" width="13" height="14" fill="#A285D1"/></g><g clip-path="url(#clip33)"><text font-family="Arial,Arial_MSFontService,sans-serif" font-weight="400" font-size="27" transform="translate(904.124 629)">tubs of butter</text></g><g clip-path="url(#clip34)"><rect x="137" y="666" width="14" height="13" fill="#8B0000"/></g><g clip-path="url(#clip35)"><text font-family="Arial,Arial_MSFontService,sans-serif" font-weight="400" font-size="27" transform="translate(156.987 681)">sausages</text></g><g clip-path="url(#clip36)"><rect x="511" y="666" width="13" height="13" fill="#B78C01"/></g><g clip-path="url(#clip37)"><text font-family="Arial,Arial_MSFontService,sans-serif" font-weight="400" font-size="27" transform="translate(530.555 681)">burgers</text></g></g></svg>