<svg xmlns="http://www.w3.org/2000/svg" xmlns:xlink="http://www.w3.org/1999/xlink" width="1365.338" height="300" style="height:300px;margin-top:1em;margin-bottom:2em">
  <g class="x axis" fill="none" font-size="10" font-family="sans-serif" text-anchor="middle">
    <path class="domain" stroke="currentColor" d="M40.5 1V.5h1295.338V1" style="stroke-dasharray:1,2,1,2,1,2,1,2,1,2,1,2,1,2,1,2,1,2,1,2,1,2,1,2,1,2,1,2,1,2,1,2,1,2,1,2,1,2,1,2,1,2,473.904,2,1,2,1,2,1,2,1,2,1,2,1,2,1,2,1,2,1,2,1,2,1,2,1,2,1,2,1,2,1,2,1,2,1,2,1,2,1,2,1,2,221.155,2,1,2,1,2,1,2,1,2,1,2,1,2,1,2,1,2,1,2,1,2,1,2,1,2,1,2,1,2,1,2,1,2,1,2,1,2,1,2,1,2,473.904" transform="translate(0 190)"/>
    <g class="tick">
      <path stroke="currentColor" d="M0 0v6" transform="translate(72.094 190)"/>
      <text fill="currentColor" y="9" dy=".71em" transform="translate(72.094 190)">1944</text>
    </g>
    <g class="tick">
      <path stroke="currentColor" d="M0 0v6" transform="translate(135.28 190)"/>
      <text fill="currentColor" y="9" dy=".71em" transform="translate(135.28 190)">1946</text>
    </g>
    <g class="tick">
      <path stroke="currentColor" d="M0 0v6" transform="translate(198.468 190)"/>
      <text fill="currentColor" y="9" dy=".71em" transform="translate(198.468 190)">1948</text>
    </g>
    <g class="tick">
      <path stroke="currentColor" d="M0 0v6" transform="translate(261.655 190)"/>
      <text fill="currentColor" y="9" dy=".71em" transform="translate(261.655 190)">1950</text>
    </g>
    <g class="tick">
      <path stroke="currentColor" d="M0 0v6" transform="translate(324.842 190)"/>
      <text fill="currentColor" y="9" dy=".71em" transform="translate(324.842 190)">1952</text>
    </g>
    <g class="tick">
      <path stroke="currentColor" d="M0 0v6" transform="translate(388.03 190)"/>
      <text fill="currentColor" y="9" dy=".71em" transform="translate(388.03 190)">1954</text>
    </g>
    <g class="tick">
      <path stroke="currentColor" d="M0 0v6" transform="translate(451.217 190)"/>
      <text fill="currentColor" y="9" dy=".71em" transform="translate(451.217 190)">1956</text>
    </g>
    <g class="tick">
      <path stroke="currentColor" d="M0 0v6" transform="translate(514.404 190)"/>
      <text fill="currentColor" y="9" dy=".71em" transform="translate(514.404 190)">1958</text>
    </g>
    <g class="tick">
      <path stroke="currentColor" d="M0 0v6" transform="translate(577.591 190)"/>
      <text fill="currentColor" y="9" dy=".71em" transform="translate(577.591 190)">1960</text>
    </g>
    <g class="tick">
      <path stroke="currentColor" d="M0 0v6" transform="translate(640.778 190)"/>
      <text fill="currentColor" y="9" dy=".71em" transform="translate(640.778 190)">1962</text>
    </g>
    <g class="tick">
      <path stroke="currentColor" d="M0 0v6" transform="translate(703.966 190)"/>
      <text fill="currentColor" y="9" dy=".71em" transform="translate(703.966 190)">1964</text>
    </g>
    <g class="tick">
      <path stroke="currentColor" d="M0 0v6" transform="translate(767.153 190)"/>
      <text fill="currentColor" y="9" dy=".71em" transform="translate(767.153 190)">1966</text>
    </g>
    <g class="tick">
      <path stroke="currentColor" d="M0 0v6" transform="translate(830.34 190)"/>
      <text fill="currentColor" y="9" dy=".71em" transform="translate(830.34 190)">1968</text>
    </g>
    <g class="tick">
      <path stroke="currentColor" d="M0 0v6" transform="translate(893.527 190)"/>
      <text fill="currentColor" y="9" dy=".71em" transform="translate(893.527 190)">1970</text>
    </g>
    <g class="tick">
      <path stroke="currentColor" d="M0 0v6" transform="translate(956.714 190)"/>
      <text fill="currentColor" y="9" dy=".71em" transform="translate(956.714 190)">1972</text>
    </g>
    <g class="tick">
      <path stroke="currentColor" d="M0 0v6" transform="translate(1019.902 190)"/>
      <text fill="currentColor" y="9" dy=".71em" transform="translate(1019.902 190)">1974</text>
    </g>
    <g class="tick">
      <path stroke="currentColor" d="M0 0v6" transform="translate(1083.089 190)"/>
      <text fill="currentColor" y="9" dy=".71em" transform="translate(1083.089 190)">1976</text>
    </g>
    <g class="tick">
      <path stroke="currentColor" d="M0 0v6" transform="translate(1146.276 190)"/>
      <text fill="currentColor" y="9" dy=".71em" transform="translate(1146.276 190)">1978</text>
    </g>
    <g class="tick">
      <path stroke="currentColor" d="M0 0v6" transform="translate(1209.463 190)"/>
      <text fill="currentColor" y="9" dy=".71em" transform="translate(1209.463 190)">1980</text>
    </g>
    <g class="tick">
      <path stroke="currentColor" d="M0 0v6" transform="translate(1272.65 190)"/>
      <text fill="currentColor" y="9" dy=".71em" transform="translate(1272.65 190)">1982</text>
    </g>
    <g class="tick">
      <path stroke="currentColor" d="M0 0v6" transform="translate(1335.838 190)"/>
      <text fill="currentColor" y="9" dy=".71em" transform="translate(1335.838 190)">1984</text>
    </g>
  </g>
  <g class="y axis" fill="none" font-size="10" font-family="sans-serif" text-anchor="end">
    <path class="domain" stroke="currentColor" d="M34 190.5h6.5v-140H34"/>
    <g class="tick">
      <path stroke="currentColor" d="M0 0h-6" transform="translate(40 190.5)"/>
      <text fill="currentColor" x="-9" dy=".32em" transform="translate(40 190.5)">0</text>
    </g>
    <g class="tick">
      <path stroke="currentColor" d="M0 0h-6" transform="translate(40 159.389)"/>
      <text fill="currentColor" x="-9" dy=".32em" transform="translate(40 159.389)">10</text>
    </g>
    <g class="tick">
      <path stroke="currentColor" d="M0 0h-6" transform="translate(40 128.278)"/>
      <text fill="currentColor" x="-9" dy=".32em" transform="translate(40 128.278)">20</text>
    </g>
    <g class="tick">
      <path stroke="currentColor" d="M0 0h-6" transform="translate(40 97.167)"/>
      <text fill="currentColor" x="-9" dy=".32em" transform="translate(40 97.167)">30</text>
    </g>
    <g class="tick">
      <path stroke="currentColor" d="M0 0h-6" transform="translate(40 66.056)"/>
      <text fill="currentColor" x="-9" dy=".32em" transform="translate(40 66.056)">40</text>
    </g>
  </g>
  <text y="10">Number of</text>
  <text y="25">occurrences</text>
  <path fill="#5151FC" d="M40 190c47.39 0 47.39-9.333 63.187-9.333h31.594c15.797 0 15.797-37.334 31.593-37.334 15.797 0 15.797 43.556 31.594 43.556S213.765 190 229.562 190c15.796 0 15.796-6.222 31.593-6.222S276.952 190 292.75 190s15.797-12.444 31.593-12.444c15.797 0 15.797 9.333 31.594 9.333s15.797-15.556 31.594-15.556c15.796 0 15.796 18.667 31.593 18.667s15.797-3.111 31.594-3.111S466.514 190 482.31 190c15.797 0 15.797-56 31.594-56s15.797 49.778 31.594 49.778c15.796 0 15.796 6.222 31.593 6.222h63.187c15.797 0 15.797-28 31.594-28s15.797 28 31.594 28c15.796 0 15.796-9.333 31.593-9.333S750.856 190 766.653 190s15.797-3.111 31.593-3.111c15.797 0 15.797 3.111 31.594 3.111h63.187c15.797 0 15.797-9.333 31.594-9.333s15.797-15.556 31.593-15.556c15.797 0 15.797 24.889 31.594 24.889h63.187c15.797 0 15.797-6.222 31.594-6.222s15.797-3.111 31.593-3.111c15.797 0 15.797 9.333 31.594 9.333s15.797-21.778 31.594-21.778c15.796 0 15.796 21.778 31.593 21.778h63.187c15.797 0 15.797-3.111 31.594-3.111S1319.54 190 1335.338 190z" style="stroke:rgba(0,0,0,.7);stroke-width:.5"/>
  <path fill="#C5C5FC" d="M40 190c47.39 0 47.39-9.333 63.187-9.333h31.594c15.797 0 15.797-40.445 31.593-40.445 15.797 0 15.797 43.556 31.594 43.556S213.765 190 229.562 190c15.796 0 15.796-6.222 31.593-6.222S276.952 190 292.75 190s15.797-12.444 31.593-12.444c15.797 0 15.797 6.222 31.594 6.222s15.797-12.445 31.594-12.445c15.796 0 15.796 18.667 31.593 18.667s15.797-3.111 31.594-3.111S466.514 190 482.31 190c15.797 0 15.797-62.222 31.594-62.222s15.797 56 31.594 56c15.796 0 15.796 6.222 31.593 6.222h63.187c15.797 0 15.797-40.444 31.594-40.444S687.669 190 703.466 190c15.796 0 15.796-12.444 31.593-12.444S750.856 190 766.653 190s15.797-6.222 31.593-6.222c15.797 0 15.797 6.222 31.594 6.222h63.187c15.797 0 15.797-9.333 31.594-9.333s15.797-24.89 31.593-24.89c15.797 0 15.797 34.223 31.594 34.223h31.594c15.796 0 15.796-3.111 31.593-3.111s15.797-6.222 31.594-6.222h31.593c15.797 0 15.797 9.333 31.594 9.333s15.797-37.333 31.594-37.333c15.796 0 15.796 37.333 31.593 37.333h31.594c15.797 0 15.797-3.111 31.593-3.111h63.188V190c-47.39-3.111-47.39 0-63.188 0h-63.187c-15.797 0-15.797-21.778-31.593-21.778-15.797 0-15.797 21.778-31.594 21.778s-15.797-9.333-31.594-9.333c-15.796 0-15.796 3.11-31.593 3.11S1066.792 190 1050.995 190h-63.187c-15.797 0-15.797-24.889-31.594-24.889-15.796 0-15.796 15.556-31.593 15.556S908.824 190 893.027 190H829.84c-15.797 0-15.797-3.111-31.594-3.111-15.796 0-15.796 3.111-31.593 3.111s-15.797-9.333-31.594-9.333S719.262 190 703.466 190c-15.797 0-15.797-28-31.594-28s-15.797 28-31.594 28h-63.187c-15.797 0-15.797-6.222-31.593-6.222C529.7 183.778 529.7 134 513.904 134s-15.797 56-31.594 56c-15.796 0-15.796-3.111-31.593-3.111S434.92 190 419.123 190s-15.797-18.667-31.593-18.667c-15.797 0-15.797 15.556-31.594 15.556s-15.797-9.333-31.594-9.333c-15.796 0-15.796 12.444-31.593 12.444s-15.797-6.222-31.594-6.222S245.358 190 229.562 190c-15.797 0-15.797-3.111-31.594-3.111s-15.797-43.556-31.594-43.556c-15.796 0-15.796 37.334-31.593 37.334h-31.594C87.39 180.667 87.39 190 71.594 190z" style="stroke:rgba(0,0,0,.7);stroke-width:.5"/>
  <path fill="#00C19C" d="M40 190c47.39 0 47.39-9.333 63.187-9.333s15.797-6.223 31.594-6.223 15.797-52.888 31.593-52.888c15.797 0 15.797 62.222 31.594 62.222s15.797 3.11 31.594 3.11c15.796 0 15.796-3.11 31.593-3.11S276.952 190 292.75 190s15.797-24.889 31.593-24.889c15.797 0 15.797 6.222 31.594 6.222s15.797-3.11 31.594-3.11c15.796 0 15.796 21.777 31.593 21.777s15.797-3.111 31.594-3.111 15.797-3.111 31.593-3.111c15.797 0 15.797-84 31.594-84s15.797 84 31.594 84c15.796 0 15.796 6.222 31.593 6.222h63.187c15.797 0 15.797-46.667 31.594-46.667s15.797 15.556 31.594 15.556c15.796 0 15.796 12.444 31.593 12.444s15.797 15.556 31.594 15.556 15.797-12.445 31.593-12.445c15.797 0 15.797 12.445 31.594 12.445S845.637 190 861.434 190h31.593c15.797 0 15.797-9.333 31.594-9.333s15.797-37.334 31.593-37.334c15.797 0 15.797 40.445 31.594 40.445s15.797 6.222 31.594 6.222c15.796 0 15.796-6.222 31.593-6.222s15.797-3.111 31.594-3.111 15.797-3.111 31.593-3.111c15.797 0 15.797 12.444 31.594 12.444s15.797-93.333 31.594-93.333c15.796 0 15.796 84 31.593 84S1224.76 190 1240.557 190s15.797-3.111 31.593-3.111c15.797 0 15.797-9.333 31.594-9.333s15.797 9.333 31.594 9.333h-63.188c-15.796 0-15.796 3.111-31.593 3.111h-31.594c-15.797 0-15.797-37.333-31.593-37.333-15.797 0-15.797 37.333-31.594 37.333s-15.797-9.333-31.594-9.333h-31.593c-15.797 0-15.797 6.222-31.594 6.222S1035.198 190 1019.402 190h-31.594c-15.797 0-15.797-34.222-31.594-34.222-15.796 0-15.796 24.889-31.593 24.889S908.824 190 893.027 190H829.84c-15.797 0-15.797-6.222-31.594-6.222-15.796 0-15.796 6.222-31.593 6.222s-15.797-12.444-31.594-12.444S719.262 190 703.466 190c-15.797 0-15.797-40.444-31.594-40.444S656.075 190 640.278 190h-63.187c-15.797 0-15.797-6.222-31.593-6.222-15.797 0-15.797-56-31.594-56S498.107 190 482.31 190c-15.796 0-15.796-3.111-31.593-3.111S434.92 190 419.123 190s-15.797-18.667-31.593-18.667c-15.797 0-15.797 12.445-31.594 12.445s-15.797-6.222-31.594-6.222c-15.796 0-15.796 12.444-31.593 12.444s-15.797-6.222-31.594-6.222S245.358 190 229.562 190c-15.797 0-15.797-6.222-31.594-6.222s-15.797-43.556-31.594-43.556c-15.796 0-15.796 40.445-31.593 40.445h-31.594C87.39 180.667 87.39 190 71.594 190z" style="stroke:rgba(0,0,0,.7);stroke-width:.5"/>
  <path fill="#C2FAEF" d="M40 190c47.39 0 47.39-9.333 63.187-9.333s15.797-9.334 31.594-9.334 15.797-56 31.593-56c15.797 0 15.797 68.445 31.594 68.445s15.797-3.111 31.594-3.111c15.796 0 15.796 3.11 31.593 3.11S276.952 190 292.75 190s15.797-24.889 31.593-24.889c15.797 0 15.797 3.111 31.594 3.111h31.594c15.796 0 15.796 21.778 31.593 21.778s15.797-3.111 31.594-3.111 15.797-6.222 31.593-6.222c15.797 0 15.797-87.111 31.594-87.111s15.797 84 31.594 84c15.796 0 15.796 12.444 31.593 12.444h31.594c15.797 0 15.797-3.111 31.593-3.111 15.797 0 15.797-49.778 31.594-49.778s15.797 18.667 31.594 18.667c15.796 0 15.796-6.222 31.593-6.222s15.797 37.333 31.594 37.333 15.797-15.556 31.593-15.556c15.797 0 15.797 15.556 31.594 15.556S845.637 190 861.434 190h31.593c15.797 0 15.797-12.444 31.594-12.444s15.797-49.778 31.593-49.778c15.797 0 15.797 56 31.594 56h31.594c15.796 0 15.796-6.222 31.593-6.222h63.187c15.797 0 15.797 12.444 31.594 12.444s15.797-136.889 31.594-136.889c15.796 0 15.796 127.556 31.593 127.556s15.797 3.11 31.594 3.11 15.797-3.11 31.593-3.11c15.797 0 15.797-12.445 31.594-12.445s15.797 18.667 31.594 18.667c-47.39-9.333-47.39 0-63.188 0-15.796 0-15.796 3.111-31.593 3.111s-15.797-9.333-31.594-9.333-15.797-84-31.593-84c-15.797 0-15.797 93.333-31.594 93.333s-15.797-12.444-31.594-12.444c-15.796 0-15.796 3.11-31.593 3.11s-15.797 3.112-31.594 3.112-15.797 6.222-31.593 6.222c-15.797 0-15.797-6.222-31.594-6.222s-15.797-40.445-31.594-40.445c-15.796 0-15.796 37.334-31.593 37.334S908.824 190 893.027 190h-31.593c-15.797 0-15.797-3.111-31.594-3.111s-15.797-12.445-31.594-12.445c-15.796 0-15.796 12.445-31.593 12.445s-15.797-15.556-31.594-15.556-15.797-12.444-31.593-12.444c-15.797 0-15.797-15.556-31.594-15.556S656.075 190 640.278 190h-63.187c-15.797 0-15.797-6.222-31.593-6.222-15.797 0-15.797-84-31.594-84s-15.797 84-31.594 84c-15.796 0-15.796 3.11-31.593 3.11S434.92 190 419.123 190s-15.797-21.778-31.593-21.778c-15.797 0-15.797 3.111-31.594 3.111s-15.797-6.222-31.594-6.222c-15.796 0-15.796 24.889-31.593 24.889s-15.797-6.222-31.594-6.222-15.797 3.11-31.593 3.11c-15.797 0-15.797-3.11-31.594-3.11s-15.797-62.222-31.594-62.222c-15.796 0-15.796 52.888-31.593 52.888s-15.797 6.223-31.594 6.223S87.39 190 71.594 190z" style="stroke:rgba(0,0,0,.7);stroke-width:.5"/>
</svg>
