<svg xmlns="http://www.w3.org/2000/svg" width="1200" height="675">

<rect width="1200" height="675" x="0" y="0" fill="#f8f8f8"/>
<rect width="1000" height="545" x="150" y="50" fill="white"/>

<path stroke="black" stroke-width="0.5" stroke-dasharray="10,20" d=" M140,50 h1010 M140,104.5 h1010 M140,159 h1010 M140,213.5 h1010 M140,268 h1010 M140,322.5 h1010 M140,377 h1010 M140,431.5 h1010 M140,486 h1010 M140,540.5 h1010 M140,595 h1010 "/>

   <g stroke="black" stroke-width="0.5">

<!-- 1 Shell -->
<path fill="#a11" d=" M155,595 v-51.7735 h40.4 v51.7735 z M205,595 v-41.73081 h40.4 v41.73081 z M255,595 v-23.08235 h40.4 v23.08235 z M305,595 v-41.48133 h40.4 v41.48133 z M355,595 v-62.04934 h40.4 v62.04934 z M405,595 v-51.29412 h40.4 v51.29412 z M455,595 v-40.58436 h40.4 v40.58436 z M505,595 v-48.18189 h40.4 v48.18189 z M555,595 v-22.55775 h40.4 v22.55775 z M605,595 v-12.31059 h40.4 v12.31059 z  M655,595 v-35.90588 h40.4 v35.90588 z M705,595 v-45.57285 h40.4 v45.57285 z M755,595 v-35.90588 h40.4 v35.90588 z  M855,595 v-41.03529 h40.4 v41.03529 z M905,595 v-84.1827 h40.4 v84.1827 z "/>

<!-- 2 BP -->
<path fill="#d22" d=" M155,543.2265 v-44.00748 h40.4 v44.00748 z M205,553.26919 v-54.77168 h40.4 v54.77168 z M255,571.91765 v-30.77647 h40.4 v30.77647 z M305,553.51867 v-44.07391 h40.4 v44.07391 z M355,532.95066 v-62.04934 h40.4 v62.04934 z M405,543.70588 v-38.47059 h40.4 v38.47059 z M455,554.41564 v-27.90175 h40.4 v27.90175 z M505,546.81811 v-25.35889 h40.4 v25.35889 z M555,572.44225 v-15.0385 h40.4 v15.0385 z M605,582.68941 v-7.38635 h40.4 v7.38635 z  M655,559.09412 v-12.82353 h40.4 v12.82353 z M705,549.42715 v-27.85008 h40.4 v27.85008 z M755,559.09412 v-20.51765 h40.4 v20.51765 z  M855,553.96471 v-25.64706 h40.4 v25.64706 z M905,510.8173 v-61.22378 h40.4 v61.22378 z "/>

<!-- 3 TotalEnergies -->
<path fill="#f43" d=" M155,499.21902 v-36.24145 h40.4 v36.24145 z M205,498.49751 v-44.33898 h40.4 v44.33898 z M255,541.14118 v-23.08235 h40.4 v23.08235 z M305,509.44476 v-31.111 h40.4 v31.111 z M355,470.90132 v-33.61006 h40.4 v33.61006 z M405,505.23529 v-35.90588 h40.4 v35.90588 z M455,526.51389 v-30.43827 h40.4 v30.43827 z M505,521.45922 v-30.43067 h40.4 v30.43067 z M555,557.40375 v-22.55775 h40.4 v22.55775 z M605,575.30306 v-17.23482 h40.4 v17.23482 z  M655,546.27059 v-23.08235 h40.4 v23.08235 z M705,521.57707 v-30.3819 h40.4 v30.3819 z M755,538.57647 v-25.64706 h40.4 v25.64706 z  M855,528.31765 v-41.03529 h40.4 v41.03529 z M905,449.59352 v-79.08072 h40.4 v79.08072 z "/>

<!-- 4 Chevron -->
<path fill="#f75" d=" M155,462.97757 v-38.83013 h40.4 v38.83013 z M205,454.15853 v-49.55533 h40.4 v49.55533 z M255,518.05883 v-20.51765 h40.4 v20.51765 z M305,478.33376 v-41.48133 h40.4 v41.48133 z M355,437.29126 v-54.29317 h40.4 v54.29317 z M405,469.32941 v-53.85882 h40.4 v53.85882 z M455,496.07562 v-45.6574 h40.4 v45.6574 z M505,491.02855 v-40.57422 h40.4 v40.57422 z M555,534.846 v-12.53209 h40.4 v12.53209 z M605,558.06824 v-4.92424 h40.4 v4.92424 z  M655,523.18824 v-12.82353 h40.4 v12.82353 z M705,491.19517 v-32.91373 h40.4 v32.91373 z M755,512.92941 v-25.64706 h40.4 v25.64706 z  M855,487.28236 v-33.34118 h40.4 v33.34118 z M905,370.5128 v-81.63171 h40.4 v81.63171 z "/>

<!-- 5 Exxon -->
<path fill="#f97" d=" M155,424.14744 v-90.60363 h40.4 v90.60363 z M205,404.6032 v-96.50249 h40.4 v96.50249 z M255,497.54118 v-41.03529 h40.4 v41.03529 z M305,436.85243 v-64.81458 h40.4 v64.81458 z M355,382.99809 v-90.48861 h40.4 v90.48861 z M405,415.47059 v-82.07059 h40.4 v82.07059 z M455,450.41822 v-71.02262 h40.4 v71.02262 z M505,450.45433 v-68.469 h40.4 v68.469 z M555,522.31391 v-35.08984 h40.4 v35.08984 z M605,553.144 v-17.23482 h40.4 v17.23482 z  M655,510.36471 v-33.34118 h40.4 v33.34118 z M705,458.28144 v-45.57285 h40.4 v45.57285 z M755,487.28235 v-20.51765 h40.4 v20.51765 z  M855,453.94118 v-51.29412 h40.4 v51.29412 z M905,288.88109 v-122.44756 h40.4 v122.44756 z  "/>

<!-- 6 Equinor -->
<path fill="#fca" d=" M155,333.54381 v-15.53205 h40.4 v15.53205 z M205,308.10071 v-20.8654 h40.4 v20.8654 z M255,456.50589 v-12.82353 h40.4 v12.82353 z M305,372.03785 v-15.5555 h40.4 v15.5555 z M355,292.50948 v-18.09772 h40.4 v18.09772 z M405,333.4 v-17.95294 h40.4 v17.95294 z M455,379.3956 v-15.21913 h40.4 v15.21913 z M505,381.98533 v-12.67944 h40.4 v12.67944 z M555,487.22407 v-2.50642 h40.4 v2.50642 z M605,535.90918 v-2.46212 h40.4 v2.46212 z  M655,477.02353 v-10.25882 h40.4 v10.25882 z M705,412.70859 v-15.19095 h40.4 v15.19095 z M755,466.7647 v-10.25882 h40.4 v10.25882 z  M855,402.64706 v-20.51765 h40.4 v20.51765 z M905,166.43353 v-48.46883 h40.4 v48.46883 z  "/>

<!-- 2020 is the special case (negative values) -->
<path fill="#fca" d="M805,595 v-20 h40.4 v20 z"/>
<path fill="#f43" d="M805,595 v-18 h40.4 v18 z"/>
<path fill="#a11" d="M805,595 v-10 h40.4 v10 z"/>
<path fill="#d22" d="M805,595 v14 h40.4 v-14 z"/>
<path fill="#f97" d="M805,595 v2 h40.4 v-2 z"/>

   </g>


      <g font-size="35px" font-family="Liberation Sans,sans-serif" text-anchor="middle" fill="black">

<g font-size="60px" transform="translate(500,0)"> 
<text y="155">Profits of</text>
<text y="205">energy companies</text>
</g>

<g transform="translate(75,0)">
<text y="65">Billion</text>
<text y="100">US $</text>
<text y="171.25">$200B</text>
<text y="280.25">$150B</text>
<text y="389.25">$100B</text>
<text y="498.25">$50B</text>
<text y="607.25">$0</text>
</g>

<g fill="#aaa">
<path d="M305,600 h40.4 l-20.2,20 z"/>
<path d="M555,600 h40.4 l-20.2,20 z"/>
<path d="M805,615 h40.4 l-20.2,20 z"/>
</g>

<g transform="translate(0,665)">
<text x="325">2010</text>
<text x="575">2015</text> 
<text x="825">2020</text> 
</g>

<g transform="translate(960,0)" text-anchor="start">
<text y="155">Equinor</text>
<text y="240">Exxon</text>
<text y="345">Chevron</text>
<text y="405">Total</text>
<text x="15" y="432">Energies</text>
<text y="495">BP</text>
<text y="565">Shell</text>
</g>

      </g>

<!-- Covers edges' grid lines  -->
<rect width="1000" height="545" x="150" y="50" stroke="#888888" stroke-width="1" fill="none"/>

</svg>