<svg xmlns="http://www.w3.org/2000/svg" xmlns:xlink="http://www.w3.org/1999/xlink" width="1280" height="720" overflow=""><defs><clipPath id="clip0"><rect x="0" y="0" width="1280" height="720"/></clipPath><clipPath id="clip1"><rect x="17" y="9" width="1203" height="699"/></clipPath><clipPath id="clip2"><rect x="108" y="69" width="1076" height="585"/></clipPath><clipPath id="clip3"><rect x="108" y="69" width="1076" height="585"/></clipPath><clipPath id="clip4"><rect x="17" y="9" width="1203" height="699"/></clipPath><clipPath id="clip5"><rect x="17" y="9" width="1203" height="699"/></clipPath><clipPath id="clip6"><rect x="17" y="9" width="1203" height="699"/></clipPath><clipPath id="clip7"><rect x="17" y="9" width="1203" height="699"/></clipPath><clipPath id="clip8"><rect x="17" y="9" width="1203" height="699"/></clipPath><clipPath id="clip9"><rect x="17" y="9" width="1203" height="699"/></clipPath><clipPath id="clip10"><rect x="17" y="9" width="1203" height="699"/></clipPath><clipPath id="clip11"><rect x="17" y="9" width="1203" height="699"/></clipPath><clipPath id="clip12"><rect x="17" y="9" width="1203" height="699"/></clipPath><clipPath id="clip13"><rect x="17" y="9" width="1203" height="699"/></clipPath><clipPath id="clip14"><rect x="17" y="9" width="1203" height="699"/></clipPath><clipPath id="clip15"><rect x="17" y="9" width="1203" height="699"/></clipPath><clipPath id="clip16"><rect x="17" y="9" width="1203" height="699"/></clipPath><clipPath id="clip17"><rect x="17" y="9" width="1203" height="699"/></clipPath><clipPath id="clip18"><rect x="17" y="9" width="1203" height="699"/></clipPath><clipPath id="clip19"><rect x="17" y="9" width="1203" height="699"/></clipPath><clipPath id="clip20"><rect x="17" y="9" width="1203" height="699"/></clipPath><clipPath id="clip21"><rect x="17" y="9" width="1203" height="699"/></clipPath><clipPath id="clip22"><rect x="17" y="9" width="1203" height="699"/></clipPath></defs><g clip-path="url(#clip0)"><rect x="0" y="0" width="1280" height="720" fill="#FFFFFF"/><text font-family="Arial,Arial_MSFontService,sans-serif" font-weight="400" font-size="27" transform="translate(1229.84 697)">%</text><g clip-path="url(#clip1)"><path d="M215.5 69.5001 215.5 653.5M323.5 69.5001 323.5 653.5M430.5 69.5001 430.5 653.5M538.5 69.5001 538.5 653.5M645.5 69.5001 645.5 653.5M753.5 69.5001 753.5 653.5M860.5 69.5001 860.5 653.5M968.5 69.5001 968.5 653.5M1075.5 69.5001 1075.5 653.5M1183.5 69.5001 1183.5 653.5" stroke="#D9D9D9" stroke-linejoin="round" stroke-miterlimit="10" fill="none"/></g><g clip-path="url(#clip2)"><path d="M1063 595 108 595 108 517 1063 517ZM1001 401 108 401 108 323 1001 323ZM893 206 108 206 108 128 893 128Z" fill="#12436D"/></g><g clip-path="url(#clip3)"><path d="M1183 595 1063 595 1063 517 1183 517ZM1183 401 1001 401 1001 323 1183 323ZM1183 206 893 206 893 128 1183 128Z" fill="#F46A25"/></g><g clip-path="url(#clip4)"><path d="M0 0 0.000104987 584" stroke="#D9D9D9" stroke-linejoin="round" stroke-miterlimit="10" fill="none" fill-rule="evenodd" transform="matrix(1 0 0 -1 108.5 653.5)"/></g><g clip-path="url(#clip5)"><text fill="#0D0D0D" font-family="Arial,Arial_MSFontService,sans-serif" font-weight="400" font-size="27" transform="translate(100.614 694)">0</text></g><g clip-path="url(#clip6)"><text fill="#0D0D0D" font-family="Arial,Arial_MSFontService,sans-serif" font-weight="400" font-size="27" transform="translate(200.727 694)">10</text></g><g clip-path="url(#clip7)"><text fill="#0D0D0D" font-family="Arial,Arial_MSFontService,sans-serif" font-weight="400" font-size="27" transform="translate(308.256 694)">20</text></g><g clip-path="url(#clip8)"><text fill="#0D0D0D" font-family="Arial,Arial_MSFontService,sans-serif" font-weight="400" font-size="27" transform="translate(415.786 694)">30</text></g><g clip-path="url(#clip9)"><text fill="#0D0D0D" font-family="Arial,Arial_MSFontService,sans-serif" font-weight="400" font-size="27" transform="translate(523.315 694)">40</text></g><g clip-path="url(#clip10)"><text fill="#0D0D0D" font-family="Arial,Arial_MSFontService,sans-serif" font-weight="400" font-size="27" transform="translate(630.845 694)">50</text></g><g clip-path="url(#clip11)"><text fill="#0D0D0D" font-family="Arial,Arial_MSFontService,sans-serif" font-weight="400" font-size="27" transform="translate(738.374 694)">60</text></g><g clip-path="url(#clip12)"><text fill="#0D0D0D" font-family="Arial,Arial_MSFontService,sans-serif" font-weight="400" font-size="27" transform="translate(845.904 694)">70</text></g><g clip-path="url(#clip13)"><text fill="#0D0D0D" font-family="Arial,Arial_MSFontService,sans-serif" font-weight="400" font-size="27" transform="translate(953.433 694)">80</text></g><g clip-path="url(#clip14)"><text fill="#0D0D0D" font-family="Arial,Arial_MSFontService,sans-serif" font-weight="400" font-size="27" transform="translate(1060.96 694)">90</text></g><g clip-path="url(#clip15)"><text fill="#0D0D0D" font-family="Arial,Arial_MSFontService,sans-serif" font-weight="400" font-size="27" transform="translate(1161.08 694)">100</text></g><g clip-path="url(#clip16)"><text fill="#0D0D0D" font-family="Arial,Arial_MSFontService,sans-serif" font-weight="400" font-size="27" transform="translate(25.7535 565)">2019</text></g><g clip-path="url(#clip17)"><text fill="#0D0D0D" font-family="Arial,Arial_MSFontService,sans-serif" font-weight="400" font-size="27" transform="translate(25.7535 370)">2009</text></g><g clip-path="url(#clip18)"><text fill="#0D0D0D" font-family="Arial,Arial_MSFontService,sans-serif" font-weight="400" font-size="27" transform="translate(25.7535 176)">1999</text></g><g clip-path="url(#clip19)"><rect x="109" y="29" width="13" height="14" fill="#12436D"/></g><g clip-path="url(#clip20)"><text fill="#0D0D0D" font-family="Arial,Arial_MSFontService,sans-serif" font-weight="400" font-size="27" transform="translate(128.193 44)">Cohabiting before marriage</text></g><g clip-path="url(#clip21)"><rect x="495" y="29" width="13" height="14" fill="#F46A25"/></g><g clip-path="url(#clip22)"><text fill="#0D0D0D" font-family="Arial,Arial_MSFontService,sans-serif" font-weight="400" font-size="27" transform="translate(514.405 44)">Not cohabiting before marriage</text></g></g></svg>