<svg xmlns="http://www.w3.org/2000/svg" xmlns:xlink="http://www.w3.org/1999/xlink" width="768" height="576" viewBox="0 0 576 432">
  <defs>
    <symbol overflow="visible" id="a">
      <path style="stroke:none" d="M7.453-2.406C7.453-.844 6.25.219 4.031.219 1.97.219.578-.781.578-2.844h1.047c0 1.25.828 2.078 2.484 2.078 1.5 0 2.235-.562 2.235-1.53 0-.673-.516-1.126-1.61-1.407l-2.171-.578C1.406-4.578.843-5.25.843-6.328c0-1.578 1.188-2.64 3.11-2.64 2.016 0 3.203 1 3.203 2.718H6.094c0-1.14-.797-1.781-2.188-1.781-1.172 0-1.953.656-1.953 1.547 0 .672.39 1.03 1.438 1.297l2.203.593c1.187.328 1.86 1.11 1.86 2.188m0 0"/>
    </symbol>
    <symbol overflow="visible" id="b">
      <path style="stroke:none" d="M7.36 0H1.077v-8.75H7.14v.984H2.203v2.797h4.75v.985h-4.75v3H7.36zm0 0"/>
    </symbol>
    <symbol overflow="visible" id="c">
      <path style="stroke:none" d="M7.781 0H6.406l-2.39-3.64L1.625 0H.265L3.36-4.484.453-8.75h1.36l2.25 3.438 2.25-3.438H7.64L4.688-4.484zm0 0"/>
    </symbol>
    <symbol overflow="visible" id="d">
      <path style="stroke:none" d="M3.094-5.469H2.047V0h-.985v-5.469H.22v-.812h.844V-7.36c0-.891.546-1.422 1.468-1.422.203 0 .344.015.563.062v.828c-.219-.015-.266-.015-.344-.015-.453 0-.703.218-.703.64v.985h1.047zm0 0"/>
    </symbol>
    <symbol overflow="visible" id="e">
      <path style="stroke:none" d="M6.156-2.86H1.531c.016 1.438.797 2.11 1.844 2.11.797 0 1.36-.328 1.64-1.156h1.016C5.766-.641 4.781.187 3.344.187 1.578.188.484-1.046.484-3.108c0-2.063 1.125-3.36 2.875-3.36 1.172 0 2.141.625 2.547 1.657.172.468.25 1.046.25 1.953m-1.062-.89c0-.984-.766-1.797-1.75-1.797-1 0-1.719.766-1.797 1.875h3.531c.016-.031.016-.078.016-.078m0 0"/>
    </symbol>
    <symbol overflow="visible" id="f">
      <path style="stroke:none" d="M9.125 0h-1v-4.328c0-.797-.422-1.266-1.156-1.266-.813 0-1.485.735-1.485 1.64V0h-1v-4.328c0-.813-.421-1.266-1.156-1.266-.812 0-1.484.735-1.484 1.64V0H.859v-6.281h.907v.875c.53-.75 1.093-1.063 1.937-1.063.813 0 1.313.282 1.688.953.578-.703 1.093-.953 1.922-.953 1.187 0 1.812.625 1.812 1.75zm0 0"/>
    </symbol>
    <symbol overflow="visible" id="D">
      <path style="stroke:none" d="M1.813 0h-1v-8.75h1zm0 0"/>
    </symbol>
    <symbol overflow="visible" id="E">
      <path style="stroke:none" d="M1.844 0h-1v-6.281h1zm.125-7.234H.719v-1.25h1.25zm0 0"/>
    </symbol>
    <symbol overflow="visible" id="F">
      <path style="stroke:none" d="M5.875-1.031c0 2.765-.844 3.64-2.812 3.64C1.578 2.61.656 1.906.547.72h1.031c.11.765.719 1.062 1.516 1.062 1.172 0 1.844-.64 1.844-2.312v-.422c-.657.797-1.204 1.14-2 1.14C1.468.188.344-1.108.344-3.077c0-2.047 1.078-3.39 2.687-3.39.797 0 1.406.343 1.906 1.093v-.906h.938zM4.844-3.11c0-1.516-.625-2.438-1.719-2.438-1.062 0-1.734.89-1.734 2.406S2.047-.75 3.14-.75c1.062 0 1.703-.86 1.703-2.36m0 0"/>
    </symbol>
    <symbol overflow="visible" id="G">
      <path style="stroke:none" d="M5.828 0h-.984v-4.36c0-.827-.594-1.234-1.297-1.234-1.031 0-1.703.844-1.703 2.125V0h-1v-8.75h1v3.328c.578-.766 1.125-1.047 2.015-1.047 1.22 0 1.97.657 1.97 1.719zm0 0"/>
    </symbol>
    <symbol overflow="visible" id="H">
      <path style="stroke:none" d="M3.047 0a4 4 0 0 1-.813.078c-.78 0-1.218-.36-1.218-.984V-5.47H.172v-.812h.844v-1.735h1v1.735h1.03v.812h-1.03v4.11c0 .453.125.562.547.562.203 0 .359 0 .484-.047zm0 0"/>
    </symbol>
    <symbol overflow="visible" id="g">
      <path style="stroke:none" d="M6.422-.031c-.328.094-.484.11-.688.11-.484 0-.921-.345-1.03-.829a2.92 2.92 0 0 1-2.141.938C1.297.188.5-.485.5-1.625c0-.781.375-1.344 1.11-1.64.374-.157.593-.204 2.015-.376.797-.109 1.047-.28 1.047-.703v-.265c0-.594-.516-.938-1.406-.938-.938 0-1.391.344-1.485 1.125h-1c.063-1.453 1-2.047 2.516-2.047 1.547 0 2.36.594 2.36 1.719v3.5c0 .313.202.5.546.5.063 0 .11 0 .219-.031zm-1.75-2.14v-.938c-.344.156-.563.203-1.61.343-1.078.157-1.515.454-1.515 1.11 0 .687.453.953 1.234.953.969 0 1.89-.563 1.89-1.469m0 0"/>
    </symbol>
    <symbol overflow="visible" id="h">
      <path style="stroke:none" d="M1.813 0h-1v-8.75h1zm0 0"/>
    </symbol>
    <symbol overflow="visible" id="i">
      <path style="stroke:none" d="M6.156-2.86H1.531c.016 1.438.797 2.11 1.844 2.11.797 0 1.36-.328 1.64-1.156h1.016C5.766-.641 4.781.187 3.344.187 1.578.188.484-1.046.484-3.108c0-2.063 1.125-3.36 2.875-3.36 1.172 0 2.141.625 2.547 1.657.172.468.25 1.046.25 1.953m-1.062-.89c0-.984-.766-1.797-1.75-1.797-1 0-1.719.766-1.797 1.875h3.531c.016-.031.016-.078.016-.078m0 0"/>
    </symbol>
    <symbol overflow="visible" id="j">
      <path style="stroke:none" d="M9.125 0h-1v-4.328c0-.797-.422-1.266-1.156-1.266-.813 0-1.485.735-1.485 1.64V0h-1v-4.328c0-.813-.421-1.266-1.156-1.266-.812 0-1.484.735-1.484 1.64V0H.859v-6.281h.907v.875c.53-.75 1.093-1.063 1.937-1.063.813 0 1.313.282 1.688.953.578-.703 1.093-.953 1.922-.953 1.187 0 1.812.625 1.812 1.75zm0 0"/>
    </symbol>
    <symbol overflow="visible" id="k">
      <path style="stroke:none" d="M6.422-.031c-.328.094-.484.11-.688.11-.484 0-.921-.345-1.03-.829a2.92 2.92 0 0 1-2.141.938C1.297.188.5-.485.5-1.625c0-.781.375-1.344 1.11-1.64.374-.157.593-.204 2.015-.376.797-.109 1.047-.28 1.047-.703v-.265c0-.594-.516-.938-1.406-.938-.938 0-1.391.344-1.485 1.125h-1c.063-1.453 1-2.047 2.516-2.047 1.547 0 2.36.594 2.36 1.719v3.5c0 .313.202.5.546.5.063 0 .11 0 .219-.031zm-1.75-2.14v-.938c-.344.156-.563.203-1.61.343-1.078.157-1.515.454-1.515 1.11 0 .687.453.953 1.234.953.969 0 1.89-.563 1.89-1.469m0 0"/>
    </symbol>
    <symbol overflow="visible" id="l">
      <path style="stroke:none" d="M1.813 0h-1v-8.75h1zm0 0"/>
    </symbol>
    <symbol overflow="visible" id="m">
      <path style="stroke:none" d="M0-7.844v1.25l-2.625.907v3.375L0-1.391v1.188l-8.75-3.125v-1.438zm-3.562 2.469-3.985 1.344 3.984 1.437zm0 0"/>
    </symbol>
    <symbol overflow="visible" id="n">
      <path style="stroke:none" d="M0-8.516v.72l-1.156.265c.953.86 1.375 1.812 1.375 3 0 2.36-1.813 4-4.5 4-2.625 0-4.688-1.516-4.688-4.203 0-2 1.094-3.344 2.875-3.657v1.141c-1.125.234-1.89 1.203-1.89 2.531 0 1.844 1.5 3.078 3.64 3.078S-.766-2.797-.766-4.78c0-1.594-1.078-2.75-2.625-2.75h-.25v2.672h-.984v-3.657zm0 0"/>
    </symbol>
    <symbol overflow="visible" id="o">
      <path style="stroke:none" d="M0-7.36v6.282h-8.75v-6.063h.984v4.938h2.797v-4.75h.985v4.75h3V-7.36zm0 0"/>
    </symbol>
    <symbol overflow="visible" id="p">
      <path style="stroke:none" d="M6.078-4.094c0 2.797-.984 4.282-2.781 4.282C1.469.188.516-1.297.516-4.156s.953-4.36 2.78-4.36c1.845 0 2.782 1.47 2.782 4.422M5-4.187c0-2.282-.562-3.391-1.703-3.391-1.14 0-1.703 1.094-1.703 3.422S2.156-.703 3.28-.703C4.453-.703 5-1.781 5-4.187m0 0"/>
    </symbol>
    <symbol overflow="visible" id="s">
      <path style="stroke:none" d="M4.156 0H3.11v-6.062H1.22v-.75c1.64-.204 1.875-.391 2.25-1.704h.687zm0 0"/>
    </symbol>
    <symbol overflow="visible" id="q">
      <path style="stroke:none" d="M6.156-2.812c0 1.796-1.203 3-2.922 3-1.5 0-2.468-.672-2.812-2.375h1.047c.265.968.828 1.437 1.75 1.437 1.156 0 1.86-.703 1.86-1.922 0-1.265-.72-2-1.86-2-.656 0-1.078.203-1.563.797H.688l.625-4.453h4.406v1.047H2.172l-.328 2.187c.484-.36.968-.515 1.562-.515 1.64 0 2.75 1.109 2.75 2.797m0 0"/>
    </symbol>
    <symbol overflow="visible" id="r">
      <path style="stroke:none" d="M6.078-4.094c0 2.797-.984 4.282-2.781 4.282C1.469.188.516-1.297.516-4.156s.953-4.36 2.78-4.36c1.845 0 2.782 1.47 2.782 4.422M5-4.187c0-2.282-.562-3.391-1.703-3.391-1.14 0-1.703 1.094-1.703 3.422S2.156-.703 3.28-.703C4.453-.703 5-1.781 5-4.187m0 0"/>
    </symbol>
    <symbol overflow="visible" id="t">
      <path style="stroke:none" d="M11.188-8.75 8.766 0H7.14L5.67-6.828 4.25 0H2.625L.156-8.75h1.907l1.359 6.547 1.36-6.547h1.765l1.422 6.563L9.28-8.75zm0 0"/>
    </symbol>
    <symbol overflow="visible" id="u">
      <path style="stroke:none" d="M7.484 0H.954v-8.75h6.312v1.5H2.75v1.984h4.188v1.5H2.75V-1.5h4.734zm0 0"/>
    </symbol>
    <symbol overflow="visible" id="x">
      <path style="stroke:none" d="M7.89 0H6.079v-3.969H2.61V0H.813v-8.75h1.796v3.281h3.47V-8.75H7.89zm0 0"/>
    </symbol>
    <symbol overflow="visible" id="v">
      <path style="stroke:none" d="M2.563 0H.75v-8.75h1.813zm0 0"/>
    </symbol>
    <symbol overflow="visible" id="w">
      <path style="stroke:none" d="M8.531 0H7.453l-.219-1.203C6.563-.281 5.766.14 4.594.14 2.234.14.5-1.734.5-4.375c0-2.734 1.719-4.516 4.234-4.516 2.125 0 3.579 1.141 3.797 2.938H6.844C6.484-6.97 5.734-7.36 4.75-7.36c-1.516 0-2.453 1.078-2.453 2.953 0 1.797 1.047 3.015 2.5 3.015 1.078 0 2.11-.718 2.219-1.812H5.03v-1.5h3.5zm0 0"/>
    </symbol>
    <symbol overflow="visible" id="y">
      <path style="stroke:none" d="M7.172-7.25H4.625V0H2.813v-7.25H.172v-1.5h7zm0 0"/>
    </symbol>
    <symbol overflow="visible" id="z">
      <path style="stroke:none" d="M6.938 2.266H-.266v-.828h7.204zm0 0"/>
    </symbol>
    <symbol overflow="visible" id="A">
      <path style="stroke:none" d="M6.266-2.25C6.109-.86 5.016.11 3.438.11 1.53.11.406-1.063.406-3.188c0-2.22 1.125-3.407 3.063-3.407 1.625 0 2.672.953 2.797 2.532h-1.61c-.187-.844-.515-1.172-1.203-1.172-1.047 0-1.36.859-1.36 2.047 0 1.25.516 1.937 1.36 1.937.656 0 .985-.328 1.203-1zm0 0"/>
    </symbol>
    <symbol overflow="visible" id="B">
      <path style="stroke:none" d="M6.281 0H4.47c-.157-.187-.203-.484-.203-.812-.578.609-1.235.921-1.97.921C1.22.11.345-.484.345-1.75c0-1.172.61-1.734 1.906-1.953l.672-.125c.828-.14 1.344-.078 1.344-.75q0-.657-.985-.656c-.828 0-1.094.218-1.187.89H.484c.11-1.5 1.016-2.25 2.766-2.25s2.656.672 2.656 2V-1c0 .344.078.516.375.797zM4.266-2.766v-.296c-.203.093-.266.124-.72.203l-.577.109c-.688.14-.953.313-.953.813 0 .468.343.687.906.687.86 0 1.344-.547 1.344-1.516m0 0"/>
    </symbol>
    <symbol overflow="visible" id="C">
      <path style="stroke:none" d="M3.61 0c-.297.016-.594.047-.97.047C1.532.047 1-.375 1-1.391v-3.843H.172v-1.11H1v-1.75h1.672v1.75h.937v1.11h-.937v3.39c0 .578.11.703.562.703.11 0 .204-.015.375-.03zm0 0"/>
    </symbol>
    <symbol overflow="visible" id="I">
      <path style="stroke:none" d="M5.828 0h-.984v-4.36c0-.827-.594-1.234-1.297-1.234-1.031 0-1.703.844-1.703 2.125V0h-1v-8.75h1v3.328c.578-.766 1.125-1.047 2.015-1.047 1.22 0 1.97.657 1.97 1.719zm0 0"/>
    </symbol>
    <symbol overflow="visible" id="J">
      <path style="stroke:none" d="M6.156-2.86H1.531c.016 1.438.797 2.11 1.844 2.11.797 0 1.36-.328 1.64-1.156h1.016C5.766-.641 4.781.187 3.344.187 1.578.188.484-1.046.484-3.108c0-2.063 1.125-3.36 2.875-3.36 1.172 0 2.141.625 2.547 1.657.172.468.25 1.046.25 1.953m-1.062-.89c0-.984-.766-1.797-1.75-1.797-1 0-1.719.766-1.797 1.875h3.531c.016-.031.016-.078.016-.078m0 0"/>
    </symbol>
    <symbol overflow="visible" id="K">
      <path style="stroke:none" d="M6.422-.031c-.328.094-.484.11-.688.11-.484 0-.921-.345-1.03-.829a2.92 2.92 0 0 1-2.141.938C1.297.188.5-.485.5-1.625c0-.781.375-1.344 1.11-1.64.374-.157.593-.204 2.015-.376.797-.109 1.047-.28 1.047-.703v-.265c0-.594-.516-.938-1.406-.938-.938 0-1.391.344-1.485 1.125h-1c.063-1.453 1-2.047 2.516-2.047 1.547 0 2.36.594 2.36 1.719v3.5c0 .313.202.5.546.5.063 0 .11 0 .219-.031zm-1.75-2.14v-.938c-.344.156-.563.203-1.61.343-1.078.157-1.515.454-1.515 1.11 0 .687.453.953 1.234.953.969 0 1.89-.563 1.89-1.469m0 0"/>
    </symbol>
    <symbol overflow="visible" id="L">
      <path style="stroke:none" d="M5.828-6.281 3.422 0H2.328L.125-6.281H1.25l1.672 5.094 1.781-5.094zm0 0"/>
    </symbol>
    <symbol overflow="visible" id="M">
      <path style="stroke:none" d="M5.734-6.281 2.938 1.313c-.329.906-.907 1.296-1.626 1.296-.25 0-.453-.046-.671-.156v-.89c.218.046.39.062.53.062.438 0 .642-.156.813-.61L2.36.032.234-6.28h1.079l1.609 4.89 1.734-4.89zm0 0"/>
    </symbol>
  </defs>
  <path style="fill:#fff;fill-opacity:1;stroke:none" d="M0 0h576v432H0z"/>
  <path style="stroke:none;fill-rule:nonzero;fill:#fff;fill-opacity:1" d="M57 384h402V12H57Zm0 0"/>
  <path style="fill:none;stroke-width:1;stroke-linecap:butt;stroke-linejoin:miter;stroke:#000;stroke-opacity:.12;stroke-miterlimit:2" d="M217.526 512V16m292.906 496V16M76 460.86h536M76 260.958h536M76 61.063h536" transform="scale(.75)"/>
  <use xlink:href="#a" x="245.994" y="418.344" style="fill:#000;fill-opacity:1"/>
  <use xlink:href="#b" x="253.998" y="418.344" style="fill:#000;fill-opacity:1"/>
  <use xlink:href="#c" x="262.002" y="418.344" style="fill:#000;fill-opacity:1"/>
  <use xlink:href="#d" x="145.139" y="402.114" style="fill:#000;fill-opacity:1"/>
  <use xlink:href="#e" x="148.475" y="402.114" style="fill:#000;fill-opacity:1"/>
  <use xlink:href="#f" x="155.147" y="402.114" style="fill:#000;fill-opacity:1"/>
  <use xlink:href="#g" x="165.143" y="402.114" style="fill:#000;fill-opacity:1"/>
  <use xlink:href="#h" x="171.815" y="402.114" style="fill:#000;fill-opacity:1"/>
  <use xlink:href="#i" x="174.479" y="402.114" style="fill:#000;fill-opacity:1"/>
  <use xlink:href="#j" x="369.823" y="402.114" style="fill:#000;fill-opacity:1"/>
  <use xlink:href="#k" x="379.819" y="402.114" style="fill:#000;fill-opacity:1"/>
  <use xlink:href="#l" x="386.491" y="402.114" style="fill:#000;fill-opacity:1"/>
  <use xlink:href="#e" x="389.155" y="402.114" style="fill:#000;fill-opacity:1"/>
  <use xlink:href="#m" x="22.368" y="210.672" style="fill:#000;fill-opacity:1"/>
  <use xlink:href="#n" x="22.368" y="202.668" style="fill:#000;fill-opacity:1"/>
  <use xlink:href="#o" x="22.368" y="193.332" style="fill:#000;fill-opacity:1"/>
  <use xlink:href="#p" x="42.078" y="350.018" style="fill:#000;fill-opacity:1"/>
  <use xlink:href="#q" x="35.406" y="200.094" style="fill:#000;fill-opacity:1"/>
  <use xlink:href="#r" x="42.078" y="200.094" style="fill:#000;fill-opacity:1"/>
  <use xlink:href="#s" x="28.734" y="50.169" style="fill:#000;fill-opacity:1"/>
  <use xlink:href="#p" x="35.406" y="50.169" style="fill:#000;fill-opacity:1"/>
  <use xlink:href="#p" x="42.078" y="50.169" style="fill:#000;fill-opacity:1"/>
  <path style="stroke:none;fill-rule:nonzero;fill:#0072b2;fill-opacity:1" d="M163.145 115.129h-.004v1.973l-.004.984v.984l-.004.985-.004.988-.024 2.953-.011.988-.016.985-.02.984-.027.984-.031.985-.035.988-.047.985-.055.984-.066.984-.082.989-.094.984-.11.984-.128.985-.153.984-.171.988-.196.985-.218.984-.247.984-.273.989-.305.984-.332.984-.355.985-.387.988-.414.985-.437.984-.461.984-.48.985-.5.988-.517.984-.53.985-.54.984-.55.988-.56.985-.562.984-.57.984-.578.985-.586.988-.598.984-.613.985-.633.984-.652.989-.684.984-.715.984-.757.985-.801.984-.852.988-.91.985-.965.984-1.031.984-1.094.989-1.156.984-1.223.984-1.277.985-1.336.988-1.387.984-1.43.985-1.464.984-1.488.985-1.504.988-1.512.984-1.508.985-1.492.984-1.469.988-1.437.985-1.395.984-1.351.984-1.301.985-1.246.988-1.192.984-1.144.985-1.09.984-1.05.988-1.013.985-.984.984-.965.985-.957.988-.96.984-.973.985-1.004.984-1.035.984-1.079.989-1.132.984-1.188.984-1.25.985-1.305.988-1.363.984-1.418.985-1.46.984-1.497.985-1.52.988-1.527.984-1.523.985-1.504.984-1.465.988-1.414.985-1.348.984-1.265.984-1.172.989-1.067.984-.953.984-.832.985-.707.984-.574.988-.445.985-.309.984-.18.985-.043.988.086.984.211.985.34.984.465.984.586.989.71.984.833.984.95.985 1.07.988 1.187.984 1.309.985 1.421.984 1.536.988 1.648.985 1.758.984 1.86.985 1.956.984 2.051.988 2.133.985 2.207.984 2.277.984 2.332.989 2.375.984 2.414.984 2.438.985 2.453.984 2.453.988 2.45.985 2.429.984 2.402.985 2.371.988 2.325.984 2.273.985 2.215.984 2.148.984 2.082.989 2.004.984 1.926.984 1.844.985 1.754.988 1.668.984 1.574.985 1.488.984 1.39.988 1.298.985 1.207.984 1.117.985 1.027.984.942.988.855.985.777.984.7.984.629.989.554.984.496.984.434.985.383.984.328.988.285.985.246.984.211.985.176.988.148.984.125.985.106.984.086.988.07.985.055.984.047.984.039.985.027.988.023.984.02.985.012.984.011.988.016 1.97.008 1.968.004.988v.985l.004.984v.984h.004Zm0 0"/>
  <path style="stroke:none;fill-rule:nonzero;fill:#e69f00;fill-opacity:1" d="M163.145 350.71h.003v-2.855l.004-1.425V345l.008-2.852.008-1.43.008-1.425.012-1.426.011-1.43.02-1.425.023-1.426.031-1.43.036-1.426.046-1.425.06-1.426.07-1.43.09-1.426.105-1.425.129-1.43.152-1.426.18-1.426.214-1.43.247-1.425.289-1.426.328-1.43.375-1.425.426-1.426.476-1.43.527-1.426.586-1.425.641-1.43.695-1.426.754-1.426.805-1.43.86-1.425.91-1.426.956-1.426 1.004-1.43 1.04-1.425 1.078-1.426 1.109-1.43 1.14-1.425 1.165-1.426 1.187-1.43 1.211-1.426 1.23-1.425 1.25-1.43 1.274-1.426 1.289-1.426 1.316-1.43 1.336-1.425 1.36-1.426 1.386-1.43 1.415-1.425 1.44-1.426 1.466-1.426 1.484-1.43 1.508-1.425 1.52-1.426 1.527-1.43 1.527-1.426 1.52-1.425 1.504-1.43 1.476-1.426 1.438-1.426 1.386-1.43 1.332-1.425 1.266-1.426 1.191-1.43 1.114-1.425 1.023-1.426.938-1.43.851-1.426.758-1.425.676-1.426.594-1.43.515-1.426.446-1.425.382-1.43.325-1.426.28-1.426.24-1.43.206-1.425.176-1.426.156-1.43.133-1.425.117-1.426.102-1.43.082-1.426.058-1.425.032-1.43-.008-1.426-.047-1.426-.098-1.425-.168-1.43-.238-1.426-.332-1.426-.43-1.43-.543-1.425-.664-1.426-.8-1.43-.942-1.425-1.09-1.426-1.238-1.43-1.395-1.426-1.543-1.425-1.687-1.43-1.82-1.426-1.95-1.426-2.062-1.43-2.156-1.425-2.235-1.426-2.289-1.426-2.324-1.43-2.34-1.425-2.332-1.426-2.305-1.43-2.253-1.425-2.184-1.426-2.094-1.43-1.992-1.426-1.875-1.425-1.742-1.43-1.602-1.426-1.453-1.426-1.305-1.43-1.144-1.425-.992-1.426-.836-1.43-.684-1.425-.535-1.426-.394-1.426-.266-1.43-.14-1.425-.032-1.426.07-1.43.157-1.426.23-1.426.29-1.43.331-1.425.36-1.426.375-1.43.375-1.425.359-1.426.332-1.43.293-1.425.242-1.426.184-1.43.117-1.426.047-1.426-.032-1.43-.101-1.425-.176-1.426-.25-1.426-.316-1.43-.375-1.425-.43-1.426-.477-1.43-.511-1.425-.535-1.426-.559-1.43-.562-1.426-.567-1.425-.555-1.43-.539-1.426-.52-1.426-.491-1.43-.465-1.425-.43-1.426-.394-1.43-.36-1.425-.324-1.426-.29-1.426-.253-1.43-.223-1.425-.191-1.426-.168-1.43-.14-1.426-.122-1.425-.097-1.43-.086-1.426-.067-1.426-.054-1.43-.047-1.425-.035-1.426-.028-1.43-.023-1.425-.02-1.426-.012-1.43-.011-1.426-.016-2.851-.004-1.43-.004-1.426v-1.425l-.004-1.43v-2.852h-.003Zm0 0"/>
  <path style="stroke:none;fill-rule:nonzero;fill:#0072b2;fill-opacity:1" d="M382.824 28.91h-.004v5.098l-.004 1.699v1.7l-.011 5.097-.016 3.398-.012 1.7-.015 1.699-.02 1.699-.023 1.7-.028 1.698-.035 1.7-.043 1.703-.05 1.699-.063 1.7-.07 1.698-.086 1.7-.102 1.699-.117 1.7-.133 1.698-.152 1.7-.176 1.699-.195 1.699-.215 1.7-.242 1.698-.262 1.7-.285 1.699-.313 1.7-.332 1.698-.351 1.7-.371 1.699-.391 1.699-.406 1.703-.418 1.7-.43 1.698-.437 1.7-.442 1.699-1.336 5.098-.875 3.398-.425 1.7-.422 1.698-.41 1.7-.407 1.699-.398 1.7-.39 1.698-.766 3.399-1.137 5.097-.383 1.704-.387 1.699-.394 1.699-.403 1.7-.414 1.698-.425 1.7-.442 1.699-.45 1.7-.464 1.698-.476 1.7-.489 1.699-.5 1.699-.504 1.7-.511 1.698-.516 1.7-.52 1.699-1.023 3.398-.504 1.7-.496 1.699-.488 1.699-.48 1.703-.481 1.7-.477 1.698-.48 1.7-.488 1.699-.508 1.7-.54 1.698-.57 1.7-.62 1.699-.68 1.699-.747 1.7-.828 1.698-.91 1.7-1.008 1.699-1.101 1.7-1.2 1.698-1.3 1.7-1.39 1.699-1.477 1.699-1.551 1.7-1.613 1.698-1.657 1.704-1.683 1.699-1.692 1.699-1.675 1.7-1.641 1.698-1.582 1.7-1.508 1.699-1.414 1.7-1.297 1.698-1.172 1.7-1.031 1.699-.879 1.699-.723 1.7-.562 1.698-.395 1.7-.23 1.699-.063 1.7.098 1.698.258 1.7.414 1.699.562 1.699.715 1.703.852 1.7.992 1.698 1.121 1.7 1.25 1.699 1.367 1.7 1.48 1.698 1.59 1.7 1.684 1.699 1.77 1.699 1.847 1.7 1.91 1.698 1.958 1.7 1.996 1.699 2.015 1.7 2.02 1.698 2.012 1.7 1.984 1.699 1.945 1.699 1.89 1.7 1.829 1.698 1.754 1.704 1.668 1.699 1.582 1.699 1.484 1.7 1.39 1.698 1.298 1.7 1.203 1.699 1.113 1.7 1.028 1.698.945 1.7.875 1.699.805 1.699.742 1.7.691 1.698.64 1.7.602 1.699.559 1.7.527 1.698.492 1.7.47 1.699.437 1.699.414 1.703.39 1.7.368 1.699.343 1.699.32 1.699.298 1.7.273 1.698.25 1.7.23 1.699.207 1.699.184 1.7.164 1.698.149 1.7.128 1.699.11 1.7.097 1.698.082 1.7.07 1.699.063 1.699.047 1.7.043 1.702.035 1.7.028 1.699.039 3.398.015 1.7.012 1.699.016 3.398.011 5.098v1.699l.004 1.7v5.097h.004Zm0 0"/>
  <path style="stroke:none;fill-rule:nonzero;fill:#e69f00;fill-opacity:1" d="M382.824 347.555h.008v-3.102l.004-1.55v-1.551l.004-1.551.023-4.653.012-1.55.016-1.547.015-1.551.055-3.102.039-1.55.043-1.551.059-1.55.07-1.552.082-1.55.101-1.551.122-1.551.144-1.55.176-1.548.2-1.55.237-1.551.278-1.551.32-1.55.363-1.552.422-1.55.473-1.551.535-1.55.602-1.552.668-1.55.742-1.551.812-1.547.89-1.55.97-1.552 1.046-1.55 1.122-1.551 1.199-1.551 1.27-1.55 1.34-1.552 1.401-1.55 1.465-1.551 1.516-1.551 1.562-1.55 1.598-1.548 1.629-1.55 1.652-1.551 1.66-1.551 1.668-1.55 1.665-1.552 1.648-1.55 1.633-1.551 1.601-1.55 1.57-1.552 1.536-1.55 1.488-1.551 1.445-1.547 1.395-1.55 1.344-1.552 1.289-1.55 1.238-1.551 1.184-1.551 1.129-1.55 1.074-1.552 1.015-1.55.961-1.551.907-1.55.843-1.552.782-1.547.714-1.55.649-1.551.574-1.55.492-1.552.414-1.55.32-1.551.231-1.551.125-1.55.024-1.552-.086-1.55-.2-1.551-.312-1.547-.426-1.55-.543-1.552-.656-1.55-.766-1.551-.863-1.55-.965-1.552-1.047-1.55-1.125-1.551-1.191-1.551-1.242-1.55-1.29-1.552-1.312-1.547-1.328-1.55-1.332-1.551-1.324-1.55-1.305-1.552-1.277-1.55-1.242-1.551-1.196-1.551-1.152-1.55-1.098-1.552-1.047-1.55-.992-1.547-.945-1.551-.895-1.55-.851-1.552-.809-1.55-.777-1.551-.75-1.55-.727-1.552-.707-1.55-.691-1.551-.684-1.551-.68-1.55-.675-1.548-.676-1.55-.668-1.551-.672-1.551-.664-1.55-.656-1.552-.649-1.55-.632-1.551-.614-1.55-.59-1.552-.562-1.55-.531-1.551-.496-1.547-.457-1.55-.414-1.552-.375-1.55-.333-1.551-.293-1.551-.257-1.55-.22-1.552-.19-1.55-.165-1.551-.148-1.55-.133-1.552-.129-1.547-.129-1.55-.136-1.551-.149-1.55-.172-1.552-.195-1.55-.226-1.551-.254-1.551-.29-1.55-.328-1.552-.359-1.55-.39-1.551-.426-1.547-.45-1.55-.472-1.552-.496-1.55-.508-1.551-.516-1.551-1.039-3.102-.515-1.55-.5-1.551-.485-1.55-.469-1.552-.445-1.547-.418-1.55-.394-1.551-.364-1.55-.336-1.552-.308-1.55-.281-1.551-.25-1.551-.227-1.55-.2-1.552-.175-1.55-.152-1.551-.133-1.547-.117-1.55-.098-1.552-.082-1.55-.07-1.551-.059-1.55-.05-1.552-.04-1.55-.035-1.551-.027-1.551-.024-1.55-.015-1.552-.016-1.546-.012-1.551-.015-3.102-.016-6.203v-4.652h-.008Zm0 0"/>
  <path style="fill:none;stroke-width:1.5;stroke-linecap:butt;stroke-linejoin:miter;stroke:#000;stroke-opacity:1;stroke-miterlimit:2" d="M103.755 297.563h113.771m0 .072h82.026m135.552-11.838h75.328m0 4.016h75.13" transform="scale(.75)"/>
  <path style="fill-rule:nonzero;fill:#fff;fill-opacity:1;stroke-width:1;stroke-linecap:butt;stroke-linejoin:miter;stroke:#000;stroke-opacity:1;stroke-miterlimit:2" d="M636 307h116v-86H636Zm0 0" transform="scale(.75)"/>
  <path style="fill:none;stroke-width:1;stroke-linecap:butt;stroke-linejoin:miter;stroke:#000;stroke-opacity:1;stroke-miterlimit:2" d="M217.526 512.5v6m292.906-6v6M75.5 460.86h-6m6-199.902h-6m6-199.895h-6" transform="scale(.75)"/>
  <path style="stroke:none;fill-rule:nonzero;fill:#0072b2;fill-opacity:1" d="M495.117 206.863h15v-15h-15Zm0 0"/>
  <path style="stroke:none;fill-rule:nonzero;fill:#e69f00;fill-opacity:1" d="M495.117 224.113h15v-15h-15Zm0 0"/>
  <use xlink:href="#t" x="484.494" y="183.249" style="fill:#000;fill-opacity:1"/>
  <use xlink:href="#u" x="495.822" y="183.249" style="fill:#000;fill-opacity:1"/>
  <use xlink:href="#v" x="503.826" y="183.249" style="fill:#000;fill-opacity:1"/>
  <use xlink:href="#w" x="507.162" y="183.249" style="fill:#000;fill-opacity:1"/>
  <use xlink:href="#x" x="516.498" y="183.249" style="fill:#000;fill-opacity:1"/>
  <use xlink:href="#y" x="525.162" y="183.249" style="fill:#000;fill-opacity:1"/>
  <use xlink:href="#z" x="532.494" y="183.249" style="fill:#000;fill-opacity:1"/>
  <use xlink:href="#A" x="539.166" y="183.249" style="fill:#000;fill-opacity:1"/>
  <use xlink:href="#B" x="545.838" y="183.249" style="fill:#000;fill-opacity:1"/>
  <use xlink:href="#C" x="552.51" y="183.249" style="fill:#000;fill-opacity:1"/>
  <use xlink:href="#D" x="513.867" y="203.739" style="fill:#000;fill-opacity:1"/>
  <use xlink:href="#E" x="516.531" y="203.739" style="fill:#000;fill-opacity:1"/>
  <use xlink:href="#F" x="519.195" y="203.739" style="fill:#000;fill-opacity:1"/>
  <use xlink:href="#G" x="525.867" y="203.739" style="fill:#000;fill-opacity:1"/>
  <use xlink:href="#H" x="532.539" y="203.739" style="fill:#000;fill-opacity:1"/>
  <use xlink:href="#I" x="513.867" y="220.989" style="fill:#000;fill-opacity:1"/>
  <use xlink:href="#J" x="520.539" y="220.989" style="fill:#000;fill-opacity:1"/>
  <use xlink:href="#K" x="527.211" y="220.989" style="fill:#000;fill-opacity:1"/>
  <use xlink:href="#L" x="533.883" y="220.989" style="fill:#000;fill-opacity:1"/>
  <use xlink:href="#M" x="539.883" y="220.989" style="fill:#000;fill-opacity:1"/>
  <path style="fill:none;stroke-width:1;stroke-linecap:butt;stroke-linejoin:miter;stroke:#000;stroke-opacity:1;stroke-miterlimit:2" d="M75.5 512h537m-536.5.5v-497m-.5.5h537m-.5 496.5v-497" transform="scale(.75)"/>
</svg>
