<svg xmlns="http://www.w3.org/2000/svg" width="375.328125" height="412.65625" role="img"><rect width="375.328125" height="412.65625" fill="#ffffff"></rect><g transform="translate(120,10)"><g><rect x="228.3046875" y="337.015625" width="16.5234375" height="16.5234375" rx="3" ry="3" opacity="1" fill="#e8c1a0" stroke="rgb(208, 173, 144)" stroke-width="0"></rect><rect x="210.78125" y="337.015625" width="16.5234375" height="16.5234375" rx="3" ry="3" opacity="1" fill="#e8c1a0" stroke="rgb(208, 173, 144)" stroke-width="0"></rect><rect x="193.2578125" y="337.015625" width="16.5234375" height="16.5234375" rx="3" ry="3" opacity="1" fill="#e8c1a0" stroke="rgb(208, 173, 144)" stroke-width="0"></rect><rect x="175.734375" y="337.015625" width="16.5234375" height="16.5234375" rx="3" ry="3" opacity="1" fill="#e8c1a0" stroke="rgb(208, 173, 144)" stroke-width="0"></rect><rect x="158.2109375" y="337.015625" width="16.5234375" height="16.5234375" rx="3" ry="3" opacity="1" fill="#e8c1a0" stroke="rgb(208, 173, 144)" stroke-width="0"></rect><rect x="140.6875" y="337.015625" width="16.5234375" height="16.5234375" rx="3" ry="3" opacity="1" fill="#e8c1a0" stroke="rgb(208, 173, 144)" stroke-width="0"></rect><rect x="123.1640625" y="337.015625" width="16.5234375" height="16.5234375" rx="3" ry="3" opacity="1" fill="#e8c1a0" stroke="rgb(208, 173, 144)" stroke-width="0"></rect><rect x="105.640625" y="337.015625" width="16.5234375" height="16.5234375" rx="3" ry="3" opacity="1" fill="#e8c1a0" stroke="rgb(208, 173, 144)" stroke-width="0"></rect><rect x="88.1171875" y="337.015625" width="16.5234375" height="16.5234375" rx="3" ry="3" opacity="1" fill="#e8c1a0" stroke="rgb(208, 173, 144)" stroke-width="0"></rect><rect x="70.59375" y="337.015625" width="16.5234375" height="16.5234375" rx="3" ry="3" opacity="1" fill="#e8c1a0" stroke="rgb(208, 173, 144)" stroke-width="0"></rect><rect x="53.0703125" y="337.015625" width="16.5234375" height="16.5234375" rx="3" ry="3" opacity="1" fill="#e8c1a0" stroke="rgb(208, 173, 144)" stroke-width="0"></rect><rect x="35.546875" y="337.015625" width="16.5234375" height="16.5234375" rx="3" ry="3" opacity="1" fill="#e8c1a0" stroke="rgb(208, 173, 144)" stroke-width="0"></rect><rect x="18.0234375" y="337.015625" width="16.5234375" height="16.5234375" rx="3" ry="3" opacity="1" fill="#e8c1a0" stroke="rgb(208, 173, 144)" stroke-width="0"></rect><rect x="0.5" y="337.015625" width="16.5234375" height="16.5234375" rx="3" ry="3" opacity="1" fill="#e8c1a0" stroke="rgb(208, 173, 144)" stroke-width="0"></rect><rect x="228.3046875" y="319.4921875" width="16.5234375" height="16.5234375" rx="3" ry="3" opacity="1" fill="#e8c1a0" stroke="rgb(208, 173, 144)" stroke-width="0"></rect><rect x="210.78125" y="319.4921875" width="16.5234375" height="16.5234375" rx="3" ry="3" opacity="1" fill="#e8c1a0" stroke="rgb(208, 173, 144)" stroke-width="0"></rect><rect x="193.2578125" y="319.4921875" width="16.5234375" height="16.5234375" rx="3" ry="3" opacity="1" fill="#e8c1a0" stroke="rgb(208, 173, 144)" stroke-width="0"></rect><rect x="175.734375" y="319.4921875" width="16.5234375" height="16.5234375" rx="3" ry="3" opacity="1" fill="#e8c1a0" stroke="rgb(208, 173, 144)" stroke-width="0"></rect><rect x="158.2109375" y="319.4921875" width="16.5234375" height="16.5234375" rx="3" ry="3" opacity="1" fill="#e8c1a0" stroke="rgb(208, 173, 144)" stroke-width="0"></rect><rect x="140.6875" y="319.4921875" width="16.5234375" height="16.5234375" rx="3" ry="3" opacity="1" fill="#e8c1a0" stroke="rgb(208, 173, 144)" stroke-width="0"></rect><rect x="123.1640625" y="319.4921875" width="16.5234375" height="16.5234375" rx="3" ry="3" opacity="1" fill="#e8c1a0" stroke="rgb(208, 173, 144)" stroke-width="0"></rect><rect x="105.640625" y="319.4921875" width="16.5234375" height="16.5234375" rx="3" ry="3" opacity="1" fill="#e8c1a0" stroke="rgb(208, 173, 144)" stroke-width="0"></rect><rect x="88.1171875" y="319.4921875" width="16.5234375" height="16.5234375" rx="3" ry="3" opacity="1" fill="#e8c1a0" stroke="rgb(208, 173, 144)" stroke-width="0"></rect><rect x="70.59375" y="319.4921875" width="16.5234375" height="16.5234375" rx="3" ry="3" opacity="1" fill="#e8c1a0" stroke="rgb(208, 173, 144)" stroke-width="0"></rect><rect x="53.0703125" y="319.4921875" width="16.5234375" height="16.5234375" rx="3" ry="3" opacity="1" fill="#e8c1a0" stroke="rgb(208, 173, 144)" stroke-width="0"></rect><rect x="35.546875" y="319.4921875" width="16.5234375" height="16.5234375" rx="3" ry="3" opacity="1" fill="#e8c1a0" stroke="rgb(208, 173, 144)" stroke-width="0"></rect><rect x="18.0234375" y="319.4921875" width="16.5234375" height="16.5234375" rx="3" ry="3" opacity="1" fill="#e8c1a0" stroke="rgb(208, 173, 144)" stroke-width="0"></rect><rect x="0.5" y="319.4921875" width="16.5234375" height="16.5234375" rx="3" ry="3" opacity="1" fill="#e8c1a0" stroke="rgb(208, 173, 144)" stroke-width="0"></rect><rect x="228.3046875" y="301.96875" width="16.5234375" height="16.5234375" rx="3" ry="3" opacity="1" fill="#e8c1a0" stroke="rgb(208, 173, 144)" stroke-width="0"></rect><rect x="210.78125" y="301.96875" width="16.5234375" height="16.5234375" rx="3" ry="3" opacity="1" fill="#e8c1a0" stroke="rgb(208, 173, 144)" stroke-width="0"></rect><rect x="193.2578125" y="301.96875" width="16.5234375" height="16.5234375" rx="3" ry="3" opacity="1" fill="#e8c1a0" stroke="rgb(208, 173, 144)" stroke-width="0"></rect><rect x="175.734375" y="301.96875" width="16.5234375" height="16.5234375" rx="3" ry="3" opacity="1" fill="#e8c1a0" stroke="rgb(208, 173, 144)" stroke-width="0"></rect><rect x="158.2109375" y="301.96875" width="16.5234375" height="16.5234375" rx="3" ry="3" opacity="1" fill="#e8c1a0" stroke="rgb(208, 173, 144)" stroke-width="0"></rect><rect x="140.6875" y="301.96875" width="16.5234375" height="16.5234375" rx="3" ry="3" opacity="1" fill="#e8c1a0" stroke="rgb(208, 173, 144)" stroke-width="0"></rect><rect x="123.1640625" y="301.96875" width="16.5234375" height="16.5234375" rx="3" ry="3" opacity="1" fill="#e8c1a0" stroke="rgb(208, 173, 144)" stroke-width="0"></rect><rect x="105.640625" y="301.96875" width="16.5234375" height="16.5234375" rx="3" ry="3" opacity="1" fill="#e8c1a0" stroke="rgb(208, 173, 144)" stroke-width="0"></rect><rect x="88.1171875" y="301.96875" width="16.5234375" height="16.5234375" rx="3" ry="3" opacity="1" fill="#e8c1a0" stroke="rgb(208, 173, 144)" stroke-width="0"></rect><rect x="70.59375" y="301.96875" width="16.5234375" height="16.5234375" rx="3" ry="3" opacity="1" fill="#e8c1a0" stroke="rgb(208, 173, 144)" stroke-width="0"></rect><rect x="53.0703125" y="301.96875" width="16.5234375" height="16.5234375" rx="3" ry="3" opacity="1" fill="#e8c1a0" stroke="rgb(208, 173, 144)" stroke-width="0"></rect><rect x="35.546875" y="301.96875" width="16.5234375" height="16.5234375" rx="3" ry="3" opacity="1" fill="#e8c1a0" stroke="rgb(208, 173, 144)" stroke-width="0"></rect><rect x="18.0234375" y="301.96875" width="16.5234375" height="16.5234375" rx="3" ry="3" opacity="1" fill="#e8c1a0" stroke="rgb(208, 173, 144)" stroke-width="0"></rect><rect x="0.5" y="301.96875" width="16.5234375" height="16.5234375" rx="3" ry="3" opacity="1" fill="#e8c1a0" stroke="rgb(208, 173, 144)" stroke-width="0"></rect><rect x="228.3046875" y="284.4453125" width="16.5234375" height="16.5234375" rx="3" ry="3" opacity="1" fill="#e8c1a0" stroke="rgb(208, 173, 144)" stroke-width="0"></rect><rect x="210.78125" y="284.4453125" width="16.5234375" height="16.5234375" rx="3" ry="3" opacity="1" fill="#e8c1a0" stroke="rgb(208, 173, 144)" stroke-width="0"></rect><rect x="193.2578125" y="284.4453125" width="16.5234375" height="16.5234375" rx="3" ry="3" opacity="1" fill="#e8c1a0" stroke="rgb(208, 173, 144)" stroke-width="0"></rect><rect x="175.734375" y="284.4453125" width="16.5234375" height="16.5234375" rx="3" ry="3" opacity="1" fill="#e8c1a0" stroke="rgb(208, 173, 144)" stroke-width="0"></rect><rect x="158.2109375" y="284.4453125" width="16.5234375" height="16.5234375" rx="3" ry="3" opacity="1" fill="#e8c1a0" stroke="rgb(208, 173, 144)" stroke-width="0"></rect><rect x="140.6875" y="284.4453125" width="16.5234375" height="16.5234375" rx="3" ry="3" opacity="1" fill="#e8c1a0" stroke="rgb(208, 173, 144)" stroke-width="0"></rect><rect x="123.1640625" y="284.4453125" width="16.5234375" height="16.5234375" rx="3" ry="3" opacity="1" fill="#e8c1a0" stroke="rgb(208, 173, 144)" stroke-width="0"></rect><rect x="105.640625" y="284.4453125" width="16.5234375" height="16.5234375" rx="3" ry="3" opacity="1" fill="#e8c1a0" stroke="rgb(208, 173, 144)" stroke-width="0"></rect><rect x="88.1171875" y="284.4453125" width="16.5234375" height="16.5234375" rx="3" ry="3" opacity="1" fill="#f47560" stroke="rgb(219, 105, 86)" stroke-width="0"></rect><rect x="70.59375" y="284.4453125" width="16.5234375" height="16.5234375" rx="3" ry="3" opacity="1" fill="#f47560" stroke="rgb(219, 105, 86)" stroke-width="0"></rect><rect x="53.0703125" y="284.4453125" width="16.5234375" height="16.5234375" rx="3" ry="3" opacity="1" fill="#f47560" stroke="rgb(219, 105, 86)" stroke-width="0"></rect><rect x="35.546875" y="284.4453125" width="16.5234375" height="16.5234375" rx="3" ry="3" opacity="1" fill="#f47560" stroke="rgb(219, 105, 86)" stroke-width="0"></rect><rect x="18.0234375" y="284.4453125" width="16.5234375" height="16.5234375" rx="3" ry="3" opacity="1" fill="#f47560" stroke="rgb(219, 105, 86)" stroke-width="0"></rect><rect x="0.5" y="284.4453125" width="16.5234375" height="16.5234375" rx="3" ry="3" opacity="1" fill="#f47560" stroke="rgb(219, 105, 86)" stroke-width="0"></rect><rect x="228.3046875" y="266.921875" width="16.5234375" height="16.5234375" rx="3" ry="3" opacity="1" fill="#f47560" stroke="rgb(219, 105, 86)" stroke-width="0"></rect><rect x="210.78125" y="266.921875" width="16.5234375" height="16.5234375" rx="3" ry="3" opacity="1" fill="#f47560" stroke="rgb(219, 105, 86)" stroke-width="0"></rect><rect x="193.2578125" y="266.921875" width="16.5234375" height="16.5234375" rx="3" ry="3" opacity="1" fill="#f47560" stroke="rgb(219, 105, 86)" stroke-width="0"></rect><rect x="175.734375" y="266.921875" width="16.5234375" height="16.5234375" rx="3" ry="3" opacity="1" fill="#f47560" stroke="rgb(219, 105, 86)" stroke-width="0"></rect><rect x="158.2109375" y="266.921875" width="16.5234375" height="16.5234375" rx="3" ry="3" opacity="1" fill="#f47560" stroke="rgb(219, 105, 86)" stroke-width="0"></rect><rect x="140.6875" y="266.921875" width="16.5234375" height="16.5234375" rx="3" ry="3" opacity="1" fill="#f47560" stroke="rgb(219, 105, 86)" stroke-width="0"></rect><rect x="123.1640625" y="266.921875" width="16.5234375" height="16.5234375" rx="3" ry="3" opacity="1" fill="#f47560" stroke="rgb(219, 105, 86)" stroke-width="0"></rect><rect x="105.640625" y="266.921875" width="16.5234375" height="16.5234375" rx="3" ry="3" opacity="1" fill="#f47560" stroke="rgb(219, 105, 86)" stroke-width="0"></rect><rect x="88.1171875" y="266.921875" width="16.5234375" height="16.5234375" rx="3" ry="3" opacity="1" fill="#f47560" stroke="rgb(219, 105, 86)" stroke-width="0"></rect><rect x="70.59375" y="266.921875" width="16.5234375" height="16.5234375" rx="3" ry="3" opacity="1" fill="#f47560" stroke="rgb(219, 105, 86)" stroke-width="0"></rect><rect x="53.0703125" y="266.921875" width="16.5234375" height="16.5234375" rx="3" ry="3" opacity="1" fill="#f47560" stroke="rgb(219, 105, 86)" stroke-width="0"></rect><rect x="35.546875" y="266.921875" width="16.5234375" height="16.5234375" rx="3" ry="3" opacity="1" fill="#f47560" stroke="rgb(219, 105, 86)" stroke-width="0"></rect><rect x="18.0234375" y="266.921875" width="16.5234375" height="16.5234375" rx="3" ry="3" opacity="1" fill="#f47560" stroke="rgb(219, 105, 86)" stroke-width="0"></rect><rect x="0.5" y="266.921875" width="16.5234375" height="16.5234375" rx="3" ry="3" opacity="1" fill="#f47560" stroke="rgb(219, 105, 86)" stroke-width="0"></rect><rect x="228.3046875" y="249.3984375" width="16.5234375" height="16.5234375" rx="3" ry="3" opacity="1" fill="#f47560" stroke="rgb(219, 105, 86)" stroke-width="0"></rect><rect x="210.78125" y="249.3984375" width="16.5234375" height="16.5234375" rx="3" ry="3" opacity="1" fill="#f47560" stroke="rgb(219, 105, 86)" stroke-width="0"></rect><rect x="193.2578125" y="249.3984375" width="16.5234375" height="16.5234375" rx="3" ry="3" opacity="1" fill="#f47560" stroke="rgb(219, 105, 86)" stroke-width="0"></rect><rect x="175.734375" y="249.3984375" width="16.5234375" height="16.5234375" rx="3" ry="3" opacity="1" fill="#f47560" stroke="rgb(219, 105, 86)" stroke-width="0"></rect><rect x="158.2109375" y="249.3984375" width="16.5234375" height="16.5234375" rx="3" ry="3" opacity="1" fill="#f47560" stroke="rgb(219, 105, 86)" stroke-width="0"></rect><rect x="140.6875" y="249.3984375" width="16.5234375" height="16.5234375" rx="3" ry="3" opacity="1" fill="#f47560" stroke="rgb(219, 105, 86)" stroke-width="0"></rect><rect x="123.1640625" y="249.3984375" width="16.5234375" height="16.5234375" rx="3" ry="3" opacity="1" fill="#f47560" stroke="rgb(219, 105, 86)" stroke-width="0"></rect><rect x="105.640625" y="249.3984375" width="16.5234375" height="16.5234375" rx="3" ry="3" opacity="1" fill="#f47560" stroke="rgb(219, 105, 86)" stroke-width="0"></rect><rect x="88.1171875" y="249.3984375" width="16.5234375" height="16.5234375" rx="3" ry="3" opacity="1" fill="#f47560" stroke="rgb(219, 105, 86)" stroke-width="0"></rect><rect x="70.59375" y="249.3984375" width="16.5234375" height="16.5234375" rx="3" ry="3" opacity="1" fill="#f47560" stroke="rgb(219, 105, 86)" stroke-width="0"></rect><rect x="53.0703125" y="249.3984375" width="16.5234375" height="16.5234375" rx="3" ry="3" opacity="1" fill="#f47560" stroke="rgb(219, 105, 86)" stroke-width="0"></rect><rect x="35.546875" y="249.3984375" width="16.5234375" height="16.5234375" rx="3" ry="3" opacity="1" fill="#f47560" stroke="rgb(219, 105, 86)" stroke-width="0"></rect><rect x="18.0234375" y="249.3984375" width="16.5234375" height="16.5234375" rx="3" ry="3" opacity="1" fill="#f47560" stroke="rgb(219, 105, 86)" stroke-width="0"></rect><rect x="0.5" y="249.3984375" width="16.5234375" height="16.5234375" rx="3" ry="3" opacity="1" fill="#f47560" stroke="rgb(219, 105, 86)" stroke-width="0"></rect><rect x="228.3046875" y="231.875" width="16.5234375" height="16.5234375" rx="3" ry="3" opacity="1" fill="#f47560" stroke="rgb(219, 105, 86)" stroke-width="0"></rect><rect x="210.78125" y="231.875" width="16.5234375" height="16.5234375" rx="3" ry="3" opacity="1" fill="#f47560" stroke="rgb(219, 105, 86)" stroke-width="0"></rect><rect x="193.2578125" y="231.875" width="16.5234375" height="16.5234375" rx="3" ry="3" opacity="1" fill="#f47560" stroke="rgb(219, 105, 86)" stroke-width="0"></rect><rect x="175.734375" y="231.875" width="16.5234375" height="16.5234375" rx="3" ry="3" opacity="1" fill="#f47560" stroke="rgb(219, 105, 86)" stroke-width="0"></rect><rect x="158.2109375" y="231.875" width="16.5234375" height="16.5234375" rx="3" ry="3" opacity="1" fill="#f47560" stroke="rgb(219, 105, 86)" stroke-width="0"></rect><rect x="140.6875" y="231.875" width="16.5234375" height="16.5234375" rx="3" ry="3" opacity="1" fill="#f47560" stroke="rgb(219, 105, 86)" stroke-width="0"></rect><rect x="123.1640625" y="231.875" width="16.5234375" height="16.5234375" rx="3" ry="3" opacity="1" fill="#f47560" stroke="rgb(219, 105, 86)" stroke-width="0"></rect><rect x="105.640625" y="231.875" width="16.5234375" height="16.5234375" rx="3" ry="3" opacity="1" fill="#f47560" stroke="rgb(219, 105, 86)" stroke-width="0"></rect><rect x="88.1171875" y="231.875" width="16.5234375" height="16.5234375" rx="3" ry="3" opacity="1" fill="#f47560" stroke="rgb(219, 105, 86)" stroke-width="0"></rect><rect x="70.59375" y="231.875" width="16.5234375" height="16.5234375" rx="3" ry="3" opacity="1" fill="#f47560" stroke="rgb(219, 105, 86)" stroke-width="0"></rect><rect x="53.0703125" y="231.875" width="16.5234375" height="16.5234375" rx="3" ry="3" opacity="1" fill="#f47560" stroke="rgb(219, 105, 86)" stroke-width="0"></rect><rect x="35.546875" y="231.875" width="16.5234375" height="16.5234375" rx="3" ry="3" opacity="1" fill="#f47560" stroke="rgb(219, 105, 86)" stroke-width="0"></rect><rect x="18.0234375" y="231.875" width="16.5234375" height="16.5234375" rx="3" ry="3" opacity="1" fill="#f47560" stroke="rgb(219, 105, 86)" stroke-width="0"></rect><rect x="0.5" y="231.875" width="16.5234375" height="16.5234375" rx="3" ry="3" opacity="1" fill="#f47560" stroke="rgb(219, 105, 86)" stroke-width="0"></rect><rect x="228.3046875" y="214.3515625" width="16.5234375" height="16.5234375" rx="3" ry="3" opacity="1" fill="#f47560" stroke="rgb(219, 105, 86)" stroke-width="0"></rect><rect x="210.78125" y="214.3515625" width="16.5234375" height="16.5234375" rx="3" ry="3" opacity="1" fill="#f47560" stroke="rgb(219, 105, 86)" stroke-width="0"></rect><rect x="193.2578125" y="214.3515625" width="16.5234375" height="16.5234375" rx="3" ry="3" opacity="1" fill="#f47560" stroke="rgb(219, 105, 86)" stroke-width="0"></rect><rect x="175.734375" y="214.3515625" width="16.5234375" height="16.5234375" rx="3" ry="3" opacity="1" fill="#f47560" stroke="rgb(219, 105, 86)" stroke-width="0"></rect><rect x="158.2109375" y="214.3515625" width="16.5234375" height="16.5234375" rx="3" ry="3" opacity="1" fill="#f47560" stroke="rgb(219, 105, 86)" stroke-width="0"></rect><rect x="140.6875" y="214.3515625" width="16.5234375" height="16.5234375" rx="3" ry="3" opacity="1" fill="#f47560" stroke="rgb(219, 105, 86)" stroke-width="0"></rect><rect x="123.1640625" y="214.3515625" width="16.5234375" height="16.5234375" rx="3" ry="3" opacity="1" fill="#f47560" stroke="rgb(219, 105, 86)" stroke-width="0"></rect><rect x="105.640625" y="214.3515625" width="16.5234375" height="16.5234375" rx="3" ry="3" opacity="1" fill="#f47560" stroke="rgb(219, 105, 86)" stroke-width="0"></rect><rect x="88.1171875" y="214.3515625" width="16.5234375" height="16.5234375" rx="3" ry="3" opacity="1" fill="#f47560" stroke="rgb(219, 105, 86)" stroke-width="0"></rect><rect x="70.59375" y="214.3515625" width="16.5234375" height="16.5234375" rx="3" ry="3" opacity="1" fill="#f47560" stroke="rgb(219, 105, 86)" stroke-width="0"></rect><rect x="53.0703125" y="214.3515625" width="16.5234375" height="16.5234375" rx="3" ry="3" opacity="1" fill="#f47560" stroke="rgb(219, 105, 86)" stroke-width="0"></rect><rect x="35.546875" y="214.3515625" width="16.5234375" height="16.5234375" rx="3" ry="3" opacity="1" fill="#f47560" stroke="rgb(219, 105, 86)" stroke-width="0"></rect><rect x="18.0234375" y="214.3515625" width="16.5234375" height="16.5234375" rx="3" ry="3" opacity="1" fill="#f1e15b" stroke="rgb(217, 202, 82)" stroke-width="0"></rect><rect x="0.5" y="214.3515625" width="16.5234375" height="16.5234375" rx="3" ry="3" opacity="1" fill="#f1e15b" stroke="rgb(217, 202, 82)" stroke-width="0"></rect><rect x="228.3046875" y="196.828125" width="16.5234375" height="16.5234375" rx="3" ry="3" opacity="1" fill="#f1e15b" stroke="rgb(217, 202, 82)" stroke-width="0"></rect><rect x="210.78125" y="196.828125" width="16.5234375" height="16.5234375" rx="3" ry="3" opacity="1" fill="#f1e15b" stroke="rgb(217, 202, 82)" stroke-width="0"></rect><rect x="193.2578125" y="196.828125" width="16.5234375" height="16.5234375" rx="3" ry="3" opacity="1" fill="#f1e15b" stroke="rgb(217, 202, 82)" stroke-width="0"></rect><rect x="175.734375" y="196.828125" width="16.5234375" height="16.5234375" rx="3" ry="3" opacity="1" fill="#f1e15b" stroke="rgb(217, 202, 82)" stroke-width="0"></rect><rect x="158.2109375" y="196.828125" width="16.5234375" height="16.5234375" rx="3" ry="3" opacity="1" fill="#f1e15b" stroke="rgb(217, 202, 82)" stroke-width="0"></rect><rect x="140.6875" y="196.828125" width="16.5234375" height="16.5234375" rx="3" ry="3" opacity="1" fill="#f1e15b" stroke="rgb(217, 202, 82)" stroke-width="0"></rect><rect x="123.1640625" y="196.828125" width="16.5234375" height="16.5234375" rx="3" ry="3" opacity="1" fill="#f1e15b" stroke="rgb(217, 202, 82)" stroke-width="0"></rect><rect x="105.640625" y="196.828125" width="16.5234375" height="16.5234375" rx="3" ry="3" opacity="1" fill="#f1e15b" stroke="rgb(217, 202, 82)" stroke-width="0"></rect><rect x="88.1171875" y="196.828125" width="16.5234375" height="16.5234375" rx="3" ry="3" opacity="1" fill="#f1e15b" stroke="rgb(217, 202, 82)" stroke-width="0"></rect><rect x="70.59375" y="196.828125" width="16.5234375" height="16.5234375" rx="3" ry="3" opacity="1" fill="#f1e15b" stroke="rgb(217, 202, 82)" stroke-width="0"></rect><rect x="53.0703125" y="196.828125" width="16.5234375" height="16.5234375" rx="3" ry="3" opacity="1" fill="#f1e15b" stroke="rgb(217, 202, 82)" stroke-width="0"></rect><rect x="35.546875" y="196.828125" width="16.5234375" height="16.5234375" rx="3" ry="3" opacity="1" fill="#f1e15b" stroke="rgb(217, 202, 82)" stroke-width="0"></rect><rect x="18.0234375" y="196.828125" width="16.5234375" height="16.5234375" rx="3" ry="3" opacity="1" fill="#f1e15b" stroke="rgb(217, 202, 82)" stroke-width="0"></rect><rect x="0.5" y="196.828125" width="16.5234375" height="16.5234375" rx="3" ry="3" opacity="1" fill="#f1e15b" stroke="rgb(217, 202, 82)" stroke-width="0"></rect><rect x="228.3046875" y="179.3046875" width="16.5234375" height="16.5234375" rx="3" ry="3" opacity="1" fill="#f1e15b" stroke="rgb(217, 202, 82)" stroke-width="0"></rect><rect x="210.78125" y="179.3046875" width="16.5234375" height="16.5234375" rx="3" ry="3" opacity="1" fill="#f1e15b" stroke="rgb(217, 202, 82)" stroke-width="0"></rect><rect x="193.2578125" y="179.3046875" width="16.5234375" height="16.5234375" rx="3" ry="3" opacity="1" fill="#f1e15b" stroke="rgb(217, 202, 82)" stroke-width="0"></rect><rect x="175.734375" y="179.3046875" width="16.5234375" height="16.5234375" rx="3" ry="3" opacity="1" fill="#f1e15b" stroke="rgb(217, 202, 82)" stroke-width="0"></rect><rect x="158.2109375" y="179.3046875" width="16.5234375" height="16.5234375" rx="3" ry="3" opacity="1" fill="#f1e15b" stroke="rgb(217, 202, 82)" stroke-width="0"></rect><rect x="140.6875" y="179.3046875" width="16.5234375" height="16.5234375" rx="3" ry="3" opacity="1" fill="#f1e15b" stroke="rgb(217, 202, 82)" stroke-width="0"></rect><rect x="123.1640625" y="179.3046875" width="16.5234375" height="16.5234375" rx="3" ry="3" opacity="1" fill="#f1e15b" stroke="rgb(217, 202, 82)" stroke-width="0"></rect><rect x="105.640625" y="179.3046875" width="16.5234375" height="16.5234375" rx="3" ry="3" opacity="1" fill="#f1e15b" stroke="rgb(217, 202, 82)" stroke-width="0"></rect><rect x="88.1171875" y="179.3046875" width="16.5234375" height="16.5234375" rx="3" ry="3" opacity="1" fill="#f1e15b" stroke="rgb(217, 202, 82)" stroke-width="0"></rect><rect x="70.59375" y="179.3046875" width="16.5234375" height="16.5234375" rx="3" ry="3" opacity="1" fill="#f1e15b" stroke="rgb(217, 202, 82)" stroke-width="0"></rect><rect x="53.0703125" y="179.3046875" width="16.5234375" height="16.5234375" rx="3" ry="3" opacity="1" fill="#f1e15b" stroke="rgb(217, 202, 82)" stroke-width="0"></rect><rect x="35.546875" y="179.3046875" width="16.5234375" height="16.5234375" rx="3" ry="3" opacity="1" fill="#f1e15b" stroke="rgb(217, 202, 82)" stroke-width="0"></rect><rect x="18.0234375" y="179.3046875" width="16.5234375" height="16.5234375" rx="3" ry="3" opacity="1" fill="#f1e15b" stroke="rgb(217, 202, 82)" stroke-width="0"></rect><rect x="0.5" y="179.3046875" width="16.5234375" height="16.5234375" rx="3" ry="3" opacity="1" fill="#f1e15b" stroke="rgb(217, 202, 82)" stroke-width="0"></rect><rect x="228.3046875" y="161.78125" width="16.5234375" height="16.5234375" rx="3" ry="3" opacity="1" fill="#f1e15b" stroke="rgb(217, 202, 82)" stroke-width="0"></rect><rect x="210.78125" y="161.78125" width="16.5234375" height="16.5234375" rx="3" ry="3" opacity="1" fill="#f1e15b" stroke="rgb(217, 202, 82)" stroke-width="0"></rect><rect x="193.2578125" y="161.78125" width="16.5234375" height="16.5234375" rx="3" ry="3" opacity="1" fill="#f1e15b" stroke="rgb(217, 202, 82)" stroke-width="0"></rect><rect x="175.734375" y="161.78125" width="16.5234375" height="16.5234375" rx="3" ry="3" opacity="1" fill="#f1e15b" stroke="rgb(217, 202, 82)" stroke-width="0"></rect><rect x="158.2109375" y="161.78125" width="16.5234375" height="16.5234375" rx="3" ry="3" opacity="1" fill="#f1e15b" stroke="rgb(217, 202, 82)" stroke-width="0"></rect><rect x="140.6875" y="161.78125" width="16.5234375" height="16.5234375" rx="3" ry="3" opacity="1" fill="#f1e15b" stroke="rgb(217, 202, 82)" stroke-width="0"></rect><rect x="123.1640625" y="161.78125" width="16.5234375" height="16.5234375" rx="3" ry="3" opacity="1" fill="#f1e15b" stroke="rgb(217, 202, 82)" stroke-width="0"></rect><rect x="105.640625" y="161.78125" width="16.5234375" height="16.5234375" rx="3" ry="3" opacity="1" fill="#f1e15b" stroke="rgb(217, 202, 82)" stroke-width="0"></rect><rect x="88.1171875" y="161.78125" width="16.5234375" height="16.5234375" rx="3" ry="3" opacity="1" fill="#f1e15b" stroke="rgb(217, 202, 82)" stroke-width="0"></rect><rect x="70.59375" y="161.78125" width="16.5234375" height="16.5234375" rx="3" ry="3" opacity="1" fill="#f1e15b" stroke="rgb(217, 202, 82)" stroke-width="0"></rect><rect x="53.0703125" y="161.78125" width="16.5234375" height="16.5234375" rx="3" ry="3" opacity="1" fill="#f1e15b" stroke="rgb(217, 202, 82)" stroke-width="0"></rect><rect x="35.546875" y="161.78125" width="16.5234375" height="16.5234375" rx="3" ry="3" opacity="1" fill="#cccccc" stroke="rgb(183, 183, 183)" stroke-width="0"></rect><rect x="18.0234375" y="161.78125" width="16.5234375" height="16.5234375" rx="3" ry="3" opacity="1" fill="#cccccc" stroke="rgb(183, 183, 183)" stroke-width="0"></rect><rect x="0.5" y="161.78125" width="16.5234375" height="16.5234375" rx="3" ry="3" opacity="1" fill="#cccccc" stroke="rgb(183, 183, 183)" stroke-width="0"></rect><rect x="228.3046875" y="144.2578125" width="16.5234375" height="16.5234375" rx="3" ry="3" opacity="1" fill="#cccccc" stroke="rgb(183, 183, 183)" stroke-width="0"></rect><rect x="210.78125" y="144.2578125" width="16.5234375" height="16.5234375" rx="3" ry="3" opacity="1" fill="#cccccc" stroke="rgb(183, 183, 183)" stroke-width="0"></rect><rect x="193.2578125" y="144.2578125" width="16.5234375" height="16.5234375" rx="3" ry="3" opacity="1" fill="#cccccc" stroke="rgb(183, 183, 183)" stroke-width="0"></rect><rect x="175.734375" y="144.2578125" width="16.5234375" height="16.5234375" rx="3" ry="3" opacity="1" fill="#cccccc" stroke="rgb(183, 183, 183)" stroke-width="0"></rect><rect x="158.2109375" y="144.2578125" width="16.5234375" height="16.5234375" rx="3" ry="3" opacity="1" fill="#cccccc" stroke="rgb(183, 183, 183)" stroke-width="0"></rect><rect x="140.6875" y="144.2578125" width="16.5234375" height="16.5234375" rx="3" ry="3" opacity="1" fill="#cccccc" stroke="rgb(183, 183, 183)" stroke-width="0"></rect><rect x="123.1640625" y="144.2578125" width="16.5234375" height="16.5234375" rx="3" ry="3" opacity="1" fill="#cccccc" stroke="rgb(183, 183, 183)" stroke-width="0"></rect><rect x="105.640625" y="144.2578125" width="16.5234375" height="16.5234375" rx="3" ry="3" opacity="1" fill="#cccccc" stroke="rgb(183, 183, 183)" stroke-width="0"></rect><rect x="88.1171875" y="144.2578125" width="16.5234375" height="16.5234375" rx="3" ry="3" opacity="1" fill="#cccccc" stroke="rgb(183, 183, 183)" stroke-width="0"></rect><rect x="70.59375" y="144.2578125" width="16.5234375" height="16.5234375" rx="3" ry="3" opacity="1" fill="#cccccc" stroke="rgb(183, 183, 183)" stroke-width="0"></rect><rect x="53.0703125" y="144.2578125" width="16.5234375" height="16.5234375" rx="3" ry="3" opacity="1" fill="#cccccc" stroke="rgb(183, 183, 183)" stroke-width="0"></rect><rect x="35.546875" y="144.2578125" width="16.5234375" height="16.5234375" rx="3" ry="3" opacity="1" fill="#cccccc" stroke="rgb(183, 183, 183)" stroke-width="0"></rect><rect x="18.0234375" y="144.2578125" width="16.5234375" height="16.5234375" rx="3" ry="3" opacity="1" fill="#cccccc" stroke="rgb(183, 183, 183)" stroke-width="0"></rect><rect x="0.5" y="144.2578125" width="16.5234375" height="16.5234375" rx="3" ry="3" opacity="1" fill="#cccccc" stroke="rgb(183, 183, 183)" stroke-width="0"></rect><rect x="228.3046875" y="126.734375" width="16.5234375" height="16.5234375" rx="3" ry="3" opacity="1" fill="#cccccc" stroke="rgb(183, 183, 183)" stroke-width="0"></rect><rect x="210.78125" y="126.734375" width="16.5234375" height="16.5234375" rx="3" ry="3" opacity="1" fill="#cccccc" stroke="rgb(183, 183, 183)" stroke-width="0"></rect><rect x="193.2578125" y="126.734375" width="16.5234375" height="16.5234375" rx="3" ry="3" opacity="1" fill="#cccccc" stroke="rgb(183, 183, 183)" stroke-width="0"></rect><rect x="175.734375" y="126.734375" width="16.5234375" height="16.5234375" rx="3" ry="3" opacity="1" fill="#cccccc" stroke="rgb(183, 183, 183)" stroke-width="0"></rect><rect x="158.2109375" y="126.734375" width="16.5234375" height="16.5234375" rx="3" ry="3" opacity="1" fill="#cccccc" stroke="rgb(183, 183, 183)" stroke-width="0"></rect><rect x="140.6875" y="126.734375" width="16.5234375" height="16.5234375" rx="3" ry="3" opacity="1" fill="#cccccc" stroke="rgb(183, 183, 183)" stroke-width="0"></rect><rect x="123.1640625" y="126.734375" width="16.5234375" height="16.5234375" rx="3" ry="3" opacity="1" fill="#cccccc" stroke="rgb(183, 183, 183)" stroke-width="0"></rect><rect x="105.640625" y="126.734375" width="16.5234375" height="16.5234375" rx="3" ry="3" opacity="1" fill="#cccccc" stroke="rgb(183, 183, 183)" stroke-width="0"></rect><rect x="88.1171875" y="126.734375" width="16.5234375" height="16.5234375" rx="3" ry="3" opacity="1" fill="#cccccc" stroke="rgb(183, 183, 183)" stroke-width="0"></rect><rect x="70.59375" y="126.734375" width="16.5234375" height="16.5234375" rx="3" ry="3" opacity="1" fill="#cccccc" stroke="rgb(183, 183, 183)" stroke-width="0"></rect><rect x="53.0703125" y="126.734375" width="16.5234375" height="16.5234375" rx="3" ry="3" opacity="1" fill="#cccccc" stroke="rgb(183, 183, 183)" stroke-width="0"></rect><rect x="35.546875" y="126.734375" width="16.5234375" height="16.5234375" rx="3" ry="3" opacity="1" fill="#cccccc" stroke="rgb(183, 183, 183)" stroke-width="0"></rect><rect x="18.0234375" y="126.734375" width="16.5234375" height="16.5234375" rx="3" ry="3" opacity="1" fill="#cccccc" stroke="rgb(183, 183, 183)" stroke-width="0"></rect><rect x="0.5" y="126.734375" width="16.5234375" height="16.5234375" rx="3" ry="3" opacity="1" fill="#cccccc" stroke="rgb(183, 183, 183)" stroke-width="0"></rect><rect x="228.3046875" y="109.2109375" width="16.5234375" height="16.5234375" rx="3" ry="3" opacity="1" fill="#cccccc" stroke="rgb(183, 183, 183)" stroke-width="0"></rect><rect x="210.78125" y="109.2109375" width="16.5234375" height="16.5234375" rx="3" ry="3" opacity="1" fill="#cccccc" stroke="rgb(183, 183, 183)" stroke-width="0"></rect><rect x="193.2578125" y="109.2109375" width="16.5234375" height="16.5234375" rx="3" ry="3" opacity="1" fill="#cccccc" stroke="rgb(183, 183, 183)" stroke-width="0"></rect><rect x="175.734375" y="109.2109375" width="16.5234375" height="16.5234375" rx="3" ry="3" opacity="1" fill="#cccccc" stroke="rgb(183, 183, 183)" stroke-width="0"></rect><rect x="158.2109375" y="109.2109375" width="16.5234375" height="16.5234375" rx="3" ry="3" opacity="1" fill="#cccccc" stroke="rgb(183, 183, 183)" stroke-width="0"></rect><rect x="140.6875" y="109.2109375" width="16.5234375" height="16.5234375" rx="3" ry="3" opacity="1" fill="#cccccc" stroke="rgb(183, 183, 183)" stroke-width="0"></rect><rect x="123.1640625" y="109.2109375" width="16.5234375" height="16.5234375" rx="3" ry="3" opacity="1" fill="#cccccc" stroke="rgb(183, 183, 183)" stroke-width="0"></rect><rect x="105.640625" y="109.2109375" width="16.5234375" height="16.5234375" rx="3" ry="3" opacity="1" fill="#cccccc" stroke="rgb(183, 183, 183)" stroke-width="0"></rect><rect x="88.1171875" y="109.2109375" width="16.5234375" height="16.5234375" rx="3" ry="3" opacity="1" fill="#cccccc" stroke="rgb(183, 183, 183)" stroke-width="0"></rect><rect x="70.59375" y="109.2109375" width="16.5234375" height="16.5234375" rx="3" ry="3" opacity="1" fill="#cccccc" stroke="rgb(183, 183, 183)" stroke-width="0"></rect><rect x="53.0703125" y="109.2109375" width="16.5234375" height="16.5234375" rx="3" ry="3" opacity="1" fill="#cccccc" stroke="rgb(183, 183, 183)" stroke-width="0"></rect><rect x="35.546875" y="109.2109375" width="16.5234375" height="16.5234375" rx="3" ry="3" opacity="1" fill="#cccccc" stroke="rgb(183, 183, 183)" stroke-width="0"></rect><rect x="18.0234375" y="109.2109375" width="16.5234375" height="16.5234375" rx="3" ry="3" opacity="1" fill="#cccccc" stroke="rgb(183, 183, 183)" stroke-width="0"></rect><rect x="0.5" y="109.2109375" width="16.5234375" height="16.5234375" rx="3" ry="3" opacity="1" fill="#cccccc" stroke="rgb(183, 183, 183)" stroke-width="0"></rect><rect x="228.3046875" y="91.6875" width="16.5234375" height="16.5234375" rx="3" ry="3" opacity="1" fill="#cccccc" stroke="rgb(183, 183, 183)" stroke-width="0"></rect><rect x="210.78125" y="91.6875" width="16.5234375" height="16.5234375" rx="3" ry="3" opacity="1" fill="#cccccc" stroke="rgb(183, 183, 183)" stroke-width="0"></rect><rect x="193.2578125" y="91.6875" width="16.5234375" height="16.5234375" rx="3" ry="3" opacity="1" fill="#cccccc" stroke="rgb(183, 183, 183)" stroke-width="0"></rect><rect x="175.734375" y="91.6875" width="16.5234375" height="16.5234375" rx="3" ry="3" opacity="1" fill="#cccccc" stroke="rgb(183, 183, 183)" stroke-width="0"></rect><rect x="158.2109375" y="91.6875" width="16.5234375" height="16.5234375" rx="3" ry="3" opacity="1" fill="#cccccc" stroke="rgb(183, 183, 183)" stroke-width="0"></rect><rect x="140.6875" y="91.6875" width="16.5234375" height="16.5234375" rx="3" ry="3" opacity="1" fill="#cccccc" stroke="rgb(183, 183, 183)" stroke-width="0"></rect><rect x="123.1640625" y="91.6875" width="16.5234375" height="16.5234375" rx="3" ry="3" opacity="1" fill="#cccccc" stroke="rgb(183, 183, 183)" stroke-width="0"></rect><rect x="105.640625" y="91.6875" width="16.5234375" height="16.5234375" rx="3" ry="3" opacity="1" fill="#cccccc" stroke="rgb(183, 183, 183)" stroke-width="0"></rect><rect x="88.1171875" y="91.6875" width="16.5234375" height="16.5234375" rx="3" ry="3" opacity="1" fill="#cccccc" stroke="rgb(183, 183, 183)" stroke-width="0"></rect><rect x="70.59375" y="91.6875" width="16.5234375" height="16.5234375" rx="3" ry="3" opacity="1" fill="#cccccc" stroke="rgb(183, 183, 183)" stroke-width="0"></rect><rect x="53.0703125" y="91.6875" width="16.5234375" height="16.5234375" rx="3" ry="3" opacity="1" fill="#cccccc" stroke="rgb(183, 183, 183)" stroke-width="0"></rect><rect x="35.546875" y="91.6875" width="16.5234375" height="16.5234375" rx="3" ry="3" opacity="1" fill="#cccccc" stroke="rgb(183, 183, 183)" stroke-width="0"></rect><rect x="18.0234375" y="91.6875" width="16.5234375" height="16.5234375" rx="3" ry="3" opacity="1" fill="#cccccc" stroke="rgb(183, 183, 183)" stroke-width="0"></rect><rect x="0.5" y="91.6875" width="16.5234375" height="16.5234375" rx="3" ry="3" opacity="1" fill="#cccccc" stroke="rgb(183, 183, 183)" stroke-width="0"></rect><rect x="228.3046875" y="74.1640625" width="16.5234375" height="16.5234375" rx="3" ry="3" opacity="1" fill="#cccccc" stroke="rgb(183, 183, 183)" stroke-width="0"></rect><rect x="210.78125" y="74.1640625" width="16.5234375" height="16.5234375" rx="3" ry="3" opacity="1" fill="#cccccc" stroke="rgb(183, 183, 183)" stroke-width="0"></rect><rect x="193.2578125" y="74.1640625" width="16.5234375" height="16.5234375" rx="3" ry="3" opacity="1" fill="#cccccc" stroke="rgb(183, 183, 183)" stroke-width="0"></rect><rect x="175.734375" y="74.1640625" width="16.5234375" height="16.5234375" rx="3" ry="3" opacity="1" fill="#cccccc" stroke="rgb(183, 183, 183)" stroke-width="0"></rect><rect x="158.2109375" y="74.1640625" width="16.5234375" height="16.5234375" rx="3" ry="3" opacity="1" fill="#cccccc" stroke="rgb(183, 183, 183)" stroke-width="0"></rect><rect x="140.6875" y="74.1640625" width="16.5234375" height="16.5234375" rx="3" ry="3" opacity="1" fill="#cccccc" stroke="rgb(183, 183, 183)" stroke-width="0"></rect><rect x="123.1640625" y="74.1640625" width="16.5234375" height="16.5234375" rx="3" ry="3" opacity="1" fill="#cccccc" stroke="rgb(183, 183, 183)" stroke-width="0"></rect><rect x="105.640625" y="74.1640625" width="16.5234375" height="16.5234375" rx="3" ry="3" opacity="1" fill="#cccccc" stroke="rgb(183, 183, 183)" stroke-width="0"></rect><rect x="88.1171875" y="74.1640625" width="16.5234375" height="16.5234375" rx="3" ry="3" opacity="1" fill="#cccccc" stroke="rgb(183, 183, 183)" stroke-width="0"></rect><rect x="70.59375" y="74.1640625" width="16.5234375" height="16.5234375" rx="3" ry="3" opacity="1" fill="#cccccc" stroke="rgb(183, 183, 183)" stroke-width="0"></rect><rect x="53.0703125" y="74.1640625" width="16.5234375" height="16.5234375" rx="3" ry="3" opacity="1" fill="#cccccc" stroke="rgb(183, 183, 183)" stroke-width="0"></rect><rect x="35.546875" y="74.1640625" width="16.5234375" height="16.5234375" rx="3" ry="3" opacity="1" fill="#cccccc" stroke="rgb(183, 183, 183)" stroke-width="0"></rect><rect x="18.0234375" y="74.1640625" width="16.5234375" height="16.5234375" rx="3" ry="3" opacity="1" fill="#cccccc" stroke="rgb(183, 183, 183)" stroke-width="0"></rect><rect x="0.5" y="74.1640625" width="16.5234375" height="16.5234375" rx="3" ry="3" opacity="1" fill="#cccccc" stroke="rgb(183, 183, 183)" stroke-width="0"></rect><rect x="228.3046875" y="56.640625" width="16.5234375" height="16.5234375" rx="3" ry="3" opacity="1" fill="#cccccc" stroke="rgb(183, 183, 183)" stroke-width="0"></rect><rect x="210.78125" y="56.640625" width="16.5234375" height="16.5234375" rx="3" ry="3" opacity="1" fill="#cccccc" stroke="rgb(183, 183, 183)" stroke-width="0"></rect><rect x="193.2578125" y="56.640625" width="16.5234375" height="16.5234375" rx="3" ry="3" opacity="1" fill="#cccccc" stroke="rgb(183, 183, 183)" stroke-width="0"></rect><rect x="175.734375" y="56.640625" width="16.5234375" height="16.5234375" rx="3" ry="3" opacity="1" fill="#cccccc" stroke="rgb(183, 183, 183)" stroke-width="0"></rect><rect x="158.2109375" y="56.640625" width="16.5234375" height="16.5234375" rx="3" ry="3" opacity="1" fill="#cccccc" stroke="rgb(183, 183, 183)" stroke-width="0"></rect><rect x="140.6875" y="56.640625" width="16.5234375" height="16.5234375" rx="3" ry="3" opacity="1" fill="#cccccc" stroke="rgb(183, 183, 183)" stroke-width="0"></rect><rect x="123.1640625" y="56.640625" width="16.5234375" height="16.5234375" rx="3" ry="3" opacity="1" fill="#cccccc" stroke="rgb(183, 183, 183)" stroke-width="0"></rect><rect x="105.640625" y="56.640625" width="16.5234375" height="16.5234375" rx="3" ry="3" opacity="1" fill="#cccccc" stroke="rgb(183, 183, 183)" stroke-width="0"></rect><rect x="88.1171875" y="56.640625" width="16.5234375" height="16.5234375" rx="3" ry="3" opacity="1" fill="#cccccc" stroke="rgb(183, 183, 183)" stroke-width="0"></rect><rect x="70.59375" y="56.640625" width="16.5234375" height="16.5234375" rx="3" ry="3" opacity="1" fill="#cccccc" stroke="rgb(183, 183, 183)" stroke-width="0"></rect><rect x="53.0703125" y="56.640625" width="16.5234375" height="16.5234375" rx="3" ry="3" opacity="1" fill="#cccccc" stroke="rgb(183, 183, 183)" stroke-width="0"></rect><rect x="35.546875" y="56.640625" width="16.5234375" height="16.5234375" rx="3" ry="3" opacity="1" fill="#cccccc" stroke="rgb(183, 183, 183)" stroke-width="0"></rect><rect x="18.0234375" y="56.640625" width="16.5234375" height="16.5234375" rx="3" ry="3" opacity="1" fill="#cccccc" stroke="rgb(183, 183, 183)" stroke-width="0"></rect><rect x="0.5" y="56.640625" width="16.5234375" height="16.5234375" rx="3" ry="3" opacity="1" fill="#cccccc" stroke="rgb(183, 183, 183)" stroke-width="0"></rect><rect x="228.3046875" y="39.1171875" width="16.5234375" height="16.5234375" rx="3" ry="3" opacity="1" fill="#cccccc" stroke="rgb(183, 183, 183)" stroke-width="0"></rect><rect x="210.78125" y="39.1171875" width="16.5234375" height="16.5234375" rx="3" ry="3" opacity="1" fill="#cccccc" stroke="rgb(183, 183, 183)" stroke-width="0"></rect><rect x="193.2578125" y="39.1171875" width="16.5234375" height="16.5234375" rx="3" ry="3" opacity="1" fill="#cccccc" stroke="rgb(183, 183, 183)" stroke-width="0"></rect><rect x="175.734375" y="39.1171875" width="16.5234375" height="16.5234375" rx="3" ry="3" opacity="1" fill="#cccccc" stroke="rgb(183, 183, 183)" stroke-width="0"></rect><rect x="158.2109375" y="39.1171875" width="16.5234375" height="16.5234375" rx="3" ry="3" opacity="1" fill="#cccccc" stroke="rgb(183, 183, 183)" stroke-width="0"></rect><rect x="140.6875" y="39.1171875" width="16.5234375" height="16.5234375" rx="3" ry="3" opacity="1" fill="#cccccc" stroke="rgb(183, 183, 183)" stroke-width="0"></rect><rect x="123.1640625" y="39.1171875" width="16.5234375" height="16.5234375" rx="3" ry="3" opacity="1" fill="#cccccc" stroke="rgb(183, 183, 183)" stroke-width="0"></rect><rect x="105.640625" y="39.1171875" width="16.5234375" height="16.5234375" rx="3" ry="3" opacity="1" fill="#cccccc" stroke="rgb(183, 183, 183)" stroke-width="0"></rect><rect x="88.1171875" y="39.1171875" width="16.5234375" height="16.5234375" rx="3" ry="3" opacity="1" fill="#cccccc" stroke="rgb(183, 183, 183)" stroke-width="0"></rect><rect x="70.59375" y="39.1171875" width="16.5234375" height="16.5234375" rx="3" ry="3" opacity="1" fill="#cccccc" stroke="rgb(183, 183, 183)" stroke-width="0"></rect><rect x="53.0703125" y="39.1171875" width="16.5234375" height="16.5234375" rx="3" ry="3" opacity="1" fill="#cccccc" stroke="rgb(183, 183, 183)" stroke-width="0"></rect><rect x="35.546875" y="39.1171875" width="16.5234375" height="16.5234375" rx="3" ry="3" opacity="1" fill="#cccccc" stroke="rgb(183, 183, 183)" stroke-width="0"></rect><rect x="18.0234375" y="39.1171875" width="16.5234375" height="16.5234375" rx="3" ry="3" opacity="1" fill="#cccccc" stroke="rgb(183, 183, 183)" stroke-width="0"></rect><rect x="0.5" y="39.1171875" width="16.5234375" height="16.5234375" rx="3" ry="3" opacity="1" fill="#cccccc" stroke="rgb(183, 183, 183)" stroke-width="0"></rect></g><g><path d="M245.328,283.945L245.328,301.469L245.328,318.992L245.328,336.516L245.328,354.039L0,354.039L0,336.516L0,318.992L0,301.469L105.141,301.469L105.141,283.945Z" fill="#000000" fill-opacity="0"></path><path d="M245.328,213.852L245.328,231.375L245.328,248.898L245.328,266.422L245.328,283.945L105.141,283.945L105.141,301.469L0,301.469L0,283.945L0,266.422L0,248.898L0,231.375L35.047,231.375L35.047,213.852Z" fill="#000000" fill-opacity="0"></path><path d="M245.328,161.281L245.328,178.805L245.328,196.328L245.328,213.852L35.047,213.852L35.047,231.375L0,231.375L0,213.852L0,196.328L0,178.805L52.57,178.805L52.57,161.281Z" fill="#000000" fill-opacity="0"></path></g><g><g transform="translate(-100,0)"><g transform="translate(0,0)" style="opacity: 1;"><rect width="100" height="20" fill="transparent" style="cursor: pointer;"></rect><rect x="0" y="0" fill="#f1e15b" opacity="1" stroke-width="0" stroke="transparent" width="20" height="20" style="pointer-events: none;"></rect><text text-anchor="start" x="28" y="10" style="font-family: sans-serif; font-size: 12px; fill: rgb(119, 119, 119); dominant-baseline: central; pointer-events: none; user-select: none;">Rabits</text></g><g transform="translate(0,24)" style="opacity: 1;"><rect width="100" height="20" fill="transparent" style="cursor: pointer;"></rect><rect x="0" y="0" fill="#f47560" opacity="1" stroke-width="0" stroke="transparent" width="20" height="20" style="pointer-events: none;"></rect><text text-anchor="start" x="28" y="10" style="font-family: sans-serif; font-size: 12px; fill: rgb(119, 119, 119); dominant-baseline: central; pointer-events: none; user-select: none;">Dogs</text></g><g transform="translate(0,48)" style="opacity: 1;"><rect width="100" height="20" fill="transparent" style="cursor: pointer;"></rect><rect x="0" y="0" fill="#e8c1a0" opacity="1" stroke-width="0" stroke="transparent" width="20" height="20" style="pointer-events: none;"></rect><text text-anchor="start" x="28" y="10" style="font-family: sans-serif; font-size: 12px; fill: rgb(119, 119, 119); dominant-baseline: central; pointer-events: none; user-select: none;">Cats</text></g></g></g></g></svg>