<svg xmlns="http://www.w3.org/2000/svg" width="508" height="308"><path d="M126.5 107.434h507v307h-507z" style="color:#000;color-interpolation:sRGB;color-interpolation-filters:linearRGB;fill:#f1f2f4;fill-opacity:1;fill-rule:nonzero;stroke:#818599;stroke-width:.99999994;stroke-linecap:round;stroke-linejoin:miter;stroke-miterlimit:4;stroke-dashoffset:0;stroke-opacity:1;marker:none;visibility:visible;display:inline;overflow:visible;enable-background:accumulate;clip-rule:nonzero" transform="translate(-126 -106.934)"/><path d="M177.622 153.22h420.756v42.285H177.622zM177.622 237.79h420.756v42.286H177.622zM177.622 322.362h420.756v42.286H177.622z" style="color:#000;color-interpolation:sRGB;color-interpolation-filters:linearRGB;fill:#fff;fill-opacity:1;fill-rule:nonzero;stroke:#f1f2f4;stroke-width:.99999988;stroke-linecap:round;stroke-linejoin:round;stroke-miterlimit:4;stroke-opacity:1;stroke-dashoffset:0;marker:none;visibility:visible;display:inline;overflow:visible;enable-background:accumulate;clip-rule:nonzero" transform="translate(-126 -106.934)"/><path d="M177.622 195.505h420.756v42.286H177.622zM177.622 280.076h420.756v42.286H177.622z" style="color:#000;color-interpolation:sRGB;color-interpolation-filters:linearRGB;fill:#e5e6ea;fill-opacity:1;fill-rule:nonzero;stroke:#818599;stroke-width:.99999988;stroke-linecap:round;stroke-linejoin:round;stroke-miterlimit:4;stroke-opacity:1;stroke-dashoffset:0;marker:none;visibility:visible;display:inline;overflow:visible;enable-background:accumulate;clip-rule:nonzero" transform="translate(-126 -106.934)"/><path d="M177.622 153.22h420.756v211.428H177.622z" style="color:#000;color-interpolation:sRGB;color-interpolation-filters:linearRGB;fill:none;stroke:#818599;stroke-width:1;stroke-linecap:round;stroke-linejoin:round;stroke-miterlimit:4;stroke-opacity:1;stroke-dashoffset:0;marker:none;visibility:visible;display:inline;overflow:visible;enable-background:accumulate;clip-rule:nonzero" transform="translate(-126 -106.934)"/><g style="font-size:12.50287819px;font-style:normal;font-variant:normal;font-weight:500;font-stretch:normal;text-align:start;line-height:125%;letter-spacing:0;word-spacing:0;writing-mode:lr-tb;text-anchor:start;fill:#4a4d5b;fill-opacity:1;stroke:none;font-family:Helvetica Neue LT Pro;-inkscape-font-specification:Helvetica Neue LT Pro"><path d="M154.977 34.466h1.563V31.04h2.375c2.551 0 3.039-1.625 3.039-2.738 0-1.112-.488-2.763-3.039-2.763h-3.938v8.927zm1.563-7.652h2.313c.825 0 1.538.3 1.538 1.476 0 1.125-.863 1.475-1.563 1.475h-2.288v-2.95zM163.329 34.466h1.562V30.79h2.3c1.439 0 1.776.726 1.776 2.363 0 .438 0 .926.238 1.313h1.675c-.337-.362-.487-1.3-.487-2.35 0-1.4-.788-1.826-1.326-1.888v-.025c.3-.1 1.476-.538 1.476-2.25 0-1.514-.988-2.414-2.951-2.414h-4.263v8.927zm1.562-7.652h2.538c.813 0 1.55.213 1.55 1.363 0 .95-.524 1.426-1.525 1.426h-2.563v-2.789zM175.92 26.602c1.913 0 2.714 1.688 2.714 3.4 0 1.714-.8 3.401-2.713 3.401s-2.714-1.687-2.714-3.4c0-1.713.8-3.401 2.714-3.401zm0-1.275c-2.663 0-4.275 2.138-4.275 4.676 0 2.563 1.612 4.676 4.276 4.676 2.663 0 4.275-2.113 4.275-4.676 0-2.538-1.612-4.676-4.275-4.676zM181.619 34.466h1.563v-3.963h4.038v-1.275h-4.038v-2.339h4.6v-1.35h-6.163v8.927zM189.042 34.466h1.563V25.54h-1.563v8.927zM192.51 34.466h6.101v-1.35h-4.538v-7.577h-1.563v8.927zM203.157 34.466h3.7c2.752 0 3.94-2 3.94-4.463s-1.188-4.464-3.94-4.464h-3.7v8.927zm1.563-7.652h1.538c2.45 0 2.975 1.388 2.975 3.189 0 1.8-.525 3.188-2.975 3.188h-1.538v-6.377zM212.192 34.466h6.514v-1.35h-4.95v-2.613h4.5v-1.275h-4.5v-2.339h4.863v-1.35h-6.427v8.927zM223.547 34.466h6.102v-1.35h-4.539v-7.577h-1.563v8.927zM229.69 34.466h1.612l.838-2.363h3.563l.838 2.363h1.675l-3.438-8.927h-1.663l-3.426 8.927zm4.225-7.389h.038l1.337 3.838h-2.725l1.35-3.838zM242.008 31.49c.038 2.214 1.688 3.189 3.726 3.189 1.763 0 3.551-.8 3.551-2.8 0-.951-.575-1.914-1.738-2.276-.462-.138-2.438-.65-2.575-.688-.638-.188-1.063-.513-1.063-1.15 0-.9.913-1.163 1.638-1.163 1.087 0 1.838.425 1.925 1.575h1.563c0-1.863-1.575-2.85-3.426-2.85-1.613 0-3.263.825-3.263 2.625 0 .925.438 1.863 1.975 2.263 1.238.338 2.026.5 2.664.738.362.137.737.413.737 1.1 0 .663-.512 1.35-1.888 1.35-1.25 0-2.263-.55-2.263-1.912h-1.563zM254.454 26.602c1.913 0 2.713 1.688 2.713 3.4 0 1.714-.8 3.401-2.713 3.401s-2.713-1.687-2.713-3.4c0-1.713.8-3.401 2.713-3.401zm0-1.275c-2.663 0-4.276 2.138-4.276 4.676 0 2.563 1.613 4.676 4.276 4.676s4.276-2.113 4.276-4.676c0-2.538-1.613-4.676-4.276-4.676zM267.742 28.377c-.2-1.925-1.763-3.05-3.789-3.05-2.663 0-4.276 2.138-4.276 4.676 0 2.563 1.613 4.676 4.276 4.676 2.163 0 3.664-1.476 3.801-3.614h-1.525c-.138 1.3-.875 2.338-2.276 2.338-1.912 0-2.713-1.687-2.713-3.4 0-1.713.8-3.401 2.713-3.401 1.3 0 1.963.738 2.226 1.775h1.563zM269.188 34.466h1.563V25.54h-1.563v8.927zM272.655 34.466h6.514v-1.35h-4.95v-2.613h4.5v-1.275h-4.5v-2.339h4.863v-1.35h-6.427v8.927zm2.514-9.79h1.037l1.776-1.787h-1.688l-1.125 1.787zM279.693 26.89h2.825v7.576h1.563V26.89h2.839v-1.35h-7.227v1.35zM287.967 34.466h6.514v-1.35h-4.952v-2.613h4.502v-1.275h-4.502v-2.339h4.864v-1.35h-6.426v8.927zm2.513-9.79h1.037l1.776-1.787h-1.688l-1.125 1.787zM301.947 36.854c-1.05-1.788-1.537-3.663-1.537-5.764 0-2.1.537-3.963 1.537-5.763h-1.162c-1.15 1.763-1.8 3.75-1.8 5.763 0 2.414.8 4.151 1.8 5.764h1.162zM303.702 30.665c.038-.962.713-1.713 1.7-1.713.976 0 1.563.813 1.626 1.713h-3.326zm4.751.938c.238-1.938-1.013-3.776-3.05-3.776-1.926 0-3.126 1.576-3.126 3.413 0 2.001 1.125 3.401 3.163 3.401 1.4 0 2.626-.787 2.926-2.2h-1.35c-.25.712-.738 1.075-1.576 1.075-1.188 0-1.738-.9-1.738-1.913h4.751zM309.549 34.466h1.425v-3.813c0-.95.613-1.7 1.563-1.7.85 0 1.225.437 1.263 1.45v4.063h1.425v-4.438c0-1.463-.875-2.2-2.288-2.2-.85 0-1.575.437-2.013 1.15l-.025-.026v-.95h-1.35v6.464zM326.535 26.314c-.763-.512-1.5-.775-2.226-.775-1 0-1.825.325-2.463.963-.55.563-.925 1.313-1.137 2.275h-.663l-.325.8h.9c-.012.188-.025.338-.025.45 0 .15.013.288.025.4h-.563l-.337.788h.963c.137 1 .475 1.8 1.012 2.389.625.687 1.5 1.025 2.613 1.025.688 0 1.326-.188 1.888-.55V32.69c-.312.287-.6.5-.85.625-.275.138-.625.2-1.038.2-.637 0-1.15-.238-1.525-.713-.325-.387-.538-.912-.638-1.588h2.513l.313-.787h-2.888c-.013-.038-.013-.175-.013-.388v-.287c0-.075 0-.138.013-.175h3.063l.325-.8h-3.3c.112-.588.324-1.076.637-1.463.375-.438.838-.663 1.4-.663.638 0 1.213.263 1.75.8l.576-1.138z"/><path d="M326.305 25.327c1.05 1.8 1.538 3.675 1.538 5.776 0 2.1-.537 3.963-1.538 5.751h1.163c1.15-1.75 1.8-3.738 1.8-5.751 0-2.388-.8-4.176-1.8-5.776h-1.163zM333.953 31.74h3.639v-1.35h-3.639v1.35zM348.132 33.19h-4.264c.475-1.562 4.276-2.162 4.276-4.963 0-1.125-.675-2.688-2.813-2.688-1.95 0-3.013 1.438-3.013 3.376h1.425c.038-1.238.375-2.188 1.5-2.188 1.238 0 1.476.925 1.476 1.55-.038 1.363-1.5 2.038-2.638 2.876-1.188.8-1.913 1.863-1.926 3.313h5.977v-1.275zM352.103 25.54c-2.513 0-3.026 2.562-3.026 4.55s.513 4.551 3.026 4.551 3.026-2.563 3.026-4.55c0-1.989-.513-4.552-3.026-4.552zm0 7.914c-1.25 0-1.6-1.526-1.6-3.364 0-1.825.35-3.363 1.6-3.363s1.6 1.538 1.6 3.363c0 1.838-.35 3.364-1.6 3.364zM356.25 28.29h2.15v6.176h1.563v-8.752H358.8c-.2 1.063-1.363 1.45-2.55 1.45v1.126zM369.01 33.19h-4.263c.475-1.562 4.276-2.162 4.276-4.963 0-1.125-.675-2.688-2.813-2.688-1.95 0-3.013 1.438-3.013 3.376h1.425c.037-1.238.375-2.188 1.5-2.188 1.238 0 1.476.925 1.476 1.55-.038 1.363-1.5 2.038-2.638 2.876-1.188.8-1.913 1.863-1.926 3.313h5.976v-1.275z"/></g><g style="font-size:9.02489281px;font-style:normal;font-variant:normal;font-weight:500;font-stretch:normal;text-align:end;line-height:125%;letter-spacing:0;word-spacing:0;writing-mode:lr-tb;text-anchor:end;fill:#4a4d5b;fill-opacity:1;stroke:none;font-family:Helvetica Neue LT Pro;-inkscape-font-specification:Helvetica Neue LT Pro"><path d="M36.608 251.303c-1.814 0-2.184 1.85-2.184 3.285s.37 3.285 2.184 3.285 2.184-1.85 2.184-3.285-.37-3.285-2.184-3.285zm0 5.713c-.903 0-1.156-1.101-1.156-2.428 0-1.318.253-2.428 1.156-2.428.902 0 1.155 1.11 1.155 2.428 0 1.327-.253 2.428-1.155 2.428zM46.742 251.863c-.55-.37-1.083-.56-1.606-.56-.722 0-1.318.235-1.778.695-.397.406-.668.948-.821 1.642h-.478l-.235.578h.65a2.58 2.58 0 0 0 0 .614h-.406l-.244.568h.695c.1.722.343 1.3.73 1.724.452.496 1.084.74 1.887.74a2.48 2.48 0 0 0 1.363-.397v-1.002a2.835 2.835 0 0 1-.614.452c-.198.099-.451.144-.749.144-.46 0-.83-.172-1.101-.514-.235-.28-.388-.66-.46-1.147h1.814l.225-.568H43.53c-.01-.027-.01-.127-.01-.28v-.208c0-.054 0-.099.01-.126h2.21l.235-.577h-2.382c.081-.425.234-.777.46-1.056.27-.316.605-.479 1.01-.479.461 0 .876.19 1.264.578l.415-.821z"/></g><g style="font-size:9.02489281px;font-style:normal;font-variant:normal;font-weight:500;font-stretch:normal;text-align:end;line-height:125%;letter-spacing:0;word-spacing:0;writing-mode:lr-tb;text-anchor:end;fill:#4a4d5b;fill-opacity:1;stroke:none;font-family:Helvetica Neue LT Pro;-inkscape-font-specification:Helvetica Neue LT Pro"><path d="M25.287 213.387h1.553v4.459h1.128v-6.318h-.84c-.144.767-.983 1.047-1.84 1.047v.812zM32.342 211.402c-1.814 0-2.184 1.85-2.184 3.285s.37 3.285 2.184 3.285 2.184-1.85 2.184-3.285-.37-3.285-2.184-3.285zm0 5.713c-.903 0-1.156-1.101-1.156-2.428 0-1.318.253-2.428 1.156-2.428.902 0 1.155 1.11 1.155 2.428 0 1.327-.253 2.428-1.155 2.428zM37.365 211.402c-1.814 0-2.184 1.85-2.184 3.285s.37 3.285 2.184 3.285 2.184-1.85 2.184-3.285-.37-3.285-2.184-3.285zm0 5.713c-.902 0-1.155-1.101-1.155-2.428 0-1.318.253-2.428 1.155-2.428.903 0 1.155 1.11 1.155 2.428 0 1.327-.252 2.428-1.155 2.428zM47.5 211.962c-.55-.37-1.083-.56-1.606-.56-.722 0-1.318.235-1.778.695-.397.406-.668.948-.822 1.642h-.478l-.234.578h.65c-.01.135-.019.244-.019.325 0 .108.01.208.018.289h-.406l-.243.568h.694c.1.722.343 1.3.731 1.724.452.496 1.083.74 1.887.74a2.48 2.48 0 0 0 1.362-.397v-1.002a2.835 2.835 0 0 1-.613.452c-.199.099-.452.144-.75.144-.46 0-.83-.172-1.1-.515-.235-.28-.388-.658-.46-1.146h1.813l.226-.568h-2.085c-.009-.027-.009-.127-.009-.28v-.208c0-.054 0-.099.01-.126h2.21l.235-.578H44.35c.082-.424.235-.776.46-1.055.271-.316.605-.479 1.011-.479.46 0 .876.19 1.264.578l.415-.821z"/></g><g style="font-size:9.02489281px;font-style:normal;font-variant:normal;font-weight:500;font-stretch:normal;text-align:end;line-height:125%;letter-spacing:0;word-spacing:0;writing-mode:lr-tb;text-anchor:end;fill:#4a4d5b;fill-opacity:1;stroke:none;font-family:Helvetica Neue LT Pro;-inkscape-font-specification:Helvetica Neue LT Pro"><path d="M29.475 174.246h-3.078c.343-1.128 3.087-1.561 3.087-3.583 0-.812-.487-1.94-2.03-1.94-1.408 0-2.176 1.038-2.176 2.437h1.03c.026-.894.27-1.58 1.082-1.58.894 0 1.065.668 1.065 1.12-.027.983-1.083 1.47-1.904 2.075-.857.578-1.38 1.345-1.39 2.392h4.314v-.92zM32.342 168.723c-1.814 0-2.184 1.85-2.184 3.285s.37 3.285 2.184 3.285 2.184-1.85 2.184-3.285-.37-3.285-2.184-3.285zm0 5.713c-.903 0-1.156-1.101-1.156-2.428 0-1.317.253-2.428 1.156-2.428.902 0 1.155 1.11 1.155 2.428 0 1.327-.253 2.428-1.155 2.428zM37.365 168.723c-1.814 0-2.184 1.85-2.184 3.285s.37 3.285 2.184 3.285 2.184-1.85 2.184-3.285-.37-3.285-2.184-3.285zm0 5.713c-.902 0-1.155-1.101-1.155-2.428 0-1.317.253-2.428 1.155-2.428.903 0 1.155 1.11 1.155 2.428 0 1.327-.252 2.428-1.155 2.428zM47.5 169.283c-.55-.37-1.083-.56-1.606-.56-.722 0-1.318.235-1.778.695-.397.406-.668.948-.822 1.643h-.478l-.234.577h.65c-.01.135-.019.244-.019.325 0 .108.01.208.018.289h-.406l-.243.568h.694c.1.722.343 1.3.731 1.724.452.496 1.083.74 1.887.74a2.48 2.48 0 0 0 1.362-.397v-1.002a2.835 2.835 0 0 1-.613.452c-.199.099-.452.144-.75.144-.46 0-.83-.172-1.1-.514-.235-.28-.388-.66-.46-1.147h1.813l.226-.568h-2.085c-.009-.027-.009-.127-.009-.28v-.208c0-.054 0-.099.01-.126h2.21l.235-.577H44.35c.082-.425.235-.777.46-1.056.271-.316.605-.479 1.011-.479.46 0 .876.19 1.264.578l.415-.821z"/></g><g style="font-size:9.02489281px;font-style:normal;font-variant:normal;font-weight:500;font-stretch:normal;text-align:end;line-height:125%;letter-spacing:0;word-spacing:0;writing-mode:lr-tb;text-anchor:end;fill:#4a4d5b;fill-opacity:1;stroke:none;font-family:Helvetica Neue LT Pro;-inkscape-font-specification:Helvetica Neue LT Pro"><path d="M25.857 129.302c.812-.027 1.651.09 1.651 1.074 0 .722-.523 1.128-1.21 1.128-.802 0-1.218-.577-1.19-1.344h-1.03c.028 1.326.759 2.202 2.22 2.202 1.201 0 2.239-.74 2.239-1.932 0-.82-.424-1.435-1.146-1.579v-.018c.614-.217.893-.713.893-1.354 0-1.119-1.01-1.687-1.994-1.687-1.264 0-2.049.92-2.094 2.148h1.029c-.027-.65.334-1.291 1.047-1.291.577 0 .984.352.984.893 0 .777-.713 1.02-1.4.993v.767zM31.332 125.792c-1.814 0-2.185 1.85-2.185 3.285s.37 3.285 2.185 3.285c1.814 0 2.184-1.85 2.184-3.285s-.37-3.285-2.184-3.285zm0 5.712c-.903 0-1.156-1.1-1.156-2.427 0-1.318.253-2.428 1.156-2.428.902 0 1.155 1.11 1.155 2.428 0 1.326-.253 2.427-1.155 2.427zM36.355 125.792c-1.814 0-2.184 1.85-2.184 3.285s.37 3.285 2.184 3.285 2.184-1.85 2.184-3.285-.37-3.285-2.184-3.285zm0 5.712c-.902 0-1.155-1.1-1.155-2.427 0-1.318.253-2.428 1.155-2.428.903 0 1.155 1.11 1.155 2.428 0 1.326-.252 2.427-1.155 2.427zM46.49 126.351c-.55-.37-1.083-.56-1.606-.56-.722 0-1.318.235-1.778.695-.397.407-.668.948-.822 1.643h-.478l-.235.578h.65c-.009.135-.018.243-.018.325 0 .108.01.207.018.288h-.406l-.244.569h.695c.1.722.343 1.3.731 1.724.452.496 1.083.74 1.887.74a2.48 2.48 0 0 0 1.362-.397v-1.002a2.835 2.835 0 0 1-.613.451c-.199.1-.452.144-.75.144-.46 0-.83-.171-1.1-.514-.235-.28-.389-.659-.46-1.146h1.813l.226-.569h-2.085c-.009-.027-.009-.126-.009-.28v-.207c0-.054 0-.1.01-.126h2.21l.235-.578H43.34c.081-.424.235-.776.46-1.056.271-.316.605-.478 1.011-.478.46 0 .876.19 1.264.577l.415-.82z"/></g><g style="font-size:9.02489281px;font-style:normal;font-variant:normal;font-weight:500;font-stretch:normal;text-align:end;line-height:125%;letter-spacing:0;word-spacing:0;writing-mode:lr-tb;text-anchor:end;fill:#4a4d5b;fill-opacity:1;stroke:none;font-family:Helvetica Neue LT Pro;-inkscape-font-specification:Helvetica Neue LT Pro"><path d="M28.22 86.992h.018v2.78h-1.913l1.895-2.78zm1.805 2.78h-.812v-4.008h-.975l-2.707 3.8v1.02h2.707v1.498h.975v-1.498h.812v-.813zM32.847 85.638c-1.814 0-2.184 1.85-2.184 3.285s.37 3.285 2.184 3.285 2.184-1.85 2.184-3.285-.37-3.285-2.184-3.285zm0 5.713c-.903 0-1.155-1.101-1.155-2.428 0-1.318.252-2.428 1.155-2.428.902 0 1.155 1.11 1.155 2.428 0 1.327-.253 2.428-1.155 2.428zM37.87 85.638c-1.814 0-2.184 1.85-2.184 3.285s.37 3.285 2.184 3.285 2.184-1.85 2.184-3.285-.37-3.285-2.184-3.285zm0 5.713c-.902 0-1.155-1.101-1.155-2.428 0-1.318.253-2.428 1.155-2.428.903 0 1.156 1.11 1.156 2.428 0 1.327-.253 2.428-1.156 2.428zM48.005 86.198c-.55-.37-1.083-.56-1.606-.56-.722 0-1.318.235-1.778.695-.397.406-.668.948-.821 1.642h-.479l-.234.578h.65c-.01.135-.019.244-.019.325 0 .108.01.208.018.289h-.406l-.243.568h.695c.099.722.342 1.3.73 1.724.452.496 1.084.74 1.887.74a2.48 2.48 0 0 0 1.362-.397V90.8a2.835 2.835 0 0 1-.613.451c-.199.1-.451.145-.75.145-.46 0-.83-.172-1.1-.515-.235-.28-.388-.658-.46-1.146h1.813l.226-.568h-2.085c-.009-.027-.009-.127-.009-.28v-.208c0-.054 0-.099.01-.126h2.21l.235-.578h-2.383c.082-.424.235-.776.46-1.055.271-.316.605-.479 1.012-.479.46 0 .875.19 1.263.578l.415-.821z"/></g><g style="font-size:9.02489281px;font-style:normal;font-variant:normal;font-weight:500;font-stretch:normal;text-align:end;line-height:125%;letter-spacing:0;word-spacing:0;writing-mode:lr-tb;text-anchor:end;fill:#4a4d5b;fill-opacity:1;stroke:none;font-family:Helvetica Neue LT Pro;-inkscape-font-specification:Helvetica Neue LT Pro"><path d="M26.758 45.28h1.028c.172-.443.587-.578 1.02-.578.83 0 1.2.622 1.2 1.317 0 .767-.297 1.39-1.173 1.39-.677 0-1.1-.379-1.164-1.065H26.64c.045 1.264.993 1.922 2.211 1.922 1.553 0 2.184-1.254 2.184-2.265 0-1.21-.713-2.112-1.976-2.112-.424 0-.885.163-1.164.479l-.018-.018.325-1.607h2.5v-.92h-3.268l-.676 3.456zM33.857 41.696c-1.814 0-2.184 1.85-2.184 3.285s.37 3.285 2.184 3.285 2.184-1.85 2.184-3.285-.37-3.285-2.184-3.285zm0 5.713c-.903 0-1.155-1.1-1.155-2.428 0-1.317.252-2.427 1.155-2.427.902 0 1.155 1.11 1.155 2.427 0 1.327-.253 2.428-1.155 2.428zM38.88 41.696c-1.814 0-2.184 1.85-2.184 3.285s.37 3.285 2.185 3.285c1.814 0 2.184-1.85 2.184-3.285s-.37-3.285-2.184-3.285zm0 5.713c-.902 0-1.155-1.1-1.155-2.428 0-1.317.253-2.427 1.156-2.427.902 0 1.155 1.11 1.155 2.427 0 1.327-.253 2.428-1.155 2.428zM49.015 42.256c-.55-.37-1.083-.56-1.606-.56-.722 0-1.318.235-1.778.695-.397.406-.668.948-.821 1.643h-.479l-.234.577h.65c-.01.136-.019.244-.019.325 0 .109.01.208.019.29h-.407l-.243.568h.695c.099.722.343 1.3.73 1.723.452.497 1.084.74 1.887.74a2.48 2.48 0 0 0 1.363-.397V46.86a2.835 2.835 0 0 1-.614.45c-.199.1-.451.145-.75.145-.46 0-.83-.171-1.1-.514-.235-.28-.388-.659-.46-1.146h1.814l.225-.569h-2.085c-.009-.027-.009-.126-.009-.28v-.207c0-.054 0-.1.01-.127h2.21l.235-.577h-2.382c.08-.424.234-.776.46-1.056.27-.316.605-.478 1.01-.478.461 0 .876.19 1.264.577l.415-.821z"/></g><g style="font-size:9.02489281px;font-style:normal;font-variant:normal;font-weight:500;font-stretch:normal;text-align:end;line-height:125%;letter-spacing:0;word-spacing:0;writing-mode:lr-tb;text-anchor:end;fill:#4a4d5b;fill-opacity:1;stroke:none;font-family:Helvetica Neue LT Pro;-inkscape-font-specification:Helvetica Neue LT Pro"><path d="M91.46 276.873h1.127v-2.653h1.661c1.038 0 1.282.523 1.282 1.705 0 .316 0 .668.171.948h1.21c-.244-.262-.353-.939-.353-1.697 0-1.01-.568-1.317-.956-1.362v-.019c.216-.072 1.065-.388 1.065-1.624 0-1.092-.713-1.742-2.13-1.742h-3.078v6.444zm1.127-5.523h1.832c.587 0 1.12.153 1.12.983 0 .686-.38 1.03-1.101 1.03h-1.85v-2.013zM97.805 276.873h4.702v-.975h-3.574v-1.886h3.249v-.92h-3.249v-1.688h3.51v-.975h-4.638v6.444zM104.915 276.873h1.255l2.202-6.444h-1.146l-1.652 5.1h-.018l-1.615-5.1h-1.174l2.148 6.444zM109.016 276.873h4.702v-.975h-3.574v-1.886h3.249v-.92h-3.25v-1.688h3.511v-.975h-4.638v6.444zM114.664 276.873h1.074v-4.738h.027l2.933 4.738h1.191v-6.444h-1.074v4.747h-.018l-2.942-4.747h-1.191v6.444zM121.159 274.554c0 1.651 1.056 2.472 2.644 2.472s2.644-.82 2.644-2.472v-4.125h-1.128v3.755c0 .866-.054 1.868-1.516 1.868s-1.516-1.002-1.516-1.868v-3.755h-1.128v4.125zM81.765 288.154h1.128v-2.473h1.714c1.842 0 2.194-1.173 2.194-1.976 0-.803-.352-1.995-2.194-1.995h-2.842v6.444zm1.128-5.523h1.67c.595 0 1.11.217 1.11 1.065 0 .812-.623 1.065-1.129 1.065h-1.651v-2.13zM87.793 288.154h1.128v-2.653h1.66c1.039 0 1.282.523 1.282 1.706 0 .315 0 .667.172.947h1.209c-.244-.262-.352-.938-.352-1.697 0-1.01-.569-1.317-.957-1.362v-.018c.217-.073 1.065-.388 1.065-1.625 0-1.092-.713-1.742-2.13-1.742h-3.077v6.444zm1.128-5.523h1.832c.587 0 1.12.153 1.12.984 0 .686-.38 1.028-1.102 1.028h-1.85v-2.012zM96.882 282.477c1.381 0 1.959 1.219 1.959 2.455 0 1.237-.578 2.455-1.959 2.455-1.38 0-1.958-1.218-1.958-2.455 0-1.236.577-2.455 1.958-2.455zm0-.92c-1.922 0-3.086 1.543-3.086 3.375 0 1.85 1.164 3.376 3.086 3.376s3.087-1.526 3.087-3.376c0-1.832-1.165-3.375-3.087-3.375zM100.995 288.154h2.672c1.985 0 2.843-1.444 2.843-3.222s-.858-3.222-2.843-3.222h-2.672v6.444zm1.128-5.523h1.11c1.77 0 2.148 1.002 2.148 2.301 0 1.3-.379 2.302-2.147 2.302h-1.11v-4.603zM107.445 285.835c0 1.651 1.056 2.473 2.644 2.473 1.589 0 2.645-.822 2.645-2.473v-4.125h-1.128v3.755c0 .866-.055 1.868-1.517 1.868s-1.516-1.002-1.516-1.868v-3.755h-1.128v4.125zM114.04 288.154h1.127v-6.444h-1.128v6.444zM115.928 282.685h2.04v5.47h1.128v-5.47h2.049v-.975h-5.217v.975zM121.513 286.006c.027 1.598 1.218 2.302 2.69 2.302 1.272 0 2.562-.578 2.562-2.022 0-.686-.415-1.38-1.254-1.643-.334-.099-1.76-.469-1.86-.496-.46-.135-.767-.37-.767-.83 0-.65.66-.84 1.183-.84.785 0 1.326.307 1.39 1.138h1.128c0-1.345-1.138-2.058-2.473-2.058-1.164 0-2.356.596-2.356 1.895 0 .668.316 1.345 1.426 1.634.894.243 1.462.36 1.923.532.261.1.532.298.532.794 0 .479-.37.975-1.363.975-.902 0-1.633-.397-1.633-1.38h-1.128z"/></g><g style="font-size:9.02489281px;font-style:normal;font-variant:normal;font-weight:500;font-stretch:normal;text-align:end;line-height:125%;letter-spacing:0;word-spacing:0;writing-mode:lr-tb;text-anchor:end;fill:#4a4d5b;fill-opacity:1;stroke:none;font-family:Helvetica Neue LT Pro;-inkscape-font-specification:Helvetica Neue LT Pro"><path d="M173.84 276.873h1.128v-2.653h1.66c1.039 0 1.282.523 1.282 1.705 0 .316 0 .668.172.948h1.21c-.244-.262-.353-.939-.353-1.697 0-1.01-.568-1.317-.956-1.362v-.019c.216-.072 1.065-.388 1.065-1.624 0-1.092-.713-1.742-2.13-1.742h-3.078v6.444zm1.128-5.523h1.832c.587 0 1.12.153 1.12.983 0 .686-.38 1.03-1.102 1.03h-1.85v-2.013zM180.186 276.873h4.702v-.975h-3.574v-1.886h3.249v-.92h-3.249v-1.688h3.51v-.975h-4.638v6.444zM187.296 276.873h1.255l2.202-6.444h-1.146l-1.652 5.1h-.018l-1.615-5.1h-1.174l2.148 6.444zM191.396 276.873h4.702v-.975h-3.573v-1.886h3.249v-.92h-3.25v-1.688h3.511v-.975h-4.639v6.444zM197.045 276.873h1.074v-4.738h.027l2.933 4.738h1.191v-6.444h-1.074v4.747h-.018l-2.942-4.747h-1.191v6.444zM203.54 274.554c0 1.651 1.055 2.472 2.644 2.472 1.588 0 2.644-.82 2.644-2.472v-4.125H207.7v3.755c0 .866-.054 1.868-1.516 1.868s-1.516-1.002-1.516-1.868v-3.755h-1.128v4.125zM165.926 286.006c.027 1.598 1.218 2.302 2.689 2.302 1.272 0 2.563-.578 2.563-2.022 0-.686-.415-1.38-1.254-1.643-.334-.099-1.76-.469-1.86-.496-.46-.135-.767-.37-.767-.83 0-.65.66-.84 1.183-.84.785 0 1.326.307 1.39 1.138h1.128c0-1.345-1.138-2.058-2.473-2.058-1.165 0-2.356.596-2.356 1.895 0 .668.316 1.345 1.426 1.634.894.243 1.462.36 1.922.532.262.1.533.298.533.794 0 .479-.37.975-1.363.975-.902 0-1.633-.397-1.633-1.38h-1.128zM172.166 288.154h4.702v-.975h-3.574v-1.886h3.249v-.92h-3.25v-1.688h3.511v-.975h-4.638v6.444zM177.86 288.154h1.127v-2.653h1.66c1.039 0 1.282.523 1.282 1.706 0 .315 0 .667.172.947h1.21c-.245-.262-.353-.938-.353-1.697 0-1.01-.568-1.317-.956-1.362v-.018c.216-.073 1.064-.388 1.064-1.625 0-1.092-.712-1.742-2.13-1.742h-3.077v6.444zm1.127-5.523h1.832c.587 0 1.12.153 1.12.984 0 .686-.38 1.028-1.102 1.028h-1.85v-2.012zM185.463 288.154h1.254l2.203-6.444h-1.147l-1.651 5.1h-.018l-1.616-5.1h-1.173l2.148 6.444zM189.563 288.154h1.128v-6.444h-1.128v6.444zM197.544 283.759c-.144-1.39-1.272-2.202-2.734-2.202-1.922 0-3.087 1.543-3.087 3.375 0 1.85 1.165 3.376 3.087 3.376 1.561 0 2.644-1.065 2.743-2.609h-1.1c-.1.939-.632 1.688-1.643 1.688-1.381 0-1.959-1.218-1.959-2.455 0-1.236.578-2.455 1.959-2.455.938 0 1.417.533 1.606 1.282h1.128zM198.588 288.154h4.702v-.975h-3.574v-1.886h3.25v-.92h-3.25v-1.688h3.511v-.975h-4.639v6.444zM203.894 286.006c.027 1.598 1.218 2.302 2.689 2.302 1.272 0 2.563-.578 2.563-2.022 0-.686-.415-1.38-1.254-1.643-.334-.099-1.76-.469-1.86-.496-.46-.135-.767-.37-.767-.83 0-.65.66-.84 1.183-.84.785 0 1.326.307 1.39 1.138h1.128c0-1.345-1.138-2.058-2.473-2.058-1.165 0-2.356.596-2.356 1.895 0 .668.316 1.345 1.426 1.634.894.243 1.462.36 1.922.532.262.1.533.298.533.794 0 .479-.37.975-1.363.975-.902 0-1.633-.397-1.633-1.38h-1.128z"/></g><g style="font-size:9.02489281px;font-style:normal;font-variant:normal;font-weight:500;font-stretch:normal;text-align:end;line-height:125%;letter-spacing:0;word-spacing:0;writing-mode:lr-tb;text-anchor:end;fill:#4a4d5b;fill-opacity:1;stroke:none;font-family:Helvetica Neue LT Pro;-inkscape-font-specification:Helvetica Neue LT Pro"><path d="M254.127 272.478c-.144-1.39-1.272-2.202-2.734-2.202-1.922 0-3.087 1.543-3.087 3.375 0 1.85 1.165 3.375 3.087 3.375 1.561 0 2.644-1.064 2.743-2.608h-1.1c-.1.939-.632 1.688-1.643 1.688-1.38 0-1.959-1.218-1.959-2.455 0-1.236.578-2.455 1.959-2.455.938 0 1.417.533 1.606 1.282h1.128zM257.915 271.196c1.38 0 1.958 1.219 1.958 2.455 0 1.237-.577 2.455-1.958 2.455s-1.959-1.218-1.959-2.455c0-1.236.578-2.455 1.959-2.455zm0-.92c-1.923 0-3.087 1.543-3.087 3.375 0 1.85 1.164 3.375 3.087 3.375 1.922 0 3.086-1.525 3.086-3.375 0-1.832-1.164-3.375-3.086-3.375zM261.956 274.554c0 1.651 1.056 2.472 2.644 2.472s2.644-.82 2.644-2.472v-4.125h-1.128v3.755c0 .866-.054 1.868-1.516 1.868s-1.516-1.002-1.516-1.868v-3.755h-1.128v4.125zm2.653-5.56.64.813h.84l-.974-1.291h-1.002l-.966 1.29h.83l.632-.812zM267.936 271.404h2.04v5.469h1.128v-5.47h2.049v-.974h-5.217v.975zM273.52 274.725c.027 1.597 1.219 2.301 2.69 2.301 1.272 0 2.563-.577 2.563-2.021 0-.686-.415-1.38-1.255-1.643-.334-.099-1.76-.469-1.859-.496-.46-.135-.767-.37-.767-.83 0-.65.659-.84 1.182-.84.786 0 1.327.307 1.39 1.137h1.128c0-1.344-1.137-2.057-2.472-2.057-1.165 0-2.356.595-2.356 1.895 0 .668.316 1.345 1.426 1.634.893.243 1.462.36 1.922.532.262.1.533.298.533.794 0 .479-.37.975-1.363.975-.903 0-1.634-.397-1.634-1.38h-1.128zM254.501 288.154h1.128v-2.86h2.916v-.921h-2.916v-1.688h3.322v-.975h-4.45v6.444zM259.86 288.154h1.128v-6.444h-1.128v6.444zM263.933 284.815l-2.283 3.34h1.29l1.634-2.465 1.606 2.464h1.372l-2.283-3.34 2.13-3.104h-1.264l-1.525 2.275-1.462-2.275h-1.345l2.13 3.105zM268.215 288.154h4.702v-.975h-3.574v-1.886h3.25v-.92h-3.25v-1.688h3.51v-.975h-4.638v6.444zM273.52 286.006c.027 1.598 1.219 2.302 2.69 2.302 1.272 0 2.563-.578 2.563-2.022 0-.686-.415-1.38-1.255-1.643-.334-.099-1.76-.469-1.859-.496-.46-.135-.767-.37-.767-.83 0-.65.659-.84 1.182-.84.786 0 1.327.307 1.39 1.138h1.128c0-1.345-1.137-2.058-2.472-2.058-1.165 0-2.356.596-2.356 1.895 0 .668.316 1.345 1.426 1.634.893.243 1.462.36 1.922.532.262.1.533.298.533.794 0 .479-.37.975-1.363.975-.903 0-1.634-.397-1.634-1.38h-1.128z"/></g><g style="font-size:9.02489281px;font-style:normal;font-variant:normal;font-weight:500;font-stretch:normal;text-align:end;line-height:125%;letter-spacing:0;word-spacing:0;writing-mode:lr-tb;text-anchor:end;fill:#4a4d5b;fill-opacity:1;stroke:none;font-family:Helvetica Neue LT Pro;-inkscape-font-specification:Helvetica Neue LT Pro"><path d="M342.034 272.478c-.145-1.39-1.273-2.202-2.735-2.202-1.922 0-3.087 1.543-3.087 3.375 0 1.85 1.165 3.375 3.087 3.375 1.561 0 2.644-1.064 2.744-2.608h-1.102c-.099.939-.631 1.688-1.642 1.688-1.38 0-1.958-1.218-1.958-2.455 0-1.236.577-2.455 1.958-2.455.939 0 1.417.533 1.606 1.282h1.129zM345.82 271.196c1.382 0 1.96 1.219 1.96 2.455 0 1.237-.578 2.455-1.96 2.455-1.38 0-1.958-1.218-1.958-2.455 0-1.236.578-2.455 1.959-2.455zm0-.92c-1.921 0-3.086 1.543-3.086 3.375 0 1.85 1.165 3.375 3.087 3.375 1.922 0 3.086-1.525 3.086-3.375 0-1.832-1.164-3.375-3.086-3.375zM349.862 274.554c0 1.651 1.056 2.472 2.644 2.472 1.589 0 2.644-.82 2.644-2.472v-4.125h-1.128v3.755c0 .866-.054 1.868-1.516 1.868s-1.516-1.002-1.516-1.868v-3.755h-1.128v4.125zm2.653-5.56.641.813h.84l-.975-1.291h-1.002l-.966 1.29h.83l.632-.812zM355.842 271.404h2.04v5.469h1.128v-5.47h2.049v-.974h-5.217v.975zM361.426 274.725c.028 1.597 1.219 2.301 2.69 2.301 1.272 0 2.563-.577 2.563-2.021 0-.686-.415-1.38-1.255-1.643-.333-.099-1.76-.469-1.859-.496-.46-.135-.767-.37-.767-.83 0-.65.66-.84 1.183-.84.785 0 1.326.307 1.39 1.137h1.127c0-1.344-1.137-2.057-2.472-2.057-1.165 0-2.356.595-2.356 1.895 0 .668.316 1.345 1.426 1.634.894.243 1.462.36 1.922.532.262.1.533.298.533.794 0 .479-.37.975-1.363.975-.902 0-1.633-.397-1.633-1.38h-1.129zM320.081 288.154h1.255l2.202-6.444h-1.146l-1.652 5.1h-.018l-1.616-5.1h-1.173l2.148 6.444zM322.939 288.154h1.164l.605-1.706h2.572l.604 1.706h1.21l-2.482-6.444h-1.2l-2.473 6.444zm3.05-5.334h.027l.966 2.771h-1.967l.974-2.77zM329.716 288.154h1.128v-2.653h1.66c1.039 0 1.282.523 1.282 1.706 0 .315 0 .667.172.947h1.21c-.244-.262-.353-.938-.353-1.697 0-1.01-.568-1.317-.956-1.362v-.018c.216-.073 1.065-.388 1.065-1.625 0-1.092-.713-1.742-2.13-1.742h-3.078v6.444zm1.128-5.523h1.832c.587 0 1.12.153 1.12.984 0 .686-.38 1.028-1.102 1.028h-1.85v-2.012zM336.062 288.154h1.128v-6.444h-1.128v6.444zM337.816 288.154h1.164l.605-1.706h2.572l.604 1.706h1.21l-2.482-6.444h-1.2l-2.473 6.444zm3.05-5.334h.027l.966 2.771h-1.967l.974-2.77zM345.721 282.63h1.841c.614 0 .948.236.948.885 0 .578-.406.894-.948.894h-1.84v-1.778zm-1.128 5.524h2.96c1.67 0 2.374-.785 2.374-1.796 0-.875-.415-1.489-1.21-1.66v-.018c.587-.253.921-.722.921-1.372 0-1.074-.758-1.598-1.913-1.598h-3.132v6.444zm1.128-2.933h1.995c.686 0 1.083.352 1.083.993 0 .65-.397 1.02-1.083 1.02h-1.995v-2.013zM350.939 288.154h4.404v-.975h-3.276v-5.469h-1.128v6.444zM356.121 288.154h4.702v-.975h-3.574v-1.886h3.25v-.92h-3.25v-1.688h3.51v-.975h-4.638v6.444zM361.426 286.006c.028 1.598 1.219 2.302 2.69 2.302 1.272 0 2.563-.578 2.563-2.022 0-.686-.415-1.38-1.255-1.643-.333-.099-1.76-.469-1.859-.496-.46-.135-.767-.37-.767-.83 0-.65.66-.84 1.183-.84.785 0 1.326.307 1.39 1.138h1.127c0-1.345-1.137-2.058-2.472-2.058-1.165 0-2.356.596-2.356 1.895 0 .668.316 1.345 1.426 1.634.894.243 1.462.36 1.922.532.262.1.533.298.533.794 0 .479-.37.975-1.363.975-.902 0-1.633-.397-1.633-1.38h-1.129z"/></g><g style="font-size:9.02489281px;font-style:normal;font-variant:normal;font-weight:500;font-stretch:normal;text-align:end;line-height:125%;letter-spacing:0;word-spacing:0;writing-mode:lr-tb;text-anchor:end;fill:#4a4d5b;fill-opacity:1;stroke:none;font-family:Helvetica Neue LT Pro;-inkscape-font-specification:Helvetica Neue LT Pro"><path d="M405.84 271.404h2.039v5.469h1.128v-5.47h2.049v-.974h-5.217v.975zM414.555 271.196c1.38 0 1.958 1.219 1.958 2.455 0 1.237-.577 2.455-1.958 2.455-1.38 0-1.958-1.218-1.958-2.455 0-1.236.577-2.455 1.958-2.455zm0-.92c-1.922 0-3.086 1.543-3.086 3.375 0 1.85 1.164 3.375 3.086 3.375s3.087-1.525 3.087-3.375c0-1.832-1.165-3.375-3.087-3.375zM418.055 271.404h2.04v5.469h1.127v-5.47h2.049v-.974h-5.216v.975zM422.45 276.873h1.164l.604-1.706h2.572l.605 1.706h1.21l-2.483-6.444h-1.2l-2.473 6.444zm3.05-5.334h.027l.965 2.771h-1.967l.975-2.77zM429.227 276.873h4.404v-.975h-3.276v-5.469h-1.128v6.444z"/></g><path d="M521.092 229.362h49.286v135.286h-49.286z" style="color:#000;color-interpolation:sRGB;color-interpolation-filters:linearRGB;fill:#2c5aa0;stroke:none;stroke-width:1;marker:none;visibility:visible;display:inline;overflow:visible;enable-background:accumulate;clip-rule:nonzero" transform="translate(-126 -106.934)"/><g style="font-size:13.30149364px;font-style:normal;font-variant:normal;font-weight:700;font-stretch:normal;text-align:end;line-height:125%;letter-spacing:0;word-spacing:0;writing-mode:lr-tb;text-anchor:end;fill:#fff;fill-opacity:1;stroke:none;font-family:Helvetica Neue LT Pro;-inkscape-font-specification:Helvetica Neue LT Pro"><path d="M405.849 134.24c.917 0 2.155-.026 2.155 1.384 0 .891-.666 1.463-1.517 1.463-1.09 0-1.596-.825-1.636-1.836h-1.796c-.04 2.142 1.37 3.392 3.459 3.392 1.809 0 3.458-1.104 3.458-3.059 0-1.05-.625-1.889-1.65-2.115v-.027c.865-.252 1.304-1.01 1.304-1.902 0-1.662-1.636-2.58-3.126-2.58-1.928 0-3.152 1.303-3.219 3.219h1.796c-.013-.958.48-1.663 1.437-1.663.691 0 1.317.44 1.317 1.237 0 1.064-1.17 1.224-1.982 1.157v1.33zM412.521 132.724c0-.984.36-2.141 1.477-2.141.811 0 1.396.545 1.396 1.436 0 1.144-1.144 1.703-1.955 2.275-1.61 1.104-2.94 1.995-2.94 4.163h6.837v-1.623h-4.402c1.356-1.915 4.35-2.141 4.35-4.961 0-1.822-1.49-2.913-3.193-2.913-2.235 0-3.445 1.636-3.379 3.764h1.81zM419.792 133.762c0-.971-.013-3.246 1.517-3.246 1.543 0 1.543 2.275 1.543 3.246 0 1.05 0 3.325-1.543 3.325-1.517 0-1.517-2.274-1.517-3.325zm-1.888 0c0 3.71 1.556 4.881 3.405 4.881 1.862 0 3.432-1.17 3.432-4.881 0-3.632-1.57-4.802-3.432-4.802-1.85 0-3.405 1.17-3.405 4.802zM436.38 129.519c-.865-.44-1.664-.666-2.422-.666-1.05 0-1.928.333-2.633 1.011-.665.626-1.104 1.464-1.317 2.541h-.679l-.412.958h.971c-.013.04-.013.12-.013.212v.346h-.532l-.413.958h1.025c.186 1.157.585 2.062 1.21 2.714.678.731 1.57 1.09 2.7 1.09.758 0 1.45-.173 2.049-.532l.013-2.008c-.705.558-1.397.838-2.049.838-1.024 0-1.689-.705-1.968-2.102h2.314l.413-.958h-2.834l.014-.558h2.98l.412-.958h-3.246c.306-1.21.931-1.822 1.862-1.822.532 0 1.118.2 1.743.598l.811-1.662z"/></g><path d="M284.668 173.22h49.286v62.142h-49.286z" style="color:#000;color-interpolation:sRGB;color-interpolation-filters:linearRGB;fill:#08a;stroke:none;stroke-width:1;marker:none;visibility:visible;display:inline;overflow:visible;enable-background:accumulate;clip-rule:nonzero" transform="translate(-126 -106.934)"/><g style="font-size:13.30149364px;font-style:normal;font-variant:normal;font-weight:700;font-stretch:normal;text-align:end;line-height:125%;letter-spacing:0;word-spacing:0;writing-mode:lr-tb;text-anchor:end;fill:#fff;fill-opacity:1;stroke:none;font-family:Helvetica Neue LT Pro;-inkscape-font-specification:Helvetica Neue LT Pro"><path d="M171.606 73.003h-1.503c-.213 1.423-1.41 1.889-2.727 1.85v1.422h2.341v6.04h1.889v-9.312zM180.447 73.003h-5.201l-.918 5.148h1.703c.372-.519.744-.745 1.423-.745 1.01 0 1.61.772 1.61 1.743 0 .93-.626 1.795-1.61 1.795-.838 0-1.437-.558-1.53-1.396h-1.889c.04 1.955 1.65 2.952 3.459 2.952 1.862.04 3.458-1.436 3.458-3.351 0-1.743-1.037-3.166-2.873-3.166-.745 0-1.304.2-1.822.718l-.027-.027.373-2.115h3.844v-1.556zM183.368 77.619c0-.971-.013-3.246 1.517-3.246 1.543 0 1.543 2.275 1.543 3.246 0 1.05 0 3.325-1.543 3.325-1.517 0-1.517-2.274-1.517-3.325zm-1.889 0c0 3.711 1.557 4.881 3.406 4.881 1.862 0 3.431-1.17 3.431-4.881 0-3.631-1.57-4.802-3.431-4.802-1.85 0-3.406 1.17-3.406 4.802zM199.955 73.376c-.865-.44-1.663-.665-2.42-.665-1.052 0-1.93.332-2.635 1.01-.665.626-1.104 1.464-1.316 2.541h-.679l-.412.958h.97c-.012.04-.012.12-.012.213v.345h-.533l-.412.958h1.024c.187 1.157.586 2.062 1.21 2.714.68.731 1.57 1.09 2.701 1.09.758 0 1.45-.173 2.048-.532l.014-2.008c-.705.558-1.397.838-2.049.838-1.024 0-1.689-.705-1.968-2.102h2.314l.412-.958h-2.833l.014-.558h2.98l.411-.958h-3.245c.306-1.21.931-1.822 1.862-1.822.532 0 1.117.2 1.743.598l.811-1.662z"/></g><path d="M363.357 173.648h49.286v30.428h-49.286z" style="color:#000;color-interpolation:sRGB;color-interpolation-filters:linearRGB;fill:#a05a2c;stroke:none;stroke-width:1;marker:none;visibility:visible;display:inline;overflow:visible;enable-background:accumulate;clip-rule:nonzero" transform="translate(-126 -106.934)"/><g style="font-size:13.30149364px;font-style:normal;font-variant:normal;font-weight:700;font-stretch:normal;text-align:end;line-height:125%;letter-spacing:0;word-spacing:0;writing-mode:lr-tb;text-anchor:end;fill:#fff;fill-opacity:1;stroke:none;font-family:Helvetica Neue LT Pro;-inkscape-font-specification:Helvetica Neue LT Pro"><path d="M246.571 79.923h4.004V78.3h-4.004v1.623zM258.147 73.432h-6.358v1.756h4.416c-1.77 2.141-2.913 4.788-3.126 7.555h2.022c.04-2.488 1.09-5.973 3.046-7.688v-1.623zM260.842 78.047c0-.97-.013-3.245 1.516-3.245 1.543 0 1.543 2.274 1.543 3.245 0 1.051 0 3.326-1.543 3.326-1.516 0-1.516-2.275-1.516-3.326zm-1.889 0c0 3.712 1.557 4.882 3.405 4.882 1.863 0 3.432-1.17 3.432-4.882 0-3.63-1.57-4.801-3.432-4.801-1.848 0-3.405 1.17-3.405 4.801zM277.429 73.804c-.865-.439-1.663-.665-2.421-.665-1.05 0-1.929.333-2.634 1.011-.665.625-1.104 1.463-1.317 2.54h-.678l-.412.958h.97c-.013.04-.013.12-.013.213v.346h-.532l-.412.958h1.024c.186 1.157.586 2.061 1.21 2.713.68.732 1.57 1.091 2.7 1.091.76 0 1.45-.173 2.05-.532l.013-2.009c-.705.559-1.397.838-2.049.838-1.024 0-1.69-.705-1.968-2.101h2.314l.412-.958h-2.833l.013-.559h2.98l.412-.957h-3.245c.306-1.21.93-1.823 1.862-1.823.532 0 1.117.2 1.742.599l.812-1.663z"/></g><path d="M442.225 204.588h49.285v24.857h-49.285z" style="color:#000;color-interpolation:sRGB;color-interpolation-filters:linearRGB;fill:#a05a2c;stroke:none;stroke-width:1;marker:none;visibility:visible;display:inline;overflow:visible;enable-background:accumulate;clip-rule:nonzero" transform="translate(-126 -106.934)"/><g style="font-size:13.30149364px;font-style:normal;font-variant:normal;font-weight:700;font-stretch:normal;text-align:end;line-height:125%;letter-spacing:0;word-spacing:0;writing-mode:lr-tb;text-anchor:end;fill:#fff;fill-opacity:1;stroke:none;font-family:Helvetica Neue LT Pro;-inkscape-font-specification:Helvetica Neue LT Pro"><path d="M325.439 111.952h4.003v-1.623h-4.003v1.623zM333.942 109.943c.97 0 1.423.878 1.423 1.756 0 .851-.519 1.703-1.423 1.703-.958 0-1.503-.865-1.503-1.73 0-.917.492-1.729 1.503-1.729zm3.152-2.088c-.213-1.65-1.41-2.58-3.02-2.58-2.646 0-3.657 2.58-3.657 4.868 0 2.354.758 4.815 3.578 4.815 1.942 0 3.259-1.503 3.259-3.405 0-.745-.226-1.503-.719-2.075a2.974 2.974 0 0 0-2.141-.958c-.905 0-1.583.293-2.102 1.038l-.026-.027c.04-1.024.425-2.833 1.782-2.833.652 0 1.13.532 1.25 1.157h1.796zM339.71 110.076c0-.97-.014-3.245 1.516-3.245 1.543 0 1.543 2.274 1.543 3.245 0 1.051 0 3.326-1.543 3.326-1.516 0-1.516-2.275-1.516-3.326zm-1.89 0c0 3.711 1.557 4.882 3.406 4.882 1.862 0 3.432-1.17 3.432-4.882 0-3.631-1.57-4.802-3.432-4.802-1.849 0-3.405 1.171-3.405 4.802zM356.296 105.833c-.864-.439-1.662-.665-2.42-.665-1.051 0-1.93.333-2.634 1.011-.665.625-1.104 1.463-1.317 2.54h-.678l-.413.958h.971c-.013.04-.013.12-.013.213v.346h-.532l-.412.958h1.024c.186 1.157.585 2.061 1.21 2.713.679.732 1.57 1.09 2.7 1.09.759 0 1.45-.172 2.049-.531l.013-2.009c-.705.559-1.396.838-2.048.838-1.024 0-1.69-.705-1.969-2.101h2.315l.412-.958h-2.833l.013-.559h2.98l.412-.957h-3.246c.306-1.21.931-1.823 1.863-1.823.532 0 1.117.2 1.742.599l.811-1.663z"/></g><path d="M205.622 235.362h49.286v129.286h-49.286z" style="color:#000;color-interpolation:sRGB;color-interpolation-filters:linearRGB;fill:#08a;stroke:none;stroke-width:1;marker:none;visibility:visible;display:inline;overflow:visible;enable-background:accumulate;clip-rule:nonzero" transform="translate(-126 -106.934)"/><g style="font-size:13.30149364px;font-style:normal;font-variant:normal;font-weight:700;font-stretch:normal;text-align:end;line-height:125%;letter-spacing:0;word-spacing:0;writing-mode:lr-tb;text-anchor:end;fill:#fff;fill-opacity:1;stroke:none;font-family:Helvetica Neue LT Pro;-inkscape-font-specification:Helvetica Neue LT Pro"><path d="M90.378 140.24c.918 0 2.155-.026 2.155 1.384 0 .891-.665 1.463-1.516 1.463-1.09 0-1.596-.825-1.636-1.836h-1.796c-.04 2.142 1.37 3.392 3.458 3.392 1.81 0 3.459-1.104 3.459-3.059 0-1.05-.625-1.889-1.65-2.115v-.027c.865-.252 1.304-1.01 1.304-1.902 0-1.662-1.636-2.58-3.126-2.58-1.929 0-3.152 1.303-3.219 3.219h1.796c-.013-.958.479-1.663 1.436-1.663.692 0 1.317.44 1.317 1.237 0 1.064-1.17 1.224-1.982 1.157v1.33zM96.918 139.762c0-.971-.013-3.246 1.516-3.246 1.543 0 1.543 2.275 1.543 3.246 0 1.05 0 3.325-1.543 3.325-1.516 0-1.516-2.274-1.516-3.325zm-1.889 0c0 3.71 1.556 4.881 3.405 4.881 1.863 0 3.432-1.17 3.432-4.881 0-3.632-1.57-4.802-3.432-4.802-1.849 0-3.405 1.17-3.405 4.802zM104.322 139.762c0-.971-.013-3.246 1.516-3.246 1.543 0 1.543 2.275 1.543 3.246 0 1.05 0 3.325-1.543 3.325-1.516 0-1.516-2.274-1.516-3.325zm-1.889 0c0 3.71 1.557 4.881 3.405 4.881 1.863 0 3.432-1.17 3.432-4.881 0-3.632-1.57-4.802-3.432-4.802-1.848 0-3.405 1.17-3.405 4.802zM120.909 135.519c-.865-.44-1.663-.666-2.421-.666-1.05 0-1.929.333-2.634 1.011-.665.626-1.104 1.464-1.317 2.541h-.678l-.412.958h.97c-.013.04-.013.12-.013.212v.346h-.532l-.412.958h1.024c.186 1.157.585 2.062 1.21 2.714.679.731 1.57 1.09 2.7 1.09.759 0 1.45-.173 2.05-.532l.013-2.008c-.705.558-1.397.838-2.049.838-1.024 0-1.69-.705-1.968-2.102h2.314l.412-.958h-2.833l.013-.558h2.98l.412-.958h-3.245c.306-1.21.93-1.822 1.862-1.822.532 0 1.117.2 1.742.598l.812-1.662z"/></g><path d="M333.877 235.362H205.622M412.923 173.22H284.668M491.612 204.076H363.357" style="fill:none;stroke:#000;stroke-width:1;stroke-linecap:butt;stroke-linejoin:miter;stroke-miterlimit:4;stroke-opacity:1;stroke-dasharray:1.00000001,2.00000003;stroke-dashoffset:0" transform="translate(-126 -106.934)"/></svg>