<svg xmlns="http://www.w3.org/2000/svg" width="1034" font-family="sans-serif" style="max-width:100%;height:intrinsic" text-anchor="middle" viewBox="0 0 1034 500"><text font-size="67" transform="translate(387 272)">freedom</text><text font-size="58" transform="translate(348 321)">negro</text><text font-size="54" transform="translate(261 169)">one</text><text font-size="54" transform="translate(262 222)">let</text><text font-size="51" transform="translate(596 203)">ring</text><text font-size="49" transform="translate(446 348)">nation</text><text font-size="49" transform="translate(602 333)">day</text><text font-size="49" transform="translate(487 214)">dream</text><text font-size="47" transform="translate(622 264)">come</text><text font-size="47" transform="translate(321 363)">every</text><text font-size="45" transform="translate(380 155)">today</text><text font-size="45" transform="translate(448 301)">go</text><text font-size="45" transform="translate(573 369)">back</text><text font-size="42" transform="translate(509 173)">justice</text><text font-size="42" transform="translate(530 144)">must</text><text font-size="42" transform="translate(657 171)">satisfied</text><text font-size="42" transform="translate(448 381)">able</text><text font-size="39" transform="translate(592 293)">together</text><text font-size="36" transform="translate(671 199)">long</text><text font-size="36" transform="translate(331 189)">men</text><text font-size="36" transform="translate(232 293)">white</text><text font-size="36" transform="translate(725 300)">now</text><text font-size="33" transform="translate(374 213)">years</text><text font-size="33" transform="translate(715 276)">great</text><text font-size="33" transform="translate(696 350)">free</text><text font-size="33" transform="translate(619 234)">check</text><text font-size="33" transform="translate(750 322)">america</text><text font-size="33" transform="translate(510 313)">time</text><text font-size="33" transform="translate(493 407)">children</text><text font-size="33" transform="translate(232 242)">new</text><text font-size="33" transform="translate(243 325)">faith</text><text font-size="30" transform="translate(722 368)">american</text><text font-size="30" transform="translate(224 263)">hope</text><text font-size="30" transform="translate(175 212)">hundred</text><text font-size="30" transform="translate(716 256)">later</text><text font-size="30" transform="translate(709 139)">still</text><text font-size="30" transform="translate(398 187)">land</text><text font-size="30" transform="translate(355 392)">black</text><text font-size="30" transform="translate(791 344)">god</text><text font-size="30" transform="translate(123 240)">mississippi</text><text font-size="30" transform="translate(629 396)">mountain</text><text font-size="25" transform="translate(588 416)">join</text><text font-size="25" transform="translate(696 231)">stand</text><text font-size="25" transform="translate(774 228)">injustice</text><text font-size="25" transform="translate(499 234)">words</text><text font-size="25" transform="translate(716 388)">note</text><text font-size="25" transform="translate(399 413)">rights</text><text font-size="25" transform="translate(799 288)">people</text><text font-size="25" transform="translate(673 416)">make</text><text font-size="25" transform="translate(529 254)">rise</text><text font-size="25" transform="translate(346 122)">valley</text><text font-size="25" transform="translate(244 132)">brotherhood</text><text font-size="25" transform="translate(203 345)">sweltering</text><text font-size="25" transform="translate(783 244)">never</text><text font-size="25" transform="translate(762 204)">alabama</text><text font-size="25" transform="translate(441 123)">georgia</text><text font-size="25" transform="translate(430 104)">state</text><text font-size="25" transform="translate(784 265)">little</text><text font-size="25" transform="translate(769 183)">made</text><text font-size="25" transform="translate(836 198)">sing</text><text font-size="25" transform="translate(833 309)">last</text><text font-size="21" transform="translate(189 186)">history</text><text font-size="21" transform="translate(764 160)">came</text><text font-size="21" transform="translate(794 382)">slaves</text><text font-size="21" transform="translate(327 287)">end</text><text font-size="21" transform="translate(329 235)">life</text><text font-size="21" transform="translate(804 142)">segregation</text><text font-size="21" transform="translate(311 107)">cash</text><text font-size="21" transform="translate(134 269)">promissory</text><text font-size="21" transform="translate(848 239)">liberty</text><text font-size="21" transform="translate(824 177)">color</text><text font-size="21" transform="translate(155 310)">insufficient</text><text font-size="21" transform="translate(288 381)">funds</text><text font-size="21" transform="translate(388 286)">refuse</text><text font-size="21" transform="translate(179 162)">believe</text><text font-size="21" transform="translate(474 421)">urgency</text><text font-size="21" transform="translate(337 410)">racial</text><text font-size="21" transform="translate(527 117)">content</text><text font-size="21" transform="translate(399 433)">continue</text><text font-size="21" transform="translate(221 363)">struggle</text><text font-size="21" transform="translate(536 437)">dignity</text><text font-size="21" transform="translate(378 234)">allow</text><text font-size="21" transform="translate(264 399)">creative</text><text font-size="21" transform="translate(105 186)">physical</text><text font-size="21" transform="translate(361 102)">force</text><text font-size="21" transform="translate(139 287)">brothers</text><text font-size="21" transform="translate(629 137)">realize</text><text font-size="21" transform="translate(618 118)">destiny</text><text font-size="21" transform="translate(541 334)">walk</text><text font-size="21" transform="translate(873 220)">police</text><text font-size="21" transform="translate(167 382)">brutality</text><text font-size="21" transform="translate(231 386)">cities</text><text font-size="21" transform="translate(541 383)">vote</text><text font-size="21" transform="translate(390 85)">york</text><text font-size="21" transform="translate(636 364)">like</text><text font-size="21" transform="translate(688 108)">mighty</text><text font-size="21" transform="translate(548 236)">jail</text><text font-size="21" transform="translate(879 274)">suffering</text><text font-size="21" transform="translate(667 313)">work</text><text font-size="21" transform="translate(539 100)">south</text><text font-size="21" transform="translate(615 87)">knowing</text><text font-size="21" transform="translate(629 429)">despair</text><text font-size="21" transform="translate(483 98)">even</text><text font-size="21" transform="translate(306 214)">live</text><text font-size="21" transform="translate(886 199)">true</text><text font-size="21" transform="translate(527 80)">meaning</text><text font-size="21" transform="translate(441 229)">sons</text><text font-size="21" transform="translate(816 362)">former</text><text font-size="21" transform="translate(92 220)">heat</text><text font-size="21" transform="translate(313 426)">boys</text><text font-size="21" transform="translate(880 300)">girls</text><text font-size="21" transform="translate(474 443)">hands</text><text font-size="21" transform="translate(602 105)">hill</text><text font-size="21" transform="translate(749 409)">places</text><text font-size="21" transform="translate(768 128)">stone</text><text font-size="21" transform="translate(130 327)">thee</text><text font-size="21" transform="translate(861 161)">mountainside</text><text font-size="15" transform="translate(260 180)">happy</text><text font-size="15" transform="translate(518 184)">greatest</text><text font-size="15" transform="translate(816 113)">demonstration</text><text font-size="15" transform="translate(333 168)">five</text><text font-size="15" transform="translate(313 334)">score</text><text font-size="15" transform="translate(399 358)">ago</text><text font-size="15" transform="translate(850 324)">symbolic</text><text font-size="15" transform="translate(443 83)">shadow</text><text font-size="15" transform="translate(851 339)">signed</text><text font-size="15" transform="translate(802 396)">emancipation</text><text font-size="15" transform="translate(730 431)">proclamation</text><text font-size="15" transform="translate(900 253)">momentous</text><text font-size="15" transform="translate(871 179)">decree</text><text font-size="15" transform="translate(192 142)">beacon</text><text font-size="15" transform="translate(269 111)">light</text><text font-size="15" transform="translate(154 359)">millions</text><text font-size="15" transform="translate(465 68)">seared</text><text font-size="15" transform="translate(792 98)">flames</text><text font-size="15" transform="translate(413 450)">withering</text><text font-size="15" transform="translate(928 213)">joyous</text><text font-size="15" transform="translate(108 340)">daybreak</text><text font-size="15" transform="translate(341 440)">night</text><text font-size="15" transform="translate(184 323)">captivity</text><text font-size="15" transform="translate(904 311)">sadly</text><text font-size="15" transform="translate(249 414)">crippled</text><text font-size="15" transform="translate(944 234)">manacles</text><text font-size="15" transform="translate(680 82)">chains</text><text font-size="15" transform="translate(601 64)">discrimination</text><text font-size="15" transform="translate(677 295)">lives</text><text font-size="15" transform="translate(461 138)">lonely</text><text font-size="15" transform="translate(902 330)">island</text><text font-size="15" transform="translate(601 444)">poverty</text><text font-size="15" transform="translate(615 305)">midst</text><text font-size="15" transform="translate(417 68)">vast</text><text font-size="15" transform="translate(726 89)">ocean</text><text font-size="15" transform="translate(341 79)">material</text><text font-size="15" transform="translate(531 456)">prosperity</text><text font-size="15" transform="translate(243 427)">languishing</text><text font-size="15" transform="translate(278 441)">corners</text><text font-size="15" transform="translate(930 193)">society</text><text font-size="15" transform="translate(301 92)">finds</text><text font-size="15" transform="translate(546 266)">exile</text><text font-size="15" transform="translate(752 79)">dramatize</text><text font-size="15" transform="translate(246 98)">shameful</text><text font-size="15" transform="translate(662 446)">condition</text><text font-size="15" transform="translate(822 124)">sense</text><text font-size="15" transform="translate(209 111)">capital</text><text font-size="15" transform="translate(83 254)">architects</text><text font-size="15" transform="translate(351 66)">republic</text><text font-size="15" transform="translate(193 398)">wrote</text><text font-size="15" transform="translate(629 461)">magnificent</text><text font-size="15" transform="translate(464 55)">constitution</text><text font-size="15" transform="translate(594 48)">declaration</text><text font-size="15" transform="translate(884 378)">independence</text><text font-size="15" transform="translate(119 163)">signing</text><text font-size="15" transform="translate(566 219)">fall</text><text font-size="15" transform="translate(506 291)">heir</text><text font-size="15" transform="translate(686 69)">promise</text><text font-size="15" transform="translate(666 211)">yes</text><text font-size="15" transform="translate(293 284)">well</text><text font-size="15" transform="translate(924 344)">guaranteed</text><text font-size="15" transform="translate(945 292)">unalienable</text><text font-size="15" transform="translate(721 445)">pursuit</text><text font-size="15" transform="translate(936 175)">happiness</text><text font-size="15" transform="translate(811 412)">obvious</text><text font-size="15" transform="translate(500 472)">defaulted</text><text font-size="15" transform="translate(138 140)">insofar</text><text font-size="15" transform="translate(677 122)">citizens</text><text font-size="15" transform="translate(406 467)">concerned</text><text font-size="15" transform="translate(577 476)">instead</text><text font-size="15" transform="translate(892 133)">honoring</text><text font-size="15" transform="translate(355 456)">sacred</text><text font-size="15" transform="translate(920 361)">obligation</text><text font-size="15" transform="translate(747 338)">given</text><text font-size="15" transform="translate(652 344)">bad</text><text font-size="15" transform="translate(396 52)">marked</text><text font-size="15" transform="translate(262 83)">bank</text><text font-size="15" transform="translate(431 480)">bankrupt</text><text font-size="15" transform="translate(293 69)">vaults</text><text font-size="15" transform="translate(332 47)">opportunity</text><text font-size="15" transform="translate(196 411)">give</text><text font-size="15" transform="translate(71 296)">demand</text><text font-size="15" transform="translate(191 98)">riches</text><text font-size="15" transform="translate(951 266)">security</text><text font-size="15" transform="translate(317 201)">also</text><text font-size="15" transform="translate(209 84)">hallowed</text><text font-size="15" transform="translate(543 419)">spot</text><text font-size="15" transform="translate(241 69)">remind</text><text font-size="15" transform="translate(414 393)">fierce</text><text font-size="15" transform="translate(54 269)">engage</text><text font-size="15" transform="translate(82 312)">luxury</text><text font-size="15" transform="translate(514 42)">cooling</text><text font-size="15" transform="translate(832 93)">take</text><text font-size="15" transform="translate(80 360)">tranquilizing</text><text font-size="15" transform="translate(941 323)">drug</text><text font-size="15" transform="translate(135 401)">gradualism</text><text font-size="15" transform="translate(831 211)">real</text><text font-size="15" transform="translate(808 425)">promises</text><text font-size="15" transform="translate(712 461)">democracy</text><text font-size="15" transform="translate(947 309)">dark</text><text font-size="15" transform="translate(757 63)">desolate</text><text font-size="15" transform="translate(458 39)">sunlit</text><text font-size="15" transform="translate(316 455)">path</text><text font-size="15" transform="translate(282 334)">lift</text><text font-size="15" transform="translate(974 194)">quick</text><text font-size="15" transform="translate(670 57)">sands</text><text font-size="15" transform="translate(474 459)">solid</text><text font-size="15" transform="translate(624 378)">rock</text><text font-size="15" transform="translate(153 121)">reality</text><text font-size="15" transform="translate(621 410)">fatal</text><text font-size="15" transform="translate(49 325)">overlook</text><text font-size="15" transform="translate(73 151)">moment</text><text font-size="15" transform="translate(889 399)">summer</text><text font-size="15" transform="translate(873 416)">legitimate</text><text font-size="15" transform="translate(72 202)">discontent</text><text font-size="15" transform="translate(885 110)">pass</text><text font-size="15" transform="translate(389 32)">invigorating</text><text font-size="15" transform="translate(963 158)">autumn</text><text font-size="15" transform="translate(843 435)">equality</text><text font-size="15" transform="translate(264 56)">nineteen</text><text font-size="15" transform="translate(651 478)">sixty-three</text><text font-size="15" transform="translate(597 32)">beginning</text><text font-size="15" transform="translate(341 470)">needed</text><text font-size="15" transform="translate(657 324)">blow</text><text font-size="15" transform="translate(965 375)">steam</text><text font-size="15" transform="translate(762 444)">rude</text><text font-size="15" transform="translate(503 23)">awakening</text><text font-size="15" transform="translate(664 42)">returns</text><text font-size="15" transform="translate(973 252)">business</text><text font-size="15" transform="translate(107 386)">usual</text><text font-size="15" transform="translate(316 35)">neither</text><text font-size="15" transform="translate(51 219)">rest</text><text font-size="15" transform="translate(968 389)">tranquility</text></svg>