<svg xmlns:xlink="http://www.w3.org/1999/xlink" version="1.1" class="highcharts-root" style="font-family: Helvetica, Arial, sans-serif; font-size: 1rem;" xmlns="http://www.w3.org/2000/svg" width="600" height="400" viewBox="0 0 600 400" aria-label="Interactive chart" aria-hidden="false"><desc aria-hidden="true">Created with Highcharts 11.4.0</desc><defs aria-hidden="true"><filter id="highcharts-drop-shadow-1"><feDropShadow dx="1" dy="1" flood-color="#000000" flood-opacity="0.75" stdDeviation="2.5"></feDropShadow></filter><clipPath id="highcharts-ftpg14j-41-"><rect x="0" y="0" width="527" height="206" fill="none"></rect></clipPath></defs><rect fill="#ffffff" class="highcharts-background" filter="none" x="0" y="0" width="600" height="400" rx="0" ry="0" aria-hidden="true"></rect><rect fill="none" class="highcharts-plot-background" x="63" y="61" width="527" height="206" filter="none" aria-hidden="true"></rect><g class="highcharts-grid highcharts-xaxis-grid" data-z-index="1" aria-hidden="true"><path fill="none" stroke="#e6e6e6" stroke-width="0" stroke-dasharray="none" data-z-index="1" class="highcharts-grid-line" d="M 91.5 61 L 91.5 267" opacity="1"></path><path fill="none" stroke="#e6e6e6" stroke-width="0" stroke-dasharray="none" data-z-index="1" class="highcharts-grid-line" d="M 121.5 61 L 121.5 267" opacity="1"></path><path fill="none" stroke="#e6e6e6" stroke-width="0" stroke-dasharray="none" data-z-index="1" class="highcharts-grid-line" d="M 150.5 61 L 150.5 267" opacity="1"></path><path fill="none" stroke="#e6e6e6" stroke-width="0" stroke-dasharray="none" data-z-index="1" class="highcharts-grid-line" d="M 179.5 61 L 179.5 267" opacity="1"></path><path fill="none" stroke="#e6e6e6" stroke-width="0" stroke-dasharray="none" data-z-index="1" class="highcharts-grid-line" d="M 208.5 61 L 208.5 267" opacity="1"></path><path fill="none" stroke="#e6e6e6" stroke-width="0" stroke-dasharray="none" data-z-index="1" class="highcharts-grid-line" d="M 238.5 61 L 238.5 267" opacity="1"></path><path fill="none" stroke="#e6e6e6" stroke-width="0" stroke-dasharray="none" data-z-index="1" class="highcharts-grid-line" d="M 267.5 61 L 267.5 267" opacity="1"></path><path fill="none" stroke="#e6e6e6" stroke-width="0" stroke-dasharray="none" data-z-index="1" class="highcharts-grid-line" d="M 296.5 61 L 296.5 267" opacity="1"></path><path fill="none" stroke="#e6e6e6" stroke-width="0" stroke-dasharray="none" data-z-index="1" class="highcharts-grid-line" d="M 325.5 61 L 325.5 267" opacity="1"></path><path fill="none" stroke="#e6e6e6" stroke-width="0" stroke-dasharray="none" data-z-index="1" class="highcharts-grid-line" d="M 355.5 61 L 355.5 267" opacity="1"></path><path fill="none" stroke="#e6e6e6" stroke-width="0" stroke-dasharray="none" data-z-index="1" class="highcharts-grid-line" d="M 384.5 61 L 384.5 267" opacity="1"></path><path fill="none" stroke="#e6e6e6" stroke-width="0" stroke-dasharray="none" data-z-index="1" class="highcharts-grid-line" d="M 413.5 61 L 413.5 267" opacity="1"></path><path fill="none" stroke="#e6e6e6" stroke-width="0" stroke-dasharray="none" data-z-index="1" class="highcharts-grid-line" d="M 443.5 61 L 443.5 267" opacity="1"></path><path fill="none" stroke="#e6e6e6" stroke-width="0" stroke-dasharray="none" data-z-index="1" class="highcharts-grid-line" d="M 472.5 61 L 472.5 267" opacity="1"></path><path fill="none" stroke="#e6e6e6" stroke-width="0" stroke-dasharray="none" data-z-index="1" class="highcharts-grid-line" d="M 501.5 61 L 501.5 267" opacity="1"></path><path fill="none" stroke="#e6e6e6" stroke-width="0" stroke-dasharray="none" data-z-index="1" class="highcharts-grid-line" d="M 530.5 61 L 530.5 267" opacity="1"></path><path fill="none" stroke="#e6e6e6" stroke-width="0" stroke-dasharray="none" data-z-index="1" class="highcharts-grid-line" d="M 560.5 61 L 560.5 267" opacity="1"></path><path fill="none" stroke="#e6e6e6" stroke-width="0" stroke-dasharray="none" data-z-index="1" class="highcharts-grid-line" d="M 589.5 61 L 589.5 267" opacity="1"></path><path fill="none" stroke="#e6e6e6" stroke-width="0" stroke-dasharray="none" data-z-index="1" class="highcharts-grid-line" d="M 62.5 61 L 62.5 267" opacity="1"></path></g><g class="highcharts-grid highcharts-yaxis-grid" data-z-index="1" aria-hidden="true"><path fill="none" stroke="#e6e6e6" stroke-width="1" stroke-dasharray="none" data-z-index="1" class="highcharts-grid-line" d="M 63 267.5 L 590 267.5" opacity="1"></path><path fill="none" stroke="#e6e6e6" stroke-width="1" stroke-dasharray="none" data-z-index="1" class="highcharts-grid-line" d="M 63 198.5 L 590 198.5" opacity="1"></path><path fill="none" stroke="#e6e6e6" stroke-width="1" stroke-dasharray="none" data-z-index="1" class="highcharts-grid-line" d="M 63 130.5 L 590 130.5" opacity="1"></path><path fill="none" stroke="#e6e6e6" stroke-width="1" stroke-dasharray="none" data-z-index="1" class="highcharts-grid-line" d="M 63 60.5 L 590 60.5" opacity="1"></path></g><rect fill="none" class="highcharts-plot-border" data-z-index="1" stroke="#cccccc" stroke-width="0" x="63" y="61" width="527" height="206" aria-hidden="true"></rect><g class="highcharts-axis highcharts-xaxis" data-z-index="2" aria-hidden="true"><path fill="none" class="highcharts-axis-line" stroke="#333333" stroke-width="1" data-z-index="7" d="M 63 267.5 L 590 267.5"></path></g><g class="highcharts-axis highcharts-yaxis" data-z-index="2" aria-hidden="true"><text x="23.681249618530273" data-z-index="7" text-anchor="middle" transform="translate(0,0) rotate(270 23.681249618530273 164)" class="highcharts-axis-title" style="color: rgb(102, 102, 102); font-size: 0.8em; fill: rgb(102, 102, 102);" y="164">Values</text><path fill="none" class="highcharts-axis-line" stroke="#333333" stroke-width="0" data-z-index="7" d="M 63 61 L 63 267"></path></g><g class="highcharts-series-group" data-z-index="3" filter="none" aria-hidden="false"><g class="highcharts-series highcharts-series-0 highcharts-variwide-series" data-z-index="0.1" opacity="1" transform="translate(63,61) scale(1 1)" clip-path="url(#highcharts-ftpg14j-41-)" aria-hidden="false"><path fill="#2caffe" d="M 2.5 34.5 L 8.5 34.5 A 3 3 0 0 1 11.5 37.5 L 11.5 206.5 A 0 0 0 0 1 11.5 206.5 L -0.5 206.5 A 0 0 0 0 1 -0.5 206.5 L -0.5 37.5 A 3 3 0 0 1 2.5 34.5 Z" stroke="#ffffff" stroke-width="1" opacity="1" filter="none" class="highcharts-point highcharts-color-0" tabindex="-1" role="img" aria-label="Norway, y: 50.2, z: 335,504. Labor Costs." style="outline: none;"></path><path fill="#544fc5" d="M 14.5 62.5 L 18.5 62.5 A 3 3 0 0 1 21.5 65.5 L 21.5 206.5 A 0 0 0 0 1 21.5 206.5 L 11.5 206.5 A 0 0 0 0 1 11.5 206.5 L 11.5 65.5 A 3 3 0 0 1 14.5 62.5 Z" stroke="#ffffff" stroke-width="1" opacity="1" filter="none" class="highcharts-point highcharts-color-1" tabindex="-1" role="img" aria-label="Denmark, y: 42, z: 277,339. Labor Costs." style="outline: none;"></path><path fill="#00e272" d="M 24.5 71.5 L 33.5 71.5 A 3 3 0 0 1 36.5 74.5 L 36.5 206.5 A 0 0 0 0 1 36.5 206.5 L 21.5 206.5 A 0 0 0 0 1 21.5 206.5 L 21.5 74.5 A 3 3 0 0 1 24.5 71.5 Z" stroke="#ffffff" stroke-width="1" opacity="1" filter="none" class="highcharts-point highcharts-color-2" tabindex="-1" role="img" aria-label="Belgium, y: 39.2, z: 421,611. Labor Costs." style="outline: none;"></path><path fill="#fe6a35" d="M 39.5 76.5 L 50.5 76.5 A 3 3 0 0 1 53.5 79.5 L 53.5 206.5 A 0 0 0 0 1 53.5 206.5 L 36.5 206.5 A 0 0 0 0 1 36.5 206.5 L 36.5 79.5 A 3 3 0 0 1 39.5 76.5 Z" stroke="#ffffff" stroke-width="1" opacity="1" filter="none" class="highcharts-point highcharts-color-3" tabindex="-1" role="img" aria-label="Sweden, y: 38, z: 462,057. Labor Costs." style="outline: none;"></path><path fill="#6b8abc" d="M 56.5 84.5 L 130.5 84.5 A 3 3 0 0 1 133.5 87.5 L 133.5 206.5 A 0 0 0 0 1 133.5 206.5 L 53.5 206.5 A 0 0 0 0 1 53.5 206.5 L 53.5 87.5 A 3 3 0 0 1 56.5 84.5 Z" stroke="#ffffff" stroke-width="1" opacity="1" filter="none" class="highcharts-point highcharts-color-4" tabindex="-1" role="img" aria-label="France, y: 35.6, z: 2,228,857. Labor Costs." style="outline: none;"></path><path fill="#d568fb" d="M 136.5 88.5 L 155.5 88.5 A 3 3 0 0 1 158.5 91.5 L 158.5 206.5 A 0 0 0 0 1 158.5 206.5 L 133.5 206.5 A 0 0 0 0 1 133.5 206.5 L 133.5 91.5 A 3 3 0 0 1 136.5 88.5 Z" stroke="#ffffff" stroke-width="1" opacity="1" filter="none" class="highcharts-point highcharts-color-5" tabindex="-1" role="img" aria-label="Netherlands, y: 34.3, z: 702,641. Labor Costs." style="outline: none;"></path><path fill="#2ee0ca" d="M 161.5 92.5 L 163.5 92.5 A 3 3 0 0 1 166.5 95.5 L 166.5 206.5 A 0 0 0 0 1 166.5 206.5 L 158.5 206.5 A 0 0 0 0 1 158.5 206.5 L 158.5 95.5 A 3 3 0 0 1 161.5 92.5 Z" stroke="#ffffff" stroke-width="1" opacity="1" filter="none" class="highcharts-point highcharts-color-6" tabindex="-1" role="img" aria-label="Finland, y: 33.2, z: 215,615. Labor Costs." style="outline: none;"></path><path fill="#fa4b42" d="M 169.5 93.5 L 275.5 93.5 A 3 3 0 0 1 278.5 96.5 L 278.5 206.5 A 0 0 0 0 1 278.5 206.5 L 166.5 206.5 A 0 0 0 0 1 166.5 206.5 L 166.5 96.5 A 3 3 0 0 1 169.5 93.5 Z" stroke="#ffffff" stroke-width="1" opacity="1" filter="none" class="highcharts-point highcharts-color-7" tabindex="-1" role="img" aria-label="Germany, y: 33, z: 3,144,050. Labor Costs." style="outline: none;"></path><path fill="#feb56a" d="M 281.5 94.5 L 288.5 94.5 A 3 3 0 0 1 291.5 97.5 L 291.5 206.5 A 0 0 0 0 1 291.5 206.5 L 278.5 206.5 A 0 0 0 0 1 278.5 206.5 L 278.5 97.5 A 3 3 0 0 1 281.5 94.5 Z" stroke="#ffffff" stroke-width="1" opacity="1" filter="none" class="highcharts-point highcharts-color-8" tabindex="-1" role="img" aria-label="Austria, y: 32.7, z: 349,344. Labor Costs." style="outline: none;"></path><path fill="#91e8e1" d="M 294.5 102.5 L 298.5 102.5 A 3 3 0 0 1 301.5 105.5 L 301.5 206.5 A 0 0 0 0 1 301.5 206.5 L 291.5 206.5 A 0 0 0 0 1 291.5 206.5 L 291.5 105.5 A 3 3 0 0 1 294.5 102.5 Z" stroke="#ffffff" stroke-width="1" opacity="1" filter="none" class="highcharts-point highcharts-color-9" tabindex="-1" role="img" aria-label="Ireland, y: 30.4, z: 275,567. Labor Costs." style="outline: none;"></path><path fill="#2caffe" d="M 304.5 111.5 L 358.5 111.5 A 3 3 0 0 1 361.5 114.5 L 361.5 206.5 A 0 0 0 0 1 361.5 206.5 L 301.5 206.5 A 0 0 0 0 1 301.5 206.5 L 301.5 114.5 A 3 3 0 0 1 304.5 111.5 Z" stroke="#ffffff" stroke-width="1" opacity="1" filter="none" class="highcharts-point highcharts-color-0" tabindex="-1" role="img" aria-label="Italy, y: 27.8, z: 1,672,438. Labor Costs." style="outline: none;"></path><path fill="#544fc5" d="M 364.5 114.5 L 442.5 114.5 A 3 3 0 0 1 445.5 117.5 L 445.5 206.5 A 0 0 0 0 1 445.5 206.5 L 361.5 206.5 A 0 0 0 0 1 361.5 206.5 L 361.5 117.5 A 3 3 0 0 1 364.5 114.5 Z" stroke="#ffffff" stroke-width="1" opacity="1" filter="none" class="highcharts-point highcharts-color-1" tabindex="-1" role="img" aria-label="United Kingdom, y: 26.7, z: 2,366,911. Labor Costs." style="outline: none;"></path><path fill="#00e272" d="M 448.5 133.5 L 482.5 133.5 A 3 3 0 0 1 485.5 136.5 L 485.5 206.5 A 0 0 0 0 1 485.5 206.5 L 445.5 206.5 A 0 0 0 0 1 445.5 206.5 L 445.5 136.5 A 3 3 0 0 1 448.5 133.5 Z" stroke="#ffffff" stroke-width="1" opacity="1" filter="none" class="highcharts-point highcharts-color-2" tabindex="-1" role="img" aria-label="Spain, y: 21.3, z: 1,113,851. Labor Costs." style="outline: none;"></path><path fill="#fe6a35" d="M 488.5 157.5 L 489.5 157.5 A 3 3 0 0 1 492.5 160.5 L 492.5 206.5 A 0 0 0 0 1 492.5 206.5 L 485.5 206.5 A 0 0 0 0 1 485.5 206.5 L 485.5 160.5 A 3 3 0 0 1 488.5 157.5 Z" stroke="#ffffff" stroke-width="1" opacity="1" filter="none" class="highcharts-point highcharts-color-3" tabindex="-1" role="img" aria-label="Greece, y: 14.2, z: 175,887. Labor Costs." style="outline: none;"></path><path fill="#6b8abc" d="M 495.5 159.5 L 495.5 159.5 A 3 3 0 0 1 498.5 162.5 L 498.5 206.5 A 0 0 0 0 1 498.5 206.5 L 492.5 206.5 A 0 0 0 0 1 492.5 206.5 L 492.5 162.5 A 3 3 0 0 1 495.5 159.5 Z" stroke="#ffffff" stroke-width="1" opacity="1" filter="none" class="highcharts-point highcharts-color-4" tabindex="-1" role="img" aria-label="Portugal, y: 13.7, z: 184,933. Labor Costs." style="outline: none;"></path><path fill="#d568fb" d="M 501.5 171.5 L 502.5 171.5 A 3 3 0 0 1 505.5 174.5 L 505.5 206.5 A 0 0 0 0 1 505.5 206.5 L 498.5 206.5 A 0 0 0 0 1 498.5 206.5 L 498.5 174.5 A 3 3 0 0 1 501.5 171.5 Z" stroke="#ffffff" stroke-width="1" opacity="1" filter="none" class="highcharts-point highcharts-color-5" tabindex="-1" role="img" aria-label="Czech Republic, y: 10.2, z: 176,564. Labor Costs." style="outline: none;"></path><path fill="#2ee0ca" d="M 508.5 176.5 L 517.5 176.5 A 3 3 0 0 1 520.5 179.5 L 520.5 206.5 A 0 0 0 0 1 520.5 206.5 L 505.5 206.5 A 0 0 0 0 1 505.5 206.5 L 505.5 179.5 A 3 3 0 0 1 508.5 176.5 Z" stroke="#ffffff" stroke-width="1" opacity="1" filter="none" class="highcharts-point highcharts-color-6" tabindex="-1" role="img" aria-label="Poland, y: 8.6, z: 424,269. Labor Costs." style="outline: none;"></path><path fill="#fa4b42" d="M 523.5 187.5 L 523.5 187.5 A 3 3 0 0 1 526.5 190.5 L 526.5 206.5 A 0 0 0 0 1 526.5 206.5 L 520.5 206.5 A 0 0 0 0 1 520.5 206.5 L 520.5 190.5 A 3 3 0 0 1 523.5 187.5 Z" stroke="#ffffff" stroke-width="1" opacity="1" filter="none" class="highcharts-point highcharts-color-7" tabindex="-1" role="img" aria-label="Romania, y: 5.5, z: 169,578. Labor Costs." style="outline: none;"></path></g><g class="highcharts-markers highcharts-series-0 highcharts-variwide-series" data-z-index="0.1" opacity="1" transform="translate(63,61) scale(1 1)" clip-path="none" aria-hidden="true"></g></g><text x="300" text-anchor="middle" class="highcharts-title" data-z-index="4" style="font-size: 1.2em; color: rgb(51, 51, 51); font-weight: bold; fill: rgb(51, 51, 51);" y="25" aria-hidden="true">Labor Costs in Europe, 2016</text><text x="300" text-anchor="middle" class="highcharts-subtitle" data-z-index="4" style="color: rgb(102, 102, 102); font-size: 0.8em; fill: rgb(102, 102, 102);" y="46" aria-hidden="true">Source: <a xlink:href="http://ec.europa.eu/eurostat/web/labour-market/labour-costs/main-tables"><tspan>eurostat</tspan></a></text><text x="10" text-anchor="start" class="highcharts-caption" data-z-index="4" style="color: rgb(102, 102, 102); font-size: 0.8em; fill: rgb(102, 102, 102);" y="383" aria-hidden="true">Column widths are proportional to GDP</text><g class="highcharts-data-labels highcharts-series-0 highcharts-variwide-series" data-z-index="6" opacity="1" transform="translate(63,61) scale(1 1)" aria-hidden="true"><g class="highcharts-label highcharts-data-label highcharts-data-label-color-0" data-z-index="1" filter="none" transform="translate(-5,12)"><text x="5" data-z-index="1" y="16" style="color: rgb(0, 0, 0); font-size: 0.7em; font-weight: bold; fill: rgb(0, 0, 0);"><tspan class="highcharts-text-outline" fill="#FFFFFF" stroke="#FFFFFF" stroke-width="2px" stroke-linejoin="round" style="">€50<tspan x="5" dy="0">​</tspan></tspan>€50</text></g><g class="highcharts-label highcharts-data-label highcharts-data-label-color-1" data-z-index="1" filter="none" transform="translate(2,40)"><text x="5" data-z-index="1" y="16" style="color: rgb(0, 0, 0); font-size: 0.7em; font-weight: bold; fill: rgb(0, 0, 0);"><tspan class="highcharts-text-outline" fill="#FFFFFF" stroke="#FFFFFF" stroke-width="2px" stroke-linejoin="round">€42<tspan x="5" dy="0">​</tspan></tspan>€42</text></g><g class="highcharts-label highcharts-data-label highcharts-data-label-color-2 highcharts-data-label-hidden" data-z-index="1" filter="none" transform="translate(14,49)" opacity="0" style="pointer-events: none;"><text x="5" data-z-index="1" y="16" style="color: rgb(0, 0, 0); font-size: 0.7em; font-weight: bold; fill: rgb(0, 0, 0);"><tspan class="highcharts-text-outline" fill="#FFFFFF" stroke="#FFFFFF" stroke-width="2px" stroke-linejoin="round">€39<tspan x="5" dy="0">​</tspan></tspan>€39</text></g><g class="highcharts-label highcharts-data-label highcharts-data-label-color-3" data-z-index="1" filter="none" transform="translate(30,54)"><text x="5" data-z-index="1" y="16" style="color: rgb(0, 0, 0); font-size: 0.7em; font-weight: bold; fill: rgb(0, 0, 0);"><tspan class="highcharts-text-outline" fill="#FFFFFF" stroke="#FFFFFF" stroke-width="2px" stroke-linejoin="round">€38<tspan x="5" dy="0">​</tspan></tspan>€38</text></g><g class="highcharts-label highcharts-data-label highcharts-data-label-color-4" data-z-index="1" filter="none" transform="translate(79,62)"><text x="5" data-z-index="1" y="16" style="color: rgb(0, 0, 0); font-size: 0.7em; font-weight: bold; fill: rgb(0, 0, 0);"><tspan class="highcharts-text-outline" fill="#FFFFFF" stroke="#FFFFFF" stroke-width="2px" stroke-linejoin="round">€36<tspan x="5" dy="0">​</tspan></tspan>€36</text></g><g class="highcharts-label highcharts-data-label highcharts-data-label-color-5" data-z-index="1" filter="none" transform="translate(131,66)"><text x="5" data-z-index="1" y="16" style="color: rgb(0, 0, 0); font-size: 0.7em; font-weight: bold; fill: rgb(0, 0, 0);"><tspan class="highcharts-text-outline" fill="#FFFFFF" stroke="#FFFFFF" stroke-width="2px" stroke-linejoin="round">€34<tspan x="5" dy="0">​</tspan></tspan>€34</text></g><g class="highcharts-label highcharts-data-label highcharts-data-label-color-6 highcharts-data-label-hidden" data-z-index="1" filter="none" transform="translate(148,70)" opacity="0" style="pointer-events: none;"><text x="5" data-z-index="1" y="16" style="color: rgb(0, 0, 0); font-size: 0.7em; font-weight: bold; fill: rgb(0, 0, 0);"><tspan class="highcharts-text-outline" fill="#FFFFFF" stroke="#FFFFFF" stroke-width="2px" stroke-linejoin="round">€33<tspan x="5" dy="0">​</tspan></tspan>€33</text></g><g class="highcharts-label highcharts-data-label highcharts-data-label-color-7" data-z-index="1" filter="none" transform="translate(208,71)"><text x="5" data-z-index="1" y="16" style="color: rgb(0, 0, 0); font-size: 0.7em; font-weight: bold; fill: rgb(0, 0, 0);"><tspan class="highcharts-text-outline" fill="#FFFFFF" stroke="#FFFFFF" stroke-width="2px" stroke-linejoin="round">€33<tspan x="5" dy="0">​</tspan></tspan>€33</text></g><g class="highcharts-label highcharts-data-label highcharts-data-label-color-8" data-z-index="1" filter="none" transform="translate(270,72)"><text x="5" data-z-index="1" y="16" style="color: rgb(0, 0, 0); font-size: 0.7em; font-weight: bold; fill: rgb(0, 0, 0);"><tspan class="highcharts-text-outline" fill="#FFFFFF" stroke="#FFFFFF" stroke-width="2px" stroke-linejoin="round">€33<tspan x="5" dy="0">​</tspan></tspan>€33</text></g><g class="highcharts-label highcharts-data-label highcharts-data-label-color-9 highcharts-data-label-hidden" data-z-index="1" filter="none" transform="translate(282,80)" opacity="0" style="pointer-events: none;"><text x="5" data-z-index="1" y="16" style="color: rgb(0, 0, 0); font-size: 0.7em; font-weight: bold; fill: rgb(0, 0, 0);"><tspan class="highcharts-text-outline" fill="#FFFFFF" stroke="#FFFFFF" stroke-width="2px" stroke-linejoin="round">€30<tspan x="5" dy="0">​</tspan></tspan>€30</text></g><g class="highcharts-label highcharts-data-label highcharts-data-label-color-0" data-z-index="1" filter="none" transform="translate(317,89)"><text x="5" data-z-index="1" y="16" style="color: rgb(0, 0, 0); font-size: 0.7em; font-weight: bold; fill: rgb(0, 0, 0);"><tspan class="highcharts-text-outline" fill="#FFFFFF" stroke="#FFFFFF" stroke-width="2px" stroke-linejoin="round">€28<tspan x="5" dy="0">​</tspan></tspan>€28</text></g><g class="highcharts-label highcharts-data-label highcharts-data-label-color-1" data-z-index="1" filter="none" transform="translate(389,92)"><text x="5" data-z-index="1" y="16" style="color: rgb(0, 0, 0); font-size: 0.7em; font-weight: bold; fill: rgb(0, 0, 0);"><tspan class="highcharts-text-outline" fill="#FFFFFF" stroke="#FFFFFF" stroke-width="2px" stroke-linejoin="round">€27<tspan x="5" dy="0">​</tspan></tspan>€27</text></g><g class="highcharts-label highcharts-data-label highcharts-data-label-color-2" data-z-index="1" filter="none" transform="translate(451,111)"><text x="5" data-z-index="1" y="16" style="color: rgb(0, 0, 0); font-size: 0.7em; font-weight: bold; fill: rgb(0, 0, 0);"><tspan class="highcharts-text-outline" fill="#FFFFFF" stroke="#FFFFFF" stroke-width="2px" stroke-linejoin="round">€21<tspan x="5" dy="0">​</tspan></tspan>€21</text></g><g class="highcharts-label highcharts-data-label highcharts-data-label-color-3" data-z-index="1" filter="none" transform="translate(474,135)"><text x="5" data-z-index="1" y="16" style="color: rgb(0, 0, 0); font-size: 0.7em; font-weight: bold; fill: rgb(0, 0, 0);"><tspan class="highcharts-text-outline" fill="#FFFFFF" stroke="#FFFFFF" stroke-width="2px" stroke-linejoin="round">€14<tspan x="5" dy="0">​</tspan></tspan>€14</text></g><g class="highcharts-label highcharts-data-label highcharts-data-label-color-4 highcharts-data-label-hidden" data-z-index="1" filter="none" transform="translate(481,137)" opacity="0" style="pointer-events: none;"><text x="5" data-z-index="1" y="16" style="color: rgb(0, 0, 0); font-size: 0.7em; font-weight: bold; fill: rgb(0, 0, 0);"><tspan class="highcharts-text-outline" fill="#FFFFFF" stroke="#FFFFFF" stroke-width="2px" stroke-linejoin="round">€14<tspan x="5" dy="0">​</tspan></tspan>€14</text></g><g class="highcharts-label highcharts-data-label highcharts-data-label-color-5" data-z-index="1" filter="none" transform="translate(487,149)"><text x="5" data-z-index="1" y="16" style="color: rgb(0, 0, 0); font-size: 0.7em; font-weight: bold; fill: rgb(0, 0, 0);"><tspan class="highcharts-text-outline" fill="#FFFFFF" stroke="#FFFFFF" stroke-width="2px" stroke-linejoin="round">€10<tspan x="5" dy="0">​</tspan></tspan>€10</text></g><g class="highcharts-label highcharts-data-label highcharts-data-label-color-6 highcharts-data-label-hidden" data-z-index="1" filter="none" transform="translate(501,154)" opacity="0" style="pointer-events: none;"><text x="5" data-z-index="1" y="16" style="color: rgb(0, 0, 0); font-size: 0.7em; font-weight: bold; fill: rgb(0, 0, 0);"><tspan class="highcharts-text-outline" fill="#FFFFFF" stroke="#FFFFFF" stroke-width="2px" stroke-linejoin="round" style="">€9<tspan x="5" dy="0">​</tspan></tspan>€9</text></g><g class="highcharts-label highcharts-data-label highcharts-data-label-color-7" data-z-index="1" filter="none" transform="translate(508,165)"><text x="5" data-z-index="1" y="16" style="color: rgb(0, 0, 0); font-size: 0.7em; font-weight: bold; fill: rgb(0, 0, 0);"><tspan class="highcharts-text-outline" fill="#FFFFFF" stroke="#FFFFFF" stroke-width="2px" stroke-linejoin="round">€6<tspan x="5" dy="0">​</tspan></tspan>€6</text></g></g><g class="highcharts-axis-labels highcharts-xaxis-labels" data-z-index="7" aria-hidden="true"><text x="70.17740111687274" text-anchor="end" transform="translate(0,0) rotate(-45 70.17740111687274 290)" style="color: rgb(51, 51, 51); cursor: default; font-size: 0.8em; fill: rgb(51, 51, 51);" y="290" opacity="1">Norway</text><text x="80.96345810648378" text-anchor="end" transform="translate(0,0) rotate(-45 80.96345810648378 290)" style="color: rgb(51, 51, 51); cursor: default; font-size: 0.8em; fill: rgb(51, 51, 51);" y="290" opacity="1">Denmark</text><text x="93.99456973393913" text-anchor="end" transform="translate(0,0) rotate(-45 93.99456973393913 290)" style="color: rgb(51, 51, 51); cursor: default; font-size: 0.8em; fill: rgb(51, 51, 51);" y="290" opacity="1">Belgium</text><text x="109.97779327692166" text-anchor="end" transform="translate(0,0) rotate(-45 109.97779327692166 290)" style="color: rgb(51, 51, 51); cursor: default; font-size: 0.8em; fill: rgb(51, 51, 51);" y="290" opacity="1">Sweden</text><text x="164.34302019047215" text-anchor="end" transform="translate(0,0) rotate(-45 164.34302019047215 290)" style="color: rgb(51, 51, 51); cursor: default; font-size: 0.8em; fill: rgb(51, 51, 51);" y="290" opacity="1">France</text><text x="211.6143499497109" text-anchor="end" transform="translate(0,0) rotate(-45 211.6143499497109 290)" style="color: rgb(51, 51, 51); cursor: default; font-size: 0.8em; fill: rgb(51, 51, 51);" y="290" opacity="1">Netherlands</text><text x="226.39048818896708" text-anchor="end" transform="translate(0,0) rotate(-45 226.39048818896708 290)" style="color: rgb(51, 51, 51); cursor: default; font-size: 0.8em; fill: rgb(51, 51, 51);" y="290" opacity="1">Finland</text><text x="296.7696248291438" text-anchor="end" transform="translate(0,0) rotate(-45 296.7696248291438 290)" style="color: rgb(51, 51, 51); cursor: default; font-size: 0.8em; fill: rgb(51, 51, 51);" y="290" opacity="1">Germany</text><text x="349.7209258545008" text-anchor="end" transform="translate(0,0) rotate(-45 349.7209258545008 290)" style="color: rgb(51, 51, 51); cursor: default; font-size: 0.8em; fill: rgb(51, 51, 51);" y="290" opacity="1">Austria</text><text x="360.669266448015" text-anchor="end" transform="translate(0,0) rotate(-45 360.669266448015 290)" style="color: rgb(51, 51, 51); cursor: default; font-size: 0.8em; fill: rgb(51, 51, 51);" y="290" opacity="1">Ireland</text><text x="400.4335545437213" text-anchor="end" transform="translate(0,0) rotate(-45 400.4335545437213 290)" style="color: rgb(51, 51, 51); cursor: default; font-size: 0.8em; fill: rgb(51, 51, 51);" y="290" opacity="1">Italy</text><text x="475.25998559411926" text-anchor="end" transform="translate(0,0) rotate(-45 475.25998559411926 290)" style="color: rgb(51, 51, 51); cursor: default; font-size: 0.8em; fill: rgb(51, 51, 51);" y="290" opacity="1">United Kingdom</text><text x="533.3252001197958" text-anchor="end" transform="translate(0,0) rotate(-45 533.3252001197958 290)" style="color: rgb(51, 51, 51); cursor: default; font-size: 0.8em; fill: rgb(51, 51, 51);" y="290" opacity="1">Spain</text><text x="553.1994815553326" text-anchor="end" transform="translate(0,0) rotate(-45 553.1994815553326 290)" style="color: rgb(51, 51, 51); cursor: default; font-size: 0.8em; fill: rgb(51, 51, 51);" y="290" opacity="1">Greece</text><text x="559.6998906949752" text-anchor="end" transform="translate(0,0) rotate(-45 559.6998906949752 290)" style="color: rgb(51, 51, 51); cursor: default; font-size: 0.8em; fill: rgb(51, 51, 51);" y="290" opacity="1">Portugal</text><text x="566.1521106273126" text-anchor="end" transform="translate(0,0) rotate(-45 566.1521106273126 290)" style="color: rgb(51, 51, 51); cursor: default; font-size: 0.8em; fill: rgb(51, 51, 51);" y="290" opacity="1">Czech Republic</text><text x="577.7824017855178" text-anchor="end" transform="translate(0,0) rotate(-45 577.7824017855178 290)" style="color: rgb(51, 51, 51); cursor: default; font-size: 0.8em; fill: rgb(51, 51, 51);" y="290" opacity="1">Poland</text><text x="587.5471006678691" text-anchor="end" transform="translate(0,0) rotate(-45 587.5471006678691 290)" style="color: rgb(51, 51, 51); cursor: default; font-size: 0.8em; fill: rgb(51, 51, 51);" y="290" opacity="1">Romania</text></g><g class="highcharts-axis-labels highcharts-yaxis-labels" data-z-index="7" aria-hidden="true"><text x="48" text-anchor="end" transform="translate(0,0)" style="color: rgb(51, 51, 51); cursor: default; font-size: 0.8em; fill: rgb(51, 51, 51);" y="272" opacity="1">0</text><text x="48" text-anchor="end" transform="translate(0,0)" style="color: rgb(51, 51, 51); cursor: default; font-size: 0.8em; fill: rgb(51, 51, 51);" y="204" opacity="1">20</text><text x="48" text-anchor="end" transform="translate(0,0)" style="color: rgb(51, 51, 51); cursor: default; font-size: 0.8em; fill: rgb(51, 51, 51);" y="135" opacity="1">40</text><text x="48" text-anchor="end" transform="translate(0,0)" style="color: rgb(51, 51, 51); cursor: default; font-size: 0.8em; fill: rgb(51, 51, 51);" y="66" opacity="1">60</text></g><text x="590" class="highcharts-credits" text-anchor="end" data-z-index="8" y="395" style="cursor: pointer; color: rgb(153, 153, 153); font-size: 0.6em; fill: rgb(153, 153, 153);" aria-label="Chart credits: Highcharts.com" aria-hidden="false">Highcharts.com</text></svg>