<svg viewBox="0,0,2000,2000" style="background-color: rgb(61, 64, 91);" xmlns="http://www.w3.org/2000/svg" xmlns:xlink="http://www.w3.org/1999/xlink"><path d="M 0 500 A 0 , 0 0 0 , 0 0 , 500" stroke="#739dff" stroke-width="167.9129362299484" opacity="0.7" transform="translate(235,500)" style="fill: none;"/><path d="M 0 500 A -109.28571428571429 , -109.28571428571429 0 0 , 0 218.57142857142858 , 500" stroke="#739dff" stroke-width="12.087849174983958" opacity="0.7" transform="translate(235,500)" style="fill: none;"/><path d="M 0 500 A -765 , -765 0 0 , 0 1530 , 500" stroke="#739dff" stroke-width="10.024303524778034" opacity="0.7" transform="translate(235,500)" style="fill: none;"/><path d="M 0 500 A -546.4285714285714 , -546.4285714285714 0 0 , 0 1092.857142857143 , 500" stroke="#739dff" stroke-width="10.084082355885297" opacity="0.7" transform="translate(235,500)" style="fill: none;"/><path d="M 0 500 A -655.7142857142858 , -655.7142857142858 0 0 , 0 1311.4285714285716 , 500" stroke="#739dff" stroke-width="14.893926306009101" opacity="0.7" transform="translate(235,500)" style="fill: none;"/><path d="M 0 500 A -218.57142857142858 , -218.57142857142858 0 0 , 0 437.14285714285717 , 500" stroke="#739dff" stroke-width="10.768010982602641" opacity="0.7" transform="translate(235,500)" style="fill: none;"/><path d="M 0 500 A -327.8571428571429 , -327.8571428571429 0 0 , 0 655.7142857142858 , 500" stroke="#739dff" stroke-width="11.041131642104181" opacity="0.7" transform="translate(235,500)" style="fill: none;"/><path d="M 0 500 A -437.14285714285717 , -437.14285714285717 0 0 , 0 874.2857142857143 , 500" stroke="#739dff" stroke-width="48.591449397340185" opacity="0.7" transform="translate(235,500)" style="fill: none;"/><path d="M 218.57142857142858 500 A 109.28571428571429 , 109.28571428571429 0 0 , 0 0 , 500" stroke="#2fe0cb" stroke-width="12.381353435912235" opacity="0.7" transform="translate(235,500)" style="fill: none;"/><path d="M 218.57142857142858 500 A 0 , 0 0 0 , 0 218.57142857142858 , 500" stroke="#2fe0cb" stroke-width="396.68730686210984" opacity="0.7" transform="translate(235,500)" style="fill: none;"/><path d="M 218.57142857142858 500 A -655.7142857142857 , -655.7142857142857 0 0 , 0 1530 , 500" stroke="#2fe0cb" stroke-width="11.435181936993196" opacity="0.7" transform="translate(235,500)" style="fill: none;"/><path d="M 218.57142857142858 500 A -437.14285714285717 , -437.14285714285717 0 0 , 0 1092.857142857143 , 500" stroke="#2fe0cb" stroke-width="11.024569965944956" opacity="0.7" transform="translate(235,500)" style="fill: none;"/><path d="M 218.57142857142858 500 A -546.4285714285714 , -546.4285714285714 0 0 , 0 1311.4285714285716 , 500" stroke="#2fe0cb" stroke-width="40.77737619078324" opacity="0.7" transform="translate(235,500)" style="fill: none;"/><path d="M 218.57142857142858 500 A -109.28571428571429 , -109.28571428571429 0 0 , 0 437.14285714285717 , 500" stroke="#2fe0cb" stroke-width="18.613933566388873" opacity="0.7" transform="translate(235,500)" style="fill: none;"/><path d="M 218.57142857142858 500 A -218.5714285714286 , -218.5714285714286 0 0 , 0 655.7142857142858 , 500" stroke="#2fe0cb" stroke-width="15.019461851334352" opacity="0.7" transform="translate(235,500)" style="fill: none;"/><path d="M 218.57142857142858 500 A -327.8571428571429 , -327.8571428571429 0 0 , 0 874.2857142857143 , 500" stroke="#2fe0cb" stroke-width="74.92833641577548" opacity="0.7" transform="translate(235,500)" style="fill: none;"/><path d="M 437.14285714285717 500 A 218.57142857142858 , 218.57142857142858 0 0 , 0 0 , 500" stroke="#a3f7b5" stroke-width="10.697844354614446" opacity="0.7" transform="translate(235,500)" style="fill: none;"/><path d="M 437.14285714285717 500 A 109.28571428571429 , 109.28571428571429 0 0 , 0 218.57142857142858 , 500" stroke="#a3f7b5" stroke-width="16.524026431645485" opacity="0.7" transform="translate(235,500)" style="fill: none;"/><path d="M 437.14285714285717 500 A -546.4285714285714 , -546.4285714285714 0 0 , 0 1530 , 500" stroke="#a3f7b5" stroke-width="10.090060238996022" opacity="0.7" transform="translate(235,500)" style="fill: none;"/><path d="M 437.14285714285717 500 A -327.8571428571429 , -327.8571428571429 0 0 , 0 1092.857142857143 , 500" stroke="#a3f7b5" stroke-width="10.061738792782911" opacity="0.7" transform="translate(235,500)" style="fill: none;"/><path d="M 437.14285714285717 500 A -437.1428571428572 , -437.1428571428572 0 0 , 0 1311.4285714285716 , 500" stroke="#a3f7b5" stroke-width="14.882754524457908" opacity="0.7" transform="translate(235,500)" style="fill: none;"/><path d="M 437.14285714285717 500 A 0 , 0 0 0 , 0 437.14285714285717 , 500" stroke="#a3f7b5" stroke-width="10.70215627030087" opacity="0.7" transform="translate(235,500)" style="fill: none;"/><path d="M 437.14285714285717 500 A -109.2857142857143 , -109.2857142857143 0 0 , 0 655.7142857142858 , 500" stroke="#a3f7b5" stroke-width="10.31780778570631" opacity="0.7" transform="translate(235,500)" style="fill: none;"/><path d="M 437.14285714285717 500 A -218.57142857142858 , -218.57142857142858 0 0 , 0 874.2857142857143 , 500" stroke="#a3f7b5" stroke-width="22.299837493612372" opacity="0.7" transform="translate(235,500)" style="fill: none;"/><path d="M 655.7142857142858 500 A 327.8571428571429 , 327.8571428571429 0 0 , 0 0 , 500" stroke="#d264b6" stroke-width="10.720579910051962" opacity="0.7" transform="translate(235,500)" style="fill: none;"/><path d="M 655.7142857142858 500 A 218.5714285714286 , 218.5714285714286 0 0 , 0 218.57142857142858 , 500" stroke="#d264b6" stroke-width="13.772632231370919" opacity="0.7" transform="translate(235,500)" style="fill: none;"/><path d="M 655.7142857142858 500 A -437.1428571428571 , -437.1428571428571 0 0 , 0 1530 , 500" stroke="#d264b6" stroke-width="10.027831455794201" opacity="0.7" transform="translate(235,500)" style="fill: none;"/><path d="M 655.7142857142858 500 A -218.57142857142856 , -218.57142857142856 0 0 , 0 1092.857142857143 , 500" stroke="#d264b6" stroke-width="10.036945277585964" opacity="0.7" transform="translate(235,500)" style="fill: none;"/><path d="M 655.7142857142858 500 A -327.8571428571429 , -327.8571428571429 0 0 , 0 1311.4285714285716 , 500" stroke="#d264b6" stroke-width="13.289795672575051" opacity="0.7" transform="translate(235,500)" style="fill: none;"/><path d="M 655.7142857142858 500 A 109.2857142857143 , 109.2857142857143 0 0 , 0 437.14285714285717 , 500" stroke="#d264b6" stroke-width="10.234607412575057" opacity="0.7" transform="translate(235,500)" style="fill: none;"/><path d="M 655.7142857142858 500 A 0 , 0 0 0 , 0 655.7142857142858 , 500" stroke="#d264b6" stroke-width="10.122007614309084" opacity="0.7" transform="translate(235,500)" style="fill: none;"/><path d="M 655.7142857142858 500 A -109.28571428571428 , -109.28571428571428 0 0 , 0 874.2857142857143 , 500" stroke="#d264b6" stroke-width="24.411206208704108" opacity="0.7" transform="translate(235,500)" style="fill: none;"/><path d="M 874.2857142857143 500 A 437.14285714285717 , 437.14285714285717 0 0 , 0 0 , 500" stroke="#C879FF" stroke-width="52.46560764350967" opacity="0.7" transform="translate(235,500)" style="fill: none;"/><path d="M 874.2857142857143 500 A 327.8571428571429 , 327.8571428571429 0 0 , 0 218.57142857142858 , 500" stroke="#C879FF" stroke-width="85.51487341062021" opacity="0.7" transform="translate(235,500)" style="fill: none;"/><path d="M 874.2857142857143 500 A -327.85714285714283 , -327.85714285714283 0 0 , 0 1530 , 500" stroke="#C879FF" stroke-width="10.968809056272773" opacity="0.7" transform="translate(235,500)" style="fill: none;"/><path d="M 874.2857142857143 500 A -109.28571428571428 , -109.28571428571428 0 0 , 0 1092.857142857143 , 500" stroke="#C879FF" stroke-width="18.223117208264675" opacity="0.7" transform="translate(235,500)" style="fill: none;"/><path d="M 874.2857142857143 500 A -218.5714285714286 , -218.5714285714286 0 0 , 0 1311.4285714285716 , 500" stroke="#C879FF" stroke-width="47.98876118207845" opacity="0.7" transform="translate(235,500)" style="fill: none;"/><path d="M 874.2857142857143 500 A 218.57142857142858 , 218.57142857142858 0 0 , 0 437.14285714285717 , 500" stroke="#C879FF" stroke-width="25.192642928784934" opacity="0.7" transform="translate(235,500)" style="fill: none;"/><path d="M 874.2857142857143 500 A 109.28571428571428 , 109.28571428571428 0 0 , 0 655.7142857142858 , 500" stroke="#C879FF" stroke-width="28.76545706732355" opacity="0.7" transform="translate(235,500)" style="fill: none;"/><path d="M 874.2857142857143 500 A 0 , 0 0 0 , 0 874.2857142857143 , 500" stroke="#C879FF" stroke-width="700" opacity="0.7" transform="translate(235,500)" style="fill: none;"/><path d="M 1092.857142857143 500 A 546.4285714285714 , 546.4285714285714 0 0 , 0 0 , 500" stroke="#e9c46a" stroke-width="10" opacity="0.7" transform="translate(235,500)" style="fill: none;"/><path d="M 1092.857142857143 500 A 437.14285714285717 , 437.14285714285717 0 0 , 0 218.57142857142858 , 500" stroke="#e9c46a" stroke-width="10" opacity="0.7" transform="translate(235,500)" style="fill: none;"/><path d="M 1092.857142857143 500 A -218.57142857142856 , -218.57142857142856 0 0 , 0 1530 , 500" stroke="#e9c46a" stroke-width="10" opacity="0.7" transform="translate(235,500)" style="fill: none;"/><path d="M 1092.857142857143 500 A 0 , 0 0 0 , 0 1092.857142857143 , 500" stroke="#e9c46a" stroke-width="10" opacity="0.7" transform="translate(235,500)" style="fill: none;"/><path d="M 1092.857142857143 500 A -109.28571428571433 , -109.28571428571433 0 0 , 0 1311.4285714285716 , 500" stroke="#e9c46a" stroke-width="10" opacity="0.7" transform="translate(235,500)" style="fill: none;"/><path d="M 1092.857142857143 500 A 327.8571428571429 , 327.8571428571429 0 0 , 0 437.14285714285717 , 500" stroke="#e9c46a" stroke-width="10" opacity="0.7" transform="translate(235,500)" style="fill: none;"/><path d="M 1092.857142857143 500 A 218.57142857142856 , 218.57142857142856 0 0 , 0 655.7142857142858 , 500" stroke="#e9c46a" stroke-width="10" opacity="0.7" transform="translate(235,500)" style="fill: none;"/><path d="M 1092.857142857143 500 A 109.28571428571428 , 109.28571428571428 0 0 , 0 874.2857142857143 , 500" stroke="#e9c46a" stroke-width="10" opacity="0.7" transform="translate(235,500)" style="fill: none;"/><path d="M 1311.4285714285716 500 A 655.7142857142858 , 655.7142857142858 0 0 , 0 0 , 500" stroke="#f4a261" stroke-width="14.935281497365274" opacity="0.7" transform="translate(235,500)" style="fill: none;"/><path d="M 1311.4285714285716 500 A 546.4285714285714 , 546.4285714285714 0 0 , 0 218.57142857142858 , 500" stroke="#f4a261" stroke-width="38.44051388490821" opacity="0.7" transform="translate(235,500)" style="fill: none;"/><path d="M 1311.4285714285716 500 A -109.28571428571422 , -109.28571428571422 0 0 , 0 1530 , 500" stroke="#f4a261" stroke-width="10.119655660298307" opacity="0.7" transform="translate(235,500)" style="fill: none;"/><path d="M 1311.4285714285716 500 A 109.28571428571433 , 109.28571428571433 0 0 , 0 1092.857142857143 , 500" stroke="#f4a261" stroke-width="10.212361847556453" opacity="0.7" transform="translate(235,500)" style="fill: none;"/><path d="M 1311.4285714285716 500 A 0 , 0 0 0 , 0 1311.4285714285716 , 500" stroke="#f4a261" stroke-width="188.89334598692164" opacity="0.7" transform="translate(235,500)" style="fill: none;"/><path d="M 1311.4285714285716 500 A 437.1428571428572 , 437.1428571428572 0 0 , 0 437.14285714285717 , 500" stroke="#f4a261" stroke-width="18.725651381900803" opacity="0.7" transform="translate(235,500)" style="fill: none;"/><path d="M 1311.4285714285716 500 A 327.8571428571429 , 327.8571428571429 0 0 , 0 655.7142857142858 , 500" stroke="#f4a261" stroke-width="15.563645210577999" opacity="0.7" transform="translate(235,500)" style="fill: none;"/><path d="M 1311.4285714285716 500 A 218.5714285714286 , 218.5714285714286 0 0 , 0 874.2857142857143 , 500" stroke="#f4a261" stroke-width="39.845610410180214" opacity="0.7" transform="translate(235,500)" style="fill: none;"/><path d="M 1530 500 A 765 , 765 0 0 , 0 0 , 500" stroke="#e76f51" stroke-width="10.022735555437515" opacity="0.7" transform="translate(235,500)" style="fill: none;"/><path d="M 1530 500 A 655.7142857142857 , 655.7142857142857 0 0 , 0 218.57142857142858 , 500" stroke="#e76f51" stroke-width="11.525242175989218" opacity="0.7" transform="translate(235,500)" style="fill: none;"/><path d="M 1530 500 A 0 , 0 0 0 , 0 1530 , 500" stroke="#e76f51" stroke-width="26.295513363672022" opacity="0.7" transform="translate(235,500)" style="fill: none;"/><path d="M 1530 500 A 218.57142857142856 , 218.57142857142856 0 0 , 0 1092.857142857143 , 500" stroke="#e76f51" stroke-width="10.234313418323712" opacity="0.7" transform="translate(235,500)" style="fill: none;"/><path d="M 1530 500 A 109.28571428571422 , 109.28571428571422 0 0 , 0 1311.4285714285716 , 500" stroke="#e76f51" stroke-width="10.111521819344368" opacity="0.7" transform="translate(235,500)" style="fill: none;"/><path d="M 1530 500 A 546.4285714285714 , 546.4285714285714 0 0 , 0 437.14285714285717 , 500" stroke="#e76f51" stroke-width="10.09123621600141" opacity="0.7" transform="translate(235,500)" style="fill: none;"/><path d="M 1530 500 A 437.1428571428571 , 437.1428571428571 0 0 , 0 655.7142857142858 , 500" stroke="#e76f51" stroke-width="10.03312335231845" opacity="0.7" transform="translate(235,500)" style="fill: none;"/><path d="M 1530 500 A 327.85714285714283 , 327.85714285714283 0 0 , 0 874.2857142857143 , 500" stroke="#e76f51" stroke-width="10.577012717310751" opacity="0.7" transform="translate(235,500)" style="fill: none;"/><circle cx="0" cy="500" r="80" fill="#3d405b" stroke="#739dff" stroke-width="10" opacity="0.9" transform="translate(235,500)"/><circle cx="218.57142857142858" cy="500" r="80" fill="#3d405b" stroke="#2fe0cb" stroke-width="10" opacity="0.9" transform="translate(235,500)"/><circle cx="437.14285714285717" cy="500" r="80" fill="#3d405b" stroke="#a3f7b5" stroke-width="10" opacity="0.9" transform="translate(235,500)"/><circle cx="655.7142857142858" cy="500" r="80" fill="#3d405b" stroke="#d264b6" stroke-width="10" opacity="0.9" transform="translate(235,500)"/><circle cx="874.2857142857143" cy="500" r="80" fill="#3d405b" stroke="#C879FF" stroke-width="10" opacity="0.9" transform="translate(235,500)"/><circle cx="1092.857142857143" cy="500" r="80" fill="#3d405b" stroke="#e9c46a" stroke-width="10" opacity="0.9" transform="translate(235,500)"/><circle cx="1311.4285714285716" cy="500" r="80" fill="#3d405b" stroke="#f4a261" stroke-width="10" opacity="0.9" transform="translate(235,500)"/><circle cx="1530" cy="500" r="80" fill="#3d405b" stroke="#e76f51" stroke-width="10" opacity="0.9" transform="translate(235,500)"/><text x="0" y="510" fill="#739dff" stroke="#739dff" transform="translate(235,500)" style="text-anchor: middle; font-weight: bold; font-family: Assistant; font-size: 1.65em;">Bronx</text><text x="218.57142857142858" y="510" fill="#2fe0cb" stroke="#2fe0cb" transform="translate(235,500)" style="text-anchor: middle; font-weight: bold; font-family: Assistant; font-size: 1.65em;">Brooklyn</text><text x="437.14285714285717" y="510" fill="#a3f7b5" stroke="#a3f7b5" transform="translate(235,500)" style="text-anchor: middle; font-weight: bold; font-family: Assistant; font-size: 1.65em;">JFK</text><text x="655.7142857142858" y="510" fill="#d264b6" stroke="#d264b6" transform="translate(235,500)" style="text-anchor: middle; font-weight: bold; font-family: Assistant; font-size: 1.65em;">LaGuardia</text><text x="874.2857142857143" y="510" fill="#C879FF" stroke="#C879FF" transform="translate(235,500)" style="text-anchor: middle; font-weight: bold; font-family: Assistant; font-size: 1.65em;">Manhattan</text><text x="1092.857142857143" y="510" fill="#e9c46a" stroke="#e9c46a" transform="translate(235,500)" style="text-anchor: middle; font-weight: bold; font-family: Assistant; font-size: 1.65em;">Newark</text><text x="1311.4285714285716" y="510" fill="#f4a261" stroke="#f4a261" transform="translate(235,500)" style="text-anchor: middle; font-weight: bold; font-family: Assistant; font-size: 1.65em;">Queens</text><text x="1530" y="510" fill="#e76f51" stroke="#e76f51" transform="translate(235,500)" style="text-anchor: middle; font-weight: bold; font-family: Assistant; font-size: 1.65em;">Staten Island</text></svg>