<svg xmlns="http://www.w3.org/2000/svg" baseProfile="full" height="1487.5" version="1.1" width="1700">
    <defs><style type="text/css"><![CDATA[
    /* Simple styling for Fluvial SVG output */

/* for a solid background */
#bgrect {fill:white; stroke:white}

/* General text settings */
text {font-family: "Source Sans Pro", sans-serif; font-size: 1.3em; fill:black}

/* .arc defines the connection lines. They will also be coloured
	programmatically by adding colour classes to the stylesheet. */
.arc {opacity:0.7; fill:none;}
.arc:hover {opacity:1}

/* The bargraphs at the bottom are defined as lines */
.bargraph {opacity: 0.3; stroke:black; stroke-linecap: butt}

/* The text elements are done as overlapped pairs to provide for a keyline.
	Apply no stroke to the foreground, and ensure that they're the same
	text size, fonts, etc so they stay aligned. */
.foreground, .keyline {font-family: "Source Sans Pro Semibold";}
.keyline {fill: white; stroke:white; stroke-width:0.5em; stroke-linejoin:round; opacity:0.6;}
.bartxt {font-style: italic; fill:black, text-anchor: middle}

/* The line across the middle */
#mainline {stroke:grey; fill:none; opacity:1; stroke-width:0.6em}
.markers {fill:white; stroke: grey; stroke-width:0.3em; opacity:1}

/* Adds title styling */
.title {font-size: 4em; font-weight: bold; text-anchor: middle}
.subtitle {font-size: 2em; font-weight: bold; text-anchor: middle}

/* Colour classes below... .f### (from XYZ) or .t### (to XYZ) */
.f0 {stroke: #fc2171}
.f1 {stroke: #bc5c1e}
.f2 {stroke: #a87c1d}
.f3 {stroke: #999418}
.f4 {stroke: #63911c}
.f5 {stroke: #0d8948}
.f6 {stroke: #29937d}
.f7 {stroke: #25a0a1}
.f8 {stroke: #2c8faa}
.f9 {stroke: #1f7ac9}
.f10 {stroke: #9e62fa}
.f11 {stroke: #ec41f5}
.f12 {stroke: #f40bb7}
]]>
    </style></defs>
    <rect height="100%" id="bgrect" width="100%" x="0" y="0"/>
    <path class="arc f1 t0" d="M226.00055 1487.5 v-550 A 1 1 0 1 1 1723.99945 937.5 v550 M-1398.99945 1487.5 v-550 A1 1 0 1 1 98.99945 937.5 v550" stroke-width="0.00110"><title>from: Herston station, platform 1
to: RBWH station, platform 1
passengers: 1</title></path>
                <path class="arc f2 t1" d="M351.00274 1487.5 v-550 A 1 1 0 1 1 1848.99726 937.5 v550 M-1273.99726 1487.5 v-550 A1 1 0 1 1 223.99726 937.5 v550" stroke-width="0.00548"><title>from: QUT Kelvin Grove station, platform 1
to: Herston station, platform 1
passengers: 5</title></path>
                <path class="arc f3 t2" d="M476.00055 1487.5 v-550 A 1 1 0 1 1 1973.99945 937.5 v550 M-1148.99945 1487.5 v-550 A1 1 0 1 1 348.99945 937.5 v550" stroke-width="0.00110"><title>from: Normanby station, platform 1
to: QUT Kelvin Grove station, platform 1
passengers: 1</title></path>
                <path class="arc f4 t3" d="M601.00274 1487.5 v-550 A 1 1 0 1 1 2098.99726 937.5 v550 M-1023.99726 1487.5 v-550 A1 1 0 1 1 473.99726 937.5 v550" stroke-width="0.00548"><title>from: Roma Street busway station
to: Normanby station, platform 1
passengers: 5</title></path>
                <path class="arc f5 t4" d="M726.00055 1487.5 v-550 A 1 1 0 1 1 2223.99945 937.5 v550 M-898.99945 1487.5 v-550 A1 1 0 1 1 598.99945 937.5 v550" stroke-width="0.00110"><title>from: King George Square, 2E
to: Roma Street busway station
passengers: 1</title></path>
                <path class="arc f7 t6" d="M976.01644 1487.5 v-550 A 1 1 0 1 1 2473.98356 937.5 v550 M-648.98356 1487.5 v-550 A1 1 0 1 1 848.98356 937.5 v550" stroke-width="0.03288"><title>from: South Bank busway station, platform 2
to: Cultural Centre station, platform 2
passengers: 30</title></path>
                <path class="arc f8 t7" d="M1101.00164 1487.5 v-550 A 1 1 0 1 1 2598.99836 937.5 v550 M-523.99836 1487.5 v-550 A1 1 0 1 1 973.99836 937.5 v550" stroke-width="0.00329"><title>from: Mater Hill station, platform 2
to: South Bank busway station, platform 2
passengers: 3</title></path>
                <path class="arc f9 t8" d="M1226.00548 1487.5 v-550 A 1 1 0 1 1 2723.99452 937.5 v550 M-398.99452 1487.5 v-550 A1 1 0 1 1 1098.99452 937.5 v550" stroke-width="0.01096"><title>from: PA Hospital station, platform 2
to: Mater Hill station, platform 2
passengers: 10</title></path>
                <path class="arc f10 t9" d="M1351.00493 1487.5 v-550 A 1 1 0 1 1 2848.99507 937.5 v550 M-273.99507 1487.5 v-550 A1 1 0 1 1 1223.99507 937.5 v550" stroke-width="0.00986"><title>from: Boggo Road station, platform 6
to: PA Hospital station, platform 2
passengers: 9</title></path>
                <path class="arc f12 t11" d="M1601.00219 1487.5 v-550 A 1 1 0 1 1 3098.99781 937.5 v550 M-23.99781 1487.5 v-550 A1 1 0 1 1 1473.99781 937.5 v550" stroke-width="0.00438"><title>from: UQ Lakes station
to: Dutton Park Place
passengers: 4</title></path>
                <path class="arc f2 t0" d="M351.01480 1487.5 v-550 A 1 1 0 1 1 1723.98959 937.5 v550 M-1273.98520 1487.5 v-550 A1 1 0 1 1 98.98959 937.5 v550" stroke-width="0.01863"><title>from: QUT Kelvin Grove station, platform 1
to: RBWH station, platform 1
passengers: 17</title></path>
                <path class="arc f4 t2" d="M601.05315 1487.5 v-550 A 1 1 0 1 1 1973.95123 937.5 v550 M-1023.94685 1487.5 v-550 A1 1 0 1 1 348.95123 937.5 v550" stroke-width="0.09535"><title>from: Roma Street busway station
to: QUT Kelvin Grove station, platform 1
passengers: 87</title></path>
                <path class="arc f5 t3" d="M726.00548 1487.5 v-550 A 1 1 0 1 1 2098.99014 937.5 v550 M-898.99452 1487.5 v-550 A1 1 0 1 1 473.99014 937.5 v550" stroke-width="0.00877"><title>from: King George Square, 2E
to: Normanby station, platform 1
passengers: 8</title></path>
                <path class="arc f6 t4" d="M851.00658 1487.5 v-550 A 1 1 0 1 1 2223.99233 937.5 v550 M-773.99342 1487.5 v-550 A1 1 0 1 1 598.99233 937.5 v550" stroke-width="0.01315"><title>from: Cultural Centre station, platform 2
to: Roma Street busway station
passengers: 12</title></path>
                <path class="arc f7 t5" d="M976.03397 1487.5 v-550 A 1 1 0 1 1 2348.99890 937.5 v550 M-648.96603 1487.5 v-550 A1 1 0 1 1 723.99890 937.5 v550" stroke-width="0.00219"><title>from: South Bank busway station, platform 2
to: King George Square, 2E
passengers: 2</title></path>
                <path class="arc f8 t6" d="M1101.01808 1487.5 v-550 A 1 1 0 1 1 2473.95233 937.5 v550 M-523.98192 1487.5 v-550 A1 1 0 1 1 848.95233 937.5 v550" stroke-width="0.02959"><title>from: Mater Hill station, platform 2
to: Cultural Centre station, platform 2
passengers: 27</title></path>
                <path class="arc f9 t7" d="M1226.01644 1487.5 v-550 A 1 1 0 1 1 2598.99123 937.5 v550 M-398.98356 1487.5 v-550 A1 1 0 1 1 973.99123 937.5 v550" stroke-width="0.01096"><title>from: PA Hospital station, platform 2
to: South Bank busway station, platform 2
passengers: 10</title></path>
                <path class="arc f10 t8" d="M1351.01260 1487.5 v-550 A 1 1 0 1 1 2723.98630 937.5 v550 M-273.98740 1487.5 v-550 A1 1 0 1 1 1098.98630 937.5 v550" stroke-width="0.00548"><title>from: Boggo Road station, platform 6
to: Mater Hill station, platform 2
passengers: 5</title></path>
                <path class="arc f12 t10" d="M1601.08110 1487.5 v-550 A 1 1 0 1 1 2973.92328 937.5 v550 M-23.91890 1487.5 v-550 A1 1 0 1 1 1348.92328 937.5 v550" stroke-width="0.15343"><title>from: UQ Lakes station
to: Boggo Road station, platform 6
passengers: 140</title></path>
                <path class="arc f3 t0" d="M476.00329 1487.5 v-550 A 1 1 0 1 1 1723.97808 937.5 v550 M-1148.99671 1487.5 v-550 A1 1 0 1 1 98.97808 937.5 v550" stroke-width="0.00438"><title>from: Normanby station, platform 1
to: RBWH station, platform 1
passengers: 4</title></path>
                <path class="arc f4 t1" d="M601.11233 1487.5 v-550 A 1 1 0 1 1 1848.98301 937.5 v550 M-1023.88767 1487.5 v-550 A1 1 0 1 1 223.98301 937.5 v550" stroke-width="0.02301"><title>from: Roma Street busway station
to: Herston station, platform 1
passengers: 21</title></path>
                <path class="arc f5 t2" d="M726.01425 1487.5 v-550 A 1 1 0 1 1 1973.89917 937.5 v550 M-898.98575 1487.5 v-550 A1 1 0 1 1 348.89917 937.5 v550" stroke-width="0.00877"><title>from: King George Square, 2E
to: QUT Kelvin Grove station, platform 1
passengers: 8</title></path>
                <path class="arc f6 t3" d="M851.01644 1487.5 v-550 A 1 1 0 1 1 2098.98246 937.5 v550 M-773.98356 1487.5 v-550 A1 1 0 1 1 473.98246 937.5 v550" stroke-width="0.00658"><title>from: Cultural Centre station, platform 2
to: Normanby station, platform 1
passengers: 6</title></path>
                <path class="arc f7 t4" d="M976.03617 1487.5 v-550 A 1 1 0 1 1 2223.98466 937.5 v550 M-648.96383 1487.5 v-550 A1 1 0 1 1 598.98466 937.5 v550" stroke-width="0.00219"><title>from: South Bank busway station, platform 2
to: Roma Street busway station
passengers: 2</title></path>
                <path class="arc f8 t5" d="M1101.03343 1487.5 v-550 A 1 1 0 1 1 2348.99726 937.5 v550 M-523.96657 1487.5 v-550 A1 1 0 1 1 723.99726 937.5 v550" stroke-width="0.00110"><title>from: Mater Hill station, platform 2
to: King George Square, 2E
passengers: 1</title></path>
                <path class="arc f9 t6" d="M1226.04000 1487.5 v-550 A 1 1 0 1 1 2473.91945 937.5 v550 M-398.96000 1487.5 v-550 A1 1 0 1 1 848.91945 937.5 v550" stroke-width="0.03617"><title>from: PA Hospital station, platform 2
to: Cultural Centre station, platform 2
passengers: 33</title></path>
                <path class="arc f12 t9" d="M1601.20604 1487.5 v-550 A 1 1 0 1 1 2848.94192 937.5 v550 M-23.79396 1487.5 v-550 A1 1 0 1 1 1223.94192 937.5 v550" stroke-width="0.09644"><title>from: UQ Lakes station
to: PA Hospital station, platform 2
passengers: 88</title></path>
                <path class="arc f4 t0" d="M601.14521 1487.5 v-550 A 1 1 0 1 1 1723.95452 937.5 v550 M-1023.85479 1487.5 v-550 A1 1 0 1 1 98.95452 937.5 v550" stroke-width="0.04274"><title>from: Roma Street busway station
to: RBWH station, platform 1
passengers: 39</title></path>
                <path class="arc f5 t1" d="M726.01918 1487.5 v-550 A 1 1 0 1 1 1848.97096 937.5 v550 M-898.98082 1487.5 v-550 A1 1 0 1 1 223.97096 937.5 v550" stroke-width="0.00110"><title>from: King George Square, 2E
to: Herston station, platform 1
passengers: 1</title></path>
                <path class="arc f6 t2" d="M851.07343 1487.5 v-550 A 1 1 0 1 1 1973.84109 937.5 v550 M-773.92657 1487.5 v-550 A1 1 0 1 1 348.84109 937.5 v550" stroke-width="0.10740"><title>from: Cultural Centre station, platform 2
to: QUT Kelvin Grove station, platform 1
passengers: 98</title></path>
                <path class="arc f7 t3" d="M976.03836 1487.5 v-550 A 1 1 0 1 1 2098.97808 937.5 v550 M-648.96164 1487.5 v-550 A1 1 0 1 1 473.97808 937.5 v550" stroke-width="0.00219"><title>from: South Bank busway station, platform 2
to: Normanby station, platform 1
passengers: 2</title></path>
                <path class="arc f8 t4" d="M1101.03891 1487.5 v-550 A 1 1 0 1 1 2223.97863 937.5 v550 M-523.96109 1487.5 v-550 A1 1 0 1 1 598.97863 937.5 v550" stroke-width="0.00986"><title>from: Mater Hill station, platform 2
to: Roma Street busway station
passengers: 9</title></path>
                <path class="arc f9 t5" d="M1226.06192 1487.5 v-550 A 1 1 0 1 1 2348.99288 937.5 v550 M-398.93808 1487.5 v-550 A1 1 0 1 1 723.99288 937.5 v550" stroke-width="0.00767"><title>from: PA Hospital station, platform 2
to: King George Square, 2E
passengers: 7</title></path>
                <path class="arc f10 t6" d="M1351.02137 1487.5 v-550 A 1 1 0 1 1 2473.89534 937.5 v550 M-273.97863 1487.5 v-550 A1 1 0 1 1 848.89534 937.5 v550" stroke-width="0.01206"><title>from: Boggo Road station, platform 6
to: Cultural Centre station, platform 2
passengers: 11</title></path>
                <path class="arc f12 t8" d="M1601.30905 1487.5 v-550 A 1 1 0 1 1 2723.92876 937.5 v550 M-23.69095 1487.5 v-550 A1 1 0 1 1 1098.92876 937.5 v550" stroke-width="0.10959"><title>from: UQ Lakes station
to: Mater Hill station, platform 2
passengers: 100</title></path>
                <path class="arc f5 t0" d="M726.02411 1487.5 v-550 A 1 1 0 1 1 1723.92876 937.5 v550 M-898.97589 1487.5 v-550 A1 1 0 1 1 98.92876 937.5 v550" stroke-width="0.00877"><title>from: King George Square, 2E
to: RBWH station, platform 1
passengers: 8</title></path>
                <path class="arc f6 t1" d="M851.14028 1487.5 v-550 A 1 1 0 1 1 1848.95726 937.5 v550 M-773.85972 1487.5 v-550 A1 1 0 1 1 223.95726 937.5 v550" stroke-width="0.02630"><title>from: Cultural Centre station, platform 2
to: Herston station, platform 1
passengers: 24</title></path>
                <path class="arc f7 t2" d="M976.05699 1487.5 v-550 A 1 1 0 1 1 1973.76985 937.5 v550 M-648.94301 1487.5 v-550 A1 1 0 1 1 348.76985 937.5 v550" stroke-width="0.03507"><title>from: South Bank busway station, platform 2
to: QUT Kelvin Grove station, platform 1
passengers: 32</title></path>
                <path class="arc f9 t4" d="M1226.07124 1487.5 v-550 A 1 1 0 1 1 2223.96822 937.5 v550 M-398.92876 1487.5 v-550 A1 1 0 1 1 598.96822 937.5 v550" stroke-width="0.01096"><title>from: PA Hospital station, platform 2
to: Roma Street busway station
passengers: 10</title></path>
                <path class="arc f10 t5" d="M1351.02795 1487.5 v-550 A 1 1 0 1 1 2348.98849 937.5 v550 M-273.97205 1487.5 v-550 A1 1 0 1 1 723.98849 937.5 v550" stroke-width="0.00110"><title>from: Boggo Road station, platform 6
to: King George Square, 2E
passengers: 1</title></path>
                <path class="arc f11 t6" d="M1476.00055 1487.5 v-550 A 1 1 0 1 1 2473.88876 937.5 v550 M-148.99945 1487.5 v-550 A1 1 0 1 1 848.88876 937.5 v550" stroke-width="0.00110"><title>from: Dutton Park Place
to: Cultural Centre station, platform 2
passengers: 1</title></path>
                <path class="arc f12 t7" d="M1601.50742 1487.5 v-550 A 1 1 0 1 1 2598.84218 937.5 v550 M-23.49258 1487.5 v-550 A1 1 0 1 1 973.84218 937.5 v550" stroke-width="0.28714"><title>from: UQ Lakes station
to: South Bank busway station, platform 2
passengers: 262</title></path>
                <path class="arc f6 t0" d="M851.18357 1487.5 v-550 A 1 1 0 1 1 1723.89424 937.5 v550 M-773.81643 1487.5 v-550 A1 1 0 1 1 98.89424 937.5 v550" stroke-width="0.06028"><title>from: Cultural Centre station, platform 2
to: RBWH station, platform 1
passengers: 55</title></path>
                <path class="arc f7 t1" d="M976.07891 1487.5 v-550 A 1 1 0 1 1 1848.93972 937.5 v550 M-648.92109 1487.5 v-550 A1 1 0 1 1 223.93972 937.5 v550" stroke-width="0.00877"><title>from: South Bank busway station, platform 2
to: Herston station, platform 1
passengers: 8</title></path>
                <path class="arc f8 t2" d="M1101.04932 1487.5 v-550 A 1 1 0 1 1 1973.74684 937.5 v550 M-523.95068 1487.5 v-550 A1 1 0 1 1 348.74684 937.5 v550" stroke-width="0.01096"><title>from: Mater Hill station, platform 2
to: QUT Kelvin Grove station, platform 1
passengers: 10</title></path>
                <path class="arc f9 t3" d="M1226.07891 1487.5 v-550 A 1 1 0 1 1 2098.97479 937.5 v550 M-398.92109 1487.5 v-550 A1 1 0 1 1 473.97479 937.5 v550" stroke-width="0.00438"><title>from: PA Hospital station, platform 2
to: Normanby station, platform 1
passengers: 4</title></path>
                <path class="arc f12 t6" d="M1601.86963 1487.5 v-550 A 1 1 0 1 1 2473.66957 937.5 v550 M-23.13037 1487.5 v-550 A1 1 0 1 1 848.66957 937.5 v550" stroke-width="0.43728"><title>from: UQ Lakes station
to: Cultural Centre station, platform 2
passengers: 399</title></path>
                <path class="arc f7 t0" d="M976.08603 1487.5 v-550 A 1 1 0 1 1 1723.86136 937.5 v550 M-648.91397 1487.5 v-550 A1 1 0 1 1 98.86136 937.5 v550" stroke-width="0.00548"><title>from: South Bank busway station, platform 2
to: RBWH station, platform 1
passengers: 5</title></path>
                <path class="arc f8 t1" d="M1101.05699 1487.5 v-550 A 1 1 0 1 1 1848.93315 937.5 v550 M-523.94301 1487.5 v-550 A1 1 0 1 1 223.93315 937.5 v550" stroke-width="0.00438"><title>from: Mater Hill station, platform 2
to: Herston station, platform 1
passengers: 4</title></path>
                <path class="arc f9 t2" d="M1226.08329 1487.5 v-550 A 1 1 0 1 1 1973.73917 937.5 v550 M-398.91671 1487.5 v-550 A1 1 0 1 1 348.73917 937.5 v550" stroke-width="0.00438"><title>from: PA Hospital station, platform 2
to: QUT Kelvin Grove station, platform 1
passengers: 4</title></path>
                <path class="arc f10 t3" d="M1351.03014 1487.5 v-550 A 1 1 0 1 1 2098.97096 937.5 v550 M-273.96986 1487.5 v-550 A1 1 0 1 1 473.97096 937.5 v550" stroke-width="0.00329"><title>from: Boggo Road station, platform 6
to: Normanby station, platform 1
passengers: 3</title></path>
                <path class="arc f11 t4" d="M1476.00164 1487.5 v-550 A 1 1 0 1 1 2223.96219 937.5 v550 M-148.99836 1487.5 v-550 A1 1 0 1 1 598.96219 937.5 v550" stroke-width="0.00110"><title>from: Dutton Park Place
to: Roma Street busway station
passengers: 1</title></path>
                <path class="arc f12 t5" d="M1602.11786 1487.5 v-550 A 1 1 0 1 1 2348.95835 937.5 v550 M-22.88214 1487.5 v-550 A1 1 0 1 1 723.95835 937.5 v550" stroke-width="0.05918"><title>from: UQ Lakes station
to: King George Square, 2E
passengers: 54</title></path>
                <path class="arc f8 t0" d="M1101.06247 1487.5 v-550 A 1 1 0 1 1 1723.85534 937.5 v550 M-523.93753 1487.5 v-550 A1 1 0 1 1 98.85534 937.5 v550" stroke-width="0.00658"><title>from: Mater Hill station, platform 2
to: RBWH station, platform 1
passengers: 6</title></path>
                <path class="arc f9 t1" d="M1226.08713 1487.5 v-550 A 1 1 0 1 1 1848.92931 937.5 v550 M-398.91287 1487.5 v-550 A1 1 0 1 1 223.92931 937.5 v550" stroke-width="0.00329"><title>from: PA Hospital station, platform 2
to: Herston station, platform 1
passengers: 3</title></path>
                <path class="arc f10 t2" d="M1351.03562 1487.5 v-550 A 1 1 0 1 1 1973.73314 937.5 v550 M-273.96438 1487.5 v-550 A1 1 0 1 1 348.73314 937.5 v550" stroke-width="0.00767"><title>from: Boggo Road station, platform 6
to: QUT Kelvin Grove station, platform 1
passengers: 7</title></path>
                <path class="arc f12 t4" d="M1602.17813 1487.5 v-550 A 1 1 0 1 1 2223.93096 937.5 v550 M-22.82187 1487.5 v-550 A1 1 0 1 1 598.93096 937.5 v550" stroke-width="0.06137"><title>from: UQ Lakes station
to: Roma Street busway station
passengers: 56</title></path>
                <path class="arc f9 t0" d="M1226.09535 1487.5 v-550 A 1 1 0 1 1 1723.84547 937.5 v550 M-398.90465 1487.5 v-550 A1 1 0 1 1 98.84547 937.5 v550" stroke-width="0.01315"><title>from: PA Hospital station, platform 2
to: RBWH station, platform 1
passengers: 12</title></path>
                <path class="arc f10 t1" d="M1351.04110 1487.5 v-550 A 1 1 0 1 1 1848.92602 937.5 v550 M-273.95890 1487.5 v-550 A1 1 0 1 1 223.92602 937.5 v550" stroke-width="0.00329"><title>from: Boggo Road station, platform 6
to: Herston station, platform 1
passengers: 3</title></path>
                <path class="arc f11 t2" d="M1476.00329 1487.5 v-550 A 1 1 0 1 1 1973.72821 937.5 v550 M-148.99671 1487.5 v-550 A1 1 0 1 1 348.72821 937.5 v550" stroke-width="0.00219"><title>from: Dutton Park Place
to: QUT Kelvin Grove station, platform 1
passengers: 2</title></path>
                <path class="arc f12 t3" d="M1602.21485 1487.5 v-550 A 1 1 0 1 1 2098.96329 937.5 v550 M-22.78515 1487.5 v-550 A1 1 0 1 1 473.96329 937.5 v550" stroke-width="0.01206"><title>from: UQ Lakes station
to: Normanby station, platform 1
passengers: 11</title></path>
                <path class="arc f10 t0" d="M1351.04384 1487.5 v-550 A 1 1 0 1 1 1723.83780 937.5 v550 M-273.95616 1487.5 v-550 A1 1 0 1 1 98.83780 937.5 v550" stroke-width="0.00219"><title>from: Boggo Road station, platform 6
to: RBWH station, platform 1
passengers: 2</title></path>
                <path class="arc f11 t1" d="M1476.00548 1487.5 v-550 A 1 1 0 1 1 1848.92328 937.5 v550 M-148.99452 1487.5 v-550 A1 1 0 1 1 223.92328 937.5 v550" stroke-width="0.00219"><title>from: Dutton Park Place
to: Herston station, platform 1
passengers: 2</title></path>
                <path class="arc f12 t2" d="M1602.23567 1487.5 v-550 A 1 1 0 1 1 1973.71232 937.5 v550 M-22.76433 1487.5 v-550 A1 1 0 1 1 348.71232 937.5 v550" stroke-width="0.02959"><title>from: UQ Lakes station
to: QUT Kelvin Grove station, platform 1
passengers: 27</title></path>
                <path class="arc f12 t1" d="M1602.25869 1487.5 v-550 A 1 1 0 1 1 1848.91397 937.5 v550 M-22.74131 1487.5 v-550 A1 1 0 1 1 223.91397 937.5 v550" stroke-width="0.01644"><title>from: UQ Lakes station
to: Herston station, platform 1
passengers: 15</title></path>
                <path class="arc f12 t0" d="M1602.29485 1487.5 v-550 A 1 1 0 1 1 1723.80876 937.5 v550 M-22.70515 1487.5 v-550 A1 1 0 1 1 98.80876 937.5 v550" stroke-width="0.05589"><title>from: UQ Lakes station
to: RBWH station, platform 1
passengers: 51</title></path>
                
    <path class="arc f0 t1" d="m126.41700 1487.5 v-550 A1 1 0 1 1 223.76218 937.5 v550" stroke-width="0.28714"><title>from: RBWH station, platform 1
to: Herston station, platform 1
passengers: 262</title></path>
        <path class="arc f0 t2" d="m125.27997 1487.5 v-550 A1 1 0 1 1 347.70405 937.5 v550" stroke-width="1.98694"><title>from: RBWH station, platform 1
to: QUT Kelvin Grove station, platform 1
passengers: 1813</title></path>
        <path class="arc f0 t3" d="m124.04539 1487.5 v-550 A1 1 0 1 1 473.71615 937.5 v550" stroke-width="0.48221"><title>from: RBWH station, platform 1
to: Normanby station, platform 1
passengers: 440</title></path>
        <path class="arc f0 t4" d="m121.23760 1487.5 v-550 A1 1 0 1 1 596.33358 937.5 v550" stroke-width="5.13338"><title>from: RBWH station, platform 1
to: Roma Street busway station
passengers: 4684</title></path>
        <path class="arc f0 t5" d="m116.12669 1487.5 v-550 A1 1 0 1 1 721.38454 937.5 v550" stroke-width="5.08844"><title>from: RBWH station, platform 1
to: King George Square, 2E
passengers: 4643</title></path>
        <path class="arc f0 t6" d="m111.61526 1487.5 v-550 A1 1 0 1 1 846.48373 937.5 v550" stroke-width="3.93442"><title>from: RBWH station, platform 1
to: Cultural Centre station, platform 2
passengers: 3590</title></path>
        <path class="arc f0 t7" d="m108.91213 1487.5 v-550 A1 1 0 1 1 972.96269 937.5 v550" stroke-width="1.47185"><title>from: RBWH station, platform 1
to: South Bank busway station, platform 2
passengers: 1343</title></path>
        <path class="arc f0 t8" d="m107.41343 1487.5 v-550 A1 1 0 1 1 1098.11119 937.5 v550" stroke-width="1.52555"><title>from: RBWH station, platform 1
to: Mater Hill station, platform 2
passengers: 1392</title></path>
        <path class="arc f0 t9" d="m106.25338 1487.5 v-550 A1 1 0 1 1 1223.49642 937.5 v550" stroke-width="0.79456"><title>from: RBWH station, platform 1
to: PA Hospital station, platform 2
passengers: 725</title></path>
        <path class="arc f0 t10" d="m105.71363 1487.5 v-550 A1 1 0 1 1 1348.70410 937.5 v550" stroke-width="0.28494"><title>from: RBWH station, platform 1
to: Boggo Road station, platform 6
passengers: 260</title></path>
        <path class="arc f0 t11" d="m105.51801 1487.5 v-550 A1 1 0 1 1 1473.94246 937.5 v550" stroke-width="0.10631"><title>from: RBWH station, platform 1
to: Dutton Park Place
passengers: 97</title></path>
        <path class="arc f0 t12" d="m103.36997 1487.5 v-550 A1 1 0 1 1 1596.90511 937.5 v550" stroke-width="4.18977"><title>from: RBWH station, platform 1
to: UQ Lakes station
passengers: 3823</title></path>
        <path class="arc f1 t2" d="m235.63439 1487.5 v-550 A1 1 0 1 1 346.56373 937.5 v550" stroke-width="0.29371"><title>from: Herston station, platform 1
to: QUT Kelvin Grove station, platform 1
passengers: 268</title></path>
        <path class="arc f1 t3" d="m235.41576 1487.5 v-550 A1 1 0 1 1 473.40326 937.5 v550" stroke-width="0.14357"><title>from: Herston station, platform 1
to: Normanby station, platform 1
passengers: 131</title></path>
        <path class="arc f1 t4" d="m234.22611 1487.5 v-550 A1 1 0 1 1 592.64904 937.5 v550" stroke-width="2.23571"><title>from: Herston station, platform 1
to: Roma Street busway station
passengers: 2040</title></path>
        <path class="arc f1 t5" d="m231.69121 1487.5 v-550 A1 1 0 1 1 717.42327 937.5 v550" stroke-width="2.83410"><title>from: Herston station, platform 1
to: King George Square, 2E
passengers: 2586</title></path>
        <path class="arc f1 t6" d="m229.61331 1487.5 v-550 A1 1 0 1 1 843.85566 937.5 v550" stroke-width="1.32170"><title>from: Herston station, platform 1
to: Cultural Centre station, platform 2
passengers: 1206</title></path>
        <path class="arc f1 t7" d="m228.54806 1487.5 v-550 A1 1 0 1 1 971.82237 937.5 v550" stroke-width="0.80880"><title>from: Herston station, platform 1
to: South Bank busway station, platform 2
passengers: 738</title></path>
        <path class="arc f1 t8" d="m227.91132 1487.5 v-550 A1 1 0 1 1 1097.11608 937.5 v550" stroke-width="0.46468"><title>from: Herston station, platform 1
to: Mater Hill station, platform 2
passengers: 424</title></path>
        <path class="arc f1 t9" d="m227.54034 1487.5 v-550 A1 1 0 1 1 1222.96050 937.5 v550" stroke-width="0.27727"><title>from: Herston station, platform 1
to: PA Hospital station, platform 2
passengers: 253</title></path>
        <path class="arc f1 t10" d="m227.35896 1487.5 v-550 A1 1 0 1 1 1348.51888 937.5 v550" stroke-width="0.08548"><title>from: Herston station, platform 1
to: Boggo Road station, platform 6
passengers: 78</title></path>
        <path class="arc f1 t11" d="m227.29376 1487.5 v-550 A1 1 0 1 1 1473.86684 937.5 v550" stroke-width="0.04493"><title>from: Herston station, platform 1
to: Dutton Park Place
passengers: 41</title></path>
        <path class="arc f1 t12" d="m226.63729 1487.5 v-550 A1 1 0 1 1 1594.17623 937.5 v550" stroke-width="1.26800"><title>from: Herston station, platform 1
to: UQ Lakes station
passengers: 1157</title></path>
        <path class="arc f2 t3" d="m378.19736 1487.5 v-550 A1 1 0 1 1 473.22901 937.5 v550" stroke-width="0.20494"><title>from: QUT Kelvin Grove station, platform 1
to: Normanby station, platform 1
passengers: 187</title></path>
        <path class="arc f2 t4" d="m373.79990 1487.5 v-550 A1 1 0 1 1 587.23620 937.5 v550" stroke-width="8.58997"><title>from: QUT Kelvin Grove station, platform 1
to: Roma Street busway station
passengers: 7838</title></path>
        <path class="arc f2 t5" d="m366.19519 1487.5 v-550 A1 1 0 1 1 712.69649 937.5 v550" stroke-width="6.61947"><title>from: QUT Kelvin Grove station, platform 1
to: King George Square, 2E
passengers: 6040</title></path>
        <path class="arc f2 t6" d="m359.92423 1487.5 v-550 A1 1 0 1 1 840.23359 937.5 v550" stroke-width="5.92245"><title>from: QUT Kelvin Grove station, platform 1
to: Cultural Centre station, platform 2
passengers: 5404</title></path>
        <path class="arc f2 t7" d="m355.81062 1487.5 v-550 A1 1 0 1 1 970.26559 937.5 v550" stroke-width="2.30476"><title>from: QUT Kelvin Grove station, platform 1
to: South Bank busway station, platform 2
passengers: 2103</title></path>
        <path class="arc f2 t8" d="m354.30151 1487.5 v-550 A1 1 0 1 1 1096.52701 937.5 v550" stroke-width="0.71346"><title>from: QUT Kelvin Grove station, platform 1
to: Mater Hill station, platform 2
passengers: 651</title></path>
        <path class="arc f2 t9" d="m353.75300 1487.5 v-550 A1 1 0 1 1 1222.63008 937.5 v550" stroke-width="0.38358"><title>from: QUT Kelvin Grove station, platform 1
to: PA Hospital station, platform 2
passengers: 350</title></path>
        <path class="arc f2 t10" d="m353.42915 1487.5 v-550 A1 1 0 1 1 1348.34408 937.5 v550" stroke-width="0.26412"><title>from: QUT Kelvin Grove station, platform 1
to: Boggo Road station, platform 6
passengers: 241</title></path>
        <path class="arc f2 t11" d="m353.26147 1487.5 v-550 A1 1 0 1 1 1473.80876 937.5 v550" stroke-width="0.07124"><title>from: QUT Kelvin Grove station, platform 1
to: Dutton Park Place
passengers: 65</title></path>
        <path class="arc f2 t12" d="m352.13101 1487.5 v-550 A1 1 0 1 1 1592.44738 937.5 v550" stroke-width="2.18969"><title>from: QUT Kelvin Grove station, platform 1
to: UQ Lakes station
passengers: 1998</title></path>
        <path class="arc f3 t4" d="m480.58267 1487.5 v-550 A1 1 0 1 1 582.66887 937.5 v550" stroke-width="0.54468"><title>from: Normanby station, platform 1
to: Roma Street busway station
passengers: 497</title></path>
        <path class="arc f3 t5" d="m480.01059 1487.5 v-550 A1 1 0 1 1 709.08702 937.5 v550" stroke-width="0.59948"><title>from: Normanby station, platform 1
to: King George Square, 2E
passengers: 547</title></path>
        <path class="arc f3 t6" d="m479.33330 1487.5 v-550 A1 1 0 1 1 836.89481 937.5 v550" stroke-width="0.75510"><title>from: Normanby station, platform 1
to: Cultural Centre station, platform 2
passengers: 689</title></path>
        <path class="arc f3 t7" d="m478.77711 1487.5 v-550 A1 1 0 1 1 968.93457 937.5 v550" stroke-width="0.35728"><title>from: Normanby station, platform 1
to: South Bank busway station, platform 2
passengers: 326</title></path>
        <path class="arc f3 t8" d="m478.51189 1487.5 v-550 A1 1 0 1 1 1096.08371 937.5 v550" stroke-width="0.17316"><title>from: Normanby station, platform 1
to: Mater Hill station, platform 2
passengers: 158</title></path>
        <path class="arc f3 t9" d="m478.36504 1487.5 v-550 A1 1 0 1 1 1222.37801 937.5 v550" stroke-width="0.12055"><title>from: Normanby station, platform 1
to: PA Hospital station, platform 2
passengers: 110</title></path>
        <path class="arc f3 t10" d="m478.27462 1487.5 v-550 A1 1 0 1 1 1348.18188 937.5 v550" stroke-width="0.06028"><title>from: Normanby station, platform 1
to: Boggo Road station, platform 6
passengers: 55</title></path>
        <path class="arc f3 t11" d="m478.23626 1487.5 v-550 A1 1 0 1 1 1473.76492 937.5 v550" stroke-width="0.01644"><title>from: Normanby station, platform 1
to: Dutton Park Place
passengers: 15</title></path>
        <path class="arc f3 t12" d="m477.11786 1487.5 v-550 A1 1 0 1 1 1590.24236 937.5 v550" stroke-width="2.22037"><title>from: Normanby station, platform 1
to: UQ Lakes station
passengers: 2026</title></path>
        <path class="arc f4 t5" d="m614.87020 1487.5 v-550 A1 1 0 1 1 708.46507 937.5 v550" stroke-width="0.64441"><title>from: Roma Street busway station
to: King George Square, 2E
passengers: 588</title></path>
        <path class="arc f4 t6" d="m613.76440 1487.5 v-550 A1 1 0 1 1 835.73367 937.5 v550" stroke-width="1.56719"><title>from: Roma Street busway station
to: Cultural Centre station, platform 2
passengers: 1430</title></path>
        <path class="arc f4 t7" d="m612.30132 1487.5 v-550 A1 1 0 1 1 968.07645 937.5 v550" stroke-width="1.35896"><title>from: Roma Street busway station
to: South Bank busway station, platform 2
passengers: 1240</title></path>
        <path class="arc f4 t8" d="m610.65357 1487.5 v-550 A1 1 0 1 1 1095.02887 937.5 v550" stroke-width="1.93652"><title>from: Roma Street busway station
to: Mater Hill station, platform 2
passengers: 1767</title></path>
        <path class="arc f4 t9" d="m609.04912 1487.5 v-550 A1 1 0 1 1 1221.68154 937.5 v550" stroke-width="1.27238"><title>from: Roma Street busway station
to: PA Hospital station, platform 2
passengers: 1161</title></path>
        <path class="arc f4 t10" d="m608.38005 1487.5 v-550 A1 1 0 1 1 1348.11887 937.5 v550" stroke-width="0.06576"><title>from: Roma Street busway station
to: Boggo Road station, platform 6
passengers: 60</title></path>
        <path class="arc f4 t11" d="m608.32799 1487.5 v-550 A1 1 0 1 1 1473.73752 937.5 v550" stroke-width="0.03836"><title>from: Roma Street busway station
to: Dutton Park Place
passengers: 35</title></path>
        <path class="arc f4 t12" d="m604.74373 1487.5 v-550 A1 1 0 1 1 1585.56708 937.5 v550" stroke-width="7.13018"><title>from: Roma Street busway station
to: UQ Lakes station
passengers: 6506</title></path>
        <path class="arc f5 t6" d="m741.05326 1487.5 v-550 A1 1 0 1 1 834.60978 937.5 v550" stroke-width="0.68058"><title>from: King George Square, 2E
to: Cultural Centre station, platform 2
passengers: 621</title></path>
        <path class="arc f5 t7" d="m740.05377 1487.5 v-550 A1 1 0 1 1 966.73776 937.5 v550" stroke-width="1.31841"><title>from: King George Square, 2E
to: South Bank busway station, platform 2
passengers: 1203</title></path>
        <path class="arc f5 t8" d="m739.08112 1487.5 v-550 A1 1 0 1 1 1093.74717 937.5 v550" stroke-width="0.62688"><title>from: King George Square, 2E
to: Mater Hill station, platform 2
passengers: 572</title></path>
        <path class="arc f5 t9" d="m738.30027 1487.5 v-550 A1 1 0 1 1 1220.57793 937.5 v550" stroke-width="0.93484"><title>from: King George Square, 2E
to: PA Hospital station, platform 2
passengers: 853</title></path>
        <path class="arc f5 t10" d="m737.37365 1487.5 v-550 A1 1 0 1 1 1347.62679 937.5 v550" stroke-width="0.91840"><title>from: King George Square, 2E
to: Boggo Road station, platform 6
passengers: 838</title></path>
        <path class="arc f5 t11" d="m736.83554 1487.5 v-550 A1 1 0 1 1 1473.63944 937.5 v550" stroke-width="0.15782"><title>from: King George Square, 2E
to: Dutton Park Place
passengers: 144</title></path>
        <path class="arc f5 t12" d="m731.40352 1487.5 v-550 A1 1 0 1 1 1576.64888 937.5 v550" stroke-width="10.70622"><title>from: King George Square, 2E
to: UQ Lakes station
passengers: 9769</title></path>
        <path class="arc f6 t7" d="m864.33538 1487.5 v-550 A1 1 0 1 1 965.61388 937.5 v550" stroke-width="0.92936"><title>from: Cultural Centre station, platform 2
to: South Bank busway station, platform 2
passengers: 848</title></path>
        <path class="arc f6 t8" d="m863.50411 1487.5 v-550 A1 1 0 1 1 1093.06714 937.5 v550" stroke-width="0.73318"><title>from: Cultural Centre station, platform 2
to: Mater Hill station, platform 2
passengers: 669</title></path>
        <path class="arc f6 t9" d="m862.46680 1487.5 v-550 A1 1 0 1 1 1219.43980 937.5 v550" stroke-width="1.34143"><title>from: Cultural Centre station, platform 2
to: PA Hospital station, platform 2
passengers: 1224</title></path>
        <path class="arc f6 t10" d="m861.65362 1487.5 v-550 A1 1 0 1 1 1347.02512 937.5 v550" stroke-width="0.28494"><title>from: Cultural Centre station, platform 2
to: Boggo Road station, platform 6
passengers: 260</title></path>
        <path class="arc f6 t11" d="m861.45690 1487.5 v-550 A1 1 0 1 1 1473.50628 937.5 v550" stroke-width="0.10850"><title>from: Cultural Centre station, platform 2
to: Dutton Park Place
passengers: 99</title></path>
        <path class="arc f6 t12" d="m856.31859 1487.5 v-550 A1 1 0 1 1 1566.21171 937.5 v550" stroke-width="10.16812"><title>from: Cultural Centre station, platform 2
to: UQ Lakes station
passengers: 9278</title></path>
        <path class="arc f7 t8" d="m996.32144 1487.5 v-550 A1 1 0 1 1 1092.61561 937.5 v550" stroke-width="0.16987"><title>from: South Bank busway station, platform 2
to: Mater Hill station, platform 2
passengers: 155</title></path>
        <path class="arc f7 t9" d="m996.01896 1487.5 v-550 A1 1 0 1 1 1218.55154 937.5 v550" stroke-width="0.43509"><title>from: South Bank busway station, platform 2
to: PA Hospital station, platform 2
passengers: 397</title></path>
        <path class="arc f7 t10" d="m995.73018 1487.5 v-550 A1 1 0 1 1 1346.81141 937.5 v550" stroke-width="0.14247"><title>from: South Bank busway station, platform 2
to: Boggo Road station, platform 6
passengers: 130</title></path>
        <path class="arc f7 t11" d="m995.62881 1487.5 v-550 A1 1 0 1 1 1473.42189 937.5 v550" stroke-width="0.06028"><title>from: South Bank busway station, platform 2
to: Dutton Park Place
passengers: 55</title></path>
        <path class="arc f7 t12" d="m985.85249 1487.5 v-550 A1 1 0 1 1 1551.38147 937.5 v550" stroke-width="19.49236"><title>from: South Bank busway station, platform 2
to: UQ Lakes station
passengers: 17786</title></path>
        <path class="arc f8 t9" d="m1107.42056 1487.5 v-550 A1 1 0 1 1 1217.81069 937.5 v550" stroke-width="1.04662"><title>from: Mater Hill station, platform 2
to: PA Hospital station, platform 2
passengers: 955</title></path>
        <path class="arc f8 t10" d="m1106.61340 1487.5 v-550 A1 1 0 1 1 1346.45633 937.5 v550" stroke-width="0.56770"><title>from: Mater Hill station, platform 2
to: Boggo Road station, platform 6
passengers: 518</title></path>
        <path class="arc f8 t11" d="m1106.27146 1487.5 v-550 A1 1 0 1 1 1473.33367 937.5 v550" stroke-width="0.11617"><title>from: Mater Hill station, platform 2
to: Dutton Park Place
passengers: 106</title></path>
        <path class="arc f8 t12" d="m1103.64724 1487.5 v-550 A1 1 0 1 1 1539.06915 937.5 v550" stroke-width="5.13228"><title>from: Mater Hill station, platform 2
to: UQ Lakes station
passengers: 4683</title></path>
        <path class="arc f9 t10" d="m1228.89383 1487.5 v-550 A1 1 0 1 1 1345.76424 937.5 v550" stroke-width="0.81647"><title>from: PA Hospital station, platform 2
to: Boggo Road station, platform 6
passengers: 745</title></path>
        <path class="arc f9 t11" d="m1228.47901 1487.5 v-550 A1 1 0 1 1 1473.26901 937.5 v550" stroke-width="0.01315"><title>from: PA Hospital station, platform 2
to: Dutton Park Place
passengers: 12</title></path>
        <path class="arc f9 t12" d="m1227.29266 1487.5 v-550 A1 1 0 1 1 1535.32324 937.5 v550" stroke-width="2.35956"><title>from: PA Hospital station, platform 2
to: UQ Lakes station
passengers: 2153</title></path>
        <path class="arc f10 t11" d="m1358.61842 1487.5 v-550 A1 1 0 1 1 1473.25312 937.5 v550" stroke-width="0.01863"><title>from: Boggo Road station, platform 6
to: Dutton Park Place
passengers: 17</title></path>
        <path class="arc f10 t12" d="m1354.83195 1487.5 v-550 A1 1 0 1 1 1530.36631 937.5 v550" stroke-width="7.55430"><title>from: Boggo Road station, platform 6
to: UQ Lakes station
passengers: 6893</title></path>
        <path class="arc f11 t12" d="m1476.15014 1487.5 v-550 A1 1 0 1 1 1526.44778 937.5 v550" stroke-width="0.28275"><title>from: Dutton Park Place
to: UQ Lakes station
passengers: 258</title></path>
        
    <text class="keyline" font-size="25.0" text-anchor="end" transform="rotate(270,93.75,962.5)" x="93.75" y="962.5">RBWH station, platform 1<tspan x="93.75" y="987.5">451 alightings | 23323 boardings</tspan></text><text class="foreground" font-size="25.0" text-anchor="end" transform="rotate(270,93.75,962.5)" x="93.75" y="962.5">RBWH station, platform 1<tspan x="93.75" y="987.5">451 alightings | 23323 boardings</tspan></text><text class="keyline" font-size="25.0" text-anchor="end" transform="rotate(270,218.75,962.5)" x="218.75" y="962.5">Herston station, platform 1<tspan x="218.75" y="987.5">350 alightings | 8925 boardings</tspan></text><text class="foreground" font-size="25.0" text-anchor="end" transform="rotate(270,218.75,962.5)" x="218.75" y="962.5">Herston station, platform 1<tspan x="218.75" y="987.5">350 alightings | 8925 boardings</tspan></text><text class="keyline" font-size="25.0" text-anchor="end" transform="rotate(270,343.75,962.5)" x="343.75" y="962.5">QUT Kelvin Grove station, platform 1<tspan x="343.75" y="987.5">2368 alightings | 24910 boardings</tspan></text><text class="foreground" font-size="25.0" text-anchor="end" transform="rotate(270,343.75,962.5)" x="343.75" y="962.5">QUT Kelvin Grove station, platform 1<tspan x="343.75" y="987.5">2368 alightings | 24910 boardings</tspan></text><text class="keyline" font-size="25.0" text-anchor="end" transform="rotate(270,468.75,962.5)" x="468.75" y="962.5">Normanby station, platform 1<tspan x="468.75" y="987.5">799 alightings | 4430 boardings</tspan></text><text class="foreground" font-size="25.0" text-anchor="end" transform="rotate(270,468.75,962.5)" x="468.75" y="962.5">Normanby station, platform 1<tspan x="468.75" y="987.5">799 alightings | 4430 boardings</tspan></text><text class="keyline" font-size="25.0" text-anchor="end" transform="rotate(270,593.75,962.5)" x="593.75" y="962.5">Roma Street busway station<tspan x="593.75" y="987.5">15161 alightings | 12950 boardings</tspan></text><text class="foreground" font-size="25.0" text-anchor="end" transform="rotate(270,593.75,962.5)" x="593.75" y="962.5">Roma Street busway station<tspan x="593.75" y="987.5">15161 alightings | 12950 boardings</tspan></text><text class="keyline" font-size="25.0" text-anchor="end" transform="rotate(270,718.75,962.5)" x="718.75" y="962.5">King George Square, 2E<tspan x="718.75" y="987.5">14489 alightings | 14046 boardings</tspan></text><text class="foreground" font-size="25.0" text-anchor="end" transform="rotate(270,718.75,962.5)" x="718.75" y="962.5">King George Square, 2E<tspan x="718.75" y="987.5">14489 alightings | 14046 boardings</tspan></text><text class="keyline" font-size="25.0" text-anchor="end" transform="rotate(270,843.75,962.5)" x="843.75" y="962.5">Cultural Centre station, platform 2<tspan x="843.75" y="987.5">13460 alightings | 12592 boardings</tspan></text><text class="foreground" font-size="25.0" text-anchor="end" transform="rotate(270,843.75,962.5)" x="843.75" y="962.5">Cultural Centre station, platform 2<tspan x="843.75" y="987.5">13460 alightings | 12592 boardings</tspan></text><text class="keyline" font-size="25.0" text-anchor="end" transform="rotate(270,968.75,962.5)" x="968.75" y="962.5">South Bank busway station, platform 2<tspan x="968.75" y="987.5">8092 alightings | 18620 boardings</tspan></text><text class="foreground" font-size="25.0" text-anchor="end" transform="rotate(270,968.75,962.5)" x="968.75" y="962.5">South Bank busway station, platform 2<tspan x="968.75" y="987.5">8092 alightings | 18620 boardings</tspan></text><text class="keyline" font-size="25.0" text-anchor="end" transform="rotate(270,1093.75,962.5)" x="1093.75" y="962.5">Mater Hill station, platform 2<tspan x="1093.75" y="987.5">5917 alightings | 6336 boardings</tspan></text><text class="foreground" font-size="25.0" text-anchor="end" transform="rotate(270,1093.75,962.5)" x="1093.75" y="962.5">Mater Hill station, platform 2<tspan x="1093.75" y="987.5">5917 alightings | 6336 boardings</tspan></text><text class="keyline" font-size="25.0" text-anchor="end" transform="rotate(270,1218.75,962.5)" x="1218.75" y="962.5">PA Hospital station, platform 2<tspan x="1218.75" y="987.5">6135 alightings | 3013 boardings</tspan></text><text class="foreground" font-size="25.0" text-anchor="end" transform="rotate(270,1218.75,962.5)" x="1218.75" y="962.5">PA Hospital station, platform 2<tspan x="1218.75" y="987.5">6135 alightings | 3013 boardings</tspan></text><text class="keyline" font-size="25.0" text-anchor="end" transform="rotate(270,1343.75,962.5)" x="1343.75" y="962.5">Boggo Road station, platform 6<tspan x="1343.75" y="987.5">3334 alightings | 6960 boardings</tspan></text><text class="foreground" font-size="25.0" text-anchor="end" transform="rotate(270,1343.75,962.5)" x="1343.75" y="962.5">Boggo Road station, platform 6<tspan x="1343.75" y="987.5">3334 alightings | 6960 boardings</tspan></text><text class="keyline" font-size="25.0" text-anchor="end" transform="rotate(270,1468.75,962.5)" x="1468.75" y="962.5">Dutton Park Place<tspan x="1468.75" y="987.5">692 alightings | 266 boardings</tspan></text><text class="foreground" font-size="25.0" text-anchor="end" transform="rotate(270,1468.75,962.5)" x="1468.75" y="962.5">Dutton Park Place<tspan x="1468.75" y="987.5">692 alightings | 266 boardings</tspan></text><text class="keyline" font-size="25.0" text-anchor="end" transform="rotate(270,1593.75,962.5)" x="1593.75" y="962.5">UQ Lakes station<tspan x="1593.75" y="987.5">66336 alightings | 1213 boardings</tspan></text><text class="foreground" font-size="25.0" text-anchor="end" transform="rotate(270,1593.75,962.5)" x="1593.75" y="962.5">UQ Lakes station<tspan x="1593.75" y="987.5">66336 alightings | 1213 boardings</tspan></text>
    <line class="bargraph" stroke-width="125" x1="162.5" x2="162.5" y1="1487.5" y2="1460.3634679876377"/><text class="keyline bartxt" text-anchor="middle" x="162.5" y="1477.5">24761</text><text class="foreground bartxt" text-anchor="middle" x="162.5" y="1477.5">24761</text><line class="bargraph" stroke-width="125" x1="287.5" x2="287.5" y1="1487.5" y2="1450.9657957609102"/><text class="keyline bartxt" text-anchor="middle" x="287.5" y="1477.5">33336</text><text class="foreground bartxt" text-anchor="middle" x="287.5" y="1477.5">33336</text><line class="bargraph" stroke-width="125" x1="412.5" x2="412.5" y1="1487.5" y2="1426.26115117375"/><text class="keyline bartxt" text-anchor="middle" x="412.5" y="1477.5">55878</text><text class="foreground bartxt" text-anchor="middle" x="412.5" y="1477.5">55878</text><line class="bargraph" stroke-width="125" x1="537.5" x2="537.5" y1="1487.5" y2="1422.2817986541877"/><text class="keyline bartxt" text-anchor="middle" x="537.5" y="1477.5">59509</text><text class="foreground bartxt" text-anchor="middle" x="537.5" y="1477.5">59509</text><line class="bargraph" stroke-width="125" x1="662.5" x2="662.5" y1="1487.5" y2="1424.704918571773"/><text class="keyline bartxt" text-anchor="middle" x="662.5" y="1477.5">57298</text><text class="foreground bartxt" text-anchor="middle" x="662.5" y="1477.5">57298</text><line class="bargraph" stroke-width="125" x1="787.5" x2="787.5" y1="1487.5" y2="1425.1904193060518"/><text class="keyline bartxt" text-anchor="middle" x="787.5" y="1477.5">56855</text><text class="foreground bartxt" text-anchor="middle" x="787.5" y="1477.5">56855</text><line class="bargraph" stroke-width="125" x1="912.5" x2="912.5" y1="1487.5" y2="1426.1416938824716"/><text class="keyline bartxt" text-anchor="middle" x="912.5" y="1477.5">55987</text><text class="foreground bartxt" text-anchor="middle" x="912.5" y="1477.5">55987</text><line class="bargraph" stroke-width="125" x1="1037.5" x2="1037.5" y1="1487.5" y2="1414.6036538587994"/><text class="keyline bartxt" text-anchor="middle" x="1037.5" y="1477.5">66515</text><text class="foreground bartxt" text-anchor="middle" x="1037.5" y="1477.5">66515</text><line class="bargraph" stroke-width="125" x1="1162.5" x2="1162.5" y1="1487.5" y2="1414.144455647371"/><text class="keyline bartxt" text-anchor="middle" x="1162.5" y="1477.5">66934</text><text class="foreground bartxt" text-anchor="middle" x="1162.5" y="1477.5">66934</text><line class="bargraph" stroke-width="125" x1="1287.5" x2="1287.5" y1="1487.5" y2="1417.5659754948163"/><text class="keyline bartxt" text-anchor="middle" x="1287.5" y="1477.5">63812</text><text class="foreground bartxt" text-anchor="middle" x="1287.5" y="1477.5">63812</text><line class="bargraph" stroke-width="125" x1="1412.5" x2="1412.5" y1="1487.5" y2="1413.5921026675142"/><text class="keyline bartxt" text-anchor="middle" x="1412.5" y="1477.5">67438</text><text class="foreground bartxt" text-anchor="middle" x="1412.5" y="1477.5">67438</text><line class="bargraph" stroke-width="125" x1="1537.5" x2="1537.5" y1="1487.5" y2="1414.0589724481074"/><text class="keyline bartxt" text-anchor="middle" x="1537.5" y="1477.5">67012</text><text class="foreground bartxt" text-anchor="middle" x="1537.5" y="1477.5">67012</text><line class="bargraph" stroke-width="125" x1="1662.5" x2="1662.5" y1="1487.5" y2="1485.4297722639897"/><text class="keyline bartxt" text-anchor="middle" x="1662.5" y="1477.5">↺ 1889</text><text class="foreground bartxt" text-anchor="middle" x="1662.5" y="1477.5">↺ 1889</text>
    <line id="mainline" x1="100" x2="1600" y1="937.5" y2="937.5"/><circle class="markers" cx="100" cy="937.5" r="12.5"/><circle class="markers" cx="225" cy="937.5" r="12.5"/><circle class="markers" cx="350" cy="937.5" r="12.5"/><circle class="markers" cx="475" cy="937.5" r="12.5"/><circle class="markers" cx="600" cy="937.5" r="12.5"/><circle class="markers" cx="725" cy="937.5" r="12.5"/><circle class="markers" cx="850" cy="937.5" r="12.5"/><circle class="markers" cx="975" cy="937.5" r="12.5"/><circle class="markers" cx="1100" cy="937.5" r="12.5"/><circle class="markers" cx="1225" cy="937.5" r="12.5"/><circle class="markers" cx="1350" cy="937.5" r="12.5"/><circle class="markers" cx="1475" cy="937.5" r="12.5"/><circle class="markers" cx="1600" cy="937.5" r="12.5"/>
    <text class="title" x="850" y="100">66 South – April 2019</text>
    <text class="subtitle" x="850" y="150">137584 boardings; est. 3180 services</text>
</svg>