<svg version="1.1" class="highcharts-root" style="font-family: &quot;Lucida Grande&quot;, &quot;Lucida Sans Unicode&quot;, Arial, Helvetica, sans-serif; font-size: 12px;" xmlns="http://www.w3.org/2000/svg" width="678" height="400" viewBox="0 0 678 400" role="img" aria-label="Highcharts Arc Diagram"><desc>Created with Highcharts 10.3.3</desc><defs><clipPath id="highcharts-oc7yp7k-1-"><rect x="0" y="0" width="658" height="324" fill="none"></rect></clipPath><clipPath id="highcharts-oc7yp7k-9-"><rect x="0" y="0" width="658" height="324" fill="none"></rect></clipPath></defs><rect fill="#ffffff" class="highcharts-background" x="0" y="0" width="678" height="400" rx="0" ry="0"></rect><rect fill="none" class="highcharts-plot-background" x="10" y="61" width="658" height="324"></rect><rect fill="none" class="highcharts-plot-border" data-z-index="1" stroke="#cccccc" stroke-width="0" x="10" y="61" width="658" height="324"></rect><g class="highcharts-series-group" data-z-index="3"><g class="highcharts-series highcharts-series-0 highcharts-arcdiagram-series highcharts-tracker" data-z-index="0.1" opacity="1" transform="translate(10,61) scale(1 1)" clip-path="url(#highcharts-oc7yp7k-9-)"><path fill="rgba(124,181,236,0.5)" d="M 81.3 242.2 A 75.9 75.9 0 0 1 233.1 242.2 L 232.1 242.2 A 74.9 74.9 0 0 0 82.3 242.2 Z" class="highcharts-link highcharts-point highcharts-color-0" id="highcharts-oc7yp7k-12"></path><path fill="rgba(124,181,236,0.5)" d="M 81.3 242.2 A 141.4 141.4 0 0 1 364.1 242.2 L 363.1 242.2 A 140.4 140.4 0 0 0 82.3 242.2 Z" class="highcharts-link highcharts-point highcharts-color-1" id="highcharts-oc7yp7k-13"></path><path fill="rgba(124,181,236,0.5)" d="M 81.3 242.2 A 181.65 181.65 0 0 1 444.6 242.2 L 443.6 242.2 A 180.65 180.65 0 0 0 82.3 242.2 Z" class="highcharts-link highcharts-point highcharts-color-2" id="highcharts-oc7yp7k-14"></path><path fill="rgba(124,181,236,0.5)" d="M 81.3 242.2 A 202.2 202.2 0 0 1 485.7 242.2 L 484.7 242.2 A 201.2 201.2 0 0 0 82.3 242.2 Z" class="highcharts-link highcharts-point highcharts-color-3" id="highcharts-oc7yp7k-15"></path><path fill="rgba(241,92,128,0.5)" d="M 232.1 242.2 A 177.05 177.05 0 0 1 586.2 242.2 L 585.2 242.2 A 176.05 176.05 0 0 0 233.1 242.2 Z" class="highcharts-link highcharts-point highcharts-color-4" id="highcharts-oc7yp7k-16"></path><path fill="rgba(241,92,128,0.5)" d="M 363.1 242.2 A 111.55000000000001 111.55000000000001 0 0 1 586.2 242.2 L 585.2 242.2 A 110.55000000000001 110.55000000000001 0 0 0 364.1 242.2 Z" class="highcharts-link highcharts-point highcharts-color-5" id="highcharts-oc7yp7k-17"></path><path fill="rgba(241,92,128,0.5)" d="M 484.7 242.2 A 50.75000000000003 50.75000000000003 0 0 1 586.2 242.2 L 585.2 242.2 A 49.75000000000003 49.75000000000003 0 0 0 485.7 242.2 Z" class="highcharts-link highcharts-point highcharts-color-6" id="highcharts-oc7yp7k-18"></path><path fill="#7cb5ec" d="M 81.8 161.39999999999998 L 162.6 323 L 1 323 Z" width="161.6" height="161.6" stroke="white" stroke-width="2" class="highcharts-node highcharts-point highcharts-color-0 highcharts-node"></path><path fill="#434348" d="M 232.6 181.6 L 293.2 302.79999999999995 L 172 302.79999999999995 Z" width="121.19999999999999" height="121.19999999999999" stroke="white" stroke-width="2" class="highcharts-node highcharts-point highcharts-color-1 highcharts-node"></path><path fill="#90ed7d" d="M 363.6 181.6 L 424.2 302.79999999999995 L 303 302.79999999999995 Z" width="121.19999999999999" height="121.19999999999999" stroke="white" stroke-width="2" class="highcharts-node highcharts-point highcharts-color-2 highcharts-node"></path><path fill="#f7a35c" d="M 444.1 232.1 L 454.2 252.29999999999998 L 434 252.29999999999998 Z" width="20.2" height="20.2" stroke="white" stroke-width="2" class="highcharts-node highcharts-point highcharts-color-3 highcharts-node"></path><path fill="#8085e9" d="M 485.2 222 L 505.4 262.4 L 465 262.4 Z" width="40.4" height="40.4" stroke="white" stroke-width="2" class="highcharts-node highcharts-point highcharts-color-4 highcharts-node"></path><path fill="#f15c80" d="M 585.7 171.5 L 656.4 312.9 L 515 312.9 Z" width="141.4" height="141.4" stroke="white" stroke-width="2" class="highcharts-node highcharts-point highcharts-color-5 highcharts-node"></path></g><g class="highcharts-markers highcharts-series-0 highcharts-arcdiagram-series" data-z-index="0.1" opacity="1" transform="translate(10,61) scale(1 1)" clip-path="none"></g></g><text x="339" text-anchor="middle" class="highcharts-title" data-z-index="4" style="color: rgb(51, 51, 51); font-size: 18px; fill: rgb(51, 51, 51);" y="24">Highcharts Arc Diagram</text><text x="339" text-anchor="middle" class="highcharts-subtitle" data-z-index="4" style="color: rgb(102, 102, 102); fill: rgb(102, 102, 102);" y="46">Arc Diagram with marker symbols</text><text x="10" text-anchor="start" class="highcharts-caption" data-z-index="4" style="color: rgb(102, 102, 102); fill: rgb(102, 102, 102);" y="397"></text><g class="highcharts-data-labels highcharts-series-0 highcharts-arcdiagram-series highcharts-tracker" data-z-index="6" opacity="1" transform="translate(10,61) scale(1 1)"><g class="highcharts-label highcharts-data-label highcharts-data-label-color-0" data-z-index="1" transform="translate(61,231)"><rect fill="none" class="highcharts-label-box highcharts-data-label-box" x="0" y="0" width="42" height="23" rx="0" ry="0" stroke-width="0"></rect><text x="5" data-z-index="1" y="16" style="color: black; font-size: 11px; font-weight: bold; fill: black;"><tspan class="highcharts-text-outline" fill="#FFFFFF" stroke="#FFFFFF" stroke-width="2px" stroke-linejoin="round" style="">Brazil<tspan x="5" dy="0">​</tspan></tspan>Brazil</text></g><g class="highcharts-label highcharts-data-label highcharts-data-label-color-1" data-z-index="1" transform="translate(204,231)"><rect fill="none" class="highcharts-label-box highcharts-data-label-box" x="0" y="0" width="58" height="23" rx="0" ry="0" stroke-width="0"></rect><text x="5" data-z-index="1" y="16" style="color: black; font-size: 11px; font-weight: bold; fill: black;"><tspan class="highcharts-text-outline" fill="#FFFFFF" stroke="#FFFFFF" stroke-width="2px" stroke-linejoin="round" style="">Portugal<tspan x="5" dy="0">​</tspan></tspan>Portugal</text></g><g class="highcharts-label highcharts-data-label highcharts-data-label-color-2" data-z-index="1" transform="translate(340,231)"><rect fill="none" class="highcharts-label-box highcharts-data-label-box" x="0" y="0" width="47" height="23" rx="0" ry="0" stroke-width="0"></rect><text x="5" data-z-index="1" y="16" style="color: black; font-size: 11px; font-weight: bold; fill: black;"><tspan class="highcharts-text-outline" fill="#FFFFFF" stroke="#FFFFFF" stroke-width="2px" stroke-linejoin="round" style="">France<tspan x="5" dy="0">​</tspan></tspan>France</text></g><g class="highcharts-label highcharts-data-label highcharts-data-label-color-3 highcharts-data-label-hidden" data-z-index="1" transform="translate(424,231)" opacity="0" style="pointer-events: none;"><rect fill="none" class="highcharts-label-box highcharts-data-label-box" x="0" y="0" width="41" height="23" rx="0" ry="0" stroke-width="0"></rect><text x="5" data-z-index="1" y="16" style="color: black; font-size: 11px; font-weight: bold; fill: black;"><tspan class="highcharts-text-outline" fill="#FFFFFF" stroke="#FFFFFF" stroke-width="2px" stroke-linejoin="round" style="">Spain<tspan x="5" dy="0">​</tspan></tspan>Spain</text></g><g class="highcharts-label highcharts-data-label highcharts-data-label-color-4" data-z-index="1" transform="translate(457,231)"><rect fill="none" class="highcharts-label-box highcharts-data-label-box" x="0" y="0" width="56" height="23" rx="0" ry="0" stroke-width="0"></rect><text x="5" data-z-index="1" y="16" style="color: black; font-size: 11px; font-weight: bold; fill: black;"><tspan class="highcharts-text-outline" fill="#FFFFFF" stroke="#FFFFFF" stroke-width="2px" stroke-linejoin="round" style="">England<tspan x="5" dy="0">​</tspan></tspan>England</text></g><g class="highcharts-label highcharts-data-label highcharts-data-label-color-5" data-z-index="1" transform="translate(560,231)"><rect fill="none" class="highcharts-label-box highcharts-data-label-box" x="0" y="0" width="52" height="23" rx="0" ry="0" stroke-width="0"></rect><text x="5" data-z-index="1" y="16" style="color: black; font-size: 11px; font-weight: bold; fill: black;"><tspan class="highcharts-text-outline" fill="#FFFFFF" stroke="#FFFFFF" stroke-width="2px" stroke-linejoin="round" style="">Canada<tspan x="5" dy="0">​</tspan></tspan>Canada</text></g><g class="highcharts-label highcharts-data-label highcharts-data-label-color-0" data-z-index="1" transform=""><text x="0" data-z-index="1" y="0" dy="-5" style="color: black; font-size: 11px; font-weight: bold; fill: black;"><textPath startOffset="25%" textAnchor="middle" text-anchor="middle" href="#highcharts-oc7yp7k-12"><tspan class="highcharts-text-outline" fill="#FFFFFF" stroke="#FFFFFF" stroke-width="2px" stroke-linejoin="round">Brazil → Portugal<tspan x="0" dy="0">​</tspan></tspan>Brazil → Portugal</textPath></text></g><g class="highcharts-label highcharts-data-label highcharts-data-label-color-1" data-z-index="1" transform=""><text x="0" data-z-index="1" y="0" dy="-5" style="color: black; font-size: 11px; font-weight: bold; fill: black;"><textPath startOffset="25%" textAnchor="middle" text-anchor="middle" href="#highcharts-oc7yp7k-13"><tspan class="highcharts-text-outline" fill="#FFFFFF" stroke="#FFFFFF" stroke-width="2px" stroke-linejoin="round">Brazil → France<tspan x="0" dy="0">​</tspan></tspan>Brazil → France</textPath></text></g><g class="highcharts-label highcharts-data-label highcharts-data-label-color-2" data-z-index="1" transform=""><text x="0" data-z-index="1" y="0" dy="-5" style="color: black; font-size: 11px; font-weight: bold; fill: black;"><textPath startOffset="25%" textAnchor="middle" text-anchor="middle" href="#highcharts-oc7yp7k-14"><tspan class="highcharts-text-outline" fill="#FFFFFF" stroke="#FFFFFF" stroke-width="2px" stroke-linejoin="round">Brazil → Spain<tspan x="0" dy="0">​</tspan></tspan>Brazil → Spain</textPath></text></g><g class="highcharts-label highcharts-data-label highcharts-data-label-color-3" data-z-index="1" transform="" opacity="1" style="pointer-events: auto;"><text x="0" data-z-index="1" y="0" dy="-5" style="color: black; font-size: 11px; font-weight: bold; fill: black;"><textPath startOffset="25%" textAnchor="middle" text-anchor="middle" href="#highcharts-oc7yp7k-15"><tspan class="highcharts-text-outline" fill="#FFFFFF" stroke="#FFFFFF" stroke-width="2px" stroke-linejoin="round">Brazil → England<tspan x="0" dy="0">​</tspan></tspan>Brazil → England</textPath></text></g><g class="highcharts-label highcharts-data-label highcharts-data-label-color-4" data-z-index="1" transform=""><text x="0" data-z-index="1" y="0" dy="-5" style="color: black; font-size: 11px; font-weight: bold; fill: black;"><textPath startOffset="25%" textAnchor="middle" text-anchor="middle" href="#highcharts-oc7yp7k-16"><tspan class="highcharts-text-outline" fill="#FFFFFF" stroke="#FFFFFF" stroke-width="2px" stroke-linejoin="round">Canada → Portugal<tspan x="0" dy="0">​</tspan></tspan>Canada → Portugal</textPath></text></g><g class="highcharts-label highcharts-data-label highcharts-data-label-color-5" data-z-index="1" transform=""><text x="0" data-z-index="1" y="0" dy="-5" style="color: black; font-size: 11px; font-weight: bold; fill: black;"><textPath startOffset="25%" textAnchor="middle" text-anchor="middle" href="#highcharts-oc7yp7k-17"><tspan class="highcharts-text-outline" fill="#FFFFFF" stroke="#FFFFFF" stroke-width="2px" stroke-linejoin="round">Canada → France<tspan x="0" dy="0">​</tspan></tspan>Canada → France</textPath></text></g><g class="highcharts-label highcharts-data-label highcharts-data-label-color-6" data-z-index="1" transform=""><text x="0" data-z-index="1" y="0" dy="-5" style="color: black; font-size: 11px; font-weight: bold; fill: black;"><textPath startOffset="25%" textAnchor="middle" text-anchor="middle" href="#highcharts-oc7yp7k-18"><tspan class="highcharts-text-outline" fill="#FFFFFF" stroke="#FFFFFF" stroke-width="2px" stroke-linejoin="round">Canada → England<tspan x="0" dy="0">​</tspan></tspan>Canada → England</textPath></text></g></g><g class="highcharts-legend highcharts-no-tooltip" data-z-index="7" visibility="hidden"><rect fill="none" class="highcharts-legend-box" rx="0" ry="0" stroke="#999999" stroke-width="0" x="0" y="0" width="8" height="8"></rect><g data-z-index="1"><g></g></g></g><text x="668" class="highcharts-credits" text-anchor="end" data-z-index="8" y="395" style="cursor: pointer; color: rgb(153, 153, 153); font-size: 9px; fill: rgb(153, 153, 153);">Highcharts.com</text><g class="highcharts-label highcharts-tooltip highcharts-color-5" data-z-index="8" transform="translate(583,246)" style="cursor: default; white-space: nowrap; pointer-events: none;" opacity="0" visibility="hidden"><path fill="none" class="highcharts-label-box highcharts-tooltip-box highcharts-shadow" d="M 3.5 0.5 L 72.5 0.5 C 75.5 0.5 75.5 0.5 75.5 3.5 L 75.5 40.5 C 75.5 43.5 75.5 43.5 72.5 43.5 L 3.5 43.5 C 0.5 43.5 0.5 43.5 0.5 40.5 L 0.5 3.5 C 0.5 0.5 0.5 0.5 3.5 0.5" stroke-width="5" stroke="#000000" stroke-opacity="0.049999999999999996" transform="translate(1, 1)"></path><path fill="none" class="highcharts-label-box highcharts-tooltip-box highcharts-shadow" d="M 3.5 0.5 L 72.5 0.5 C 75.5 0.5 75.5 0.5 75.5 3.5 L 75.5 40.5 C 75.5 43.5 75.5 43.5 72.5 43.5 L 3.5 43.5 C 0.5 43.5 0.5 43.5 0.5 40.5 L 0.5 3.5 C 0.5 0.5 0.5 0.5 3.5 0.5" stroke-width="3" stroke="#000000" stroke-opacity="0.09999999999999999" transform="translate(1, 1)"></path><path fill="none" class="highcharts-label-box highcharts-tooltip-box highcharts-shadow" d="M 3.5 0.5 L 72.5 0.5 C 75.5 0.5 75.5 0.5 75.5 3.5 L 75.5 40.5 C 75.5 43.5 75.5 43.5 72.5 43.5 L 3.5 43.5 C 0.5 43.5 0.5 43.5 0.5 40.5 L 0.5 3.5 C 0.5 0.5 0.5 0.5 3.5 0.5" stroke-width="1" stroke="#000000" stroke-opacity="0.15" transform="translate(1, 1)"></path><path fill="rgba(247,247,247,0.85)" class="highcharts-label-box highcharts-tooltip-box" d="M 3.5 0.5 L 72.5 0.5 C 75.5 0.5 75.5 0.5 75.5 3.5 L 75.5 40.5 C 75.5 43.5 75.5 43.5 72.5 43.5 L 3.5 43.5 C 0.5 43.5 0.5 43.5 0.5 40.5 L 0.5 3.5 C 0.5 0.5 0.5 0.5 3.5 0.5" stroke-width="1" stroke="#f15c80"></path><text x="8" data-z-index="1" y="18" style="color: rgb(51, 51, 51); font-size: 12px; fill: rgb(51, 51, 51);"><tspan style="font-size: 10px;">Series 1</tspan><tspan class="highcharts-br" dy="15" x="8">​</tspan>Canada: <tspan style="font-weight: bold;">7</tspan><tspan class="highcharts-br">​</tspan></text></g></svg>