<svg viewBox="-300 -300 600 600" width="600" height="600" style="width: 100%; height: auto; font: 10px sans-serif;" xmlns="http://www.w3.org/2000/svg" xmlns:xlink="http://www.w3.org/1999/xlink"><g><g fill="#98abc5"><path d="M0.4999979166692873,-135.39971689562964A135.400640077266,135.400640077266,0,0,1,23.01951227071852,-133.429514681541L16.87219888209733,-98.56636802116103A100,100,0,0,0,0.4999979166692663,-99.99875000260417Z"/><path d="M22.149960679133446,-122.73929606066835A124.72191289246472,124.72191289246472,0,0,1,42.187219389378214,-117.3703287707248L33.73174245557597,-94.13909682438373A100,100,0,0,0,17.857002531749007,-98.39272056702725Z"/><path d="M43.126908094783076,-117.02831005248127A124.72191289246472,124.72191289246472,0,0,1,61.92744443589144,-108.2614759792011L49.566364103627194,-86.85145680727904A100,100,0,0,0,34.67143116098083,-93.7970781061402Z"/><path d="M65.51794472749405,-112.48041324217066A130.17082793177758,130.17082793177758,0,0,1,83.28855746051656,-100.03729624790284L63.89493686018019,-76.9248792240429A100,100,0,0,0,50.43238589897695,-86.35145889060978Z"/><path d="M96.80062642525093,-114.58463563531986A150,150,0,0,1,114.58463563531986,-96.80062642525093L76.28209429263472,-64.6609781114513A100,100,0,0,0,64.66097811145131,-76.28209429263471Z"/><path d="M95.86315302299953,-79.78603542001903A124.72191289246472,124.72191289246472,0,0,1,107.76147806253182,-62.79346623124121L86.35145889060976,-50.432385898976975A100,100,0,0,0,76.92487922404291,-63.89493686018019Z"/><path d="M98.14354233528992,-56.085852722936565A113.0388330520878,113.0388330520878,0,0,1,106.04970879986564,-39.13102402495335L93.7970781061402,-34.67143116098084A100,100,0,0,0,86.85145680727904,-49.5663641036272Z"/><path d="M112.01581575788573,-40.238336033713736A119.02380714238083,119.02380714238083,0,0,1,117.12771008882314,-21.16048666773201L98.39272056702725,-17.85700253174901A100,100,0,0,0,94.13909682438373,-33.731742455575954Z"/><path d="M128.27911860685185,-22.111358481415852A130.17082793177758,130.17082793177758,0,0,1,130.16986765963838,-0.49999791666927085L99.99875000260417,-0.4999979166692708A100,100,0,0,0,98.56636802116103,-16.87219888209731Z"/><path d="M135.39971689562964,0.49999791666927085A135.400640077266,135.400640077266,0,0,1,133.429514681541,23.01951227071852L98.56636802116103,16.87219888209731A100,100,0,0,0,99.99875000260417,0.4999979166692708Z"/><path d="M164.86569847863635,29.57798202560352A167.4979270186815,167.4979270186815,0,0,1,157.5668741079663,56.81756541246601L94.13909682438373,33.731742455575954A100,100,0,0,0,98.39272056702725,17.85700253174901Z"/><path d="M153.27943374180452,56.32123807639914A163.29931618554522,163.29931618554522,0,0,1,141.67069228700737,81.21626446461781L86.85145680727905,49.56636410362719A100,100,0,0,0,93.7970781061402,34.67143116098084Z"/><path d="M158.52073460076886,92.09933665745761A183.33333333333334,183.33333333333334,0,0,1,140.76235140453534,117.46093622212119L76.92487922404293,63.89493686018016A100,100,0,0,0,86.35145889060978,50.43238589897695Z"/><path d="M131.12655380018109,110.68094385635074A171.59383568311668,171.59383568311668,0,0,1,110.68094385635075,131.12655380018109L64.66097811145131,76.28209429263471A100,100,0,0,0,76.28209429263471,64.66097811145131Z"/><path d="M83.28855746051657,100.03729624790284A130.17082793177758,130.17082793177758,0,0,1,65.51794472749411,112.48041324217063L50.43238589897698,86.35145889060976A100,100,0,0,0,63.894936860180195,76.9248792240429Z"/><path d="M100.25872853217962,174.65320755332914A201.38409955990954,201.38409955990954,0,0,1,69.34705065572194,189.0675596735418L34.67143116098083,93.7970781061402A100,100,0,0,0,49.566364103627194,86.85145680727904Z"/><path d="M62.23361539629425,172.4473491411719A183.33333333333334,183.33333333333334,0,0,1,32.32778266804484,180.4605928696866L17.85700253174903,98.39272056702725A100,100,0,0,0,33.73174245557597,94.13909682438373Z"/><path d="M29.304428544696744,169.07304608397286A171.59383568311668,171.59383568311668,0,0,1,0.4999979166693523,171.59310722324417L0.4999979166693107,99.99875000260417A100,100,0,0,0,16.87219888209735,98.56636802116101Z"/><path d="M-0.49999791666925125,154.55949951708635A154.56030825826173,154.56030825826173,0,0,1,-26.346573607428965,152.29821715318016L-16.872198882097294,98.56636802116103A100,100,0,0,0,-0.4999979166692541,99.99875000260417Z"/><path d="M-23.096162131067505,128.1054711527181A130.17082793177758,130.17082793177758,0,0,1,-44.05087244093036,122.49067344756224L-33.73174245557592,94.13909682438374A100,100,0,0,0,-17.85700253174897,98.39272056702727Z"/><path d="M-44.99056114633529,122.1486547293187A130.17082793177758,130.17082793177758,0,0,1,-64.65192293214427,112.98041115883994L-49.56636410362719,86.85145680727905A100,100,0,0,0,-34.67143116098082,93.79707810614022Z"/><path d="M-65.51794472749407,112.48041324217066A130.17082793177758,130.17082793177758,0,0,1,-83.2885574605165,100.0372962479029L-63.89493686018016,76.92487922404293A100,100,0,0,0,-50.43238589897694,86.35145889060979Z"/><path d="M-96.80062642525093,114.58463563531986A150,150,0,0,1,-114.58463563531984,96.80062642525094L-76.28209429263471,64.66097811145131A100,100,0,0,0,-64.6609781114513,76.28209429263472Z"/><path d="M-118.72083820201844,98.96591062330023A154.56030825826173,154.56030825826173,0,0,1,-133.60245401967077,77.71276065621811L-86.35145889060976,50.432385898976996A100,100,0,0,0,-76.92487922404288,63.89493686018021Z"/><path d="M-141.6706922870073,81.21626446461788A163.29931618554522,163.29931618554522,0,0,1,-153.2794337418045,56.32123807639923L-93.79707810614019,34.67143116098088A100,100,0,0,0,-86.85145680727902,49.566364103627244Z"/><path d="M-157.56687410796627,56.817565412466124A167.4979270186815,167.4979270186815,0,0,1,-164.86569847863632,29.57798202560364L-98.39272056702725,17.857002531749078A100,100,0,0,0,-94.1390968243837,33.73174245557602Z"/><path d="M-143.17522563249636,24.7379440575579A145.29663145135578,145.29663145135578,0,0,1,-145.29577114697605,0.49999791666927174L-99.99875000260417,0.49999791666927246A100,100,0,0,0,-98.56636802116103,16.87219888209731Z"/><path d="M-113.03772724122288,-0.4999979166692662A113.0388330520878,113.0388330520878,0,0,1,-111.40725389710245,-19.13639351822399L-98.56636802116103,-16.87219888209729A100,100,0,0,0,-99.99875000260417,-0.4999979166692479Z"/><path d="M-133.25586722740726,-24.00431592037015A135.400640077266,135.400640077266,0,0,1,-127.40512418244603,-45.83958622619573L-94.13909682438374,-33.73174245557591A100,100,0,0,0,-98.39272056702727,-17.857002531748968Z"/><path d="M-111.67379703964224,-41.178024739118555A119.02380714238083,119.02380714238083,0,0,1,-103.32673009374902,-59.078367570543186L-86.85145680727906,-49.566364103627144A100,100,0,0,0,-93.79707810614023,-34.671431160980774Z"/><path d="M-97.64354441862064,-56.95187451828635A113.0388330520878,113.0388330520878,0,0,1,-86.91331528164163,-72.2762298721491L-76.9248792240429,-63.894936860180195A100,100,0,0,0,-86.35145889060976,-50.432385898976975Z"/><path d="M-103.40080826207581,-87.41628100121144A135.400640077266,135.400640077266,0,0,1,-87.41628100121147,-103.40080826207578L-64.66097811145131,-76.28209429263471A100,100,0,0,0,-76.28209429263472,-64.6609781114513Z"/><path d="M-76.12333280383831,-91.49811402156189A119.02380714238083,119.02380714238083,0,0,1,-59.94438936589308,-102.82673217707966L-50.432385898976996,-86.35145889060976A100,100,0,0,0,-63.894936860180216,-76.92487922404287Z"/><path d="M-59.0783675705433,-103.32673009374894A119.02380714238083,119.02380714238083,0,0,1,-41.1780247391187,-111.67379703964218L-34.67143116098089,-93.79707810614019A100,100,0,0,0,-49.56636410362725,-86.85145680727902Z"/><path d="M-45.839586226195884,-127.40512418244599A135.400640077266,135.400640077266,0,0,1,-24.004315920370313,-133.25586722740724L-17.85700253174908,-98.39272056702725A100,100,0,0,0,-33.731742455576025,-94.1390968243837Z"/><path d="M-21.165157029481705,-122.91294351480212A124.72191289246472,124.72191289246472,0,0,1,-0.49999791666933635,-124.72091066713264L-0.4999979166692785,-99.99875000260417A100,100,0,0,0,-16.87219888209732,-98.56636802116103Z"/></g><g fill="#98abc5"><path d="M0.4999979166692702,-154.55949951708635A154.56030825826173,154.56030825826173,0,0,1,26.346573607429015,-152.29821715318013L23.01951227071852,-133.429514681541A135.400640077266,135.400640077266,0,0,0,0.4999979166692873,-135.39971689562964Z"/><path d="M24.878673144781434,-138.21459345806198A140.4358295529393,140.4358295529393,0,0,1,47.5617337732006,-132.13668568081087L42.187219389378214,-117.3703287707248A124.72191289246472,124.72191289246472,0,0,0,22.149960679133446,-122.73929606066835Z"/><path d="M44.9905611463353,-122.1486547293187A130.17082793177758,130.17082793177758,0,0,1,64.6519229321443,-112.98041115883991L61.92744443589144,-108.2614759792011A124.72191289246472,124.72191289246472,0,0,0,43.126908094783076,-117.02831005248127Z"/><path d="M75.43259423332302,-129.65308992550408A150,150,0,0,1,96.03458517397982,-115.22742056672803L83.28855746051656,-100.03729624790284A130.17082793177758,130.17082793177758,0,0,0,65.51794472749405,-112.48041324217066Z"/><path d="M108.04813306617032,-127.98889208236278A167.4979270186815,167.4979270186815,0,0,1,127.98889208236278,-108.04813306617032L114.58463563531986,-96.80062642525093A150,150,0,0,0,96.80062642525093,-114.58463563531986Z"/><path d="M107.90079746743764,-89.88681843359028A140.4358295529393,140.4358295529393,0,0,1,121.37022620273453,-70.65048063332107L107.76147806253182,-62.79346623124121A124.72191289246472,124.72191289246472,0,0,0,95.86315302299953,-79.78603542001903Z"/><path d="M103.32673009374896,-59.078367570543264A119.02380714238083,119.02380714238083,0,0,1,111.67379703964221,-41.17802473911861L106.04970879986564,-39.13102402495335A113.0388330520878,113.0388330520878,0,0,0,98.14354233528992,-56.085852722936565Z"/><path d="M127.40512418244602,-45.839586226195784A135.400640077266,135.400640077266,0,0,1,133.25586722740726,-24.004315920370217L117.12771008882314,-21.16048666773201A119.02380714238083,119.02380714238083,0,0,0,112.01581575788573,-40.238336033713736Z"/><path d="M147.80716601032987,-25.554680119202906A150,150,0,0,1,149.99916667129628,-0.4999979166692708L130.16986765963838,-0.49999791666927085A130.17082793177758,130.17082793177758,0,0,0,128.27911860685185,-22.111358481415852Z"/><path d="M145.29577114697605,0.4999979166692708A145.29663145135578,145.29663145135578,0,0,1,143.17522563249636,24.7379440575579L133.429514681541,23.01951227071852A135.400640077266,135.400640077266,0,0,0,135.39971689562964,0.49999791666927085Z"/><path d="M191.32476404406475,34.24342916912283A194.36506316151002,194.36506316151002,0,0,1,182.81382061978502,66.00670244887895L157.5668741079663,56.81756541246601A167.4979270186815,167.4979270186815,0,0,0,164.86569847863635,29.57798202560352Z"/><path d="M168.50832398238288,61.86410082487673A179.50549357115014,179.50549357115014,0,0,1,155.70571345036984,89.31938771136723L141.67069228700737,81.21626446461781A163.29931618554522,163.29931618554522,0,0,0,153.27943374180452,56.32123807639914Z"/><path d="M174.15320963665988,101.12475032752938A201.38409955990954,201.38409955990954,0,0,1,154.59008738215243,129.0637843809565L140.76235140453534,117.46093622212119A183.33333333333334,183.33333333333334,0,0,0,158.52073460076886,92.09933665745761Z"/><path d="M153.94730245074422,129.82982563222768A201.38409955990954,201.38409955990954,0,0,1,129.82982563222768,153.94730245074422L110.68094385635075,131.12655380018109A171.59383568311668,171.59383568311668,0,0,0,131.12655380018109,110.68094385635074Z"/><path d="M98.9659106233002,118.72083820201846A154.56030825826173,154.56030825826173,0,0,1,77.7127606562181,133.6024540196708L65.51794472749411,112.48041324217063A130.17082793177758,130.17082793177758,0,0,0,83.28855746051657,100.03729624790284Z"/><path d="M116.23338791377356,202.32212923585666A233.33333333333334,233.33333333333334,0,0,1,80.27436123826494,219.09009875444622L69.34705065572194,189.0675596735418A201.38409955990954,201.38409955990954,0,0,0,100.25872853217962,174.65320755332914Z"/><path d="M70.72712062161773,195.783062959768A208.16659994661327,208.16659994661327,0,0,1,36.640048285036876,204.91666646469608L32.32778266804484,180.4605928696866A183.33333333333334,183.33333333333334,0,0,0,62.23361539629425,172.4473491411719Z"/><path d="M35.655244635385195,205.09031391882985A208.16659994661327,208.16659994661327,0,0,1,0.4999979166693645,208.16599947017443L0.4999979166693523,171.59310722324417A171.59383568311668,171.59383568311668,0,0,0,29.304428544696744,169.07304608397286Z"/><path d="M-0.4999979166692667,175.59351735020476A175.5942292142123,175.5942292142123,0,0,1,-29.99909247316367,173.0126809922322L-26.346573607428965,152.29821715318016A154.56030825826173,154.56030825826173,0,0,0,-0.49999791666925125,154.55949951708635Z"/><path d="M-25.722747707209578,143.00157817836262A145.29663145135578,145.29663145135578,0,0,1,-49.22423611959979,136.70437333733327L-44.05087244093036,122.49067344756224A130.17082793177758,130.17082793177758,0,0,0,-23.096162131067505,128.1054711527181Z"/><path d="M-50.163924825004756,136.36235461908973A145.29663145135578,145.29663145135578,0,0,1,-72.21487467581312,126.07982783406595L-64.65192293214427,112.98041115883994A130.17082793177758,130.17082793177758,0,0,0,-44.99056114633529,122.1486547293187Z"/><path d="M-73.08089647116287,125.57982991739671A145.29663145135578,145.29663145135578,0,0,1,-93.01130080749158,111.62441056153185L-83.2885574605165,100.0372962479029A130.17082793177758,130.17082793177758,0,0,0,-65.51794472749407,112.48041324217066Z"/><path d="M-113.25235791962555,134.1910457481361A175.5942292142123,175.5942292142123,0,0,1,-134.19104574813608,113.25235791962557L-114.58463563531984,96.80062642525094A150,150,0,0,0,-96.80062642525093,114.58463563531986Z"/><path d="M-140.76235140453528,117.46093622212126A183.33333333333334,183.33333333333334,0,0,1,-158.5207346007688,92.09933665745768L-133.60245401967077,77.71276065621811A154.56030825826173,154.56030825826173,0,0,0,-118.72083820201844,98.96591062330023Z"/><path d="M-165.45132815464933,94.94602098430153A190.75871903765994,190.75871903765994,0,0,1,-179.08293551527225,65.71294466177665L-153.2794337418045,56.32123807639923A163.29931618554522,163.29931618554522,0,0,0,-141.6706922870073,81.21626446461788Z"/><path d="M-186.14094310477915,67.21767599917473A197.90570145063194,197.90570145063194,0,0,1,-194.81162341271988,34.85825655375299L-164.86569847863632,29.57798202560364A167.4979270186815,167.4979270186815,0,0,0,-157.56687410796627,56.817565412466124Z"/><path d="M-169.07304608397288,29.304428544696638A171.59383568311668,171.59383568311668,0,0,1,-171.59310722324417,0.4999979166693247L-145.29577114697605,0.49999791666927174A145.29663145135578,145.29663145135578,0,0,0,-143.17522563249636,24.7379440575579Z"/><path d="M-124.72091066713264,-0.49999791666924276A124.72191289246472,124.72191289246472,0,0,1,-122.91294351480212,-21.165157029481723L-111.40725389710245,-19.13639351822399A113.0388330520878,113.0388330520878,0,0,0,-113.03772724122288,-0.4999979166692662Z"/><path d="M-156.48685558447545,-28.1005659562455A158.98986690282428,158.98986690282428,0,0,1,-149.57187527262528,-53.90762381340884L-127.40512418244603,-45.83958622619573A135.400640077266,135.400640077266,0,0,0,-133.25586722740726,-24.00431592037015Z"/><path d="M-111.67379703964224,-41.178024739118555A119.02380714238083,119.02380714238083,0,0,1,-103.32673009374902,-59.078367570543186A119.02380714238083,119.02380714238083,0,0,0,-111.67379703964224,-41.178024739118555Z"/><path d="M-102.82673217707969,-59.94438936589305A119.02380714238083,119.02380714238083,0,0,1,-91.49811402156192,-76.12333280383828L-86.91331528164163,-72.2762298721491A113.0388330520878,113.0388330520878,0,0,0,-97.64354441862064,-56.95187451828635Z"/><path d="M-121.47130931637972,-102.57923177106652A158.98986690282428,158.98986690282428,0,0,1,-102.57923177106662,-121.47130931637965L-87.41628100121147,-103.40080826207578A135.400640077266,135.400640077266,0,0,0,-103.40080826207581,-87.41628100121144Z"/><path d="M-86.6502397499404,-104.04359319348394A135.400640077266,135.400640077266,0,0,1,-68.13286934548975,-117.00959553850169L-59.94438936589308,-102.82673217707966A119.02380714238083,119.02380714238083,0,0,0,-76.12333280383831,-91.49811402156189Z"/><path d="M-67.26684755014001,-117.50959345517093A135.400640077266,135.400640077266,0,0,1,-46.779274931600725,-127.06310546420248L-41.1780247391187,-111.67379703964218A119.02380714238083,119.02380714238083,0,0,0,-59.0783675705433,-103.32673009374894Z"/><path d="M-55.38154937099434,-153.621452460048A163.29931618554522,163.29931618554522,0,0,1,-28.848897573801047,-160.73085508216215L-24.004315920370313,-133.25586722740724A135.400640077266,135.400640077266,0,0,0,-45.839586226195884,-127.40512418244599Z"/><path d="M-23.893869495129714,-138.38824091219576A140.4358295529393,140.4358295529393,0,0,1,-0.49999791666931837,-140.43493947129235L-0.49999791666933635,-124.72091066713264A124.72191289246472,124.72191289246472,0,0,0,-21.165157029481705,-122.91294351480212Z"/></g><g fill="#8a89a6"><path d="M0.4999979166692911,-163.29855072458543A163.29931618554522,163.29931618554522,0,0,1,27.8640939241492,-160.90450253629595L26.346573607429015,-152.29821715318013A154.56030825826173,154.56030825826173,0,0,0,0.4999979166692702,-154.55949951708635Z"/><path d="M25.722747707209624,-143.0015781783626A145.29663145135578,145.29663145135578,0,0,1,49.224236119599865,-136.70437333733324L47.5617337732006,-132.13668568081087A140.4358295529393,140.4358295529393,0,0,0,24.878673144781434,-138.21459345806198Z"/><path d="M50.16392482500478,-136.3623546190897A145.29663145135578,145.29663145135578,0,0,1,72.2148746758131,-126.07982783406597L64.6519229321443,-112.98041115883991A130.17082793177758,130.17082793177758,0,0,0,44.9905611463353,-122.1486547293187Z"/><path d="M77.71276065621804,-133.60245401967083A154.56030825826173,154.56030825826173,0,0,1,98.9659106233002,-118.72083820201846L96.03458517397982,-115.22742056672803A150,150,0,0,0,75.43259423332302,-129.65308992550408Z"/><path d="M120.63714154343076,-142.99188816233686A187.08286933869707,187.08286933869707,0,0,1,142.99188816233686,-120.63714154343076L127.98889208236278,-108.04813306617032A167.4979270186815,167.4979270186815,0,0,0,108.04813306617032,-127.98889208236278Z"/><path d="M111.62441056153183,-93.01130080749161A145.29663145135578,145.29663145135578,0,0,1,125.57982991739668,-73.08089647116292L121.37022620273453,-70.65048063332107A140.4358295529393,140.4358295529393,0,0,0,107.90079746743764,-89.88681843359028Z"/><path d="M108.26147597920108,-61.927444435891445A124.72191289246472,124.72191289246472,0,0,1,117.02831005248127,-43.126908094783076L111.67379703964221,-41.17802473911861A119.02380714238083,119.02380714238083,0,0,0,103.32673009374896,-59.078367570543264Z"/><path d="M127.40512418244602,-45.839586226195784A135.400640077266,135.400640077266,0,0,1,133.25586722740726,-24.004315920370217A135.400640077266,135.400640077266,0,0,0,127.40512418244602,-45.839586226195784Z"/><path d="M152.29821715318013,-26.346573607428997A154.56030825826173,154.56030825826173,0,0,1,154.55949951708635,-0.49999791666927085L149.99916667129628,-0.4999979166692708A150,150,0,0,0,147.80716601032987,-25.554680119202906Z"/><path d="M154.55949951708635,0.49999791666927085A154.56030825826173,154.56030825826173,0,0,1,152.29821715318013,26.346573607428997L143.17522563249636,24.7379440575579A145.29663145135578,145.29663145135578,0,0,0,145.29577114697605,0.4999979166692708Z"/><path d="M211.38527495186895,37.780638488965174A214.7349787787521,214.7349787787521,0,0,1,201.95533733875948,72.97364477329451L182.81382061978502,66.00670244887895A194.36506316151002,194.36506316151002,0,0,0,191.32476404406475,34.24342916912283Z"/><path d="M189.0675596735418,69.34705065572193A201.38409955990954,201.38409955990954,0,0,1,174.65320755332917,100.25872853217962L155.70571345036984,89.31938771136723A179.50549357115014,179.50549357115014,0,0,0,168.50832398238288,61.86410082487673Z"/><path d="M196.59972164487706,114.08425007784173A227.3030282830976,227.3030282830976,0,0,1,174.44519292080957,145.72419611542963L154.59008738215243,129.0637843809565A201.38409955990954,201.38409955990954,0,0,0,174.15320963665988,101.12475032752938Z"/><path d="M164.1746988497943,138.41163017857446A214.7349787787521,214.7349787787521,0,0,1,138.41163017857448,164.1746988497943L129.82982563222768,153.94730245074422A201.38409955990954,201.38409955990954,0,0,0,153.94730245074422,129.82982563222768Z"/><path d="M98.9659106233002,118.72083820201846A154.56030825826173,154.56030825826173,0,0,1,77.7127606562181,133.6024540196708A154.56030825826173,154.56030825826173,0,0,0,98.9659106233002,118.72083820201846Z"/><path d="M124.84420947764026,217.23650967938343A250.55493963954848,250.55493963954848,0,0,1,86.1645100891158,235.27314971938563L80.27436123826494,219.09009875444622A233.33333333333334,233.33333333333334,0,0,0,116.23338791377356,202.32212923585666Z"/><path d="M78.31017709065016,216.6173393788839A230.33791601808755,230.33791601808755,0,0,1,40.490066954080845,226.75120734763377L36.640048285036876,204.91666646469608A208.16659994661327,208.16659994661327,0,0,0,70.72712062161773,195.783062959768Z"/><path d="M37.35324149082013,214.720132614826A217.94494717703367,217.94494717703367,0,0,1,0.4999979166693719,217.94437364172381L0.4999979166693645,208.16599947017443A208.16659994661327,208.16659994661327,0,0,0,35.655244635385195,205.09031391882985Z"/><path d="M-0.4999979166692655,190.7580637639526A190.75871903765994,190.75871903765994,0,0,1,-32.63238832305657,187.94684387140458L-29.99909247316367,173.0126809922322A175.5942292142123,175.5942292142123,0,0,0,-0.4999979166692667,175.59351735020476Z"/><path d="M-26.53948376885456,147.63351855619612A150,150,0,0,1,-50.832892130945126,141.12411940417448L-49.22423611959979,136.70437333733327A145.29663145135578,145.29663145135578,0,0,0,-25.722747707209578,143.00157817836262Z"/><path d="M-53.33230652987993,145.06741180944744A154.56030825826173,154.56030825826173,0,0,1,-76.84673886086827,134.1024519363401L-72.21487467581312,126.07982783406595A145.29663145135578,145.29663145135578,0,0,0,-50.163924825004756,136.36235461908973Z"/><path d="M-77.71276065621802,133.60245401967083A154.56030825826173,154.56030825826173,0,0,1,-98.96591062330015,118.72083820201848L-93.01130080749158,111.62441056153185A145.29663145135578,145.29663145135578,0,0,0,-73.08089647116287,125.57982991739671Z"/><path d="M-120.63714154343073,142.99188816233686A187.08286933869707,187.08286933869707,0,0,1,-142.99188816233686,120.63714154343076L-134.19104574813608,113.25235791962557A175.5942292142123,175.5942292142123,0,0,0,-113.25235791962555,134.1910457481361Z"/><path d="M-149.21317638207034,124.55202034391472A194.36506316151002,194.36506316151002,0,0,1,-168.07452639342694,97.61522092073047L-158.5207346007688,92.09933665745768A183.33333333333334,183.33333333333334,0,0,0,-140.76235140453528,117.46093622212126Z"/><path d="M-177.61444250578248,101.96839832911238A204.80342879074178,204.80342879074178,0,0,1,-192.28068785785814,70.51653367369504L-179.08293551527225,65.71294466177665A190.75871903765994,190.75871903765994,0,0,0,-165.45132815464933,94.94602098430153Z"/><path d="M-195.78306295976796,70.72712062161779A208.16659994661327,208.16659994661327,0,0,1,-204.91666646469605,36.64004828503703L-194.81162341271988,34.85825655375299A197.90570145063194,197.90570145063194,0,0,0,-186.14094310477915,67.21767599917473Z"/><path d="M-173.0126809922322,29.9990924731637A175.5942292142123,175.5942292142123,0,0,1,-175.59351735020476,0.4999979166692989L-171.59310722324417,0.4999979166693247A171.59383568311668,171.59383568311668,0,0,0,-169.07304608397288,29.304428544696638Z"/><path d="M-124.72091066713264,-0.49999791666924276A124.72191289246472,124.72191289246472,0,0,1,-122.91294351480212,-21.165157029481723A124.72191289246472,124.72191289246472,0,0,0,-124.72091066713264,-0.49999791666924276Z"/><path d="M-160.73085508216218,-28.848897573800855A163.29931618554522,163.29931618554522,0,0,1,-153.62145246004806,-55.38154937099416L-149.57187527262528,-53.90762381340884A158.98986690282428,158.98986690282428,0,0,0,-156.48685558447545,-28.1005659562455Z"/><path d="M-122.14865472931871,-44.99056114633525A130.17082793177758,130.17082793177758,0,0,1,-112.98041115883997,-64.6519229321442L-103.32673009374902,-59.078367570543186A119.02380714238083,119.02380714238083,0,0,0,-111.67379703964224,-41.178024739118555Z"/><path d="M-107.76147806253182,-62.79346623124121A124.72191289246472,124.72191289246472,0,0,1,-95.86315302299953,-79.78603542001905L-91.49811402156192,-76.12333280383828A119.02380714238083,119.02380714238083,0,0,0,-102.82673217707969,-59.94438936589305Z"/><path d="M-124.77255488624714,-105.34930571116791A163.29931618554522,163.29931618554522,0,0,1,-105.34930571116796,-124.77255488624711L-102.57923177106662,-121.47130931637965A158.98986690282428,158.98986690282428,0,0,0,-121.47130931637972,-102.57923177106652Z"/><path d="M-86.6502397499404,-104.04359319348394A135.400640077266,135.400640077266,0,0,1,-68.13286934548975,-117.00959553850169A135.400640077266,135.400640077266,0,0,0,-86.6502397499404,-104.04359319348394Z"/><path d="M-67.26684755014001,-117.50959345517093A135.400640077266,135.400640077266,0,0,1,-46.779274931600725,-127.06310546420248A135.400640077266,135.400640077266,0,0,0,-67.26684755014001,-117.50959345517093Z"/><path d="M-55.38154937099434,-153.621452460048A163.29931618554522,163.29931618554522,0,0,1,-28.848897573801047,-160.73085508216215A163.29931618554522,163.29931618554522,0,0,0,-55.38154937099434,-153.621452460048Z"/><path d="M-24.737944057557915,-143.17522563249636A145.29663145135578,145.29663145135578,0,0,1,-0.4999979166692806,-145.29577114697605L-0.49999791666931837,-140.43493947129235A140.4358295529393,140.4358295529393,0,0,0,-23.893869495129714,-138.38824091219576Z"/></g><g fill="#7b6888"><path d="M0.4999979166692911,-163.29855072458543A163.29931618554522,163.29931618554522,0,0,1,27.8640939241492,-160.90450253629595A163.29931618554522,163.29931618554522,0,0,0,0.4999979166692911,-163.29855072458543Z"/><path d="M25.722747707209624,-143.0015781783626A145.29663145135578,145.29663145135578,0,0,1,49.224236119599865,-136.70437333733324A145.29663145135578,145.29663145135578,0,0,0,25.722747707209624,-143.0015781783626Z"/><path d="M50.16392482500478,-136.3623546190897A145.29663145135578,145.29663145135578,0,0,1,72.2148746758131,-126.07982783406597A145.29663145135578,145.29663145135578,0,0,0,50.16392482500478,-136.3623546190897Z"/><path d="M77.71276065621804,-133.60245401967083A154.56030825826173,154.56030825826173,0,0,1,98.9659106233002,-118.72083820201846A154.56030825826173,154.56030825826173,0,0,0,77.71276065621804,-133.60245401967083Z"/><path d="M120.63714154343076,-142.99188816233686A187.08286933869707,187.08286933869707,0,0,1,142.99188816233686,-120.63714154343076A187.08286933869707,187.08286933869707,0,0,0,120.63714154343076,-142.99188816233686Z"/><path d="M111.62441056153183,-93.01130080749161A145.29663145135578,145.29663145135578,0,0,1,125.57982991739668,-73.08089647116292A145.29663145135578,145.29663145135578,0,0,0,111.62441056153183,-93.01130080749161Z"/><path d="M108.26147597920108,-61.927444435891445A124.72191289246472,124.72191289246472,0,0,1,117.02831005248127,-43.126908094783076A124.72191289246472,124.72191289246472,0,0,0,108.26147597920108,-61.927444435891445Z"/><path d="M127.40512418244602,-45.839586226195784A135.400640077266,135.400640077266,0,0,1,133.25586722740726,-24.004315920370217A135.400640077266,135.400640077266,0,0,0,127.40512418244602,-45.839586226195784Z"/><path d="M152.29821715318013,-26.346573607428997A154.56030825826173,154.56030825826173,0,0,1,154.55949951708635,-0.49999791666927085A154.56030825826173,154.56030825826173,0,0,0,152.29821715318013,-26.346573607428997Z"/><path d="M163.29855072458543,0.49999791666927085A163.29931618554522,163.29931618554522,0,0,1,160.90450253629595,27.8640939241492L152.29821715318013,26.346573607428997A154.56030825826173,154.56030825826173,0,0,0,154.55949951708635,0.49999791666927085Z"/><path d="M211.38527495186895,37.780638488965174A214.7349787787521,214.7349787787521,0,0,1,201.95533733875948,72.97364477329451A214.7349787787521,214.7349787787521,0,0,0,211.38527495186895,37.780638488965174Z"/><path d="M195.44104424152445,71.66680932702259A208.16659994661327,208.16659994661327,0,0,1,180.5270427036837,103.64998883741231L174.65320755332917,100.25872853217962A201.38409955990954,201.38409955990954,0,0,0,189.0675596735418,69.34705065572193Z"/><path d="M204.38336220636526,118.57813705129223A236.29078131263043,236.29078131263043,0,0,1,181.33022720884262,151.5014258471611L174.44519292080957,145.72419611542963A227.3030282830976,227.3030282830976,0,0,0,196.59972164487706,114.08425007784173Z"/><path d="M169.056973837384,142.50834531996702A221.10831935702666,221.10831935702666,0,0,1,142.50834531996702,169.05697383738396L138.41163017857448,164.1746988497943A214.7349787787521,214.7349787787521,0,0,0,164.1746988497943,138.41163017857446Z"/><path d="M98.9659106233002,118.72083820201846A154.56030825826173,154.56030825826173,0,0,1,77.7127606562181,133.6024540196708A154.56030825826173,154.56030825826173,0,0,0,98.9659106233002,118.72083820201846Z"/><path d="M132.90008806240556,231.18970068780305A266.6666666666667,266.6666666666667,0,0,1,91.67505558546706,250.41324903948802L86.1645100891158,235.27314971938563A250.55493963954848,250.55493963954848,0,0,0,124.84420947764026,217.23650967938343Z"/><path d="M81.34518598270654,224.9559577776528A239.21166824012207,239.21166824012207,0,0,1,42.03098135223279,235.49016715946016L40.490066954080845,226.75120734763377A230.33791601808755,230.33791601808755,0,0,0,78.31017709065016,216.6173393788839Z"/><path d="M37.35324149082013,214.720132614826A217.94494717703367,217.94494717703367,0,0,1,0.4999979166693719,217.94437364172381A217.94494717703367,217.94494717703367,0,0,0,37.35324149082013,214.720132614826Z"/><path d="M-0.49999791666927546,194.36442004611106A194.36506316151002,194.36506316151002,0,0,1,-33.25862551947106,191.49841149819852L-32.63238832305657,187.94684387140458A190.75871903765994,190.75871903765994,0,0,0,-0.4999979166692655,190.7580637639526Z"/><path d="M-27.331377257080643,152.1245696990464A154.56030825826173,154.56030825826173,0,0,1,-52.392617824475,145.409430527691L-50.832892130945126,141.12411940417448A150,150,0,0,0,-26.53948376885456,147.63351855619612Z"/><path d="M-53.33230652987993,145.06741180944744A154.56030825826173,154.56030825826173,0,0,1,-76.84673886086827,134.1024519363401A154.56030825826173,154.56030825826173,0,0,0,-53.33230652987993,145.06741180944744Z"/><path d="M-77.71276065621802,133.60245401967083A154.56030825826173,154.56030825826173,0,0,1,-98.96591062330015,118.72083820201848A154.56030825826173,154.56030825826173,0,0,0,-77.71276065621802,133.60245401967083Z"/><path d="M-120.63714154343073,142.99188816233686A187.08286933869707,187.08286933869707,0,0,1,-142.99188816233686,120.63714154343076A187.08286933869707,187.08286933869707,0,0,0,-120.63714154343073,142.99188816233686Z"/><path d="M-149.21317638207034,124.55202034391472A194.36506316151002,194.36506316151002,0,0,1,-168.07452639342694,97.61522092073047A194.36506316151002,194.36506316151002,0,0,0,-149.21317638207034,124.55202034391472Z"/><path d="M-180.52704270368366,103.64998883741237A208.16659994661327,208.16659994661327,0,0,1,-195.44104424152442,71.66680932702273L-192.28068785785814,70.51653367369504A204.80342879074178,204.80342879074178,0,0,0,-177.61444250578248,101.96839832911238Z"/><path d="M-201.95533733875945,72.97364477329461A214.7349787787521,214.7349787787521,0,0,1,-211.38527495186892,37.780638488965366L-204.91666646469605,36.64004828503703A208.16659994661327,208.16659994661327,0,0,0,-195.78306295976796,70.72712062161779Z"/><path d="M-176.8645397303205,30.678279094566346A179.50549357115014,179.50549357115014,0,0,1,-179.50479721808426,0.4999979166692845L-175.59351735020476,0.4999979166692989A175.5942292142123,175.5942292142123,0,0,0,-173.0126809922322,29.9990924731637Z"/><path d="M-124.72091066713264,-0.49999791666924276A124.72191289246472,124.72191289246472,0,0,1,-122.91294351480212,-21.165157029481723A124.72191289246472,124.72191289246472,0,0,0,-124.72091066713264,-0.49999791666924276Z"/><path d="M-160.73085508216218,-28.848897573800855A163.29931618554522,163.29931618554522,0,0,1,-153.62145246004806,-55.38154937099416A163.29931618554522,163.29931618554522,0,0,0,-160.73085508216218,-28.848897573800855Z"/><path d="M-127.06310546420254,-46.779274931600575A135.400640077266,135.400640077266,0,0,1,-117.50959345517101,-67.26684755013987L-112.98041115883997,-64.6519229321442A130.17082793177758,130.17082793177758,0,0,0,-122.14865472931871,-44.99056114633525Z"/><path d="M-107.76147806253182,-62.79346623124121A124.72191289246472,124.72191289246472,0,0,1,-95.86315302299953,-79.78603542001905A124.72191289246472,124.72191289246472,0,0,0,-107.76147806253182,-62.79346623124121Z"/><path d="M-124.77255488624714,-105.34930571116791A163.29931618554522,163.29931618554522,0,0,1,-105.34930571116796,-124.77255488624711A163.29931618554522,163.29931618554522,0,0,0,-124.77255488624714,-105.34930571116791Z"/><path d="M-86.6502397499404,-104.04359319348394A135.400640077266,135.400640077266,0,0,1,-68.13286934548975,-117.00959553850169A135.400640077266,135.400640077266,0,0,0,-86.6502397499404,-104.04359319348394Z"/><path d="M-67.26684755014001,-117.50959345517093A135.400640077266,135.400640077266,0,0,1,-46.779274931600725,-127.06310546420248A135.400640077266,135.400640077266,0,0,0,-67.26684755014001,-117.50959345517093Z"/><path d="M-55.38154937099434,-153.621452460048A163.29931618554522,163.29931618554522,0,0,1,-28.848897573801047,-160.73085508216215A163.29931618554522,163.29931618554522,0,0,0,-55.38154937099434,-153.621452460048Z"/><path d="M-24.737944057557915,-143.17522563249636A145.29663145135578,145.29663145135578,0,0,1,-0.4999979166692806,-145.29577114697605A145.29663145135578,145.29663145135578,0,0,0,-24.737944057557915,-143.17522563249636Z"/></g><g fill="#6b486b"><path d="M0.4999979166692911,-163.29855072458543A163.29931618554522,163.29931618554522,0,0,1,27.8640939241492,-160.90450253629595A163.29931618554522,163.29931618554522,0,0,0,0.4999979166692911,-163.29855072458543Z"/><path d="M25.722747707209624,-143.0015781783626A145.29663145135578,145.29663145135578,0,0,1,49.224236119599865,-136.70437333733324A145.29663145135578,145.29663145135578,0,0,0,25.722747707209624,-143.0015781783626Z"/><path d="M50.16392482500478,-136.3623546190897A145.29663145135578,145.29663145135578,0,0,1,72.2148746758131,-126.07982783406597A145.29663145135578,145.29663145135578,0,0,0,50.16392482500478,-136.3623546190897Z"/><path d="M77.71276065621804,-133.60245401967083A154.56030825826173,154.56030825826173,0,0,1,98.9659106233002,-118.72083820201846A154.56030825826173,154.56030825826173,0,0,0,77.71276065621804,-133.60245401967083Z"/><path d="M120.63714154343076,-142.99188816233686A187.08286933869707,187.08286933869707,0,0,1,142.99188816233686,-120.63714154343076A187.08286933869707,187.08286933869707,0,0,0,120.63714154343076,-142.99188816233686Z"/><path d="M111.62441056153183,-93.01130080749161A145.29663145135578,145.29663145135578,0,0,1,125.57982991739668,-73.08089647116292A145.29663145135578,145.29663145135578,0,0,0,111.62441056153183,-93.01130080749161Z"/><path d="M108.26147597920108,-61.927444435891445A124.72191289246472,124.72191289246472,0,0,1,117.02831005248127,-43.126908094783076A124.72191289246472,124.72191289246472,0,0,0,108.26147597920108,-61.927444435891445Z"/><path d="M127.40512418244602,-45.839586226195784A135.400640077266,135.400640077266,0,0,1,133.25586722740726,-24.004315920370217A135.400640077266,135.400640077266,0,0,0,127.40512418244602,-45.839586226195784Z"/><path d="M152.29821715318013,-26.346573607428997A154.56030825826173,154.56030825826173,0,0,1,154.55949951708635,-0.49999791666927085A154.56030825826173,154.56030825826173,0,0,0,152.29821715318013,-26.346573607428997Z"/><path d="M163.29855072458543,0.49999791666927085A163.29931618554522,163.29931618554522,0,0,1,160.90450253629595,27.8640939241492A163.29931618554522,163.29931618554522,0,0,0,163.29855072458543,0.49999791666927085Z"/><path d="M211.38527495186895,37.780638488965174A214.7349787787521,214.7349787787521,0,0,1,201.95533733875948,72.97364477329451A214.7349787787521,214.7349787787521,0,0,0,211.38527495186895,37.780638488965174Z"/><path d="M195.44104424152445,71.66680932702259A208.16659994661327,208.16659994661327,0,0,1,180.5270427036837,103.64998883741231A208.16659994661327,208.16659994661327,0,0,0,195.44104424152445,71.66680932702259Z"/><path d="M206.91293008117566,120.03858374474744A239.21166824012207,239.21166824012207,0,0,1,183.5677613568283,153.37893992548246L181.33022720884262,151.5014258471611A236.29078131263043,236.29078131263043,0,0,0,204.38336220636526,118.57813705129223Z"/><path d="M169.056973837384,142.50834531996702A221.10831935702666,221.10831935702666,0,0,1,142.50834531996702,169.05697383738396A221.10831935702666,221.10831935702666,0,0,0,169.056973837384,142.50834531996702Z"/><path d="M98.9659106233002,118.72083820201846A154.56030825826173,154.56030825826173,0,0,1,77.7127606562181,133.6024540196708A154.56030825826173,154.56030825826173,0,0,0,98.9659106233002,118.72083820201846Z"/><path d="M132.90008806240556,231.18970068780305A266.6666666666667,266.6666666666667,0,0,1,91.67505558546706,250.41324903948802A266.6666666666667,266.6666666666667,0,0,0,132.90008806240556,231.18970068780305Z"/><path d="M81.34518598270654,224.9559577776528A239.21166824012207,239.21166824012207,0,0,1,42.03098135223279,235.49016715946016A239.21166824012207,239.21166824012207,0,0,0,81.34518598270654,224.9559577776528Z"/><path d="M37.90255673003299,217.835454144213A221.10831935702666,221.10831935702666,0,0,1,0.49999791666940313,221.10775402724394L0.4999979166693719,217.94437364172381A217.94494717703367,217.94494717703367,0,0,0,37.35324149082013,214.720132614826Z"/><path d="M-0.49999791666927546,194.36442004611106A194.36506316151002,194.36506316151002,0,0,1,-33.25862551947106,191.49841149819852A194.36506316151002,194.36506316151002,0,0,0,-0.49999791666927546,194.36442004611106Z"/><path d="M-27.331377257080643,152.1245696990464A154.56030825826173,154.56030825826173,0,0,1,-52.392617824475,145.409430527691A154.56030825826173,154.56030825826173,0,0,0,-27.331377257080643,152.1245696990464Z"/><path d="M-53.33230652987993,145.06741180944744A154.56030825826173,154.56030825826173,0,0,1,-76.84673886086827,134.1024519363401A154.56030825826173,154.56030825826173,0,0,0,-53.33230652987993,145.06741180944744Z"/><path d="M-77.71276065621802,133.60245401967083A154.56030825826173,154.56030825826173,0,0,1,-98.96591062330015,118.72083820201848A154.56030825826173,154.56030825826173,0,0,0,-77.71276065621802,133.60245401967083Z"/><path d="M-120.63714154343073,142.99188816233686A187.08286933869707,187.08286933869707,0,0,1,-142.99188816233686,120.63714154343076A187.08286933869707,187.08286933869707,0,0,0,-120.63714154343073,142.99188816233686Z"/><path d="M-149.21317638207034,124.55202034391472A194.36506316151002,194.36506316151002,0,0,1,-168.07452639342694,97.61522092073047A194.36506316151002,194.36506316151002,0,0,0,-149.21317638207034,124.55202034391472Z"/><path d="M-180.52704270368366,103.64998883741237A208.16659994661327,208.16659994661327,0,0,1,-195.44104424152442,71.66680932702273A208.16659994661327,208.16659994661327,0,0,0,-180.52704270368366,103.64998883741237Z"/><path d="M-201.95533733875945,72.97364477329461A214.7349787787521,214.7349787787521,0,0,1,-211.38527495186892,37.780638488965366A214.7349787787521,214.7349787787521,0,0,0,-201.95533733875945,72.97364477329461Z"/><path d="M-176.8645397303205,30.678279094566346A179.50549357115014,179.50549357115014,0,0,1,-179.50479721808426,0.4999979166692845A179.50549357115014,179.50549357115014,0,0,0,-176.8645397303205,30.678279094566346Z"/><path d="M-124.72091066713264,-0.49999791666924276A124.72191289246472,124.72191289246472,0,0,1,-122.91294351480212,-21.165157029481723A124.72191289246472,124.72191289246472,0,0,0,-124.72091066713264,-0.49999791666924276Z"/><path d="M-160.73085508216218,-28.848897573800855A163.29931618554522,163.29931618554522,0,0,1,-153.62145246004806,-55.38154937099416A163.29931618554522,163.29931618554522,0,0,0,-160.73085508216218,-28.848897573800855Z"/><path d="M-127.06310546420254,-46.779274931600575A135.400640077266,135.400640077266,0,0,1,-117.50959345517101,-67.26684755013987A135.400640077266,135.400640077266,0,0,0,-127.06310546420254,-46.779274931600575Z"/><path d="M-107.76147806253182,-62.79346623124121A124.72191289246472,124.72191289246472,0,0,1,-95.86315302299953,-79.78603542001905A124.72191289246472,124.72191289246472,0,0,0,-107.76147806253182,-62.79346623124121Z"/><path d="M-124.77255488624714,-105.34930571116791A163.29931618554522,163.29931618554522,0,0,1,-105.34930571116796,-124.77255488624711A163.29931618554522,163.29931618554522,0,0,0,-124.77255488624714,-105.34930571116791Z"/><path d="M-86.6502397499404,-104.04359319348394A135.400640077266,135.400640077266,0,0,1,-68.13286934548975,-117.00959553850169A135.400640077266,135.400640077266,0,0,0,-86.6502397499404,-104.04359319348394Z"/><path d="M-67.26684755014001,-117.50959345517093A135.400640077266,135.400640077266,0,0,1,-46.779274931600725,-127.06310546420248A135.400640077266,135.400640077266,0,0,0,-67.26684755014001,-117.50959345517093Z"/><path d="M-55.38154937099434,-153.621452460048A163.29931618554522,163.29931618554522,0,0,1,-28.848897573801047,-160.73085508216215A163.29931618554522,163.29931618554522,0,0,0,-55.38154937099434,-153.621452460048Z"/><path d="M-24.737944057557915,-143.17522563249636A145.29663145135578,145.29663145135578,0,0,1,-0.4999979166692806,-145.29577114697605A145.29663145135578,145.29663145135578,0,0,0,-24.737944057557915,-143.17522563249636Z"/></g><g fill="#a05d56"><path d="M0.4999979166692911,-163.29855072458543A163.29931618554522,163.29931618554522,0,0,1,27.8640939241492,-160.90450253629595A163.29931618554522,163.29931618554522,0,0,0,0.4999979166692911,-163.29855072458543Z"/><path d="M25.722747707209624,-143.0015781783626A145.29663145135578,145.29663145135578,0,0,1,49.224236119599865,-136.70437333733324A145.29663145135578,145.29663145135578,0,0,0,25.722747707209624,-143.0015781783626Z"/><path d="M50.16392482500478,-136.3623546190897A145.29663145135578,145.29663145135578,0,0,1,72.2148746758131,-126.07982783406597A145.29663145135578,145.29663145135578,0,0,0,50.16392482500478,-136.3623546190897Z"/><path d="M77.71276065621804,-133.60245401967083A154.56030825826173,154.56030825826173,0,0,1,98.9659106233002,-118.72083820201846A154.56030825826173,154.56030825826173,0,0,0,77.71276065621804,-133.60245401967083Z"/><path d="M120.63714154343076,-142.99188816233686A187.08286933869707,187.08286933869707,0,0,1,142.99188816233686,-120.63714154343076A187.08286933869707,187.08286933869707,0,0,0,120.63714154343076,-142.99188816233686Z"/><path d="M111.62441056153183,-93.01130080749161A145.29663145135578,145.29663145135578,0,0,1,125.57982991739668,-73.08089647116292A145.29663145135578,145.29663145135578,0,0,0,111.62441056153183,-93.01130080749161Z"/><path d="M108.26147597920108,-61.927444435891445A124.72191289246472,124.72191289246472,0,0,1,117.02831005248127,-43.126908094783076A124.72191289246472,124.72191289246472,0,0,0,108.26147597920108,-61.927444435891445Z"/><path d="M127.40512418244602,-45.839586226195784A135.400640077266,135.400640077266,0,0,1,133.25586722740726,-24.004315920370217A135.400640077266,135.400640077266,0,0,0,127.40512418244602,-45.839586226195784Z"/><path d="M152.29821715318013,-26.346573607428997A154.56030825826173,154.56030825826173,0,0,1,154.55949951708635,-0.49999791666927085A154.56030825826173,154.56030825826173,0,0,0,152.29821715318013,-26.346573607428997Z"/><path d="M163.29855072458543,0.49999791666927085A163.29931618554522,163.29931618554522,0,0,1,160.90450253629595,27.8640939241492A163.29931618554522,163.29931618554522,0,0,0,163.29855072458543,0.49999791666927085Z"/><path d="M211.38527495186895,37.780638488965174A214.7349787787521,214.7349787787521,0,0,1,201.95533733875948,72.97364477329451A214.7349787787521,214.7349787787521,0,0,0,211.38527495186895,37.780638488965174Z"/><path d="M195.44104424152445,71.66680932702259A208.16659994661327,208.16659994661327,0,0,1,180.5270427036837,103.64998883741231A208.16659994661327,208.16659994661327,0,0,0,195.44104424152445,71.66680932702259Z"/><path d="M206.91293008117566,120.03858374474744A239.21166824012207,239.21166824012207,0,0,1,183.5677613568283,153.37893992548246A239.21166824012207,239.21166824012207,0,0,0,206.91293008117566,120.03858374474744Z"/><path d="M169.056973837384,142.50834531996702A221.10831935702666,221.10831935702666,0,0,1,142.50834531996702,169.05697383738396A221.10831935702666,221.10831935702666,0,0,0,169.056973837384,142.50834531996702Z"/><path d="M98.9659106233002,118.72083820201846A154.56030825826173,154.56030825826173,0,0,1,77.7127606562181,133.6024540196708A154.56030825826173,154.56030825826173,0,0,0,98.9659106233002,118.72083820201846Z"/><path d="M132.90008806240556,231.18970068780305A266.6666666666667,266.6666666666667,0,0,1,91.67505558546706,250.41324903948802A266.6666666666667,266.6666666666667,0,0,0,132.90008806240556,231.18970068780305Z"/><path d="M81.34518598270654,224.9559577776528A239.21166824012207,239.21166824012207,0,0,1,42.03098135223279,235.49016715946016A239.21166824012207,239.21166824012207,0,0,0,81.34518598270654,224.9559577776528Z"/><path d="M37.90255673003299,217.835454144213A221.10831935702666,221.10831935702666,0,0,1,0.49999791666940313,221.10775402724394A221.10831935702666,221.10831935702666,0,0,0,37.90255673003299,217.835454144213Z"/><path d="M-0.49999791666927546,194.36442004611106A194.36506316151002,194.36506316151002,0,0,1,-33.25862551947106,191.49841149819852A194.36506316151002,194.36506316151002,0,0,0,-0.49999791666927546,194.36442004611106Z"/><path d="M-27.331377257080643,152.1245696990464A154.56030825826173,154.56030825826173,0,0,1,-52.392617824475,145.409430527691A154.56030825826173,154.56030825826173,0,0,0,-27.331377257080643,152.1245696990464Z"/><path d="M-53.33230652987993,145.06741180944744A154.56030825826173,154.56030825826173,0,0,1,-76.84673886086827,134.1024519363401A154.56030825826173,154.56030825826173,0,0,0,-53.33230652987993,145.06741180944744Z"/><path d="M-77.71276065621802,133.60245401967083A154.56030825826173,154.56030825826173,0,0,1,-98.96591062330015,118.72083820201848A154.56030825826173,154.56030825826173,0,0,0,-77.71276065621802,133.60245401967083Z"/><path d="M-120.63714154343073,142.99188816233686A187.08286933869707,187.08286933869707,0,0,1,-142.99188816233686,120.63714154343076A187.08286933869707,187.08286933869707,0,0,0,-120.63714154343073,142.99188816233686Z"/><path d="M-149.21317638207034,124.55202034391472A194.36506316151002,194.36506316151002,0,0,1,-168.07452639342694,97.61522092073047A194.36506316151002,194.36506316151002,0,0,0,-149.21317638207034,124.55202034391472Z"/><path d="M-180.52704270368366,103.64998883741237A208.16659994661327,208.16659994661327,0,0,1,-195.44104424152442,71.66680932702273A208.16659994661327,208.16659994661327,0,0,0,-180.52704270368366,103.64998883741237Z"/><path d="M-201.95533733875945,72.97364477329461A214.7349787787521,214.7349787787521,0,0,1,-211.38527495186892,37.780638488965366A214.7349787787521,214.7349787787521,0,0,0,-201.95533733875945,72.97364477329461Z"/><path d="M-176.8645397303205,30.678279094566346A179.50549357115014,179.50549357115014,0,0,1,-179.50479721808426,0.4999979166692845A179.50549357115014,179.50549357115014,0,0,0,-176.8645397303205,30.678279094566346Z"/><path d="M-124.72091066713264,-0.49999791666924276A124.72191289246472,124.72191289246472,0,0,1,-122.91294351480212,-21.165157029481723A124.72191289246472,124.72191289246472,0,0,0,-124.72091066713264,-0.49999791666924276Z"/><path d="M-160.73085508216218,-28.848897573800855A163.29931618554522,163.29931618554522,0,0,1,-153.62145246004806,-55.38154937099416A163.29931618554522,163.29931618554522,0,0,0,-160.73085508216218,-28.848897573800855Z"/><path d="M-127.06310546420254,-46.779274931600575A135.400640077266,135.400640077266,0,0,1,-117.50959345517101,-67.26684755013987A135.400640077266,135.400640077266,0,0,0,-127.06310546420254,-46.779274931600575Z"/><path d="M-107.76147806253182,-62.79346623124121A124.72191289246472,124.72191289246472,0,0,1,-95.86315302299953,-79.78603542001905A124.72191289246472,124.72191289246472,0,0,0,-107.76147806253182,-62.79346623124121Z"/><path d="M-124.77255488624714,-105.34930571116791A163.29931618554522,163.29931618554522,0,0,1,-105.34930571116796,-124.77255488624711A163.29931618554522,163.29931618554522,0,0,0,-124.77255488624714,-105.34930571116791Z"/><path d="M-86.6502397499404,-104.04359319348394A135.400640077266,135.400640077266,0,0,1,-68.13286934548975,-117.00959553850169A135.400640077266,135.400640077266,0,0,0,-86.6502397499404,-104.04359319348394Z"/><path d="M-67.26684755014001,-117.50959345517093A135.400640077266,135.400640077266,0,0,1,-46.779274931600725,-127.06310546420248A135.400640077266,135.400640077266,0,0,0,-67.26684755014001,-117.50959345517093Z"/><path d="M-55.38154937099434,-153.621452460048A163.29931618554522,163.29931618554522,0,0,1,-28.848897573801047,-160.73085508216215A163.29931618554522,163.29931618554522,0,0,0,-55.38154937099434,-153.621452460048Z"/><path d="M-24.737944057557915,-143.17522563249636A145.29663145135578,145.29663145135578,0,0,1,-0.4999979166692806,-145.29577114697605A145.29663145135578,145.29663145135578,0,0,0,-24.737944057557915,-143.17522563249636Z"/></g><g fill="#d0743c"><path d="M0.4999979166692911,-163.29855072458543A163.29931618554522,163.29931618554522,0,0,1,27.8640939241492,-160.90450253629595A163.29931618554522,163.29931618554522,0,0,0,0.4999979166692911,-163.29855072458543Z"/><path d="M25.722747707209624,-143.0015781783626A145.29663145135578,145.29663145135578,0,0,1,49.224236119599865,-136.70437333733324A145.29663145135578,145.29663145135578,0,0,0,25.722747707209624,-143.0015781783626Z"/><path d="M50.16392482500478,-136.3623546190897A145.29663145135578,145.29663145135578,0,0,1,72.2148746758131,-126.07982783406597A145.29663145135578,145.29663145135578,0,0,0,50.16392482500478,-136.3623546190897Z"/><path d="M77.71276065621804,-133.60245401967083A154.56030825826173,154.56030825826173,0,0,1,98.9659106233002,-118.72083820201846A154.56030825826173,154.56030825826173,0,0,0,77.71276065621804,-133.60245401967083Z"/><path d="M120.63714154343076,-142.99188816233686A187.08286933869707,187.08286933869707,0,0,1,142.99188816233686,-120.63714154343076A187.08286933869707,187.08286933869707,0,0,0,120.63714154343076,-142.99188816233686Z"/><path d="M111.62441056153183,-93.01130080749161A145.29663145135578,145.29663145135578,0,0,1,125.57982991739668,-73.08089647116292A145.29663145135578,145.29663145135578,0,0,0,111.62441056153183,-93.01130080749161Z"/><path d="M108.26147597920108,-61.927444435891445A124.72191289246472,124.72191289246472,0,0,1,117.02831005248127,-43.126908094783076A124.72191289246472,124.72191289246472,0,0,0,108.26147597920108,-61.927444435891445Z"/><path d="M127.40512418244602,-45.839586226195784A135.400640077266,135.400640077266,0,0,1,133.25586722740726,-24.004315920370217A135.400640077266,135.400640077266,0,0,0,127.40512418244602,-45.839586226195784Z"/><path d="M152.29821715318013,-26.346573607428997A154.56030825826173,154.56030825826173,0,0,1,154.55949951708635,-0.49999791666927085A154.56030825826173,154.56030825826173,0,0,0,152.29821715318013,-26.346573607428997Z"/><path d="M163.29855072458543,0.49999791666927085A163.29931618554522,163.29931618554522,0,0,1,160.90450253629595,27.8640939241492A163.29931618554522,163.29931618554522,0,0,0,163.29855072458543,0.49999791666927085Z"/><path d="M211.38527495186895,37.780638488965174A214.7349787787521,214.7349787787521,0,0,1,201.95533733875948,72.97364477329451A214.7349787787521,214.7349787787521,0,0,0,211.38527495186895,37.780638488965174Z"/><path d="M195.44104424152445,71.66680932702259A208.16659994661327,208.16659994661327,0,0,1,180.5270427036837,103.64998883741231A208.16659994661327,208.16659994661327,0,0,0,195.44104424152445,71.66680932702259Z"/><path d="M206.91293008117566,120.03858374474744A239.21166824012207,239.21166824012207,0,0,1,183.5677613568283,153.37893992548246A239.21166824012207,239.21166824012207,0,0,0,206.91293008117566,120.03858374474744Z"/><path d="M169.056973837384,142.50834531996702A221.10831935702666,221.10831935702666,0,0,1,142.50834531996702,169.05697383738396A221.10831935702666,221.10831935702666,0,0,0,169.056973837384,142.50834531996702Z"/><path d="M98.9659106233002,118.72083820201846A154.56030825826173,154.56030825826173,0,0,1,77.7127606562181,133.6024540196708A154.56030825826173,154.56030825826173,0,0,0,98.9659106233002,118.72083820201846Z"/><path d="M132.90008806240556,231.18970068780305A266.6666666666667,266.6666666666667,0,0,1,91.67505558546706,250.41324903948802A266.6666666666667,266.6666666666667,0,0,0,132.90008806240556,231.18970068780305Z"/><path d="M81.34518598270654,224.9559577776528A239.21166824012207,239.21166824012207,0,0,1,42.03098135223279,235.49016715946016A239.21166824012207,239.21166824012207,0,0,0,81.34518598270654,224.9559577776528Z"/><path d="M37.90255673003299,217.835454144213A221.10831935702666,221.10831935702666,0,0,1,0.49999791666940313,221.10775402724394A221.10831935702666,221.10831935702666,0,0,0,37.90255673003299,217.835454144213Z"/><path d="M-0.49999791666927546,194.36442004611106A194.36506316151002,194.36506316151002,0,0,1,-33.25862551947106,191.49841149819852A194.36506316151002,194.36506316151002,0,0,0,-0.49999791666927546,194.36442004611106Z"/><path d="M-27.331377257080643,152.1245696990464A154.56030825826173,154.56030825826173,0,0,1,-52.392617824475,145.409430527691A154.56030825826173,154.56030825826173,0,0,0,-27.331377257080643,152.1245696990464Z"/><path d="M-53.33230652987993,145.06741180944744A154.56030825826173,154.56030825826173,0,0,1,-76.84673886086827,134.1024519363401A154.56030825826173,154.56030825826173,0,0,0,-53.33230652987993,145.06741180944744Z"/><path d="M-77.71276065621802,133.60245401967083A154.56030825826173,154.56030825826173,0,0,1,-98.96591062330015,118.72083820201848A154.56030825826173,154.56030825826173,0,0,0,-77.71276065621802,133.60245401967083Z"/><path d="M-120.63714154343073,142.99188816233686A187.08286933869707,187.08286933869707,0,0,1,-142.99188816233686,120.63714154343076A187.08286933869707,187.08286933869707,0,0,0,-120.63714154343073,142.99188816233686Z"/><path d="M-149.21317638207034,124.55202034391472A194.36506316151002,194.36506316151002,0,0,1,-168.07452639342694,97.61522092073047A194.36506316151002,194.36506316151002,0,0,0,-149.21317638207034,124.55202034391472Z"/><path d="M-180.52704270368366,103.64998883741237A208.16659994661327,208.16659994661327,0,0,1,-195.44104424152442,71.66680932702273A208.16659994661327,208.16659994661327,0,0,0,-180.52704270368366,103.64998883741237Z"/><path d="M-201.95533733875945,72.97364477329461A214.7349787787521,214.7349787787521,0,0,1,-211.38527495186892,37.780638488965366A214.7349787787521,214.7349787787521,0,0,0,-201.95533733875945,72.97364477329461Z"/><path d="M-176.8645397303205,30.678279094566346A179.50549357115014,179.50549357115014,0,0,1,-179.50479721808426,0.4999979166692845A179.50549357115014,179.50549357115014,0,0,0,-176.8645397303205,30.678279094566346Z"/><path d="M-124.72091066713264,-0.49999791666924276A124.72191289246472,124.72191289246472,0,0,1,-122.91294351480212,-21.165157029481723A124.72191289246472,124.72191289246472,0,0,0,-124.72091066713264,-0.49999791666924276Z"/><path d="M-160.73085508216218,-28.848897573800855A163.29931618554522,163.29931618554522,0,0,1,-153.62145246004806,-55.38154937099416A163.29931618554522,163.29931618554522,0,0,0,-160.73085508216218,-28.848897573800855Z"/><path d="M-127.06310546420254,-46.779274931600575A135.400640077266,135.400640077266,0,0,1,-117.50959345517101,-67.26684755013987A135.400640077266,135.400640077266,0,0,0,-127.06310546420254,-46.779274931600575Z"/><path d="M-107.76147806253182,-62.79346623124121A124.72191289246472,124.72191289246472,0,0,1,-95.86315302299953,-79.78603542001905A124.72191289246472,124.72191289246472,0,0,0,-107.76147806253182,-62.79346623124121Z"/><path d="M-124.77255488624714,-105.34930571116791A163.29931618554522,163.29931618554522,0,0,1,-105.34930571116796,-124.77255488624711A163.29931618554522,163.29931618554522,0,0,0,-124.77255488624714,-105.34930571116791Z"/><path d="M-86.6502397499404,-104.04359319348394A135.400640077266,135.400640077266,0,0,1,-68.13286934548975,-117.00959553850169A135.400640077266,135.400640077266,0,0,0,-86.6502397499404,-104.04359319348394Z"/><path d="M-67.26684755014001,-117.50959345517093A135.400640077266,135.400640077266,0,0,1,-46.779274931600725,-127.06310546420248A135.400640077266,135.400640077266,0,0,0,-67.26684755014001,-117.50959345517093Z"/><path d="M-55.38154937099434,-153.621452460048A163.29931618554522,163.29931618554522,0,0,1,-28.848897573801047,-160.73085508216215A163.29931618554522,163.29931618554522,0,0,0,-55.38154937099434,-153.621452460048Z"/><path d="M-24.737944057557915,-143.17522563249636A145.29663145135578,145.29663145135578,0,0,1,-0.4999979166692806,-145.29577114697605A145.29663145135578,145.29663145135578,0,0,0,-24.737944057557915,-143.17522563249636Z"/></g></g><g text-anchor="middle"><g transform="&#10;          rotate(-85)&#10;          translate(100,0)&#10;        "><line x2="-5" stroke="#000"/><text transform="rotate(90)translate(0,16)"/></g><g transform="&#10;          rotate(-75)&#10;          translate(100,0)&#10;        "><line x2="-5" stroke="#000"/><text transform="rotate(90)translate(0,16)"/></g><g transform="&#10;          rotate(-65)&#10;          translate(100,0)&#10;        "><line x2="-5" stroke="#000"/><text transform="rotate(90)translate(0,16)"/></g><g transform="&#10;          rotate(-55)&#10;          translate(100,0)&#10;        "><line x2="-5" stroke="#000"/><text transform="rotate(90)translate(0,16)"/></g><g transform="&#10;          rotate(-45)&#10;          translate(100,0)&#10;        "><line x2="-5" stroke="#000"/><text transform="rotate(90)translate(0,16)"/></g><g transform="&#10;          rotate(-35)&#10;          translate(100,0)&#10;        "><line x2="-5" stroke="#000"/><text transform="rotate(90)translate(0,16)"/></g><g transform="&#10;          rotate(-25.000000000000014)&#10;          translate(100,0)&#10;        "><line x2="-5" stroke="#000"/><text transform="rotate(90)translate(0,16)"/></g><g transform="&#10;          rotate(-15.000000000000014)&#10;          translate(100,0)&#10;        "><line x2="-5" stroke="#000"/><text transform="rotate(90)translate(0,16)"/></g><g transform="&#10;          rotate(-5)&#10;          translate(100,0)&#10;        "><line x2="-5" stroke="#000"/><text transform="rotate(90)translate(0,16)"/></g><g transform="&#10;          rotate(5)&#10;          translate(100,0)&#10;        "><line x2="-5" stroke="#000"/><text transform="rotate(-90)translate(0,-9)"/></g><g transform="&#10;          rotate(14.999999999999986)&#10;          translate(100,0)&#10;        "><line x2="-5" stroke="#000"/><text transform="rotate(-90)translate(0,-9)"/></g><g transform="&#10;          rotate(24.999999999999986)&#10;          translate(100,0)&#10;        "><line x2="-5" stroke="#000"/><text transform="rotate(-90)translate(0,-9)"/></g><g transform="&#10;          rotate(34.999999999999986)&#10;          translate(100,0)&#10;        "><line x2="-5" stroke="#000"/><text transform="rotate(-90)translate(0,-9)"/></g><g transform="&#10;          rotate(45)&#10;          translate(100,0)&#10;        "><line x2="-5" stroke="#000"/><text transform="rotate(-90)translate(0,-9)"/></g><g transform="&#10;          rotate(55)&#10;          translate(100,0)&#10;        "><line x2="-5" stroke="#000"/><text transform="rotate(-90)translate(0,-9)"/></g><g transform="&#10;          rotate(65)&#10;          translate(100,0)&#10;        "><line x2="-5" stroke="#000"/><text transform="rotate(-90)translate(0,-9)"/></g><g transform="&#10;          rotate(74.99999999999997)&#10;          translate(100,0)&#10;        "><line x2="-5" stroke="#000"/><text transform="rotate(-90)translate(0,-9)"/></g><g transform="&#10;          rotate(84.99999999999997)&#10;          translate(100,0)&#10;        "><line x2="-5" stroke="#000"/><text transform="rotate(-90)translate(0,-9)"/></g><g transform="&#10;          rotate(95)&#10;          translate(100,0)&#10;        "><line x2="-5" stroke="#000"/><text transform="rotate(-90)translate(0,-9)"/></g><g transform="&#10;          rotate(105)&#10;          translate(100,0)&#10;        "><line x2="-5" stroke="#000"/><text transform="rotate(-90)translate(0,-9)"/></g><g transform="&#10;          rotate(115)&#10;          translate(100,0)&#10;        "><line x2="-5" stroke="#000"/><text transform="rotate(-90)translate(0,-9)"/></g><g transform="&#10;          rotate(125)&#10;          translate(100,0)&#10;        "><line x2="-5" stroke="#000"/><text transform="rotate(-90)translate(0,-9)"/></g><g transform="&#10;          rotate(135)&#10;          translate(100,0)&#10;        "><line x2="-5" stroke="#000"/><text transform="rotate(-90)translate(0,-9)"/></g><g transform="&#10;          rotate(145)&#10;          translate(100,0)&#10;        "><line x2="-5" stroke="#000"/><text transform="rotate(-90)translate(0,-9)"/></g><g transform="&#10;          rotate(154.99999999999997)&#10;          translate(100,0)&#10;        "><line x2="-5" stroke="#000"/><text transform="rotate(-90)translate(0,-9)"/></g><g transform="&#10;          rotate(164.99999999999997)&#10;          translate(100,0)&#10;        "><line x2="-5" stroke="#000"/><text transform="rotate(-90)translate(0,-9)"/></g><g transform="&#10;          rotate(175)&#10;          translate(100,0)&#10;        "><line x2="-5" stroke="#000"/><text transform="rotate(-90)translate(0,-9)"/></g><g transform="&#10;          rotate(185)&#10;          translate(100,0)&#10;        "><line x2="-5" stroke="#000"/><text transform="rotate(90)translate(0,16)"/></g><g transform="&#10;          rotate(195)&#10;          translate(100,0)&#10;        "><line x2="-5" stroke="#000"/><text transform="rotate(90)translate(0,16)"/></g><g transform="&#10;          rotate(205)&#10;          translate(100,0)&#10;        "><line x2="-5" stroke="#000"/><text transform="rotate(90)translate(0,16)"/></g><g transform="&#10;          rotate(215)&#10;          translate(100,0)&#10;        "><line x2="-5" stroke="#000"/><text transform="rotate(90)translate(0,16)"/></g><g transform="&#10;          rotate(225)&#10;          translate(100,0)&#10;        "><line x2="-5" stroke="#000"/><text transform="rotate(90)translate(0,16)"/></g><g transform="&#10;          rotate(235)&#10;          translate(100,0)&#10;        "><line x2="-5" stroke="#000"/><text transform="rotate(90)translate(0,16)"/></g><g transform="&#10;          rotate(245)&#10;          translate(100,0)&#10;        "><line x2="-5" stroke="#000"/><text transform="rotate(90)translate(0,16)"/></g><g transform="&#10;          rotate(254.99999999999994)&#10;          translate(100,0)&#10;        "><line x2="-5" stroke="#000"/><text transform="rotate(90)translate(0,16)"/></g><g transform="&#10;          rotate(265)&#10;          translate(100,0)&#10;        "><line x2="-5" stroke="#000"/><text transform="rotate(90)translate(0,16)"/></g></g><g text-anchor="middle"><text y="-145.29663145135578" dy="-1em">Speed</text><g fill="none"><circle stroke="#000" stroke-opacity="0.5" r="113.0388330520878"/><text y="-113.0388330520878" dy="0.35em" stroke="#fff" stroke-width="5">2</text><text y="-113.0388330520878" dy="0.35em" stroke="none" stroke-width="5" fill="#000">2</text></g><g fill="none"><circle stroke="#000" stroke-opacity="0.5" r="124.72191289246472"/><text y="-124.72191289246472" dy="0.35em" stroke="#fff" stroke-width="5">4</text><text y="-124.72191289246472" dy="0.35em" stroke="none" stroke-width="5" fill="#000">4</text></g><g fill="none"><circle stroke="#000" stroke-opacity="0.5" r="135.400640077266"/><text y="-135.400640077266" dy="0.35em" stroke="#fff" stroke-width="5">6</text><text y="-135.400640077266" dy="0.35em" stroke="none" stroke-width="5" fill="#000">6</text></g><g fill="none"><circle stroke="#000" stroke-opacity="0.5" r="145.29663145135578"/><text y="-145.29663145135578" dy="0.35em" stroke="#fff" stroke-width="5">8</text><text y="-145.29663145135578" dy="0.35em" stroke="none" stroke-width="5" fill="#000">8</text></g></g><g><g><g transform="translate(-40,-60)"><rect width="18" height="18" fill="#d0743c"/><text x="24" y="9" dy="0.35em">&gt;20</text></g><g transform="translate(-40,-40)"><rect width="18" height="18" fill="#a05d56"/><text x="24" y="9" dy="0.35em">15_20</text></g><g transform="translate(-40,-20)"><rect width="18" height="18" fill="#6b486b"/><text x="24" y="9" dy="0.35em">10-15</text></g><g transform="translate(-40,0)"><rect width="18" height="18" fill="#7b6888"/><text x="24" y="9" dy="0.35em">7-10</text></g><g transform="translate(-40,20)"><rect width="18" height="18" fill="#8a89a6"/><text x="24" y="9" dy="0.35em">5-7</text></g><g transform="translate(-40,40)"><rect width="18" height="18" fill="#98abc5"/><text x="24" y="9" dy="0.35em">&lt;5</text></g></g></g></svg>