<svg xmlns="http://www.w3.org/2000/svg" xml:space="preserve" width="1344" height="896" style="enable-background:new 0 0 1344 896"><defs xmlns:dbi="http://www.datylon.com/dbi" dbi:type="fonts" id="datylon_font_defs"><style>@font-face{font-family:&quot;PTSans-Bold&quot;;src:url(https://s3-eu-west-1.amazonaws.com/fonts.insights.datylon.com/PTSans-Bold.ttf)format(&quot;truetype&quot;)}</style></defs><g id="Labels"><path d="M0 0h1344v896H0z" style="fill:#e5e5e5"/><path d="M64 768h288v32H64z" style="fill:none"/><text style="font-family:&quot;PTSans-Bold&quot;;font-size:36px" transform="translate(156.088 793.2)">Winter</text><path d="M352 768h288v32H352z" style="fill:none"/><text style="font-family:&quot;PTSans-Bold&quot;;font-size:36px" transform="translate(446.123 793.2)">Spring</text><path d="M640 768h288v32H640z" style="fill:none"/><text style="font-family:&quot;PTSans-Bold&quot;;font-size:36px" transform="translate(720.335 793.2)">Summer</text><path d="M928 768h288v32H928z" style="fill:none"/><text style="font-family:&quot;PTSans-Bold&quot;;font-size:36px" transform="translate(1011.16 793.2)">Autumn</text><path d="M128 96h616v56H128z" style="fill:none"/><text style="font-family:&quot;PTSans-Bold&quot;;font-size:48px" transform="translate(128 129.6)">Seasonal water consumption</text></g><g id="Charts"><g id="Winter"><defs><clipPath id="clip1ixoy6wq4gci"><path d="M0 0h287.5v576H0z"/></clipPath></defs><g xmlns:ns9605567="http://www.datylon.com/dbi" ns9605567:type="visualization" clip-path="url(#clip1ixoy6wq4gci)" transform="translate(64.5 192)"><g class="chart-group"><g class="benchmark" transform="translate(100 20)"><defs><clipPath id="ranges_rounding_20hpbj5wrwxi"><path d="M0 0h87.5v536H0V0z"/></clipPath></defs><path fill="#08306B" fill-opacity=".94" d="M0 268h87.5v268H0z" class="percentile" clip-path="url(#ranges_rounding_20hpbj5wrwxi)"/><path fill="#2271B4" fill-opacity=".94" d="M0 178.667h87.5V268H0z" class="percentile" clip-path="url(#ranges_rounding_20hpbj5wrwxi)"/><path fill="#6DAED5" fill-opacity=".94" d="M0 89.333h87.5v89.333H0z" class="percentile" clip-path="url(#ranges_rounding_20hpbj5wrwxi)"/><path fill="#C3DBEE" fill-opacity=".94" d="M0 0h87.5v89.333H0z" class="percentile" clip-path="url(#ranges_rounding_20hpbj5wrwxi)"/></g><g class="bencmark-bar-labels"><g class="label_ecmrxc3f65r" transform="translate(192.5 556)"><text id="gtext" dy=".32em" letter-spacing="0" opacity="1" style="font-size:12px;font-family:PTSans-Bold">0 litres</text></g><text class="label_50zddj30cvc" dy=".32em" letter-spacing="0" style="font-size:12px;font-family:PTSans-Bold" transform="translate(192.5 288)">15000 litres</text><text class="label_jud554n3cs" dy=".32em" letter-spacing="0" style="font-size:12px;font-family:PTSans-Bold" transform="translate(192.5 198.667)">20000 litres</text><text class="label_7u7z54u4u3k" dy=".32em" letter-spacing="0" style="font-size:12px;font-family:PTSans-Bold" transform="translate(192.5 109.333)">25000 litres</text><text class="label_x2033yxqs8r" dy=".32em" letter-spacing="0" style="font-size:12px;font-family:PTSans-Bold" transform="translate(192.5 20)">30000 litres</text></g><g class="bar" transform="translate(100 20)"><defs><clipPath id="bars_rounding_mqgq0lqjida"><path d="M30.625 160.8V536h26.25V160.8z"/></clipPath></defs><path fill="#FFF" d="M30.625 160.8h26.25V536h-26.25z" class="bar" clip-path="url(#bars_rounding_mqgq0lqjida)"/></g><g class="barvalue-labels"><text class="label_847nkxi6b12" dy=".32em" letter-spacing="0" style="font-size:12px;font-family:PTSans-Bold" text-anchor="end" transform="translate(93.75 556)">21000 litres</text></g><path stroke="#E5E5E5" stroke-width="3" d="M100 257.627h87.5"/><g class="target-labels"><text class="target_label_8qe2mzaz25" dy=".32em" letter-spacing="0" style="font-size:12px;font-family:PTSans-Bold" text-anchor="end" transform="translate(93.75 257.627)">16700 litres</text></g></g></g></g><g id="Spring"><defs><clipPath id="clipaqetyppe7da"><path d="M0 0h286.5v576H0z"/></clipPath></defs><g xmlns:ns9605567="http://www.datylon.com/dbi" ns9605567:type="visualization" clip-path="url(#clipaqetyppe7da)" transform="translate(353.5 191.5)"><g class="chart-group"><g class="benchmark" transform="translate(100 20)"><defs><clipPath id="ranges_rounding_1lc99bkehfs"><path d="M0 0h86.5v536H0V0z"/></clipPath></defs><path fill="#014636" d="M0 268h86.5v268H0z" class="percentile" clip-path="url(#ranges_rounding_1lc99bkehfs)"/><path fill="#0B808B" d="M0 178.667h86.5V268H0z" class="percentile" clip-path="url(#ranges_rounding_1lc99bkehfs)"/><path fill="#69A8CF" d="M0 89.333h86.5v89.333H0z" class="percentile" clip-path="url(#ranges_rounding_1lc99bkehfs)"/><path fill="#CED1E6" d="M0 0h86.5v89.333H0z" class="percentile" clip-path="url(#ranges_rounding_1lc99bkehfs)"/></g><g class="bencmark-bar-labels"><text class="label_04b3e6u69f0l" dy=".32em" letter-spacing="0" style="font-size:12px;font-family:PTSans-Bold" transform="translate(191.5 556)">0 litres</text><text class="label_g4s0fuhlswf" dy=".32em" letter-spacing="0" style="font-size:12px;font-family:PTSans-Bold" transform="translate(191.5 288)">15000 litres</text><text class="label_vaxu0kmmabg" dy=".32em" letter-spacing="0" style="font-size:12px;font-family:PTSans-Bold" transform="translate(191.5 198.667)">20000 litres</text><text class="label_3mjd4p2yy88" dy=".32em" letter-spacing="0" style="font-size:12px;font-family:PTSans-Bold" transform="translate(191.5 109.333)">25000 litres</text><text class="label_6v6yq4raopl" dy=".32em" letter-spacing="0" style="font-size:12px;font-family:PTSans-Bold" transform="translate(191.5 20)">30000 litres</text></g><g class="bar" transform="translate(100 20)"><defs><clipPath id="bars_rounding_0qe2rms5m7jr"><path d="M30.275 132.213V536h25.95V132.213z"/></clipPath></defs><path fill="#FFF" d="M30.275 132.213h25.95V536h-25.95z" class="bar" clip-path="url(#bars_rounding_0qe2rms5m7jr)"/></g><g class="barvalue-labels"><text class="label_vdq1k5h68dg" dy=".32em" letter-spacing="0" style="font-size:12px;font-family:PTSans-Bold" text-anchor="end" transform="translate(93.25 556)">22600 litres</text></g><path stroke="#E5E5E5" stroke-width="3" d="M100 248.693h86.5"/><g class="target-labels"><text class="target_label_sq1qawx2gl" dy=".32em" letter-spacing="0" style="font-size:12px;font-family:PTSans-Bold" text-anchor="end" transform="translate(93.25 248.693)">17200 litres</text></g></g></g></g><g id="Summer"><defs><clipPath id="clipkmb8163fi3m"><path d="M0 0h286v576H0z"/></clipPath></defs><g xmlns:ns9605567="http://www.datylon.com/dbi" ns9605567:type="visualization" clip-path="url(#clipkmb8163fi3m)" transform="translate(640.5 192)"><g class="chart-group"><g class="benchmark" transform="translate(100 20)"><defs><clipPath id="ranges_rounding_vuwggpn62gg"><path d="M0 0h86v536H0V0z"/></clipPath></defs><path fill="#662506" d="M0 268h86v268H0z" class="percentile" clip-path="url(#ranges_rounding_vuwggpn62gg)"/><path fill="#C94E05" d="M0 178.667h86V268H0z" class="percentile" clip-path="url(#ranges_rounding_vuwggpn62gg)"/><path fill="#FB992C" d="M0 89.333h86v89.333H0z" class="percentile" clip-path="url(#ranges_rounding_vuwggpn62gg)"/><path fill="#FEE18D" d="M0 0h86v89.333H0z" class="percentile" clip-path="url(#ranges_rounding_vuwggpn62gg)"/></g><g class="bencmark-bar-labels"><text class="label_gd3zndlhzx" dy=".32em" letter-spacing="0" style="font-size:12px;font-family:PTSans-Bold" transform="translate(191 556)">0 litres</text><text class="label_ta1pooy03uo" dy=".32em" letter-spacing="0" style="font-size:12px;font-family:PTSans-Bold" transform="translate(191 288)">15000 litres</text><text class="label_wfftubfvryj" dy=".32em" letter-spacing="0" style="font-size:12px;font-family:PTSans-Bold" transform="translate(191 198.667)">20000 litres</text><text class="label_uqwitgezsyc" dy=".32em" letter-spacing="0" style="font-size:12px;font-family:PTSans-Bold" transform="translate(191 109.333)">25000 litres</text><text class="label_icgwwxr0z5a" dy=".32em" letter-spacing="0" style="font-size:12px;font-family:PTSans-Bold" transform="translate(191 20)">30000 litres</text></g><g class="bar" transform="translate(100 20)"><defs><clipPath id="bars_rounding_3zmi8i8tfmk"><path d="M30.1 67.893V536h25.8V67.893z"/></clipPath></defs><path fill="#FFF" d="M30.1 67.893h25.8V536H30.1z" class="bar" clip-path="url(#bars_rounding_3zmi8i8tfmk)"/></g><g class="barvalue-labels"><text class="label_mblb811smw" dy=".32em" letter-spacing="0" style="font-size:12px;font-family:PTSans-Bold" text-anchor="end" transform="translate(93 556)">26200 litres</text></g><path stroke="#E5E5E5" stroke-width="3" d="M100 202.24h86"/><g class="target-labels"><text class="target_label_wpr5pz9fr4e" dy=".32em" letter-spacing="0" style="font-size:12px;font-family:PTSans-Bold" text-anchor="end" transform="translate(93 202.24)">19800 litres</text></g></g></g></g><g id="Autumn"><defs><clipPath id="clipcilmtfwo22a"><path d="M0 0h288v576H0z"/></clipPath></defs><g xmlns:ns9605567="http://www.datylon.com/dbi" ns9605567:type="visualization" clip-path="url(#clipcilmtfwo22a)" transform="translate(928 192)"><g class="chart-group"><g class="benchmark" transform="translate(100 20)"><defs><clipPath id="ranges_rounding_9vqlg63lpzm"><path d="M0 0h88v536H0V0z"/></clipPath></defs><path fill="#67000D" d="M0 268h88v268H0z" class="percentile" clip-path="url(#ranges_rounding_9vqlg63lpzm)"/><path fill="#CB1C1E" d="M0 178.667h88V268H0z" class="percentile" clip-path="url(#ranges_rounding_9vqlg63lpzm)"/><path fill="#F9694C" d="M0 89.333h88v89.333H0z" class="percentile" clip-path="url(#ranges_rounding_9vqlg63lpzm)"/><path fill="#FCBAA1" d="M0 0h88v89.333H0z" class="percentile" clip-path="url(#ranges_rounding_9vqlg63lpzm)"/></g><g class="bencmark-bar-labels"><text class="label_hpja5ogow4s" dy=".32em" letter-spacing="0" style="font-size:12px;font-family:PTSans-Bold" transform="translate(193 556)">0 litres</text><text class="label_ekf358lb6v" dy=".32em" letter-spacing="0" style="font-size:12px;font-family:PTSans-Bold" transform="translate(193 288)">15000 litres</text><text class="label_zr5uiotrqnj" dy=".32em" letter-spacing="0" style="font-size:12px;font-family:PTSans-Bold" transform="translate(193 198.667)">20000 litres</text><text class="label_nuy4jbtze7b" dy=".32em" letter-spacing="0" style="font-size:12px;font-family:PTSans-Bold" transform="translate(193 109.333)">25000 litres</text><text class="label_taxq7ps0nqa" dy=".32em" letter-spacing="0" style="font-size:12px;font-family:PTSans-Bold" transform="translate(193 20)">30000 litres</text></g><g class="bar" transform="translate(100 20)"><defs><clipPath id="bars_rounding_p80fladswqk"><path d="M30.8 112.56V536h26.4V112.56z"/></clipPath></defs><path fill="#FFF" d="M30.8 112.56h26.4V536H30.8z" class="bar" clip-path="url(#bars_rounding_p80fladswqk)"/></g><g class="barvalue-labels"><text class="label_9d7jc3z7hr6" dy=".32em" letter-spacing="0" style="font-size:12px;font-family:PTSans-Bold" text-anchor="end" transform="translate(94 556)">23700 litres</text></g><path stroke="#E5E5E5" stroke-width="3" d="M100 227.253h88"/><g class="target-labels"><text class="target_label_kwu6mwmsk3" dy=".32em" letter-spacing="0" style="font-size:12px;font-family:PTSans-Bold" text-anchor="end" transform="translate(94 227.253)">18400 litres</text></g></g></g></g></g></svg>