<svg xmlns="http://www.w3.org/2000/svg" xml:space="preserve" width="1017" height="604" style="height: 100%; width: 100%;" id="vis" viewBox="-15,-15,998.135009765625,596.1820068359375"><defs xmlns:dbi="http://www.datylon.com/dbi" dbi:type="fonts" id="defs0"><style id="style0">@font-face{font-family:"PTSans-BoldItalic";src:url(https://s3-eu-west-1.amazonaws.com/fonts.insights.datylon.com/PTSans-BoldItalic.ttf)format("truetype")}@font-face{font-family:"PTSans-Bold";src:url(https://s3-eu-west-1.amazonaws.com/fonts.insights.datylon.com/PTSans-Bold.ttf)format("truetype")}@font-face{font-family:"PTSans-Regular";src:url(https://s3-eu-west-1.amazonaws.com/fonts.insights.datylon.com/PTSans-Regular.ttf)format("truetype")}</style></defs><g id="g0"><g id="g1"><defs id="defs1"><clipPath id="clipPath0"><path d="M0 0h285v42H0z" id="path0" class="mark"></path></clipPath></defs><g xmlns:ns9605567="http://www.datylon.com/dbi" ns9605567:type="visualization" clip-path="url(#clipp2cqyeg72pj)" transform="translate(120, -10)" id="g2"><path fill-opacity="0" d="M0 0h285v42H0z" class="background mark" id="path1"></path><path fill="none" stroke="#000" stroke-width="0" d="M0 0h285v42H0z" id="path2" class="mark"></path><text x="137.5" y="20" data-lastline="true" font-family="PTSans-BoldItalic" style="white-space: pre; pointer-events: auto; cursor: pointer;" text-anchor="middle" transform="translate(5 5)" id="text0"><tspan fill="#333" font-size="20" letter-spacing="0" id="tspan0">Some</tspan><tspan fill="#333" dx="5.047" font-size="20" letter-spacing="0" id="tspan1">2019</tspan><tspan fill="#333" dx="5.047" font-size="20" letter-spacing="0" id="tspan2">Runkeeper</tspan><tspan fill="#333" dx="5.047" font-size="20" letter-spacing="0" id="tspan3">Results</tspan></text></g></g><g id="g3"><defs id="defs2"><clipPath id="clipPath1"><path d="M0 0h188v27H0z" id="path3" class="mark"></path></clipPath></defs><g xmlns:ns9605567="http://www.datylon.com/dbi" ns9605567:type="visualization" clip-path="url(#clip2i2fjg30k6j)" transform="translate(51 106)" id="g4"><path fill-opacity="0" d="M0 0h188v27H0z" class="background mark" id="path4"></path><path fill="none" stroke="#000" stroke-width="0" d="M0 0h188v27H0z" id="path5" class="mark"></path><text y="11" data-lastline="true" font-family="PTSans-Bold" style="white-space: pre; pointer-events: auto; cursor: pointer;" transform="translate(5 5)" id="text1"><tspan font-size="11" letter-spacing="1.2" id="tspan4">TOTAL</tspan><tspan dx="3.969" font-size="11" letter-spacing="1.2" id="tspan5">RUNNING</tspan><tspan dx="3.969" font-size="11" letter-spacing="1.2" id="tspan6">DISTANCE</tspan></text></g></g><g id="g5"><defs id="defs3"><clipPath id="clipPath2"><path d="M0 0h188v27H0z" id="path6" class="mark"></path></clipPath></defs><g xmlns:ns9605567="http://www.datylon.com/dbi" ns9605567:type="visualization" clip-path="url(#clipsmj11f6vmha)" transform="translate(51 442)" id="g6"><path fill-opacity="0" d="M0 0h188v27H0z" class="background mark" id="path7"></path><path fill="none" stroke="#000" stroke-width="0" d="M0 0h188v27H0z" id="path8" class="mark"></path><text y="11" data-lastline="true" font-family="PTSans-Bold" style="white-space: pre; pointer-events: auto; cursor: pointer;" transform="translate(5 5)" id="text2"><tspan font-size="11" letter-spacing="1.2" id="tspan7">AVERAGE</tspan><tspan dx="3.969" font-size="11" letter-spacing="1.2" id="tspan8">SPEED/RUN</tspan></text></g></g><g id="g7"><defs id="defs4"><clipPath id="clipPath3"><path d="M0 0h188v27H0z" id="path9" class="mark"></path></clipPath></defs><g xmlns:ns9605567="http://www.datylon.com/dbi" ns9605567:type="visualization" clip-path="url(#clipbcab1zfa19o)" transform="translate(51 274)" id="g8"><path fill-opacity="0" d="M0 0h188v27H0z" class="background mark" id="path10"></path><path fill="none" stroke="#000" stroke-width="0" d="M0 0h188v27H0z" id="path11" class="mark"></path><text y="11" data-lastline="true" font-family="PTSans-Bold" style="white-space: pre; pointer-events: auto; cursor: pointer;" transform="translate(5 5)" id="text3"><tspan font-size="11" letter-spacing="1.2" id="tspan9">AVERAGE</tspan><tspan dx="3.969" font-size="11" letter-spacing="1.2" id="tspan10">DISTANCE/RUN</tspan></text></g></g><g id="g79"><defs id="defs7"><clipPath id="clipPath6"><path d="M0 0h473v117.198H0z" id="path42" class="mark"></path></clipPath></defs><g xmlns:ns9605567="http://www.datylon.com/dbi" ns9605567:type="visualization" clip-path="url(#clip4t63ctnqy75)" transform="translate(24.275 458.384)" id="g80"><defs class="viz_defs" id="defs8"><linearGradient id="linear_gradient_e1igo84jjnb" gradientTransform="rotate(360 0 1)"><stop id="stop0" offset="0" stop-color="#7B23FF" stop-opacity=".17"></stop><stop id="stop1" offset="1" stop-color="#A10DFF" stop-opacity="1"></stop></linearGradient></defs><g class="chart-group" id="g81"><g class="benchmark" transform="translate(31 31)" id="g82"><defs id="defs9"><clipPath id="clipPath7"><path d="M0 0h411v55.198H0V0z" id="path43" class="mark"></path></clipPath></defs><path fill="#FFF" d="M0 0h298.909v55.198H0z" class="percentile mark" clip-path="url(#ranges_rounding_1q73r159oifj)" id="path44"></path><path fill="#F2F2F2" d="M298.909 0h74.727v55.198h-74.727z" class="percentile mark" clip-path="url(#ranges_rounding_1q73r159oifj)" id="path45"></path><path fill="#E2E2E2" d="M373.636 0H411v55.198h-37.364z" class="percentile mark" clip-path="url(#ranges_rounding_1q73r159oifj)" id="path46"></path><path fill="none" stroke="#646464" stroke-width="0" d="M0 0h411v55.198H0V0z" clip-path="url(#ranges_rounding_1q73r159oifj)" id="path47" class="mark"></path></g><g class="bencmark-bar-labels" id="g83"><text class="label_tvwrim142o" dy="0" letter-spacing="0" style="font-size: 9px; font-family: PTSans-BoldItalic; font-style: normal; font-weight: 400; font-stretch: normal; pointer-events: auto; cursor: pointer;" transform="translate(31 26)" id="text20">Bad</text><text class="label_zp2zbp1bf2" dy="0" letter-spacing="0" style="font-size: 9px; font-family: PTSans-BoldItalic; font-style: normal; font-weight: 400; font-stretch: normal; pointer-events: auto; cursor: pointer;" transform="translate(329.91 26)" id="text21">Acceptable</text><text class="label_nbptj77sfls" dy="0" letter-spacing="0" style="font-size: 9px; font-family: PTSans-BoldItalic; font-style: normal; font-weight: 400; font-stretch: normal; pointer-events: auto; cursor: pointer;" transform="translate(404.636 26)" id="text22">Good</text></g><g class="bar" transform="translate(31 31)" id="g84"><defs id="defs10"><clipPath id="clipPath8"><path d="M0 16.283h353.79a12 11.316 0 0 1 12 11.316 12 11.316 0 0 1-12 11.315H0V27.6z" id="path48" class="mark"></path></clipPath></defs><path fill="#7B23FF" d="M0 16.283h365.79v22.631H0z" class="bar mark" clip-path="url(#bars_rounding_seexislon1o)" style="fill:url(#linear_gradient_e1igo84jjnb)" id="path49"></path><path fill="none" stroke-opacity="0" stroke-width="0" d="M0 16.283h353.79a12 11.316 0 0 1 12 11.316 12 11.316 0 0 1-12 11.315H0V27.6z" clip-path="url(#bars_rounding_seexislon1o)" id="path50" class="mark"></path></g><path stroke-opacity="0" stroke-width="8.533" d="M32 9A23 23 0 1 1 9 32 23 23 0 0 1 32 9m0-9a32 32 0 1 0 32 32A32 32 0 0 0 32 0Z" class="datamark mark" style="fill-opacity:1" transform="matrix(.23438 0 0 .23438 415.818 51.099)" id="path51"></path><g fill="none" class="x-axis" font-family="sans-serif" font-size="10" text-anchor="middle" id="g85"><path stroke="#646464" stroke-width=".4" d="M.5.5h411" class="domain mark" transform="translate(30.5 85.698)" id="path52"></path><g class="tick" id="g86"><path stroke="#646464" stroke-width=".4" d="M0 0v7" transform="translate(31 86.198)" id="path53" class="mark"></path><text y="7" fill="#000" dy=".71em" letter-spacing="0" style="font-size: 10px; font-family: PTSans-Regular; font-style: normal; font-weight: 400; font-stretch: normal; pointer-events: auto; cursor: pointer;" transform="translate(31 90.698)" id="text23">0 km/h</text></g><g class="tick" id="g87"><path stroke="#646464" stroke-width=".4" d="M0 0v7" transform="translate(105.727 86.198)" id="path54" class="mark"></path><text y="7" fill="#000" dy=".71em" letter-spacing="0" style="font-size: 10px; font-family: PTSans-Regular; font-style: normal; font-weight: 400; font-stretch: normal; pointer-events: auto; cursor: pointer;" transform="translate(105.727 90.698)" id="text24">2 km/h</text></g><g class="tick" id="g88"><path stroke="#646464" stroke-width=".4" d="M0 0v7" transform="translate(180.455 86.198)" id="path55" class="mark"></path><text y="7" fill="#000" dy=".71em" letter-spacing="0" style="font-size: 10px; font-family: PTSans-Regular; font-style: normal; font-weight: 400; font-stretch: normal; pointer-events: auto; cursor: pointer;" transform="translate(180.455 90.698)" id="text25">4 km/h</text></g><g class="tick" id="g89"><path stroke="#646464" stroke-width=".4" d="M0 0v7" transform="translate(255.182 86.198)" id="path56" class="mark"></path><text y="7" fill="#000" dy=".71em" letter-spacing="0" style="font-size: 10px; font-family: PTSans-Regular; font-style: normal; font-weight: 400; font-stretch: normal; pointer-events: auto; cursor: pointer;" transform="translate(255.182 90.698)" id="text26">6 km/h</text></g><g class="tick" id="g90"><path stroke="#646464" stroke-width=".4" d="M0 0v7" transform="translate(329.91 86.198)" id="path57" class="mark"></path><text y="7" fill="#000" dy=".71em" letter-spacing="0" style="font-size: 10px; font-family: PTSans-Regular; font-style: normal; font-weight: 400; font-stretch: normal; pointer-events: auto; cursor: pointer;" transform="translate(329.91 90.698)" id="text27">8 km/h</text></g><g class="tick" id="g91"><path stroke="#646464" stroke-width=".4" d="M0 0v7" transform="translate(404.636 86.198)" id="path58" class="mark"></path><text y="7" fill="#000" dy=".71em" letter-spacing="0" style="font-size: 10px; font-family: PTSans-Regular; font-style: normal; font-weight: 400; font-stretch: normal; pointer-events: auto; cursor: pointer;" transform="translate(404.636 90.698)" id="text28">10 km/h</text></g></g></g></g></g><g id="g92"><defs id="defs11"><clipPath id="clipPath9"><path d="M0 0h473v117.198H0z" id="path59" class="mark"></path></clipPath></defs><g xmlns:ns9605567="http://www.datylon.com/dbi" ns9605567:type="visualization" clip-path="url(#clip0udwbdrsta4n)" transform="translate(24.553 290.047)" id="g93"><defs class="viz_defs" id="defs12"><linearGradient id="linear_gradient_8lcnjo1r0o7" gradientTransform="rotate(360 0 1)"><stop id="stop2" offset="0" stop-color="#7B23FF" stop-opacity=".17"></stop><stop id="stop3" offset="1" stop-color="#A10DFF" stop-opacity="1"></stop></linearGradient></defs><g class="chart-group" id="g94"><g class="benchmark" transform="translate(31 31)" id="g95"><defs id="defs13"><clipPath id="clipPath10"><path d="M0 0h411v55.198H0V0z" id="path60" class="mark"></path></clipPath></defs><path fill="#FFF" fill-opacity=".81" d="M0 0h102.75v55.198H0z" class="percentile mark" clip-path="url(#ranges_rounding_a7kpziga74)" id="path61"></path><path fill="#F2F2F2" fill-opacity=".81" d="M102.75 0H137v55.198h-34.25z" class="percentile mark" clip-path="url(#ranges_rounding_a7kpziga74)" id="path62"></path><path fill="#E2E2E2" fill-opacity=".81" d="M137 0h68.5v55.198H137z" class="percentile mark" clip-path="url(#ranges_rounding_a7kpziga74)" id="path63"></path><path fill="#CECECE" fill-opacity=".81" d="M205.5 0H411v55.198H205.5z" class="percentile mark" clip-path="url(#ranges_rounding_a7kpziga74)" id="path64"></path><path fill="none" stroke="#646464" stroke-width="0" d="M0 0h411v55.198H0V0z" clip-path="url(#ranges_rounding_a7kpziga74)" id="path65" class="mark"></path></g><g class="bencmark-bar-labels" id="g96"><text class="label_igkrhh9wasd" dy="0" letter-spacing="0" style="font-size: 9px; font-family: PTSans-BoldItalic; font-style: normal; font-weight: 400; font-stretch: normal; pointer-events: auto; cursor: pointer;" transform="translate(31 26)" id="text29">Bad</text><text class="label_sfgrpwh9im8" dy="0" letter-spacing="0" style="font-size: 9px; font-family: PTSans-BoldItalic; font-style: normal; font-weight: 400; font-stretch: normal; pointer-events: auto; cursor: pointer;" transform="translate(168 26)" id="text30">Acceptable</text><text class="label_vy7zmy078pp" dy="0" letter-spacing="0" style="font-size: 9px; font-family: PTSans-BoldItalic; font-style: normal; font-weight: 400; font-stretch: normal; pointer-events: auto; cursor: pointer;" transform="translate(236.5 26)" id="text31">Good</text></g><g class="bar" transform="translate(31 31)" id="g97"><defs id="defs14"><clipPath id="clipPath11"><path d="M0 16.283h182.882a12 11.316 0 0 1 12 11.316 12 11.316 0 0 1-12 11.315H0V27.6z" id="path66" class="mark"></path></clipPath></defs><path fill="#7B23FF" d="M0 16.283h194.882v22.631H0z" class="bar mark" clip-path="url(#bars_rounding_yibsdais9)" style="fill:url(#linear_gradient_8lcnjo1r0o7)" id="path67"></path><path fill="none" stroke-opacity="0" stroke-width="0" d="M0 16.283h182.882a12 11.316 0 0 1 12 11.316 12 11.316 0 0 1-12 11.315H0V27.6z" clip-path="url(#bars_rounding_yibsdais9)" id="path68" class="mark"></path></g><path stroke-opacity="0" stroke-width="8.533" d="M32 9A23 23 0 1 1 9 32 23 23 0 0 1 32 9m0-9a32 32 0 1 0 32 32A32 32 0 0 0 32 0Z" class="datamark mark" style="fill-opacity:1" transform="matrix(.23438 0 0 .23438 280.375 51.099)" id="path69"></path><g fill="none" class="x-axis" font-family="sans-serif" font-size="10" text-anchor="middle" id="g98"><path stroke="#646464" stroke-width=".4" d="M.5.5h411" class="domain mark" transform="translate(30.5 85.698)" id="path70"></path><g class="tick" id="g99"><path stroke="#646464" stroke-width=".4" d="M0 0v7" transform="translate(31 86.198)" id="path71" class="mark"></path><text y="7" fill="#000" dy=".71em" letter-spacing="0" style="font-size: 10px; font-family: PTSans-Regular; font-style: normal; font-weight: 400; font-stretch: normal; pointer-events: auto; cursor: pointer;" transform="translate(31 90.698)" id="text32">0 km</text></g><g class="tick" id="g100"><path stroke="#646464" stroke-width=".4" d="M0 0v7" transform="translate(99.5 86.198)" id="path72" class="mark"></path><text y="7" fill="#000" dy=".71em" letter-spacing="0" style="font-size: 10px; font-family: PTSans-Regular; font-style: normal; font-weight: 400; font-stretch: normal; pointer-events: auto; cursor: pointer;" transform="translate(99.5 90.698)" id="text33">2 km</text></g><g class="tick" id="g101"><path stroke="#646464" stroke-width=".4" d="M0 0v7" transform="translate(168 86.198)" id="path73" class="mark"></path><text y="7" fill="#000" dy=".71em" letter-spacing="0" style="font-size: 10px; font-family: PTSans-Regular; font-style: normal; font-weight: 400; font-stretch: normal; pointer-events: auto; cursor: pointer;" transform="translate(168 90.698)" id="text34">4 km</text></g><g class="tick" id="g102"><path stroke="#646464" stroke-width=".4" d="M0 0v7" transform="translate(236.5 86.198)" id="path74" class="mark"></path><text y="7" fill="#000" dy=".71em" letter-spacing="0" style="font-size: 10px; font-family: PTSans-Regular; font-style: normal; font-weight: 400; font-stretch: normal; pointer-events: auto; cursor: pointer;" transform="translate(236.5 90.698)" id="text35">6 km</text></g><g class="tick" id="g103"><path stroke="#646464" stroke-width=".4" d="M0 0v7" transform="translate(305 86.198)" id="path75" class="mark"></path><text y="7" fill="#000" dy=".71em" letter-spacing="0" style="font-size: 10px; font-family: PTSans-Regular; font-style: normal; font-weight: 400; font-stretch: normal; pointer-events: auto; cursor: pointer;" transform="translate(305 90.698)" id="text36">8 km</text></g><g class="tick" id="g104"><path stroke="#646464" stroke-width=".4" d="M0 0v7" transform="translate(373.5 86.198)" id="path76" class="mark"></path><text y="7" fill="#000" dy=".71em" letter-spacing="0" style="font-size: 10px; font-family: PTSans-Regular; font-style: normal; font-weight: 400; font-stretch: normal; pointer-events: auto; cursor: pointer;" transform="translate(373.5 90.698)" id="text37">10 km</text></g><g class="tick" id="g105"><path stroke="#646464" stroke-width=".4" d="M0 0v7" transform="translate(442 86.198)" id="path77" class="mark"></path><text y="7" fill="#000" dy=".71em" letter-spacing="0" style="font-size: 10px; font-family: PTSans-Regular; font-style: normal; font-weight: 400; font-stretch: normal; pointer-events: auto; cursor: pointer;" transform="translate(442 90.698)" id="text38">12 km</text></g></g></g></g></g><g id="g106"><defs id="defs15"><clipPath id="clipPath12"><path d="M0 0h473v117.198H0z" id="path78" class="mark"></path></clipPath></defs><g xmlns:ns9605567="http://www.datylon.com/dbi" ns9605567:type="visualization" clip-path="url(#clip49vlo1mnmnu)" transform="translate(24.553 121.71)" id="g107"><defs class="viz_defs" id="defs16"><linearGradient id="linear_gradient_4l914x2seua" gradientTransform="rotate(360 0 1)"><stop id="stop4" offset="0" stop-color="#7B23FF" stop-opacity=".17"></stop><stop id="stop5" offset="1" stop-color="#A10DFF" stop-opacity="1"></stop></linearGradient></defs><g class="chart-group" id="g108"><g class="benchmark" transform="translate(31 31)" id="g109"><defs id="defs17"><clipPath id="clipPath13"><path d="M0 0h411v55.198H0V0z" id="path79" class="mark"></path></clipPath></defs><path fill="#FFF" d="M0 0h171.25v55.198H0z" class="percentile mark" clip-path="url(#ranges_rounding_zv1t7wsuq8)" id="path80"></path><path fill="#F2F2F2" d="M171.25 0H274v55.198H171.25z" class="percentile mark" clip-path="url(#ranges_rounding_zv1t7wsuq8)" id="path81"></path><path fill="#E2E2E2" d="M274 0h137v55.198H274z" class="percentile mark" clip-path="url(#ranges_rounding_zv1t7wsuq8)" id="path82"></path><path fill="none" stroke="#646464" stroke-width="0" d="M0 0h411v55.198H0V0z" clip-path="url(#ranges_rounding_zv1t7wsuq8)" id="path83" class="mark"></path></g><g class="bencmark-bar-labels" id="g110"><text class="label_js7il6hl5m" dy="0" letter-spacing="0" style="font-size: 9px; font-family: PTSans-BoldItalic; font-style: normal; font-weight: 400; font-stretch: normal; pointer-events: auto; cursor: pointer;" transform="translate(31 26)" id="text39">Bad</text><text class="label_3aoaks7z57" dy="0" letter-spacing="0" style="font-size: 9px; font-family: PTSans-BoldItalic; font-style: normal; font-weight: 400; font-stretch: normal; pointer-events: auto; cursor: pointer;" transform="translate(202.25 26)" id="text40">Acceptable</text><text class="label_hixq1poe1fc" dy="0" letter-spacing="0" style="font-size: 9px; font-family: PTSans-BoldItalic; font-style: normal; font-weight: 400; font-stretch: normal; pointer-events: auto; cursor: pointer;" transform="translate(305 26)" id="text41">Good</text></g><g class="bar" transform="translate(31 31)" id="g111"><defs id="defs18"><clipPath id="clipPath14"><path d="M0 16.283h159.545a12 11.316 0 0 1 12 11.316 12 11.316 0 0 1-12 11.315H0V27.6z" id="path84" class="mark"></path></clipPath></defs><path fill="#7B23FF" d="M0 16.283h171.545v22.631H0z" class="bar mark" clip-path="url(#bars_rounding_op14o1xpj3i)" style="fill:url(#linear_gradient_4l914x2seua)" id="path85"></path><path fill="none" stroke-opacity="0" stroke-width="0" d="M0 16.283h159.545a12 11.316 0 0 1 12 11.316 12 11.316 0 0 1-12 11.315H0V27.6z" clip-path="url(#bars_rounding_op14o1xpj3i)" id="path86" class="mark"></path></g><path stroke-opacity="0" stroke-width="8.533" d="M32 9A23 23 0 1 1 9 32 23 23 0 0 1 32 9m0-9a32 32 0 1 0 32 32A32 32 0 0 0 32 0Z" class="datamark mark" style="fill-opacity:1" transform="matrix(.23438 0 0 .23438 379.7 51.099)" id="path87"></path><g fill="none" class="x-axis" font-family="sans-serif" font-size="10" text-anchor="middle" id="g112"><path stroke="#646464" stroke-width=".4" d="M.5.5h411" class="domain mark" transform="translate(30.5 85.698)" id="path88"></path><g class="tick" id="g113"><path stroke="#646464" stroke-width=".4" d="M0 0v7" transform="translate(31 86.198)" id="path89" class="mark"></path><text y="7" fill="#000" dy=".71em" letter-spacing="0" style="font-size: 10px; font-family: PTSans-Regular; font-style: normal; font-weight: 400; font-stretch: normal; pointer-events: auto; cursor: pointer;" transform="translate(31 90.698)" id="text42">0 km</text></g><g class="tick" id="g114"><path stroke="#646464" stroke-width=".4" d="M0 0v7" transform="translate(99.5 86.198)" id="path90" class="mark"></path><text y="7" fill="#000" dy=".71em" letter-spacing="0" style="font-size: 10px; font-family: PTSans-Regular; font-style: normal; font-weight: 400; font-stretch: normal; pointer-events: auto; cursor: pointer;" transform="translate(99.5 90.698)" id="text43">100 km</text></g><g class="tick" id="g115"><path stroke="#646464" stroke-width=".4" d="M0 0v7" transform="translate(168 86.198)" id="path91" class="mark"></path><text y="7" fill="#000" dy=".71em" letter-spacing="0" style="font-size: 10px; font-family: PTSans-Regular; font-style: normal; font-weight: 400; font-stretch: normal; pointer-events: auto; cursor: pointer;" transform="translate(168 90.698)" id="text44">200 km</text></g><g class="tick" id="g116"><path stroke="#646464" stroke-width=".4" d="M0 0v7" transform="translate(236.5 86.198)" id="path92" class="mark"></path><text y="7" fill="#000" dy=".71em" letter-spacing="0" style="font-size: 10px; font-family: PTSans-Regular; font-style: normal; font-weight: 400; font-stretch: normal; pointer-events: auto; cursor: pointer;" transform="translate(236.5 90.698)" id="text45">300 km</text></g><g class="tick" id="g117"><path stroke="#646464" stroke-width=".4" d="M0 0v7" transform="translate(305 86.198)" id="path93" class="mark"></path><text y="7" fill="#000" dy=".71em" letter-spacing="0" style="font-size: 10px; font-family: PTSans-Regular; font-style: normal; font-weight: 400; font-stretch: normal; pointer-events: auto; cursor: pointer;" transform="translate(305 90.698)" id="text46">400 km</text></g><g class="tick" id="g118"><path stroke="#646464" stroke-width=".4" d="M0 0v7" transform="translate(373.5 86.198)" id="path94" class="mark"></path><text y="7" fill="#000" dy=".71em" letter-spacing="0" style="font-size: 10px; font-family: PTSans-Regular; font-style: normal; font-weight: 400; font-stretch: normal; pointer-events: auto; cursor: pointer;" transform="translate(373.5 90.698)" id="text47">500 km</text></g><g class="tick" id="g119"><path stroke="#646464" stroke-width=".4" d="M0 0v7" transform="translate(442 86.198)" id="path95" class="mark"></path><text y="7" fill="#000" dy=".71em" letter-spacing="0" style="font-size: 10px; font-family: PTSans-Regular; font-style: normal; font-weight: 400; font-stretch: normal; pointer-events: auto; cursor: pointer;" transform="translate(442 90.698)" id="text48">600 km</text></g></g></g></g></g></g><g id="g120"><circle cx="123.5" cy="79.932" r="6" style="fill:none;stroke:#000;stroke-width:1.6;stroke-miterlimit:10" id="circle44" class="mark"></circle><linearGradient id="SVGID_60_" x1="118.133" x2="177.133" y1="56.125" y2="56.125" gradientUnits="userSpaceOnUse"><stop offset="0" style="stop-color:#7b23ff;stop-opacity:.17" id="stop6"></stop><stop offset="1" style="stop-color:#a10dff" id="stop7"></stop></linearGradient><path d="M171.62 62.625h-53.486v-13h53.486a5.514 5.514 0 0 1 5.514 5.514v1.973a5.515 5.515 0 0 1-5.514 5.513z" style="fill:url(#SVGID_60_)" id="path97" class="mark"></path><text style="font-family: PTSans-BoldItalic; font-size: 10px; pointer-events: auto; cursor: pointer;" transform="translate(60.05 59.01)" id="text49">2019 result</text><text style="font-family: PTSans-BoldItalic; font-size: 10px; pointer-events: auto; cursor: pointer;" transform="translate(65.74 82.817)" id="text50">2020 goal</text></g></svg>