<svg xmlns="http://www.w3.org/2000/svg" width="800" height="400"><g class="x axis" style="stroke-width:1px;font-size:10px;font-family:Arial,Helvetica;display:block"><g class="tick" style="opacity:1"><path d="M0 0v-380" style="shape-rendering:crispedges;fill:none;stroke:#ccc" transform="translate(0 380)"/><text y="3" dy=".71em" style="text-anchor:middle" transform="translate(0 380)">1998</text></g><g class="tick" style="opacity:1"><path d="M0 0v-380" style="shape-rendering:crispedges;fill:none;stroke:#ccc" transform="translate(94.118 380)"/><text y="3" dy=".71em" style="text-anchor:middle" transform="translate(94.118 380)">2000</text></g><g class="tick" style="opacity:1"><path d="M0 0v-380" style="shape-rendering:crispedges;fill:none;stroke:#ccc" transform="translate(188.235 380)"/><text y="3" dy=".71em" style="text-anchor:middle" transform="translate(188.235 380)">2002</text></g><g class="tick" style="opacity:1"><path d="M0 0v-380" style="shape-rendering:crispedges;fill:none;stroke:#ccc" transform="translate(282.353 380)"/><text y="3" dy=".71em" style="text-anchor:middle" transform="translate(282.353 380)">2004</text></g><g class="tick" style="opacity:1"><path d="M0 0v-380" style="shape-rendering:crispedges;fill:none;stroke:#ccc" transform="translate(376.47 380)"/><text y="3" dy=".71em" style="text-anchor:middle" transform="translate(376.47 380)">2006</text></g><g class="tick" style="opacity:1"><path d="M0 0v-380" style="shape-rendering:crispedges;fill:none;stroke:#ccc" transform="translate(470.588 380)"/><text y="3" dy=".71em" style="text-anchor:middle" transform="translate(470.588 380)">2008</text></g><g class="tick" style="opacity:1"><path d="M0 0v-380" style="shape-rendering:crispedges;fill:none;stroke:#ccc" transform="translate(564.706 380)"/><text y="3" dy=".71em" style="text-anchor:middle" transform="translate(564.706 380)">2010</text></g><g class="tick" style="opacity:1"><path d="M0 0v-380" style="shape-rendering:crispedges;fill:none;stroke:#ccc" transform="translate(658.824 380)"/><text y="3" dy=".71em" style="text-anchor:middle" transform="translate(658.824 380)">2012</text></g><g class="tick" style="opacity:1"><path d="M0 0v-380" style="shape-rendering:crispedges;fill:none;stroke:#ccc" transform="translate(752.941 380)"/><text y="3" dy=".71em" style="text-anchor:middle" transform="translate(752.941 380)">2014</text></g><path d="M0-380V0h800v-380" class="domain" style="shape-rendering:crispedges;fill:none;stroke:#ccc" transform="translate(0 380)"/></g><path d="M0 181.42c23.53 0 23.53-3.766 47.059-3.766 23.53 0 23.53 11.965 47.059 11.965 23.53 0 23.53-23.5 47.058-23.5 23.53 0 23.53 3.766 47.06 3.766 23.529 0 23.529 22.88 47.058 22.88 23.53 0 23.53-1.86 47.059-1.86 23.53 0 23.53 14.92 47.059 14.92 23.53 0 23.53 2.288 47.059 2.288 23.529 0 23.529 7.913 47.058 7.913 23.53 0 23.53-22.403 47.06-22.403 23.529 0 23.529-2.956 47.058-2.956 23.53 0 23.53-2.192 47.059-2.192 23.53 0 23.53 7.436 47.059 7.436 23.53 0 23.53 60.775 47.059 60.775 23.529 0 23.529-1.192 47.058-1.192 23.53 0 23.53 53.387 47.06 53.387 23.529 0 23.529-15.158 47.058-15.158v63.588c-23.53 0-23.53.858-47.059.858-23.53 0-23.53-68.164-47.059-68.164-23.53 0-23.53.715-47.058.715-23.53 0-23.53-40.183-47.06-40.183-23.529 0-23.529 6.673-47.058 6.673-23.53 0-23.53-8.198-47.059-8.198-23.53 0-23.53-13.443-47.059-13.443-23.53 0-23.53-8.484-47.059-8.484-23.529 0-23.529-7.627-47.058-7.627-23.53 0-23.53-2.86-47.06-2.86-23.529 0-23.529-18.638-47.058-18.638-23.53 0-23.53 7.58-47.059 7.58-23.53 0-23.53-20.02-47.059-20.02-23.53 0-23.53.333-47.059.333-23.529 0-23.529 17.398-47.058 17.398-23.53 0-23.53-15.873-47.06-15.873-23.529 0-23.529-1.191-47.058-1.191Z" class="layer" style="fill-opacity:.9;fill:#db3400"/><path d="M0 196.578c23.53 0 23.53 2.05 47.059 2.05 23.53 0 23.53 7.483 47.059 7.483 23.53 0 23.53 2.05 47.058 2.05 23.53 0 23.53-3.098 47.06-3.098 23.529 0 23.529 3.336 47.058 3.336 23.53 0 23.53-7.579 47.059-7.579 23.53 0 23.53-9.485 47.059-9.485 23.53 0 23.53-3.718 47.059-3.718 23.529 0 23.529 5.243 47.058 5.243 23.53 0 23.53 45.57 47.06 45.57 23.529 0 23.529 13.442 47.058 13.442 23.53 0 23.53 8.198 47.059 8.198 23.53 0 23.53-6.673 47.059-6.673 23.53 0 23.53 40.183 47.059 40.183 23.529 0 23.529-.715 47.058-.715 23.53 0 23.53 68.164 47.06 68.164 23.529 0 23.529-.858 47.058-.858v16.016c-23.53 0-23.53 3.813-47.059 3.813-23.53 0-23.53-77.888-47.059-77.888-23.53 0-23.53-2.526-47.058-2.526-23.53 0-23.53-40.564-47.06-40.564-23.529 0-23.529 9.533-47.058 9.533-23.53 0-23.53-5.053-47.059-5.053-23.53 0-23.53-9.628-47.059-9.628-23.53 0-23.53-40.708-47.059-40.708-23.529 0-23.529-7.913-47.058-7.913-23.53 0-23.53-2.288-47.06-2.288-23.529 0-23.529 1.192-47.058 1.192-23.53 0-23.53 7.77-47.059 7.77-23.53 0-23.53-1.812-47.059-1.812-23.53 0-23.53 3.766-47.059 3.766-23.529 0-23.529-2.336-47.058-2.336-23.53 0-23.53-9.2-47.06-9.2-23.529 0-23.529-3.765-47.058-3.765Z" class="layer" style="fill-opacity:.9;fill:#ffe19f"/><path d="M0 189.047c23.53 0 23.53 1.191 47.059 1.191 23.53 0 23.53-21.783 47.059-21.783 23.53 0 23.53 20.258 47.058 20.258 23.53 0 23.53-.334 47.06-.334 23.529 0 23.529-20.306 47.058-20.306 23.53 0 23.53 7.77 47.059 7.77 23.53 0 23.53-12.441 47.059-12.441 23.53 0 23.53-2.86 47.059-2.86 23.529 0 23.529-7.627 47.058-7.627 23.53 0 23.53-26.789 47.06-26.789 23.529 0 23.529-9.628 47.058-9.628 23.53 0 23.53-5.053 47.059-5.053 23.53 0 23.53 9.533 47.059 9.533 23.53 0 23.53-40.564 47.059-40.564 23.529 0 23.529-2.526 47.058-2.526 23.53 0 23.53-77.888 47.06-77.888C776.47 0 776.47 3.813 800 3.813v287.05c-23.53 0-23.53 15.158-47.059 15.158-23.53 0-23.53-53.387-47.059-53.387-23.53 0-23.53 1.192-47.058 1.192-23.53 0-23.53-60.775-47.06-60.775-23.529 0-23.529-7.436-47.058-7.436-23.53 0-23.53 2.192-47.059 2.192-23.53 0-23.53 2.956-47.059 2.956-23.53 0-23.53-.763-47.059-.763-23.529 0-23.529-5.243-47.058-5.243-23.53 0-23.53 3.718-47.06 3.718-23.529 0-23.529-.43-47.058-.43-23.53 0-23.53 1.86-47.059 1.86-23.53 0-23.53 12.298-47.059 12.298-23.53 0-23.53 3.098-47.059 3.098-23.529 0-23.529-18.542-47.058-18.542-23.53 0-23.53 9.009-47.06 9.009-23.529 0-23.529-2.05-47.058-2.05Z" class="layer" style="fill-opacity:.9;fill:#69e2c8"/></svg>