<svg width="460" height="400" xmlns="http://www.w3.org/2000/svg"><g transform="translate(30,10)"><g transform="translate(0,360)" fill="none" font-size="10" font-family="sans-serif" text-anchor="middle"><path class="domain" stroke="#000" d="M0.5,6V0.5H330.5V6"></path><g class="tick" opacity="1" transform="translate(0.5,0)"><line stroke="#000" y2="6"></line><text fill="#000" y="9" dy="0.71em">0</text></g><g class="tick" opacity="1" transform="translate(33.5,0)"><line stroke="#000" y2="6"></line><text fill="#000" y="9" dy="0.71em">1</text></g><g class="tick" opacity="1" transform="translate(66.5,0)"><line stroke="#000" y2="6"></line><text fill="#000" y="9" dy="0.71em">2</text></g><g class="tick" opacity="1" transform="translate(99.5,0)"><line stroke="#000" y2="6"></line><text fill="#000" y="9" dy="0.71em">3</text></g><g class="tick" opacity="1" transform="translate(132.5,0)"><line stroke="#000" y2="6"></line><text fill="#000" y="9" dy="0.71em">4</text></g><g class="tick" opacity="1" transform="translate(165.5,0)"><line stroke="#000" y2="6"></line><text fill="#000" y="9" dy="0.71em">5</text></g><g class="tick" opacity="1" transform="translate(198.5,0)"><line stroke="#000" y2="6"></line><text fill="#000" y="9" dy="0.71em">6</text></g><g class="tick" opacity="1" transform="translate(231.49999999999997,0)"><line stroke="#000" y2="6"></line><text fill="#000" y="9" dy="0.71em">7</text></g><g class="tick" opacity="1" transform="translate(264.5,0)"><line stroke="#000" y2="6"></line><text fill="#000" y="9" dy="0.71em">8</text></g><g class="tick" opacity="1" transform="translate(297.5,0)"><line stroke="#000" y2="6"></line><text fill="#000" y="9" dy="0.71em">9</text></g><g class="tick" opacity="1" transform="translate(330.5,0)"><line stroke="#000" y2="6"></line><text fill="#000" y="9" dy="0.71em">10</text></g></g><g fill="none" font-size="10" font-family="sans-serif" text-anchor="end"><path class="domain" stroke="#000" d="M-6,360.5H0.5V0.5H-6"></path><g class="tick" opacity="1" transform="translate(0,360.5)"><line stroke="#000" x2="-6"></line><text fill="#000" x="-9" dy="0.32em">0</text></g><g class="tick" opacity="1" transform="translate(0,324.5)"><line stroke="#000" x2="-6"></line><text fill="#000" x="-9" dy="0.32em">2</text></g><g class="tick" opacity="1" transform="translate(0,288.5)"><line stroke="#000" x2="-6"></line><text fill="#000" x="-9" dy="0.32em">4</text></g><g class="tick" opacity="1" transform="translate(0,252.5)"><line stroke="#000" x2="-6"></line><text fill="#000" x="-9" dy="0.32em">6</text></g><g class="tick" opacity="1" transform="translate(0,216.5)"><line stroke="#000" x2="-6"></line><text fill="#000" x="-9" dy="0.32em">8</text></g><g class="tick" opacity="1" transform="translate(0,180.5)"><line stroke="#000" x2="-6"></line><text fill="#000" x="-9" dy="0.32em">10</text></g><g class="tick" opacity="1" transform="translate(0,144.5)"><line stroke="#000" x2="-6"></line><text fill="#000" x="-9" dy="0.32em">12</text></g><g class="tick" opacity="1" transform="translate(0,108.50000000000003)"><line stroke="#000" x2="-6"></line><text fill="#000" x="-9" dy="0.32em">14</text></g><g class="tick" opacity="1" transform="translate(0,72.5)"><line stroke="#000" x2="-6"></line><text fill="#000" x="-9" dy="0.32em">16</text></g><g class="tick" opacity="1" transform="translate(0,36.5)"><line stroke="#000" x2="-6"></line><text fill="#000" x="-9" dy="0.32em">18</text></g><g class="tick" opacity="1" transform="translate(0,0.5)"><line stroke="#000" x2="-6"></line><text fill="#000" x="-9" dy="0.32em">20</text></g></g><path d="M33,324L66,306L99,342L132,234L165,216L198,216L230.99999999999997,270L264,288L297,198L330,161.99999999999997" stroke="#66c2a5" style="stroke-width: 4; fill: none;"></path><path d="M33,270L66,288L99,288L132,288L165,216L198,126L230.99999999999997,90L264,54L297,36L330,126" stroke="#fc8d62" style="stroke-width: 4; fill: none;"></path><path d="M33,126L66,108.00000000000003L99,72L132,144L165,234L198,198L230.99999999999997,306L264,324L297,342L330,342" stroke="#8da0cb" style="stroke-width: 4; fill: none;"></path><g style="fill: rgb(102, 194, 165);"><circle cx="33" cy="324" r="5" stroke="white"></circle><circle cx="66" cy="306" r="5" stroke="white"></circle><circle cx="99" cy="342" r="5" stroke="white"></circle><circle cx="132" cy="234" r="5" stroke="white"></circle><circle cx="165" cy="216" r="5" stroke="white"></circle><circle cx="198" cy="216" r="5" stroke="white"></circle><circle cx="230.99999999999997" cy="270" r="5" stroke="white"></circle><circle cx="264" cy="288" r="5" stroke="white"></circle><circle cx="297" cy="198" r="5" stroke="white"></circle><circle cx="330" cy="161.99999999999997" r="5" stroke="white"></circle></g><g style="fill: rgb(252, 141, 98);"><circle cx="33" cy="270" r="5" stroke="white"></circle><circle cx="66" cy="288" r="5" stroke="white"></circle><circle cx="99" cy="288" r="5" stroke="white"></circle><circle cx="132" cy="288" r="5" stroke="white"></circle><circle cx="165" cy="216" r="5" stroke="white"></circle><circle cx="198" cy="126" r="5" stroke="white"></circle><circle cx="230.99999999999997" cy="90" r="5" stroke="white"></circle><circle cx="264" cy="54" r="5" stroke="white"></circle><circle cx="297" cy="36" r="5" stroke="white"></circle><circle cx="330" cy="126" r="5" stroke="white"></circle></g><g style="fill: rgb(141, 160, 203);"><circle cx="33" cy="126" r="5" stroke="white"></circle><circle cx="66" cy="108.00000000000003" r="5" stroke="white"></circle><circle cx="99" cy="72" r="5" stroke="white"></circle><circle cx="132" cy="144" r="5" stroke="white"></circle><circle cx="165" cy="234" r="5" stroke="white"></circle><circle cx="198" cy="198" r="5" stroke="white"></circle><circle cx="230.99999999999997" cy="306" r="5" stroke="white"></circle><circle cx="264" cy="324" r="5" stroke="white"></circle><circle cx="297" cy="342" r="5" stroke="white"></circle><circle cx="330" cy="342" r="5" stroke="white"></circle></g><g><text transform="translate(330,161.99999999999997)" x="12" style="fill: rgb(102, 194, 165); font-size: 15px;">valueA</text></g><g><text transform="translate(330,126)" x="12" style="fill: rgb(252, 141, 98); font-size: 15px;">valueB</text></g><g><text transform="translate(330,342)" x="12" style="fill: rgb(141, 160, 203); font-size: 15px;">valueC</text></g></g></svg>