<svg xmlns="http://www.w3.org/2000/svg" style="display:block;background:#fff"><path d="M190 460h5M190 433.912h5M190 407.823h5M190 381.735h5M190 355.647h5M190 329.558h5M190 303.47h5M190 277.382h5M190 251.293h5M190 225.205h5M190 199.116h5M190 173.028h5M190 146.94h5M190 120.851h5M190 94.763h5M190 68.675h5" style="shape-rendering:crispedges;stroke:#555;stroke-width:1;stroke-dasharray:none"/><g dominant-baseline="middle" text-anchor="end"><text x="190" y="460" alignment-baseline="middle" style="fill:#555;font-size:12px;font-family:Arial,sans-serif;font-weight:400">0</text><text x="190" y="433.912" alignment-baseline="middle" style="fill:#555;font-size:12px;font-family:Arial,sans-serif;font-weight:400">0.00005</text><text x="190" y="407.823" alignment-baseline="middle" style="fill:#555;font-size:12px;font-family:Arial,sans-serif;font-weight:400">0.0001</text><text x="190" y="381.735" alignment-baseline="middle" style="fill:#555;font-size:12px;font-family:Arial,sans-serif;font-weight:400">0.00015</text><text x="190" y="355.647" alignment-baseline="middle" style="fill:#555;font-size:12px;font-family:Arial,sans-serif;font-weight:400">0.0002</text><text x="190" y="329.558" alignment-baseline="middle" style="fill:#555;font-size:12px;font-family:Arial,sans-serif;font-weight:400">0.00025</text><text x="190" y="303.47" alignment-baseline="middle" style="fill:#555;font-size:12px;font-family:Arial,sans-serif;font-weight:400">0.0003</text><text x="190" y="277.382" alignment-baseline="middle" style="fill:#555;font-size:12px;font-family:Arial,sans-serif;font-weight:400">0.00035</text><text x="190" y="251.293" alignment-baseline="middle" style="fill:#555;font-size:12px;font-family:Arial,sans-serif;font-weight:400">0.0004</text><text x="190" y="225.205" alignment-baseline="middle" style="fill:#555;font-size:12px;font-family:Arial,sans-serif;font-weight:400">0.00045</text><text x="190" y="199.116" alignment-baseline="middle" style="fill:#555;font-size:12px;font-family:Arial,sans-serif;font-weight:400">0.0005</text><text x="190" y="173.028" alignment-baseline="middle" style="fill:#555;font-size:12px;font-family:Arial,sans-serif;font-weight:400">0.00055</text><text x="190" y="146.94" alignment-baseline="middle" style="fill:#555;font-size:12px;font-family:Arial,sans-serif;font-weight:400">0.0006</text><text x="190" y="120.851" alignment-baseline="middle" style="fill:#555;font-size:12px;font-family:Arial,sans-serif;font-weight:400">0.00065</text><text x="190" y="94.763" alignment-baseline="middle" style="fill:#555;font-size:12px;font-family:Arial,sans-serif;font-weight:400">0.0007</text><text x="190" y="68.675" alignment-baseline="middle" style="fill:#555;font-size:12px;font-family:Arial,sans-serif;font-weight:400">0.00075</text></g><path d="M195 60v400" style="shape-rendering:crispedges;stroke:#555;stroke-width:1;stroke-dasharray:none"/><text x="134.5" y="260" alignment-baseline="middle" dominant-baseline="middle" style="fill:#555;font-weight:700;font-size:12px;font-family:Arial,sans-serif" text-anchor="middle" transform="rotate(-90 134.5 260)">weight(lbs)_density</text><path d="M218.919 465v5M256.757 465v5M294.595 465v5M332.432 465v5M370.27 465v5M408.108 465v5M445.946 465v5M483.784 465v5M521.622 465v5M559.459 465v5M597.297 465v5M635.135 465v5M672.973 465v5M710.811 465v5M748.649 465v5M786.486 465v5M824.324 465v5M862.162 465v5M900 465v5" style="shape-rendering:crispedges;stroke:#555;stroke-width:1;stroke-dasharray:none"/><g dominant-baseline="text-before-edge" text-anchor="middle"><text x="218.919" y="470" alignment-baseline="text-before-edge" style="fill:#555;font-size:12px;font-family:Arial,sans-serif;font-weight:400">1600</text><text x="256.757" y="470" alignment-baseline="text-before-edge" style="fill:#555;font-size:12px;font-family:Arial,sans-serif;font-weight:400">1800</text><text x="294.595" y="470" alignment-baseline="text-before-edge" style="fill:#555;font-size:12px;font-family:Arial,sans-serif;font-weight:400">2000</text><text x="332.432" y="470" alignment-baseline="text-before-edge" style="fill:#555;font-size:12px;font-family:Arial,sans-serif;font-weight:400">2200</text><text x="370.27" y="470" alignment-baseline="text-before-edge" style="fill:#555;font-size:12px;font-family:Arial,sans-serif;font-weight:400">2400</text><text x="408.108" y="470" alignment-baseline="text-before-edge" style="fill:#555;font-size:12px;font-family:Arial,sans-serif;font-weight:400">2600</text><text x="445.946" y="470" alignment-baseline="text-before-edge" style="fill:#555;font-size:12px;font-family:Arial,sans-serif;font-weight:400">2800</text><text x="483.784" y="470" alignment-baseline="text-before-edge" style="fill:#555;font-size:12px;font-family:Arial,sans-serif;font-weight:400">3000</text><text x="521.622" y="470" alignment-baseline="text-before-edge" style="fill:#555;font-size:12px;font-family:Arial,sans-serif;font-weight:400">3200</text><text x="559.459" y="470" alignment-baseline="text-before-edge" style="fill:#555;font-size:12px;font-family:Arial,sans-serif;font-weight:400">3400</text><text x="597.297" y="470" alignment-baseline="text-before-edge" style="fill:#555;font-size:12px;font-family:Arial,sans-serif;font-weight:400">3600</text><text x="635.135" y="470" alignment-baseline="text-before-edge" style="fill:#555;font-size:12px;font-family:Arial,sans-serif;font-weight:400">3800</text><text x="672.973" y="470" alignment-baseline="text-before-edge" style="fill:#555;font-size:12px;font-family:Arial,sans-serif;font-weight:400">4000</text><text x="710.811" y="470" alignment-baseline="text-before-edge" style="fill:#555;font-size:12px;font-family:Arial,sans-serif;font-weight:400">4200</text><text x="748.649" y="470" alignment-baseline="text-before-edge" style="fill:#555;font-size:12px;font-family:Arial,sans-serif;font-weight:400">4400</text><text x="786.486" y="470" alignment-baseline="text-before-edge" style="fill:#555;font-size:12px;font-family:Arial,sans-serif;font-weight:400">4600</text><text x="824.324" y="470" alignment-baseline="text-before-edge" style="fill:#555;font-size:12px;font-family:Arial,sans-serif;font-weight:400">4800</text><text x="862.162" y="470" alignment-baseline="text-before-edge" style="fill:#555;font-size:12px;font-family:Arial,sans-serif;font-weight:400">5000</text><text x="900" y="470" alignment-baseline="text-before-edge" style="fill:#555;font-size:12px;font-family:Arial,sans-serif;font-weight:400">5200</text></g><path d="M200 465h700" style="shape-rendering:crispedges;stroke:#555;stroke-width:1;stroke-dasharray:none"/><text x="550" y="505.5" alignment-baseline="middle" dominant-baseline="middle" style="fill:#555;font-weight:700;font-size:12px;font-family:Arial,sans-serif" text-anchor="middle">weight(lbs)</text><path d="M200 460h18.919c6.306 0 12.613 0 18.919-56.225C244.144 347.55 250.45 235.1 256.757 235.1c6.306 0 12.612 112.45 18.919 125.944 6.306 13.494 12.612-71.968 18.919-93.815 6.306-21.847 12.612 19.92 18.919 19.116 6.306-.803 12.612-44.176 18.918-82.57 6.307-38.393 12.613-71.807 18.92-94.94 6.306-23.132 12.612-35.984 18.918-2.088 6.307 33.896 12.613 114.538 18.92 135.261 6.305 20.723 12.612-18.474 18.918-33.896 6.306-15.421 12.613-7.068 18.919-13.494 6.306-6.425 12.613-27.63 18.919-43.373 6.306-15.743 12.613-26.024 18.919 11.727 6.306 37.75 12.612 123.534 18.919 165.622 6.306 42.089 12.612 40.482 18.919 34.86 6.306-5.623 12.612-15.261 18.919-15.261 6.306 0 12.612 9.638 18.919 13.976 6.306 4.337 12.612 3.373 18.918 5.3 6.307 1.929 12.613 6.748 18.92 7.551 6.306.803 12.612-2.41 18.918 2.892 6.307 5.3 12.613 19.116 18.92 34.217 6.306 15.1 12.612 31.485 18.918-4.98 6.306-36.466 12.613-125.784 18.92-125.784 6.305 0 12.612 89.318 18.918 88.996 6.306-.32 12.613-90.28 18.919-93.333 6.306-3.052 12.613 80.803 18.919 103.454 6.306 22.65 12.612-15.904 18.919-12.851 6.306 3.052 12.612 47.71 18.919 23.293 6.306-24.418 12.612-117.912 18.919-117.912 6.306 0 12.612 93.494 18.918 124.337 6.307 30.844 12.613-.963 18.92-.963 6.306 0 12.612 31.807 18.918 37.43 6.307 5.622 12.613-14.94 18.92-29.559 6.306-14.618 12.612-23.293 18.918-13.012 6.306 10.281 12.613 39.518 18.92 54.137C887.386 460 893.693 460 896.846 460c3.153 0 3.153 0 0 0H200z" class="area" style="fill:orange;stroke:#222;stroke-width:1;stroke-dasharray:none;opacity:.75"/></svg>