<svg id="Layer_1" data-name="Layer 1" xmlns="http://www.w3.org/2000/svg" xmlns:xlink="http://www.w3.org/1999/xlink" viewBox="0 0 560 560"><defs><style>.cls-1{fill:none;}.cls-2{clip-path:url(#clip-path);}.cls-3{fill:#004dff;}.cls-3,.cls-4,.cls-5,.cls-6{fill-opacity:0.8;}.cls-4{fill:#ffda00;}.cls-5{fill:#ff4d32;}.cls-6{fill:#a10dff;}.cls-11,.cls-7,.cls-9{isolation:isolate;}.cls-7,.cls-9{font-size:15px;fill:#333;font-family:PTSans-Italic, PT Sans;font-style:italic;}.cls-8{letter-spacing:-0.04em;}.cls-9{letter-spacing:-0.03em;}.cls-10{letter-spacing:0em;}.cls-11{font-size:16px;fill:#fff;font-family:PTSans-Bold, PT Sans;font-weight:700;}.cls-12{fill:#1a1a1a;}</style><clipPath id="clip-path"><rect class="cls-1" x="32.5" y="95.5" width="500" height="459"/></clipPath></defs><g id="Personal_accounting_copy1" data-name="Personal accounting_copy1"><g class="cls-2"><path class="cls-3" d="M282.5,165.5a159.5,159.5,0,0,1,10,318.69l-4-63.68a95.7,95.7,0,0,0-6-191.21Z"/><path class="cls-4" d="M292.52,484.19a159.5,159.5,0,0,1-166.69-129.3l62.67-12a95.69,95.69,0,0,0,100,77.58Z"/><path class="cls-5" d="M125.83,354.89a159.5,159.5,0,0,1,79.83-169.66l30.74,55.91a95.68,95.68,0,0,0-47.9,101.79Z"/><path class="cls-6" d="M205.66,185.23A159.51,159.51,0,0,1,282.5,165.5v63.8a95.62,95.62,0,0,0-46.1,11.84Z"/><path class="cls-1" d="M282.5,165.35a159.65,159.65,0,0,1,10,319l-4-63.82a95.7,95.7,0,0,0-6-191.21Z"/><path class="cls-1" d="M292.52,484.33A159.63,159.63,0,0,1,125.68,354.92l62.82-12a95.69,95.69,0,0,0,100,77.58Z"/><path class="cls-1" d="M125.68,354.92A159.65,159.65,0,0,1,205.59,185.1l30.81,56a95.68,95.68,0,0,0-47.9,101.79Z"/><path class="cls-1" d="M205.59,185.1a159.58,159.58,0,0,1,76.91-19.75v64a95.62,95.62,0,0,0-46.1,11.84Z"/><g id="gtext"><text class="cls-7" transform="translate(448.59 314.83)"><tspan class="cls-8">R</tspan><tspan x="7.88" y="0">ent</tspan></text></g><g id="gtext-2" data-name="gtext"><text class="cls-7" transform="translate(133.55 470.63)">Utilities</text></g><g id="gtext-3" data-name="gtext"><text class="cls-7" transform="translate(102.28 249.41)">Food</text></g><g id="gtext-4" data-name="gtext"><text class="cls-9" transform="translate(198.06 159.37)">L<tspan class="cls-10" x="6.87" y="0">eisure</tspan></text></g><g id="gtext-5" data-name="gtext"><text class="cls-11" transform="translate(394.25 326.11)">49%</text></g><g id="gtext-6" data-name="gtext"><text class="cls-11" transform="translate(188.5 430.94)">23%</text></g><g id="gtext-7" data-name="gtext"><text class="cls-11" transform="translate(151.25 275.79)">20%</text></g><g id="gtext-8" data-name="gtext"><text class="cls-11" transform="translate(239.51 206.53)">8%</text></g></g></g><path class="cls-12" d="M77.55,57.77H75.69v4.17H73.34V50.56h4.23a4.78,4.78,0,0,1,3.11.9A3.1,3.1,0,0,1,81.77,54a3.17,3.17,0,0,1-2,3.18l2.46,4.65v.11H79.69Zm-1.86-1.89h1.89A2,2,0,0,0,79,55.43a1.63,1.63,0,0,0,.48-1.24A1.71,1.71,0,0,0,79,52.92a1.92,1.92,0,0,0-1.4-.46H75.69Z"/><path class="cls-12" d="M87.3,62.09a4.16,4.16,0,0,1-3-1.14,4,4,0,0,1-1.17-3V57.7a5.23,5.23,0,0,1,.49-2.28A3.64,3.64,0,0,1,85,53.87a3.93,3.93,0,0,1,2.06-.54,3.52,3.52,0,0,1,2.73,1.09,4.47,4.47,0,0,1,1,3.1v.93H85.39a2,2,0,0,0,.66,1.32,2,2,0,0,0,1.4.5,2.4,2.4,0,0,0,2-.94l1.11,1.24a3.38,3.38,0,0,1-1.37,1.12A4.49,4.49,0,0,1,87.3,62.09ZM87,55.15A1.42,1.42,0,0,0,86,55.6a2.39,2.39,0,0,0-.54,1.31h3.14v-.18a1.67,1.67,0,0,0-.4-1.17A1.47,1.47,0,0,0,87,55.15Z"/><path class="cls-12" d="M94.13,53.48l.07,1a3,3,0,0,1,2.43-1.13,2.43,2.43,0,0,1,2,.79,3.65,3.65,0,0,1,.67,2.36v5.46H97.05V56.53a1.45,1.45,0,0,0-.32-1,1.35,1.35,0,0,0-1-.33,1.55,1.55,0,0,0-1.43.82v6H92V53.48Z"/><path class="cls-12" d="M103.72,51.41v2.07h1.44v1.66h-1.44v4.22a1,1,0,0,0,.18.67.89.89,0,0,0,.69.2,3.28,3.28,0,0,0,.66,0v1.71a4.5,4.5,0,0,1-1.37.2,2.15,2.15,0,0,1-2.42-2.39V55.14h-1.23V53.48h1.23V51.41Z"/><path class="cls-12" d="M112.52,53.48l.07,1a3,3,0,0,1,2.43-1.1,2.27,2.27,0,0,1,2.25,1.29,2.89,2.89,0,0,1,2.53-1.29,2.54,2.54,0,0,1,2,.8,3.67,3.67,0,0,1,.67,2.41v5.4h-2.26V56.55a1.65,1.65,0,0,0-.28-1,1.27,1.27,0,0,0-1-.34,1.42,1.42,0,0,0-1.4,1v5.81h-2.26V56.55a1.62,1.62,0,0,0-.29-1.06,1.25,1.25,0,0,0-1-.33,1.47,1.47,0,0,0-1.39.8v6h-2.25V53.48Z"/><path class="cls-12" d="M129.16,61.94a2.52,2.52,0,0,1-.23-.76,2.73,2.73,0,0,1-2.13.91,3,3,0,0,1-2.06-.71,2.31,2.31,0,0,1-.82-1.82,2.38,2.38,0,0,1,1-2.06,4.93,4.93,0,0,1,2.88-.73h1v-.48a1.41,1.41,0,0,0-.3-.94,1.22,1.22,0,0,0-.95-.35,1.38,1.38,0,0,0-.9.27,1,1,0,0,0-.32.75h-2.26a2.29,2.29,0,0,1,.45-1.36,3.07,3.07,0,0,1,1.28-1,4.85,4.85,0,0,1,1.86-.35,3.69,3.69,0,0,1,2.48.78,2.74,2.74,0,0,1,.92,2.21V60a4.05,4.05,0,0,0,.34,1.82v.14Zm-1.87-1.57a1.93,1.93,0,0,0,.92-.23,1.44,1.44,0,0,0,.63-.59V58.09H128c-1.13,0-1.73.39-1.8,1.18v.13a.89.89,0,0,0,.3.69A1.11,1.11,0,0,0,127.29,60.37Z"/><path class="cls-12" d="M135.91,58.55l-.82.81v2.58h-2.25v-12h2.25v6.65l.44-.57,2.17-2.54h2.71L137.35,57l3.32,4.93h-2.59Z"/><path class="cls-12" d="M145.12,62.09a4.16,4.16,0,0,1-3-1.14,4,4,0,0,1-1.17-3V57.7a5.23,5.23,0,0,1,.49-2.28,3.64,3.64,0,0,1,1.4-1.55,3.93,3.93,0,0,1,2.06-.54,3.52,3.52,0,0,1,2.73,1.09,4.47,4.47,0,0,1,1,3.1v.93h-5.38a2,2,0,0,0,.66,1.32,2,2,0,0,0,1.4.5,2.4,2.4,0,0,0,2-.94l1.11,1.24A3.31,3.31,0,0,1,147,61.69,4.49,4.49,0,0,1,145.12,62.09Zm-.26-6.94a1.42,1.42,0,0,0-1.09.45,2.39,2.39,0,0,0-.54,1.31h3.15v-.18a1.72,1.72,0,0,0-.41-1.17A1.47,1.47,0,0,0,144.86,55.15Z"/><path class="cls-12" d="M154.45,59.6A.72.72,0,0,0,154,59a4.72,4.72,0,0,0-1.31-.43c-2-.42-3-1.27-3-2.56a2.32,2.32,0,0,1,.93-1.88,3.81,3.81,0,0,1,2.45-.75,4,4,0,0,1,2.57.76,2.38,2.38,0,0,1,1,2h-2.25a1.09,1.09,0,0,0-.32-.8,1.3,1.3,0,0,0-1-.31,1.29,1.29,0,0,0-.88.26.81.81,0,0,0-.32.65.71.71,0,0,0,.36.61,4,4,0,0,0,1.2.4,9.93,9.93,0,0,1,1.42.37,2.35,2.35,0,0,1,1.79,2.28,2.21,2.21,0,0,1-1,1.87,4.27,4.27,0,0,1-2.57.71,4.36,4.36,0,0,1-1.88-.38,3.2,3.2,0,0,1-1.3-1,2.44,2.44,0,0,1-.46-1.43h2.14a1.15,1.15,0,0,0,.44.92,1.74,1.74,0,0,0,1.11.32,1.67,1.67,0,0,0,1-.24A.78.78,0,0,0,154.45,59.6Z"/><path class="cls-12" d="M167.15,61.08a2.82,2.82,0,0,1-2.31,1,2.69,2.69,0,0,1-2.08-.78A3.36,3.36,0,0,1,162,59V53.48h2.26V59q0,1.32,1.2,1.32a1.63,1.63,0,0,0,1.58-.79v-6h2.27v8.46h-2.13Z"/><path class="cls-12" d="M178.65,57.79a5.1,5.1,0,0,1-.89,3.13,2.84,2.84,0,0,1-2.39,1.17,2.6,2.6,0,0,1-2.07-.89v4H171V53.48h2.09l.08.83a2.67,2.67,0,0,1,2.14-1,2.86,2.86,0,0,1,2.43,1.15,5.23,5.23,0,0,1,.87,3.19Zm-2.26-.17A3.33,3.33,0,0,0,176,55.8a1.37,1.37,0,0,0-1.21-.64,1.48,1.48,0,0,0-1.46.82v3.46a1.49,1.49,0,0,0,1.47.83C175.85,60.27,176.39,59.39,176.39,57.62Z"/><path class="cls-12" d="M188.93,61.94a2.84,2.84,0,0,1-.23-.76,2.7,2.7,0,0,1-2.13.91,3.05,3.05,0,0,1-2.06-.71,2.33,2.33,0,0,1-.81-1.82,2.4,2.4,0,0,1,1-2.06,5,5,0,0,1,2.88-.73h1v-.48a1.41,1.41,0,0,0-.3-.94,1.2,1.2,0,0,0-.95-.35,1.38,1.38,0,0,0-.9.27,1,1,0,0,0-.32.75h-2.26a2.23,2.23,0,0,1,.46-1.36,3.07,3.07,0,0,1,1.28-1,4.78,4.78,0,0,1,1.86-.35,3.72,3.72,0,0,1,2.48.78,2.77,2.77,0,0,1,.92,2.21V60a3.94,3.94,0,0,0,.33,1.82v.14Zm-1.87-1.57a1.9,1.9,0,0,0,.92-.23,1.39,1.39,0,0,0,.63-.59V58.09h-.84c-1.13,0-1.74.39-1.81,1.18v.13a.89.89,0,0,0,.3.69A1.13,1.13,0,0,0,187.06,60.37Z"/><path class="cls-12" d="M195,61.94h-2.26v-12H195Z"/><path class="cls-12" d="M199,53.48l.07,1a3,3,0,0,1,2.43-1.1,2.25,2.25,0,0,1,2.24,1.29,2.9,2.9,0,0,1,2.54-1.29,2.54,2.54,0,0,1,2.05.8,3.67,3.67,0,0,1,.67,2.41v5.4H206.7V56.55a1.59,1.59,0,0,0-.28-1,1.26,1.26,0,0,0-1-.34,1.42,1.42,0,0,0-1.41,1v5.81h-2.26V56.55a1.56,1.56,0,0,0-.29-1.06,1.24,1.24,0,0,0-1-.33,1.47,1.47,0,0,0-1.39.8v6h-2.26V53.48Z"/><path class="cls-12" d="M210.35,57.63a4.92,4.92,0,0,1,.49-2.24,3.47,3.47,0,0,1,1.39-1.52,4.06,4.06,0,0,1,2.11-.54,3.86,3.86,0,0,1,2.8,1.05,4.16,4.16,0,0,1,1.2,2.84l0,.58a4.41,4.41,0,0,1-1.09,3.12,4.22,4.22,0,0,1-5.83,0,4.47,4.47,0,0,1-1.09-3.19Zm2.26.16a3.2,3.2,0,0,0,.45,1.85,1.64,1.64,0,0,0,2.58,0,3.43,3.43,0,0,0,.46-2,3.09,3.09,0,0,0-.46-1.83,1.51,1.51,0,0,0-1.3-.65,1.47,1.47,0,0,0-1.28.64A3.54,3.54,0,0,0,212.61,57.79Z"/><path class="cls-12" d="M224.33,59.6a.74.74,0,0,0-.41-.65,4.81,4.81,0,0,0-1.32-.43c-2-.42-3-1.27-3-2.56a2.32,2.32,0,0,1,.93-1.88,3.78,3.78,0,0,1,2.44-.75,4.06,4.06,0,0,1,2.58.76,2.38,2.38,0,0,1,1,2h-2.26a1.09,1.09,0,0,0-.31-.8,1.33,1.33,0,0,0-1-.31,1.3,1.3,0,0,0-.88.26.8.8,0,0,0-.31.65.72.72,0,0,0,.35.61,4,4,0,0,0,1.2.4,9.27,9.27,0,0,1,1.42.37,2.34,2.34,0,0,1,1.79,2.28,2.21,2.21,0,0,1-1,1.87,4.24,4.24,0,0,1-2.56.71,4.37,4.37,0,0,1-1.89-.38,3.1,3.1,0,0,1-1.29-1,2.45,2.45,0,0,1-.47-1.43h2.14a1.16,1.16,0,0,0,.45.92,1.71,1.71,0,0,0,1.11.32,1.69,1.69,0,0,0,1-.24A.78.78,0,0,0,224.33,59.6Z"/><path class="cls-12" d="M230.68,51.41v2.07h1.44v1.66h-1.44v4.22a1,1,0,0,0,.18.67.89.89,0,0,0,.69.2,3.28,3.28,0,0,0,.66,0v1.71a4.5,4.5,0,0,1-1.37.2,2.15,2.15,0,0,1-2.42-2.39V55.14h-1.23V53.48h1.23V51.41Z"/><path class="cls-12" d="M237.61,56.34l.66-5.78h6.37v1.89h-4.52l-.28,2.44a3.5,3.5,0,0,1,1.71-.43,3.27,3.27,0,0,1,2.54,1,4,4,0,0,1,.93,2.82,4.13,4.13,0,0,1-.47,2,3.26,3.26,0,0,1-1.33,1.35,4.17,4.17,0,0,1-2.05.48,4.52,4.52,0,0,1-1.91-.41,3.38,3.38,0,0,1-1.4-1.18,3.19,3.19,0,0,1-.54-1.73h2.23a1.7,1.7,0,0,0,.5,1.11,1.58,1.58,0,0,0,1.11.39,1.37,1.37,0,0,0,1.18-.55,2.5,2.5,0,0,0,.42-1.56,2.09,2.09,0,0,0-.48-1.48,1.77,1.77,0,0,0-1.35-.52,1.93,1.93,0,0,0-1.31.43l-.21.2Z"/><path class="cls-12" d="M254.11,57.23a5.75,5.75,0,0,1-1,3.61,3.38,3.38,0,0,1-2.86,1.25,3.42,3.42,0,0,1-2.84-1.22,5.61,5.61,0,0,1-1-3.52V55.26a5.68,5.68,0,0,1,1-3.62,3.45,3.45,0,0,1,2.85-1.23,3.41,3.41,0,0,1,2.84,1.22,5.58,5.58,0,0,1,1,3.51Zm-2.26-2.3a4.14,4.14,0,0,0-.39-2.06,1.45,1.45,0,0,0-2.38,0,4,4,0,0,0-.4,1.92v2.77a4.4,4.4,0,0,0,.38,2.07,1.28,1.28,0,0,0,1.21.67,1.26,1.26,0,0,0,1.2-.65,4.3,4.3,0,0,0,.38-2Z"/><path class="cls-12" d="M255.6,52.75a2.27,2.27,0,0,1,.68-1.7,2.81,2.81,0,0,1,3.58,0,2.3,2.3,0,0,1,.68,1.75v.56a2.25,2.25,0,0,1-.68,1.7,2.52,2.52,0,0,1-1.78.64,2.49,2.49,0,0,1-1.79-.65,2.27,2.27,0,0,1-.69-1.74Zm1.5.6a1.07,1.07,0,0,0,.27.76.93.93,0,0,0,.71.28.88.88,0,0,0,.69-.29,1.07,1.07,0,0,0,.26-.77v-.58a1.08,1.08,0,0,0-.26-.76.91.91,0,0,0-.71-.29.9.9,0,0,0-.69.29,1.1,1.1,0,0,0-.27.79Zm1.42,7.74-1.1-.6L263,51.6l1.1.6ZM261,59.15a2.22,2.22,0,0,1,.69-1.7,2.48,2.48,0,0,1,1.78-.65,2.55,2.55,0,0,1,1.79.64A2.28,2.28,0,0,1,266,59.2v.56a2.22,2.22,0,0,1-.67,1.69,2.84,2.84,0,0,1-3.59,0,2.3,2.3,0,0,1-.68-1.72Zm1.5.61a1,1,0,0,0,.28.73.9.9,0,0,0,.7.31c.64,0,1-.35,1-1.06v-.59a1.07,1.07,0,0,0-.27-.76,1,1,0,0,0-.7-.28,1,1,0,0,0-.71.28,1.13,1.13,0,0,0-.26.78Z"/><path class="cls-12" d="M271.17,57.63a4.92,4.92,0,0,1,.49-2.24,3.47,3.47,0,0,1,1.39-1.52,4.06,4.06,0,0,1,2.11-.54,3.86,3.86,0,0,1,2.8,1.05,4.16,4.16,0,0,1,1.2,2.84l0,.58a4.41,4.41,0,0,1-1.09,3.12,4.22,4.22,0,0,1-5.83,0,4.52,4.52,0,0,1-1.09-3.19Zm2.26.16a3.2,3.2,0,0,0,.45,1.85,1.64,1.64,0,0,0,2.58,0,3.43,3.43,0,0,0,.46-2,3.09,3.09,0,0,0-.46-1.83,1.51,1.51,0,0,0-1.3-.65,1.47,1.47,0,0,0-1.28.64A3.54,3.54,0,0,0,273.43,57.79Z"/><path class="cls-12" d="M281.19,61.94v-6.8h-1.26V53.48h1.26v-.71a2.93,2.93,0,0,1,.81-2.21,3.2,3.2,0,0,1,2.29-.79,5.69,5.69,0,0,1,1.15.16l0,1.75a2.63,2.63,0,0,0-.68-.07c-.85,0-1.28.4-1.28,1.19v.68h1.68v1.66h-1.68v6.8Z"/><path class="cls-12" d="M295.19,61.94a2.52,2.52,0,0,1-.23-.76,2.73,2.73,0,0,1-2.13.91,3,3,0,0,1-2.06-.71,2.34,2.34,0,0,1-.82-1.82,2.41,2.41,0,0,1,1-2.06,4.93,4.93,0,0,1,2.88-.73h1v-.48a1.41,1.41,0,0,0-.3-.94,1.2,1.2,0,0,0-.95-.35,1.38,1.38,0,0,0-.9.27,1,1,0,0,0-.32.75h-2.26a2.29,2.29,0,0,1,.45-1.36,3.1,3.1,0,0,1,1.29-1,4.77,4.77,0,0,1,1.85-.35,3.69,3.69,0,0,1,2.48.78,2.74,2.74,0,0,1,.92,2.21V60a4.05,4.05,0,0,0,.34,1.82v.14Zm-1.87-1.57a1.93,1.93,0,0,0,.92-.23,1.44,1.44,0,0,0,.63-.59V58.09H294c-1.13,0-1.73.39-1.8,1.18v.13a.89.89,0,0,0,.3.69A1.13,1.13,0,0,0,293.32,60.37Z"/><path class="cls-12" d="M310.46,57.79a5,5,0,0,1-.89,3.13,2.84,2.84,0,0,1-2.39,1.17,2.62,2.62,0,0,1-2.07-.89v4h-2.26V53.48H305l.07.83a2.67,2.67,0,0,1,2.14-1,2.84,2.84,0,0,1,2.43,1.15,5.23,5.23,0,0,1,.87,3.19Zm-2.26-.17a3.43,3.43,0,0,0-.41-1.82,1.39,1.39,0,0,0-1.22-.64,1.49,1.49,0,0,0-1.46.82v3.46a1.5,1.5,0,0,0,1.48.83C307.66,60.27,308.2,59.39,308.2,57.62Z"/><path class="cls-12" d="M315.75,62.09a4.16,4.16,0,0,1-3-1.14,4,4,0,0,1-1.17-3V57.7a5.09,5.09,0,0,1,.5-2.28,3.62,3.62,0,0,1,1.39-1.55,3.93,3.93,0,0,1,2.06-.54,3.49,3.49,0,0,1,2.73,1.09,4.48,4.48,0,0,1,1,3.1v.93h-5.39a2.14,2.14,0,0,0,.66,1.32,2,2,0,0,0,1.4.5,2.44,2.44,0,0,0,2-.94l1.11,1.24a3.41,3.41,0,0,1-1.38,1.12A4.49,4.49,0,0,1,315.75,62.09Zm-.26-6.94a1.42,1.42,0,0,0-1.09.45,2.39,2.39,0,0,0-.53,1.31H317v-.18a1.67,1.67,0,0,0-.41-1.17A1.47,1.47,0,0,0,315.49,55.15Z"/><path class="cls-12" d="M325.26,55.6a6.44,6.44,0,0,0-.81-.06,1.64,1.64,0,0,0-1.68.87v5.53h-2.26V53.48h2.13l.06,1a2.11,2.11,0,0,1,1.89-1.16,2.28,2.28,0,0,1,.7.1Z"/><path class="cls-12" d="M330.92,59.6a.72.72,0,0,0-.41-.65,4.72,4.72,0,0,0-1.31-.43c-2-.42-3-1.27-3-2.56a2.32,2.32,0,0,1,.93-1.88,3.8,3.8,0,0,1,2.44-.75,4,4,0,0,1,2.58.76,2.38,2.38,0,0,1,1,2h-2.25a1.09,1.09,0,0,0-.32-.8,1.3,1.3,0,0,0-1-.31,1.33,1.33,0,0,0-.89.26.83.83,0,0,0-.31.65.71.71,0,0,0,.36.61,3.81,3.81,0,0,0,1.2.4,9.93,9.93,0,0,1,1.42.37,2.35,2.35,0,0,1,1.79,2.28,2.2,2.2,0,0,1-1,1.87,4.24,4.24,0,0,1-2.56.71,4.33,4.33,0,0,1-1.88-.38,3.2,3.2,0,0,1-1.3-1,2.45,2.45,0,0,1-.47-1.43h2.14a1.19,1.19,0,0,0,.45.92,1.74,1.74,0,0,0,1.11.32,1.67,1.67,0,0,0,1-.24A.78.78,0,0,0,330.92,59.6Z"/><path class="cls-12" d="M334.22,57.63a5,5,0,0,1,.48-2.24,3.56,3.56,0,0,1,1.4-1.52,4,4,0,0,1,2.11-.54A3.83,3.83,0,0,1,341,54.38a4.12,4.12,0,0,1,1.21,2.84l0,.58a4.46,4.46,0,0,1-1.09,3.12,4.22,4.22,0,0,1-5.83,0,4.47,4.47,0,0,1-1.09-3.19Zm2.26.16a3.2,3.2,0,0,0,.45,1.85,1.64,1.64,0,0,0,2.58,0,3.43,3.43,0,0,0,.46-2,3.09,3.09,0,0,0-.46-1.83,1.51,1.51,0,0,0-1.3-.65,1.47,1.47,0,0,0-1.28.64A3.54,3.54,0,0,0,336.48,57.79Z"/><path class="cls-12" d="M345.7,53.48l.07,1a3,3,0,0,1,2.43-1.13,2.45,2.45,0,0,1,2,.79,3.71,3.71,0,0,1,.67,2.36v5.46h-2.26V56.53a1.5,1.5,0,0,0-.31-1,1.4,1.4,0,0,0-1-.33,1.56,1.56,0,0,0-1.43.82v6h-2.26V53.48Z"/><path class="cls-12" d="M352.29,54.05l-1.06-.61a4.21,4.21,0,0,0,.69-2.18V49.94h1.8v1.21a3.57,3.57,0,0,1-.39,1.52A4.12,4.12,0,0,1,352.29,54.05Z"/><path class="cls-12" d="M358.08,59.6a.74.74,0,0,0-.41-.65,4.81,4.81,0,0,0-1.32-.43c-2-.42-3-1.27-3-2.56a2.32,2.32,0,0,1,.93-1.88,3.78,3.78,0,0,1,2.44-.75,4.06,4.06,0,0,1,2.58.76,2.38,2.38,0,0,1,1,2H358a1.09,1.09,0,0,0-.31-.8,1.33,1.33,0,0,0-1-.31,1.3,1.3,0,0,0-.88.26.8.8,0,0,0-.31.65.72.72,0,0,0,.35.61,4,4,0,0,0,1.2.4,9.59,9.59,0,0,1,1.42.37,2.34,2.34,0,0,1,1.79,2.28,2.21,2.21,0,0,1-1,1.87,4.24,4.24,0,0,1-2.56.71,4.37,4.37,0,0,1-1.89-.38,3.1,3.1,0,0,1-1.29-1,2.45,2.45,0,0,1-.47-1.43h2.14a1.16,1.16,0,0,0,.45.92,1.71,1.71,0,0,0,1.11.32,1.69,1.69,0,0,0,1-.24A.78.78,0,0,0,358.08,59.6Z"/><path class="cls-12" d="M373.32,57.79a5.1,5.1,0,0,1-.89,3.13A2.84,2.84,0,0,1,370,62.09,2.61,2.61,0,0,1,368,61.2v4h-2.26V53.48h2.09l.08.83a2.67,2.67,0,0,1,2.14-1,2.84,2.84,0,0,1,2.43,1.15,5.23,5.23,0,0,1,.87,3.19Zm-2.26-.17a3.33,3.33,0,0,0-.42-1.82,1.36,1.36,0,0,0-1.21-.64A1.48,1.48,0,0,0,368,56v3.46a1.5,1.5,0,0,0,1.48.83C370.52,60.27,371.06,59.39,371.06,57.62Z"/><path class="cls-12" d="M378.61,62.09a4.16,4.16,0,0,1-3-1.14,4,4,0,0,1-1.17-3V57.7a5.09,5.09,0,0,1,.5-2.28,3.56,3.56,0,0,1,1.39-1.55,3.93,3.93,0,0,1,2.06-.54,3.49,3.49,0,0,1,2.73,1.09,4.48,4.48,0,0,1,1,3.1v.93H376.7a2.14,2.14,0,0,0,.66,1.32,2,2,0,0,0,1.4.5,2.44,2.44,0,0,0,2-.94l1.11,1.24a3.41,3.41,0,0,1-1.38,1.12A4.49,4.49,0,0,1,378.61,62.09Zm-.26-6.94a1.42,1.42,0,0,0-1.09.45,2.32,2.32,0,0,0-.53,1.31h3.14v-.18a1.67,1.67,0,0,0-.41-1.17A1.47,1.47,0,0,0,378.35,55.15Z"/><path class="cls-12" d="M388.12,55.6a6.46,6.46,0,0,0-.82-.06,1.66,1.66,0,0,0-1.68.87v5.53h-2.25V53.48h2.13l.06,1a2.11,2.11,0,0,1,1.89-1.16,2.28,2.28,0,0,1,.7.1Z"/><path class="cls-12" d="M393.78,59.6a.74.74,0,0,0-.41-.65,4.69,4.69,0,0,0-1.32-.43c-2-.42-3-1.27-3-2.56a2.32,2.32,0,0,1,.93-1.88,3.78,3.78,0,0,1,2.44-.75,4,4,0,0,1,2.58.76,2.38,2.38,0,0,1,1,2H393.7a1.09,1.09,0,0,0-.32-.8,1.32,1.32,0,0,0-1-.31,1.33,1.33,0,0,0-.89.26.83.83,0,0,0-.31.65.71.71,0,0,0,.36.61,3.81,3.81,0,0,0,1.2.4,9.93,9.93,0,0,1,1.42.37A2.35,2.35,0,0,1,396,59.51a2.2,2.2,0,0,1-1,1.87,4.24,4.24,0,0,1-2.56.71,4.3,4.3,0,0,1-1.88-.38,3.13,3.13,0,0,1-1.3-1,2.45,2.45,0,0,1-.47-1.43h2.14a1.16,1.16,0,0,0,.45.92,1.72,1.72,0,0,0,1.11.32,1.67,1.67,0,0,0,1-.24A.78.78,0,0,0,393.78,59.6Z"/><path class="cls-12" d="M397.08,57.63a5,5,0,0,1,.48-2.24,3.56,3.56,0,0,1,1.4-1.52,4,4,0,0,1,2.11-.54,3.83,3.83,0,0,1,2.79,1.05,4.17,4.17,0,0,1,1.21,2.84l0,.58A4.46,4.46,0,0,1,404,60.92a4.22,4.22,0,0,1-5.83,0,4.47,4.47,0,0,1-1.09-3.19Zm2.26.16a3.2,3.2,0,0,0,.45,1.85,1.64,1.64,0,0,0,2.58,0,3.51,3.51,0,0,0,.46-2,3.17,3.17,0,0,0-.46-1.83,1.51,1.51,0,0,0-1.3-.65,1.47,1.47,0,0,0-1.28.64A3.54,3.54,0,0,0,399.34,57.79Z"/><path class="cls-12" d="M408.55,53.48l.07,1a3,3,0,0,1,2.43-1.13,2.43,2.43,0,0,1,2,.79,3.65,3.65,0,0,1,.68,2.36v5.46h-2.26V56.53a1.5,1.5,0,0,0-.31-1,1.4,1.4,0,0,0-1-.33,1.55,1.55,0,0,0-1.43.82v6h-2.26V53.48Z"/><path class="cls-12" d="M420.34,61.94a2.52,2.52,0,0,1-.23-.76,2.73,2.73,0,0,1-2.13.91,3,3,0,0,1-2.06-.71,2.31,2.31,0,0,1-.82-1.82,2.38,2.38,0,0,1,1-2.06,4.93,4.93,0,0,1,2.88-.73h1v-.48a1.37,1.37,0,0,0-.31-.94,1.18,1.18,0,0,0-.94-.35,1.38,1.38,0,0,0-.9.27,1,1,0,0,0-.32.75h-2.26a2.29,2.29,0,0,1,.45-1.36,3.07,3.07,0,0,1,1.28-1,4.85,4.85,0,0,1,1.86-.35,3.7,3.7,0,0,1,2.48.78,2.74,2.74,0,0,1,.92,2.21V60a4.05,4.05,0,0,0,.34,1.82v.14Zm-1.87-1.57a1.93,1.93,0,0,0,.92-.23,1.44,1.44,0,0,0,.63-.59V58.09h-.85c-1.13,0-1.73.39-1.8,1.18v.13a.89.89,0,0,0,.3.69A1.09,1.09,0,0,0,418.47,60.37Z"/><path class="cls-12" d="M426.4,61.94h-2.27v-12h2.27Z"/><path class="cls-12" d="M436.82,59.6a.74.74,0,0,0-.41-.65,4.69,4.69,0,0,0-1.32-.43c-2-.42-3-1.27-3-2.56a2.32,2.32,0,0,1,.93-1.88,3.78,3.78,0,0,1,2.44-.75,4,4,0,0,1,2.58.76,2.38,2.38,0,0,1,1,2h-2.26a1.09,1.09,0,0,0-.31-.8,1.32,1.32,0,0,0-1-.31,1.33,1.33,0,0,0-.89.26.8.8,0,0,0-.31.65.71.71,0,0,0,.36.61,3.83,3.83,0,0,0,1.19.4,9.75,9.75,0,0,1,1.43.37A2.35,2.35,0,0,1,439,59.51a2.22,2.22,0,0,1-1,1.87,4.24,4.24,0,0,1-2.56.71,4.37,4.37,0,0,1-1.89-.38,3.1,3.1,0,0,1-1.29-1,2.45,2.45,0,0,1-.47-1.43H434a1.16,1.16,0,0,0,.45.92,1.71,1.71,0,0,0,1.11.32,1.67,1.67,0,0,0,1-.24A.78.78,0,0,0,436.82,59.6Z"/><path class="cls-12" d="M448.08,57.79a5.1,5.1,0,0,1-.89,3.13,2.84,2.84,0,0,1-2.39,1.17,2.6,2.6,0,0,1-2.07-.89v4h-2.26V53.48h2.09l.08.83a2.67,2.67,0,0,1,2.14-1,2.86,2.86,0,0,1,2.43,1.15,5.23,5.23,0,0,1,.87,3.19Zm-2.26-.17a3.33,3.33,0,0,0-.42-1.82,1.37,1.37,0,0,0-1.21-.64,1.48,1.48,0,0,0-1.46.82v3.46a1.49,1.49,0,0,0,1.47.83C445.28,60.27,445.82,59.39,445.82,57.62Z"/><path class="cls-12" d="M453.37,62.09a4.16,4.16,0,0,1-3-1.14,4,4,0,0,1-1.17-3V57.7a5.23,5.23,0,0,1,.49-2.28,3.64,3.64,0,0,1,1.4-1.55,3.93,3.93,0,0,1,2.06-.54,3.52,3.52,0,0,1,2.73,1.09,4.47,4.47,0,0,1,1,3.1v.93h-5.38a2,2,0,0,0,.66,1.32,2,2,0,0,0,1.4.5,2.4,2.4,0,0,0,2-.94l1.11,1.24a3.31,3.31,0,0,1-1.37,1.12A4.49,4.49,0,0,1,453.37,62.09Zm-.26-6.94a1.42,1.42,0,0,0-1.09.45,2.39,2.39,0,0,0-.54,1.31h3.14v-.18a1.67,1.67,0,0,0-.4-1.17A1.47,1.47,0,0,0,453.11,55.15Z"/><path class="cls-12" d="M460.2,53.48l.07,1a3,3,0,0,1,2.43-1.13,2.43,2.43,0,0,1,2,.79,3.71,3.71,0,0,1,.68,2.36v5.46h-2.26V56.53a1.45,1.45,0,0,0-.32-1,1.35,1.35,0,0,0-1-.33,1.55,1.55,0,0,0-1.43.82v6h-2.26V53.48Z"/><path class="cls-12" d="M466.73,57.65a5.1,5.1,0,0,1,.89-3.15,2.88,2.88,0,0,1,2.43-1.17,2.61,2.61,0,0,1,2,.92V49.94h2.26v12h-2l-.11-.9A2.65,2.65,0,0,1,470,62.09a2.87,2.87,0,0,1-2.39-1.17A5.29,5.29,0,0,1,466.73,57.65Zm2.26.17a3.29,3.29,0,0,0,.42,1.82,1.33,1.33,0,0,0,1.2.63,1.51,1.51,0,0,0,1.48-.88V56.05a1.51,1.51,0,0,0-1.47-.89C469.54,55.16,469,56.05,469,57.82Z"/><path class="cls-12" d="M476.09,51.3a1.11,1.11,0,0,1,.34-.84,1.25,1.25,0,0,1,.92-.33,1.26,1.26,0,0,1,.92.33,1.18,1.18,0,0,1,0,1.68,1.28,1.28,0,0,1-.92.33,1.3,1.3,0,0,1-.92-.33A1.11,1.11,0,0,1,476.09,51.3Zm2.39,10.64h-2.26V53.48h2.26Z"/><path class="cls-12" d="M482.42,53.48l.07,1a3,3,0,0,1,2.43-1.13,2.44,2.44,0,0,1,2,.79,3.65,3.65,0,0,1,.67,2.36v5.46h-2.25V56.53a1.45,1.45,0,0,0-.32-1,1.36,1.36,0,0,0-1-.33,1.57,1.57,0,0,0-1.43.82v6H480.3V53.48Z"/><path class="cls-12" d="M489,57.65a5,5,0,0,1,.92-3.13,3,3,0,0,1,2.5-1.19,2.62,2.62,0,0,1,2.16,1l.1-.8h2v8.18a3.58,3.58,0,0,1-.5,1.93,3.33,3.33,0,0,1-1.42,1.25,5.07,5.07,0,0,1-2.14.43,4.59,4.59,0,0,1-1.81-.38,3.14,3.14,0,0,1-1.34-1l1-1.38a2.66,2.66,0,0,0,2.05.95,2,2,0,0,0,1.4-.48,1.83,1.83,0,0,0,.5-1.37v-.45a2.61,2.61,0,0,1-2.06.88,3,3,0,0,1-2.46-1.19,4.93,4.93,0,0,1-.94-3.16Zm2.25.17a3.08,3.08,0,0,0,.47,1.8,1.43,1.43,0,0,0,1.26.65,1.56,1.56,0,0,0,1.48-.77V55.94a1.56,1.56,0,0,0-1.46-.78,1.48,1.48,0,0,0-1.28.67A3.48,3.48,0,0,0,491.23,57.82Z"/><path class="cls-12" d="M503,59.6a.74.74,0,0,0-.41-.65,4.93,4.93,0,0,0-1.32-.43c-2-.42-3-1.27-3-2.56a2.31,2.31,0,0,1,.94-1.88,3.76,3.76,0,0,1,2.44-.75,4,4,0,0,1,2.57.76,2.36,2.36,0,0,1,1,2h-2.26a1.09,1.09,0,0,0-.31-.8,1.34,1.34,0,0,0-1-.31,1.3,1.3,0,0,0-.88.26.8.8,0,0,0-.31.65.7.7,0,0,0,.35.61,4,4,0,0,0,1.2.4,9.59,9.59,0,0,1,1.42.37,2.35,2.35,0,0,1,1.79,2.28,2.21,2.21,0,0,1-1,1.87,4.26,4.26,0,0,1-2.56.71,4.37,4.37,0,0,1-1.89-.38,3.1,3.1,0,0,1-1.29-1,2.38,2.38,0,0,1-.47-1.43h2.14a1.18,1.18,0,0,0,.44.92,1.74,1.74,0,0,0,1.11.32,1.65,1.65,0,0,0,1-.24A.76.76,0,0,0,503,59.6Z"/><path class="cls-12" d="M74.59,80.15v3.47h-.72V75.09h2.91a3.07,3.07,0,0,1,2.1.68,2.38,2.38,0,0,1,.77,1.87,2.34,2.34,0,0,1-.74,1.85,3.13,3.13,0,0,1-2.15.66Zm0-.61h2.19a2.32,2.32,0,0,0,1.6-.5,1.77,1.77,0,0,0,.55-1.39,1.85,1.85,0,0,0-.55-1.41,2.19,2.19,0,0,0-1.55-.54H74.59Z"/><path class="cls-12" d="M87.65,79.53h-4V83h4.59v.61H82.94V75.09h5.28v.61H83.66v3.22h4Z"/><path class="cls-12" d="M94.64,80.07H92.16v3.55h-.73V75.09H94.2a3.16,3.16,0,0,1,2.13.66,2.29,2.29,0,0,1,.77,1.85,2.32,2.32,0,0,1-.48,1.45,2.49,2.49,0,0,1-1.29.86l2.14,3.64v.07H96.7Zm-2.48-.61h2.21a2.08,2.08,0,0,0,1.46-.52,1.94,1.94,0,0,0,0-2.74,2.39,2.39,0,0,0-1.61-.5h-2Z"/><path class="cls-12" d="M105.57,81.52a1.39,1.39,0,0,0-.49-1.12,5.48,5.48,0,0,0-1.83-.78,6.57,6.57,0,0,1-1.93-.81,1.93,1.93,0,0,1-.87-1.63,1.88,1.88,0,0,1,.81-1.59,3.28,3.28,0,0,1,2.06-.62,3.43,3.43,0,0,1,1.52.33,2.52,2.52,0,0,1,1,.92,2.43,2.43,0,0,1,.37,1.3h-.73a1.77,1.77,0,0,0-.6-1.4,2.3,2.3,0,0,0-1.6-.54,2.55,2.55,0,0,0-1.56.44,1.35,1.35,0,0,0-.58,1.14,1.27,1.27,0,0,0,.52,1.06,4.71,4.71,0,0,0,1.67.73,7.94,7.94,0,0,1,1.74.65,2.42,2.42,0,0,1,.89.81,2,2,0,0,1,.3,1.1,1.94,1.94,0,0,1-.81,1.62,3.38,3.38,0,0,1-2.12.61,4.31,4.31,0,0,1-1.66-.32,2.56,2.56,0,0,1-1.14-.91,2.31,2.31,0,0,1-.39-1.33h.72a1.71,1.71,0,0,0,.68,1.43,2.82,2.82,0,0,0,1.79.52,2.68,2.68,0,0,0,1.6-.44A1.37,1.37,0,0,0,105.57,81.52Z"/><path class="cls-12" d="M115.84,79.82a5,5,0,0,1-.41,2.07,3.13,3.13,0,0,1-1.16,1.37,3.22,3.22,0,0,1-1.75.48,3,3,0,0,1-2.41-1.07,4.23,4.23,0,0,1-.92-2.89v-.87a4.84,4.84,0,0,1,.41-2.07,3.13,3.13,0,0,1,1.17-1.38,3.08,3.08,0,0,1,1.74-.49,3.18,3.18,0,0,1,1.74.48,3.05,3.05,0,0,1,1.16,1.34,4.87,4.87,0,0,1,.43,2Zm-.72-.93a3.8,3.8,0,0,0-.7-2.41,2.52,2.52,0,0,0-3.81,0,3.82,3.82,0,0,0-.7,2.45v.89a3.75,3.75,0,0,0,.7,2.4,2.51,2.51,0,0,0,3.82,0,3.87,3.87,0,0,0,.69-2.44Z"/><path class="cls-12" d="M125.69,83.62H125l-4.9-7.3v7.3h-.73V75.09h.73L125,82.4V75.09h.72Z"/><path class="cls-12" d="M134.24,81.23h-3.87l-.88,2.39h-.75L132,75.09h.69l3.23,8.53h-.75Zm-3.65-.61H134L132.3,76Z"/><path class="cls-12" d="M139.54,83h4.21v.61h-4.94V75.09h.73Z"/><path class="cls-12" d="M156.24,81.52a1.36,1.36,0,0,0-.5-1.12,5.41,5.41,0,0,0-1.82-.78,6.45,6.45,0,0,1-1.93-.81,1.93,1.93,0,0,1-.87-1.63,1.88,1.88,0,0,1,.81-1.59A3.28,3.28,0,0,1,154,75a3.43,3.43,0,0,1,1.52.33,2.58,2.58,0,0,1,1,.92,2.43,2.43,0,0,1,.37,1.3h-.73a1.77,1.77,0,0,0-.6-1.4,2.3,2.3,0,0,0-1.6-.54,2.51,2.51,0,0,0-1.56.44,1.35,1.35,0,0,0-.58,1.14,1.27,1.27,0,0,0,.52,1.06A4.71,4.71,0,0,0,154,79a8.37,8.37,0,0,1,1.74.65,2.42,2.42,0,0,1,.89.81,2,2,0,0,1,.3,1.1,1.94,1.94,0,0,1-.81,1.62,3.4,3.4,0,0,1-2.12.61,4.27,4.27,0,0,1-1.66-.32,2.56,2.56,0,0,1-1.14-.91,2.31,2.31,0,0,1-.39-1.33h.72a1.71,1.71,0,0,0,.68,1.43,2.8,2.8,0,0,0,1.79.52,2.68,2.68,0,0,0,1.6-.44A1.37,1.37,0,0,0,156.24,81.52Z"/><path class="cls-12" d="M160.92,80.15v3.47h-.72V75.09h2.91a3.1,3.1,0,0,1,2.1.68,2.38,2.38,0,0,1,.77,1.87,2.34,2.34,0,0,1-.74,1.85,3.14,3.14,0,0,1-2.15.66Zm0-.61h2.19a2.32,2.32,0,0,0,1.6-.5,1.81,1.81,0,0,0,.55-1.39,1.88,1.88,0,0,0-.55-1.41,2.21,2.21,0,0,0-1.56-.54h-2.23Z"/><path class="cls-12" d="M174,79.53h-4V83h4.59v.61h-5.31V75.09h5.28v.61H170v3.22h4Z"/><path class="cls-12" d="M184.13,83.62h-.72l-4.91-7.3v7.3h-.72V75.09h.72l4.91,7.31V75.09h.72Z"/><path class="cls-12" d="M188,83.62V75.09h2.39a3.68,3.68,0,0,1,1.88.48,3.31,3.31,0,0,1,1.3,1.37,4.29,4.29,0,0,1,.46,2v.79a4.31,4.31,0,0,1-.46,2,3.28,3.28,0,0,1-1.3,1.36,3.84,3.84,0,0,1-1.93.48Zm.73-7.92V83h1.61a2.79,2.79,0,0,0,2.16-.89,3.43,3.43,0,0,0,.82-2.42V79a3.41,3.41,0,0,0-.8-2.36,2.73,2.73,0,0,0-2.12-.89Z"/><path class="cls-12" d="M198.39,83.62h-.72V75.09h.72Z"/><path class="cls-12" d="M208.74,83.62H208l-4.91-7.3v7.3h-.72V75.09h.72L208,82.4V75.09h.72Z"/><path class="cls-12" d="M218.74,82.61a2.45,2.45,0,0,1-1.17.83,5.05,5.05,0,0,1-1.79.3,3.32,3.32,0,0,1-1.78-.48,3.21,3.21,0,0,1-1.21-1.36,4.51,4.51,0,0,1-.43-2V78.81a4.17,4.17,0,0,1,.89-2.81,3.06,3.06,0,0,1,2.41-1,3.22,3.22,0,0,1,2.12.67,2.77,2.77,0,0,1,1,1.85H218a2.21,2.21,0,0,0-.77-1.42,2.46,2.46,0,0,0-1.58-.49,2.36,2.36,0,0,0-1.9.85,3.73,3.73,0,0,0-.69,2.4v1a4.22,4.22,0,0,0,.33,1.72,2.61,2.61,0,0,0,1,1.16,2.52,2.52,0,0,0,1.42.41,4.08,4.08,0,0,0,1.6-.29,1.72,1.72,0,0,0,.64-.45V80.18h-2.29v-.61h3Z"/><path class="cls-12" d="M227.3,81.52a1.39,1.39,0,0,0-.5-1.12,5.41,5.41,0,0,0-1.82-.78,6.53,6.53,0,0,1-1.94-.81,1.93,1.93,0,0,1-.87-1.63,1.88,1.88,0,0,1,.81-1.59A3.3,3.3,0,0,1,225,75a3.4,3.4,0,0,1,1.52.33,2.52,2.52,0,0,1,1,.92,2.35,2.35,0,0,1,.37,1.3h-.73a1.8,1.8,0,0,0-.59-1.4,2.32,2.32,0,0,0-1.61-.54,2.55,2.55,0,0,0-1.56.44,1.35,1.35,0,0,0-.58,1.14,1.29,1.29,0,0,0,.52,1.06,4.79,4.79,0,0,0,1.67.73,7.94,7.94,0,0,1,1.74.65,2.35,2.35,0,0,1,.89.81,2,2,0,0,1,.3,1.1,2,2,0,0,1-.8,1.62,3.43,3.43,0,0,1-2.13.61,4.22,4.22,0,0,1-1.65-.32,2.59,2.59,0,0,1-1.15-.91,2.38,2.38,0,0,1-.38-1.33h.72a1.7,1.7,0,0,0,.67,1.43,2.84,2.84,0,0,0,1.79.52,2.66,2.66,0,0,0,1.6-.44A1.38,1.38,0,0,0,227.3,81.52Z"/><path class="cls-12" d="M236.73,83.62H236V75.09h.72Z"/><path class="cls-12" d="M247.08,83.62h-.72l-4.91-7.3v7.3h-.72V75.09h.72l4.91,7.31V75.09h.72Z"/><path class="cls-12" d="M255.08,76.73a1.74,1.74,0,0,1,.48-1.26,1.68,1.68,0,0,1,2.39,0,1.79,1.79,0,0,1,.47,1.3v.41a1.76,1.76,0,0,1-.46,1.25,1.54,1.54,0,0,1-1.19.5,1.6,1.6,0,0,1-1.2-.49,1.79,1.79,0,0,1-.49-1.3Zm.57.45a1.31,1.31,0,0,0,.31.9,1,1,0,0,0,.81.35,1,1,0,0,0,.79-.35,1.39,1.39,0,0,0,.3-.92v-.43a1.33,1.33,0,0,0-.31-.9,1,1,0,0,0-.8-.36,1,1,0,0,0-.79.35,1.42,1.42,0,0,0-.31.94ZM257,82.91l-.44-.28L260.72,76l.44.29Zm2.39-1.38a1.77,1.77,0,0,1,.47-1.26,1.58,1.58,0,0,1,1.19-.5,1.61,1.61,0,0,1,1.2.5,1.78,1.78,0,0,1,.48,1.3V82a1.77,1.77,0,0,1-.47,1.26,1.58,1.58,0,0,1-1.19.5,1.61,1.61,0,0,1-1.2-.5,1.77,1.77,0,0,1-.48-1.29Zm.56.46a1.36,1.36,0,0,0,.3.9,1.06,1.06,0,0,0,.82.35,1,1,0,0,0,.8-.35,1.46,1.46,0,0,0,.29-.93v-.43a1.33,1.33,0,0,0-.3-.91,1,1,0,0,0-.81-.34,1,1,0,0,0-.79.34,1.32,1.32,0,0,0-.31.93Z"/></svg>