<svg xmlns="http://www.w3.org/2000/svg" xml:space="preserve" id="Layer_1" x="0" y="0" style="enable-background:new 0 0 427 275.7" version="1.1" viewBox="0 0 427 275.7"><style>.st1{fill:#333}.st2{font-family:&quot;Roboto&quot;,sans-serif}.st3{font-size:7px}.st4{font-family:&quot;Roboto&quot;,sans-serif;font-weight:300}.st5,.st6,.st7,.st8{fill:none;stroke-miterlimit:10}.st5{stroke:#e6e7e8;stroke-width:.25}.st6,.st7,.st8{stroke:#6aa683}.st7,.st8{stroke:#be5c60}.st8{stroke:gray;stroke-width:.25}</style><path d="M41 235.3h364" style="fill:none;stroke:#4d4d4d;stroke-width:.7087;stroke-miterlimit:10"/><text class="st1 st2 st3" transform="translate(72.776 248.383)">2007</text><text class="st1 st4 st3" transform="translate(100.828 248.382)">Mar</text><text class="st1 st4 st3" transform="translate(53.232 247.633)">Apr</text><text class="st1 st4 st3" transform="translate(124.511 248.383)">Jun</text><text class="st1 st4 st3" transform="translate(149.068 248.382)">Jul</text><text class="st1 st4 st3" transform="translate(218.859 248.383)">Jun</text><text class="st1 st4 st3" transform="translate(243.415 248.382)">Jul</text><text class="st1 st4 st3" transform="translate(171.142 248.382)">Aug</text><text class="st1 st4 st3" transform="translate(289.4 248.383)">Aug</text><text class="st1 st2 st3" transform="translate(193.646 248.383)">2008</text><text class="st1 st2 st3" transform="translate(263.316 248.383)">2009</text><text class="st1 st2 st3" transform="translate(310.868 248.383)">2010</text><text class="st1 st2 st3" transform="translate(357.027 248.383)">2016</text><text class="st1 st2 st3" transform="translate(381.074 248.383)">2017</text><text class="st1 st2 st3" transform="translate(334.2 248.383)">2013</text><text class="st1 st4 st3" transform="translate(17.637 163.393)">400.00</text><text class="st1 st4 st3" transform="translate(17.637 199.326)">200.00</text><text class="st1 st4 st3" transform="translate(17.637 217.223)">100.00</text><text class="st1 st4 st3" transform="translate(17.638 181.118)">300.00</text><text class="st1 st4 st3" transform="translate(17.637 145.68)">500.00</text><text class="st1 st4 st3" transform="translate(17.637 109.86)">700.00</text><text class="st1 st4 st3" transform="translate(17.638 74.139)">900.00</text><text class="st1 st4 st3" transform="translate(13.758 38.212)">1100.00</text><text class="st1 st4 st3" transform="translate(35.431 235.199)">0</text><text class="st1 st4 st3" transform="translate(17.637 127.52)">600.00</text><text class="st1 st4 st3" transform="translate(17.637 91.965)">800.00</text><text class="st1 st4 st3" transform="translate(13.556 56.41)">1000.00</text><text class="st1 st4 st3" transform="translate(13.758 20.263)">1200.00</text><path d="M41 199.4h364M41 163.6h364M41 127.8h364M41 91.9h364M41 56.1h364M41 20.3h364M41 38.2h364M41 74h364M41 109.9h364M41 145.7h364M41 181.5h364M41 217.4h364" class="st5"/><path d="M389.5 120.9V27.4h5.5" class="st6"/><path d="M384.5 131.9v11.5h5v-21.5" class="st7"/><path d="M369.5 134.9v-13.5h5v9h5v-8h5v8.5" class="st6"/><path d="M364.5 146.9v2.5h5v-13.5" class="st7"/><path d="M339.5 158.9v-9.5h5v7h5v-27h5v16h5v-9h5v9.5" class="st6"/><path d="M294.5 132.9v50.5h5v-36h5v14h5v-14h5v20h5v-9h5v17h5v-15h5v13h5v-13.5" class="st7"/><path d="M289.5 121.9v-13.5h5v23.5" class="st6"/><path d="M274.5 114.9v16.5h5v-8h5v8h5v-8.5" class="st7"/><path d="M249.5 118.9V99.4h5v14h5v-13h5v8h5v-8h5v13.5" class="st6"/><path d="M244 135.4h5.5v-15.5" class="st7"/><path d="M229.5 169.9v-45.5h5v9h5v-13h5v13.5" class="st6"/><path d="M214.5 178.9v18.5h5v-26h5v11h5v-11.5" class="st7"/><path d="M209.5 167.9v-2.5h5v12.5" class="st6"/><path d="M194.5 178.9v7.5h5v-17h5v8h5v-8.5" class="st7"/><path d="M179.5 179.9v-11.5h5v9h5v-32h5v32.5" class="st6"/><path d="M154.5 146.9v9.5h5v-17h5v62h5v-20h5v12h5v-12.5" class="st7"/><path d="M149.5 129.9v-2.5h5v18.5" class="st6"/><path d="M114 115.4h5.5v-9h5v21h5v-12h5v28h5v-12h5v14h5v-14.5" class="st7"/><path d="M109.5 99.9V81.4h5v32.5" class="st6"/><path d="M94.5 98.9v10.5h5v-8h5v12h5v-12.5" class="st7"/><path d="M79.5 99.9V55.4h5v42h5v-23h5v23.5" class="st6"/><path d="M64.5 108.9v26.5h5v-34h5v13h5v-13.5" class="st7"/><path d="M54 107.4h5.5v-17h5v17.5" class="st6"/><path d="M224.5 235.8v3M177.5 235.8v3M130.5 235.8v3M83.5 235.8v3M271.5 235.8v3M318.5 235.8v3M365.5 235.8v3M389 235.8v3M342 235.8v3M295 235.8v3M248 235.8v3M201 235.8v3M154 235.8v3M107 235.8v3M60 235.8v3" class="st8"/></svg>