<svg class="kagiChartClass" viewBox="0 0 800 500" fill="#000000" width="690" height="493" style="background: rgb(255, 255, 255);" xmlns="http://www.w3.org/2000/svg"><g transform="translate(50,75)"><path class="line" d="M18.666666666666668,190.63420763893967L18.666666666666668,210.35058643385995L28,210.35058643385995L28,190.63420763893967" style="stroke-width: 6; stroke: rgb(255, 67, 46);"></path><path class="line" d="M28,190.63420763893967L28,173.47840865881344L37.333333333333336,173.47840865881344L37.333333333333336,210.35058643385995" style="stroke-width: 6; stroke: rgb(163, 255, 102);"></path><path class="line" d="M37.333333333333336,210.35058643385995L37.333333333333336,212.01496779446842L46.666666666666664,212.01496779446842L46.666666666666664,173.47840865881344" style="stroke-width: 6; stroke: rgb(255, 67, 46);"></path><path class="line" d="M46.666666666666664,173.47840865881344L46.666666666666664,166.50088915689494L56,166.50088915689494L56,191.85049617387276L65.33333333333334,191.85049617387276L65.33333333333334,39.11266750909329L74.66666666666667,39.11266750909329L74.66666666666667,107.99193293362887L84,107.99193293362887L84,68.11108251811288L93.33333333333333,68.11108251811288L93.33333333333333,101.52648842559701L102.66666666666667,101.52648842559701L102.66666666666667,75.28068935585102L112,75.28068935585102L112,91.9243621307503L121.33333333333334,91.9243621307503L121.33333333333334,41.35320205306276L130.66666666666669,41.35320205306276L130.66666666666669,89.3637823159561L140,89.3637823159561L140,65.03842770943207L149.33333333333334,65.03842770943207L149.33333333333334,89.3637823159561" style="stroke-width: 6; stroke: rgb(163, 255, 102);"></path><path class="line" d="M149.33333333333334,89.3637823159561L149.33333333333334,90.2599807701418L158.66666666666666,90.2599807701418L158.66666666666666,65.03842770943207" style="stroke-width: 6; stroke: rgb(255, 67, 46);"></path><path class="line" d="M158.66666666666666,65.03842770943207L158.66666666666666,42.05736438276892L168,42.05736438276892L168,90.2599807701418" style="stroke-width: 6; stroke: rgb(163, 255, 102);"></path><path class="line" d="M168,90.2599807701418L168,121.8829961706721L177.33333333333334,121.8829961706721L177.33333333333334,45.065941001975524L186.66666666666666,45.065941001975524L186.66666666666666,156.64269975943475L196.00000000000003,156.64269975943475L196.00000000000003,124.12348590471882L205.33333333333334,124.12348590471882L205.33333333333334,164.00433632023478L214.66666666666666,164.00433632023478L214.66666666666666,140.5110955770046L224,140.5110955770046L224,230.38700409818756L233.33333333333331,230.38700409818756L233.33333333333331,165.28460062196174L242.66666666666669,165.28460062196174L242.66666666666669,200.94049626349263L252,200.94049626349263L252,171.36597928245234L261.33333333333337,171.36597928245234L261.33333333333337,191.0183246978211L270.6666666666667,191.0183246978211L270.6666666666667,171.36597928245234" style="stroke-width: 6; stroke: rgb(255, 67, 46);"></path><path class="line" d="M270.6666666666667,171.36597928245234L270.6666666666667,145.31215872442797L280,145.31215872442797L280,191.0183246978211" style="stroke-width: 6; stroke: rgb(163, 255, 102);"></path><path class="line" d="M280,191.0183246978211L280,192.36261597768217L289.3333333333333,192.36261597768217L289.3333333333333,145.31215872442797" style="stroke-width: 6; stroke: rgb(255, 67, 46);"></path><path class="line" d="M289.3333333333333,145.31215872442797L289.3333333333333,128.2203867224359L298.6666666666667,128.2203867224359L298.6666666666667,157.21880173145541L308,157.21880173145541L308,105.87945234592759L317.3333333333333,105.87945234592759L317.3333333333333,157.21880173145541" style="stroke-width: 6; stroke: rgb(163, 255, 102);"></path><path class="line" d="M317.3333333333333,157.21880173145541L317.3333333333333,171.36597928245234L326.6666666666667,171.36597928245234L326.6666666666667,126.81206846444078L336,126.81206846444078L336,153.05791874552708L345.3333333333333,153.05791874552708L345.3333333333333,128.5404768031833L354.6666666666667,128.5404768031833L354.6666666666667,211.75890469185495L364,211.75890469185495L364,194.41106958724941L373.3333333333333,194.41106958724941L373.3333333333333,273.0844974311112L382.66666666666663,273.0844974311112L382.66666666666663,250.61550909833477L392.00000000000006,250.61550909833477L392.00000000000006,267.0671521501721L401.33333333333337,267.0671521501721L401.33333333333337,253.4321456143248L410.6666666666667,253.4321456143248L410.6666666666667,274.0446716520906L420,274.0446716520906L420,253.4321456143248" style="stroke-width: 6; stroke: rgb(255, 67, 46);"></path><path class="line" d="M420,253.4321456143248L420,241.2694459061014L429.3333333333333,241.2694459061014L429.3333333333333,274.0446716520906" style="stroke-width: 6; stroke: rgb(163, 255, 102);"></path><path class="line" d="M429.3333333333333,274.0446716520906L429.3333333333333,292.48078614528396L438.6666666666667,292.48078614528396L438.6666666666667,267.38724223091964L448,267.38724223091964L448,285.6952515565047L457.3333333333333,285.6952515565047L457.3333333333333,272.124278400209L466.66666666666663,272.124278400209L466.66666666666663,290.6883956383302L476.00000000000006,290.6883956383302L476.00000000000006,272.124278400209" style="stroke-width: 6; stroke: rgb(255, 67, 46);"></path><path class="line" d="M476.00000000000006,272.124278400209L476.00000000000006,262.3940917476766L485.33333333333337,262.3940917476766L485.33333333333337,284.3509602766436L494.6666666666667,284.3509602766436L494.6666666666667,179.17566385900497L504,179.17566385900497L504,195.69133388897637L513.3333333333333,195.69133388897637L513.3333333333333,172.90230668679277L522.6666666666667,172.90230668679277L522.6666666666667,195.69133388897637" style="stroke-width: 6; stroke: rgb(163, 255, 102);"></path><path class="line" d="M522.6666666666667,195.69133388897637L522.6666666666667,312.19716494020435L532,312.19716494020435L532,247.73483920279307L541.3333333333334,247.73483920279307L541.3333333333334,301.3147231322904L550.6666666666666,301.3147231322904L550.6666666666666,250.61550909833477L560,250.61550909833477L560,271.67617917311605L569.3333333333334,271.67617917311605L569.3333333333334,250.61550909833477" style="stroke-width: 6; stroke: rgb(255, 67, 46);"></path><path class="line" d="M569.3333333333334,250.61550909833477L569.3333333333334,189.67398860803743L578.6666666666666,189.67398860803743L578.6666666666666,211.95094081633442L588,211.95094081633442L588,196.84358904435803L597.3333333333334,196.84358904435803L597.3333333333334,211.95094081633442" style="stroke-width: 6; stroke: rgb(163, 255, 102);"></path><path class="line" d="M597.3333333333334,211.95094081633442L597.3333333333334,230.3230283313937L606.6666666666667,230.3230283313937L606.6666666666667,196.84358904435803" style="stroke-width: 6; stroke: rgb(255, 67, 46);"></path><path class="line" d="M606.6666666666667,196.84358904435803L606.6666666666667,150.6893750552123L616,150.6893750552123L616,172.3901804815658L625.3333333333334,172.3901804815658L625.3333333333334,133.5335760750861L634.6666666666666,133.5335760750861L634.6666666666666,172.3901804815658" style="stroke-width: 6; stroke: rgb(163, 255, 102);"></path><path class="line" d="M634.6666666666666,172.3901804815658L634.6666666666666,193.7709406370947L644,193.7709406370947L644,179.55978091788654L653.3333333333334,179.55978091788654L653.3333333333334,213.80735830142228L662.6666666666666,213.80735830142228L662.6666666666666,179.55978091788654" style="stroke-width: 6; stroke: rgb(255, 67, 46);"></path><path class="line" d="M662.6666666666666,179.55978091788654L662.6666666666666,174.82269993867442L672,174.82269993867442L672,192.04252589693465L681.3333333333334,192.04252589693465L681.3333333333334,12.802835059795651" style="stroke-width: 6; stroke: rgb(163, 255, 102);"></path><text transform="translate(18.666666666666668,340) rotate(-45)" text-anchor="end" dy="3" dx="5">01-01-15</text><text transform="translate(28,340) rotate(-45)" text-anchor="end" dy="3" dx="5">08-01-15</text><text transform="translate(28,340) rotate(-45)" text-anchor="end" dy="3" dx="5">08-01-15</text><text transform="translate(37.333333333333336,340) rotate(-45)" text-anchor="end" dy="3" dx="5">15-01-15</text><text transform="translate(37.333333333333336,340) rotate(-45)" text-anchor="end" dy="3" dx="5">15-01-15</text><text transform="translate(46.666666666666664,340) rotate(-45)" text-anchor="end" dy="3" dx="5">25-01-15</text><text transform="translate(46.666666666666664,340) rotate(-45)" text-anchor="end" dy="3" dx="5">25-01-15</text><text transform="translate(149.33333333333334,340) rotate(-45)" text-anchor="end" dy="3" dx="5">05-05-15</text><text transform="translate(149.33333333333334,340) rotate(-45)" text-anchor="end" dy="3" dx="5">05-05-15</text><text transform="translate(158.66666666666666,340) rotate(-45)" text-anchor="end" dy="3" dx="5">21-05-15</text><text transform="translate(158.66666666666666,340) rotate(-45)" text-anchor="end" dy="3" dx="5">21-05-15</text><text transform="translate(168,340) rotate(-45)" text-anchor="end" dy="3" dx="5">08-07-15</text><text transform="translate(168,340) rotate(-45)" text-anchor="end" dy="3" dx="5">08-07-15</text><text transform="translate(270.6666666666667,340) rotate(-45)" text-anchor="end" dy="3" dx="5">15-09-15</text><text transform="translate(270.6666666666667,340) rotate(-45)" text-anchor="end" dy="3" dx="5">15-09-15</text><text transform="translate(280,340) rotate(-45)" text-anchor="end" dy="3" dx="5">28-09-15</text><text transform="translate(280,340) rotate(-45)" text-anchor="end" dy="3" dx="5">28-09-15</text><text transform="translate(289.3333333333333,340) rotate(-45)" text-anchor="end" dy="3" dx="5">22-10-15</text><text transform="translate(289.3333333333333,340) rotate(-45)" text-anchor="end" dy="3" dx="5">22-10-15</text><text transform="translate(317.3333333333333,340) rotate(-45)" text-anchor="end" dy="3" dx="5">12-11-15</text><text transform="translate(317.3333333333333,340) rotate(-45)" text-anchor="end" dy="3" dx="5">12-11-15</text><text transform="translate(420,340) rotate(-45)" text-anchor="end" dy="3" dx="5">21-01-16</text><text transform="translate(420,340) rotate(-45)" text-anchor="end" dy="3" dx="5">21-01-16</text><text transform="translate(429.3333333333333,340) rotate(-45)" text-anchor="end" dy="3" dx="5">26-01-16</text><text transform="translate(429.3333333333333,340) rotate(-45)" text-anchor="end" dy="3" dx="5">26-01-16</text><text transform="translate(476.00000000000006,340) rotate(-45)" text-anchor="end" dy="3" dx="5">16-02-16</text><text transform="translate(476.00000000000006,340) rotate(-45)" text-anchor="end" dy="3" dx="5">16-02-16</text><text transform="translate(522.6666666666667,340) rotate(-45)" text-anchor="end" dy="3" dx="5">11-05-16</text><text transform="translate(522.6666666666667,340) rotate(-45)" text-anchor="end" dy="3" dx="5">11-05-16</text><text transform="translate(569.3333333333334,340) rotate(-45)" text-anchor="end" dy="3" dx="5">14-08-16</text><text transform="translate(569.3333333333334,340) rotate(-45)" text-anchor="end" dy="3" dx="5">14-08-16</text><text transform="translate(597.3333333333334,340) rotate(-45)" text-anchor="end" dy="3" dx="5">08-09-16</text><text transform="translate(597.3333333333334,340) rotate(-45)" text-anchor="end" dy="3" dx="5">08-09-16</text><text transform="translate(606.6666666666667,340) rotate(-45)" text-anchor="end" dy="3" dx="5">14-09-16</text><text transform="translate(606.6666666666667,340) rotate(-45)" text-anchor="end" dy="3" dx="5">14-09-16</text><text transform="translate(634.6666666666666,340) rotate(-45)" text-anchor="end" dy="3" dx="5">03-11-16</text><text transform="translate(634.6666666666666,340) rotate(-45)" text-anchor="end" dy="3" dx="5">03-11-16</text><text transform="translate(662.6666666666666,340) rotate(-45)" text-anchor="end" dy="3" dx="5">21-11-16</text><text transform="translate(662.6666666666666,340) rotate(-45)" text-anchor="end" dy="3" dx="5">21-11-16</text><text transform="translate(681.3333333333334,340) rotate(-45)" text-anchor="end" dy="3" dx="5">21-02-17</text><circle class="break_points" cx="18.666666666666668" cy="190.63420763893967" r="2" style="fill: rgb(17, 0, 255);"></circle><circle class="break_points" cx="28" cy="190.63420763893967" r="2" style="fill: rgb(17, 0, 255);"></circle><circle class="break_points" cx="28" cy="190.63420763893967" r="2" style="fill: rgb(17, 0, 255);"></circle><circle class="break_points" cx="37.333333333333336" cy="210.35058643385995" r="2" style="fill: rgb(17, 0, 255);"></circle><circle class="break_points" cx="37.333333333333336" cy="210.35058643385995" r="2" style="fill: rgb(17, 0, 255);"></circle><circle class="break_points" cx="46.666666666666664" cy="173.47840865881344" r="2" style="fill: rgb(17, 0, 255);"></circle><circle class="break_points" cx="46.666666666666664" cy="173.47840865881344" r="2" style="fill: rgb(17, 0, 255);"></circle><circle class="break_points" cx="149.33333333333334" cy="89.3637823159561" r="2" style="fill: rgb(17, 0, 255);"></circle><circle class="break_points" cx="149.33333333333334" cy="89.3637823159561" r="2" style="fill: rgb(17, 0, 255);"></circle><circle class="break_points" cx="158.66666666666666" cy="65.03842770943207" r="2" style="fill: rgb(17, 0, 255);"></circle><circle class="break_points" cx="158.66666666666666" cy="65.03842770943207" r="2" style="fill: rgb(17, 0, 255);"></circle><circle class="break_points" cx="168" cy="90.2599807701418" r="2" style="fill: rgb(17, 0, 255);"></circle><circle class="break_points" cx="168" cy="90.2599807701418" r="2" style="fill: rgb(17, 0, 255);"></circle><circle class="break_points" cx="270.6666666666667" cy="171.36597928245234" r="2" style="fill: rgb(17, 0, 255);"></circle><circle class="break_points" cx="270.6666666666667" cy="171.36597928245234" r="2" style="fill: rgb(17, 0, 255);"></circle><circle class="break_points" cx="280" cy="191.0183246978211" r="2" style="fill: rgb(17, 0, 255);"></circle><circle class="break_points" cx="280" cy="191.0183246978211" r="2" style="fill: rgb(17, 0, 255);"></circle><circle class="break_points" cx="289.3333333333333" cy="145.31215872442797" r="2" style="fill: rgb(17, 0, 255);"></circle><circle class="break_points" cx="289.3333333333333" cy="145.31215872442797" r="2" style="fill: rgb(17, 0, 255);"></circle><circle class="break_points" cx="317.3333333333333" cy="157.21880173145541" r="2" style="fill: rgb(17, 0, 255);"></circle><circle class="break_points" cx="317.3333333333333" cy="157.21880173145541" r="2" style="fill: rgb(17, 0, 255);"></circle><circle class="break_points" cx="420" cy="253.4321456143248" r="2" style="fill: rgb(17, 0, 255);"></circle><circle class="break_points" cx="420" cy="253.4321456143248" r="2" style="fill: rgb(17, 0, 255);"></circle><circle class="break_points" cx="429.3333333333333" cy="274.0446716520906" r="2" style="fill: rgb(17, 0, 255);"></circle><circle class="break_points" cx="429.3333333333333" cy="274.0446716520906" r="2" style="fill: rgb(17, 0, 255);"></circle><circle class="break_points" cx="476.00000000000006" cy="272.124278400209" r="2" style="fill: rgb(17, 0, 255);"></circle><circle class="break_points" cx="476.00000000000006" cy="272.124278400209" r="2" style="fill: rgb(17, 0, 255);"></circle><circle class="break_points" cx="522.6666666666667" cy="195.69133388897637" r="2" style="fill: rgb(17, 0, 255);"></circle><circle class="break_points" cx="522.6666666666667" cy="195.69133388897637" r="2" style="fill: rgb(17, 0, 255);"></circle><circle class="break_points" cx="569.3333333333334" cy="250.61550909833477" r="2" style="fill: rgb(17, 0, 255);"></circle><circle class="break_points" cx="569.3333333333334" cy="250.61550909833477" r="2" style="fill: rgb(17, 0, 255);"></circle><circle class="break_points" cx="597.3333333333334" cy="211.95094081633442" r="2" style="fill: rgb(17, 0, 255);"></circle><circle class="break_points" cx="597.3333333333334" cy="211.95094081633442" r="2" style="fill: rgb(17, 0, 255);"></circle><circle class="break_points" cx="606.6666666666667" cy="196.84358904435803" r="2" style="fill: rgb(17, 0, 255);"></circle><circle class="break_points" cx="606.6666666666667" cy="196.84358904435803" r="2" style="fill: rgb(17, 0, 255);"></circle><circle class="break_points" cx="634.6666666666666" cy="172.3901804815658" r="2" style="fill: rgb(17, 0, 255);"></circle><circle class="break_points" cx="634.6666666666666" cy="172.3901804815658" r="2" style="fill: rgb(17, 0, 255);"></circle><circle class="break_points" cx="662.6666666666666" cy="179.55978091788654" r="2" style="fill: rgb(17, 0, 255);"></circle><circle class="break_points" cx="662.6666666666666" cy="179.55978091788654" r="2" style="fill: rgb(17, 0, 255);"></circle><circle class="break_points" cx="681.3333333333334" cy="12.802835059795651" r="2" style="fill: rgb(17, 0, 255);"></circle><text x="350" y="-20" text-anchor="middle" style="font-size: 12px;"></text><text x="350" text-anchor="middle" y="-40" style="font-size: 16px;">This is Another Title!</text><g class="x axis" transform="translate(0,325)" shape-rendering="geometricPrecision"><path class="domain" d="M0,6V0H700V6"></path></g><g class="y axis" shape-rendering="geometricPrecision"><g class="tick" transform="translate(0,314.3736212946995)" style="opacity: 1;"><line x2="-6" y2="0"></line><text dy=".32em" x="-9" y="0" style="text-anchor: end;">90</text></g><g class="tick" transform="translate(0,282.3665336452104)" style="opacity: 1;"><line x2="-6" y2="0"></line><text dy=".32em" x="-9" y="0" style="text-anchor: end;">95</text></g><g class="tick" transform="translate(0,250.35944599572133)" style="opacity: 1;"><line x2="-6" y2="0"></line><text dy=".32em" x="-9" y="0" style="text-anchor: end;">100</text></g><g class="tick" transform="translate(0,218.35235834623222)" style="opacity: 1;"><line x2="-6" y2="0"></line><text dy=".32em" x="-9" y="0" style="text-anchor: end;">105</text></g><g class="tick" transform="translate(0,186.3452706967431)" style="opacity: 1;"><line x2="-6" y2="0"></line><text dy=".32em" x="-9" y="0" style="text-anchor: end;">110</text></g><g class="tick" transform="translate(0,154.338183047254)" style="opacity: 1;"><line x2="-6" y2="0"></line><text dy=".32em" x="-9" y="0" style="text-anchor: end;">115</text></g><g class="tick" transform="translate(0,122.33109539776493)" style="opacity: 1;"><line x2="-6" y2="0"></line><text dy=".32em" x="-9" y="0" style="text-anchor: end;">120</text></g><g class="tick" transform="translate(0,90.32400774827582)" style="opacity: 1;"><line x2="-6" y2="0"></line><text dy=".32em" x="-9" y="0" style="text-anchor: end;">125</text></g><g class="tick" transform="translate(0,58.31692009878675)" style="opacity: 1;"><line x2="-6" y2="0"></line><text dy=".32em" x="-9" y="0" style="text-anchor: end;">130</text></g><g class="tick" transform="translate(0,26.309832449297645)" style="opacity: 1;"><line x2="-6" y2="0"></line><text dy=".32em" x="-9" y="0" style="text-anchor: end;">135</text></g><path class="domain" d="M-6,0H0V325H-6"></path></g></g></svg>