<svg xmlns="http://www.w3.org/2000/svg" width="1180" height="478"><g><g transform="translate(28.27656364440918,17.199999809265137)"><rect class="bg" width="1180" height="478"></rect><g><g class="y-grid-lines grid-y css-1l9st31"><line class="y-grid-line major" transform="translate(0,440.3999996185303)" x2="1149.7234363555908"></line><line class="y-grid-line major" transform="translate(0,377.48571395874023)" x2="1149.7234363555908"></line><line class="y-grid-line major" transform="translate(0,314.5714282989502)" x2="1149.7234363555908"></line><line class="y-grid-line major" transform="translate(0,251.65714263916016)" x2="1149.7234363555908"></line><line class="y-grid-line major" transform="translate(0,188.74285697937012)" x2="1149.7234363555908"></line><line class="y-grid-line major" transform="translate(0,125.82857131958008)" x2="1149.7234363555908"></line><line class="y-grid-line major" transform="translate(0,62.91428565979004)" x2="1149.7234363555908"></line><line class="y-grid-line major" transform="translate(0,0)" x2="1149.7234363555908"></line></g></g><g><g class="lines"><g class="line" style="opacity: 1;"><path d="M950.4968450700344,326.01081604210276C951.0512732127712,247.99874770661472,951.605701355508,169.98667937112668,952.1601294982448,169.98667937112668C952.6609033045877,169.98667937112668,953.1616771109307,188.9172898806015,953.6624509172735,188.9172898806015C954.2161338608937,188.9172898806015,954.7698168045139,186.54691976568526,955.323499748134,185.73179185054968C955.8600431120728,184.9418966972554,956.3965864760117,184.05710854656252,956.9331298399505,184.05710854656252C957.4875579826873,184.05710854656252,958.041986125424,189.84251713152887,958.5964142681609,195.2912358765551C959.1329576320996,200.5641895007742,959.6695009960386,209.5070986067632,960.2060443599773,215.8976368268167C960.760472502714,222.501192987538,961.3149006454508,232.06919909225618,961.8693287881875,234.17627239255074C962.4237569309244,236.28334569284544,962.978185073661,237.3368823429928,963.5326132163979,237.3368823429928C964.0691565803367,237.3368823429928,964.6056999442756,235.96881201311786,965.1422433082143,235.96881201311786C965.6966714509512,235.96881201311786,966.2510995936879,241.46804078585475,966.8055277364247,244.5901277309958C967.3428162994801,247.61569854745636,967.8801048625354,252.9545170256782,968.4173934255908,254.36643878796545C968.9718215683276,255.82340105029795,969.5262497110643,255.35730921449363,970.0806778538011,256.5518821814642C970.635105996538,257.74645514843473,971.1895341392747,261.03623272199826,971.7439622820115,261.53387658978875C972.2447360883543,261.9833613735995,972.7455098946973,261.8379701230734,973.2462837010402,262.2081037655049C973.7999666446603,262.61734378980054,974.3536495882806,263.96903423420997,974.9073325319008,263.96903423420997C975.4438758958396,263.96903423420997,975.9804192597785,259.7211304662766,976.5169626237173,259.7211304662766C977.0713907664541,259.7211304662766,977.6258189091908,265.83826038282973,978.1802470519276,268.236678001942C978.7167904158664,270.55772731076036,979.2533337798053,272.0618485852592,979.7898771437441,273.96333767605995C980.3443052864809,275.928209736554,980.8987334292176,279.83425730415433,981.4531615719544,279.83425730415433C982.0075897146912,279.83425730415433,982.5620178574279,279.4048218837193,983.1164460001647,279.01660044974733C983.6529893641035,278.64090228783897,984.1895327280424,277.56452500381624,984.7260760919812,277.56452500381624C985.280504234718,277.56452500381624,985.8349323774547,281.3462880563127,986.3893605201915,282.03582136713214C986.926649083247,282.7040384600096,987.4639376463023,283.0381470064483,988.0012262093577,283.0381470064483C988.5556543520945,283.0381470064483,989.1100824948312,261.22905726233716,989.664510637568,260.97173048915647C990.2189387803047,260.71440371597583,990.7733669230415,260.5857403293855,991.3277950657782,260.5857403293855C991.8285688721211,260.5857403293855,992.3293426784641,262.7139027972042,992.8301164848069,265.34691168352344C993.3837994284271,268.25811049681994,993.9374823720474,277.9164497935575,994.4911653156676,277.9164497935575C995.0277086796063,277.9164497935575,995.5642520435453,249.97352185352173,996.100795407484,249.97352185352173C996.6552235502209,249.97352185352173,997.2096516929576,261.6808328737806,997.7640798356944,266.5108552605798C998.3006231996332,271.18507047361106,998.8371665635719,274.4162592714665,999.3737099275107,278.61618599645374C999.9281380702475,282.9561102789407,1000.4825662129842,289.57019046868595,1001.036994355721,292.1639209672072C1001.5914224984579,294.75765146572866,1002.1458506411947,296.05451671498935,1002.7002787839315,296.05451671498935C1003.2368221478703,296.05451671498935,1003.7733655118091,294.91440663313216,1004.3099088757479,293.259514396673C1004.8643370184847,291.54945908566515,1005.4187651612214,287.6238646278313,1005.9731933039582,285.8126183638608C1006.5104818670136,284.057364927943,1007.047770430069,283.5131052730467,1007.5850589931244,282.4374698198718C1008.1394871358613,281.3275214465541,1008.693915278598,281.38013842355264,1009.2483434213348,279.26547563091435C1009.8027715640716,277.15081283827607,1010.3571997068083,269.10442384049065,1010.9116278495451,268.0655810111543C1011.4302864346859,267.0937602998397,1011.9489450198267,266.60784994418236,1012.4676036049675,266.60784994418236C1013.0212865485877,266.60784994418236,1013.574969492208,266.92277815736577,1014.1286524358281,266.92277815736577C1014.6651957997669,266.92277815736577,1015.2017391637058,262.3075996640363,1015.7382825276446,262.3075996640363C1016.2927106703814,262.3075996640363,1016.8471388131181,267.21713941996796,1017.401566955855,267.21713941996796C1017.9381103197937,267.21713941996796,1018.4746536837325,267.17129346430875,1019.0111970476713,267.0796015529903C1019.5656251904081,266.9848532446279,1020.1200533331448,266.4314085212937,1020.6744814758816,265.1350224579005C1021.2289096186184,263.8386363945072,1021.7833377613553,258.838502071162,1022.3377659040921,258.50551572465673C1022.8743092680309,258.18327087320006,1023.4108526319696,258.3443932989284,1023.9473959959084,258.02214844747175C1024.5018241386451,257.68916210096654,1025.056252281382,250.73610376549044,1025.6106804241188,246.57792555784545C1026.1479689871742,242.54829318188817,1026.6852575502296,233.52143412399352,1027.222546113285,233.52143412399352C1027.7769742560217,233.52143412399352,1028.3314023987587,234.55893588698558,1028.8858305414954,236.49842649929508C1029.440258684232,238.43791711160458,1029.994686826969,240.53880575925447,1030.5491149697057,245.15837779785056C1031.0498887760486,249.33089447787293,1031.5506625823914,261.9171678136832,1032.0514363887344,261.9171678136832C1032.6051193323547,261.9171678136832,1033.1588022759747,259.4763922038158,1033.712485219595,259.4763922038158C1034.2490285835338,259.4763922038158,1034.7855719474726,260.02573798552123,1035.3221153114114,261.124429548932C1035.876543454148,262.2597441644566,1036.430971596885,270.39653473165646,1036.9853997396217,273.7734434200032C1037.5219431035605,277.0414195700161,1038.0584864674993,279.7487152835357,1038.595029831438,281.2189337582545C1039.1494579741748,282.7381595154639,1039.7038861169117,281.9785466368592,1040.2583142596484,283.49777239406865C1040.812742402385,285.0169981512781,1041.367170545122,290.7815970338424,1041.9215986878587,290.7815970338424C1042.4581420517975,290.7815970338424,1042.9946854157365,288.9184570990507,1043.5312287796753,288.9184570990507C1044.085656922412,288.9184570990507,1044.640085065149,305.38574336404963,1045.1945132078856,305.38574336404963C1045.731801770941,305.38574336404963,1046.2690903339962,304.88019201364267,1046.8063788970517,303.8690893128288C1047.3608070397884,302.82573229562274,1047.9152351825253,298.2501852745095,1048.469663325262,296.3048154502564C1049.0240914679987,294.3594456260033,1049.5785196107356,292.38300270942324,1050.1329477534723,292.1968703673104C1050.6337215598153,292.0287508324988,1051.134495366158,292.1128105999046,1051.635269172501,291.944691065093C1052.1889521161213,291.7588089008594,1052.7426350597414,288.6531752928289,1053.2963180033616,288.6531752928289C1053.8328613673004,288.6531752928289,1054.3694047312392,289.32169189378595,1054.905948095178,290.6587250957C1055.4603762379147,292.04032607101124,1056.0148043806516,298.54898537416193,1056.5692325233883,298.8232465011625C1057.1057758873271,299.088660495034,1057.6423192512661,298.95595349809827,1058.178862615205,299.2213674919698C1058.7332907579416,299.49562861897033,1059.2877189006786,300.7103415463175,1059.8421470434153,301.5829201479887C1060.396575186152,302.4554987496599,1060.9510033288889,304.45683910199705,1061.5054314716256,304.45683910199705C1062.0419748355644,304.45683910199705,1062.5785181995032,301.0754474313776,1063.115061563442,301.0754474313776C1063.6694897061786,301.0754474313776,1064.2239178489156,302.3941250409266,1064.7783459916523,302.3941250409266C1065.3156345547077,302.3941250409266,1065.852923117763,301.21770019414225,1066.3902116808185,298.8648505005735C1066.9446398235552,296.4369445754486,1067.4990679662922,284.8495688857219,1068.0534961090289,281.5519877800858C1068.6079242517656,278.25440667444974,1069.1623523945025,276.60561612163167,1069.7167805372392,276.60561612163167C1070.217554343582,276.60561612163167,1070.718328149925,278.2466632582297,1071.2191019562677,278.83153550778786C1071.772784899888,279.47820229561785,1072.326467843508,280.1953813801549,1072.8801507871283,280.1953813801549C1073.416694151067,280.1953813801549,1073.953237515006,278.51649526658616,1074.4897808789449,278.51649526658616C1075.0442090216816,278.51649526658616,1075.5986371644185,279.13353084393185,1076.1530653071552,279.13353084393185C1076.689608671094,279.13353084393185,1077.2261520350328,275.5357625355274,1077.7626953989716,275.5357625355274C1078.3171235417083,275.5357625355274,1078.8715516844452,282.6885932058294,1079.425979827182,282.6885932058294C1079.9804079699186,282.6885932058294,1080.5348361126555,279.0097490840391,1081.0892642553922,279.0097490840391C1081.625807619331,279.0097490840391,1082.16235098327,281.5516728673201,1082.6988943472088,282.7220372223903C1083.2533224899455,283.93141372262943,1083.8077506326824,285.1974870551771,1084.3621787754191,286.1353350950098C1084.8994673384746,287.04419052070784,1085.4367559015298,288.2986559991267,1085.9740444645852,288.2986559991267C1086.5284726073219,288.2986559991267,1087.0829007500588,281.3402328275917,1087.6373288927955,278.4241431837168C1088.1917570355322,275.5080535398419,1088.7461851782691,274.0147605341419,1089.3006133210058,270.80211813587744C1089.8192719061467,267.79674298911374,1090.3379304912876,261.0113468892632,1090.8565890764285,260.0218161028825C1091.4102720200485,258.9654635536285,1091.9639549636688,259.21105644181256,1092.5176379072889,258.43728727900157C1093.0541812712277,257.6874705936395,1093.5907246351667,256.9460913588234,1094.1272679991055,255.49596737131887C1094.6816961418422,253.99750591756433,1095.236124284579,249.49602853817493,1095.7905524273158,249.49602853817493C1096.3270957912546,249.49602853817493,1096.8636391551934,256.58027073074834,1097.4001825191322,256.58027073074834C1097.9546106618689,256.58027073074834,1098.5090388046058,245.7453388728523,1099.0634669473425,245.7453388728523C1099.6178950900792,245.7453388728523,1100.172323232816,248.11445389365738,1100.7267513755528,248.11445389365738C1101.2632947394916,248.11445389365738,1101.7998381034306,241.77053305694795,1102.3363814673694,239.22576281214006C1102.890809610106,236.59616689250552,1103.445237752843,235.03657428359762,1103.9996658955797,232.67637451274393C1104.5369544586351,230.38913790684964,1105.0742430216903,227.85246380791548,1105.6115315847458,225.31578970898136" class="line-style-width-0 line-style-dash-0" style="stroke: rgb(24, 161, 205);"></path></g><g class="line" style="opacity: 1;"><path d="M636.9409031841913,244.092276083427C637.4953313269281,236.77163880163164,638.0497594696648,229.4510015198363,638.6041876124016,222.49581848890918C639.1049614187444,216.21371768678182,639.6057352250873,204.24580355948999,640.1065090314302,204.24580355948999C640.660937174167,204.24580355948999,641.2153653169037,217.37473633283983,641.7697934596405,226.31283568968453C642.3055916244627,234.95059568642017,642.8413897892849,242.58554772141716,643.3771879541072,256.6597050901265C643.931616096844,271.2232281531582,644.4860442395807,313.0660760888255,645.0404723823175,313.0660760888255C645.5770157462563,313.0660760888255,646.1135591101952,280.2265644061187,646.650102474134,280.2265644061187C647.2045306168708,280.2265644061187,647.7589587596075,291.76497336386615,648.3133869023443,291.76497336386615C648.8678150450811,291.76497336386615,649.4222431878178,275.7908631724904,649.9766713305546,270.58550106847895C650.5132146944934,265.54805387104835,651.0497580584323,260.68340649493615,651.5863014223711,260.68340649493615C652.1414747642244,260.68340649493615,652.6966481060778,267.2215077685356,653.2518214479311,267.2215077685356C653.7883648118699,267.2215077685356,654.3249081758088,241.00718518761937,654.8614515397476,232.93673716597462C655.4158796824844,224.5972742102753,655.9703078252211,218.67452930183072,656.5247359679579,218.67452930183072C657.0791641106947,218.67452930183072,657.6335922534314,219.87491932751908,658.1880203961682,222.27569937889578C658.6887942025111,224.44414587691332,659.1895680088539,239.28309599181392,659.6903418151968,239.28309599181392C660.2447699579336,239.28309599181392,660.7991981006704,222.69678049853107,661.3536262434072,222.69678049853107C661.8894244082295,222.69678049853107,662.4252225730517,227.4376595957036,662.9610207378739,232.10048048098471C663.5154488806107,236.92543004795155,664.0698770233474,243.5107085146313,664.6243051660842,251.48446389645258C665.160848530023,259.20100136273146,665.6973918939619,275.4624533826846,666.2339352579007,278.8833525252545C666.7883634006375,282.4182816392433,667.3427915433742,281.33772489317465,667.897219686111,284.1857461962377C668.4516478288479,287.0337674993007,669.0060759715846,295.9714803436327,669.5605041143214,295.9714803436327C670.0970474782602,295.9714803436327,670.633590842199,281.210286088216,671.1701342061378,281.210286088216C671.7253075479912,281.210286088216,672.2804808898445,283.5036555795909,672.8356542316978,284.9727818560168C673.3721975956366,286.3926085929655,673.9087409595755,289.83459057291157,674.4452843235143,289.83459057291157C674.9997124662511,289.83459057291157,675.5541406089878,280.34027459637576,676.1085687517246,275.6186389151792C676.6629968944615,270.8970032339826,677.2174250371982,261.5047764857323,677.771853179935,261.5047764857323C678.2726269862778,261.5047764857323,678.7734007926207,275.5406130240025,679.2741745989636,275.5406130240025C679.8286027417004,275.5406130240025,680.3830308844371,272.44466128007895,680.9374590271739,266.2527577922319C681.4732571919961,260.2689155774975,682.0090553568184,230.72568359922624,682.5448535216407,230.72568359922624C683.0992816643775,230.72568359922624,683.6537098071142,269.91624825763006,684.208137949851,269.91624825763006C684.7446813137898,269.91624825763006,685.2812246777286,263.38657763360857,685.8177680416674,263.38657763360857C686.3721961844042,263.38657763360857,686.926624327141,270.5705150209343,687.4810524698778,270.93075545564534C688.0354806126146,271.2909958903563,688.5899087553513,271.47111610771185,689.1443368980881,271.47111610771185C689.6808802620269,271.47111610771185,690.2174236259657,264.58992626644266,690.7539669899045,261.1214096632204C691.3091403317578,257.5324584557193,691.8643136736113,254.64611536577826,692.4194870154646,250.2947673374831C692.9560303794034,246.0894376993992,693.4925737433423,235.59835849270144,694.0291171072811,235.59835849270144C694.5835452500179,235.59835849270144,695.1379733927546,251.7734952506596,695.6924015354914,252.8856678657458C696.2468296782282,253.997840480832,696.8012578209649,254.5539267883751,697.3556859637017,254.5539267883751C697.8743445488426,254.5539267883751,698.3930031339834,232.11720350401168,698.9116617191243,232.11720350401168C699.4660898618611,232.11720350401168,700.0205180045978,239.0121912043988,700.5749461473346,239.0121912043988C701.1107443121568,239.0121912043988,701.646542476979,220.0656169245889,702.1823406418013,220.0656169245889C702.7367687845381,220.0656169245889,703.2911969272748,227.42409281443625,703.8456250700116,227.42409281443625C704.3821684339504,227.42409281443625,704.9187117978893,218.74526001644165,705.4552551618281,217.53037010282173C706.0096833045649,216.27498385874785,706.5641114473016,216.9026769807848,707.1185395900384,215.64729073671091C707.6729677327752,214.39190449263702,708.2273958755119,207.3664639131877,708.7818240182487,204.608552177056C709.3183673821875,201.93960533563836,709.8549107461263,199.19120490580374,710.3914541100651,199.19120490580374C710.9466274519184,199.19120490580374,711.5018007937718,221.43939865390587,712.0569741356252,221.43939865390587C712.593517499564,221.43939865390587,713.1300608635029,186.01330648956858,713.6666042274417,186.01330648956858C714.2210323701785,186.01330648956858,714.7754605129152,190.51879331700235,715.329888655652,190.51879331700235C715.8843167983888,190.51879331700235,716.4387449411255,177.85374454186336,716.9931730838623,177.85374454186336C717.4939468902052,177.85374454186336,717.9947206965481,199.1682188816622,718.495494502891,205.38052561565C719.0499226456278,212.2584366425649,719.6043507883645,215.69739215602237,720.1587789311013,215.69739215602237C720.6945770959236,215.69739215602237,721.2303752607457,203.63938786476604,721.766173425568,202.4217540292727C722.3206015683048,201.16178243872048,722.8750297110415,201.01653167696549,723.4294578537783,200.53179664344438C723.9660012177171,200.06269822390783,724.5025445816559,200.19872911420907,725.0390879455947,199.53259405573843C725.5935160883315,198.84425449531875,726.1479442310682,190.69859264895103,726.702372373805,190.47262843777963C727.2568005165418,190.24666422660823,727.8112286592785,190.13368212102253,728.3656568020153,190.13368212102253C728.9022001659541,190.13368212102253,729.438743529893,205.33612639541195,729.9752868938318,205.33612639541195C730.5304602356852,205.33612639541195,731.0856335775386,198.23916150744606,731.6408069193919,196.23399386430992C732.1773502833307,194.29611372597714,732.7138936472695,194.2369859052484,733.2504370112083,193.30330247956738C733.8048651539451,192.33849627303024,734.3592932966819,192.38463890432627,734.9137214394187,190.547311753844C735.4681495821555,188.7099846033619,736.0225777248922,138.15724574971745,736.577005867629,138.15724574971745C737.0777796739719,138.15724574971745,737.5785534803149,153.33573408100716,738.0793272866578,153.33573408100716C738.6337554293946,153.33573408100716,739.1881835721313,148.32165946581108,739.7426117148681,148.32165946581108C740.2784098796903,148.32165946581108,740.8142080445125,155.42617002336323,741.3500062093348,160.35340051179492C741.9044343520716,165.45195333988002,742.4588624948083,178.59356845673273,743.0132906375451,178.59356845673273C743.5498340014839,178.59356845673273,744.0863773654228,173.77450128894102,744.6229207293616,171.86055933500722C745.1773488720984,169.88281931594236,745.7317770148351,166.98570273646482,746.2862051575719,166.98570273646482C746.8406333003087,166.98570273646482,747.3950614430454,174.385498226092,747.9494895857822,174.385498226092C748.486032949721,174.385498226092,749.0225763136598,169.88397913554618,749.5591196775986,166.9582152821107C750.1142930194519,163.93086240598626,750.6694663613054,158.139640125869,751.2246397031587,156.43076982450134C751.7611830670975,154.7792441641193,752.2977264310363,154.00693032570595,752.8342697949751,153.95348133392827C753.3886979377119,153.89825070909134,753.9431260804486,153.87063539667287,754.4975542231854,153.87063539667287C755.0519823659222,153.87063539667287,755.6064105086589,153.92139647371908,756.1608386513957,154.02291862781152C756.6616124577386,154.11461605731438,757.1623862640815,162.7001958550629,757.6631600704244,169.06486969503248C758.2175882131612,176.11147287499918,758.772016355898,188.04708008050238,759.3264444986348,195.17156661380164C759.8622426634571,202.05665507810514,760.3980408282792,211.28660294923364,760.9338389931015,211.40634427402497C761.4882671358383,211.5302490662986,762.042695278575,211.59220146243544,762.5971234213118,211.59220146243544C763.1336667852506,211.59220146243544,763.6702101491895,201.20795185847942,764.2067535131283,198.28886386695402C764.7611816558651,195.27247294237785,765.3156097986018,193.76427748008976,765.8700379413386,193.76427748008976C766.4244660840754,193.76427748008976,766.9788942268121,200.8335251688973,767.533322369549,200.8335251688973C768.0698657334877,200.8335251688973,768.6064090974266,200.62813532845817,769.1429524613654,200.22309051781318C769.6981258032188,199.80398165124302,770.2532991450721,198.3183420510759,770.8084724869254,198.3183420510759C771.3450158508642,198.3183420510759,771.8815592148031,201.18716264785363,772.4181025787419,201.18716264785363C772.9725307214787,201.18716264785363,773.5269588642154,191.73294316584733,774.0813870069522,188.2077973632437C774.635815149689,184.6826515606401,775.1902432924257,180.0362878322319,775.7446714351626,180.0362878322319C776.2633300203033,180.0362878322319,776.7819886054442,183.5073557662119,777.300647190585,185.61230098023847C777.8550753333218,187.86241482971548,778.4095034760586,191.01328407349982,778.9639316187954,193.2068855926463C779.4997297836177,195.32677738332671,780.0355279484398,198.0633824541235,780.5713261132621,198.61976662611437C781.1257542559989,199.19549656208264,781.6801823987356,199.4833615300668,782.2346105414724,199.4833615300668C782.7711539054112,199.4833615300668,783.3076972693501,193.8905626873536,783.8442406332889,193.8905626873536C784.3986687760257,193.8905626873536,784.9530969187624,195.7320841235465,785.5075250614992,195.7320841235465C786.061953204236,195.7320841235465,786.6163813469727,194.59783866001285,787.1708094897095,194.59783866001285C787.7073528536483,194.59783866001285,788.2438962175872,194.88708844132918,788.780439581526,194.88708844132918C789.3356129233794,194.88708844132918,789.8907862652327,191.132687703135,790.445959607086,184.77945411423175C790.9825029710248,178.63941628334499,791.5190463349637,168.31870979582507,792.0555896989025,157.99800330830516" class="line-style-width-0 line-style-dash-0" style="stroke: rgb(24, 161, 205);"></path></g><g class="line" style="opacity: 1;"><path d="M325.0482457265581,143.12999987602234C325.549019532901,130.3466755055283,326.04979333924393,117.56335113503428,326.55056714558685,117.56335113503428C327.1049952883236,117.56335113503428,327.6594234310604,142.54353364319033,328.21385157379717,149.51393341334978C328.7496497386194,156.25011276112483,329.28544790344165,156.47611064440107,329.82124606826386,159.61820243501234C330.3756742110006,162.86954637411495,330.9301023537374,168.64627253963465,331.4845304964742,168.64627253963465C332.02107386041297,168.64627253963465,332.5576172243518,168.47990078494004,333.0941605882906,168.14715727555085C333.64858873102736,167.80332231584867,334.20301687376417,166.18157901550234,334.7574450165009,166.18157901550234C335.31187315923773,166.18157901550234,335.8663013019745,189.4882060968165,336.4207294447113,196.96156402367976C336.9572728086501,204.19384588838585,337.49381617258894,206.14075206447433,338.0303595365277,210.82914832245118C338.58553287838106,215.68033611716336,339.14070622023445,225.59427695316413,339.6958795620878,225.59427695316413C340.23242292602663,225.59427695316413,340.7689662899654,209.87966215921836,341.30550965390427,209.87966215921836C341.859937796641,209.87966215921836,342.41436593937783,213.76283440786264,342.9687940821146,221.34512098799672C343.52322222485134,228.9274075681308,344.07765036758815,255.37338164002279,344.6320785103249,255.37338164002279C345.13285231666777,255.37338164002279,345.6336261230107,252.7533915948926,346.13439992935355,252.7533915948926C346.6888280720903,252.7533915948926,347.2432562148271,275.79403625119295,347.79768435756387,284.6163598448969C348.33348252238613,293.14223439311377,348.86928068720835,305.15452761401946,349.4050788520306,305.15452761401946C349.95950699476737,305.15452761401946,350.5139351375042,294.7811819046637,351.06836328024093,294.7811819046637C351.6049066441797,294.7811819046637,352.14145000811857,312.01625185508044,352.67799337205736,312.01625185508044C353.2324215147941,312.01625185508044,353.7868496575309,311.98216245971827,354.3412778002677,311.913983668994C354.89570594300443,311.8458048782697,355.45013408574124,297.95729588578376,356.004562228478,289.75531823473136C356.54110559241684,281.8179205079062,357.07764895635563,270.6245281823843,357.6141923202945,263.65119917807976C358.1693656621478,256.4357406944593,358.7245390040012,247.6679149054591,359.27971234585453,247.55521509985607C359.8162557097933,247.44629716692427,360.35279907373217,247.39183820045838,360.88934243767096,247.39183820045838C361.4437705804077,247.39183820045838,361.9981987231445,253.32765684972767,362.5526268658813,262.956254067161C363.10705500861803,272.5848512845944,363.66148315135484,302.64683408260277,364.2159112940916,305.16342150505847C364.7166851004345,307.436468209212,365.2174589067774,308.5729915612888,365.7182327131203,308.5729915612888C366.27266085585705,308.5729915612888,366.82708899859387,308.55423052130504,367.3815171413306,308.55423052130504C367.91731530615283,308.55423052130504,368.4531134709751,327.3789876059899,368.9889116357973,339.3817519401326C369.5433397785341,351.80185856683977,370.0977679212709,379.66417021945637,370.6521960640077,382.18938308609455C371.1887394279465,384.63313747316363,371.7252827918853,385.8550146666982,372.2618261558241,385.8550146666982C372.81625429856086,385.8550146666982,373.3706824412977,371.4568371699839,373.9251105840344,366.6003370207036C374.4795387267712,361.7438368714233,375.033966869508,356.7160137710165,375.58839501224475,356.7160137710165C376.12493837618354,356.7160137710165,376.6614817401224,361.9240297897311,377.1980251040612,361.9240297897311C377.75319844591456,361.9240297897311,378.3083717877679,357.1119562813954,378.8635451296213,347.4878092647241C379.4000884935601,338.186620201633,379.93663185749887,245.4712885653734,380.47317522143766,230.8591491530277C381.02760336417447,215.75993842693595,381.5820315069112,208.70500698063947,382.13645964964803,208.2103330638901C382.6908877923848,207.71565914714074,383.2453159351216,207.46832218876605,383.79974407785835,207.46832218876605C384.31840266299923,207.46832218876605,384.83706124814006,245.99698041019786,385.35571983328094,263.5974906730572C385.9101479760177,282.41182922990646,386.4645761187545,316.238057086078,387.01900426149126,316.238057086078C387.5548024263135,316.238057086078,388.09060059113574,304.54513375463944,388.62639875595795,304.54513375463944C389.1808268986947,304.54513375463944,389.7352550414315,329.8463127417601,390.28968318416827,338.9965239806506C390.82622654810706,347.85156711506073,391.3627699120459,359.0052737185266,391.8993132759847,359.0052737185266C392.45374141872145,359.0052737185266,393.00816956145826,357.73967777123573,393.562597704195,355.20848587665404C394.1170258469318,352.67729398207223,394.6714539896686,347.85923652723596,395.2258821324054,343.2071485312891C395.7624254963442,338.70512789005033,396.298968860283,327.8702500017166,396.8355122242218,327.8702500017166C397.39068556607515,327.8702500017166,397.94585890792854,330.3249934624475,398.5010322497819,335.2344803839092C399.0375756137207,339.9792194221006,399.5741189776595,357.0072134216398,400.11066234159836,357.0072134216398C400.6650904843351,357.0072134216398,401.2195186270719,355.67083281450243,401.7739467698087,354.334452207365" class="line-style-width-0 line-style-dash-0" style="stroke: rgb(24, 161, 205);"></path></g><g class="line" style="opacity: 1;"><path d="M11.492303840714822,112.6165713310242C11.993077647057715,112.18023031757727,12.49385145340061,111.74388930413033,12.994625259743504,109.9985252503426C13.54905340248028,108.0661579050776,14.103481545217054,93.41395705583714,14.657909687953829,87.03142849604285C15.193707852776063,80.8633666217255,15.729506017598295,72.09437900299042,16.26530418242053,72.09437900299042C16.819732325157304,72.09437900299042,17.37416046789408,95.79506925086504,17.928588610630854,102.64569723680364C18.46513197456967,109.27533722319583,19.00167533850848,113.16990247340203,19.538218702447296,113.16990247340203C20.09264684518407,113.16990247340203,20.64707498792085,99.28435862656626,21.201503130657624,94.57418905540806C21.7559312733944,89.86401948424987,22.310359416131174,88.72265460379997,22.86478755886795,84.90888504645284C23.401330922806764,81.21814031353625,23.93787428674558,72.17337905084821,24.474417650684394,72.17337905084821C25.02959099253775,72.17337905084821,25.584764334391107,77.83937034400498,26.13993767624446,77.83937034400498C26.676481040183276,77.83937034400498,27.213024404122095,73.15923019493268,27.74956776806091,72.64379525320578C28.303995910797685,72.11117914675465,28.858424053534456,71.8448710935291,29.41285219627123,71.8448710935291C29.967280339008006,71.8448710935291,30.521708481744785,72.49122854537211,31.07613662448156,72.49122854537211C31.576910430824455,72.49122854537211,32.07768423716735,68.4858286743189,32.578458043510246,68.4858286743189C33.13288618624702,68.4858286743189,33.68731432898379,69.15049970157725,34.24174247172056,70.47984175609395C34.777540636542795,71.76451505877878,35.313338801365035,86.28848643464546,35.84913696618727,93.90821698778211C36.40356510892404,101.7928894933922,36.95799325166082,110.70381642552728,37.51242139439759,116.95278118441104C38.0489647583364,123.0001664349437,38.58550812227522,125.74666699216863,39.12205148621403,131.07006396204451C39.67647962895081,136.57090749758294,40.23090777168758,149.5510886962669,40.78533591442436,149.5510886962669C41.33976405716113,149.5510886962669,41.89419219989791,144.1692390179793,42.44862034263468,144.1692390179793C42.9851637065735,144.1692390179793,43.52170707051231,170.12422855494435,44.05825043445113,170.12422855494435C44.61342377630449,170.12422855494435,45.16859711815785,165.13455987945068,45.7237704600112,155.15522252846336C46.260313823950014,145.51076226979106,46.79685718788883,96.69331712564023,47.333400551827644,94.89053020167779C47.88782869456442,93.02765038024994,48.442256837301194,92.096210469536,48.99668498003797,92.096210469536C49.551113122774744,92.096210469536,50.105541265511526,107.46466068120431,50.6599694082483,115.41815345920975C51.16074321459119,122.60195338773073,51.661517020934085,131.22204190666335,52.162290827276976,137.40889945701474C52.71671897001375,144.2586346020467,53.27114711275053,149.96642810163573,53.82557525548731,153.7535174096775C54.36137342030954,157.41335237269095,54.89717158513177,158.15107784808313,55.432969749954005,160.078948102816C55.98739789269078,162.07385139839496,56.541826035427555,161.88046683219258,57.09625417816433,165.4835042909457C57.63279754210314,168.9703147349003,58.16934090604196,182.45795932214122,58.70588426998077,182.45795932214122C59.260312412717546,182.45795932214122,59.81474055545433,178.06527172041615,60.3691686981911,178.06527172041615C60.92359684092788,178.06527172041615,61.478024983664646,182.91890691270217,62.03245312640142,188.06414185995806C62.56899649034024,193.04340148633474,63.10553985427905,208.09364938841512,63.64208321821787,208.09364938841512C64.19725656007122,208.09364938841512,64.75242990192459,205.22397457799758,65.30760324377793,202.35429976758004" class="line-style-width-0 line-style-dash-0" style="stroke: rgb(24, 161, 205);"></path></g><g class="line" style="opacity: 1;"><path d="M66.91723333559439,83.88571421305335C67.47166147833116,83.54746536542007,68.02608962106794,83.20921651778679,68.5805177638047,83.20921651778679C69.13494590654149,83.20921651778679,69.68937404927826,91.73459749098379,70.24380219201504,91.73459749098379C70.7624607771559,91.73459749098379,71.28111936229674,74.19997605001447,71.79977794743759,74.19997605001447C72.35420609017437,74.19997605001447,72.90863423291114,84.14286463982565,73.46306237564792,87.64994093550717C73.99886054047016,91.03917192555424,74.53465870529239,92.94787618163775,75.07045687011463,95.082414713954C75.62488501285141,97.29117224948011,76.17931315558818,100.60703740428386,76.73374129832496,100.60703740428386C77.27028466226378,100.60703740428386,77.80682802620258,100.59509837000854,78.3433713901414,100.59509837000854C78.89779953287817,100.59509837000854,79.45222767561495,100.59509837000854,80.00665581835172,100.59509837000854C80.5610839610885,100.59509837000854,81.11551210382527,100.59509837000854,81.66994024656205,100.59509837000854C82.20648361050087,100.59509837000854,82.74302697443967,100.59509837000854,83.27957033837849,100.59509837000854C83.83474368023185,100.59509837000854,84.3899170220852,101.99695448307996,84.94509036393856,104.80066670922281C85.48163372787738,107.51029463247495,86.01817709181618,128.8778319141739,86.554720455755,128.8778319141739C87.10914859849179,128.8778319141739,87.66357674122855,125.94835006865348,88.21800488396534,125.41473129597546C88.77243302670212,124.88111252329743,89.32686116943889,124.61430313695843,89.88128931217567,124.61430313695843C90.38206311851856,124.61430313695843,90.88283692486144,131.2405394031305,91.38361073120433,134.16931503032777C91.93803887394111,137.41188804615336,92.49246701667788,140.61243685045764,93.04689515941466,142.95480665903125C93.5826933242369,145.21846780468235,94.11849148905912,148.10359334268196,94.65428965388136,148.10359334268196C95.20871779661813,148.10359334268196,95.76314593935491,129.70284351622428,96.31757408209168,129.70284351622428C96.8541174460305,129.70284351622428,97.3906608099693,149.11090113874718,97.92720417390812,151.51083825217307C98.4816323166449,153.99077326937984,99.03606045938167,152.93999059625008,99.59048860211846,155.23074077798321C100.14491674485524,157.52149095971635,100.699344887592,165.25533934257192,101.25377303032879,165.25533934257192C101.7903163942676,165.25533934257192,102.32685975820641,159.31498196154223,102.86340312214523,159.31498196154223C103.41857646399859,159.31498196154223,103.97374980585194,159.64933467854908,104.5289231477053,160.3180401125628C105.06546651164412,160.96430576691165,105.60200987558292,168.6395948275696,106.13855323952174,173.62768158416776C106.69298138225852,178.78203789931922,107.24740952499529,186.98287571907758,107.80183766773207,190.85751571302228C108.35626581046884,194.73215570696695,108.91069395320562,194.20401885318788,109.46512209594239,196.8755215478359C109.96589590228528,199.28849172364698,110.46666970862817,203.05411932653757,110.96744351497107,205.74321226602703C111.52187165770785,208.72042230617612,112.07629980044462,208.39338326041354,112.6307279431814,213.69372524918654C113.16652610800362,218.8159643485518,113.70232427282586,254.29992859517338,114.23812243764809,254.56872445230638C114.79255058038487,254.84686647971523,115.34697872312164,254.98593749341964,115.90140686585842,254.98593749341964C116.43795022979724,254.98593749341964,116.97449359373604,235.55762250748325,117.51103695767486,235.55762250748325C118.06546510041164,235.55762250748325,118.61989324314841,239.9793993522553,119.1743213858852,246.60955385459224C119.72874952862198,253.23970835692916,120.28317767135874,268.60444476350733,120.83760581409553,275.3385495215047C121.37414917803434,281.85542509376023,121.91069254197315,286.9037306049433,122.44723590591197,286.9037306049433C123.00240924776533,286.9037306049433,123.55758258961868,274.30993450525284,124.11275593147204,274.30993450525284C124.64929929541086,274.30993450525284,125.18584265934966,275.05642897129707,125.72238602328848,275.69253072894C126.27681416602525,276.3498358785044,126.83124230876203,278.22578661799,127.3856704514988,278.22578661799C127.94009859423558,278.22578661799,128.49452673697235,276.62046164610865,129.04895487970913,276.62046164610865C129.54972868605202,276.62046164610865,130.0505024923949,283.42194444390384,130.5512762987378,283.42194444390384C131.1057044414746,283.42194444390384,131.66013258421137,276.582204629153,132.21456072694815,274.2532655110162C132.7503588917704,272.00258375572,133.2861570565926,269.53891489095224,133.82195522141484,269.53891489095224C134.37638336415162,269.53891489095224,134.93081150688838,284.26635299377153,135.48523964962516,284.26635299377153C136.02178301356398,284.26635299377153,136.5583263775028,255.3997247502041,137.0948697414416,255.3997247502041C137.6492978841784,255.3997247502041,138.20372602691515,291.7154817508523,138.75815416965193,303.1836462885377C139.3125823123887,314.65181082622314,139.86701045512547,322.39476752518965,140.42143859786225,324.2087119763168C140.95798196180107,325.9641420903108,141.4945253257399,326.84185714730785,142.0310686896787,326.84185714730785C142.58624203153207,326.84185714730785,143.14141537338543,313.86409569167205,143.6965887152388,307.0357460026204C144.2331320791776,300.4365355648793,144.7696754431164,293.75769878741886,145.30621880705522,286.6039785351569C145.860646949792,279.21180094115266,146.41507509252878,263.3282824742121,146.96950323526556,263.3282824742121C147.52393137800235,263.3282824742121,148.0783595207391,286.7309706431505,148.63278766347588,297.30902829419824C149.15144624861674,307.20463061292037,149.6701048337576,325.0297917737622,150.18876341889845,325.0297917737622C150.74319156163523,325.0297917737622,151.29761970437198,283.537468873775,151.85204784710876,279.21412194671916C152.387846011931,275.03604877393263,152.9236441767532,272.94701218753937,153.45944234157545,272.94701218753937C154.01387048431224,272.94701218753937,154.56829862704902,298.818070892405,155.1227267697858,305.6831874266491C155.65927013372462,312.32684858882067,156.1958134976634,311.12581515891014,156.73235686160223,315.6486791699065C157.286785004339,320.3223053146027,157.84121314707576,328.6475803549603,158.39564128981254,333.51686802447534C158.95006943254933,338.38615569399036,159.50449757528608,344.86440518699646,160.05892571802286,344.86440518699646C160.59546908196168,344.86440518699646,161.1320124459005,307.17588201302584,161.66855580983932,303.6845495360301C162.22372915169268,300.0719902369165,162.778902493546,300.2692103752345,163.33407583539937,298.2657105873597C163.8706191993382,296.3294423359908,164.407162563277,294.11686512636584,164.94370592721583,291.9042879167409" class="line-style-width-0 line-style-dash-0" style="stroke: rgb(24, 161, 205);"></path></g><g class="line" style="opacity: 1;"><path d="M403.437231198019,236.6545052895179C403.93800500436186,228.9882275442151,404.4387788107048,221.3219497989123,404.93955261704764,208.225990603047C405.4939807597844,193.72689292191015,406.0484089025212,159.8490642723092,406.60283704525796,151.41766726884367C407.1386352100802,143.2695833367309,407.67443337490243,139.1955413706745,408.2102315397247,139.1955413706745C408.76465968246146,139.1955413706745,409.31908782519827,170.9804322617794,409.873515967935,181.04266431175427C410.4100593318738,190.78030823108472,410.94660269581266,199.33532123931946,411.48314605975145,199.33532123931946C412.0375742024882,199.33532123931946,412.592002345225,192.65592056860737,413.14643048796177,192.65592056860737C413.7008586306985,192.65592056860737,414.25528677343533,198.77169090901245,414.8097149161721,203.4732995437536C415.34625828011093,208.02324338382581,415.8828016440497,214.7090928123249,416.41934500798857,220.2019055032727C416.9745183498419,225.88544085710046,417.5296916916953,232.4831859462879,418.0848650335486,236.98466929758357C418.6214083974874,241.33509616058072,419.15795176142626,243.25340011964246,419.69449512536505,246.9739655740923C420.2489232681018,250.8185498770238,420.8033514108386,255.80372878724722,421.35777955357537,259.7595812422802C421.9122076963121,263.7154336973132,422.46663583904893,268.3025126227815,423.0210639817857,270.70908030429024C423.5218377881286,272.8827543392015,424.0226115944715,272.2221600567699,424.52338540081445,274.1872719431471C425.0778135435512,276.36293153163604,425.632241686288,281.28997147424917,426.18666982902477,283.67710198856764C426.722467993847,285.9840197839909,427.2582661586692,288.423268904088,427.7940643234914,288.423268904088C428.3484924662282,288.423268904088,428.90292060896496,283.45688730875844,429.4573487517018,283.45688730875844C429.99389211564056,283.45688730875844,430.5304354795794,287.541184175817,431.0669788435182,291.4632831281828C431.62140698625495,295.51611871229414,432.17583512899176,307.63652865518753,432.7302632717285,307.63652865518753C433.28469141446527,307.63652865518753,433.8391195572021,302.26262113500894,434.39354769993884,302.12658413830127C434.9300910638776,301.99493543181,435.4666344278165,302.0607597850556,436.00317779175526,301.92911107856435C436.55835113360865,301.792891236431,437.113524475462,297.3364581995932,437.6686978173154,297.3364581995932C438.20524118125417,297.3364581995932,438.74178454519296,299.06528030623707,439.27832790913175,302.52292451952474C439.83275605186856,306.09582353992226,440.3871841946053,312.79258708021433,440.9416123373421,319.7745696105723C441.4960404800789,326.75655214093007,442.0504686228157,344.4148197016716,442.60489676555244,344.4148197016716C443.10567057189536,344.4148197016716,443.6064443782382,312.86586870614775,444.10721818458114,311.01923090479204C444.6616463273179,308.9747390532911,445.2160744700547,309.99698497904154,445.77050261279146,307.9524931275406C446.30630077761367,305.97670059900673,446.84209894243594,296.6239011131679,447.37789710725815,293.05330369270416C447.9323252499949,289.35855476248855,448.4867533927317,289.0805061529132,449.04118153546847,286.4527125004492C449.5777248994073,283.9096863851614,450.1142682633461,277.6222701705865,450.65081162728495,277.6222701705865C451.2052397700217,277.6222701705865,451.7596679127585,293.7832859722562,452.31409605549527,293.7832859722562C452.868524198232,293.7832859722562,453.42295234096883,282.02103620214024,453.9773804837056,278.3014810275097C454.5139238476444,274.70191150367367,455.0504672115832,275.81863492293706,455.587010575522,271.55149824036107C456.14218391737535,267.13619708964006,456.69735725922874,259.14896861730614,457.25253060108207,251.82663372472766C457.7890739650209,244.7500147681415,458.3256173289597,228.5025910794929,458.86216069289856,228.5025910794929C459.4165888356353,228.5025910794929,459.9710169783721,231.91078376225502,460.5254451211089,231.91078376225502C461.0798732638456,231.91078376225502,461.63430140658244,220.8183040530645,462.1887295493192,220.8183040530645C462.70738813446,220.8183040530645,463.2260467196009,221.00558672475992,463.74470530474173,221.38015206815072C464.2991334474785,221.78054950418917,464.8535615902153,224.55052515786366,465.40798973295205,226.61960994084737C465.9437878977743,228.61916902547821,466.4795860625965,233.5221363286012,467.0153842274188,233.5221363286012C467.56981237015555,233.5221363286012,468.12424051289236,222.96459193258477,468.6786686556291,222.96459193258477C469.21521201956796,222.96459193258477,469.75175538350675,224.36699657460042,470.2882987474456,225.8319100956311C470.84272689018235,227.34565406736272,471.39715503291916,232.00408970687468,471.9515831756559,232.00408970687468C472.50601131839267,232.00408970687468,473.0604394611294,213.87432909474438,473.6148676038662,213.87432909474438C474.151410967805,213.87432909474438,474.6879543317438,221.4944997970839,475.22449769568266,221.4944997970839C475.77967103753605,221.4944997970839,476.3348443793894,192.348768036846,476.89001772124277,189.9629033897419C477.42656108518156,187.65710131468848,477.96310444912035,187.86376009660165,478.49964781305914,186.50420027716174C479.0540759557959,185.0993217970738,479.6085040985327,184.0682938560986,480.16293224126946,181.62756787216927C480.7173603840062,179.18684188823994,481.271788526743,171.85984437358587,481.8262166694798,171.85984437358587C482.3269904758227,171.85984437358587,482.8277642821656,196.04807758862614,483.32853808850854,204.98283223903596C483.8829662312453,214.87488203056054,484.4373943739821,223.00599515020818,484.99182251671886,226.91370906059265C485.52762068154107,230.69011537990224,486.0634188463633,232.57831853955702,486.5992170111855,232.57831853955702C487.1536451539223,232.57831853955702,487.70807329665905,215.22100224291938,488.26250143939586,207.0786173634879C488.79904480333465,199.19889006081257,489.3355881672735,189.75624890927125,489.8721315312123,184.44390151581274C490.42655967394904,178.95447587590556,490.98098781668585,175.1272517008412,491.5354159594226,175.1272517008412C492.08984410215936,175.1272517008412,492.6442722448962,189.16163963043596,493.1987003876329,189.16163963043596C493.7352437515718,189.16163963043596,494.27178711551056,182.32524022059505,494.8083304794494,178.99149583389953C495.36350382130274,175.54199643377723,495.91867716315613,170.3308238196656,496.47385050500947,168.8238418194809C497.01039386894826,167.36742968507426,497.54693723288705,167.05764355269503,498.08348059682584,166.63922361787093C498.63790873956265,166.206856351886,499.19233688229946,166.42303998487844,499.74676502503627,165.9906727188935C500.301193167773,165.5583054529086,500.85562131050983,163.84509465807912,501.4100494532466,163.84509465807912C501.91082325958945,163.84509465807912,502.41159706593237,166.37578129629577,502.91237087227523,167.8524221126725C503.466799015012,169.48727444508964,504.0212271577488,173.2749813927682,504.57565530048555,173.2749813927682C505.11145346530776,173.2749813927682,505.64725163013003,162.48458540764472,506.18304979495224,162.48458540764472C506.737477937689,162.48458540764472,507.2919060804258,162.79951977695717,507.84633422316256,163.4293885155821C508.3828775871014,164.0389389077998,508.9194209510402,169.18522247130966,509.45596431497904,171.60304101633625C510.0103924577158,174.10145351286363,510.5648206004526,177.17210002152768,511.11924874318936,178.11571274157058C511.6736768859261,179.05932546161347,512.2281050286629,179.53113182163492,512.7825331713997,179.53113182163492C513.3190765353385,179.53113182163492,513.8556198992773,176.62073851268798,514.392163263216,175.02601652673536C514.9473366050694,173.37592224960372,515.5025099469228,169.77696808151245,516.0576832887762,169.77696808151245C516.594226652715,169.77696808151245,517.1307700166539,246.60615550115355,517.6673133805926,254.20907392358563C518.2217415233295,262.06542296009854,518.7761696660662,265.993597478355,519.330597808803,265.993597478355C519.8850259515398,265.993597478355,520.4394540942765,258.8841066329002,520.9938822370133,258.8841066329002C521.4946560433561,258.8841066329002,521.9954298496991,278.48240384173084,522.496203656042,278.48240384173084C523.0506317987788,278.48240384173084,523.6050599415155,273.4591152173713,524.1594880842523,270.9518111081616C524.6952862490746,268.5287578090733,525.2310844138967,266.0595155586068,525.766882578719,263.6907580573082C526.3213107214558,261.23963763871825,526.8757388641925,258.2789101704549,527.4301670069293,256.5031280749626C527.9667103708681,254.78462927287325,528.503253734807,253.08983284068415,529.0397970987458,253.08983284068415C529.5942252414826,253.08983284068415,530.1486533842193,274.5413555723335,530.7030815269561,274.5413555723335C531.2575096696929,274.5413555723335,531.8119378124296,264.2402494709274,532.3663659551664,261.5137098649082C532.9029093191052,258.8751231494057,533.4394526830441,260.194416507157,533.9759960469829,257.55582979165445C534.5311693888362,254.82562548186385,535.0863427306896,244.92260875927923,535.6415160725429,244.92260875927923C536.1780594364817,244.92260875927923,536.7146028004206,254.28322898224,537.2511461643594,255.06280048505815C537.8055743070962,255.86835770463688,538.3600024498329,256.27113631442626,538.9144305925697,256.27113631442626C539.4688587353065,256.27113631442626,540.0232868780432,256.06731973580094,540.57771502078,255.65968657855035C541.0963736059209,255.27835233467076,541.6150321910617,249.9864964028192,542.1336907762026,249.9864964028192C542.6881189189394,249.9864964028192,543.2425470616761,249.99982631635606,543.7969752044129,250.0264861434298C544.3327733692352,250.05225014298088,544.8685715340573,253.9346174556206,545.4043696988796,253.9346174556206C545.9587978416164,253.9346174556206,546.5132259843532,253.7660069220032,547.06765412709,253.42878585476845C547.6041974910288,253.10244288647678,548.1407408549676,247.0163411566998,548.6772842189064,242.96945302640884C549.2317123616432,238.78766862510798,549.7861405043799,228.62881134297803,550.3405686471167,228.62881134297803C550.8949967898535,228.62881134297803,551.4494249325902,232.68364111273763,552.003853075327,232.68364111273763C552.5403964392658,232.68364111273763,553.0769398032047,231.69412873436903,553.6134831671435,230.77463091346954C554.1686565089968,229.8232060849,554.7238298508502,229.52003964438728,555.2790031927035,227.01085710622277C555.8155465566423,224.58587532437235,556.3520899205812,218.79317367480945,556.88863328452,209.43615500568544C557.4430614272568,199.76723571425757,557.9974895699935,184.49442969812554,558.5519177127303,169.2216236819935" class="line-style-width-0 line-style-dash-0" style="stroke: rgb(224, 58, 47);"></path></g><g class="line" style="opacity: 1;"><path d="M1107.274816012956,240.26234152193663C1107.8292441556928,262.91516520398136,1108.3836722984297,285.56798888602606,1108.9381004411664,289.55969450224774C1109.4388742475094,293.16510602657706,1109.9396480538521,292.36748245287237,1110.440421860195,294.9678117887417C1110.9941048038154,297.8428783014663,1111.5477877474355,303.65349036540925,1112.1014706910557,306.5182298659257C1112.6380140549945,309.29428967800106,1113.1745574189335,309.55376671145336,1113.7111007828723,312.07039873060967C1114.265528925609,314.6709184837376,1114.819957068346,322.0050866925112,1115.3743852110827,322.0050866925112C1115.9109285750214,322.0050866925112,1116.44747193896,321.6721618817397,1116.9840153028988,321.6721618817397C1117.5384434456355,321.6721618817397,1118.0928715883724,332.1927232311523,1118.6472997311091,332.1927232311523C1119.201727873846,332.1927232311523,1119.7561560165827,323.32512487422497,1120.3105841593197,323.32512487422497C1120.8471275232585,323.32512487422497,1121.3836708871972,328.12200456002387,1121.920214251136,328.12200456002387C1122.4746423938727,328.12200456002387,1123.0290705366097,326.7700678883839,1123.5834986793463,326.7700678883839C1124.1207872424018,326.7700678883839,1124.6580758054572,331.2359166863589,1125.1953643685126,331.2359166863589C1125.7497925112493,331.2359166863589,1126.3042206539862,324.36328916281883,1126.858648796723,321.013810560651C1127.4130769394596,317.66433195848316,1127.9675050821966,311.13904507335184,1128.5219332249333,311.13904507335184C1129.0227070312762,311.13904507335184,1129.523480837619,311.1836651700874,1130.024254643962,311.2729053635585C1130.577937587582,311.3715742084231,1131.1316205312023,311.9823796154785,1131.6853034748224,311.9823796154785C1132.2218468387612,311.9823796154785,1132.7583902027002,301.47107884301647,1133.294933566639,301.47107884301647C1133.8493617093757,301.47107884301647,1134.4037898521126,302.2787669432532,1134.9582179948493,302.5601747150685C1135.494761358788,302.8325048168253,1136.0313047227269,302.94099490445996,1136.5678480866657,303.14783588303874C1137.1222762294024,303.3615715609035,1137.6767043721393,303.37326791602317,1138.231132514876,303.8241319819921C1138.7855606576127,304.274996047961,1139.3399888003496,309.00560564944755,1139.8944169430863,313.73621525093415" class="line-style-width-0 line-style-dash-0" style="stroke: rgb(199, 30, 29);"></path></g><g class="line" style="opacity: 1;"><path d="M793.7188741271128,185.78651711599682C794.2733022698496,211.57388285621894,794.8277304125863,237.36124859644107,795.3821585553231,237.36124859644107C795.882932361666,237.36124859644107,796.3837061680089,212.0534461149391,796.8844799743517,212.0534461149391C797.4389081170885,212.0534461149391,797.9933362598252,215.74065996822756,798.547764402562,216.9549879092188C799.0835625673843,218.1285118199349,799.6193607322066,217.7367123179426,800.1551588970289,219.3001611353902C800.7095870397657,220.91797187277675,801.2640151825024,230.07641169201185,801.8184433252392,232.403550907266C802.354986689178,234.6556211155764,802.8915300531168,235.7816562197316,803.4280734170555,235.7816562197316C803.9825015597924,235.7816562197316,804.5369297025292,233.28215418318695,805.091357845266,228.2831501100977C805.6457859880028,223.28414603700878,806.2002141307395,159.40120552961463,806.7546422734763,125.25463574864864C807.2911856374151,92.2095682186829,807.8277290013539,26.670863457082305,808.3642723652927,26.670863457082305C808.919445707146,26.670863457082305,809.4746190489994,27.6163238276305,810.0297923908528,29.50724456872689C810.5663357547916,31.334711593679103,811.1028791187305,34.261813102367014,811.6394224826693,38.975690183751226C812.1938506254061,43.846696501181434,812.7482787681428,52.5585334882795,813.3027069108796,58.57863290225521C813.8571350536164,64.59873231623091,814.4115631963531,68.40613102198218,814.9659913390899,75.09628666760545C815.4667651454328,81.13900789591047,815.9675389517757,91.92943618998369,816.4683127581186,96.12289522918178C817.0227409008554,100.76565345115101,817.5771690435921,99.5144228679574,818.1315971863289,103.08703256213562C818.6673953511511,106.5395948875576,819.2031935159733,116.95038536782323,819.7389916807955,116.95038536782323C820.2934198235323,116.95038536782323,820.847847966269,116.7433835674496,821.4022761090058,116.7433835674496C821.9388194729446,116.7433835674496,822.4753628368835,133.67941471526734,823.0119062008223,139.41822141103472C823.5663343435591,145.3483216633275,824.1207624862958,147.8964703251963,824.6751906290326,151.38014498592685C825.2296187717694,154.8638196466574,825.7840469145061,156.16828510193983,826.3384750572429,160.32026937541804C826.8750184211817,164.33831867233255,827.4115617851206,175.6670765667331,827.9481051490594,175.6670765667331C828.5032784909127,175.6670765667331,829.0584518327662,172.1807048337161,829.6136251746195,172.1807048337161C830.1501685385583,172.1807048337161,830.6867119024971,173.0719800389656,831.2232552664359,174.85453044946456C831.7776834091727,176.69649920698023,832.3321115519094,191.9861124208005,832.8865396946462,197.26923436368972C833.440967837383,202.5523563065793,833.9953959801198,206.55326210680008,834.5498241228566,206.55326210680008C835.0505979291995,206.55326210680008,835.5513717355425,201.81018928878868,836.0521455418854,192.32404365276585C836.6065736846222,181.8215252700265,837.1610018273589,130.01052163595767,837.7154299700957,130.01052163595767C838.2512281349179,130.01052163595767,838.7870262997401,151.90346529002937,839.3228244645624,159.38121446839733C839.8772526072992,167.11896883377392,840.4316807500359,167.11910576081993,840.9861088927727,175.16620788827288C841.5226522567115,182.95372607613024,842.0591956206503,199.17114730007987,842.595738984589,206.35465388393064C843.1501671273259,213.7776106872434,843.7045952700626,213.3761379603372,844.2590234127994,218.33236082655108C844.8134515555362,223.28858369276497,845.3678796982729,231.50443511609348,845.9223078410097,236.09199108121396C846.4588512049485,240.53156137004038,846.9953945688874,245.66744895771242,847.5319379328262,245.66744895771242C848.0871112746795,245.66744895771242,848.6422846165328,244.68908845220042,849.1974579583862,242.73236744117642C849.734001322325,240.8413082090457,850.2705446862639,227.0346469463806,850.8070880502027,224.74084446523972C851.3615161929395,222.37058190139422,851.9159443356762,221.18545061947145,852.470372478413,221.18545061947145C853.0248006211498,221.18545061947145,853.5792287638865,250.452492464155,854.1336569066233,255.07205196428103C854.6523154917642,259.393575367625,855.170974076905,261.554337069297,855.6896326620459,261.554337069297C856.2440608047827,261.554337069297,856.7984889475194,260.6211763513956,857.3529170902563,260.6211763513956C857.8887152550785,260.6211763513956,858.4245134199007,278.697846709747,858.960311584723,278.697846709747C859.5147397274598,278.697846709747,860.0691678701965,273.04604140488726,860.6235960129333,272.53520219821866C861.160139376872,272.0408416756361,861.696682740811,271.79366141434485,862.2332261047497,271.79366141434485C862.7876542474866,271.79366141434485,863.3420823902233,272.16681619005846,863.8965105329601,272.16681619005846C864.4509386756969,272.16681619005846,865.0053668184336,253.75380944305834,865.5597949611704,253.75380944305834C866.0963383251092,253.75380944305834,866.6328816890481,262.51581753666693,867.1694250529869,262.51581753666693C867.7245983948402,262.51581753666693,868.2797717366935,250.8681639427007,868.8349450785469,250.8681639427007C869.3714884424857,250.8681639427007,869.9080318064246,255.66244263016085,870.4445751703634,255.66244263016085C870.9990033131,255.66244263016085,871.5534314558369,254.45819945480497,872.1078595985736,253.9627705837068C872.6622877413104,253.4673417126086,873.2167158840471,252.68986940357175,873.7711440267839,252.68986940357175C874.2719178331267,252.68986940357175,874.7726916394697,259.09710787516894,875.2734654458126,262.2679839590014C875.8278935885494,265.77859676610177,876.3823217312862,270.0856362557869,876.936749874023,272.7195515409161C877.4725480388453,275.2649616081308,878.0083462036674,276.05424016615154,878.5441443684897,277.97443998779295C879.0985725112265,279.96140614537455,879.6530006539632,284.47682854216066,880.2074287967,284.47682854216066C880.7439721606388,284.47682854216066,881.2805155245777,278.39809463996056,881.8170588885165,278.39809463996056C882.3714870312533,278.39809463996056,882.92591517399,285.49079050558345,883.4803433167268,290.18218185371643C884.0347714594636,294.8735732018494,884.5891996022003,302.7903416030111,885.1436277449371,306.5464427287585C885.6801711088759,310.18137930206257,886.2167144728148,308.93576525308094,886.7532578367536,312.67876363699514C887.308431178607,316.5517272425728,887.8636045204603,329.7544091257989,888.4187778623136,329.7544091257989C888.9553212262524,329.7544091257989,889.4918645901913,307.68596625568,890.0284079541301,305.2120495365503C890.5828360968669,302.65566892678305,891.1372642396036,301.3774786218994,891.6916923823404,301.3774786218994C892.2461205250772,301.3774786218994,892.8005486678139,304.0421478123497,893.3549768105507,309.37148619325023C893.8557506168936,314.1850821501924,894.3565244232365,327.1730804427152,894.8572982295793,332.0567816957861C895.4117263723161,337.46373665454354,895.9661545150528,336.80221178085935,896.5205826577896,340.16721413392224C897.0563808226119,343.41914517135825,897.5921789874342,351.7764507091199,898.1279771522564,351.7764507091199C898.6824052949933,351.7764507091199,899.23683343773,340.6972944637566,899.7912615804668,337.1759565193704C900.3278049444056,333.76821012157745,900.8643483083443,331.24423538211494,901.4008916722831,330.7329798867945C901.95531981502,330.20468254163,902.5097479577566,330.4688312142123,903.0641761004935,329.9405338690478C903.6186042432303,329.4122365238833,904.1730323859671,315.47192466388447,904.7274605287039,315.47192466388447C905.2640038926427,315.47192466388447,905.8005472565815,326.19225119472424,906.3370906205203,330.1689837582508C906.8922639623736,334.28379731356677,907.447437304227,337.4118510040459,908.0026106460804,339.5510840487417C908.5391540100192,341.61853074965575,909.0756973739581,340.91904402859393,909.6122407378969,342.9846379536017C910.1666688806337,345.119085009443,910.7210970233704,352.338492435822,911.2755251661072,352.338492435822C911.829953308844,352.338492435822,912.3843814515807,350.89953892870767,912.9388095943175,350.89953892870767C913.4395834006604,350.89953892870767,913.9403572070033,356.8280030936844,914.4411310133462,356.8280030936844C914.9948139569664,356.8280030936844,915.5484969005865,354.4500760815506,916.1021798442067,354.4500760815506C916.6387232081455,354.4500760815506,917.1752665720843,355.28323251290266,917.7118099360231,356.94954537560676C918.2662380787599,358.6714020004011,918.8206662214966,369.24622022010965,919.3750943642334,373.1537025853497C919.9116377281722,376.9351371323563,920.4481810921111,380.3007751102189,920.9847244560499,380.3007751102189C921.5391525987867,380.3007751102189,922.0935807415234,372.2477064294525,922.6480088842602,368.86497529339636C923.202437026997,365.48224415734023,923.7568651697337,360.00438829388236,924.3112933124705,360.00438829388236C924.8478366764093,360.00438829388236,925.3843800403482,360.0410702990119,925.920923404287,360.11443430927096C926.4753515470238,360.19024378653864,927.0297796897605,363.48302190801206,927.5842078324973,363.48302190801206C928.1214963955528,363.48302190801206,928.6587849586081,361.7976146949097,929.1960735216635,361.7976146949097C929.7505016644003,361.7976146949097,930.304929807137,362.11972569002245,930.8593579498738,362.76394768024784C931.4137860926106,363.4081696704732,931.9682142353473,368.1340750965912,932.5226423780841,369.9595122667372C933.041300963225,371.66717929687394,933.5599595483659,371.9234602147601,934.0786181335068,373.5779432874707C934.632301077127,375.34415151020625,935.1859840207472,377.85757732948684,935.7396669643674,380.40937436763636C936.2762103283062,382.88217903448344,936.8127536922449,386.72704689395647,937.3492970561837,388.60152563021785C937.9037251989205,390.5384869910215,938.4581533416572,391.66959286074,939.012581484394,391.66959286074C939.5491248483328,391.66959286074,940.0856682122717,391.2657679345153,940.6222115762105,390.4581180820659C941.1766397189473,389.6235465678682,941.731067861684,386.92746224616866,942.2854960044208,385.75706524189826C942.8399241471576,384.58666823762786,943.3943522898943,383.43573605644355,943.9487804326311,383.43573605644355C944.4853237965699,383.43573605644355,945.0218671605088,410.22788310272955,945.5584105244476,410.22788310272955C946.1128386671844,410.22788310272955,946.6672668099211,400.2313654605599,947.2216949526579,397.84794767824553C947.7589835157133,395.5382108219973,948.2962720787687,394.9607766079353,948.8335606418241,394.38334239387325" class="line-style-width-0 line-style-dash-0" style="stroke: rgb(199, 30, 29);"></path></g><g class="line" style="opacity: 1;"><path d="M275.9522923288069,243.66305577261517C276.50672047154364,229.7282003014201,277.0611486142804,215.793344830225,277.61557675701715,215.793344830225C278.152120120956,215.793344830225,278.6886634848948,247.5543903783374,279.22520684883364,255.84772317193588C279.78038019068697,264.4290189097563,280.33555353254036,260.18242587102685,280.8907268743937,268.71966677866646C281.4272702383325,276.97042309208996,281.96381360227133,294.65810826388616,282.5003569662101,305.37104205438493C283.05478510894693,316.44107363790073,283.6092132516837,333.76271066942365,284.1636413944205,333.76271066942365C284.71806953715725,333.76271066942365,285.27249767989406,320.1668496043076,285.8269258226308,320.1668496043076C286.3269544298571,320.1668496043076,286.82698303708344,329.30604735715497,287.3270116443097,329.30604735715497C287.8814397870465,329.30604735715497,288.4358679297833,321.84995054978845,288.99029607252004,321.84995054978845C289.5268394364589,321.84995054978845,290.0633828003977,325.091995736842,290.5999261643365,325.091995736842C291.1543543070733,325.091995736842,291.7087824498101,267.13639527235546,292.26321059254684,258.8820011014735C292.79975395648563,250.8938777102975,293.3362973204245,246.89981601470947,293.87284068436327,246.89981601470947C294.4272688271,246.89981601470947,294.98169696983683,282.56461553220413,295.5361251125736,286.25927725250614C296.09055325531034,289.95393897280815,296.64498139804715,291.8012698329592,297.1994095407839,291.8012698329592C297.73595290472275,291.8012698329592,298.27249626866154,281.76858948865396,298.8090396326004,281.76858948865396C299.3642129744537,281.76858948865396,299.9193863163071,294.3494488137983,300.47455965816044,299.3962131920948C301.01110302209923,304.2736230610525,301.5476463860381,311.70524624613336,302.0841897499769,311.70524624613336C302.6386178927136,311.70524624613336,303.19304603545044,295.9003647481119,303.7474741781872,293.1673185847713C304.30190232092394,290.4342724214307,304.85633046366075,291.800795503101,305.4107586063975,289.06774933976044C305.9294171915384,286.511028735345,306.4480757766792,271.29287444589517,306.9667343618201,270.10556965543844C307.52116250455686,268.83638177598476,308.0755906472936,268.20178783625795,308.63001879003036,268.20178783625795C309.16581695485263,268.20178783625795,309.70161511967484,271.67619545284236,310.2374132844971,274.64364405335084C310.79184142723386,277.7142723687587,311.3462695699707,283.59802445597,311.9006977127074,286.4900982661311C312.4372410766463,289.2888793727387,312.97378444058506,291.91744106143,313.5103278045239,291.91744106143C314.06475594726066,291.91744106143,314.6191840899975,291.91744106143,315.17361223273423,291.91744106143C315.728040375471,291.91744106143,316.2824685182078,291.91744106143,316.83689666094455,291.91744106143C317.3734400248834,291.91744106143,317.9099833888222,291.91744106143,318.44652675276103,291.91744106143C319.00170009461436,291.91744106143,319.55687343646775,291.91744106143,320.1120467783211,291.91744106143C320.6485901422599,291.91744106143,321.1851335061987,271.2978857847013,321.7216768701375,263.1201153389085C322.27610501287427,254.66975254492283,322.830533155611,248.49589965322733,323.3849612983478,242.32204676153182" class="line-style-width-0 line-style-dash-0" style="stroke: rgb(199, 30, 29);"></path></g><g class="line" style="opacity: 1;"><path d="M166.60699035542618,259.3614291119899C167.16141849816293,234.19960898086384,167.7158466408997,209.03778884973778,168.27027478363647,194.36020391327995C168.77104858997936,181.1030304222853,169.27182239632228,171.6951150586528,169.77259620266517,171.6951150586528C170.32702434540195,171.6951150586528,170.8814524881387,180.7064000377598,171.4358806308755,180.7064000377598C171.97167879569773,180.7064000377598,172.50747696051994,175.7369977400822,173.04327512534218,174.0963991008125C173.59770326807896,172.3987560025974,174.15213141081574,170.81111536061667,174.70655955355252,170.81111536061667C175.24310291749134,170.81111536061667,175.77964628143016,184.3357173573811,176.31618964536898,184.3357173573811C176.87061778810576,184.3357173573811,177.42504593084251,174.55867906538901,177.9794740735793,174.55867906538901C178.53390221631608,174.55867906538901,179.08833035905283,178.70137336313834,179.64275850178961,183.89335673214214C180.17930186572843,188.9178567666619,180.71584522966722,204.8119610981701,181.25238859360604,204.8119610981701C181.8075619354594,204.8119610981701,182.36273527731277,189.67535032241355,182.91790861916613,183.8053501322184C183.45445198310495,178.13232981417752,183.99099534704374,169.95876398365914,184.52753871098255,169.95876398365914C185.08196685371934,169.95876398365914,185.63639499645612,182.30339109923358,186.1908231391929,182.30339109923358C186.74525128192968,182.30339109923358,187.29967942466644,162.5013578633247,187.85410756740322,162.5013578633247C188.3548813737461,162.5013578633247,188.855655180089,214.50149167237274,189.3564289864319,218.84153831735426C189.91085712916868,223.64658996001245,190.46528527190546,226.04911578134156,191.01971341464224,226.04911578134156C191.55551157946448,226.04911578134156,192.0913097442867,207.96008065792506,192.62710790910893,205.73287808723416C193.1815360518457,203.42823453703383,193.73596419458246,202.27591276193365,194.29039233731925,202.27591276193365C194.82693570125807,202.27591276193365,195.36347906519688,202.83481684722526,195.9000224291357,203.9526250178085C196.45445057187248,205.10769346074446,197.00887871460924,210.93345765993382,197.56330685734602,213.0061449657268C198.1177350000828,215.0788322715198,198.67216314281956,214.84557761382325,199.22659128555634,216.3887488525664C199.76313464949516,217.88214037393075,200.29967801343398,222.0366849634346,200.8362213773728,222.0366849634346C201.39139471922616,222.0366849634346,201.9465680610795,206.637642746727,202.50174140293285,206.637642746727C203.03828476687167,206.637642746727,203.5748281308105,231.03256121923695,204.1113714947493,231.03256121923695C204.6657996374861,231.03256121923695,205.22022778022287,221.13393957224812,205.77465592295965,219.82988115520783C206.32908406569643,218.52582273816756,206.8835122084332,217.87379352964743,207.43794035116997,217.87379352964743C207.93871415751286,217.87379352964743,208.43948796385573,252.85614482982663,208.94026177019862,252.85614482982663C209.4946899129354,252.85614482982663,210.04911805567218,243.4901511376629,210.60354619840896,243.4901511376629C211.1393443632312,243.4901511376629,211.6751425280534,252.27029714922813,212.21094069287565,252.27029714922813C212.76536883561243,252.27029714922813,213.3197969783492,242.28865185870362,213.87422512108597,242.28865185870362C214.4107684850248,242.28865185870362,214.9473118489636,247.44202350548406,215.48385521290243,247.44202350548406C216.0382833556392,247.44202350548406,216.592711498376,228.2371881801836,217.14713964111277,228.2371881801836C217.70156778384955,228.2371881801836,218.2559959265863,228.48972837781432,218.8104240693231,228.99480877307573C219.3469674332619,229.48359625236097,219.8835107972007,230.33396820724604,220.42005416113952,233.01228707558664C220.97522750299288,235.78360312685578,221.53040084484624,252.46166535846328,222.0855741866996,252.46166535846328C222.62211755063842,252.46166535846328,223.1586609145772,250.98290633352062,223.69520427851603,249.71040619292015C224.2496324212528,248.3954893809663,224.8040605639896,247.89976064807186,225.35848870672638,244.62714703787614C225.91291684946316,241.35453342768048,226.4673449921999,234.73864431453347,227.0217731349367,230.07472453174623C227.54043172007755,225.71170279946136,228.0590903052184,217.47631252498846,228.57774889035926,217.47631252498846C229.13217703309604,217.47631252498846,229.6866051758328,232.69998834129493,230.24103331856958,232.69998834129493C230.77683148339182,232.69998834129493,231.31262964821403,222.48052335500986,231.84842781303627,213.90352186448865C232.40285595577305,205.02829361838587,232.95728409850983,179.8526804442136,233.5117122412466,179.8526804442136C234.04825560518543,179.8526804442136,234.58479896912425,204.24334178437698,235.12134233306307,204.24334178437698C235.67577047579985,204.24334178437698,236.2301986185366,204.09904482597662,236.7846267612734,203.81045090917587C237.33905490401017,203.52185699237512,237.89348304674692,171.83332150830267,238.4479111894837,171.83332150830267C238.98445455342252,171.83332150830267,239.5209979173613,191.68452399802027,240.05754128130013,191.68452399802027C240.6127146231535,191.68452399802027,241.16788796500686,175.34907664811453,241.72306130686022,175.34907664811453C242.25960467079904,175.34907664811453,242.79614803473783,175.88733564734108,243.33269139867664,176.96385364579413C243.88711954141343,178.076255577529,244.4415476841502,206.4358518728004,244.995975826887,206.4358518728004C245.55040396962377,206.4358518728004,246.10483211236053,143.1551983313942,246.6592602550973,139.6807421402346C247.1600340614402,136.54252364499368,247.6608078677831,134.97341439737323,248.16158167412598,134.97341439737323C248.71600981686277,134.97341439737323,249.27043795959955,185.68848819525886,249.82486610233633,209.91547073817352C250.36066426715857,233.32837456660812,250.89646243198078,270.9681247927383,251.43226059680302,278.04247671400134C251.9866887395398,285.3628074920538,252.54111688227655,284.39288489736754,253.09554502501334,289.02297288107997C253.63208838895216,293.50370318789857,254.168631752891,296.0663073083433,254.70517511682982,305.19023248587797C255.2596032595666,314.61828850266346,255.81403140230336,345.4383336547021,256.36845954504014,345.4383336547021C256.9228876877769,345.4383336547021,257.4773158305137,343.91614849067497,258.03174397325046,343.91614849067497C258.56828733718925,343.91614849067497,259.1048307011281,364.846594336848,259.6413740650669,371.6387545260168C260.1965474069202,378.66675361064284,260.7517207487736,384.8576219809262,261.30689409062694,384.8576219809262C261.84343745456573,384.8576219809262,262.3799808185046,374.54809780828936,262.91652418244337,374.54809780828936C263.4709523251802,374.54809780828936,264.02538046791693,402.14752944336925,264.57980861065374,402.14752944336925C265.1334915542739,402.14752944336925,265.68717449789415,387.3450161583635,266.2408574415143,387.3450161583635C266.74163124785724,387.3450161583635,267.2424050542001,398.84541187564326,267.743178860543,399.2541014458755C268.2976070032798,399.7065791843469,268.85203514601653,399.74052203354984,269.4064632887533,399.93281805358254C269.94300665269213,400.11891097619485,270.4795500166309,400.3957318964995,271.01609338056977,400.3957318964995C271.5705215233065,400.3957318964995,272.12494966604334,389.6235091425123,272.6793778087801,389.6235091425123C273.2159211727189,389.6235091425123,273.7524645366577,394.55881733832956,274.2890079005965,399.49412553414686" class="line-style-width-0 line-style-dash-0" style="stroke: rgb(199, 30, 29);"></path></g><g class="line" style="opacity: 1;"><path d="M560.2152021409406,182.4514284133911C560.7159759472835,183.66174294311088,561.2167497536265,184.87205747283065,561.7175235599693,187.20054776780285C562.2719517027061,189.77851916580772,562.8263798454428,197.67570408020404,563.3808079881796,197.67570408020404C563.9166061530019,197.67570408020404,564.4524043178241,196.9232455706254,564.9882024826463,195.41832855146808C565.5426306253831,193.86108479311892,566.0970587681198,147.69137832667434,566.6514869108566,143.9344743610398C567.1880302747954,140.2987608459095,567.7245736387343,138.48090408834435,568.2611170026731,138.48090408834435C568.8155451454099,138.48090408834435,569.3699732881466,140.5474252754944,569.9244014308834,140.5474252754944C570.4788295736203,140.5474252754944,571.033257716357,139.89649080453745,571.5876858590938,139.89649080453745C572.1242292230326,139.89649080453745,572.6607725869713,151.87511196614327,573.1973159509101,151.87511196614327C573.7524892927635,151.87511196614327,574.3076626346169,151.3603636521191,574.8628359764703,150.33086702407076C575.399379340409,149.33591726273545,575.935922704348,132.09350441909206,576.4724660682867,121.15994369044427C577.0268942110235,109.86193093750855,577.5813223537602,83.39012959044123,578.135750496497,83.39012959044123C578.6901786392339,83.39012959044123,579.2446067819706,90.13628820413098,579.7990349247074,95.80705159864556C580.2998087310502,100.92903143885238,580.8005825373932,109.28926856218428,581.3013563437361,114.92196994285212C581.8557844864729,121.1581750428771,582.4102126292096,124.94798638968923,582.9646407719464,130.9132913037472C583.5004389367687,136.6781491440801,584.0362371015908,149.98661182400025,584.5720352664131,149.98661182400025C585.1264634091499,149.98661182400025,585.6808915518866,141.59692134020742,586.2353196946234,141.59692134020742C586.7718630585622,141.59692134020742,587.3084064225011,169.48953706424993,587.8449497864399,169.48953706424993C588.3993779291767,169.48953706424993,588.9538060719134,142.5030505632014,589.5082342146502,131.1196607140754C590.062662357387,119.73627086494938,590.6170905001237,101.18919796949382,591.1715186428605,101.18919796949382C591.7080620067993,101.18919796949382,592.2446053707381,168.1459994793316,592.7811487346769,189.47542077412726C593.3363220765302,211.54544697499375,593.8914954183837,229.6708877839187,594.446668760237,229.6708877839187C594.9832121241758,229.6708877839187,595.5197554881147,207.59911917291487,596.0562988520535,192.54050735580412C596.6107269947903,176.97994181145683,597.165155137527,158.1334605558837,597.7195832802638,137.26805263686032C598.2740114230006,116.40264471783695,598.8284395657373,82.5088244246379,599.3828677084741,67.34805984166388C599.883641514817,53.65446602478386,600.38441532116,46.20396523002472,600.8851891275028,46.20396523002472C601.4396172702396,46.20396523002472,601.9940454129763,64.4504385323499,602.5484735557131,73.44954283923596C603.0842717205353,82.14625788849753,603.6200698853576,92.24515708415466,604.1558680501797,99.3078274365613C604.7102961929165,106.61607047159735,605.2647243356532,112.03157939403462,605.81915247839,116.2318610650355C606.3556958423288,120.29664977890744,606.8922392062677,122.42367592727233,607.4287825702065,124.37745535033014C607.9832107129433,126.39636075415648,608.53763885568,125.58333481656672,609.0920669984168,127.99509374903988C609.6464951411537,130.40685268151304,610.2009232838903,133.36050763818594,610.7553514266272,139.47241286776188C611.291894790566,145.38715986412586,611.8284381545049,150.78239611689526,612.3649815184436,163.63970995779624C612.920154860297,176.94345830706186,613.4753282021504,203.98734768371583,614.0305015440038,218.97328867889917C614.5670449079425,233.4563457480686,615.1035882718813,242.66435033095703,615.6401316358201,252.73137971288403C616.1945597785569,263.1339767408764,616.7489879212937,272.1959309012996,617.3034160640306,280.14108215734484C617.8578442067674,288.08623341338955,618.4122723495041,293.9671639534,618.9667004922409,300.40228724915437C619.4853590773818,306.42224130002126,620.0040176625225,316.53621050743027,620.5226762476634,317.6256692695766C621.0771043904002,318.7902631187675,621.6315325331369,319.3725600433629,622.1859606758737,319.3725600433629C622.721758840696,319.3725600433629,623.2575570055182,312.83404218248273,623.7933551703404,312.83404218248273C624.3477833130772,312.83404218248273,624.902211455814,332.5486033525845,625.4566395985509,336.35768073722204C625.9931829624896,340.04388465783865,626.5297263264284,338.2007826975303,627.0662696903672,341.8869866181469C627.620697833104,345.6960640027842,628.1751259758407,373.6026361298457,628.7295541185775,373.6026361298457C629.2839822613143,373.6026361298457,629.838410404051,332.036360598108,630.3928385467879,332.036360598108C630.9293819107266,332.036360598108,631.4659252746654,359.8308593288714,632.0024686386042,359.8308593288714C632.5576419804577,359.8308593288714,633.112815322311,355.21943751744334,633.6679886641645,345.9965938945872C634.2045320281032,337.0832416684731,634.7410753920419,314.17644644541645,635.2776187559807,291.2696512223598" class="line-style-width-0 line-style-dash-0" style="stroke: rgb(174, 0, 11);"></path></g></g><g class="line-symbols"></g></g><g><g class="tooltip" transform="translate(769.1429524613654,200.22309051781318)"><text class="tooltip bg" style="stroke: rgb(255, 255, 255);" transform="translate(3,-42)"><tspan x="0" dy="0" style="text-anchor: end;">Bill Clinton</tspan><tspan x="0" dy="13" style="text-anchor: end;">1999 Oct</tspan><tspan x="0" dy="13" style="text-anchor: end;">58.18</tspan></text><text class="tooltip fg" style="fill: rgb(24, 24, 24);" transform="translate(3,-42)"><tspan x="0" dy="0" style="text-anchor: end; fill: rgb(24, 161, 205);">Bill Clinton</tspan><tspan x="0" dy="13" style="text-anchor: end;">1999 Oct</tspan><tspan x="0" dy="13" style="text-anchor: end;">58.18</tspan></text><line y1="-13" y2="-5" style="stroke: rgb(51, 51, 51); stroke-width: 1;"></line><circle r="5" style="stroke: rgb(51, 51, 51);"></circle></g><g class="x-tick-labels grid-x css-14jwf37" transform="translate(0,445.3999996185303)"><text class="x-tick-label bottom" transform="translate(9.829019412504495,12)" y="0"><tspan x="0" dy="0">1961</tspan></text><text class="x-tick-label bottom" transform="translate(88.21800488396534,12)" y="0"><tspan x="0" dy="0">1965</tspan></text><text class="x-tick-label bottom" transform="translate(166.60699035542618,12)" y="0"><tspan x="0" dy="0">1969</tspan></text><text class="x-tick-label bottom" transform="translate(244.995975826887,12)" y="0"><tspan x="0" dy="0">1973</tspan></text><text class="x-tick-label bottom" transform="translate(323.3849612983478,12)" y="0"><tspan x="0" dy="0">1977</tspan></text><text class="x-tick-label bottom" transform="translate(401.7739467698087,12)" y="0"><tspan x="0" dy="0">1981</tspan></text><text class="x-tick-label bottom" transform="translate(480.16293224126946,12)" y="0"><tspan x="0" dy="0">1985</tspan></text><text class="x-tick-label bottom" transform="translate(558.5519177127303,12)" y="0"><tspan x="0" dy="0">1989</tspan></text><text class="x-tick-label bottom" transform="translate(636.9409031841913,12)" y="0"><tspan x="0" dy="0">1993</tspan></text><text class="x-tick-label bottom" transform="translate(715.329888655652,12)" y="0"><tspan x="0" dy="0">1997</tspan></text><text class="x-tick-label bottom" transform="translate(793.7188741271128,12)" y="0"><tspan x="0" dy="0">2001</tspan></text><text class="x-tick-label bottom" transform="translate(872.1078595985736,12)" y="0"><tspan x="0" dy="0">2005</tspan></text><text class="x-tick-label bottom" transform="translate(950.4968450700344,12)" y="0"><tspan x="0" dy="0">2009</tspan></text><text class="x-tick-label bottom" transform="translate(1028.8858305414954,12)" y="0"><tspan x="0" dy="0">2013</tspan></text><text class="x-tick-label bottom" transform="translate(1107.274816012956,12)" y="0"><tspan x="0" dy="0">2017</tspan></text></g><g class="x-base-lines grid-x css-n2qvu0"></g><g class="y-tick-labels grid-y css-126iv6" transform="translate(-5,0)"><text class="y-tick-label left" transform="translate(0,444.3999996185303)" y="0"><tspan x="-1" dy="0">20</tspan></text><text class="y-tick-label left" transform="translate(0,381.48571395874023)" y="0"><tspan x="-1" dy="0">30</tspan></text><text class="y-tick-label left" transform="translate(0,318.5714282989502)" y="0"><tspan x="-1" dy="0">40</tspan></text><text class="y-tick-label left" transform="translate(0,255.65714263916016)" y="0"><tspan x="-1" dy="0">50</tspan></text><text class="y-tick-label left" transform="translate(0,192.74285697937012)" y="0"><tspan x="-1" dy="0">60</tspan></text><text class="y-tick-label left" transform="translate(0,129.82857131958008)" y="0"><tspan x="-1" dy="0">70</tspan></text><text class="y-tick-label left" transform="translate(0,66.91428565979004)" y="0"><tspan x="-1" dy="0">80</tspan></text><text class="y-tick-label left" transform="translate(0,4)" y="0"><tspan x="-1" dy="0">90%</tspan></text></g><g class="y-base-lines grid-y css-n2qvu0"></g></g></g></g></svg>