<svg xmlns="http://www.w3.org/2000/svg" width="758" height="500" style="overflow:hidden;-webkit-tap-highlight-color:transparent;user-select:none;cursor:default;vertical-align:middle;position:relative;top:-.398438px;background-color:#fff"><defs><linearGradient id="a" x1="0" x2="0" y1="1" y2="0"><stop offset="0%" stop-color="#cbcbcb" stop-opacity=".5"/><stop offset="100%" stop-color="#e9e9e9" stop-opacity=".5"/></linearGradient><linearGradient id="g" x1="0" x2="0" y1="0" y2="1"><stop offset="0%" stop-color="#149868"/><stop offset="100%" stop-color="#fff"/></linearGradient><linearGradient id="h" x1="0" x2="0" y1="0" y2="1"><stop offset="0%" stop-color="#e7bc4f"/><stop offset="100%" stop-color="#fff"/></linearGradient><linearGradient id="i" x1="0" x2="0" y1="0" y2="1"><stop offset="0%" stop-color="#ce9b1c"/><stop offset="100%" stop-color="#fff"/></linearGradient><linearGradient id="j" x1="0" x2="0" y1="0" y2="1"><stop offset="0%" stop-color="#d9d9d9"/><stop offset="100%" stop-color="#fff"/></linearGradient><linearGradient id="n" x1="0" x2="0" y1="1" y2="0"><stop offset="0%" stop-color="#149868"/><stop offset="70%" stop-color="#149868"/><stop offset="100%" stop-color="#a1d6c3"/><stop offset="100%" stop-color="#149868"/><stop offset="100%" stop-color="#149868"/></linearGradient><linearGradient id="o" x1="0" x2="0" y1="1" y2="0"><stop offset="0%" stop-color="#e7bc4f"/><stop offset="70%" stop-color="#e7bc4f"/><stop offset="100%" stop-color="#f6e4b9"/><stop offset="100%" stop-color="#e7bc4f"/><stop offset="100%" stop-color="#e7bc4f"/></linearGradient><linearGradient id="p" x1="0" x2="0" y1="1" y2="0"><stop offset="0%" stop-color="#ce9b1c"/><stop offset="70%" stop-color="#ce9b1c"/><stop offset="100%" stop-color="#ecd7a4"/><stop offset="100%" stop-color="#ce9b1c"/><stop offset="100%" stop-color="#ce9b1c"/></linearGradient><linearGradient id="q" x1="0" x2="0" y1="1" y2="0"><stop offset="0%" stop-color="#d9d9d9"/><stop offset="70%" stop-color="#d9d9d9"/><stop offset="100%" stop-color="#f0f0f0"/><stop offset="100%" stop-color="#d9d9d9"/><stop offset="100%" stop-color="#d9d9d9"/></linearGradient><clipPath id="c"><path d="M52 56.8h688v353.7H52z"/></clipPath><clipPath id="b"><path d="M52 56.8h688v353.7H52z"/></clipPath><clipPath id="d"><path d="M52 56.8h688v353.7H52z"/></clipPath><clipPath id="f"><path d="M52 56.8h688v353.7H52z"/></clipPath><clipPath id="l"><path d="M52 56.8h688v353.7H52z"/></clipPath><clipPath id="e"><path d="M52 56.8h688v353.7H52z"/></clipPath><clipPath id="k"><path d="M52 0h688v410.5H52z"/></clipPath><filter id="m" width="2000%" height="2000%" x="-1000%" y="-1000%"><feOffset dx="1" dy="1" in="SourceGraphic" result="offOut"/><feColorMatrix in="offOut" result="matrixOut" values="0 0 0 0 0 0 0 0 0 0 0 0 0 0 0 0 0 0 0.3095875 0"/><feGaussianBlur in="matrixOut" result="blurOut" stdDeviation="1.73205"/><feComposite in="SourceGraphic" in2="blurOut"/></filter></defs><g class="raphael-group-885-parentgroup"><g class="raphael-group-886-background"><rect width="756" height="498" x="1" y="1" fill="url('#a')" rx="0" ry="0"/><rect width="757" height="499" x=".5" y=".5" fill="none" stroke="#767575" stroke-opacity=".5" rx="0" ry="0"/></g><g class="raphael-group-909-canvas"><rect width="690" height="355.7" x="51" y="55.8" fill="none" stroke="#545454" stroke-width="2" rx="0" ry="0"/><rect width="688" height="353.7" x="52" y="56.8" fill="#fff" rx="0" ry="0"/></g><g class="raphael-group-887-axisbottom"><g class="raphael-group-1036-dataset-Label-group"><g fill="#555" class="raphael-group-1038-dataset-axis" font-family="Verdana,sans" font-size="10" style="font-family:Verdana,sans;font-size:10px;font-weight:400;font-style:normal" text-anchor="end"><text x="46" y="414" style="font-size:10px;text-anchor:end">0%</text><text x="46" y="343" style="font-size:10px;text-anchor:end">20%</text><text x="46" y="272" style="font-size:10px;text-anchor:end">40%</text><text x="46" y="201" style="font-size:10px;text-anchor:end">60%</text><text x="46" y="131" style="font-size:10px;text-anchor:end">80%</text><text x="46" y="60" style="font-size:10px;text-anchor:end">100%</text></g></g><g class="raphael-group-1053-dataset-Label-group"><g fill="#555" class="raphael-group-1055-dataset-axis" font-family="Verdana,sans" font-size="10" style="font-family:Verdana,sans;font-size:10px;font-weight:400;font-style:normal" text-anchor="middle"><text x="120.8" y="426" style="text-anchor:middle">Germany</text><text x="224" y="426" style="text-anchor:middle">UK</text><text x="275.6" y="426" style="text-anchor:middle">Australia</text><text x="327.2" y="426" style="text-anchor:middle">France</text><text x="482" y="426" style="text-anchor:middle">USA</text><text x="636.8" y="426" style="text-anchor:middle">Japan</text><text x="705.6" y="426" style="text-anchor:middle">Mexico</text></g></g></g><g fill="#eee" fill-opacity=".5" class="raphael-group-911-axisReferenceVisualsFloor" clip-path="url('#b')"><rect width="688" height="70.74" x="52" y="269.02" rx="0" ry="0"/><rect width="688" height="70.74" x="52" y="127.54" rx="0" ry="0"/></g><g fill="none" stroke="#717170" stroke-opacity=".4" class="raphael-group-910-axisReferenceVisualsBottom" clip-path="url('#c')"><path d="M52 339.5h688M52 269.5h688M52 198.5h688M52 127.5h688"/></g><g class="raphael-group-889-plots" clip-path="url('#f')"><g class="raphael-group-923-area"><g class="raphael-group-939-vcanvas-area-plot"><g stroke="#333" class="raphael-group-961-manager-anchor-group"><g fill="url('#g')" class="raphael-group-967-plot-group"><rect width="138" height="230" x="51.5" y="181.5" rx="0" ry="0"/><rect width="69" height="153" x="189.5" y="258.5" rx="0" ry="0"/><rect width="34" height="146" x="258.5" y="265.5" rx="0" ry="0"/><rect width="69" height="135" x="292.5" y="276.5" rx="0" ry="0"/><rect width="241" height="124" x="361.5" y="287.5" rx="0" ry="0"/><rect width="69" height="68" x="602.5" y="343.5" rx="0" ry="0"/><rect width="69" height="15" x="671.5" y="396.5" rx="0" ry="0"/></g><g fill="url('#h')" class="raphael-group-981-plot-group"><rect width="138" height="78" x="51.5" y="103.5" rx="0" ry="0"/><rect width="69" height="81" x="189.5" y="177.5" rx="0" ry="0"/><rect width="34" height="21" x="258.5" y="244.5" rx="0" ry="0"/><rect width="69" height="117" x="292.5" y="159.5" rx="0" ry="0"/><rect width="241" height="32" x="361.5" y="255.5" rx="0" ry="0"/><rect width="69" height="251" x="602.5" y="92.5" rx="0" ry="0"/><rect width="69" height="21" x="671.5" y="375.5" rx="0" ry="0"/></g><g fill="url('#i')" class="raphael-group-995-plot-group"><rect width="138" height="47" x="51.5" y="56.5" rx="0" ry="0"/><rect width="68.8" height=".5" x="189.6" y="177.058" rx="0" ry="0"/><rect width="34.4" height=".5" x="258.4" y="244.261" rx="0" ry="0"/><rect width="68.8" height=".5" x="292.8" y="159.373" rx="0" ry="0"/><rect width="241" height="21" x="361.5" y="234.5" rx="0" ry="0"/><rect width="68.8" height=".5" x="602.4" y="92.17" rx="0" ry="0"/></g><g fill="url('#j')" class="raphael-group-1008-plot-group"><rect width="138" height="1" x="51.5" y="56.5" rx="0" ry="0"/><rect width="69" height="121" x="189.5" y="56.5" rx="0" ry="0"/><rect width="34" height="188" x="258.5" y="56.5" rx="0" ry="0"/><rect width="69" height="103" x="292.5" y="56.5" rx="0" ry="0"/><rect width="241" height="178" x="361.5" y="56.5" rx="0" ry="0"/><rect width="69" height="36" x="602.5" y="56.5" rx="0" ry="0"/><rect width="69" height="319" x="671.5" y="56.5" rx="0" ry="0"/></g></g></g></g></g><g class="raphael-group-893-datalabel" clip-path="url('#l')" font-family="Verdana,sans" font-size="10" style="font-family:Verdana,sans;font-size:10px;font-weight:400;font-style:normal"><g class="raphael-group-915-canvasdatalabel"><g class="raphael-group-944-vcanvas-label"><g class="raphael-group-955-manager-vcanvasLabelGroup" font-size="10" font-weight="normal"><g fill="#555" class="raphael-group-969-label-group fusioncharts-datalabels" style="font-family:Verdana,sans;font-size:10px;font-weight:400;font-style:normal" text-anchor="middle"><text x="120.5" y="300" style="text-anchor:middle">65%</text><text x="224" y="338" style="text-anchor:middle">43%</text><text x="275.5" y="342" style="text-anchor:middle">41%</text><text x="327" y="347" style="text-anchor:middle">38%</text><text x="482" y="353" style="text-anchor:middle">35%</text><text x="637" y="381" style="text-anchor:middle">19%</text><text x="706" y="406" style="text-anchor:middle">4%</text></g><g fill="#555" class="raphael-group-983-label-group fusioncharts-datalabels" style="font-family:Verdana,sans;font-size:10px;font-weight:400;font-style:normal" text-anchor="middle"><text x="120.5" y="146" style="text-anchor:middle">22%</text><text x="224" y="221" style="text-anchor:middle">23%</text><text x="275.5" y="258" style="text-anchor:middle">6%</text><text x="327" y="221" style="text-anchor:middle">33%</text><text x="482" y="275" style="text-anchor:middle">9%</text><text x="637" y="221" style="text-anchor:middle">71%</text><text x="706" y="389" style="text-anchor:middle">6%</text></g><g fill="#555" class="raphael-group-1010-label-group fusioncharts-datalabels" style="font-family:Verdana,sans;font-size:10px;font-weight:400;font-style:normal" text-anchor="middle"><text x="224" y="120" style="text-anchor:middle">34%</text><text x="275.5" y="154" style="text-anchor:middle">53%</text><text x="327" y="111" style="text-anchor:middle">29%</text><text x="482" y="149" style="text-anchor:middle">50%</text><text x="637" y="78" style="text-anchor:middle">10%</text><text x="706" y="219" style="text-anchor:middle">90%</text></g></g></g></g></g><g fill="#555" class="raphael-group-895-caption" font-family="Verdana,sans" font-weight="bold" text-anchor="middle"><text x="396" y="28" font-size="13" style="text-anchor:middle;font-family:Verdana,sans;font-size:13px;font-weight:700">Processing of Municipal Waste in Select Countries</text><text x="396" y="44" font-size="11" style="text-anchor:middle;font-family:Verdana,sans;font-size:11px;font-weight:700">For the year 2015</text></g><g class="raphael-group-901-legend"><g class="raphael-group-1018-legendGroup" transform="translate(71.5 438.5)"><rect width="649" height="25" fill="#fff" stroke="#545454" filter="url(&quot;#m&quot;)" rx="0" ry="0" style="cursor:default"/><g class="raphael-group-1020-item"><text x="23" y="16" fill="#555" font-family="Verdana,sans" font-size="10" style="font-family:Verdana,sans;cursor:pointer;font-size:10px;text-anchor:start;font-weight:400">Recycling &amp; composting</text><path fill="url('#n')" stroke="#72c1a4" stroke-linecap="round" stroke-width=".5" d="M7 7h11v11H7Z" style="cursor:pointer"/><rect width="141.35059" height="17" x="4" y="4" fill="none" rx="0" ry="0" style="cursor:pointer"/><text x="175.20059" y="16" fill="#555" font-family="Verdana,sans" font-size="10" style="font-family:Verdana,sans;cursor:pointer;font-size:10px;text-anchor:start;font-weight:400">Inceneration with energy recovery</text><path fill="url('#o')" stroke="#f1d795" stroke-linecap="round" stroke-width=".5" d="M159.20059 7h11v11h-11Z" style="cursor:pointer"/><rect width="195.31055" height="17" x="156.20059" y="4" fill="none" rx="0" ry="0" style="cursor:pointer"/><text x="381.36113" y="16" fill="#555" font-family="Verdana,sans" font-size="10" style="font-family:Verdana,sans;cursor:pointer;font-size:10px;text-anchor:start;font-weight:400">Inceneration without energy recovery</text><path fill="url('#p')" stroke="#e2c377" stroke-linecap="round" stroke-width=".5" d="M365.36113 7h11v11h-11Z" style="cursor:pointer"/><rect width="211.64844" height="17" x="362.36113" y="4" fill="none" rx="0" ry="0" style="cursor:pointer"/><text x="603.85957" y="16" fill="#555" font-family="Verdana,sans" font-size="10" style="font-family:Verdana,sans;cursor:pointer;font-size:10px;text-anchor:start;font-weight:400">Landfill</text><path fill="url('#q')" stroke="#e8e8e8" stroke-linecap="round" stroke-width=".5" d="M587.85957 7h11v11h-11Z" style="cursor:pointer"/><rect width="57.87891" height="17" x="584.85957" y="4" fill="none" rx="0" ry="0" style="cursor:pointer"/></g></g></g></g><g class="raphael-group-krAPourA" cursor="pointer" pointer-events="bounding-box" style="transition:.5s"><path d="M41 484.14v-9.59h5.8v1.44h-4.1v2.69h3.48v1.46h-3.47v4Zm7-2.68v-4.52h1.69v4.3c0 1.19.34 1.63 1.12 1.63.63 0 1-.3 1.59-1v-4.93h1.69v7.2h-1.42l-.13-1.05h0a3 3 0 0 1-2.32 1.23c-1.58 0-2.22-1.04-2.22-2.86Zm7.51 1.86.8-1.08a3.23 3.23 0 0 0 2 .8c.78 0 1.14-.36 1.14-.86s-.77-.87-1.54-1.16c-1-.35-2-.9-2-2.1s1-2.15 2.63-2.15a3.94 3.94 0 0 1 2.32.91l-.78 1a2.66 2.66 0 0 0-1.58-.62c-.72 0-1.06.34-1.06.79s.72.8 1.5 1.07c1 .37 2.06.84 2.06 2.19s-1 2.23-2.8 2.23a4.6 4.6 0 0 1-2.73-1.02Zm7.85-7.64a1 1 0 1 1 1-1 1 1 0 0 1-1 1Zm-.85 8.46v-7.2h1.69v7.2Zm3.38-3.59a3.44 3.44 0 1 1 6.85 0 3.44 3.44 0 1 1-6.85 0Zm1.73 0c0 1.44.63 2.39 1.69 2.39s1.69-.95 1.69-2.39-.65-2.41-1.7-2.41-1.68.96-1.68 2.41Zm6.79 3.59v-7.2h1.39l.12 1H76a3.34 3.34 0 0 1 2.36-1.14c1.54 0 2.21 1 2.21 2.86v4.51h-1.7v-4.32c0-1.19-.34-1.63-1.13-1.63a2.29 2.29 0 0 0-1.64.89v5Zm7.83-4.76c0-3.14 2-5 4.43-5a3.79 3.79 0 0 1 2.73 1.21l-.94 1.09a2.42 2.42 0 0 0-1.77-.79c-1.57-.03-2.69 1.29-2.69 3.44s1 3.51 2.64 3.51a2.57 2.57 0 0 0 2-1l.94 1.05a3.84 3.84 0 0 1-3 1.39c-2.42.04-4.34-1.72-4.34-4.9Zm8.76 4.76v-10.35h1.68v4.06a3.3 3.3 0 0 1 2.32-1.08c1.54 0 2.21 1 2.21 2.86v4.51h-1.72v-4.29c0-1.19-.34-1.63-1.13-1.63a2.33 2.33 0 0 0-1.65.89v5Zm7.9-1.93c0-1.54 1.29-2.35 4.24-2.67 0-.77-.33-1.41-1.3-1.41a4 4 0 0 0-2 .7l-.64-1.15a5.64 5.64 0 0 1 3-.93c1.8 0 2.68 1.1 2.68 3.1v4.27h-1.43l-.13-.79h0a3.49 3.49 0 0 1-2.22 1 2 2 0 0 1-2.2-2.12Zm1.65-.14c0 .65.42.93 1 .93a2.25 2.25 0 0 0 1.57-.79v-1.62c-1.93.25-2.57.77-2.57 1.48Zm6.33 2.07v-7.2h1.4l.11 1.28h.06a2.45 2.45 0 0 1 2-1.45 1.86 1.86 0 0 1 .82.14l-.27 1.47a2.46 2.46 0 0 0-.75-.12c-.57 0-1.26.4-1.7 1.48v4.4Zm5.72-2.46v-3.4h-1v-1.27l1.11-.07.21-2h1.4v2h1.84v1.34h-1.86v3.4c0 .85.33 1.26 1 1.26a2 2 0 0 0 .74-.16l.3 1.24a4.43 4.43 0 0 1-1.47.27c-1.65.03-2.27-1.03-2.27-2.61Zm4.33 1.61.79-1.08a3.26 3.26 0 0 0 2 .8c.77 0 1.14-.36 1.14-.86s-.78-.87-1.54-1.16c-.95-.35-2-.9-2-2.1s1-2.15 2.62-2.15a3.89 3.89 0 0 1 2.39.86l-.77 1a2.69 2.69 0 0 0-1.56-.56c-.72 0-1 .34-1 .79s.71.8 1.49 1.07c1 .37 2.07.84 2.07 2.19s-1 2.23-2.8 2.23a4.58 4.58 0 0 1-2.83-1ZM18 474.31h3.33v9.76H18zM22.8 479.11h3.41v4.96H22.8zM27.76 472.68h3.17v11.39M27.76 485.54h3.17v3.33h-3.17v-3.33M129.54 477.27h-2.39V476h6.28v1.27H131v7h-1.5ZM134.11 478.06h1.24l.11 1.11h0a2.15 2.15 0 0 1 1.77-1.27 1.7 1.7 0 0 1 .71.13l-.3 1.28a2.1 2.1 0 0 0-.6-.07c-.49 0-1.09.33-1.46 1.28v3.78h-1.51ZM138.75 476.14a.9.9 0 0 1 1.8 0 .9.9 0 0 1-1.8 0Zm.13 1.92h1.51v6.24h-1.51ZM141.89 482.62c0-1.37 1.09-2 3.65-2.33 0-.64-.27-1.17-1.11-1.17a3.6 3.6 0 0 0-1.75.58l-.53-1a4.78 4.78 0 0 1 2.56-.82c1.55 0 2.33 1 2.33 2.71v3.69h-1.22l-.12-.69h0a2.93 2.93 0 0 1-1.91.84 1.75 1.75 0 0 1-1.9-1.81Zm3.65 0v-1.32c-1.69.21-2.2.59-2.2 1.22s.35.74.86.74a1.85 1.85 0 0 0 1.34-.64ZM148.77 482.68v-7.34h1.51v7.4c0 .36.16.49.31.49a1 1 0 0 0 .23 0l.18 1.1a1.77 1.77 0 0 1-.79.14c-1.05-.02-1.44-.71-1.44-1.79Z"/></g></svg>