<svg xmlns="http://www.w3.org/2000/svg" width="547" height="450" style="overflow:hidden;-webkit-tap-highlight-color:transparent;user-select:none;cursor:default;vertical-align:middle;position:relative;background-color:#fff"><defs><linearGradient id="a" x1="0" x2="0" y1="1" y2="0"><stop offset="0%" stop-color="#cbcbcb" stop-opacity=".5"/><stop offset="100%" stop-color="#e9e9e9" stop-opacity=".5"/></linearGradient><linearGradient id="g" x1="0" x2="0" y1="0" y2="1"><stop offset="0%" stop-color="#afd8f8"/><stop offset="100%" stop-color="#fff"/></linearGradient><linearGradient id="h" x1="0" x2="0" y1="0" y2="1"><stop offset="0%" stop-color="#f6bd0f"/><stop offset="100%" stop-color="#fff"/></linearGradient><linearGradient id="i" x1="0" x2="0" y1="0" y2="1"><stop offset="0%" stop-color="#8bba00"/><stop offset="100%" stop-color="#fff"/></linearGradient><linearGradient id="m" x1="0" x2="0" y1="1" y2="0"><stop offset="0%" stop-color="#afd8f8"/><stop offset="70%" stop-color="#afd8f8"/><stop offset="100%" stop-color="#dff0fc"/><stop offset="100%" stop-color="#afd8f8"/><stop offset="100%" stop-color="#afd8f8"/></linearGradient><linearGradient id="n" x1="0" x2="0" y1="1" y2="0"><stop offset="0%" stop-color="#f6bd0f"/><stop offset="70%" stop-color="#f6bd0f"/><stop offset="100%" stop-color="#fce59f"/><stop offset="100%" stop-color="#f6bd0f"/><stop offset="100%" stop-color="#f6bd0f"/></linearGradient><linearGradient id="o" x1="0" x2="0" y1="1" y2="0"><stop offset="0%" stop-color="#8bba00"/><stop offset="70%" stop-color="#8bba00"/><stop offset="100%" stop-color="#d1e499"/><stop offset="100%" stop-color="#8bba00"/><stop offset="100%" stop-color="#8bba00"/></linearGradient><clipPath id="c"><path d="M69 68.8h460v291.7H69z"/></clipPath><clipPath id="b"><path d="M69 68.8h460v291.7H69z"/></clipPath><clipPath id="d"><path d="M69 68.8h460v291.7H69z"/></clipPath><clipPath id="f"><path d="M69 68.8h460v291.7H69z"/></clipPath><clipPath id="k"><path d="M69 68.8h460v291.7H69z"/></clipPath><clipPath id="e"><path d="M69 68.8h460v291.7H69z"/></clipPath><clipPath id="j"><path d="M69 0h460v360.5H69z"/></clipPath><filter id="l" width="2000%" height="2000%" x="-1000%" y="-1000%"><feOffset dx="1" dy="1" in="SourceGraphic" result="offOut"/><feColorMatrix in="offOut" result="matrixOut" values="0 0 0 0 0 0 0 0 0 0 0 0 0 0 0 0 0 0 0.3095875 0"/><feGaussianBlur in="matrixOut" result="blurOut" stdDeviation="1.73205"/><feComposite in="SourceGraphic" in2="blurOut"/></filter></defs><g class="raphael-group-223-parentgroup"><g class="raphael-group-224-background"><rect width="545" height="448" x="1" y="1" fill="url('#a')" rx="0" ry="0"/><rect width="546" height="449" x=".5" y=".5" fill="none" stroke="#767575" stroke-opacity=".5" rx="0" ry="0"/></g><g class="raphael-group-247-canvas"><rect width="462" height="293.7" x="68" y="67.8" fill="none" stroke="#545454" stroke-width="2" rx="0" ry="0"/><rect width="460" height="291.7" x="69" y="68.8" fill="#fff" rx="0" ry="0"/></g><g class="raphael-group-225-axisbottom"><g class="raphael-group-350-dataset-Name-group"><text x="22" y="218" fill="#555" class="raphael-group-359-dataset-axis-name" font-family="Verdana,sans" font-size="10" font-weight="bold" style="font-family:Verdana,sans;font-size:10px;font-weight:700;font-style:normal;text-anchor:middle" text-anchor="middle" transform="rotate(-90 22 214.65)">% Share</text></g><g class="raphael-group-353-dataset-Label-group"><g fill="#555" class="raphael-group-355-dataset-axis" font-family="Verdana,sans" font-size="10" style="font-family:Verdana,sans;font-size:10px;font-weight:400;font-style:normal" text-anchor="end"><text x="63" y="364" style="font-size:10px;text-anchor:end">0%</text><text x="63" y="305" style="font-size:10px;text-anchor:end">20%</text><text x="63" y="247" style="font-size:10px;text-anchor:end">40%</text><text x="63" y="188" style="font-size:10px;text-anchor:end">60%</text><text x="63" y="130" style="font-size:10px;text-anchor:end">80%</text><text x="63" y="72" style="font-size:10px;text-anchor:end">100%</text></g></g><g class="raphael-group-371-dataset-Label-group"><g fill="#555" class="raphael-group-373-dataset-axis" font-family="Verdana,sans" font-size="10" style="font-family:Verdana,sans;font-size:10px;font-weight:400;font-style:normal" text-anchor="middle"><text x="178.26307" y="376" style="text-anchor:middle">Desktops</text><text x="353.78087" y="376" style="text-anchor:middle">Laptops</text><text x="474.5178" y="376" style="text-anchor:middle">Tablets</text></g></g></g><g fill="#eee" fill-opacity=".5" class="raphael-group-249-axisReferenceVisualsFloor" clip-path="url('#b')"><rect width="460" height="58.34" x="69" y="243.82" rx="0" ry="0"/><rect width="460" height="58.34" x="69" y="127.14" rx="0" ry="0"/></g><g fill="none" stroke="#717170" stroke-opacity=".4" class="raphael-group-248-axisReferenceVisualsBottom" clip-path="url('#c')"><path d="M69 302.5h460M69 243.5h460M69 185.5h460M69 127.5h460"/></g><g class="raphael-group-227-plots" clip-path="url('#f')"><g class="raphael-group-261-area"><g class="raphael-group-277-vcanvas-area-plot"><g stroke="#333" class="raphael-group-299-manager-anchor-group"><g fill="url('#g')" class="raphael-group-312-plot-group"><rect width="219" height="112" x="68.5" y="249.5" rx="0" ry="0"/><rect width="133" height="124" x="287.5" y="237.5" rx="0" ry="0"/><rect width="109" height="110" x="420.5" y="251.5" rx="0" ry="0"/></g><g fill="url('#h')" class="raphael-group-322-plot-group"><rect width="219" height="81" x="68.5" y="168.5" rx="0" ry="0"/><rect width="133" height="108" x="287.5" y="129.5" rx="0" ry="0"/><rect width="109" height="80" x="420.5" y="171.5" rx="0" ry="0"/></g><g fill="url('#i')" class="raphael-group-332-plot-group"><rect width="219" height="100" x="68.5" y="68.5" rx="0" ry="0"/><rect width="133" height="61" x="287.5" y="68.5" rx="0" ry="0"/><rect width="109" height="103" x="420.5" y="68.5" rx="0" ry="0"/></g></g></g></g></g><g class="raphael-group-230-sumlabels fusioncharts-datalabels" clip-path="url('#j')"><g class="raphael-group-284-vcanvas-sumLabelsLayer"><g fill="#555" class="raphael-group-296-manager-sumLabelsLayer fusioncharts-datalabels" font-family="Verdana,sans" font-size="10" style="border-radius:0;font-family:Verdana,sans;font-size:10px;font-weight:400;font-style:normal" text-anchor="middle"><text x="178.26307" y="62" style="text-anchor:middle">$878K</text><text x="353.78087" y="62" style="text-anchor:middle">$532.4K</text><text x="474.5178" y="62" style="text-anchor:middle">$437.8K</text></g></g></g><g class="raphael-group-231-datalabel" clip-path="url('#k')" font-family="Verdana,sans" font-size="10" style="font-family:Verdana,sans;font-size:10px;font-weight:400;font-style:normal"><g class="raphael-group-253-canvasdatalabel"><g class="raphael-group-282-vcanvas-label"><g fill="#555" class="raphael-group-293-manager-vcanvasLabelGroup" font-size="10" font-weight="normal" text-anchor="middle"><g class="raphael-group-314-label-group fusioncharts-datalabels" style="font-family:Verdana,sans;font-size:10px;font-weight:400;font-style:normal"><text x="178" y="309" style="text-anchor:middle">$335K</text><text x="354" y="303" style="text-anchor:middle">$225.1K</text><text x="475" y="310" style="text-anchor:middle">$164.2K</text></g><g class="raphael-group-324-label-group fusioncharts-datalabels" style="font-family:Verdana,sans;font-size:10px;font-weight:400;font-style:normal"><text x="178" y="212" style="text-anchor:middle">$245K</text><text x="354" y="187" style="text-anchor:middle">$198K</text><text x="475" y="215" style="text-anchor:middle">$120K</text></g><g class="raphael-group-334-label-group fusioncharts-datalabels" style="font-family:Verdana,sans;font-size:10px;font-weight:400;font-style:normal"><text x="178" y="122" style="text-anchor:middle">$298K</text><text x="354" y="102" style="text-anchor:middle">$109.3K</text><text x="475" y="123" style="text-anchor:middle">$153.6K</text></g></g><g class="raphael-group-300-manager-commonLabelContainer"><rect width="43.83594" height="16" x="265.60815" y="345" fill="#fff" stroke="#555" rx="0" ry="0" shape-rendering="crispEdges" style="shape-rendering:crispedges"/><text x="287.52613" y="357" fill="#555" style="text-anchor:middle" text-anchor="middle">47.51%</text><rect width="43.83594" height="16" x="398.11765" y="345" fill="#fff" stroke="#555" rx="0" ry="0" shape-rendering="crispEdges" style="shape-rendering:crispedges"/><text x="420.0356" y="357" fill="#555" style="text-anchor:middle" text-anchor="middle">76.31%</text></g></g></g></g><g fill="#555" class="raphael-group-233-caption" font-family="Verdana,sans" font-weight="bold" text-anchor="middle"><text x="299" y="28" font-size="13" style="text-anchor:middle;font-family:Verdana,sans;font-size:13px;font-weight:700">Contribution to Overall Sales by Brand &amp; Category (in US $)</text><text x="299" y="44" font-size="11" style="text-anchor:middle;font-family:Verdana,sans;font-size:11px;font-weight:700">Previous financial year</text></g><g class="raphael-group-239-legend"><g class="raphael-group-338-legendGroup" transform="translate(208.5 388.5)"><rect width="181" height="25" fill="#fff" stroke="#545454" filter="url(&quot;#l&quot;)" rx="0" ry="0" style="cursor:default"/><g class="raphael-group-340-item"><text x="23" y="16" fill="#555" font-family="Verdana,sans" font-size="10" style="font-family:Verdana,sans;cursor:pointer;font-size:10px;text-anchor:start;font-weight:400">Sony Vaio</text><path fill="url('#m')" stroke="#cfe8fb" stroke-linecap="round" stroke-width=".5" d="M7 7h11v11H7Z" style="cursor:pointer"/><rect width="72.32227" height="17" x="4" y="4" fill="none" rx="0" ry="0" style="cursor:pointer"/><text x="106.17227" y="16" fill="#555" font-family="Verdana,sans" font-size="10" style="font-family:Verdana,sans;cursor:pointer;font-size:10px;text-anchor:start;font-weight:400">Dell</text><path fill="url('#n')" stroke="#fad76f" stroke-linecap="round" stroke-width=".5" d="M90.17227 7h11v11h-11Z" style="cursor:pointer"/><rect width="41.15039" height="17" x="87.17227" y="4" fill="none" rx="0" ry="0" style="cursor:pointer"/><text x="158.17266" y="16" fill="#555" font-family="Verdana,sans" font-size="10" style="font-family:Verdana,sans;cursor:pointer;font-size:10px;text-anchor:start;font-weight:400">HP</text><path fill="url('#o')" stroke="#b9d666" stroke-linecap="round" stroke-width=".5" d="M142.17266 7h11v11h-11Z" style="cursor:pointer"/><rect width="35.54492" height="17" x="139.17266" y="4" fill="none" rx="0" ry="0" style="cursor:pointer"/></g></g></g></g><g class="raphael-group-GKfOfCBu" cursor="pointer" pointer-events="bounding-box" style="transition:.5s"><path d="M41 434.14v-9.59h5.8v1.44h-4.1v2.69h3.48v1.46h-3.47v4Zm7-2.68v-4.52h1.69v4.3c0 1.19.34 1.63 1.12 1.63.63 0 1-.3 1.59-1v-4.93h1.69v7.2h-1.42l-.13-1.05h0a3 3 0 0 1-2.32 1.23c-1.58 0-2.22-1.04-2.22-2.86Zm7.51 1.86.8-1.08a3.23 3.23 0 0 0 2 .8c.78 0 1.14-.36 1.14-.86s-.77-.87-1.54-1.16c-1-.35-2-.9-2-2.1s1-2.15 2.63-2.15a3.94 3.94 0 0 1 2.32.91l-.78 1a2.66 2.66 0 0 0-1.58-.62c-.72 0-1.06.34-1.06.79s.72.8 1.5 1.07c1 .37 2.06.84 2.06 2.19s-1 2.23-2.8 2.23a4.6 4.6 0 0 1-2.73-1.02Zm7.85-7.64a1 1 0 1 1 1-1 1 1 0 0 1-1 1Zm-.85 8.46v-7.2h1.69v7.2Zm3.38-3.59a3.44 3.44 0 1 1 6.85 0 3.44 3.44 0 1 1-6.85 0Zm1.73 0c0 1.44.63 2.39 1.69 2.39s1.69-.95 1.69-2.39-.65-2.41-1.7-2.41-1.68.96-1.68 2.41Zm6.79 3.59v-7.2h1.39l.12 1H76a3.34 3.34 0 0 1 2.36-1.14c1.54 0 2.21 1 2.21 2.86v4.51h-1.7v-4.32c0-1.19-.34-1.63-1.13-1.63a2.29 2.29 0 0 0-1.64.89v5Zm7.83-4.76c0-3.14 2-5 4.43-5a3.79 3.79 0 0 1 2.73 1.21l-.94 1.09a2.42 2.42 0 0 0-1.77-.79c-1.57-.03-2.69 1.29-2.69 3.44s1 3.51 2.64 3.51a2.57 2.57 0 0 0 2-1l.94 1.05a3.84 3.84 0 0 1-3 1.39c-2.42.04-4.34-1.72-4.34-4.9Zm8.76 4.76v-10.35h1.68v4.06a3.3 3.3 0 0 1 2.32-1.08c1.54 0 2.21 1 2.21 2.86v4.51h-1.72v-4.29c0-1.19-.34-1.63-1.13-1.63a2.33 2.33 0 0 0-1.65.89v5Zm7.9-1.93c0-1.54 1.29-2.35 4.24-2.67 0-.77-.33-1.41-1.3-1.41a4 4 0 0 0-2 .7l-.64-1.15a5.64 5.64 0 0 1 3-.93c1.8 0 2.68 1.1 2.68 3.1v4.27h-1.43l-.13-.79h0a3.49 3.49 0 0 1-2.22 1 2 2 0 0 1-2.2-2.12Zm1.65-.14c0 .65.42.93 1 .93a2.25 2.25 0 0 0 1.57-.79v-1.62c-1.93.25-2.57.77-2.57 1.48Zm6.33 2.07v-7.2h1.4l.11 1.28h.06a2.45 2.45 0 0 1 2-1.45 1.86 1.86 0 0 1 .82.14l-.27 1.47a2.46 2.46 0 0 0-.75-.12c-.57 0-1.26.4-1.7 1.48v4.4Zm5.72-2.46v-3.4h-1v-1.27l1.11-.07.21-2h1.4v2h1.84v1.34h-1.86v3.4c0 .85.33 1.26 1 1.26a2 2 0 0 0 .74-.16l.3 1.24a4.43 4.43 0 0 1-1.47.27c-1.65.03-2.27-1.03-2.27-2.61Zm4.33 1.61.79-1.08a3.26 3.26 0 0 0 2 .8c.77 0 1.14-.36 1.14-.86s-.78-.87-1.54-1.16c-.95-.35-2-.9-2-2.1s1-2.15 2.62-2.15a3.89 3.89 0 0 1 2.39.86l-.77 1a2.69 2.69 0 0 0-1.56-.56c-.72 0-1 .34-1 .79s.71.8 1.49 1.07c1 .37 2.07.84 2.07 2.19s-1 2.23-2.8 2.23a4.58 4.58 0 0 1-2.83-1ZM18 424.31h3.33v9.76H18zM22.8 429.11h3.41v4.96H22.8zM27.76 422.68h3.17v11.39M27.76 435.54h3.17v3.33h-3.17v-3.33M129.54 427.27h-2.39V426h6.28v1.27H131v7h-1.5ZM134.11 428.06h1.24l.11 1.11h0a2.15 2.15 0 0 1 1.77-1.27 1.7 1.7 0 0 1 .71.13l-.3 1.28a2.1 2.1 0 0 0-.6-.07c-.49 0-1.09.33-1.46 1.28v3.78h-1.51ZM138.75 426.14a.9.9 0 0 1 1.8 0 .9.9 0 0 1-1.8 0Zm.13 1.92h1.51v6.24h-1.51ZM141.89 432.62c0-1.37 1.09-2 3.65-2.33 0-.64-.27-1.17-1.11-1.17a3.6 3.6 0 0 0-1.75.58l-.53-1a4.78 4.78 0 0 1 2.56-.82c1.55 0 2.33 1 2.33 2.71v3.69h-1.22l-.12-.69h0a2.93 2.93 0 0 1-1.91.84 1.75 1.75 0 0 1-1.9-1.81Zm3.65 0v-1.32c-1.69.21-2.2.59-2.2 1.22s.35.74.86.74a1.85 1.85 0 0 0 1.34-.64ZM148.77 432.68v-7.34h1.51v7.4c0 .36.16.49.31.49a1 1 0 0 0 .23 0l.18 1.1a1.77 1.77 0 0 1-.79.14c-1.05-.02-1.44-.71-1.44-1.79Z"/></g></svg>