<svg xmlns="http://www.w3.org/2000/svg" width="700" height="400" style="overflow:hidden;-webkit-tap-highlight-color:transparent;user-select:none;cursor:default;vertical-align:middle;position:relative;background-color:#fff"><defs><clipPath id="a"><path d="M95 84h590v181.2H95z"/></clipPath><clipPath id="b"><path d="M95 84h590v181.2H95z"/></clipPath><clipPath id="d"><path d="M93 82h594v185.2H93z"/></clipPath><clipPath id="f"><path d="M93 82h594v185.2H93z"/></clipPath><clipPath id="c"><path d="M93 82h594v185.2H93z"/></clipPath><clipPath id="e"><path d="M95 0h590v265.2H95z"/></clipPath></defs><g class="raphael-group-3-parentgroup"><g class="raphael-group-4-background"><rect width="700" height="400" fill="#fff" rx="0" ry="0"/><rect width="700" height="400" fill="none" rx="0" ry="0"/></g><rect width="590" height="181.2" x="95" y="84" fill="none" class="raphael-group-27-canvas" rx="0" ry="0"/><g class="raphael-group-5-axisbottom"><g class="raphael-group-132-dataset-Name-group"><text x="24" y="179" fill="#999" class="raphael-group-141-dataset-axis-name" font-family="Source Sans Pro" font-size="15" style="font-family:&quot;Source Sans Pro&quot;;font-size:15px;font-weight:400;font-style:normal;text-anchor:middle" text-anchor="middle" transform="rotate(-90 24 174.6)">Statewise Sales (in %)</text></g><g class="raphael-group-135-dataset-Label-group"><g fill="#5a5a5a" class="raphael-group-137-dataset-axis" font-family="Source Sans Pro" font-size="14" style="font-family:&quot;Source Sans Pro&quot;;font-size:14px;font-weight:400;font-style:normal" text-anchor="end"><text x="80" y="269" style="font-size:14px;text-anchor:end">0%</text><text x="80" y="233" style="font-size:14px;text-anchor:end">20%</text><text x="80" y="197" style="font-size:14px;text-anchor:end">40%</text><text x="80" y="161" style="font-size:14px;text-anchor:end">60%</text><text x="80" y="124" style="font-size:14px;text-anchor:end">80%</text><text x="80" y="88" style="font-size:14px;text-anchor:end">100%</text></g></g><g class="raphael-group-150-dataset-Name-group"><text x="390" y="321" fill="#999" class="raphael-group-159-dataset-axis-name" font-family="Source Sans Pro" font-size="15" style="font-family:&quot;Source Sans Pro&quot;;font-size:15px;font-weight:400;font-style:normal;text-anchor:middle" text-anchor="middle">Brand</text></g><g class="raphael-group-153-dataset-Label-group"><g fill="#5a5a5a" class="raphael-group-155-dataset-axis" font-family="Source Sans Pro" font-size="14" style="font-family:&quot;Source Sans Pro&quot;;font-size:14px;font-weight:400;font-style:normal" text-anchor="middle"><text x="232.58662" y="288" style="text-anchor:middle">Bose</text><text x="456.55428" y="288" style="text-anchor:middle">Dell</text><text x="613.96766" y="288" style="text-anchor:middle">Apple</text></g></g></g><g fill="none" stroke="#dfdfdf" stroke-opacity=".4" class="raphael-group-28-axisReferenceVisualsBottom"><path d="M95 265.5h590M95 228.5h590M95 192.5h590M95 156.5h590M95 120.5h590M95 84.5h590"/></g><g class="raphael-group-7-plots" clip-path="url('#d')"><g class="raphael-group-41-area"><g class="raphael-group-56-vcanvas-area-plot"><g stroke="#333" stroke-width=".25" class="raphael-group-78-manager-anchor-group"><g fill="#5d62b5" class="raphael-group-94-plot-group"><rect width="275" height="71" x="95.5" y="194.125" rx="0" ry="0"/><rect width="172" height="76" x="370.5" y="189.125" rx="0" ry="0"/><rect width="143" height="68" x="542.5" y="197.125" rx="0" ry="0"/></g><g fill="#29c3be" class="raphael-group-104-plot-group"><rect width="275" height="46" x="95.5" y="148.125" rx="0" ry="0"/><rect width="172" height="68" x="370.5" y="121.125" rx="0" ry="0"/><rect width="143" height="49" x="542.5" y="148.125" rx="0" ry="0"/></g><g fill="#f2726f" class="raphael-group-114-plot-group"><rect width="275" height="64" x="95.5" y="84.125" rx="0" ry="0"/><rect width="172" height="37" x="370.5" y="84.125" rx="0" ry="0"/><rect width="143" height="64" x="542.5" y="84.125" rx="0" ry="0"/></g></g></g></g></g><g class="raphael-group-10-sumlabels fusioncharts-datalabels" clip-path="url('#e')"><g class="raphael-group-63-vcanvas-sumLabelsLayer"><g class="raphael-group-75-manager-sumLabelsLayer fusioncharts-datalabels" font-family="Source Sans Pro" font-size="14" style="border-width:1px;border-style:solid;border-image:initial;border-radius:0;background-color:rgba(255,255,255,.6);font-family:&quot;Source Sans Pro&quot;;font-size:14px;font-weight:400;font-style:normal"><rect width="39.94531" height="22" x="212.61398" y="62" fill="#fff" fill-opacity=".6" rx="0" ry="0" shape-rendering="crispEdges" style="shape-rendering:crispedges"/><text x="232.58662" y="78" style="text-anchor:middle" text-anchor="middle">$848K</text><rect width="50.38281" height="22" x="431.36288" y="62" fill="#fff" fill-opacity=".6" rx="0" ry="0" shape-rendering="crispEdges" style="shape-rendering:crispedges"/><text x="456.55428" y="78" style="text-anchor:middle" text-anchor="middle">$532.4K</text><rect width="50.38281" height="22" x="588.77625" y="62" fill="#fff" fill-opacity=".6" rx="0" ry="0" shape-rendering="crispEdges" style="shape-rendering:crispedges"/><text x="613.96766" y="78" style="text-anchor:middle" text-anchor="middle">$437.8K</text></g></g></g><g class="raphael-group-11-datalabel" clip-path="url('#f')" font-family="Source Sans Pro" font-size="14" style="font-family:&quot;Source Sans Pro&quot;;font-size:14px;font-weight:400;font-style:normal"><g class="raphael-group-33-canvasdatalabel"><g class="raphael-group-61-vcanvas-label"><g class="raphael-group-79-manager-commonLabelContainer"><rect width="46.85938" height="22" x="346.74356" y="244" fill="#fff" fill-opacity=".6" stroke="#000" rx="0" ry="0" shape-rendering="crispEdges" style="shape-rendering:crispedges"/><text x="370.17325" y="260" style="text-anchor:middle" text-anchor="middle">46.64%</text><rect width="46.85938" height="22" x="519.50562" y="244" fill="#fff" fill-opacity=".6" stroke="#000" rx="0" ry="0" shape-rendering="crispEdges" style="shape-rendering:crispedges"/><text x="542.93532" y="260" style="text-anchor:middle" text-anchor="middle">75.92%</text></g></g></g></g><g class="raphael-group-13-caption" font-family="Source Sans Pro" text-anchor="middle"><text x="390" y="31" fill="#5a5a5a" font-size="18" font-weight="bold" style="text-anchor:middle;font-family:&quot;Source Sans Pro&quot;;font-size:18px;font-weight:700">Top 3 Electronic Brands in Top 3 Revenue Earning States</text><text x="390" y="50" fill="#999" font-size="13" style="text-anchor:middle;font-family:&quot;Source Sans Pro&quot;;font-size:13px;font-weight:400">Last month</text></g><g class="raphael-group-19-legend"><g class="raphael-group-120-legendGroup" transform="translate(242 333)"><rect width="297" height="30" fill="none" rx="0" ry="0" style="cursor:default"/><g class="raphael-group-122-item"><text x="28" y="20" fill="#7c7c7c" font-family="Source Sans Pro" font-size="15" style="font-family:&quot;Source Sans Pro&quot;;cursor:pointer;font-size:15px;text-anchor:start;font-weight:400">California</text><path fill="#5d62b5" d="M20.65685 9.34315H9.34315v11.3137h11.3137Z" style="cursor:pointer"/><rect width="87.80991" height="22" x="4" y="4" fill="none" rx="0" ry="0" style="cursor:pointer"/><text x="126.90991" y="20" fill="#7c7c7c" font-family="Source Sans Pro" font-size="15" style="font-family:&quot;Source Sans Pro&quot;;cursor:pointer;font-size:15px;text-anchor:start;font-weight:400">Washington</text><path fill="#29c3be" d="M119.56676 9.34315h-11.3137v11.3137h11.3137Z" style="cursor:pointer"/><rect width="101.65491" height="22" x="102.90991" y="4" fill="none" rx="0" ry="0" style="cursor:pointer"/><text x="239.66481" y="20" fill="#7c7c7c" font-family="Source Sans Pro" font-size="15" style="font-family:&quot;Source Sans Pro&quot;;cursor:pointer;font-size:15px;text-anchor:start;font-weight:400">Nevada</text><path fill="#f2726f" d="M232.32167 9.34315h-11.31371v11.3137h11.3137Z" style="cursor:pointer"/><rect width="74.59496" height="22" x="215.66481" y="4" fill="none" rx="0" ry="0" style="cursor:pointer"/></g></g></g></g><g class="raphael-group-AWughUNz" cursor="pointer" pointer-events="bounding-box" style="transition:.5s"><path d="M41 384.14v-9.59h5.8v1.44h-4.1v2.69h3.48v1.46h-3.47v4Zm7-2.68v-4.52h1.69v4.3c0 1.19.34 1.63 1.12 1.63.63 0 1-.3 1.59-1v-4.93h1.69v7.2h-1.42l-.13-1.05h0a3 3 0 0 1-2.32 1.23c-1.58 0-2.22-1.04-2.22-2.86Zm7.51 1.86.8-1.08a3.23 3.23 0 0 0 2 .8c.78 0 1.14-.36 1.14-.86s-.77-.87-1.54-1.16c-1-.35-2-.9-2-2.1s1-2.15 2.63-2.15a3.94 3.94 0 0 1 2.32.91l-.78 1a2.66 2.66 0 0 0-1.58-.62c-.72 0-1.06.34-1.06.79s.72.8 1.5 1.07c1 .37 2.06.84 2.06 2.19s-1 2.23-2.8 2.23a4.6 4.6 0 0 1-2.73-1.02Zm7.85-7.64a1 1 0 1 1 1-1 1 1 0 0 1-1 1Zm-.85 8.46v-7.2h1.69v7.2Zm3.38-3.59a3.44 3.44 0 1 1 6.85 0 3.44 3.44 0 1 1-6.85 0Zm1.73 0c0 1.44.63 2.39 1.69 2.39s1.69-.95 1.69-2.39-.65-2.41-1.7-2.41-1.68.96-1.68 2.41Zm6.79 3.59v-7.2h1.39l.12 1H76a3.34 3.34 0 0 1 2.36-1.14c1.54 0 2.21 1 2.21 2.86v4.51h-1.7v-4.32c0-1.19-.34-1.63-1.13-1.63a2.29 2.29 0 0 0-1.64.89v5Zm7.83-4.76c0-3.14 2-5 4.43-5a3.79 3.79 0 0 1 2.73 1.21l-.94 1.09a2.42 2.42 0 0 0-1.77-.79c-1.57-.03-2.69 1.29-2.69 3.44s1 3.51 2.64 3.51a2.57 2.57 0 0 0 2-1l.94 1.05a3.84 3.84 0 0 1-3 1.39c-2.42.04-4.34-1.72-4.34-4.9Zm8.76 4.76v-10.35h1.68v4.06a3.3 3.3 0 0 1 2.32-1.08c1.54 0 2.21 1 2.21 2.86v4.51h-1.72v-4.29c0-1.19-.34-1.63-1.13-1.63a2.33 2.33 0 0 0-1.65.89v5Zm7.9-1.93c0-1.54 1.29-2.35 4.24-2.67 0-.77-.33-1.41-1.3-1.41a4 4 0 0 0-2 .7l-.64-1.15a5.64 5.64 0 0 1 3-.93c1.8 0 2.68 1.1 2.68 3.1v4.27h-1.43l-.13-.79h0a3.49 3.49 0 0 1-2.22 1 2 2 0 0 1-2.2-2.12Zm1.65-.14c0 .65.42.93 1 .93a2.25 2.25 0 0 0 1.57-.79v-1.62c-1.93.25-2.57.77-2.57 1.48Zm6.33 2.07v-7.2h1.4l.11 1.28h.06a2.45 2.45 0 0 1 2-1.45 1.86 1.86 0 0 1 .82.14l-.27 1.47a2.46 2.46 0 0 0-.75-.12c-.57 0-1.26.4-1.7 1.48v4.4Zm5.72-2.46v-3.4h-1v-1.27l1.11-.07.21-2h1.4v2h1.84v1.34h-1.86v3.4c0 .85.33 1.26 1 1.26a2 2 0 0 0 .74-.16l.3 1.24a4.43 4.43 0 0 1-1.47.27c-1.65.03-2.27-1.03-2.27-2.61Zm4.33 1.61.79-1.08a3.26 3.26 0 0 0 2 .8c.77 0 1.14-.36 1.14-.86s-.78-.87-1.54-1.16c-.95-.35-2-.9-2-2.1s1-2.15 2.62-2.15a3.89 3.89 0 0 1 2.39.86l-.77 1a2.69 2.69 0 0 0-1.56-.56c-.72 0-1 .34-1 .79s.71.8 1.49 1.07c1 .37 2.07.84 2.07 2.19s-1 2.23-2.8 2.23a4.58 4.58 0 0 1-2.83-1ZM18 374.31h3.33v9.76H18zM22.8 379.11h3.41v4.96H22.8zM27.76 372.68h3.17v11.39M27.76 385.54h3.17v3.33h-3.17v-3.33M129.54 377.27h-2.39V376h6.28v1.27H131v7h-1.5ZM134.11 378.06h1.24l.11 1.11h0a2.15 2.15 0 0 1 1.77-1.27 1.7 1.7 0 0 1 .71.13l-.3 1.28a2.1 2.1 0 0 0-.6-.07c-.49 0-1.09.33-1.46 1.28v3.78h-1.51ZM138.75 376.14a.9.9 0 0 1 1.8 0 .9.9 0 0 1-1.8 0Zm.13 1.92h1.51v6.24h-1.51ZM141.89 382.62c0-1.37 1.09-2 3.65-2.33 0-.64-.27-1.17-1.11-1.17a3.6 3.6 0 0 0-1.75.58l-.53-1a4.78 4.78 0 0 1 2.56-.82c1.55 0 2.33 1 2.33 2.71v3.69h-1.22l-.12-.69h0a2.93 2.93 0 0 1-1.91.84 1.75 1.75 0 0 1-1.9-1.81Zm3.65 0v-1.32c-1.69.21-2.2.59-2.2 1.22s.35.74.86.74a1.85 1.85 0 0 0 1.34-.64ZM148.77 382.68v-7.34h1.51v7.4c0 .36.16.49.31.49a1 1 0 0 0 .23 0l.18 1.1a1.77 1.77 0 0 1-.79.14c-1.05-.02-1.44-.71-1.44-1.79Z"/></g></svg>