<svg viewBox="0,0,975,720" xmlns="http://www.w3.org/2000/svg" xmlns:xlink="http://www.w3.org/1999/xlink"><g><rect x="0" y="5" height="440.0272603362108" width="4"><title>Perished
1,490</title></rect><rect x="0" y="465.0272603362108" height="209.97273966378918" width="4"><title>Survived
711</title></rect><rect x="323.6666666666667" y="5" height="511.1994547932759" width="4"><title>Male
1,731</title></rect><rect x="323.6666666666667" y="536.1994547932759" height="138.800545206724" width="4"><title>Female
470</title></rect><rect x="647.3333333333334" y="5" height="617.8100863243982" width="4"><title>Adult
2,092</title></rect><rect x="647.3333333333334" y="642.8100863243982" height="32.189913675602156" width="4"><title>Child
109</title></rect><rect x="971" y="5" height="261.35847342117216" width="4"><title>Crew
885</title></rect><rect x="971" y="286.35847342117216" height="208.4961381190368" width="4"><title>Third Class
706</title></rect><rect x="971" y="514.8546115402089" height="84.16628805088601" width="4"><title>Second Class
285</title></rect><rect x="971" y="619.0208995910949" height="95.97910040890508" width="4"><title>First Class
325</title></rect></g><g fill="none"><path d="M4,206.40845070422534C163.83333333333334,206.40845070422534,163.83333333333334,206.40845070422534,323.6666666666667,206.40845070422534" stroke="#da4f81" stroke-width="402.8169014084507" style="mix-blend-mode: multiply;"><title>Perished → Male
1,364</title></path><path d="M4,426.42208087233075C163.83333333333334,426.42208087233075,163.83333333333334,554.804634257156,323.6666666666667,554.804634257156" stroke="#da4f81" stroke-width="37.21035892776011" style="mix-blend-mode: multiply;"><title>Perished → Female
126</title></path><path d="M4,519.2185370286234C163.83333333333334,519.2185370286234,163.83333333333334,462.00817810086323,323.6666666666667,462.00817810086323" stroke="#ccc" stroke-width="108.38255338482509" style="mix-blend-mode: multiply;"><title>Survived → Male
367</title></path><path d="M4,624.204906860518C163.83333333333334,624.204906860518,163.83333333333334,624.2049068605181,323.6666666666667,624.2049068605181" stroke="#ccc" stroke-width="101.59018627896411" style="mix-blend-mode: multiply;"><title>Survived → Female
344</title></path><path d="M327.6666666666667,201.240345297592C487.5,201.240345297592,487.5,201.240345297592,647.3333333333334,201.240345297592" stroke="#da4f81" stroke-width="392.480690595184" style="mix-blend-mode: multiply;"><title>Perished → Male → Adult
1,329</title></path><path d="M327.6666666666667,402.64879600181735C487.5,402.64879600181735,487.5,647.9781917310315,647.3333333333334,647.9781917310315" stroke="#da4f81" stroke-width="10.336210813266698" style="mix-blend-mode: multiply;"><title>Perished → Male → Child
35</title></path><path d="M327.6666666666667,552.2944116310769C487.5,552.2944116310769,487.5,413.575647432985,647.3333333333334,413.575647432985" stroke="#da4f81" stroke-width="32.189913675602" style="mix-blend-mode: multiply;"><title>Perished → Female → Adult
109</title></path><path d="M327.6666666666667,570.899591094957C487.5,570.899591094957,487.5,655.656519763744,647.3333333333334,655.656519763744" stroke="#da4f81" stroke-width="5.02044525215811" style="mix-blend-mode: multiply;"><title>Perished → Female → Child
17</title></path><path d="M327.6666666666667,457.72603362108134C487.5,457.72603362108134,487.5,479.5797364834166,647.3333333333334,479.5797364834166" stroke="#ccc" stroke-width="99.81826442526125" style="mix-blend-mode: multiply;"><title>Survived → Male → Adult
338</title></path><path d="M327.6666666666667,511.91731031349383C487.5,511.91731031349383,487.5,662.4488868696048,647.3333333333334,662.4488868696048" stroke="#ccc" stroke-width="8.564288959563834" style="mix-blend-mode: multiply;"><title>Survived → Male → Child
29</title></path><path d="M327.6666666666667,620.0704225352114C487.5,620.0704225352114,487.5,576.1494775102226,647.3333333333334,576.1494775102226" stroke="#ccc" stroke-width="93.32121762835075" style="mix-blend-mode: multiply;"><title>Survived → Female → Adult
316</title></path><path d="M327.6666666666667,670.8655156746934C487.5,670.8655156746934,487.5,670.8655156746934,647.3333333333334,670.8655156746934" stroke="#ccc" stroke-width="8.268968650613358" style="mix-blend-mode: multiply;"><title>Survived → Female → Child
28</title></path><path d="M651.3333333333334,103.93230349840981C811.1666666666667,103.93230349840981,811.1666666666667,103.93230349840981,971,103.93230349840981" stroke="#da4f81" stroke-width="197.86460699681962" style="mix-blend-mode: multiply;"><title>Perished → Male → Adult → Crew
670</title></path><path d="M651.3333333333334,260.0090867787369C811.1666666666667,260.0090867787369,811.1666666666667,343.5029532030895,971,343.5029532030895" stroke="#da4f81" stroke-width="114.28895956383462" style="mix-blend-mode: multiply;"><title>Perished → Male → Adult → Third Class
387</title></path><path d="M651.3333333333334,339.89323034984096C811.1666666666667,339.89323034984096,811.1666666666667,537.5942753293956,971,537.5942753293956" stroke="#da4f81" stroke-width="45.479327578373464" style="mix-blend-mode: multiply;"><title>Perished → Male → Adult → Second Class
154</title></path><path d="M651.3333333333334,380.0567923671058C811.1666666666667,380.0567923671058,811.1666666666667,636.4447978191731,971,636.4447978191731" stroke="#da4f81" stroke-width="34.847796456156296" style="mix-blend-mode: multiply;"><title>Perished → Male → Adult → First Class
118</title></path><path d="M651.3333333333334,647.9781917310315C811.1666666666667,647.9781917310315,811.1666666666667,405.81553839164013,971,405.81553839164013" stroke="#da4f81" stroke-width="10.336210813266698" style="mix-blend-mode: multiply;"><title>Perished → Male → Child → Third Class
35</title></path><path d="M651.3333333333334,397.92367105860967C811.1666666666667,397.92367105860967,811.1666666666667,203.30758746024534,971,203.30758746024534" stroke="#da4f81" stroke-width="0.8859609268514312" style="mix-blend-mode: multiply;"><title>Perished → Female → Adult → Crew
3</title></path><path d="M651.3333333333334,411.50840527033165C811.1666666666667,411.50840527033165,811.1666666666667,424.12539754656973,971,424.12539754656973" stroke="#da4f81" stroke-width="26.28350749659246" style="mix-blend-mode: multiply;"><title>Perished → Female → Adult → Third Class
89</title></path><path d="M651.3333333333334,426.56974102680596C811.1666666666667,426.56974102680596,811.1666666666667,562.2535211267605,971,562.2535211267605" stroke="#da4f81" stroke-width="3.839164016356202" style="mix-blend-mode: multiply;"><title>Perished → Female → Adult → Second Class
13</title></path><path d="M651.3333333333334,429.079963652885C811.1666666666667,429.079963652885,811.1666666666667,654.4593366651521,971,654.4593366651521" stroke="#da4f81" stroke-width="1.1812812358019082" style="mix-blend-mode: multiply;"><title>Perished → Female → Adult → First Class
4</title></path><path d="M651.3333333333334,655.656519763744C811.1666666666667,655.656519763744,811.1666666666667,439.77737392094497,971,439.77737392094497" stroke="#da4f81" stroke-width="5.02044525215811" style="mix-blend-mode: multiply;"><title>Perished → Female → Child → Third Class
17</title></path><path d="M651.3333333333334,458.0213539300318C811.1666666666667,458.0213539300318,811.1666666666667,232.10131758291683,971,232.10131758291683" stroke="#ccc" stroke-width="56.7014993184916" style="mix-blend-mode: multiply;"><title>Survived → Male → Adult → Crew
192</title></path><path d="M651.3333333333334,497.44661517492045C811.1666666666667,497.44661517492045,811.1666666666667,453.3621081326669,971,453.3621081326669" stroke="#ccc" stroke-width="22.14902317128578" style="mix-blend-mode: multiply;"><title>Survived → Male → Adult → Third Class
75</title></path><path d="M651.3333333333334,510.58836892321665C811.1666666666667,510.58836892321665,811.1666666666667,566.240345297592,971,566.240345297592" stroke="#ccc" stroke-width="4.134484325306679" style="mix-blend-mode: multiply;"><title>Survived → Male → Adult → Second Class
14</title></path><path d="M651.3333333333334,521.0722398909586C811.1666666666667,521.0722398909586,811.1666666666667,663.4666060881417,971,663.4666060881417" stroke="#ccc" stroke-width="16.833257610177192" style="mix-blend-mode: multiply;"><title>Survived → Male → Adult → First Class
57</title></path><path d="M651.3333333333334,660.086324398001C811.1666666666667,660.086324398001,811.1666666666667,466.3562017264879,971,466.3562017264879" stroke="#ccc" stroke-width="3.839164016356202" style="mix-blend-mode: multiply;"><title>Survived → Male → Child → Third Class
13</title></path><path d="M651.3333333333334,663.6301681054068C811.1666666666667,663.6301681054068,811.1666666666667,569.9318491594729,971,569.9318491594729" stroke="#ccc" stroke-width="3.2485233984552475" style="mix-blend-mode: multiply;"><title>Survived → Male → Child → Second Class
11</title></path><path d="M651.3333333333334,665.9927305770107C811.1666666666667,665.9927305770107,811.1666666666667,672.6215356656064,971,672.6215356656064" stroke="#ccc" stroke-width="1.4766015447523853" style="mix-blend-mode: multiply;"><title>Survived → Male → Child → First Class
5</title></path><path d="M651.3333333333334,532.4420717855519C811.1666666666667,532.4420717855519,811.1666666666667,263.4052703316674,971,263.4052703316674" stroke="#ccc" stroke-width="5.906406179009541" style="mix-blend-mode: multiply;"><title>Survived → Female → Adult → Crew
20</title></path><path d="M651.3333333333334,546.6174466151748C811.1666666666667,546.6174466151748,811.1666666666667,479.49795547478413,971,479.49795547478413" stroke="#ccc" stroke-width="22.444343480236256" style="mix-blend-mode: multiply;"><title>Survived → Female → Adult → Third Class
76</title></path><path d="M651.3333333333334,569.652430713312C811.1666666666667,569.652430713312,811.1666666666667,583.3689232167196,971,583.3689232167196" stroke="#ccc" stroke-width="23.625624716038164" style="mix-blend-mode: multiply;"><title>Survived → Female → Adult → Second Class
80</title></path><path d="M651.3333333333334,602.1376646978645C811.1666666666667,602.1376646978645,811.1666666666667,694.032258064516,971,694.032258064516" stroke="#ccc" stroke-width="41.34484325306679" style="mix-blend-mode: multiply;"><title>Survived → Female → Adult → First Class
140</title></path><path d="M651.3333333333334,668.7982735120402C811.1666666666667,668.7982735120402,811.1666666666667,492.7873693775556,971,492.7873693775556" stroke="#ccc" stroke-width="4.134484325306679" style="mix-blend-mode: multiply;"><title>Survived → Female → Child → Third Class
14</title></path><path d="M651.3333333333334,672.7850976828715C811.1666666666667,672.7850976828715,811.1666666666667,597.1013175829167,971,597.1013175829167" stroke="#ccc" stroke-width="3.839164016356202" style="mix-blend-mode: multiply;"><title>Survived → Female → Child → Second Class
13</title></path><path d="M651.3333333333334,674.852339845525C811.1666666666667,674.852339845525,811.1666666666667,714.8523398455246,971,714.8523398455246" stroke="#ccc" stroke-width="0.29532030895047706" style="mix-blend-mode: multiply;"><title>Survived → Female → Child → First Class
1</title></path></g><g style="font: 10px sans-serif;"><text x="10" y="225.0136301681054" dy="0.35em" text-anchor="start">Perished<tspan fill-opacity="0.7"> 1,490</tspan></text><text x="10" y="570.0136301681055" dy="0.35em" text-anchor="start">Survived<tspan fill-opacity="0.7"> 711</tspan></text><text x="333.6666666666667" y="260.59972739663795" dy="0.35em" text-anchor="start">Male<tspan fill-opacity="0.7"> 1,731</tspan></text><text x="333.6666666666667" y="605.599727396638" dy="0.35em" text-anchor="start">Female<tspan fill-opacity="0.7"> 470</tspan></text><text x="641.3333333333334" y="313.9050431621991" dy="0.35em" text-anchor="end">Adult<tspan fill-opacity="0.7"> 2,092</tspan></text><text x="641.3333333333334" y="658.9050431621993" dy="0.35em" text-anchor="end">Child<tspan fill-opacity="0.7"> 109</tspan></text><text x="965" y="135.67923671058608" dy="0.35em" text-anchor="end">Crew<tspan fill-opacity="0.7"> 885</tspan></text><text x="965" y="390.60654248069056" dy="0.35em" text-anchor="end">Third Class<tspan fill-opacity="0.7"> 706</tspan></text><text x="965" y="556.937755565652" dy="0.35em" text-anchor="end">Second Class<tspan fill-opacity="0.7"> 285</tspan></text><text x="965" y="667.0104497955474" dy="0.35em" text-anchor="end">First Class<tspan fill-opacity="0.7"> 325</tspan></text></g></svg>