<svg xmlns="http://www.w3.org/2000/svg" xmlns:xlink="http://www.w3.org/1999/xlink" viewBox="0 0 350 400">
  <defs>
    <style>
      .cls-1,.cls-2,.cls-22,.cls-27,.cls-3,.cls-33,.cls-64,.cls-7{fill:none;}.cls-1{stroke:gray;stroke-width:0.5px;}.cls-1,.cls-3,.cls-33,.cls-64{stroke-miterlimit:10;}.cls-3{stroke:#9a9a9a;}.cls-3,.cls-33{stroke-width:0.25px;}.cls-4{fill:red;}.cls-4,.cls-5{opacity:0.5;}.cls-5{fill:lime;}.cls-6{fill:aqua;}.cls-6,.cls-8,.cls-9{opacity:0.6;}.cls-27,.cls-7{stroke:#333;}.cls-7{stroke-linecap:round;stroke-width:4px;}.cls-10,.cls-8{font-size:18px;}.cls-10,.cls-25,.cls-31,.cls-34,.cls-8{font-family:MyriadPro-Semibold, Myriad Pro;font-weight:700;}.cls-11,.cls-19{opacity:0.9;}.cls-11,.cls-19,.cls-23,.cls-31,.cls-34,.cls-37{font-size:14px;}.cls-11,.cls-19,.cls-23,.cls-28{font-family:MyriadPro-Light, Myriad Pro;}.cls-12{letter-spacing:0.01em;}.cls-13{letter-spacing:0.01em;}.cls-14{letter-spacing:0.03em;}.cls-15{letter-spacing:0.01em;}.cls-16{letter-spacing:0em;}.cls-17{letter-spacing:0.01em;}.cls-18{letter-spacing:-0.06em;}.cls-19{letter-spacing:0.01em;}.cls-20{letter-spacing:-0.01em;}.cls-21{letter-spacing:0em;}.cls-22{stroke:#000;}.cls-24{letter-spacing:-0.07em;}.cls-26{fill:#333;}.cls-28{font-size:12px;}.cls-29{letter-spacing:0.03em;}.cls-30{letter-spacing:-0.01em;}.cls-32{fill:#c7b299;opacity:0.25;}.cls-33{stroke:#666;}.cls-34{letter-spacing:0.01em;}.cls-35{clip-path:url(#clip-path);}.cls-36{clip-path:url(#clip-path-2);}.cls-37,.cls-56,.cls-62{font-family:MyriadPro-Regular, Myriad Pro;}.cls-38{clip-path:url(#clip-path-3);}.cls-39{clip-path:url(#clip-path-4);}.cls-40{clip-path:url(#clip-path-5);}.cls-41{clip-path:url(#clip-path-6);}.cls-42{clip-path:url(#clip-path-7);}.cls-43{clip-path:url(#clip-path-8);}.cls-44{clip-path:url(#clip-path-9);}.cls-45{clip-path:url(#clip-path-10);}.cls-46{clip-path:url(#clip-path-11);}.cls-47{clip-path:url(#clip-path-12);}.cls-48{clip-path:url(#clip-path-13);}.cls-49{clip-path:url(#clip-path-14);}.cls-50{clip-path:url(#clip-path-15);}.cls-51{clip-path:url(#clip-path-16);}.cls-52{clip-path:url(#clip-path-17);}.cls-53{clip-path:url(#clip-path-18);}.cls-54{clip-path:url(#clip-path-19);}.cls-55{clip-path:url(#clip-path-20);}.cls-56{opacity:0.8;letter-spacing:0em;}.cls-56,.cls-62{font-size:16px;}.cls-57{letter-spacing:0.01em;}.cls-58{letter-spacing:0.03em;}.cls-59{letter-spacing:0.01em;}.cls-60{letter-spacing:0.01em;}.cls-61{letter-spacing:0.01em;}.cls-62{letter-spacing:0.01em;}.cls-63{letter-spacing:0em;}.cls-64{stroke:#736357;}
    </style>
    <clipPath id="clip-path">
      <rect class="cls-1" x="19.9" y="398.65" width="100.5" height="71.71"/>
    </clipPath>
    <clipPath id="clip-path-2">
      <rect class="cls-2" x="120.7" y="398.65" width="70.73" height="23.71"/>
    </clipPath>
    <clipPath id="clip-path-3">
      <rect class="cls-2" x="191.73" y="398.65" width="68.45" height="23.71"/>
    </clipPath>
    <clipPath id="clip-path-4">
      <rect class="cls-2" x="260.48" y="398.65" width="70.82" height="23.71"/>
    </clipPath>
    <clipPath id="clip-path-5">
      <rect class="cls-2" x="120.7" y="422.65" width="70.73" height="23.71"/>
    </clipPath>
    <clipPath id="clip-path-6">
      <rect class="cls-2" x="191.73" y="422.65" width="68.45" height="23.71"/>
    </clipPath>
    <clipPath id="clip-path-7">
      <rect class="cls-2" x="260.48" y="422.65" width="70.82" height="23.71"/>
    </clipPath>
    <clipPath id="clip-path-8">
      <rect class="cls-2" x="120.7" y="446.65" width="70.73" height="23.71"/>
    </clipPath>
    <clipPath id="clip-path-9">
      <rect class="cls-2" x="191.73" y="446.65" width="68.45" height="23.71"/>
    </clipPath>
    <clipPath id="clip-path-10">
      <rect class="cls-2" x="260.48" y="446.65" width="70.82" height="23.71"/>
    </clipPath>
    <clipPath id="clip-path-11">
      <rect class="cls-3" x="19.9" y="470.66" width="100.5" height="71.71"/>
    </clipPath>
    <clipPath id="clip-path-12">
      <rect class="cls-2" x="120.7" y="470.66" width="70.73" height="23.71"/>
    </clipPath>
    <clipPath id="clip-path-13">
      <rect class="cls-2" x="191.73" y="470.66" width="68.45" height="23.71"/>
    </clipPath>
    <clipPath id="clip-path-14">
      <rect class="cls-2" x="260.48" y="470.66" width="70.82" height="23.71"/>
    </clipPath>
    <clipPath id="clip-path-15">
      <rect class="cls-2" x="120.7" y="494.66" width="70.73" height="23.71"/>
    </clipPath>
    <clipPath id="clip-path-16">
      <rect class="cls-2" x="191.73" y="494.66" width="68.45" height="23.71"/>
    </clipPath>
    <clipPath id="clip-path-17">
      <rect class="cls-2" x="260.48" y="494.66" width="70.82" height="23.71"/>
    </clipPath>
    <clipPath id="clip-path-18">
      <rect class="cls-2" x="120.7" y="518.66" width="70.73" height="23.71"/>
    </clipPath>
    <clipPath id="clip-path-19">
      <rect class="cls-2" x="191.73" y="518.66" width="68.45" height="23.71"/>
    </clipPath>
    <clipPath id="clip-path-20">
      <rect class="cls-2" x="260.48" y="518.66" width="70.82" height="23.71"/>
    </clipPath>
  </defs>
  <title>paralel_setler</title>
  <g id="Layer_1" data-name="Layer 1">
    <rect class="cls-4" x="18.57" y="91.24" width="40.64" height="195.32"/>
    <polygon class="cls-4" points="89.01 287.31 58.72 287.31 152.19 90.5 182.48 90.5 89.01 287.31"/>
    <polygon class="cls-5" points="133.84 286.56 95.53 286.56 59.2 91.24 97.52 91.24 133.84 286.56"/>
    <polygon class="cls-5" points="197.5 286.56 132.58 286.56 182.49 91.24 247.41 91.24 197.5 286.56"/>
    <polygon class="cls-6" points="250.79 285.5 204.35 285.5 97.52 90.17 143.96 90.17 250.79 285.5"/>
    <rect class="cls-6" x="248.94" y="90.17" width="85.56" height="195.32"/>
  </g>
  <g id="Layer_2" data-name="Layer 2">
    <line class="cls-7" x1="20.7" y1="90.17" x2="142.37" y2="90.17"/>
    <line class="cls-7" x1="151.98" y1="90.17" x2="332.36" y2="90.17"/>
    <line class="cls-7" x1="20.83" y1="286.57" x2="88.07" y2="286.57"/>
    <line class="cls-7" x1="98.22" y1="286.57" x2="197.48" y2="286.57"/>
    <line class="cls-7" x1="206.01" y1="286.57" x2="334.1" y2="286.57"/>
    <text class="cls-8" transform="translate(20.5 65.29)">Cinsiyet</text>
    <g class="cls-9">
      <text class="cls-10" transform="translate(20.5 259.62)">Renk</text>
    </g>
    <text class="cls-11" transform="translate(20.5 82.5)">E<tspan class="cls-12" x="6.52" y="0">r</tspan><tspan class="cls-13" x="10.77" y="0">k</tspan><tspan x="16.84" y="0">ek</tspan></text>
    <text class="cls-11" transform="translate(148.78 82.5)"><tspan class="cls-14">K</tspan><tspan x="7.32" y="0">adın</tspan></text>
    <text class="cls-11" transform="translate(20.5 278.89)"><tspan class="cls-15">K</tspan><tspan class="cls-16" x="7.18" y="0">ı</tspan><tspan class="cls-17" x="10.11" y="0">r</tspan><tspan x="14.34" y="0">mızı</tspan></text>
    <text class="cls-11" transform="translate(96.48 278.89)"><tspan class="cls-18">Y</tspan><tspan x="6.26" y="0">eşil</tspan></text>
    <text class="cls-19" transform="translate(203.22 278.89)">M<tspan class="cls-20" x="11" y="0">a</tspan><tspan class="cls-21" x="17.28" y="0">vi</tspan></text>
  </g>
  <g id="Layer_3" data-name="Layer 3">
    <line class="cls-22" x1="332.83" y1="45.76" x2="332.83" y2="35.76"/>
    <line class="cls-22" x1="150.17" y1="45.76" x2="150.17" y2="35.76"/>
    <polygon points="156.58 43.73 151.42 40.76 156.58 37.78 156.58 43.73"/>
    <polygon points="326.42 37.78 331.58 40.76 326.42 43.73 326.42 37.78"/>
    <line class="cls-22" x1="155.5" y1="40.76" x2="329" y2="40.76"/>
    <line class="cls-22" x1="144.67" y1="45.76" x2="144.67" y2="35.76"/>
    <line class="cls-22" x1="19.67" y1="45.76" x2="19.67" y2="35.76"/>
    <polygon points="26.08 43.73 20.92 40.76 26.08 37.78 26.08 43.73"/>
    <polygon points="138.25 37.78 143.41 40.76 138.25 43.73 138.25 37.78"/>
    <line class="cls-22" x1="25" y1="40.76" x2="139.5" y2="40.76"/>
    <text class="cls-23" transform="translate(26.83 32.67)"><tspan class="cls-24">T</tspan><tspan class="cls-16" x="5.59" y="0">oplamın </tspan><tspan class="cls-25" x="55.05" y="0">% 39.13</tspan><tspan class="cls-16" x="103.02" y="0">&apos;ü</tspan></text>
    <text class="cls-23" transform="translate(184.48 32.67)"><tspan class="cls-24">T</tspan><tspan class="cls-16" x="5.59" y="0">oplamın </tspan><tspan class="cls-25" x="55.05" y="0">% 60.87</tspan><tspan class="cls-16" x="103.02" y="0">&apos;ü</tspan></text>
    <polygon class="cls-26" points="254.58 204.74 249.42 201.76 254.58 198.78 254.58 204.74"/>
    <polygon class="cls-26" points="329.09 198.78 334.24 201.76 329.09 204.74 329.09 198.78"/>
    <line class="cls-27" x1="253.5" y1="201.76" x2="331.5" y2="201.76"/>
    <text class="cls-28" transform="translate(254.04 178.01)"><tspan class="cls-29">K</tspan><tspan x="6.28" y="0">adın </tspan><tspan class="cls-30" x="29.82" y="0">t</tspan><tspan x="33.46" y="0">oplamda</tspan><tspan class="cls-31"><tspan x="12.69" y="16.8">% 47.62 </tspan></tspan></text>
    <text class="cls-56" transform="translate(256.24 119)">(<tspan class="cls-57" x="4.53" y="0">A</tspan><tspan class="cls-58" x="14.43" y="0">k</tspan><tspan class="cls-59" x="22.37" y="0">ış h</tspan><tspan class="cls-60" x="45.36" y="0">a</tspan><tspan class="cls-61" x="53.17" y="0">ttı)</tspan></text>
    <text class="cls-62" transform="translate(147.25 334)">Ç<tspan class="cls-59" x="9.47" y="0">iz</tspan><tspan class="cls-63" x="20.38" y="0">g</tspan><tspan class="cls-61" x="29.39" y="0">i-set</tspan></text>
    <polyline class="cls-64" points="19 296 19 308 334 308 334 296"/>
    <line class="cls-64" x1="176.5" y1="307.84" x2="176.5" y2="318.16"/>
  </g>
</svg>
