<svg width="1152" height="500" xmlns="http://www.w3.org/2000/svg" xmlns:xlink="http://www.w3.org/1999/xlink">
    <style>.dimension { cursor: ns-resize; }
.category { cursor: ew-resize; }
.dimension tspan.name { font-size: 1.5em; fill: #333; font-weight: bold; }
.dimension tspan.sort { fill: #000; cursor: pointer; opacity: 0; }
.dimension tspan.sort:hover { fill: #333; }
.dimension:hover tspan.name { fill: #000; }
.dimension:hover tspan.sort { opacity: 1; }
.dimension line { stroke: #000; }
.dimension rect { stroke: none; fill-opacity: 0; }
.dimension &gt; rect, .category-background { fill: #fff; }
.dimension &gt; rect { display: none; }
.category:hover rect { fill-opacity: .3; }
.dimension:hover &gt; rect { fill-opacity: .3; }
.ribbon path { stroke-opacity: 0; fill-opacity: .5; }
.ribbon path.active { fill-opacity: .9; }
.ribbon-mouse path { fill-opacity: 0; }

.category-0 { fill: #1f77b4; stroke: #1f77b4; }
.category-1 { fill: #ff7f0e; stroke: #ff7f0e; }
.category-2 { fill: #2ca02c; stroke: #2ca02c; }
.category-3 { fill: #d62728; stroke: #d62728; }
.category-4 { fill: #9467bd; stroke: #9467bd; }
.category-5 { fill: #8c564b; stroke: #8c564b; }
.category-6 { fill: #e377c2; stroke: #e377c2; }
.category-7 { fill: #7f7f7f; stroke: #7f7f7f; }
.category-8 { fill: #bcbd22; stroke: #bcbd22; }
.category-9 { fill: #17becf; stroke: #17becf; }

.tooltip {
  background-color: rgba(242, 242, 242, .6);
  position: absolute;
  padding: 5px;
}</style>
  <svg width="960" height="500"><g class="ribbon"><path class="category-3" d="M582.035438437074,45C582.035438437074,118.99 582.035438437074,122.01 582.035438437074,196h377.96456156292595C960,122.01 960,118.99 960,45Z"/><path class="category-3" d="M591.8582462517038,196C591.8582462517038,269.99 591.8582462517038,273.01 591.8582462517038,347h368.1417537482962C960,273.01 960,269.99 960,196Z"/><path class="category-3" d="M673.85733757383,347C673.85733757383,420.99 673.85733757383,424.01 673.85733757383,498h286.1426624261699C960,424.01 960,420.99 960,347Z"/><path class="category-2" d="M307.5904891715886,45C307.5904891715886,118.99 314.25715583825536,122.01 314.25715583825536,196h267.7782825988187C582.035438437074,122.01 575.3687717704073,118.99 575.3687717704073,45Z"/><path class="category-2" d="M384.72512494320756,196C384.72512494320756,269.99 394.5479327578373,273.01 394.5479327578373,347h197.31031349386643C591.8582462517038,273.01 582.0354384370739,269.99 582.0354384370739,196Z"/><path class="category-2" d="M426.5788278055429,347C426.5788278055429,420.99 507.296683325761,424.01 507.296683325761,498h165.27941844616083C672.5761017719219,424.01 591.8582462517038,420.99 591.8582462517038,347Z"/><path class="category-1" d="M130.94653945176435,45C130.94653945176435,118.99 178.01908223534758,122.01 178.01908223534758,196h136.23807360290775C314.25715583825536,122.01 267.1846130546721,118.99 267.1846130546721,45Z"/><path class="category-0" d="M10.249886415265788,45C10.249886415265788,118.99 66.55156746933213,122.01 66.55156746933213,196h111.46751476601544C178.01908223534758,122.01 121.71740118128123,118.99 121.71740118128123,45Z"/><path class="category-3" d="M591.8582462517038,347C591.8582462517038,420.99 221.6537937301227,424.01 221.6537937301227,498h81.9990913221263C303.65288505224896,424.01 673.8573375738301,420.99 673.8573375738301,347Z"/><path class="category-1" d="M239.5184007269423,196C239.5184007269423,269.99 299.3094048159927,273.01 299.3094048159927,347h74.73875511131304C374.04815992730573,273.01 314.25715583825536,269.99 314.25715583825536,196Z"/><path class="category-0" d="M106.26987732848706,196C106.26987732848706,269.99 225.42480690595184,273.01 225.42480690595184,347h71.74920490686051C297.17401181281235,273.01 178.01908223534758,269.99 178.01908223534758,196Z"/><path class="category-2" d="M314.25715583825536,196C314.25715583825536,269.99 120.43616537937301,273.01 120.43616537937301,347h70.46796910495229C190.9041344843253,273.01 384.7251249432077,269.99 384.7251249432077,196Z"/><path class="category-0" d="M231.40390731485687,347C231.40390731485687,420.99 329.20490686051795,424.01 329.20490686051795,498h65.77010449795547C394.9750113584734,424.01 297.17401181281235,420.99 297.17401181281235,347Z"/><path class="category-1" d="M178.01908223534758,196C178.01908223534758,269.99 45.69741026805997,273.01 45.69741026805997,347h61.499318491594735C107.1967287596547,273.01 239.51840072694233,269.99 239.51840072694233,196Z"/><path class="category-1" d="M45.69741026805997,347C45.69741026805997,420.99 52.95774647887323,424.01 52.95774647887323,498h59.791004089050425C112.74875056792365,424.01 105.4884143571104,420.99 105.4884143571104,347Z"/><path class="category-1" d="M323.65288505224896,347C323.65288505224896,420.99 396.6833257610177,424.01 396.6833257610177,498h50.39527487505679C447.0786006360745,424.01 374.04815992730573,420.99 374.04815992730573,347Z"/><path class="category-0" d="M66.55156746933213,196C66.55156746933213,269.99 5.552021808268969,273.01 5.552021808268969,347h39.71830985915493C45.270331667423896,273.01 106.26987732848706,269.99 106.26987732848706,196Z"/><path class="category-2" d="M152.8941390277147,347C152.8941390277147,420.99 469.28668786915034,424.01 469.28668786915034,498h38.00999545661063C507.29668332576097,424.01 190.9041344843253,420.99 190.9041344843253,347Z"/><path class="category-0" d="M5.552021808268969,347C5.552021808268969,420.99 10.249886415265788,424.01 10.249886415265788,498h34.16628805088596C44.416174466151745,424.01 39.71830985915493,420.99 39.71830985915493,347Z"/><path class="category-2" d="M273.85127972133876,45C273.85127972133876,118.99 12.812358019082236,122.01 12.812358019082236,196h33.73920945024989C46.55156746933213,122.01 307.5904891715886,118.99 307.5904891715886,45Z"/><path class="category-2" d="M120.43616537937301,347C120.43616537937301,420.99 148.62335302135392,424.01 148.62335302135392,498h32.457973648341664C181.08132666969558,424.01 152.8941390277147,420.99 152.8941390277147,347Z"/><path class="category-2" d="M394.5479327578373,347C394.5479327578373,420.99 181.08132666969558,424.01 181.08132666969558,498h32.03089504770559C213.11222171740118,424.01 426.5788278055429,420.99 426.5788278055429,347Z"/><path class="category-1" d="M299.3094048159927,347C299.3094048159927,420.99 112.74875056792365,424.01 112.74875056792365,498h24.343480236256244C137.0922308041799,424.01 323.65288505224896,420.99 323.65288505224896,347Z"/><path class="category-2" d="M26.051794638800544,196C26.051794638800544,269.99 374.04815992730573,273.01 374.04815992730573,347h20.499772830531576C394.5479327578373,273.01 46.55156746933212,269.99 46.55156746933212,196Z"/><path class="category-2" d="M379.6001817355747,347C379.6001817355747,420.99 454.3389368468878,424.01 454.3389368468878,498h14.947751022262606C469.2866878691504,424.01 394.5479327578373,420.99 394.5479327578373,347Z"/><path class="category-2" d="M12.812358019082234,196C12.812358019082234,269.99 107.1967287596547,273.01 107.1967287596547,347h13.23943661971831C120.43616537937301,273.01 26.051794638800544,269.99 26.051794638800544,196Z"/><path class="category-0" d="M0,45C0,118.99 0,122.01 0,196h10.249886415265788C10.249886415265788,122.01 10.249886415265788,118.99 10.249886415265788,45Z"/><path class="category-3" d="M582.035438437074,196C582.035438437074,269.99 190.9041344843253,273.01 190.9041344843253,347h9.822807814629712C200.726942298955,273.01 591.8582462517038,269.99 591.8582462517038,196Z"/><path class="category-3" d="M190.9041344843253,347C190.9041344843253,420.99 213.11222171740118,424.01 213.11222171740118,498h8.54157201272149C221.6537937301227,424.01 199.4457064970468,420.99 199.4457064970468,347Z"/><path class="category-2" d="M113.17582916855974,347C113.17582916855974,420.99 447.0786006360745,424.01 447.0786006360745,498h7.260336210813266C454.33893684688775,424.01 120.43616537937301,420.99 120.43616537937301,347Z"/><path class="category-0" d="M225.42480690595184,347C225.42480690595184,420.99 44.416174466151745,424.01 44.416174466151745,498h5.979100408905043C50.395274875056785,424.01 231.4039073148569,420.99 231.4039073148569,347Z"/><path class="category-2" d="M107.1967287596547,347C107.1967287596547,420.99 137.0922308041799,424.01 137.0922308041799,498h5.979100408905043C143.07133121308496,424.01 113.17582916855974,420.99 113.17582916855974,347Z"/><path class="category-0" d="M0,196C0,269.99 0,273.01 0,347h5.552021808268969C5.552021808268969,273.01 5.552021808268969,269.99 5.552021808268969,196Z"/><path class="category-0" d="M0,347C0,420.99 0,424.01 0,498h5.552021808268969C5.552021808268969,424.01 5.552021808268969,420.99 5.552021808268969,347Z"/><path class="category-0" d="M39.71830985915493,347C39.71830985915493,420.99 323.65288505224896,424.01 323.65288505224896,498h5.552021808268969C329.20490686051795,424.01 45.270331667423896,420.99 45.270331667423896,347Z"/><path class="category-2" d="M374.04815992730573,347C374.04815992730573,420.99 143.07133121308496,424.01 143.07133121308496,498h5.552021808268969C148.62335302135392,424.01 379.6001817355747,420.99 379.6001817355747,347Z"/><path class="category-0" d="M5.552021808268969,196C5.552021808268969,269.99 220.726942298955,273.01 220.726942298955,347h4.69786460699682C225.42480690595184,273.01 10.249886415265788,269.99 10.249886415265788,196Z"/><path class="category-0" d="M220.726942298955,347C220.726942298955,420.99 5.552021808268969,424.01 5.552021808268969,498h4.69786460699682C10.249886415265788,424.01 225.42480690595184,420.99 225.42480690595184,347Z"/><path class="category-1" d="M128.3840678479479,45C128.3840678479479,118.99 10.249886415265788,122.01 10.249886415265788,196h2.562471603816447C12.812358019082236,122.01 130.94653945176435,118.99 130.94653945176435,45Z"/><path class="category-1" d="M10.676965015901862,196C10.676965015901862,269.99 297.17401181281235,273.01 297.17401181281235,347h2.1353930031803725C299.3094048159927,273.01 12.812358019082234,269.99 12.812358019082234,196Z"/><path class="category-1" d="M297.17401181281235,347C297.17401181281235,420.99 50.82235347569286,424.01 50.82235347569286,498h2.1353930031803725C52.95774647887323,424.01 299.3094048159927,420.99 299.3094048159927,347Z"/><path class="category-1" d="M105.4884143571104,347C105.4884143571104,420.99 394.9750113584734,424.01 394.9750113584734,498h1.708314402544298C396.6833257610177,424.01 107.1967287596547,420.99 107.1967287596547,347Z"/><path class="category-3" d="M199.4457064970468,347C199.4457064970468,420.99 672.5761017719218,424.01 672.5761017719218,498h1.2812358019082235C673.85733757383,424.01 200.72694229895504,420.99 200.72694229895504,347Z"/><path class="category-1" d="M10.249886415265788,196C10.249886415265788,269.99 45.270331667423896,273.01 45.270331667423896,347h0.4270786006360745C45.69741026805997,273.01 10.676965015901862,269.99 10.676965015901862,196Z"/><path class="category-1" d="M45.270331667423896,347C45.270331667423896,420.99 50.395274875056785,424.01 50.395274875056785,498h0.4270786006360745C50.82235347569286,424.01 45.69741026805997,420.99 45.69741026805997,347Z"/></g><g class="ribbon-mouse"><path d="M582.035438437074,45C582.035438437074,118.99 582.035438437074,122.01 582.035438437074,196h377.96456156292595C960,122.01 960,118.99 960,45Z"/><path d="M591.8582462517038,196C591.8582462517038,269.99 591.8582462517038,273.01 591.8582462517038,347h368.1417537482962C960,273.01 960,269.99 960,196Z"/><path d="M673.85733757383,347C673.85733757383,420.99 673.85733757383,424.01 673.85733757383,498h286.1426624261699C960,424.01 960,420.99 960,347Z"/><path d="M307.5904891715886,45C307.5904891715886,118.99 314.25715583825536,122.01 314.25715583825536,196h267.7782825988187C582.035438437074,122.01 575.3687717704073,118.99 575.3687717704073,45Z"/><path d="M384.72512494320756,196C384.72512494320756,269.99 394.5479327578373,273.01 394.5479327578373,347h197.31031349386643C591.8582462517038,273.01 582.0354384370739,269.99 582.0354384370739,196Z"/><path d="M426.5788278055429,347C426.5788278055429,420.99 507.296683325761,424.01 507.296683325761,498h165.27941844616083C672.5761017719219,424.01 591.8582462517038,420.99 591.8582462517038,347Z"/><path d="M130.94653945176435,45C130.94653945176435,118.99 178.01908223534758,122.01 178.01908223534758,196h136.23807360290775C314.25715583825536,122.01 267.1846130546721,118.99 267.1846130546721,45Z"/><path d="M10.249886415265788,45C10.249886415265788,118.99 66.55156746933213,122.01 66.55156746933213,196h111.46751476601544C178.01908223534758,122.01 121.71740118128123,118.99 121.71740118128123,45Z"/><path d="M591.8582462517038,347C591.8582462517038,420.99 221.6537937301227,424.01 221.6537937301227,498h81.9990913221263C303.65288505224896,424.01 673.8573375738301,420.99 673.8573375738301,347Z"/><path d="M239.5184007269423,196C239.5184007269423,269.99 299.3094048159927,273.01 299.3094048159927,347h74.73875511131304C374.04815992730573,273.01 314.25715583825536,269.99 314.25715583825536,196Z"/><path d="M106.26987732848706,196C106.26987732848706,269.99 225.42480690595184,273.01 225.42480690595184,347h71.74920490686051C297.17401181281235,273.01 178.01908223534758,269.99 178.01908223534758,196Z"/><path d="M314.25715583825536,196C314.25715583825536,269.99 120.43616537937301,273.01 120.43616537937301,347h70.46796910495229C190.9041344843253,273.01 384.7251249432077,269.99 384.7251249432077,196Z"/><path d="M231.40390731485687,347C231.40390731485687,420.99 329.20490686051795,424.01 329.20490686051795,498h65.77010449795547C394.9750113584734,424.01 297.17401181281235,420.99 297.17401181281235,347Z"/><path d="M178.01908223534758,196C178.01908223534758,269.99 45.69741026805997,273.01 45.69741026805997,347h61.499318491594735C107.1967287596547,273.01 239.51840072694233,269.99 239.51840072694233,196Z"/><path d="M45.69741026805997,347C45.69741026805997,420.99 52.95774647887323,424.01 52.95774647887323,498h59.791004089050425C112.74875056792365,424.01 105.4884143571104,420.99 105.4884143571104,347Z"/><path d="M323.65288505224896,347C323.65288505224896,420.99 396.6833257610177,424.01 396.6833257610177,498h50.39527487505679C447.0786006360745,424.01 374.04815992730573,420.99 374.04815992730573,347Z"/><path d="M66.55156746933213,196C66.55156746933213,269.99 5.552021808268969,273.01 5.552021808268969,347h39.71830985915493C45.270331667423896,273.01 106.26987732848706,269.99 106.26987732848706,196Z"/><path d="M152.8941390277147,347C152.8941390277147,420.99 469.28668786915034,424.01 469.28668786915034,498h38.00999545661063C507.29668332576097,424.01 190.9041344843253,420.99 190.9041344843253,347Z"/><path d="M5.552021808268969,347C5.552021808268969,420.99 10.249886415265788,424.01 10.249886415265788,498h34.16628805088596C44.416174466151745,424.01 39.71830985915493,420.99 39.71830985915493,347Z"/><path d="M273.85127972133876,45C273.85127972133876,118.99 12.812358019082236,122.01 12.812358019082236,196h33.73920945024989C46.55156746933213,122.01 307.5904891715886,118.99 307.5904891715886,45Z"/><path d="M120.43616537937301,347C120.43616537937301,420.99 148.62335302135392,424.01 148.62335302135392,498h32.457973648341664C181.08132666969558,424.01 152.8941390277147,420.99 152.8941390277147,347Z"/><path d="M394.5479327578373,347C394.5479327578373,420.99 181.08132666969558,424.01 181.08132666969558,498h32.03089504770559C213.11222171740118,424.01 426.5788278055429,420.99 426.5788278055429,347Z"/><path d="M299.3094048159927,347C299.3094048159927,420.99 112.74875056792365,424.01 112.74875056792365,498h24.343480236256244C137.0922308041799,424.01 323.65288505224896,420.99 323.65288505224896,347Z"/><path d="M26.051794638800544,196C26.051794638800544,269.99 374.04815992730573,273.01 374.04815992730573,347h20.499772830531576C394.5479327578373,273.01 46.55156746933212,269.99 46.55156746933212,196Z"/><path d="M379.6001817355747,347C379.6001817355747,420.99 454.3389368468878,424.01 454.3389368468878,498h14.947751022262606C469.2866878691504,424.01 394.5479327578373,420.99 394.5479327578373,347Z"/><path d="M12.812358019082234,196C12.812358019082234,269.99 107.1967287596547,273.01 107.1967287596547,347h13.23943661971831C120.43616537937301,273.01 26.051794638800544,269.99 26.051794638800544,196Z"/><path d="M0,45C0,118.99 0,122.01 0,196h10.249886415265788C10.249886415265788,122.01 10.249886415265788,118.99 10.249886415265788,45Z"/><path d="M582.035438437074,196C582.035438437074,269.99 190.9041344843253,273.01 190.9041344843253,347h9.822807814629712C200.726942298955,273.01 591.8582462517038,269.99 591.8582462517038,196Z"/><path d="M190.9041344843253,347C190.9041344843253,420.99 213.11222171740118,424.01 213.11222171740118,498h8.54157201272149C221.6537937301227,424.01 199.4457064970468,420.99 199.4457064970468,347Z"/><path d="M113.17582916855974,347C113.17582916855974,420.99 447.0786006360745,424.01 447.0786006360745,498h7.260336210813266C454.33893684688775,424.01 120.43616537937301,420.99 120.43616537937301,347Z"/><path d="M225.42480690595184,347C225.42480690595184,420.99 44.416174466151745,424.01 44.416174466151745,498h5.979100408905043C50.395274875056785,424.01 231.4039073148569,420.99 231.4039073148569,347Z"/><path d="M107.1967287596547,347C107.1967287596547,420.99 137.0922308041799,424.01 137.0922308041799,498h5.979100408905043C143.07133121308496,424.01 113.17582916855974,420.99 113.17582916855974,347Z"/><path d="M0,196C0,269.99 0,273.01 0,347h5.552021808268969C5.552021808268969,273.01 5.552021808268969,269.99 5.552021808268969,196Z"/><path d="M0,347C0,420.99 0,424.01 0,498h5.552021808268969C5.552021808268969,424.01 5.552021808268969,420.99 5.552021808268969,347Z"/><path d="M39.71830985915493,347C39.71830985915493,420.99 323.65288505224896,424.01 323.65288505224896,498h5.552021808268969C329.20490686051795,424.01 45.270331667423896,420.99 45.270331667423896,347Z"/><path d="M374.04815992730573,347C374.04815992730573,420.99 143.07133121308496,424.01 143.07133121308496,498h5.552021808268969C148.62335302135392,424.01 379.6001817355747,420.99 379.6001817355747,347Z"/><path d="M5.552021808268969,196C5.552021808268969,269.99 220.726942298955,273.01 220.726942298955,347h4.69786460699682C225.42480690595184,273.01 10.249886415265788,269.99 10.249886415265788,196Z"/><path d="M220.726942298955,347C220.726942298955,420.99 5.552021808268969,424.01 5.552021808268969,498h4.69786460699682C10.249886415265788,424.01 225.42480690595184,420.99 225.42480690595184,347Z"/><path d="M128.3840678479479,45C128.3840678479479,118.99 10.249886415265788,122.01 10.249886415265788,196h2.562471603816447C12.812358019082236,122.01 130.94653945176435,118.99 130.94653945176435,45Z"/><path d="M10.676965015901862,196C10.676965015901862,269.99 297.17401181281235,273.01 297.17401181281235,347h2.1353930031803725C299.3094048159927,273.01 12.812358019082234,269.99 12.812358019082234,196Z"/><path d="M297.17401181281235,347C297.17401181281235,420.99 50.82235347569286,424.01 50.82235347569286,498h2.1353930031803725C52.95774647887323,424.01 299.3094048159927,420.99 299.3094048159927,347Z"/><path d="M105.4884143571104,347C105.4884143571104,420.99 394.9750113584734,424.01 394.9750113584734,498h1.708314402544298C396.6833257610177,424.01 107.1967287596547,420.99 107.1967287596547,347Z"/><path d="M199.4457064970468,347C199.4457064970468,420.99 672.5761017719218,424.01 672.5761017719218,498h1.2812358019082235C673.85733757383,424.01 200.72694229895504,420.99 200.72694229895504,347Z"/><path d="M10.249886415265788,196C10.249886415265788,269.99 45.270331667423896,273.01 45.270331667423896,347h0.4270786006360745C45.69741026805997,273.01 10.676965015901862,269.99 10.676965015901862,196Z"/><path d="M45.270331667423896,347C45.270331667423896,420.99 50.395274875056785,424.01 50.395274875056785,498h0.4270786006360745C50.82235347569286,424.01 45.69741026805997,420.99 45.69741026805997,347Z"/></g><g class="dimension" transform="translate(0,45)"><rect width="960" y="-45" height="45"/><text class="dimension" transform="translate(0,-25)"><tspan class="name">Class</tspan><tspan class="sort alpha" dx="2em">alpha »</tspan><tspan class="sort size" dx="2em">size »</tspan></text><g class="category" transform="translate(0)"><rect width="121.71740118128125" y="-20" height="20" class="category-0"/><line x2="121.71740118128125" style="stroke-width: 2;"/><text dy="-.3em">Second Class</text></g><g class="category" transform="translate(128.3840678479479)"><rect width="138.80054520672422" y="-20" height="20" class="category-1"/><line x2="138.80054520672422" style="stroke-width: 2;"/><text dy="-.3em">First Class</text></g><g class="category" transform="translate(273.85127972133876)"><rect width="301.5174920490686" y="-20" height="20" class="category-2"/><line x2="301.5174920490686" style="stroke-width: 2;"/><text dy="-.3em">Third Class</text></g><g class="category" transform="translate(582.035438437074)"><rect width="377.96456156292595" y="-20" height="20" class="category-3"/><line x2="377.96456156292595" style="stroke-width: 2;"/><text dy="-.3em">Crew</text></g></g><g class="dimension" transform="translate(0,196)"><rect width="960" y="-45" height="45"/><text class="dimension" transform="translate(0,-25)"><tspan class="name">Age</tspan><tspan class="sort alpha" dx="2em">alpha »</tspan><tspan class="sort size" dx="2em">size »</tspan></text><g class="category" transform="translate(0)"><rect width="46.55156746933212" y="-20" height="20" class="category-background"/><line x2="46.55156746933212" style="stroke-width: 2;"/><text dy="-.3em">Child</text></g><g class="category" transform="translate(66.55156746933213)"><rect width="893.4484325306679" y="-20" height="20" class="category-background"/><line x2="893.4484325306679" style="stroke-width: 2;"/><text dy="-.3em">Adult</text></g></g><g class="dimension" transform="translate(0,347)"><rect width="960" y="-45" height="45"/><text class="dimension" transform="translate(0,-25)"><tspan class="name">Sex</tspan><tspan class="sort alpha" dx="2em">alpha »</tspan><tspan class="sort size" dx="2em">size »</tspan></text><g class="category" transform="translate(0)"><rect width="200.726942298955" y="-20" height="20" class="category-background"/><line x2="200.726942298955" style="stroke-width: 2;"/><text dy="-.3em">Female</text></g><g class="category" transform="translate(220.726942298955)"><rect width="739.273057701045" y="-20" height="20" class="category-background"/><line x2="739.273057701045" style="stroke-width: 2;"/><text dy="-.3em">Male</text></g></g><g class="dimension" transform="translate(0,498)"><rect width="960" y="-45" height="45"/><text class="dimension" transform="translate(0,-25)"><tspan class="name">Survived</tspan><tspan class="sort alpha" dx="2em">alpha »</tspan><tspan class="sort size" dx="2em">size »</tspan></text><g class="category" transform="translate(0)"><rect width="303.65288505224896" y="-20" height="20" class="category-background"/><line x2="303.65288505224896" style="stroke-width: 2;"/><text dy="-.3em">Survived</text></g><g class="category" transform="translate(323.65288505224896)"><rect width="636.347114947751" y="-20" height="20" class="category-background"/><line x2="636.347114947751" style="stroke-width: 2;"/><text dy="-.3em">Perished</text></g></g></svg></svg>