<?xml version="1.0" standalone="no"?><!DOCTYPE svg PUBLIC "-//W3C//DTD SVG 1.1//EN" "http://www.w3.org/Graphics/SVG/1.1/DTD/svg11.dtd"><svg xmlns:xlink="http://www.w3.org/1999/xlink" version="1.1" class="highcharts-root" style="font-family: &quot;Lucida Grande&quot;, &quot;Lucida Sans Unicode&quot;, Arial, Helvetica, sans-serif; font-size: 12px;" xmlns="http://www.w3.org/2000/svg" width="600" height="400" viewBox="0 0 600 400" aria-label="Interactive chart" aria-hidden="false"><desc aria-hidden="true">Created with Highcharts 10.3.3</desc><defs aria-hidden="true"><clipPath id="highcharts-n6bszr5-45-"><rect x="0" y="0" width="286" height="580" fill="none"></rect></clipPath><clipPath id="highcharts-n6bszr5-51-"><rect x="0" y="0" width="97.24" height="458.2327044526072" fill="none"></rect></clipPath><clipPath id="highcharts-n6bszr5-52"><path fill="none" d="M 411.55 143 A 121.55 121.55 0 1 1 411.54993922500506 142.87845002025827 M 314.309987845001 142.97569000405164 A 24.31 24.31 0 1 0 314.31 143"></path></clipPath><clipPath id="highcharts-n6bszr5-58"><path fill="none" d="M 411.55 143 A 121.55 121.55 0 1 1 411.54993922500506 142.87845002025827 M 314.309987845001 142.97569000405164 A 24.31 24.31 0 1 0 314.31 143"></path></clipPath><clipPath id="highcharts-n6bszr5-64"><path fill="none" d="M 411.55 143 A 121.55 121.55 0 1 1 411.54993922500506 142.87845002025827 M 314.309987845001 142.97569000405164 A 24.31 24.31 0 1 0 314.31 143"></path></clipPath></defs><rect fill="#ffffff" class="highcharts-background" x="0" y="0" width="600" height="400" rx="0" ry="0" aria-hidden="true"></rect><rect fill="none" class="highcharts-plot-background" x="10" y="61" width="580" height="286" aria-hidden="true"></rect><g class="highcharts-pane-group" data-z-index="0" aria-hidden="true"></g><g class="highcharts-grid highcharts-xaxis-grid highcharts-radial-axis-grid" data-z-index="1" aria-hidden="true"><path fill="none" stroke="#e6e6e6" stroke-width="1" stroke-dasharray="none" data-z-index="1" class="highcharts-grid-line" d="M 300 101.89800000000001 A 102.10199999999999 102.10199999999999 0 1 1 197.89805105099578 204.10210198298302 M 300 204 A 0 0 0 1 0 300 204" opacity="1"></path><path fill="none" stroke="#e6e6e6" stroke-width="1" stroke-dasharray="none" data-z-index="1" class="highcharts-grid-line" d="M 300 121.346 A 82.654 82.654 0 1 1 217.34604132699656 204.08265398622433 M 300 204 A 0 0 0 1 0 300 204" opacity="1"></path><path fill="none" stroke="#e6e6e6" stroke-width="1" stroke-dasharray="none" data-z-index="1" class="highcharts-grid-line" d="M 300 140.794 A 63.20599999999999 63.20599999999999 0 1 1 236.7940316029974 204.06320598946567 M 300 204 A 0 0 0 1 0 300 204" opacity="1"></path><path fill="none" stroke="#e6e6e6" stroke-width="1" stroke-dasharray="none" data-z-index="1" class="highcharts-grid-line" d="M 300 160.24200000000002 A 43.757999999999996 43.757999999999996 0 1 1 256.2420218789982 204.04375799270701 M 300 204 A 0 0 0 1 0 300 204" opacity="1"></path><path fill="none" stroke="#e6e6e6" stroke-width="1" stroke-dasharray="none" data-z-index="1" class="highcharts-grid-line" d="M 300 179.69 A 24.31 24.31 0 1 1 275.690012154999 204.02430999594833 M 300 204 A 0 0 0 1 0 300 204" opacity="1"></path><path fill="none" stroke="#e6e6e6" stroke-width="1" stroke-dasharray="none" data-z-index="1" class="highcharts-grid-line" d="M 300 179.69 A 24.31 24.31 0 1 1 275.690012154999 204.02430999594833 M 300 204 A 0 0 0 1 0 300 204" opacity="1"></path><path fill="none" stroke="#e6e6e6" stroke-width="1" stroke-dasharray="none" data-z-index="1" class="highcharts-grid-line" d="M 300 82.45 A 121.55 121.55 0 1 1 178.45006077499494 204.12154997974167 M 300 204 A 0 0 0 1 0 300 204" opacity="1"></path></g><g class="highcharts-grid highcharts-yaxis-grid highcharts-radial-axis-grid" data-z-index="1" aria-hidden="true"><path fill="none" stroke="#e6e6e6" stroke-width="1" stroke-dasharray="none" data-z-index="1" class="highcharts-grid-line" d="M 300 179.69 L 300 82.45" opacity="1"></path><path fill="none" stroke="#e6e6e6" stroke-width="1" stroke-dasharray="none" data-z-index="1" class="highcharts-grid-line" d="M 307.05682050405596 180.73678043835 L 335.2841025202799 87.68390219175001" opacity="1"></path><path fill="none" stroke="#e6e6e6" stroke-width="1" stroke-dasharray="none" data-z-index="1" class="highcharts-grid-line" d="M 313.50591236470655 183.78697372492513 L 367.5295618235327 102.93486862462562" opacity="1"></path><path fill="none" stroke="#e6e6e6" stroke-width="1" stroke-dasharray="none" data-z-index="1" class="highcharts-grid-line" d="M 318.79188412124813 188.57789926198177 L 393.95942060624066 126.88949630990889" opacity="1"></path><path fill="none" stroke="#e6e6e6" stroke-width="1" stroke-dasharray="none" data-z-index="1" class="highcharts-grid-line" d="M 322.4595114353494 194.69696575920466 L 412.2975571767469 157.48482879602335" opacity="1"></path><path fill="none" stroke="#e6e6e6" stroke-width="1" stroke-dasharray="none" data-z-index="1" class="highcharts-grid-line" d="M 324.1929407054011 201.61720331858837 L 420.96470352700555 192.0860165929419" opacity="1"></path><path fill="none" stroke="#e6e6e6" stroke-width="1" stroke-dasharray="none" data-z-index="1" class="highcharts-grid-line" d="M 323.8428901666025 208.74264572821207 L 419.2144508330127 227.7132286410604" opacity="1"></path><path fill="none" stroke="#e6e6e6" stroke-width="1" stroke-dasharray="none" data-z-index="1" class="highcharts-grid-line" d="M 321.43950593630854 215.45965467224 L 407.19752968154256 261.29827336119996" opacity="1"></path><path fill="none" stroke="#e6e6e6" stroke-width="1" stroke-dasharray="none" data-z-index="1" class="highcharts-grid-line" d="M 317.18976585064496 221.18976585064496 L 385.94882925322486 289.94882925322486" opacity="1"></path><path fill="none" stroke="#e6e6e6" stroke-width="1" stroke-dasharray="none" data-z-index="1" class="highcharts-grid-line" d="M 311.45965467224 225.4395059363085 L 357.2982733612 311.1975296815425" opacity="1"></path><path fill="none" stroke="#e6e6e6" stroke-width="1" stroke-dasharray="none" data-z-index="1" class="highcharts-grid-line" d="M 304.7426457282121 227.84289016660253 L 323.7132286410604 323.2144508330127" opacity="1"></path><path fill="none" stroke="#e6e6e6" stroke-width="1" stroke-dasharray="none" data-z-index="1" class="highcharts-grid-line" d="M 297.6172033185884 228.1929407054011 L 288.086016592942 324.96470352700555" opacity="1"></path><path fill="none" stroke="#e6e6e6" stroke-width="1" stroke-dasharray="none" data-z-index="1" class="highcharts-grid-line" d="M 290.69696575920466 226.45951143534938 L 253.48482879602335 316.2975571767469" opacity="1"></path><path fill="none" stroke="#e6e6e6" stroke-width="1" stroke-dasharray="none" data-z-index="1" class="highcharts-grid-line" d="M 284.57789926198177 222.79188412124813 L 222.8894963099089 297.9594206062407" opacity="1"></path><path fill="none" stroke="#e6e6e6" stroke-width="1" stroke-dasharray="none" data-z-index="1" class="highcharts-grid-line" d="M 279.78697372492513 217.50591236470655 L 198.93486862462566 271.52956182353273" opacity="1"></path><path fill="none" stroke="#e6e6e6" stroke-width="1" stroke-dasharray="none" data-z-index="1" class="highcharts-grid-line" d="M 276.73678043835 211.056820504056 L 183.68390219175 239.2841025202799" opacity="1"></path><path fill="none" stroke="#e6e6e6" stroke-width="1" stroke-dasharray="none" data-z-index="1" class="highcharts-grid-line" d="M 275.69 204 L 178.45 204.00000000000003" opacity="1"></path></g><rect fill="none" class="highcharts-plot-border" data-z-index="1" stroke="#cccccc" stroke-width="0" x="10" y="61" width="580" height="286" aria-hidden="true"></rect><g class="highcharts-axis highcharts-xaxis highcharts-radial-axis" data-z-index="2" aria-hidden="true"><path fill="none" class="highcharts-axis-line" stroke="#ccd6eb" stroke-width="0" data-z-index="7" d="M 300 179.69 L 300 82.45"></path></g><g class="highcharts-axis highcharts-yaxis highcharts-radial-axis" data-z-index="2" aria-hidden="true"><path fill="none" class="highcharts-axis-line" stroke="#ccd6eb" stroke-width="0" data-z-index="7" d="M 300 82.45 A 121.55 121.55 0 1 1 178.45006077499494 204.12154997974167 M 300 204 A 0 0 0 1 0 300 204"></path></g><g class="highcharts-series-group" data-z-index="3" aria-hidden="false"><g class="highcharts-series highcharts-series-0 highcharts-column-series highcharts-color-0" data-z-index="0.1" opacity="1" transform="translate(10,61) scale(1 1)" clip-path="url(#highcharts-n6bszr5-52)" aria-hidden="false" role="region" tabindex="-1" aria-label="Gold medals, bar series 1 of 3 with 5 bars." style="outline: none;"><path fill="#FFD700" d="M 290 24.367199999999983 A 118.63280000000002 118.63280000000002 0 0 1 406.88661566188836 163.27955411122255 L 393.47339747117985 160.95239216403309 A 105.01920000000001 105.01920000000001 0 0 0 290 37.98079999999999 Z" stroke="#ffffff" stroke-width="0" opacity="1" class="highcharts-point highcharts-color-0" tabindex="-1" role="img" aria-label="Norway , 148. Gold medals." style="outline: none;"></path><path fill="#FFD700" d="M 290 43.815200000000004 A 99.1848 99.1848 0 0 1 386.32906525311165 119.37087097454177 L 373.1074288458218 122.61408476234976 A 85.57119999999999 85.57119999999999 0 0 0 290 57.42880000000001 Z" stroke="#ffffff" stroke-width="0" opacity="1" class="highcharts-point highcharts-color-0" tabindex="-1" role="img" aria-label="United States , 113. Gold medals." style="outline: none;"></path><path fill="#FFD700" d="M 290 63.2632 A 79.7368 79.7368 0 0 1 364.99577431324417 115.91511289672889 L 352.1916177231781 120.53936191436054 A 66.1232 66.1232 0 0 0 290 76.8768 Z" stroke="#ffffff" stroke-width="0" opacity="1" class="highcharts-point highcharts-color-0" tabindex="-1" role="img" aria-label="Germany , 104. Gold medals." style="outline: none;"></path><path fill="#FFD700" d="M 290 82.7112 A 60.288799999999995 60.288799999999995 0 0 1 334.71004297014366 102.55557562471796 L 324.6142268155951 111.68818758042681 A 46.6752 46.6752 0 0 0 290 96.32480000000001 Z" stroke="#ffffff" stroke-width="0" opacity="1" class="highcharts-point highcharts-color-0" tabindex="-1" role="img" aria-label="Austria , 71. Gold medals." style="outline: none;"></path><path fill="#FFD700" d="M 290 102.1592 A 40.8408 40.8408 0 0 1 322.1468411071322 117.80969330332013 L 311.4312274047548 126.20646220221342 A 27.227199999999996 27.227199999999996 0 0 0 290 115.7728 Z" stroke="#ffffff" stroke-width="0" opacity="1" class="highcharts-point highcharts-color-0" tabindex="-1" role="img" aria-label="Canada , 77. Gold medals." style="outline: none;"></path></g><g class="highcharts-markers highcharts-series-0 highcharts-column-series highcharts-color-0" data-z-index="0.1" opacity="1" transform="translate(10,61) scale(1 1)" clip-path="none" aria-hidden="true"></g><g class="highcharts-series highcharts-series-1 highcharts-column-series highcharts-color-1" data-z-index="0.1" opacity="1" transform="translate(10,61) scale(1 1)" clip-path="url(#highcharts-n6bszr5-58)" aria-hidden="false" role="region" tabindex="-1" aria-label="Silver medals, bar series 2 of 3 with 5 bars." style="outline: none;"><path fill="#C0C0C0" d="M 406.8662776678541 163.39643056762714 A 118.63280000000002 118.63280000000002 0 0 1 298.0322717055359 261.36056711206 L 297.11053560817936 247.77820695165963 A 105.01920000000001 105.01920000000001 0 0 0 393.45539334531344 161.05585656806335 Z" stroke="#ffffff" stroke-width="0" opacity="1" class="highcharts-point highcharts-color-1" tabindex="-1" role="img" aria-label="Norway , 113. Silver medals." style="outline: none;"></path><path fill="#C0C0C0" d="M 386.3526462136703 119.46721183830357 A 99.1848 99.1848 0 0 1 326.2422779131155 235.32617095227386 L 321.26784761131535 222.6539514098049 A 85.57119999999999 85.57119999999999 0 0 0 373.1277732039509 122.69720237030111 Z" stroke="#ffffff" stroke-width="0" opacity="1" class="highcharts-point highcharts-color-1" tabindex="-1" role="img" aria-label="United States , 122. Silver medals." style="outline: none;"></path><path fill="#C0C0C0" d="M 365.02282169794927 115.99012220098524 A 79.7368 79.7368 0 0 1 345.0960927022684 200.6400715057073 L 335.68944272871033 190.7990836876597 A 66.1232 66.1232 0 0 0 352.21404726171403 120.60156475203655 Z" stroke="#ffffff" stroke-width="0" opacity="1" class="highcharts-point highcharts-color-1" tabindex="-1" role="img" aria-label="Germany , 98. Silver medals." style="outline: none;"></path><path fill="#C0C0C0" d="M 334.7504650327586 102.60030588244693 A 60.288799999999995 60.288799999999995 0 0 1 347.57147938956984 160.89592597035247 L 334.57146791450566 156.85491042865996 A 46.6752 46.6752 0 0 0 324.64552131568405 111.72281745737827 Z" stroke="#ffffff" stroke-width="0" opacity="1" class="highcharts-point highcharts-color-1" tabindex="-1" role="img" aria-label="Austria , 88. Silver medals." style="outline: none;"></path><path fill="#C0C0C0" d="M 322.1720153362113 117.84185273422175 A 40.8408 40.8408 0 0 1 330.15461535738655 150.45505265845512 L 316.769743571591 147.97003510563675 A 27.227199999999996 27.227199999999996 0 0 0 311.44801022414083 126.2279018228145 Z" stroke="#ffffff" stroke-width="0" opacity="1" class="highcharts-point highcharts-color-1" tabindex="-1" role="img" aria-label="Canada , 72. Silver medals." style="outline: none;"></path></g><g class="highcharts-markers highcharts-series-1 highcharts-column-series highcharts-color-1" data-z-index="0.1" opacity="1" transform="translate(10,61) scale(1 1)" clip-path="none" aria-hidden="true"></g><g class="highcharts-series highcharts-series-2 highcharts-column-series highcharts-color-2" data-z-index="0.1" opacity="1" transform="translate(10,61) scale(1 1)" clip-path="url(#highcharts-n6bszr5-64)" aria-hidden="false" role="region" tabindex="-1" aria-label="Bronze medals, bar series 3 of 3 with 5 bars." style="outline: none;"><path fill="#CD7F32" d="M 297.9139071420151 261.36854020214815 A 118.63280000000002 118.63280000000002 0 0 1 173.23563342718302 163.9719797512974 L 186.63482303389975 161.56535912409933 A 105.01920000000001 105.01920000000001 0 0 0 297.0057538634232 247.7852650969836 Z" stroke="#ffffff" stroke-width="0" opacity="1" class="highcharts-point highcharts-color-2" tabindex="-1" role="img" aria-label="Norway , 124. Bronze medals." style="outline: none;"></path><path fill="#CD7F32" d="M 326.1499336364135 235.36236706106496 A 99.1848 99.1848 0 0 1 222.7461510969145 215.90092152202843 L 231.97707153459294 205.89491268567158 A 85.57119999999999 85.57119999999999 0 0 0 321.18817803925873 222.68517942523252 Z" stroke="#ffffff" stroke-width="0" opacity="1" class="highcharts-point highcharts-color-2" tabindex="-1" role="img" aria-label="United States , 95. Bronze medals." style="outline: none;"></path><path fill="#CD7F32" d="M 345.03842509232527 200.69513876919353 A 79.7368 79.7368 0 0 1 289.76661145187506 222.73645843668757 L 289.80645827716467 209.12291675237506 A 66.1232 66.1232 0 0 0 335.64162080826975 190.84474922323366 Z" stroke="#ffffff" stroke-width="0" opacity="1" class="highcharts-point highcharts-color-2" tabindex="-1" role="img" aria-label="Germany , 65. Bronze medals." style="outline: none;"></path><path fill="#CD7F32" d="M 347.55355468084485 160.95348849218453 A 60.288799999999995 60.288799999999995 0 0 1 301.82088588284387 202.11857628854725 L 299.1516535867178 188.76922035242367 A 46.6752 46.6752 0 0 0 334.55759072065405 156.89947496169125 Z" stroke="#ffffff" stroke-width="0" opacity="1" class="highcharts-point highcharts-color-2" tabindex="-1" role="img" aria-label="Austria , 91. Bronze medals." style="outline: none;"></path><path fill="#CD7F32" d="M 330.14714022866457 150.49520353959406 A 40.8408 40.8408 0 0 1 309.288228587224 178.99909974717414 L 302.8588190581493 166.99939983144944 A 27.227199999999996 27.227199999999996 0 0 0 316.76476015244305 147.99680235972937 Z" stroke="#ffffff" stroke-width="0" opacity="1" class="highcharts-point highcharts-color-2" tabindex="-1" role="img" aria-label="Canada , 76. Bronze medals." style="outline: none;"></path></g><g class="highcharts-markers highcharts-series-2 highcharts-column-series highcharts-color-2" data-z-index="0.1" opacity="1" transform="translate(10,61) scale(1 1)" clip-path="none" aria-hidden="true"></g></g><text x="10" text-anchor="start" class="highcharts-title" data-z-index="4" style="color: rgb(51, 51, 51); font-size: 18px; fill: rgb(51, 51, 51);" y="24" aria-hidden="true">Winter Olympic medals per existing country (TOP 5)</text><text x="10" text-anchor="start" class="highcharts-subtitle" data-z-index="4" style="color: rgb(102, 102, 102); fill: rgb(102, 102, 102);" y="46" aria-hidden="true">Source: <a xlink:href="https://en.wikipedia.org/wiki/All-time_Olympic_Games_medal_table" target="_blank"><tspan>Wikipedia</tspan></a></text><text x="10" text-anchor="start" class="highcharts-caption" data-z-index="4" style="color: rgb(102, 102, 102); fill: rgb(102, 102, 102);" y="397" aria-hidden="true"></text><g class="highcharts-legend highcharts-no-tooltip" data-z-index="7" transform="translate(115,359)" aria-hidden="true"><rect fill="none" class="highcharts-legend-box" rx="0" ry="0" stroke="#999999" stroke-width="0" x="0" y="0" width="369" height="26"></rect><g data-z-index="1"><g><g class="highcharts-legend-item highcharts-column-series highcharts-color-0 highcharts-series-0" data-z-index="1" transform="translate(8,3)"><text x="21" text-anchor="start" data-z-index="2" y="15" style="color: rgb(51, 51, 51); cursor: pointer; font-size: 12px; font-weight: bold; fill: rgb(51, 51, 51);">Gold medals</text><rect x="2" y="4" width="12" height="12" fill="#FFD700" rx="6" ry="6" class="highcharts-point" data-z-index="3"></rect></g><g class="highcharts-legend-item highcharts-column-series highcharts-color-1 highcharts-series-1" data-z-index="1" transform="translate(125.78125,3)"><text x="21" y="15" text-anchor="start" data-z-index="2" style="color: rgb(51, 51, 51); cursor: pointer; font-size: 12px; font-weight: bold; fill: rgb(51, 51, 51);">Silver medals</text><rect x="2" y="4" width="12" height="12" fill="#C0C0C0" rx="6" ry="6" class="highcharts-point" data-z-index="3"></rect></g><g class="highcharts-legend-item highcharts-column-series highcharts-color-2 highcharts-series-2" data-z-index="1" transform="translate(249.3671875,3)"><text x="21" y="15" text-anchor="start" data-z-index="2" style="color: rgb(51, 51, 51); cursor: pointer; font-size: 12px; font-weight: bold; fill: rgb(51, 51, 51);">Bronze medals</text><rect x="2" y="4" width="12" height="12" fill="#CD7F32" rx="6" ry="6" class="highcharts-point" data-z-index="3"></rect></g></g></g></g><g class="highcharts-axis-labels highcharts-xaxis-labels highcharts-radial-axis-labels" data-z-index="7" aria-hidden="true"><text x="297" text-anchor="end" transform="translate(0,0)" style="color: rgb(102, 102, 102); cursor: default; font-size: 13px; fill: rgb(102, 102, 102);" y="95.174" opacity="1">Norway <tspan class="f16"><tspan id="flag" class="flag no"></tspan></tspan></text><text x="297" text-anchor="end" transform="translate(0,0)" style="color: rgb(102, 102, 102); cursor: default; font-size: 13px; fill: rgb(102, 102, 102);" y="114.622" opacity="1">United States <tspan class="f16"><tspan id="flag" class="flag us"></tspan></tspan></text><text x="297" text-anchor="end" transform="translate(0,0)" style="color: rgb(102, 102, 102); cursor: default; font-size: 13px; fill: rgb(102, 102, 102);" y="134.07" opacity="1">Germany <tspan class="f16"><tspan id="flag" class="flag de"></tspan></tspan></text><text x="297" text-anchor="end" transform="translate(0,0)" style="color: rgb(102, 102, 102); cursor: default; font-size: 13px; fill: rgb(102, 102, 102);" y="153.518" opacity="1">Austria <tspan class="f16"><tspan id="flag" class="flag at"></tspan></tspan></text><text x="297" text-anchor="end" transform="translate(0,0)" style="color: rgb(102, 102, 102); cursor: default; font-size: 13px; fill: rgb(102, 102, 102);" y="172.966" opacity="1">Canada <tspan class="f16"><tspan id="flag" class="flag ca"></tspan></tspan></text><text x="0" text-anchor="end" transform="translate(0,0)" style="color: rgb(102, 102, 102); cursor: default; font-size: 13px; fill: rgb(102, 102, 102);" visibility="hidden">5</text></g><g class="highcharts-axis-labels highcharts-yaxis-labels highcharts-radial-axis-labels" data-z-index="7" aria-hidden="true"><text x="300" transform="translate(0,0)" style="color: rgb(102, 102, 102); cursor: default; font-size: 11px; fill: rgb(102, 102, 102);" text-anchor="middle" y="71.94999999999999" opacity="1">0</text><text x="339.63837267909685" transform="translate(0,0)" style="color: rgb(102, 102, 102); cursor: default; font-size: 11px; fill: rgb(102, 102, 102);" text-anchor="middle" y="77.82979715576687" opacity="1">25</text><text x="375.8631153188267" transform="translate(0,0)" style="color: rgb(102, 102, 102); cursor: default; font-size: 11px; fill: rgb(102, 102, 102);" text-anchor="start" y="94.96282444008745" opacity="1">50</text><text x="405.55457740668174" transform="translate(0,0)" style="color: rgb(102, 102, 102); cursor: default; font-size: 11px; fill: rgb(102, 102, 102);" text-anchor="start" y="121.8735970474542" opacity="1">75</text><text x="426.1557501644162" transform="translate(0,0)" style="color: rgb(102, 102, 102); cursor: default; font-size: 11px; fill: rgb(102, 102, 102);" text-anchor="start" y="156.244577310547" opacity="1">100</text><text x="435.8924744270885" transform="translate(0,0)" style="color: rgb(102, 102, 102); cursor: default; font-size: 11px; fill: rgb(102, 102, 102);" text-anchor="start" y="195.11575948799847" opacity="1">125</text><text x="433.9262300390611" transform="translate(0,0)" style="color: rgb(102, 102, 102); cursor: default; font-size: 11px; fill: rgb(102, 102, 102);" text-anchor="start" y="235.1395834713023" opacity="1">150</text><text x="420.4263486467679" transform="translate(0,0)" style="color: rgb(102, 102, 102); cursor: default; font-size: 11px; fill: rgb(102, 102, 102);" text-anchor="start" y="272.86922441358996" opacity="1">175</text><text x="396.5554309710231" transform="translate(0,0)" style="color: rgb(102, 102, 102); cursor: default; font-size: 11px; fill: rgb(102, 102, 102);" text-anchor="start" y="305.05543097102304" opacity="1">200</text><text x="364.36922441359" transform="translate(0,0)" style="color: rgb(102, 102, 102); cursor: default; font-size: 11px; fill: rgb(102, 102, 102);" text-anchor="start" y="328.9263486467679" opacity="1">225</text><text x="326.63958347130233" transform="translate(0,0)" style="color: rgb(102, 102, 102); cursor: default; font-size: 11px; fill: rgb(102, 102, 102);" text-anchor="middle" y="342.4262300390611" opacity="1">250</text><text x="286.61575948799856" transform="translate(0,0)" style="color: rgb(102, 102, 102); cursor: default; font-size: 11px; fill: rgb(102, 102, 102);" text-anchor="middle" y="344.3924744270885" opacity="1">275</text><text x="247.744577310547" transform="translate(0,0)" style="color: rgb(102, 102, 102); cursor: default; font-size: 11px; fill: rgb(102, 102, 102);" text-anchor="end" y="334.6557501644162" opacity="1">300</text><text x="213.3735970474542" transform="translate(0,0)" style="color: rgb(102, 102, 102); cursor: default; font-size: 11px; fill: rgb(102, 102, 102);" text-anchor="end" y="314.05457740668174" opacity="1">325</text><text x="186.4628244400875" transform="translate(0,0)" style="color: rgb(102, 102, 102); cursor: default; font-size: 11px; fill: rgb(102, 102, 102);" text-anchor="end" y="284.3631153188268" opacity="1">350</text><text x="169.32979715576687" transform="translate(0,0)" style="color: rgb(102, 102, 102); cursor: default; font-size: 11px; fill: rgb(102, 102, 102);" text-anchor="end" y="248.13837267909685" opacity="1">375</text><text x="163.45" transform="translate(0,0)" style="color: rgb(102, 102, 102); cursor: default; font-size: 11px; fill: rgb(102, 102, 102);" text-anchor="end" y="208.50000000000003" opacity="1">400</text></g><text x="590" class="highcharts-credits" text-anchor="end" data-z-index="8" y="395" style="cursor: pointer; color: rgb(153, 153, 153); font-size: 9px; fill: rgb(153, 153, 153);" aria-label="Chart credits: Highcharts.com" aria-hidden="false">Highcharts.com</text></svg>