<svg xmlns="http://www.w3.org/2000/svg" width="376" height="242" class="marks" style="background-color:#fff"><g fill="none" stroke-miterlimit="10" aria-roledescription="group mark container" class="mark-group role-frame root"><path fill="transparent" stroke="#ddd" d="M44.5 5.5h240v200h-240Z" aria-hidden="true" class="background"/><g aria-hidden="true" class="mark-group role-axis"><path d="M44.5 5.5Z" aria-hidden="true" class="background" pointer-events="none"/><g stroke="#ddd" class="mark-rule role-axis-grid" pointer-events="none"><path d="M44.5 205.5h240M44.5 174.5h240M44.5 143.5h240M44.5 113.5h240M44.5 82.5h240M44.5 51.5h240M44.5 20.5h240"/></g></g><g aria-label="X-axis titled 'Month of the year' for a discrete scale with 12 values: January, February, March, April, May, ending with December" aria-roledescription="axis" class="mark-group role-axis" pointer-events="none"><path d="M44.5 205.5Z" aria-hidden="true" class="background"/><g stroke="#888" class="mark-rule role-axis-tick"><path d="M54.5 205.5v5M74.5 205.5v5M94.5 205.5v5M114.5 205.5v5M134.5 205.5v5M154.5 205.5v5M174.5 205.5v5M194.5 205.5v5M214.5 205.5v5M234.5 205.5v5M254.5 205.5v5M274.5 205.5v5"/></g><g fill="#000" class="mark-text role-axis-label" font-family="sans-serif" font-size="10" text-anchor="middle"><text transform="translate(54 220.5)">Jan</text><text transform="translate(74 220.5)">Feb</text><text transform="translate(94 220.5)">Mar</text><text transform="translate(114 220.5)">Apr</text><text transform="translate(134 220.5)">May</text><text transform="translate(154 220.5)">Jun</text><text transform="translate(174 220.5)">Jul</text><text transform="translate(194 220.5)">Aug</text><text transform="translate(214 220.5)">Sep</text><text transform="translate(234 220.5)">Oct</text><text transform="translate(254 220.5)">Nov</text><text transform="translate(274 220.5)">Dec</text></g><path stroke="#888" d="M44.5 205.5h240" class="mark-rule role-axis-domain"/><text fill="#000" class="mark-text role-axis-title" font-family="sans-serif" font-size="11" font-weight="bold" text-anchor="middle" transform="translate(164.5 235.5)">Month of the year</text></g><g aria-label="Y-axis titled 'Count of Records' for a linear scale with values from 0 to 130" aria-roledescription="axis" class="mark-group role-axis" pointer-events="none"><path d="M44.5 5.5Z" aria-hidden="true" class="background"/><g stroke="#888" class="mark-rule role-axis-tick"><path d="M44.5 205.5h-5M44.5 174.5h-5M44.5 143.5h-5M44.5 113.5h-5M44.5 82.5h-5M44.5 51.5h-5M44.5 20.5h-5"/></g><g fill="#000" class="mark-text role-axis-label" font-family="sans-serif" font-size="10" text-anchor="end"><text transform="translate(37.5 208.5)">0</text><text transform="translate(37.5 177.73)">20</text><text transform="translate(37.5 146.962)">40</text><text transform="translate(37.5 116.192)">60</text><text transform="translate(37.5 85.423)">80</text><text transform="translate(37.5 54.654)">100</text><text transform="translate(37.5 23.885)">120</text></g><path stroke="#888" d="M44.5 205.5V5.5" class="mark-rule role-axis-domain"/><text fill="#000" class="mark-text role-axis-title" font-family="sans-serif" font-size="11" font-weight="bold" text-anchor="middle" transform="rotate(-90 60.158 45.342)">Count of Records</text></g><g aria-roledescription="rect mark container" class="mark-rect role-mark marks"><path fill="#aec7e8" d="M265 14.23h18v4.616h-18Z" aria-label="Month of the year: Dec; Count of Records: 3; Weather type: drizzle" aria-roledescription="bar"/><path fill="#1f77b4" d="M45 54.23h18v100H45Z" aria-label="Month of the year: Jan; Count of Records: 65; Weather type: rain" aria-roledescription="bar"/><path fill="#e7ba52" d="M45 166.538h18V205H45Z" aria-label="Month of the year: Jan; Count of Records: 25; Weather type: sun" aria-roledescription="bar"/><path fill="#9467bd" d="M45 154.23h18v12.308H45Z" aria-label="Month of the year: Jan; Count of Records: 8; Weather type: snow" aria-roledescription="bar"/><path fill="#aec7e8" d="M45 14.23h18v13.847H45Z" aria-label="Month of the year: Jan; Count of Records: 9; Weather type: drizzle" aria-roledescription="bar"/><path fill="#e7ba52" d="M65 160.385h18V205H65Z" aria-label="Month of the year: Feb; Count of Records: 29; Weather type: sun" aria-roledescription="bar"/><path fill="#1f77b4" d="M65 41.923h18v112.308H65Z" aria-label="Month of the year: Feb; Count of Records: 73; Weather type: rain" aria-roledescription="bar"/><path fill="#aec7e8" d="M65 31.154h18v6.154H65Z" aria-label="Month of the year: Feb; Count of Records: 4; Weather type: drizzle" aria-roledescription="bar"/><path fill="#9467bd" d="M65 154.23h18v6.155H65Z" aria-label="Month of the year: Feb; Count of Records: 4; Weather type: snow" aria-roledescription="bar"/><path fill="#1f77b4" d="M85 28.077h18v112.308H85Z" aria-label="Month of the year: Mar; Count of Records: 73; Weather type: rain" aria-roledescription="bar"/><path fill="#e7ba52" d="M85 149.615h18V205H85Z" aria-label="Month of the year: Mar; Count of Records: 36; Weather type: sun" aria-roledescription="bar"/><path fill="#9467bd" d="M85 140.385h18v9.23H85Z" aria-label="Month of the year: Mar; Count of Records: 6; Weather type: snow" aria-roledescription="bar"/><path fill="#aec7e8" d="M85 14.23h18v4.616H85Z" aria-label="Month of the year: Mar; Count of Records: 3; Weather type: drizzle" aria-roledescription="bar"/><path fill="#e7ba52" d="M105 123.462h18V205h-18Z" aria-label="Month of the year: Apr; Count of Records: 53; Weather type: sun" aria-roledescription="bar"/><path fill="#1f77b4" d="M105 29.615h18v92.308h-18Z" aria-label="Month of the year: Apr; Count of Records: 60; Weather type: rain" aria-roledescription="bar"/><path fill="#9467bd" d="M105 121.923h18v1.539h-18Z" aria-label="Month of the year: Apr; Count of Records: 1; Weather type: snow" aria-roledescription="bar"/><path fill="#aec7e8" d="M105 20.385h18V25h-18Z" aria-label="Month of the year: Apr; Count of Records: 3; Weather type: drizzle" aria-roledescription="bar"/><path fill="#1f77b4" d="M125 23.462h18v63.076h-18Z" aria-label="Month of the year: May; Count of Records: 41; Weather type: rain" aria-roledescription="bar"/><path fill="#e7ba52" d="M125 86.538h18V205h-18Z" aria-label="Month of the year: May; Count of Records: 77; Weather type: sun" aria-roledescription="bar"/><path fill="#aec7e8" d="M125 14.23h18v1.54h-18Z" aria-label="Month of the year: May; Count of Records: 1; Weather type: drizzle" aria-roledescription="bar"/><path fill="#1f77b4" d="M145 25h18v63.077h-18Z" aria-label="Month of the year: Jun; Count of Records: 41; Weather type: rain" aria-roledescription="bar"/><path fill="#e7ba52" d="M145 88.077h18V205h-18Z" aria-label="Month of the year: Jun; Count of Records: 76; Weather type: sun" aria-roledescription="bar"/><path fill="#aec7e8" d="M145 20.385h18v3.077h-18Z" aria-label="Month of the year: Jun; Count of Records: 2; Weather type: drizzle" aria-roledescription="bar"/><path fill="#1f77b4" d="M165 43.462h18v23.076h-18Z" aria-label="Month of the year: Jul; Count of Records: 15; Weather type: rain" aria-roledescription="bar"/><path fill="#e7ba52" d="M165 66.538h18V205h-18Z" aria-label="Month of the year: Jul; Count of Records: 90; Weather type: sun" aria-roledescription="bar"/><path fill="#aec7e8" d="M165 14.23h18v13.847h-18Z" aria-label="Month of the year: Jul; Count of Records: 9; Weather type: drizzle" aria-roledescription="bar"/><path fill="#c7c7c7" d="M165 28.077h18v15.385h-18Z" aria-label="Month of the year: Jul; Count of Records: 10; Weather type: fog" aria-roledescription="bar"/><path fill="#e7ba52" d="M185 72.692h18V205h-18Z" aria-label="Month of the year: Aug; Count of Records: 86; Weather type: sun" aria-roledescription="bar"/><path fill="#1f77b4" d="M185 34.23h18v38.462h-18Z" aria-label="Month of the year: Aug; Count of Records: 25; Weather type: rain" aria-roledescription="bar"/><path fill="#aec7e8" d="M185 14.23h18V25h-18Z" aria-label="Month of the year: Aug; Count of Records: 7; Weather type: drizzle" aria-roledescription="bar"/><path fill="#e7ba52" d="M205 106.538h18V205h-18Z" aria-label="Month of the year: Sep; Count of Records: 64; Weather type: sun" aria-roledescription="bar"/><path fill="#1f77b4" d="M205 51.154h18v55.384h-18Z" aria-label="Month of the year: Sep; Count of Records: 36; Weather type: rain" aria-roledescription="bar"/><path fill="#c7c7c7" d="M205 28.077h18v23.077h-18Z" aria-label="Month of the year: Sep; Count of Records: 15; Weather type: fog" aria-roledescription="bar"/><path fill="#aec7e8" d="M205 20.385h18v7.692h-18Z" aria-label="Month of the year: Sep; Count of Records: 5; Weather type: drizzle" aria-roledescription="bar"/><path fill="#e7ba52" d="M225 148.077h18V205h-18Z" aria-label="Month of the year: Oct; Count of Records: 37; Weather type: sun" aria-roledescription="bar"/><path fill="#aec7e8" d="M225 14.23h18v6.155h-18Z" aria-label="Month of the year: Oct; Count of Records: 4; Weather type: drizzle" aria-roledescription="bar"/><path fill="#1f77b4" d="M225 49.615h18v98.462h-18Z" aria-label="Month of the year: Oct; Count of Records: 64; Weather type: rain" aria-roledescription="bar"/><path fill="#1f77b4" d="M245 37.308h18v115.384h-18Z" aria-label="Month of the year: Nov; Count of Records: 75; Weather type: rain" aria-roledescription="bar"/><path fill="#e7ba52" d="M245 154.23h18V205h-18Z" aria-label="Month of the year: Nov; Count of Records: 33; Weather type: sun" aria-roledescription="bar"/><path fill="#aec7e8" d="M245 20.385h18V25h-18Z" aria-label="Month of the year: Nov; Count of Records: 3; Weather type: drizzle" aria-roledescription="bar"/><path fill="#c7c7c7" d="M245 25h18v12.308h-18Z" aria-label="Month of the year: Nov; Count of Records: 8; Weather type: fog" aria-roledescription="bar"/><path fill="#1f77b4" d="M265 31.154h18v112.308h-18Z" aria-label="Month of the year: Dec; Count of Records: 73; Weather type: rain" aria-roledescription="bar"/><path fill="#e7ba52" d="M265 152.692h18V205h-18Z" aria-label="Month of the year: Dec; Count of Records: 34; Weather type: sun" aria-roledescription="bar"/><path fill="#9467bd" d="M265 143.462h18v9.23h-18Z" aria-label="Month of the year: Dec; Count of Records: 6; Weather type: snow" aria-roledescription="bar"/><path fill="#c7c7c7" d="M85 18.846h18v9.23H85Z" aria-label="Month of the year: Mar; Count of Records: 6; Weather type: fog" aria-roledescription="bar"/><path fill="#c7c7c7" d="M105 25h18v4.615h-18Z" aria-label="Month of the year: Apr; Count of Records: 3; Weather type: fog" aria-roledescription="bar"/><path fill="#c7c7c7" d="M125 15.77h18v7.692h-18Z" aria-label="Month of the year: May; Count of Records: 5; Weather type: fog" aria-roledescription="bar"/><path fill="#c7c7c7" d="M185 25h18v9.23h-18Z" aria-label="Month of the year: Aug; Count of Records: 6; Weather type: fog" aria-roledescription="bar"/><path fill="#c7c7c7" d="M225 20.385h18v29.23h-18Z" aria-label="Month of the year: Oct; Count of Records: 19; Weather type: fog" aria-roledescription="bar"/><path fill="#c7c7c7" d="M45 28.077h18V54.23H45Z" aria-label="Month of the year: Jan; Count of Records: 17; Weather type: fog" aria-roledescription="bar"/><path fill="#9467bd" d="M245 152.692h18v1.539h-18Z" aria-label="Month of the year: Nov; Count of Records: 1; Weather type: snow" aria-roledescription="bar"/><path fill="#c7c7c7" d="M265 18.846h18v12.308h-18Z" aria-label="Month of the year: Dec; Count of Records: 8; Weather type: fog" aria-roledescription="bar"/><path fill="#c7c7c7" d="M65 37.308h18v4.615H65Z" aria-label="Month of the year: Feb; Count of Records: 3; Weather type: fog" aria-roledescription="bar"/><path fill="#c7c7c7" d="M145 23.462h18V25h-18Z" aria-label="Month of the year: Jun; Count of Records: 1; Weather type: fog" aria-roledescription="bar"/></g><g aria-label="Symbol legend titled 'Weather type' for fill color with 5 values: sun, fog, drizzle, rain, snow" aria-roledescription="legend" class="mark-group role-legend"><path d="M302 5h69v79h-69Z" aria-hidden="true" class="background" pointer-events="none"/><g class="mark-group role-legend-entry"><path d="M302 21Z" aria-hidden="true" class="background" pointer-events="none"/><g aria-roledescription="group mark container" class="mark-group role-scope" pointer-events="none"><path d="M302 21h44.896v11H302Z" aria-hidden="true" class="background"/><path fill="#e7ba52" d="M303 22h10v10h-10Z" class="mark-symbol role-legend-symbol"/><text fill="#000" class="mark-text role-legend-label" font-family="sans-serif" font-size="10" transform="translate(318 30)">sun</text><path d="M302 34h44.896v11H302Z" aria-hidden="true" class="background"/><path fill="#c7c7c7" d="M303 35h10v10h-10Z" class="mark-symbol role-legend-symbol"/><text fill="#000" class="mark-text role-legend-label" font-family="sans-serif" font-size="10" transform="translate(318 43)">fog</text><path d="M302 47h44.896v11H302Z" aria-hidden="true" class="background"/><path fill="#aec7e8" d="M303 48h10v10h-10Z" class="mark-symbol role-legend-symbol"/><text fill="#000" class="mark-text role-legend-label" font-family="sans-serif" font-size="10" transform="translate(318 56)">drizzle</text><path d="M302 60h44.896v11H302Z" aria-hidden="true" class="background"/><path fill="#1f77b4" d="M303 61h10v10h-10Z" class="mark-symbol role-legend-symbol"/><text fill="#000" class="mark-text role-legend-label" font-family="sans-serif" font-size="10" transform="translate(318 69)">rain</text><path d="M302 73h44.896v11H302Z" aria-hidden="true" class="background"/><path fill="#9467bd" d="M303 74h10v10h-10Z" class="mark-symbol role-legend-symbol"/><text fill="#000" class="mark-text role-legend-label" font-family="sans-serif" font-size="10" transform="translate(318 82)">snow</text></g></g><text fill="#000" class="mark-text role-legend-title" font-family="sans-serif" font-size="11" font-weight="bold" pointer-events="none" transform="translate(302 14)">Weather type</text></g></g></svg>