<svg xmlns="http://www.w3.org/2000/svg" width="768" height="480" class="main-svg" style="background:#fff"><defs><clipPath id="a" class="plotclip"><path d="M0 0h627v281H0z"/></clipPath></defs><g class="bglayer"><path d="M101 104h627v281H101z" class="bg" style="fill:#fff;fill-opacity:1;stroke-width:0"/></g><g class="draglayer"><g class="xy"><path d="M0 0h627v281H0z" class="drag nsewdrag cursor-crosshair" data-subplot="xy" style="fill:transparent;stroke-width:0;pointer-events:all" transform="translate(101 104)"/><path d="M-20-20H0V0h-20z" class="drag nwdrag cursor-nw-resize" data-subplot="xy" style="fill:transparent;stroke-width:0;pointer-events:all" transform="translate(101 104)"/><path d="M627-20h20V0h-20z" class="drag nedrag cursor-ne-resize" data-subplot="xy" style="fill:transparent;stroke-width:0;pointer-events:all" transform="translate(101 104)"/><path d="M-20 281H0v20h-20z" class="drag swdrag cursor-sw-resize" data-subplot="xy" style="fill:transparent;stroke-width:0;pointer-events:all" transform="translate(101 104)"/><path d="M627 281h20v20h-20z" class="drag sedrag cursor-se-resize" data-subplot="xy" style="fill:transparent;stroke-width:0;pointer-events:all" transform="translate(101 104)"/><path d="M62.7 281.5h501.6v20H62.7z" class="drag ewdrag cursor-ew-resize" data-subplot="xy" style="fill:transparent;stroke-width:0;pointer-events:all" transform="translate(101 104)"/><path d="M0 281.5h62.7v20H0z" class="drag wdrag cursor-w-resize" data-subplot="xy" style="fill:transparent;stroke-width:0;pointer-events:all" transform="translate(101 104)"/><path d="M564.3 281.5H627v20h-62.7z" class="drag edrag cursor-e-resize" data-subplot="xy" style="fill:transparent;stroke-width:0;pointer-events:all" transform="translate(101 104)"/><path d="M-20.5 28.1h20v224.8h-20z" class="drag nsdrag cursor-ns-resize" data-subplot="xy" style="fill:transparent;stroke-width:0;pointer-events:all" transform="translate(101 104)"/><path d="M-20.5 252.9h20V281h-20z" class="drag sdrag cursor-s-resize" data-subplot="xy" style="fill:transparent;stroke-width:0;pointer-events:all" transform="translate(101 104)"/><path d="M-20.5 0h20v28.1h-20z" class="drag ndrag cursor-n-resize" data-subplot="xy" style="fill:transparent;stroke-width:0;pointer-events:all" transform="translate(101 104)"/></g></g><g class="cartesianlayer"><g class="subplot xy"><g class="gridlayer"><path d="M0 0v281" class="xgrid crisp" style="stroke:#ccc;stroke-opacity:1;stroke-width:1px" transform="translate(129.5 104)"/><path d="M0 0v281" class="xgrid crisp" style="stroke:#ccc;stroke-opacity:1;stroke-width:1px" transform="translate(298.39 104)"/><path d="M0 0v281" class="xgrid crisp" style="stroke:#ccc;stroke-opacity:1;stroke-width:1px" transform="translate(467.28 104)"/><path d="M0 0v281" class="xgrid crisp" style="stroke:#ccc;stroke-opacity:1;stroke-width:1px" transform="translate(636.17 104)"/><path d="M0 0h627" class="ygrid crisp" style="stroke:#ccc;stroke-opacity:1;stroke-width:1px" transform="translate(101 372.23)"/><path d="M0 0h627" class="ygrid crisp" style="stroke:#ccc;stroke-opacity:1;stroke-width:1px" transform="translate(101 309.05)"/><path d="M0 0h627" class="ygrid crisp" style="stroke:#ccc;stroke-opacity:1;stroke-width:1px" transform="translate(101 245.87)"/><path d="M0 0h627" class="ygrid crisp" style="stroke:#ccc;stroke-opacity:1;stroke-width:1px" transform="translate(101 182.69)"/><path d="M0 0h627" class="ygrid crisp" style="stroke:#ccc;stroke-opacity:1;stroke-width:1px" transform="translate(101 119.5)"/></g><g class="plot" clip-path="url(#a)" transform="translate(101 104)"><g class="scatterlayer"><g class="trace scatter tracea966e4" style="stroke-miterlimit:2;opacity:1"><path d="m28.5 267.08 16.89-.57 4.22-.26 16.89-1.29 4.22-.64 8.45-1.09 4.22-.71 12.67-2.21 4.22-.32 4.22-1.25 4.22.23 4.22-3.08 4.23 2.13 4.22-1.75 4.22-.69 16.89-4.89 4.22-2.19 4.22-1.71 4.23-3.46 4.22-3.71 4.22-11.26 4.22-6.5 4.23-11.65 4.22-19.76 4.22-6.54 4.22-6.19 4.22-9.59 4.23 1.43 4.22-13.46 4.22-8.46 4.22-.07 8.45-17.54 4.22.2 4.22 4.46 4.22-2.84 8.45 5.64 4.22-1.94 4.22 9.5 4.23 3.42 4.22 8.66 4.22-.9 8.44 7.8 4.23-3.16 8.44-6.58 4.22-10.79 4.23-10.05 4.22-15.06 4.22-8.31 4.22 8.36 4.22.78 4.23-31.79 4.22-69.3 4.22 9.58 4.22.39 4.23 2.43 4.22-17.24 4.22 5.16 8.44 17.31 4.23 13.91 4.22 15.1 4.22 21.21 4.22 16.28 4.23 10.95 4.22 14.81 4.22 9.5 8.44 21.21 4.23 7.05 8.44 24.21 4.22 9.86 4.23 7.79 4.22 3.35 8.44 8.12 4.22 7.55 4.23 3.27 4.22-2.29 4.22.19 4.22-4.65 4.23-7.74 4.22-1.61 4.22-2.82 4.22-10.68 8.45-23.63 4.22-21.86 4.22-6.57 4.22-13.09 4.23-8 4.22-10.26 4.22 12.35 4.22 7.7 4.22 4.62 4.23 7.19 4.22 13.45 4.22 9.44 12.67 29.68 4.22 7.78 8.44 10.08 4.23 1.17 8.44 8.84 4.22 3.19 4.23 1.35 4.22 3.19 8.44 5.74 4.22 4.07 8.45 6.45 4.22 1.83 8.45 2.68 4.22.49 4.22.62v-1.28l-8.44-1.18-4.23-1.56-8.44-3.69-4.22-3.38-12.67-12.05-4.22-3.9-4.22-3.94-4.23-2.19-4.22-4.19-4.22-5.44-4.22-6.45-4.23-2.68-8.44-13.23-4.22-9.98-8.45-25.47-4.22-12.84-4.22-14.78-4.22-18.33-4.23-14.15-4.22-7.68-4.22-11.02-4.22-15.3-8.45 21.71-4.22 19.6-4.22 6.76-4.22 21.29-8.45 21.59-4.22 15.6-4.22 17.22-4.22 4.45-4.23 11.14-4.22 8.36-4.22 6.35-4.22 4.63-4.23-1.45-4.22-7.49-4.22-3.75-4.22-2.7-4.22-2.86-4.23-8.08-8.44-20.13-4.22-12.19-4.23-6.75-4.22-9.53-4.22-11.71-4.22-9.39-4.22-14.66-4.23-10.88-4.22-16.12-4.22-21.17-8.45-28.74-4.22-8.4-4.22-8.9-4.22-5.15-4.22 17.28-4.23-2.37-4.22-.36-4.22-9.58-4.22 69.34-4.23 31.79-4.22-.73-4.22-8.42-4.22 8.3-4.22 15.15-8.45 20.89-4.22 3.04-8.45 6.69-4.22-3.55-4.22-4.25-4.22.89-4.22-8.68-4.23-3.41-4.22-9.49-4.22 1.92-8.45-5.66-4.22 2.74-4.22-4.46-4.22-.24-8.45 17.54-4.22.01-4.22 8.47-4.22 13.46-4.23-1.45-4.22 9.53-8.44 12.77-4.22 19.8-4.23 11.69-4.22 6.55-4.22 11.3-4.22 3.71-4.23 3.47-4.22 1.72-8.44 3.73-4.22 1-16.89 4.72-4.23-2.2-4.22 3.14-4.22-.28-4.22 1.26-4.22.3-29.56 4.6-4.22.03-8.45 1.09-4.22.26-21.11 1.26Z" class="js-fill js-tozero" style="fill:#440154;fill-opacity:1;stroke-width:0"/><path d="m28.5 267.08 16.89-.57 4.22-.26 16.89-1.29 4.22-.64 8.45-1.09 4.22-.71 12.67-2.21 4.22-.32 4.22-1.25 4.22.23 4.22-3.08 4.23 2.13 4.22-1.75 4.22-.69 16.89-4.89 4.22-2.19 4.22-1.71 4.23-3.46 4.22-3.71 4.22-11.26 4.22-6.5 4.23-11.65 4.22-19.76 4.22-6.54 4.22-6.19 4.22-9.59 4.23 1.43 4.22-13.46 4.22-8.46 4.22-.07 8.45-17.54 4.22.2 4.22 4.46 4.22-2.84 8.45 5.64 4.22-1.94 4.22 9.5 4.23 3.42 4.22 8.66 4.22-.9 8.44 7.8 4.23-3.16 8.44-6.58 4.22-10.79 4.23-10.05 4.22-15.06 4.22-8.31 4.22 8.36 4.22.78 4.23-31.79 4.22-69.3 4.22 9.58 4.22.39 4.23 2.43 4.22-17.24 4.22 5.16 8.44 17.31 4.23 13.91 4.22 15.1 4.22 21.21 4.22 16.28 4.23 10.95 4.22 14.81 4.22 9.5 8.44 21.21 4.23 7.05 8.44 24.21 4.22 9.86 4.23 7.79 4.22 3.35 8.44 8.12 4.22 7.55 4.23 3.27 4.22-2.29 4.22.19 4.22-4.65 4.23-7.74 4.22-1.61 4.22-2.82 4.22-10.68 8.45-23.63 4.22-21.86 4.22-6.57 4.22-13.09 4.23-8 4.22-10.26 4.22 12.35 4.22 7.7 4.22 4.62 4.23 7.19 4.22 13.45 4.22 9.44 12.67 29.68 4.22 7.78 8.44 10.08 4.23 1.17 8.44 8.84 4.22 3.19 4.23 1.35 4.22 3.19 8.44 5.74 4.22 4.07 8.45 6.45 4.22 1.83 8.45 2.68 4.22.49 4.22.62v-1.28l-8.44-1.18-4.23-1.56-8.44-3.69-4.22-3.38-12.67-12.05-4.22-3.9-4.22-3.94-4.23-2.19-4.22-4.19-4.22-5.44-4.22-6.45-4.23-2.68-8.44-13.23-4.22-9.98-8.45-25.47-4.22-12.84-4.22-14.78-4.22-18.33-4.23-14.15-4.22-7.68-4.22-11.02-4.22-15.3-8.45 21.71-4.22 19.6-4.22 6.76-4.22 21.29-8.45 21.59-4.22 15.6-4.22 17.22-4.22 4.45-4.23 11.14-4.22 8.36-4.22 6.35-4.22 4.63-4.23-1.45-4.22-7.49-4.22-3.75-4.22-2.7-4.22-2.86-4.23-8.08-8.44-20.13-4.22-12.19-4.23-6.75-4.22-9.53-4.22-11.71-4.22-9.39-4.22-14.66-4.23-10.88-4.22-16.12-4.22-21.17-8.45-28.74-4.22-8.4-4.22-8.9-4.22-5.15-4.22 17.28-4.23-2.37-4.22-.36-4.22-9.58-4.22 69.34-4.23 31.79-4.22-.73-4.22-8.42-4.22 8.3-4.22 15.15-8.45 20.89-4.22 3.04-8.45 6.69-4.22-3.55-4.22-4.25-4.22.89-4.22-8.68-4.23-3.41-4.22-9.49-4.22 1.92-8.45-5.66-4.22 2.74-4.22-4.46-4.22-.24-8.45 17.54-4.22.01-4.22 8.47-4.22 13.46-4.23-1.45-4.22 9.53-8.44 12.77-4.22 19.8-4.23 11.69-4.22 6.55-4.22 11.3-4.22 3.71-4.23 3.47-4.22 1.72-8.44 3.73-4.22 1-16.89 4.72-4.23-2.2-4.22 3.14-4.22-.28-4.22 1.26-4.22.3-29.56 4.6-4.22.03-8.45 1.09-4.22.26-21.11 1.26" class="js-line" style="vector-effect:non-scaling-stroke;fill:none;stroke:#000;stroke-opacity:0;stroke-width:1.88976px;opacity:1"/></g><g class="trace scatter trace239bde" style="stroke-miterlimit:2;opacity:1"><path d="m184.72 177.73 88.67-20.38 12.67-23.89 4.22-15.06 4.22-8.31 4.22 8.36 4.22.78 4.23-31.79 4.22-69.3 4.22 9.59 4.22.38 4.23 2.44 4.22-17.24 4.22 5.17 4.22 8.9 4.22 8.41 4.23 13.89 4.22 15.12 4.22 21.21 4.22 16.3 4.23 10.95 4.22 14.83 4.22 9.53 8.44 21.25 4.23 7.14 8.44 24.31 4.22 10.02 4.23 7.99 4.22 3.48 8.44 8.77 4.22 7.56 4.23 3.38 4.22-1.82 4.22.65 4.22-4.27 4.23-7.22 4.22-.63 4.22-1.59 4.22-7.09 4.22-10.56 4.23-3.52 4.22 1.43 4.22.35 4.22-2.67 4.23-4.63 4.22-3.73 4.22 6.18 4.22 4.7 4.22 2.05 4.23 4.57 4.22 7.1 12.67 15.16 4.22 5.29 8.44 8.15 4.22 2.7 4.23 1 4.22 2.59 8.44 5.04 4.23 1.17 16.88 6.72 4.23 1.43 8.44 1.79 4.22.44 12.67.83v-4.3l-12.67-2.47-4.22-1.32-4.22-1.83-4.22-3.01-12.67-10.27-4.22-2.98-4.22-3.19-4.23-1.35-4.22-3.19-4.22-4.39-4.22-4.45-4.23-1.17-8.44-10.08-4.22-7.78-8.45-19.48-4.22-10.2-4.22-9.44-4.22-13.45-4.23-7.19-4.22-4.62-4.22-7.7-4.22-12.35-4.22 10.26-4.23 8-4.22 13.09-4.22 6.57-4.22 21.86-4.23 11.07-8.44 23.24-4.22 2.82-4.22 1.61-4.23 7.74-4.22 4.65-4.22-.19-4.22 2.29-4.23-3.27-4.22-7.55-4.22-4.5-8.44-6.97-4.23-7.79-8.44-21.4-4.22-12.67-4.23-7.05-4.22-9.64-8.44-21.07-4.22-14.81-4.23-10.95-4.22-16.28-4.22-21.21-4.22-15.1-4.23-13.91-4.22-8.4-4.22-8.91-4.22-5.16-4.22 17.24-4.23-2.43-4.22-.39-4.22-9.58-4.22 69.3-4.23 31.79-4.22-.78-4.22-8.36-4.22 8.31-4.22 15.06-12.67 23.89-88.67 20.38Z" class="js-fill js-tozero" style="fill:#472d7b;fill-opacity:1;stroke-width:0"/><path d="m184.72 177.73 88.67-20.38 12.67-23.89 4.22-15.06 4.22-8.31 4.22 8.36 4.22.78 4.23-31.79 4.22-69.3 4.22 9.59 4.22.38 4.23 2.44 4.22-17.24 4.22 5.17 4.22 8.9 4.22 8.41 4.23 13.89 4.22 15.12 4.22 21.21 4.22 16.3 4.23 10.95 4.22 14.83 4.22 9.53 8.44 21.25 4.23 7.14 8.44 24.31 4.22 10.02 4.23 7.99 4.22 3.48 8.44 8.77 4.22 7.56 4.23 3.38 4.22-1.82 4.22.65 4.22-4.27 4.23-7.22 4.22-.63 4.22-1.59 4.22-7.09 4.22-10.56 4.23-3.52 4.22 1.43 4.22.35 4.22-2.67 4.23-4.63 4.22-3.73 4.22 6.18 4.22 4.7 4.22 2.05 4.23 4.57 4.22 7.1 12.67 15.16 4.22 5.29 8.44 8.15 4.22 2.7 4.23 1 4.22 2.59 8.44 5.04 4.23 1.17 16.88 6.72 4.23 1.43 8.44 1.79 4.22.44 12.67.83v-4.3l-12.67-2.47-4.22-1.32-4.22-1.83-4.22-3.01-12.67-10.27-4.22-2.98-4.22-3.19-4.23-1.35-4.22-3.19-4.22-4.39-4.22-4.45-4.23-1.17-8.44-10.08-4.22-7.78-8.45-19.48-4.22-10.2-4.22-9.44-4.22-13.45-4.23-7.19-4.22-4.62-4.22-7.7-4.22-12.35-4.22 10.26-4.23 8-4.22 13.09-4.22 6.57-4.22 21.86-4.23 11.07-8.44 23.24-4.22 2.82-4.22 1.61-4.23 7.74-4.22 4.65-4.22-.19-4.22 2.29-4.23-3.27-4.22-7.55-4.22-4.5-8.44-6.97-4.23-7.79-8.44-21.4-4.22-12.67-4.23-7.05-4.22-9.64-8.44-21.07-4.22-14.81-4.23-10.95-4.22-16.28-4.22-21.21-4.22-15.1-4.23-13.91-4.22-8.4-4.22-8.91-4.22-5.16-4.22 17.24-4.23-2.43-4.22-.39-4.22-9.58-4.22 69.3-4.23 31.79-4.22-.78-4.22-8.36-4.22 8.31-4.22 15.06-12.67 23.89-88.67 20.38" class="js-line" style="vector-effect:non-scaling-stroke;fill:none;stroke:#000;stroke-opacity:0;stroke-width:1.88976px;opacity:1"/></g><g class="trace scatter trace02d178" style="stroke-miterlimit:2;opacity:1"><path d="m28.5 267.22 16.89-.53 4.22-.25 16.89-1.24 4.22-.61 8.45-1.03 4.22-.66 12.67-2.16 4.22-.29 4.22-1.17 4.22.21 4.22-2.76 4.23 1.89 4.22-1.61 4.22-.68 16.89-4.36 4.22-2.04 4.22-1.78 4.23-3.06 4.22-3.63 4.22-10.56 4.22-6.21 4.23-10.78 4.22-18.17 4.22-5.34 4.22-4.28 4.22-6.87 4.23 3.08 4.22-8.52 4.22-3.88 4.22 4.04 4.23-1.69 4.22-3.58 4.22 3 4.22 4.64 4.22.27 4.23 3.52 4.22 3.69 4.22.04 4.22 6.81 4.23 1.29 4.22 5.01 4.22-1.47 4.22 1.24 4.22-.02 8.45-7.14 4.22-5.41 12.67-38.4 4.22-8.39 4.22 6.04 4.22-.96 4.23-30.11 4.22-70.25 4.22 6.63 4.22-1.73 4.23.75 4.22-18.24 4.22 4.29 4.22 7.94 4.22 7.46 4.23 13.03 4.22 14.21 4.22 20.28 4.22 15.33 4.23 10.46 4.22 13.8 4.22 8.36 8.44 19.45 4.23 7.03 8.44 22.9 4.22 9.5 4.23 7.48 4.22 3.47 8.44 8.3 4.22 7.07 4.23 3.32 4.22-2.07 4.22.52 4.22-4.41 4.23-7.35 4.22-.75 4.22-1.59 4.22-7.16 4.22-10.55 4.23-3.56 4.22 1.35 4.22.26 4.22-2.67 4.23-4.75 4.22-3.69 4.22 6.13 4.22 4.71 4.22 2.06 4.23 4.49 4.22 7.03 12.67 15.08 4.22 5.27 8.44 8.12 4.22 2.69 4.23.99 4.22 2.56 8.44 5.03 4.23 1.16 16.88 6.72 4.23 1.45 8.44 1.81 4.22.4 12.67.9-21.11-2.19-4.22-1.11-16.89-6.35-4.22-1.8-4.23-1.17-4.22-2.15-8.44-5.48-4.23-1-4.22-2.7-4.22-3.89-8.44-9.55-4.23-5.85-8.44-9.31-4.22-7.1-4.23-4.57-4.22-2.05-4.22-4.7-4.22-6.18-8.45 8.36-4.22 2.67-4.22-.35-4.22-1.43-4.23 3.52-4.22 10.56-4.22 7.09-4.22 1.59-4.22.63-4.23 7.22-4.22 4.27-4.22-.65-4.22 1.82-4.23-3.38-4.22-7.56-4.22-4.79-8.44-7.46-4.23-7.99-8.44-21.62-4.22-12.71-4.23-7.14-4.22-9.66-8.44-21.12-4.22-14.83-4.23-10.95-4.22-16.3-4.22-21.21-4.22-15.12-4.23-13.89-4.22-8.41-4.22-8.9-4.22-5.17-4.22 17.24-4.23-2.44-4.22-.38-4.22-9.59-4.22 69.3-4.23 31.79-4.22-.78-4.22-8.36-4.22 8.31-4.22 15.06-8.45 20.83-4.22 3.06-8.45 6.68-4.22-3.53-4.22-4.27-4.22.9-4.22-8.66-4.23-3.42-4.22-9.5-4.22 1.94-8.45-5.64-4.22 2.84-4.22-4.46-4.22-.2-8.45 17.54-4.22.07-4.22 8.46-4.22 13.46-4.23-1.43-4.22 9.6-8.44 12.72-4.22 19.76-4.23 11.65-4.22 6.5-4.22 11.26-4.22 3.71-4.23 3.46-4.22 1.71-8.44 3.72-4.22 1.08-16.89 4.72-4.23-2.13-4.22 3.08-4.22-.23-4.22 1.25-4.22.32-29.56 4.65-4.22.02-8.45 1.05-4.22.22-21.11.97Z" class="js-fill js-tozero" style="fill:#3b528b;fill-opacity:1;stroke-width:0"/><path d="m28.5 267.22 16.89-.53 4.22-.25 16.89-1.24 4.22-.61 8.45-1.03 4.22-.66 12.67-2.16 4.22-.29 4.22-1.17 4.22.21 4.22-2.76 4.23 1.89 4.22-1.61 4.22-.68 16.89-4.36 4.22-2.04 4.22-1.78 4.23-3.06 4.22-3.63 4.22-10.56 4.22-6.21 4.23-10.78 4.22-18.17 4.22-5.34 4.22-4.28 4.22-6.87 4.23 3.08 4.22-8.52 4.22-3.88 4.22 4.04 4.23-1.69 4.22-3.58 4.22 3 4.22 4.64 4.22.27 4.23 3.52 4.22 3.69 4.22.04 4.22 6.81 4.23 1.29 4.22 5.01 4.22-1.47 4.22 1.24 4.22-.02 8.45-7.14 4.22-5.41 12.67-38.4 4.22-8.39 4.22 6.04 4.22-.96 4.23-30.11 4.22-70.25 4.22 6.63 4.22-1.73 4.23.75 4.22-18.24 4.22 4.29 4.22 7.94 4.22 7.46 4.23 13.03 4.22 14.21 4.22 20.28 4.22 15.33 4.23 10.46 4.22 13.8 4.22 8.36 8.44 19.45 4.23 7.03 8.44 22.9 4.22 9.5 4.23 7.48 4.22 3.47 8.44 8.3 4.22 7.07 4.23 3.32 4.22-2.07 4.22.52 4.22-4.41 4.23-7.35 4.22-.75 4.22-1.59 4.22-7.16 4.22-10.55 4.23-3.56 4.22 1.35 4.22.26 4.22-2.67 4.23-4.75 4.22-3.69 4.22 6.13 4.22 4.71 4.22 2.06 4.23 4.49 4.22 7.03 12.67 15.08 4.22 5.27 8.44 8.12 4.22 2.69 4.23.99 4.22 2.56 8.44 5.03 4.23 1.16 16.88 6.72 4.23 1.45 8.44 1.81 4.22.4 12.67.9-21.11-2.19-4.22-1.11-16.89-6.35-4.22-1.8-4.23-1.17-4.22-2.15-8.44-5.48-4.23-1-4.22-2.7-4.22-3.89-8.44-9.55-4.23-5.85-8.44-9.31-4.22-7.1-4.23-4.57-4.22-2.05-4.22-4.7-4.22-6.18-8.45 8.36-4.22 2.67-4.22-.35-4.22-1.43-4.23 3.52-4.22 10.56-4.22 7.09-4.22 1.59-4.22.63-4.23 7.22-4.22 4.27-4.22-.65-4.22 1.82-4.23-3.38-4.22-7.56-4.22-4.79-8.44-7.46-4.23-7.99-8.44-21.62-4.22-12.71-4.23-7.14-4.22-9.66-8.44-21.12-4.22-14.83-4.23-10.95-4.22-16.3-4.22-21.21-4.22-15.12-4.23-13.89-4.22-8.41-4.22-8.9-4.22-5.17-4.22 17.24-4.23-2.44-4.22-.38-4.22-9.59-4.22 69.3-4.23 31.79-4.22-.78-4.22-8.36-4.22 8.31-4.22 15.06-8.45 20.83-4.22 3.06-8.45 6.68-4.22-3.53-4.22-4.27-4.22.9-4.22-8.66-4.23-3.42-4.22-9.5-4.22 1.94-8.45-5.64-4.22 2.84-4.22-4.46-4.22-.2-8.45 17.54-4.22.07-4.22 8.46-4.22 13.46-4.23-1.43-4.22 9.6-8.44 12.72-4.22 19.76-4.23 11.65-4.22 6.5-4.22 11.26-4.22 3.71-4.23 3.46-4.22 1.71-8.44 3.72-4.22 1.08-16.89 4.72-4.23-2.13-4.22 3.08-4.22-.23-4.22 1.25-4.22.32-29.56 4.65-4.22.02-8.45 1.05-4.22.22-21.11.97" class="js-line" style="vector-effect:non-scaling-stroke;fill:none;stroke:#000;stroke-opacity:0;stroke-width:1.88976px;opacity:1"/></g><g class="trace scatter trace8397d7" style="stroke-miterlimit:2;opacity:1"><path d="m28.5 267.24 16.89-.53 4.22-.25 16.89-1.25 4.22-.59 8.45-1.04 4.22-.65 12.67-2.17 4.22-.28 4.22-1.18 4.22.2 4.22-2.74 4.23 1.89 4.22-1.62 4.22-.67L142.5 252l4.22-2.04 4.22-1.77 4.23-3.06 4.22-3.62 4.22-10.57 4.22-6.2 4.23-10.75 4.22-18.12 4.22-5.36 4.22-4.28 4.22-6.86 4.23 3.05 4.22-8.51 4.22-3.86 4.22 4.01 4.23-1.63 4.22-3.58 4.22 2.95 4.22 4.69 4.22.24 4.23 3.57 4.22 3.72 4.22.05 4.22 6.8 4.23 1.35 4.22 5.06 4.22-1.42 4.22 1.23h4.22l8.45-7 4.22-5.36 12.67-38.11 4.22-8.24 4.22 6.67 4.22-.74 4.23-28.84 4.22-65.99 4.22 13.46 4.22 8.33 4.23 13.22 4.22-1.85 4.22 14.1 4.22 10.96 8.45 20.63 4.22 8.55 4.22 10.46 4.22 6.33 4.23 6.18 4.22 8.39 4.22 6.87 4.22 9.05 4.22 6.57 4.23 4.81 8.44 19.04 4.22 6.67 4.23 5.3 4.22 2.09 4.22 2.09 4.22 3.04 4.22 4.03 4.23 1.69 4.22-2.88 4.22-.66 4.22-4.94 4.23-7.75 4.22-1 4.22-1.97 4.22-7.46 4.22-10.59 4.23-3.64 4.22 1.04 4.22.1 4.22-2.76 8.45-8.69 4.22 5.94 4.22 4.74 4.22 2.08 4.23 4.39 4.22 6.91 12.67 14.76 4.22 5.23 8.44 8.02 4.22 2.66 4.23 1.01 4.22 2.49 8.44 4.94 4.23 1.17 16.88 6.63 4.23 1.44 8.44 1.79 4.22.41 12.67.91v-.44l-21.11-2.03-4.22-1.08-16.89-6.37-4.22-1.8-4.23-1.16-4.22-2.17-8.44-5.42-4.23-.99-4.22-2.69-4.22-3.89-8.44-9.5-4.23-5.8-8.44-9.28-4.22-7.03-4.23-4.49-4.22-2.06-4.22-4.71-4.22-6.13-4.22 3.69-4.23 4.75-4.22 2.67-4.22-.26-4.22-1.35-4.23 3.56-4.22 10.55-4.22 7.16-4.22 1.59-4.22.75-4.23 7.35-4.22 4.41-4.22-.52-4.22 2.07-4.23-3.32-4.22-7.07-8.44-8.3-4.22-3.47-4.23-7.48-4.22-9.5-8.44-22.9-4.23-7.03-12.66-27.81-4.22-13.8-4.23-10.46-4.22-15.33-4.22-20.28-4.22-14.21-4.23-13.03-4.22-7.46-4.22-7.94-4.22-4.29-4.22 18.24-4.23-.75-4.22 1.73-4.22-6.63-4.22 70.25-4.23 30.11-4.22.96-4.22-6.04-4.22 8.39-4.22 14.1-8.45 24.3-4.22 5.41-8.45 7.14-4.22.02-4.22-1.24-4.22 1.47-4.22-5.01-4.23-1.29-4.22-6.81-4.22-.04-8.45-7.21-4.22-.27-4.22-4.64-4.22-3-4.22 3.58-4.23 1.69-4.22-4.04-4.22 3.88-4.22 8.52-4.23-3.08-4.22 6.87-4.22 4.28-4.22 5.34-4.22 18.17-4.23 10.78-4.22 6.21-4.22 10.56-4.22 3.63-4.23 3.06-4.22 1.78-8.44 3.39-4.22.99-16.89 4.31-4.23-1.89-4.22 2.76-4.22-.21-4.22 1.17-4.22.29-21.12 3.57-4.22.28L58.06 266l-4.23.24-25.33 1Z" class="js-fill js-tozero" style="fill:#2c728e;fill-opacity:1;stroke-width:0"/><path d="m28.5 267.24 16.89-.53 4.22-.25 16.89-1.25 4.22-.59 8.45-1.04 4.22-.65 12.67-2.17 4.22-.28 4.22-1.18 4.22.2 4.22-2.74 4.23 1.89 4.22-1.62 4.22-.67L142.5 252l4.22-2.04 4.22-1.77 4.23-3.06 4.22-3.62 4.22-10.57 4.22-6.2 4.23-10.75 4.22-18.12 4.22-5.36 4.22-4.28 4.22-6.86 4.23 3.05 4.22-8.51 4.22-3.86 4.22 4.01 4.23-1.63 4.22-3.58 4.22 2.95 4.22 4.69 4.22.24 4.23 3.57 4.22 3.72 4.22.05 4.22 6.8 4.23 1.35 4.22 5.06 4.22-1.42 4.22 1.23h4.22l8.45-7 4.22-5.36 12.67-38.11 4.22-8.24 4.22 6.67 4.22-.74 4.23-28.84 4.22-65.99 4.22 13.46 4.22 8.33 4.23 13.22 4.22-1.85 4.22 14.1 4.22 10.96 8.45 20.63 4.22 8.55 4.22 10.46 4.22 6.33 4.23 6.18 4.22 8.39 4.22 6.87 4.22 9.05 4.22 6.57 4.23 4.81 8.44 19.04 4.22 6.67 4.23 5.3 4.22 2.09 4.22 2.09 4.22 3.04 4.22 4.03 4.23 1.69 4.22-2.88 4.22-.66 4.22-4.94 4.23-7.75 4.22-1 4.22-1.97 4.22-7.46 4.22-10.59 4.23-3.64 4.22 1.04 4.22.1 4.22-2.76 8.45-8.69 4.22 5.94 4.22 4.74 4.22 2.08 4.23 4.39 4.22 6.91 12.67 14.76 4.22 5.23 8.44 8.02 4.22 2.66 4.23 1.01 4.22 2.49 8.44 4.94 4.23 1.17 16.88 6.63 4.23 1.44 8.44 1.79 4.22.41 12.67.91v-.44l-21.11-2.03-4.22-1.08-16.89-6.37-4.22-1.8-4.23-1.16-4.22-2.17-8.44-5.42-4.23-.99-4.22-2.69-4.22-3.89-8.44-9.5-4.23-5.8-8.44-9.28-4.22-7.03-4.23-4.49-4.22-2.06-4.22-4.71-4.22-6.13-4.22 3.69-4.23 4.75-4.22 2.67-4.22-.26-4.22-1.35-4.23 3.56-4.22 10.55-4.22 7.16-4.22 1.59-4.22.75-4.23 7.35-4.22 4.41-4.22-.52-4.22 2.07-4.23-3.32-4.22-7.07-8.44-8.3-4.22-3.47-4.23-7.48-4.22-9.5-8.44-22.9-4.23-7.03-12.66-27.81-4.22-13.8-4.23-10.46-4.22-15.33-4.22-20.28-4.22-14.21-4.23-13.03-4.22-7.46-4.22-7.94-4.22-4.29-4.22 18.24-4.23-.75-4.22 1.73-4.22-6.63-4.22 70.25-4.23 30.11-4.22.96-4.22-6.04-4.22 8.39-4.22 14.1-8.45 24.3-4.22 5.41-8.45 7.14-4.22.02-4.22-1.24-4.22 1.47-4.22-5.01-4.23-1.29-4.22-6.81-4.22-.04-8.45-7.21-4.22-.27-4.22-4.64-4.22-3-4.22 3.58-4.23 1.69-4.22-4.04-4.22 3.88-4.22 8.52-4.23-3.08-4.22 6.87-4.22 4.28-4.22 5.34-4.22 18.17-4.23 10.78-4.22 6.21-4.22 10.56-4.22 3.63-4.23 3.06-4.22 1.78-8.44 3.39-4.22.99-16.89 4.31-4.23-1.89-4.22 2.76-4.22-.21-4.22 1.17-4.22.29-21.12 3.57-4.22.28L58.06 266l-4.23.24-25.33 1" class="js-line" style="vector-effect:non-scaling-stroke;fill:none;stroke:#000;stroke-opacity:0;stroke-width:1.88976px;opacity:1"/></g><g class="trace scatter trace886bfd" style="stroke-miterlimit:2;opacity:1"><path d="m28.5 267.38 16.89-.47 4.22-.21 25.33-1.66 4.23-.67 29.55-2.73 4.22-1.73 4.23 1.48 4.22-.94 12.67-1.14 4.22-.5 8.44-1.64 4.22-1.08 8.45-3.38 4.22-5.79 4.22-3.64 4.23-5.55 4.22-10.07 4.22-2.51 8.44-5.3 4.23 2.67 4.22-2.3 4.22-.79 4.22 2.28 4.23.06 4.22-2.38 4.22 1.15 4.22 2.21 4.22-.55 8.45 1.6 4.22-1.31 4.22 1.89 4.23-.61 4.22 1.37 4.22-2.39 4.22-1.15 4.22-2.18 4.23-5.2 4.22-3.47 4.22-6.86 4.22-13.11 8.45-25.16 4.22-8.56 4.22 4.9 4.22-2.07 4.23-28.25 4.22-66.05 4.22 11.66 4.22 7.17 4.23 12.14 4.22-2.45 4.22 13.51 4.22 10.38 8.45 19.48 4.22 8.07 4.22 9.88 4.22 5.24 4.23 5.8 4.22 8.19 4.22 6.42 4.22 8.23 4.22 6.21 4.23 4.49 8.44 17.94 4.22 6.23 4.23 5.01 4.22 1.69 8.44 4.94 4.22 3.6 4.23 1.55 4.22-2.97 4.22-.82 4.22-4.93 4.23-7.81 4.22-1.02 4.22-2 4.22-7.46 4.22-10.73 4.23-3.58 4.22.95h4.22l4.22-2.71 4.23-5.01 4.22-3.81 4.22 5.93 4.22 4.75 4.22 2.05 4.23 4.27 4.22 6.92 12.67 14.59 4.22 5.2 8.44 7.98 4.22 2.68 4.23.99 4.22 2.49 8.44 4.91 4.23 1.17 21.11 7.98 4.22 1.11 12.67 1.66 4.22.13 4.22.43-21.11-2.52-4.22-1.09-16.89-6.28-4.22-1.79-4.23-1.17-4.22-2.1-8.44-5.33-4.23-1.01-4.22-2.66-4.22-3.78-8.44-9.47-4.23-5.7-8.44-9.06-4.22-6.91-4.23-4.39-4.22-2.08-4.22-4.74-4.22-5.94-4.22 3.79-4.23 4.9-4.22 2.76-4.22-.1-4.22-1.04-4.23 3.64-4.22 10.59-4.22 7.46-4.22 1.97-4.22 1-4.23 7.75-4.22 4.94-4.22.66-4.22 2.88-4.23-1.69-4.22-4.03-4.22-3.04-4.22-2.09-4.22-2.09-4.23-5.3-4.22-6.67-4.22-9.76-4.22-9.28-4.23-4.81-4.22-6.57-4.22-9.05-4.22-6.87-4.22-8.39-8.45-12.51-4.22-10.46-8.45-18.59-4.22-10.59-4.22-10.96-4.22-14.1-4.22 1.85-4.23-13.22-4.22-8.33-4.22-13.46-4.22 65.99-4.23 28.84-4.22.74-4.22-6.67-4.22 8.24-4.22 14.01-8.45 24.1-4.22 5.36-8.45 7h-4.22l-4.22-1.23-4.22 1.42-4.22-5.06-4.23-1.35-4.22-6.8-4.22-.05-8.45-7.29-4.22-.24-4.22-4.69-4.22-2.95-4.22 3.58-4.23 1.63-4.22-4.01-4.22 3.86-4.22 8.51-4.23-3.05-4.22 6.86-4.22 4.28-4.22 5.36-4.22 18.12-4.23 10.75-4.22 6.2-4.22 10.57-4.22 3.62-4.23 3.06-4.22 1.77-8.44 3.39-4.22.99-16.89 4.31-4.23-1.89-4.22 2.74-4.22-.2-4.22 1.18-4.22.28-25.34 3.86-4.22.59-8.44.81-4.23.23-25.33 1.13Z" class="js-fill js-tozero" style="fill:#21908c;fill-opacity:1;stroke-width:0"/><path d="m28.5 267.38 16.89-.47 4.22-.21 25.33-1.66 4.23-.67 29.55-2.73 4.22-1.73 4.23 1.48 4.22-.94 12.67-1.14 4.22-.5 8.44-1.64 4.22-1.08 8.45-3.38 4.22-5.79 4.22-3.64 4.23-5.55 4.22-10.07 4.22-2.51 8.44-5.3 4.23 2.67 4.22-2.3 4.22-.79 4.22 2.28 4.23.06 4.22-2.38 4.22 1.15 4.22 2.21 4.22-.55 8.45 1.6 4.22-1.31 4.22 1.89 4.23-.61 4.22 1.37 4.22-2.39 4.22-1.15 4.22-2.18 4.23-5.2 4.22-3.47 4.22-6.86 4.22-13.11 8.45-25.16 4.22-8.56 4.22 4.9 4.22-2.07 4.23-28.25 4.22-66.05 4.22 11.66 4.22 7.17 4.23 12.14 4.22-2.45 4.22 13.51 4.22 10.38 8.45 19.48 4.22 8.07 4.22 9.88 4.22 5.24 4.23 5.8 4.22 8.19 4.22 6.42 4.22 8.23 4.22 6.21 4.23 4.49 8.44 17.94 4.22 6.23 4.23 5.01 4.22 1.69 8.44 4.94 4.22 3.6 4.23 1.55 4.22-2.97 4.22-.82 4.22-4.93 4.23-7.81 4.22-1.02 4.22-2 4.22-7.46 4.22-10.73 4.23-3.58 4.22.95h4.22l4.22-2.71 4.23-5.01 4.22-3.81 4.22 5.93 4.22 4.75 4.22 2.05 4.23 4.27 4.22 6.92 12.67 14.59 4.22 5.2 8.44 7.98 4.22 2.68 4.23.99 4.22 2.49 8.44 4.91 4.23 1.17 21.11 7.98 4.22 1.11 12.67 1.66 4.22.13 4.22.43-21.11-2.52-4.22-1.09-16.89-6.28-4.22-1.79-4.23-1.17-4.22-2.1-8.44-5.33-4.23-1.01-4.22-2.66-4.22-3.78-8.44-9.47-4.23-5.7-8.44-9.06-4.22-6.91-4.23-4.39-4.22-2.08-4.22-4.74-4.22-5.94-4.22 3.79-4.23 4.9-4.22 2.76-4.22-.1-4.22-1.04-4.23 3.64-4.22 10.59-4.22 7.46-4.22 1.97-4.22 1-4.23 7.75-4.22 4.94-4.22.66-4.22 2.88-4.23-1.69-4.22-4.03-4.22-3.04-4.22-2.09-4.22-2.09-4.23-5.3-4.22-6.67-4.22-9.76-4.22-9.28-4.23-4.81-4.22-6.57-4.22-9.05-4.22-6.87-4.22-8.39-8.45-12.51-4.22-10.46-8.45-18.59-4.22-10.59-4.22-10.96-4.22-14.1-4.22 1.85-4.23-13.22-4.22-8.33-4.22-13.46-4.22 65.99-4.23 28.84-4.22.74-4.22-6.67-4.22 8.24-4.22 14.01-8.45 24.1-4.22 5.36-8.45 7h-4.22l-4.22-1.23-4.22 1.42-4.22-5.06-4.23-1.35-4.22-6.8-4.22-.05-8.45-7.29-4.22-.24-4.22-4.69-4.22-2.95-4.22 3.58-4.23 1.63-4.22-4.01-4.22 3.86-4.22 8.51-4.23-3.05-4.22 6.86-4.22 4.28-4.22 5.36-4.22 18.12-4.23 10.75-4.22 6.2-4.22 10.57-4.22 3.62-4.23 3.06-4.22 1.77-8.44 3.39-4.22.99-16.89 4.31-4.23-1.89-4.22 2.74-4.22-.2-4.22 1.18-4.22.28-25.34 3.86-4.22.59-8.44.81-4.23.23-25.33 1.13" class="js-line" style="vector-effect:non-scaling-stroke;fill:none;stroke:#000;stroke-opacity:0;stroke-width:1.88976px;opacity:1"/></g><g class="trace scatter traceedfbeb" style="stroke-miterlimit:2;opacity:1"><path d="m28.5 268.18 139.33-1.03 4.23-.08 25.33-2.5 4.22-1.14 8.45-1.87 4.22-2.75 8.44-2.09 4.22-2.53 12.67-6.53 4.22-.97 4.23-2.23 4.22-.82 12.66-8.76 4.23-6.19 4.22-4.25 4.22-7.38 12.67-38.79 4.22-8.83 4.22 3.5 4.22-2.56 4.23-27.56 4.22-65.88 4.22 10.81 4.22 6.41 4.23 11.32 4.22-2.59 4.22 12.9 4.22 9.94 8.45 18.82 4.22 7.67 4.22 9.55 4.22 4.91 4.23 5.32 4.22 7.8 4.22 6.15 4.22 7.89 4.22 5.9 4.23 4.18 8.44 17.12 4.22 5.86 4.23 4.66 4.22 1.67 8.44 4.41 4.22 3.35 4.23 1.41 4.22-2.96 4.22-.92 4.22-5.08 4.23-7.74 4.22-1.12 4.22-2.05 4.22-7.42 4.22-10.75 4.23-3.61 4.22.92 4.22.02 4.22-2.78 4.23-5.06 4.22-3.75 4.22 5.88 4.22 4.85 4.22 2.06 4.23 4.15 4.22 7 12.67 14.6 4.22 5.28 8.44 7.89 4.22 2.69 4.23 1.05 4.22 2.49 8.44 4.78 4.23 1.26 16.88 6.6 4.23 1.35 12.66 2.19 4.23.46 8.44.58v-.95l-21.11-2.22-4.22-1.11-16.89-6.26-4.22-1.72-4.23-1.17-4.22-2.14-8.44-5.26-4.23-.99-4.22-2.68-4.22-3.78-8.44-9.4-4.23-5.61-8.44-8.98-4.22-6.92-4.23-4.27-4.22-2.05-4.22-4.75-4.22-5.93-4.22 3.81-4.23 5.01-4.22 2.71h-4.22l-4.22-.95-4.23 3.58-4.22 10.73-4.22 7.46-4.22 2-4.22 1.02-4.23 7.81-4.22 4.93-4.22.82-4.22 2.97-4.23-1.55-4.22-3.6-8.44-4.94-4.22-1.69-4.23-5.01-4.22-6.23-8.44-17.94-4.23-4.49-4.22-6.21-4.22-8.23-4.22-6.42-4.22-8.19-8.45-11.04-4.22-9.88-8.45-17.42-4.22-10.13-4.22-10.38-4.22-13.51-4.22 2.45-4.23-12.14-4.22-7.17-4.22-11.66-4.22 66.05-4.23 28.25-4.22 2.07-4.22-4.9-4.22 8.56-4.22 13.41-8.45 24.86-4.22 6.86-4.22 3.47-4.23 5.2-4.22 2.18-4.22 1.15-4.22 2.39-4.22-1.37-4.23.61-4.22-1.89-4.22 1.31-4.22-.88-4.23-.72-4.22.55-4.22-2.21-4.22-1.15-4.22 2.38-4.23-.06-4.22-2.28-4.22.79-4.22 2.3-4.23-2.67-12.66 7.81-4.22 10.07-4.23 5.55-4.22 3.64-4.22 5.79-4.22 1.67-8.45 2.79-4.22 1.11-25.33 3.11-4.23-1.48-4.22 1.73-4.22-.23-4.22.93-4.22.15-38 3.88-4.23.17-25.33.84v.8Z" class="js-fill js-tozero" style="fill:#27ad81;fill-opacity:1;stroke-width:0"/><path d="m28.5 268.18 139.33-1.03 4.23-.08 25.33-2.5 4.22-1.14 8.45-1.87 4.22-2.75 8.44-2.09 4.22-2.53 12.67-6.53 4.22-.97 4.23-2.23 4.22-.82 12.66-8.76 4.23-6.19 4.22-4.25 4.22-7.38 12.67-38.79 4.22-8.83 4.22 3.5 4.22-2.56 4.23-27.56 4.22-65.88 4.22 10.81 4.22 6.41 4.23 11.32 4.22-2.59 4.22 12.9 4.22 9.94 8.45 18.82 4.22 7.67 4.22 9.55 4.22 4.91 4.23 5.32 4.22 7.8 4.22 6.15 4.22 7.89 4.22 5.9 4.23 4.18 8.44 17.12 4.22 5.86 4.23 4.66 4.22 1.67 8.44 4.41 4.22 3.35 4.23 1.41 4.22-2.96 4.22-.92 4.22-5.08 4.23-7.74 4.22-1.12 4.22-2.05 4.22-7.42 4.22-10.75 4.23-3.61 4.22.92 4.22.02 4.22-2.78 4.23-5.06 4.22-3.75 4.22 5.88 4.22 4.85 4.22 2.06 4.23 4.15 4.22 7 12.67 14.6 4.22 5.28 8.44 7.89 4.22 2.69 4.23 1.05 4.22 2.49 8.44 4.78 4.23 1.26 16.88 6.6 4.23 1.35 12.66 2.19 4.23.46 8.44.58v-.95l-21.11-2.22-4.22-1.11-16.89-6.26-4.22-1.72-4.23-1.17-4.22-2.14-8.44-5.26-4.23-.99-4.22-2.68-4.22-3.78-8.44-9.4-4.23-5.61-8.44-8.98-4.22-6.92-4.23-4.27-4.22-2.05-4.22-4.75-4.22-5.93-4.22 3.81-4.23 5.01-4.22 2.71h-4.22l-4.22-.95-4.23 3.58-4.22 10.73-4.22 7.46-4.22 2-4.22 1.02-4.23 7.81-4.22 4.93-4.22.82-4.22 2.97-4.23-1.55-4.22-3.6-8.44-4.94-4.22-1.69-4.23-5.01-4.22-6.23-8.44-17.94-4.23-4.49-4.22-6.21-4.22-8.23-4.22-6.42-4.22-8.19-8.45-11.04-4.22-9.88-8.45-17.42-4.22-10.13-4.22-10.38-4.22-13.51-4.22 2.45-4.23-12.14-4.22-7.17-4.22-11.66-4.22 66.05-4.23 28.25-4.22 2.07-4.22-4.9-4.22 8.56-4.22 13.41-8.45 24.86-4.22 6.86-4.22 3.47-4.23 5.2-4.22 2.18-4.22 1.15-4.22 2.39-4.22-1.37-4.23.61-4.22-1.89-4.22 1.31-4.22-.88-4.23-.72-4.22.55-4.22-2.21-4.22-1.15-4.22 2.38-4.23-.06-4.22-2.28-4.22.79-4.22 2.3-4.23-2.67-12.66 7.81-4.22 10.07-4.23 5.55-4.22 3.64-4.22 5.79-4.22 1.67-8.45 2.79-4.22 1.11-25.33 3.11-4.23-1.48-4.22 1.73-4.22-.23-4.22.93-4.22.15-38 3.88-4.23.17-25.33.84v.8" class="js-line" style="vector-effect:non-scaling-stroke;fill:none;stroke:#000;stroke-opacity:0;stroke-width:1.88976px;opacity:1"/></g><g class="trace scatter trace9b99a9" style="stroke-miterlimit:2;opacity:1"><path d="m28.5 268.19 139.33-1.01 4.23-.06 25.33-2.5 4.22-1.13 8.45-1.86 4.22-2.77 8.44-2.09 4.22-2.53 12.67-6.54 4.22-.96 4.23-2.22 4.22-.82 12.66-8.77 4.23-6.15 4.22-4.28 4.22-7.35 12.67-38.72 4.22-8.84 4.22 3.51 4.22-2.56 4.23-27.41 4.22-65.65 4.22 10.88 4.22 6.31 4.23 11.32 4.22-2.51 4.22 12.88 4.22 10 8.45 18.68 4.22 7.69 4.22 9.64 4.22 4.98 4.23 5.31 4.22 7.85 4.22 6.29 4.22 8.14 4.22 6.22 4.23 4.24 8.44 17.75 4.22 5.97 4.23 4.77 4.22 2.49 12.66 12.45 4.23 2.7 8.44 3.33 4.22 1.8 16.89 1.31 4.22.13 8.45.78 4.22.74 67.56 5.78 4.22.22 38 1.4 4.22.05 16.89.19v-2l-21.11-2.28-4.22-.95-16.89-6.1-4.22-1.85-8.45-3.28-4.22-2.76-4.22-2.49-4.23-1.05-4.22-2.69-4.22-3.81-4.22-4.08-4.22-5.28-4.23-5.6-4.22-4.26-4.22-4.74-4.22-7-4.23-4.15-4.22-2.06-8.44-10.73-4.22 3.75-4.23 5.06-4.22 2.78-4.22-.02-4.22-.92-4.23 3.61-4.22 10.75-4.22 7.42-4.22 2.05-4.22 1.12-4.23 7.74-4.22 5.08-4.22.92-4.22 2.96-4.23-1.41-8.44-5.82-4.22-1.94-4.22-1.67-4.23-4.66-4.22-5.86-4.22-8.94-4.22-8.18-4.23-4.18-4.22-5.9-4.22-7.89-4.22-6.15-4.22-7.8-8.45-10.23-4.22-9.55-8.45-16.58-4.22-9.91-4.22-9.94-4.22-12.9-4.22 2.59-4.23-11.32-4.22-6.41-4.22-10.81-4.22 65.88-4.23 27.56-4.22 2.56-4.22-3.5-4.22 8.83-4.22 13.26-8.45 25.53-4.22 7.38-4.22 4.25-4.23 6.19-12.66 8.76-4.22.82-4.23 2.23-4.22.97-4.22 2.65-4.22 1.59-8.45 4.82-4.22.68-4.22 1.41-4.22 2.75-12.67 3.01-4.22.54-25.34 2.04-4.22.16-12.67.47-4.22.05-118.22.36Z" class="js-fill js-tozero" style="fill:#5dc863;fill-opacity:1;stroke-width:0"/><path d="m28.5 268.19 139.33-1.01 4.23-.06 25.33-2.5 4.22-1.13 8.45-1.86 4.22-2.77 8.44-2.09 4.22-2.53 12.67-6.54 4.22-.96 4.23-2.22 4.22-.82 12.66-8.77 4.23-6.15 4.22-4.28 4.22-7.35 12.67-38.72 4.22-8.84 4.22 3.51 4.22-2.56 4.23-27.41 4.22-65.65 4.22 10.88 4.22 6.31 4.23 11.32 4.22-2.51 4.22 12.88 4.22 10 8.45 18.68 4.22 7.69 4.22 9.64 4.22 4.98 4.23 5.31 4.22 7.85 4.22 6.29 4.22 8.14 4.22 6.22 4.23 4.24 8.44 17.75 4.22 5.97 4.23 4.77 4.22 2.49 12.66 12.45 4.23 2.7 8.44 3.33 4.22 1.8 16.89 1.31 4.22.13 8.45.78 4.22.74 67.56 5.78 4.22.22 38 1.4 4.22.05 16.89.19v-2l-21.11-2.28-4.22-.95-16.89-6.1-4.22-1.85-8.45-3.28-4.22-2.76-4.22-2.49-4.23-1.05-4.22-2.69-4.22-3.81-4.22-4.08-4.22-5.28-4.23-5.6-4.22-4.26-4.22-4.74-4.22-7-4.23-4.15-4.22-2.06-8.44-10.73-4.22 3.75-4.23 5.06-4.22 2.78-4.22-.02-4.22-.92-4.23 3.61-4.22 10.75-4.22 7.42-4.22 2.05-4.22 1.12-4.23 7.74-4.22 5.08-4.22.92-4.22 2.96-4.23-1.41-8.44-5.82-4.22-1.94-4.22-1.67-4.23-4.66-4.22-5.86-4.22-8.94-4.22-8.18-4.23-4.18-4.22-5.9-4.22-7.89-4.22-6.15-4.22-7.8-8.45-10.23-4.22-9.55-8.45-16.58-4.22-9.91-4.22-9.94-4.22-12.9-4.22 2.59-4.23-11.32-4.22-6.41-4.22-10.81-4.22 65.88-4.23 27.56-4.22 2.56-4.22-3.5-4.22 8.83-4.22 13.26-8.45 25.53-4.22 7.38-4.22 4.25-4.23 6.19-12.66 8.76-4.22.82-4.23 2.23-4.22.97-4.22 2.65-4.22 1.59-8.45 4.82-4.22.68-4.22 1.41-4.22 2.75-12.67 3.01-4.22.54-25.34 2.04-4.22.16-12.67.47-4.22.05-118.22.36" class="js-line" style="vector-effect:non-scaling-stroke;fill:none;stroke:#000;stroke-opacity:0;stroke-width:1.88976px;opacity:1"/></g><g class="trace scatter trace50152c" style="stroke-miterlimit:2;opacity:1"><path d="m28.5 268.23 139.33-.75 4.23-.08 25.33-2.33 4.22-1.12 8.45-1.79 4.22-2.72 4.22-1.44 4.22-.63 8.45-4.73 4.22-1.63 4.22-2.68 4.22-.91 4.23-1.93 4.22-.8 8.44-5.37 4.22-1.31 4.23-3.69 4.22-.91 4.22-2.72 4.22-3.73 4.23-5.36 4.22-3.23 4.22-.21 4.22 3.48 4.22 1.3 4.23-13.21 4.22-6.29 4.22 6.49 4.22-.25 4.23-2.05 4.22-10.71 4.22 4.22 8.44 5 4.23 3.7 4.22 3.63 4.22 5.13 4.22 1.7 4.23 3.42 12.66 10.97 4.22 1.49 4.23-.92 4.22 3.21 4.22 4.34 4.22 2.99 4.23 2.45 4.22 1.08 8.44 4.41 4.22 2.35 4.23 1.43 4.22.55 8.44 2.55 4.23.14 8.44.33 4.22.43 12.67.49 4.22.56 29.56 1.34 4.22.59 25.33 1.57 4.22.22 46.45 1.33 4.22.07 16.89.1-21.11-.77-4.22-.2-54.89-2.33-4.22-.55-12.67-1.44-4.22-.62-29.56-2.26-4.22-.74-8.45-.78-4.22-.13-16.89-1.31-4.22-1.8-12.67-6.03-4.22-4.42-8.44-8.03-4.22-2.49-4.23-4.77-4.22-5.97-8.44-17.75-4.23-4.24-4.22-6.22-4.22-8.14-4.22-6.29-4.22-7.85-8.45-10.29-4.22-9.64-8.45-16.56-4.22-9.81-4.22-10-4.22-12.88-4.22 2.51-4.23-11.32-4.22-6.31-4.22-10.88-4.22 65.65-4.23 27.41-4.22 2.56-4.22-3.51-4.22 8.84-4.22 13.2-8.45 25.52-4.22 7.35-4.22 4.28-4.23 6.15-12.66 8.77-4.22.82-4.23 2.22-4.22.96-4.22 2.67-4.22 1.57-8.45 4.83-4.22.67-4.22 1.42-4.22 2.77-12.67 2.99-4.22.54-25.34 2.02-4.22.17-16.89.5-4.22.02-109.78.31-4.22.01Z" class="js-fill js-tozero" style="fill:#aadc32;fill-opacity:1;stroke-width:0"/><path d="m28.5 268.23 139.33-.75 4.23-.08 25.33-2.33 4.22-1.12 8.45-1.79 4.22-2.72 4.22-1.44 4.22-.63 8.45-4.73 4.22-1.63 4.22-2.68 4.22-.91 4.23-1.93 4.22-.8 8.44-5.37 4.22-1.31 4.23-3.69 4.22-.91 4.22-2.72 4.22-3.73 4.23-5.36 4.22-3.23 4.22-.21 4.22 3.48 4.22 1.3 4.23-13.21 4.22-6.29 4.22 6.49 4.22-.25 4.23-2.05 4.22-10.71 4.22 4.22 8.44 5 4.23 3.7 4.22 3.63 4.22 5.13 4.22 1.7 4.23 3.42 12.66 10.97 4.22 1.49 4.23-.92 4.22 3.21 4.22 4.34 4.22 2.99 4.23 2.45 4.22 1.08 8.44 4.41 4.22 2.35 4.23 1.43 4.22.55 8.44 2.55 4.23.14 8.44.33 4.22.43 12.67.49 4.22.56 29.56 1.34 4.22.59 25.33 1.57 4.22.22 46.45 1.33 4.22.07 16.89.1-21.11-.77-4.22-.2-54.89-2.33-4.22-.55-12.67-1.44-4.22-.62-29.56-2.26-4.22-.74-8.45-.78-4.22-.13-16.89-1.31-4.22-1.8-12.67-6.03-4.22-4.42-8.44-8.03-4.22-2.49-4.23-4.77-4.22-5.97-8.44-17.75-4.23-4.24-4.22-6.22-4.22-8.14-4.22-6.29-4.22-7.85-8.45-10.29-4.22-9.64-8.45-16.56-4.22-9.81-4.22-10-4.22-12.88-4.22 2.51-4.23-11.32-4.22-6.31-4.22-10.88-4.22 65.65-4.23 27.41-4.22 2.56-4.22-3.51-4.22 8.84-4.22 13.2-8.45 25.52-4.22 7.35-4.22 4.28-4.23 6.15-12.66 8.77-4.22.82-4.23 2.22-4.22.96-4.22 2.67-4.22 1.57-8.45 4.83-4.22.67-4.22 1.42-4.22 2.77-12.67 2.99-4.22.54-25.34 2.02-4.22.17-16.89.5-4.22.02-109.78.31-4.22.01" class="js-line" style="vector-effect:non-scaling-stroke;fill:none;stroke:#000;stroke-opacity:0;stroke-width:1.88976px;opacity:1"/></g><g class="trace scatter traced971ca" style="stroke-miterlimit:2;opacity:1"><path d="M45.39 268.23H598.5l-25.33-.72-4.23-.08-59.11-2.19-4.22-.37-21.11-1.44-4.22-.15-21.11-1.58-4.23-.15-16.88-.79-4.23-.14-8.44-2.55-4.22-.55-4.23-1.43-4.22-2.35-8.44-4.41-4.22-1.08-8.45-5.44-4.22-4.34-4.22-3.21-4.23.92-4.22-1.49-4.22-2.94-12.67-11.45-4.22-1.7-4.22-5.13-4.22-3.63-4.23-3.7-4.22-2.37-4.22-2.63-4.22-4.22-4.22 10.71-4.23 2.05-4.22.25-4.22-6.49-4.22 6.29-4.23 13.21-4.22-1.3-4.22-3.48-4.22.21-4.22 3.23-4.23 5.36-4.22 3.73-4.22 2.72-4.22.91-4.23 3.69-4.22 1.31-8.44 5.37-4.22.8-4.23 1.93-4.22.91-4.22 2.68-4.22 1.63-8.45 4.73-4.22.63-4.22 1.44-4.22 2.72-12.67 2.91-4.22.45-21.11 1.88-4.23.08-46.44.64-4.22.02-71.78.08v.01Z" class="js-fill js-tozero" style="fill:#fde725;fill-opacity:1;stroke-width:0"/><path d="M45.39 268.23H598.5l-25.33-.72-4.23-.08-59.11-2.19-4.22-.37-21.11-1.44-4.22-.15-21.11-1.58-4.23-.15-16.88-.79-4.23-.14-8.44-2.55-4.22-.55-4.23-1.43-4.22-2.35-8.44-4.41-4.22-1.08-8.45-5.44-4.22-4.34-4.22-3.21-4.23.92-4.22-1.49-4.22-2.94-12.67-11.45-4.22-1.7-4.22-5.13-4.22-3.63-4.23-3.7-4.22-2.37-4.22-2.63-4.22-4.22-4.22 10.71-4.23 2.05-4.22.25-4.22-6.49-4.22 6.29-4.23 13.21-4.22-1.3-4.22-3.48-4.22.21-4.22 3.23-4.23 5.36-4.22 3.73-4.22 2.72-4.22.91-4.23 3.69-4.22 1.31-8.44 5.37-4.22.8-4.23 1.93-4.22.91-4.22 2.68-4.22 1.63-8.45 4.73-4.22.63-4.22 1.44-4.22 2.72-12.67 2.91-4.22.45-21.11 1.88-4.23.08-46.44.64-4.22.02-71.78.08v.01" class="js-line" style="vector-effect:non-scaling-stroke;fill:none;stroke:#000;stroke-opacity:0;stroke-width:1.88976px;opacity:1"/></g></g></g><path d="M-1 281.5h628" class="xlines-above crisp" style="fill:none;stroke-width:1px;stroke:#000;stroke-opacity:0" transform="translate(101 104)"/><path d="M-.5 0v281" class="ylines-above crisp" style="fill:none;stroke-width:1px;stroke:#000;stroke-opacity:0" transform="translate(101 104)"/><g class="xaxislayer-above"><text y="297.276" class="xtick" data-math="N" data-unformatted="1880" style="font-family:&quot;Arial Narrow&quot;;font-size:15.276px;fill:#4d4d4d;fill-opacity:1;white-space:pre" text-anchor="middle" transform="translate(129.5 104)">1880</text><text y="297.276" class="xtick" data-math="N" data-unformatted="1920" style="font-family:&quot;Arial Narrow&quot;;font-size:15.276px;fill:#4d4d4d;fill-opacity:1;white-space:pre" text-anchor="middle" transform="translate(298.39 104)">1920</text><text y="297.276" class="xtick" data-math="N" data-unformatted="1960" style="font-family:&quot;Arial Narrow&quot;;font-size:15.276px;fill:#4d4d4d;fill-opacity:1;white-space:pre" text-anchor="middle" transform="translate(467.28 104)">1960</text><text y="297.276" class="xtick" data-math="N" data-unformatted="2000" style="font-family:&quot;Arial Narrow&quot;;font-size:15.276px;fill:#4d4d4d;fill-opacity:1;white-space:pre" text-anchor="middle" transform="translate(636.17 104)">2000</text></g><g class="yaxislayer-above"><text x="-1" y="5.347" class="ytick" data-math="N" data-unformatted="0" style="font-family:&quot;Arial Narrow&quot;;font-size:15.276px;fill:#4d4d4d;fill-opacity:1;white-space:pre" text-anchor="end" transform="translate(101 372.23)">0</text><text x="-1" y="5.347" class="ytick" data-math="N" data-unformatted="50000" style="font-family:&quot;Arial Narrow&quot;;font-size:15.276px;fill:#4d4d4d;fill-opacity:1;white-space:pre" text-anchor="end" transform="translate(101 309.05)">50000</text><text x="-1" y="5.347" class="ytick" data-math="N" data-unformatted="100000" style="font-family:&quot;Arial Narrow&quot;;font-size:15.276px;fill:#4d4d4d;fill-opacity:1;white-space:pre" text-anchor="end" transform="translate(101 245.87)">100000</text><text x="-1" y="5.347" class="ytick" data-math="N" data-unformatted="150000" style="font-family:&quot;Arial Narrow&quot;;font-size:15.276px;fill:#4d4d4d;fill-opacity:1;white-space:pre" text-anchor="end" transform="translate(101 182.69)">150000</text><text x="-1" y="5.347" class="ytick" data-math="N" data-unformatted="200000" style="font-family:&quot;Arial Narrow&quot;;font-size:15.276px;fill:#4d4d4d;fill-opacity:1;white-space:pre" text-anchor="end" transform="translate(101 119.5)">200000</text></g></g></g><g class="layer-above"><path fill="none" d="M101 385h627V104H101Z" class="shapelayer" data-index="0" style="opacity:1;stroke:#000;stroke-opacity:0;fill:#000;fill-opacity:0;stroke-width:0"/></g></svg>