<svg xmlns="http://www.w3.org/2000/svg" width="449" height="249" class="marks" style="background-color:#fff"><g fill="none" stroke-miterlimit="10" aria-roledescription="group mark container" class="mark-group role-frame root"><path fill="transparent" stroke="#ddd" d="M53.5 10.5h323v200h-323Z" aria-hidden="true" class="background"/><g aria-hidden="true" class="mark-group role-axis"><path d="M53.5 10.5Z" aria-hidden="true" class="background" pointer-events="none"/><g stroke="#ddd" class="mark-rule role-axis-grid" pointer-events="none"><path d="M53.5 210.5h323M53.5 170.5h323M53.5 130.5h323M53.5 90.5h323M53.5 50.5h323M53.5 10.5h323"/></g></g><g aria-label="X-axis titled 'age' for a discrete scale with 19 values: 0, 5, 10, 15, 20, ending with 90" aria-roledescription="axis" class="mark-group role-axis" pointer-events="none"><path d="M53.5 210.5Z" aria-hidden="true" class="background"/><g stroke="#888" class="mark-rule role-axis-tick"><path d="M61.5 210.5v5M78.5 210.5v5M95.5 210.5v5M112.5 210.5v5M129.5 210.5v5M146.5 210.5v5M163.5 210.5v5M180.5 210.5v5M197.5 210.5v5M214.5 210.5v5M231.5 210.5v5M248.5 210.5v5M265.5 210.5v5M282.5 210.5v5M299.5 210.5v5M316.5 210.5v5M333.5 210.5v5M350.5 210.5v5M367.5 210.5v5"/></g><g fill="#000" class="mark-text role-axis-label" font-family="sans-serif" font-size="10" text-anchor="end"><text transform="rotate(-90 141 76.5)">0</text><text transform="rotate(-90 149.5 68)">5</text><text transform="rotate(-90 158 59.5)">10</text><text transform="rotate(-90 166.5 51)">15</text><text transform="rotate(-90 175 42.5)">20</text><text transform="rotate(-90 183.5 34)">25</text><text transform="rotate(-90 192 25.5)">30</text><text transform="rotate(-90 200.5 17)">35</text><text transform="rotate(-90 209 8.5)">40</text><text transform="rotate(-90 217.5 0)">45</text><text transform="rotate(-90 226 -8.5)">50</text><text transform="rotate(-90 234.5 -17)">55</text><text transform="rotate(-90 243 -25.5)">60</text><text transform="rotate(-90 251.5 -34)">65</text><text transform="rotate(-90 260 -42.5)">70</text><text transform="rotate(-90 268.5 -51)">75</text><text transform="rotate(-90 277 -59.5)">80</text><text transform="rotate(-90 285.5 -68)">85</text><text transform="rotate(-90 294 -76.5)">90</text></g><path stroke="#888" d="M53.5 210.5h323" class="mark-rule role-axis-domain"/><text fill="#000" class="mark-text role-axis-title" font-family="sans-serif" font-size="11" font-weight="bold" text-anchor="middle" transform="translate(215 241.623)">age</text></g><g aria-label="Y-axis titled 'population' for a linear scale with values from 0% to 100%" aria-roledescription="axis" class="mark-group role-axis" pointer-events="none"><path d="M53.5 10.5Z" aria-hidden="true" class="background"/><g stroke="#888" class="mark-rule role-axis-tick"><path d="M53.5 210.5h-5M53.5 170.5h-5M53.5 130.5h-5M53.5 90.5h-5M53.5 50.5h-5M53.5 10.5h-5"/></g><g fill="#000" class="mark-text role-axis-label" font-family="sans-serif" font-size="10" text-anchor="end"><text transform="translate(46.5 213.5)">0%</text><text transform="translate(46.5 173.5)">20%</text><text transform="translate(46.5 133.5)">40%</text><text transform="translate(46.5 93.5)">60%</text><text transform="translate(46.5 53.5)">80%</text><text transform="translate(46.5 13.5)">100%</text></g><path stroke="#888" d="M53.5 210.5v-200" class="mark-rule role-axis-domain"/><text fill="#000" class="mark-text role-axis-title" font-family="sans-serif" font-size="11" font-weight="bold" text-anchor="middle" transform="rotate(-90 62.712 47.788)">population</text></g><g aria-roledescription="rect mark container" class="mark-rect role-mark marks"><path fill="#ca8861" d="M53.85 107.77h15.3V210h-15.3Z" aria-label="age: 0; population: 51%; gender: Male" aria-roledescription="bar"/><path fill="#675193" d="M53.85 10h15.3v97.77h-15.3Z" aria-label="age: 0; population: 49%; gender: Female" aria-roledescription="bar"/><path fill="#ca8861" d="M70.85 107.66h15.3V210h-15.3Z" aria-label="age: 5; population: 51%; gender: Male" aria-roledescription="bar"/><path fill="#675193" d="M70.85 10h15.3v97.66h-15.3Z" aria-label="age: 5; population: 49%; gender: Female" aria-roledescription="bar"/><path fill="#ca8861" d="M87.85 107.373h15.3V210h-15.3Z" aria-label="age: 10; population: 51%; gender: Male" aria-roledescription="bar"/><path fill="#675193" d="M87.85 10h15.3v97.373h-15.3Z" aria-label="age: 10; population: 49%; gender: Female" aria-roledescription="bar"/><path fill="#ca8861" d="M104.85 107.267h15.3V210h-15.3Z" aria-label="age: 15; population: 51%; gender: Male" aria-roledescription="bar"/><path fill="#675193" d="M104.85 10h15.3v97.267h-15.3Z" aria-label="age: 15; population: 49%; gender: Female" aria-roledescription="bar"/><path fill="#ca8861" d="M121.85 107.864h15.3V210h-15.3Z" aria-label="age: 20; population: 51%; gender: Male" aria-roledescription="bar"/><path fill="#675193" d="M121.85 10h15.3v97.864h-15.3Z" aria-label="age: 20; population: 49%; gender: Female" aria-roledescription="bar"/><path fill="#ca8861" d="M138.85 109.265h15.3V210h-15.3Z" aria-label="age: 25; population: 50%; gender: Male" aria-roledescription="bar"/><path fill="#675193" d="M138.85 10h15.3v99.265h-15.3Z" aria-label="age: 25; population: 50%; gender: Female" aria-roledescription="bar"/><path fill="#ca8861" d="M155.85 109.574h15.3V210h-15.3Z" aria-label="age: 30; population: 50%; gender: Male" aria-roledescription="bar"/><path fill="#675193" d="M155.85 10h15.3v99.574h-15.3Z" aria-label="age: 30; population: 50%; gender: Female" aria-roledescription="bar"/><path fill="#ca8861" d="M172.85 110.694h15.3V210h-15.3Z" aria-label="age: 35; population: 50%; gender: Male" aria-roledescription="bar"/><path fill="#675193" d="M172.85 10h15.3v100.694h-15.3Z" aria-label="age: 35; population: 50%; gender: Female" aria-roledescription="bar"/><path fill="#ca8861" d="M189.85 110.738h15.3V210h-15.3Z" aria-label="age: 40; population: 50%; gender: Male" aria-roledescription="bar"/><path fill="#675193" d="M189.85 10h15.3v100.738h-15.3Z" aria-label="age: 40; population: 50%; gender: Female" aria-roledescription="bar"/><path fill="#ca8861" d="M206.85 111.666h15.3V210h-15.3Z" aria-label="age: 45; population: 49%; gender: Male" aria-roledescription="bar"/><path fill="#675193" d="M206.85 10h15.3v101.666h-15.3Z" aria-label="age: 45; population: 51%; gender: Female" aria-roledescription="bar"/><path fill="#ca8861" d="M223.85 112.315h15.3V210h-15.3Z" aria-label="age: 50; population: 49%; gender: Male" aria-roledescription="bar"/><path fill="#675193" d="M223.85 10h15.3v102.315h-15.3Z" aria-label="age: 50; population: 51%; gender: Female" aria-roledescription="bar"/><path fill="#ca8861" d="M240.85 113.454h15.3V210h-15.3Z" aria-label="age: 55; population: 48%; gender: Male" aria-roledescription="bar"/><path fill="#675193" d="M240.85 10h15.3v103.454h-15.3Z" aria-label="age: 55; population: 52%; gender: Female" aria-roledescription="bar"/><path fill="#ca8861" d="M257.85 115.055h15.3V210h-15.3Z" aria-label="age: 60; population: 47%; gender: Male" aria-roledescription="bar"/><path fill="#675193" d="M257.85 10h15.3v105.055h-15.3Z" aria-label="age: 60; population: 53%; gender: Female" aria-roledescription="bar"/><path fill="#ca8861" d="M274.85 113.793h15.3V210h-15.3Z" aria-label="age: 65; population: 48%; gender: Male" aria-roledescription="bar"/><path fill="#675193" d="M274.85 10h15.3v103.793h-15.3Z" aria-label="age: 65; population: 52%; gender: Female" aria-roledescription="bar"/><path fill="#ca8861" d="M291.85 125.514h15.3V210h-15.3Z" aria-label="age: 70; population: 42%; gender: Male" aria-roledescription="bar"/><path fill="#675193" d="M291.85 10h15.3v115.514h-15.3Z" aria-label="age: 70; population: 58%; gender: Female" aria-roledescription="bar"/><path fill="#ca8861" d="M308.85 129.853h15.3V210h-15.3Z" aria-label="age: 75; population: 40%; gender: Male" aria-roledescription="bar"/><path fill="#675193" d="M308.85 10h15.3v119.853h-15.3Z" aria-label="age: 75; population: 60%; gender: Female" aria-roledescription="bar"/><path fill="#ca8861" d="M325.85 135.744h15.3V210h-15.3Z" aria-label="age: 80; population: 37%; gender: Male" aria-roledescription="bar"/><path fill="#675193" d="M325.85 10h15.3v125.744h-15.3Z" aria-label="age: 80; population: 63%; gender: Female" aria-roledescription="bar"/><path fill="#ca8861" d="M342.85 144.247h15.3V210h-15.3Z" aria-label="age: 85; population: 33%; gender: Male" aria-roledescription="bar"/><path fill="#675193" d="M342.85 10h15.3v134.247h-15.3Z" aria-label="age: 85; population: 67%; gender: Female" aria-roledescription="bar"/><path fill="#ca8861" d="M359.85 161.987h15.3V210h-15.3Z" aria-label="age: 90; population: 24%; gender: Male" aria-roledescription="bar"/><path fill="#675193" d="M359.85 10h15.3v151.987h-15.3Z" aria-label="age: 90; population: 76%; gender: Female" aria-roledescription="bar"/></g><g aria-label="Symbol legend titled 'gender' for fill color with 2 values: Female, Male" aria-roledescription="legend" class="mark-group role-legend"><path d="M394 10h50v40h-50Z" aria-hidden="true" class="background" pointer-events="none"/><g class="mark-group role-legend-entry"><path d="M394 26Z" aria-hidden="true" class="background" pointer-events="none"/><g aria-roledescription="group mark container" class="mark-group role-scope" pointer-events="none"><path d="M394 26h49.345v11H394Z" aria-hidden="true" class="background"/><path fill="#675193" d="M395 27h10v10h-10Z" class="mark-symbol role-legend-symbol"/><text fill="#000" class="mark-text role-legend-label" font-family="sans-serif" font-size="10" transform="translate(410 35)">Female</text><path d="M394 39h49.345v11H394Z" aria-hidden="true" class="background"/><path fill="#ca8861" d="M395 40h10v10h-10Z" class="mark-symbol role-legend-symbol"/><text fill="#000" class="mark-text role-legend-label" font-family="sans-serif" font-size="10" transform="translate(410 48)">Male</text></g></g><text fill="#000" class="mark-text role-legend-title" font-family="sans-serif" font-size="11" font-weight="bold" pointer-events="none" transform="translate(394 19)">gender</text></g></g></svg>