<svg xmlns="http://www.w3.org/2000/svg" class="anychart-ui-support" data-ac-wrapper-id="13" style="display:block"><defs><clipPath id="g" clip-rule="nonzero"><path fill="none" stroke="#000" d="M0 0h505v35.615H0V0Z" data-ac-wrapper-id="51"/></clipPath><clipPath id="f" clip-rule="nonzero"><path fill="none" stroke="#000" d="M61 75h455v470H61V75Z" data-ac-wrapper-id="87"/></clipPath><clipPath id="e" clip-rule="nonzero"><path fill="none" stroke="#000" d="M61 75h455v470H61V75Z" data-ac-wrapper-id="93"/></clipPath><clipPath id="d" clip-rule="nonzero"><path fill="none" stroke="#000" d="M61 75h455v470H61V75Z" data-ac-wrapper-id="99"/></clipPath><clipPath id="c" clip-rule="nonzero"><path fill="none" stroke="#000" d="M61 75h455v470H61V75Z" data-ac-wrapper-id="105"/></clipPath><clipPath id="b" clip-rule="nonzero"><path fill="none" stroke="#000" d="M61 75h455v470H61V75Z" data-ac-wrapper-id="111"/></clipPath><clipPath id="a" clip-rule="nonzero"><path fill="none" stroke="#000" d="M60 75h455v470H60V75Z" data-ac-wrapper-id="117"/></clipPath></defs><g data-ac-wrapper-id="14"><g aria-label="area chart entitled Unaudited Apple Inc. Revenue by Operating Segments, with 5 area series, . Y-scale minimum value is 0 , maximum value is 90. X-scale with 8 categories: Q2 2014, Q3 2014, Q4 2014, Q1 2015, Q2 2015, Q3 2015, Q4 2015, Q1 2016, ." data-ac-wrapper-id="24"><g data-ac-wrapper-id="25"><path fill="#fff" d="M0 0h535v589H0V0Z" data-ac-wrapper-id="26"/></g><g clip-path="url(&quot;#b&quot;)" data-ac-wrapper-id="108"><path fill="#64b5f6" fill-opacity=".8" d="M88.438 401v-94.374l56.874 43.418 56.875-25.02 56.875-169.08 56.875 86.115 56.875 43.856 56.875-9.865 56.875-126.894V303l-56.875 87-56.875 2-56.875-38-56.875-38-56.875 113-56.875 13-56.875-41Z" data-ac-wrapper-id="110"/><path fill="none" stroke="#fff" stroke-width="3" d="m88.438 306.626 56.874 43.418 56.875-25.02 56.875-169.08 56.875 86.115 56.875 43.856 56.875-9.865 56.875-126.894" data-ac-wrapper-id="109"/></g><g clip-path="url(&quot;#c&quot;)" data-ac-wrapper-id="102"><path fill="#1976d2" fill-opacity=".8" d="M88.438 458v-57.468l56.874 41.287 56.875-13.656 56.875-112.419 56.875 37.632 56.875 38.075 56.875-1.697 56.875-87.587V396l-56.875 49-56.875 1-56.875-28-56.875-12-56.875 77-56.875 5-56.875-30Z" data-ac-wrapper-id="104"/><path fill="none" stroke="#fff" stroke-width="3" d="m88.438 400.532 56.874 41.287 56.875-13.656 56.875-112.419 56.875 37.632 56.875 38.075 56.875-1.697 56.875-87.587" data-ac-wrapper-id="103"/></g><g clip-path="url(&quot;#d&quot;)" data-ac-wrapper-id="96"><path fill="#ef6c00" fill-opacity=".8" d="M88.438 510v-52.331l56.874 29.37 56.875-4.826 56.875-76.646 56.875 11.54 56.875 28.352 56.875-.47 56.875-49.345V492l-56.875 19-56.875 4-56.875-10-56.875-15-56.875 26-56.875 4-56.875-10Z" data-ac-wrapper-id="98"/><path fill="none" stroke="#fff" stroke-width="3" d="m88.438 457.669 56.874 29.37 56.875-4.826 56.875-76.646 56.875 11.54 56.875 28.352 56.875-.47 56.875-49.345" data-ac-wrapper-id="97"/></g><g clip-path="url(&quot;#e&quot;)" data-ac-wrapper-id="90"><path fill="#ffd54f" fill-opacity=".8" d="M88.438 531v-21.97l56.874 10.543 56.875-4.502 56.875-25.427 56.875 15.317 56.875 9.588 56.875-4.188 56.875-18.628V517l-56.875 14-56.875-1-56.875-6-56.875-6-56.875 16h-56.875l-56.875-3Z" data-ac-wrapper-id="92"/><path fill="none" stroke="#fff" stroke-width="3" d="m88.438 509.03 56.874 10.543 56.875-4.502 56.875-25.427 56.875 15.317 56.875 9.588 56.875-4.188 56.875-18.628" data-ac-wrapper-id="91"/></g><g clip-path="url(&quot;#f&quot;)" data-ac-wrapper-id="84"><path fill="#455a64" fill-opacity=".8" d="M88.438 546v-15.836l56.874 3.128 56.875.553 56.875-16 56.875 5.17 56.875 6.532 56.875 1.332 56.875-14.079V546H88.438Z" data-ac-wrapper-id="86"/><path fill="none" stroke="#fff" stroke-width="3" d="m88.438 530.164 56.874 3.128 56.875.553 56.875-16 56.875 5.17 56.875 6.532 56.875 1.332 56.875-14.079" data-ac-wrapper-id="85"/></g><path fill="none" stroke="#CECECE" d="M60 546.5h456" data-ac-wrapper-id="52"/><path fill="none" stroke="#CECECE" d="M60.5 547v6m56-6v6m57-6v6m57-6v6m57-6v6m57-6v6m57-6v6m57-6v6m57-6v6" data-ac-wrapper-id="53"/><g data-ac-wrapper-id="54"><g data-ac-wrapper-id="55"><text x="61.594" y="569" fill="#7c868e" aria-hidden="true" data-ac-wrapper-id="56" font-family="Verdana, Helvetica, Arial, sans-serif" font-size="12">Q2 2014</text></g><g data-ac-wrapper-id="59"><text x="175.594" y="569" fill="#7c868e" aria-hidden="true" data-ac-wrapper-id="60" font-family="Verdana, Helvetica, Arial, sans-serif" font-size="12">Q4 2014</text></g><g data-ac-wrapper-id="63"><text x="289.594" y="569" fill="#7c868e" aria-hidden="true" data-ac-wrapper-id="64" font-family="Verdana, Helvetica, Arial, sans-serif" font-size="12">Q2 2015</text></g><g data-ac-wrapper-id="69"><text x="460.594" y="569" fill="#7c868e" aria-hidden="true" data-ac-wrapper-id="70" font-family="Verdana, Helvetica, Arial, sans-serif" font-size="12">Q1 2016</text></g></g><path fill="none" stroke="#CECECE" d="M60.5 75v471" data-ac-wrapper-id="71"/><g data-ac-wrapper-id="72"><text x="82.113" y="13" fill="#545f69" aria-hidden="true" data-ac-wrapper-id="73" font-family="Verdana, Helvetica, Arial, sans-serif" font-size="13" style="user-select:none;font-family:Verdana,Helvetica,Arial,sans-serif;opacity:1" text-anchor="middle" transform="rotate(-90 201.057 191.057)"><tspan x="82.113" dy="0">Revenue (in Billons USD)</tspan></text></g><path fill="none" stroke="#CECECE" d="M60 545.5h-6m6-157h-6m6-157h-6m6-156h-6" data-ac-wrapper-id="74"/><g data-ac-wrapper-id="75"><g data-ac-wrapper-id="76"><text x="42.367" y="549.25" fill="#7c868e" aria-hidden="true" data-ac-wrapper-id="77" font-family="Verdana, Helvetica, Arial, sans-serif" font-size="12">0</text></g><g data-ac-wrapper-id="78"><text x="34.742" y="392.25" fill="#7c868e" aria-hidden="true" data-ac-wrapper-id="79" font-family="Verdana, Helvetica, Arial, sans-serif" font-size="12">30</text></g><g data-ac-wrapper-id="80"><text x="34.742" y="236.25" fill="#7c868e" aria-hidden="true" data-ac-wrapper-id="81" font-family="Verdana, Helvetica, Arial, sans-serif" font-size="12">60</text></g><g data-ac-wrapper-id="82"><text x="34.742" y="79.25" fill="#7c868e" aria-hidden="true" data-ac-wrapper-id="83" font-family="Verdana, Helvetica, Arial, sans-serif" font-size="12">90</text></g></g><g data-ac-wrapper-id="27"><text x="219.469" y="16" fill="#7c868e" aria-hidden="true" data-ac-wrapper-id="28" font-family="Verdana, Helvetica, Arial, sans-serif" font-size="16" style="user-select:none;font-family:Verdana,Helvetica,Arial,sans-serif;opacity:1" text-anchor="middle" transform="translate(43.031 10)"><tspan x="219.469" dy="0">Unaudited Apple Inc. Revenue by Operating Segments</tspan></text></g><g clip-path="url(&quot;#f&quot;)" data-ac-wrapper-id="89"><path fill="#333" fill-opacity=".85" stroke="#212121" stroke-width="1.5" d="m486.563 510.8 2.598 4.5 2.598 4.5h-10.393l2.598-4.5 2.599-4.5Z" data-ac-wrapper-id="126"/></g><g clip-path="url(&quot;#e&quot;)" data-ac-wrapper-id="95"><path fill="#333" fill-opacity=".85" stroke="#212121" stroke-width="1.5" d="m486.563 497.733-2.599-4.5-2.598-4.5h10.393l-2.598 4.5-2.599 4.5Z" data-ac-wrapper-id="125"/></g><g clip-path="url(&quot;#d&quot;)" data-ac-wrapper-id="101"><path fill="#333" fill-opacity=".85" stroke="#212121" stroke-width="1.5" d="M480.563 389.644h12v12h-12v-12Z" data-ac-wrapper-id="124"/></g><g clip-path="url(&quot;#c&quot;)" data-ac-wrapper-id="107"><path fill="#333" fill-opacity=".85" stroke="#212121" stroke-width="1.5" d="m492.563 302.167-3 3-3 3-3-3-3-3 3-3 3-3 3 3 3 3Z" data-ac-wrapper-id="123"/></g><g clip-path="url(&quot;#b&quot;)" data-ac-wrapper-id="113"><path fill="#333" fill-opacity=".85" stroke="#212121" stroke-width="1.5" d="M492.563 149.156a6 6 0 0 1-12 0 6 6 0 0 1 12 0" data-ac-wrapper-id="122"/></g><g clip-path="url(&quot;#g&quot;)" data-ac-wrapper-id="29" transform="translate(10 39.5)"><g data-ac-wrapper-id="30"><g data-ac-wrapper-id="31"><text x="20" y="13" fill="#7c868e" aria-hidden="true" data-ac-wrapper-id="32" font-family="Verdana, Helvetica, Arial, sans-serif" font-size="13" style="user-select:none;font-family:Verdana,Helvetica,Arial,sans-serif;opacity:1;cursor:pointer"><tspan x="20" dy="0">Americas</tspan></text><path fill="#64b5f6" fill-opacity=".8" d="M0 0h15v15H0Z" data-ac-wrapper-id="33" style="cursor:pointer" transform="translate(0 .25)"/><path fill="none" d="M0 0h79.75v15.5H0V0Z" data-ac-wrapper-id="34" style="cursor:pointer"/></g><g data-ac-wrapper-id="35"><text x="20" y="13" fill="#7c868e" aria-hidden="true" data-ac-wrapper-id="36" font-family="Verdana, Helvetica, Arial, sans-serif" font-size="13" style="user-select:none;font-family:Verdana,Helvetica,Arial,sans-serif;opacity:1;cursor:pointer" transform="translate(94.75)"><tspan x="20" dy="0">Europe</tspan></text><path fill="#1976d2" fill-opacity=".8" d="M0 0h15v15H0Z" data-ac-wrapper-id="37" style="cursor:pointer" transform="translate(94.75 .308)"/><path fill="none" d="M0 0h65.734v15.615H0V0Z" data-ac-wrapper-id="38" style="cursor:pointer" transform="translate(94.75)"/></g><g data-ac-wrapper-id="39"><text x="20" y="13" fill="#7c868e" aria-hidden="true" data-ac-wrapper-id="40" font-family="Verdana, Helvetica, Arial, sans-serif" font-size="13" style="user-select:none;font-family:Verdana,Helvetica,Arial,sans-serif;opacity:1;cursor:pointer" transform="translate(175.484)"><tspan x="20" dy="0">Greater China</tspan></text><path fill="#ef6c00" fill-opacity=".8" d="M0 0h15v15H0Z" data-ac-wrapper-id="41" style="cursor:pointer" transform="translate(175.484 .25)"/><path fill="none" d="M0 0h111.07v15.5H0V0Z" data-ac-wrapper-id="42" style="cursor:pointer" transform="translate(175.484)"/></g><g data-ac-wrapper-id="43"><text x="20" y="13" fill="#7c868e" aria-hidden="true" data-ac-wrapper-id="44" font-family="Verdana, Helvetica, Arial, sans-serif" font-size="13" style="user-select:none;font-family:Verdana,Helvetica,Arial,sans-serif;opacity:1;cursor:pointer" transform="translate(301.555)"><tspan x="20" dy="0">Japan</tspan></text><path fill="#ffd54f" fill-opacity=".8" d="M0 0h15v15H0Z" data-ac-wrapper-id="45" style="cursor:pointer" transform="translate(301.555 .308)"/><path fill="none" d="M0 0h57.852v15.615H0V0Z" data-ac-wrapper-id="46" style="cursor:pointer" transform="translate(301.555)"/></g></g><text y="12" fill="#545f69" aria-hidden="true" data-ac-wrapper-id="172" font-family="Verdana, Helvetica, Arial, sans-serif" font-size="12" style="user-select:none;font-family:Verdana,Helvetica,Arial,sans-serif;opacity:1" transform="translate(451.352 .558)"><tspan x="0" dy="0">1 / 2</tspan></text><path fill="#e0e0e0" d="M441.352.558v14.5l-14.5-7.25Z" data-ac-wrapper-id="173" style="cursor:pointer"/><path fill="#9e9e9e" stroke="#757575" d="m490.5.558 14.5 7.25-14.5 7.25Z" data-ac-wrapper-id="174" style="cursor:pointer"/></g></g></g></svg>