<svg xmlns="http://www.w3.org/2000/svg" xmlns:xlink="http://www.w3.org/1999/xlink" height="288pt" version="1.1" viewBox="0 0 432 288" width="432pt">
 <defs>
  <style type="text/css">
*{stroke-linecap:butt;stroke-linejoin:round;}
  </style>
 </defs>
 <g id="figure_1">
  <g id="patch_1">
   <path d="M 0 288  L 432 288  L 432 0  L 0 0  z " style="fill:#ffffff;"/>
  </g>
  <g id="axes_1">
   <g id="patch_2">
    <path d="M 54 248.970229  L 388.8 248.970229  L 388.8 37.589771  L 54 37.589771  z " style="fill:#ffffff;"/>
   </g>
   <g id="patch_3">
    <path clip-path="url(#p9943bdaaa1)" d="M 221.4 213.857638  C 210.429677 205.649998 201.5226 194.996504 195.388202 182.745687  C 189.253804 170.49487 186.05939 156.980852 186.05939 143.28  C 186.05939 129.579148 189.253804 116.06513 195.388202 103.814313  C 201.5226 91.563496 210.429677 80.910002 221.4 72.702362  C 208.301145 62.902223 192.729045 56.939519 176.434683 55.484717  C 160.14032 54.029915 143.758208 57.139666 129.13041 64.464299  C 114.502612 71.788932 102.198746 83.04322 93.602301 96.961691  C 85.005855 110.880163 80.451584 126.920822 80.451584 143.28  C 80.451584 159.639178 85.005855 175.679837 93.602301 189.598309  C 102.198746 203.51678 114.502612 214.771068 129.13041 222.095701  C 143.758208 229.420334 160.14032 232.530085 176.434683 231.075283  C 192.729045 229.620481 208.301145 223.657777 221.4 213.857638  " style="fill:#ffffff;stroke:#ffffff;stroke-linejoin:miter;"/>
   </g>
   <g id="patch_4">
    <path clip-path="url(#p9943bdaaa1)" d="M 221.4 72.702362  C 232.370323 80.910002 241.2774 91.563496 247.411798 103.814313  C 253.546196 116.06513 256.74061 129.579148 256.74061 143.28  C 256.74061 156.980852 253.546196 170.49487 247.411798 182.745687  C 241.2774 194.996504 232.370323 205.649998 221.4 213.857638  C 234.498855 223.657777 250.070955 229.620481 266.365317 231.075283  C 282.65968 232.530085 299.041792 229.420334 313.66959 222.095701  C 328.297388 214.771068 340.601254 203.51678 349.197699 189.598309  C 357.794145 175.679837 362.348416 159.639178 362.348416 143.28  C 362.348416 126.920822 357.794145 110.880163 349.197699 96.961691  C 340.601254 83.04322 328.297388 71.788932 313.66959 64.464299  C 299.041792 57.139666 282.65968 54.029915 266.365317 55.484717  C 250.070955 56.939519 234.498855 62.902223 221.4 72.702362  " style="fill:#ffffff;"/>
   </g>
   <g id="patch_5">
    <path clip-path="url(#p9943bdaaa1)" d="M 221.4 213.857638  C 232.370323 205.649998 241.2774 194.996504 247.411798 182.745687  C 253.546196 170.49487 256.74061 156.980852 256.74061 143.28  C 256.74061 129.579148 253.546196 116.06513 247.411798 103.814313  C 241.2774 91.563496 232.370323 80.910002 221.4 72.702362  C 210.429677 80.910002 201.5226 91.563496 195.388202 103.814313  C 189.253804 116.06513 186.05939 129.579148 186.05939 143.28  C 186.05939 156.980852 189.253804 170.49487 195.388202 182.745687  C 201.5226 194.996504 210.429677 205.649998 221.4 213.857638  " style="fill:#ffffff;stroke:#ffffff;stroke-linejoin:miter;"/>
   </g>
   <g id="patch_6">
    <path clip-path="url(#p9943bdaaa1)" d="M 159.690229 228.514647  C 182.294721 228.514647 203.976436 219.533787 219.960226 203.549997  C 235.944016 187.566207 244.924876 165.884493 244.924876 143.28  C 244.924876 120.675507 235.944016 98.993793 219.960226 83.010003  C 203.976436 67.026213 182.294721 58.045353 159.690229 58.045353  C 137.085736 58.045353 115.404021 67.026213 99.420231 83.010003  C 83.436441 98.993793 74.455581 120.675507 74.455581 143.28  C 74.455581 165.884493 83.436441 187.566207 99.420231 203.549997  C 115.404021 219.533787 137.085736 228.514647 159.690229 228.514647  z " style="fill:none;stroke:#000000;stroke-linejoin:miter;stroke-width:2;"/>
   </g>
   <g id="patch_7">
    <path clip-path="url(#p9943bdaaa1)" d="M 283.109771 228.514647  C 305.714264 228.514647 327.395979 219.533787 343.379769 203.549997  C 359.363559 187.566207 368.344419 165.884493 368.344419 143.28  C 368.344419 120.675507 359.363559 98.993793 343.379769 83.010003  C 327.395979 67.026213 305.714264 58.045353 283.109771 58.045353  C 260.505279 58.045353 238.823564 67.026213 222.839774 83.010003  C 206.855984 98.993793 197.875124 120.675507 197.875124 143.28  C 197.875124 165.884493 206.855984 187.566207 222.839774 203.549997  C 238.823564 219.533787 260.505279 228.514647 283.109771 228.514647  z " style="fill:none;stroke:#000000;stroke-linejoin:miter;stroke-width:2;"/>
   </g>
   <g id="matplotlib.axis_1"/>
   <g id="matplotlib.axis_2"/>
   <g id="patch_8">
    <path d="M 54 248.970229  L 54 37.589771  " style="fill:none;stroke:#000000;stroke-linecap:square;stroke-linejoin:miter;stroke-width:0.8;"/>
   </g>
   <g id="patch_9">
    <path d="M 388.8 248.970229  L 388.8 37.589771  " style="fill:none;stroke:#000000;stroke-linecap:square;stroke-linejoin:miter;stroke-width:0.8;"/>
   </g>
   <g id="patch_10">
    <path d="M 54 248.970229  L 388.8 248.970229  " style="fill:none;stroke:#000000;stroke-linecap:square;stroke-linejoin:miter;stroke-width:0.8;"/>
   </g>
   <g id="patch_11">
    <path d="M 54 37.589771  L 388.8 37.589771  " style="fill:none;stroke:#000000;stroke-linecap:square;stroke-linejoin:miter;stroke-width:0.8;"/>
   </g>
   <g id="text_1">
    <!-- $\xi$ -->
    <defs>
     <path d="M 31.5 6.203125  Q 37.9375 6.15625 41.0625 2.484375  Q 44.4375 -1.375 43.3125 -7.234375  Q 42.1875 -12.84375 37.84375 -16.75  Q 33.109375 -21 25.140625 -21  Q 25.875 -17.328125 26.5625 -13.625  Q 29.890625 -13.875 32.375 -11.71875  Q 34.28125 -10.015625 34.625 -8.203125  Q 35.109375 -5.609375 33.984375 -3.46875  Q 32.8125 -1.421875 30.03125 -1.421875  Q -0.390625 -1.421875 3.765625 19.921875  Q 6.59375 34.578125 23.6875 38.875  Q 10.359375 40.625 12.84375 53.328125  Q 14.703125 62.9375 26.21875 66.9375  L 16.0625 66.9375  L 17.828125 75.984375  L 56.34375 75.984375  L 54.59375 66.9375  Q 23.875 66.9375 21.09375 52.734375  Q 19.28125 43.40625 45.015625 42.96875  L 43.40625 34.671875  Q 15.765625 35.75 12.796875 19.921875  Q 10.296875 6.6875 31.5 6.203125  z " id="DejaVuSans-Oblique-958"/>
    </defs>
    <g transform="translate(59.800909 63.503233)scale(0.26 -0.26)">
     <use transform="translate(0 0.015625)" xlink:href="#DejaVuSans-Oblique-958"/>
    </g>
   </g>
   <g id="text_2">
    <!-- $A$ -->
    <defs>
     <path d="M 36.8125 72.90625  L 48 72.90625  L 61.53125 0  L 51.21875 0  L 48.1875 18.703125  L 15.375 18.703125  L 5.078125 0  L -5.328125 0  z M 40.375 63.1875  L 19.921875 26.90625  L 46.6875 26.90625  z " id="DejaVuSans-Oblique-65"/>
    </defs>
    <g transform="translate(88.438722 71.685466)scale(0.28 -0.28)">
     <use transform="translate(0 0.09375)" xlink:href="#DejaVuSans-Oblique-65"/>
    </g>
   </g>
   <g id="text_3">
    <!-- $B$ -->
    <defs>
     <path d="M 16.890625 72.90625  L 42.09375 72.90625  Q 52.34375 72.90625 57.421875 69.09375  Q 62.5 65.28125 62.5 57.625  Q 62.5 50.59375 58.125 45.484375  Q 53.765625 40.375 46.6875 39.3125  Q 52.734375 37.9375 55.765625 34.078125  Q 58.796875 30.21875 58.796875 23.78125  Q 58.796875 12.796875 50.65625 6.390625  Q 42.53125 0 28.421875 0  L 2.6875 0  z M 19.28125 34.8125  L 14.109375 8.109375  L 29.984375 8.109375  Q 38.921875 8.109375 43.75 12.203125  Q 48.578125 16.3125 48.578125 23.78125  Q 48.578125 29.546875 45.375 32.171875  Q 42.1875 34.8125 35.109375 34.8125  z M 25.09375 64.796875  L 20.796875 42.828125  L 35.5 42.828125  Q 43.359375 42.828125 47.78125 46.234375  Q 52.203125 49.65625 52.203125 55.71875  Q 52.203125 60.453125 49.21875 62.625  Q 46.234375 64.796875 39.703125 64.796875  z " id="DejaVuSans-Oblique-66"/>
    </defs>
    <g transform="translate(344.133487 71.685466)scale(0.28 -0.28)">
     <use transform="translate(0 0.09375)" xlink:href="#DejaVuSans-Oblique-66"/>
    </g>
   </g>
   <g id="text_4">
    <!-- $1$ -->
    <defs>
     <path d="M 12.40625 8.296875  L 28.515625 8.296875  L 28.515625 63.921875  L 10.984375 60.40625  L 10.984375 69.390625  L 28.421875 72.90625  L 38.28125 72.90625  L 38.28125 8.296875  L 54.390625 8.296875  L 54.390625 0  L 12.40625 0  z " id="DejaVuSans-49"/>
    </defs>
    <g transform="translate(149.805466 112.596628)scale(0.22 -0.22)">
     <use transform="translate(0 0.09375)" xlink:href="#DejaVuSans-49"/>
    </g>
   </g>
   <g id="text_5">
    <!-- $9$ -->
    <defs>
     <path d="M 10.984375 1.515625  L 10.984375 10.5  Q 14.703125 8.734375 18.5 7.8125  Q 22.3125 6.890625 25.984375 6.890625  Q 35.75 6.890625 40.890625 13.453125  Q 46.046875 20.015625 46.78125 33.40625  Q 43.953125 29.203125 39.59375 26.953125  Q 35.25 24.703125 29.984375 24.703125  Q 19.046875 24.703125 12.671875 31.3125  Q 6.296875 37.9375 6.296875 49.421875  Q 6.296875 60.640625 12.9375 67.421875  Q 19.578125 74.21875 30.609375 74.21875  Q 43.265625 74.21875 49.921875 64.515625  Q 56.59375 54.828125 56.59375 36.375  Q 56.59375 19.140625 48.40625 8.859375  Q 40.234375 -1.421875 26.421875 -1.421875  Q 22.703125 -1.421875 18.890625 -0.6875  Q 15.09375 0.046875 10.984375 1.515625  z M 30.609375 32.421875  Q 37.25 32.421875 41.125 36.953125  Q 45.015625 41.5 45.015625 49.421875  Q 45.015625 57.28125 41.125 61.84375  Q 37.25 66.40625 30.609375 66.40625  Q 23.96875 66.40625 20.09375 61.84375  Q 16.21875 57.28125 16.21875 49.421875  Q 16.21875 41.5 20.09375 36.953125  Q 23.96875 32.421875 30.609375 32.421875  z " id="DejaVuSans-57"/>
    </defs>
    <g transform="translate(129.349885 173.963372)scale(0.22 -0.22)">
     <use transform="translate(0 0.78125)" xlink:href="#DejaVuSans-57"/>
    </g>
   </g>
   <g id="text_6">
    <!-- $7$ -->
    <defs>
     <path d="M 8.203125 72.90625  L 55.078125 72.90625  L 55.078125 68.703125  L 28.609375 0  L 18.3125 0  L 43.21875 64.59375  L 8.203125 64.59375  z " id="DejaVuSans-55"/>
    </defs>
    <g transform="translate(211.172209 184.191162)scale(0.22 -0.22)">
     <use transform="translate(0 0.09375)" xlink:href="#DejaVuSans-55"/>
    </g>
   </g>
   <g id="text_7">
    <!-- $3$ -->
    <defs>
     <path d="M 40.578125 39.3125  Q 47.65625 37.796875 51.625 33  Q 55.609375 28.21875 55.609375 21.1875  Q 55.609375 10.40625 48.1875 4.484375  Q 40.765625 -1.421875 27.09375 -1.421875  Q 22.515625 -1.421875 17.65625 -0.515625  Q 12.796875 0.390625 7.625 2.203125  L 7.625 11.71875  Q 11.71875 9.328125 16.59375 8.109375  Q 21.484375 6.890625 26.8125 6.890625  Q 36.078125 6.890625 40.9375 10.546875  Q 45.796875 14.203125 45.796875 21.1875  Q 45.796875 27.640625 41.28125 31.265625  Q 36.765625 34.90625 28.71875 34.90625  L 20.21875 34.90625  L 20.21875 43.015625  L 29.109375 43.015625  Q 36.375 43.015625 40.234375 45.921875  Q 44.09375 48.828125 44.09375 54.296875  Q 44.09375 59.90625 40.109375 62.90625  Q 36.140625 65.921875 28.71875 65.921875  Q 24.65625 65.921875 20.015625 65.03125  Q 15.375 64.15625 9.8125 62.3125  L 9.8125 71.09375  Q 15.4375 72.65625 20.34375 73.4375  Q 25.25 74.21875 29.59375 74.21875  Q 40.828125 74.21875 47.359375 69.109375  Q 53.90625 64.015625 53.90625 55.328125  Q 53.90625 49.265625 50.4375 45.09375  Q 46.96875 40.921875 40.578125 39.3125  z " id="DejaVuSans-51"/>
    </defs>
    <g transform="translate(217.308884 112.596628)scale(0.22 -0.22)">
     <use transform="translate(0 0.78125)" xlink:href="#DejaVuSans-51"/>
    </g>
   </g>
   <g id="text_8">
    <!-- $5$ -->
    <defs>
     <path d="M 10.796875 72.90625  L 49.515625 72.90625  L 49.515625 64.59375  L 19.828125 64.59375  L 19.828125 46.734375  Q 21.96875 47.46875 24.109375 47.828125  Q 26.265625 48.1875 28.421875 48.1875  Q 40.625 48.1875 47.75 41.5  Q 54.890625 34.8125 54.890625 23.390625  Q 54.890625 11.625 47.5625 5.09375  Q 40.234375 -1.421875 26.90625 -1.421875  Q 22.3125 -1.421875 17.546875 -0.640625  Q 12.796875 0.140625 7.71875 1.703125  L 7.71875 11.625  Q 12.109375 9.234375 16.796875 8.0625  Q 21.484375 6.890625 26.703125 6.890625  Q 35.15625 6.890625 40.078125 11.328125  Q 45.015625 15.765625 45.015625 23.390625  Q 45.015625 31 40.078125 35.4375  Q 35.15625 39.890625 26.703125 39.890625  Q 22.75 39.890625 18.8125 39.015625  Q 14.890625 38.140625 10.796875 36.28125  z " id="DejaVuSans-53"/>
    </defs>
    <g transform="translate(225.491116 157.598907)scale(0.22 -0.22)">
     <use transform="translate(0 0.09375)" xlink:href="#DejaVuSans-53"/>
    </g>
   </g>
   <g id="text_9">
    <!-- $11$ -->
    <g transform="translate(200.944419 135.097768)scale(0.22 -0.22)">
     <use transform="translate(0 0.09375)" xlink:href="#DejaVuSans-49"/>
     <use transform="translate(63.623047 0.09375)" xlink:href="#DejaVuSans-49"/>
    </g>
   </g>
   <g id="text_10">
    <!-- $2$ -->
    <defs>
     <path d="M 19.1875 8.296875  L 53.609375 8.296875  L 53.609375 0  L 7.328125 0  L 7.328125 8.296875  Q 12.9375 14.109375 22.625 23.890625  Q 32.328125 33.6875 34.8125 36.53125  Q 39.546875 41.84375 41.421875 45.53125  Q 43.3125 49.21875 43.3125 52.78125  Q 43.3125 58.59375 39.234375 62.25  Q 35.15625 65.921875 28.609375 65.921875  Q 23.96875 65.921875 18.8125 64.3125  Q 13.671875 62.703125 7.8125 59.421875  L 7.8125 69.390625  Q 13.765625 71.78125 18.9375 73  Q 24.125 74.21875 28.421875 74.21875  Q 39.75 74.21875 46.484375 68.546875  Q 53.21875 62.890625 53.21875 53.421875  Q 53.21875 48.921875 51.53125 44.890625  Q 49.859375 40.875 45.40625 35.40625  Q 44.1875 33.984375 37.640625 27.21875  Q 31.109375 20.453125 19.1875 8.296875  z " id="DejaVuSans-50"/>
    </defs>
    <g transform="translate(272.538953 194.418953)scale(0.22 -0.22)">
     <use transform="translate(0 0.78125)" xlink:href="#DejaVuSans-50"/>
    </g>
   </g>
   <g id="text_11">
    <!-- $4$ -->
    <defs>
     <path d="M 37.796875 64.3125  L 12.890625 25.390625  L 37.796875 25.390625  z M 35.203125 72.90625  L 47.609375 72.90625  L 47.609375 25.390625  L 58.015625 25.390625  L 58.015625 17.1875  L 47.609375 17.1875  L 47.609375 0  L 37.796875 0  L 37.796875 17.1875  L 4.890625 17.1875  L 4.890625 26.703125  z " id="DejaVuSans-52"/>
    </defs>
    <g transform="translate(374.816859 194.418953)scale(0.22 -0.22)">
     <use transform="translate(0 0.09375)" xlink:href="#DejaVuSans-52"/>
    </g>
   </g>
   <g id="text_12">
    <!-- $6$ -->
    <defs>
     <path d="M 33.015625 40.375  Q 26.375 40.375 22.484375 35.828125  Q 18.609375 31.296875 18.609375 23.390625  Q 18.609375 15.53125 22.484375 10.953125  Q 26.375 6.390625 33.015625 6.390625  Q 39.65625 6.390625 43.53125 10.953125  Q 47.40625 15.53125 47.40625 23.390625  Q 47.40625 31.296875 43.53125 35.828125  Q 39.65625 40.375 33.015625 40.375  z M 52.59375 71.296875  L 52.59375 62.3125  Q 48.875 64.0625 45.09375 64.984375  Q 41.3125 65.921875 37.59375 65.921875  Q 27.828125 65.921875 22.671875 59.328125  Q 17.53125 52.734375 16.796875 39.40625  Q 19.671875 43.65625 24.015625 45.921875  Q 28.375 48.1875 33.59375 48.1875  Q 44.578125 48.1875 50.953125 41.515625  Q 57.328125 34.859375 57.328125 23.390625  Q 57.328125 12.15625 50.6875 5.359375  Q 44.046875 -1.421875 33.015625 -1.421875  Q 20.359375 -1.421875 13.671875 8.265625  Q 6.984375 17.96875 6.984375 36.375  Q 6.984375 53.65625 15.1875 63.9375  Q 23.390625 74.21875 37.203125 74.21875  Q 40.921875 74.21875 44.703125 73.484375  Q 48.484375 72.75 52.59375 71.296875  z " id="DejaVuSans-54"/>
    </defs>
    <g transform="translate(323.677906 245.557906)scale(0.22 -0.22)">
     <use transform="translate(0 0.78125)" xlink:href="#DejaVuSans-54"/>
    </g>
   </g>
   <g id="text_13">
    <!-- $8$ -->
    <defs>
     <path d="M 31.78125 34.625  Q 24.75 34.625 20.71875 30.859375  Q 16.703125 27.09375 16.703125 20.515625  Q 16.703125 13.921875 20.71875 10.15625  Q 24.75 6.390625 31.78125 6.390625  Q 38.8125 6.390625 42.859375 10.171875  Q 46.921875 13.96875 46.921875 20.515625  Q 46.921875 27.09375 42.890625 30.859375  Q 38.875 34.625 31.78125 34.625  z M 21.921875 38.8125  Q 15.578125 40.375 12.03125 44.71875  Q 8.5 49.078125 8.5 55.328125  Q 8.5 64.0625 14.71875 69.140625  Q 20.953125 74.21875 31.78125 74.21875  Q 42.671875 74.21875 48.875 69.140625  Q 55.078125 64.0625 55.078125 55.328125  Q 55.078125 49.078125 51.53125 44.71875  Q 48 40.375 41.703125 38.8125  Q 48.828125 37.15625 52.796875 32.3125  Q 56.78125 27.484375 56.78125 20.515625  Q 56.78125 9.90625 50.3125 4.234375  Q 43.84375 -1.421875 31.78125 -1.421875  Q 19.734375 -1.421875 13.25 4.234375  Q 6.78125 9.90625 6.78125 20.515625  Q 6.78125 27.484375 10.78125 32.3125  Q 14.796875 37.15625 21.921875 38.8125  z M 18.3125 54.390625  Q 18.3125 48.734375 21.84375 45.5625  Q 25.390625 42.390625 31.78125 42.390625  Q 38.140625 42.390625 41.71875 45.5625  Q 45.3125 48.734375 45.3125 54.390625  Q 45.3125 60.0625 41.71875 63.234375  Q 38.140625 66.40625 31.78125 66.40625  Q 25.390625 66.40625 21.84375 63.234375  Q 18.3125 60.0625 18.3125 54.390625  z " id="DejaVuSans-56"/>
    </defs>
    <g transform="translate(354.361278 214.874534)scale(0.22 -0.22)">
     <use transform="translate(0 0.78125)" xlink:href="#DejaVuSans-56"/>
    </g>
   </g>
   <g id="text_14">
    <!-- $10$ -->
    <defs>
     <path d="M 31.78125 66.40625  Q 24.171875 66.40625 20.328125 58.90625  Q 16.5 51.421875 16.5 36.375  Q 16.5 21.390625 20.328125 13.890625  Q 24.171875 6.390625 31.78125 6.390625  Q 39.453125 6.390625 43.28125 13.890625  Q 47.125 21.390625 47.125 36.375  Q 47.125 51.421875 43.28125 58.90625  Q 39.453125 66.40625 31.78125 66.40625  z M 31.78125 74.21875  Q 44.046875 74.21875 50.515625 64.515625  Q 56.984375 54.828125 56.984375 36.375  Q 56.984375 17.96875 50.515625 8.265625  Q 44.046875 -1.421875 31.78125 -1.421875  Q 19.53125 -1.421875 13.0625 8.265625  Q 6.59375 17.96875 6.59375 36.375  Q 6.59375 54.828125 13.0625 64.515625  Q 19.53125 74.21875 31.78125 74.21875  z " id="DejaVuSans-48"/>
    </defs>
    <g transform="translate(354.361278 245.557906)scale(0.22 -0.22)">
     <use transform="translate(0 0.78125)" xlink:href="#DejaVuSans-49"/>
     <use transform="translate(63.623047 0.78125)" xlink:href="#DejaVuSans-48"/>
    </g>
   </g>
  </g>
 </g>
 <defs>
  <clipPath id="p9943bdaaa1">
   <rect height="211.380457" width="334.8" x="54" y="37.589771"/>
  </clipPath>
 </defs>
</svg>