<svg xmlns="http://www.w3.org/2000/svg" width="700" height="400" style="overflow:hidden;-webkit-tap-highlight-color:transparent;user-select:none;cursor:default;vertical-align:middle;position:relative;top:-.398438px;background-color:#fff"><defs><linearGradient id="a" x1="0" x2="0" y1="1" y2="0"><stop offset="0%" stop-color="#cbcbcb" stop-opacity=".5"/><stop offset="100%" stop-color="#e9e9e9" stop-opacity=".5"/></linearGradient><linearGradient id="g" x1="0" x2="0" y1="0" y2="1"><stop offset="0%" stop-color="#afd8f8"/><stop offset="100%" stop-color="#fff"/></linearGradient><linearGradient id="h" x1="0" x2="0" y1="0" y2="1"><stop offset="0%" stop-color="#f6bd0f"/><stop offset="100%" stop-color="#fff"/></linearGradient><linearGradient id="i" x1="0" x2="0" y1="0" y2="1"><stop offset="0%" stop-color="#8bba00"/><stop offset="100%" stop-color="#fff"/></linearGradient><linearGradient id="j" x1="0" x2="0" y1="0" y2="1"><stop offset="0%" stop-color="#ff8e46"/><stop offset="100%" stop-color="#fff"/></linearGradient><linearGradient id="k" x1="0" x2="0" y1="0" y2="1"><stop offset="0%" stop-color="#008e8e"/><stop offset="100%" stop-color="#fff"/></linearGradient><linearGradient id="l" x1="0" x2="0" y1="0" y2="1"><stop offset="0%" stop-color="#d64646"/><stop offset="100%" stop-color="#fff"/></linearGradient><linearGradient id="m" x1="0" x2="0" y1="0" y2="1"><stop offset="0%" stop-color="#8e468e"/><stop offset="100%" stop-color="#fff"/></linearGradient><linearGradient id="n" x1="0" x2="0" y1="0" y2="1"><stop offset="0%" stop-color="#588526"/><stop offset="100%" stop-color="#fff"/></linearGradient><linearGradient id="o" x1="0" x2="0" y1="0" y2="1"><stop offset="0%" stop-color="#b3aa00"/><stop offset="100%" stop-color="#fff"/></linearGradient><linearGradient id="p" x1="0" x2="0" y1="0" y2="1"><stop offset="0%" stop-color="#008ed6"/><stop offset="100%" stop-color="#fff"/></linearGradient><linearGradient id="q" x1="0" x2="0" y1="0" y2="1"><stop offset="0%" stop-color="#9d080d"/><stop offset="100%" stop-color="#fff"/></linearGradient><linearGradient id="r" x1="0" x2="0" y1="0" y2="1"><stop offset="0%" stop-color="#a186be"/><stop offset="100%" stop-color="#fff"/></linearGradient><clipPath id="c"><path d="M66 56.8h616V344H66z"/></clipPath><clipPath id="b"><path d="M66 56.8h616V344H66z"/></clipPath><clipPath id="d"><path d="M66 56.8h616V344H66z"/></clipPath><clipPath id="f"><path d="M66 56.8h616V344H66z"/></clipPath><clipPath id="t"><path d="M66 56.8h616V344H66z"/></clipPath><clipPath id="e"><path d="M66 56.8h616V344H66z"/></clipPath><clipPath id="s"><path d="M66 0h616v344H66z"/></clipPath></defs><g class="raphael-group-4-parentgroup"><g class="raphael-group-5-background"><rect width="698" height="398" x="1" y="1" fill="url('#a')" rx="0" ry="0"/><rect width="699" height="399" x=".5" y=".5" fill="none" stroke="#767575" stroke-opacity=".5" rx="0" ry="0"/></g><g class="raphael-group-27-canvas"><rect width="618" height="289.2" x="65" y="55.8" fill="none" stroke="#545454" stroke-width="2" rx="0" ry="0"/><rect width="616" height="287.2" x="66" y="56.8" fill="#fff" rx="0" ry="0"/></g><g class="raphael-group-6-axisbottom"><g class="raphael-group-86-dataset-Label-group"><g fill="#555" class="raphael-group-88-dataset-axis" font-family="Verdana,sans" font-size="10" style="font-family:Verdana,sans;font-size:10px;font-weight:400;font-style:normal" text-anchor="end"><text x="60" y="347" style="font-size:10px;text-anchor:end">$0M</text><text x="60" y="275" style="font-size:10px;text-anchor:end">$1,000M</text><text x="60" y="203" style="font-size:10px;text-anchor:end">$2,000M</text><text x="60" y="132" style="font-size:10px;text-anchor:end">$3,000M</text><text x="60" y="60" style="font-size:10px;text-anchor:end">$4,000M</text></g></g><g class="raphael-group-102-dataset-Label-group"><g fill="#555" class="raphael-group-104-dataset-axis" font-family="Verdana,sans" font-size="10" style="font-family:Verdana,sans;font-size:10px;font-weight:400;font-style:normal" text-anchor="middle"><text x="91.667" y="359" style="text-anchor:middle">2006</text><text x="143" y="359" style="text-anchor:middle">2007</text><text x="194.333" y="359" style="text-anchor:middle">2008</text><text x="245.667" y="359" style="text-anchor:middle">2009</text><text x="297" y="359" style="text-anchor:middle">2010</text><text x="348.333" y="359" style="text-anchor:middle">2011</text><text x="399.667" y="359" style="text-anchor:middle">2012</text><text x="451" y="359" style="text-anchor:middle">2013</text><text x="502.333" y="359" style="text-anchor:middle">2014</text><text x="553.667" y="359" style="text-anchor:middle">2015</text><text x="605" y="359" style="text-anchor:middle">2016</text><text x="656.333" y="359" style="text-anchor:middle">2017</text></g></g></g><g fill="#eee" fill-opacity=".5" class="raphael-group-29-axisReferenceVisualsFloor" clip-path="url('#b')"><rect width="616" height="71.8" x="66" y="200.4" rx="0" ry="0"/><rect width="616" height="71.8" x="66" y="56.8" rx="0" ry="0"/></g><g fill="none" stroke="#717170" stroke-opacity=".4" class="raphael-group-28-axisReferenceVisualsBottom" clip-path="url('#c')"><path d="M66 272.5h616M66 200.5h616M66 128.5h616"/></g><g class="raphael-group-8-plots" clip-path="url('#f')"><g class="raphael-group-39-column"><g class="raphael-group-54-vcanvas-column-plot"><g stroke="#333" class="raphael-group-67-plot-group"><rect width="41" height="3" x="71.5" y="341.5" fill="url('#g')" rx="0" ry="0"/><rect width="41" height="6" x="122.5" y="335.5" fill="url('#h')" rx="0" ry="0"/><rect width="41" height="6" x="173.5" y="328.5" fill="url('#i')" rx="0" ry="0"/><rect width="41" height="4" x="225.5" y="323.5" fill="url('#j')" rx="0" ry="0"/><rect width="41" height="12" x="276.5" y="311.5" fill="url('#k')" rx="0" ry="0"/><rect width="41" height="19" x="327.5" y="291.5" fill="url('#l')" rx="0" ry="0"/><rect width="41" height="30" x="379.5" y="260.5" fill="url('#m')" rx="0" ry="0"/><rect width="41" height="5" x="430.5" y="255.5" fill="url('#n')" rx="0" ry="0"/><rect width="41" height="21" x="481.5" y="233.5" fill="url('#o')" rx="0" ry="0"/><rect width="41" height="66" x="533.5" y="166.5" fill="url('#p')" rx="0" ry="0"/><rect width="41" height="50" x="584.5" y="115.5" fill="url('#q')" rx="0" ry="0"/><rect width="41" height="45" x="635.5" y="69.5" fill="url('#r')" rx="0" ry="0"/></g><path fill="none" stroke="#000" stroke-linecap="round" d="M70.967 341.5h93.066m-41.066-7h92.066m-41.066-7h92.066m-41.066-4h93.066m-41.066-13h92.066m-41.066-20h92.066m-41.066-30h93.066m-41.066-6h92.066m-41.066-22h92.066m-41.066-67h93.066m-41.066-51h92.066m0-45" class="raphael-group-66-common-elems-group"/></g></g></g><g class="raphael-group-12-datalabel" clip-path="url('#t')" font-family="Verdana,sans" font-size="10" style="font-family:Verdana,sans;font-size:10px;font-weight:400;font-style:normal"><g class="raphael-group-33-canvasdatalabel"><g class="raphael-group-61-vcanvas-label"><g fill="#555" class="raphael-group-69-label-group fusioncharts-datalabels" font-size="10" font-weight="normal" style="font-family:Verdana,sans;font-size:10px;font-weight:400;font-style:normal" text-anchor="middle"><text x="92" y="333" style="text-anchor:middle">$37M</text><text x="143" y="327" style="text-anchor:middle">$93M</text><text x="194" y="320" style="text-anchor:middle">$95M</text><text x="246" y="315" style="text-anchor:middle">$63M</text><text x="297" y="303" style="text-anchor:middle">$174M</text><text x="348" y="283" style="text-anchor:middle">$279M</text><text x="400" y="252" style="text-anchor:middle">$426M</text><text x="451" y="247" style="text-anchor:middle">$78M</text><text x="502" y="225" style="text-anchor:middle">$307M</text><text x="554" y="158" style="text-anchor:middle">$929M</text><text x="605" y="107" style="text-anchor:middle">$715M</text><text x="656" y="85" style="text-anchor:middle">$632M</text></g></g></g></g><g fill="#555" class="raphael-group-14-caption" font-family="Verdana,sans" font-weight="bold" text-anchor="middle"><text x="374" y="28" font-size="13" style="text-anchor:middle;font-family:Verdana,sans;font-size:13px;font-weight:700">CompQ: Net Losses By Year</text><text x="374" y="44" font-size="11" style="text-anchor:middle;font-family:Verdana,sans;font-size:11px;font-weight:700">(Inflation Adjusted)</text></g></g><g class="raphael-group-PRZjQWRo" cursor="pointer" pointer-events="bounding-box" style="transition:.5s"><path d="M41 384.14v-9.59h5.8v1.44h-4.1v2.69h3.48v1.46h-3.47v4Zm7-2.68v-4.52h1.69v4.3c0 1.19.34 1.63 1.12 1.63.63 0 1-.3 1.59-1v-4.93h1.69v7.2h-1.42l-.13-1.05h0a3 3 0 0 1-2.32 1.23c-1.58 0-2.22-1.04-2.22-2.86Zm7.51 1.86.8-1.08a3.23 3.23 0 0 0 2 .8c.78 0 1.14-.36 1.14-.86s-.77-.87-1.54-1.16c-1-.35-2-.9-2-2.1s1-2.15 2.63-2.15a3.94 3.94 0 0 1 2.32.91l-.78 1a2.66 2.66 0 0 0-1.58-.62c-.72 0-1.06.34-1.06.79s.72.8 1.5 1.07c1 .37 2.06.84 2.06 2.19s-1 2.23-2.8 2.23a4.6 4.6 0 0 1-2.73-1.02Zm7.85-7.64a1 1 0 1 1 1-1 1 1 0 0 1-1 1Zm-.85 8.46v-7.2h1.69v7.2Zm3.38-3.59a3.44 3.44 0 1 1 6.85 0 3.44 3.44 0 1 1-6.85 0Zm1.73 0c0 1.44.63 2.39 1.69 2.39s1.69-.95 1.69-2.39-.65-2.41-1.7-2.41-1.68.96-1.68 2.41Zm6.79 3.59v-7.2h1.39l.12 1H76a3.34 3.34 0 0 1 2.36-1.14c1.54 0 2.21 1 2.21 2.86v4.51h-1.7v-4.32c0-1.19-.34-1.63-1.13-1.63a2.29 2.29 0 0 0-1.64.89v5Zm7.83-4.76c0-3.14 2-5 4.43-5a3.79 3.79 0 0 1 2.73 1.21l-.94 1.09a2.42 2.42 0 0 0-1.77-.79c-1.57-.03-2.69 1.29-2.69 3.44s1 3.51 2.64 3.51a2.57 2.57 0 0 0 2-1l.94 1.05a3.84 3.84 0 0 1-3 1.39c-2.42.04-4.34-1.72-4.34-4.9Zm8.76 4.76v-10.35h1.68v4.06a3.3 3.3 0 0 1 2.32-1.08c1.54 0 2.21 1 2.21 2.86v4.51h-1.72v-4.29c0-1.19-.34-1.63-1.13-1.63a2.33 2.33 0 0 0-1.65.89v5Zm7.9-1.93c0-1.54 1.29-2.35 4.24-2.67 0-.77-.33-1.41-1.3-1.41a4 4 0 0 0-2 .7l-.64-1.15a5.64 5.64 0 0 1 3-.93c1.8 0 2.68 1.1 2.68 3.1v4.27h-1.43l-.13-.79h0a3.49 3.49 0 0 1-2.22 1 2 2 0 0 1-2.2-2.12Zm1.65-.14c0 .65.42.93 1 .93a2.25 2.25 0 0 0 1.57-.79v-1.62c-1.93.25-2.57.77-2.57 1.48Zm6.33 2.07v-7.2h1.4l.11 1.28h.06a2.45 2.45 0 0 1 2-1.45 1.86 1.86 0 0 1 .82.14l-.27 1.47a2.46 2.46 0 0 0-.75-.12c-.57 0-1.26.4-1.7 1.48v4.4Zm5.72-2.46v-3.4h-1v-1.27l1.11-.07.21-2h1.4v2h1.84v1.34h-1.86v3.4c0 .85.33 1.26 1 1.26a2 2 0 0 0 .74-.16l.3 1.24a4.43 4.43 0 0 1-1.47.27c-1.65.03-2.27-1.03-2.27-2.61Zm4.33 1.61.79-1.08a3.26 3.26 0 0 0 2 .8c.77 0 1.14-.36 1.14-.86s-.78-.87-1.54-1.16c-.95-.35-2-.9-2-2.1s1-2.15 2.62-2.15a3.89 3.89 0 0 1 2.39.86l-.77 1a2.69 2.69 0 0 0-1.56-.56c-.72 0-1 .34-1 .79s.71.8 1.49 1.07c1 .37 2.07.84 2.07 2.19s-1 2.23-2.8 2.23a4.58 4.58 0 0 1-2.83-1ZM18 374.31h3.33v9.76H18zM22.8 379.11h3.41v4.96H22.8zM27.76 372.68h3.17v11.39M27.76 385.54h3.17v3.33h-3.17v-3.33M129.54 377.27h-2.39V376h6.28v1.27H131v7h-1.5ZM134.11 378.06h1.24l.11 1.11h0a2.15 2.15 0 0 1 1.77-1.27 1.7 1.7 0 0 1 .71.13l-.3 1.28a2.1 2.1 0 0 0-.6-.07c-.49 0-1.09.33-1.46 1.28v3.78h-1.51ZM138.75 376.14a.9.9 0 0 1 1.8 0 .9.9 0 0 1-1.8 0Zm.13 1.92h1.51v6.24h-1.51ZM141.89 382.62c0-1.37 1.09-2 3.65-2.33 0-.64-.27-1.17-1.11-1.17a3.6 3.6 0 0 0-1.75.58l-.53-1a4.78 4.78 0 0 1 2.56-.82c1.55 0 2.33 1 2.33 2.71v3.69h-1.22l-.12-.69h0a2.93 2.93 0 0 1-1.91.84 1.75 1.75 0 0 1-1.9-1.81Zm3.65 0v-1.32c-1.69.21-2.2.59-2.2 1.22s.35.74.86.74a1.85 1.85 0 0 0 1.34-.64ZM148.77 382.68v-7.34h1.51v7.4c0 .36.16.49.31.49a1 1 0 0 0 .23 0l.18 1.1a1.77 1.77 0 0 1-.79.14c-1.05-.02-1.44-.71-1.44-1.79Z"/></g></svg>