<svg xmlns="http://www.w3.org/2000/svg" viewBox="-480 -340 960 680"><g fill-opacity=".5"><path fill="#1f77b4" d="M72.423 125.775h21.333v140.201H72.423zM233.996 92.833h184.291v31.333H233.996z"/><path fill="#ff7f0e" d="M93.72 59.049h38v131.319h-38zM149.449 138.452h18v56.853h-18zM-28.675 68.534h94.469v18h-94.469zM186.007 48.849h48v164.506h-48z"/><path fill="#2ca02c" d="M6.649 118.602h65.798v24.667H6.649zM65.785 23.296h28v48.28h-28zM131.645 90.484h54.377v21.333h-54.377z"/></g><g stroke="#000" text-anchor="middle"><text x="83.09" y="202.885" font-size="17.778" writing-mode="tb-rl">HomerSimpson</text><text x="326.141" y="117.899" font-size="26.111" writing-mode="rl">MargeBouvier</text><text x="112.72" y="131.274" font-size="31.667" writing-mode="tb-rl">Belgium</text><text x="158.449" y="169.721" font-size="15" writing-mode="tb-rl">France</text><text x="18.56" y="82.934" font-size="15" writing-mode="rl">Netherlands</text><text x="210.007" y="139.327" font-size="40" writing-mode="tb-rl">Sweden</text><text x="39.548" y="138.336" font-size="20.556" writing-mode="rl">flower</text><text x="79.785" y="49.85" font-size="23.333" writing-mode="tb-rl">star</text><text x="158.833" y="107.55" font-size="17.778" writing-mode="rl">blurry</text></g></svg>